<svg xmlns="http://www.w3.org/2000/svg" width="216" height="198" viewBox="0 0 216 198"><path fill="#0E5461" d="M68.174 64.416c-3.26 0-5.9-2.641-5.9-5.896v-21.25c0-3.257 2.641-5.898 5.9-5.898 3.258 0 5.898 2.642 5.898 5.898v21.25c0 3.255-2.64 5.896-5.898 5.896zm71.052 0c-3.257 0-5.9-2.641-5.9-5.896v-21.25c0-3.257 2.644-5.898 5.9-5.898 3.258 0 5.899 2.642 5.899 5.898v21.25c0 3.255-2.642 5.896-5.899 5.896zm-89.765 18.948v66.193c0 2.483 2.013 4.495 4.496 4.495h99.485c2.482 0 4.496-2.012 4.496-4.495v-66.193c0-2.481-2.014-4.494-4.496-4.494h-99.485c-2.483 0-4.496 2.013-4.496 4.494zm-19.925-27.482c0-7.446 6.038-13.484 13.485-13.484h16.105v16.122c0 4.994 4.051 9.043 9.047 9.043 4.993 0 9.045-4.047 9.045-9.043v-16.123h52.96v16.123c0 4.996 4.054 9.043 9.047 9.043 4.996 0 9.046-4.049 9.046-9.043v-16.123h16.107c7.445 0 13.484 6.038 13.484 13.484v99.136c0 7.446-6.039 13.484-13.484 13.484h-121.357c-7.447 0-13.485-6.038-13.485-13.484v-99.135zm61.241 53.466v14.226h-14.233v-14.226h14.233zm20.035 19.039v14.229h-14.223v-14.229h14.223zm-20.035 0v14.229h-14.233v-14.229h14.233zm0-38.077v14.225h-14.233v-14.225h14.233zm-20.05 19.038v14.226h-14.225v-14.226h14.225zm0 19.039v14.229h-14.225v-14.229h14.225zm80.171-19.039v14.226h-14.226v-14.226h14.226zm-20.037-19.038v14.225h-14.229v-14.225h14.229zm-20.049 19.038v14.226h-14.223v-14.226h14.223zm40.086-19.038v14.225h-14.226v-14.225h14.226zm-20.037 19.038v14.226h-14.229v-14.226h14.229zm-20.049-19.038v14.225h-14.223v-14.225h14.223zm20.049 38.077v14.229h-14.229v-14.229h14.229zm-104.879-117.532c0-3.614 1.629-6.547 3.639-6.547h147.969c2.01 0 3.638 2.933 3.638 6.547v11.881c0 3.616-1.628 6.549-3.638 6.549h-147.969c-2.01 0-3.639-2.933-3.639-6.549v-11.881z"/><path fill="#ED1C24" d="M10.976 178.664c.725 0 1.431.12 2.118.359.686.238 1.289.599 1.812 1.082.521.482.942 1.082 1.261 1.799s.478 1.554.478 2.509c0 .895-.164 1.732-.491 2.517-.326.783-.788 1.468-1.381 2.052s-1.307 1.044-2.145 1.38c-.835.337-1.759.505-2.768.505-1.026 0-1.947-.164-2.762-.491-.815-.328-1.51-.785-2.084-1.374-.576-.589-1.016-1.297-1.321-2.125-.306-.827-.458-1.746-.458-2.755 0-.902.183-1.83.55-2.781.368-.951.937-1.94 1.707-2.968l4.58-6.147c.16-.213.393-.394.697-.544.306-.15.657-.227 1.057-.227h2.92l-5.696 6.972-.352.425-.325.411c.371-.186.771-.331 1.201-.438.43-.107.898-.161 1.402-.161zm-4.594 5.962c0 .531.073 1.016.219 1.454.146.438.363.812.651 1.122.286.31.644.551 1.068.723.424.173.915.26 1.473.26.523 0 1.003-.089 1.44-.266.439-.178.815-.425 1.13-.743.314-.319.559-.693.736-1.123.177-.429.267-.896.267-1.4 0-.549-.085-1.042-.254-1.479-.167-.439-.406-.811-.716-1.116s-.682-.537-1.115-.696c-.434-.16-.912-.239-1.435-.239-.521 0-.996.088-1.421.265-.425.178-.789.423-1.095.737s-.54.687-.704 1.115c-.162.428-.244.891-.244 1.386z"/><path fill="#fff" d="M22.76 190.654v-8.967h.903c.17 0 .288.032.353.097.064.065.109.178.134.337l.105 1.398c.307-.625.688-1.113 1.138-1.465.451-.352.981-.527 1.59-.527.247 0 .471.028.672.085.201.056.387.134.558.234l-.204 1.178c-.04.147-.133.221-.273.221-.082 0-.209-.028-.381-.084-.171-.057-.41-.085-.718-.085-.549 0-1.007.16-1.375.479-.369.318-.678.782-.926 1.39v5.71h-1.576zM33.443 181.546c.536 0 1.033.09 1.487.27.453.18.847.44 1.177.779s.589.759.775 1.257c.186.499.277 1.066.277 1.704 0 .247-.025.413-.079.495-.053.083-.154.124-.301.124h-5.966c.012.566.088 1.06.23 1.479.141.419.335.769.583 1.049s.543.49.887.629c.341.139.725.208 1.149.208.396 0 .736-.047 1.022-.138.287-.092.533-.19.739-.296.206-.107.379-.206.518-.297.14-.092.259-.138.358-.138.13 0 .23.05.301.15l.442.575c-.194.236-.428.442-.698.615-.271.175-.562.318-.872.43-.31.112-.63.196-.961.252-.33.057-.658.084-.982.084-.619 0-1.19-.104-1.713-.313-.521-.21-.973-.517-1.354-.921-.38-.404-.677-.904-.889-1.5-.213-.596-.318-1.28-.318-2.054 0-.626.095-1.21.287-1.753.191-.542.468-1.014.828-1.412s.8-.711 1.318-.938c.522-.227 1.106-.34 1.755-.34zm.035 1.159c-.76 0-1.359.22-1.796.659s-.708 1.049-.814 1.828h4.877c0-.366-.051-.7-.149-1.004-.102-.305-.248-.567-.442-.788-.196-.222-.434-.393-.714-.514s-.602-.181-.962-.181zM39.17 193.69v-12.003h.938c.225 0 .365.109.425.327l.133 1.062c.384-.466.822-.84 1.314-1.123.493-.283 1.061-.426 1.703-.426.515 0 .979.1 1.399.297.419.198.776.49 1.071.876.294.387.521.867.682 1.438.158.573.239 1.23.239 1.975 0 .661-.089 1.276-.267 1.845-.177.57-.431 1.062-.761 1.479-.331.416-.736.744-1.217.982-.481.239-1.023.358-1.624.358-.555 0-1.028-.091-1.421-.274-.393-.183-.739-.442-1.04-.778v3.966h-1.574zm3.992-10.887c-.513 0-.964.118-1.35.354-.387.236-.742.57-1.066 1.001v4.337c.288.389.606.663.951.823.346.159.73.238 1.155.238.831 0 1.473-.297 1.921-.894.447-.596.672-1.445.672-2.549 0-.585-.052-1.086-.153-1.505-.104-.419-.254-.763-.448-1.031s-.434-.465-.716-.589c-.284-.123-.606-.185-.966-.185zM52.571 181.546c.655 0 1.246.108 1.775.327.527.218.977.528 1.346.93.368.401.65.886.85 1.456.197.569.295 1.205.295 1.907 0 .708-.098 1.346-.295 1.912-.199.566-.481 1.05-.85 1.451-.369.402-.818.71-1.346.926-.529.215-1.12.322-1.775.322s-1.246-.107-1.774-.322c-.527-.216-.979-.523-1.351-.926-.371-.401-.658-.885-.858-1.451s-.301-1.204-.301-1.912c0-.702.101-1.338.301-1.907.2-.57.487-1.055.858-1.456.372-.401.823-.712 1.351-.93.528-.219 1.119-.327 1.774-.327zm0 8.002c.885 0 1.546-.297 1.982-.89.437-.594.655-1.421.655-2.483 0-1.067-.219-1.899-.655-2.496-.437-.596-1.098-.894-1.982-.894-.448 0-.838.077-1.168.229-.33.154-.606.375-.827.664-.222.29-.388.645-.496 1.066-.109.423-.164.898-.164 1.43s.055 1.006.164 1.426c.108.418.274.771.496 1.058.221.285.497.506.827.659s.72.231 1.168.231zM58.785 190.654v-8.967h.903c.17 0 .288.032.353.097s.109.178.135.337l.104 1.398c.307-.625.688-1.113 1.139-1.465.45-.352.98-.527 1.589-.527.248 0 .471.028.673.085.2.056.386.134.558.234l-.205 1.178c-.04.147-.132.221-.273.221-.082 0-.209-.028-.38-.084-.172-.057-.411-.085-.718-.085-.549 0-1.007.16-1.376.479s-.677.782-.925 1.39v5.71h-1.577zM68.637 190.796c-.708 0-1.252-.198-1.633-.594-.382-.395-.571-.965-.571-1.708v-5.488h-1.079c-.096 0-.175-.028-.239-.084-.065-.056-.099-.143-.099-.261v-.629l1.47-.186.363-2.771c.012-.089.051-.161.115-.217.064-.057.146-.084.248-.084h.797v3.089h2.566v1.142h-2.566v5.382c0 .378.09.658.273.842.183.183.419.274.709.274.165 0 .308-.022.429-.067.121-.044.227-.093.314-.146l.227-.146.162-.066c.084 0 .157.05.222.151l.462.752c-.272.253-.6.453-.983.598-.386.144-.78.217-1.187.217zM77.656 183.165c-.071.131-.18.195-.328.195-.088 0-.188-.032-.301-.098l-.411-.217c-.162-.079-.355-.153-.58-.222-.225-.067-.49-.102-.797-.102-.266 0-.504.034-.716.102-.214.068-.396.161-.545.279-.151.118-.267.256-.346.412s-.119.325-.119.508c0 .23.065.423.198.576.134.153.309.286.527.398.218.112.466.211.743.297l.854.274c.293.097.576.204.854.322.276.118.524.266.743.442.218.177.394.394.527.651.133.256.199.564.199.925 0 .413-.075.795-.222 1.146-.147.352-.366.655-.656.912-.288.257-.643.459-1.062.606s-.901.222-1.451.222c-.626 0-1.192-.103-1.699-.306-.508-.204-.938-.465-1.293-.783l.372-.602c.048-.077.104-.137.169-.178.064-.041.149-.062.256-.062s.218.041.336.124l.429.274c.169.1.372.191.611.274s.539.124.899.124c.307 0 .574-.041.805-.12.23-.08.422-.188.575-.323.154-.136.268-.292.342-.469.073-.178.11-.366.11-.566 0-.248-.066-.453-.2-.615-.133-.163-.309-.301-.525-.416-.22-.115-.469-.216-.748-.302l-.858-.27c-.293-.094-.579-.202-.859-.323s-.53-.272-.747-.456c-.22-.183-.395-.408-.527-.677s-.199-.595-.199-.979c0-.342.07-.67.212-.986.143-.315.349-.593.619-.832.272-.239.605-.43 1.002-.57.395-.143.846-.213 1.354-.213.59 0 1.12.093 1.59.278.468.187.874.441 1.216.766l-.353.58zM87.038 190.654v-8.967h.903c.17 0 .288.032.354.097.064.065.109.178.134.337l.105 1.398c.307-.625.687-1.113 1.138-1.465s.981-.527 1.589-.527c.248 0 .472.028.673.085.2.056.387.134.558.234l-.204 1.178c-.041.147-.133.221-.274.221-.082 0-.209-.028-.38-.084-.172-.057-.411-.085-.718-.085-.549 0-1.007.16-1.376.479-.368.318-.677.782-.925 1.39v5.71h-1.577zM97.723 181.546c.536 0 1.033.09 1.486.27.454.18.848.44 1.178.779.329.339.589.759.774 1.257.187.499.278 1.066.278 1.704 0 .247-.026.413-.079.495-.054.083-.154.124-.301.124h-5.967c.012.566.088 1.06.231 1.479.141.419.335.769.583 1.049s.543.49.886.629c.342.139.725.208 1.15.208.396 0 .735-.047 1.022-.138.287-.092.533-.19.739-.296.206-.107.379-.206.517-.297.141-.092.26-.138.359-.138.13 0 .23.05.301.15l.442.575c-.194.236-.428.442-.699.615-.271.175-.562.318-.871.43-.31.112-.63.196-.961.252-.33.057-.658.084-.982.084-.62 0-1.19-.104-1.713-.313-.521-.21-.973-.517-1.354-.921-.38-.404-.677-.904-.889-1.5-.214-.596-.318-1.28-.318-2.054 0-.626.095-1.21.286-1.753.192-.542.469-1.014.829-1.412.359-.398.799-.711 1.317-.938.522-.227 1.105-.34 1.756-.34zm.034 1.159c-.761 0-1.359.22-1.796.659s-.708 1.049-.814 1.828h4.877c0-.366-.051-.7-.15-1.004-.101-.305-.247-.567-.442-.788-.195-.222-.434-.393-.713-.514-.281-.12-.602-.181-.962-.181zM109.566 183.28l-.143.15-.203.054c-.09 0-.185-.037-.288-.111l-.394-.243c-.16-.089-.353-.169-.58-.243-.227-.074-.506-.11-.836-.11-.437 0-.824.077-1.16.234-.337.156-.618.382-.846.677s-.397.652-.513 1.071-.173.888-.173 1.407c0 .543.062 1.025.186 1.447.124.422.299.775.523 1.062.224.286.497.504.818.655.321.15.683.225 1.083.225.385 0 .7-.045.948-.137.248-.091.454-.192.619-.306.166-.112.302-.214.408-.305.105-.092.212-.138.318-.138.136 0 .236.05.301.15l.442.575c-.389.479-.876.828-1.461 1.049-.583.222-1.2.332-1.85.332-.561 0-1.082-.103-1.562-.31-.481-.206-.899-.506-1.254-.898s-.632-.875-.835-1.446c-.205-.573-.306-1.225-.306-1.957 0-.667.092-1.283.278-1.85.186-.567.458-1.055.813-1.465.357-.41.798-.73 1.324-.961.524-.23 1.127-.345 1.805-.345.626 0 1.182.102 1.664.306.484.203.912.491 1.284.862l-.41.569zM115.266 181.546c.536 0 1.033.09 1.487.27.453.18.847.44 1.177.779s.589.759.775 1.257c.186.499.277 1.066.277 1.704 0 .247-.025.413-.079.495-.053.083-.154.124-.301.124h-5.966c.012.566.088 1.06.23 1.479.141.419.336.769.583 1.049.248.28.543.49.887.629.341.139.725.208 1.149.208.396 0 .736-.047 1.022-.138.287-.092.533-.19.739-.296.206-.107.379-.206.518-.297.14-.092.259-.138.358-.138.13 0 .23.05.301.15l.442.575c-.194.236-.428.442-.698.615-.271.175-.562.318-.872.43-.31.112-.629.196-.961.252-.33.057-.658.084-.982.084-.619 0-1.189-.104-1.713-.313-.521-.21-.973-.517-1.354-.921-.38-.404-.677-.904-.889-1.5-.213-.596-.318-1.28-.318-2.054 0-.626.095-1.21.287-1.753.191-.542.468-1.014.828-1.412s.8-.711 1.318-.938c.521-.227 1.105-.34 1.755-.34zm.035 1.159c-.761 0-1.36.22-1.797.659s-.708 1.049-.814 1.828h4.877c0-.366-.051-.7-.149-1.004-.102-.305-.248-.567-.442-.788-.196-.222-.434-.393-.713-.514-.283-.12-.603-.181-.962-.181zM123.099 178.873c0 .153-.03.296-.092.429s-.146.251-.248.354c-.104.104-.224.185-.358.244-.136.059-.281.088-.434.088-.154 0-.297-.029-.43-.088-.133-.06-.251-.14-.354-.244-.104-.103-.185-.221-.243-.354-.06-.133-.088-.275-.088-.429 0-.154.028-.3.088-.439.059-.138.14-.259.243-.362s.222-.184.354-.243c.133-.059.275-.089.43-.089.152 0 .298.03.434.089.135.06.255.14.358.243.103.104.186.225.248.362.061.139.092.285.092.439zm-.353 2.815v8.967h-1.576v-8.967h1.576zM124.393 181.688h1.292c.124 0 .227.032.31.097.082.065.142.142.178.23l2.274 5.771c.082.213.147.425.194.637l.133.629.15-.629c.053-.212.121-.424.204-.637l2.301-5.771c.036-.094.094-.173.173-.234.079-.062.179-.093.297-.093h1.23l-3.656 8.967h-1.425l-3.655-8.967zM137.907 181.546c.536 0 1.033.09 1.487.27.453.18.847.44 1.177.779s.589.759.775 1.257c.186.499.277 1.066.277 1.704 0 .247-.025.413-.079.495-.053.083-.154.124-.301.124h-5.966c.012.566.088 1.06.23 1.479.142.419.336.769.583 1.049.248.28.544.49.887.629.341.139.725.208 1.149.208.396 0 .736-.047 1.022-.138.287-.092.533-.19.739-.296.206-.107.379-.206.518-.297.14-.092.259-.138.358-.138.13 0 .23.05.302.15l.441.575c-.194.236-.428.442-.698.615-.271.175-.562.318-.872.43-.31.112-.629.196-.961.252-.329.057-.658.084-.982.084-.619 0-1.189-.104-1.713-.313-.521-.21-.973-.517-1.354-.921-.38-.404-.677-.904-.889-1.5-.213-.596-.318-1.28-.318-2.054 0-.626.096-1.21.287-1.753.191-.542.468-1.014.828-1.412s.8-.711 1.318-.938c.522-.227 1.106-.34 1.755-.34zm.035 1.159c-.761 0-1.36.22-1.797.659s-.707 1.049-.813 1.828h4.876c0-.366-.05-.7-.149-1.004-.101-.305-.248-.567-.442-.788-.196-.222-.434-.393-.713-.514-.282-.12-.601-.181-.962-.181zM149.946 190.654c-.226 0-.366-.109-.426-.328l-.143-1.089c-.383.467-.821.84-1.313 1.12-.493.28-1.058.42-1.694.42-.515 0-.979-.099-1.398-.296-.42-.198-.777-.488-1.072-.872-.295-.383-.521-.861-.682-1.435-.158-.571-.239-1.23-.239-1.974 0-.66.09-1.275.267-1.846.178-.568.433-1.062.766-1.482.334-.419.738-.747 1.217-.986s1.021-.359 1.628-.359c.549 0 1.019.094 1.408.279s.737.447 1.044.783v-4.975h1.576v13.039h-.939zm-3.054-1.15c.513 0 .964-.118 1.35-.354.387-.236.742-.569 1.066-1.001v-4.337c-.288-.39-.606-.662-.951-.818-.346-.156-.728-.235-1.146-.235-.837 0-1.48.299-1.929.895-.45.597-.673 1.445-.673 2.549 0 .584.05 1.084.149 1.501.101.415.248.758.444 1.026.194.269.434.465.716.589.283.122.607.185.974.185zM156.946 193.69v-12.003h.938c.225 0 .366.109.426.327l.132 1.062c.385-.466.823-.84 1.315-1.123.493-.283 1.061-.426 1.703-.426.515 0 .979.1 1.398.297.42.198.777.49 1.072.876.294.387.521.867.682 1.438.158.573.239 1.23.239 1.975 0 .661-.09 1.276-.267 1.845-.178.57-.431 1.062-.761 1.479-.332.416-.736.744-1.218.982-.481.239-1.022.358-1.623.358-.555 0-1.029-.091-1.421-.274-.394-.183-.739-.442-1.04-.778v3.966h-1.575zm3.992-10.887c-.513 0-.964.118-1.35.354-.387.236-.742.57-1.066 1.001v4.337c.288.389.606.663.951.823.346.159.729.238 1.155.238.831 0 1.472-.297 1.92-.894.448-.596.673-1.445.673-2.549 0-.585-.052-1.086-.154-1.505-.104-.419-.253-.763-.448-1.031-.194-.269-.434-.465-.716-.589-.283-.123-.604-.185-.965-.185zM170.269 181.546c.535 0 1.032.09 1.486.27s.848.44 1.177.779c.33.339.59.759.775 1.257.186.499.278 1.066.278 1.704 0 .247-.026.413-.079.495-.054.083-.154.124-.302.124h-5.966c.012.566.088 1.06.23 1.479.142.419.336.769.584 1.049s.543.49.886.629c.342.139.725.208 1.149.208.396 0 .736-.047 1.023-.138.286-.092.533-.19.739-.296.206-.107.379-.206.517-.297.14-.092.26-.138.359-.138.129 0 .23.05.301.15l.442.575c-.194.236-.428.442-.699.615-.271.175-.562.318-.871.43-.31.112-.63.196-.961.252-.33.057-.658.084-.982.084-.62 0-1.19-.104-1.713-.313-.521-.21-.973-.517-1.354-.921-.381-.404-.678-.904-.889-1.5-.214-.596-.318-1.28-.318-2.054 0-.626.095-1.21.286-1.753.191-.542.469-1.014.828-1.412.36-.398.8-.711 1.318-.938.522-.227 1.105-.34 1.756-.34zm.034 1.159c-.761 0-1.36.22-1.797.659s-.707 1.049-.813 1.828h4.877c0-.366-.051-.7-.15-1.004-.101-.305-.248-.567-.442-.788-.195-.222-.434-.393-.713-.514-.283-.12-.602-.181-.962-.181zM175.995 190.654v-8.967h.903c.17 0 .288.032.353.097s.109.178.134.337l.105 1.398c.307-.625.688-1.113 1.139-1.465.45-.352.98-.527 1.589-.527.248 0 .471.028.673.085.2.056.386.134.558.234l-.205 1.178c-.04.147-.133.221-.273.221-.082 0-.209-.028-.381-.084-.171-.057-.41-.085-.717-.085-.549 0-1.007.16-1.376.479s-.677.782-.925 1.39v5.71h-1.577zM192.858 190.654c-.225 0-.366-.109-.425-.328l-.143-1.089c-.384.467-.821.84-1.314 1.12-.492.28-1.058.42-1.694.42-.515 0-.979-.099-1.398-.296-.42-.198-.776-.488-1.072-.872-.295-.383-.521-.861-.682-1.435-.158-.571-.239-1.23-.239-1.974 0-.66.09-1.275.267-1.846.178-.568.433-1.062.766-1.482.334-.419.738-.747 1.217-.986s1.021-.359 1.628-.359c.549 0 1.019.094 1.408.279s.737.447 1.044.783v-4.975h1.576v13.039h-.939zm-3.054-1.15c.513 0 .964-.118 1.351-.354.386-.236.741-.569 1.065-1.001v-4.337c-.288-.39-.606-.662-.95-.818-.347-.156-.728-.235-1.147-.235-.837 0-1.48.299-1.929.895-.449.597-.673 1.445-.673 2.549 0 .584.051 1.084.149 1.501.102.415.248.758.444 1.026.194.269.434.465.716.589.284.122.608.185.974.185zM203.028 190.654h-.699c-.154 0-.278-.024-.371-.071-.096-.047-.157-.147-.187-.301l-.177-.832c-.236.213-.467.402-.69.57-.225.169-.461.31-.709.425-.247.115-.511.203-.792.262-.279.06-.591.089-.934.089-.349 0-.675-.049-.979-.147-.304-.097-.567-.244-.792-.439-.225-.194-.402-.442-.536-.741-.133-.299-.199-.653-.199-1.062 0-.355.099-.697.293-1.025.194-.329.509-.62.942-.875s1.003-.464 1.704-.626c.701-.163 1.561-.245 2.576-.245v-.703c0-.701-.15-1.23-.447-1.59-.298-.359-.738-.539-1.323-.539-.384 0-.706.049-.97.146-.263.098-.49.207-.682.328l-.496.327c-.138.098-.274.146-.41.146-.106 0-.2-.027-.279-.083-.079-.057-.143-.126-.19-.208l-.284-.505c.496-.479 1.03-.835 1.603-1.071s1.207-.354 1.903-.354c.501 0 .948.083 1.337.248.389.166.718.396.982.691.265.294.467.651.603 1.07.135.419.203.879.203 1.381v5.734zm-4.089-.965c.276 0 .53-.028.761-.084.23-.057.446-.136.651-.239.203-.104.397-.229.583-.376.186-.148.367-.315.545-.505v-1.851c-.727 0-1.343.047-1.851.139-.507.092-.92.213-1.238.36-.318.148-.551.323-.696.525-.144.202-.216.428-.216.677 0 .237.037.442.115.614.076.172.18.312.31.423.13.109.282.19.46.24.177.052.368.077.576.077zM207.765 193.301c-.053.118-.119.212-.198.282-.081.072-.203.107-.367.107h-1.169l1.637-3.559-3.699-8.444h1.362c.136 0 .242.033.318.102.078.068.134.143.169.226l2.398 5.647.137.389.103.398.124-.398.141-.397 2.328-5.639c.036-.094.097-.173.182-.234.085-.062.179-.093.28-.093h1.256l-5.002 11.613z"/><path fill="#ED1C24" d="M84.306 96.753c.343 0 .665.056.968.169.306.112.573.276.801.492.23.216.412.481.548.796s.201.674.201 1.077c0 .392-.071.756-.213 1.093-.144.336-.343.629-.597.878-.256.249-.564.445-.925.588s-.755.214-1.187.214c-.427 0-.812-.068-1.158-.204-.349-.138-.643-.331-.888-.582-.248-.252-.436-.557-.567-.915-.133-.357-.199-.759-.199-1.202 0-.371.083-.768.248-1.187.167-.42.429-.871.789-1.354l2.155-2.903c.055-.071.133-.131.233-.181.098-.05.21-.074.337-.074h.939l-2.95 3.733c.201-.139.424-.246.668-.323.249-.077.514-.115.797-.115zm-2.197 2.588c0 .273.041.522.118.748.081.226.196.419.349.582.153.162.338.287.56.377.219.088.47.133.749.133.285 0 .542-.045.772-.136.23-.092.426-.218.591-.381.164-.162.291-.354.38-.575s.133-.463.133-.724c0-.277-.044-.527-.13-.752-.087-.223-.21-.413-.369-.569-.158-.156-.349-.276-.57-.359s-.464-.125-.729-.125c-.286 0-.542.049-.772.146-.23.098-.424.228-.585.392-.158.165-.282.354-.369.57-.084.215-.128.438-.128.673zM103.161 96.753c.343 0 .666.056.968.169.306.112.573.276.802.492.23.216.411.481.547.796s.202.674.202 1.077c0 .392-.072.756-.214 1.093-.144.336-.343.629-.596.878-.257.249-.565.445-.926.588-.359.143-.755.214-1.187.214-.427 0-.812-.068-1.158-.204-.349-.138-.643-.331-.888-.582-.248-.252-.436-.557-.567-.915-.133-.357-.199-.759-.199-1.202 0-.371.084-.768.248-1.187.167-.42.43-.871.789-1.354l2.155-2.903c.055-.071.133-.131.233-.181.099-.05.211-.074.338-.074h.938l-2.95 3.733c.202-.139.424-.246.669-.323.248-.077.514-.115.796-.115zm-2.195 2.588c0 .273.04.522.118.748.08.226.195.419.349.582.152.162.337.287.559.377.219.088.47.133.749.133.285 0 .542-.045.772-.136.23-.092.427-.218.591-.381.164-.162.291-.354.38-.575.09-.222.133-.463.133-.724 0-.277-.043-.527-.13-.752-.086-.223-.21-.413-.368-.569-.159-.156-.349-.276-.571-.359-.222-.083-.464-.125-.729-.125-.285 0-.542.049-.772.146-.23.098-.424.228-.585.392-.158.165-.282.354-.369.57-.084.215-.127.438-.127.673zM123.06 96.753c.343 0 .666.056.969.169.305.112.573.276.801.492.23.216.412.481.547.796.136.314.202.674.202 1.077 0 .392-.072.756-.213 1.093-.145.336-.343.629-.597.878-.257.249-.564.445-.925.588s-.755.214-1.188.214c-.426 0-.812-.068-1.158-.204-.349-.138-.643-.331-.888-.582-.247-.252-.435-.557-.567-.915-.133-.357-.199-.759-.199-1.202 0-.371.084-.768.248-1.187.167-.42.43-.871.79-1.354l2.155-2.903c.055-.071.132-.131.233-.181.098-.05.21-.074.337-.074h.939l-2.951 3.733c.202-.139.424-.246.669-.323.249-.077.513-.115.796-.115zm-2.196 2.588c0 .273.04.522.118.748.081.226.196.419.349.582.152.162.337.287.559.377.22.088.47.133.749.133.286 0 .542-.045.772-.136.23-.092.427-.218.591-.381.164-.162.291-.354.381-.575.089-.222.132-.463.132-.724 0-.277-.043-.527-.129-.752-.087-.223-.211-.413-.369-.569s-.349-.276-.57-.359c-.223-.083-.464-.125-.729-.125-.285 0-.542.049-.772.146-.23.098-.423.228-.585.392-.158.165-.282.354-.368.57-.086.215-.129.438-.129.673zM143.388 96.753c.343 0 .666.056.969.169.305.112.573.276.801.492.23.216.412.481.547.796.136.314.202.674.202 1.077 0 .392-.072.756-.213 1.093-.145.336-.343.629-.597.878-.257.249-.564.445-.925.588s-.755.214-1.188.214c-.427 0-.812-.068-1.158-.204-.349-.138-.643-.331-.888-.582-.247-.252-.435-.557-.567-.915-.133-.357-.199-.759-.199-1.202 0-.371.084-.768.248-1.187.167-.42.43-.871.79-1.354l2.155-2.903c.055-.071.132-.131.233-.181.098-.05.21-.074.337-.074h.939l-2.951 3.733c.202-.139.424-.246.669-.323.249-.077.513-.115.796-.115zm-2.196 2.588c0 .273.04.522.118.748.08.226.196.419.349.582.152.162.337.287.559.377.22.088.47.133.749.133.286 0 .542-.045.772-.136.23-.092.427-.218.591-.381.164-.162.291-.354.381-.575.089-.222.132-.463.132-.724 0-.277-.043-.527-.13-.752-.086-.223-.21-.413-.368-.569s-.349-.276-.57-.359c-.223-.083-.464-.125-.729-.125-.285 0-.542.049-.772.146-.23.098-.423.228-.585.392-.158.165-.282.354-.368.57-.086.215-.129.438-.129.673zM84.306 115.608c.343 0 .665.057.968.169.306.113.573.277.801.492.23.217.412.481.548.796s.201.674.201 1.077c0 .392-.071.757-.213 1.093-.144.337-.343.629-.597.878-.256.25-.564.445-.925.588s-.755.214-1.187.214c-.427 0-.812-.068-1.158-.204-.349-.137-.643-.331-.888-.582-.248-.252-.436-.557-.567-.914-.133-.358-.199-.76-.199-1.202 0-.372.083-.769.248-1.188.167-.419.429-.871.789-1.354l2.155-2.903c.055-.071.133-.131.233-.181.098-.05.21-.074.337-.074h.939l-2.95 3.733c.201-.138.424-.246.668-.323.249-.077.514-.115.797-.115zm-2.197 2.588c0 .273.041.522.118.748.081.226.196.419.349.582.153.162.338.287.56.377.219.089.47.133.749.133.285 0 .542-.045.772-.136.23-.092.426-.218.591-.381.164-.161.291-.354.38-.575s.133-.463.133-.724c0-.277-.044-.527-.13-.752-.087-.223-.21-.413-.369-.569-.158-.156-.349-.276-.57-.359s-.464-.125-.729-.125c-.286 0-.542.049-.772.146-.23.098-.424.228-.585.393-.158.164-.282.354-.369.569-.084.215-.128.44-.128.673zM103.161 115.608c.343 0 .666.057.968.169.306.113.573.277.802.492.23.217.411.481.547.796s.202.674.202 1.077c0 .392-.072.757-.214 1.093-.144.337-.343.629-.596.878-.257.25-.565.445-.926.588-.359.143-.755.214-1.187.214-.427 0-.812-.068-1.158-.204-.349-.137-.643-.331-.888-.582-.248-.252-.436-.557-.567-.914-.133-.358-.199-.76-.199-1.202 0-.372.084-.769.248-1.188.167-.419.43-.871.789-1.354l2.155-2.903c.055-.071.133-.131.233-.181.099-.05.211-.074.338-.074h.938l-2.95 3.733c.202-.138.424-.246.669-.323.248-.077.514-.115.796-.115zm-2.195 2.588c0 .273.04.522.118.748.08.226.195.419.349.582.152.162.337.287.559.377.219.089.47.133.749.133.285 0 .542-.045.772-.136.23-.092.427-.218.591-.381.164-.161.291-.354.38-.575.09-.222.133-.463.133-.724 0-.277-.043-.527-.13-.752-.086-.223-.21-.413-.368-.569-.159-.156-.349-.276-.571-.359-.222-.083-.464-.125-.729-.125-.285 0-.542.049-.772.146-.23.098-.424.228-.585.393-.158.164-.282.354-.369.569-.084.215-.127.44-.127.673zM123.06 115.608c.343 0 .666.057.969.169.305.113.573.277.801.492.23.217.412.481.547.796.136.314.202.674.202 1.077 0 .392-.072.757-.213 1.093-.145.337-.343.629-.597.878-.257.25-.564.445-.925.588s-.755.214-1.188.214c-.426 0-.812-.068-1.158-.204-.349-.137-.643-.331-.888-.582-.247-.252-.435-.557-.567-.914-.133-.358-.199-.76-.199-1.202 0-.372.084-.769.248-1.188.167-.419.43-.871.79-1.354l2.155-2.903c.055-.071.132-.131.233-.181.098-.05.21-.074.337-.074h.939l-2.951 3.733c.202-.138.424-.246.669-.323.249-.077.513-.115.796-.115zm-2.196 2.588c0 .273.04.522.118.748.081.226.196.419.349.582.152.162.337.287.559.377.22.089.47.133.749.133.286 0 .542-.045.772-.136.23-.092.427-.218.591-.381.164-.161.291-.354.381-.575.089-.222.132-.463.132-.724 0-.277-.043-.527-.129-.752-.087-.223-.211-.413-.369-.569s-.349-.276-.57-.359c-.223-.083-.464-.125-.729-.125-.285 0-.542.049-.772.146-.23.098-.423.228-.585.393-.158.164-.282.354-.368.569-.086.215-.129.44-.129.673zM143.388 115.608c.343 0 .666.057.969.169.305.113.573.277.801.492.23.217.412.481.547.796.136.314.202.674.202 1.077 0 .392-.072.757-.213 1.093-.145.337-.343.629-.597.878-.257.25-.564.445-.925.588s-.755.214-1.188.214c-.427 0-.812-.068-1.158-.204-.349-.137-.643-.331-.888-.582-.247-.252-.435-.557-.567-.914-.133-.358-.199-.76-.199-1.202 0-.372.084-.769.248-1.188.167-.419.43-.871.79-1.354l2.155-2.903c.055-.071.132-.131.233-.181.098-.05.21-.074.337-.074h.939l-2.951 3.733c.202-.138.424-.246.669-.323.249-.077.513-.115.796-.115zm-2.196 2.588c0 .273.04.522.118.748.08.226.196.419.349.582.152.162.337.287.559.377.22.089.47.133.749.133.286 0 .542-.045.772-.136.23-.092.427-.218.591-.381.164-.161.291-.354.381-.575.089-.222.132-.463.132-.724 0-.277-.043-.527-.13-.752-.086-.223-.21-.413-.368-.569s-.349-.276-.57-.359c-.223-.083-.464-.125-.729-.125-.285 0-.542.049-.772.146-.23.098-.423.228-.585.393-.158.164-.282.354-.368.569-.086.215-.129.44-.129.673zM84.306 134.464c.343 0 .665.057.968.169.306.113.573.277.801.493.23.216.412.48.548.796.136.313.201.673.201 1.076 0 .393-.071.757-.213 1.093-.144.337-.343.629-.597.879-.256.249-.564.444-.925.587s-.755.214-1.187.214c-.427 0-.812-.068-1.158-.204-.349-.137-.643-.331-.888-.582-.248-.251-.436-.556-.567-.914-.133-.358-.199-.76-.199-1.202 0-.372.083-.768.248-1.188.167-.419.429-.871.789-1.354l2.155-2.902c.055-.071.133-.132.233-.182.098-.049.21-.074.337-.074h.939l-2.95 3.734c.201-.139.424-.247.668-.324.249-.077.514-.115.797-.115zm-2.197 2.589c0 .272.041.521.118.747.081.226.196.42.349.582.153.162.338.288.56.377.219.089.47.134.749.134.285 0 .542-.046.772-.137.23-.092.426-.218.591-.38.164-.162.291-.354.38-.576.089-.222.133-.463.133-.724 0-.277-.044-.527-.13-.751-.087-.224-.21-.414-.369-.57-.158-.156-.349-.275-.57-.359-.222-.083-.464-.124-.729-.124-.286 0-.542.049-.772.146s-.424.228-.585.392c-.158.164-.282.354-.369.569-.084.216-.128.439-.128.674zM103.161 134.464c.343 0 .666.057.968.169.306.113.573.277.802.493.23.216.411.48.547.796.136.313.202.673.202 1.076 0 .393-.072.757-.214 1.093-.144.337-.343.629-.596.879-.257.249-.565.444-.926.587-.359.143-.755.214-1.187.214-.427 0-.812-.068-1.158-.204-.349-.137-.643-.331-.888-.582-.248-.251-.436-.556-.567-.914-.133-.358-.199-.76-.199-1.202 0-.372.084-.768.248-1.188.167-.419.43-.871.789-1.354l2.155-2.902c.055-.071.133-.132.233-.182.099-.049.211-.074.338-.074h.938l-2.95 3.734c.202-.139.424-.247.669-.324.248-.077.514-.115.796-.115zm-2.195 2.589c0 .272.04.521.118.747.08.226.195.42.349.582.152.162.337.288.559.377.219.089.47.134.749.134.285 0 .542-.046.772-.137.23-.092.427-.218.591-.38s.291-.354.38-.576c.09-.222.133-.463.133-.724 0-.277-.043-.527-.13-.751-.086-.224-.21-.414-.368-.57-.159-.156-.349-.275-.571-.359-.222-.083-.464-.124-.729-.124-.285 0-.542.049-.772.146s-.424.228-.585.392c-.158.164-.282.354-.369.569-.084.216-.127.439-.127.674zM123.06 134.464c.343 0 .666.057.969.169.305.113.573.277.801.493.23.216.412.48.547.796.136.313.202.673.202 1.076 0 .393-.072.757-.213 1.093-.145.337-.343.629-.597.879-.257.249-.564.444-.925.587s-.755.214-1.188.214c-.426 0-.812-.068-1.158-.204-.349-.137-.643-.331-.888-.582-.247-.251-.435-.556-.567-.914s-.199-.76-.199-1.202c0-.372.084-.768.248-1.188.167-.419.43-.871.79-1.354l2.155-2.902c.055-.071.132-.132.233-.182.098-.049.21-.074.337-.074h.939l-2.951 3.734c.202-.139.424-.247.669-.324.249-.077.513-.115.796-.115zm-2.196 2.589c0 .272.04.521.118.747.081.226.196.42.349.582s.337.288.559.377c.22.089.47.134.749.134.286 0 .542-.046.772-.137.23-.092.427-.218.591-.38s.291-.354.381-.576c.089-.222.132-.463.132-.724 0-.277-.043-.527-.129-.751-.087-.224-.211-.414-.369-.57s-.349-.275-.57-.359c-.223-.083-.464-.124-.729-.124-.285 0-.542.049-.772.146s-.423.228-.585.392c-.158.164-.282.354-.368.569-.086.216-.129.439-.129.674zM62.957 115.608c.343 0 .666.057.969.169.305.113.573.277.801.492.23.217.412.481.547.796.136.314.202.674.202 1.077 0 .392-.072.757-.213 1.093-.145.337-.343.629-.597.878-.257.25-.564.445-.925.588s-.755.214-1.188.214c-.426 0-.812-.068-1.158-.204-.349-.137-.643-.331-.888-.582-.247-.252-.435-.557-.567-.914-.133-.358-.199-.76-.199-1.202 0-.372.084-.769.248-1.188.167-.419.43-.871.79-1.354l2.155-2.903c.055-.071.132-.131.233-.181.098-.05.21-.074.337-.074h.939l-2.951 3.733c.202-.138.424-.246.669-.323.249-.077.514-.115.796-.115zm-2.195 2.588c0 .273.04.522.118.748.081.226.196.419.349.582.152.162.337.287.559.377.22.089.47.133.75.133.285 0 .541-.045.771-.136.23-.092.427-.218.591-.381.164-.161.291-.354.381-.575.089-.222.132-.463.132-.724 0-.277-.043-.527-.129-.752-.087-.223-.211-.413-.369-.569s-.349-.276-.57-.359c-.223-.083-.464-.125-.729-.125-.285 0-.542.049-.772.146-.23.098-.423.228-.585.393-.158.164-.282.354-.368.569-.086.215-.129.44-.129.673zM62.957 133.875c.343 0 .666.057.969.169.305.112.573.277.801.492.23.216.412.481.547.796.136.314.202.674.202 1.077 0 .392-.072.756-.213 1.093-.145.336-.343.629-.597.878-.257.249-.564.445-.925.588s-.755.214-1.188.214c-.426 0-.812-.068-1.158-.204-.349-.138-.643-.331-.888-.582-.247-.252-.435-.557-.567-.914-.133-.358-.199-.76-.199-1.203 0-.371.084-.768.248-1.187.167-.419.43-.871.79-1.354l2.155-2.903c.055-.071.132-.131.233-.181.098-.05.21-.074.337-.074h.939l-2.951 3.733c.202-.138.424-.246.669-.323.249-.077.514-.115.796-.115zm-2.195 2.588c0 .273.04.522.118.748.081.226.196.419.349.582.152.162.337.287.559.377.22.088.47.133.75.133.285 0 .541-.045.771-.136.23-.092.427-.218.591-.381.164-.162.291-.354.381-.575.089-.222.132-.463.132-.724 0-.277-.043-.527-.129-.752-.087-.223-.211-.413-.369-.569s-.349-.276-.57-.359c-.223-.083-.464-.125-.729-.125-.285 0-.542.049-.772.146-.23.098-.423.228-.585.392-.158.165-.282.354-.368.57-.086.215-.129.439-.129.673z"/><g fill="#fff"><path d="M42.23 15.292c.592 0 1.153.098 1.684.295.53.195.994.481 1.394.856.398.375.716.837.951 1.384.233.547.35 1.173.35 1.874 0 .683-.124 1.315-.372 1.9-.247.586-.593 1.095-1.037 1.528-.443.434-.979.774-1.606 1.022-.626.248-1.313.372-2.064.372-.743 0-1.416-.118-2.02-.356-.603-.237-1.116-.574-1.543-1.012-.428-.438-.757-.968-.987-1.591s-.346-1.319-.346-2.091c0-.647.145-1.336.434-2.065.29-.729.748-1.515 1.375-2.354l3.748-5.05c.096-.124.23-.229.402-.314.172-.087.369-.129.589-.129h1.631l-5.132 6.495c.351-.241.739-.429 1.167-.562.425-.135.886-.202 1.382-.202zm-3.821 4.502c0 .476.069.909.206 1.302.139.393.34.729.605 1.013.265.282.588.5.971.655.382.154.817.232 1.306.232.495 0 .943-.079 1.343-.237.398-.159.741-.379 1.027-.661s.507-.616.661-1.002c.155-.385.231-.805.231-1.26 0-.481-.074-.918-.226-1.307-.153-.389-.366-.719-.642-.991-.275-.271-.604-.48-.991-.624-.386-.146-.808-.217-1.271-.217-.496 0-.942.084-1.341.252-.401.169-.739.396-1.018.682-.279.286-.493.617-.642.991-.145.376-.219.767-.219 1.172zM51.422 24.359v-7.473h.752c.143 0 .24.027.295.082.054.054.091.146.109.28l.09 1.165c.255-.521.572-.929.948-1.221.376-.293.816-.438 1.323-.438.206 0 .394.022.561.069s.321.111.464.195l-.168.981c-.035.123-.111.184-.229.184-.069 0-.174-.022-.316-.069s-.342-.07-.599-.07c-.456 0-.84.133-1.146.398s-.564.651-.771 1.158v4.758h-1.313zM60.325 16.769c.446 0 .86.075 1.239.225.379.151.706.367.98.649.275.283.49.633.646 1.048.154.416.232.889.232 1.42 0 .206-.021.345-.066.413-.045.069-.128.104-.251.104h-4.972c.01.472.073.883.191 1.231s.281.641.487.874.452.408.737.523c.285.116.605.174.96.174.328 0 .612-.038.852-.114s.443-.158.616-.247c.172-.089.315-.171.431-.247s.215-.114.299-.114c.107 0 .192.041.25.125l.369.479c-.161.197-.355.367-.582.513s-.469.265-.727.357c-.259.094-.525.164-.801.211s-.547.069-.818.069c-.517 0-.992-.087-1.428-.262-.435-.174-.811-.43-1.128-.767-.316-.337-.564-.754-.742-1.251-.177-.496-.265-1.066-.265-1.711 0-.521.079-1.008.239-1.46.16-.453.391-.845.689-1.177.3-.332.666-.593 1.1-.782.435-.188.921-.283 1.463-.283zm.029.965c-.634 0-1.134.185-1.496.55-.365.367-.591.875-.679 1.523h4.064c0-.305-.042-.584-.126-.837-.083-.253-.207-.473-.368-.656-.163-.185-.36-.327-.594-.429-.235-.099-.502-.151-.801-.151zM65.099 26.889v-10.002h.78c.188 0 .306.091.354.273l.111.885c.319-.389.684-.7 1.095-.937.41-.236.885-.354 1.42-.354.429 0 .815.082 1.166.247.349.164.646.407.892.729s.436.722.567 1.198c.135.478.2 1.026.2 1.646 0 .551-.074 1.063-.222 1.538-.146.475-.358.885-.634 1.231s-.613.619-1.014.819c-.401.198-.854.298-1.354.298-.463 0-.857-.076-1.185-.229s-.615-.368-.866-.648v3.304h-1.31zm3.326-9.073c-.428 0-.804.099-1.125.295-.323.197-.618.475-.89.834v3.613c.241.325.506.554.793.687.288.133.609.199.962.199.694 0 1.228-.248 1.601-.745.375-.496.562-1.204.562-2.124 0-.487-.044-.905-.13-1.254-.087-.35-.21-.636-.373-.859-.161-.224-.36-.387-.597-.491-.236-.103-.503-.155-.803-.155zM76.265 16.769c.546 0 1.039.091 1.479.273.44.182.813.44 1.122.774.307.334.543.739.707 1.214.165.474.248 1.004.248 1.589 0 .591-.083 1.121-.248 1.594-.164.472-.4.875-.707 1.21-.309.334-.682.591-1.122.771-.439.18-.933.269-1.479.269s-1.038-.089-1.479-.269c-.439-.18-.815-.437-1.125-.771-.31-.335-.548-.738-.715-1.21-.167-.473-.25-1.003-.25-1.594 0-.585.083-1.115.25-1.589.167-.475.405-.88.715-1.214s.686-.593 1.125-.774c.441-.183.933-.273 1.479-.273zm0 6.669c.738 0 1.288-.247 1.652-.741.363-.494.545-1.185.545-2.069 0-.891-.182-1.584-.545-2.08-.364-.497-.914-.745-1.652-.745-.374 0-.698.063-.974.191s-.506.312-.69.554c-.184.24-.321.537-.413.889-.091.352-.136.748-.136 1.191 0 .442.045.839.136 1.188.092.349.229.643.413.882.185.238.415.421.69.549s.6.191.974.191zM81.442 24.359v-7.473h.752c.144 0 .241.027.296.082.053.054.091.146.109.28l.089 1.165c.256-.521.572-.929.948-1.221.376-.293.817-.438 1.324-.438.206 0 .394.022.561.069s.321.111.464.195l-.169.981c-.034.123-.11.184-.229.184-.069 0-.175-.022-.317-.069s-.341-.07-.598-.07c-.457 0-.84.133-1.146.398-.308.266-.565.651-.771 1.158v4.758h-1.313zM89.651 24.478c-.589 0-1.043-.165-1.359-.494-.317-.33-.478-.805-.478-1.425v-4.572h-.898c-.079 0-.146-.023-.199-.07-.055-.047-.082-.119-.082-.218v-.523l1.225-.155.303-2.309c.01-.073.042-.134.097-.181.053-.047.122-.07.206-.07h.664v2.574h2.14v.952h-2.14v4.484c0 .315.076.549.229.7.151.153.349.229.59.229.138 0 .256-.019.357-.056l.262-.122.188-.121.138-.056c.067 0 .129.042.184.125l.384.628c-.227.211-.5.377-.82.498-.321.121-.65.182-.991.182zM97.168 18.119c-.06.107-.15.162-.272.162-.075 0-.158-.027-.251-.081l-.343-.181c-.135-.066-.297-.128-.483-.185-.188-.057-.408-.085-.665-.085-.22 0-.419.028-.596.085-.178.057-.329.134-.454.232s-.222.213-.288.343-.1.271-.1.424c0 .191.055.352.166.479.11.128.256.239.439.332.182.094.388.176.619.247l.712.229c.243.082.481.171.712.27s.438.222.619.369.328.328.439.542.166.471.166.771c0 .345-.062.663-.185.956-.123.292-.306.545-.546.759-.241.214-.536.383-.885.506-.351.122-.754.185-1.21.185-.521 0-.994-.085-1.417-.255s-.782-.388-1.077-.653l.31-.501.142-.147c.053-.034.125-.052.213-.052.09 0 .182.034.281.104l.357.229c.14.083.31.159.508.229.2.068.45.104.75.104.256 0 .479-.033.671-.1s.352-.156.479-.27c.129-.113.222-.243.284-.392.062-.146.092-.305.092-.472 0-.206-.055-.377-.165-.513-.111-.135-.258-.251-.439-.347s-.39-.179-.624-.25l-.715-.226s-.482-.168-.716-.269c-.233-.102-.44-.228-.622-.381-.184-.152-.329-.34-.439-.563-.111-.224-.166-.496-.166-.815 0-.285.06-.56.177-.822s.29-.494.517-.693c.226-.199.504-.357.834-.476.328-.118.704-.178 1.128-.178.491 0 .934.078 1.324.233.39.154.729.367 1.014.637l-.295.48zM103.887 20.53l-2.515-3.644h1.262c.108 0 .186.018.234.052l.135.147 1.828 2.804c.045-.138.107-.276.191-.414l1.609-2.36.146-.166c.049-.041.111-.062.185-.062h1.21l-2.515 3.57 2.617 3.902h-1.261c-.107 0-.192-.028-.255-.085l-.151-.188-1.88-2.928c-.034.143-.086.27-.155.383l-1.74 2.545-.159.188c-.058.057-.134.085-.233.085h-1.173l2.62-3.829zM115.917 13.671c.448 0 .861.063 1.24.191.378.128.705.311.977.546.272.236.486.521.639.855.152.335.229.706.229 1.114 0 .335-.043.633-.129.896-.087.264-.209.495-.369.694s-.353.367-.579.505-.479.248-.76.332c.689.182 1.206.486 1.552.915.348.428.521.964.521 1.607 0 .487-.092.925-.276 1.313-.185.388-.437.719-.755.991-.32.273-.693.482-1.118.628-.425.145-.882.218-1.369.218-.561 0-1.04-.07-1.438-.211-.399-.141-.736-.332-1.012-.579-.274-.245-.501-.537-.678-.874-.178-.337-.327-.702-.45-1.095l.561-.236c.104-.044.206-.066.31-.066.099 0 .187.021.263.062s.134.107.173.196l.03.062.028.069.251.483c.098.18.232.349.399.505.167.158.374.291.622.398.249.108.558.162.927.162.368 0 .691-.06.969-.181.278-.12.509-.276.693-.468.185-.192.324-.406.418-.643.094-.235.14-.469.14-.7 0-.285-.037-.546-.114-.782-.076-.236-.214-.439-.413-.612-.199-.172-.474-.307-.825-.405-.354-.098-.805-.147-1.354-.147v-.959c.448 0 .83-.047 1.146-.141.317-.093.576-.221.778-.383.201-.162.349-.356.439-.583s.137-.477.137-.752c0-.306-.049-.57-.145-.797-.096-.226-.228-.413-.395-.561s-.365-.259-.594-.332c-.229-.074-.475-.11-.741-.11s-.512.039-.738.118c-.226.078-.426.188-.601.327-.174.14-.321.307-.439.502-.118.193-.206.403-.265.629-.039.143-.099.246-.178.31s-.18.097-.303.097l-.077-.004-.093-.012-.686-.116c.069-.481.202-.908.399-1.279.195-.371.445-.683.747-.934.303-.25.65-.44 1.041-.571.392-.127.813-.192 1.265-.192zM124.695 17.883c.423 0 .824.07 1.203.21.377.141.71.345.995.612s.512.598.679.988c.167.392.25.837.25 1.339 0 .487-.089.939-.265 1.357-.177.418-.425.781-.742 1.092-.316.31-.7.553-1.146.73-.448.177-.939.266-1.476.266-.531 0-1.011-.085-1.441-.255-.432-.17-.799-.41-1.104-.723s-.539-.691-.705-1.137c-.164-.444-.246-.942-.246-1.493 0-.462.104-.954.31-1.476.206-.521.533-1.081.981-1.682l2.678-3.607c.068-.088.164-.162.287-.225.122-.062.264-.092.421-.092h1.165l-3.667 4.64c.251-.172.529-.307.835-.402.305-.094.634-.142.988-.142zm-2.728 3.216c0 .34.049.649.146.93s.242.521.433.723c.188.202.419.357.692.469.272.11.584.165.933.165.354 0 .674-.056.959-.169s.53-.271.735-.473c.203-.201.359-.439.471-.715s.166-.576.166-.9c0-.344-.054-.655-.162-.933-.107-.278-.261-.514-.458-.709-.195-.193-.432-.343-.707-.445-.275-.104-.578-.155-.907-.155-.354 0-.675.061-.96.181-.285.121-.527.282-.727.487-.198.204-.351.44-.456.708-.106.266-.158.546-.158.836zM135.67 14.364c0 .187-.059.341-.177.461-.117.12-.317.181-.597.181h-3.319l-.487 2.773c.551-.118 1.06-.177 1.527-.177.551 0 1.036.081 1.457.243.42.162.773.386 1.059.672.285.285.5.622.646 1.01.144.389.218.812.218 1.269 0 .561-.1 1.068-.296 1.521-.197.452-.467.839-.808 1.161-.342.322-.744.569-1.206.741-.463.172-.961.259-1.497.259-.31 0-.608-.031-.894-.093-.285-.061-.55-.144-.796-.247-.245-.104-.475-.221-.687-.354-.212-.132-.397-.272-.561-.42l.398-.561c.089-.128.207-.192.354-.192.093 0 .203.039.328.115l.454.254c.177.094.384.179.623.255.238.076.521.114.852.114.369 0 .7-.06.996-.178.295-.117.547-.285.756-.505.209-.219.37-.48.482-.785.114-.305.17-.646.17-1.025 0-.329-.047-.627-.144-.893-.095-.266-.24-.492-.436-.679-.194-.187-.437-.332-.726-.435-.291-.104-.63-.155-1.019-.155-.266 0-.54.021-.825.066-.286.044-.581.115-.887.214l-.825-.243.855-4.942h5.008v.575zM146.195 24.359c-.187 0-.305-.091-.354-.273l-.118-.907c-.32.389-.685.7-1.096.934-.41.233-.881.35-1.411.35-.428 0-.817-.082-1.166-.247-.35-.164-.646-.406-.893-.726-.247-.32-.436-.719-.568-1.195-.132-.477-.198-1.025-.198-1.646 0-.55.073-1.063.22-1.538.148-.474.36-.886.639-1.235.278-.349.616-.623 1.015-.822s.851-.298 1.356-.298c.458 0 .849.076 1.173.231.325.155.615.372.87.652v-4.146h1.314v10.866h-.783zm-2.544-.959c.428 0 .803-.099 1.124-.295.322-.197.619-.476.889-.834v-3.614c-.24-.324-.504-.552-.792-.683-.288-.13-.606-.195-.955-.195-.699 0-1.235.249-1.608.745-.374.497-.561 1.205-.561 2.124 0 .487.042.904.126 1.251.083.347.206.632.368.855s.362.387.597.49c.236.105.507.156.812.156zM154.671 24.359h-.583c-.127 0-.23-.02-.31-.06-.078-.039-.13-.122-.154-.25l-.148-.694c-.196.178-.388.336-.575.477-.187.14-.383.258-.59.354-.206.096-.427.169-.66.218-.233.05-.493.074-.778.074-.289 0-.562-.041-.815-.123-.253-.081-.473-.203-.659-.365-.188-.163-.336-.369-.447-.618-.11-.25-.165-.545-.165-.885 0-.296.08-.581.243-.855.163-.273.424-.517.785-.729.361-.213.836-.387 1.42-.522.585-.136 1.302-.203 2.147-.203v-.586c0-.585-.124-1.026-.373-1.325-.248-.3-.615-.449-1.103-.449-.32 0-.589.04-.809.121-.219.082-.407.173-.567.273l-.413.273c-.115.08-.229.121-.343.121-.088 0-.166-.023-.232-.069-.066-.047-.119-.104-.158-.174l-.236-.421c.413-.398.858-.695 1.335-.893.478-.196 1.006-.294 1.585-.294.419 0 .79.068 1.115.206.324.137.597.329.818.575.221.245.388.543.501.893.114.35.17.732.17 1.15v4.78zm-3.408-.803c.232 0 .443-.023.636-.07.191-.047.371-.113.541-.199s.332-.19.487-.313c.154-.123.306-.263.454-.421v-1.543c-.605 0-1.12.039-1.542.115-.424.077-.768.177-1.033.301-.265.124-.458.27-.579.438-.121.167-.18.355-.18.562 0 .198.031.369.095.513s.15.261.258.353c.108.091.236.158.385.2.147.042.306.064.478.064zM158.617 26.564c-.045.099-.1.178-.165.236-.066.059-.169.088-.308.088h-.972l1.364-2.965-3.083-7.037h1.135c.114 0 .202.028.265.085.065.057.111.119.142.188l1.998 4.706.115.324.085.332.103-.332.118-.332 1.94-4.698c.029-.079.079-.145.151-.196.07-.051.148-.077.232-.077h1.047l-4.167 9.678zM168.259 18.119c-.06.107-.15.162-.272.162-.075 0-.158-.027-.251-.081l-.343-.181c-.136-.066-.297-.128-.484-.185-.187-.057-.407-.085-.664-.085-.22 0-.419.028-.597.085-.177.057-.328.134-.453.232-.126.099-.222.213-.288.343s-.1.271-.1.424c0 .191.055.352.166.479.11.128.256.239.439.332.181.094.387.176.619.247l.712.229c.243.082.48.171.711.27.231.099.438.222.62.369s.328.328.439.542c.11.214.165.471.165.771 0 .345-.062.663-.184.956-.123.292-.306.545-.547.759-.24.214-.535.383-.884.506-.351.122-.754.185-1.211.185-.521 0-.993-.085-1.416-.255s-.782-.388-1.077-.653l.31-.501.142-.147c.053-.034.125-.052.213-.052.089 0 .182.034.281.104l.356.229c.141.083.311.159.509.229.2.068.449.104.749.104.257 0 .48-.033.672-.1s.352-.156.479-.27.222-.243.284-.392c.062-.146.092-.305.092-.472 0-.206-.055-.377-.166-.513-.11-.135-.258-.251-.439-.347-.181-.096-.389-.179-.623-.25l-.715-.226s-.482-.168-.716-.269c-.233-.102-.441-.228-.623-.381-.183-.152-.328-.34-.439-.563-.11-.224-.165-.496-.165-.815 0-.285.059-.56.177-.822.117-.263.29-.494.516-.693.227-.199.505-.357.835-.476.328-.118.704-.178 1.128-.178.491 0 .934.078 1.324.233.39.154.729.367 1.014.637l-.295.48z"/></g></svg>