<svg xmlns="http://www.w3.org/2000/svg" width="400" height="366.667" viewBox="0 0 400 366.667"><path fill="#0E5461" d="M126.659 137.816c-6.748 0-12.213-5.465-12.213-12.205v-43.987c0-6.74 5.465-12.208 12.213-12.208 6.744 0 12.211 5.469 12.211 12.208v43.987c0 6.74-5.467 12.205-12.211 12.205zm147.074 0c-6.742 0-12.215-5.465-12.215-12.205v-43.987c0-6.74 5.473-12.208 12.215-12.208 6.744 0 12.212 5.469 12.212 12.208v43.987c0 6.74-5.467 12.205-12.212 12.205zm-185.808 39.223v137.018c0 5.141 4.166 9.304 9.306 9.304h205.931c5.139 0 9.307-4.163 9.307-9.304v-137.018c0-5.135-4.168-9.302-9.307-9.302h-205.932c-5.139-.001-9.305 4.166-9.305 9.302zm-41.244-56.887c0-15.413 12.5-27.912 27.914-27.912h33.338v33.372c0 10.337 8.387 18.719 18.727 18.719 10.336 0 18.722-8.377 18.722-18.719v-33.372h109.626v33.372c0 10.341 8.391 18.719 18.727 18.719 10.341 0 18.725-8.381 18.725-18.719v-33.372h33.34c15.411 0 27.911 12.499 27.911 27.912v205.206c0 15.414-12.5 27.912-27.911 27.912h-251.205c-15.414 0-27.914-12.499-27.914-27.912v-205.206zm126.765 110.671v29.448h-29.461v-29.448h29.461zm41.471 39.411v29.451h-29.439v-29.451h29.439zm-41.471 0v29.451h-29.461v-29.451h29.461zm0-78.818v29.444h-29.461v-29.444h29.461zm-41.504 39.407v29.448h-29.443v-29.448h29.443zm0 39.411v29.451h-29.443v-29.451h29.443zm165.954-39.411v29.448h-29.446v-29.448h29.446zm-41.477-39.407v29.444h-29.453v-29.444h29.453zm-41.502 39.407v29.448h-29.439v-29.448h29.439zm82.979-39.407v29.444h-29.446v-29.444h29.446zm-41.477 39.407v29.448h-29.453v-29.448h29.453zm-41.502-39.407v29.444h-29.439v-29.444h29.439zm41.502 78.818v29.451h-29.453v-29.451h29.453zm-158.092-234.77c0-4.733 2.133-8.575 4.766-8.575h193.816c2.633 0 4.766 3.842 4.766 8.575v15.563c0 4.736-2.133 8.577-4.766 8.577h-193.816c-2.633 0-4.766-3.84-4.766-8.577v-15.563z"/><path fill="#ED1C24" d="M160.052 204.754c.709 0 1.377.115 2.004.349.631.232 1.186.572 1.656 1.018.477.448.853.997 1.134 1.649.282.65.417 1.393.417 2.229 0 .81-.147 1.563-.441 2.261-.297.696-.709 1.302-1.234 1.818-.529.514-1.168.921-1.914 1.217-.746.293-1.563.442-2.457.442-.883 0-1.68-.142-2.396-.423-.721-.286-1.33-.686-1.839-1.206-.512-.521-.901-1.152-1.173-1.893-.274-.74-.413-1.57-.413-2.488 0-.769.171-1.589.515-2.457.344-.87.887-1.803 1.633-2.801l4.461-6.01c.113-.146.274-.271.482-.374.203-.103.436-.154.697-.154h1.944l-6.104 7.729c.415-.287.877-.511 1.383-.669.51-.158 1.061-.237 1.645-.237zm-4.547 5.355c0 .567.084 1.083.246 1.549.167.467.404.867.719 1.206.318.335.701.594 1.16.78.453.182.972.274 1.551.274.59 0 1.121-.093 1.599-.28.478-.191.882-.451 1.222-.789.342-.336.604-.732.787-1.191.184-.459.274-.958.274-1.499 0-.573-.091-1.09-.267-1.556-.181-.461-.436-.855-.766-1.179-.328-.323-.722-.571-1.18-.743-.46-.173-.962-.259-1.51-.259-.592 0-1.121.1-1.598.301-.477.203-.878.47-1.211.81-.328.343-.584.734-.765 1.182-.169.447-.261.91-.261 1.394zM199.082 204.754c.71 0 1.377.115 2.003.349.631.232 1.186.572 1.66 1.018.477.448.85.997 1.131 1.649.281.65.418 1.393.418 2.229 0 .81-.148 1.563-.442 2.261-.297.696-.71 1.302-1.233 1.818-.531.514-1.169.921-1.916 1.217-.743.293-1.563.442-2.457.442-.883 0-1.68-.142-2.396-.423-.721-.286-1.33-.686-1.837-1.206-.513-.521-.901-1.152-1.175-1.893-.274-.74-.412-1.57-.412-2.488 0-.769.174-1.589.515-2.457.344-.87.888-1.803 1.632-2.801l4.461-6.01c.114-.146.275-.271.482-.374.205-.103.438-.154.7-.154h1.942l-6.107 7.729c.419-.287.879-.511 1.387-.669.508-.158 1.06-.237 1.644-.237zm-4.545 5.355c0 .567.084 1.083.244 1.549.167.467.405.867.723 1.206.314.335.698.594 1.155.78.453.182.973.274 1.551.274.59 0 1.121-.093 1.6-.28.477-.191.883-.451 1.223-.789.34-.336.602-.732.785-1.191.188-.459.275-.958.275-1.499 0-.573-.088-1.09-.268-1.556-.18-.461-.436-.855-.762-1.179-.332-.323-.724-.571-1.183-.743-.46-.173-.962-.259-1.509-.259-.59 0-1.121.1-1.599.301-.478.203-.878.47-1.212.81-.327.343-.584.734-.764 1.182-.17.447-.259.91-.259 1.394zM240.271 204.754c.709 0 1.378.115 2.006.349.63.232 1.186.572 1.656 1.018.477.448.854.997 1.133 1.649.281.65.417 1.393.417 2.229 0 .81-.148 1.563-.44 2.261-.299.696-.709 1.302-1.234 1.818-.531.514-1.168.921-1.914 1.217-.747.293-1.563.442-2.459.442-.881 0-1.682-.142-2.396-.423-.723-.286-1.33-.686-1.838-1.206-.512-.521-.899-1.152-1.174-1.893-.276-.74-.412-1.57-.412-2.488 0-.769.173-1.589.512-2.457.348-.87.891-1.803 1.637-2.801l4.461-6.01c.113-.146.272-.271.482-.374.203-.103.436-.154.697-.154h1.945l-6.108 7.729c.419-.287.876-.511 1.385-.669.511-.158 1.06-.237 1.644-.237zm-4.544 5.355c0 .567.082 1.083.245 1.549.167.467.405.867.721 1.206.316.335.697.594 1.157.78.454.182.972.274 1.548.274.594 0 1.123-.093 1.601-.28.478-.191.883-.451 1.223-.789.341-.336.603-.732.788-1.191.184-.459.273-.958.273-1.499 0-.573-.09-1.09-.266-1.556-.181-.461-.438-.855-.765-1.179-.329-.323-.722-.571-1.183-.743-.459-.173-.959-.259-1.508-.259-.592 0-1.123.1-1.601.301-.476.203-.874.47-1.21.81-.326.343-.584.734-.764 1.182-.171.447-.259.91-.259 1.394zM282.349 204.754c.709 0 1.379.115 2.006.349.631.232 1.187.572 1.656 1.018.478.448.854.997 1.132 1.649.282.65.42 1.393.42 2.229 0 .81-.15 1.563-.44 2.261-.301.696-.711 1.302-1.236 1.818-.531.514-1.168.921-1.915 1.217-.744.293-1.562.442-2.456.442-.886 0-1.684-.142-2.397-.423-.722-.286-1.331-.686-1.837-1.206-.514-.521-.901-1.152-1.176-1.893-.275-.74-.413-1.57-.413-2.488 0-.769.175-1.589.515-2.457.346-.87.89-1.803 1.635-2.801l4.463-6.01c.111-.146.272-.271.482-.374.201-.103.434-.154.697-.154h1.943l-6.107 7.729c.418-.287.877-.511 1.384-.669.513-.158 1.06-.237 1.644-.237zm-4.545 5.355c0 .567.084 1.083.245 1.549.166.467.407.867.722 1.206.314.335.698.594 1.156.78.455.182.972.274 1.551.274.593 0 1.121-.093 1.599-.28.478-.191.883-.451 1.224-.789.34-.336.602-.732.789-1.191.183-.459.271-.958.271-1.499 0-.573-.089-1.09-.268-1.556-.18-.461-.438-.855-.764-1.179-.326-.323-.722-.571-1.18-.743-.462-.173-.96-.259-1.512-.259-.588 0-1.12.1-1.598.301-.477.203-.875.47-1.212.81-.327.343-.583.734-.761 1.182-.172.447-.262.91-.262 1.394zM160.052 243.784c.709 0 1.377.117 2.004.35.631.234 1.186.573 1.656 1.018.477.449.853.996 1.134 1.649.282.65.417 1.393.417 2.229 0 .81-.147 1.567-.441 2.261-.297.697-.709 1.302-1.234 1.818-.529.518-1.168.922-1.914 1.218-.746.293-1.563.441-2.457.441-.883 0-1.68-.142-2.396-.423-.721-.284-1.33-.685-1.839-1.205-.512-.521-.901-1.152-1.173-1.892-.274-.741-.413-1.572-.413-2.488 0-.769.171-1.591.515-2.458s.887-1.803 1.633-2.801l4.461-6.01c.113-.147.274-.271.482-.374.203-.104.436-.154.697-.154h1.944l-6.104 7.729c.415-.286.877-.509 1.383-.669.51-.161 1.061-.239 1.645-.239zm-4.547 5.355c0 .566.084 1.082.246 1.549.167.468.404.868.719 1.205.318.336.701.595 1.16.78.453.183.972.274 1.551.274.59 0 1.121-.092 1.599-.279.478-.191.882-.451 1.222-.789.342-.333.604-.733.787-1.191.184-.459.274-.958.274-1.498 0-.573-.091-1.091-.267-1.557-.181-.459-.436-.855-.766-1.178-.328-.323-.722-.572-1.18-.743-.46-.172-.962-.259-1.51-.259-.592 0-1.121.102-1.598.301-.477.202-.878.47-1.211.813-.328.339-.584.731-.765 1.179-.169.445-.261.91-.261 1.393zM199.082 243.784c.71 0 1.377.117 2.003.35.631.234 1.186.573 1.66 1.018.477.449.85.996 1.131 1.649.281.65.418 1.393.418 2.229 0 .81-.148 1.567-.442 2.261-.297.697-.71 1.302-1.233 1.818-.531.518-1.169.922-1.916 1.218-.743.293-1.563.441-2.457.441-.883 0-1.68-.142-2.396-.423-.721-.284-1.33-.685-1.837-1.205-.513-.521-.901-1.152-1.175-1.892-.274-.741-.412-1.572-.412-2.488 0-.769.174-1.591.515-2.458.344-.867.888-1.803 1.632-2.801l4.461-6.01c.114-.147.275-.271.482-.374.205-.104.438-.154.7-.154h1.942l-6.107 7.729c.419-.286.879-.509 1.387-.669.508-.161 1.06-.239 1.644-.239zm-4.545 5.355c0 .566.084 1.082.244 1.549.167.468.405.868.723 1.205.314.336.698.595 1.155.78.453.183.973.274 1.551.274.59 0 1.121-.092 1.6-.279.477-.191.883-.451 1.223-.789.34-.333.602-.733.785-1.191.188-.459.275-.958.275-1.498 0-.573-.088-1.091-.268-1.557-.18-.459-.436-.855-.762-1.178-.332-.323-.724-.572-1.183-.743-.46-.172-.962-.259-1.509-.259-.59 0-1.121.102-1.599.301-.478.202-.878.47-1.212.813-.327.339-.584.731-.764 1.179-.17.445-.259.91-.259 1.393zM240.271 243.784c.709 0 1.378.117 2.006.35.63.234 1.186.573 1.656 1.018.477.449.854.996 1.133 1.649.281.65.417 1.393.417 2.229 0 .81-.148 1.567-.44 2.261-.299.697-.709 1.302-1.234 1.818-.531.518-1.168.922-1.914 1.218-.747.293-1.563.441-2.459.441-.881 0-1.682-.142-2.396-.423-.723-.284-1.33-.685-1.838-1.205-.512-.521-.899-1.152-1.174-1.892-.276-.741-.412-1.572-.412-2.488 0-.769.173-1.591.512-2.458.348-.867.891-1.803 1.637-2.801l4.461-6.01c.113-.147.272-.271.482-.374.203-.104.436-.154.697-.154h1.945l-6.108 7.729c.419-.286.876-.509 1.385-.669.511-.161 1.06-.239 1.644-.239zm-4.544 5.355c0 .566.082 1.082.245 1.549.167.468.405.868.721 1.205.316.336.697.595 1.157.78.454.183.972.274 1.548.274.594 0 1.123-.092 1.601-.279.478-.191.883-.451 1.223-.789.341-.333.603-.733.788-1.191.184-.459.273-.958.273-1.498 0-.573-.09-1.091-.266-1.557-.181-.459-.438-.855-.765-1.178-.329-.323-.722-.572-1.183-.743-.459-.172-.959-.259-1.508-.259-.592 0-1.123.102-1.601.301-.476.202-.874.47-1.21.813-.326.339-.584.731-.764 1.179-.171.445-.259.91-.259 1.393zM282.349 243.784c.709 0 1.379.117 2.006.35.631.234 1.187.573 1.656 1.018.478.449.854.996 1.132 1.649.282.65.42 1.393.42 2.229 0 .81-.15 1.567-.44 2.261-.301.697-.711 1.302-1.236 1.818-.531.518-1.168.922-1.915 1.218-.744.293-1.562.441-2.456.441-.886 0-1.684-.142-2.397-.423-.722-.284-1.331-.685-1.837-1.205-.514-.521-.901-1.152-1.176-1.892-.275-.741-.413-1.572-.413-2.488 0-.769.175-1.591.515-2.458.346-.867.89-1.803 1.635-2.801l4.463-6.01c.111-.147.272-.271.482-.374.201-.104.434-.154.697-.154h1.943l-6.107 7.729c.418-.286.877-.509 1.384-.669.513-.161 1.06-.239 1.644-.239zm-4.545 5.355c0 .566.084 1.082.245 1.549.166.468.407.868.722 1.205.314.336.698.595 1.156.78.455.183.972.274 1.551.274.593 0 1.121-.092 1.599-.279.478-.191.883-.451 1.224-.789.34-.333.602-.733.789-1.191.183-.459.271-.958.271-1.498 0-.573-.089-1.091-.268-1.557-.18-.459-.438-.855-.764-1.178s-.722-.572-1.18-.743c-.462-.172-.96-.259-1.512-.259-.588 0-1.12.102-1.598.301-.477.202-.875.47-1.212.813-.327.339-.583.731-.761 1.179-.172.445-.262.91-.262 1.393zM160.052 282.813c.709 0 1.377.118 2.004.35.631.234 1.186.573 1.656 1.021.477.447.853.994 1.134 1.648.282.648.417 1.391.417 2.228 0 .812-.147 1.566-.441 2.26-.297.698-.709 1.303-1.234 1.82-.529.517-1.168.92-1.914 1.215s-1.563.442-2.457.442c-.883 0-1.68-.141-2.396-.423-.721-.283-1.33-.685-1.839-1.205-.512-.52-.901-1.151-1.173-1.892-.274-.741-.413-1.572-.413-2.488 0-.77.171-1.589.515-2.458.344-.867.887-1.803 1.633-2.801l4.461-6.008c.113-.147.274-.272.482-.375.203-.102.436-.154.697-.154h1.944l-6.104 7.73c.415-.287.877-.511 1.383-.672.51-.159 1.061-.238 1.645-.238zm-4.547 5.36c0 .562.084 1.078.246 1.545.167.466.404.869.719 1.205.318.336.701.597 1.16.78.453.184.972.279 1.551.279.59 0 1.121-.097 1.599-.284.478-.19.882-.451 1.222-.787.342-.335.604-.73.787-1.192.184-.458.274-.958.274-1.499 0-.573-.091-1.091-.267-1.555-.181-.462-.436-.856-.766-1.18-.328-.324-.722-.57-1.18-.744-.46-.171-.962-.257-1.51-.257-.592 0-1.121.102-1.598.301-.477.201-.878.472-1.211.811-.328.339-.584.733-.765 1.179-.169.448-.261.912-.261 1.398zM199.082 282.813c.71 0 1.377.118 2.003.35.631.234 1.186.573 1.66 1.021.477.447.85.994 1.131 1.648.281.648.418 1.391.418 2.228 0 .812-.148 1.566-.442 2.26-.297.698-.71 1.303-1.233 1.82-.531.517-1.169.92-1.916 1.215-.743.295-1.563.442-2.457.442-.883 0-1.68-.141-2.396-.423-.721-.283-1.33-.685-1.837-1.205-.513-.52-.901-1.151-1.175-1.892-.274-.741-.412-1.572-.412-2.488 0-.77.174-1.589.515-2.458.344-.867.888-1.803 1.632-2.801l4.461-6.008c.114-.147.275-.272.482-.375.205-.102.438-.154.7-.154h1.942l-6.107 7.73c.419-.287.879-.511 1.387-.672.508-.159 1.06-.238 1.644-.238zm-4.545 5.36c0 .562.084 1.078.244 1.545.167.466.405.869.723 1.205.314.336.698.597 1.155.78.453.184.973.279 1.551.279.59 0 1.121-.097 1.6-.284.477-.19.883-.451 1.223-.787.34-.335.602-.73.785-1.192.188-.458.275-.958.275-1.499 0-.573-.088-1.091-.268-1.555-.18-.462-.436-.856-.762-1.18-.332-.324-.724-.57-1.183-.744-.46-.171-.962-.257-1.509-.257-.59 0-1.121.102-1.599.301-.478.201-.878.472-1.212.811-.327.339-.584.733-.764 1.179-.17.448-.259.912-.259 1.398zM240.271 282.813c.709 0 1.378.118 2.006.35.63.234 1.186.573 1.656 1.021.477.447.854.994 1.133 1.648.281.648.417 1.391.417 2.228 0 .812-.148 1.566-.44 2.26-.299.698-.709 1.303-1.234 1.82-.531.517-1.168.92-1.914 1.215-.747.295-1.563.442-2.459.442-.881 0-1.682-.141-2.396-.423-.723-.283-1.33-.685-1.838-1.205-.512-.52-.899-1.151-1.174-1.892-.276-.741-.412-1.572-.412-2.488 0-.77.173-1.589.512-2.458.348-.867.891-1.803 1.637-2.801l4.461-6.008c.113-.147.272-.272.482-.375.203-.102.436-.154.697-.154h1.945l-6.108 7.73c.419-.287.876-.511 1.385-.672.511-.159 1.06-.238 1.644-.238zm-4.544 5.36c0 .562.082 1.078.245 1.545.167.466.405.869.721 1.205.316.336.697.597 1.157.78.454.184.972.279 1.548.279.594 0 1.123-.097 1.601-.284.478-.19.883-.451 1.223-.787.341-.335.603-.73.788-1.192.184-.458.273-.958.273-1.499 0-.573-.09-1.091-.266-1.555-.181-.462-.438-.856-.765-1.18-.329-.324-.722-.57-1.183-.744-.459-.171-.959-.257-1.508-.257-.592 0-1.123.102-1.601.301-.476.201-.874.472-1.21.811-.326.339-.584.733-.764 1.179-.171.448-.259.912-.259 1.398zM115.859 243.784c.71 0 1.38.117 2.006.35.632.234 1.188.573 1.657 1.018.479.449.854.996 1.134 1.649.28.65.418 1.393.418 2.229 0 .81-.149 1.567-.44 2.261-.299.697-.71 1.302-1.236 1.818-.531.518-1.168.922-1.913 1.218-.747.293-1.563.441-2.458.441-.882 0-1.684-.142-2.398-.423-.721-.284-1.33-.685-1.838-1.205-.51-.521-.897-1.152-1.174-1.892-.275-.741-.412-1.572-.412-2.488 0-.769.174-1.591.514-2.458.346-.867.89-1.803 1.635-2.801l4.462-6.01c.114-.147.272-.271.481-.374.203-.104.438-.154.699-.154h1.943l-6.109 7.729c.42-.286.879-.509 1.386-.669.513-.161 1.06-.239 1.643-.239zm-4.542 5.355c0 .566.082 1.082.242 1.549.168.468.408.868.723 1.205.316.336.697.595 1.156.78.457.183.972.274 1.552.274.591 0 1.122-.092 1.599-.279.476-.191.883-.451 1.223-.789.34-.333.602-.733.787-1.191.185-.459.273-.958.273-1.498 0-.573-.089-1.091-.268-1.557-.18-.459-.434-.855-.764-1.178-.326-.323-.721-.572-1.18-.743-.461-.172-.961-.259-1.51-.259-.591 0-1.122.102-1.6.301-.479.202-.873.47-1.209.813-.33.339-.584.731-.764 1.179-.172.445-.26.91-.26 1.393zM115.859 281.594c.71 0 1.38.117 2.006.35.632.232 1.188.574 1.657 1.018.479.448.854.997 1.134 1.649.28.65.418 1.393.418 2.229 0 .81-.149 1.565-.44 2.261-.299.696-.71 1.302-1.236 1.819-.531.514-1.168.921-1.913 1.217-.747.293-1.563.442-2.458.442-.882 0-1.684-.142-2.398-.423-.721-.285-1.33-.686-1.838-1.205-.51-.521-.897-1.153-1.174-1.893-.275-.741-.412-1.571-.412-2.49 0-.767.174-1.589.514-2.457.346-.867.89-1.803 1.635-2.801l4.462-6.01c.114-.147.272-.271.481-.375.203-.103.438-.154.699-.154h1.943l-6.109 7.729c.42-.285.879-.509 1.386-.669.513-.158 1.06-.237 1.643-.237zm-4.542 5.357c0 .566.082 1.082.242 1.548.168.467.408.868.723 1.206.316.335.697.594 1.156.78.457.182.972.274 1.552.274.591 0 1.122-.093 1.599-.28.476-.191.883-.451 1.223-.788s.602-.733.787-1.192c.185-.459.273-.958.273-1.498 0-.574-.089-1.091-.268-1.557-.18-.459-.434-.854-.764-1.179-.326-.323-.721-.571-1.18-.742-.461-.173-.961-.26-1.51-.26-.591 0-1.122.102-1.6.301-.479.203-.873.47-1.209.811-.33.341-.584.732-.764 1.181-.172.446-.26.912-.26 1.395z"/><g fill="#fff"><path d="M119.608 41.275c.775 0 1.512.128 2.205.386.695.257 1.303.631 1.826 1.122.521.491.938 1.097 1.246 1.812.305.717.458 1.537.458 2.456 0 .894-.162 1.722-.487 2.489-.324.767-.777 1.434-1.358 2.001s-1.283 1.015-2.104 1.339c-.82.325-1.721.488-2.705.488-.974 0-1.854-.155-2.645-.467-.789-.31-1.462-.752-2.021-1.325-.561-.573-.99-1.268-1.293-2.083-.303-.817-.453-1.729-.453-2.739 0-.848.19-1.75.568-2.705.38-.956.98-1.984 1.801-3.084l4.91-6.615c.125-.162.303-.3.527-.412.225-.114.482-.168.77-.168h2.138l-6.722 8.508c.459-.316.968-.562 1.527-.737.558-.177 1.163-.266 1.812-.266zm-5.004 5.898c0 .623.09 1.19.27 1.705.182.515.445.955.793 1.327.346.37.77.655 1.27.857.502.203 1.072.304 1.713.304.646 0 1.234-.103 1.758-.31.521-.209.971-.497 1.346-.867.375-.369.664-.808.865-1.312.204-.504.303-1.054.303-1.651 0-.629-.096-1.202-.295-1.71-.2-.509-.479-.941-.84-1.299-.361-.355-.793-.629-1.299-.817-.505-.191-1.057-.285-1.664-.285-.65 0-1.234.11-1.756.33-.525.222-.969.52-1.332.893-.367.375-.646.809-.842 1.299-.192.494-.29 1.005-.29 1.536zM131.648 53.153v-9.789h.985c.186 0 .314.037.385.108.072.07.12.192.145.367l.117 1.526c.334-.683.75-1.216 1.242-1.599.492-.384 1.07-.574 1.732-.574.271 0 .517.03.736.091.217.062.419.146.606.256l-.22 1.286c-.047.161-.146.241-.301.241-.091 0-.229-.029-.414-.09-.188-.062-.449-.093-.785-.093-.598 0-1.1.175-1.502.522-.4.348-.738.853-1.008 1.517v6.232h-1.718zM143.311 43.209c.585 0 1.126.098 1.622.294.496.198.926.481 1.286.851.36.371.642.829.845 1.372.202.545.305 1.164.305 1.86 0 .27-.029.451-.088.541-.059.091-.167.136-.328.136h-6.512c.013.618.095 1.156.25 1.613.155.456.368.839.639 1.144.27.307.591.536.965.686.374.153.794.228 1.258.228.431 0 .802-.049 1.115-.149.314-.101.582-.208.808-.324.226-.117.413-.224.564-.324.149-.101.28-.15.392-.15.141 0 .252.055.326.164l.484.628c-.211.258-.465.481-.764.672-.296.19-.613.346-.951.468s-.688.215-1.049.276c-.359.061-.715.091-1.07.091-.678 0-1.301-.114-1.871-.343-.568-.228-1.062-.563-1.478-1.005-.413-.44-.739-.986-.972-1.639-.232-.649-.347-1.396-.347-2.24 0-.683.104-1.32.312-1.912.21-.594.513-1.107.904-1.542s.872-.776 1.438-1.024c.57-.245 1.207-.372 1.917-.372zm.037 1.266c-.83 0-1.485.241-1.96.721-.479.48-.773 1.145-.889 1.995h5.324c0-.399-.056-.765-.166-1.096-.107-.331-.271-.619-.481-.859-.214-.242-.472-.429-.778-.561-.308-.132-.659-.2-1.05-.2zM149.563 56.466v-13.102h1.021c.246 0 .4.12.465.358l.146 1.159c.418-.509.895-.917 1.434-1.226.536-.31 1.158-.464 1.859-.464.562 0 1.068.107 1.526.324.458.214.846.533 1.168.955.323.423.571.946.743 1.57.178.625.262 1.345.262 2.155 0 .722-.096 1.393-.289 2.014-.192.622-.471 1.159-.83 1.613-.361.455-.805.812-1.328 1.074-.526.26-1.118.391-1.773.391-.607 0-1.123-.1-1.552-.3-.429-.199-.806-.482-1.136-.849v4.328h-1.716zm4.357-11.883c-.56 0-1.052.129-1.475.386-.423.258-.809.622-1.165 1.092v4.734c.316.425.663.725 1.039.898.378.174.799.262 1.26.262.91 0 1.608-.326 2.097-.976.491-.65.737-1.578.737-2.782 0-.639-.059-1.186-.17-1.643-.114-.458-.275-.832-.489-1.125-.212-.293-.472-.506-.781-.644-.31-.135-.661-.202-1.053-.202zM164.188 43.209c.715 0 1.361.12 1.937.358.577.238 1.065.577 1.47 1.015.401.437.711.968.926 1.589.217.62.325 1.315.325 2.082 0 .773-.108 1.468-.325 2.087-.215.618-.524 1.146-.926 1.586-.404.437-.893.773-1.47 1.009-.575.236-1.222.352-1.937.352s-1.359-.116-1.938-.352c-.575-.235-1.067-.572-1.472-1.009-.407-.439-.719-.968-.938-1.586-.219-.619-.326-1.313-.326-2.087 0-.767.107-1.462.326-2.082.219-.622.53-1.152.938-1.589.404-.438.896-.777 1.472-1.015.579-.238 1.224-.358 1.938-.358zm0 8.736c.967 0 1.688-.323 2.164-.971.477-.647.714-1.552.714-2.71 0-1.167-.237-2.075-.714-2.726s-1.197-.976-2.164-.976c-.49 0-.914.084-1.275.251s-.663.409-.904.725c-.24.315-.42.704-.541 1.166-.119.46-.178.979-.178 1.56 0 .58.059 1.099.178 1.556.121.456.301.841.541 1.155.241.312.543.551.904.718.361.168.785.252 1.275.252zM170.97 53.153v-9.789h.986c.188 0 .316.037.388.108.068.07.118.192.144.367l.115 1.526c.336-.683.75-1.216 1.242-1.599.492-.384 1.072-.574 1.734-.574.271 0 .516.03.734.091.22.062.421.146.607.256l-.221 1.286c-.045.161-.145.241-.299.241-.092 0-.229-.029-.417-.09-.187-.062-.444-.093-.782-.093-.598 0-1.101.175-1.502.522-.403.348-.74.853-1.01 1.517v6.232h-1.719zM181.724 53.307c-.771 0-1.367-.216-1.78-.647-.417-.431-.626-1.053-.626-1.865v-5.99h-1.177c-.104 0-.19-.031-.261-.092-.072-.062-.108-.156-.108-.286v-.686l1.604-.203.396-3.023c.014-.096.056-.176.127-.237.068-.062.159-.093.269-.093h.872v3.373h2.803v1.247h-2.803v5.874c0 .413.098.718.298.916.198.202.456.301.772.301.18 0 .336-.024.469-.073.132-.047.248-.102.342-.159l.248-.159c.068-.049.126-.073.18-.073.088 0 .169.055.242.163l.502.824c-.297.275-.656.493-1.075.651-.417.159-.847.237-1.294.237zM191.568 44.979c-.077.14-.196.212-.356.212-.098 0-.208-.036-.328-.106l-.449-.236c-.178-.086-.39-.167-.633-.242-.246-.074-.536-.112-.872-.112-.288 0-.549.038-.78.112-.232.074-.43.175-.594.304s-.291.279-.377.45c-.088.169-.131.355-.131.554 0 .251.07.461.217.628.145.167.335.313.576.435.237.123.507.23.811.325l.932.298c.319.107.631.224.934.354.301.129.572.291.811.483.238.193.43.43.576.71s.217.617.217 1.009c0 .451-.082.869-.242 1.252-.161.382-.4.714-.715.994-.315.28-.702.501-1.16.663-.458.16-.985.241-1.583.241-.683 0-1.303-.11-1.856-.334-.555-.223-1.023-.507-1.412-.855l.406-.656c.053-.084.114-.148.187-.194.068-.044.163-.068.278-.068.117 0 .238.046.369.137.127.09.283.189.468.298.183.11.405.209.665.3.262.09.59.135.982.135.335 0 .628-.043.879-.13.25-.086.461-.205.627-.353.169-.148.291-.319.373-.513.08-.192.121-.399.121-.618 0-.27-.072-.494-.217-.672-.146-.176-.338-.328-.576-.454-.237-.125-.51-.235-.817-.327l-.937-.296c-.318-.104-.631-.22-.937-.352-.306-.133-.578-.297-.815-.499-.24-.199-.431-.445-.576-.738s-.217-.65-.217-1.068c0-.374.078-.733.232-1.076.151-.345.379-.647.676-.908.295-.262.66-.468 1.093-.623.429-.155.921-.234 1.477-.234.644 0 1.224.103 1.733.307.512.202.956.48 1.329.833l-.389.63zM200.369 48.137l-3.294-4.773h1.654c.141 0 .241.023.305.068.066.045.124.11.178.193l2.395 3.673c.059-.181.141-.362.25-.543l2.109-3.091.191-.218c.062-.053.146-.082.241-.082h1.585l-3.293 4.677 3.428 5.111h-1.651c-.14 0-.252-.037-.334-.111-.081-.074-.145-.157-.198-.247l-2.463-3.835c-.045.187-.112.353-.203.501l-2.278 3.333-.209.247c-.075.074-.176.111-.306.111h-1.537l3.43-5.014zM216.126 39.152c.588 0 1.13.083 1.627.251.494.167.922.407 1.279.715.355.31.635.683.836 1.121.199.438.299.925.299 1.46 0 .438-.057.828-.168 1.172-.113.346-.275.648-.484.91-.21.261-.462.481-.759.662-.296.181-.628.324-.995.435.904.238 1.58.636 2.033 1.198.455.56.682 1.263.682 2.105 0 .639-.12 1.212-.362 1.721-.242.508-.571.942-.989 1.298-.418.358-.908.632-1.465.822s-1.154.285-1.794.285c-.733 0-1.361-.092-1.881-.275-.524-.185-.966-.436-1.326-.759-.36-.321-.656-.704-.888-1.146-.232-.441-.428-.919-.59-1.434l.733-.309c.137-.058.271-.087.407-.087.129 0 .244.026.344.082s.175.14.227.256l.039.083.037.09c.091.187.201.399.329.634.129.235.304.456.523.661.218.208.49.382.813.522.326.142.73.212 1.215.212.482 0 .905-.079 1.269-.237.364-.157.666-.362.909-.613.24-.251.424-.532.547-.84.123-.309.183-.614.183-.917 0-.375-.048-.716-.149-1.024-.1-.31-.279-.577-.541-.803-.262-.226-.621-.401-1.08-.531-.465-.128-1.055-.192-1.775-.192v-1.257c.588 0 1.088-.061 1.502-.183.415-.122.755-.289 1.02-.501.264-.213.457-.467.575-.765.12-.296.179-.625.179-.985 0-.401-.063-.747-.188-1.043-.126-.295-.298-.541-.517-.734-.219-.193-.478-.339-.777-.435-.3-.098-.622-.144-.971-.144-.35 0-.672.051-.968.155-.296.102-.558.246-.786.428-.229.183-.422.402-.577.658-.153.253-.269.528-.347.824-.05.186-.129.322-.232.405-.104.083-.234.127-.396.127l-.1-.006-.123-.015-.896-.153c.09-.63.264-1.189.521-1.675s.584-.894.979-1.223c.396-.327.853-.578 1.363-.748.511-.171 1.063-.258 1.654-.258zM227.625 44.669c.556 0 1.081.093 1.575.275.496.184.932.451 1.305.802.373.351.67.783.889 1.295.22.512.328 1.096.328 1.753 0 .639-.115 1.231-.348 1.778-.23.547-.555 1.022-.971 1.43-.415.406-.918.724-1.502.958-.588.231-1.23.347-1.934.347-.695 0-1.324-.11-1.888-.334-.565-.223-1.046-.537-1.446-.946-.397-.409-.705-.905-.922-1.489-.216-.582-.323-1.234-.323-1.956 0-.604.136-1.25.405-1.933.271-.682.699-1.416 1.287-2.203l3.506-4.725c.09-.115.217-.212.375-.294.162-.081.347-.121.553-.121h1.527l-4.805 6.078c.328-.226.693-.402 1.094-.528.4-.124.83-.187 1.295-.187zm-3.573 4.213c0 .445.064.851.191 1.218.129.367.316.683.568.946.245.266.549.468.905.614.357.145.767.217 1.222.217.465 0 .883-.072 1.257-.221.372-.149.694-.355.962-.62.266-.263.471-.575.617-.936s.219-.754.219-1.18c0-.451-.072-.858-.213-1.221-.141-.366-.342-.673-.601-.928-.257-.253-.565-.449-.926-.585-.36-.135-.757-.202-1.188-.202-.465 0-.884.078-1.258.236-.373.158-.69.37-.951.637-.26.268-.459.578-.598.928-.139.35-.206.717-.206 1.097zM242.001 40.06c0 .245-.078.447-.231.604s-.416.237-.782.237h-4.348l-.639 3.633c.722-.155 1.388-.231 2.001-.231.722 0 1.357.106 1.909.318.551.212 1.012.505 1.386.88.374.373.655.814.846 1.323.188.509.286 1.062.286 1.661 0 .734-.131 1.4-.388 1.992-.26.592-.612 1.099-1.058 1.52-.447.423-.975.746-1.58.972-.607.225-1.26.338-1.961.338-.406 0-.799-.041-1.171-.122-.374-.078-.72-.188-1.042-.323-.322-.137-.622-.289-.9-.465-.277-.173-.521-.356-.734-.55l.522-.733c.116-.168.271-.252.465-.252.121 0 .266.051.43.15.163.1.361.211.595.333.231.123.502.233.815.334.312.1.685.149 1.115.149.483 0 .917-.079 1.306-.234.387-.152.717-.373.989-.66.274-.287.485-.63.632-1.029.15-.398.224-.847.224-1.343 0-.43-.062-.82-.188-1.168-.125-.348-.314-.645-.57-.889-.255-.244-.572-.435-.951-.569-.38-.137-.824-.204-1.334-.204-.348 0-.707.027-1.081.087-.374.058-.761.15-1.161.28l-1.08-.318 1.121-6.474h6.559v.753zM255.788 53.153c-.244 0-.4-.119-.463-.358l-.156-1.188c-.419.509-.896.918-1.435 1.223-.537.306-1.153.458-1.849.458-.561 0-1.07-.107-1.527-.325-.457-.214-.848-.532-1.169-.95-.323-.419-.57-.941-.745-1.566-.172-.624-.26-1.343-.26-2.155 0-.72.097-1.394.288-2.014.195-.621.472-1.161.838-1.619.363-.457.807-.815 1.329-1.076.521-.261 1.113-.391 1.775-.391.601 0 1.112.099 1.537.303.426.204.805.488 1.14.854v-5.43h1.722v14.233h-1.025zm-3.334-1.257c.562 0 1.054-.129 1.473-.386.423-.259.812-.624 1.165-1.093v-4.734c-.315-.425-.661-.723-1.038-.894-.377-.17-.795-.255-1.25-.255-.916 0-1.619.326-2.107.976-.49.651-.734 1.578-.734 2.782 0 .639.056 1.185.166 1.638.107.455.27.828.481 1.121.213.293.475.506.781.642.309.136.663.203 1.063.203zM266.89 53.153h-.765c-.166 0-.302-.026-.403-.078-.104-.051-.172-.161-.203-.328l-.195-.909c-.256.232-.508.44-.753.624-.245.183-.501.337-.772.464-.271.125-.559.221-.865.284-.306.065-.645.097-1.02.097-.378 0-.736-.053-1.068-.16-.332-.106-.619-.267-.863-.479-.244-.213-.439-.483-.586-.81-.145-.328-.215-.713-.215-1.159 0-.387.104-.761.317-1.121.214-.357.556-.676 1.029-.954.473-.279 1.095-.507 1.859-.685.766-.177 1.704-.266 2.813-.266v-.768c0-.766-.163-1.344-.49-1.735-.324-.392-.806-.588-1.443-.588-.419 0-.771.052-1.059.158-.287.108-.535.227-.744.358-.209.132-.39.25-.541.359-.15.104-.3.158-.448.158-.116 0-.218-.031-.306-.091-.086-.062-.156-.137-.206-.228l-.31-.551c.54-.522 1.124-.911 1.749-1.17.624-.257 1.317-.385 2.075-.385.549 0 1.035.089 1.461.27.424.179.783.432 1.072.753.289.321.508.711.656 1.17.148.457.223.958.223 1.506v6.264zm-4.465-1.053c.305 0 .58-.031.832-.092.252-.062.486-.148.711-.261.221-.113.435-.25.637-.411.202-.162.4-.345.596-.552v-2.02c-.794 0-1.469.051-2.02.15-.556.102-1.007.232-1.355.395-.346.162-.6.353-.758.574-.158.219-.235.465-.235.736 0 .26.041.483.124.671.084.188.197.342.338.463.143.118.309.206.504.262.192.056.401.085.626.085zM272.06 56.042c-.061.128-.132.232-.219.309-.086.078-.221.116-.402.116h-1.271l1.786-3.884-4.038-9.218h1.486c.15 0 .265.038.346.112.086.074.146.156.188.246l2.616 6.165.151.425.111.435.133-.435.156-.435 2.541-6.154c.039-.104.104-.189.199-.256.092-.067.193-.102.304-.102h1.372l-5.459 12.676zM284.687 44.979c-.078.14-.197.212-.355.212-.1 0-.207-.036-.33-.106l-.448-.236c-.179-.086-.39-.167-.634-.242s-.533-.112-.87-.112c-.289 0-.549.038-.782.112-.231.074-.43.175-.594.304s-.29.279-.377.45c-.088.169-.131.355-.131.554 0 .251.072.461.218.628.145.167.335.313.576.435.235.123.506.23.812.325l.931.298c.319.107.63.224.933.354.303.129.574.291.812.483.237.193.429.43.575.71.146.28.218.617.218 1.009 0 .451-.081.869-.241 1.252-.161.382-.4.714-.717.994-.314.28-.701.501-1.156.663-.461.16-.989.241-1.588.241-.682 0-1.301-.11-1.854-.334-.556-.223-1.025-.507-1.41-.855l.403-.656c.054-.084.113-.148.187-.194.068-.044.164-.068.278-.068.116 0 .239.046.369.137l.466.298c.185.11.407.209.667.3.262.09.589.135.981.135.336 0 .629-.043.88-.13.251-.086.46-.205.628-.353.167-.148.29-.319.371-.513.082-.192.121-.399.121-.618 0-.27-.071-.494-.217-.672-.145-.176-.338-.328-.576-.454-.236-.125-.51-.235-.816-.327l-.936-.296c-.319-.104-.632-.22-.938-.352-.307-.133-.58-.297-.816-.499-.24-.199-.431-.445-.576-.738-.145-.293-.215-.65-.215-1.068 0-.374.076-.733.23-1.076.154-.345.38-.647.676-.908.297-.262.661-.468 1.094-.623.429-.155.922-.234 1.477-.234.645 0 1.223.103 1.734.307.512.202.955.48 1.328.833l-.388.63z"/></g></svg>