<svg xmlns="http://www.w3.org/2000/svg" width="101.837" height="73.667" viewBox="0 0 101.837 73.667"><path fill="#fff" d="M99.63 18.062c-2.025-1.778-3.111-3.158-4.532-3.901-7.844-4.113-15.712-8.212-23.729-11.973-1.729-.811-4.374-.863-6.168-.167-19.53 7.571-38.99 15.314-58.4 23.187-1.541.626-3.509 2.581-3.52 3.936-.016 1.411 1.817 3.373 3.332 4.178 7.464 3.967 15.017 7.787 22.708 11.291 1.952.888 4.823 1.212 6.752.463 19.719-7.636 39.339-15.519 58.945-23.436 1.439-.581 2.56-1.955 4.612-3.578zM3.926 47.67l-1.403 1.493c1.144 1.455 1.987 3.48 3.486 4.272 8.021 4.237 16.166 8.26 24.379 12.112 1.449.679 3.659.769 5.146.187 19.906-7.789 39.769-15.691 59.559-23.764 1.508-.615 2.402-2.742 3.578-4.168l-1.406-1.337c-2.251.826-4.524 1.601-6.751 2.487-17.424 6.938-34.889 13.788-52.229 20.938-3.926 1.62-7.082 1.47-10.798-.523-7.725-4.143-15.693-7.827-23.561-11.697zM4.149 34.154l-1.506 1.701c1.453 1.518 2.641 3.526 4.4 4.465 7.284 3.894 14.67 7.621 22.181 11.045 1.939.884 4.782 1.245 6.692.507 19.732-7.62 39.381-15.462 58.974-23.434 1.584-.644 2.595-2.703 3.87-4.109l-1.394-1.546c-2.41.909-4.839 1.775-7.232 2.73-17.409 6.943-34.851 13.791-52.169 20.949-3.751 1.551-6.699 1.288-10.187-.567-7.764-4.125-15.739-7.85-23.629-11.741zM98.703 31.108l-1.349-1.479c-1.818.676-3.655 1.314-5.458 2.031-18.148 7.204-36.236 14.553-54.485 21.486-2.577.98-6.288.788-8.844-.321-8.394-3.649-16.496-7.968-24.713-12.03l-1.437 1.585c1.306 1.495 2.329 3.526 3.966 4.397 7.641 4.062 15.401 7.905 23.237 11.576 1.653.776 4.078 1.226 5.673.605 20.076-7.801 40.082-15.776 60.031-23.894 1.427-.578 2.264-2.604 3.379-3.956zM98.646 44.804l-1.438-1.661c-16.047 6.394-32.431 12.069-48.024 19.423-11.392 5.375-21.32 6.161-31.816-1.356-4.059-2.908-9.048-4.517-13.614-6.717l-1.151 1.651c1.066 1.118 1.936 2.616 3.234 3.297 8.014 4.224 16.069 8.375 24.245 12.265 1.603.761 4.042.91 5.677.272 19.882-7.743 39.7-15.65 59.47-23.666 1.387-.56 2.288-2.311 3.417-3.508z"/><path fill-rule="evenodd" clip-rule="evenodd" fill="#fff" d="M3.926 47.67c7.868 3.87 15.835 7.554 23.561 11.695 3.716 1.993 6.872 2.143 10.798.523 17.34-7.149 34.805-14 52.229-20.938 2.227-.886 4.5-1.661 6.751-2.487l1.406 1.337c-1.176 1.426-2.07 3.554-3.578 4.168-19.79 8.073-39.653 15.975-59.559 23.764-1.487.582-3.697.492-5.146-.187-8.214-3.853-16.358-7.875-24.379-12.112-1.499-.792-2.342-2.818-3.486-4.272l1.403-1.491zM4.149 34.154c7.889 3.892 15.864 7.616 23.628 11.742 3.488 1.854 6.436 2.118 10.187.567 17.319-7.158 34.76-14.005 52.169-20.949 2.394-.955 4.822-1.822 7.232-2.73l1.394 1.546c-1.275 1.407-2.286 3.465-3.87 4.109-19.592 7.971-39.241 15.813-58.973 23.434-1.91.738-4.753.376-6.692-.507-7.51-3.424-14.897-7.151-22.181-11.045-1.76-.939-2.948-2.947-4.4-4.465l1.506-1.702zM98.703 31.108c-1.115 1.353-1.952 3.378-3.379 3.958-19.949 8.118-39.954 16.093-60.031 23.894-1.595.621-4.021.171-5.673-.605-7.836-3.671-15.597-7.514-23.237-11.576-1.638-.871-2.66-2.902-3.966-4.397l1.437-1.585c8.217 4.062 16.32 8.38 24.713 12.03 2.556 1.109 6.267 1.301 8.844.321 18.249-6.935 36.337-14.284 54.485-21.488 1.803-.717 3.64-1.355 5.458-2.031l1.349 1.479zM98.646 44.804c-1.129 1.197-2.029 2.948-3.417 3.509-19.771 8.016-39.588 15.923-59.47 23.666-1.635.638-4.074.488-5.677-.272-8.175-3.89-16.231-8.041-24.245-12.265-1.299-.682-2.168-2.179-3.234-3.297l1.151-1.651c4.566 2.2 9.555 3.809 13.614 6.717 10.497 7.518 20.424 6.731 31.816 1.356 15.593-7.354 31.978-13.029 48.024-19.423l1.438 1.66z"/><g fill="#0E5461"><path d="M33.781 18.048c-14.953 5.7-14.953 5.7-16.087 11.863 11.219 8.871 27.835 5.887 36.237-.838-8.005-1.493-16.689-1.655-20.15-11.025zM48.031 13.664c7.694 1.32 15.916 1.676 19.34 10.639 14.609-4.089 15.066-4.427 16.055-11.77-12.53-7.355-27.312-6.883-35.395 1.131z"/></g></svg>