<svg xmlns="http://www.w3.org/2000/svg" width="618" height="601" viewBox="0 0 618 601"><g opacity=".5" fill="#0F789F"><path d="M162.472 77.858c-1.822 1.422-3.635 2.871-5.433 4.351l1.769 2.135c1.781-1.463 3.547-2.899 5.353-4.31l-1.689-2.176zM148.521 480.812c1.728 1.561 3.469 3.094 5.216 4.594l1.826-2.107c-1.756-1.473-3.482-3.012-5.19-4.535l-1.852 2.048zM138.412 471.23c1.638 1.645 3.304 3.266 5.006 4.852l1.896-1.996c-1.666-1.574-3.313-3.188-4.934-4.799l-1.968 1.943zM151.729 86.705c-1.729 1.524-3.452 3.066-5.181 4.625l1.873 2.06c1.712-1.566 3.405-3.1 5.138-4.604l-1.83-2.081zM173.649 69.582c-1.896 1.308-3.78 2.678-5.633 4.052l1.643 2.247c1.842-1.377 3.697-2.724 5.573-4.036l-1.583-2.263zM159.106 489.859c1.803 1.463 3.635 2.889 5.49 4.289l1.679-2.174c-1.832-1.412-3.613-2.832-5.428-4.281l-1.741 2.166zM124.661 118.267l-2.13-1.784c-1.479 1.784-2.959 3.581-4.409 5.421l2.169 1.7c1.431-1.792 2.895-3.589 4.37-5.337zM170.189 498.314c1.872 1.373 3.765 2.707 5.681 4.025l1.576-2.283v-.014c-1.921-1.299-3.787-2.605-5.634-3.965l-1.623 2.237zM111.335 439.533c1.367 1.871 2.75 3.736 4.156 5.566l2.207-1.686c-1.385-1.822-2.779-3.645-4.117-5.514l-2.246 1.634zM116.083 129.057l-2.205-1.652c-1.402 1.858-2.774 3.737-4.114 5.623l2.258 1.594c1.333-1.868 2.697-3.729 4.061-5.565zM128.829 461.15c1.575 1.709 3.137 3.428 4.735 5.096l2.029-1.889c-1.596-1.672-3.157-3.365-4.709-5.068l-2.055 1.861zM143.417 98.114l-1.93-1.998c-1.661 1.6-3.322 3.241-4.939 4.901l1.983 1.944c1.605-1.649 3.243-3.252 4.886-4.847zM119.802 450.568c1.443 1.811 2.937 3.576 4.451 5.346l2.117-1.795c-1.501-1.74-2.972-3.508-4.417-5.295l-2.151 1.744zM133.776 107.94l-2.032-1.896c-1.576 1.698-3.142 3.434-4.677 5.167l2.081 1.833c1.507-1.721 3.064-3.423 4.628-5.104zM218.466 526.049c2.127.922 4.278 1.834 6.426 2.709l1.043-2.559c-2.136-.867-4.231-1.744-6.346-2.695l-1.123 2.545zM238.618 530.992c-2.107-.729-4.179-1.482-6.244-2.268l-.981 2.586c1.953.75 3.912 1.459 5.876 2.15.286-.866.734-1.696 1.349-2.468zM103.45 428.064c1.289 1.947 2.563 3.881 3.856 5.791l2.305-1.582c-1.294-1.881-2.551-3.797-3.819-5.707l-2.342 1.498zM235.12 37.665c-2.188.798-4.358 1.62-6.52 2.448l1.021 2.597c2.14-.857 4.266-1.642 6.443-2.439l-.944-2.606zM248.344 33.294c-2.224.685-4.458 1.372-6.647 2.11l.872 2.631c2.167-.735 4.365-1.411 6.571-2.072l-.796-2.669zM261.759 29.644c-2.246.539-4.509 1.132-6.723 1.735l.725 2.671c2.192-.596 4.427-1.172 6.661-1.723l-.663-2.683zM193.581 513.459c2.014 1.174 4.031 2.297 6.085 3.393l1.334-2.447c-2.045-1.09-4.05-2.205-6.033-3.352l-1.386 2.406zM197.206 54.862c-1.993 1.121-4.042 2.271-6.029 3.448l1.403 2.371c1.98-1.147 3.971-2.28 5.968-3.399l-1.342-2.42zM181.661 506.195c1.951 1.268 3.932 2.482 5.907 3.707l1.45-2.355v-.02c-1.964-1.186-3.915-2.4-5.83-3.67l-1.527 2.338zM209.537 48.45c-2.094 1.017-4.156 2.068-6.19 3.13l1.273 2.471c2.011-1.067 4.052-2.1 6.12-3.088l-1.203-2.513zM185.245 61.895c-1.961 1.235-3.913 2.505-5.843 3.772l1.509 2.303c1.904-1.273 3.844-2.504 5.788-3.721l-1.454-2.354zM205.843 520.082c2.067 1.047 4.17 2.074 6.277 3.061l1.182-2.482c-2.081-.992-4.16-2.016-6.2-3.043l-1.259 2.464zM222.184 42.733c-2.134.907-4.248 1.829-6.361 2.786l1.152 2.521c2.069-.952 4.171-1.856 6.276-2.756l-1.067-2.551zM87.84 176.375l-2.497-1.166c-.973 2.109-1.907 4.241-2.836 6.373l2.556 1.097c.889-2.121 1.829-4.233 2.777-6.304zM100.719 151.977l-2.378-1.445c-1.186 2.008-2.341 4.009-3.491 6.044l2.418 1.355c1.109-2.007 2.265-4.002 3.451-5.954zM108.108 140.312l-2.316-1.548c-1.292 1.931-2.541 3.88-3.801 5.835l2.337 1.488c1.239-1.96 2.503-3.868 3.78-5.775zM584.074 268.405l2.758-.161c-.15-2.312-.311-4.646-.516-6.932l-2.768.233c.2 2.288.38 4.591.526 6.86zM582.842 254.704l2.742-.328c-.271-2.312-.559-4.613-.893-6.893l-2.746.383c.346 2.266.637 4.554.897 6.838zM574.807 214.213l2.666-.745c-.629-2.257-1.281-4.467-1.988-6.688l-2.623.821c.663 2.201 1.327 4.385 1.945 6.612zM584.582 282.173l2.775-.02c-.029-2.355-.068-4.653-.162-6.951l-2.76.108c.083 2.268.116 4.566.147 6.863zM578.227 227.557l2.682-.627c-.525-2.243-1.068-4.488-1.629-6.756l-2.682.681c.572 2.234 1.099 4.458 1.629 6.702zM580.879 241.061l2.734-.464c-.385-2.298-.809-4.58-1.26-6.853l-2.715.554c.438 2.237.842 4.504 1.241 6.763zM64.339 297.012l-2.757.125c.116 2.323.236 4.649.395 6.948l2.776-.178c-.167-2.308-.303-4.575-.414-6.895zM76.427 364.633l-2.636.824c.696 2.211 1.451 4.42 2.209 6.619l2.604-.922c-.73-2.174-1.479-4.343-2.177-6.521zM78.378 378.602c.838 2.186 1.705 4.328 2.575 6.484l2.555-1.07c-.879-2.119-1.722-4.248-2.531-6.398l-2.599.984zM69.449 338l-2.722.55c.476 2.261.963 4.54 1.495 6.772l2.709-.607c-.526-2.242-1.023-4.493-1.482-6.715zM72.571 351.4l-2.663.689c.573 2.246 1.191 4.496 1.853 6.723l2.649-.764c-.626-2.218-1.24-4.431-1.839-6.648zM83.667 391.461c.949 2.115 1.905 4.227 2.901 6.299l2.478-1.193c-.966-2.064-1.925-4.129-2.855-6.232l-2.524 1.126zM89.627 403.984c1.046 2.092 2.107 4.141 3.217 6.164l2.424-1.324c-1.094-2.004-2.142-4.035-3.183-6.092l-2.458 1.252zM64.101 285.184v-1.947l-2.789-.016v1.963c0 1.672 0 3.332.043 4.989l2.788-.034c-.042-1.646-.042-3.304-.042-4.955zM64.554 269.458l-2.771-.162c-.144 2.317-.25 4.646-.32 6.961l2.762.094c.073-2.298.199-4.597.329-6.893zM65.314 310.75l-2.747.268c.214 2.317.473 4.622.773 6.919l2.753-.328c-.284-2.291-.541-4.561-.779-6.859zM96.224 416.225c1.155 1.988 2.322 4 3.552 5.977l2.347-1.457c-1.165-1.947-2.347-3.936-3.496-5.914l-2.403 1.394zM67.019 324.427l-2.737.421c.351 2.272.723 4.579 1.113 6.855l2.745-.488c-.4-2.241-.779-4.523-1.121-6.788zM93.969 163.981l-2.468-1.272c-1.065 2.037-2.132 4.129-3.15 6.203l2.478 1.227c1.025-2.073 2.058-4.125 3.14-6.158zM516.494 105.534c-1.596-1.68-3.195-3.369-4.816-5.007l-1.988 1.932c1.623 1.661 3.219 3.296 4.768 4.98l2.036-1.905zM506.715 95.645c-1.668-1.607-3.361-3.216-5.084-4.767l-1.875 2.038c1.711 1.562 3.395 3.121 5.027 4.717l1.932-1.988zM469.396 501.295l1.539 2.311c1.932-1.295 3.824-2.629 5.74-3.955l-1.631-2.258c-1.855 1.316-3.743 2.628-5.648 3.902zM529.611 445.219l2.191 1.701c1.424-1.82 2.807-3.662 4.211-5.541l-2.236-1.639c-1.375 1.824-2.754 3.666-4.166 5.479zM485.654 77.418c-1.82-1.425-3.664-2.829-5.543-4.223l-1.643 2.26c1.844 1.351 3.682 2.723 5.5 4.146l1.686-2.183zM474.439 69.159c-1.902-1.333-3.834-2.644-5.768-3.914l-1.512 2.326c1.912 1.251 3.814 2.553 5.707 3.852l1.573-2.264zM496.434 86.26c-1.75-1.544-3.525-3.022-5.324-4.502l-1.754 2.151c1.77 1.459 3.514 2.932 5.264 4.438l1.814-2.087zM564.42 385.885l2.562 1.068c.871-2.141 1.768-4.293 2.594-6.449l-2.57-1.023c-.852 2.138-1.703 4.29-2.586 6.404zM587.309 290.942c.049-1.915.09-3.835.09-5.758h-2.799c0 1.6-.029 3.195-.059 4.793.984.128 1.93.443 2.768.965zM552.385 410.734l2.439 1.314c1.107-2.016 2.195-4.082 3.273-6.133l-2.473-1.283c-1.026 2.042-2.12 4.069-3.239 6.102zM569.416 373.014l2.609.926c.797-2.189 1.541-4.402 2.268-6.605l-2.629-.85c-.715 2.187-1.478 4.376-2.248 6.529zM537.818 434.141l2.26 1.578c1.32-1.902 2.643-3.838 3.916-5.762l-2.32-1.539c-1.268 1.936-2.545 3.832-3.856 5.723zM545.404 422.617l2.346 1.486c1.242-1.984 2.43-3.963 3.605-5.971l-2.381-1.41c-1.165 1.987-2.355 3.962-3.57 5.895zM558.725 398.471l2.52 1.203c.99-2.094 1.99-4.193 2.957-6.338l-2.559-1.131c-.938 2.107-1.905 4.191-2.918 6.266zM457.801 508.662l1.418 2.391c1.975-1.18 3.965-2.402 5.904-3.635l-1.467-2.354c-1.953 1.229-3.902 2.438-5.855 3.598zM425.631 42.363c-2.162-.883-4.322-1.757-6.479-2.611l-1.002 2.585c2.168.842 4.301 1.694 6.418 2.572l1.063-2.546zM326.83 545.439l.016 2.787c2.331-.045 4.638-.082 6.94-.16l-.062-2.777c-2.326.074-4.601.123-6.894.15zM330.767 22.229c-2.134-.036-4.264-.067-6.44-.067h-.51v2.757h.51c2.163-.01 4.263.027 6.39.072l.05-2.762zM344.663 22.916c-2.286-.167-4.601-.307-6.932-.432l-.152 2.768c2.331.116 4.605.264 6.881.421l.203-2.757zM340.572 544.936l.205 2.781c2.307-.158 4.606-.324 6.931-.527l-.246-2.74c-2.292.196-4.569.357-6.89.486zM354.328 543.734l.293 2.754c2.321-.25 4.621-.557 6.92-.867l-.394-2.764c-2.267.325-4.57.643-6.819.877zM357.796 24.276c-2.058-.274-4.118-.503-6.18-.738l-.287 2.767c2.248.233 4.514.509 6.768.789-.261-.912-.356-1.866-.301-2.818zM312.935 547.967c2.316.115 4.636.182 6.953.215l.041-2.77c-2.293-.039-4.585-.1-6.87-.207l-.124 2.762zM289.101 24.492c-2.299.329-4.582.642-6.869 1.009l.448 2.744c2.251-.368 4.511-.697 6.791-1.007l-.37-2.746zM285.228 545.332c2.297.357 4.592.66 6.918.932l.327-2.754c-2.285-.287-4.558-.598-6.836-.939l-.409 2.761zM302.948 23.016c-2.316.183-4.611.389-6.909.643l.302 2.765c2.244-.241 4.536-.458 6.836-.659l-.229-2.749zM299.049 547.018c2.306.215 4.611.395 6.95.551l.174-2.742c-2.308-.162-4.575-.33-6.86-.562l-.264 2.753zM316.843 22.257c-2.305.063-4.634.166-6.937.289l.159 2.768c2.255-.122 4.553-.235 6.856-.3l-.078-2.757zM420.889 526.947l1.027 2.572c2.156-.859 4.275-1.744 6.418-2.66l-1.104-2.537c-2.087.91-4.197 1.778-6.341 2.625zM438.365 48.061c-2.102-1.003-4.211-1.968-6.332-2.919l-1.127 2.524c2.09.935 4.186 1.903 6.26 2.902l1.199-2.507zM433.531 521.518l1.156 2.512c2.07-.971 4.166-1.965 6.238-2.988l-1.23-2.494c-2.045 1.02-4.111 2.009-6.164 2.97zM462.795 61.493c-1.957-1.218-3.963-2.423-5.973-3.601l-1.389 2.407c1.984 1.166 3.945 2.337 5.9 3.541l1.462-2.347zM450.764 54.449c-2.033-1.102-4.074-2.198-6.164-3.257l-1.254 2.46c2.041 1.047 4.039 2.135 6.072 3.236l1.346-2.439zM275.36 26.714c-2.263.426-4.541.874-6.799 1.368l.577 2.727c2.238-.51 4.473-.964 6.75-1.375l-.528-2.72zM445.812 515.443l1.289 2.43c2.049-1.09 4.096-2.201 6.105-3.326l-1.344-2.418c-2.001 1.127-4.014 2.226-6.05 3.314zM394.817 535.799l.765 2.646c2.234-.623 4.453-1.275 6.659-1.957l-.797-2.623c-2.215.66-4.41 1.293-6.627 1.934zM381.448 539.164l.612 2.691c2.28-.492 4.537-1.033 6.769-1.598l-.657-2.689c-2.217.549-4.475 1.088-6.724 1.596zM407.967 531.715l.883 2.623c2.223-.738 4.395-1.518 6.602-2.309l-.98-2.607c-2.148.795-4.302 1.557-6.505 2.293zM367.953 541.811l.458 2.729c2.283-.387 4.582-.805 6.841-1.238l-.522-2.727c-2.247.437-4.526.866-6.777 1.236zM412.59 37.321c-2.182-.77-4.375-1.521-6.59-2.254l-.879 2.637c2.197.715 4.395 1.463 6.537 2.224l.932-2.607zM541.674 428.418zM120.291 123.604zM499.756 92.917zM158.808 84.343zM323.817 24.918z"/></g><g fill="#fff"><path d="M36.054 250.019h2.41c.249 0 .457.059.624.176.167.118.279.276.335.475l2.623 9.223c.064.228.123.475.176.741.054.266.105.549.155.848.057-.299.119-.582.187-.848.067-.267.141-.514.219-.741l3.028-9.223c.057-.164.169-.312.336-.448.167-.135.372-.203.613-.203h.842c.249 0 .455.059.619.176.163.118.277.276.341.475l3.007 9.223c.156.455.292.959.405 1.514l.155-.8c.053-.256.108-.494.165-.714l2.623-9.223c.05-.178.16-.331.331-.458.17-.128.376-.192.618-.192h2.25l-4.788 15.418h-2.591l-3.369-10.535-.133-.437-.133-.501-.133.501-.133.437-3.401 10.535h-2.591l-4.79-15.419zM63.734 254.327c.689 0 1.324.11 1.903.331.579.22 1.079.542 1.498.965.419.423.747.942.981 1.557.234.615.352 1.317.352 2.106 0 .199-.009.364-.027.496-.018.131-.05.234-.096.309-.046.075-.108.128-.187.16-.078.032-.178.048-.298.048h-6.76c.079 1.123.38 1.948.907 2.474.526.526 1.222.789 2.09.789.426 0 .794-.05 1.104-.149.309-.1.579-.209.81-.331l.608-.331c.174-.1.343-.149.506-.149.106 0 .199.021.277.064.078.043.146.104.203.182l.768.959c-.292.341-.619.627-.981.858s-.741.416-1.136.554-.796.236-1.205.293c-.409.057-.805.085-1.189.085-.761 0-1.468-.126-2.122-.379-.654-.252-1.223-.625-1.706-1.12-.483-.494-.864-1.105-1.141-1.833-.277-.729-.416-1.573-.416-2.533 0-.746.121-1.448.362-2.105.242-.658.588-1.23 1.04-1.717.452-.487 1.002-.873 1.653-1.157s1.385-.426 2.202-.426zm.053 1.887c-.768 0-1.368.217-1.802.65s-.711 1.049-.832 1.845h4.947c0-.341-.046-.663-.139-.965s-.234-.567-.427-.794c-.192-.228-.434-.407-.725-.539-.289-.131-.631-.197-1.022-.197zM70.643 265.437v-15.844h2.634v6.248c.433-.462.924-.83 1.471-1.104s1.187-.411 1.919-.411c.597 0 1.142.123 1.636.368.494.246.921.603 1.28 1.072s.636 1.049.832 1.738c.195.69.293 1.482.293 2.378 0 .817-.11 1.575-.331 2.271-.221.697-.535 1.301-.944 1.813-.409.512-.903.912-1.482 1.199-.58.288-1.228.432-1.946.432-.334 0-.64-.034-.917-.102s-.53-.162-.757-.283c-.228-.121-.439-.268-.634-.442s-.382-.368-.56-.581l-.118.736c-.042.185-.115.316-.218.395s-.244.117-.421.117h-1.737zm5.117-9.063c-.547 0-1.015.116-1.402.346-.388.231-.748.557-1.082.976v4.904c.298.37.624.627.976.773.352.146.734.218 1.146.218.398 0 .757-.075 1.077-.224.32-.149.591-.377.815-.683s.396-.691.517-1.157c.121-.465.181-1.015.181-1.647 0-.64-.051-1.182-.154-1.626-.104-.444-.25-.805-.443-1.082-.192-.277-.425-.48-.698-.608s-.584-.19-.933-.19z"/></g><g fill="#fff"><path d="M466.586 532.361c.156 0 .291.061.404.182l1.131 1.227c-.627.775-1.396 1.367-2.309 1.779-.914.414-2.01.619-3.289.619-1.145 0-2.174-.195-3.088-.586-.912-.391-1.693-.936-2.34-1.631-.646-.697-1.143-1.529-1.488-2.496-.344-.967-.516-2.021-.516-3.166 0-1.158.191-2.221.576-3.184.383-.963.924-1.793 1.619-2.49.697-.695 1.531-1.238 2.5-1.625.971-.387 2.043-.582 3.215-.582 1.145 0 2.146.184 3.002.551.857.365 1.59.85 2.201 1.455l-.959 1.332c-.057.086-.129.16-.219.225-.088.064-.211.096-.367.096-.164 0-.33-.064-.502-.191-.17-.129-.387-.268-.65-.416-.262-.15-.596-.289-.996-.416-.402-.129-.912-.191-1.531-.191-.725 0-1.391.125-1.998.377-.607.254-1.131.613-1.568 1.082-.436.471-.777 1.041-1.023 1.713-.244.672-.367 1.426-.367 2.266 0 .867.123 1.639.367 2.312.246.676.578 1.244.998 1.707.418.461.912.814 1.482 1.061.568.246 1.18.367 1.834.367.391 0 .744-.021 1.061-.062.316-.043.607-.111.873-.203.268-.092.52-.211.758-.357s.475-.324.709-.539l.225-.154s.161-.062.255-.062zM478.707 535.998h-1.182c-.25 0-.445-.037-.588-.113-.143-.074-.248-.225-.318-.453l-.236-.777c-.277.248-.549.467-.814.656-.268.188-.543.346-.826.475-.285.127-.588.223-.906.287-.32.064-.676.096-1.066.096-.463 0-.889-.062-1.279-.188-.393-.125-.727-.311-1.008-.561s-.5-.561-.656-.932-.234-.803-.234-1.295c0-.412.107-.82.324-1.225.217-.402.578-.766 1.084-1.09.504-.326 1.176-.594 2.014-.809.84-.213 1.881-.32 3.125-.32v-.645c0-.738-.154-1.285-.465-1.639-.309-.355-.758-.533-1.348-.533-.428 0-.783.051-1.066.15-.285.1-.531.211-.742.336l-.58.336s-.373.148-.586.148c-.178 0-.332-.045-.459-.139-.129-.092-.23-.205-.309-.34l-.48-.844c1.258-1.15 2.775-1.727 4.553-1.727.641 0 1.211.105 1.711.314.502.209.926.502 1.275.875.348.373.611.818.793 1.338.182.518.271 1.088.271 1.705v6.914zm-5.117-1.643c.27 0 .52-.025.746-.074.229-.049.443-.121.646-.219.201-.1.396-.219.586-.363.188-.143.379-.312.57-.508v-1.832c-.768 0-1.41.049-1.926.145-.514.098-.928.221-1.242.371-.312.15-.533.326-.666.525-.131.201-.197.42-.197.656 0 .465.137.797.41.998.276.202.631.301 1.073.301zM484.104 520.152v15.846h-2.635v-15.846h2.635zM489.883 520.152v15.846h-2.635v-15.846h2.635zM507.721 532.361c.156 0 .291.061.404.182l1.131 1.227c-.627.775-1.396 1.367-2.309 1.779-.914.414-2.01.619-3.289.619-1.145 0-2.174-.195-3.088-.586-.912-.391-1.693-.936-2.34-1.631-.646-.697-1.143-1.529-1.488-2.496-.344-.967-.516-2.021-.516-3.166 0-1.158.191-2.221.576-3.184.383-.963.924-1.793 1.619-2.49.697-.695 1.531-1.238 2.5-1.625.971-.387 2.043-.582 3.215-.582 1.145 0 2.146.184 3.002.551.857.365 1.59.85 2.201 1.455l-.959 1.332c-.057.086-.129.16-.219.225-.088.064-.211.096-.367.096-.164 0-.33-.064-.502-.191-.17-.129-.387-.268-.65-.416-.262-.15-.596-.289-.996-.416-.402-.129-.912-.191-1.531-.191-.725 0-1.391.125-1.998.377-.607.254-1.131.613-1.568 1.082-.436.471-.777 1.041-1.023 1.713-.244.672-.367 1.426-.367 2.266 0 .867.123 1.639.367 2.312.246.676.578 1.244.998 1.707.418.461.912.814 1.482 1.061.568.246 1.18.367 1.834.367.391 0 .744-.021 1.061-.062.316-.043.607-.111.873-.203.268-.092.52-.211.758-.357s.475-.324.709-.539l.225-.154s.161-.062.255-.062zM515.791 524.887c.689 0 1.324.111 1.902.332.58.219 1.08.541 1.498.965.42.422.748.941.982 1.557.234.613.352 1.316.352 2.105 0 .199-.01.363-.027.496-.018.131-.049.234-.096.309s-.107.127-.186.16c-.08.031-.178.047-.299.047h-6.76c.078 1.125.379 1.949.906 2.475.525.525 1.223.789 2.09.789.426 0 .793-.049 1.104-.148.309-.1.578-.211.811-.332l.607-.33c.174-.1.342-.148.506-.148.107 0 .199.021.277.062.078.043.146.104.203.182l.768.959c-.293.342-.619.629-.98.859-.363.23-.742.416-1.137.555s-.797.236-1.205.293-.805.086-1.188.086c-.762 0-1.469-.127-2.123-.379s-1.223-.625-1.705-1.119c-.484-.494-.863-1.105-1.141-1.834s-.416-1.574-.416-2.533c0-.746.121-1.447.361-2.105.242-.658.588-1.23 1.041-1.717.451-.486 1.002-.873 1.652-1.156.652-.288 1.385-.43 2.203-.43zm.053 1.888c-.768 0-1.367.217-1.801.65s-.711 1.047-.832 1.844h4.947c0-.342-.047-.662-.139-.965s-.234-.566-.426-.795c-.193-.227-.434-.406-.727-.537-.29-.132-.632-.197-1.022-.197zM522.668 535.998v-10.939h1.609c.342 0 .566.16.672.479l.182.863c.221-.227.453-.432.697-.617.246-.186.506-.346.779-.48s.566-.238.879-.309.654-.107 1.023-.107c.598 0 1.127.102 1.59.305.461.203.848.486 1.156.854.309.365.545.803.703 1.311.16.508.24 1.068.24 1.68v6.963h-2.633v-6.963c0-.668-.154-1.186-.465-1.551-.309-.367-.771-.551-1.391-.551-.455 0-.881.104-1.279.311-.398.205-.775.486-1.131.842v7.912h-2.631zM538.385 536.168c-.945 0-1.676-.268-2.188-.805s-.768-1.277-.768-2.223v-6.109h-1.107c-.143 0-.266-.047-.369-.139-.102-.094-.154-.232-.154-.416v-1.045l1.76-.289.555-2.984c.027-.143.094-.252.197-.332.102-.078.232-.117.389-.117h1.365v3.445h2.879v1.877h-2.879v5.928c0 .342.084.607.256.799.17.193.398.289.682.289.164 0 .301-.02.41-.059l.289-.123.219-.123c.062-.039.127-.059.191-.059.078 0 .143.02.191.059l.16.176.789 1.279c-.383.32-.824.562-1.322.727-.498.162-1.012.244-1.545.244zM543.043 535.998v-10.939h1.547c.27 0 .459.049.564.148.107.1.178.27.213.512l.16 1.322c.391-.676.85-1.209 1.377-1.6.525-.391 1.115-.586 1.77-.586.539 0 .988.125 1.344.373l-.342 1.973c-.021.127-.068.219-.139.271s-.168.08-.287.08c-.107 0-.254-.025-.438-.074-.186-.051-.43-.074-.736-.074-.547 0-1.016.15-1.408.453-.391.301-.721.744-.99 1.326v6.814h-2.635zM556.275 524.887c.689 0 1.324.111 1.902.332.58.219 1.08.541 1.498.965.42.422.748.941.982 1.557.234.613.352 1.316.352 2.105 0 .199-.01.363-.027.496-.018.131-.049.234-.096.309s-.107.127-.186.16c-.08.031-.178.047-.299.047h-6.76c.078 1.125.379 1.949.906 2.475.525.525 1.223.789 2.09.789.426 0 .793-.049 1.104-.148.309-.1.578-.211.811-.332l.607-.33c.174-.1.342-.148.506-.148.107 0 .199.021.277.062.078.043.146.104.203.182l.768.959c-.293.342-.619.629-.98.859-.363.23-.742.416-1.137.555s-.797.236-1.205.293-.805.086-1.188.086c-.762 0-1.469-.127-2.123-.379s-1.223-.625-1.705-1.119c-.484-.494-.863-1.105-1.141-1.834s-.416-1.574-.416-2.533c0-.746.121-1.447.361-2.105.242-.658.588-1.23 1.041-1.717.451-.486 1.002-.873 1.652-1.156.653-.288 1.385-.43 2.203-.43zm.053 1.888c-.768 0-1.367.217-1.801.65s-.711 1.047-.832 1.844h4.947c0-.342-.047-.662-.139-.965s-.234-.566-.426-.795c-.193-.227-.434-.406-.727-.537-.289-.132-.631-.197-1.022-.197z"/></g><g fill="#fff"><path d="M420.299 24.991v5.427h-2.869v-15.418h5.023c1.029 0 1.922.121 2.676.363s1.375.579 1.865 1.013.854.953 1.088 1.557c.234.604.352 1.266.352 1.983 0 .746-.123 1.431-.373 2.052-.248.622-.621 1.157-1.119 1.605s-1.119.796-1.865 1.045c-.748.249-1.621.373-2.623.373h-2.155zm0-2.239h2.154c.525 0 .984-.065 1.375-.197.391-.131.715-.32.971-.565s.447-.544.574-.896c.129-.352.193-.745.193-1.178 0-.412-.064-.786-.193-1.12-.127-.334-.318-.619-.574-.853s-.58-.414-.971-.539c-.391-.124-.85-.187-1.375-.187h-2.154v5.535zM430.514 30.418v-15.844h2.633v6.088c.428-.405.896-.732 1.408-.981.512-.249 1.111-.373 1.801-.373.598 0 1.127.102 1.59.304.461.203.848.487 1.156.853.309.366.545.804.703 1.312.16.508.24 1.068.24 1.68v6.962h-2.633v-6.962c0-.668-.154-1.186-.465-1.552-.309-.366-.771-.549-1.391-.549-.455 0-.881.103-1.279.309s-.775.487-1.131.842v7.912h-2.632zM447.307 19.308c.816 0 1.559.132 2.223.395.664.263 1.232.636 1.701 1.12s.832 1.073 1.088 1.77.383 1.475.383 2.335c0 .867-.127 1.649-.383 2.346-.256.697-.619 1.29-1.088 1.781-.469.49-1.037.867-1.701 1.13-.664.263-1.406.395-2.223.395-.818 0-1.561-.132-2.229-.395-.668-.263-1.238-.64-1.711-1.13-.473-.491-.84-1.084-1.098-1.781-.26-.696-.391-1.479-.391-2.346 0-.86.131-1.638.391-2.335.258-.697.625-1.287 1.098-1.77s1.043-.856 1.711-1.12c.668-.263 1.41-.395 2.229-.395zm0 9.245c.91 0 1.584-.306 2.02-.917.438-.611.656-1.507.656-2.687s-.219-2.079-.656-2.698c-.436-.618-1.109-.928-2.02-.928-.924 0-1.607.311-2.047.933-.441.622-.662 1.52-.662 2.692s.221 2.067.662 2.682c.439.615 1.123.923 2.047.923zM454.76 30.418v-10.939h1.609c.342 0 .566.16.672.479l.182.864c.221-.228.453-.434.697-.619.246-.185.506-.345.779-.479.273-.135.566-.238.879-.31.312-.071.654-.106 1.023-.106.598 0 1.127.102 1.59.304.461.203.848.487 1.156.853.309.366.545.804.703 1.312.16.508.24 1.068.24 1.68v6.962h-2.633v-6.962c0-.668-.154-1.186-.465-1.552-.309-.366-.771-.549-1.391-.549-.455 0-.881.103-1.279.309s-.775.487-1.131.842v7.912h-2.631zM471.404 19.308c.688 0 1.322.11 1.902.331s1.078.542 1.498.965c.42.423.746.942.98 1.557.234.615.352 1.317.352 2.106 0 .199-.008.364-.025.496-.018.131-.051.234-.096.309-.047.075-.109.128-.188.16-.078.032-.178.048-.299.048h-6.76c.078 1.123.381 1.948.906 2.474s1.223.789 2.09.789c.428 0 .795-.05 1.104-.149s.58-.209.811-.331l.607-.331s.344-.149.508-.149c.105 0 .197.021.275.064.078.043.146.104.203.182l.768.959c-.291.341-.617.627-.98.858s-.74.416-1.135.554-.797.236-1.205.293c-.41.057-.805.085-1.189.085-.76 0-1.469-.126-2.121-.379-.654-.252-1.223-.625-1.707-1.12-.482-.494-.863-1.105-1.141-1.833s-.416-1.573-.416-2.533c0-.746.121-1.448.363-2.105.24-.658.588-1.23 1.039-1.717s1.002-.873 1.652-1.157 1.386-.426 2.204-.426zm.053 1.887c-.768 0-1.369.217-1.803.65s-.711 1.049-.832 1.845h4.947c0-.341-.045-.663-.139-.965-.092-.302-.234-.567-.426-.794s-.434-.407-.725-.539c-.29-.131-.631-.197-1.022-.197z"/></g><g fill="#fff"><path d="M547.012 178.047v2.282h-6.834v4.276h5.385v2.207h-5.385v4.361h6.834v2.292h-9.725v-15.418h9.725zM549.006 185.927h5.521v2.197h-5.521v-2.197zM557.002 193.465v-10.939h1.609c.342 0 .566.16.672.479l.17.811c.193-.213.395-.409.604-.586s.434-.331.672-.458.494-.229.768-.304c.273-.074.574-.112.9-.112.689 0 1.256.187 1.701.56.443.373.775.869.996 1.487.172-.363.385-.673.641-.933.256-.259.537-.471.842-.634.307-.164.631-.284.977-.363.344-.078.691-.117 1.039-.117.604 0 1.141.092 1.609.277s.863.455 1.184.81c.32.356.564.789.73 1.301.168.512.25 1.098.25 1.759v6.962h-2.633v-6.962c0-.697-.152-1.221-.459-1.573-.305-.352-.752-.528-1.344-.528-.27 0-.52.046-.75.139-.232.092-.434.226-.609.4-.174.174-.311.393-.41.655-.1.263-.148.565-.148.907v6.962h-2.645v-6.962c0-.732-.148-1.265-.443-1.6-.295-.334-.73-.501-1.305-.501-.377 0-.73.094-1.062.282-.33.188-.637.446-.922.773v8.007h-2.634zM583.529 193.465h-1.182c-.25 0-.445-.037-.588-.112s-.248-.226-.318-.453l-.236-.778c-.277.249-.549.467-.814.656-.268.188-.543.346-.826.474-.285.128-.588.224-.906.288-.32.064-.676.096-1.066.096-.463 0-.889-.062-1.279-.187-.393-.125-.727-.312-1.008-.562s-.5-.56-.656-.931c-.156-.371-.234-.802-.234-1.294 0-.414.107-.822.324-1.225s.578-.767 1.084-1.091c.504-.324 1.176-.594 2.014-.808.84-.214 1.881-.321 3.125-.321v-.645c0-.738-.154-1.284-.465-1.639-.309-.354-.758-.532-1.348-.532-.428 0-.783.05-1.066.149-.285.1-.531.212-.742.336l-.58.336c-.178.1-.373.149-.586.149-.178 0-.332-.046-.459-.139-.129-.092-.23-.206-.309-.341l-.48-.842c1.258-1.151 2.775-1.727 4.553-1.727.641 0 1.211.105 1.711.314.502.209.926.501 1.275.874.348.374.611.819.793 1.338s.271 1.087.271 1.706v6.911zm-5.117-1.642c.27 0 .52-.024.746-.073.229-.049.443-.123.646-.221.201-.098.396-.218.586-.362.188-.144.379-.313.57-.509v-1.831c-.768 0-1.41.048-1.926.145-.514.097-.928.22-1.242.371-.312.15-.533.326-.666.526-.131.2-.197.418-.197.655 0 .465.137.798.41.999.276.2.632.3 1.073.3zM589.32 179.337c0 .228-.047.441-.139.64-.094.199-.215.373-.369.522-.152.149-.332.268-.537.357-.207.089-.428.133-.662.133-.227 0-.441-.044-.645-.133s-.379-.208-.527-.357c-.15-.149-.27-.324-.357-.522-.09-.199-.133-.413-.133-.64 0-.234.043-.455.133-.661.088-.206.207-.384.357-.533.148-.149.324-.269.527-.357s.418-.133.645-.133c.234 0 .455.044.662.133.205.089.385.208.537.357.154.149.275.327.369.533.092.207.139.427.139.661zm-.394 3.189v10.939h-2.635v-10.939h2.635zM594.705 177.621v15.844h-2.635v-15.844h2.635z"/></g><g fill="#fff"><path d="M567.18 355.912c0 1.129-.188 2.176-.564 3.139-.377.965-.906 1.797-1.59 2.502-.682.703-1.502 1.252-2.463 1.646-.959.395-2.021.592-3.188.592s-2.23-.197-3.193-.592-1.787-.943-2.475-1.646c-.686-.705-1.217-1.537-1.594-2.502-.377-.963-.564-2.01-.564-3.139 0-1.131.188-2.178.564-3.141s.908-1.797 1.594-2.5c.688-.703 1.512-1.254 2.475-1.648s2.027-.592 3.193-.592 2.229.199 3.188.598c.961.398 1.781.947 2.463 1.648.684.699 1.213 1.531 1.59 2.494s.564 2.01.564 3.141zm-2.944 0c0-.846-.111-1.605-.336-2.277-.223-.672-.545-1.242-.965-1.711-.418-.469-.93-.828-1.529-1.076-.602-.25-1.277-.373-2.031-.373s-1.432.123-2.037.373c-.604.248-1.117.607-1.541 1.076-.422.469-.748 1.039-.975 1.711-.229.672-.342 1.432-.342 2.277s.113 1.604.342 2.275c.227.672.553 1.24.975 1.707.424.465.938.822 1.541 1.07.605.25 1.283.373 2.037.373s1.43-.123 2.031-.373c.6-.248 1.111-.605 1.529-1.07.42-.467.742-1.035.965-1.707.225-.671.336-1.429.336-2.275zM572.885 363.791c-.945 0-1.676-.268-2.188-.805s-.768-1.277-.768-2.223v-6.109h-1.107c-.143 0-.266-.047-.369-.139-.102-.094-.154-.232-.154-.416v-1.045l1.76-.289.555-2.984c.027-.143.094-.252.197-.332.102-.078.232-.117.389-.117h1.365v3.445h2.879v1.877h-2.879v5.928c0 .342.084.607.256.799.17.193.398.289.682.289.164 0 .301-.02.41-.059l.289-.123.219-.123c.062-.039.127-.059.191-.059.078 0 .143.02.191.059l.16.176.789 1.279c-.383.32-.824.562-1.322.727-.498.162-1.012.244-1.545.244zM577.543 363.621v-15.846h2.635v6.09c.426-.406.895-.732 1.406-.982.512-.248 1.113-.373 1.803-.373.598 0 1.127.102 1.588.305.463.203.848.486 1.158.854.309.365.543.803.703 1.311s.24 1.068.24 1.68v6.963h-2.635v-6.963c0-.668-.154-1.186-.463-1.551-.309-.367-.773-.551-1.391-.551-.455 0-.883.104-1.281.311-.396.205-.773.486-1.129.842v7.912h-2.634zM594.188 352.51c.689 0 1.324.111 1.902.332.58.219 1.08.541 1.498.965.42.422.748.941.982 1.557.234.613.352 1.316.352 2.105 0 .199-.01.363-.027.496-.018.131-.049.234-.096.309s-.107.127-.186.16c-.08.031-.178.047-.299.047h-6.76c.078 1.125.379 1.949.906 2.475.525.525 1.223.789 2.09.789.426 0 .793-.049 1.104-.148.309-.1.578-.211.811-.332l.607-.33c.174-.1.342-.148.506-.148.107 0 .199.021.277.062.078.043.146.104.203.182l.768.959c-.293.342-.619.629-.98.859-.363.23-.742.416-1.137.555s-.797.236-1.205.293-.805.086-1.188.086c-.762 0-1.469-.127-2.123-.379s-1.223-.625-1.705-1.119c-.484-.494-.863-1.105-1.141-1.834s-.416-1.574-.416-2.533c0-.746.121-1.447.361-2.105.242-.658.588-1.23 1.041-1.717.451-.486 1.002-.873 1.652-1.156.652-.288 1.384-.43 2.203-.43zm.052 1.888c-.768 0-1.367.217-1.801.65s-.711 1.047-.832 1.844h4.947c0-.342-.047-.662-.139-.965s-.234-.566-.426-.795c-.193-.227-.434-.406-.727-.537-.289-.132-.631-.197-1.022-.197zM601.064 363.621v-10.939h1.545c.271 0 .459.049.566.148.105.1.178.27.213.512l.16 1.322c.391-.676.85-1.209 1.375-1.6s1.115-.586 1.77-.586c.541 0 .988.125 1.344.373l-.342 1.973c-.02.127-.066.219-.139.271-.07.053-.166.08-.287.08-.107 0-.252-.025-.438-.074-.184-.051-.43-.074-.734-.074-.549 0-1.018.15-1.408.453-.391.301-.721.744-.992 1.326v6.814h-2.633z"/></g><g fill="#fff"><path d="M243.749 586.133c-.071.113-.146.193-.224.24s-.178.068-.298.068c-.128 0-.265-.035-.411-.105l-.506-.24c-.192-.09-.411-.17-.656-.24s-.535-.107-.869-.107c-.519 0-.927.111-1.226.332-.298.221-.448.508-.448.863 0 .234.076.432.229.592s.355.301.608.42c.252.121.539.23.858.326s.647.201.981.314.661.244.981.389c.32.146.606.332.858.555.252.225.455.492.607.805.153.314.229.689.229 1.131 0 .525-.096 1.012-.288 1.455-.192.445-.473.828-.842 1.152-.37.322-.826.576-1.37.756-.543.182-1.167.273-1.871.273-.377 0-.745-.035-1.104-.102-.359-.068-.704-.162-1.034-.283s-.636-.264-.917-.426c-.281-.164-.528-.342-.741-.533l.608-1.002c.078-.121.17-.215.277-.277.106-.064.241-.096.405-.096s.318.045.464.137c.146.094.314.193.506.299.192.107.418.207.677.299.259.094.588.139.986.139.312 0 .581-.037.805-.111.224-.074.409-.172.554-.293s.252-.262.32-.422.102-.324.102-.496c0-.256-.077-.465-.229-.629s-.355-.305-.607-.426-.541-.23-.864-.326c-.324-.096-.654-.201-.992-.314-.338-.113-.668-.246-.992-.4-.323-.152-.611-.346-.864-.58s-.455-.523-.607-.863c-.153-.342-.229-.754-.229-1.236 0-.449.089-.875.267-1.281.178-.404.439-.758.784-1.061.345-.301.775-.543 1.29-.725.516-.182 1.111-.271 1.786-.271.753 0 1.439.123 2.058.373.619.248 1.134.576 1.546.98l-.597.947zM246.574 594.939v-10.939h1.61c.341 0 .565.16.671.48l.171.811c.192-.213.393-.41.603-.588.209-.176.433-.33.671-.457.238-.129.494-.23.768-.305.273-.074.574-.111.901-.111.689 0 1.256.186 1.701.559.444.373.776.869.997 1.488.171-.363.384-.674.64-.934s.537-.471.842-.635c.305-.162.63-.283.976-.361.345-.078.691-.117 1.04-.117.604 0 1.141.092 1.61.277.469.184.864.455 1.184.811s.563.789.73 1.301c.167.512.25 1.098.25 1.758v6.963h-2.634v-6.963c0-.695-.153-1.221-.458-1.572s-.753-.527-1.343-.527c-.271 0-.521.047-.752.139s-.434.225-.607.4c-.174.174-.311.393-.411.654-.1.264-.149.566-.149.906v6.963h-2.644v-6.963c0-.73-.147-1.264-.442-1.598-.295-.336-.73-.502-1.306-.502-.377 0-.73.094-1.061.283-.331.188-.638.445-.922.771v8.008h-2.636zM271.023 586.133c-.071.113-.146.193-.224.24s-.178.068-.298.068c-.128 0-.265-.035-.411-.105l-.506-.24c-.192-.09-.411-.17-.656-.24s-.535-.107-.869-.107c-.519 0-.927.111-1.226.332-.298.221-.448.508-.448.863 0 .234.076.432.229.592s.355.301.608.42c.252.121.539.23.858.326s.647.201.981.314.661.244.981.389c.32.146.606.332.858.555.252.225.455.492.607.805.153.314.229.689.229 1.131 0 .525-.096 1.012-.288 1.455-.192.445-.473.828-.842 1.152-.37.322-.826.576-1.37.756-.543.182-1.167.273-1.871.273-.377 0-.745-.035-1.104-.102-.359-.068-.704-.162-1.034-.283s-.636-.264-.917-.426c-.281-.164-.528-.342-.741-.533l.608-1.002c.078-.121.17-.215.277-.277.106-.064.241-.096.405-.096s.318.045.464.137c.146.094.314.193.506.299.192.107.418.207.677.299.259.094.588.139.986.139.312 0 .581-.037.805-.111.224-.074.409-.172.554-.293s.252-.262.32-.422.102-.324.102-.496c0-.256-.077-.465-.229-.629s-.355-.305-.607-.426-.541-.23-.864-.326c-.324-.096-.654-.201-.992-.314-.338-.113-.668-.246-.992-.4-.323-.152-.611-.346-.864-.58s-.455-.523-.607-.863c-.153-.342-.229-.754-.229-1.236 0-.449.089-.875.267-1.281.178-.404.439-.758.784-1.061.345-.301.775-.543 1.29-.725.516-.182 1.111-.271 1.786-.271.753 0 1.439.123 2.058.373.619.248 1.134.576 1.546.98l-.597.947z"/></g><path fill="#5E7E53" d="M365.77 396.879c-27.754 7.537-58.357 4.744-85.446-10.256-8.817-4.881-19.391-11.699-26.646-18.484-17.666 16.699-51.627 48.402-53.625 50.23 12.611 13.023 27.557 24.105 44.222 33.334 44.7 24.748 95.167 29.369 140.962 16.93l-19.467-71.754z"/><path opacity=".7" fill="#ED1C24" d="M235.597 230.889c19.899-35.957 56.435-57.007 94.753-58.884l-3.549-74.29c-63.2 3.119-123.463 37.82-156.305 97.138-24.752 44.699-43.349 149.198 29.556 223.516l53.792-50.252c-45.3-44.591-33.265-110.117-18.247-137.228z"/><path opacity=".7" fill="#48C7F4" d="M501.115 377.934l-65.08-36.05c-15.596 28.169-41.393 47.169-70.265 54.996l19.466 71.754c47.616-12.917 90.164-44.245 115.879-90.7z"/><path fill="#C8B330" d="M391.317 186.16c55.257 30.606 75.324 100.468 44.718 155.724l65.08 36.05c50.477-91.161 17.396-206.388-73.773-256.864-2.643-1.457-5.305-2.845-7.996-4.171l-32.892 66.731c1.634.804 3.256 1.648 4.863 2.53z"/><path fill="#5DC7C3" d="M386.454 183.63l32.892-66.731c-29.616-14.619-61.434-20.714-92.544-19.184l3.549 74.29c18.859-.933 38.146 2.764 56.103 11.625z"/><path fill="#0E5461" d="M391.317 186.16c46.375 30.843 47.082 49.776 56.99 78.796l72.02-19.022c-8.398-38.565-32.305-89.639-92.984-124.863-2.609-1.517-5.305-2.845-7.996-4.171l-32.892 66.731c1.633.803 3.337 1.515 4.862 2.529z"/><g fill="#fff"><path d="M190.731 213.777h2.909v1.367c0 .143-.042.264-.127.362-.085.099-.217.147-.396.147h-2.386v5.054h-2.104v-5.054h-8.512c-.179 0-.333-.051-.462-.154s-.212-.23-.248-.382l-.241-1.22 9.343-12.399h2.225v12.279zm-2.104-7.922c0-.232.007-.483.02-.751.014-.268.042-.545.087-.831l-6.984 9.504h6.876v-7.922zM207.286 202.544c0 .34-.107.619-.322.838-.214.219-.576.328-1.085.328h-6.032l-.885 5.04c1.001-.214 1.926-.321 2.775-.321 1 0 1.883.147 2.647.442.764.294 1.405.701 1.923 1.22.518.518.909 1.13 1.173 1.836s.396 1.474.396 2.305c0 1.019-.179 1.939-.536 2.762s-.847 1.526-1.468 2.111c-.621.585-1.352 1.035-2.191 1.347-.84.313-1.748.469-2.721.469-.563 0-1.104-.056-1.622-.167-.519-.112-1.001-.261-1.448-.449-.447-.188-.862-.402-1.247-.643s-.724-.496-1.019-.764l.724-1.019c.161-.232.375-.349.644-.349.169 0 .369.069.597.208.228.139.502.293.824.462.322.17.699.324 1.133.463.433.138.949.208 1.548.208.67 0 1.273-.107 1.81-.322s.994-.521 1.374-.918.672-.874.878-1.428.309-1.175.309-1.863c0-.599-.087-1.139-.262-1.622-.174-.482-.438-.894-.791-1.233-.353-.34-.793-.604-1.32-.791-.527-.188-1.144-.281-1.85-.281-.482 0-.983.04-1.501.121-.519.08-1.055.21-1.609.389l-1.501-.442 1.555-8.981h9.102v1.044zM219.202 206.136c0 .751-.116 1.423-.349 2.018s-.543 1.095-.932 1.501c-.389.407-.842.717-1.36.932-.519.215-1.059.322-1.622.322-.608 0-1.168-.107-1.682-.322-.514-.214-.963-.525-1.347-.932-.384-.406-.684-.907-.898-1.501-.214-.594-.321-1.267-.321-2.018 0-.769.107-1.452.321-2.051.215-.599.514-1.104.898-1.515.384-.411.833-.724 1.347-.938.514-.214 1.074-.322 1.682-.322.599 0 1.159.107 1.682.322s.974.527 1.354.938c.379.411.679.916.898 1.515.219.599.329 1.283.329 2.051zm6.715-4.155c.116-.152.239-.27.369-.355.129-.084.302-.127.516-.127h1.716l-14.034 18.82c-.09.116-.197.21-.322.281-.125.072-.273.107-.442.107h-1.77l13.967-18.726zm-8.578 4.155c0-.59-.062-1.09-.188-1.501-.125-.411-.297-.749-.516-1.012-.219-.264-.474-.454-.764-.57-.291-.116-.601-.174-.932-.174s-.642.059-.932.174c-.291.116-.543.306-.757.57s-.382.601-.503 1.012c-.121.411-.181.911-.181 1.501 0 .581.06 1.075.181 1.481.121.407.289.737.503.992.214.255.467.438.757.55.29.112.601.167.932.167s.641-.056.932-.167c.29-.112.545-.295.764-.55.219-.254.391-.585.516-.992.125-.406.188-.9.188-1.481zm12.479 10.04c0 .75-.116 1.421-.349 2.011s-.543 1.088-.932 1.495-.84.717-1.354.932c-.514.214-1.052.322-1.615.322-.607 0-1.168-.107-1.682-.322s-.963-.525-1.347-.932-.684-.905-.898-1.495-.322-1.26-.322-2.011c0-.769.107-1.455.322-2.058s.514-1.11.898-1.521c.384-.411.833-.724 1.347-.938.514-.215 1.075-.322 1.682-.322.599 0 1.157.107 1.676.322.518.214.97.527 1.354.938.384.411.684.918.898 1.521s.322 1.29.322 2.058zm-1.85 0c0-.59-.062-1.092-.188-1.508s-.297-.753-.516-1.012c-.219-.259-.474-.447-.764-.563s-.601-.174-.932-.174-.641.058-.931.174c-.291.116-.543.304-.758.563-.214.259-.382.597-.502 1.012s-.181.918-.181 1.508c0 .581.061 1.072.181 1.475.121.402.288.73.502.985.215.254.467.438.758.549.29.112.601.167.931.167s.641-.056.932-.167c.291-.111.545-.295.764-.549.219-.255.391-.583.516-.985.126-.402.188-.894.188-1.475z"/></g><g fill="#fff"><path d="M347.859 139.458h2.908v1.367c0 .143-.042.264-.127.362-.085.099-.217.147-.396.147h-2.386v5.054h-2.104v-5.054h-8.512c-.18 0-.333-.051-.463-.154s-.212-.23-.248-.382l-.241-1.22 9.343-12.399h2.226v12.279zm-2.105-7.922c0-.232.007-.483.02-.751.014-.268.043-.545.087-.831l-6.983 9.504h6.877v-7.922zM360.78 131.817c0 .751-.116 1.423-.349 2.018s-.542 1.095-.932 1.501c-.389.407-.842.717-1.36.932-.519.215-1.059.322-1.622.322-.607 0-1.168-.107-1.682-.322-.514-.214-.963-.525-1.348-.932-.384-.406-.684-.907-.897-1.501-.215-.594-.322-1.267-.322-2.018 0-.769.107-1.452.322-2.051.214-.599.514-1.104.897-1.515.385-.411.834-.724 1.348-.938s1.074-.322 1.682-.322c.599 0 1.16.107 1.683.322s.974.527 1.354.938.68.916.898 1.515.328 1.282.328 2.051zm6.716-4.155c.116-.152.239-.27.369-.355.129-.084.301-.127.516-.127h1.716l-14.034 18.82c-.09.116-.197.21-.322.281-.125.072-.272.107-.442.107h-1.769l13.966-18.726zm-8.579 4.155c0-.59-.062-1.09-.188-1.501s-.297-.749-.516-1.012c-.22-.264-.474-.454-.765-.57-.29-.116-.601-.174-.932-.174-.33 0-.641.059-.932.174-.29.116-.542.306-.757.57s-.382.601-.503 1.012c-.12.411-.181.911-.181 1.501 0 .581.061 1.075.181 1.481.121.407.288.737.503.992.215.255.467.438.757.55.291.112.602.167.932.167.331 0 .642-.056.932-.167.291-.112.545-.295.765-.55.219-.254.391-.585.516-.992s.188-.9.188-1.481zm12.479 10.04c0 .75-.116 1.421-.348 2.011-.233.59-.543 1.088-.932 1.495-.39.407-.841.717-1.354.932s-1.052.322-1.615.322c-.607 0-1.168-.107-1.682-.322-.515-.214-.964-.525-1.348-.932s-.684-.905-.898-1.495c-.214-.59-.321-1.26-.321-2.011 0-.769.107-1.455.321-2.058.215-.603.515-1.11.898-1.521.384-.411.833-.724 1.348-.938.514-.215 1.074-.322 1.682-.322.599 0 1.157.107 1.676.322.519.214.97.527 1.354.938.385.411.684.918.898 1.521s.321 1.289.321 2.058zm-1.85 0c0-.59-.062-1.092-.188-1.508s-.297-.753-.516-1.012c-.22-.259-.475-.447-.765-.563s-.601-.174-.932-.174c-.33 0-.641.058-.932.174-.29.116-.543.304-.757.563-.215.259-.382.597-.503 1.012s-.181.918-.181 1.508c0 .581.06 1.072.181 1.475.121.402.288.73.503.985.214.254.467.438.757.549.291.112.602.167.932.167.331 0 .642-.056.932-.167.29-.111.545-.295.765-.549.219-.255.391-.583.516-.985.126-.403.188-.894.188-1.475z"/></g><g fill="#fff"><path d="M432.324 203.312h4.129v-13.096c0-.393.014-.791.039-1.193l-3.432 2.936c-.088.072-.178.123-.268.154l-.254.047c-.135 0-.256-.029-.363-.087-.105-.058-.188-.127-.24-.208l-.75-1.032 5.709-4.946h1.943v17.426h3.781v1.823h-10.295v-1.824zM447.873 203.312h4.129v-13.096c0-.393.014-.791.039-1.193l-3.432 2.936c-.088.072-.178.123-.268.154l-.254.047c-.135 0-.256-.029-.363-.087-.105-.058-.188-.127-.24-.208l-.75-1.032 5.709-4.946h1.943v17.426h3.781v1.823h-10.295v-1.824zM469.051 190.565c0 .751-.115 1.423-.348 2.018s-.543 1.095-.932 1.501c-.389.407-.842.717-1.361.932-.518.215-1.059.322-1.621.322-.607 0-1.168-.107-1.682-.322-.514-.214-.963-.525-1.348-.932-.385-.406-.684-.907-.898-1.501s-.322-1.267-.322-2.018c0-.769.107-1.452.322-2.051s.514-1.104.898-1.515.834-.724 1.348-.938 1.074-.322 1.682-.322c.598 0 1.16.107 1.682.322.523.214.975.527 1.354.938.381.411.68.916.898 1.515s.328 1.282.328 2.051zm6.717-4.155c.115-.152.238-.27.369-.355.129-.084.301-.127.516-.127h1.715l-14.033 18.82c-.09.116-.197.21-.322.281-.125.072-.273.107-.443.107h-1.768l13.966-18.726zm-8.58 4.155c0-.59-.062-1.09-.188-1.501s-.297-.749-.516-1.012-.473-.454-.764-.57c-.291-.116-.602-.174-.932-.174s-.641.059-.932.174c-.291.116-.543.306-.758.57s-.381.601-.502 1.012-.182.911-.182 1.501c0 .581.061 1.075.182 1.481s.287.737.502.992c.215.255.467.438.758.55s.602.167.932.167.641-.056.932-.167.545-.295.764-.55c.219-.254.391-.585.516-.992s.188-.9.188-1.481zm12.48 10.04c0 .75-.117 1.421-.348 2.011-.234.59-.543 1.088-.932 1.495-.391.407-.842.717-1.355.932s-1.051.322-1.615.322c-.607 0-1.168-.107-1.682-.322s-.963-.525-1.348-.932c-.383-.407-.684-.905-.898-1.495-.213-.59-.32-1.26-.32-2.011 0-.769.107-1.455.32-2.058.215-.603.516-1.11.898-1.521.385-.411.834-.724 1.348-.938.514-.215 1.074-.322 1.682-.322.6 0 1.158.107 1.676.322.52.214.971.527 1.354.938.385.411.684.918.898 1.521s.322 1.289.322 2.058zm-1.85 0c0-.59-.062-1.092-.188-1.508s-.297-.753-.516-1.012c-.221-.259-.475-.447-.766-.563-.289-.116-.6-.174-.932-.174-.33 0-.641.058-.932.174-.289.116-.543.304-.756.563-.215.259-.383.597-.504 1.012s-.18.918-.18 1.508c0 .581.059 1.072.18 1.475.121.402.289.73.504.985.213.254.467.438.756.549.291.112.602.167.932.167.332 0 .643-.056.932-.167.291-.111.545-.295.766-.549.219-.255.391-.583.516-.985.126-.403.188-.894.188-1.475z"/></g><g fill="#fff"><path d="M471.312 300.927c0 .34-.107.619-.32.838-.215.219-.578.328-1.086.328h-6.033l-.885 5.04c1.002-.214 1.926-.321 2.775-.321 1 0 1.883.147 2.646.442.766.295 1.406.701 1.924 1.22.52.519.91 1.131 1.174 1.836.264.706.395 1.475.395 2.306 0 1.019-.178 1.939-.535 2.762s-.848 1.525-1.469 2.111c-.621.585-1.352 1.034-2.191 1.347s-1.746.47-2.721.47c-.562 0-1.104-.057-1.621-.168-.52-.111-1.002-.262-1.449-.449s-.861-.402-1.246-.644-.725-.496-1.02-.764l.725-1.019c.16-.232.375-.349.643-.349.17 0 .369.069.598.208s.502.292.824.462.699.324 1.133.463.949.208 1.549.208c.67 0 1.273-.107 1.809-.322.537-.215.994-.521 1.375-.918.379-.397.672-.874.877-1.428s.309-1.175.309-1.863c0-.599-.088-1.14-.262-1.622s-.438-.894-.791-1.233c-.354-.339-.793-.603-1.32-.79-.527-.188-1.145-.282-1.85-.282-.482 0-.982.04-1.502.121-.518.08-1.055.21-1.607.389l-1.502-.442 1.555-8.981h9.102v1.044zM483.229 304.52c0 .75-.115 1.423-.348 2.017-.232.595-.543 1.095-.932 1.502-.389.406-.842.717-1.361.932-.518.214-1.059.321-1.621.321-.607 0-1.168-.107-1.682-.321-.514-.215-.963-.525-1.348-.932-.385-.407-.684-.907-.898-1.502-.215-.594-.322-1.267-.322-2.017 0-.769.107-1.452.322-2.052.215-.598.514-1.104.898-1.515.385-.41.834-.724 1.348-.938s1.074-.322 1.682-.322c.598 0 1.16.107 1.682.322.523.214.975.528 1.354.938.381.411.68.917.898 1.515.218.6.328 1.283.328 2.052zm6.716-4.156c.115-.151.238-.27.369-.355.129-.084.301-.127.516-.127h1.715l-14.033 18.82c-.09.116-.197.21-.322.281-.125.072-.273.107-.443.107h-1.768l13.966-18.726zm-8.58 4.156c0-.59-.062-1.091-.188-1.502s-.297-.748-.516-1.012-.473-.453-.764-.569-.602-.175-.932-.175-.641.059-.932.175-.543.306-.758.569-.381.601-.502 1.012-.182.912-.182 1.502c0 .581.061 1.074.182 1.48.121.407.287.737.502.992s.467.438.758.55.602.167.932.167.641-.056.932-.167.545-.295.764-.55.391-.585.516-.992c.126-.406.188-.899.188-1.48zm12.481 10.04c0 .75-.117 1.421-.348 2.01-.234.59-.543 1.089-.932 1.495-.391.406-.842.717-1.355.932s-1.051.321-1.615.321c-.607 0-1.168-.106-1.682-.321s-.963-.525-1.348-.932c-.383-.406-.684-.905-.898-1.495-.213-.589-.32-1.26-.32-2.01 0-.769.107-1.455.32-2.058.215-.604.516-1.11.898-1.521.385-.411.834-.725 1.348-.938.514-.215 1.074-.322 1.682-.322.6 0 1.158.107 1.676.322.52.214.971.527 1.354.938.385.411.684.918.898 1.521.214.603.322 1.29.322 2.058zm-1.85 0c0-.59-.062-1.093-.188-1.509-.125-.415-.297-.752-.516-1.012-.221-.259-.475-.446-.766-.562-.289-.116-.6-.175-.932-.175-.33 0-.641.059-.932.175-.289.116-.543.304-.756.562-.215.26-.383.597-.504 1.012-.121.416-.18.919-.18 1.509 0 .58.059 1.072.18 1.474.121.402.289.731.504.985.213.255.467.438.756.55.291.112.602.168.932.168.332 0 .643-.056.932-.168.291-.111.545-.295.766-.55.219-.254.391-.583.516-.985.126-.402.188-.894.188-1.474z"/></g><g fill="#fff"><path d="M414.697 391.895v1.072c0 .305-.033.555-.102.752-.066.195-.137.361-.207.496l-7.949 16.045c-.115.232-.277.432-.482.596-.205.166-.482.248-.83.248h-1.703l8.07-15.844c.115-.223.234-.43.354-.617.121-.188.258-.365.41-.535h-10.028c-.152 0-.287-.061-.408-.182s-.182-.256-.182-.408v-1.623h13.057zM425.191 396.533c0 .75-.115 1.424-.348 2.018s-.543 1.094-.932 1.502c-.389.406-.842.717-1.361.932-.518.213-1.059.32-1.621.32-.607 0-1.168-.107-1.682-.32-.514-.215-.963-.525-1.348-.932-.385-.408-.684-.908-.898-1.502s-.322-1.268-.322-2.018c0-.768.107-1.451.322-2.051.215-.598.514-1.104.898-1.516.385-.41.834-.723 1.348-.938s1.074-.322 1.682-.322c.598 0 1.16.107 1.682.322.523.215.975.527 1.354.938.381.412.68.918.898 1.516.219.6.328 1.284.328 2.051zm6.717-4.156c.115-.15.238-.27.369-.354.129-.086.301-.129.516-.129h1.715l-14.033 18.82c-.09.117-.197.211-.322.281-.125.072-.273.107-.443.107h-1.768l13.966-18.725zm-8.58 4.156c0-.59-.062-1.09-.188-1.502-.125-.41-.297-.748-.516-1.012s-.473-.453-.764-.568c-.291-.117-.602-.176-.932-.176s-.641.059-.932.176c-.291.115-.543.305-.758.568s-.381.602-.502 1.012c-.121.412-.182.912-.182 1.502 0 .582.061 1.074.182 1.48.121.408.287.738.502.992.215.256.467.439.758.551s.602.166.932.166.641-.055.932-.166.545-.295.764-.551c.219-.254.391-.584.516-.992.126-.406.188-.898.188-1.48zm12.481 10.041c0 .75-.117 1.42-.348 2.01-.234.59-.543 1.088-.932 1.494-.391.406-.842.717-1.355.932s-1.051.322-1.615.322c-.607 0-1.168-.107-1.682-.322s-.963-.525-1.348-.932c-.383-.406-.684-.904-.898-1.494-.213-.59-.32-1.26-.32-2.01 0-.77.107-1.455.32-2.059.215-.604.516-1.109.898-1.521.385-.41.834-.725 1.348-.938.514-.215 1.074-.322 1.682-.322.6 0 1.158.107 1.676.322.52.213.971.527 1.354.938.385.412.684.918.898 1.521s.322 1.29.322 2.059zm-1.85 0c0-.59-.062-1.094-.188-1.51-.125-.414-.297-.752-.516-1.012-.221-.258-.475-.445-.766-.562-.289-.115-.6-.174-.932-.174-.33 0-.641.059-.932.174-.289.117-.543.305-.756.562-.215.26-.383.598-.504 1.012-.121.416-.18.92-.18 1.51 0 .58.059 1.072.18 1.473.121.402.289.732.504.986.213.254.467.438.756.549.291.113.602.168.932.168.332 0 .643-.055.932-.168.291-.111.545-.295.766-.549.219-.254.391-.584.516-.986.125-.401.188-.893.188-1.473z"/></g><g fill="#fff"><path d="M269.615 419.18c.813 0 1.573.121 2.279.361.706.242 1.315.594 1.83 1.053.514.461.918 1.021 1.213 1.682.295.662.442 1.412.442 2.252 0 .717-.107 1.377-.322 1.984-.214.607-.505 1.191-.871 1.75-.367.559-.789 1.1-1.267 1.621-.479.523-.985 1.057-1.521 1.602l-5.054 5.176c.357-.1.719-.178 1.086-.236.366-.057.719-.086 1.059-.086h6.434c.259 0 .464.076.617.229.152.15.228.348.228.59v1.447h-12.814v-.818c0-.17.034-.344.101-.523.067-.178.176-.344.328-.494l6.153-6.18c.509-.52.974-1.018 1.394-1.496.42-.477.78-.957 1.079-1.439s.529-.973.69-1.469c.161-.496.241-1.025.241-1.588s-.089-1.057-.268-1.482c-.179-.424-.425-.773-.737-1.051-.313-.277-.679-.484-1.099-.623-.42-.139-.872-.209-1.354-.209s-.929.072-1.34.215-.775.342-1.092.596c-.317.256-.585.557-.804.906-.219.348-.374.732-.463 1.152-.071.26-.179.447-.321.562-.143.117-.331.174-.563.174l-.141-.006-.167-.02-1.247-.215c.125-.877.366-1.65.724-2.326.357-.674.811-1.24 1.36-1.695.549-.455 1.18-.803 1.89-1.039s1.475-.357 2.297-.357zM284.869 438.818c-.957 0-1.832-.129-2.627-.383s-1.479-.619-2.051-1.092c-.572-.475-1.014-1.049-1.327-1.723-.313-.676-.469-1.432-.469-2.273 0-1.232.322-2.248.965-3.049.644-.799 1.563-1.369 2.761-1.709-1.01-.375-1.771-.936-2.285-1.682-.514-.746-.771-1.639-.771-2.674 0-.707.139-1.369.416-1.984.277-.617.67-1.152 1.18-1.609.509-.455 1.119-.812 1.83-1.072s1.503-.389 2.379-.389c.867 0 1.657.129 2.373.389.715.26 1.327.617 1.836 1.072.509.457.902.992 1.18 1.609.277.615.416 1.277.416 1.984 0 1.035-.259 1.928-.778 2.674-.518.746-1.278 1.307-2.279 1.682 1.198.34 2.118.91 2.762 1.709.643.801.965 1.816.965 3.049 0 .842-.159 1.598-.476 2.273-.317.674-.76 1.248-1.327 1.723-.568.473-1.249.838-2.044 1.092s-1.673.383-2.629.383zm0-1.904c.625 0 1.186-.088 1.682-.262s.916-.42 1.26-.736c.344-.318.607-.697.791-1.141.183-.441.275-.932.275-1.467 0-.662-.109-1.227-.329-1.695-.219-.471-.514-.852-.884-1.146-.371-.295-.798-.512-1.28-.65s-.988-.207-1.515-.207c-.527 0-1.032.068-1.515.207-.483.139-.91.355-1.28.65-.371.295-.666.676-.885 1.146-.219.469-.328 1.033-.328 1.695 0 .535.091 1.025.274 1.467.183.443.447.822.791 1.141.344.316.764.562 1.26.736.497.174 1.058.262 1.683.262zm0-9.223c.625 0 1.159-.096 1.602-.287.442-.193.802-.447 1.079-.766.277-.316.478-.68.604-1.092.125-.41.188-.836.188-1.273 0-.447-.074-.867-.221-1.26s-.367-.738-.657-1.033c-.291-.293-.652-.525-1.086-.695s-.936-.256-1.508-.256-1.075.086-1.508.256c-.433.17-.795.402-1.085.695-.291.295-.509.641-.657 1.033s-.221.812-.221 1.26c0 .438.062.863.188 1.273.125.412.326.775.603 1.092.277.318.637.572 1.079.766.44.192.975.287 1.6.287zM302.134 424.033c0 .75-.116 1.422-.349 2.016-.232.596-.543 1.096-.932 1.502s-.842.717-1.36.932c-.519.215-1.059.322-1.622.322-.608 0-1.168-.107-1.682-.322-.514-.215-.963-.525-1.347-.932-.384-.406-.684-.906-.898-1.502-.214-.594-.321-1.266-.321-2.016 0-.77.107-1.453.321-2.053.215-.598.514-1.104.898-1.514.384-.41.833-.725 1.347-.938.514-.215 1.074-.322 1.682-.322.599 0 1.159.107 1.682.322.523.213.974.527 1.354.938.379.41.679.916.898 1.514.219.6.329 1.284.329 2.053zm6.715-4.156c.116-.152.239-.27.369-.355.129-.084.302-.127.516-.127h1.716l-14.034 18.82c-.09.115-.197.209-.322.281-.125.072-.273.107-.442.107h-1.77l13.967-18.726zm-8.578 4.156c0-.59-.062-1.092-.188-1.502-.125-.412-.297-.748-.516-1.012-.219-.264-.474-.453-.764-.57-.291-.115-.601-.174-.932-.174s-.642.059-.932.174c-.291.117-.543.307-.757.57s-.382.6-.503 1.012c-.121.41-.181.912-.181 1.502 0 .58.06 1.074.181 1.48.121.406.289.736.503.992.214.254.467.438.757.549.29.111.601.168.932.168s.641-.057.932-.168c.29-.111.545-.295.764-.549.219-.256.391-.586.516-.992s.188-.9.188-1.48zm12.479 10.039c0 .75-.116 1.422-.349 2.01-.232.59-.542 1.09-.931 1.496s-.84.717-1.354.932c-.514.215-1.052.32-1.615.32-.607 0-1.168-.105-1.682-.32s-.963-.525-1.347-.932-.684-.906-.898-1.496c-.214-.588-.322-1.26-.322-2.01 0-.768.107-1.455.322-2.057.214-.604.514-1.111.898-1.521.384-.412.833-.725 1.347-.939s1.075-.322 1.682-.322c.599 0 1.157.107 1.676.322.518.215.97.527 1.354.939.384.41.684.918.898 1.521.214.602.321 1.29.321 2.057zm-1.85 0c0-.59-.062-1.092-.188-1.508s-.297-.752-.516-1.012c-.219-.26-.474-.447-.764-.562-.291-.117-.601-.176-.932-.176s-.641.059-.931.176c-.291.115-.543.303-.758.562-.214.26-.382.596-.502 1.012s-.181.918-.181 1.508c0 .58.061 1.072.181 1.475s.288.73.502.984c.215.256.467.439.758.551.29.111.601.168.931.168s.641-.057.932-.168.545-.295.764-.551c.219-.254.391-.582.516-.984s.188-.895.188-1.475z"/></g><path fill="#0F789F" d="M218.21 478.752c-52.33-31.303-89.265-81.082-104.064-140.233-14.886-59.083-5.807-120.399 25.5-172.68 31.312-52.323 81.084-89.258 140.244-104.056 59.069-14.881 120.437-5.818 172.668 25.507l-11.23 18.848c-47.288-28.293-102.753-36.48-156.139-23.065-53.385 13.413-98.373 46.81-126.668 94.045-28.263 47.227-36.516 102.655-23.086 156.091 13.42 53.389 46.783 98.432 94.008 126.686 47.28 28.291 102.698 36.494 156.146 23.119l5.301 21.289c-59.086 14.832-120.414 5.765-172.68-25.551z" opacity=".7"/><path fill="#5E7E53" d="M267.649 545.098v6.709h-20.43v-23.637h7.576c-.025-.369-.042-.74-.042-1.111 0-1.303.175-2.568.5-3.787h-7.74c-2.504 0-4.551 2.051-4.551 4.557v41.213c0 2.506 2.047 4.555 4.551 4.555h19.842c2.506 0 4.556-2.049 4.556-4.555v-25.532c-.375-.029-.75-.059-1.119-.109-.959.568-2.034 1.144-3.143 1.697zm-14.728 24.492c0 .268-.22.486-.489.486h-4.958c-.268 0-.489-.219-.489-.486v-1.518c0-.27.222-.488.489-.488h4.958c.27 0 .489.219.489.488v1.518zm0-4.231c0 .271-.22.49-.489.49h-4.958c-.268 0-.489-.219-.489-.49v-1.518c0-.268.222-.488.489-.488h4.958c.27 0 .489.221.489.488v1.518zm0-4.228c0 .271-.22.488-.489.488h-4.958c-.268 0-.489-.217-.489-.488v-1.52c0-.266.222-.484.489-.484h4.958c.27 0 .489.219.489.484v1.52zm0-4.231c0 .271-.22.492-.489.492h-4.958c-.268 0-.489-.221-.489-.492v-1.516c0-.268.222-.49.489-.49h4.958c.27 0 .489.223.489.49v1.516zm7.482 12.69c0 .268-.215.486-.489.486h-4.96c-.269 0-.49-.219-.49-.486v-1.518c0-.27.222-.488.49-.488h4.96c.274 0 .489.219.489.488v1.518zm0-4.231c0 .271-.215.49-.489.49h-4.96c-.269 0-.49-.219-.49-.49v-1.518c0-.268.222-.488.49-.488h4.96c.274 0 .489.221.489.488v1.518zm0-4.228c0 .271-.215.488-.489.488h-4.96c-.269 0-.49-.217-.49-.488v-1.52c0-.266.222-.484.49-.484h4.96c.274 0 .489.219.489.484v1.52zm0-4.231c0 .271-.215.492-.489.492h-4.96c-.269 0-.49-.221-.49-.492v-1.516c0-.268.222-.49.49-.49h4.96c.274 0 .489.223.489.49v1.516zm7.483 12.69c0 .268-.218.486-.49.486h-4.957c-.273 0-.492-.219-.492-.486v-1.518c0-.27.219-.488.492-.488h4.957c.272 0 .49.219.49.488v1.518zm0-4.231c0 .271-.218.49-.49.49h-4.957c-.273 0-.492-.219-.492-.49v-1.518c0-.268.219-.488.492-.488h4.957c.272 0 .49.221.49.488v1.518zm0-4.228c0 .271-.218.488-.49.488h-4.957c-.273 0-.492-.217-.492-.488v-1.52c0-.266.219-.484.492-.484h4.957c.272 0 .49.219.49.484v1.52zm0-4.231c0 .271-.218.492-.49.492h-4.957c-.273 0-.492-.221-.492-.492v-1.516c0-.268.219-.49.492-.49h4.957c.272 0 .49.223.49.49v1.516zm5.598-44.636c-9.381 0-17.014 6.635-17.014 14.795 0 4.73 2.57 8.949 6.556 11.658.09 3.727-2.395 5.5-4.574 8.055 1.866-.197 7.958-2.672 11.975-5.16.992.16 2.016.24 3.058.24 9.384 0 17.019-6.637 17.019-14.793-.002-8.161-7.636-14.795-17.02-14.795zm-8.942 19.48c-.97 0-1.928-.25-2.405-.516l.389-1.586c.518.264 1.312.529 2.131.529.879 0 1.345-.365 1.345-.92 0-.527-.401-.832-1.421-1.195-1.412-.492-2.33-1.271-2.33-2.508 0-1.447 1.21-2.553 3.21-2.553.958 0 1.662.199 2.164.428l-.425 1.547c-.341-.162-.944-.398-1.777-.398-.827 0-1.231.375-1.231.816 0 .541.478.781 1.572 1.193 1.5.553 2.204 1.334 2.204 2.531-.002 1.425-1.097 2.632-3.426 2.632zm12.021-.125l-.124-3.25c-.037-1.018-.075-2.252-.075-3.484h-.039c-.262 1.078-.616 2.289-.943 3.285l-1.032 3.312h-1.499l-.906-3.287c-.277-.994-.567-2.203-.77-3.311h-.024c-.049 1.145-.085 2.455-.146 3.512l-.155 3.223h-1.773l.539-8.484h2.557l.833 2.828c.264.984.527 2.041.717 3.035h.034c.243-.98.531-2.1.809-3.045l.908-2.818h2.503l.468 8.484h-1.882zm5.43.125c-.97 0-1.925-.25-2.404-.516l.391-1.586c.516.264 1.31.529 2.128.529.88 0 1.345-.365 1.345-.92 0-.527-.399-.832-1.422-1.195-1.408-.492-2.331-1.271-2.331-2.508 0-1.447 1.21-2.553 3.213-2.553.957 0 1.663.199 2.165.428l-.429 1.547c-.341-.162-.942-.398-1.773-.398-.83 0-1.234.375-1.234.816 0 .541.479.777 1.573 1.193 1.5.553 2.205 1.334 2.205 2.531-.002 1.425-1.096 2.632-3.427 2.632z"/><path fill="#0E5461" d="M577.25 136.804c0 19.769-16.02 35.795-35.791 35.795-19.77 0-35.795-16.026-35.795-35.795s16.025-35.794 35.795-35.794c19.771 0 35.791 16.026 35.791 35.794z"/><g fill="#5DC7C3"><path d="M396.444 17.25h-4.355v-4.877c0-.98-.794-1.775-1.773-1.775-.981 0-1.772.795-1.772 1.775v1.329h-11.18v-1.329c0-.98-.794-1.775-1.771-1.775-.981 0-1.774.795-1.774 1.775v4.877h-4.354c-2.314 0-4.192 1.878-4.192 4.189v17.691h35.361v-17.69c-.002-2.312-1.876-4.19-4.19-4.19zm-13.49 18.776c-4.655 0-8.427-3.774-8.427-8.426 0-1.279.293-2.488.807-3.575.292-.628.653-1.215 1.089-1.747.285-.35.604-.674.94-.973 1.493-1.323 3.442-2.131 5.591-2.131 2.146 0 4.098.808 5.589 2.131.335.299.655.623.942.973.433.532.799 1.119 1.091 1.747.51 1.087.804 2.296.804 3.575-.001 4.651-3.774 8.426-8.426 8.426zM384.455 22.278c-.478-.135-.984-.211-1.501-.211-.523 0-1.023.076-1.5.211-2.325.654-4.035 2.785-4.035 5.322 0 3.056 2.478 5.533 5.535 5.533s5.532-2.478 5.532-5.533c0-2.537-1.707-4.668-4.031-5.322zM404.117 6.5c-1.533-.639-3.08-1.213-4.643-1.712-10.776-3.435-22.267-3.435-33.041 0-1.564.499-3.114 1.073-4.641 1.712-2.544 1.071-3.91 3.662-3.382 5.828.065.294.163.583.295.861l.331.694c1.152 2.317 3.918 3.161 6.266 2.18 1.276-.536 2.567-1.013 3.871-1.428 2.194-.705 3.72-2.821 3.671-5.156 6.673-1.413 13.544-1.413 20.216 0-.048 2.333 1.477 4.451 3.67 5.156 1.306.415 2.597.892 3.87 1.428 2.351.981 5.115.138 6.265-2.18l.334-.694c.133-.278.229-.567.299-.861.525-2.166-.84-4.757-3.381-5.828z"/></g><circle fill="#C8B330" cx="581.714" cy="319.43" r="23.769"/><path fill="#fff" d="M590.99 320.198c0 5.121-4.154 9.274-9.277 9.274-5.125 0-9.281-4.153-9.281-9.274 0-5.125 4.156-9.276 9.281-9.276 5.123-.001 9.277 4.151 9.277 9.276z"/><g fill="#48C7F4"><path d="M511.697 470.658l-19.682-.092c-7.283.197-9.963 6.062-9.963 8.104v28.996c0 1.799 1.457 3.244 3.232 3.244 1.801 0 3.258-1.445 3.258-3.244v-23.768h2.758v22.779c0 .314.039.623.078.906v.619c.197-.035 17.619.055 20.318-.084v-24.221h2.449v23.768c0 1.799 1.557 3.244 3.473 3.244 1.928 0 3.486-1.445 3.486-3.244v-29.373c.001-2.478-3.252-7.634-9.407-7.634zM501.287 469.15c4.311 0 7.801-3.482 7.801-7.801 0-4.307-3.49-7.797-7.801-7.797-4.307 0-7.795 3.49-7.795 7.797 0 4.319 3.488 7.801 7.795 7.801zM527.453 476.383v-2.191c0-1.447-1.896-4.459-5.49-4.459l-11.494-.053c-4.252.113-5.816 3.541-5.816 4.732v1.559c7.601.023 15.202.197 22.8.412zM516.053 468.852c2.516 0 4.555-2.033 4.555-4.555 0-2.516-2.039-4.555-4.555-4.555-2.514 0-4.553 2.039-4.553 4.555 0 2.521 2.039 4.555 4.553 4.555zM498.244 477.033c.277.004.527.035.783.062v-2.791c0-1.193-1.566-4.619-5.82-4.732l-11.49.051c-3.596 0-5.492 3.014-5.492 4.461v2.928c7.339-.16 14.677.006 22.019.021zM487.336 468.744c-2.516 0-4.557-2.033-4.557-4.555 0-2.516 2.041-4.555 4.557-4.555 2.514 0 4.549 2.039 4.549 4.555 0 2.522-2.035 4.555-4.549 4.555zM531.043 463.877c.016-.496.014-.988-.014-1.477-.178-3.375-1.389-6.586-3.486-9.232-.303-.385-.627-.758-.969-1.115-.57-.6-1.436-.707-1.986-.332l-.209.176-.158.166c-.521.564-.473 1.428.053 1.979.285.301.555.609.809.932.43.539 1.178.74 1.826.48 1.1 1.717 1.824 3.637 2.133 5.648-.656.234-1.086.881-1.053 1.568.02.41.023.822.012 1.232-.029.76.498 1.445 1.266 1.523l.23.018.275-.008c.658-.081 1.238-.738 1.271-1.558zM473.332 464.947c-.02-.496-.016-.988.01-1.479.176-3.373 1.391-6.584 3.486-9.232.307-.385.629-.756.969-1.115.568-.6 1.436-.707 1.984-.332l.211.176.158.166c.525.564.471 1.428-.055 1.98-.281.299-.553.609-.807.932-.426.537-1.178.74-1.828.479-1.096 1.719-1.822 3.635-2.133 5.65.656.232 1.088.881 1.055 1.568-.021.41-.025.818-.01 1.232.025.76-.5 1.443-1.27 1.52l-.229.021-.273-.01c-.659-.081-1.239-.733-1.268-1.556z"/></g><g fill="#ED1C24"><path opacity=".7" d="M97.275 235.51h-6.855v-44.127c0-1.339-1.088-2.427-2.427-2.427h-65.881c-1.338 0-2.429 1.088-2.429 2.427v44.127h-6.849c-1.768 0-3.202 1.437-3.202 3.201v2.967c0 1.76 1.435 3.197 3.202 3.197h84.44c1.764 0 3.2-1.438 3.2-3.197v-2.967c.001-1.764-1.435-3.201-3.199-3.201zm-28.417 2.631c0 .669-.547 1.214-1.223 1.214h-25.168c-.673 0-1.217-.545-1.217-1.214v-1.128l.037-.296h27.533l.038.296v1.128zm14.168 3.357c-.564 0-1.024-.456-1.024-1.022 0-.563.46-1.021 1.024-1.021.561 0 1.017.458 1.017 1.021-.001.566-.457 1.022-1.017 1.022zm1.153-7.78h-58.25v-38.973c0-.04.051-.1.129-.1h57.991c.073 0 .13.06.13.1v38.973zm3.551 7.78c-.56 0-1.018-.456-1.018-1.022 0-.563.458-1.021 1.018-1.021.562 0 1.023.458 1.023 1.021 0 .566-.461 1.022-1.023 1.022zm4.709 0c-.562 0-1.022-.456-1.022-1.022 0-.563.46-1.021 1.022-1.021s1.017.458 1.017 1.021c0 .566-.455 1.022-1.017 1.022z"/><path opacity=".7" fill-rule="evenodd" clip-rule="evenodd" d="M28.944 196.151h52.061v5.062h-52.061zM29.403 204.219h16.311v25.801h-16.311zM72.651 204.848h6.824v8.782h-6.824zM72.651 214.805h6.901v8.314h-6.901z"/><path opacity=".7" stroke="#ED1C24" stroke-miterlimit="10" d="M48.262 206.101h23.448M48.262 208.847h23.448M48.262 211.906h23.448M48.262 214.57h23.448M48.262 219.276h23.448M48.262 222.022h23.448M48.262 225.08h31.21M48.262 227.745h31.21"/></g><g fill-rule="evenodd" clip-rule="evenodd"><path fill="#fff" d="M516.92 141.12c-.248-11.48 4.641-19.099 14.146-23.153 9.629-4.088 19.225-3.605 27.592 3.551 6.377 5.44 7.723 13.54 3.826 21.003-3.887 7.45-9.295 9.954-18.018 7.771-2.02-.499-3.137.634-4.676.936-6.357 1.248-10.564-1.639-11.572-8.142-1.705-10.999 5.873-18.879 16.338-16.766 1.498.304 2.295-.635 3.436-.749 2.928-.297 4.326.847 3.768 3.983-.773 4.315-1.443 8.632-2.064 12.957-.168 1.156-.895 2.688.479 3.418 1.547.834 2.771-.44 3.861-1.379 7.406-6.345 4.699-19.587-4.73-23.279-7.6-2.979-16.377-.777-21.652 5.406-5.078 5.983-6.105 15.902-2.285 22.282 3.672 6.146 13.262 9.816 21.574 8.085 4.131-.873 7.936-2.442 10.936-5.669 1.275-1.367 2.816-4.062 5.014-1.913 2.229 2.181.012 4.21-1.475 5.883-4.02 4.479-9.527 5.808-15.121 6.709-11.027 1.769-22.658-3.315-27.129-11.588-1.748-3.24-2.42-6.629-2.248-9.346z"/><path fill="#0E5461" d="M544.588 134.579c-.582 3.315-1.66 7.103-3.797 10.49-.773 1.228-1.832 2.501-3.557 1.895-1.732-.611-2.561-1.966-2.623-3.861-.125-4.395 1.627-8.104 4.113-11.55.889-1.227 2.174-2.119 3.77-1.659 1.985.569 2.121 2.324 2.094 4.685z"/></g></svg>