<svg xmlns="http://www.w3.org/2000/svg" width="693" height="457.394" viewBox="0 0 693 457.394"><text transform="matrix(1 .004 -.004 1 514.375 192.358)" fill="#fff" font-family="'MyriadPro-Regular'" font-size="16.986">TEACHERS</text><text transform="matrix(1 .004 -.004 1 514.375 331.57)" fill="#fff" font-family="'MyriadPro-Regular'" font-size="16.986">PARENTS</text><text transform="matrix(1 .004 -.004 1 514.375 434.965)" fill="#fff" font-family="'MyriadPro-Regular'" font-size="16.986">SGB MEMBERS</text><circle fill="#fff" stroke="#5DC7C3" stroke-width="1.213" stroke-miterlimit="10" cx="489.351" cy="184.583" r="9.923"/><circle fill="#5DC7C3" cx="489.351" cy="324.115" r="9.923"/><path fill="#EEC900" d="M499.273 429.671c0 5.482-4.441 9.926-9.923 9.926s-9.923-4.443-9.923-9.926c0-5.477 4.441-9.92 9.923-9.92s9.923 4.444 9.923 9.92z"/><path fill="#fff" d="M230.538 356.772c72.32-.271 131.038-58.912 131.038-130.953 0-43.449-21.611-83.938-57.842-108.418l41.512-59.456c55.78 38.068 89.068 100.788 89.068 167.874 0 111.62-91.048 202.754-203.069 203.382l-.707-72.429z"/><path fill="#5DC7C3" d="M345.373 58.637c55.398 38.002 88.442 100.424 88.442 167.182 0 27.286-5.375 53.78-15.974 78.746-10.236 24.11-24.888 45.786-43.547 64.424-18.658 18.637-40.376 33.292-64.554 43.561-24.728 10.502-50.964 15.933-77.999 16.147l-.698-71.428c72.341-.521 131.033-59.289 131.033-131.45 0-43.447-21.527-83.946-57.642-108.548l40.939-58.634m-.254-1.384l-42.086 60.278c34.984 23.445 58.043 63.225 58.043 108.288 0 71.926-58.764 130.454-131.003 130.454h-.04l.717 73.43c112.58-.363 204.064-91.691 204.064-203.884 0-69.987-35.589-131.83-89.695-168.566zM99.071 225.819c0-71.952 58.77-130.455 131.002-130.455 26.981 0 54.409 9.708 75.276 23.707l41.603-60.508c-32.817-22.286-74.262-36.633-116.879-36.633-112.911 0-204.762 91.454-204.762 203.888 0 112.427 91.851 203.892 204.762 203.892l.677-.008-.717-73.43c-72.208-.017-130.962-58.527-130.962-130.453z"/><path fill="#EEC900" d="M232.216 355.812c-72.185.818-132.243-56.677-133.104-128.575-8.734.186-54.729-.01-73.752.525v.275c1.302 112.418 95.754 204.625 208.119 201.76.221-.006-1.263-73.985-1.263-73.985z"/><g fill="#EEC900"><path d="M577.822 365.302l-9.502-.045c-3.517.092-4.812 2.93-4.812 3.914v14.01c0 .869.696 1.568 1.559 1.568.867 0 1.572-.699 1.572-1.568v-11.482h1.337v11.006c0 .15.013.301.036.438v19.657c0 1.266.978 2.291 2.184 2.291 1.208 0 2.182-1.025 2.182-2.291v-17.348h1.084v17.348c0 1.266.969 2.291 2.182 2.291 1.205 0 2.18-1.025 2.18-2.291v-31.102h1.186v11.482c0 .869.754 1.568 1.683 1.568.927 0 1.681-.699 1.681-1.568v-14.189000000000002c-.003-1.199-1.571-3.689-4.552-3.689zM572.939 364.572c2.08 0 3.768-1.682 3.768-3.764s-1.688-3.77-3.768-3.77c-2.082 0-3.77 1.688-3.77 3.77s1.688 3.764 3.77 3.764z"/></g><path fill="#EEC900" d="M464.537 365.302l-9.502-.045c-3.516.092-4.811 2.93-4.811 3.914v14.01c0 .869.693 1.568 1.561 1.568.865 0 1.57-.699 1.57-1.568v-11.482h1.336v11.006c0 .15.011.301.037.438v19.657c0 1.266.977 2.291 2.182 2.291s2.184-1.025 2.184-2.291v-17.348h1.079v17.348c0 1.266.977 2.291 2.186 2.291 1.204 0 2.179-1.025 2.179-2.291v-31.102h1.184v11.482c0 .869.756 1.568 1.686 1.568.928 0 1.682-.699 1.682-1.568v-14.189000000000002c-.002-1.199-1.572-3.689-4.553-3.689z"/><circle fill="#EEC900" cx="459.653" cy="360.805" r="3.767"/><path fill="#EEC900" d="M506.756 383.181c0 .869.697 1.568 1.562 1.568.868 0 1.569-.699 1.569-1.568v-2.111h-3.131v2.111zM511.223 382.705c0 .15.016.301.039.438v19.657c0 1.266.979 2.291 2.182 2.291 1.209 0 2.183-1.025 2.183-2.291v-17.348h1.083v17.348c0 1.266.975 2.291 2.184 2.291 1.206 0 2.178-1.025 2.178-2.291v-21.731h-9.848v1.636zM522.256 381.07v2.111c0 .869.752 1.568 1.687 1.568.923 0 1.677-.699 1.677-1.568v-2.111h-3.364zM525.619 369.906v-.9139999999999999c0-1.199-1.566-3.689-4.549-3.689l-9.5-.045c-3.52.092-4.814 2.93-4.814 3.914v11.899h3.131v-9.371h1.336v9.371h9.848v-9.371h1.186v9.371h3.363v-11.165zM516.188 364.572c2.08 0 3.768-1.682 3.768-3.764s-1.688-3.77-3.768-3.77c-2.084 0-3.769 1.688-3.769 3.77s1.685 3.764 3.769 3.764zM549.447 365.302l-9.502-.045c-2.965.08-4.348 2.105-4.711 3.332h18.708c-.285-1.281-1.817-3.287-4.495-3.287zM535.234 368.589c-.066.225-.105.43-.105.582v14.01c0 .869.702 1.568 1.562 1.568.869 0 1.57-.699 1.57-1.568v-11.482h1.339v11.006c0 .15.011.301.035.438v19.657c0 1.266.979 2.291 2.184 2.291 1.206 0 2.183-1.025 2.183-2.291v-17.348h1.081v17.348c0 1.266.976 2.291 2.187 2.291 1.201 0 2.178-1.025 2.178-2.291v-31.102h1.186v11.482c0 .869.752 1.568 1.683 1.568.925 0 1.679-.699 1.679-1.568v-14.189000000000002c0-.123-.019-.262-.052-.402h-18.71zM544.563 364.572c2.081 0 3.767-1.682 3.767-3.764s-1.686-3.77-3.767-3.77c-2.083 0-3.771 1.688-3.771 3.77s1.688 3.764 3.771 3.764zM487.25 385.453h1.085v7.662h-1.085zM482.885 402.8c0 1.266.979 2.291 2.184 2.291 1.207 0 2.182-1.025 2.182-2.291v-9.686h-4.365v9.686zM488.335 393.115v9.686c0 1.266.972 2.291 2.181 2.291 1.207 0 2.182-1.025 2.182-2.291v-9.686h-4.363zM492.697 382.705v-11.005999999999998h1.184v11.482c0 .869.754 1.568 1.684 1.568.928 0 1.682-.699 1.682-1.568v-14.189000000000002c0-1.199-1.568-3.689-4.549-3.689l-9.504-.045c-3.517.092-4.812 2.93-4.812 3.914v14.01c0 .869.696 1.568 1.563 1.568.864 0 1.568-.699 1.568-1.568v-11.482h1.339v11.006c0 .15.01.301.033.438v9.973h4.365v-7.662h1.085v7.662h4.362v-10.412z"/><circle fill="#EEC900" cx="487.812" cy="360.805" r="3.767"/><path fill="#EEC900" d="M602.707 365.302l-9.502-.045c-3.52.092-4.814 2.93-4.814 3.914v14.01c0 .869.696 1.568 1.563 1.568.862 0 1.567-.699 1.567-1.568v-11.482h1.338v11.006c0 .15.012.301.038.438v19.657c0 1.266.974 2.291 2.183 2.291 1.203 0 2.182-1.025 2.182-2.291v-17.348h1.083v17.348c0 1.266.974 2.291 2.181 2.291s2.182-1.025 2.182-2.291v-31.102h1.183v11.482c0 .869.753 1.568 1.688 1.568.925 0 1.677-.699 1.677-1.568v-14.189000000000002c-.002-1.199-1.569-3.689-4.549-3.689z"/><circle fill="#EEC900" cx="597.822" cy="360.805" r="3.767"/><path fill="#EEC900" d="M644.922 383.181c0 .869.701 1.568 1.564 1.568.867 0 1.567-.699 1.567-1.568v-2.111h-3.132v2.111zM649.393 382.705c0 .15.012.301.039.438v19.657c0 1.266.978 2.291 2.181 2.291s2.185-1.025 2.185-2.291v-17.348h1.079v17.348c0 1.266.974 2.291 2.185 2.291 1.207 0 2.179-1.025 2.179-2.291v-21.731h-9.847v1.636zM663.786 369.906v-.9139999999999999c0-1.199-1.565-3.689-4.547-3.689l-9.501-.045c-3.518.092-4.816 2.93-4.816 3.914v11.899h3.132v-9.371h1.339v9.371h9.847v-9.371h1.185v9.371h3.362v-11.165zM654.356 364.572c2.079 0 3.767-1.682 3.767-3.764s-1.688-3.77-3.767-3.77c-2.083 0-3.769 1.688-3.769 3.77s1.686 3.764 3.769 3.764zM621.054 402.8c0 1.266.977 2.291 2.186 2.291 1.204 0 2.179-1.025 2.179-2.291v-9.686h-4.364v9.686zM626.504 393.115v9.686c0 1.266.973 2.291 2.18 2.291s2.182-1.025 2.182-2.291v-9.686h-4.362zM630.865 382.705v-11.005999999999998h1.187v11.482c0 .869.753 1.568 1.684 1.568.925 0 1.677-.699 1.677-1.568v-14.189000000000002c0-1.199-1.568-3.689-4.547-3.689l-9.503-.045c-3.52.092-4.813 2.93-4.813 3.914v14.01c0 .869.697 1.568 1.562 1.568.866 0 1.571-.699 1.571-1.568v-11.482h1.334v11.006c0 .15.016.301.038.438v9.973h4.364v-7.662h1.086v7.662h4.361v-10.412zM625.979 364.572c2.082 0 3.77-1.682 3.77-3.764s-1.688-3.77-3.77-3.77c-2.077 0-3.768 1.688-3.768 3.77s1.69 3.764 3.768 3.764z"/><g fill="#fff" stroke="#5DC7C3" stroke-width=".581" stroke-miterlimit="10"><path d="M532.701 73.737l-9.504-.045c-3.517.091-4.814 2.93-4.814 3.914v14.009c0 .869.697 1.57 1.562 1.57.867 0 1.571-.701 1.571-1.57v-11.48h1.338l.035 31.1c0 1.266.977 2.291 2.184 2.291s2.182-1.025 2.182-2.291l-.02-10.728 1.064.049.039 10.679c0 1.266.972 2.291 2.183 2.291 1.206 0 2.181-1.025 2.181-2.291v-31.1h1.185v11.48c0 .869.751 1.57 1.683 1.57.924 0 1.678-.701 1.678-1.57v-14.189c-.002-1.2-1.568-3.689-4.547-3.689zM527.818 73.008c2.078 0 3.766-1.684 3.766-3.767 0-2.081-1.688-3.768-3.766-3.768-2.082 0-3.772 1.687-3.772 3.768 0 2.083 1.69 3.767 3.772 3.767z"/></g><g fill="#fff" stroke="#5DC7C3" stroke-width=".581" stroke-miterlimit="10"><path d="M557.586 73.737l-9.506-.045c-3.514.091-4.812 2.93-4.812 3.914v14.009c0 .869.697 1.57 1.563 1.57.862 0 1.567-.701 1.567-1.57v-11.48h1.338v11.004c0 .153.012.302.039.438v19.657c0 1.266.973 2.291 2.18 2.291 1.205 0 2.185-1.025 2.185-2.291v-17.346h1.083v17.346c0 1.266.975 2.291 2.18 2.291 1.207 0 2.184-1.025 2.184-2.291v-31.1h1.18v11.48c0 .869.758 1.57 1.69 1.57.925 0 1.677-.701 1.677-1.57v-14.188c-.001-1.2-1.572-3.689-4.548-3.689zM552.698 73.008c2.083 0 3.771-1.684 3.771-3.767 0-2.081-1.688-3.768-3.771-3.768-2.082 0-3.767 1.687-3.767 3.768.001 2.083 1.685 3.767 3.767 3.767z"/></g><g fill="#fff" stroke="#5DC7C3" stroke-width=".581" stroke-miterlimit="10"><path d="M519.436 118.892l-9.503-.045c-3.519.093-4.814 2.932-4.814 3.917v14.008c0 .867.694 1.571 1.56 1.571.867 0 1.571-.704 1.571-1.571v-11.482h1.339v11.005c0 .151.012.3.035.439v19.657c0 1.263.978 2.289 2.184 2.289 1.205 0 2.182-1.026 2.182-2.289v-17.346h1.082v17.346c0 1.263.971 2.289 2.186 2.289 1.201 0 2.18-1.026 2.18-2.289v-31.101000000000003h1.182v11.482c0 .867.754 1.571 1.686 1.571.926 0 1.679-.704 1.679-1.571v-14.19c-.004-1.199-1.573-3.69-4.549-3.69zM514.551 118.165c2.078 0 3.767-1.682 3.767-3.771 0-2.077-1.688-3.764-3.767-3.764-2.084 0-3.771 1.687-3.771 3.764-.001 2.089 1.687 3.771 3.771 3.771z"/></g><g fill="#fff" stroke="#5DC7C3" stroke-width=".581" stroke-miterlimit="10"><path d="M545.51 28.468l-9.503-.046c-3.519.093-4.815 2.932-4.815 3.917v14.007c0 .87.695 1.572 1.561 1.572.867 0 1.572-.702 1.572-1.572v-11.481h1.335v11.006c0 .151.017.299.038.44v19.656c0 1.264.978 2.289 2.184 2.289s2.183-1.024 2.183-2.289v-17.346h1.083v17.347c0 1.264.971 2.289 2.184 2.289 1.201 0 2.18-1.024 2.18-2.289v-31.103h1.184v11.481c0 .87.752 1.572 1.684 1.572.926 0 1.68-.702 1.68-1.572v-14.188c-.003-1.199-1.572-3.69-4.55-3.69zM540.628 27.739c2.077 0 3.765-1.681 3.765-3.768 0-2.078-1.688-3.767-3.765-3.767-2.085 0-3.774 1.688-3.774 3.767 0 2.087 1.689 3.768 3.774 3.768z"/></g><g fill="#fff" stroke="#5DC7C3" stroke-width=".581" stroke-miterlimit="10"><path d="M544.316 118.892l-9.501-.045c-3.517.093-4.813 2.932-4.813 3.917v14.008c0 .867.695 1.571 1.562 1.571.863 0 1.566-.704 1.566-1.571v-11.482h1.34v11.005c0 .151.013.3.037.439v19.657c0 1.263.975 2.289 2.182 2.289 1.205 0 2.181-1.026 2.181-2.289v-17.346h1.083v17.346c0 1.263.978 2.289 2.186 2.289 1.204 0 2.178-1.026 2.178-2.289v-31.101000000000003h1.184v11.482c0 .867.756 1.571 1.688 1.571.926 0 1.676-.704 1.676-1.571v-14.19c-.002-1.199-1.569-3.69-4.549-3.69zM539.434 118.165c2.084 0 3.767-1.682 3.767-3.771 0-2.077-1.683-3.764-3.767-3.764-2.085 0-3.769 1.687-3.769 3.764 0 2.089 1.684 3.771 3.769 3.771z"/></g><g fill="#fff" stroke="#5DC7C3" stroke-width=".581" stroke-miterlimit="10"><path d="M567.028 139.045h1.085v7.66h-1.085zM562.664 156.391c0 1.263.979 2.289 2.185 2.289s2.18-1.026 2.18-2.289v-9.687h-4.364v9.687zM568.113 146.705v9.687c0 1.263.974 2.289 2.182 2.289 1.209 0 2.182-1.026 2.182-2.289v-9.687h-4.364zM572.477 136.294v-11.004h1.185v11.482c0 .867.753 1.571 1.685 1.571.922 0 1.678-.704 1.678-1.571v-14.19c0-1.199-1.57-3.69-4.547-3.69l-9.505-.045c-3.517.093-4.812 2.932-4.812 3.917v14.008c0 .867.698 1.571 1.561 1.571.866 0 1.57-.704 1.57-1.571v-11.482h1.336v11.005c0 .151.015.3.037.439v9.971h4.364v-7.66h1.085v7.66h4.363v-10.411zM567.592 118.165c2.082 0 3.766-1.682 3.766-3.771 0-2.077-1.684-3.764-3.766-3.764-2.081 0-3.771 1.687-3.771 3.764-.001 2.089 1.69 3.771 3.771 3.771z"/></g><path fill="#5DC7C3" d="M522.83 89.327l-3.635 11.133 17.862.145-4.5-11.135zM509.611 137.054l-3.774 11.179 17.86.147-4.353-11.183zM562.76 137.197l-3.776 11.183 17.861.145-4.357-11.181z"/><g fill="#5DC7C3"><path d="M511.593 245.227l-9.504-.045c-3.515.092-4.814 2.93-4.814 3.916v14.01c0 .868.698 1.569 1.562 1.569.867 0 1.571-.701 1.571-1.569v-11.482h1.338v11.005c0 .151.013.298.035.438v19.657c0 1.263.979 2.29 2.184 2.29s2.182-1.027 2.182-2.29v-17.347h1.082v17.347c0 1.263.973 2.29 2.184 2.29 1.204 0 2.181-1.027 2.181-2.29v-31.101h1.183v11.482c0 .868.756 1.569 1.684 1.569s1.681-.701 1.681-1.569v-14.192c-.002-1.197-1.572-3.688-4.549-3.688zM506.71 244.498c2.079 0 3.767-1.682 3.767-3.77 0-2.076-1.688-3.766-3.767-3.766-2.082 0-3.771 1.689-3.771 3.766-.001 2.088 1.689 3.77 3.771 3.77zM536.477 245.227l-9.502-.045c-3.52.092-4.816 2.93-4.816 3.916v14.01c0 .868.699 1.569 1.564 1.569.863 0 1.566-.701 1.566-1.569v-11.482h1.341v11.005c0 .151.011.298.038.438v19.657c0 1.263.973 2.29 2.18 2.29 1.205 0 2.184-1.027 2.184-2.29v-17.347h1.08v17.347c0 1.263.979 2.29 2.185 2.29s2.181-1.027 2.181-2.29v-31.101h1.182v11.482c0 .868.756 1.569 1.689 1.569.924 0 1.674-.701 1.674-1.569v-14.192c-.002-1.197-1.568-3.688-4.546-3.688zM531.592 244.498c2.082 0 3.766-1.682 3.766-3.77 0-2.076-1.684-3.766-3.766-3.766-2.084 0-3.77 1.689-3.77 3.766 0 2.088 1.686 3.77 3.77 3.77zM586.721 245.227l-9.504-.045c-3.518.092-4.814 2.93-4.814 3.916v14.01c0 .868.699 1.569 1.562 1.569.866 0 1.569-.701 1.569-1.569v-11.482h1.34v11.005c0 .151.012.298.037.438v19.657c0 1.263.975 2.29 2.183 2.29 1.202 0 2.181-1.027 2.181-2.29v-17.347h1.082v17.347c0 1.263.977 2.29 2.185 2.29 1.204 0 2.181-1.027 2.181-2.29v-31.101h1.182v11.482c0 .868.756 1.569 1.687 1.569.925 0 1.678-.701 1.678-1.569v-14.192c-.003-1.197-1.571-3.688-4.549-3.688zM581.836 244.498c2.082 0 3.766-1.682 3.766-3.77 0-2.076-1.684-3.766-3.766-3.766-2.084 0-3.771 1.689-3.771 3.766 0 2.088 1.687 3.77 3.771 3.77zM559.189 265.379h1.084v7.661h-1.084zM554.824 282.726c0 1.263.978 2.29 2.186 2.29 1.203 0 2.18-1.027 2.18-2.29v-9.686h-4.365v9.686zM560.273 273.04v9.686c0 1.263.97 2.29 2.179 2.29 1.208 0 2.183-1.027 2.183-2.29v-9.686h-4.362zM564.635 262.63v-11.004999999999999h1.186v11.482c0 .868.751 1.569 1.686 1.569.92 0 1.678-.701 1.678-1.569v-14.192c0-1.197-1.572-3.688-4.549-3.688l-9.506-.045c-3.516.092-4.81 2.93-4.81 3.916v14.01c0 .868.696 1.569 1.56 1.569.867 0 1.572-.701 1.572-1.569v-11.482h1.335v11.005c0 .151.015.298.038.438v9.972h4.365v-7.661h1.084v7.661h4.361v-10.411zM559.748 244.498c2.083 0 3.77-1.682 3.77-3.77 0-2.076-1.687-3.766-3.77-3.766-2.078 0-3.768 1.689-3.768 3.766 0 2.088 1.69 3.77 3.768 3.77zM501.77 263.388l-3.776 11.179 17.861.148-4.355-11.184zM554.92 263.531l-3.777 11.184 17.861.144-4.356-11.181z"/></g><g stroke="#ED1C24" stroke-width="2.491" stroke-miterlimit="10" fill="none"><path d="M220.566 256.469c-5.911 0-10.715-4.805-10.715-10.719 0-5.905 4.804-10.715 10.715-10.715s10.72 4.81 10.72 10.715c0 5.914-4.808 10.719-10.72 10.719m0-33.33h-38.386v7.111l17.62 6.57c-1.186 2.739-1.846 5.763-1.846 8.93 0 12.47 10.145 22.618 22.613 22.618 12.474 0 22.616-10.148 22.616-22.618s-10.143-22.611-22.617-22.611zM266.361 245.75h-12.242c0-18.584-15.121-33.707-33.711-33.707v-12.24c25.339 0 45.953 20.614 45.953 45.947M288.639 245.75h-12.243c0-30.871-25.116-55.982-55.989-55.982v-12.241c37.624-.001 68.232 30.604 68.232 68.223"/></g></svg>