<svg xmlns="http://www.w3.org/2000/svg" width="800" height="457.394" viewBox="0 0 800 457.394"><g fill="#48C7F4"><path d="M85.776 276.541l-13.394-.063c-4.956.129-6.781 4.13-6.781 5.517v19.749000000000002c0 1.226.978 2.211 2.199 2.211 1.22 0 2.214-.985 2.214-2.211v-16.186h1.883v15.514c0 .212.016.424.053.617v27.71c0 1.784 1.377 3.229 3.075 3.229s3.078-1.445 3.078-3.229v-24.453h1.521v24.453c0 1.784 1.376 3.229 3.08 3.229 1.697 0 3.071-1.445 3.071-3.229v-43.841h1.669v16.186c0 1.226 1.065 2.211 2.376 2.211 1.308 0 2.37-.985 2.37-2.211v-20.003c.001-1.691-2.213-5.2-6.414-5.2zM78.892 275.51c2.935 0 5.314-2.37 5.314-5.306 0-2.935-2.38-5.313-5.314-5.313s-5.31 2.379-5.31 5.313c.001 2.936 2.376 5.306 5.31 5.306z"/></g><g fill="#48C7F4"><path d="M124.401 276.541l-13.397-.063c-4.954.129-6.786 4.13-6.786 5.52v19.749c0 1.224.984 2.212 2.202 2.212 1.223 0 2.215-.988 2.215-2.212v-16.187h1.887v15.514c0 .213.018.419.049.617v.45h-.017l-5.321 15.76 5.338.044v11.455c0 1.779 1.38 3.228 3.078 3.228 1.699 0 3.075-1.448 3.075-3.228v-11.405l1.525.013v11.392c0 1.779 1.371 3.228 3.078 3.228 1.697 0 3.074-1.448 3.074-3.228v-11.342l6.009.05-6.009-15.429v-17.12h1.667v16.187c0 1.224 1.065 2.212 2.373 2.212s2.369-.988 2.369-2.212v-20.005999999999997c.001-1.688-2.211-5.199-6.409-5.199zM117.519 275.513c2.931 0 5.31-2.37 5.31-5.313 0-2.927-2.379-5.309-5.31-5.309-2.936 0-5.316 2.382-5.316 5.309-.001 2.943 2.38 5.313 5.316 5.313z"/></g><g fill="#48C7F4"><path d="M163.013 276.541l-13.395-.063c-4.956.129-6.781 4.13-6.781 5.517v19.749000000000002c0 1.226.978 2.211 2.2 2.211 1.22 0 2.213-.985 2.213-2.211v-16.186h1.884v15.514c0 .212.015.424.052.617v27.71c0 1.784 1.377 3.229 3.075 3.229 1.699 0 3.078-1.445 3.078-3.229v-24.453h1.521v24.453c0 1.784 1.377 3.229 3.081 3.229 1.697 0 3.071-1.445 3.071-3.229v-43.841h1.668v16.186c0 1.226 1.065 2.211 2.376 2.211 1.308 0 2.371-.985 2.371-2.211v-20.003c.001-1.691-2.213-5.2-6.414-5.2zM156.128 275.51c2.935 0 5.315-2.37 5.315-5.306 0-2.935-2.381-5.313-5.315-5.313-2.934 0-5.31 2.379-5.31 5.313.001 2.936 2.377 5.306 5.31 5.306z"/></g><g fill="#48C7F4"><path d="M240.25 276.541l-13.395-.063c-4.955.129-6.78 4.13-6.78 5.517v19.749000000000002c0 1.226.978 2.211 2.199 2.211 1.22 0 2.214-.985 2.214-2.211v-16.186h1.883v15.514c0 .212.016.424.053.617v27.71c0 1.784 1.376 3.229 3.075 3.229 1.698 0 3.078-1.445 3.078-3.229v-24.453h1.521v24.453c0 1.784 1.376 3.229 3.08 3.229 1.697 0 3.071-1.445 3.071-3.229v-43.841h1.669v16.186c0 1.226 1.065 2.211 2.376 2.211 1.308 0 2.37-.985 2.37-2.211v-20.003c.001-1.691-2.213-5.2-6.414-5.2zM233.366 275.51c2.935 0 5.314-2.37 5.314-5.306 0-2.935-2.38-5.313-5.314-5.313s-5.31 2.379-5.31 5.313c0 2.936 2.376 5.306 5.31 5.306z"/></g><g fill="#666"><path d="M162.94 55.559l.845-.106 2.491 15.994c.188 1.209 1.321 2.033 2.529 1.845 1.204-.188 2.025-1.315 1.836-2.524l-2.88-18.488-.13-.832-.03-.193c-.214-1.373-1.191-4.648-6.146-4.777h-10.835c-4.954.129-5.932 3.404-6.146 4.777l-.03.193-.13.832-2.88 18.488c-.188 1.209.632 2.337 1.836 2.524 1.208.188 2.34-.636 2.529-1.845l2.491-15.994.845.106v11.112c0 .213.018-.198.05 0h-.017l-3.319 21.229 3.339.044v11.456c0 1.779 1.379 3.228 3.078 3.228 1.698 0 3.075-1.448 3.075-3.228v-11.405l1.525.013v11.392c0 1.779 1.371 3.228 3.078 3.228 1.697 0 3.073-1.448 3.073-3.228v-11.342l4.009.05-4.009-21.437v-11.112"/><path d="M156.135 45.513c2.931 0 5.31-2.37 5.31-5.313 0-2.927-2.379-5.309-5.31-5.309-2.935 0-5.316 2.382-5.316 5.309 0 2.943 2.382 5.313 5.316 5.313z"/></g><g fill="#666"><path d="M143.451 110.784l.845-.106 2.491 15.994c.188 1.209 1.321 2.033 2.529 1.845 1.204-.188 2.025-1.315 1.836-2.524l-2.88-18.488-.13-.832-.03-.193c-.214-1.373-1.191-4.648-6.146-4.777h-10.835c-4.954.129-5.932 3.404-6.146 4.777l-.03.193-.13.832-2.88 18.488c-.188 1.209.632 2.337 1.836 2.524 1.208.188 2.34-.636 2.529-1.845l2.491-15.994.845.106v11.112c0 .213.018-.198.05 0h-.017l-3.322 21.229 3.339.044v11.456c0 1.779 1.379 3.228 3.078 3.228 1.698 0 3.075-1.448 3.075-3.228v-11.405l1.525.013v11.393c0 1.779 1.371 3.228 3.078 3.228 1.697 0 3.073-1.448 3.073-3.228v-11.342l4.009.05-4.009-21.437v-11.112"/><path d="M136.646 100.738c2.931 0 5.31-2.37 5.31-5.313 0-2.927-2.379-5.309-5.31-5.309-2.935 0-5.316 2.382-5.316 5.309 0 2.943 2.381 5.313 5.316 5.313z"/></g><g fill="#666"><path d="M164.601 167.901l.845-.106 2.491 15.994c.188 1.209 1.321 2.033 2.529 1.845 1.204-.188 2.025-1.315 1.836-2.524l-2.88-18.488-.13-.832-.03-.193c-.214-1.373-1.191-4.648-6.146-4.777h-10.835c-4.954.129-5.932 3.404-6.146 4.777l-.03.193-.13.832-2.88 18.488c-.188 1.209.632 2.337 1.836 2.524 1.208.188 2.34-.636 2.529-1.845l2.491-15.994.845.106v11.112c0 .213.018-.198.05 0h-.017l-3.322 21.229 3.339.044v11.456c0 1.779 1.379 3.228 3.078 3.228 1.698 0 3.075-1.448 3.075-3.228v-11.405l1.525.013v11.393c0 1.779 1.371 3.228 3.078 3.228 1.697 0 3.073-1.448 3.073-3.228v-11.343l4.009.05-4.009-21.437v-11.112"/><path d="M157.796 157.855c2.931 0 5.31-2.37 5.31-5.313 0-2.927-2.379-5.309-5.31-5.309-2.935 0-5.316 2.382-5.316 5.309 0 2.943 2.382 5.313 5.316 5.313z"/></g><g fill="#48C7F4"><path d="M183.774 225.016l.845-.106 2.491 15.994c.188 1.209 1.321 2.033 2.529 1.845 1.204-.188 2.025-1.315 1.836-2.524l-2.88-18.488-.13-.832-.03-.193c-.214-1.373-1.191-4.648-6.146-4.777h-10.835c-4.954.129-5.932 3.404-6.146 4.777l-.03.193-.13.832-2.88 18.488c-.188 1.209.632 2.337 1.836 2.524 1.208.188 2.34-.636 2.529-1.845l2.491-15.994.845.106v11.112c0 .213.018-.198.05 0h-.017l-3.322 21.229 3.339.044v11.456c0 1.779 1.379 3.228 3.078 3.228 1.698 0 3.075-1.448 3.075-3.228v-11.405l1.525.013v11.393c0 1.779 1.371 3.228 3.078 3.228 1.697 0 3.073-1.448 3.073-3.228v-11.342l4.009.05-4.009-21.437v-11.112"/><path d="M176.97 214.97c2.931 0 5.31-2.37 5.31-5.313 0-2.927-2.379-5.309-5.31-5.309-2.935 0-5.316 2.382-5.316 5.309-.001 2.943 2.381 5.313 5.316 5.313z"/></g><g fill="#666"><path d="M104.786 225.016l.845-.106 2.491 15.994c.188 1.209 1.321 2.033 2.529 1.845 1.204-.188 2.025-1.315 1.836-2.524l-2.88-18.488-.13-.832-.03-.193c-.214-1.373-1.191-4.648-6.146-4.777h-10.833c-4.954.129-5.932 3.404-6.146 4.777l-.03.193-.13.832-2.88 18.488c-.188 1.209.632 2.337 1.836 2.524 1.208.188 2.34-.636 2.529-1.845l2.491-15.994.845.106v11.112c0 .213.018-.198.05 0h-.017l-3.322 21.229 3.339.044v11.456c0 1.779 1.379 3.228 3.078 3.228 1.698 0 3.075-1.448 3.075-3.228v-11.405l1.525.013v11.393c0 1.779 1.371 3.228 3.078 3.228 1.697 0 3.073-1.448 3.073-3.228v-11.342l4.009.05-4.009-21.437v-11.112"/><path d="M97.981 214.97c2.931 0 5.31-2.37 5.31-5.313 0-2.927-2.379-5.309-5.31-5.309-2.935 0-5.316 2.382-5.316 5.309 0 2.943 2.382 5.313 5.316 5.313z"/></g><g fill="#48C7F4"><path d="M201.652 285.559l.845-.106 2.491 15.994c.188 1.209 1.321 2.033 2.529 1.845 1.204-.188 2.025-1.315 1.836-2.524l-2.88-18.488-.13-.832-.03-.193c-.214-1.373-1.191-4.648-6.146-4.777h-10.835c-4.954.129-5.932 3.404-6.146 4.777l-.03.193-.13.832-2.88 18.488c-.188 1.209.632 2.337 1.836 2.524 1.208.188 2.34-.636 2.529-1.845l2.491-15.994.845.106v11.112c0 .213.018-.198.05 0h-.017l-3.322 21.229 3.339.043v11.457c0 1.779 1.379 3.227 3.078 3.227 1.698 0 3.075-1.447 3.075-3.227v-11.406l1.525.014v11.392c0 1.779 1.371 3.227 3.078 3.227 1.697 0 3.073-1.447 3.073-3.227v-11.342l4.009.049-4.009-21.436v-11.112"/><path d="M194.848 275.513c2.931 0 5.31-2.37 5.31-5.313 0-2.927-2.379-5.309-5.31-5.309-2.935 0-5.316 2.382-5.316 5.309-.001 2.943 2.381 5.313 5.316 5.313z"/></g><g fill="#48C7F4"><path d="M144.259 215.997l-13.395-.063c-4.955.13-6.78 4.13-6.78 5.518v19.748c0 1.226.977 2.211 2.199 2.211 1.22 0 2.214-.985 2.214-2.211v-16.186h1.883v15.514c0 .213.016.425.053.617v27.711c0 1.784 1.376 3.229 3.075 3.229 1.698 0 3.078-1.445 3.078-3.229v-24.454h1.521v24.454c0 1.784 1.377 3.229 3.081 3.229 1.697 0 3.071-1.445 3.071-3.229v-43.842h1.668v16.186c0 1.226 1.065 2.211 2.376 2.211 1.309 0 2.371-.985 2.371-2.211v-20.002000000000002c0-1.692-2.214-5.201-6.415-5.201zM137.375 214.967c2.936 0 5.315-2.371 5.315-5.306s-2.38-5.313-5.315-5.313c-2.933 0-5.309 2.379-5.309 5.313s2.376 5.306 5.309 5.306z"/></g><g fill="#48C7F4"><path d="M216.365 214.967c2.936 0 5.315-2.371 5.315-5.306s-2.38-5.313-5.315-5.313c-2.933 0-5.309 2.379-5.309 5.313s2.376 5.306 5.309 5.306zM223.249 215.997l-13.395-.063c-4.956.13-6.781 4.13-6.781 5.518v19.748c0 1.226.978 2.211 2.2 2.211 1.22 0 2.213-.985 2.213-2.211v-16.186h1.884v15.514c0 .213.015.425.052.617v27.711c0 1.784 1.377 3.229 3.075 3.229 1.699 0 3.078-1.445 3.078-3.229v-24.454h1.521v24.454c0 1.784 1.377 3.229 3.081 3.229 1.697 0 3.071-1.445 3.071-3.229v-43.842h1.668v16.186c0 1.226 1.065 2.211 2.376 2.211 1.308 0 2.37-.985 2.37-2.211v-20.002000000000002c.001-1.692-2.212-5.201-6.413-5.201z"/></g><g fill="#666"><path d="M125.9 158.882l-13.394-.063c-4.956.129-6.781 4.13-6.781 5.518v19.748c0 1.226.978 2.211 2.199 2.211 1.22 0 2.214-.985 2.214-2.211v-16.186h1.883v15.514c0 .212.016.424.053.617v27.71c0 1.784 1.377 3.229 3.075 3.229 1.699 0 3.078-1.445 3.078-3.229v-24.453h1.521v24.453c0 1.784 1.376 3.229 3.08 3.229 1.697 0 3.071-1.445 3.071-3.229v-43.841h1.669v16.186c0 1.226 1.065 2.211 2.376 2.211 1.308 0 2.37-.985 2.37-2.211v-20.002000000000002c.001-1.691-2.213-5.201-6.414-5.201zM119.016 157.852c2.935 0 5.314-2.37 5.314-5.305 0-2.936-2.38-5.314-5.314-5.314s-5.31 2.379-5.31 5.314c.001 2.935 2.377 5.305 5.31 5.305z"/></g><g fill="#666"><path d="M196.377 157.852c2.936 0 5.315-2.37 5.315-5.305 0-2.936-2.38-5.314-5.315-5.314-2.933 0-5.31 2.379-5.31 5.314.001 2.935 2.378 5.305 5.31 5.305zM203.261 158.882l-13.395-.063c-4.956.129-6.781 4.13-6.781 5.518v19.748c0 1.226.978 2.211 2.2 2.211 1.22 0 2.213-.985 2.213-2.211v-16.186h1.884v15.514c0 .212.015.424.052.617v27.71c0 1.784 1.377 3.229 3.075 3.229 1.699 0 3.078-1.445 3.078-3.229v-24.453h1.521v24.453c0 1.784 1.377 3.229 3.081 3.229 1.697 0 3.071-1.445 3.071-3.229v-43.841h1.668v16.186c0 1.226 1.065 2.211 2.376 2.211 1.308 0 2.37-.985 2.37-2.211v-20.002000000000002c.001-1.691-2.212-5.201-6.413-5.201z"/></g><g fill="#666"><path d="M174.82 100.735c2.935 0 5.315-2.37 5.315-5.306 0-2.935-2.381-5.313-5.315-5.313-2.934 0-5.31 2.379-5.31 5.313 0 2.936 2.376 5.306 5.31 5.306zM181.703 101.765l-13.395-.063c-4.955.129-6.78 4.13-6.78 5.517v19.749c0 1.225.978 2.211 2.199 2.211 1.22 0 2.214-.986 2.214-2.211v-16.186h1.883v15.514c0 .212.016.424.053.617v27.71c0 1.784 1.376 3.229 3.075 3.229 1.698 0 3.078-1.445 3.078-3.229v-24.453h1.521v24.453c0 1.784 1.376 3.229 3.08 3.229 1.697 0 3.071-1.445 3.071-3.229v-43.841h1.669v16.186c0 1.225 1.065 2.211 2.376 2.211 1.308 0 2.37-.986 2.37-2.211v-20.002c.001-1.691-2.213-5.201-6.414-5.201z"/></g><g fill="#5E7E53"><path d="M313.374 276.541l-13.394-.063c-4.956.129-6.781 4.13-6.781 5.517v19.749000000000002c0 1.226.978 2.211 2.199 2.211 1.22 0 2.214-.985 2.214-2.211v-16.186h1.883v15.514c0 .212.016.424.053.617v27.71c0 1.784 1.377 3.229 3.075 3.229s3.078-1.445 3.078-3.229v-24.453h1.521v24.453c0 1.784 1.376 3.229 3.08 3.229 1.697 0 3.071-1.445 3.071-3.229v-43.841h1.669v16.186c0 1.226 1.065 2.211 2.376 2.211 1.308 0 2.37-.985 2.37-2.211v-20.003c.001-1.691-2.213-5.2-6.414-5.2zM306.49 275.51c2.935 0 5.314-2.37 5.314-5.306 0-2.935-2.38-5.313-5.314-5.313s-5.31 2.379-5.31 5.313c0 2.936 2.376 5.306 5.31 5.306z"/></g><g fill="#5E7E53"><path d="M351.999 276.541l-13.397-.063c-4.954.129-6.786 4.13-6.786 5.52v19.749c0 1.224.984 2.212 2.202 2.212 1.223 0 2.215-.988 2.215-2.212v-16.187h1.887v15.514c0 .213.018.419.049.617v.45h-.017l-5.321 15.76 5.338.044v11.455c0 1.779 1.38 3.228 3.078 3.228 1.699 0 3.075-1.448 3.075-3.228v-11.405l1.525.013v11.392c0 1.779 1.371 3.228 3.078 3.228 1.697 0 3.074-1.448 3.074-3.228v-11.342l6.009.05-6.009-15.429v-17.12h1.667v16.187c0 1.224 1.065 2.212 2.373 2.212s2.369-.988 2.369-2.212v-20.005999999999997c0-1.688-2.212-5.199-6.409-5.199zM345.116 275.513c2.931 0 5.31-2.37 5.31-5.313 0-2.927-2.379-5.309-5.31-5.309-2.936 0-5.316 2.382-5.316 5.309 0 2.943 2.381 5.313 5.316 5.313z"/></g><g fill="#5E7E53"><path d="M390.611 276.541l-13.395-.063c-4.956.129-6.781 4.13-6.781 5.517v19.749000000000002c0 1.226.978 2.211 2.2 2.211 1.22 0 2.213-.985 2.213-2.211v-16.186h1.884v15.514c0 .212.015.424.052.617v27.71c0 1.784 1.377 3.229 3.075 3.229 1.699 0 3.078-1.445 3.078-3.229v-24.453h1.521v24.453c0 1.784 1.377 3.229 3.081 3.229 1.697 0 3.071-1.445 3.071-3.229v-43.841h1.668v16.186c0 1.226 1.065 2.211 2.376 2.211 1.308 0 2.371-.985 2.371-2.211v-20.003c.001-1.691-2.213-5.2-6.414-5.2zM383.726 275.51c2.935 0 5.315-2.37 5.315-5.306 0-2.935-2.381-5.313-5.315-5.313-2.934 0-5.31 2.379-5.31 5.313.001 2.936 2.376 5.306 5.31 5.306z"/></g><g fill="#5E7E53"><path d="M467.847 276.541l-13.395-.063c-4.955.129-6.78 4.13-6.78 5.517v19.749000000000002c0 1.226.978 2.211 2.199 2.211 1.22 0 2.214-.985 2.214-2.211v-16.186h1.883v15.514c0 .212.016.424.053.617v27.71c0 1.784 1.376 3.229 3.075 3.229 1.698 0 3.078-1.445 3.078-3.229v-24.453h1.521v24.453c0 1.784 1.376 3.229 3.08 3.229 1.697 0 3.071-1.445 3.071-3.229v-43.841h1.669v16.186c0 1.226 1.065 2.211 2.376 2.211 1.308 0 2.37-.985 2.37-2.211v-20.003c.001-1.691-2.213-5.2-6.414-5.2zM460.963 275.51c2.935 0 5.314-2.37 5.314-5.306 0-2.935-2.38-5.313-5.314-5.313s-5.31 2.379-5.31 5.313c.001 2.936 2.377 5.306 5.31 5.306z"/></g><g fill="#666"><path d="M390.538 55.559l.845-.106 2.491 15.994c.188 1.209 1.321 2.033 2.529 1.845 1.204-.188 2.025-1.315 1.836-2.524l-2.88-18.488-.13-.832-.03-.193c-.214-1.373-1.191-4.648-6.146-4.777h-10.835c-4.954.129-5.932 3.404-6.146 4.777l-.03.193-.13.832-2.88 18.488c-.188 1.209.632 2.337 1.836 2.524 1.208.188 2.34-.636 2.529-1.845l2.491-15.994.845.106v11.112c0 .213.018-.198.05 0h-.017l-3.319 21.229 3.339.044v11.456c0 1.779 1.379 3.228 3.078 3.228 1.698 0 3.075-1.448 3.075-3.228v-11.405l1.525.013v11.392c0 1.779 1.371 3.228 3.078 3.228 1.697 0 3.073-1.448 3.073-3.228v-11.342l4.009.05-4.009-21.437v-11.112"/><path d="M383.733 45.513c2.931 0 5.31-2.37 5.31-5.313 0-2.927-2.379-5.309-5.31-5.309-2.935 0-5.316 2.382-5.316 5.309 0 2.943 2.381 5.313 5.316 5.313z"/></g><g fill="#666"><path d="M371.048 110.784l.845-.106 2.491 15.994c.188 1.209 1.321 2.033 2.529 1.845 1.204-.188 2.025-1.315 1.836-2.524l-2.88-18.488-.13-.832-.03-.193c-.214-1.373-1.191-4.648-6.146-4.777h-10.833c-4.954.129-5.932 3.404-6.146 4.777l-.03.193-.13.832-2.88 18.488c-.188 1.209.632 2.337 1.836 2.524 1.208.188 2.34-.636 2.529-1.845l2.491-15.994.845.106v11.112c0 .213.018-.198.05 0h-.017l-3.322 21.229 3.339.044v11.456c0 1.779 1.379 3.228 3.078 3.228 1.698 0 3.075-1.448 3.075-3.228v-11.405l1.525.013v11.393c0 1.779 1.371 3.228 3.078 3.228 1.697 0 3.073-1.448 3.073-3.228v-11.342l4.009.05-4.009-21.437v-11.112"/><path d="M364.244 100.738c2.931 0 5.31-2.37 5.31-5.313 0-2.927-2.379-5.309-5.31-5.309-2.935 0-5.316 2.382-5.316 5.309-.001 2.943 2.381 5.313 5.316 5.313z"/></g><g fill="#666"><path d="M392.199 167.901l.845-.106 2.491 15.994c.188 1.209 1.321 2.033 2.529 1.845 1.204-.188 2.025-1.315 1.836-2.524l-2.88-18.488-.13-.832-.03-.193c-.214-1.373-1.191-4.648-6.146-4.777h-10.834c-4.954.129-5.932 3.404-6.146 4.777l-.03.193-.13.832-2.88 18.488c-.188 1.209.632 2.337 1.836 2.524 1.208.188 2.34-.636 2.529-1.845l2.491-15.994.845.106v11.112c0 .213.018-.198.05 0h-.017l-3.322 21.229 3.339.044v11.456c0 1.779 1.379 3.228 3.078 3.228 1.698 0 3.075-1.448 3.075-3.228v-11.405l1.525.013v11.393c0 1.779 1.371 3.228 3.078 3.228 1.697 0 3.073-1.448 3.073-3.228v-11.343l4.009.05-4.009-21.437v-11.112"/><path d="M385.394 157.855c2.931 0 5.31-2.37 5.31-5.313 0-2.927-2.379-5.309-5.31-5.309-2.935 0-5.316 2.382-5.316 5.309 0 2.943 2.381 5.313 5.316 5.313z"/></g><g fill="#666"><path d="M411.372 225.016l.845-.106 2.491 15.994c.188 1.209 1.321 2.033 2.529 1.845 1.204-.188 2.025-1.315 1.836-2.524l-2.88-18.488-.13-.832-.03-.193c-.214-1.373-1.191-4.648-6.146-4.777h-10.835c-4.954.129-5.932 3.404-6.146 4.777l-.03.193-.13.832-2.88 18.488c-.188 1.209.632 2.337 1.836 2.524 1.208.188 2.34-.636 2.529-1.845l2.491-15.994.845.106v11.112c0 .213.018-.198.05 0h-.017l-3.322 21.229 3.339.044v11.456c0 1.779 1.379 3.228 3.078 3.228 1.698 0 3.075-1.448 3.075-3.228v-11.405l1.525.013v11.393c0 1.779 1.371 3.228 3.078 3.228 1.697 0 3.073-1.448 3.073-3.228v-11.342l4.009.05-4.009-21.437v-11.112"/><path d="M404.567 214.97c2.931 0 5.31-2.37 5.31-5.313 0-2.927-2.379-5.309-5.31-5.309-2.935 0-5.316 2.382-5.316 5.309 0 2.943 2.382 5.313 5.316 5.313z"/></g><g fill="#666"><path d="M332.384 225.016l.845-.106 2.491 15.994c.188 1.209 1.321 2.033 2.529 1.845 1.204-.188 2.025-1.315 1.836-2.524l-2.88-18.488-.13-.832-.03-.193c-.214-1.373-1.191-4.648-6.146-4.777h-10.835c-4.954.129-5.932 3.404-6.146 4.777l-.03.193-.13.832-2.88 18.488c-.188 1.209.632 2.337 1.836 2.524 1.208.188 2.34-.636 2.529-1.845l2.491-15.994.845.106v11.112c0 .213.018-.198.05 0h-.017l-3.322 21.229 3.339.044v11.456c0 1.779 1.379 3.228 3.078 3.228 1.698 0 3.075-1.448 3.075-3.228v-11.405l1.525.013v11.393c0 1.779 1.371 3.228 3.078 3.228 1.697 0 3.073-1.448 3.073-3.228v-11.342l4.009.05-4.009-21.437v-11.112"/><path d="M325.579 214.97c2.931 0 5.31-2.37 5.31-5.313 0-2.927-2.379-5.309-5.31-5.309-2.935 0-5.316 2.382-5.316 5.309 0 2.943 2.382 5.313 5.316 5.313z"/></g><g fill="#5E7E53"><path d="M429.25 285.559l.845-.106 2.491 15.994c.188 1.209 1.321 2.033 2.529 1.845 1.204-.188 2.025-1.315 1.836-2.524l-2.88-18.488-.13-.832-.03-.193c-.214-1.373-1.191-4.648-6.146-4.777h-10.835c-4.954.129-5.932 3.404-6.146 4.777l-.03.193-.13.832-2.88 18.488c-.188 1.209.632 2.337 1.836 2.524 1.208.188 2.34-.636 2.529-1.845l2.491-15.994.845.106v11.112c0 .213.018-.198.05 0h-.017l-3.322 21.229 3.339.043v11.457c0 1.779 1.379 3.227 3.078 3.227 1.698 0 3.075-1.447 3.075-3.227v-11.406l1.525.014v11.392c0 1.779 1.371 3.227 3.078 3.227 1.697 0 3.073-1.447 3.073-3.227v-11.342l4.009.049-4.009-21.436v-11.112"/><path d="M422.445 275.513c2.931 0 5.31-2.37 5.31-5.313 0-2.927-2.379-5.309-5.31-5.309-2.935 0-5.316 2.382-5.316 5.309 0 2.943 2.382 5.313 5.316 5.313z"/></g><g fill="#666"><path d="M371.857 215.997l-13.395-.063c-4.955.13-6.78 4.13-6.78 5.518v19.748c0 1.226.977 2.211 2.199 2.211 1.22 0 2.214-.985 2.214-2.211v-16.186h1.883v15.514c0 .213.016.425.053.617v27.711c0 1.784 1.376 3.229 3.075 3.229 1.698 0 3.078-1.445 3.078-3.229v-24.454h1.521v24.454c0 1.784 1.377 3.229 3.081 3.229 1.697 0 3.071-1.445 3.071-3.229v-43.842h1.668v16.186c0 1.226 1.065 2.211 2.376 2.211 1.309 0 2.371-.985 2.371-2.211v-20.002000000000002c0-1.692-2.214-5.201-6.415-5.201zM364.972 214.967c2.936 0 5.315-2.371 5.315-5.306s-2.38-5.313-5.315-5.313c-2.933 0-5.309 2.379-5.309 5.313s2.377 5.306 5.309 5.306z"/></g><g fill="#5E7E53"><path d="M443.962 214.967c2.936 0 5.315-2.371 5.315-5.306s-2.38-5.313-5.315-5.313c-2.933 0-5.309 2.379-5.309 5.313s2.377 5.306 5.309 5.306zM450.846 215.997l-13.395-.063c-4.956.13-6.781 4.13-6.781 5.518v19.748c0 1.226.978 2.211 2.2 2.211 1.22 0 2.213-.985 2.213-2.211v-16.186h1.884v15.514c0 .213.015.425.052.617v27.711c0 1.784 1.377 3.229 3.075 3.229 1.699 0 3.078-1.445 3.078-3.229v-24.454h1.521v24.454c0 1.784 1.377 3.229 3.081 3.229 1.697 0 3.071-1.445 3.071-3.229v-43.842h1.668v16.186c0 1.226 1.065 2.211 2.376 2.211 1.308 0 2.37-.985 2.37-2.211v-20.002000000000002c.001-1.692-2.212-5.201-6.413-5.201z"/></g><g fill="#666"><path d="M353.498 158.882l-13.394-.063c-4.956.129-6.781 4.13-6.781 5.518v19.748c0 1.226.978 2.211 2.199 2.211 1.22 0 2.214-.985 2.214-2.211v-16.186h1.883v15.514c0 .212.016.424.053.617v27.71c0 1.784 1.377 3.229 3.075 3.229 1.699 0 3.078-1.445 3.078-3.229v-24.453h1.521v24.453c0 1.784 1.376 3.229 3.08 3.229 1.697 0 3.071-1.445 3.071-3.229v-43.841h1.669v16.186c0 1.226 1.065 2.211 2.376 2.211 1.308 0 2.37-.985 2.37-2.211v-20.002000000000002c.001-1.691-2.213-5.201-6.414-5.201zM346.614 157.852c2.935 0 5.314-2.37 5.314-5.305 0-2.936-2.38-5.314-5.314-5.314s-5.31 2.379-5.31 5.314 2.376 5.305 5.31 5.305z"/></g><g fill="#666"><path d="M423.975 157.852c2.936 0 5.315-2.37 5.315-5.305 0-2.936-2.38-5.314-5.315-5.314-2.933 0-5.31 2.379-5.31 5.314.001 2.935 2.377 5.305 5.31 5.305zM430.859 158.882l-13.395-.063c-4.956.129-6.781 4.13-6.781 5.518v19.748c0 1.226.978 2.211 2.2 2.211 1.22 0 2.213-.985 2.213-2.211v-16.186h1.884v15.514c0 .212.015.424.052.617v27.71c0 1.784 1.377 3.229 3.075 3.229 1.699 0 3.078-1.445 3.078-3.229v-24.453h1.521v24.453c0 1.784 1.377 3.229 3.081 3.229 1.697 0 3.071-1.445 3.071-3.229v-43.841h1.668v16.186c0 1.226 1.065 2.211 2.376 2.211 1.308 0 2.37-.985 2.37-2.211v-20.002000000000002c.001-1.691-2.212-5.201-6.413-5.201z"/></g><g fill="#666"><path d="M402.417 100.735c2.935 0 5.315-2.37 5.315-5.306 0-2.935-2.381-5.313-5.315-5.313-2.934 0-5.31 2.379-5.31 5.313.001 2.936 2.377 5.306 5.31 5.306zM409.3 101.765l-13.395-.063c-4.955.129-6.78 4.13-6.78 5.517v19.749c0 1.225.978 2.211 2.199 2.211 1.22 0 2.214-.986 2.214-2.211v-16.186h1.883v15.514c0 .212.016.424.053.617v27.71c0 1.784 1.376 3.229 3.075 3.229 1.698 0 3.078-1.445 3.078-3.229v-24.453h1.521v24.453c0 1.784 1.376 3.229 3.08 3.229 1.697 0 3.071-1.445 3.071-3.229v-43.841h1.669v16.186c0 1.225 1.065 2.211 2.376 2.211 1.308 0 2.37-.986 2.37-2.211v-20.002c.001-1.691-2.213-5.201-6.414-5.201z"/></g><g fill="#B75055"><path d="M541.406 276.541l-13.393-.063c-4.957.129-6.781 4.13-6.781 5.517v19.749000000000002c0 1.226.977 2.211 2.199 2.211 1.219 0 2.213-.985 2.213-2.211v-16.186h1.883v15.514c0 .212.016.424.053.617v27.71c0 1.784 1.377 3.229 3.076 3.229 1.697 0 3.078-1.445 3.078-3.229v-24.453h1.521v24.453c0 1.784 1.375 3.229 3.08 3.229 1.697 0 3.07-1.445 3.07-3.229v-43.841h1.67v16.186c0 1.226 1.064 2.211 2.375 2.211 1.309 0 2.371-.985 2.371-2.211v-20.003c.001-1.691-2.214-5.2-6.415-5.2zM534.523 275.51c2.934 0 5.314-2.37 5.314-5.306 0-2.935-2.381-5.313-5.314-5.313s-5.311 2.379-5.311 5.313c.001 2.936 2.378 5.306 5.311 5.306z"/></g><g fill="#B75055"><path d="M580.032 276.541l-13.397-.063c-4.954.129-6.786 4.13-6.786 5.52v19.749c0 1.224.984 2.212 2.202 2.212 1.223 0 2.215-.988 2.215-2.212v-16.187h1.887v15.514c0 .213.018.419.049.617v.45h-.017l-5.321 15.76 5.338.044v11.455c0 1.779 1.38 3.228 3.078 3.228 1.699 0 3.075-1.448 3.075-3.228v-11.405l1.525.013v11.392c0 1.779 1.371 3.228 3.078 3.228 1.697 0 3.074-1.448 3.074-3.228v-11.342l6.009.05-6.009-15.429v-17.12h1.667v16.187c0 1.224 1.065 2.212 2.373 2.212s2.369-.988 2.369-2.212v-20.005999999999997c0-1.688-2.212-5.199-6.409-5.199zM573.149 275.513c2.931 0 5.31-2.37 5.31-5.313 0-2.927-2.379-5.309-5.31-5.309-2.936 0-5.316 2.382-5.316 5.309 0 2.943 2.381 5.313 5.316 5.313z"/></g><g fill="#B75055"><path d="M618.645 276.541l-13.395-.063c-4.957.129-6.781 4.13-6.781 5.517v19.749000000000002c0 1.226.977 2.211 2.199 2.211 1.221 0 2.213-.985 2.213-2.211v-16.186h1.885v15.514c0 .212.014.424.051.617v27.71c0 1.784 1.377 3.229 3.076 3.229s3.078-1.445 3.078-3.229v-24.453h1.521v24.453c0 1.784 1.377 3.229 3.08 3.229 1.697 0 3.072-1.445 3.072-3.229v-43.841h1.668v16.186c0 1.226 1.064 2.211 2.375 2.211 1.309 0 2.371-.985 2.371-2.211v-20.003c.001-1.691-2.212-5.2-6.413-5.2zM611.76 275.51c2.934 0 5.314-2.37 5.314-5.306 0-2.935-2.381-5.313-5.314-5.313s-5.311 2.379-5.311 5.313c0 2.936 2.377 5.306 5.311 5.306z"/></g><g fill="#B75055"><path d="M695.881 276.541l-13.395-.063c-4.955.129-6.781 4.13-6.781 5.517v19.749000000000002c0 1.226.979 2.211 2.199 2.211s2.215-.985 2.215-2.211v-16.186h1.883v15.514c0 .212.016.424.053.617v27.71c0 1.784 1.375 3.229 3.074 3.229s3.078-1.445 3.078-3.229v-24.453h1.521v24.453c0 1.784 1.377 3.229 3.08 3.229 1.697 0 3.072-1.445 3.072-3.229v-43.841h1.668v16.186c0 1.226 1.066 2.211 2.377 2.211 1.307 0 2.369-.985 2.369-2.211v-20.003c.001-1.691-2.212-5.2-6.413-5.2zM688.996 275.51c2.936 0 5.314-2.37 5.314-5.306 0-2.935-2.379-5.313-5.314-5.313-2.934 0-5.309 2.379-5.309 5.313.001 2.936 2.375 5.306 5.309 5.306z"/></g><g fill="#666"><path d="M618.57 55.559l.846-.106 2.491 15.994c.188 1.209 1.321 2.033 2.528 1.845 1.205-.188 2.025-1.315 1.837-2.524l-2.88-18.488-.13-.832-.03-.193c-.213-1.373-1.191-4.648-6.145-4.777h-10.836c-4.953.129-5.932 3.404-6.145 4.777l-.03.193-.13.832-2.88 18.488c-.188 1.209.632 2.337 1.837 2.524 1.207.188 2.34-.636 2.528-1.845l2.491-15.994.846.106v11.112c0 .213.018-.198.049 0h-.016l-3.321 21.229 3.338.044v11.456c0 1.779 1.379 3.228 3.078 3.228s3.076-1.448 3.076-3.228v-11.405l1.525.013v11.392c0 1.779 1.371 3.228 3.078 3.228 1.697 0 3.072-1.448 3.072-3.228v-11.342l4.01.05-4.01-21.437v-11.112"/><path d="M611.766 45.513c2.932 0 5.311-2.37 5.311-5.313 0-2.927-2.379-5.309-5.311-5.309-2.934 0-5.316 2.382-5.316 5.309-.001 2.943 2.382 5.313 5.316 5.313z"/></g><g fill="#666"><path d="M599.082 110.784l.845-.106 2.491 15.994c.188 1.209 1.32 2.033 2.529 1.845 1.203-.188 2.024-1.315 1.836-2.524l-2.88-18.488-.13-.832-.029-.193c-.215-1.373-1.191-4.648-6.146-4.777h-10.834c-4.955.129-5.932 3.404-6.146 4.777l-.029.193-.13.832-2.88 18.488c-.188 1.209.633 2.337 1.836 2.524 1.209.188 2.341-.636 2.529-1.845l2.491-15.994.845.106v11.112c0 .213.018-.198.051 0h-.018l-3.322 21.229 3.34.044v11.456c0 1.779 1.379 3.228 3.078 3.228 1.697 0 3.074-1.448 3.074-3.228v-11.405l1.525.013v11.393c0 1.779 1.371 3.228 3.078 3.228 1.697 0 3.074-1.448 3.074-3.228v-11.342l4.008.05-4.008-21.437v-11.112"/><path d="M592.277 100.738c2.93 0 5.309-2.37 5.309-5.313 0-2.927-2.379-5.309-5.309-5.309-2.936 0-5.316 2.382-5.316 5.309 0 2.943 2.381 5.313 5.316 5.313z"/></g><g fill="#666"><path d="M620.232 167.901l.845-.106 2.491 15.994c.188 1.209 1.32 2.033 2.529 1.845 1.203-.188 2.024-1.315 1.836-2.524l-2.88-18.488-.13-.832-.029-.193c-.215-1.373-1.191-4.648-6.146-4.777h-10.834c-4.955.129-5.932 3.404-6.146 4.777l-.029.193-.13.832-2.88 18.488c-.188 1.209.633 2.337 1.836 2.524 1.209.188 2.341-.636 2.529-1.845l2.491-15.994.845.106v11.112c0 .213.018-.198.051 0h-.018l-3.322 21.229 3.34.044v11.456c0 1.779 1.379 3.228 3.078 3.228 1.697 0 3.074-1.448 3.074-3.228v-11.405l1.525.013v11.393c0 1.779 1.371 3.228 3.078 3.228 1.697 0 3.074-1.448 3.074-3.228v-11.343l4.008.05-4.008-21.437v-11.112"/><path d="M613.428 157.855c2.93 0 5.309-2.37 5.309-5.313 0-2.927-2.379-5.309-5.309-5.309-2.936 0-5.316 2.382-5.316 5.309-.001 2.943 2.38 5.313 5.316 5.313z"/></g><g fill="#666"><path d="M639.405 225.016l.845-.106 2.492 15.994c.188 1.209 1.32 2.033 2.528 1.845 1.204-.188 2.024-1.315 1.837-2.524l-2.881-18.488-.129-.832-.03-.193c-.214-1.373-1.191-4.648-6.146-4.777h-10.835c-4.954.129-5.932 3.404-6.146 4.777l-.029.193-.131.832-2.879 18.488c-.189 1.209.632 2.337 1.836 2.524 1.208.188 2.34-.636 2.529-1.845l2.49-15.994.846.106v11.112c0 .213.018-.198.05 0h-.017l-3.322 21.229 3.339.044v11.456c0 1.779 1.379 3.228 3.078 3.228 1.698 0 3.075-1.448 3.075-3.228v-11.405l1.525.013v11.393c0 1.779 1.371 3.228 3.078 3.228 1.697 0 3.073-1.448 3.073-3.228v-11.342l4.009.05-4.009-21.437v-11.112"/><path d="M632.601 214.97c2.931 0 5.31-2.37 5.31-5.313 0-2.927-2.379-5.309-5.31-5.309-2.935 0-5.316 2.382-5.316 5.309-.001 2.943 2.381 5.313 5.316 5.313z"/></g><g fill="#666"><path d="M560.417 225.016l.845-.106 2.492 15.994c.188 1.209 1.32 2.033 2.528 1.845 1.204-.188 2.024-1.315 1.837-2.524l-2.881-18.488-.129-.832-.03-.193c-.214-1.373-1.191-4.648-6.146-4.777h-10.835c-4.954.129-5.932 3.404-6.146 4.777l-.029.193-.131.832-2.879 18.488c-.189 1.209.632 2.337 1.836 2.524 1.208.188 2.34-.636 2.529-1.845l2.49-15.994.846.106v11.112c0 .213.018-.198.05 0h-.017l-3.322 21.229 3.339.044v11.456c0 1.779 1.379 3.228 3.078 3.228 1.698 0 3.075-1.448 3.075-3.228v-11.405l1.525.013v11.393c0 1.779 1.371 3.228 3.078 3.228 1.697 0 3.073-1.448 3.073-3.228v-11.342l4.009.05-4.009-21.437v-11.112"/><path d="M553.612 214.97c2.931 0 5.31-2.37 5.31-5.313 0-2.927-2.379-5.309-5.31-5.309-2.935 0-5.316 2.382-5.316 5.309 0 2.943 2.382 5.313 5.316 5.313z"/></g><g fill="#B75055"><path d="M657.283 285.559l.846-.106 2.49 15.994c.189 1.209 1.321 2.033 2.529 1.845 1.204-.188 2.025-1.315 1.836-2.524l-2.879-18.488-.131-.832-.029-.193c-.214-1.373-1.191-4.648-6.146-4.777h-10.835c-4.954.129-5.932 3.404-6.146 4.777l-.03.193-.129.832-2.881 18.488c-.188 1.209.633 2.337 1.837 2.524 1.208.188 2.341-.636 2.528-1.845l2.492-15.994.845.106v11.112c0 .213.018-.198.05 0h-.017l-3.322 21.229 3.339.043v11.457c0 1.779 1.379 3.227 3.078 3.227 1.698 0 3.075-1.447 3.075-3.227v-11.406l1.525.014v11.392c0 1.779 1.371 3.227 3.078 3.227 1.697 0 3.073-1.447 3.073-3.227v-11.342l4.009.049-4.009-21.436v-11.112"/><path d="M650.479 275.513c2.931 0 5.31-2.37 5.31-5.313 0-2.927-2.379-5.309-5.31-5.309-2.935 0-5.316 2.382-5.316 5.309-.001 2.943 2.381 5.313 5.316 5.313z"/></g><g fill="#666"><path d="M599.891 215.997l-13.395-.063c-4.955.13-6.781 4.13-6.781 5.518v19.748c0 1.226.977 2.211 2.199 2.211 1.221 0 2.215-.985 2.215-2.211v-16.186h1.883v15.514c0 .213.016.425.053.617v27.711c0 1.784 1.375 3.229 3.074 3.229s3.078-1.445 3.078-3.229v-24.454h1.521v24.454c0 1.784 1.377 3.229 3.08 3.229 1.697 0 3.072-1.445 3.072-3.229v-43.842h1.668v16.186c0 1.226 1.064 2.211 2.375 2.211 1.309 0 2.371-.985 2.371-2.211v-20.002000000000002c.001-1.692-2.212-5.201-6.413-5.201zM593.006 214.967c2.936 0 5.314-2.371 5.314-5.306s-2.379-5.313-5.314-5.313c-2.934 0-5.309 2.379-5.309 5.313s2.375 5.306 5.309 5.306z"/></g><g fill="#666"><path d="M671.996 214.967c2.936 0 5.314-2.371 5.314-5.306s-2.379-5.313-5.314-5.313c-2.934 0-5.309 2.379-5.309 5.313s2.375 5.306 5.309 5.306zM678.879 215.997l-13.395-.063c-4.955.13-6.781 4.13-6.781 5.518v19.748c0 1.226.979 2.211 2.201 2.211 1.219 0 2.213-.985 2.213-2.211v-16.186h1.883v15.514c0 .213.016.425.053.617v27.711c0 1.784 1.377 3.229 3.074 3.229 1.699 0 3.078-1.445 3.078-3.229v-24.454h1.521v24.454c0 1.784 1.377 3.229 3.082 3.229 1.697 0 3.07-1.445 3.07-3.229v-43.842h1.668v16.186c0 1.226 1.066 2.211 2.377 2.211 1.307 0 2.369-.985 2.369-2.211v-20.002000000000002c.001-1.692-2.212-5.201-6.413-5.201z"/></g><g fill="#666"><path d="M581.531 158.882l-13.395-.063c-4.955.129-6.781 4.13-6.781 5.518v19.748c0 1.226.979 2.211 2.199 2.211s2.215-.985 2.215-2.211v-16.186h1.883v15.514c0 .212.016.424.053.617v27.71c0 1.784 1.377 3.229 3.074 3.229 1.699 0 3.078-1.445 3.078-3.229v-24.453h1.521v24.453c0 1.784 1.377 3.229 3.08 3.229 1.697 0 3.072-1.445 3.072-3.229v-43.841h1.668v16.186c0 1.226 1.066 2.211 2.377 2.211 1.307 0 2.369-.985 2.369-2.211v-20.002000000000002c.001-1.691-2.212-5.201-6.413-5.201zM574.646 157.852c2.936 0 5.314-2.37 5.314-5.305 0-2.936-2.379-5.314-5.314-5.314-2.934 0-5.309 2.379-5.309 5.314.001 2.935 2.376 5.305 5.309 5.305z"/></g><g fill="#666"><path d="M652.008 157.852c2.936 0 5.316-2.37 5.316-5.305 0-2.936-2.381-5.314-5.316-5.314-2.932 0-5.309 2.379-5.309 5.314s2.377 5.305 5.309 5.305zM658.893 158.882l-13.395-.063c-4.957.129-6.781 4.13-6.781 5.518v19.748c0 1.226.977 2.211 2.199 2.211 1.221 0 2.213-.985 2.213-2.211v-16.186h1.885v15.514c0 .212.014.424.051.617v27.71c0 1.784 1.377 3.229 3.076 3.229s3.078-1.445 3.078-3.229v-24.453h1.521v24.453c0 1.784 1.377 3.229 3.08 3.229 1.697 0 3.072-1.445 3.072-3.229v-43.841h1.668v16.186c0 1.226 1.064 2.211 2.375 2.211 1.309 0 2.371-.985 2.371-2.211v-20.002000000000002c.001-1.691-2.212-5.201-6.413-5.201z"/></g><g fill="#666"><path d="M630.451 100.735c2.934 0 5.314-2.37 5.314-5.306 0-2.935-2.381-5.313-5.314-5.313s-5.311 2.379-5.311 5.313c.001 2.936 2.378 5.306 5.311 5.306zM637.334 101.765l-13.395-.063c-4.955.129-6.781 4.13-6.781 5.517v19.749c0 1.225.979 2.211 2.199 2.211s2.215-.986 2.215-2.211v-16.186h1.883v15.514c0 .212.016.424.053.617v27.71c0 1.784 1.375 3.229 3.074 3.229s3.078-1.445 3.078-3.229v-24.453h1.521v24.453c0 1.784 1.377 3.229 3.08 3.229 1.697 0 3.072-1.445 3.072-3.229v-43.841h1.668v16.186c0 1.225 1.066 2.211 2.377 2.211 1.307 0 2.369-.986 2.369-2.211v-20.002c.001-1.691-2.212-5.201-6.413-5.201z"/></g><g fill="#fff"><path d="M577.822 394.455c-.055.091-.112.16-.174.205-.062.046-.142.068-.239.068-.104-.001-.224-.053-.361-.158-.137-.104-.311-.219-.521-.346-.21-.125-.463-.24-.759-.346s-.655-.158-1.077-.16c-.396-.001-.748.051-1.054.156-.307.106-.562.25-.768.433-.205.183-.36.397-.466.645-.104.247-.157.515-.158.802-.001.366.088.671.268.913.179.242.416.449.712.621.296.173.631.321 1.007.449l1.153.393c.394.137.778.289 1.152.459.376.169.711.383 1.007.64.295.259.532.575.711.947.18.374.268.832.266 1.376-.002.574-.102 1.113-.299 1.617-.198.503-.485.94-.862 1.312-.378.37-.84.663-1.388.874-.548.212-1.17.316-1.866.313-.85-.003-1.624-.16-2.322-.472-.698-.311-1.294-.73-1.787-1.258l.517-.842.179-.168c.071-.046.149-.068.234-.068.129 0 .274.07.439.209.164.137.37.289.616.455.248.166.546.318.896.457.352.14.781.209 1.288.211.422.002.798-.054 1.127-.169.331-.115.611-.278.841-.487.23-.21.407-.461.53-.755.123-.292.187-.619.188-.979.001-.397-.088-.724-.267-.978-.18-.254-.415-.468-.709-.64-.292-.172-.627-.318-1.001-.439l-1.154-.37c-.394-.128-.778-.273-1.153-.44-.374-.166-.709-.382-1.001-.646s-.527-.594-.707-.987c-.178-.396-.267-.884-.265-1.464.002-.465.095-.913.275-1.346.183-.434.444-.817.789-1.152.343-.335.767-.602 1.272-.803.505-.199 1.084-.297 1.737-.295.733.003 1.402.122 2.007.355.604.234 1.13.572 1.582 1.015l-.435.843zM586.631 404.278c.354.001.681-.016.977-.047.297-.032.576-.082.839-.148.264-.066.512-.146.743-.24.233-.094.466-.201.698-.323l.012-2.896-2.035-.007c-.116-.001-.209-.034-.279-.103-.07-.067-.104-.149-.104-.248l.004-1.008 4.033.016-.02 5.041c-.331.236-.675.443-1.033.62-.358.175-.74.322-1.147.439-.407.118-.843.204-1.308.261-.465.056-.969.083-1.513.081-.953-.003-1.826-.17-2.619-.5-.794-.33-1.476-.791-2.048-1.383-.573-.592-1.018-1.301-1.336-2.127-.316-.825-.474-1.734-.47-2.724.004-1.003.164-1.915.482-2.739.317-.824.77-1.529 1.355-2.117.585-.587 1.293-1.041 2.122-1.362.829-.32 1.757-.479 2.784-.475.519.002 1.002.042 1.448.12.444.078.858.189 1.239.335.382.145.734.319 1.057.526.323.206.626.438.906.695l-.509.804c-.104.165-.239.247-.404.247-.098-.001-.203-.034-.319-.103l-.513-.313c-.188-.123-.419-.241-.69-.355s-.592-.211-.961-.292-.808-.123-1.315-.125c-.739-.003-1.408.116-2.008.354-.601.239-1.112.583-1.535 1.03-.423.448-.749.99-.979 1.628-.228.639-.344 1.354-.347 2.148-.003.831.112 1.572.345 2.225.232.65.562 1.204.988 1.657.426.454.932.801 1.518 1.042s1.233.363 1.942.366zM594.225 405.598l.05-13.135 4.189.017c.806.003 1.501.084 2.085.246.582.161 1.062.389 1.436.683.375.296.651.655.831 1.08.178.426.266.905.264 1.437-.001.324-.052.635-.153.935-.104.299-.257.576-.463.832-.205.255-.463.483-.771.685-.31.2-.673.364-1.088.49.958.194 1.681.542 2.168 1.044.487.503.729 1.164.726 1.982-.002.557-.106 1.063-.312 1.521-.207.457-.508.85-.903 1.179-.396.328-.879.582-1.45.76-.572.179-1.226.266-1.959.263l-4.65-.019zm1.801-5.978l-.018 4.574 2.842.011c.507.002.942-.055 1.307-.17.363-.114.664-.276.9-.486.235-.21.409-.46.52-.75.112-.29.168-.609.169-.957.003-.679-.234-1.215-.714-1.611-.478-.396-1.202-.596-2.174-.6l-2.832-.011zm.005-1.265l2.347.009c.501.002.935-.052 1.302-.16s.671-.26.914-.455c.242-.194.422-.43.539-.708.116-.278.176-.581.177-.911.003-.77-.228-1.336-.689-1.698-.464-.362-1.184-.546-2.161-.549l-2.411-.01-.018 4.482zM609.366 405.656l.035-9.285.972.004c.232.001.379.114.439.341l.115.953c.344-.42.729-.764 1.154-1.031.427-.268.92-.399 1.482-.397.629.003 1.137.179 1.523.528.388.35.665.821.834 1.414.13-.335.3-.624.512-.868s.449-.444.712-.603c.264-.158.544-.273.841-.346.297-.071.598-.106.903-.105.488.002.924.081 1.305.238.382.157.705.387.97.687.264.301.466.67.604 1.106.14.438.208.938.205 1.5l-.022 5.912-1.631-.006.022-5.912c.003-.728-.154-1.279-.471-1.656s-.776-.566-1.382-.569c-.269-.001-.523.045-.767.139-.241.094-.453.232-.638.415s-.33.413-.438.69c-.107.278-.162.601-.164.967l-.022 5.912-1.632-.007.022-5.912c.003-.745-.145-1.302-.442-1.669-.298-.369-.734-.553-1.309-.556-.403-.001-.777.105-1.124.321-.346.216-.663.51-.952.881l-.026 6.92-1.63-.006zM628.127 396.295c.556.002 1.069.097 1.539.285s.875.458 1.216.811c.341.354.606.788.798 1.306.19.517.284 1.105.281 1.766-.001.256-.029.428-.084.512-.056.086-.16.129-.312.128l-6.179-.023c.011.586.088 1.098.234 1.531.145.436.344.797.6 1.088.256.292.561.511.915.655.353.145.75.218 1.19.22.409.001.762-.044 1.059-.138s.552-.195.768-.305c.214-.108.394-.211.537-.305.144-.095.267-.141.371-.141.134.001.238.053.312.156l.456.598c-.202.244-.445.456-.727.635s-.583.326-.905.441c-.32.115-.652.2-.995.257-.343.058-.682.084-1.018.083-.642-.002-1.232-.113-1.772-.332s-1.007-.538-1.398-.958c-.393-.42-.697-.939-.916-1.558-.217-.618-.323-1.327-.32-2.127.003-.648.104-1.253.304-1.814s.487-1.048.862-1.459c.375-.41.831-.732 1.37-.966.537-.233 1.142-.349 1.814-.346zm.032 1.201c-.789-.003-1.409.223-1.863.677-.454.453-.737 1.083-.851 1.889l5.05.02c.002-.379-.049-.726-.151-1.042-.103-.314-.254-.587-.454-.816-.201-.23-.447-.408-.736-.534-.291-.128-.623-.193-.995-.194zM634.021 405.75l.035-9.285.972.004c.232 0 .379.114.439.34l.115.954c.344-.42.729-.764 1.154-1.031.427-.268.92-.399 1.482-.397.629.002 1.137.178 1.523.528.388.349.665.82.834 1.414.13-.335.3-.625.512-.868.212-.244.449-.444.712-.603.264-.158.544-.273.841-.346s.598-.107.903-.105c.488.001.924.081 1.305.238.382.157.705.386.97.686.264.301.466.67.604 1.107.14.438.208.938.205 1.5l-.022 5.912-1.631-.007.022-5.912c.003-.728-.154-1.278-.471-1.656-.316-.377-.776-.566-1.382-.568-.269-.001-.523.045-.767.139-.241.094-.453.231-.638.415-.185.183-.33.412-.438.69-.107.278-.162.6-.164.966l-.022 5.912-1.632-.006.022-5.912c.003-.745-.145-1.303-.442-1.67-.298-.368-.734-.553-1.309-.555-.403-.001-.777.105-1.124.321-.346.215-.663.509-.952.881l-.026 6.92-1.63-.006zM649.127 405.806l.052-13.502 1.641.007-.021 5.555c.387-.444.829-.802 1.328-1.072.5-.27 1.069-.403 1.711-.4.538.002 1.023.104 1.457.308.433.203.802.505 1.105.906.304.402.537.898.7 1.488.162.591.243 1.271.24 2.04-.003.685-.097 1.321-.283 1.91-.186.589-.451 1.098-.799 1.527-.346.431-.77.768-1.269 1.013-.499.246-1.06.367-1.683.365-.6-.003-1.108-.121-1.525-.354-.418-.234-.782-.56-1.092-.977l-.085.843c-.05.232-.191.348-.424.347l-1.053-.004zm4.174-8.114c-.531-.002-.997.119-1.398.361s-.771.587-1.108 1.032l-.018 4.491c.292.404.615.689.973.856.356.166.756.249 1.195.251.868.004 1.535-.303 2.001-.918.468-.615.703-1.494.708-2.637.002-.605-.05-1.125-.155-1.56-.105-.434-.258-.79-.459-1.069-.2-.279-.446-.483-.74-.612-.293-.129-.626-.193-.999-.195zM663.03 396.427c.556.002 1.069.097 1.539.285s.875.459 1.216.812.606.787.798 1.305c.19.518.284 1.105.281 1.766-.001.256-.029.428-.084.513-.056.086-.16.128-.312.128l-6.179-.023c.011.586.088 1.097.234 1.531.145.435.344.797.6 1.088.256.292.561.51.915.654.353.146.75.218 1.19.22.409.002.762-.044 1.059-.138s.552-.195.768-.305c.214-.108.394-.21.537-.305.144-.094.267-.141.371-.14.134 0 .238.053.312.156l.456.598c-.202.244-.445.455-.727.635-.282.179-.583.326-.905.44-.32.115-.652.201-.995.258s-.682.084-1.018.083c-.642-.003-1.232-.113-1.772-.332s-1.007-.538-1.398-.959c-.393-.419-.697-.938-.916-1.557-.218-.618-.324-1.328-.321-2.128.003-.648.104-1.252.305-1.813.2-.562.487-1.049.862-1.459.375-.411.831-.733 1.37-.967.537-.233 1.142-.348 1.814-.346zm.032 1.2c-.789-.003-1.409.224-1.863.677s-.737 1.083-.851 1.89l5.05.019c.002-.379-.049-.726-.151-1.041s-.254-.587-.454-.817c-.201-.23-.447-.408-.736-.534-.29-.127-.622-.192-.995-.194zM668.925 405.881l.035-9.285.936.004c.177.001.299.034.366.102.067.068.112.185.137.35l.104 1.448c.32-.646.715-1.15 1.184-1.513.468-.361 1.018-.541 1.646-.539.257.001.489.031.697.09.207.06.399.141.576.245l-.215 1.217c-.043.153-.139.229-.285.229-.085 0-.217-.03-.393-.088-.178-.06-.425-.089-.743-.09-.568-.002-1.044.16-1.427.488-.383.329-.704.809-.964 1.437l-.022 5.912-1.632-.007zM681.659 398.175c-.074.134-.188.201-.34.2-.092 0-.195-.034-.312-.102l-.426-.227s-.367-.16-.599-.231c-.232-.071-.508-.107-.825-.108-.275-.001-.522.033-.742.103-.221.069-.409.165-.565.287-.156.121-.275.263-.359.424-.082.162-.124.338-.125.527-.001.238.066.437.204.597.137.159.318.298.543.414.227.117.481.221.77.311l.883.287c.303.102.597.215.884.338.286.124.543.277.769.462.225.184.405.408.542.675s.204.587.202.959c-.001.428-.079.823-.232 1.187-.155.362-.383.676-.683.941-.301.265-.668.472-1.102.624-.436.15-.937.225-1.505.223-.647-.003-1.234-.11-1.759-.323s-.97-.484-1.335-.815l.388-.623c.049-.078.107-.139.174-.182.068-.043.157-.063.268-.063.109.001.225.044.347.129.122.087.27.183.444.286.174.105.384.201.631.287.248.087.557.131.93.132.317.001.597-.038.835-.121.238-.081.438-.192.597-.332.16-.14.277-.301.354-.484.078-.184.117-.378.117-.586.001-.257-.067-.47-.203-.638-.137-.169-.318-.312-.544-.433s-.484-.226-.773-.314l-.888-.284c-.303-.099-.599-.211-.889-.337-.289-.126-.548-.285-.772-.476-.226-.189-.406-.425-.542-.703-.137-.278-.205-.616-.203-1.014.001-.354.075-.694.225-1.021.147-.327.362-.613.645-.86.281-.246.628-.441 1.037-.587.41-.145.878-.216 1.403-.214.611.002 1.16.1 1.645.294.485.195.904.461 1.258.798l-.372.593z"/></g><path fill="#B75055" d="M547.969 389.447c0 7.728-6.26 13.991-13.986 13.991s-13.988-6.264-13.988-13.991c0-7.721 6.262-13.983 13.988-13.983s13.986 6.262 13.986 13.983z"/><g fill="#fff"><path d="M578.78 365.137c.803 0 1.554.119 2.251.357s1.3.585 1.807 1.039c.508.455.907 1.009 1.198 1.662.292.653.438 1.395.438 2.224 0 .707-.106 1.359-.318 1.96s-.498 1.177-.86 1.728c-.362.552-.779 1.086-1.251 1.603-.473.516-.973 1.044-1.503 1.582l-4.991 5.11c.353-.097.71-.174 1.072-.231s.711-.086 1.046-.086h6.355c.256 0 .459.075.608.225.15.15.226.345.226.583v1.43h-12.658v-.808c0-.168.033-.34.1-.517.065-.176.174-.34.324-.489l6.077-6.104c.503-.513.962-1.005 1.377-1.477.414-.473.77-.947 1.065-1.424s.523-.96.682-1.449c.159-.49.238-1.013.238-1.569s-.088-1.043-.265-1.463c-.177-.419-.419-.766-.728-1.039-.31-.273-.671-.479-1.086-.616-.415-.137-.86-.205-1.338-.205-.477 0-.918.071-1.323.212-.406.142-.766.338-1.079.59-.313.251-.578.549-.795.894-.216.344-.368.724-.456 1.139-.071.256-.177.441-.318.556-.141.115-.326.172-.556.172l-.14-.006-.165-.021-1.231-.212c.124-.864.362-1.63.715-2.297.354-.666.801-1.225 1.344-1.675s1.165-.792 1.867-1.026c.703-.235 1.459-.352 2.271-.352zM594.786 372.697c.76 0 1.479.126 2.158.378.68.251 1.275.618 1.788 1.099.512.481.917 1.072 1.218 1.774.3.701.45 1.503.45 2.402 0 .874-.159 1.687-.477 2.437-.318.75-.762 1.403-1.331 1.96-.569.556-1.256.992-2.059 1.311-.804.317-1.686.477-2.648.477-.953 0-1.815-.152-2.588-.457s-1.433-.736-1.979-1.297-.969-1.24-1.265-2.039-.443-1.692-.443-2.682c0-.829.186-1.712.557-2.647.37-.936.957-1.942 1.761-3.019l4.806-6.475c.124-.159.296-.294.517-.404s.472-.165.755-.165h2.092l-6.58 8.328c.45-.31.948-.55 1.496-.722.546-.172 1.137-.259 1.772-.259zm-4.898 5.773c0 .608.088 1.165.265 1.668s.435.936.774 1.297c.34.362.755.643 1.245.841.489.199 1.048.298 1.675.298.636 0 1.209-.101 1.721-.304s.951-.485 1.317-.848.649-.79.848-1.284.298-1.033.298-1.615c0-.618-.098-1.177-.291-1.675-.194-.499-.468-.923-.821-1.271-.353-.349-.776-.615-1.271-.801-.495-.186-1.038-.278-1.629-.278-.636 0-1.209.108-1.721.324-.513.217-.947.508-1.305.874s-.631.79-.82 1.271c-.191.481-.285.982-.285 1.503zM610.898 369.93c0 .741-.114 1.405-.344 1.992s-.536 1.082-.921 1.483c-.384.401-.832.708-1.344.92s-1.046.317-1.602.317c-.601 0-1.154-.105-1.662-.317-.507-.212-.951-.519-1.33-.92-.38-.401-.676-.896-.887-1.483-.212-.587-.318-1.251-.318-1.992 0-.759.106-1.435.318-2.025.211-.592.507-1.091.887-1.497.379-.405.823-.715 1.33-.927.508-.211 1.062-.317 1.662-.317.591 0 1.146.106 1.661.317.517.212.962.521 1.338.927.375.406.67.905.887 1.497.217.591.325 1.266.325 2.025zm6.633-4.104c.115-.15.236-.267.364-.351s.298-.126.51-.126h1.695l-13.862 18.589c-.089.114-.194.207-.317.278-.124.07-.27.105-.438.105h-1.747l13.795-18.495zm-8.472 4.104c0-.583-.062-1.077-.186-1.483-.124-.405-.294-.739-.51-.999-.217-.261-.468-.448-.755-.562-.287-.115-.594-.173-.92-.173-.327 0-.634.058-.92.173-.287.114-.536.302-.748.562-.212.26-.378.594-.497.999-.119.406-.179.9-.179 1.483 0 .573.06 1.062.179 1.463s.285.729.497.979c.212.252.461.433.748.543.286.11.593.166.92.166.326 0 .633-.056.92-.166s.538-.291.755-.543c.216-.251.386-.578.51-.979.123-.401.186-.89.186-1.463zm12.326 9.917c0 .741-.115 1.403-.345 1.985-.229.583-.536 1.075-.92 1.477s-.83.708-1.337.92c-.508.212-1.04.317-1.596.317-.601 0-1.154-.105-1.661-.317-.508-.212-.952-.519-1.331-.92-.38-.401-.675-.894-.887-1.477-.212-.582-.318-1.244-.318-1.985 0-.76.106-1.437.318-2.033.212-.596.507-1.097.887-1.502.379-.406.823-.715 1.331-.927.507-.212 1.061-.318 1.661-.318.591 0 1.143.106 1.655.318.512.212.957.521 1.337.927.379.405.675.906.887 1.502.212.597.319 1.273.319 2.033zm-1.827 0c0-.583-.062-1.079-.186-1.49-.124-.41-.294-.743-.51-.999-.217-.256-.468-.441-.755-.557-.287-.114-.594-.172-.92-.172-.327 0-.634.058-.92.172-.287.115-.536.301-.748.557s-.378.589-.497.999c-.119.411-.179.907-.179 1.49 0 .573.06 1.059.179 1.456s.285.722.497.973c.212.252.461.433.748.543.286.11.593.166.92.166.326 0 .633-.056.92-.166s.538-.291.755-.543c.216-.251.386-.575.51-.973.123-.397.186-.883.186-1.456z"/></g><g fill="#fff"><path d="M130.316 392.408l-.006 1.494-4.244-.016-.044 11.641-1.778-.007.044-11.641-4.262-.017.006-1.494 10.284.04zM133.666 396.124c.556.002 1.069.097 1.539.285.469.188.875.459 1.216.812s.606.787.797 1.305.285 1.105.282 1.766c-.001.256-.029.428-.084.513-.055.086-.159.128-.312.128l-6.178-.023c.01.586.087 1.097.232 1.531.145.435.345.797.601 1.088.256.292.56.51.914.655.354.145.751.217 1.191.219.409.002.762-.044 1.059-.138.296-.094.552-.195.766-.305.214-.108.394-.21.537-.305.144-.094.269-.141.373-.14.134 0 .238.053.311.156l.456.598c-.203.244-.445.455-.727.635-.282.179-.583.326-.905.44-.321.115-.653.201-.995.258s-.682.084-1.018.083c-.642-.003-1.233-.113-1.772-.332-.54-.219-1.006-.538-1.399-.959-.393-.419-.698-.938-.915-1.557-.218-.618-.325-1.328-.322-2.128.002-.648.104-1.252.305-1.813.201-.562.488-1.049.863-1.459.375-.411.831-.733 1.369-.967s1.144-.348 1.816-.346zm.032 1.2c-.788-.003-1.409.224-1.863.677s-.737 1.083-.851 1.89l5.05.02c.001-.379-.049-.727-.151-1.042-.103-.315-.255-.587-.456-.817s-.446-.408-.736-.534-.62-.192-.993-.194zM146.38 405.604l-.724-.003c-.159-.001-.287-.025-.385-.075-.098-.049-.162-.152-.191-.312l-.18-.863c-.245.22-.484.416-.717.589-.233.173-.478.318-.735.437s-.531.208-.821.268c-.291.061-.613.09-.968.088-.36-.001-.697-.053-1.012-.155-.315-.103-.587-.255-.819-.458-.231-.204-.415-.46-.552-.771-.136-.31-.204-.677-.202-1.1.001-.368.104-.722.306-1.061.203-.341.53-.641.98-.903.45-.262 1.039-.476 1.767-.642s1.617-.247 2.668-.242l.003-.729c.002-.726-.15-1.275-.457-1.648s-.763-.561-1.368-.563c-.397-.001-.732.048-1.004.146-.272.101-.508.214-.707.338l-.515.337c-.144.1-.286.15-.427.149-.11 0-.206-.03-.288-.088-.083-.059-.147-.131-.196-.217l-.292-.523c.515-.493 1.07-.86 1.664-1.103.593-.242 1.251-.362 1.972-.359.519.002.98.09 1.383.263.403.172.741.411 1.015.718.274.308.48.677.619 1.112.139.434.208.911.206 1.431l-.023 5.939zm-4.232-1.016c.287.001.551-.027.789-.084.238-.058.463-.139.674-.245.211-.105.414-.234.606-.388.193-.151.381-.324.566-.52l.007-1.915c-.751-.003-1.39.042-1.916.135-.526.094-.955.216-1.285.368-.331.153-.572.333-.722.541-.151.21-.227.442-.228.7-.001.246.038.459.117.637.079.179.186.325.319.439s.292.197.476.251c.186.054.384.08.597.081zM155.217 398.001l-.147.155c-.05.037-.12.055-.211.055-.092-.001-.19-.039-.297-.116-.106-.076-.243-.161-.407-.253-.165-.093-.365-.178-.6-.255-.235-.076-.523-.117-.866-.118-.452-.002-.853.078-1.202.238-.349.161-.642.394-.878.698-.237.305-.416.674-.536 1.107s-.182.919-.184 1.456c-.002.562.06 1.063.187 1.5.126.438.305.805.536 1.102.231.298.513.524.846.682.332.157.706.236 1.122.238.397.001.725-.044.982-.138.256-.094.471-.199.643-.314.171-.115.312-.221.422-.314.11-.095.221-.141.331-.141.141.001.244.053.311.156l.457.598c-.405.493-.911.854-1.517 1.08-.605.228-1.244.339-1.917.337-.581-.003-1.12-.111-1.617-.327s-.928-.527-1.293-.936c-.365-.407-.652-.907-.86-1.501s-.312-1.27-.309-2.027c.002-.69.101-1.329.296-1.914.195-.586.478-1.091.849-1.515.372-.423.83-.753 1.375-.989.545-.235 1.168-.353 1.871-.35.648.002 1.222.109 1.722.322.5.212.942.513 1.326.899l-.435.585zM157.416 405.646l.051-13.502 1.631.006-.021 5.463c.398-.42.84-.756 1.324-1.008.484-.251 1.041-.376 1.67-.374.507.002.954.088 1.342.258.387.169.71.408.969.718s.454.682.586 1.116.198.915.196 1.44l-.022 5.912-1.631-.007.022-5.912c.003-.702-.156-1.248-.475-1.638s-.809-.585-1.468-.587c-.483-.002-.934.112-1.354.342-.42.231-.807.544-1.163.94l-.026 6.838-1.631-.005zM171.318 396.266c.556.003 1.069.098 1.539.285.469.188.875.459 1.216.812s.606.787.797 1.305.285 1.105.282 1.766c-.001.256-.029.428-.084.513-.055.086-.159.128-.312.128l-6.178-.023c.01.586.087 1.097.232 1.531.145.435.345.797.601 1.088.256.292.56.51.914.655.354.145.751.218 1.191.219.409.002.762-.044 1.059-.138.296-.093.552-.194.766-.305.214-.108.394-.21.537-.305.144-.094.269-.141.373-.14.134 0 .238.053.311.156l.456.598c-.203.244-.445.455-.727.635-.282.179-.583.326-.905.441-.321.114-.653.2-.995.257s-.682.084-1.018.083c-.642-.003-1.233-.113-1.772-.332-.54-.219-1.006-.538-1.399-.959-.393-.419-.698-.938-.915-1.557-.218-.618-.325-1.327-.322-2.127.002-.648.104-1.253.305-1.814.201-.562.488-1.048.863-1.459s.831-.733 1.369-.967 1.144-.348 1.816-.346zm.032 1.201c-.788-.004-1.409.223-1.863.676-.454.454-.737 1.083-.851 1.89l5.05.02c.001-.379-.049-.727-.151-1.042-.103-.314-.255-.587-.456-.817s-.446-.407-.736-.534c-.288-.127-.62-.192-.993-.193zM177.213 405.72l.035-9.285.935.004c.177.001.299.034.366.102.067.068.112.185.136.35l.104 1.448c.32-.646.715-1.15 1.184-1.513.469-.361 1.018-.541 1.647-.539.257.001.489.031.696.09.208.06.399.142.576.245l-.215 1.218c-.043.153-.138.229-.285.229-.085 0-.217-.029-.394-.088-.177-.06-.425-.089-.742-.09-.568-.002-1.044.16-1.427.488-.384.329-.705.809-.964 1.437l-.022 5.912-1.63-.008zM189.946 398.014c-.074.134-.187.201-.34.2-.092 0-.196-.033-.311-.102l-.425-.226c-.168-.084-.368-.161-.6-.232-.232-.071-.507-.107-.825-.108-.275-.001-.522.033-.743.103s-.409.166-.565.287-.276.263-.359.425c-.083.161-.125.337-.126.526-.001.238.067.437.204.597.137.159.318.298.543.414.226.117.482.221.769.311l.883.287s.597.215.883.338c.287.124.543.277.768.462.226.184.406.408.543.675s.204.587.203.959c-.002.428-.08.823-.234 1.187-.154.362-.381.676-.682.941-.3.265-.668.473-1.103.624-.434.15-.936.225-1.504.223-.648-.002-1.234-.11-1.758-.323-.525-.213-.97-.483-1.335-.815l.387-.622c.049-.079.107-.14.175-.183.068-.042.156-.063.266-.063.11.001.226.044.348.13l.443.285c.174.105.384.201.631.287.247.087.557.131.93.132.317.002.596-.038.834-.12.238-.081.438-.193.597-.333.159-.139.277-.301.355-.484.077-.183.116-.378.116-.586.001-.257-.066-.469-.204-.638-.136-.169-.318-.312-.543-.433s-.484-.226-.773-.314l-.888-.284c-.302-.099-.598-.211-.888-.337s-.547-.285-.772-.476c-.226-.189-.406-.425-.543-.703s-.204-.616-.202-1.014c.001-.354.076-.694.224-1.021.148-.327.363-.613.645-.86.282-.246.628-.441 1.038-.587.41-.145.878-.216 1.404-.214.611.002 1.159.1 1.644.294.485.195.904.461 1.257.798l-.367.593z"/></g><circle fill="#48C7F4" cx="84.025" cy="389.452" r="13.987"/><g fill="#fff"><path d="M130.458 365.135c.803 0 1.544.115 2.225.344.679.23 1.264.557 1.754.98.49.424.872.936 1.146 1.535.273.601.41 1.268.41 2 0 .6-.077 1.136-.231 1.608-.155.473-.375.887-.662 1.244s-.633.66-1.039.907c-.406.247-.861.446-1.364.596 1.235.327 2.165.874 2.787 1.642.623.769.934 1.73.934 2.887 0 .874-.166 1.659-.497 2.356s-.783 1.291-1.357 1.781c-.574.489-1.243.864-2.006 1.125-.764.26-1.582.391-2.456.391-1.006 0-1.867-.126-2.582-.377-.715-.252-1.32-.599-1.814-1.04-.495-.441-.9-.964-1.218-1.568-.317-.604-.587-1.26-.808-1.967l1.006-.423c.186-.08.371-.12.556-.12.176 0 .333.038.47.113.137.075.24.191.311.351l.053.112.053.126c.124.256.273.545.45.867.176.322.415.625.715.907.3.282.673.521 1.119.715s1 .291 1.662.291 1.242-.107 1.741-.324c.499-.216.914-.496 1.244-.841.331-.344.581-.729.748-1.151.168-.424.252-.843.252-1.258 0-.512-.069-.98-.206-1.404-.137-.423-.384-.789-.741-1.099-.357-.309-.852-.552-1.483-.728-.631-.177-1.441-.266-2.43-.266v-1.721c.803 0 1.49-.084 2.059-.252.569-.167 1.035-.396 1.396-.688.362-.291.625-.64.788-1.046.163-.405.245-.855.245-1.351 0-.547-.086-1.023-.258-1.43-.172-.406-.409-.741-.708-1.006-.3-.265-.655-.464-1.066-.596-.41-.133-.854-.199-1.331-.199s-.918.071-1.324.212c-.406.141-.766.338-1.079.589-.313.251-.576.551-.788.899-.211.348-.371.725-.477 1.131-.071.255-.177.44-.317.555-.142.115-.323.172-.543.172l-.139-.006-.166-.02-1.231-.209c.124-.864.362-1.63.715-2.297.353-.666.801-1.225 1.344-1.675s1.165-.792 1.867-1.026c.703-.231 1.459-.348 2.271-.348zM146.214 372.695c.759 0 1.478.126 2.158.378.679.251 1.275.618 1.787 1.099s.918 1.072 1.218 1.774c.3.701.45 1.503.45 2.402 0 .874-.159 1.687-.477 2.437-.317.75-.761 1.403-1.331 1.96-.569.556-1.255.992-2.059 1.311-.803.317-1.686.477-2.648.477-.953 0-1.816-.152-2.588-.457s-1.432-.736-1.979-1.297-.969-1.24-1.264-2.039c-.296-.799-.444-1.692-.444-2.682 0-.829.186-1.712.556-2.647s.958-1.942 1.761-3.019l4.806-6.475c.124-.159.296-.294.517-.404.22-.11.472-.165.754-.165h2.092l-6.581 8.328c.45-.31.949-.55 1.496-.722s1.14-.259 1.776-.259zm-4.899 5.773c0 .608.088 1.165.265 1.668.176.503.435.936.774 1.297.339.362.754.643 1.245.841.49.199 1.048.298 1.675.298.635 0 1.209-.101 1.721-.304.512-.203.951-.485 1.317-.848.366-.362.648-.79.847-1.284s.298-1.033.298-1.615c0-.618-.097-1.177-.292-1.675-.194-.499-.468-.923-.821-1.271s-.777-.615-1.271-.801-1.037-.278-1.628-.278c-.635 0-1.209.108-1.721.324-.512.217-.947.508-1.304.874s-.631.79-.821 1.271c-.189.481-.284.982-.284 1.503zM162.326 369.928c0 .741-.115 1.405-.344 1.992s-.536 1.082-.92 1.483-.832.708-1.344.92c-.512.212-1.046.317-1.602.317-.601 0-1.154-.105-1.662-.317-.508-.212-.951-.519-1.331-.92s-.675-.896-.887-1.483-.318-1.251-.318-1.992c0-.759.106-1.435.318-2.025.212-.592.507-1.091.887-1.497.379-.405.823-.715 1.331-.927.507-.211 1.061-.317 1.662-.317.591 0 1.145.106 1.662.317.516.212.962.521 1.337.927s.671.905.887 1.497c.216.591.324 1.266.324 2.025zm6.633-4.104c.115-.15.236-.267.364-.351.127-.084.298-.126.51-.126h1.694l-13.862 18.589c-.088.114-.194.207-.318.278-.124.07-.27.105-.437.105h-1.748l13.797-18.495zm-8.473 4.104c0-.583-.062-1.077-.185-1.483-.124-.405-.293-.739-.51-.999-.216-.261-.468-.448-.755-.562-.287-.115-.594-.173-.92-.173-.327 0-.634.058-.92.173-.287.114-.536.302-.748.562-.212.26-.377.594-.497.999-.119.406-.179.9-.179 1.483 0 .573.06 1.062.179 1.463s.285.729.497.979c.212.252.461.433.748.543s.594.166.92.166c.326 0 .633-.056.92-.166s.539-.291.755-.543c.216-.251.386-.578.51-.979.123-.401.185-.89.185-1.463zm12.326 9.917c0 .741-.115 1.403-.344 1.985-.229.583-.536 1.075-.92 1.477s-.83.708-1.337.92c-.507.212-1.039.317-1.595.317-.601 0-1.154-.105-1.662-.317-.508-.212-.951-.519-1.331-.92s-.675-.894-.887-1.477c-.212-.582-.317-1.244-.317-1.985 0-.76.105-1.437.317-2.033.212-.596.508-1.097.887-1.502.379-.406.823-.715 1.331-.927.507-.212 1.061-.318 1.662-.318.591 0 1.143.106 1.655.318.512.212.958.521 1.337.927.379.405.675.906.887 1.502.212.597.317 1.273.317 2.033zm-1.827 0c0-.583-.062-1.079-.186-1.49-.124-.41-.293-.743-.51-.999s-.468-.441-.755-.557c-.287-.114-.593-.172-.92-.172s-.633.058-.92.172c-.287.115-.536.301-.748.557-.211.256-.377.589-.496.999-.119.411-.179.907-.179 1.49 0 .573.06 1.059.179 1.456s.285.722.496.973c.212.252.461.433.748.543.287.11.594.166.92.166s.633-.056.92-.166c.287-.11.539-.291.755-.543.216-.251.386-.575.51-.973s.186-.883.186-1.456z"/></g><g fill="#fff"><path d="M364.303 400.606l-.019 4.913-1.769-.007.05-13.135 3.877.015c.831.004 1.554.103 2.167.297.614.195 1.121.471 1.523.827.402.354.702.785.897 1.286.197.502.293 1.061.292 1.678-.002.611-.111 1.171-.327 1.677-.215.506-.53.942-.944 1.308-.413.364-.927.648-1.538.852-.612.201-1.312.302-2.101.298l-2.108-.009zm.005-1.411l2.108.008c.507.002.955-.063 1.344-.196s.714-.32.979-.561c.263-.239.463-.528.599-.863.136-.336.205-.705.206-1.108.003-.837-.253-1.491-.768-1.964-.514-.473-1.294-.711-2.339-.716l-2.108-.008-.021 5.408zM379.637 405.578l-.724-.003c-.159-.001-.287-.025-.384-.074-.098-.05-.162-.153-.192-.312l-.18-.863c-.246.22-.484.416-.717.589s-.478.318-.735.438c-.257.118-.531.207-.821.267-.291.061-.613.09-.968.089-.36-.002-.697-.054-1.012-.155-.314-.104-.587-.256-.818-.459-.232-.203-.416-.46-.552-.771-.136-.31-.204-.676-.202-1.1.001-.367.104-.722.307-1.061.203-.341.53-.641.98-.903.45-.262 1.039-.476 1.767-.642.728-.166 1.617-.246 2.668-.242l.002-.729c.003-.726-.149-1.275-.457-1.648s-.764-.561-1.368-.562c-.397-.002-.732.047-1.004.146-.272.101-.508.213-.707.337l-.515.337c-.144.1-.286.15-.427.149-.11 0-.206-.03-.289-.088-.082-.059-.147-.13-.196-.217l-.292-.523c.515-.493 1.07-.86 1.664-1.103.593-.242 1.251-.361 1.972-.359.519.002.98.09 1.383.263.402.172.741.412 1.015.719.274.307.48.677.619 1.111.139.435.207.911.205 1.431l-.022 5.938zm-4.231-1.016c.287.002.55-.026.789-.083.238-.059.463-.14.674-.246.211-.105.414-.234.606-.388.193-.151.381-.324.566-.52l.007-1.915c-.751-.003-1.391.042-1.916.135-.526.094-.955.217-1.285.368-.331.153-.572.333-.722.541-.15.21-.226.443-.227.701-.001.246.038.458.117.636.079.179.186.325.319.439s.292.197.476.251c.184.054.382.081.596.081zM382.111 405.586l.035-9.285.935.004c.177.001.299.034.367.103.067.067.112.184.136.349l.104 1.449c.32-.646.715-1.151 1.183-1.514.469-.361 1.019-.541 1.648-.539.257.001.488.031.696.09.208.06.399.142.576.245l-.215 1.219c-.043.152-.138.229-.285.228-.085 0-.217-.029-.394-.088-.177-.06-.425-.089-.742-.09-.568-.002-1.044.16-1.427.489-.383.328-.704.808-.963 1.436l-.022 5.912-1.632-.008zM393.21 396.197c.556.003 1.069.098 1.539.285.47.188.875.459 1.216.812.34.353.606.788.797 1.305.19.518.284 1.105.282 1.766-.001.256-.029.428-.084.513-.055.086-.159.128-.312.128l-6.178-.023c.01.586.088 1.097.232 1.531.145.435.345.797.601 1.088.256.292.56.51.914.655.354.145.75.218 1.191.219.409.002.763-.044 1.059-.138.297-.093.552-.194.767-.305.214-.108.393-.21.537-.305.144-.094.268-.14.372-.14.134 0 .238.053.311.156l.456.598c-.202.244-.444.455-.727.635-.281.179-.583.326-.904.441-.321.114-.653.2-.995.257-.342.057-.682.084-1.018.083-.642-.003-1.232-.113-1.772-.332-.54-.219-1.006-.538-1.399-.959-.393-.419-.697-.938-.915-1.557s-.325-1.327-.322-2.127c.002-.648.104-1.253.305-1.814s.488-1.048.862-1.459c.375-.41.831-.733 1.37-.967s1.143-.348 1.815-.346zm.032 1.201c-.788-.003-1.409.223-1.863.676-.455.454-.738 1.084-.851 1.89l5.05.02c.001-.379-.049-.727-.152-1.042-.103-.314-.254-.587-.455-.817-.201-.229-.446-.407-.736-.534-.288-.128-.62-.192-.993-.193zM399.104 405.651l.035-9.285.972.004c.232.001.378.115.439.341l.124 1.009c.405-.444.857-.803 1.356-1.076.499-.272 1.076-.408 1.73-.406.507.002.954.088 1.342.258.387.169.71.408.969.718.258.31.454.682.586 1.116.133.435.198.914.196 1.439l-.022 5.912-1.631-.006.022-5.912c.003-.702-.156-1.249-.475-1.638-.319-.39-.809-.585-1.469-.587-.483-.002-.934.112-1.353.342-.42.231-.808.544-1.164.94l-.026 6.838-1.631-.007zM412.11 405.847c-.733-.003-1.296-.209-1.689-.621-.393-.41-.587-1.001-.584-1.771l.021-5.684-1.118-.004c-.098-.001-.18-.029-.248-.088-.066-.059-.1-.148-.099-.271l.002-.65 1.522-.187.387-2.867c.013-.092.053-.166.12-.225.067-.058.153-.086.257-.086l.825.003-.012 3.199 2.658.011-.004 1.182-2.658-.011-.021 5.573c-.002.392.092.683.281.872.188.19.433.286.732.287.171.001.319-.021.444-.067.125-.045.234-.095.326-.149l.234-.15.17-.068c.085 0 .162.054.229.157l.474.781c-.282.262-.623.466-1.02.614-.398.148-.807.222-1.229.22zM421.479 397.981c-.074.135-.187.201-.34.201-.092-.001-.196-.034-.311-.102l-.426-.227c-.168-.084-.367-.16-.6-.231-.231-.071-.506-.107-.824-.109-.275-.001-.522.033-.743.104-.22.069-.408.165-.564.286-.156.122-.276.263-.359.425-.083.162-.125.338-.126.527-.001.238.067.437.204.596.137.16.318.299.543.414.226.117.482.221.769.311l.884.288c.301.102.596.214.883.337.287.124.542.277.768.462.226.184.406.409.543.675.137.268.204.587.202.959-.001.428-.079.824-.233 1.187-.154.363-.381.677-.682.942-.3.265-.668.472-1.103.623-.434.151-.935.226-1.503.224-.648-.003-1.234-.11-1.758-.323-.525-.213-.97-.484-1.335-.815l.387-.623c.049-.079.107-.14.175-.182.068-.043.156-.064.266-.063.11 0 .226.044.348.129l.443.286c.174.104.385.2.631.286.248.087.557.131.93.133.317.001.596-.039.834-.121.238-.081.438-.192.597-.333.159-.139.277-.3.355-.483.077-.184.116-.379.116-.587.001-.257-.066-.469-.204-.638-.137-.168-.318-.312-.544-.433-.225-.12-.483-.226-.772-.314l-.888-.283c-.302-.099-.598-.211-.888-.338-.29-.126-.547-.285-.773-.476-.225-.188-.406-.424-.542-.703-.137-.277-.204-.615-.202-1.013.001-.354.076-.694.224-1.021.148-.326.362-.612.645-.859.282-.246.628-.442 1.038-.587.41-.146.878-.217 1.404-.215.611.003 1.158.101 1.643.295.485.195.904.46 1.257.798l-.369.591z"/></g><circle fill="#5E7E53" cx="325.06" cy="389.452" r="13.987"/><g fill="#fff"><path d="M371.109 365.137c.803 0 1.553.119 2.251.357.697.238 1.299.585 1.807 1.039.507.455.907 1.009 1.198 1.662.291.653.437 1.395.437 2.224 0 .707-.106 1.359-.318 1.96s-.499 1.177-.861 1.728c-.362.552-.779 1.086-1.251 1.603-.472.516-.973 1.044-1.503 1.582l-4.991 5.11c.353-.097.71-.174 1.072-.231s.71-.086 1.046-.086h6.355c.256 0 .458.075.609.225.15.15.225.345.225.583v1.43h-12.657v-.808c0-.168.033-.34.099-.517.066-.176.174-.34.325-.489l6.077-6.104c.503-.513.962-1.005 1.377-1.477.415-.473.77-.947 1.066-1.424s.523-.96.682-1.449c.159-.49.238-1.013.238-1.569s-.088-1.043-.265-1.463c-.176-.419-.419-.766-.728-1.039s-.671-.479-1.085-.616c-.415-.137-.861-.205-1.337-.205s-.918.071-1.324.212c-.406.142-.766.338-1.079.59-.313.251-.579.549-.794.894-.216.344-.369.724-.457 1.139-.071.256-.177.441-.318.556-.141.115-.327.172-.556.172l-.139-.006-.166-.021-1.231-.212c.124-.864.362-1.63.715-2.297.353-.666.801-1.225 1.344-1.675.542-.45 1.165-.792 1.867-1.026.702-.235 1.458-.352 2.27-.352zM390.466 377.477h2.873v1.351c0 .141-.042.26-.126.357-.084.097-.214.146-.391.146h-2.356v4.991h-2.079v-4.991h-8.407c-.177 0-.329-.051-.457-.152s-.209-.228-.245-.378l-.238-1.204 9.228-12.247h2.198v12.127zm-2.079-7.825c0-.229.006-.477.02-.741.014-.265.042-.538.086-.821l-6.898 9.388h6.792v-7.826zM403.229 369.93c0 .741-.115 1.405-.344 1.992s-.536 1.082-.92 1.483-.832.708-1.344.92c-.512.212-1.046.317-1.602.317-.601 0-1.154-.105-1.662-.317-.508-.212-.951-.519-1.331-.92s-.675-.896-.887-1.483-.318-1.251-.318-1.992c0-.759.106-1.435.318-2.025.212-.592.507-1.091.887-1.497.379-.405.823-.715 1.331-.927.507-.211 1.061-.317 1.662-.317.591 0 1.145.106 1.662.317.516.212.962.521 1.337.927s.671.905.887 1.497c.216.591.324 1.266.324 2.025zm6.633-4.104c.115-.15.236-.267.364-.351.127-.084.298-.126.51-.126h1.694l-13.862 18.589c-.088.114-.194.207-.318.278-.124.07-.27.105-.437.105h-1.748l13.797-18.495zm-8.474 4.104c0-.583-.062-1.077-.185-1.483-.124-.405-.293-.739-.51-.999-.216-.261-.468-.448-.755-.562-.287-.115-.594-.173-.92-.173-.327 0-.634.058-.92.173-.287.114-.536.302-.748.562-.212.26-.377.594-.497.999-.119.406-.179.9-.179 1.483 0 .573.06 1.062.179 1.463s.285.729.497.979c.212.252.461.433.748.543s.594.166.92.166c.326 0 .633-.056.92-.166s.539-.291.755-.543c.216-.251.386-.578.51-.979s.185-.89.185-1.463zm12.326 9.917c0 .741-.115 1.403-.344 1.985-.229.583-.536 1.075-.92 1.477s-.83.708-1.337.92c-.507.212-1.039.317-1.595.317-.601 0-1.154-.105-1.662-.317-.508-.212-.951-.519-1.331-.92s-.675-.894-.887-1.477c-.212-.582-.317-1.244-.317-1.985 0-.76.105-1.437.317-2.033.212-.596.508-1.097.887-1.502.379-.406.823-.715 1.331-.927.507-.212 1.061-.318 1.662-.318.591 0 1.143.106 1.655.318.512.212.958.521 1.337.927.379.405.675.906.887 1.502.212.597.317 1.273.317 2.033zm-1.826 0c0-.583-.062-1.079-.186-1.49-.124-.41-.293-.743-.51-.999s-.468-.441-.755-.557c-.287-.114-.593-.172-.92-.172s-.633.058-.92.172c-.287.115-.536.301-.748.557-.211.256-.377.589-.496.999-.119.411-.179.907-.179 1.49 0 .573.06 1.059.179 1.456s.285.722.496.973c.212.252.461.433.748.543.287.11.594.166.92.166s.633-.056.92-.166c.287-.11.539-.291.755-.543.216-.251.386-.575.51-.973s.186-.883.186-1.456z"/></g></svg>