<svg xmlns="http://www.w3.org/2000/svg" width="636.33" height="601" viewBox="0 0 636.33 601"><g fill="#6FB6D1"><path opacity=".7" d="M110.509 150.794l-3.417-2.079c-2.092 3.437-4.133 6.972-6.069 10.507l3.509 1.921c1.906-3.481 3.917-6.963 5.977-10.349zM213.796 54.132l-1.848-3.548c-3.563 1.855-7.13 3.817-10.602 5.83l2.007 3.46c3.419-1.982 6.933-3.914 10.443-5.742zM138.907 112.446l-2.985-2.662c-2.674 3-5.319 6.104-7.86 9.229l3.104 2.524c2.502-3.078 5.107-6.136 7.741-9.091zM193.18 66.087l-2.162-3.365c-3.38 2.171-6.757 4.45-10.035 6.772l2.312 3.264c3.229-2.288 6.555-4.532 9.885-6.671zM173.722 79.871l-2.457-3.156c-3.17 2.468-6.327 5.044-9.386 7.657l2.598 3.041c3.013-2.574 6.123-5.111 9.245-7.542zM123.841 130.971l-3.215-2.381c-2.396 3.235-4.749 6.568-6.995 9.907l3.319 2.232c2.213-3.288 4.53-6.571 6.891-9.758zM85.951 381.964c1.432 3.744 2.971 7.509 4.575 11.189l3.667-1.598c-1.58-3.625-3.096-7.332-4.505-11.02l-3.737 1.429zM78.343 358.959c1.086 3.872 2.277 7.771 3.54 11.59l3.798-1.256c-1.244-3.761-2.417-7.602-3.486-11.414l-3.852 1.08zM95.608 404.126c1.769 3.601 3.646 7.213 5.58 10.734l3.506-1.926c-1.905-3.468-3.754-7.025-5.495-10.572l-3.591 1.764zM73.565 310.989l-3.983.363c.365 4.012.827 8.062 1.373 12.039l3.963-.544c-.538-3.916-.993-7.906-1.353-11.858zM99.033 171.758l-3.593-1.759c-1.768 3.611-3.479 7.32-5.086 11.024l3.67 1.592c1.582-3.648 3.268-7.301 5.009-10.857zM76.808 334.631l-3.934.724c.728 3.955 1.556 7.947 2.464 11.865l3.896-.902c-.894-3.86-1.71-7.792-2.426-11.687zM507.164 84.049c-3.064-2.608-6.229-5.18-9.408-7.646l-2.451 3.16c3.131 2.429 6.249 4.963 9.268 7.532l2.591-3.046zM522.081 97.77c-1.934-1.915-3.888-3.815-5.865-5.658l-2.727 2.926c1.685 1.571 3.354 3.182 5.01 4.808 1.157-.748 2.352-1.441 3.582-2.076zM596.948 286.385l.001.507c0 3.974-.09 7.989-.267 11.933l3.996.18c.18-4.003.271-8.079.271-12.124l-.001-.495h-4zM579.646 193.014c.688 1.793 1.357 3.606 2.009 5.424.98-.097 1.968-.16 2.969-.16.411 0 .817.021 1.225.038-.797-2.258-1.614-4.511-2.468-6.735l-3.735 1.433zM570.113 171.196c1.742 3.538 3.43 7.172 5.017 10.803l3.666-1.603c-1.611-3.686-3.325-7.375-5.095-10.968l-3.588 1.768zM595.88 310.732c-.354 3.942-.806 7.932-1.34 11.86l3.963.539c.543-3.987 1-8.038 1.361-12.04l-3.984-.359zM454.354 520.298c.499 1.242.946 2.511 1.334 3.806l1.558-.786-1.844-3.549-1.048.529zM280.992 30.161l-.815-3.916c-3.943.821-7.914 1.744-11.804 2.741l.993 3.875c3.831-.983 7.743-1.891 11.626-2.7zM257.876 36.089l-1.171-3.825c-3.846 1.177-7.716 2.459-11.503 3.811l1.345 3.768c3.729-1.332 7.541-2.594 11.329-3.754zM400.303 28.795c-3.897-.988-7.872-1.898-11.812-2.707l-.804 3.919c3.881.796 7.795 1.692 11.634 2.665l.982-3.877zM235.4 44.11l-1.516-3.701c-3.713 1.521-7.442 3.148-11.082 4.836l1.684 3.629c3.585-1.663 7.257-3.266 10.914-4.764zM376.567 23.925c-3.968-.626-8.008-1.171-12.009-1.617l-.443 3.976c3.94.439 7.92.976 11.828 1.593l.624-3.952zM72.474 287.145l-4 .003c.003 4.021.098 8.097.282 12.116l3.996-.183c-.181-3.959-.274-7.976-.278-11.936zM485.92 501.172l2.309 3.266c3.282-2.319 6.555-4.746 9.728-7.212l-2.455-3.158c-3.126 2.428-6.35 4.819-9.582 7.104zM465.85 514.036l2.004 3.461c3.481-2.015 6.958-4.134 10.335-6.298l-2.158-3.367c-3.327 2.131-6.753 4.219-10.181 6.204zM479.768 63.622c-.636 1.177-1.328 2.32-2.074 3.422 2.695 1.757 5.384 3.561 8.011 5.414l2.305-3.269c-2.702-1.905-5.469-3.761-8.242-5.567zM352.734 548.521l.271 3.99c4.016-.272 8.076-.64 12.067-1.093l-.451-3.975c-3.932.447-7.931.809-11.887 1.078zM316.162 21.291l.274 3.99c3.951-.271 7.963-.457 11.925-.551l-.095-3.999c-4.021.095-8.094.284-12.104.56zM340.302 24.712c3.965.083 7.978.257 11.924.517l.264-3.991c-4.006-.264-8.079-.441-12.104-.525l-.084 3.999zM328.87 549.065l-.088 4c1.971.043 3.948.064 5.929.064 2.06 0 4.142-.023 6.189-.071l-.092-3.998c-3.957.09-7.978.093-11.938.005zM565.889 410.761c-.375.699-.741 1.408-1.121 2.101l3.506 1.924c.945-1.722 1.877-3.468 2.79-5.224-1.688.541-3.414.95-5.175 1.199zM552.33 433.263l3.316 2.236c2.247-3.334 4.45-6.77 6.55-10.212l-3.416-2.082c-2.067 3.391-4.237 6.774-6.45 10.058zM538.098 452.441l3.102 2.527c2.542-3.12 5.047-6.34 7.445-9.57l-3.213-2.385c-2.362 3.184-4.829 6.356-7.334 9.428zM504.753 486.535l2.596 3.043c3.067-2.616 6.108-5.33 9.039-8.066l-2.73-2.924c-2.887 2.696-5.883 5.37-8.905 7.947zM522.193 470.247l2.859 2.797c2.819-2.884 5.604-5.862 8.276-8.854l-2.982-2.664c-2.632 2.947-5.375 5.881-8.153 8.721zM191.266 511.22c3.389 2.173 6.875 4.296 10.362 6.312l2.002-3.463c-3.434-1.986-6.868-4.077-10.206-6.217l-2.158 3.368zM153.02 481.496c2.934 2.742 5.977 5.458 9.044 8.073l2.595-3.045c-3.021-2.575-6.018-5.25-8.907-7.95l-2.732 2.922zM107.252 425.333c2.092 3.429 4.291 6.856 6.537 10.188l3.316-2.236c-2.211-3.28-4.377-6.657-6.438-10.034l-3.415 2.082zM152.848 92.445c-2.936 2.748-5.849 5.6-8.658 8.477l2.862 2.794c2.767-2.834 5.637-5.644 8.529-8.35l-2.733-2.921zM171.465 497.224c3.177 2.47 6.454 4.9 9.741 7.223l2.309-3.266c-3.237-2.288-6.465-4.683-9.594-7.115l-2.456 3.158zM120.782 445.403c2.391 3.223 4.893 6.439 7.436 9.56l3.101-2.527c-2.504-3.073-4.969-6.241-7.324-9.415l-3.213 2.382zM136.081 464.178c2.685 3.005 5.468 5.982 8.272 8.851l2.86-2.797c-2.763-2.825-5.505-5.759-8.15-8.72l-2.982 2.666zM234.306 533.547c3.737 1.522 7.557 2.978 11.352 4.324l1.337-3.77c-3.737-1.326-7.499-2.759-11.179-4.259l-1.51 3.705zM280.682 547.645c3.93.81 7.94 1.541 11.921 2.175l.628-3.951c-3.921-.623-7.871-1.344-11.742-2.142l-.807 3.918zM292.093 24.047l.635 3.949c3.911-.629 7.889-1.177 11.824-1.627l-.455-3.974c-3.995.458-8.034 1.013-12.004 1.652zM304.609 551.446c3.985.449 8.045.813 12.069 1.082l.267-3.99c-3.963-.266-7.963-.624-11.887-1.066l-.449 3.974zM257.2 541.671c3.853 1.17 7.78 2.266 11.673 3.256l.986-3.877c-3.834-.975-7.702-2.054-11.497-3.207l-1.162 3.828zM212.27 523.365c3.579 1.856 7.246 3.654 10.9 5.343l1.678-3.631c-3.599-1.663-7.211-3.434-10.736-5.263l-1.842 3.551z"/></g><path fill="#5DC7C3" d="M398.35 189.523l39.896-61.134c-10.502-6.851-20.516-12.092-32.127-16.816l-27.495 67.612c6.952 2.825 13.548 6.298 19.726 10.338z"/><path fill="#0E5461" d="M443.41 245.416l68.203-26.006c-14.886-39.046-38.372-68.181-73.367-91.021l-39.896 61.134c20.466 13.383 36.308 32.987 45.06 55.893z"/><path fill="#C8B330" d="M450.981 289.093l73.011 1.438c.489-25.067-3.443-47.691-12.379-71.121l-68.203 26.006c5.198 13.6 7.889 28.363 7.571 43.677z"/><path fill="#7FD8F7" d="M523.992 290.531l-73.011-1.438c-.052 2.536-.179 5.085-.397 7.647-1.701 19.8-8.276 38.008-18.439 53.551l61.133 39.896c20.554-31.496 29.97-62.054 30.714-99.656z"/><path fill="#5E7E53" d="M324.925 402.528c-14.778-1.269-28.667-5.258-41.226-11.422l-32.144 65.531c86.293 42.327 189.192 14.04 241.722-66.451l-61.133-39.896c-22.643 34.633-63.106 56.025-107.219 52.238z"/><path opacity=".7" fill="#F26066" d="M219.139 276.869c5.487-63.911 61.746-111.274 125.658-105.787 11.932 1.024 23.285 3.821 33.828 8.104l27.495-67.612c-96.778-39.353-207.134 7.198-246.486 103.976-37.779 92.903 1.878 196.919 91.923 241.089l32.144-65.531c-41.761-20.498-68.781-65.104-64.562-114.239z"/><g fill="#fff"><path d="M36.054 252.019h2.41c.249 0 .457.059.624.176.167.118.279.276.335.475l2.623 9.223c.064.228.123.475.176.741.054.266.105.549.155.848.057-.299.119-.582.187-.848.067-.267.141-.514.219-.741l3.028-9.223c.057-.164.169-.312.336-.448.167-.135.372-.203.613-.203h.842c.249 0 .455.059.619.176.163.118.277.276.341.475l3.007 9.223c.156.455.292.959.405 1.514l.155-.8c.053-.256.108-.494.165-.714l2.623-9.223c.05-.178.16-.331.331-.458.17-.128.376-.192.618-.192h2.25l-4.788 15.418h-2.591l-3.369-10.535-.133-.437-.133-.501-.133.501-.133.437-3.401 10.535h-2.591l-4.79-15.419zM63.734 256.327c.689 0 1.324.11 1.903.331.579.22 1.079.542 1.498.965.419.423.747.942.981 1.557.234.615.352 1.317.352 2.106 0 .199-.009.364-.027.496-.018.131-.05.234-.096.309-.046.075-.108.128-.187.16-.078.032-.178.048-.298.048h-6.76c.079 1.123.38 1.948.907 2.474.526.526 1.222.789 2.09.789.426 0 .794-.05 1.104-.149.309-.1.579-.209.81-.331l.608-.331c.174-.1.343-.149.506-.149.106 0 .199.021.277.064.078.043.146.104.203.182l.768.959c-.292.341-.619.627-.981.858s-.741.416-1.136.554-.796.236-1.205.293c-.409.057-.805.085-1.189.085-.761 0-1.468-.126-2.122-.379-.654-.252-1.223-.625-1.706-1.12-.483-.494-.864-1.105-1.141-1.833-.277-.729-.416-1.573-.416-2.533 0-.746.121-1.448.362-2.105.242-.658.588-1.23 1.04-1.717.452-.487 1.002-.873 1.653-1.157s1.385-.426 2.202-.426zm.053 1.887c-.768 0-1.368.217-1.802.65s-.711 1.049-.832 1.845h4.947c0-.341-.046-.663-.139-.965s-.234-.567-.427-.794c-.192-.228-.434-.407-.725-.539-.289-.131-.631-.197-1.022-.197zM70.643 267.437v-15.844h2.634v6.248c.433-.462.924-.83 1.471-1.104s1.187-.411 1.919-.411c.597 0 1.142.123 1.636.368.494.246.921.603 1.28 1.072s.636 1.049.832 1.738c.195.69.293 1.482.293 2.378 0 .817-.11 1.575-.331 2.271-.221.697-.535 1.301-.944 1.813-.409.512-.903.912-1.482 1.199-.58.288-1.228.432-1.946.432-.334 0-.64-.034-.917-.102s-.53-.162-.757-.283c-.228-.121-.439-.268-.634-.442s-.382-.368-.56-.581l-.118.736c-.042.185-.115.316-.218.395s-.244.117-.421.117h-1.737zm5.117-9.063c-.547 0-1.015.116-1.402.346-.388.231-.748.557-1.082.976v4.904c.298.37.624.627.976.773.352.146.734.218 1.146.218.398 0 .757-.075 1.077-.224.32-.149.591-.377.815-.683s.396-.691.517-1.157c.121-.465.181-1.015.181-1.647 0-.64-.051-1.182-.154-1.626-.104-.444-.25-.805-.443-1.082-.192-.277-.425-.48-.698-.608s-.584-.19-.933-.19z"/></g><path fill="#0F789F" d="M218.21 478.752c-52.33-31.303-89.265-81.082-104.064-140.233-14.886-59.083-5.807-120.399 25.5-172.68 31.312-52.323 81.084-89.258 140.244-104.056 59.069-14.881 120.437-5.818 172.668 25.507l-11.23 18.848c-47.288-28.293-102.753-36.48-156.139-23.065-53.385 13.413-98.373 46.81-126.668 94.045-28.263 47.227-36.516 102.655-23.086 156.091 13.42 53.389 46.783 98.432 94.008 126.686 47.28 28.291 102.698 36.494 156.146 23.119l5.301 21.289c-59.086 14.832-120.414 5.765-172.68-25.551z" opacity=".7"/><g fill="#fff"><path d="M400.643 578.361c-.072.113-.146.193-.225.24s-.178.068-.299.068c-.127 0-.265-.035-.41-.105l-.506-.24c-.192-.09-.411-.17-.656-.24s-.535-.107-.869-.107c-.519 0-.927.111-1.226.332-.298.221-.448.508-.448.863 0 .234.076.432.229.592s.355.301.608.42c.252.121.539.23.858.326s.647.201.981.314.661.244.981.389c.32.146.606.332.858.555.252.225.455.492.607.805.152.314.229.689.229 1.131 0 .525-.097 1.012-.288 1.455-.191.445-.473.828-.842 1.152-.37.322-.827.576-1.371.756-.543.182-1.167.273-1.871.273-.377 0-.745-.035-1.104-.102-.359-.068-.704-.162-1.034-.283s-.636-.264-.917-.426c-.281-.164-.528-.342-.741-.533l.608-1.002c.078-.121.17-.215.277-.277.106-.064.241-.096.405-.096s.318.045.464.137c.146.094.314.193.506.299.192.107.418.207.677.299.259.094.588.139.986.139.312 0 .581-.037.805-.111.224-.074.409-.172.554-.293s.252-.262.32-.422.102-.324.102-.496c0-.256-.077-.465-.229-.629s-.355-.305-.607-.426-.541-.23-.864-.326c-.324-.096-.654-.201-.992-.314-.338-.113-.668-.246-.992-.4-.323-.152-.611-.346-.864-.58s-.455-.523-.607-.863c-.153-.342-.229-.754-.229-1.236 0-.449.089-.875.267-1.281.178-.404.439-.758.784-1.061.345-.301.775-.543 1.29-.725.516-.182 1.111-.271 1.786-.271.753 0 1.439.123 2.058.373.619.248 1.133.576 1.546.98l-.595.947zM403.467 587.168v-10.939h1.611c.341 0 .564.16.671.48l.171.811c.191-.213.393-.41.603-.588.21-.176.433-.33.671-.457.238-.129.494-.23.769-.305.273-.074.573-.111.901-.111.689 0 1.256.186 1.7.559s.776.869.997 1.488c.17-.363.383-.674.64-.934.256-.26.536-.471.843-.635.305-.162.63-.283.975-.361.346-.078.691-.117 1.04-.117.604 0 1.141.092 1.61.277.469.184.863.455 1.184.811.319.355.562.789.73 1.301.166.512.25 1.098.25 1.758v6.963h-2.634v-6.963c0-.695-.153-1.221-.458-1.572-.307-.352-.754-.527-1.344-.527-.271 0-.521.047-.752.139s-.434.225-.607.4c-.174.174-.311.393-.41.654-.1.264-.15.566-.15.906v6.963h-2.644v-6.963c0-.73-.147-1.264-.442-1.598-.295-.336-.73-.502-1.307-.502-.377 0-.73.094-1.061.283-.33.188-.639.445-.922.771v8.008h-2.635zM427.916 578.361c-.071.113-.146.193-.225.24s-.178.068-.298.068c-.128 0-.265-.035-.411-.105l-.506-.24c-.191-.09-.41-.17-.656-.24-.244-.07-.535-.107-.869-.107-.519 0-.927.111-1.226.332-.298.221-.448.508-.448.863 0 .234.076.432.229.592s.355.301.608.42c.252.121.538.23.857.326.32.096.647.201.981.314s.661.244.981.389c.319.146.605.332.857.555.252.225.455.492.607.805.153.314.23.689.23 1.131 0 .525-.097 1.012-.289 1.455-.191.445-.473.828-.842 1.152-.369.322-.826.576-1.37.756-.544.182-1.167.273-1.871.273-.377 0-.745-.035-1.104-.102-.358-.068-.704-.162-1.034-.283s-.637-.264-.917-.426c-.28-.164-.528-.342-.741-.533l.607-1.002c.078-.121.171-.215.277-.277.107-.064.242-.096.405-.096s.318.045.464.137c.146.094.314.193.506.299.193.107.418.207.678.299.26.094.588.139.986.139.312 0 .581-.037.805-.111.225-.074.409-.172.555-.293s.252-.262.32-.422c.066-.16.102-.324.102-.496 0-.256-.077-.465-.23-.629-.152-.164-.355-.305-.607-.426s-.54-.23-.863-.326c-.324-.096-.654-.201-.992-.314s-.668-.246-.991-.4c-.323-.152-.611-.346-.864-.58-.252-.234-.454-.523-.607-.863-.152-.342-.229-.754-.229-1.236 0-.449.088-.875.266-1.281.178-.404.439-.758.784-1.061.345-.301.774-.543 1.29-.725s1.111-.271 1.786-.271c.753 0 1.439.123 2.058.373.619.248 1.134.576 1.547.98l-.596.947z"/></g><path fill="#5E7E53" d="M421.542 537.326v6.709h-20.43v-23.637h7.576c-.025-.369-.042-.74-.042-1.111 0-1.303.175-2.568.5-3.787h-7.74c-2.504 0-4.551 2.051-4.551 4.557v41.213c0 2.506 2.047 4.555 4.551 4.555h19.842c2.506 0 4.556-2.049 4.556-4.555v-25.531c-.375-.029-.75-.059-1.119-.109-.959.567-2.034 1.143-3.143 1.696zm-14.728 24.492c0 .268-.22.486-.489.486h-4.958c-.268 0-.489-.219-.489-.486v-1.518c0-.27.222-.488.489-.488h4.958c.27 0 .489.219.489.488v1.518zm0-4.23c0 .271-.22.49-.489.49h-4.958c-.268 0-.489-.219-.489-.49v-1.518c0-.268.222-.488.489-.488h4.958c.27 0 .489.221.489.488v1.518zm0-4.229c0 .271-.22.488-.489.488h-4.958c-.268 0-.489-.217-.489-.488v-1.52c0-.266.222-.484.489-.484h4.958c.27 0 .489.219.489.484v1.52zm0-4.23c0 .271-.22.492-.489.492h-4.958c-.268 0-.489-.221-.489-.492v-1.516c0-.268.222-.49.489-.49h4.958c.27 0 .489.223.489.49v1.516zm7.482 12.689c0 .268-.215.486-.489.486h-4.96c-.269 0-.49-.219-.49-.486v-1.518c0-.27.222-.488.49-.488h4.96c.274 0 .489.219.489.488v1.518zm0-4.23c0 .271-.215.49-.489.49h-4.96c-.269 0-.49-.219-.49-.49v-1.518c0-.268.222-.488.49-.488h4.96c.274 0 .489.221.489.488v1.518zm0-4.229c0 .271-.215.488-.489.488h-4.96c-.269 0-.49-.217-.49-.488v-1.52c0-.266.222-.484.49-.484h4.96c.274 0 .489.219.489.484v1.52zm0-4.23c0 .271-.215.492-.489.492h-4.96c-.269 0-.49-.221-.49-.492v-1.516c0-.268.222-.49.49-.49h4.96c.274 0 .489.223.489.49v1.516zm7.483 12.689c0 .268-.218.486-.49.486h-4.957c-.273 0-.492-.219-.492-.486v-1.518c0-.27.219-.488.492-.488h4.957c.272 0 .49.219.49.488v1.518zm0-4.23c0 .271-.218.49-.49.49h-4.957c-.273 0-.492-.219-.492-.49v-1.518c0-.268.219-.488.492-.488h4.957c.272 0 .49.221.49.488v1.518zm0-4.229c0 .271-.218.488-.49.488h-4.957c-.273 0-.492-.217-.492-.488v-1.52c0-.266.219-.484.492-.484h4.957c.272 0 .49.219.49.484v1.52zm0-4.23c0 .271-.218.492-.49.492h-4.957c-.273 0-.492-.221-.492-.492v-1.516c0-.268.219-.49.492-.49h4.957c.272 0 .49.223.49.49v1.516zm5.598-44.637c-9.381 0-17.014 6.635-17.014 14.795 0 4.73 2.57 8.949 6.556 11.658.09 3.727-2.395 5.5-4.574 8.055 1.866-.197 7.958-2.672 11.975-5.16.992.16 2.016.24 3.058.24 9.384 0 17.019-6.637 17.019-14.793-.001-8.16-7.636-14.795-17.02-14.795zm-8.942 19.481c-.97 0-1.928-.25-2.405-.516l.389-1.586c.518.264 1.312.529 2.131.529.879 0 1.345-.365 1.345-.92 0-.527-.401-.832-1.421-1.195-1.412-.492-2.33-1.271-2.33-2.508 0-1.447 1.21-2.553 3.21-2.553.958 0 1.662.199 2.164.428l-.425 1.547c-.341-.162-.944-.398-1.777-.398-.827 0-1.231.375-1.231.816 0 .541.478.781 1.572 1.193 1.5.553 2.204 1.334 2.204 2.531-.002 1.425-1.097 2.632-3.426 2.632zm12.021-.125l-.124-3.25c-.037-1.018-.075-2.252-.075-3.484h-.039c-.262 1.078-.616 2.289-.943 3.285l-1.032 3.312h-1.499l-.906-3.287c-.277-.994-.567-2.203-.77-3.311h-.024c-.049 1.145-.085 2.455-.146 3.512l-.155 3.223h-1.773l.539-8.484h2.557l.833 2.828c.264.984.527 2.041.717 3.035h.034c.243-.98.531-2.1.809-3.045l.908-2.818h2.503l.468 8.484h-1.882zm5.43.125c-.97 0-1.925-.25-2.404-.516l.391-1.586c.516.264 1.31.529 2.128.529.88 0 1.345-.365 1.345-.92 0-.527-.399-.832-1.422-1.195-1.408-.492-2.331-1.271-2.331-2.508 0-1.447 1.21-2.553 3.213-2.553.957 0 1.663.199 2.165.428l-.429 1.547c-.341-.162-.942-.398-1.773-.398-.83 0-1.234.375-1.234.816 0 .541.479.777 1.573 1.193 1.5.553 2.205 1.334 2.205 2.531-.001 1.425-1.096 2.632-3.427 2.632z"/><g fill="#fff"><path d="M480.299 45.991v5.427h-2.869v-15.418h5.023c1.029 0 1.922.121 2.676.363s1.375.579 1.865 1.013.854.953 1.088 1.557c.234.604.352 1.266.352 1.983 0 .746-.123 1.431-.373 2.052-.248.622-.621 1.157-1.119 1.605s-1.119.796-1.865 1.045c-.748.249-1.621.373-2.623.373h-2.155zm0-2.239h2.154c.525 0 .984-.065 1.375-.197.391-.131.715-.32.971-.565s.447-.544.574-.896c.129-.352.193-.745.193-1.178 0-.412-.064-.786-.193-1.12-.127-.334-.318-.619-.574-.853s-.58-.414-.971-.539c-.391-.124-.85-.187-1.375-.187h-2.154v5.535zM490.514 51.418v-15.844h2.633v6.088c.428-.405.896-.732 1.408-.981.512-.249 1.111-.373 1.801-.373.598 0 1.127.102 1.59.304.461.203.848.487 1.156.853.309.366.545.804.703 1.312.16.508.24 1.068.24 1.68v6.962h-2.633v-6.962c0-.668-.154-1.186-.465-1.552-.309-.366-.771-.549-1.391-.549-.455 0-.881.103-1.279.309s-.775.487-1.131.842v7.912h-2.632zM507.307 40.308c.816 0 1.559.132 2.223.395.664.263 1.232.636 1.701 1.12s.832 1.073 1.088 1.77.383 1.475.383 2.335c0 .867-.127 1.649-.383 2.346-.256.697-.619 1.29-1.088 1.781-.469.49-1.037.867-1.701 1.13-.664.263-1.406.395-2.223.395-.818 0-1.561-.132-2.229-.395-.668-.263-1.238-.64-1.711-1.13-.473-.491-.84-1.084-1.098-1.781-.26-.696-.391-1.479-.391-2.346 0-.86.131-1.638.391-2.335.258-.697.625-1.287 1.098-1.77s1.043-.856 1.711-1.12c.668-.263 1.41-.395 2.229-.395zm0 9.245c.91 0 1.584-.306 2.02-.917.438-.611.656-1.507.656-2.687s-.219-2.079-.656-2.698c-.436-.618-1.109-.928-2.02-.928-.924 0-1.607.311-2.047.933-.441.622-.662 1.52-.662 2.692s.221 2.067.662 2.682c.439.615 1.123.923 2.047.923zM514.76 51.418v-10.939h1.609c.342 0 .566.16.672.479l.182.864c.221-.228.453-.434.697-.619.246-.185.506-.345.779-.479.273-.135.566-.238.879-.31.312-.071.654-.106 1.023-.106.598 0 1.127.102 1.59.304.461.203.848.487 1.156.853.309.366.545.804.703 1.312.16.508.24 1.068.24 1.68v6.962h-2.633v-6.962c0-.668-.154-1.186-.465-1.552-.309-.366-.771-.549-1.391-.549-.455 0-.881.103-1.279.309s-.775.487-1.131.842v7.912h-2.631zM531.404 40.308c.688 0 1.322.11 1.902.331s1.078.542 1.498.965c.42.423.746.942.98 1.557.234.615.352 1.317.352 2.106 0 .199-.008.364-.025.496-.018.131-.051.234-.096.309-.047.075-.109.128-.188.16-.078.032-.178.048-.299.048h-6.76c.078 1.123.381 1.948.906 2.474s1.223.789 2.09.789c.428 0 .795-.05 1.104-.149s.58-.209.811-.331l.607-.331s.344-.149.508-.149c.105 0 .197.021.275.064.078.043.146.104.203.182l.768.959c-.291.341-.617.627-.98.858s-.74.416-1.135.554-.797.236-1.205.293c-.41.057-.805.085-1.189.085-.76 0-1.469-.126-2.121-.379-.654-.252-1.223-.625-1.707-1.12-.482-.494-.863-1.105-1.141-1.833s-.416-1.573-.416-2.533c0-.746.121-1.448.363-2.105.24-.658.588-1.23 1.039-1.717s1.002-.873 1.652-1.157 1.386-.426 2.204-.426zm.053 1.887c-.768 0-1.369.217-1.803.65s-.711 1.049-.832 1.845h4.947c0-.341-.045-.663-.139-.965-.092-.302-.234-.567-.426-.794s-.434-.407-.725-.539c-.29-.131-.631-.197-1.022-.197z"/></g><g fill="#5DC7C3"><path d="M456.443 38.25h-4.355v-4.877c0-.98-.793-1.775-1.773-1.775s-1.771.795-1.771 1.775v1.329h-11.18v-1.329c0-.98-.795-1.775-1.771-1.775-.98 0-1.773.795-1.773 1.775v4.877h-4.355c-2.314 0-4.191 1.878-4.191 4.189v17.691h35.361v-17.69c-.002-2.312-1.877-4.19-4.192-4.19zm-13.49 18.776c-4.654 0-8.426-3.774-8.426-8.426 0-1.279.293-2.488.807-3.575.291-.628.652-1.215 1.088-1.747.285-.35.605-.674.941-.973 1.492-1.323 3.441-2.131 5.59-2.131 2.146 0 4.098.808 5.59 2.131.334.299.654.623.941.973.434.532.799 1.119 1.092 1.747.51 1.087.803 2.296.803 3.575 0 4.651-3.774 8.426-8.426 8.426zM444.455 43.278c-.479-.135-.984-.211-1.502-.211-.523 0-1.023.076-1.5.211-2.324.654-4.035 2.785-4.035 5.322 0 3.056 2.479 5.533 5.535 5.533s5.533-2.478 5.533-5.533c0-2.537-1.707-4.668-4.031-5.322zM464.117 27.5c-1.533-.639-3.08-1.213-4.643-1.712-10.777-3.435-22.268-3.435-33.041 0-1.564.499-3.115 1.073-4.641 1.712-2.545 1.071-3.91 3.662-3.383 5.828.066.294.164.583.295.861l.332.694c1.152 2.317 3.918 3.161 6.266 2.18 1.275-.536 2.566-1.013 3.871-1.428 2.193-.705 3.719-2.821 3.67-5.156 6.674-1.413 13.545-1.413 20.217 0-.049 2.333 1.477 4.451 3.67 5.156 1.305.415 2.596.892 3.869 1.428 2.352.981 5.115.138 6.266-2.18l.334-.694c.133-.278.229-.567.299-.861.525-2.166-.84-4.757-3.381-5.828z"/></g><g fill="#fff"><path d="M569.101 267.062c0 1.129-.188 2.176-.564 3.139-.377.965-.906 1.797-1.59 2.502-.682.703-1.502 1.252-2.463 1.646-.959.395-2.021.592-3.188.592s-2.23-.197-3.193-.592-1.787-.943-2.475-1.646c-.686-.705-1.217-1.537-1.594-2.502-.377-.963-.564-2.01-.564-3.139 0-1.131.188-2.178.564-3.141s.908-1.797 1.594-2.5c.688-.703 1.512-1.254 2.475-1.648s2.027-.592 3.193-.592 2.229.199 3.188.598c.961.398 1.781.947 2.463 1.648.684.699 1.213 1.531 1.59 2.494s.564 2.01.564 3.141zm-2.944 0c0-.846-.111-1.605-.336-2.277-.223-.672-.545-1.242-.965-1.711-.418-.469-.93-.828-1.529-1.076-.602-.25-1.277-.373-2.031-.373s-1.432.123-2.037.373c-.604.248-1.117.607-1.541 1.076-.422.469-.748 1.039-.975 1.711-.229.672-.342 1.432-.342 2.277s.113 1.604.342 2.275c.227.672.553 1.24.975 1.707.424.465.938.822 1.541 1.07.605.25 1.283.373 2.037.373s1.43-.123 2.031-.373c.6-.248 1.111-.605 1.529-1.07.42-.467.742-1.035.965-1.707.225-.672.336-1.43.336-2.275zM574.806 274.94c-.945 0-1.676-.268-2.188-.805s-.768-1.277-.768-2.223v-6.109h-1.107c-.143 0-.266-.047-.369-.139-.102-.094-.154-.232-.154-.416v-1.045l1.76-.289.555-2.984c.027-.143.094-.252.197-.332.102-.078.232-.117.389-.117h1.365v3.445h2.879v1.877h-2.879v5.928c0 .342.084.607.256.799.17.193.398.289.682.289.164 0 .301-.02.41-.059l.289-.123.219-.123c.062-.039.127-.059.191-.059.078 0 .143.02.191.059l.16.176.789 1.279c-.383.32-.824.562-1.322.727-.498.162-1.012.244-1.545.244zM579.464 274.771v-15.846h2.635v6.09c.426-.406.895-.732 1.406-.982.512-.248 1.113-.373 1.803-.373.598 0 1.127.102 1.588.305.463.203.848.486 1.158.854.309.365.543.803.703 1.311s.24 1.068.24 1.68v6.963h-2.635v-6.963c0-.668-.154-1.186-.463-1.551-.309-.367-.773-.551-1.391-.551-.455 0-.883.104-1.281.311-.396.205-.773.486-1.129.842v7.912h-2.634zM596.108 263.659c.689 0 1.324.111 1.902.332.58.219 1.08.541 1.498.965.42.422.748.941.982 1.557.234.613.352 1.316.352 2.105 0 .199-.01.363-.027.496-.018.131-.049.234-.096.309s-.107.127-.186.16c-.08.031-.178.047-.299.047h-6.76c.078 1.125.379 1.949.906 2.475.525.525 1.223.789 2.09.789.426 0 .793-.049 1.104-.148.309-.1.578-.211.811-.332l.607-.33c.174-.1.342-.148.506-.148.107 0 .199.021.277.062.078.043.146.104.203.182l.768.959c-.293.342-.619.629-.98.859-.363.23-.742.416-1.137.555s-.797.236-1.205.293-.805.086-1.188.086c-.762 0-1.469-.127-2.123-.379s-1.223-.625-1.705-1.119c-.484-.494-.863-1.105-1.141-1.834s-.416-1.574-.416-2.533c0-.746.121-1.447.361-2.105.242-.658.588-1.23 1.041-1.717.451-.486 1.002-.873 1.652-1.156.653-.287 1.385-.43 2.203-.43zm.053 1.889c-.768 0-1.367.217-1.801.65s-.711 1.047-.832 1.844h4.947c0-.342-.047-.662-.139-.965s-.234-.566-.426-.795c-.193-.227-.434-.406-.727-.537-.289-.133-.631-.197-1.022-.197zM602.985 274.771v-10.939h1.545c.271 0 .459.049.566.148.105.1.178.27.213.512l.16 1.322c.391-.676.85-1.209 1.375-1.6s1.115-.586 1.77-.586c.541 0 .988.125 1.344.373l-.342 1.973c-.02.127-.066.219-.139.271-.07.053-.166.08-.287.08-.107 0-.252-.025-.438-.074-.184-.051-.43-.074-.734-.074-.549 0-1.018.15-1.408.453-.391.301-.721.744-.992 1.326v6.814h-2.633z"/></g><circle fill="#C8B330" cx="583.635" cy="230.58" r="23.769"/><path fill="#fff" d="M592.911 231.347c0 5.121-4.154 9.274-9.277 9.274-5.125 0-9.281-4.153-9.281-9.274 0-5.125 4.156-9.276 9.281-9.276 5.123 0 9.277 4.151 9.277 9.276z"/><g fill="#fff"><path d="M525.356 392.933c.156 0 .291.061.404.182l1.131 1.227c-.627.775-1.396 1.367-2.309 1.779-.914.414-2.01.619-3.289.619-1.145 0-2.174-.195-3.088-.586-.912-.391-1.693-.936-2.34-1.631-.646-.697-1.143-1.529-1.488-2.496-.344-.967-.516-2.021-.516-3.166 0-1.158.191-2.221.576-3.184.383-.963.924-1.793 1.619-2.49.697-.695 1.531-1.238 2.5-1.625.971-.387 2.043-.582 3.215-.582 1.145 0 2.146.184 3.002.551.857.365 1.59.85 2.201 1.455l-.959 1.332c-.057.086-.129.16-.219.225-.088.064-.211.096-.367.096-.164 0-.33-.064-.502-.191-.17-.129-.387-.268-.65-.416-.262-.15-.596-.289-.996-.416-.402-.129-.912-.191-1.531-.191-.725 0-1.391.125-1.998.377-.607.254-1.131.613-1.568 1.082-.436.471-.777 1.041-1.023 1.713-.244.672-.367 1.426-.367 2.266 0 .867.123 1.639.367 2.312.246.676.578 1.244.998 1.707.418.461.912.814 1.482 1.061.568.246 1.18.367 1.834.367.391 0 .744-.021 1.061-.062.316-.043.607-.111.873-.203.268-.092.52-.211.758-.357s.475-.324.709-.539l.225-.154s.162-.062.255-.062zM537.478 396.569h-1.182c-.25 0-.445-.037-.588-.113-.143-.074-.248-.225-.318-.453l-.236-.777c-.277.248-.549.467-.814.656-.268.188-.543.346-.826.475-.285.127-.588.223-.906.287-.32.064-.676.096-1.066.096-.463 0-.889-.062-1.279-.188-.393-.125-.727-.311-1.008-.561s-.5-.561-.656-.932-.234-.803-.234-1.295c0-.412.107-.82.324-1.225.217-.402.578-.766 1.084-1.09.504-.326 1.176-.594 2.014-.809.84-.213 1.881-.32 3.125-.32v-.645c0-.738-.154-1.285-.465-1.639-.309-.355-.758-.533-1.348-.533-.428 0-.783.051-1.066.15-.285.1-.531.211-.742.336l-.58.336s-.373.148-.586.148c-.178 0-.332-.045-.459-.139-.129-.092-.23-.205-.309-.34l-.48-.844c1.258-1.15 2.775-1.727 4.553-1.727.641 0 1.211.105 1.711.314.502.209.926.502 1.275.875.348.373.611.818.793 1.338.182.518.271 1.088.271 1.705v6.914zm-5.118-1.642c.27 0 .52-.025.746-.074.229-.049.443-.121.646-.219.201-.1.396-.219.586-.363.188-.143.379-.312.57-.508v-1.832c-.768 0-1.41.049-1.926.145-.514.098-.928.221-1.242.371-.312.15-.533.326-.666.525-.131.201-.197.42-.197.656 0 .465.137.797.41.998.276.201.632.301 1.073.301zM542.874 380.724v15.846h-2.635v-15.846h2.635zM548.653 380.724v15.846h-2.635v-15.846h2.635zM566.491 392.933c.156 0 .291.061.404.182l1.131 1.227c-.627.775-1.396 1.367-2.309 1.779-.914.414-2.01.619-3.289.619-1.145 0-2.174-.195-3.088-.586-.912-.391-1.693-.936-2.34-1.631-.646-.697-1.143-1.529-1.488-2.496-.344-.967-.516-2.021-.516-3.166 0-1.158.191-2.221.576-3.184.383-.963.924-1.793 1.619-2.49.697-.695 1.531-1.238 2.5-1.625.971-.387 2.043-.582 3.215-.582 1.145 0 2.146.184 3.002.551.857.365 1.59.85 2.201 1.455l-.959 1.332c-.057.086-.129.16-.219.225-.088.064-.211.096-.367.096-.164 0-.33-.064-.502-.191-.17-.129-.387-.268-.65-.416-.262-.15-.596-.289-.996-.416-.402-.129-.912-.191-1.531-.191-.725 0-1.391.125-1.998.377-.607.254-1.131.613-1.568 1.082-.436.471-.777 1.041-1.023 1.713-.244.672-.367 1.426-.367 2.266 0 .867.123 1.639.367 2.312.246.676.578 1.244.998 1.707.418.461.912.814 1.482 1.061.568.246 1.18.367 1.834.367.391 0 .744-.021 1.061-.062.316-.043.607-.111.873-.203.268-.092.52-.211.758-.357s.475-.324.709-.539l.225-.154s.161-.062.255-.062zM574.562 385.458c.689 0 1.324.111 1.902.332.58.219 1.08.541 1.498.965.42.422.748.941.982 1.557.234.613.352 1.316.352 2.105 0 .199-.01.363-.027.496-.018.131-.049.234-.096.309s-.107.127-.186.16c-.08.031-.178.047-.299.047h-6.76c.078 1.125.379 1.949.906 2.475.525.525 1.223.789 2.09.789.426 0 .793-.049 1.104-.148.309-.1.578-.211.811-.332l.607-.33c.174-.1.342-.148.506-.148.107 0 .199.021.277.062.078.043.146.104.203.182l.768.959c-.293.342-.619.629-.98.859-.363.23-.742.416-1.137.555s-.797.236-1.205.293-.805.086-1.188.086c-.762 0-1.469-.127-2.123-.379s-1.223-.625-1.705-1.119c-.484-.494-.863-1.105-1.141-1.834s-.416-1.574-.416-2.533c0-.746.121-1.447.361-2.105.242-.658.588-1.23 1.041-1.717.451-.486 1.002-.873 1.652-1.156.652-.287 1.384-.43 2.203-.43zm.052 1.889c-.768 0-1.367.217-1.801.65s-.711 1.047-.832 1.844h4.947c0-.342-.047-.662-.139-.965s-.234-.566-.426-.795c-.193-.227-.434-.406-.727-.537-.289-.133-.631-.197-1.022-.197zM581.438 396.569v-10.939h1.609c.342 0 .566.16.672.479l.182.863c.221-.227.453-.432.697-.617.246-.186.506-.346.779-.48s.566-.238.879-.309.654-.107 1.023-.107c.598 0 1.127.102 1.59.305.461.203.848.486 1.156.854.309.365.545.803.703 1.311.16.508.24 1.068.24 1.68v6.963h-2.633v-6.963c0-.668-.154-1.186-.465-1.551-.309-.367-.771-.551-1.391-.551-.455 0-.881.104-1.279.311-.398.205-.775.486-1.131.842v7.912h-2.631zM597.155 396.739c-.945 0-1.676-.268-2.188-.805s-.768-1.277-.768-2.223v-6.109h-1.107c-.143 0-.266-.047-.369-.139-.102-.094-.154-.232-.154-.416v-1.045l1.76-.289.555-2.984c.027-.143.094-.252.197-.332.102-.078.232-.117.389-.117h1.365v3.445h2.879v1.877h-2.879v5.928c0 .342.084.607.256.799.17.193.398.289.682.289.164 0 .301-.02.41-.059l.289-.123.219-.123c.062-.039.127-.059.191-.059.078 0 .143.02.191.059l.16.176.789 1.279c-.383.32-.824.562-1.322.727-.498.162-1.012.244-1.545.244zM601.813 396.569v-10.939h1.547c.27 0 .459.049.564.148.107.1.178.27.213.512l.16 1.322c.391-.676.85-1.209 1.377-1.6.525-.391 1.115-.586 1.77-.586.539 0 .988.125 1.344.373l-.342 1.973c-.021.127-.068.219-.139.271s-.168.08-.287.08c-.107 0-.254-.025-.438-.074-.186-.051-.43-.074-.736-.074-.547 0-1.016.15-1.408.453-.391.301-.721.744-.99 1.326v6.814h-2.635zM615.046 385.458c.689 0 1.324.111 1.902.332.58.219 1.08.541 1.498.965.42.422.748.941.982 1.557.234.613.352 1.316.352 2.105 0 .199-.01.363-.027.496-.018.131-.049.234-.096.309s-.107.127-.186.16c-.08.031-.178.047-.299.047h-6.76c.078 1.125.379 1.949.906 2.475.525.525 1.223.789 2.09.789.426 0 .793-.049 1.104-.148.309-.1.578-.211.811-.332l.607-.33c.174-.1.342-.148.506-.148.107 0 .199.021.277.062.078.043.146.104.203.182l.768.959c-.293.342-.619.629-.98.859-.363.23-.742.416-1.137.555s-.797.236-1.205.293-.805.086-1.188.086c-.762 0-1.469-.127-2.123-.379s-1.223-.625-1.705-1.119c-.484-.494-.863-1.105-1.141-1.834s-.416-1.574-.416-2.533c0-.746.121-1.447.361-2.105.242-.658.588-1.23 1.041-1.717.451-.486 1.002-.873 1.652-1.156.652-.287 1.385-.43 2.203-.43zm.053 1.889c-.768 0-1.367.217-1.801.65s-.711 1.047-.832 1.844h4.947c0-.342-.047-.662-.139-.965s-.234-.566-.426-.795c-.193-.227-.434-.406-.727-.537-.29-.133-.632-.197-1.022-.197z"/></g><g fill="#48C7F4"><path d="M572.513 335.635l-17.372-.081c-6.428.174-8.793 5.351-8.793 7.153v25.593c0 1.587 1.285 2.863 2.853 2.863 1.59 0 2.876-1.276 2.876-2.863v-20.979h2.434v20.106c0 .277.035.55.069.8v.546c.174-.031 15.552.049 17.934-.074v-21.378h2.162v20.979c0 1.587 1.374 2.863 3.065 2.863 1.701 0 3.076-1.276 3.076-2.863v-25.926c-.001-2.188-2.872-6.739-8.304-6.739zM563.324 334.304c3.805 0 6.885-3.074 6.885-6.885 0-3.801-3.08-6.882-6.885-6.882-3.801 0-6.88 3.081-6.88 6.882 0 3.811 3.079 6.885 6.88 6.885zM586.42 340.688v-1.934c0-1.277-1.674-3.936-4.846-3.936l-10.146-.046c-3.753.1-5.134 3.125-5.134 4.177v1.376c6.71.02 13.419.173 20.126.363zM576.357 334.041c2.221 0 4.02-1.794 4.02-4.02 0-2.221-1.799-4.021-4.02-4.021-2.219 0-4.019 1.8-4.019 4.021.001 2.225 1.801 4.02 4.019 4.02zM560.639 341.262c.244.004.465.031.691.055v-2.463c0-1.053-1.383-4.077-5.138-4.177l-10.142.044c-3.174 0-4.848 2.66-4.848 3.938v2.584c6.48-.141 12.956.005 19.437.019zM551.011 333.946c-2.221 0-4.022-1.795-4.022-4.021 0-2.22 1.802-4.02 4.022-4.02 2.218 0 4.015 1.8 4.015 4.02-.001 2.226-1.797 4.021-4.015 4.021zM589.588 329.65c.014-.438.012-.873-.012-1.304-.156-2.979-1.226-5.813-3.077-8.149-.267-.339-.554-.668-.854-.984-.504-.529-1.268-.624-1.754-.293l-.185.155-.14.146c-.46.498-.417 1.26.047 1.747.252.265.489.538.713.822.38.476 1.04.653 1.612.424.971 1.516 1.61 3.21 1.883 4.986-.579.207-.958.777-.929 1.384.017.362.02.726.01 1.087-.025.671.439 1.276 1.117 1.345l.203.016.243-.007c.582-.072 1.094-.651 1.123-1.375zM538.65 330.594c-.018-.438-.014-.872.008-1.305.156-2.978 1.229-5.812 3.078-8.149.27-.34.555-.667.854-.984.502-.529 1.267-.624 1.751-.293l.188.155.139.146c.464.499.416 1.26-.048 1.748-.249.264-.487.538-.712.822-.376.474-1.039.654-1.613.422-.968 1.517-1.609 3.208-1.883 4.987.579.205.96.778.931 1.384-.019.362-.022.723-.009 1.088.022.671-.441 1.274-1.12 1.341l-.202.019-.241-.009c-.583-.07-1.095-.646-1.121-1.372z"/></g><g fill="#ED1C24"><path opacity=".7" d="M97.275 235.51h-6.855v-44.127c0-1.339-1.088-2.427-2.427-2.427h-65.881c-1.338 0-2.429 1.088-2.429 2.427v44.127h-6.849c-1.768 0-3.202 1.437-3.202 3.201v2.967c0 1.76 1.435 3.197 3.202 3.197h84.44c1.764 0 3.2-1.438 3.2-3.197v-2.967c.001-1.764-1.435-3.201-3.199-3.201zm-28.417 2.631c0 .669-.547 1.214-1.223 1.214h-25.168c-.673 0-1.217-.545-1.217-1.214v-1.128l.037-.296h27.533l.038.296v1.128zm14.168 3.357c-.564 0-1.024-.456-1.024-1.022 0-.563.46-1.021 1.024-1.021.561 0 1.017.458 1.017 1.021-.001.566-.457 1.022-1.017 1.022zm1.153-7.78h-58.25v-38.973c0-.04.051-.1.129-.1h57.991c.073 0 .13.06.13.1v38.973zm3.551 7.78c-.56 0-1.018-.456-1.018-1.022 0-.563.458-1.021 1.018-1.021.562 0 1.023.458 1.023 1.021 0 .566-.461 1.022-1.023 1.022zm4.709 0c-.562 0-1.022-.456-1.022-1.022 0-.563.46-1.021 1.022-1.021s1.017.458 1.017 1.021c0 .566-.455 1.022-1.017 1.022z"/><path opacity=".7" fill-rule="evenodd" clip-rule="evenodd" d="M28.944 196.151h52.061v5.062h-52.061zM29.403 204.219h16.311v25.801h-16.311zM72.651 204.848h6.824v8.782h-6.824zM72.651 214.805h6.901v8.314h-6.901z"/><path opacity=".7" stroke="#ED1C24" stroke-miterlimit="10" d="M48.262 206.101h23.448M48.262 208.847h23.448M48.262 211.906h23.448M48.262 214.57h23.448M48.262 219.276h23.448M48.262 222.022h23.448M48.262 225.08h31.21M48.262 227.745h31.21"/></g><g fill="#fff"><path d="M566.967 81.825v2.282h-6.834v4.276h5.385v2.207h-5.385v4.361h6.834v2.292h-9.725v-15.418h9.725zM568.961 89.705h5.521v2.197h-5.521v-2.197zM576.957 97.243v-10.939h1.609c.342 0 .566.16.672.479l.17.811c.193-.213.395-.409.604-.586s.434-.331.672-.458.494-.229.768-.304c.273-.074.574-.112.9-.112.689 0 1.256.187 1.701.56.443.373.775.869.996 1.487.172-.363.385-.673.641-.933.256-.259.537-.471.842-.634.307-.164.631-.284.977-.363.344-.078.691-.117 1.039-.117.604 0 1.141.092 1.609.277s.863.455 1.184.81c.32.356.564.789.73 1.301.168.512.25 1.098.25 1.759v6.962h-2.633v-6.962c0-.697-.152-1.221-.459-1.573-.305-.352-.752-.528-1.344-.528-.27 0-.52.046-.75.139-.232.092-.434.226-.609.4-.174.174-.311.393-.41.655-.1.263-.148.565-.148.907v6.962h-2.645v-6.962c0-.732-.148-1.265-.443-1.6-.295-.334-.73-.501-1.305-.501-.377 0-.73.094-1.062.282-.33.188-.637.446-.922.773v8.007h-2.634zM603.484 97.243h-1.182c-.25 0-.445-.037-.588-.112s-.248-.226-.318-.453l-.236-.778c-.277.249-.549.467-.814.656-.268.188-.543.346-.826.474-.285.128-.588.224-.906.288-.32.064-.676.096-1.066.096-.463 0-.889-.062-1.279-.187-.393-.125-.727-.312-1.008-.562s-.5-.56-.656-.931c-.156-.371-.234-.802-.234-1.294 0-.414.107-.822.324-1.225s.578-.767 1.084-1.091c.504-.324 1.176-.594 2.014-.808.84-.214 1.881-.321 3.125-.321v-.645c0-.738-.154-1.284-.465-1.639-.309-.354-.758-.532-1.348-.532-.428 0-.783.05-1.066.149-.285.1-.531.212-.742.336l-.58.336c-.178.1-.373.149-.586.149-.178 0-.332-.046-.459-.139-.129-.092-.23-.206-.309-.341l-.48-.842c1.258-1.151 2.775-1.727 4.553-1.727.641 0 1.211.105 1.711.314.502.209.926.501 1.275.874.348.374.611.819.793 1.338s.271 1.087.271 1.706v6.911zm-5.117-1.642c.27 0 .52-.024.746-.073.229-.049.443-.123.646-.221.201-.098.396-.218.586-.362.188-.144.379-.313.57-.509v-1.831c-.768 0-1.41.048-1.926.145-.514.097-.928.22-1.242.371-.312.15-.533.326-.666.526-.131.2-.197.418-.197.655 0 .465.137.798.41.999.276.2.632.3 1.073.3zM609.275 83.115c0 .228-.047.441-.139.64-.094.199-.215.373-.369.522-.152.149-.332.268-.537.357-.207.089-.428.133-.662.133-.227 0-.441-.044-.645-.133s-.379-.208-.527-.357c-.15-.149-.27-.324-.357-.522-.09-.199-.133-.413-.133-.64 0-.234.043-.455.133-.661.088-.206.207-.384.357-.533.148-.149.324-.269.527-.357s.418-.133.645-.133c.234 0 .455.044.662.133.205.089.385.208.537.357.154.149.275.327.369.533.093.207.139.427.139.661zm-.394 3.189v10.939h-2.635v-10.939h2.635zM614.66 81.399v15.844h-2.635v-15.844h2.635z"/></g><path fill="#0E5461" d="M577.25 136.804c0 19.769-16.02 35.795-35.791 35.795-19.77 0-35.795-16.026-35.795-35.795s16.025-35.794 35.795-35.794c19.771 0 35.791 16.026 35.791 35.794z"/><g fill-rule="evenodd" clip-rule="evenodd"><path fill="#fff" d="M516.92 141.12c-.248-11.48 4.641-19.099 14.146-23.153 9.629-4.088 19.225-3.605 27.592 3.551 6.377 5.44 7.723 13.54 3.826 21.003-3.887 7.45-9.295 9.954-18.018 7.771-2.02-.499-3.137.634-4.676.936-6.357 1.248-10.564-1.639-11.572-8.142-1.705-10.999 5.873-18.879 16.338-16.766 1.498.304 2.295-.635 3.436-.749 2.928-.297 4.326.847 3.768 3.983-.773 4.315-1.443 8.632-2.064 12.957-.168 1.156-.895 2.688.479 3.418 1.547.834 2.771-.44 3.861-1.379 7.406-6.345 4.699-19.587-4.73-23.279-7.6-2.979-16.377-.777-21.652 5.406-5.078 5.983-6.105 15.902-2.285 22.282 3.672 6.146 13.262 9.816 21.574 8.085 4.131-.873 7.936-2.442 10.936-5.669 1.275-1.367 2.816-4.062 5.014-1.913 2.229 2.181.012 4.21-1.475 5.883-4.02 4.479-9.527 5.808-15.121 6.709-11.027 1.769-22.658-3.315-27.129-11.588-1.748-3.24-2.42-6.629-2.248-9.346z"/><path fill="#0E5461" d="M544.588 134.579c-.582 3.315-1.66 7.103-3.797 10.49-.773 1.228-1.832 2.501-3.557 1.895-1.732-.611-2.561-1.966-2.623-3.861-.125-4.395 1.627-8.104 4.113-11.55.889-1.227 2.174-2.119 3.77-1.659 1.985.569 2.121 2.324 2.094 4.685z"/></g><g fill="#fff"><path d="M171.083 248.31h2.891v1.359c0 .142-.042.262-.126.36-.084.098-.216.146-.393.146h-2.371v5.021h-2.091v-5.021h-8.458c-.178 0-.331-.051-.459-.153-.129-.102-.211-.229-.247-.38l-.24-1.212 9.284-12.321h2.211v12.201zm-2.091-7.872c0-.23.007-.479.02-.746.013-.267.042-.542.087-.826l-6.94 9.444h6.833v-7.872zM181.818 247.365c-.719 0-1.401-.12-2.044-.36-.644-.24-1.21-.593-1.698-1.059-.489-.466-.877-1.039-1.166-1.718-.289-.679-.433-1.458-.433-2.337 0-.834.155-1.616.466-2.344.311-.728.746-1.363 1.305-1.905.56-.542 1.226-.968 1.998-1.279.773-.311 1.621-.466 2.544-.466.915 0 1.745.151 2.491.453.746.302 1.385.724 1.918 1.265.533.542.943 1.19 1.232 1.945s.433 1.59.433 2.504c0 .551-.051 1.072-.153 1.565-.102.493-.251.975-.446 1.445s-.428.939-.699 1.405c-.271.466-.579.948-.926 1.445l-4.648 6.713c-.116.169-.28.304-.493.406-.213.103-.458.153-.733.153h-2.185l5.808-7.606.546-.732c.168-.231.328-.461.479-.693-.489.391-1.039.688-1.652.893-.612.205-1.26.307-1.944.307zm4.769-5.581c0-.595-.095-1.134-.286-1.619-.191-.484-.455-.895-.792-1.232-.338-.337-.739-.597-1.206-.779s-.979-.273-1.539-.273c-.586 0-1.121.095-1.605.286s-.897.455-1.239.792c-.342.338-.606.742-.792 1.212s-.28.985-.28 1.545c0 .604.086 1.144.26 1.619s.422.877.746 1.205c.324.329.719.578 1.185.746.466.169.988.253 1.565.253.639 0 1.206-.104 1.698-.313.493-.208.908-.486 1.245-.833.337-.346.595-.746.773-1.199.178-.451.267-.922.267-1.41zM199.374 240.718c0 .746-.115 1.415-.346 2.005s-.54 1.088-.926 1.492c-.386.404-.837.713-1.352.926s-1.052.32-1.611.32c-.604 0-1.161-.107-1.672-.32s-.957-.521-1.338-.926c-.382-.404-.68-.901-.893-1.492-.213-.59-.32-1.259-.32-2.005 0-.764.106-1.443.32-2.038.213-.595.51-1.096.893-1.505.381-.408.828-.719 1.338-.933.511-.213 1.068-.319 1.672-.319.595 0 1.152.106 1.671.319.52.213.968.524 1.345.933.377.409.675.91.893 1.505.217.595.326 1.274.326 2.038zm6.673-4.129c.115-.151.238-.269.366-.353.129-.084.3-.127.513-.127h1.705l-13.946 18.702c-.089.115-.195.208-.32.28-.124.071-.271.106-.439.106h-1.758l13.879-18.608zm-8.525 4.129c0-.586-.062-1.083-.187-1.492-.125-.408-.295-.744-.513-1.006-.217-.262-.471-.451-.759-.566-.289-.115-.598-.173-.926-.173-.329 0-.638.058-.926.173-.289.115-.54.304-.753.566-.213.262-.379.598-.5 1.006-.12.409-.18.906-.18 1.492 0 .578.06 1.068.18 1.472.12.404.287.732.5.985.213.253.464.436.753.546.288.111.597.167.926.167.328 0 .637-.056.926-.167.288-.111.542-.293.759-.546.218-.253.389-.582.513-.985.125-.404.187-.895.187-1.472zm12.401 9.977c0 .746-.116 1.412-.347 1.998-.231.586-.54 1.082-.926 1.485-.386.404-.834.713-1.345.926-.511.213-1.045.32-1.605.32-.604 0-1.161-.106-1.671-.32-.511-.213-.957-.521-1.339-.926-.382-.404-.679-.899-.893-1.485-.213-.586-.319-1.252-.319-1.998 0-.764.106-1.445.319-2.045.213-.599.511-1.103.893-1.512.382-.408.828-.719 1.339-.933.51-.213 1.067-.319 1.671-.319.595 0 1.15.106 1.665.319.515.213.963.524 1.345.933.382.409.679.913.893 1.512.213.6.32 1.281.32 2.045zm-1.838 0c0-.586-.062-1.086-.187-1.499-.125-.413-.295-.748-.513-1.006-.218-.257-.471-.444-.759-.56-.289-.115-.597-.173-.926-.173s-.637.058-.926.173c-.289.116-.54.302-.752.56-.213.258-.38.593-.5 1.006-.12.413-.18.912-.18 1.499 0 .577.06 1.065.18 1.465.12.4.286.726.5.979.213.253.464.436.752.546s.597.167.926.167.637-.056.926-.167.542-.293.759-.546c.217-.253.388-.579.513-.979s.187-.888.187-1.465z"/></g><g fill="#fff"><path d="M398.445 139.156c.808 0 1.554.116 2.238.346.684.231 1.272.56 1.765.986.493.426.877.941 1.152 1.545.275.604.413 1.274.413 2.012 0 .604-.078 1.143-.233 1.618s-.377.893-.666 1.252c-.289.36-.637.664-1.045.913-.409.249-.866.449-1.373.6 1.244.329 2.177.879 2.804 1.651.626.772.939 1.741.939 2.904 0 .879-.167 1.669-.5 2.371s-.788 1.299-1.365 1.792c-.578.493-1.25.871-2.018 1.132s-1.592.393-2.471.393c-1.013 0-1.878-.126-2.598-.379s-1.328-.602-1.825-1.045c-.498-.444-.906-.97-1.226-1.579s-.59-1.268-.812-1.978l1.012-.426c.187-.08.373-.12.56-.12.178 0 .335.038.473.113.137.076.242.193.313.353l.053.113.053.126c.124.258.275.548.453.873s.417.628.719.913.677.524 1.125.719c.449.195 1.006.293 1.672.293s1.25-.109 1.751-.326c.501-.218.919-.5 1.252-.846.332-.346.584-.732.752-1.159.169-.426.254-.848.254-1.265 0-.515-.069-.986-.207-1.412s-.387-.794-.746-1.105-.857-.555-1.492-.733c-.635-.177-1.45-.266-2.444-.266v-1.735c.808 0 1.499-.084 2.071-.253.573-.168 1.041-.399 1.405-.692.364-.293.628-.644.793-1.053.164-.408.246-.861.246-1.358 0-.55-.087-1.03-.26-1.438-.174-.409-.411-.746-.713-1.012-.302-.267-.659-.466-1.072-.6s-.859-.2-1.339-.2-.923.071-1.332.213c-.408.142-.771.339-1.085.592-.315.253-.579.555-.792.905-.213.351-.373.729-.479 1.138-.071.257-.178.443-.32.559s-.324.173-.546.173l-.14-.006-.167-.02-1.239-.21c.125-.87.364-1.641.72-2.311.355-.67.806-1.232 1.352-1.685.546-.453 1.172-.797 1.878-1.032s1.47-.354 2.287-.354zM415.055 143.978c0 .746-.115 1.415-.347 2.005s-.54 1.088-.926 1.492c-.386.404-.837.713-1.353.926-.515.213-1.052.32-1.611.32-.604 0-1.16-.107-1.672-.32-.51-.213-.957-.521-1.338-.926-.383-.404-.68-.901-.893-1.492s-.32-1.259-.32-2.005c0-.764.107-1.443.32-2.038.213-.595.51-1.096.893-1.505.381-.408.828-.719 1.338-.933.512-.213 1.068-.319 1.672-.319.596 0 1.152.106 1.672.319.52.213.968.524 1.346.933.377.409.674.91.893 1.505.216.595.326 1.274.326 2.038zm6.673-4.129c.115-.151.237-.269.366-.353s.3-.127.514-.127h1.704l-13.946 18.702c-.088.115-.195.208-.319.28s-.271.106-.439.106h-1.759l13.879-18.608zm-8.525 4.129c0-.586-.062-1.083-.187-1.492-.124-.408-.296-.744-.513-1.006-.218-.262-.471-.451-.76-.566s-.598-.173-.926-.173-.637.058-.926.173c-.288.115-.539.304-.752.566-.213.262-.38.598-.5 1.006-.119.409-.18.906-.18 1.492 0 .578.061 1.068.18 1.472.12.404.287.732.5.985.213.253.464.436.752.546.289.111.598.167.926.167s.637-.056.926-.167.542-.293.76-.546c.217-.253.389-.582.513-.985.125-.405.187-.895.187-1.472zm12.401 9.977c0 .746-.115 1.412-.346 1.998-.231.586-.54 1.082-.926 1.485-.387.404-.835.713-1.346.926-.511.213-1.045.32-1.605.32-.604 0-1.16-.106-1.671-.32-.511-.213-.957-.521-1.339-.926-.382-.404-.68-.899-.893-1.485-.213-.586-.319-1.252-.319-1.998 0-.764.106-1.445.319-2.045.213-.599.511-1.103.893-1.512.382-.408.828-.719 1.339-.933.511-.213 1.067-.319 1.671-.319.596 0 1.15.106 1.666.319.514.213.963.524 1.345.933.382.409.679.913.893 1.512.212.599.319 1.281.319 2.045zm-1.838 0c0-.586-.062-1.086-.187-1.499-.124-.413-.296-.748-.513-1.006-.218-.257-.471-.444-.76-.56-.288-.115-.597-.173-.926-.173-.328 0-.637.058-.926.173-.288.116-.539.302-.752.56-.213.258-.38.593-.5 1.006-.119.413-.18.912-.18 1.499 0 .577.061 1.065.18 1.465.12.4.287.726.5.979.213.253.464.436.752.546.289.111.598.167.926.167.329 0 .638-.056.926-.167.289-.111.542-.293.76-.546.217-.253.389-.579.513-.979s.187-.888.187-1.465z"/></g><g fill="#fff"><path d="M430.933 203.649h4.103v-13.014c0-.391.013-.786.039-1.186l-3.409 2.917c-.089.071-.178.122-.267.153l-.253.046c-.134 0-.253-.028-.359-.086-.107-.058-.187-.126-.24-.207l-.746-1.025 5.675-4.915h1.931v17.316h3.757v1.812h-10.229v-1.811zM457.213 195.923c0 1.669-.181 3.115-.54 4.335-.359 1.221-.851 2.231-1.472 3.03-.622.799-1.356 1.395-2.204 1.785-.849.391-1.757.586-2.725.586-.977 0-1.885-.195-2.724-.586s-1.569-.986-2.191-1.785c-.621-.799-1.109-1.809-1.465-3.03-.355-1.221-.533-2.666-.533-4.335s.178-3.117.533-4.342c.355-1.226.844-2.24 1.465-3.044.622-.803 1.353-1.4 2.191-1.792.839-.391 1.747-.586 2.724-.586.968 0 1.876.195 2.725.586.848.391 1.582.988 2.204 1.792.621.804 1.112 1.818 1.472 3.044.359 1.225.54 2.673.54 4.342zm-2.465 0c0-1.457-.122-2.68-.366-3.67-.244-.99-.572-1.787-.985-2.391s-.891-1.037-1.432-1.299c-.542-.262-1.106-.393-1.692-.393s-1.149.131-1.691.393-1.017.695-1.425 1.299c-.409.604-.735 1.401-.979 2.391s-.366 2.213-.366 3.67.122 2.677.366 3.663c.244.985.57 1.78.979 2.384.408.604.883 1.037 1.425 1.299s1.105.393 1.691.393 1.15-.131 1.692-.393c.541-.262 1.019-.695 1.432-1.299s.741-1.399.985-2.384c.244-.985.366-2.206.366-3.663zM467.429 190.981c0 .746-.115 1.415-.346 2.005-.231.59-.54 1.088-.926 1.492-.387.404-.838.713-1.353.926s-1.052.32-1.611.32c-.604 0-1.161-.107-1.672-.32s-.957-.521-1.339-.926c-.382-.404-.679-.901-.893-1.492-.213-.59-.319-1.259-.319-2.005 0-.764.106-1.443.319-2.038.214-.595.511-1.096.893-1.505.382-.408.828-.719 1.339-.933.511-.213 1.067-.319 1.672-.319.595 0 1.152.106 1.672.319.52.213.968.524 1.345.933.378.409.675.91.893 1.505.217.596.326 1.275.326 2.038zm6.674-4.128c.115-.151.237-.269.366-.353.128-.084.3-.127.513-.127h1.705l-13.946 18.702c-.089.115-.195.208-.319.28-.125.071-.271.106-.439.106h-1.759l13.879-18.608zm-8.526 4.128c0-.586-.062-1.083-.187-1.492-.124-.408-.295-.744-.513-1.006-.218-.262-.471-.451-.759-.566-.289-.115-.598-.173-.926-.173-.329 0-.638.058-.926.173-.289.115-.54.304-.753.566-.213.262-.38.598-.499 1.006-.12.409-.18.906-.18 1.492 0 .578.06 1.068.18 1.472.119.404.286.732.499.985.213.253.464.436.753.546.288.111.597.167.926.167.328 0 .637-.056.926-.167.288-.111.541-.293.759-.546.218-.253.389-.582.513-.985.126-.404.187-.894.187-1.472zm12.402 9.977c0 .746-.115 1.412-.347 1.998-.23.586-.539 1.082-.926 1.485-.386.404-.835.713-1.345.926-.511.213-1.046.32-1.605.32-.604 0-1.161-.106-1.672-.32-.511-.213-.957-.521-1.339-.926-.382-.404-.679-.899-.892-1.485-.214-.586-.32-1.252-.32-1.998 0-.764.106-1.445.32-2.045.213-.599.51-1.103.892-1.512.382-.408.828-.719 1.339-.933.511-.213 1.068-.319 1.672-.319.595 0 1.15.106 1.665.319.515.213.964.524 1.346.933.381.409.679.913.892 1.512.213.6.32 1.282.32 2.045zm-1.838 0c0-.586-.062-1.086-.187-1.499-.125-.413-.296-.748-.514-1.006-.217-.257-.471-.444-.759-.56-.289-.115-.598-.173-.926-.173s-.638.058-.926.173c-.289.116-.539.302-.753.56-.213.258-.379.593-.499 1.006-.12.413-.18.912-.18 1.499 0 .577.06 1.065.18 1.465.12.4.286.726.499.979.214.253.464.436.753.546.288.111.598.167.926.167s.637-.056.926-.167c.288-.111.542-.293.759-.546.218-.253.389-.579.514-.979.124-.399.187-.887.187-1.465z"/></g><g fill="#fff"><path d="M472.183 260.355c.764 0 1.487.126 2.171.379s1.283.622 1.798 1.105c.516.484.924 1.079 1.226 1.785s.453 1.512.453 2.417c0 .879-.16 1.696-.479 2.451-.319.755-.766 1.412-1.339 1.972-.572.559-1.263.999-2.071 1.318-.808.32-1.696.479-2.664.479-.959 0-1.827-.153-2.604-.459-.777-.306-1.441-.741-1.991-1.305-.551-.564-.975-1.248-1.272-2.051s-.446-1.703-.446-2.697c0-.834.187-1.723.56-2.664s.963-1.954 1.771-3.037l4.835-6.514c.124-.16.298-.295.52-.406.222-.111.475-.167.76-.167h2.104l-6.62 8.378c.453-.311.954-.553 1.505-.726.548-.171 1.143-.258 1.783-.258zm-4.929 5.808c0 .613.089 1.172.267 1.679.178.506.438.941.779 1.305.342.364.759.646 1.252.846.493.2 1.055.3 1.685.3.64 0 1.217-.102 1.731-.306.516-.204.957-.488 1.326-.853.368-.364.652-.795.853-1.292.199-.498.299-1.039.299-1.625 0-.622-.098-1.184-.293-1.685-.195-.502-.471-.928-.825-1.279-.355-.351-.782-.62-1.279-.806-.497-.186-1.043-.279-1.638-.279-.64 0-1.217.109-1.731.326-.516.218-.953.511-1.312.879-.359.369-.635.795-.826 1.279-.192.483-.288.987-.288 1.511zM488.393 257.571c0 .746-.115 1.415-.346 2.005-.231.59-.54 1.088-.926 1.492-.387.404-.838.713-1.353.926s-1.052.32-1.611.32c-.604 0-1.161-.107-1.672-.32s-.957-.521-1.339-.926c-.382-.404-.679-.901-.893-1.492-.213-.59-.319-1.259-.319-2.005 0-.764.106-1.443.319-2.038.214-.595.511-1.096.893-1.505.382-.408.828-.719 1.339-.933.511-.213 1.067-.319 1.672-.319.595 0 1.152.106 1.672.319.52.213.968.524 1.345.933.378.409.675.91.893 1.505.217.595.326 1.275.326 2.038zm6.673-4.129c.115-.151.237-.269.366-.353.128-.084.3-.127.513-.127h1.705l-13.946 18.702c-.089.115-.195.208-.319.28-.125.071-.271.106-.439.106h-1.759l13.879-18.608zm-8.525 4.129c0-.586-.062-1.083-.187-1.492-.124-.408-.295-.744-.513-1.006-.218-.262-.471-.451-.759-.566-.289-.115-.598-.173-.926-.173-.329 0-.638.058-.926.173-.289.115-.54.304-.753.566-.213.262-.38.598-.499 1.006-.12.409-.18.906-.18 1.492 0 .578.06 1.068.18 1.472.119.404.286.732.499.985.213.253.464.436.753.546.288.111.597.167.926.167.328 0 .637-.056.926-.167.288-.111.541-.293.759-.546.218-.253.389-.582.513-.985.125-.404.187-.894.187-1.472zm12.401 9.977c0 .746-.115 1.412-.347 1.998-.23.586-.539 1.082-.926 1.485-.386.404-.835.713-1.345.926-.511.213-1.046.32-1.605.32-.604 0-1.161-.106-1.672-.32-.511-.213-.957-.521-1.339-.926-.382-.404-.679-.899-.892-1.485-.214-.586-.32-1.252-.32-1.998 0-.764.106-1.445.32-2.045.213-.599.51-1.103.892-1.512.382-.408.828-.719 1.339-.933.511-.213 1.068-.319 1.672-.319.595 0 1.15.106 1.665.319.515.213.964.524 1.346.933.381.409.679.913.892 1.512.214.6.32 1.282.32 2.045zm-1.838 0c0-.586-.062-1.086-.187-1.499-.125-.413-.296-.748-.514-1.006-.217-.257-.471-.444-.759-.56-.289-.115-.598-.173-.926-.173s-.638.058-.926.173c-.289.116-.539.302-.753.56-.213.258-.379.593-.499 1.006-.12.413-.18.912-.18 1.499 0 .577.06 1.065.18 1.465.12.4.286.726.499.979.214.253.464.436.753.546.288.111.598.167.926.167s.637-.056.926-.167c.288-.111.542-.293.759-.546.218-.253.389-.579.514-.979.125-.399.187-.888.187-1.465z"/></g><g fill="#fff"><path d="M463.002 330.396c-.719 0-1.4-.12-2.045-.359-.644-.24-1.21-.593-1.698-1.06-.488-.466-.877-1.039-1.165-1.718-.289-.68-.434-1.459-.434-2.338 0-.835.156-1.616.467-2.345.311-.728.746-1.362 1.306-1.904s1.226-.968 1.998-1.279c.772-.311 1.62-.466 2.544-.466.914 0 1.745.151 2.49.453.746.302 1.386.724 1.919 1.266.532.541.943 1.189 1.231 1.944.289.755.434 1.59.434 2.504 0 .551-.052 1.072-.153 1.565-.103.493-.251.975-.446 1.445s-.429.938-.699 1.405c-.271.466-.58.948-.926 1.445l-4.649 6.713c-.115.169-.279.305-.492.406-.213.103-.458.153-.732.153h-2.185l5.808-7.605.546-.732c.168-.231.328-.462.479-.693-.488.391-1.039.688-1.651.893-.615.204-1.263.307-1.947.307zm4.769-5.582c0-.595-.096-1.135-.286-1.618-.191-.484-.455-.895-.793-1.232-.337-.338-.739-.598-1.205-.779s-.979-.273-1.538-.273c-.587 0-1.122.096-1.605.287-.484.19-.897.455-1.238.792-.343.338-.606.741-.793 1.212s-.279.986-.279 1.546c0 .604.086 1.143.259 1.618.174.475.422.877.746 1.205.324.329.72.577 1.186.746.467.169.988.253 1.565.253.64 0 1.205-.104 1.698-.312.493-.209.908-.486 1.245-.833.338-.346.595-.746.772-1.198.177-.455.266-.925.266-1.414zM480.558 323.749c0 .745-.115 1.414-.346 2.004-.231.591-.54 1.088-.926 1.492-.387.404-.838.713-1.353.926s-1.052.319-1.611.319c-.604 0-1.161-.106-1.672-.319s-.957-.521-1.339-.926-.679-.901-.893-1.492c-.213-.59-.319-1.259-.319-2.004 0-.764.106-1.443.319-2.038.214-.595.511-1.097.893-1.506.382-.408.828-.719 1.339-.932.511-.214 1.067-.32 1.672-.32.595 0 1.152.106 1.672.32.52.213.968.523 1.345.932.378.409.675.911.893 1.506s.326 1.274.326 2.038zm6.673-4.13c.115-.15.237-.269.366-.353.128-.084.3-.127.513-.127h1.705l-13.946 18.701c-.089.116-.195.209-.319.28-.125.071-.271.106-.439.106h-1.759l13.879-18.607zm-8.525 4.13c0-.587-.062-1.084-.187-1.492-.124-.408-.295-.744-.513-1.006s-.471-.45-.759-.566c-.289-.115-.598-.173-.926-.173-.329 0-.638.058-.926.173-.289.116-.54.305-.753.566s-.38.598-.499 1.006c-.12.408-.18.905-.18 1.492 0 .577.06 1.067.18 1.472.119.404.286.732.499.985s.464.436.753.546c.288.111.597.167.926.167.328 0 .637-.056.926-.167.288-.11.541-.293.759-.546s.389-.581.513-.985c.126-.405.187-.895.187-1.472zm12.401 9.977c0 .746-.115 1.412-.347 1.998-.23.586-.539 1.081-.926 1.485-.386.403-.835.712-1.345.926-.511.213-1.046.319-1.605.319-.604 0-1.161-.106-1.672-.319-.511-.214-.957-.522-1.339-.926s-.679-.899-.892-1.485c-.214-.586-.32-1.252-.32-1.998 0-.764.106-1.445.32-2.045.213-.6.51-1.104.892-1.512s.828-.72 1.339-.933 1.068-.319 1.672-.319c.595 0 1.15.106 1.665.319s.964.524 1.346.933c.381.408.679.912.892 1.512.214.599.32 1.281.32 2.045zm-1.837 0c0-.586-.062-1.086-.187-1.499-.125-.413-.296-.748-.514-1.006-.217-.257-.471-.443-.759-.559-.289-.115-.598-.174-.926-.174s-.638.059-.926.174c-.289.115-.539.302-.753.559-.213.258-.379.593-.499 1.006s-.18.913-.18 1.499c0 .577.06 1.065.18 1.465s.286.727.499.979c.214.253.464.435.753.546.288.111.598.166.926.166s.637-.055.926-.166c.288-.111.542-.293.759-.546.218-.253.389-.58.514-.979.124-.4.187-.888.187-1.465z"/></g><g fill="#fff"><path d="M353.293 418.157c.808 0 1.562.12 2.264.359.702.24 1.308.589 1.818 1.046.51.457.913 1.015 1.206 1.672s.439 1.403.439 2.237c0 .711-.106 1.368-.32 1.972-.213.604-.501 1.184-.866 1.738s-.784 1.092-1.259 1.611-.979 1.051-1.512 1.592l-5.021 5.142c.355-.098.714-.175 1.079-.232s.715-.087 1.052-.087h6.394c.258 0 .462.075.613.227.151.15.227.346.227.586v1.438h-12.734v-.812c0-.169.033-.342.1-.52.066-.178.175-.342.326-.493l6.114-6.141c.506-.515.968-1.01 1.385-1.484.417-.476.775-.953 1.072-1.433s.526-.966.686-1.458c.16-.493.24-1.02.24-1.579 0-.559-.089-1.05-.267-1.472s-.422-.77-.732-1.045c-.311-.275-.675-.482-1.092-.62s-.866-.206-1.345-.206-.924.071-1.332.213c-.409.143-.771.34-1.085.593-.315.253-.582.553-.799.899-.218.346-.371.728-.459 1.146-.071.258-.178.444-.32.56s-.329.173-.559.173l-.14-.007-.167-.02-1.239-.214c.125-.87.364-1.64.719-2.311.355-.67.806-1.232 1.352-1.685.546-.453 1.172-.798 1.878-1.033.705-.234 1.467-.352 2.284-.352zM368.997 418.157c.808 0 1.554.115 2.238.347.684.23 1.272.56 1.765.985.493.426.876.941 1.152 1.545.275.604.413 1.274.413 2.012 0 .604-.078 1.144-.233 1.618-.155.476-.377.893-.666 1.252s-.637.664-1.045.912c-.409.249-.866.449-1.372.6 1.243.329 2.178.879 2.804 1.652.626.772.939 1.74.939 2.903 0 .879-.167 1.67-.5 2.371s-.788 1.299-1.365 1.791c-.578.493-1.25.871-2.018 1.133s-1.592.393-2.471.393c-1.013 0-1.878-.126-2.598-.379-.719-.254-1.328-.602-1.825-1.046-.498-.444-.906-.971-1.226-1.579-.32-.607-.59-1.267-.812-1.978l1.012-.427c.187-.079.373-.119.56-.119.178 0 .335.038.473.113.137.075.242.192.313.353l.053.113.053.127c.124.257.275.548.453.872s.417.628.719.912.677.524 1.125.72c.449.195 1.006.293 1.672.293s1.25-.108 1.751-.326.919-.5 1.252-.846c.333-.347.584-.732.753-1.159.168-.426.253-.848.253-1.266 0-.515-.069-.985-.207-1.412-.138-.426-.386-.794-.746-1.105-.36-.311-.857-.555-1.492-.732s-1.45-.267-2.444-.267v-1.731c.808 0 1.499-.084 2.071-.253s1.041-.399 1.405-.692c.364-.293.628-.644.793-1.053.164-.408.246-.861.246-1.358 0-.551-.086-1.03-.26-1.438-.173-.408-.411-.746-.712-1.013-.302-.267-.659-.466-1.072-.6-.413-.133-.859-.199-1.339-.199s-.923.071-1.332.213c-.408.142-.771.34-1.085.592-.315.253-.579.555-.792.905-.213.351-.373.729-.479 1.138-.071.257-.178.443-.32.559s-.324.173-.546.173l-.14-.006-.167-.021-1.239-.21c.125-.87.364-1.64.72-2.311.355-.67.806-1.232 1.352-1.685.546-.453 1.172-.798 1.878-1.033.706-.235 1.468-.353 2.285-.353zM385.606 422.979c0 .745-.115 1.414-.346 2.004-.231.591-.54 1.088-.926 1.492s-.837.713-1.352.926-1.052.319-1.611.319c-.604 0-1.161-.106-1.672-.319s-.957-.521-1.338-.926c-.382-.404-.68-.901-.893-1.492-.213-.59-.32-1.259-.32-2.004 0-.764.106-1.443.32-2.038.213-.595.51-1.097.893-1.506.381-.408.828-.719 1.338-.932.511-.214 1.068-.32 1.672-.32.595 0 1.152.106 1.671.32.52.213.968.523 1.345.932.377.409.675.911.893 1.506.217.595.326 1.275.326 2.038zm6.673-4.129c.115-.15.238-.269.366-.353.129-.084.3-.127.513-.127h1.705l-13.946 18.701c-.089.116-.195.209-.32.28-.124.071-.271.106-.439.106h-1.758l13.879-18.607zm-8.524 4.129c0-.587-.062-1.084-.187-1.492-.125-.408-.295-.744-.513-1.006-.217-.262-.471-.45-.759-.566-.289-.115-.598-.173-.926-.173-.329 0-.638.058-.926.173-.289.116-.54.305-.753.566-.213.262-.379.598-.5 1.006-.12.408-.18.905-.18 1.492 0 .577.06 1.067.18 1.472.12.404.287.732.5.985.213.253.464.436.753.546.288.111.597.167.926.167.328 0 .637-.056.926-.167.288-.11.542-.293.759-.546.218-.253.389-.581.513-.985s.187-.894.187-1.472zm12.401 9.977c0 .746-.116 1.412-.347 1.998s-.54 1.081-.926 1.485c-.386.403-.834.712-1.345.926-.511.213-1.045.319-1.605.319-.604 0-1.161-.106-1.671-.319-.511-.214-.957-.522-1.339-.926s-.679-.899-.893-1.485c-.213-.586-.319-1.252-.319-1.998 0-.764.106-1.445.319-2.045.213-.6.511-1.104.893-1.512s.828-.72 1.339-.933c.51-.213 1.067-.319 1.671-.319.595 0 1.15.106 1.665.319.515.213.963.524 1.345.933s.679.912.893 1.512c.213.6.32 1.281.32 2.045zm-1.839 0c0-.586-.062-1.086-.187-1.499s-.295-.748-.513-1.006c-.218-.257-.471-.443-.759-.559s-.597-.174-.926-.174-.637.059-.926.174-.54.302-.752.559c-.213.258-.38.593-.5 1.006-.12.413-.18.913-.18 1.499 0 .577.06 1.065.18 1.465.12.399.286.727.5.979.213.253.464.435.752.546s.597.166.926.166.637-.055.926-.166.542-.293.759-.546c.217-.253.388-.58.513-.979s.187-.888.187-1.465z"/></g></svg>