<svg xmlns="http://www.w3.org/2000/svg" width="500" height="408" viewBox="0 0 500 408"><path fill="#0E5461" d="M272.704 18.308c-92.443 35.007-139.171 138.7-104.161 231.144 27.219 71.879 95.961 116.106 168.651 115.776v-20.484c-64.428.339-125.369-38.846-149.492-102.548-31.007-81.877 10.377-173.717 92.26-204.729 50.172-18.999 104.065-10.785 145.435 17.252 4.785-5.201 9.626-10.197 14.897-14.612-47.12-33.532-109.565-43.774-167.59-21.799z"/><path fill="#fff" d="M334.877 271.881c47.855-.271 86.681-39.265 86.681-87.157 0-28.862-14.27-55.762-38.196-72.064l27.27-39.218c36.771 25.266 58.708 66.827 58.708 111.282 0 73.997-60.066 134.422-133.996 134.933l-.467-47.776z"/><path fill="#465560" d="M410.756 74.136c36.39 25.199 58.082 66.463 58.082 110.587 0 73.56-59.568 133.658-133.001 134.429l-.455-46.776c47.885-.526 86.676-39.646 86.676-87.652 0-28.86-14.186-55.77-37.998-72.191l26.696-38.397m-.253-1.387l-27.842 40.041c23.145 15.574 38.396 41.999 38.396 71.934 0 47.78-38.872 86.658-86.658 86.658h-.027l.476 48.777c74.473-.241 134.991-60.908 134.991-135.436-.001-46.49-23.545-87.572-59.336-111.974zM339.853 392.729c0 3.025-2.443 5.469-5.48 5.469-3.008 0-5.454-2.442-5.454-5.469 0-3.008 2.446-5.455 5.454-5.455 3.035-.003 5.48 2.447 5.48 5.455z"/><path fill="#5DC7C3" d="M247.738 184.724c0-47.796 38.877-86.659 86.661-86.659 17.847 0 35.992 6.45 49.796 15.749l27.521-40.194c-21.709-14.804-49.125-24.334-77.316-24.334-74.691 0-135.452 60.751-135.452 135.438 0 74.683 60.761 135.443 135.452 135.443l.447-.008-.476-48.777c-47.766-.012-86.633-38.878-86.633-86.658z"/><path stroke="#465560" stroke-width="5.67" stroke-miterlimit="10" d="M335.391 200.391v192.337-192.337z" fill="none"/><g fill="#E6E7E8"><path d="M214.933 186.667c0 .323-.103.586-.307.787-.205.202-.545.302-1.021.302h-3.644l-.477 2.765c.599-.122 1.146-.183 1.64-.183.695 0 1.308.104 1.836.311.527.208.972.495 1.332.861.359.366.632.795.814 1.287.184.491.275 1.021.275 1.588 0 .702-.124 1.343-.371 1.923s-.59 1.076-1.03 1.488c-.439.412-.96.731-1.561.957-.603.226-1.256.339-1.964.339-.416 0-.81-.043-1.182-.128-.373-.085-.722-.2-1.048-.344-.327-.143-.629-.308-.907-.494-.277-.186-.525-.383-.745-.591l.695-.961c.146-.207.342-.311.586-.311.153 0 .308.049.462.146l.545.32c.208.116.449.223.724.32.274.098.606.147.998.147.415 0 .781-.067 1.099-.202.318-.135.582-.322.792-.563.21-.241.369-.528.477-.861.106-.333.159-.694.159-1.085 0-.72-.209-1.283-.627-1.689-.418-.406-1.032-.609-1.845-.609-.641 0-1.285.116-1.932.348l-1.41-.403 1.099-6.427h6.537v.962zM221.809 199.091c-.684 0-1.308-.091-1.873-.275-.563-.183-1.048-.442-1.451-.778-.402-.336-.716-.742-.938-1.218s-.334-1.007-.334-1.593c0-.781.191-1.442.577-1.982.384-.54.981-.941 1.794-1.204-.647-.269-1.131-.65-1.451-1.145s-.48-1.09-.48-1.786c0-.5.103-.967.308-1.401.204-.433.49-.81.855-1.131.366-.32.805-.57 1.314-.75.509-.18 1.069-.27 1.68-.27s1.17.09 1.68.27c.511.18.948.43 1.314.75.366.321.651.698.856 1.131.204.434.307.9.307 1.401 0 .696-.162 1.291-.485 1.786-.323.494-.806.876-1.446 1.145.812.262 1.409.664 1.794 1.204.385.541.576 1.201.576 1.982 0 .586-.111 1.117-.334 1.593-.222.476-.535.882-.938 1.218-.403.335-.887.595-1.451.778-.567.184-1.191.275-1.874.275zm0-1.767c.372 0 .699-.053.979-.16.279-.107.517-.255.709-.444.191-.188.337-.415.435-.677.098-.262.146-.546.146-.852 0-.727-.202-1.276-.604-1.648-.403-.373-.958-.559-1.666-.559s-1.264.186-1.667.559c-.403.372-.604.921-.604 1.648 0 .305.049.589.146.852.097.263.243.488.436.677.191.189.429.337.709.444.279.107.608.16.981.16zm0-6.116c.366 0 .674-.058.924-.174.25-.116.452-.27.604-.462.151-.192.261-.412.325-.659.063-.247.096-.502.096-.765 0-.25-.04-.488-.119-.714-.08-.226-.199-.426-.356-.6-.159-.174-.36-.312-.604-.417-.244-.104-.534-.156-.87-.156s-.626.052-.87.156-.446.243-.608.417-.281.374-.357.6-.114.464-.114.714c0 .263.032.518.097.765.063.247.172.467.324.659.153.192.354.347.604.462.249.116.557.174.924.174zM233.793 188.91c0 .5-.084.952-.252 1.355-.168.403-.394.746-.673 1.03-.281.284-.607.502-.98.655-.372.153-.76.229-1.163.229-.438 0-.846-.076-1.218-.229-.373-.152-.694-.371-.966-.655-.272-.284-.484-.627-.637-1.03-.152-.403-.229-.854-.229-1.355 0-.513.076-.977.229-1.392s.364-.766.637-1.053c.271-.287.593-.508.966-.664.372-.156.778-.234 1.218-.234.44 0 .847.078 1.222.234.375.155.701.377.976.664s.488.638.641 1.053c.152.416.229.879.229 1.392zm4.404-2.848c.073-.091.165-.174.274-.247.109-.073.263-.11.458-.11h1.639l-9.833 12.9c-.072.098-.167.179-.278.243-.113.064-.249.096-.408.096h-1.686l9.834-12.882zm-6.153 2.848c0-.354-.034-.65-.102-.888-.066-.238-.159-.431-.278-.577s-.261-.251-.421-.315c-.162-.064-.334-.096-.518-.096-.183 0-.354.032-.513.096s-.296.169-.412.315-.206.339-.271.577c-.063.238-.096.534-.096.888 0 .342.032.627.096.856.064.229.154.414.271.554.116.141.253.241.412.302s.33.092.513.092c.184 0 .355-.031.518-.092.161-.061.302-.162.421-.302.119-.14.212-.325.278-.554.068-.229.102-.514.102-.856zm9.22 6.922c0 .5-.084.952-.251 1.355-.168.403-.393.746-.673 1.03-.281.284-.608.504-.98.659-.372.156-.76.234-1.163.234-.438 0-.846-.078-1.218-.234-.373-.155-.693-.375-.966-.659-.271-.284-.484-.627-.637-1.03s-.229-.854-.229-1.355c0-.513.076-.977.229-1.392.152-.415.365-.766.637-1.053.271-.287.593-.508.966-.664.372-.156.778-.234 1.218-.234.44 0 .848.078 1.223.234.375.155.7.377.975.664.275.287.488.638.642 1.053.151.415.227.879.227 1.392zm-1.74 0c0-.354-.035-.65-.104-.888-.07-.238-.165-.431-.284-.577s-.26-.251-.421-.316c-.162-.064-.334-.096-.518-.096-.183 0-.354.032-.513.096-.159.064-.295.169-.408.316-.112.147-.203.339-.27.577-.067.238-.102.534-.102.888 0 .342.033.628.102.86s.157.418.27.559c.113.141.249.241.408.302.159.062.33.091.513.091.184 0 .355-.03.518-.091.162-.061.302-.162.421-.302s.213-.327.284-.559.104-.518.104-.86z"/></g><path fill="#ED1C24" d="M162.149 106.21c-3.858 8.428-5.616 16.705-5.02 25.496.122 1.785-.929 3.677-1.546 5.482-2.873 8.446.635 17.814 8.37 22.228 7.765 4.431 17.668 2.714 23.408-4.05 5.8-6.845 5.938-17.021.319-23.725-5.267-6.29-5.333-8.664-.12-16.284 4.834 1.787 9.929 3.368 14.754 5.541 4.8 2.163 7.004 6.926 5.665 12.167-5.141 20.1-10.233 40.219-15.979 60.154-.91 3.162-4.583 6.247-7.742 7.938-32.883 17.56-65.919 34.829-98.911 52.176-5.454 2.867-10.867 5.812-16.373 8.569-6.778 3.399-12.39 1.666-15.903-5-13.93-26.377-27.812-52.779-41.642-79.21-3.428-6.555-1.523-12.39 5.106-15.872 29.273-15.378 58.592-30.677 87.874-46.042 9.458-4.964 18.897-9.946 28.254-15.1 4.009-2.205 7.854-2.462 12.095-.791 5.559 2.197 11.238 4.103 17.391 6.323zm-97.795 142.876c33.741-17.742 67.032-35.247 100.426-52.805-13.483-25.643-26.696-50.775-39.951-75.981-33.64 17.688-66.946 35.201-100.427 52.804 13.373 25.436 26.549 50.494 39.952 75.982zM244.456 102.071c-16.338-22.58-49.898-23.094-68.089-1.041-10.606 12.87-12.906 30.818-5.646 44.095 2.217 4.057 5.773 5.622 9.142 3.71 3.652-2.075 4.534-5.223 2.807-9.116-.725-1.619-1.354-3.303-1.835-5.012-3.902-13.827 4.465-29.078 18.939-34.599 13.973-5.33 29.608.356 35.778 13.013 6.722 13.781-.225 30.812-15.363 38.047-.639.304-1.316.687-1.951 1.131.565 1.125.868 2.368.722 3.673-.061.526-.104 1.056-.119 1.586.115.51.202 1.029.218 1.564.072 2.384-.88 4.325-2.373 6.102-.716.852-1.707 1.442-2.607 2.088l-.373.231.131.19c5.702-2.431 11.772-4.254 17.047-7.4 20.556-12.262 26.83-39.937 13.572-58.262z"/><path fill="#fff" d="M64.852 249.229c-13.401-25.489-26.578-50.546-39.953-75.982 34.173-17.966 68.171-35.842 102.504-53.896 13.257 25.207 26.471 50.34 39.954 75.982-34.086 17.92-68.066 35.785-102.505 53.896z"/><g fill="#ED1C24"><path d="M68.459 184.485l-10.537 5.54 2.669 7.654c.593-.42 1.143-.818 2.162-1.354 2.125-1.117 4.495-1.767 6.73-1.641 2.814.093 5.851 1.533 7.683 5.018 2.838 5.396.669 11.688-5.322 14.84-3.017 1.586-6.013 2.077-7.777 1.919l-.562-3.337c1.505.076 4.203-.259 6.71-1.576 3.527-1.854 5.337-5.735 3.394-9.431-1.919-3.549-5.639-4.846-11.163-1.941-1.571.826-2.715 1.645-3.667 2.309l-5.187-14.195 13.214-6.948 1.653 3.143zM82.611 199.334c-1.832-3.483-1.045-7.043 1.595-10.274l-.109-.104c-3.819.163-6.387-1.524-7.638-3.902-2.303-4.377-.168-9.294 4.675-11.841 5.354-2.815 9.795-.866 11.604 2.575 1.229 2.337 1.4 5.446-1.15 8.849l.066.128c4.156-.45 7.555.854 9.319 4.211 2.524 4.802.103 10.197-5.167 12.968-5.778 3.036-11.072 1.427-13.195-2.61zm-2.761-16.391c1.452 2.761 4.316 3.153 7.95 2.328 1.955-2.059 2.888-4.72 1.57-7.227-1.162-2.209-3.687-3.81-7.042-2.045-3.101 1.632-3.729 4.564-2.478 6.944zm17.544 8.403c-1.765-3.357-4.951-3.743-9.249-2.84-2.736 2.634-3.361 5.674-1.978 8.308 1.348 2.872 4.768 4.22 8.294 2.365 3.357-1.766 4.429-4.987 2.933-7.833zM110.449 168.317c3.061 5.82 1.521 10.318-2.049 12.195-3.441 1.811-7.867.611-10.837-4.933-2.903-5.522-1.518-10.21 2.137-12.131 3.866-2.032 7.979-.399 10.749 4.869zm-9.978 5.573c1.771 3.571 4.495 5.556 6.832 4.327 2.464-1.296 2.184-4.512.262-8.166-1.765-3.356-4.217-5.646-6.809-4.284-2.337 1.228-2.117 4.638-.285 8.123zm13.775 18.356l1.217-37.086 2.38-1.251-1.218 37.086-2.379 1.251zm20.186-21.949c3.062 5.82 1.521 10.318-2.006 12.173-3.441 1.811-7.868.611-10.814-4.89-2.927-5.566-1.541-10.254 2.113-12.175 3.866-2.033 7.937-.377 10.707 4.892zm-9.978 5.572c1.812 3.549 4.58 5.511 6.874 4.304 2.464-1.296 2.184-4.511.263-8.164-1.766-3.357-4.217-5.647-6.809-4.285-2.338 1.228-2.16 4.661-.328 8.145z"/></g><path stroke="#52B9CF" stroke-width="1.249" stroke-miterlimit="10" d="M216.88 146.193c4.879 16.554 2.351 16.598-6.991 25.298" fill="none"/><g fill="#333"><path d="M431.44 208.857h2.014v.947c0 .099-.029.183-.088.25-.06.068-.15.103-.274.103h-1.651v3.499h-1.458v-3.499h-5.894c-.124 0-.23-.036-.32-.107-.09-.07-.146-.159-.172-.264l-.167-.845 6.47-8.586h1.541v8.502zm-1.458-5.485l.015-.52c.009-.186.029-.377.06-.575l-4.835 6.58h4.761v-5.485zM439.403 200.207c.563 0 1.089.084 1.578.251.488.167.911.41 1.267.729.356.318.636.707.84 1.165.205.458.307.978.307 1.559 0 .495-.074.953-.223 1.374s-.35.824-.604 1.211-.546.762-.877 1.123c-.331.362-.683.732-1.054 1.109l-3.499 3.583c.247-.068.498-.122.752-.162.254-.041.498-.061.733-.061h4.455c.18 0 .321.053.427.157.105.105.158.241.158.409v1.002h-8.874v-.566c0-.117.023-.238.07-.361.046-.124.122-.238.228-.344l4.26-4.279c.353-.358.675-.703.966-1.034.29-.331.539-.664.747-.998.207-.334.366-.673.478-1.017s.167-.71.167-1.1-.062-.731-.186-1.025-.294-.537-.511-.729c-.216-.192-.47-.336-.761-.432s-.604-.145-.938-.145-.644.05-.928.148c-.285.1-.537.237-.757.413-.22.177-.405.386-.557.627-.152.241-.259.508-.32.798-.05.18-.124.31-.223.391-.1.08-.229.12-.39.12l-.098-.005-.116-.014-.863-.148c.087-.606.254-1.144.501-1.61.248-.467.562-.858.942-1.174.381-.316.816-.556 1.309-.72s1.024-.245 1.594-.245zM451.154 203.567c0 .52-.081.985-.241 1.396-.161.411-.376.758-.646 1.039-.27.282-.583.497-.942.646-.358.148-.733.223-1.123.223-.421 0-.809-.074-1.165-.223-.355-.148-.666-.363-.933-.646-.266-.281-.474-.628-.622-1.039s-.223-.877-.223-1.396c0-.532.074-1.006.223-1.42.148-.415.356-.765.622-1.049.267-.285.577-.502.933-.65.356-.148.744-.223 1.165-.223.415 0 .803.074 1.165.223s.675.365.938.65c.263.284.47.634.622 1.049.15.415.227.888.227 1.42zm4.649-2.878c.081-.104.166-.187.256-.245.09-.06.209-.089.357-.089h1.188l-9.718 13.031c-.062.081-.136.146-.223.195s-.188.074-.307.074h-1.225l9.672-12.966zm-5.939 2.878c0-.408-.044-.755-.131-1.04-.086-.284-.205-.518-.356-.7-.152-.183-.328-.314-.529-.395-.201-.081-.416-.121-.646-.121-.229 0-.443.04-.645.121-.201.08-.376.212-.524.395s-.265.416-.349.7c-.083.285-.125.632-.125 1.04 0 .402.042.744.125 1.025.084.281.2.511.349.687.148.177.323.304.524.381s.416.116.645.116c.229 0 .444-.039.646-.116s.377-.204.529-.381c.151-.176.271-.405.356-.687.087-.28.131-.622.131-1.025zm8.64 6.952c0 .521-.08.984-.241 1.393s-.376.754-.645 1.035c-.27.281-.582.496-.938.645-.356.149-.729.224-1.119.224-.421 0-.809-.074-1.165-.224-.355-.148-.666-.363-.933-.645-.266-.281-.473-.627-.622-1.035-.148-.408-.223-.872-.223-1.393 0-.531.074-1.007.223-1.424.149-.418.356-.77.622-1.054.267-.285.577-.501.933-.65.356-.148.744-.223 1.165-.223.415 0 .802.074 1.16.223.359.149.672.365.938.65.267.284.474.636.622 1.054.149.417.223.892.223 1.424zm-1.28 0c0-.408-.044-.756-.131-1.044-.086-.287-.205-.521-.356-.7-.152-.18-.328-.31-.529-.391-.201-.08-.416-.12-.646-.12-.229 0-.443.04-.645.12-.201.081-.376.211-.524.391-.148.179-.265.413-.349.7-.083.288-.125.636-.125 1.044 0 .402.042.743.125 1.021.084.278.2.506.349.683.148.176.323.303.524.38.201.078.416.116.645.116.229 0 .444-.038.646-.116.201-.077.377-.204.529-.38.151-.177.271-.404.356-.683.087-.278.131-.619.131-1.021z"/></g></svg>