<svg xmlns="http://www.w3.org/2000/svg" xmlns:xlink="http://www.w3.org/1999/xlink" width="560" height="960" viewBox="0 0 560 960"><g fill="#333"><path d="M299.343 322.758c-4.674-22.465-3.365-49.705-36.375-49.762-8.295-.014-23.168 14.234-23.6 22.541-1.055 19.518 1.992 41.779 31.791 38.635-38.678.039-77.229.039-115.779.039-.094-2.133-.189-4.262-.303-6.412 14.801-.699 29.59-1.41 44.395-2.125 1.434-2.658 2.859-5.307 4.291-7.969-14.902-6.625-31.512-20.875-44.262-17.971-17.086 3.869-41.361 18.762-44.447 32.879-6.523 29.732-9.314 64.99.721 92.791 28.23 78.137 10.096 146.451-29.836 213.367-2.42 4.07-3.711 8.811-7.555 18.209 24.902 2.178 46.918 4.086 71.564 6.24 10.268 62.02-1.004 121.018-17.895 179.502-3.49 12.137-12.516 25.018-10.412 35.916 3.145 16.428 9.834 38.303 22.201 45.461 20.557 11.912 41.398-1.275 46.27-24.223 14.078-66.428 25.541-133.422 37.559-200.285 1.516-8.48.207-17.469.207-28.791 13.477-1.076 25.422-2.035 41.354-3.293-10.43-77.236-20.646-152.934-29.143-215.74 23.727-23.26 39.496-39.877 56.654-54.906 5.9-5.16 15.064-7.227 23.107-9.219 25.713-6.348 52.695-9.34 76.928-19.178 10.07-4.102 14.426-22.219 21.379-33.957-12.1-5.885-24.689-17.566-36.215-16.602-37.58 3.182-74.766 10.996-112.104 17.02 9.099-3.765 18.198-7.501 29.505-12.167zm-141.578-42.479c47.434.412 86.092-37.822 86.857-85.879.77-49.418-39.527-90.539-87.588-89.367-47.434 1.176-84.732 40.033-84.674 88.262.049 48.314 37.627 86.576 85.405 86.984z"/><path fill-rule="evenodd" clip-rule="evenodd" d="M203.399 326.168c.078-2.666-.279-4.553-.08-8.703-14.891-6.629-31.068-20.635-43.818-17.73-17.086 3.869-41.361 18.762-44.447 32.879-6.523 29.732-9.314 64.99.721 92.791 28.23 78.137 10.096 146.451-29.836 213.367-2.42 4.07-3.711 8.811-7.555 18.209 24.902 2.178 46.918 4.086 71.564 6.24 10.268 62.02-1.004 121.018-17.895 179.502-3.49 12.137-12.516 25.018-10.412 35.916 3.145 16.428 9.834 38.303 22.201 45.461 20.557 11.912 41.398-1.275 46.27-24.223 14.078-66.428 25.541-133.422 37.559-200.285 1.516-8.48.207-17.469.207-28.791 13.477-1.076 25.422-2.035 41.354-3.293-10.43-77.236-20.646-152.934-29.143-215.74 23.727-23.26 39.496-39.877 56.654-54.906 5.9-5.16 15.064-7.227 23.107-9.219 25.713-6.348 52.695-9.34 76.928-19.178 10.07-4.102 24.609-17.354 21.744-32.973-2.434-13.232-25.055-18.551-36.58-17.586-37.58 3.182-74.766 10.996-112.104 17.02l1.191-.715"/><path fill-rule="evenodd" clip-rule="evenodd" d="M31.796 172.744c.049 59.727 46.488 107.029 105.508 107.535 58.605.508 106.367-46.76 107.318-106.172.951-61.094-48.836-111.928-108.213-110.475-58.607 1.452-104.687 49.485-104.613 109.112zM269.696 340.062c9.1-3.76 19.852-.674 31.158-5.338-4.676-22.461-4.877-61.672-37.887-61.729-8.295-.014-23.168 14.234-23.6 22.541-1.055 19.518 1.123 43.281 30.846 40.146-.046.025-.517 4.38-.517 4.38z"/></g><g fill-rule="evenodd" clip-rule="evenodd"><path fill="#ED1C24" d="M278.097 279.727c-3.656 10.545-11.102 7.346-16.764 3.102-9.85 4.643-20.693 3.252-27.83-5.959-5.029-6.494-6.072-13.877-2.742-21.428 1.201-2.713.607-4.139-1.271-5.973-3.535-3.441-6.861-7.111-10.123-10.523 8.402-4.422 11.135-10.287 12.371-16.273 2.957 2.355 6.199 4.939 9.643 7.68-.604.941-1.355 2.119-2.367 3.719 2.721 1.58 5.482 3.191 8.543 4.975.311-.348 1.236-1.402 2.684-3.031 5.709 4.652 11.756 8.963 17.039 14.084 4.184 4.059 5.51 9.688 4.861 15.582-.201 1.871.217 3.037 1.756 4.541 1.868 1.824 5.622 6.015 4.2 9.504m-15.369-17.754c-.943-6.709-6.961-11.232-13.725-10.301-6.844.934-11.375 6.82-10.488 13.594.898 6.777 7.312 11.662 13.98 10.637 6.539-1.01 11.164-7.294 10.233-13.93zm9.382 20.851c.338-.291 1.49-2.588 3.035-4.525l-3.383-6.352c-2.49 3.523-4.498 6.35-6.926 9.773 1.987.37 5.048.696 7.274 1.104z"/><path fill="#fff" d="M262.728 261.973c.932 6.637-3.693 12.92-10.232 13.93-6.668 1.025-13.082-3.859-13.98-10.637-.887-6.773 3.645-12.66 10.488-13.594 6.763-.932 12.78 3.592 13.724 10.301zm-21.27 2.584c.539 5.354 4.965 8.967 10.234 8.355 5.133-.588 8.641-4.939 8.133-10.074-.531-5.273-5.074-9.021-10.264-8.471-4.949.533-8.609 5.137-8.103 10.19zM272.11 282.824c-2.227-.408-5.287-.734-7.273-1.104 2.428-3.424 4.436-6.25 6.926-9.773 1.068 2.004 2.1 3.947 3.383 6.352"/><path fill="#ED1C24" d="M241.458 264.557c-.506-5.053 3.154-9.656 8.104-10.189 5.189-.551 9.732 3.197 10.264 8.471.508 5.135-3 9.486-8.133 10.074-5.27.61-9.696-3.003-10.235-8.356z"/></g><path clip-rule="evenodd" stroke="#fff" stroke-width="1.044" stroke-miterlimit="10" d="M190.681 202.066s29.342 29.934-3.537 51.4" fill="none"/><path clip-rule="evenodd" stroke="#fff" stroke-width=".87" stroke-miterlimit="10" d="M230.937 217.002s1.525 16.752-15.23 19.584" fill="none"/><path fill-rule="evenodd" clip-rule="evenodd" fill="#ED1C24" d="M264.147 238.736l187.239-154.195-51.766-52.871-154.762 191.213zM281.771 273.436l244.511 24.365-9.916-65.668-242.01 20.076zM268.524 238.791l144.965-91.133 24.914 51.492-163.615 48.955z"/><g clip-rule="evenodd"><path stroke="#F1F2F2" stroke-width="1.543" stroke-miterlimit="10" d="M45.761 161.377c-3.135-9.303-3.725-18.492 1.441-27.199 1.1-1.859 1.812-3.691 2.1-5.838 1.02-7.715 4.125-14.279 9.928-19.318 1.064-.922 2.242-1.891 2.865-3.117 5.021-9.857 13.262-14.77 23.371-17.123 2.57-.596 5.541-.398 7.594-2.447 4.504-4.518 10.09-5.918 16.01-5.652 3.086.139 5.666-.561 8.301-1.902 3.574-1.834 7.17-2.947 11.408-2.607 2.475.197 4.586 2.215 7.27 1.156 2.09-.814 4.389-1.016 6.598-1.492l-.035-.012c.525.059 1.064.219 1.586.154 6.336-.74 12.498-.469 18.801 1.344 2.254.643 3.463 3.537 6.102 2.619.949-.951 1.961-1.24 3.08-.27l6.051.529c7.508 1.656 14.389 4.822 20.275 9.984 5.453 4.791 11.674 9.027 13.391 17.088.195.896 1.004 1.732 1.68 2.436 3.539 3.645 4.652 8.154 4.834 13.166.221 5.889-1.045 11.562-1.777 17.316-.67 1.307-.689 2.729-.67 4.164.088.125.152.25.215.373l-.049.402c-.086.424-.172.844-.25 1.27-.701 2.473-1.402 4.947-2.109 7.42-.201.424-.406.854-.627 1.268l-.322.52c-.145.199-.287.395-.447.584-.307.371-.525.793-.664 1.229-5.498 7.037-12.561 11.918-20.623 15.385-1.566.678-2.215 1.82-2.695 3.414-1.598 5.332-3.502 10.547-5.523 15.727-1.436 3.67-3.803 5.928-7.293 7.438-8.137 3.52-17.236 3.314-25.318 7.107-1.492.705-2.475 1.172-3.027 2.811-2.346 6.836-4.67 13.688-7.535 20.314-1.168 2.693-2.963 4.17-5.852 4.477-5.822.615-11.586.021-17.33-.803-3.289-.473-4.018-2.326-2.795-5.582.568-1.535 1.957-2.68 1.957-4.836-3.783 1.236-7.576 1.793-11.389 2.227-3.861.438-7.699.201-11.523-.578-1.803-.73-3.609-1.469-5.426-2.201-2.457.084-3.629-1.807-4.9-3.533-5.678-5.188-9.467-11.693-11.506-19.15-.795-2.885-1.889-3.609-4.598-3.551-10.143.236-16.488-6.117-17.107-16.74-.064-1.084.25-2.287-.623-3.213-2.859-3.02-3.184-6.713-2.684-10.629.991-1.414.304-2.736-.161-4.129z" fill="none"/><path fill-rule="evenodd" fill="#F1F2F2" d="M56.737 158.713c-2.779-8.24-3.301-16.383 1.281-24.1.98-1.643 1.607-3.27 1.857-5.17.904-6.838 3.658-12.654 8.803-17.121.939-.814 1.98-1.674 2.533-2.758 4.449-8.734 11.75-13.088 20.715-15.174 2.271-.527 4.904-.354 6.721-2.172 3.996-4 8.941-5.238 14.189-5.008 2.732.125 5.023-.492 7.348-1.682 3.18-1.621 6.361-2.609 10.119-2.311 2.193.172 4.057 1.957 6.441 1.027 1.844-.721 3.889-.908 5.842-1.326l-.029-.008c.461.049.941.191 1.396.135 5.617-.654 11.082-.414 16.668 1.191 1.996.568 3.07 3.135 5.4 2.318.85-.842 1.744-1.098 2.732-.238 1.785.156 3.576.314 5.361.473 6.646 1.463 12.748 4.271 17.957 8.848 4.842 4.244 10.35 8 11.871 15.139.172.793.889 1.533 1.494 2.154 3.139 3.234 4.117 7.232 4.279 11.666.195 5.219-.928 10.246-1.574 15.344-.594 1.156-.613 2.422-.594 3.691.078.107.133.223.186.33l-.039.361-.221 1.123c-.627 2.189-1.246 4.379-1.863 6.574-.182.375-.369.754-.564 1.123l-.285.457c-.131.182-.254.354-.396.52-.266.326-.459.697-.584 1.092-4.871 6.232-11.129 10.555-18.273 13.631-1.387.6-1.959 1.611-2.387 3.02-1.418 4.729-3.109 9.35-4.9 13.938-1.27 3.254-3.369 5.254-6.455 6.586-7.221 3.123-15.279 2.939-22.441 6.305-1.318.617-2.188 1.033-2.682 2.49-2.078 6.057-4.141 12.121-6.676 17.998-1.031 2.389-2.625 3.697-5.186 3.967-5.154.543-10.266.02-15.354-.713-2.918-.422-3.561-2.062-2.48-4.943.51-1.361 1.736-2.379 1.74-4.287-3.355 1.096-6.715 1.59-10.09 1.973-3.426.387-6.828.178-10.211-.512l-4.805-1.949c-2.182.074-3.221-1.602-4.35-3.135-5.021-4.594-8.383-10.359-10.195-16.967-.701-2.553-1.674-3.195-4.068-3.141-8.99.203-14.617-5.42-15.162-14.836-.059-.963.227-2.031-.549-2.846-2.541-2.68-2.826-5.953-2.381-9.42.885-1.255.279-2.425-.139-3.657z"/></g><path clip-rule="evenodd" fill="none" d="M69.434 110.992l41.554-21.458 7.741 14.991-41.554 21.458z"/><text transform="matrix(.889 -.459 .459 .889 74.357 120.471)" fill="#505F72" font-family="'MyriadPro-Regular'" font-size="15.057">Active</text><path clip-rule="evenodd" fill="none" d="M200.144 130.531l-69.532 1.037-.371-24.845 69.524-1.037z"/><text transform="matrix(1 -.015 .015 1 130.511 120.227)" fill="#505F72" font-family="'MyriadPro-Regular'" font-size="18.747">Fearless</text><path clip-rule="evenodd" fill="none" d="M69.52 138.745l51.605-21.213 6.187 15.05-51.605 21.213z"/><text transform="matrix(.926 -.381 .38 .925 73.754 148.83)"><tspan x="0" y="0" fill="#505F72" font-family="'MyriadPro-Regular'" font-size="11.757">Outraged</tspan></text><path clip-rule="evenodd" fill="none" d="M102.514 198.733l34.32-14.108 4.74 11.531-34.32 14.108z"/><text transform="matrix(.926 -.381 .38 .925 106.741 208.816)"><tspan x="0" y="0" fill="#505F72" font-family="'MyriadPro-Regular'" font-size="11.757">Patient</tspan></text><path clip-rule="evenodd" fill="none" d="M154.675 123.243l65.634-1.169.232 13.024-65.634 1.169z"/><text transform="matrix(1 -.018 .018 1 154.708 130.755)" fill="#505F72" font-family="'MyriadPro-Regular'" font-size="10.584">Responsible</text><path clip-rule="evenodd" fill="none" d="M185.306 159.369l-65.631 1.16-.237-13.021 65.641-1.168z"/><text transform="matrix(1 -.018 .018 1 119.473 155.006)" fill="#505F72" font-family="'MyriadPro-Regular'" font-size="10.584">Responsible</text><path fill="none" d="M186.993 174.092l-92.963 1.65-.215-11.951 92.961-1.652z"/><text transform="matrix(1 -.018 .018 1 93.816 169.712)" fill="#505F72" font-family="'MyriadPro-Regular'" font-size="8.359">Willingness to see change</text><path clip-rule="evenodd" fill="none" d="M118.601 154.252l-36.446.637-.259-7.227 36.445-.639z"/><text transform="matrix(1 -.017 .036 .999 82.171 152.481)" fill="#505F72" font-family="'MyriadPro-Regular'" font-size="6.53">Independent</text><path clip-rule="evenodd" fill="none" d="M151.077 187.918l-49.973 9.174-2.025-9.947 49.967-9.178z"/><text transform="matrix(.977 -.179 .2 .98 100.295 193.434)" fill="#505F72" font-family="'MyriadPro-Regular'" font-size="9.164">Tenacious</text><path fill="none" d="M249.542 178.268l-159.813 2.658-1.015-24.149 159.812-2.65z"/><text transform="matrix(1 -.016 .036 .999 88.992 161.279)" fill="#505F72" font-family="'MyriadPro-Regular'" font-size="6.53">Transparent</text><path fill="none" d="M175.196 193.975l-34.41 5.894-1.408-7.355 34.414-5.891z"/><text transform="matrix(.982 -.168 .189 .982 140.393 197.33)" fill="#505F72" font-family="'MyriadPro-Regular'" font-size="6.531">Concerned</text><path fill="none" d="M173.052 162.205l-32.707.545-.215-5.113 32.717-.543z"/><text transform="matrix(1 -.016 .036 .999 140.41 162.184)" fill="#505F72" font-family="'MyriadPro-Regular'" font-size="6.53">Optimistic</text><path fill="none" d="M174.726 187.361l-32.723-.054-.113-5.114 32.707.051z"/><text transform="matrix(1 .002 .017 1 142.079 186.955)" fill="#505F72" font-family="'MyriadPro-Regular'" font-size="6.53">Informed</text><path fill="none" d="M202.419 158.453l-25.207.387-.227-7.629 25.203-.393z"/><text transform="matrix(1 -.016 .036 .999 177.233 155.767)" fill="#505F72" font-family="'MyriadPro-Regular'" font-size="6.53">Heroic</text><path fill="none" d="M143.282 212.016l-25.201.39-.23-7.635 25.201-.386z"/><text transform="matrix(1 -.016 .036 .999 118.098 209.33)" fill="#505F72" font-family="'MyriadPro-Regular'" font-size="6.53">Affected</text><path clip-rule="evenodd" fill="none" d="M231.806 147.217l-55.629.883-.285-11.188 55.634-.881z"/><text transform="matrix(.987 -.016 .025 1 175.895 144.334)" fill="#505F72" font-family="'MyriadPro-Regular'" font-size="10.102">Honest</text><path clip-rule="evenodd" fill="none" d="M60.232 132.052l71.695-34.764 6.676 13.769-71.695 34.764z"/><text transform="matrix(.9 -.436 .436 .9 64.718 141.026)" fill="#505F72" font-family="'MyriadPro-Regular'" font-size="13.935">Participatory</text><path clip-rule="evenodd" fill="none" d="M196.733 110.055l-84.402-7.789 1.365-14.883 84.407 7.791z"/><text transform="matrix(.996 .092 -.092 .996 112.893 97.941)" fill="#505F72" font-family="'MyriadPro-Regular'" font-size="14.806">Courageous</text><path clip-rule="evenodd" fill="none" d="M94.267 198.891l-30.805-41.432 13.17-9.637 30.801 41.438z"/><text transform="matrix(.596 .801 -.807 .59 67.562 154.723)" fill="#505F72" font-family="'MyriadPro-Regular'" font-size="16.031">Ethical</text><path clip-rule="evenodd" fill="none" d="M117.868 124.006l38.462.635-.123 7.463-38.462-.635z"/><text transform="matrix(1 .017 -.017 1 117.619 128.855)" fill="#505F72" font-family="'MyriadPro-Regular'" font-size="6.905">Accountable</text><path clip-rule="evenodd" fill="none" d="M176.946 147.318l-69.043.588-.119-12.818 69.049-.594z"/><text transform="matrix(1.002 -.009 .009 1 107.709 144.403)" fill="#505F72" font-family="'MyriadPro-Regular'" font-size="12.935">Determined</text><path clip-rule="evenodd" fill="none" d="M169.854 182.076l-69.662.598-.113-12.453 69.662-.594z"/><text transform="matrix(1.002 -.009 .009 1 100 179.541)" fill="#505F72" font-family="'MyriadPro-Regular'" font-size="12.935">Accountable</text><path clip-rule="evenodd" fill="none" d="M94.683 219.578l-43.243-56.213 13.596-10.457 43.235 56.215z"/><text transform="matrix(.61 .793 -.793 .61 57.516 158.876)" fill="#505F72" font-family="'MyriadPro-Regular'" font-size="13.519">Honourable</text><path clip-rule="evenodd" fill="none" d="M447.345 62.463l-133.551 142.574-25.158-23.516 133.56-142.574z"/><text transform="matrix(.684 -.73 .73 .683 306.511 198.189)" fill="#505F72" font-family="'MyriadPro-Regular'" font-size="34.122">Courageous</text><path clip-rule="evenodd" fill="none" d="M439.526 188.705l-124.511 49.856-8.809-21.934 124.516-49.85z"/><text transform="matrix(.929 -.372 .372 .928 312.488 232.087)" fill="#505F72" font-family="'MyriadPro-Regular'" font-size="23.419">Accountable</text><path clip-rule="evenodd" fill="none" d="M513.456 297.854l-143.215-3.315 1.08-47.414 143.219 3.33z"/><text transform="matrix(1 .023 -.023 1 370.659 280.099)" fill="#505F72" font-family="'MyriadPro-Regular'" font-size="46.342">Ethical</text><defs><path id="a" d="M237.022 385.283c0-11.447-9.318-20.738-20.812-20.738-8.32 0-15.48 4.855-18.816 11.877-3.346-7.021-10.516-11.877-18.828-11.877-10.213 0-18.721 7.359-20.469 17.055 0 0-3.432 13.354 11.4 30.119 13.521 15.281 24.523 20.033 27.797 24.727 3.275-4.693 14.287-9.445 27.805-24.727 7.207-8.162 10.115-15.514 11.168-20.922.496-1.745.755-3.594.755-5.514z"/></defs><use xlink:href="#a" overflow="visible" fill="#fff"/><clipPath id="b"><use xlink:href="#a" overflow="visible"/></clipPath><g clip-path="url(#b)"><path fill="#FFB819" d="M147.261 365.839l33.051 32.838-33.051 32.776v5.068h3.324l37.467-37.467-38.471-38.469h-2.32v5.254z"/><path fill="#007549" d="M147.261 360.736l38.154 37.996-37.953 37.789h26.6l28.021-27.314h75.918v-20.948h-75.918l-28.375-27.674h-26.447v.151z"/><path fill="#E63C2F" d="M178.589 360.585l24.988 25.151 74.424.006v-25.157h-99.412z"/><path fill="#001689" d="M278.001 436.521v-24.998h-74.318l-25.237 24.998h99.555z"/><path fill="#231F20" d="M180.312 398.677l-33.051-32.767v65.646l33.051-32.879z"/></g></svg>