<svg xmlns="http://www.w3.org/2000/svg" xmlns:xlink="http://www.w3.org/1999/xlink" width="560" height="960" viewBox="0 0 560 960"><g fill="#333"><path d="M299.343 322.758c-4.674-22.465-3.365-49.705-36.375-49.762-8.295-.014-23.168 14.234-23.6 22.541-1.055 19.518 1.992 41.779 31.791 38.635-38.678.039-77.229.039-115.779.039-.094-2.133-.189-4.262-.303-6.412 14.801-.699 29.59-1.41 44.395-2.125 1.434-2.658 2.859-5.307 4.291-7.969-14.902-6.625-31.512-20.875-44.262-17.971-17.086 3.869-41.361 18.762-44.447 32.879-6.523 29.732-9.314 64.99.721 92.791 28.23 78.137 10.096 146.451-29.836 213.367-2.42 4.07-3.711 8.811-7.555 18.209 24.902 2.178 46.918 4.086 71.564 6.24 10.268 62.02-1.004 121.018-17.895 179.502-3.49 12.137-12.516 25.018-10.412 35.916 3.145 16.428 9.834 38.303 22.201 45.461 20.557 11.912 41.398-1.275 46.27-24.223 14.078-66.428 25.541-133.422 37.559-200.285 1.516-8.48.207-17.469.207-28.791 13.477-1.076 25.422-2.035 41.354-3.293-10.43-77.236-20.646-152.934-29.143-215.74 23.727-23.26 39.496-39.877 56.654-54.906 5.9-5.16 15.064-7.227 23.107-9.219 25.713-6.348 52.695-9.34 76.928-19.178 10.07-4.102 14.426-22.219 21.379-33.957-12.1-5.885-24.689-17.566-36.215-16.602-37.58 3.182-74.766 10.996-112.104 17.02 9.099-3.765 18.198-7.501 29.505-12.167zm-141.578-42.479c47.434.412 86.092-37.822 86.857-85.879.77-49.418-39.527-90.539-87.588-89.367-47.434 1.176-84.732 40.033-84.674 88.262.049 48.314 37.627 86.576 85.405 86.984z"/><path fill-rule="evenodd" clip-rule="evenodd" d="M203.399 326.168c.078-2.666-.279-4.553-.08-8.703-14.891-6.629-31.068-20.635-43.818-17.73-17.086 3.869-41.361 18.762-44.447 32.879-6.523 29.732-9.314 64.99.721 92.791 28.23 78.137 10.096 146.451-29.836 213.367-2.42 4.07-3.711 8.811-7.555 18.209 24.902 2.178 46.918 4.086 71.564 6.24 10.268 62.02-1.004 121.018-17.895 179.502-3.49 12.137-12.516 25.018-10.412 35.916 3.145 16.428 9.834 38.303 22.201 45.461 20.557 11.912 41.398-1.275 46.27-24.223 14.078-66.428 25.541-133.422 37.559-200.285 1.516-8.48.207-17.469.207-28.791 13.477-1.076 25.422-2.035 41.354-3.293-10.43-77.236-20.646-152.934-29.143-215.74 23.727-23.26 39.496-39.877 56.654-54.906 5.9-5.16 15.064-7.227 23.107-9.219 25.713-6.348 52.695-9.34 76.928-19.178 10.07-4.102 24.609-17.354 21.744-32.973-2.434-13.232-25.055-18.551-36.58-17.586-37.58 3.182-74.766 10.996-112.104 17.02l1.191-.715"/><path fill-rule="evenodd" clip-rule="evenodd" d="M31.796 172.744c.049 59.727 46.488 107.029 105.508 107.535 58.605.508 106.367-46.76 107.318-106.172.951-61.094-48.836-111.928-108.213-110.475-58.607 1.452-104.687 49.485-104.613 109.112zM269.696 340.062c9.1-3.76 19.852-.674 31.158-5.338-4.676-22.461-4.877-61.672-37.887-61.729-8.295-.014-23.168 14.234-23.6 22.541-1.055 19.518 1.123 43.281 30.846 40.146-.046.025-.517 4.38-.517 4.38z"/></g><g fill-rule="evenodd" clip-rule="evenodd"><path fill="#ED1C24" d="M278.097 279.727c-3.656 10.545-11.102 7.346-16.764 3.102-9.85 4.643-20.693 3.252-27.83-5.959-5.029-6.494-6.072-13.877-2.742-21.428 1.201-2.713.607-4.139-1.271-5.973-3.535-3.441-6.861-7.111-10.123-10.523 8.402-4.422 11.135-10.287 12.371-16.273 2.957 2.355 6.199 4.939 9.643 7.68-.604.941-1.355 2.119-2.367 3.719 2.721 1.58 5.482 3.191 8.543 4.975.311-.348 1.236-1.402 2.684-3.031 5.709 4.652 11.756 8.963 17.039 14.084 4.184 4.059 5.51 9.688 4.861 15.582-.201 1.871.217 3.037 1.756 4.541 1.868 1.824 5.622 6.015 4.2 9.504m-15.369-17.754c-.943-6.709-6.961-11.232-13.725-10.301-6.844.934-11.375 6.82-10.488 13.594.898 6.777 7.312 11.662 13.98 10.637 6.539-1.01 11.164-7.294 10.233-13.93zm9.382 20.851c.338-.291 1.49-2.588 3.035-4.525l-3.383-6.352c-2.49 3.523-4.498 6.35-6.926 9.773 1.987.37 5.048.696 7.274 1.104z"/><path fill="#fff" d="M262.728 261.973c.932 6.637-3.693 12.92-10.232 13.93-6.668 1.025-13.082-3.859-13.98-10.637-.887-6.773 3.645-12.66 10.488-13.594 6.763-.932 12.78 3.592 13.724 10.301zm-21.27 2.584c.539 5.354 4.965 8.967 10.234 8.355 5.133-.588 8.641-4.939 8.133-10.074-.531-5.273-5.074-9.021-10.264-8.471-4.949.533-8.609 5.137-8.103 10.19zM272.11 282.824c-2.227-.408-5.287-.734-7.273-1.104 2.428-3.424 4.436-6.25 6.926-9.773 1.068 2.004 2.1 3.947 3.383 6.352"/><path fill="#ED1C24" d="M241.458 264.557c-.506-5.053 3.154-9.656 8.104-10.189 5.189-.551 9.732 3.197 10.264 8.471.508 5.135-3 9.486-8.133 10.074-5.27.61-9.696-3.003-10.235-8.356z"/></g><path clip-rule="evenodd" stroke="#fff" stroke-width="1.044" stroke-miterlimit="10" d="M190.681 202.066s29.342 29.934-3.537 51.4" fill="none"/><path clip-rule="evenodd" stroke="#fff" stroke-width=".87" stroke-miterlimit="10" d="M230.937 217.002s1.525 16.752-15.23 19.584" fill="none"/><path fill-rule="evenodd" clip-rule="evenodd" fill="#ED1C24" d="M264.147 238.736l187.239-154.195-51.766-52.871-154.762 191.213zM281.771 273.436l244.511 24.365-9.916-65.668-242.01 20.076zM268.524 238.791l144.965-91.133 24.914 51.492-163.615 48.955z"/><g clip-rule="evenodd"><path stroke="#F1F2F2" stroke-width="1.543" stroke-miterlimit="10" d="M45.761 161.377c-3.135-9.303-3.725-18.492 1.441-27.199 1.1-1.859 1.812-3.691 2.1-5.838 1.02-7.715 4.125-14.279 9.928-19.318 1.064-.922 2.242-1.891 2.865-3.117 5.021-9.857 13.262-14.77 23.371-17.123 2.57-.596 5.541-.398 7.594-2.447 4.504-4.518 10.09-5.918 16.01-5.652 3.086.139 5.666-.561 8.301-1.902 3.574-1.834 7.17-2.947 11.408-2.607 2.475.197 4.586 2.215 7.27 1.156 2.09-.814 4.389-1.016 6.598-1.492l-.035-.012c.525.059 1.064.219 1.586.154 6.336-.74 12.498-.469 18.801 1.344 2.254.643 3.463 3.537 6.102 2.619.949-.951 1.961-1.24 3.08-.27l6.051.529c7.508 1.656 14.389 4.822 20.275 9.984 5.453 4.791 11.674 9.027 13.391 17.088.195.896 1.004 1.732 1.68 2.436 3.539 3.645 4.652 8.154 4.834 13.166.221 5.889-1.045 11.562-1.777 17.316-.67 1.307-.689 2.729-.67 4.164.088.125.152.25.215.373l-.049.402c-.086.424-.172.844-.25 1.27-.701 2.473-1.402 4.947-2.109 7.42-.201.424-.406.854-.627 1.268l-.322.52c-.145.199-.287.395-.447.584-.307.371-.525.793-.664 1.229-5.498 7.037-12.561 11.918-20.623 15.385-1.566.678-2.215 1.82-2.695 3.414-1.598 5.332-3.502 10.547-5.523 15.727-1.436 3.67-3.803 5.928-7.293 7.438-8.137 3.52-17.236 3.314-25.318 7.107-1.492.705-2.475 1.172-3.027 2.811-2.346 6.836-4.67 13.688-7.535 20.314-1.168 2.693-2.963 4.17-5.852 4.477-5.822.615-11.586.021-17.33-.803-3.289-.473-4.018-2.326-2.795-5.582.568-1.535 1.957-2.68 1.957-4.836-3.783 1.236-7.576 1.793-11.389 2.227-3.861.438-7.699.201-11.523-.578-1.803-.73-3.609-1.469-5.426-2.201-2.457.084-3.629-1.807-4.9-3.533-5.678-5.188-9.467-11.693-11.506-19.15-.795-2.885-1.889-3.609-4.598-3.551-10.143.236-16.488-6.117-17.107-16.74-.064-1.084.25-2.287-.623-3.213-2.859-3.02-3.184-6.713-2.684-10.629.991-1.414.304-2.736-.161-4.129z" fill="none"/><path fill-rule="evenodd" fill="#F1F2F2" d="M56.737 158.713c-2.779-8.24-3.301-16.383 1.281-24.1.98-1.643 1.607-3.27 1.857-5.17.904-6.838 3.658-12.654 8.803-17.121.939-.814 1.98-1.674 2.533-2.758 4.449-8.734 11.75-13.088 20.715-15.174 2.271-.527 4.904-.354 6.721-2.172 3.996-4 8.941-5.238 14.189-5.008 2.732.125 5.023-.492 7.348-1.682 3.18-1.621 6.361-2.609 10.119-2.311 2.193.172 4.057 1.957 6.441 1.027 1.844-.721 3.889-.908 5.842-1.326l-.029-.008c.461.049.941.191 1.396.135 5.617-.654 11.082-.414 16.668 1.191 1.996.568 3.07 3.135 5.4 2.318.85-.842 1.744-1.098 2.732-.238 1.785.156 3.576.314 5.361.473 6.646 1.463 12.748 4.271 17.957 8.848 4.842 4.244 10.35 8 11.871 15.139.172.793.889 1.533 1.494 2.154 3.139 3.234 4.117 7.232 4.279 11.666.195 5.219-.928 10.246-1.574 15.344-.594 1.156-.613 2.422-.594 3.691.078.107.133.223.186.33l-.039.361-.221 1.123c-.627 2.189-1.246 4.379-1.863 6.574-.182.375-.369.754-.564 1.123l-.285.457c-.131.182-.254.354-.396.52-.266.326-.459.697-.584 1.092-4.871 6.232-11.129 10.555-18.273 13.631-1.387.6-1.959 1.611-2.387 3.02-1.418 4.729-3.109 9.35-4.9 13.938-1.27 3.254-3.369 5.254-6.455 6.586-7.221 3.123-15.279 2.939-22.441 6.305-1.318.617-2.188 1.033-2.682 2.49-2.078 6.057-4.141 12.121-6.676 17.998-1.031 2.389-2.625 3.697-5.186 3.967-5.154.543-10.266.02-15.354-.713-2.918-.422-3.561-2.062-2.48-4.943.51-1.361 1.736-2.379 1.74-4.287-3.355 1.096-6.715 1.59-10.09 1.973-3.426.387-6.828.178-10.211-.512l-4.805-1.949c-2.182.074-3.221-1.602-4.35-3.135-5.021-4.594-8.383-10.359-10.195-16.967-.701-2.553-1.674-3.195-4.068-3.141-8.99.203-14.617-5.42-15.162-14.836-.059-.963.227-2.031-.549-2.846-2.541-2.68-2.826-5.953-2.381-9.42.885-1.255.279-2.425-.139-3.657z"/></g><g fill="#505F72"><path d="M75.369 116.355l.528 3.321-1.205.622-1.591-10.602 1.405-.726 7.734 7.431-1.245.643-2.428-2.339-3.198 1.65zm2.487-2.436l-2.224-2.141c-.505-.485-.914-.952-1.318-1.405l-.027.014c.143.605.278 1.229.389 1.869l.463 3.065 2.717-1.402zM87.854 113.198c-.225.319-.797.886-1.667 1.335-1.954 1.008-3.909.339-4.931-1.641-1.029-1.994-.41-4.144 1.705-5.235.696-.359 1.4-.503 1.805-.509l.202 1.049c-.364-.016-.881.064-1.523.396-1.485.767-1.722 2.279-1.025 3.63.774 1.499 2.214 1.926 3.499 1.262.669-.345 1.021-.748 1.28-1.067l.655.78zM86.645 103.568l.96 1.86 1.687-.871.463.896-1.687.871 1.803 3.493c.414.803.877 1.141 1.533.802.308-.159.515-.316.641-.433l.509.855c-.178.211-.506.465-.96.7-.549.283-1.08.337-1.527.161-.514-.175-.932-.689-1.325-1.452l-1.823-3.533-1.004.518-.463-.896 1.004-.518-.802-1.553.991-.9zM90.986 101.378c.221.395.092.867-.376 1.109-.415.214-.875.045-1.083-.356-.214-.415-.071-.896.356-1.116.443-.229.889-.052 1.103.363zm2.972 8.975l-3.343-6.478 1.178-.608 3.343 6.478-1.178.608zM94.2 102.024l3.15 2.984c.518.478.968.924 1.378 1.39l.041-.021c-.13-.611-.219-1.244-.308-1.942l-.621-4.29 1.231-.636.8 7.791-1.124.58-5.806-5.207 1.259-.649zM102.485 102.121c.848 1.579 2.204 1.709 3.382 1.101.843-.435 1.275-.845 1.62-1.261l.636.74c-.318.401-.917.981-1.947 1.514-1.994 1.029-3.862.333-4.871-1.622-1.008-1.954-.652-4.087 1.235-5.061 2.115-1.092 3.638.479 4.252 1.669.124.241.194.442.243.57l-4.55 2.35zm3.017-2.626c-.373-.757-1.295-1.754-2.62-1.07-1.19.615-1.146 1.981-.819 2.845l3.439-1.775z"/></g><g fill="#505F72"><path d="M131.745 107.567l6.801-.102.021 1.369-5.171.077.063 4.2 4.778-.071.02 1.35-4.778.071.086 5.719-1.63.024-.19-12.637zM141.279 115.828c.071 2.231 1.509 3.128 3.157 3.104 1.181-.018 1.89-.234 2.504-.506l.299 1.177c-.577.271-1.566.586-3.008.607-2.792.042-4.487-1.771-4.528-4.508-.041-2.737 1.538-4.918 4.18-4.957 2.96-.044 3.786 2.55 3.811 4.219.005.337-.028.6-.044.769l-6.371.095zm4.816-1.253c.003-1.051-.471-2.675-2.326-2.647-1.668.025-2.375 1.573-2.489 2.719l4.815-.072zM154.834 119.864l-.148-1.142-.056.001c-.495.72-1.459 1.372-2.752 1.391-1.836.028-2.793-1.252-2.812-2.564-.033-2.194 1.897-3.423 5.401-3.456l-.003-.188c-.011-.75-.238-2.098-2.092-2.07-.843.012-1.72.288-2.351.71l-.391-1.083c.742-.499 1.824-.833 2.967-.85 2.772-.042 3.476 1.842 3.503 3.661l.051 3.394c.012.788.061 1.556.183 2.172l-1.5.024zm-.313-4.628c-1.799-.011-3.836.339-3.81 2.102.016 1.069.735 1.564 1.579 1.552 1.18-.018 1.918-.779 2.169-1.552.053-.169.088-.358.085-.526l-.023-1.576zM158.752 113.56c-.016-1.069-.048-1.987-.117-2.831l1.443-.022.083 1.781.075-.001c.394-1.225 1.376-2.008 2.481-2.024.187-.003.318.014.469.048l.023 1.557c-.169-.035-.338-.051-.562-.047-1.162.017-1.973.911-2.179 2.152-.034.225-.068.488-.063.77l.072 4.837-1.63.024-.095-6.244zM164.85 106.398l1.648-.025.2 13.313-1.648.025-.2-13.313zM170.327 115.394c.071 2.231 1.508 3.129 3.157 3.104 1.181-.018 1.89-.234 2.503-.506l.299 1.177c-.577.271-1.565.586-3.008.607-2.791.042-4.486-1.771-4.528-4.509-.041-2.737 1.539-4.917 4.18-4.957 2.96-.044 3.786 2.55 3.811 4.22.005.337-.028.6-.044.769l-6.37.095zm4.817-1.253c.002-1.05-.472-2.675-2.327-2.647-1.668.025-2.375 1.574-2.489 2.72l4.816-.073zM178.611 117.821c.492.312 1.359.637 2.183.625 1.199-.018 1.752-.626 1.741-1.377-.012-.788-.487-1.212-1.711-1.644-1.639-.557-2.42-1.445-2.437-2.532-.022-1.463 1.141-2.68 3.088-2.709.918-.014 1.728.236 2.238.529l-.394 1.206c-.359-.22-1.02-.51-1.863-.497-.975.015-1.51.585-1.5 1.261.011.75.56 1.079 1.747 1.512 1.583.576 2.401 1.352 2.421 2.702.024 1.594-1.196 2.737-3.351 2.77-.993.015-1.915-.215-2.557-.58l.395-1.266zM186.032 117.71c.492.312 1.359.637 2.184.625 1.199-.018 1.752-.626 1.741-1.377-.012-.788-.487-1.212-1.711-1.644-1.639-.557-2.421-1.445-2.437-2.532-.022-1.463 1.141-2.68 3.088-2.709.918-.014 1.728.236 2.238.529l-.394 1.206c-.359-.22-1.02-.51-1.863-.497-.974.015-1.509.585-1.499 1.261.011.75.56 1.079 1.747 1.512 1.583.576 2.401 1.352 2.421 2.702.024 1.594-1.196 2.737-3.351 2.77-.993.015-1.915-.215-2.558-.58l.394-1.266z"/></g><g fill="#505F72"><path d="M79.319 142.167c1.038 2.524.051 4.495-1.823 5.265-1.939.797-3.919-.145-4.831-2.366-.957-2.328-.134-4.447 1.828-5.253 2.005-.825 3.931.177 4.826 2.354zm-5.65 2.461c.644 1.567 2.071 2.621 3.563 2.008 1.503-.618 1.786-2.349 1.101-4.014-.599-1.458-1.988-2.668-3.567-2.019-1.569.645-1.758 2.415-1.097 4.025zM85.906 142.155c.223.544.431 1.018.634 1.418l-.85.35-.408-.838-.021.009c-.076.528-.404 1.312-1.341 1.697-.828.341-2.007.291-2.768-1.559l-1.266-3.08.958-.394 1.199 2.916c.411 1.001.993 1.55 1.865 1.192.643-.264.906-.894.906-1.391-.004-.163-.043-.351-.114-.525l-1.328-3.231.958-.394 1.576 3.83zM86.452 135.686l.621 1.513 1.373-.564.3.729-1.373.564 1.167 2.841c.269.653.606.946 1.14.727.25-.103.422-.211.529-.294l.338.701c-.154.151-.425.327-.796.479-.447.184-.864.19-1.201.023-.389-.17-.679-.598-.934-1.219l-1.181-2.873-.817.336-.3-.729.817-.336-.519-1.263.836-.635zM90.198 137.834c-.254-.62-.485-1.149-.718-1.625l.838-.345.458 1.021.043-.018c-.051-.807.343-1.49.986-1.754l.286-.079.371.903c-.106.018-.209.047-.34.101-.676.278-.945.986-.78 1.758.032.14.072.301.14.464l1.154 2.808-.948.39-1.49-3.624zM98.114 138.816l-.349-.633-.033.014c-.124.535-.538 1.138-1.29 1.447-1.067.439-1.921-.089-2.234-.85-.523-1.273.324-2.436 2.366-3.263l-.045-.109c-.179-.435-.621-1.168-1.699-.725-.491.202-.94.563-1.211.956l-.478-.541c.319-.463.875-.908 1.54-1.181 1.612-.663 2.457.275 2.89 1.33l.81 1.971c.188.457.393.894.606 1.226l-.873.358zm-1.247-2.63c-1.055.409-2.167 1.083-1.746 2.106.255.619.79.743 1.28.541.687-.282.943-.896.912-1.405-.008-.112-.03-.229-.071-.328l-.375-.914zM102.82 130.725c.135.39.288.824.552 1.465l1.257 3.058c.496 1.208.561 2.046.236 2.713-.316.689-.993 1.146-1.658 1.42-.632.26-1.392.393-1.933.286l-.061-.827c.438.073 1.063.046 1.717-.223.981-.403 1.49-1.211.944-2.538l-.242-.588-.021.009c-.093.61-.499 1.236-1.316 1.572-1.307.537-2.7-.188-3.3-1.646-.733-1.785.017-3.276 1.226-3.773.915-.376 1.613-.103 2.021.238l.022-.009-.283-.812.839-.345zm-.136 2.486c-.067-.163-.136-.3-.234-.413-.402-.483-1.058-.748-1.755-.461-.916.376-1.252 1.417-.751 2.637.425 1.033 1.301 1.678 2.337 1.252.588-.242.97-.832.927-1.525-.014-.187-.067-.38-.135-.544l-.389-.946zM106.051 132.678c.554 1.287 1.601 1.479 2.56 1.084.687-.282 1.052-.571 1.348-.872l.445.618c-.275.292-.782.703-1.62 1.047-1.624.667-3.031 0-3.685-1.589s-.23-3.225 1.306-3.856c1.722-.708 2.801.617 3.198 1.584.081.196.122.358.151.46l-3.703 1.524zm2.529-1.841c-.239-.613-.89-1.453-1.969-1.009-.969.399-1.027 1.466-.831 2.161l2.8-1.152zM113.362 123.518l2.616 6.365c.192.468.422.996.603 1.342l-.86.354-.419-.896-.022.009c-.052.708-.512 1.419-1.372 1.773-1.275.524-2.698-.151-3.356-1.751-.731-1.747-.084-3.272 1.202-3.801.806-.331 1.507-.174 1.921.152l.022-.009-1.292-3.145.957-.393zm.933 4.996c-.049-.12-.128-.279-.209-.384-.393-.552-1.122-.837-1.84-.542-.991.408-1.222 1.521-.743 2.685.438 1.065 1.323 1.732 2.358 1.307.643-.264 1.057-.931.936-1.72-.021-.144-.064-.279-.126-.432l-.376-.914z"/></g><g fill="#505F72"><path d="M104.591 201.229c.426-.265.999-.576 1.761-.889.937-.385 1.713-.45 2.31-.237.547.182 1.006.618 1.273 1.27.273.663.292 1.267.078 1.799-.282.739-.987 1.348-1.914 1.728-.283.117-.549.213-.79.248l1.208 2.938-.947.39-2.979-7.247zm2.401 3.146c.229-.03.5-.116.816-.246 1.144-.47 1.613-1.312 1.197-2.323-.398-.969-1.276-1.156-2.322-.726-.415.17-.717.334-.862.444l1.171 2.851zM115.966 205.024l-.349-.633-.033.014c-.124.535-.538 1.138-1.29 1.447-1.067.438-1.922-.089-2.234-.851-.523-1.272.324-2.435 2.366-3.261l-.045-.109c-.179-.436-.621-1.168-1.699-.725-.491.202-.94.563-1.212.956l-.477-.542c.319-.461.875-.907 1.54-1.18 1.612-.663 2.457.275 2.89 1.33l.81 1.971c.188.457.393.894.606 1.226l-.873.357zm-1.246-2.629c-1.055.408-2.167 1.082-1.746 2.104.255.62.79.744 1.28.542.687-.282.943-.896.912-1.404-.008-.112-.03-.229-.071-.328l-.375-.914zM116.619 196.831l.622 1.512 1.373-.564.299.729-1.373.564 1.167 2.841c.269.652.606.946 1.14.727.25-.103.423-.212.529-.294l.338.701c-.154.151-.426.327-.796.479-.446.184-.864.189-1.2.023-.389-.17-.679-.599-.934-1.219l-1.181-2.873-.817.336-.299-.729.817-.336-.519-1.262.834-.635zM120.149 195.418c.145.322.013.682-.369.839-.337.139-.685-.024-.819-.351-.139-.338.005-.702.354-.845.36-.148.696.019.834.357zm1.705 7.186l-2.165-5.268.959-.394 2.165 5.268-.959.394zM123.926 198.877c.554 1.286 1.602 1.479 2.56 1.085.687-.282 1.051-.572 1.348-.872l.445.619c-.275.291-.781.703-1.62 1.047-1.624.667-3.031 0-3.684-1.589s-.231-3.225 1.306-3.856c1.721-.708 2.8.617 3.198 1.584.081.196.122.357.15.46l-3.703 1.522zm2.529-1.841c-.239-.613-.89-1.453-1.969-1.009-.97.398-1.027 1.466-.832 2.16l2.801-1.151zM128.279 195.473c-.223-.544-.417-.986-.629-1.408l.85-.349.413.849.021-.009c.056-.607.464-1.348 1.336-1.707.73-.3 2.043-.331 2.785 1.475l1.292 3.146-.959.395-1.248-3.036c-.35-.849-.956-1.427-1.86-1.055-.632.26-.938.908-.883 1.508.005.138.051.31.118.473l1.302 3.167-.959.395-1.579-3.844zM134.226 189.594l.622 1.512 1.373-.564.299.729-1.373.564 1.167 2.841c.269.652.606.946 1.14.727.25-.103.422-.212.529-.294l.338.701c-.153.151-.425.327-.795.479-.447.184-.864.189-1.201.023-.389-.17-.679-.599-.934-1.219l-1.181-2.873-.817.336-.299-.729.817-.336-.519-1.262.834-.635z"/></g><g fill="#505F72"><path d="M155.388 123.7c.464-.104 1.131-.168 1.766-.18.985-.018 1.623.151 2.075.545.365.312.576.795.585 1.346.017.942-.565 1.577-1.313 1.844v.032c.554.181.892.684 1.074 1.422.25.991.432 1.676.585 1.949l-.953.017c-.12-.199-.29-.811-.507-1.696-.229-.981-.617-1.345-1.455-1.362l-.868.016.055 3.092-.921.016-.123-7.041zm.979 3.234l.942-.017c.985-.018 1.6-.568 1.586-1.384-.017-.921-.691-1.312-1.666-1.305-.444.008-.761.056-.909.101l.047 2.605zM161.694 128.238c.043 1.259.857 1.764 1.789 1.747.667-.012 1.067-.135 1.415-.29l.17.664c-.326.154-.883.333-1.698.348-1.578.028-2.539-.993-2.566-2.539-.027-1.545.861-2.779 2.354-2.806 1.673-.03 2.144 1.434 2.161 2.376.003.191-.016.339-.024.435l-3.601.065zm2.72-.716c0-.593-.271-1.509-1.318-1.491-.942.017-1.34.892-1.402 1.539l2.72-.048zM166.375 129.595c.278.175.769.356 1.235.348.678-.012.989-.356.981-.779-.008-.445-.277-.684-.97-.926-.927-.312-1.37-.812-1.381-1.427-.015-.825.64-1.515 1.741-1.535.519-.009.978.131 1.266.295l-.221.682c-.203-.124-.577-.286-1.053-.278-.551.01-.853.333-.846.713.007.424.318.609.99.852.896.323 1.358.76 1.372 1.522.016.9-.671 1.547-1.889 1.569-.561.01-1.083-.119-1.446-.324l.221-.712zM170.648 127.02c-.012-.656-.042-1.186-.072-1.672l.837-.015.058.878h.021c.371-.631.967-1.012 1.803-1.027 1.239-.022 2.189 1.01 2.217 2.566.033 1.842-1.074 2.773-2.281 2.794-.678.012-1.276-.274-1.592-.777h-.021l.049 2.785-.921.017-.098-5.549zm.946 1.349c.002.138.026.264.049.38.181.643.75 1.078 1.416 1.066.985-.018 1.543-.832 1.522-2.007-.018-1.027-.574-1.896-1.559-1.879-.635.012-1.22.477-1.388 1.179-.03.117-.059.255-.057.382l.017.879zM181.322 127.677c.034 1.895-1.265 2.745-2.503 2.767-1.387.024-2.475-.973-2.503-2.593-.03-1.715 1.074-2.741 2.493-2.766 1.471-.026 2.485 1.025 2.513 2.592zm-4.065.125c.02 1.123.681 1.958 1.591 1.941.89-.016 1.542-.864 1.521-2.018-.015-.868-.469-1.961-1.57-1.942s-1.559 1.045-1.542 2.019zM182.474 126.523c-.009-.529-.027-.962-.067-1.386l.826-.015.067.846h.021c.246-.491.83-.979 1.677-.994.709-.012 1.818.392 1.85 2.148l.054 3.061-.932.016-.053-2.954c-.015-.826-.334-1.508-1.213-1.492-.614.011-1.083.453-1.232.975-.041.117-.059.276-.056.435l.055 3.081-.932.017-.065-3.738zM188.27 129.206c.279.175.769.356 1.235.348.678-.012.989-.356.981-.779-.008-.445-.277-.684-.97-.925-.927-.312-1.371-.813-1.381-1.427-.015-.825.641-1.515 1.742-1.534.519-.009.977.13 1.266.295l-.221.682c-.203-.124-.576-.287-1.053-.278-.551.01-.853.333-.846.713.007.424.318.609.99.851.895.323 1.358.76 1.372 1.522.016.9-.671 1.547-1.889 1.569-.561.01-1.083-.118-1.446-.324l.22-.713zM193.526 123.499c.016.317-.212.576-.583.583-.328.006-.565-.245-.571-.562-.006-.329.233-.586.572-.592.349-.007.576.242.582.571zm-.922 6.583l-.091-5.125.932-.017.091 5.125-.932.017zM195.038 130.039c.015-.35.027-.869.019-1.324l-.11-6.194.921-.016.057 3.219h.021c.318-.578.904-.959 1.73-.974 1.271-.022 2.19 1.02 2.207 2.577.033 1.831-1.105 2.763-2.249 2.783-.741.013-1.339-.262-1.732-.933h-.032l-.027.848-.805.014zm.927-2.071c.002.116.025.233.048.338.191.643.74 1.077 1.417 1.065.974-.017 1.542-.821 1.521-1.997-.018-1.027-.563-1.896-1.559-1.878-.635.011-1.22.456-1.398 1.168-.019.106-.049.234-.046.382l.017.922zM200.968 122.414l.932-.017.133 7.517-.932.017-.133-7.517zM204.075 127.485c.043 1.259.857 1.764 1.789 1.747.667-.012 1.067-.135 1.414-.289l.17.664c-.326.154-.883.333-1.698.348-1.578.028-2.539-.992-2.566-2.539-.027-1.545.861-2.78 2.354-2.806 1.673-.03 2.144 1.434 2.161 2.376.003.191-.016.339-.024.435l-3.6.064zm2.72-.716c0-.593-.271-1.509-1.318-1.491-.942.017-1.34.892-1.402 1.539l2.72-.048z"/></g><g fill="#505F72"><path d="M120.153 147.951c.464-.103 1.13-.168 1.765-.18.985-.018 1.624.151 2.075.546.365.312.576.794.585 1.345.017.942-.565 1.578-1.312 1.845v.032c.554.181.891.683 1.073 1.421.25.991.432 1.677.585 1.949l-.953.017c-.12-.199-.29-.81-.507-1.696-.229-.981-.617-1.345-1.454-1.362l-.868.016.055 3.092-.921.016-.123-7.041zm.978 3.234l.942-.017c.985-.018 1.6-.569 1.585-1.384-.016-.921-.691-1.312-1.665-1.305-.445.008-.761.056-.909.101l.047 2.605zM126.458 152.488c.043 1.259.857 1.764 1.789 1.748.667-.012 1.067-.135 1.414-.29l.171.664c-.326.154-.884.333-1.699.348-1.578.028-2.538-.993-2.566-2.539-.027-1.545.862-2.779 2.354-2.806 1.673-.03 2.144 1.434 2.161 2.376.003.191-.016.339-.024.435l-3.6.064zm2.72-.716c0-.593-.271-1.509-1.319-1.491-.942.017-1.339.892-1.402 1.539l2.721-.048zM131.14 153.846c.278.175.769.357 1.235.349.678-.012.989-.356.981-.78-.008-.445-.276-.684-.97-.926-.927-.312-1.37-.812-1.381-1.426-.015-.826.641-1.516 1.742-1.535.519-.009.977.131 1.266.295l-.221.682c-.203-.124-.577-.286-1.053-.278-.551.01-.852.333-.845.714.007.424.318.609.989.851.896.323 1.359.76 1.372 1.522.016.9-.672 1.547-1.889 1.569-.561.01-1.083-.119-1.446-.324l.22-.713zM135.413 151.271c-.012-.657-.042-1.186-.072-1.673l.837-.015.058.878h.021c.371-.631.967-1.012 1.804-1.027 1.239-.022 2.189 1.01 2.217 2.566.033 1.842-1.073 2.773-2.28 2.794-.678.012-1.276-.274-1.593-.777h-.021l.05 2.785-.921.017-.1-5.548zm.945 1.349c.002.138.025.264.049.38.181.643.75 1.078 1.417 1.066.985-.018 1.542-.833 1.521-2.008-.018-1.027-.574-1.896-1.558-1.878-.636.011-1.221.477-1.388 1.179-.03.117-.059.254-.057.382l.016.879zM146.086 151.928c.034 1.896-1.264 2.745-2.503 2.767-1.387.024-2.475-.973-2.503-2.593-.03-1.715 1.074-2.741 2.493-2.766 1.472-.027 2.486 1.025 2.513 2.592zm-4.064.125c.02 1.123.68 1.958 1.591 1.942.89-.016 1.542-.864 1.521-2.018-.016-.868-.469-1.962-1.57-1.942-1.102.019-1.56 1.044-1.542 2.018zM147.239 150.774c-.01-.529-.027-.963-.067-1.386l.826-.015.068.846h.021c.245-.491.83-.979 1.677-.994.709-.012 1.817.392 1.849 2.149l.054 3.06-.931.016-.052-2.954c-.015-.825-.334-1.508-1.213-1.492-.614.011-1.083.453-1.232.975-.041.117-.059.276-.056.435l.055 3.081-.932.017-.067-3.738zM153.034 153.457c.278.175.769.357 1.235.349.677-.012.989-.357.981-.78-.008-.445-.277-.684-.97-.925-.927-.312-1.37-.812-1.381-1.427-.015-.826.641-1.515 1.741-1.535.519-.009.977.131 1.266.295l-.221.682c-.203-.124-.577-.287-1.054-.278-.55.01-.852.333-.845.714.007.424.318.609.989.851.896.323 1.359.76 1.373 1.522.016.9-.672 1.547-1.889 1.569-.561.01-1.083-.118-1.446-.323l.221-.714zM158.29 147.75c.016.317-.212.575-.583.582-.328.006-.565-.244-.571-.562-.006-.329.233-.587.571-.593.35-.006.577.244.583.573zm-.921 6.583l-.091-5.125.932-.017.091 5.125-.932.017zM159.802 154.29c.016-.35.027-.869.019-1.324l-.11-6.194.921-.016.057 3.219h.021c.319-.578.905-.959 1.731-.974 1.27-.022 2.189 1.02 2.206 2.577.033 1.832-1.105 2.763-2.249 2.783-.741.013-1.34-.262-1.732-.933h-.032l-.027.847-.805.015zm.927-2.071c.002.116.025.232.048.338.191.643.74 1.078 1.417 1.065.974-.017 1.542-.821 1.521-1.997-.018-1.027-.563-1.896-1.559-1.879-.636.011-1.221.456-1.399 1.169-.019.106-.048.234-.046.382l.018.922zM165.732 146.665l.932-.017.133 7.517-.932.017-.133-7.517zM168.839 151.735c.043 1.26.858 1.764 1.789 1.748.667-.012 1.067-.135 1.414-.29l.171.664c-.326.154-.884.333-1.699.348-1.578.028-2.538-.992-2.566-2.539-.027-1.545.862-2.779 2.354-2.806 1.673-.03 2.144 1.434 2.161 2.376.003.191-.016.339-.024.435l-3.6.064zm2.72-.715c0-.592-.271-1.509-1.319-1.491-.942.017-1.339.892-1.402 1.539l2.721-.048z"/></g><g fill="#505F72"><path d="M95.371 169.685l-1.53-5.609.769-.014.72 2.838c.18.699.343 1.399.453 1.941h.017c.082-.562.246-1.234.425-1.965l.702-2.856.761-.013.737 2.847c.17.666.333 1.332.427 1.924h.017c.106-.621.254-1.25.417-1.956l.694-2.856.744-.013-1.497 5.664-.761.013-.763-2.922c-.188-.716-.315-1.266-.401-1.833h-.017c-.09.562-.206 1.116-.402 1.847l-.75 2.949-.762.014zM102.088 164.38c.014.25-.167.454-.46.459-.259.004-.446-.193-.451-.443-.004-.259.185-.463.452-.468.276-.005.455.193.459.452zm-.727 5.198l-.072-4.046.736-.013.072 4.046-.736.013zM103.211 163.607l.736-.013.105 5.936-.736.013-.105-5.936zM105.183 163.572l.736-.013.105 5.936-.736.013-.105-5.936zM107.987 164.275c.013.25-.167.455-.46.459-.259.005-.446-.192-.451-.443-.004-.259.185-.462.452-.467.276-.005.455.192.459.451zm-.727 5.198l-.072-4.046.736-.013.072 4.046-.736.013zM109.163 166.487c-.008-.418-.022-.761-.053-1.095l.652-.011.054.668h.017c.194-.388.655-.773 1.324-.785.561-.01 1.436.309 1.46 1.697l.043 2.416-.735.013-.042-2.333c-.012-.652-.264-1.191-.958-1.179-.485.008-.855.358-.974.77-.032.093-.046.219-.044.344l.043 2.433-.736.013-.051-2.951zM117.268 165.248c-.012.292-.022.619-.014 1.112l.042 2.349c.017.928-.157 1.5-.544 1.858-.387.375-.953.502-1.463.511-.484.009-1.021-.099-1.352-.311l.174-.562c.271.162.691.305 1.192.296.752-.013 1.297-.416 1.279-1.436l-.008-.451h-.017c-.22.38-.649.689-1.276.7-1.003.018-1.737-.822-1.757-1.943-.024-1.371.856-2.165 1.784-2.181.703-.013 1.094.349 1.275.68h.017l.023-.611.645-.011zm-.733 1.61c-.002-.125-.013-.234-.048-.333-.142-.424-.507-.769-1.042-.759-.702.013-1.193.615-1.176 1.551.014.794.427 1.447 1.221 1.433.452-.008.856-.299 1.006-.771.04-.126.054-.269.052-.394l-.013-.727zM118.422 166.323c-.008-.418-.022-.761-.053-1.095l.652-.011.054.668h.017c.194-.389.655-.773 1.324-.785.561-.01 1.436.309 1.46 1.697l.043 2.416-.735.013-.042-2.333c-.012-.652-.264-1.191-.958-1.179-.485.008-.855.358-.974.77-.032.093-.046.218-.044.344l.043 2.433-.736.013-.051-2.951zM123.488 167.295c.035.995.677 1.393 1.413 1.38.527-.009.843-.107 1.117-.229l.135.525c-.257.121-.698.263-1.342.274-1.245.022-2.004-.784-2.025-2.005-.022-1.221.68-2.195 1.858-2.216 1.321-.023 1.693 1.133 1.707 1.877l-.019.343-2.844.051zm2.148-.565c0-.468-.213-1.192-1.042-1.178-.744.013-1.058.705-1.107 1.216l2.149-.038zM127.185 168.367c.22.138.607.282.975.275.535-.01.781-.282.775-.616-.006-.351-.219-.54-.766-.731-.732-.246-1.082-.641-1.09-1.126-.012-.652.505-1.197 1.374-1.212.41-.007.772.104 1 .233l-.174.539c-.161-.098-.456-.227-.833-.22-.435.008-.672.263-.667.564.006.334.251.48.781.672.707.254 1.073.599 1.084 1.201.013.711-.531 1.222-1.492 1.239-.443.008-.854-.093-1.142-.255l.175-.563zM130.493 168.308c.22.139.607.282.975.275.535-.009.781-.281.775-.616-.006-.351-.219-.54-.766-.731-.732-.247-1.082-.641-1.09-1.126-.012-.652.505-1.197 1.374-1.212.41-.007.772.104 1 .233l-.174.539c-.161-.098-.456-.227-.833-.22-.435.008-.672.263-.667.564.006.334.251.481.781.672.707.255 1.073.6 1.084 1.202.013.711-.531 1.222-1.492 1.239-.443.008-.855-.093-1.142-.256l.175-.563zM136.481 163.744l.021 1.162 1.053-.019.01.56-1.053.019.039 2.182c.009.502.156.784.566.776.192-.003.334-.031.425-.058l.043.551c-.141.061-.366.106-.65.112-.343.006-.62-.098-.799-.295-.213-.214-.294-.572-.303-1.049l-.039-2.207-.627.011-.01-.56.627-.011-.017-.97.714-.204zM142.028 166.798c.026 1.497-.999 2.167-1.977 2.185-1.095.02-1.954-.768-1.977-2.047-.024-1.354.848-2.164 1.968-2.184 1.163-.022 1.964.809 1.986 2.046zm-3.209.099c.016.886.537 1.546 1.256 1.533.703-.012 1.218-.683 1.202-1.594-.012-.686-.371-1.549-1.24-1.534-.87.016-1.232.826-1.218 1.595zM144.648 168.057c.22.138.607.282.975.275.535-.009.781-.281.775-.616-.006-.351-.219-.54-.765-.731-.732-.246-1.082-.641-1.09-1.126-.012-.652.505-1.197 1.375-1.212.41-.007.771.104 1 .233l-.174.539c-.161-.098-.456-.227-.833-.22-.434.008-.672.263-.667.564.006.334.251.481.781.672.707.255 1.073.6 1.083 1.202.013.711-.53 1.222-1.491 1.239-.443.008-.855-.093-1.142-.256l.173-.563zM148.447 166.852c.035.995.677 1.393 1.413 1.38.527-.009.843-.107 1.117-.229l.135.525c-.257.121-.698.263-1.342.274-1.245.022-2.004-.784-2.025-2.005-.022-1.221.68-2.195 1.858-2.216 1.321-.023 1.693 1.133 1.707 1.877l-.019.343-2.844.051zm2.148-.565c0-.468-.213-1.192-1.042-1.178-.744.013-1.058.705-1.107 1.216l2.149-.038zM152.633 166.777c.034.995.677 1.394 1.413 1.38.527-.009.843-.107 1.117-.229l.135.525c-.257.121-.698.263-1.341.274-1.246.022-2.005-.784-2.026-2.005-.022-1.221.68-2.195 1.859-2.216 1.321-.023 1.693 1.133 1.706 1.877l-.019.343-2.844.051zm2.148-.565c0-.468-.213-1.192-1.041-1.178-.744.013-1.059.705-1.108 1.216l2.149-.038zM161.096 168.367c-.19.104-.614.245-1.157.254-1.221.021-2.029-.792-2.051-2.03-.022-1.245.814-2.164 2.135-2.187.435-.008.822.094 1.023.191l-.156.572c-.178-.098-.455-.184-.856-.177-.928.017-1.417.711-1.402 1.555.017.937.628 1.502 1.431 1.488.418-.007.692-.121.899-.216l.134.55zM161.853 162.565l.736-.013.045 2.525h.017c.113-.211.294-.398.518-.528.215-.129.473-.217.749-.223.543-.009 1.419.31 1.443 1.706l.043 2.408-.736.013-.042-2.324c-.011-.652-.264-1.2-.957-1.188-.477.008-.847.35-.974.753-.04.101-.046.21-.044.353l.043 2.441-.736.013-.105-5.936zM168.836 168.379l-.068-.509h-.025c-.22.322-.65.614-1.227.624-.819.015-1.248-.555-1.258-1.14-.018-.979.842-1.528 2.406-1.547l-.001-.084c-.006-.334-.109-.935-.937-.92-.376.007-.767.131-1.048.32l-.175-.482c.331-.224.812-.375 1.322-.384 1.237-.022 1.554.817 1.568 1.628l.027 1.513c.006.351.029.694.084.969l-.668.012zm-.145-2.063c-.803-.002-1.712.156-1.698.942.008.477.33.697.706.69.527-.009.855-.35.966-.694l.038-.235-.012-.703zM170.571 165.396c-.008-.418-.022-.761-.053-1.095l.652-.011.054.668h.017c.194-.388.655-.773 1.324-.785.561-.01 1.436.309 1.46 1.697l.043 2.416-.736.013-.042-2.333c-.012-.652-.263-1.192-.957-1.179-.485.008-.855.358-.974.77-.032.093-.046.218-.044.344l.043 2.433-.736.013-.051-2.951zM178.675 164.157c-.012.292-.022.619-.014 1.112l.042 2.349c.017.928-.157 1.5-.544 1.858-.387.375-.953.502-1.463.511-.484.009-1.021-.099-1.352-.311l.174-.562c.271.162.691.305 1.192.296.753-.013 1.298-.416 1.28-1.436l-.008-.451h-.017c-.22.38-.649.689-1.276.7-1.002.018-1.737-.822-1.757-1.943-.024-1.371.856-2.164 1.784-2.181.702-.013 1.094.349 1.275.68h.017l.023-.611.644-.011zm-.732 1.61c-.002-.125-.013-.233-.048-.333-.142-.424-.507-.769-1.042-.759-.702.013-1.193.615-1.176 1.551.014.794.427 1.447 1.221 1.434.451-.008.856-.3 1.006-.771.04-.126.054-.269.052-.394l-.013-.728zM180.308 166.286c.035.995.677 1.393 1.413 1.38.527-.009.843-.107 1.117-.229l.135.525c-.257.121-.698.263-1.342.274-1.246.022-2.004-.784-2.026-2.005-.022-1.221.68-2.195 1.859-2.216 1.321-.023 1.693 1.133 1.706 1.877l-.019.343-2.843.051zm2.148-.565c0-.468-.213-1.192-1.041-1.178-.744.013-1.059.705-1.108 1.216l2.149-.038z"/></g><g fill="#505F72"><path d="M83.078 148.063l.158 4.399-.568.01-.158-4.399.568-.01zM84.191 150.141c-.012-.327-.028-.594-.057-.855l.509-.009.051.521h.013c.146-.303.501-.603 1.023-.612.438-.008 1.126.241 1.165 1.325l.068 1.886-.574.01-.065-1.821c-.018-.509-.223-.93-.765-.92-.379.006-.664.279-.75.601-.024.072-.034.17-.03.269l.068 1.899-.575.01-.081-2.304zM90.46 147.7l.137 3.818c.01.28.028.601.056.815l-.516.009-.046-.548h-.013c-.164.356-.539.63-1.055.639-.764.013-1.375-.623-1.41-1.582-.044-1.051.585-1.708 1.356-1.722.483-.008.817.215.97.466h.013l-.068-1.886.576-.009zm-.476 2.771l-.035-.241c-.098-.363-.421-.659-.853-.651-.594.01-.928.539-.903 1.237.023.64.355 1.163.976 1.152.385-.007.729-.268.818-.7l.017-.249-.02-.548zM91.846 150.837c.041.776.549 1.087 1.124 1.077.411-.007.657-.083.869-.178l.113.409c-.199.095-.542.206-1.043.215-.973.017-1.578-.613-1.612-1.566s.5-1.713 1.421-1.729c1.032-.018 1.338.885 1.359 1.466l-.01.268-2.221.038zm1.67-.441c-.006-.365-.183-.931-.829-.919-.582.01-.817.55-.849.949l1.678-.03zM94.773 150.132c-.014-.405-.039-.73-.062-1.031l.516-.009.045.542h.013c.221-.389.585-.624 1.1-.633.764-.013 1.362.623 1.396 1.583.041 1.135-.631 1.708-1.375 1.722-.417.007-.79-.168-.99-.479h-.013l.062 1.716-.568.01-.124-3.421zm.599.832l.035.235c.119.396.474.664.885.657.607-.011.942-.512.916-1.237-.022-.633-.375-1.169-.982-1.159-.391.007-.747.294-.843.727l-.03.236.019.541zM98.832 150.715c.041.776.549 1.087 1.123 1.077.412-.007.657-.083.869-.178l.113.409c-.199.096-.542.206-1.044.215-.972.017-1.577-.613-1.611-1.566-.034-.952.5-1.713 1.42-1.729 1.032-.018 1.339.884 1.36 1.465l-.01.268-2.22.039zm1.67-.441c-.007-.366-.184-.931-.83-.92-.581.01-.816.55-.848.949l1.678-.029zM101.753 149.834c-.012-.327-.028-.594-.057-.855l.509-.009.051.521h.013c.146-.303.5-.603 1.023-.612.438-.007 1.126.241 1.165 1.325l.068 1.886-.575.01-.065-1.821c-.018-.509-.223-.93-.765-.92-.379.006-.663.279-.749.601-.024.072-.034.17-.03.269l.068 1.899-.575.01-.081-2.304zM108.022 147.394l.137 3.818c.01.28.028.601.056.815l-.516.009-.046-.548h-.013c-.164.356-.54.63-1.056.639-.764.013-1.375-.623-1.409-1.582-.044-1.051.585-1.708 1.356-1.722.483-.008.818.215.971.466h.013l-.068-1.886.575-.009zm-.475 2.77l-.035-.241c-.098-.363-.422-.659-.853-.651-.594.011-.928.539-.903 1.237.023.64.355 1.163.975 1.152.385-.007.729-.268.818-.7l.017-.249-.019-.548zM109.408 150.53c.041.776.549 1.087 1.124 1.077.412-.007.657-.083.869-.178l.113.409c-.199.096-.542.206-1.044.215-.973.017-1.577-.613-1.611-1.566s.5-1.713 1.42-1.729c1.032-.018 1.339.885 1.36 1.466l-.01.268-2.221.038zm1.671-.44c-.007-.366-.184-.931-.83-.92-.582.01-.817.55-.849.949l1.679-.029zM112.33 149.65c-.012-.327-.028-.594-.057-.855l.509-.009.051.521h.013c.146-.303.501-.603 1.023-.612.438-.008 1.126.241 1.165 1.325l.068 1.886-.575.01-.065-1.821c-.018-.509-.223-.93-.765-.92-.379.006-.664.279-.75.601-.024.072-.034.17-.03.269l.068 1.899-.574.01-.081-2.304zM116.556 147.812l.033.907.823-.014.016.438-.823.014.061 1.704c.014.391.133.611.453.606.15-.003.261-.024.332-.045l.042.431c-.11.048-.285.083-.507.087-.268.005-.487-.077-.629-.231-.17-.167-.238-.447-.251-.818l-.062-1.723-.489.009-.016-.438.489-.009-.028-.757.556-.161z"/></g><g fill="#505F72"><path d="M101.023 187.707l-1.837.337-.136-.665 4.471-.821.136.665-1.846.339 1.1 5.392-.789.145-1.099-5.392zM104.787 190.502c.236 1.066 1.007 1.381 1.795 1.236.564-.104.885-.265 1.155-.445l.25.541c-.252.178-.698.409-1.388.536-1.335.245-2.312-.49-2.579-1.801s.292-2.487 1.555-2.719c1.416-.26 2.046.92 2.21 1.72l.048.373-3.046.559zm2.196-.991c-.094-.504-.468-1.246-1.355-1.083-.797.146-.997.946-.947 1.506l2.302-.423zM108.601 188.618c-.092-.449-.176-.815-.276-1.171l.699-.128.191.71.018-.003c.13-.453.55-.949 1.267-1.081.601-.11 1.605.078 1.91 1.569l.53 2.598-.788.145-.511-2.507c-.143-.701-.522-1.238-1.266-1.101-.52.096-.848.538-.892 1.003-.016.105-.006.243.021.378l.534 2.615-.789.145-.648-3.172zM116.617 190.437l-.175-.537-.027.005c-.172.386-.576.777-1.194.891-.878.161-1.453-.377-1.581-1.006-.214-1.052.6-1.798 2.278-2.096l-.019-.09c-.073-.36-.304-.989-1.191-.826-.403.074-.799.276-1.063.531l-.286-.489c.311-.299.799-.547 1.346-.647 1.326-.244 1.834.604 2.012 1.477l.332 1.627c.077.377.169.742.284 1.029l-.716.131zm-.569-2.198c-.864.141-1.809.472-1.637 1.317.104.512.494.692.897.618.564-.104.85-.53.9-.921l-.007-.259-.153-.755zM121.589 189.356c-.184.146-.612.374-1.194.48-1.308.24-2.341-.493-2.612-1.823-.273-1.339.443-2.478 1.859-2.737.466-.086.902-.044 1.139.025l-.055.643c-.21-.073-.526-.118-.956-.039-.995.183-1.382 1.018-1.197 1.926.206 1.007.978 1.508 1.838 1.351.447-.082.719-.255.922-.394l.256.568zM122.283 183.617c.064.268-.089.52-.403.577-.277.051-.518-.128-.573-.398-.057-.278.105-.532.392-.584.295-.055.527.127.584.405zm.259 5.733l-.887-4.35.789-.145.887 4.35-.789.145zM128.109 186.034c.328 1.608-.64 2.513-1.688 2.706-1.174.216-2.254-.48-2.535-1.855-.296-1.456.479-2.484 1.68-2.704 1.246-.23 2.272.523 2.543 1.853zm-3.431.676c.194.952.887 1.572 1.659 1.43.752-.138 1.172-.952.972-1.931-.15-.737-.708-1.604-1.64-1.434-.932.172-1.159 1.109-.991 1.935zM132.938 186.21c.092.449.181.843.278 1.18l-.699.128-.19-.702-.018.003c-.135.387-.498.93-1.269 1.072-.681.125-1.573-.103-1.885-1.631l-.519-2.543.789-.145.491 2.409c.169.826.533 1.337 1.25 1.205.528-.097.82-.533.893-.909.021-.126.018-.275-.011-.418l-.544-2.669.789-.145.645 3.165zM134.211 186.368c.264.108.709.196 1.104.124.573-.105.783-.443.71-.802-.077-.377-.344-.542-.97-.65-.836-.136-1.291-.5-1.397-1.021-.143-.701.304-1.38 1.235-1.551.439-.081.85-.025 1.121.074l-.079.611c-.192-.076-.536-.163-.939-.089-.466.085-.67.403-.604.726.074.36.366.474.975.586.811.15 1.274.456 1.406 1.103.156.764-.326 1.413-1.356 1.602-.475.087-.938.051-1.278-.073l.072-.64z"/></g><g fill="#505F72"><path d="M90.185 157.341l-1.338.022-.017-.483 3.258-.053.017.483-1.346.022.14 3.916-.574.009-.14-3.916zM92.342 159.05c-.013-.372-.031-.692-.061-.986l.503-.008.042.62h.026c.129-.426.465-.7.851-.706l.163.018.02.542-.196-.017c-.405.007-.682.317-.745.75l-.017.268.06 1.684-.568.009-.078-2.174zM96.272 161.16l-.06-.397h-.02c-.167.25-.5.478-.95.485-.64.01-.983-.435-.999-.892-.027-.764.637-1.192 1.858-1.206l-.002-.065c-.01-.261-.098-.73-.745-.72-.294.005-.598.101-.814.248l-.144-.376c.255-.173.63-.291 1.028-.297.966-.016 1.225.64 1.248 1.273l.042 1.181c.01.274.032.542.079.756l-.521.01zm-.142-1.611c-.627-.002-1.335.12-1.313.733.014.373.268.544.562.54.412-.007.664-.272.746-.542l.026-.183-.021-.548zM97.587 158.834c-.012-.326-.028-.594-.056-.855l.509-.008.051.522h.013c.146-.303.501-.603 1.024-.611.438-.007 1.126.243 1.165 1.327l.067 1.886-.575.01-.065-1.821c-.018-.509-.223-.93-.765-.921-.379.006-.664.278-.75.6-.024.072-.034.17-.03.269l.068 1.899-.575.009-.081-2.306zM101.194 160.493c.174.108.478.221.765.216.418-.007.607-.219.598-.48-.01-.273-.179-.421-.609-.571-.576-.193-.854-.502-.867-.88-.018-.509.378-.934 1.057-.945.32-.005.604.082.784.184l-.128.42c-.127-.077-.359-.177-.653-.172-.34.005-.522.204-.514.439.009.261.203.376.62.526.556.2.847.469.864.939.02.555-.397.954-1.148.966-.346.006-.669-.074-.896-.201l.127-.441zM103.803 158.909c-.015-.405-.039-.73-.063-1.031l.516-.008.045.542h.013c.221-.389.585-.624 1.101-.633.764-.012 1.362.625 1.396 1.584.041 1.136-.632 1.708-1.376 1.72-.417.007-.79-.17-.99-.48h-.013l.062 1.716-.568.009-.123-3.419zm.598.833l.035.235c.119.396.474.665.885.658.607-.01.942-.512.917-1.236-.022-.633-.375-1.169-.982-1.159-.391.006-.747.292-.843.726l-.03.235.018.541zM109.343 160.948l-.06-.397h-.02c-.167.25-.499.478-.949.485-.64.01-.983-.435-.999-.892-.027-.764.637-1.192 1.858-1.206l-.002-.065c-.009-.261-.098-.73-.744-.719-.294.004-.597.101-.814.248l-.144-.376c.255-.173.63-.291 1.028-.297.966-.016 1.225.64 1.247 1.273l.042 1.181c.01.274.032.542.079.756l-.522.009zm-.142-1.611c-.627-.002-1.334.12-1.313.733.014.373.268.545.562.54.412-.007.663-.272.745-.542l.026-.183-.02-.548zM110.663 158.752c-.013-.372-.031-.692-.061-.985l.503-.008.042.62h.026c.129-.426.465-.7.851-.706l.164.017.02.542-.196-.016c-.405.006-.682.317-.745.75l-.017.268.06 1.684-.568.009-.079-2.175zM113.077 159.412c.041.776.548 1.088 1.123 1.079.412-.007.657-.083.869-.178l.113.409c-.2.095-.542.205-1.044.213-.973.016-1.577-.614-1.611-1.567-.034-.953.5-1.713 1.421-1.728 1.032-.017 1.338.886 1.359 1.467l-.01.268-2.22.037zm1.67-.438c-.006-.366-.183-.931-.83-.921-.582.009-.817.549-.849.948l1.679-.027zM115.999 158.535c-.012-.326-.028-.593-.057-.855l.509-.008.051.522h.013c.146-.303.501-.603 1.024-.611.438-.007 1.126.243 1.165 1.327l.067 1.886-.575.009-.065-1.821c-.018-.509-.223-.93-.765-.921-.379.006-.664.278-.75.6-.024.072-.034.17-.03.268l.068 1.899-.574.009-.081-2.304zM120.225 156.703l.032.907.823-.014.016.438-.823.014.061 1.703c.014.392.133.612.453.606.15-.002.26-.023.332-.045l.041.43c-.109.048-.284.083-.506.087-.268.004-.485-.077-.628-.231-.169-.167-.238-.447-.251-.819l-.062-1.723-.49.008-.016-.438.49-.008-.027-.757.555-.158z"/></g><g fill="#505F72"><path d="M143.878 196.586c-.186.138-.577.311-1.103.401-1.22.209-2.287-.403-2.559-1.821-.26-1.353.483-2.427 1.825-2.657.54-.092.902-.036 1.064.016l-.047.479c-.231-.066-.548-.092-.908-.03-1.014.174-1.564.938-1.346 2.073.203 1.059.944 1.634 1.997 1.453.34-.058.674-.189.877-.337l.2.423zM147.022 194.563c.22 1.148-.48 1.785-1.231 1.914-.841.144-1.608-.36-1.797-1.343-.199-1.038.365-1.764 1.225-1.912.892-.152 1.621.392 1.803 1.341zm-2.46.455c.13.681.621 1.126 1.173 1.031.54-.092.847-.667.713-1.367-.101-.525-.493-1.148-1.161-1.034s-.838.78-.725 1.37zM147.6 193.755c-.062-.32-.118-.582-.187-.835l.501-.086.13.507.014-.002c.097-.32.401-.671.915-.759.43-.074 1.147.067 1.352 1.132l.356 1.854-.565.097-.344-1.79c-.096-.5-.362-.885-.895-.794-.373.064-.611.376-.647.707-.012.075-.006.174.012.27l.358 1.867-.565.097-.435-2.265zM153.789 194.915c-.133.101-.441.26-.858.332-.938.161-1.669-.37-1.852-1.319-.184-.955.338-1.761 1.353-1.935.334-.057.646-.025.814.027l-.044.458c-.15-.054-.375-.089-.684-.036-.713.122-.997.716-.873 1.362.138.719.685 1.083 1.301.977.322-.055.517-.175.665-.273l.178.407zM154.468 193.42c.159.76.708.992 1.272.895.405-.069.635-.182.83-.308l.174.387c-.182.124-.502.285-.997.37-.957.164-1.649-.366-1.829-1.303-.18-.937.231-1.768 1.136-1.923 1.015-.174 1.456.67 1.565 1.242l.032.267-2.183.373zm1.579-.689c-.062-.359-.323-.892-.959-.783-.572.098-.721.667-.691 1.065l1.65-.282zM157.236 192.236c-.07-.365-.137-.679-.211-.964l.494-.084.137.606.026-.004c.061-.441.35-.762.729-.827l.164-.008.102.532-.196.013c-.397.068-.623.417-.619.854l.025.268.317 1.655-.559.096-.409-2.137zM159.334 191.744c-.062-.32-.118-.582-.187-.835l.501-.086.13.507.013-.002c.098-.32.401-.671.916-.759.43-.074 1.147.067 1.352 1.132l.355 1.854-.565.097-.343-1.79c-.096-.5-.363-.885-.896-.794-.373.064-.61.376-.647.707-.012.075-.006.174.012.27l.358 1.867-.564.097-.435-2.265zM163.367 191.896c.16.759.708.991 1.272.895.405-.069.635-.182.83-.308l.174.387c-.182.124-.502.285-.997.369-.957.164-1.649-.366-1.83-1.302-.18-.937.231-1.769 1.137-1.923 1.014-.174 1.456.67 1.565 1.241l.032.267-2.183.374zm1.579-.69c-.063-.359-.324-.892-.96-.783-.572.098-.721.667-.691 1.066l1.651-.283zM168.354 187.834l.72 3.752c.053.275.12.589.18.797l-.508.087-.129-.535-.013.002c-.107.375-.436.704-.943.791-.751.129-1.451-.407-1.632-1.35-.205-1.031.315-1.776 1.074-1.906.475-.082.839.088 1.029.313l.013-.002-.356-1.854.565-.095zm-.043 2.81l-.072-.234c-.152-.344-.517-.586-.941-.514-.584.1-.833.672-.701 1.359.121.628.528 1.096 1.139.991.378-.065.678-.375.699-.816l-.021-.249-.103-.537z"/></g><g fill="#505F72"><path d="M144.587 159.87c.054 1.514-.838 2.332-1.961 2.35-1.163.019-2.011-.869-2.059-2.2-.05-1.397.787-2.324 1.962-2.344 1.202-.02 2.012.888 2.058 2.194zm-3.413.127c.034.939.574 1.773 1.468 1.759.901-.015 1.38-.852 1.345-1.851-.031-.875-.521-1.781-1.468-1.766-.94.016-1.379.892-1.345 1.858zM145.309 159.976c-.015-.405-.039-.731-.063-1.031l.516-.009.046.542h.013c.221-.389.585-.624 1.101-.632.764-.013 1.362.625 1.396 1.584.041 1.135-.632 1.708-1.376 1.72-.417.007-.79-.17-.99-.48h-.013l.062 1.716-.568.009-.124-3.419zm.598.832l.034.234c.119.396.475.665.886.658.607-.01.942-.511.917-1.236-.022-.633-.375-1.169-.982-1.159-.392.006-.747.293-.843.726l-.031.235.019.542zM149.647 157.965l.032.907.822-.013.016.438-.822.013.061 1.704c.014.392.133.611.453.606.149-.002.26-.024.331-.045l.041.431c-.109.048-.284.083-.506.087-.268.004-.486-.077-.629-.232-.169-.167-.238-.446-.251-.818l-.062-1.723-.49.008-.016-.438.49-.008-.027-.757.557-.16zM151.756 157.951c.013.196-.125.355-.354.358-.202.003-.352-.151-.358-.347-.007-.203.137-.361.346-.365.216-.003.359.151.366.354zm-.496 4.056l-.113-3.159.575-.009.113 3.159-.575.009zM152.706 159.679c-.012-.327-.028-.593-.057-.855l.503-.008.044.509h.02c.166-.303.449-.589.971-.597.431-.007.767.249.917.619h.013c.092-.178.211-.316.338-.417.185-.146.391-.229.691-.233.418-.007 1.048.257 1.087 1.354l.066 1.86-.562.009-.064-1.789c-.021-.607-.257-.969-.72-.961-.327.005-.573.251-.66.533-.024.079-.04.184-.036.288l.069 1.952-.562.009-.067-1.893c-.018-.502-.253-.865-.691-.857-.358.006-.61.297-.691.586-.029.085-.039.184-.035.281l.068 1.906-.562.009-.08-2.305zM158.729 157.837c.013.196-.125.355-.354.358-.202.003-.352-.151-.358-.347-.007-.203.137-.361.346-.365.216-.002.359.152.366.354zm-.496 4.057l-.113-3.159.575-.009.113 3.159-.575.009zM159.662 161.283c.174.108.479.221.766.216.418-.007.607-.218.598-.479-.01-.274-.179-.422-.609-.571-.576-.193-.854-.502-.868-.88-.018-.509.378-.934 1.058-.945.32-.005.604.082.784.184l-.128.42c-.127-.077-.359-.178-.653-.173-.34.005-.522.205-.514.44.009.261.203.375.62.525.556.2.846.469.863.939.02.555-.396.954-1.147.966-.346.006-.669-.074-.896-.201l.126-.441zM162.893 157.75l.032.907.823-.014.016.438-.823.014.061 1.704c.014.392.133.611.453.606.15-.002.26-.023.332-.045l.041.431c-.109.048-.284.083-.506.087-.268.004-.486-.077-.629-.231-.169-.167-.238-.447-.251-.819l-.062-1.723-.49.008-.016-.438.49-.008-.027-.757.556-.16zM165.003 157.735c.013.196-.125.355-.354.359-.202.003-.352-.151-.358-.347-.007-.203.137-.361.346-.365.216-.003.359.151.366.353zm-.496 4.057l-.113-3.159.575-.009.113 3.159-.575.009zM168.284 161.613c-.148.081-.477.191-.901.198-.954.016-1.597-.621-1.632-1.587-.035-.973.607-1.688 1.639-1.705.339-.005.643.075.802.15l-.115.446c-.14-.077-.358-.145-.671-.14-.725.012-1.098.554-1.074 1.213.026.731.513 1.173 1.14 1.164.326-.005.539-.094.699-.168l.113.429z"/></g><g fill="#505F72"><path d="M143.066 182.555l.077 4.401-.568-.001-.077-4.401.568.001zM144.141 184.653c-.006-.327-.017-.594-.041-.855l.509.001.042.522h.013c.152-.3.512-.593 1.035-.592.438.001 1.121.263 1.14 1.348l.033 1.887-.575-.001-.032-1.822c-.009-.509-.206-.934-.748-.935-.379-.001-.668.266-.76.586-.025.072-.037.169-.035.268l.033 1.9-.575-.001-.039-2.306zM147.864 186.966l-.047-2.723-.444-.001-.007-.438.444.001-.003-.15c-.008-.444.083-.849.347-1.104.211-.208.498-.292.765-.292.203 0 .38.046.492.092l-.07.444c-.086-.04-.204-.072-.367-.073-.49-.001-.607.43-.598.914l.003.169.764.001.007.438-.764-.001.047 2.723h-.569zM152.459 185.368c.021 1.169-.781 1.677-1.545 1.675-.855-.001-1.526-.629-1.543-1.628-.019-1.058.663-1.677 1.538-1.675.908.001 1.534.661 1.55 1.628zm-2.507.028c.012.692.419 1.215.981 1.216.548.001.951-.514.939-1.226-.009-.536-.289-1.215-.969-1.216-.678-.002-.961.625-.951 1.226zM153.173 184.801c-.006-.372-.019-.692-.043-.986l.503.001.03.62h.026c.137-.424.478-.691.863-.69l.164.02.009.542-.196-.02c-.405-.001-.687.305-.757.736l-.022.267.029 1.685-.568-.001-.038-2.174zM155.332 184.675c-.006-.327-.017-.594-.041-.855l.503.001.035.509h.02c.171-.301.46-.581.982-.579.431 0 .762.262.906.635h.013c.095-.176.216-.313.346-.411.187-.143.395-.221.695-.22.418.001 1.043.276 1.062 1.373l.032 1.861-.562-.001-.031-1.79c-.01-.607-.238-.974-.702-.975-.327 0-.577.241-.67.521-.025.079-.042.183-.041.287l.034 1.953-.562-.001-.033-1.894c-.009-.503-.237-.869-.675-.87-.359-.001-.615.286-.702.573-.031.085-.042.183-.041.281l.033 1.907-.562-.001-.039-2.304zM161.112 185.515c.026.777.528 1.098 1.103 1.099.412.001.658-.07.872-.161l.105.411c-.201.091-.545.195-1.048.194-.973-.002-1.566-.643-1.583-1.597-.017-.953.532-1.703 1.453-1.701 1.032.002 1.322.91 1.332 1.491l-.015.268-2.219-.004zm1.678-.409c0-.365-.166-.934-.812-.936-.582-.001-.827.534-.866.933l1.678.003zM166.738 182.365l.066 3.82c.005.281.018.601.041.816l-.516-.001-.035-.549h-.013c-.17.353-.551.62-1.067.619-.764-.001-1.363-.649-1.38-1.609-.025-1.052.617-1.697 1.388-1.695.483.001.813.23.961.485h.013l-.033-1.887.575.001zm-.527 2.761l-.03-.242c-.091-.366-.41-.667-.841-.668-.594-.001-.938.521-.925 1.22.011.64.333 1.17.954 1.171.385.001.734-.253.831-.684l.021-.248-.01-.549z"/></g><g fill="#505F72"><path d="M178.141 151.351l.065 1.841 2.128-.035-.065-1.841.575-.009.157 4.399-.575.009-.073-2.062-2.128.035.073 2.062-.568.009-.157-4.399.568-.009zM182.234 154.21c.041.777.548 1.088 1.123 1.079.412-.006.656-.083.869-.177l.113.41c-.199.095-.542.205-1.044.213-.973.016-1.577-.614-1.611-1.567-.034-.952.501-1.712 1.421-1.728 1.032-.017 1.338.886 1.359 1.467l-.01.267-2.22.036zm1.67-.438c-.007-.366-.184-.931-.83-.92-.582.009-.816.549-.848.948l1.678-.028zM185.16 153.464c-.014-.372-.031-.692-.061-.985l.503-.008.042.62h.026c.129-.427.465-.7.851-.706l.164.017.019.542-.196-.016c-.405.006-.682.318-.745.75l-.017.268.06 1.684-.568.009-.078-2.175zM190.11 153.952c.042 1.168-.75 1.69-1.514 1.703-.855.014-1.537-.602-1.573-1.601-.038-1.057.632-1.688 1.507-1.703.908-.014 1.546.635 1.58 1.601zm-2.506.074c.025.691.441 1.207 1.003 1.198.548-.009.941-.531.917-1.242-.02-.536-.312-1.21-.99-1.199-.68.01-.951.642-.93 1.243zM191.387 151.489c.013.195-.125.354-.353.358-.202.003-.352-.151-.358-.346-.007-.203.138-.362.347-.365.214-.004.357.151.364.353zm-.495 4.056l-.112-3.159.574-.009.112 3.159-.574.009zM194.668 155.367c-.148.081-.477.19-.901.198-.954.015-1.597-.621-1.632-1.587-.035-.972.607-1.688 1.639-1.705.339-.005.643.075.802.15l-.115.446c-.14-.076-.358-.145-.671-.14-.725.012-1.098.554-1.074 1.213.026.731.513 1.173 1.14 1.163.326-.005.539-.094.699-.168l.113.43z"/></g><g fill="#505F72"><path d="M119.256 207.927l-.408 1.391-.588.009 1.339-4.423.686-.011 1.658 4.375-.607.01-.52-1.376-1.56.025zm1.428-.467l-.477-1.259c-.108-.286-.183-.546-.257-.799h-.013c-.056.262-.119.531-.194.8l-.386 1.28 1.327-.022zM124.477 209.227l-.097-2.721-1.326.021.097 2.721-.568.009-.097-2.721-.444.007-.016-.438.444-.007-.003-.104c-.016-.444.075-.831.314-1.083.177-.186.434-.301.787-.307.183-.003.354.053.455.103l-.103.426c-.086-.038-.212-.075-.343-.072-.451.007-.561.394-.543.891l.005.137 1.326-.021-.005-.15c-.016-.444.074-.851.333-1.11.208-.212.492-.301.753-.305.208-.003.38.039.493.083l-.056.444c-.092-.038-.205-.068-.375-.066-.483.008-.598.441-.581.924l.006.169.764-.013.016.438-.757.013.097 2.721-.576.011zM126.513 207.717c.041.777.549 1.088 1.123 1.079.412-.007.657-.083.87-.177l.113.41c-.2.095-.542.205-1.044.213-.973.016-1.578-.615-1.611-1.567-.034-.953.5-1.712 1.421-1.728 1.032-.017 1.338.886 1.359 1.467l-.01.267-2.221.036zm1.67-.438c-.006-.366-.183-.931-.83-.92-.582.009-.817.548-.849.948l1.679-.028zM131.766 208.991c-.148.081-.477.19-.901.197-.954.016-1.597-.62-1.631-1.586-.035-.973.606-1.688 1.638-1.705.339-.005.643.075.803.15l-.115.446c-.14-.076-.358-.145-.671-.14-.725.012-1.098.553-1.074 1.213.026.731.513 1.174 1.14 1.164.326-.005.539-.094.699-.169l.112.43zM133.073 205.019l.032.907.823-.013.016.438-.823.013.061 1.704c.014.391.133.611.453.606.15-.002.26-.024.332-.045l.042.431c-.11.047-.285.083-.507.086-.268.004-.486-.077-.628-.231-.169-.167-.238-.447-.251-.818l-.062-1.723-.49.008-.016-.438.49-.008-.027-.757.555-.16zM134.915 207.581c.041.776.549 1.088 1.123 1.079.412-.007.657-.083.87-.177l.112.409c-.199.095-.542.205-1.044.213-.973.016-1.578-.614-1.611-1.567-.034-.953.5-1.713 1.421-1.728 1.032-.017 1.338.886 1.359 1.467l-.01.268-2.22.036zm1.67-.438c-.006-.366-.183-.931-.83-.921-.582.01-.817.549-.849.948l1.679-.027zM140.483 204.331l.136 3.818c.01.28.027.601.055.815l-.516.008-.046-.548h-.012c-.164.356-.54.629-1.056.638-.764.013-1.375-.624-1.409-1.583-.044-1.051.586-1.708 1.357-1.72.483-.008.818.215.97.467h.013l-.067-1.886.575-.009zm-.476 2.769l-.034-.241c-.098-.363-.422-.659-.854-.652-.594.01-.928.538-.903 1.236.023.64.355 1.163.976 1.153.385-.006.729-.267.818-.699l.017-.249-.02-.548z"/></g><g fill="#505F72"><path d="M177.348 137.502l.072 2.848 3.248-.052-.072-2.848.876-.014.171 6.806-.876.014-.08-3.191-3.248.052.08 3.191-.867.014-.171-6.806.867-.014zM187.421 141.666c.045 1.808-1.17 2.615-2.335 2.634-1.306.021-2.336-.933-2.375-2.479-.041-1.636.992-2.611 2.327-2.633 1.383-.021 2.346.983 2.383 2.478zm-3.824.111c.027 1.071.654 1.869 1.511 1.855.836-.014 1.444-.821 1.417-1.922-.021-.828-.456-1.872-1.492-1.855-1.035.017-1.459.993-1.436 1.922zM188.502 140.568c-.013-.505-.033-.918-.073-1.322l.777-.012.07.807h.02c.227-.468.774-.931 1.571-.944.667-.011 1.714.376 1.756 2.053l.073 2.918-.877.014-.071-2.818c-.02-.787-.325-1.439-1.152-1.426-.578.009-1.016.431-1.153.928-.038.112-.054.264-.05.415l.074 2.938-.876.014-.089-3.565zM194.554 141.755c.049 1.201.819 1.684 1.696 1.67.627-.01 1.003-.126 1.328-.273l.166.634c-.306.146-.83.316-1.597.329-1.484.024-2.396-.953-2.433-2.427-.037-1.474.791-2.648 2.196-2.671 1.574-.025 2.027 1.372 2.05 2.27l-.019.415-3.387.053zm2.553-.677c-.004-.566-.265-1.441-1.251-1.425-.887.014-1.255.849-1.309 1.466l2.56-.041zM198.973 143.059c.263.167.726.342 1.165.335.637-.01.928-.338.918-.741-.011-.424-.266-.653-.918-.885-.875-.299-1.295-.777-1.31-1.363-.02-.788.591-1.443 1.627-1.46.488-.008.92.126 1.194.284l-.203.649c-.192-.118-.545-.274-.994-.267-.518.008-.799.316-.79.679.01.404.303.582.937.814.845.31 1.285.727 1.303 1.454.021.858-.621 1.475-1.767 1.493-.528.008-1.02-.115-1.363-.312l.201-.68zM203.96 137.595l.035 1.403 1.255-.02.017.676-1.255.02.066 2.636c.015.605.193.946.682.938.229-.004.397-.037.506-.069l.057.667c-.167.073-.436.128-.774.133-.408.007-.74-.12-.955-.359-.256-.258-.356-.691-.371-1.267l-.067-2.667-.748.012-.017-.676.748-.012-.029-1.171.85-.244z"/></g><g fill="#505F72"><path d="M61.621 132.216c.483-.343 1.137-.752 2.014-1.177 1.078-.523 1.989-.656 2.71-.447.658.176 1.232.656 1.597 1.408.371.765.438 1.476.224 2.121-.278.894-1.066 1.664-2.132 2.18-.326.158-.633.292-.914.35l1.642 3.385-1.091.529-4.05-8.349zm3.067 3.545c.269-.053.582-.173.945-.35 1.316-.638 1.808-1.667 1.243-2.832-.542-1.116-1.592-1.272-2.796-.689-.476.231-.821.445-.985.586l1.593 3.285zM75.337 135.877l-.458-.723-.038.019c-.107.641-.553 1.382-1.417 1.802-1.229.596-2.275.036-2.701-.842-.711-1.467.204-2.901 2.554-4.026l-.061-.124c-.244-.502-.819-1.337-2.06-.735-.564.273-1.068.734-1.361 1.216l-.603-.605c.343-.568.967-1.134 1.732-1.504 1.855-.9 2.92.146 3.51 1.363l1.101 2.269c.256.526.53 1.028.806 1.406l-1.004.484zm-1.665-3.018c-1.215.559-2.478 1.435-1.906 2.612.346.715.987.823 1.551.549.79-.383 1.048-1.128.974-1.727-.017-.131-.053-.269-.107-.381l-.512-1.053zM75.997 130.401c-.347-.715-.657-1.323-.969-1.869l.965-.468.616 1.173.05-.024c-.12-.949.295-1.784 1.035-2.143.125-.061.219-.092.331-.115l.505 1.04c-.124.03-.243.072-.394.145-.777.377-1.043 1.233-.792 2.133.048.163.108.35.199.538l1.569 3.234-1.091.529-2.024-4.173zM79.963 123.988l.845 1.741 1.58-.766.407.84-1.58.766 1.587 3.272c.365.752.785 1.074 1.399.776.288-.14.482-.28.603-.385l.451.803c-.171.191-.479.418-.905.625-.514.25-1.006.287-1.416.114-.472-.173-.846-.658-1.192-1.373l-1.605-3.31-.94.456-.407-.84.94-.456-.705-1.453.938-.81zM84.032 122.061c.194.37.065.805-.374 1.017-.389.188-.811.021-.993-.354-.188-.389-.046-.829.355-1.024.414-.201.824-.028 1.012.361zm2.541 8.367l-2.943-6.067 1.104-.535 2.942 6.067-1.103.535zM93.722 126.682c-.215.289-.757.8-1.572 1.195-1.83.888-3.623.224-4.523-1.63-.906-1.868-.284-3.842 1.697-4.802.651-.316 1.308-.433 1.681-.428l.163.973c-.336-.022-.816.04-1.418.332-1.392.674-1.645 2.068-1.031 3.334.681 1.403 2.003 1.831 3.206 1.247.627-.304.962-.667 1.208-.957l.589.736zM92.583 117.913c.195.37.065.805-.374 1.018-.389.188-.811.021-.993-.354-.188-.389-.046-.829.355-1.024.414-.201.824-.029 1.012.36zm2.542 8.368l-2.943-6.067 1.103-.535 2.943 6.067-1.103.535zM96.076 120.771c-.376-.776-.706-1.391-1.011-1.956l.99-.48.555 1.016.025-.012c.093-.957.595-1.742 1.585-2.222 1.467-.711 3.171-.006 4.065 1.837 1.058 2.181.252 3.903-1.177 4.596-.802.389-1.674.378-2.33-.047l-.025.013 1.6 3.297-1.091.528-3.186-6.57zm1.875 1.089c.079.162.177.3.27.426.571.667 1.491.872 2.281.489 1.165-.565 1.38-1.847.706-3.238-.59-1.216-1.734-1.946-2.9-1.38-.752.365-1.192 1.244-1.005 2.175.029.156.071.337.145.488l.503 1.04zM108.553 119.769l-.458-.722-.038.018c-.107.641-.553 1.383-1.417 1.802-1.229.596-2.275.036-2.701-.842-.711-1.467.204-2.901 2.554-4.026l-.061-.124c-.244-.502-.819-1.337-2.06-.736-.564.273-1.068.734-1.361 1.216l-.604-.605c.343-.568.967-1.134 1.732-1.505 1.855-.899 2.92.146 3.51 1.363l1.101 2.269c.256.526.53 1.028.806 1.405l-1.003.487zm-1.665-3.018c-1.215.559-2.478 1.435-1.906 2.612.346.715.987.823 1.551.549.79-.383 1.048-1.128.974-1.727-.017-.13-.052-.269-.107-.381l-.512-1.053zM108.729 110.038l.845 1.741 1.579-.766.407.84-1.579.766 1.587 3.272c.365.752.785 1.074 1.399.776.288-.14.483-.28.603-.385l.451.803c-.171.191-.479.417-.904.624-.514.25-1.007.287-1.416.114-.472-.173-.846-.658-1.192-1.373l-1.605-3.31-.94.456-.407-.84.94-.456-.705-1.453.937-.809zM119.257 110.769c1.089 2.243.008 3.975-1.458 4.686-1.642.796-3.492.206-4.422-1.711-.985-2.03-.234-3.865 1.446-4.68 1.742-.844 3.534-.151 4.434 1.705zm-4.783 2.397c.645 1.328 1.896 1.96 2.974 1.438 1.053-.511 1.362-1.884.7-3.251-.498-1.026-1.645-2.082-2.949-1.45-1.304.632-1.284 2.11-.725 3.263zM120.122 109.002c-.347-.715-.658-1.323-.969-1.869l.965-.468.616 1.173.05-.024c-.12-.949.295-1.784 1.035-2.143.125-.061.219-.092.331-.115l.505 1.04c-.125.03-.244.072-.394.145-.777.377-1.043 1.233-.792 2.133.048.163.108.35.199.538l1.569 3.234-1.091.529-2.024-4.173zM124.019 104.774l3.067 2.941c.333.334.714.738.991 1.053l.025-.012c-.063-.418-.163-.943-.226-1.454l-.523-4.144 1.166-.565.443 5.127c.219 2.463.198 3.791-.238 4.807-.308.738-.755 1.187-1.007 1.371l-.726-.794c.233-.222.511-.573.704-1.007.185-.384.354-.992.331-1.679-.004-.138-.009-.244-.04-.306s-.098-.138-.215-.251l-4.956-4.503 1.204-.584z"/></g><g fill="#505F72"><path d="M120.983 98.361c-.494.192-1.458.341-2.666.229-2.801-.258-4.745-2.222-4.444-5.479.287-3.11 2.588-5.023 5.669-4.739 1.237.114 1.994.452 2.317.66l-.406 1.018c-.464-.28-1.141-.521-1.967-.597-2.328-.215-4.013 1.13-4.254 3.739-.225 2.432 1.032 4.123 3.449 4.346.781.072 1.592-.016 2.132-.219l.17 1.042zM129.146 95.785c-.244 2.638-2.178 3.619-3.901 3.46-1.931-.178-3.289-1.731-3.081-3.985.221-2.388 1.911-3.644 3.886-3.461 2.049.188 3.297 1.805 3.096 3.986zm-5.666-.449c-.144 1.562.646 2.824 1.913 2.941 1.238.114 2.274-.964 2.422-2.571.112-1.208-.352-2.797-1.885-2.939-1.532-.141-2.325 1.213-2.45 2.569zM136.598 98.167c-.068.737-.113 1.387-.121 1.951l-1.149-.106.033-1.171-.029-.002c-.392.543-1.213 1.226-2.48 1.109-1.121-.104-2.405-.846-2.173-3.352l.385-4.171 1.298.12-.365 3.95c-.125 1.355.203 2.308 1.382 2.417.869.08 1.528-.468 1.818-1.021.091-.185.158-.417.179-.653l.404-4.377 1.297.12-.479 5.186zM139.026 95.404c.078-.84.129-1.563.147-2.231l1.135.104-.085 1.404.06.005c.412-.928 1.25-1.46 2.119-1.38.146.014.249.038.364.078l-.113 1.224c-.13-.042-.261-.069-.438-.085-.914-.084-1.626.549-1.892 1.506-.046.173-.095.377-.115.598l-.351 3.803-1.282-.118.451-4.908zM147.271 101.114l-.021-.908-.043-.004c-.45.523-1.263.953-2.28.859-1.445-.133-2.088-1.218-1.993-2.25.159-1.725 1.779-2.526 4.534-2.257l.014-.147c.055-.59-.01-1.666-1.469-1.8-.663-.061-1.375.082-1.906.359l-.216-.882c.625-.328 1.503-.5 2.402-.417 2.182.202 2.575 1.739 2.443 3.168l-.246 2.668c-.057.619-.083 1.227-.04 1.72l-1.179-.109zm.145-3.657c-1.413-.161-3.042-.058-3.17 1.328-.078.84.445 1.29 1.109 1.351.929.086 1.572-.449 1.834-1.034.057-.129.1-.273.112-.406l.115-1.239zM157.232 94.84c-.077.513-.159 1.085-.24 1.955l-.382 4.142c-.151 1.636-.569 2.608-1.318 3.164-.752.584-1.773.698-2.672.615-.854-.079-1.779-.373-2.319-.809l.416-.958c.444.338 1.157.671 2.041.753 1.326.122 2.363-.481 2.528-2.279l.074-.796-.029-.002c-.458.626-1.274 1.086-2.38.984-1.769-.164-2.897-1.784-2.715-3.759.223-2.417 1.928-3.642 3.562-3.491 1.238.114 1.856.825 2.112 1.444l.029.002.158-1.07 1.135.105zm-1.601 2.691c.02-.221.023-.414-.018-.596-.167-.773-.745-1.451-1.687-1.538-1.238-.114-2.219.85-2.371 2.5-.129 1.4.471 2.63 1.871 2.759.796.074 1.563-.36 1.92-1.16.094-.214.146-.462.167-.683l.118-1.282zM159.699 98.902c-.132 1.757.921 2.583 2.219 2.702.929.086 1.503-.025 2.009-.187l.135.949c-.476.164-1.279.328-2.414.223-2.195-.203-3.374-1.768-3.175-3.92.199-2.151 1.622-3.729 3.7-3.538 2.329.215 2.759 2.321 2.638 3.633-.024.265-.074.469-.101.6l-5.011-.462zm3.888-.577c.092-.824-.144-2.139-1.603-2.273-1.312-.121-1.999 1.034-2.185 1.923l3.788.35zM172.846 99.819c-.244 2.638-2.178 3.619-3.901 3.459-1.931-.178-3.29-1.73-3.082-3.985.221-2.388 1.913-3.644 3.887-3.461 2.049.189 3.297 1.806 3.096 3.987zm-5.666-.449c-.144 1.562.646 2.824 1.913 2.941 1.238.114 2.274-.964 2.422-2.571.112-1.208-.352-2.797-1.885-2.938-1.531-.142-2.325 1.212-2.45 2.568zM180.298 102.201c-.068.737-.113 1.387-.121 1.951l-1.149-.106.033-1.171-.029-.003c-.392.543-1.213 1.226-2.48 1.109-1.121-.104-2.405-.847-2.173-3.352l.385-4.171 1.298.12-.365 3.95c-.125 1.355.203 2.308 1.382 2.416.869.081 1.528-.468 1.818-1.021.091-.186.158-.417.179-.653l.404-4.377 1.297.12-.479 5.188zM182.219 103.003c.361.286 1.014.614 1.663.673.943.087 1.428-.344 1.482-.933.057-.619-.28-.992-1.205-1.434-1.24-.575-1.779-1.338-1.7-2.193.106-1.15 1.122-2.008 2.654-1.866.723.066 1.337.332 1.714.604l-.412.913c-.264-.203-.758-.486-1.422-.548-.766-.07-1.234.332-1.283.863-.055.589.349.894 1.245 1.333 1.194.586 1.771 1.264 1.674 2.325-.116 1.252-1.171 2.047-2.866 1.891-.78-.072-1.485-.331-1.959-.671l.415-.957z"/></g><g fill="#505F72"><path d="M75.711 157.19l-2.502-3.365-3.146 2.301 2.789 3.751-.945.691-3.62-4.869 8.725-6.381 3.476 4.676-.945.691-2.645-3.558-2.757 2.016 2.502 3.365-.932.682zM82.007 157.407l-1.799 1.316 1.203 1.618-.867.634-1.203-1.618-3.379 2.471c-.776.568-1.054 1.108-.586 1.737.22.296.42.485.564.599l-.816.676c-.253-.152-.575-.451-.9-.888-.392-.527-.539-1.074-.428-1.571.098-.567.568-1.091 1.306-1.63l3.417-2.5-.716-.963.867-.634.716.963 1.502-1.098 1.119.888zM85.283 159.475l.84 1.13-3.909 2.859.019.026c.457-.057.952.017 1.403.222.443.192.869.497 1.184.919.621.835 1.096 2.549-1.065 4.13l-3.728 2.727-.84-1.13 3.599-2.632c1.009-.738 1.587-1.736.794-2.803-.544-.731-1.492-.932-2.266-.683-.203.049-.38.16-.6.321l-3.78 2.764-.84-1.13 9.189-6.72zM81.394 173.327l6.265-4.582.84 1.131-6.265 4.582-.84-1.131zm8.961-4.611c-.379.297-.899.242-1.234-.208-.296-.398-.195-.909.193-1.193.401-.293.932-.225 1.238.187.315.424.205.921-.197 1.214zM87.156 180.594c-.375-.181-1.069-.685-1.689-1.52-1.394-1.875-1.02-4.033.896-5.434 1.929-1.411 4.301-1.123 5.809.907.497.668.768 1.382.842 1.804l-1.072.387c-.044-.384-.218-.912-.676-1.528-1.06-1.426-2.694-1.42-4.001-.463-1.45 1.06-1.655 2.638-.739 3.871.478.643.961.944 1.342 1.161l-.712.815zM90.468 185.532l.723-.667-.029-.039c-.749.014-1.686-.333-2.345-1.22-.936-1.258-.52-2.554.386-3.217 1.515-1.107 3.335-.377 5.108 2.034l.129-.094c.518-.379 1.345-1.202.399-2.474-.429-.578-1.06-1.05-1.669-1.278l.559-.806c.719.269 1.494.853 2.076 1.636 1.413 1.901.45 3.319-.806 4.238l-2.343 1.713c-.543.398-1.055.811-1.425 1.201l-.763-1.027zm3.073-2.505c-.891-1.251-2.152-2.491-3.369-1.601-.738.54-.724 1.284-.295 1.861.603.81 1.502.945 2.167.736.145-.046.293-.116.41-.201l1.087-.795zM101.704 181.562l.84 1.13-9.19 6.722-.84-1.13 9.19-6.722z"/></g><g fill="#505F72"><path d="M118.922 127.411l-.508 1.457-.622-.01 1.66-4.631.725.012 1.513 4.684-.643-.011-.474-1.473-1.651-.028zm1.535-.446l-.434-1.348c-.099-.306-.164-.583-.228-.854h-.014c-.074.275-.154.557-.249.839l-.479 1.34 1.404.023zM124.653 128.846c-.16.081-.514.186-.963.178-1.009-.017-1.654-.712-1.638-1.734.017-1.03.734-1.765 1.826-1.747.359.006.676.101.841.187l-.146.467c-.144-.085-.371-.165-.703-.17-.768-.013-1.191.547-1.203 1.245-.013.774.477 1.259 1.14 1.271.346.005.575-.081.75-.154l.096.457zM127.706 128.896c-.16.08-.514.185-.963.178-1.009-.017-1.654-.712-1.638-1.734.017-1.03.734-1.765 1.826-1.747.359.006.676.101.841.187l-.146.467c-.144-.085-.371-.165-.702-.17-.767-.013-1.191.547-1.203 1.245-.013.774.477 1.259 1.14 1.27.346.006.575-.081.75-.154l.095.458zM131.428 127.382c-.021 1.237-.887 1.762-1.695 1.748-.905-.015-1.593-.69-1.575-1.747.019-1.12.762-1.764 1.688-1.749.96.016 1.598.725 1.582 1.748zm-2.655-.009c-.012.732.4 1.292.995 1.302.58.01 1.024-.529 1.037-1.282.009-.567-.263-1.291-.981-1.302-.719-.013-1.04.646-1.051 1.282zM134.978 128.228c-.006.346-.004.65.012.913l-.539-.009-.025-.546h-.014c-.164.267-.522.614-1.116.604-.525-.009-1.15-.31-1.13-1.484l.032-1.957.608.01-.03 1.853c-.011.636.176 1.067.729 1.076.407.007.695-.271.81-.539.036-.089.059-.2.061-.311l.034-2.053.608.01-.04 2.433zM136.009 126.718c.005-.346.003-.629-.013-.906l.539.009.025.554h.014c.171-.315.563-.62 1.116-.611.463.008 1.177.296 1.159 1.443l-.033 1.997-.608-.01.032-1.928c.009-.539-.184-.992-.757-1.001-.401-.007-.717.271-.826.608-.029.076-.044.179-.046.283l-.033 2.011-.608-.01.039-2.439zM140.578 124.927l-.016.96.871.014-.008.463-.871-.014-.029 1.804c-.007.414.107.651.445.656.159.002.277-.016.353-.036l.021.457c-.119.046-.306.078-.541.074-.284-.005-.51-.099-.652-.267-.17-.182-.227-.481-.22-.875l.03-1.825-.519-.008.008-.463.519.008.013-.802.596-.146zM143.912 129.289l-.042-.423h-.021c-.191.26-.554.489-1.031.481-.678-.011-1.016-.494-1.008-.978.013-.808.74-1.239 2.032-1.21l.001-.069c.005-.276-.063-.775-.747-.787-.311-.005-.638.086-.875.234l-.131-.403c.279-.175.682-.286 1.104-.279 1.022.017 1.26.719 1.249 1.39l-.021 1.25c-.005.29.004.574.042.802l-.552-.008zm-.061-1.709c-.664-.025-1.419.081-1.43.729-.006.394.253.585.564.59.436.007.716-.265.818-.547l.038-.192.01-.58zM145.361 129.312c.018-.228.037-.566.042-.864l.067-4.042.602.01-.035 2.101h.014c.221-.37.612-.605 1.151-.596.829.014 1.405.714 1.381 1.73-.02 1.195-.783 1.777-1.529 1.765-.484-.008-.868-.202-1.109-.648h-.021l-.037.553-.526-.009zm.651-1.33l.024.222c.11.423.458.719.9.727.636.01 1.024-.502 1.037-1.269.011-.67-.325-1.25-.974-1.261-.415-.007-.806.27-.938.731l-.039.249-.01.601zM149.399 124.471l.608.01-.081 4.907-.608-.01.081-4.907zM151.312 127.849c0 .822.52 1.169 1.128 1.18.436.007.699-.065.928-.158l.098.438c-.217.093-.584.198-1.117.189-1.03-.017-1.633-.705-1.617-1.714s.624-1.793 1.598-1.778c1.093.018 1.367.983 1.356 1.599l-.025.284-2.349-.04zm1.791-.407c.013-.387-.143-.991-.827-1.002-.615-.01-.894.552-.949.973l1.776.029z"/></g><g fill="#505F72"><path d="M108.615 135.791c.686-.109 1.501-.194 2.395-.202 1.619-.014 2.775.352 3.546 1.057.784.706 1.246 1.71 1.259 3.121.013 1.423-.417 2.591-1.226 3.4-.809.822-2.152 1.273-3.849 1.288-.803.007-1.477-.026-2.048-.086l-.077-8.578zm1.197 7.701c.285.049.7.059 1.14.055 2.41-.021 3.706-1.377 3.685-3.732-.006-2.057-1.183-3.354-3.567-3.333-.583.005-1.023.061-1.32.128l.062 6.882zM117.945 141.391c.04 1.539 1.03 2.165 2.17 2.155.816-.007 1.307-.153 1.733-.338l.202.813c-.4.185-1.084.397-2.082.406-1.931.016-3.095-1.242-3.112-3.131-.017-1.889 1.084-3.387 2.911-3.402 2.047-.018 2.607 1.776 2.618 2.928.002.233-.022.414-.035.531l-4.405.038zm3.335-.844c.006-.725-.314-1.848-1.597-1.837-1.153.01-1.648 1.075-1.732 1.865l3.329-.028zM125.13 136.192l.016 1.798 1.632-.014.008.867-1.632.014.031 3.377c.007.776.231 1.214.866 1.209.298-.002.518-.043.66-.083l.059.854c-.219.092-.568.16-1.008.164-.531.005-.96-.16-1.235-.468-.327-.333-.448-.889-.455-1.626l-.031-3.416-.971.008-.008-.867.971-.008-.014-1.5 1.111-.309zM128.649 141.299c.04 1.54 1.03 2.166 2.17 2.156.816-.007 1.307-.153 1.733-.339l.202.814c-.4.185-1.084.397-2.082.406-1.931.017-3.095-1.242-3.112-3.131-.018-1.889 1.083-3.386 2.91-3.402 2.047-.018 2.607 1.776 2.618 2.928.002.233-.022.414-.035.531l-4.404.037zm3.335-.843c.006-.725-.314-1.848-1.597-1.837-1.153.01-1.648 1.075-1.732 1.865l3.329-.028zM134.496 139.865c-.007-.738-.026-1.372-.07-1.954l.998-.009.05 1.229h.052c.278-.844.959-1.38 1.724-1.387.13-.001.22.012.324.037l.01 1.074c-.117-.025-.233-.037-.389-.036-.803.007-1.368.62-1.516 1.475-.024.156-.049.337-.047.531l.03 3.338-1.127.01-.039-4.308zM138.783 139.57c-.006-.647-.024-1.178-.067-1.695l.997-.009.061 1.009h.039c.345-.598.923-1.16 1.959-1.168.855-.007 1.507.504 1.786 1.24h.026c.191-.351.435-.625.692-.821.373-.289.786-.447 1.382-.452.829-.007 2.065.526 2.084 2.7l.034 3.688-1.114.01-.032-3.545c-.011-1.204-.458-1.924-1.378-1.917-.647.005-1.148.489-1.338 1.046-.05.156-.087.363-.085.57l.035 3.869-1.114.009-.034-3.752c-.009-.997-.456-1.717-1.324-1.71-.712.006-1.225.58-1.402 1.151-.063.169-.087.363-.085.557l.034 3.778-1.113.01-.043-4.568zM150.83 136.012c.016.388-.266.701-.719.705-.401.003-.689-.305-.693-.693-.004-.401.291-.714.706-.718.427-.004.702.305.706.706zm-1.197 8.033l-.057-6.263 1.14-.01.057 6.263-1.14.01zM152.624 139.452c-.006-.647-.024-1.178-.067-1.695l1.01-.009.075 1.035h.026c.306-.598 1.025-1.186 2.062-1.195.868-.007 2.22.498 2.239 2.646l.034 3.739-1.14.01-.033-3.61c-.009-1.009-.393-1.847-1.468-1.837-.751.006-1.329.542-1.518 1.178-.05.143-.075.337-.073.531l.034 3.766-1.14.01-.041-4.569zM160.466 141.028c.04 1.539 1.03 2.165 2.17 2.155.815-.007 1.307-.153 1.732-.338l.202.814c-.4.185-1.084.397-2.082.406-1.931.017-3.095-1.242-3.112-3.131-.018-1.889 1.083-3.387 2.91-3.402 2.046-.017 2.606 1.776 2.617 2.928.002.233-.022.415-.035.531l-4.402.037zm3.334-.844c.006-.725-.314-1.848-1.597-1.837-1.153.01-1.648 1.075-1.732 1.866l3.329-.029zM171.682 134.669l.069 7.569c.005.556.023 1.19.066 1.617l-1.023.009-.062-1.086h-.026c-.344.702-1.104 1.239-2.127 1.248-1.516.013-2.693-1.258-2.71-3.161-.031-2.083 1.252-3.375 2.781-3.388.959-.008 1.61.439 1.9.941h.026l-.034-3.739 1.14-.01zm-1.09 5.483c-.001-.142-.016-.336-.056-.478-.175-.723-.802-1.313-1.657-1.306-1.179.01-1.869 1.051-1.857 2.436.012 1.269.643 2.311 1.874 2.301.765-.007 1.459-.518 1.659-1.373.038-.156.049-.311.047-.493l-.01-1.087z"/></g><g fill="#505F72"><path d="M102.372 176.777l-.882 2.75-1.166.01 2.887-8.746 1.36-.012 3.059 8.695-1.205.01-.958-2.735-3.095.028zm2.855-.904l-.878-2.503c-.2-.567-.334-1.084-.468-1.587h-.026c-.125.519-.262 1.05-.426 1.582l-.832 2.53 2.63-.022zM113.189 179.195c-.296.158-.956.371-1.798.377-1.891.016-3.133-1.254-3.151-3.169-.018-1.928 1.291-3.336 3.338-3.354.674-.006 1.271.158 1.583.31l-.251.882c-.273-.153-.702-.292-1.324-.287-1.438.012-2.206 1.08-2.194 2.387.013 1.449.955 2.333 2.198 2.323.647-.006 1.073-.177 1.396-.323l.203.854zM118.917 179.146c-.296.158-.956.37-1.798.377-1.891.016-3.133-1.254-3.15-3.169-.018-1.928 1.291-3.336 3.337-3.354.674-.006 1.271.158 1.583.31l-.251.882c-.273-.153-.702-.292-1.324-.287-1.438.012-2.206 1.08-2.194 2.387.013 1.449.955 2.333 2.198 2.323.647-.005 1.073-.177 1.396-.322l.203.853zM125.823 176.136c.021 2.316-1.576 3.339-3.092 3.353-1.697.015-3.017-1.216-3.035-3.196-.019-2.096 1.343-3.337 3.079-3.352 1.801-.016 3.03 1.281 3.048 3.195zm-4.974.108c.012 1.371.812 2.4 1.927 2.39 1.088-.009 1.895-1.038 1.882-2.449-.009-1.061-.553-2.401-1.9-2.39-1.348.012-1.92 1.258-1.909 2.449zM132.523 177.554c.006.647.024 1.216.067 1.708l-1.01.009-.074-1.022h-.026c-.293.507-.948 1.173-2.062 1.183-.984.008-2.168-.525-2.188-2.725l-.034-3.662 1.141-.01.031 3.467c.011 1.19.381 1.99 1.417 1.98.765-.006 1.291-.542 1.494-1.048.063-.169.1-.376.098-.583l-.035-3.842 1.141-.01.04 4.555zM134.392 174.679c-.006-.647-.024-1.177-.067-1.694l1.01-.009.075 1.035h.026c.306-.598 1.025-1.187 2.062-1.195.868-.008 2.219.499 2.239 2.646l.034 3.739-1.14.01-.033-3.61c-.009-1.009-.393-1.847-1.468-1.837-.751.006-1.329.542-1.518 1.177-.05.143-.075.337-.073.531l.034 3.766-1.14.01-.041-4.569zM142.874 171.112l.017 1.799 1.632-.014.008.867-1.632.014.03 3.376c.007.776.231 1.214.866 1.209.298-.002.518-.043.66-.083l.059.854c-.219.092-.568.16-1.009.164-.531.004-.96-.161-1.235-.469-.327-.333-.448-.889-.455-1.626l-.031-3.416-.971.008-.008-.867.972-.008-.014-1.501 1.111-.307zM149.335 179.119l-.098-.789h-.039c-.345.494-1.015.94-1.909.948-1.27.011-1.925-.876-1.934-1.782-.014-1.514 1.326-2.354 3.749-2.361l-.001-.129c-.004-.518-.155-1.447-1.438-1.437-.583.005-1.19.191-1.628.479l-.266-.748c.515-.341 1.265-.567 2.055-.574 1.917-.017 2.395 1.287 2.407 2.542l.021 2.342c.005.543.036 1.074.118 1.5l-1.037.009zm-.197-3.195c-1.244-.015-2.654.217-2.643 1.433.006.738.502 1.083 1.085 1.078.816-.007 1.33-.529 1.506-1.061.038-.117.062-.246.062-.363l-.01-1.087zM152.058 179.096c.022-.427.042-1.062.037-1.618l-.069-7.569 1.127-.01.036 3.934h.026c.396-.702 1.117-1.162 2.127-1.17 1.554-.014 2.667 1.271 2.671 3.173.021 2.238-1.381 3.364-2.78 3.375-.907.008-1.636-.335-2.109-1.16h-.039l-.042 1.036-.985.009zm1.156-2.521c.001.142.029.285.056.414.228.788.893 1.325 1.722 1.318 1.192-.01 1.896-.987 1.882-2.423-.011-1.255-.668-2.323-1.886-2.312-.777.006-1.498.543-1.723 1.412-.025.129-.062.285-.061.466l.01 1.125zM159.4 169.846l1.14-.01.083 9.187-1.14.01-.083-9.187zM163.151 176.077c.04 1.539 1.029 2.165 2.169 2.155.816-.007 1.307-.153 1.733-.338l.202.813c-.399.185-1.084.397-2.082.406-1.93.016-3.094-1.242-3.111-3.131-.017-1.889 1.083-3.387 2.91-3.402 2.047-.018 2.607 1.776 2.618 2.928.002.233-.022.414-.034.531l-4.405.038zm3.334-.844c.006-.725-.314-1.848-1.597-1.836-1.153.01-1.648 1.075-1.732 1.865l3.329-.029z"/></g><g fill="#505F72"><path d="M66.084 155.07l-3.022 2.324 2.689 3.497 3.022-2.324.726.944-7.223 5.555-.726-.944 3.386-2.604-2.689-3.497-3.387 2.604-.718-.934 7.223-5.555.719.934zM69.747 169.322c-1.918 1.475-3.777.788-4.743-.468-1.081-1.405-.885-3.279.754-4.541 1.736-1.335 3.628-.981 4.734.457 1.147 1.491.841 3.333-.745 4.552zm-3.223-4.079c-1.136.874-1.49 2.188-.781 3.11.694.901 2.06.926 3.228.028.879-.676 1.656-1.972.797-3.088-.857-1.116-2.258-.808-3.244-.05zM71.808 169.629c.536-.412.967-.762 1.37-1.124l.644.837-.815.713.016.021c.691-.122 1.635.108 2.295.967.553.719.982 2.165-.796 3.533l-3.097 2.382-.726-.944 2.99-2.3c.836-.643 1.293-1.49.608-2.38-.479-.622-1.29-.768-1.938-.524-.151.048-.329.15-.489.273l-3.119 2.398-.726-.943 3.783-2.909zM78.852 181.16c-1.918 1.475-3.777.788-4.743-.468-1.081-1.405-.885-3.279.754-4.541 1.736-1.335 3.628-.981 4.734.457 1.148 1.491.841 3.332-.745 4.552zm-3.222-4.079c-1.136.874-1.49 2.188-.781 3.11.694.901 2.06.926 3.228.028.879-.676 1.655-1.972.797-3.088s-2.258-.808-3.244-.05zM81.886 187.633c-.536.412-.999.785-1.382 1.13l-.644-.837.805-.704-.017-.021c-.608.075-1.575-.052-2.284-.975-.627-.815-.929-2.138.894-3.539l3.033-2.333.727.944-2.872 2.209c-.986.758-1.419 1.57-.759 2.428.486.632 1.265.734 1.814.585.181-.053.376-.153.548-.285l3.183-2.448.727.944-3.773 2.902zM85.242 187.539c.611-.47 1.127-.884 1.585-1.288l.635.825-.993.816.033.042c.877-.299 1.755-.068 2.242.565.082.106.129.19.174.292l-.889.684c-.053-.113-.117-.217-.215-.346-.512-.665-1.379-.75-2.185-.334-.145.077-.311.171-.472.295l-2.765 2.126-.718-.934 3.568-2.743zM86.541 196.611l.596-.578-.025-.032c-.63.023-1.423-.253-1.993-.995-.809-1.051-.482-2.156.268-2.733 1.254-.964 2.798-.375 4.331 1.639l.107-.083c.429-.33 1.11-1.04.293-2.103-.372-.483-.91-.872-1.426-1.056l.457-.692c.609.216 1.27.697 1.773 1.352 1.221 1.587.436 2.806-.603 3.605l-1.94 1.492c-.45.346-.873.706-1.177 1.042l-.661-.858zm2.54-2.175c-.771-1.047-1.852-2.076-2.859-1.301-.611.47-.587 1.1-.216 1.583.52.676 1.279.776 1.834.588.121-.043.245-.104.341-.178l.9-.692zM88.271 198.861c.371-.25.913-.632 1.373-.986l6.27-4.821.718.934-3.258 2.505.016.021c.834-.112 1.672.2 2.315 1.037.99 1.287.62 3.023-.964 4.224-1.854 1.426-3.674.965-4.566-.194-.577-.751-.75-1.574-.361-2.487l-.025-.033-.89.618-.628-.818zm2.831-.621c-.118.091-.22.202-.31.306-.513.686-.543 1.579-.015 2.265.759.986 2.017.959 3.207.044 1.04-.799 1.517-2.02.741-3.028-.496-.644-1.397-.906-2.264-.547-.124.061-.276.128-.427.244l-.932.716zM100.607 199.154l.726.943-7.609 5.852-.726-.943 7.609-5.852zM97.771 206.2c-1.259 1.002-1.157 2.221-.431 3.165.521.676.952.992 1.375 1.231l-.552.68c-.406-.218-1.015-.654-1.65-1.48-1.229-1.599-.914-3.36.651-4.563s3.507-1.228 4.67.285c1.304 1.695.161 3.291-.793 4.024-.193.148-.36.242-.465.306l-2.805-3.648zm2.804 2.248c.608-.452 1.342-1.426.526-2.487-.734-.955-1.935-.697-2.646-.27l2.12 2.757z"/></g><g fill="#505F72"><path d="M318.721 184.056c-.348 1.17-1.441 3.136-3.354 5.178-4.433 4.731-10.758 5.495-16.265.344-5.258-4.917-5.486-11.811-.611-17.015 1.96-2.092 3.646-2.991 4.48-3.285l1.278 2.177c-1.168.45-2.562 1.339-3.869 2.734-3.686 3.934-3.618 8.903.793 13.028 4.111 3.846 8.968 3.95 12.794-.133 1.235-1.32 2.222-2.92 2.614-4.188l2.14 1.16zM325.575 165.56c4.46 4.172 3.511 9.077.782 11.991-3.056 3.262-7.804 3.54-11.616-.026-4.037-3.776-3.932-8.629-.806-11.966 3.243-3.461 7.953-3.448 11.64.001zm-8.833 9.679c2.642 2.47 6.058 2.815 8.063.674 1.96-2.092 1.46-5.502-1.256-8.042-2.043-1.911-5.59-3.314-8.016-.724-2.425 2.589-1.083 5.948 1.209 8.092zM340.454 155.366c1.245 1.166 2.365 2.166 3.383 2.977l-1.819 1.942-2.086-1.717-.046.05c.435 1.481.516 3.939-1.49 6.081-1.772 1.893-4.941 3.18-9.178-.782l-7.052-6.596 2.053-2.191 6.679 6.247c2.292 2.144 4.49 2.892 6.356.899 1.376-1.469 1.31-3.446.712-4.753-.207-.427-.535-.875-.934-1.248l-7.401-6.922 2.052-2.191 8.771 8.204zM338.854 147.043c-1.421-1.329-2.664-2.446-3.855-3.42l1.796-1.917 2.438 2.139.093-.1c-1.106-2.063-.892-4.338.484-5.807.233-.249.422-.4.658-.553l2.068 1.935c-.26.178-.495.378-.775.677-1.445 1.543-1.3 3.734.064 5.572.252.329.554.705.928 1.055l6.429 6.013-2.029 2.167-8.299-7.761zM360.915 140.111l-1.683-1.248-.069.075c.316 1.558-.05 3.645-1.659 5.363-2.286 2.44-5.171 2.078-6.915.446-2.916-2.727-2.085-6.808 2.302-11.441l-.249-.232c-.997-.933-3.048-2.336-5.356.129-1.05 1.121-1.798 2.617-2.042 3.976l-1.912-.854c.285-1.602 1.214-3.442 2.637-4.961 3.452-3.685 6.81-2.228 9.227.033l4.51 4.218c1.047.979 2.115 1.885 3.077 2.504l-1.868 1.992zm-6.458-5.433c-2.288 2.344-4.408 5.454-2.065 7.645 1.42 1.328 2.979 1.012 4.029-.109 1.47-1.569 1.405-3.497.71-4.802-.153-.284-.355-.566-.58-.777l-2.094-1.957zM363.575 113.116c.826.866 1.751 1.825 3.222 3.199l7.001 6.549c2.767 2.587 3.947 4.72 3.898 6.87 0 2.196-1.237 4.215-2.66 5.734-1.353 1.444-3.194 2.711-4.753 3.076l-1.155-2.109c1.244-.331 2.858-1.156 4.259-2.65 2.099-2.241 2.468-4.98-.572-7.823l-1.346-1.259-.047.05c.491 1.721.176 3.854-1.573 5.722-2.8 2.988-7.348 2.752-10.687-.371-4.087-3.822-3.908-8.654-1.319-11.418 1.96-2.092 4.129-2.211 5.616-1.802l.047-.05-1.727-1.801 1.796-1.917zm2.637 6.717c-.373-.35-.721-.627-1.113-.807-1.644-.791-3.693-.699-5.187.895-1.959 2.092-1.59 5.24 1.201 7.85 2.367 2.214 5.456 2.86 7.672.495 1.259-1.345 1.555-3.357.604-5.135-.258-.474-.635-.92-1.008-1.27l-2.169-2.028zM374.462 114.37c3.013 2.724 6.006 1.974 8.059-.217 1.47-1.569 2.081-2.772 2.503-3.919l1.919 1.095c-.375 1.098-1.211 2.791-3.008 4.708-3.476 3.71-7.992 3.643-11.631.24-3.638-3.403-4.498-8.225-1.209-11.735 3.685-3.934 8.129-1.741 10.347.334.449.419.751.795.951 1.03l-7.931 8.464zm4.448-7.892c-1.372-1.33-4.1-2.76-6.409-.294-2.075 2.216-.942 5.098.415 6.694l5.994-6.4zM394.726 91.74c4.46 4.172 3.511 9.077.782 11.991-3.056 3.262-7.803 3.54-11.615-.026-4.037-3.776-3.933-8.629-.807-11.966 3.242-3.461 7.952-3.447 11.64.001zm-8.833 9.679c2.642 2.47 6.058 2.815 8.063.674 1.96-2.092 1.461-5.501-1.255-8.042-2.043-1.911-5.591-3.314-8.017-.725-2.425 2.591-1.083 5.949 1.209 8.093zM409.605 81.546c1.245 1.166 2.365 2.166 3.382 2.977l-1.819 1.942-2.085-1.717-.047.05c.436 1.481.517 3.94-1.49 6.081-1.772 1.893-4.94 3.18-9.177-.782l-7.052-6.596 2.052-2.191 6.679 6.247c2.292 2.144 4.49 2.892 6.356.899 1.376-1.469 1.311-3.446.713-4.753-.208-.427-.536-.875-.935-1.248l-7.401-6.922 2.053-2.191 8.771 8.204zM413.78 79.186c1.03-.251 2.551-.978 3.577-2.073 1.492-1.593 1.396-3.086.398-4.018-1.046-.979-2.202-.893-4.316.167-2.803 1.443-4.955 1.346-6.399-.006-1.944-1.818-2.069-4.878.356-7.468 1.143-1.22 2.495-1.965 3.523-2.264l1.082 2.04c-.742.193-1.957.692-3.007 1.812-1.213 1.294-1.143 2.716-.245 3.555.996.932 2.121.629 4.189-.379 2.757-1.346 4.806-1.438 6.6.239 2.118 1.981 2.074 5.023-.608 7.887-1.236 1.32-2.703 2.237-3.994 2.617l-1.156-2.109z"/></g><g fill="#505F72"><path d="M314.662 225.868l.326 5.218-1.957.784-.898-16.644 2.283-.914 10.88 12.647-2.022.81-3.414-3.982-5.198 2.081zm4.212-3.402l-3.127-3.643c-.71-.825-1.276-1.607-1.834-2.369l-.043.018c.132.957.249 1.943.325 2.948l.265 4.813 4.414-1.767zM334.471 222.831c-.395.462-1.365 1.254-2.778 1.819-3.175 1.271-6.104-.054-7.394-3.271-1.301-3.239-.024-6.475 3.411-7.851 1.13-.453 2.244-.57 2.87-.52l.159 1.653c-.562-.078-1.375-.029-2.419.389-2.413.966-3.003 3.27-2.122 5.466.978 2.435 3.145 3.308 5.231 2.472 1.088-.435 1.691-1.006 2.139-1.462l.903 1.305zM344.084 218.982c-.395.462-1.364 1.253-2.777 1.819-3.175 1.271-6.104-.054-7.395-3.271-1.301-3.239-.023-6.475 3.412-7.851 1.13-.453 2.244-.57 2.869-.519l.159 1.653c-.562-.078-1.375-.029-2.418.389-2.414.967-3.004 3.271-2.123 5.467.978 2.435 3.145 3.308 5.232 2.472 1.087-.436 1.69-1.006 2.139-1.463l.902 1.304zM353.731 209.368c1.562 3.891-.455 6.666-2.999 7.684-2.848 1.141-5.882-.067-7.216-3.392-1.413-3.522.063-6.51 2.977-7.676 3.023-1.211 5.947.166 7.238 3.384zm-8.305 3.451c.924 2.304 2.948 3.512 4.818 2.763 1.826-.731 2.507-2.998 1.557-5.367-.716-1.782-2.514-3.686-4.775-2.78-2.262.906-2.403 3.384-1.6 5.384zM365.949 207.352c.436 1.087.842 2.035 1.238 2.834l-1.697.679-.797-1.674-.044.018c-.159 1.048-.823 2.601-2.693 3.349-1.652.662-3.998.541-5.48-3.154l-2.468-6.151 1.913-.766 2.337 5.825c.803 2 1.952 3.104 3.692 2.407 1.282-.514 1.816-1.761 1.824-2.749-.005-.326-.079-.7-.219-1.047l-2.591-6.456 1.914-.766 3.071 7.651zM367.199 201.275c-.436-1.087-.815-1.97-1.229-2.812l1.696-.679.806 1.695.044-.018c.121-1.208.945-2.674 2.686-3.371 1.457-.583 4.067-.62 5.516 2.99l2.52 6.281-1.913.766-2.434-6.064c-.68-1.695-1.878-2.856-3.683-2.133-1.261.505-1.882 1.789-1.78 2.983.009.274.096.618.227.944l2.538 6.325-1.913.766-3.081-7.673zM379.133 189.685l1.213 3.021 2.74-1.097.584 1.457-2.74 1.097 2.276 5.672c.523 1.306 1.19 1.896 2.255 1.469.501-.2.844-.414 1.058-.574l.662 1.399c-.309.3-.853.644-1.591.94-.893.357-1.723.362-2.389.022-.771-.347-1.341-1.203-1.838-2.443l-2.303-5.737-1.632.653-.584-1.457 1.632-.653-1.013-2.522 1.67-1.247zM395.289 198.934l-.685-1.264-.064.026c-.257 1.061-1.091 2.252-2.591 2.853-2.131.854-3.82-.211-4.431-1.733-1.021-2.543.684-4.84 4.758-6.446l-.087-.218c-.349-.869-1.216-2.339-3.369-1.477-.978.392-1.879 1.104-2.426 1.879l-.94-1.086c.643-.914 1.756-1.788 3.082-2.319 3.218-1.289 4.882.593 5.728 2.703l1.579 3.934c.366.913.768 1.788 1.186 2.452l-1.74.696zm-2.437-5.256c-2.104.793-4.326 2.112-3.506 4.154.496 1.239 1.559 1.495 2.537 1.104 1.37-.549 1.89-1.766 1.837-2.779-.013-.222-.057-.457-.135-.652l-.733-1.827zM399.857 197.104c-.244-.734-.628-1.817-1.003-2.751l-5.103-12.717 1.892-.757 2.651 6.608.044-.018c.203-1.444 1.116-2.692 2.812-3.371 2.609-1.045 5.33.389 6.59 3.593 1.509 3.761-.11 6.579-2.459 7.519-1.522.609-2.976.51-4.316-.568l-.065.026.61 1.774-1.653.662zm.288-5.008c.096.239.236.461.366.661.901 1.178 2.377 1.646 3.769 1.089 2-.801 2.542-2.91 1.574-5.322-.846-2.109-2.657-3.478-4.701-2.66-1.305.522-2.165 1.902-1.972 3.514.044.235.083.522.205.826l.759 1.892zM406.128 176.681l1.914-.766 6.192 15.434-1.914.766-6.192-15.434zM416.548 184.721c1.082 2.569 3.161 2.972 5.075 2.206 1.369-.549 2.101-1.119 2.695-1.71l.876 1.239c-.552.575-1.564 1.384-3.239 2.054-3.24 1.297-6.029-.059-7.303-3.232-1.273-3.174-.406-6.422 2.659-7.65 3.436-1.376 5.562 1.28 6.337 3.215.157.392.236.713.293.917l-7.393 2.961zm5.061-3.616c-.468-1.227-1.748-2.908-3.9-2.046-1.936.775-2.068 2.896-1.688 4.284l5.588-2.238z"/></g><g fill="#505F72"><path d="M390.689 265.91l-12.139-.278-.262 11.258 13.528.31-.078 3.382-17.56-.402.726-31.226 16.864.386-.079 3.382-12.833-.294-.229 9.868 12.139.278-.077 3.336zM402.275 251.944l-.149 6.439 5.838.134-.072 3.104-5.838-.134-.28 12.092c-.064 2.78.687 4.373 2.956 4.425 1.065.024 1.856-.097 2.37-.224l.114 3.062c-.796.307-2.052.51-3.626.474-1.9-.043-3.416-.681-4.362-1.815-1.131-1.231-1.501-3.232-1.44-5.874l.284-12.23-3.475-.08.072-3.104 3.475.08.125-5.374 4.008-.975zM412.792 248.153l4.077.093-.325 13.991.093.002c.676-1.144 1.719-2.139 2.985-2.806 1.221-.667 2.668-1.098 4.196-1.062 3.012.069 7.787 2.033 7.607 9.769l-.31 13.343-4.077-.093.299-12.879c.084-3.614-1.188-6.702-5.033-6.79-2.642-.061-4.769 1.745-5.562 3.951-.245.55-.306 1.152-.323 1.939l-.314 13.528-4.077-.093.764-32.893zM437.738 281.635l.521-22.423 4.077.093-.521 22.423-4.077-.093zm5.207-28.62c.015 1.391-1.03 2.479-2.651 2.442-1.437-.033-2.43-1.168-2.397-2.558.033-1.436 1.125-2.524 2.607-2.49 1.528.035 2.475 1.17 2.441 2.606zM464.581 281.415c-1.078.531-3.458 1.219-6.47 1.149-6.764-.155-11.059-4.842-10.899-11.699.16-6.903 5.002-11.798 12.322-11.63 2.409.055 4.526.706 5.625 1.288l-.999 3.129c-.96-.578-2.478-1.123-4.701-1.173-5.143-.118-8.01 3.617-8.119 8.296-.12 5.188 3.141 8.462 7.589 8.564 2.315.053 3.858-.514 5.028-.998l.624 3.074zM481.749 282.642l-.26-2.833-.139-.003c-1.292 1.731-3.737 3.251-6.934 3.178-4.54-.104-6.783-3.354-6.708-6.597.126-5.42 5.013-8.275 13.676-8.03l.011-.463c.043-1.853-.389-5.201-4.976-5.306-2.085-.048-4.278.551-5.876 1.534l-.864-2.708c1.882-1.162 4.586-1.888 7.412-1.824 6.856.157 8.416 4.875 8.312 9.369l-.194 8.385c-.046 1.946.003 3.847.246 5.382l-3.706-.084zm-.337-11.457c-4.446-.194-9.515.478-9.615 4.833-.062 2.641 1.67 3.931 3.754 3.979 2.92.067 4.815-1.744 5.508-3.628.149-.414.253-.875.263-1.292l.09-3.892zM492.425 249.976l4.077.093-.764 32.893-4.077-.093.764-32.893z"/></g><defs><path id="a" d="M237.022 385.283c0-11.447-9.318-20.738-20.812-20.738-8.32 0-15.48 4.855-18.816 11.877-3.346-7.021-10.516-11.877-18.828-11.877-10.213 0-18.721 7.359-20.469 17.055 0 0-3.432 13.354 11.4 30.119 13.521 15.281 24.523 20.033 27.797 24.727 3.275-4.693 14.287-9.445 27.805-24.727 7.207-8.162 10.115-15.514 11.168-20.922.496-1.745.755-3.594.755-5.514z"/></defs><use xlink:href="#a" overflow="visible" fill="#fff"/><clipPath id="b"><use xlink:href="#a" overflow="visible"/></clipPath><g clip-path="url(#b)"><path fill="#FFB819" d="M147.261 365.839l33.051 32.838-33.051 32.776v5.068h3.324l37.467-37.467-38.471-38.469h-2.32v5.254z"/><path fill="#007549" d="M147.261 360.736l38.154 37.996-37.953 37.789h26.6l28.021-27.314h75.918v-20.948h-75.918l-28.375-27.674h-26.447v.151z"/><path fill="#E63C2F" d="M178.589 360.585l24.988 25.151 74.424.006v-25.157h-99.412z"/><path fill="#001689" d="M278.001 436.521v-24.998h-74.318l-25.237 24.998h99.555z"/><path fill="#231F20" d="M180.312 398.677l-33.051-32.767v65.646l33.051-32.879z"/></g></svg>