<svg xmlns="http://www.w3.org/2000/svg" width="500" height="408" viewBox="0 0 500 408"><path fill="#0E5461" d="M272.704 18.308c-92.443 35.007-139.171 138.7-104.161 231.144 27.219 71.879 95.961 116.106 168.652 115.777v-20.485c-64.428.339-125.37-38.845-149.493-102.548-31.006-81.877 10.377-173.717 92.26-204.728 50.172-18.999 104.066-10.785 145.435 17.252 4.785-5.201 9.626-10.197 14.897-14.612-47.12-33.533-109.565-43.775-167.59-21.8z"/><path fill="#fff" d="M334.877 271.881c47.856-.271 86.681-39.265 86.681-87.157 0-28.862-14.269-55.762-38.196-72.064l27.269-39.218c36.772 25.266 58.708 66.827 58.708 111.282 0 73.996-60.066 134.422-133.996 134.933l-.466-47.776z"/><path fill="#465560" d="M410.756 74.136c36.39 25.199 58.082 66.463 58.082 110.587 0 73.56-59.568 133.658-133.001 134.429l-.455-46.776c47.885-.527 86.676-39.645 86.676-87.652 0-28.86-14.185-55.77-37.998-72.191l26.696-38.397m-.253-1.387l-27.841 40.041c23.144 15.574 38.396 41.999 38.396 71.934 0 47.78-38.872 86.658-86.658 86.658h-.027l.475 48.777c74.473-.241 134.991-60.908 134.991-135.436-.001-46.49-23.545-87.572-59.336-111.974zM339.853 392.729c0 3.025-2.443 5.468-5.48 5.468-3.008 0-5.455-2.442-5.455-5.468 0-3.008 2.447-5.456 5.455-5.456 3.036-.001 5.48 2.448 5.48 5.456z"/><path fill="#5DC7C3" d="M247.738 184.724c0-47.796 38.877-86.659 86.661-86.659 17.847 0 35.992 6.45 49.796 15.749l27.521-40.194c-21.709-14.804-49.125-24.334-77.316-24.334-74.692 0-135.452 60.751-135.452 135.438 0 74.683 60.76 135.443 135.452 135.443l.447-.008-.475-48.777c-47.767-.012-86.634-38.878-86.634-86.658z"/><path stroke="#465560" stroke-width="5.67" stroke-miterlimit="10" d="M335.391 200.391v192.338-192.338z" fill="none"/><g fill="#E6E7E8"><path d="M214.933 186.667c0 .323-.103.586-.307.787-.205.202-.545.302-1.021.302h-3.644l-.476 2.765c.598-.122 1.145-.183 1.639-.183.696 0 1.308.104 1.836.311.528.208.972.495 1.332.861s.632.795.815 1.287c.183.491.275 1.021.275 1.588 0 .702-.124 1.343-.371 1.923-.247.58-.59 1.076-1.03 1.488s-.96.731-1.561.957c-.602.226-1.256.339-1.964.339-.416 0-.809-.043-1.181-.128-.373-.085-.722-.2-1.048-.344-.327-.143-.629-.308-.907-.494s-.526-.383-.746-.591l.696-.961c.146-.207.342-.311.586-.311.153 0 .307.049.462.146l.545.32c.208.116.449.223.723.32.275.098.607.147.998.147.415 0 .781-.067 1.099-.202s.582-.322.792-.563.369-.528.476-.861c.107-.333.16-.694.16-1.085 0-.72-.209-1.283-.627-1.689-.418-.406-1.033-.609-1.845-.609-.641 0-1.285.116-1.932.348l-1.41-.403 1.099-6.427h6.537v.962zM221.809 199.091c-.684 0-1.308-.091-1.873-.275-.564-.183-1.048-.442-1.451-.778s-.716-.742-.938-1.218-.334-1.007-.334-1.593c0-.781.192-1.442.577-1.982.384-.54.982-.941 1.794-1.204-.647-.269-1.131-.65-1.451-1.145-.32-.495-.48-1.09-.48-1.786 0-.5.102-.967.307-1.401.204-.433.49-.81.856-1.131.366-.32.804-.57 1.314-.75.509-.18 1.069-.27 1.68-.27.61 0 1.17.09 1.68.27.51.18.948.43 1.314.75.366.321.651.698.856 1.131.205.434.307.9.307 1.401 0 .696-.162 1.291-.485 1.786-.324.494-.806.876-1.447 1.145.812.262 1.41.664 1.794 1.204.385.541.577 1.201.577 1.982 0 .586-.112 1.117-.334 1.593s-.536.882-.938 1.218c-.403.335-.887.595-1.451.778-.567.184-1.191.275-1.874.275zm0-1.767c.372 0 .699-.053.979-.16s.517-.255.709-.444c.192-.189.337-.415.435-.677s.146-.546.146-.852c0-.727-.202-1.276-.604-1.648-.403-.373-.958-.559-1.666-.559s-1.264.186-1.667.559c-.403.372-.604.921-.604 1.648 0 .305.049.589.146.852s.243.488.435.677c.192.189.429.337.709.444s.609.16.982.16zm0-6.116c.366 0 .674-.058.924-.174.25-.116.452-.27.604-.462.152-.192.261-.412.325-.659.064-.247.096-.502.096-.765 0-.25-.04-.488-.119-.714-.08-.226-.199-.426-.357-.6-.159-.174-.36-.312-.604-.417-.244-.104-.534-.156-.87-.156-.336 0-.626.052-.87.156-.244.104-.447.243-.609.417-.162.174-.281.374-.357.6-.076.226-.114.464-.114.714 0 .263.032.518.096.765s.172.467.325.659c.153.192.354.347.604.462.251.116.559.174.926.174zM233.793 188.91c0 .5-.084.952-.252 1.355s-.393.746-.673 1.03c-.281.284-.607.502-.98.655-.372.153-.76.229-1.163.229-.439 0-.846-.076-1.218-.229-.373-.152-.694-.371-.966-.655-.272-.284-.484-.627-.636-1.03-.153-.403-.229-.854-.229-1.355 0-.513.076-.977.229-1.392.152-.415.364-.766.636-1.053.271-.287.593-.508.966-.664.372-.156.778-.234 1.218-.234s.847.078 1.222.234c.375.155.701.377.975.664.275.287.488.638.641 1.053.153.416.23.879.23 1.392zm4.404-2.848c.073-.091.165-.174.274-.247s.263-.11.458-.11h1.639l-9.833 12.9c-.073.098-.167.179-.279.243-.113.064-.249.096-.408.096h-1.685l9.834-12.882zm-6.153 2.848c0-.354-.034-.65-.101-.888s-.16-.431-.279-.577-.26-.251-.421-.315c-.162-.064-.334-.096-.517-.096s-.354.032-.513.096c-.159.064-.296.169-.412.315-.116.146-.206.339-.27.577-.064.238-.096.534-.096.888 0 .342.032.627.096.856s.154.414.27.554c.116.141.253.241.412.302s.33.092.513.092.355-.031.517-.092.302-.162.421-.302c.119-.14.212-.325.279-.554.067-.229.101-.514.101-.856zm9.22 6.922c0 .5-.084.952-.251 1.355-.168.403-.393.746-.673 1.03-.281.284-.608.504-.98.659-.372.156-.76.234-1.163.234-.439 0-.846-.078-1.218-.234-.373-.155-.694-.375-.966-.659-.272-.284-.484-.627-.637-1.03-.152-.403-.229-.854-.229-1.355 0-.513.076-.977.229-1.392.153-.415.365-.766.637-1.053.271-.287.593-.508.966-.664.372-.156.778-.234 1.218-.234s.847.078 1.222.234c.375.155.7.377.975.664.275.287.488.638.641 1.053.153.415.229.879.229 1.392zm-1.74 0c0-.354-.035-.65-.105-.888-.07-.238-.165-.431-.284-.577s-.26-.251-.421-.316c-.162-.064-.334-.096-.517-.096s-.354.032-.513.096c-.159.064-.295.169-.408.316s-.203.339-.27.577c-.067.238-.101.534-.101.888 0 .342.033.628.101.86s.157.418.27.559c.113.141.249.241.408.302.159.061.33.091.513.091s.355-.03.517-.091.302-.162.421-.302c.119-.14.213-.327.284-.559s.105-.518.105-.86z"/></g><g fill="#333"><path d="M429.128 200.389c.556 0 1.068.08 1.538.238s.874.385 1.213.678.603.647.792 1.062.284.876.284 1.382c0 .415-.054.786-.16 1.112-.107.327-.26.614-.458.861s-.438.457-.719.627c-.281.171-.595.308-.943.412.854.226 1.497.604 1.928 1.135.43.531.646 1.197.646 1.996 0 .604-.114 1.148-.344 1.63-.229.482-.542.893-.938 1.231s-.859.598-1.387.778c-.528.18-1.095.27-1.698.27-.696 0-1.291-.087-1.786-.261-.494-.174-.912-.414-1.254-.719s-.623-.667-.843-1.085-.405-.872-.558-1.36l.695-.293c.128-.055.257-.083.385-.083.122 0 .23.026.325.078s.166.133.215.243l.037.078.036.087c.085.177.189.377.312.6.122.223.287.432.494.627s.466.36.773.494c.309.134.691.202 1.149.202s.859-.075 1.204-.225c.345-.149.632-.343.86-.581.229-.238.401-.504.518-.797.115-.293.174-.583.174-.87 0-.354-.048-.678-.142-.971-.095-.293-.266-.546-.513-.76-.248-.213-.59-.381-1.025-.503-.437-.122-.997-.183-1.681-.183v-1.19c.556 0 1.03-.058 1.424-.174.394-.116.716-.275.966-.476.25-.202.432-.443.545-.724s.169-.592.169-.934c0-.378-.059-.708-.178-.989s-.283-.513-.49-.696c-.208-.183-.453-.32-.737-.412-.283-.092-.59-.138-.92-.138-.329 0-.635.049-.915.146-.281.098-.53.233-.747.407s-.397.381-.544.622c-.146.241-.257.501-.33.782-.049.177-.122.305-.22.384-.098.079-.223.119-.375.119l-.097-.004-.114-.014-.852-.144c.086-.598.25-1.127.494-1.588s.555-.847.93-1.158c.375-.312.806-.548 1.291-.71.486-.158 1.009-.239 1.571-.239zM439.574 200.389c.555 0 1.074.083 1.557.248.481.165.898.404 1.249.719.352.314.628.697.829 1.149s.302.964.302 1.538c0 .488-.073.94-.22 1.355-.146.416-.345.813-.595 1.195-.251.382-.539.751-.865 1.108-.327.357-.673.722-1.039 1.094l-3.452 3.534c.244-.067.491-.121.741-.16.251-.04.492-.06.724-.06h4.395c.178 0 .317.052.422.156.104.104.155.238.155.403v.989h-8.753v-.559c0-.116.022-.235.068-.357s.121-.235.225-.339l4.202-4.221c.349-.354.666-.694.952-1.021.287-.327.533-.655.737-.984.205-.33.362-.664.472-1.002.11-.339.165-.7.165-1.085s-.062-.722-.184-1.012-.29-.529-.503-.719c-.214-.189-.464-.331-.751-.426s-.596-.142-.925-.142c-.33 0-.635.049-.916.146-.28.098-.529.234-.746.408s-.399.38-.549.618c-.149.238-.255.5-.316.787-.049.177-.122.305-.22.385-.098.079-.226.119-.384.119l-.097-.004-.114-.014-.852-.146c.085-.598.25-1.127.494-1.588s.554-.847.93-1.158c.375-.312.806-.548 1.291-.71.486-.163 1.01-.244 1.571-.244zM451.165 203.703c0 .513-.079.972-.237 1.378-.159.406-.371.748-.637 1.026s-.575.49-.929.636c-.354.146-.724.22-1.108.22-.415 0-.798-.073-1.149-.22-.351-.146-.657-.358-.92-.636s-.467-.62-.613-1.026c-.146-.406-.22-.865-.22-1.378 0-.525.073-.992.22-1.401.146-.409.351-.753.613-1.034s.569-.495.92-.641c.352-.146.734-.22 1.149-.22.409 0 .792.073 1.149.22.356.146.665.36.925.641.259.281.464.625.613 1.034.15.409.224.876.224 1.401zm4.588-2.838c.079-.104.163-.185.251-.243.089-.058.206-.087.353-.087h1.172l-9.586 12.855c-.061.08-.134.144-.22.192-.085.049-.186.073-.302.073h-1.209l9.541-12.79zm-5.86 2.838c0-.403-.043-.745-.128-1.025-.086-.281-.203-.511-.353-.691-.149-.18-.323-.31-.521-.389-.199-.08-.411-.119-.637-.119s-.438.04-.637.119c-.198.079-.37.209-.517.389-.146.18-.261.41-.344.691-.082.281-.123.623-.123 1.025 0 .397.041.734.123 1.012.083.278.197.504.344.678s.318.299.517.375c.199.076.411.114.637.114s.438-.038.637-.114c.198-.076.372-.202.521-.375s.267-.4.353-.678c.085-.277.128-.615.128-1.012zm8.524 6.858c0 .513-.079.971-.238 1.374-.158.403-.371.743-.636 1.021-.266.278-.574.49-.925.636-.352.146-.719.22-1.104.22-.415 0-.798-.073-1.149-.22-.351-.146-.657-.358-.92-.636s-.467-.618-.613-1.021-.22-.861-.22-1.374c0-.525.073-.993.22-1.405s.351-.758.613-1.039.569-.495.92-.641c.352-.146.734-.22 1.149-.22.409 0 .79.073 1.145.22.354.146.662.36.925.641.262.281.467.627.613 1.039s.22.88.22 1.405zm-1.264 0c0-.403-.043-.746-.128-1.03-.086-.284-.203-.514-.353-.691s-.323-.305-.522-.385c-.198-.079-.41-.119-.636-.119s-.438.04-.637.119c-.198.08-.37.208-.517.385s-.262.407-.344.691c-.082.284-.124.627-.124 1.03 0 .397.042.732.124 1.007.082.274.197.499.344.673s.318.299.517.375.411.114.637.114.438-.038.636-.114c.199-.076.373-.202.522-.375s.267-.398.353-.673c.085-.275.128-.61.128-1.007z"/></g><path fill-rule="evenodd" clip-rule="evenodd" fill="#ED1C24" d="M162.149 106.21c-3.859 8.428-5.617 16.705-5.02 25.496.122 1.785-.929 3.677-1.546 5.482-2.873 8.446.635 17.814 8.37 22.228 7.765 4.431 17.668 2.714 23.409-4.05 5.799-6.845 5.938-17.02.319-23.725-5.267-6.29-5.333-8.664-.12-16.284 4.834 1.787 9.929 3.368 14.754 5.541 4.8 2.163 7.004 6.926 5.665 12.167-5.141 20.1-10.234 40.219-15.979 60.154-.91 3.162-4.583 6.247-7.742 7.938-32.883 17.56-65.919 34.829-98.911 52.176-5.454 2.867-10.867 5.812-16.373 8.57-6.778 3.399-12.39 1.666-15.903-5-13.93-26.378-27.812-52.78-41.642-79.211-3.428-6.555-1.523-12.39 5.106-15.872 29.274-15.378 58.592-30.677 87.874-46.042 9.458-4.964 18.898-9.946 28.254-15.1 4.009-2.205 7.854-2.462 12.095-.791 5.558 2.197 11.237 4.103 17.39 6.323zm-97.795 142.876c33.741-17.742 67.032-35.247 100.426-52.805-13.484-25.643-26.697-50.775-39.952-75.981-33.639 17.688-66.946 35.201-100.426 52.804 13.373 25.436 26.549 50.493 39.952 75.982zM244.456 102.071c-16.338-22.58-49.898-23.094-68.089-1.041-10.606 12.87-12.906 30.818-5.646 44.095 2.217 4.057 5.773 5.622 9.142 3.71 3.652-2.075 4.534-5.223 2.806-9.116-.724-1.619-1.354-3.303-1.835-5.012-3.902-13.827 4.465-29.078 18.94-34.599 13.972-5.33 29.608.356 35.778 13.013 6.722 13.781-.225 30.812-15.363 38.047-.639.304-1.317.687-1.951 1.131.565 1.125.868 2.368.721 3.673-.06.526-.103 1.056-.119 1.586.115.51.202 1.029.218 1.564.072 2.384-.88 4.325-2.373 6.102-.716.852-1.707 1.442-2.608 2.088l-.373.231.131.19c5.702-2.431 11.773-4.254 17.047-7.4 20.558-12.262 26.832-39.937 13.574-58.262z"/><path fill-rule="evenodd" clip-rule="evenodd" fill="#fff" d="M64.852 249.228c-13.402-25.489-26.578-50.546-39.953-75.982 34.173-17.966 68.171-35.842 102.504-53.896 13.256 25.207 26.47 50.34 39.954 75.982-34.086 17.921-68.066 35.786-102.505 53.896z"/><g fill="#ED1C24"><path d="M68.459 184.485l-10.537 5.54 2.669 7.654c.593-.42 1.143-.818 2.162-1.354 2.125-1.117 4.495-1.767 6.731-1.641 2.814.093 5.85 1.533 7.682 5.018 2.838 5.396.669 11.689-5.322 14.84-3.017 1.586-6.013 2.077-7.777 1.919l-.562-3.337c1.505.076 4.203-.259 6.71-1.576 3.527-1.854 5.337-5.735 3.394-9.431-1.919-3.549-5.639-4.846-11.163-1.941-1.572.826-2.715 1.645-3.667 2.309l-5.187-14.195 13.214-6.948 1.653 3.143zM82.611 199.334c-1.832-3.483-1.045-7.043 1.594-10.274l-.109-.104c-3.819.163-6.387-1.524-7.638-3.902-2.302-4.377-.168-9.294 4.675-11.841 5.354-2.815 9.795-.866 11.605 2.575 1.229 2.337 1.4 5.446-1.151 8.849l.067.128c4.156-.45 7.554.854 9.319 4.211 2.524 4.802.102 10.197-5.167 12.968-5.778 3.036-11.072 1.427-13.195-2.61zm-2.761-16.391c1.452 2.761 4.316 3.153 7.95 2.328 1.955-2.059 2.888-4.72 1.57-7.227-1.162-2.209-3.686-3.81-7.042-2.045-3.101 1.632-3.729 4.564-2.478 6.944zm17.544 8.403c-1.765-3.357-4.951-3.743-9.249-2.84-2.737 2.634-3.362 5.674-1.978 8.308 1.348 2.872 4.768 4.22 8.294 2.365 3.357-1.766 4.429-4.987 2.933-7.833zM110.449 168.317c3.061 5.82 1.521 10.318-2.048 12.195-3.442 1.81-7.868.611-10.837-4.933-2.904-5.522-1.518-10.21 2.136-12.131 3.866-2.032 7.979-.399 10.749 4.869zm-9.978 5.573c1.77 3.571 4.495 5.556 6.832 4.327 2.464-1.296 2.184-4.512.262-8.166-1.765-3.356-4.217-5.646-6.809-4.284-2.337 1.228-2.117 4.638-.285 8.123zm13.775 18.356l1.217-37.086 2.38-1.251-1.218 37.086-2.379 1.251zm20.186-21.949c3.061 5.82 1.521 10.318-2.006 12.173-3.441 1.81-7.868.611-10.814-4.89-2.927-5.566-1.541-10.254 2.113-12.175 3.866-2.033 7.937-.377 10.707 4.892zm-9.978 5.572c1.812 3.549 4.58 5.511 6.874 4.304 2.464-1.296 2.184-4.511.263-8.164-1.766-3.357-4.217-5.647-6.809-4.285-2.338 1.228-2.16 4.661-.328 8.145z"/></g><path stroke="#52B9CF" stroke-width="1.249" stroke-miterlimit="10" d="M216.88 146.193c4.879 16.554 2.351 16.598-6.991 25.298" fill="none"/></svg>