<svg xmlns="http://www.w3.org/2000/svg" width="858" height="519" viewBox="0 0 858 519"><g fill="#fff"><path d="M49.458 485.288h6.2v1.63h-8.14v-14.33h1.94v12.7zM61.258 476.628c.74 0 1.408.123 2.005.37s1.103.597 1.52 1.05c.417.453.736 1.002.96 1.646.223.643.335 1.361.335 2.154 0 .801-.112 1.521-.335 2.16-.224.641-.543 1.187-.96 1.641-.417.453-.923.801-1.52 1.045-.597.243-1.265.364-2.005.364s-1.409-.121-2.005-.364c-.597-.244-1.105-.592-1.525-1.045-.42-.454-.743-1-.97-1.641-.227-.64-.34-1.359-.34-2.16 0-.793.113-1.512.34-2.154.227-.644.55-1.192.97-1.646.42-.453.928-.803 1.525-1.05.596-.247 1.265-.37 2.005-.37zm0 9.04c1 0 1.747-.335 2.24-1.005s.74-1.605.74-2.805c0-1.207-.247-2.147-.74-2.82-.493-.674-1.24-1.01-2.24-1.01-.507 0-.947.086-1.32.26-.373.173-.685.423-.935.75-.25.326-.437.729-.56 1.205-.124.477-.185 1.015-.185 1.615 0 .6.062 1.137.185 1.609.123.474.31.872.56 1.195s.562.571.935.745c.373.174.813.261 1.32.261zM75.188 478.588l-.16.17c-.054.04-.13.061-.23.061s-.208-.042-.325-.125c-.117-.084-.265-.176-.445-.275s-.398-.191-.655-.275c-.257-.083-.572-.125-.945-.125-.493 0-.93.089-1.31.266-.38.177-.698.432-.955.765-.256.334-.45.737-.58 1.21-.13.474-.195 1.004-.195 1.59 0 .613.07 1.159.21 1.636.14.477.337.876.59 1.199.253.324.562.57.925.74s.771.255 1.225.255c.433 0 .79-.052 1.07-.154.28-.104.513-.219.7-.346.187-.126.34-.241.46-.345s.24-.155.36-.155c.153 0 .267.057.34.17l.5.65c-.44.54-.99.935-1.65 1.185-.66.25-1.356.375-2.09.375-.633 0-1.222-.116-1.765-.35s-1.015-.571-1.415-1.015c-.4-.443-.715-.988-.945-1.636-.23-.646-.345-1.383-.345-2.21 0-.753.105-1.449.315-2.09.21-.64.517-1.191.92-1.655.403-.463.901-.824 1.495-1.085.594-.26 1.273-.39 2.04-.39.707 0 1.333.115 1.88.345.546.23 1.03.556 1.45.976l-.47.638zM85.057 486.918h-.79c-.173 0-.313-.026-.42-.08-.107-.053-.177-.166-.21-.34l-.2-.94c-.267.24-.526.455-.78.646-.253.189-.52.35-.8.479-.28.13-.578.229-.895.295-.317.067-.668.101-1.055.101-.394 0-.762-.056-1.105-.166s-.642-.275-.895-.496-.455-.5-.605-.838-.225-.738-.225-1.199c0-.401.11-.788.33-1.159s.575-.7 1.065-.988c.49-.288 1.131-.523 1.925-.708.793-.184 1.764-.275 2.91-.275v-.795c0-.792-.168-1.391-.505-1.796-.337-.406-.835-.609-1.495-.609-.434 0-.798.055-1.095.165-.297.11-.554.233-.77.37l-.56.37c-.157.109-.312.165-.465.165-.12 0-.225-.032-.315-.095s-.162-.142-.215-.235l-.32-.57c.56-.54 1.163-.943 1.81-1.21s1.363-.399 2.15-.399c.566 0 1.07.093 1.51.279s.81.447 1.11.78c.3.333.527.736.68 1.21s.23.993.23 1.56v6.478zm-4.62-1.09c.313 0 .6-.031.86-.095.26-.063.505-.153.735-.271.23-.116.45-.258.66-.425.21-.167.415-.356.615-.57v-2.09c-.82 0-1.517.052-2.09.156-.574.104-1.04.239-1.4.407-.36.168-.622.365-.785.594-.164.228-.245.482-.245.764 0 .269.043.5.13.694.087.194.204.354.35.478s.32.215.52.271c.2.059.417.087.65.087zM89.737 472.188v14.73h-1.78v-14.73h1.78zM23.328 509.508c.387 0 .742-.019 1.065-.055.323-.037.628-.092.915-.165s.557-.162.81-.265c.253-.104.506-.222.76-.355v-3.16h-2.22c-.127 0-.229-.036-.305-.109-.077-.074-.115-.164-.115-.271v-1.1h4.4v5.5c-.36.26-.735.486-1.125.68s-.807.354-1.25.485c-.443.13-.918.227-1.425.29-.507.062-1.057.095-1.65.095-1.04 0-1.993-.179-2.86-.535s-1.613-.856-2.24-1.5c-.627-.644-1.115-1.415-1.465-2.315-.35-.899-.525-1.89-.525-2.97 0-1.093.172-2.09.515-2.99.343-.899.833-1.671 1.47-2.314s1.407-1.142 2.31-1.495 1.915-.53 3.035-.53c.566 0 1.093.042 1.58.125.486.084.938.204 1.355.36.417.156.801.347 1.155.57.354.223.683.475.99.755l-.55.88c-.113.18-.26.27-.44.27-.106 0-.223-.036-.35-.109-.167-.094-.354-.207-.56-.341-.207-.133-.458-.261-.755-.385-.296-.123-.646-.229-1.05-.314-.403-.087-.882-.13-1.435-.13-.807 0-1.537.131-2.19.395s-1.21.64-1.67 1.13-.813 1.084-1.06 1.78-.37 1.479-.37 2.345c0 .907.128 1.715.385 2.425.256.71.618 1.312 1.085 1.806.466.493 1.02.87 1.66 1.13.64.257 1.347.387 2.12.387zM35.438 500.628c.74 0 1.408.123 2.005.37s1.103.597 1.52 1.05c.417.453.736 1.002.96 1.646.223.643.335 1.361.335 2.154 0 .801-.112 1.521-.335 2.16-.224.641-.543 1.187-.96 1.641-.417.453-.923.801-1.52 1.045-.597.243-1.265.364-2.005.364s-1.409-.121-2.005-.364c-.597-.244-1.105-.592-1.525-1.045-.42-.454-.743-1-.97-1.641-.227-.64-.34-1.359-.34-2.16 0-.793.113-1.512.34-2.154.227-.644.55-1.192.97-1.646.42-.453.928-.803 1.525-1.05.596-.247 1.265-.37 2.005-.37zm0 9.04c1 0 1.747-.335 2.24-1.005s.74-1.605.74-2.805c0-1.207-.247-2.147-.74-2.82-.493-.674-1.24-1.01-2.24-1.01-.507 0-.947.086-1.32.26-.373.173-.685.423-.935.75-.25.326-.437.729-.56 1.205-.124.477-.185 1.015-.185 1.615 0 .6.062 1.137.185 1.609.123.474.31.872.56 1.195s.562.571.935.745c.373.174.813.261 1.32.261zM40.918 500.788h1.46c.14 0 .256.036.35.11.094.073.16.159.2.26l2.57 6.52c.093.24.167.48.22.721l.15.71.17-.71c.06-.24.137-.48.23-.721l2.6-6.52c.04-.106.105-.195.195-.266.09-.069.202-.104.335-.104h1.39l-4.13 10.13h-1.61l-4.13-10.13zM56.188 500.628c.607 0 1.167.102 1.68.305.513.204.957.497 1.33.88.373.384.665.857.875 1.421s.315 1.204.315 1.925c0 .279-.03.467-.09.56-.06.094-.174.141-.34.141h-6.74c.013.64.1 1.196.26 1.67.16.473.38.868.66 1.185.28.316.613.554 1 .71.387.157.82.235 1.3.235.447 0 .832-.052 1.155-.155.323-.104.602-.215.835-.335s.428-.231.585-.335.292-.155.405-.155c.147 0 .26.057.34.17l.5.65c-.22.267-.483.498-.79.695-.307.196-.635.358-.985.484-.35.127-.712.222-1.085.285-.374.063-.744.095-1.11.095-.7 0-1.345-.118-1.935-.354-.59-.236-1.1-.583-1.53-1.04s-.765-1.021-1.005-1.695c-.24-.673-.36-1.446-.36-2.319 0-.707.108-1.367.325-1.98s.528-1.145.935-1.595.903-.804 1.49-1.061c.587-.258 1.247-.387 1.98-.387zm.04 1.31c-.86 0-1.537.249-2.03.745-.494.497-.8 1.186-.92 2.065h5.51c0-.413-.057-.792-.17-1.135-.113-.344-.28-.641-.5-.891s-.488-.443-.805-.58c-.316-.135-.678-.204-1.085-.204zM62.658 510.918v-10.13h1.02c.193 0 .327.036.4.11.073.073.124.199.15.38l.12 1.58c.347-.707.775-1.259 1.285-1.655.51-.396 1.108-.595 1.795-.595.28 0 .533.031.76.095s.437.151.63.265l-.23 1.33c-.047.167-.15.25-.31.25-.094 0-.237-.031-.43-.095s-.463-.095-.81-.095c-.62 0-1.138.18-1.555.54-.417.359-.765.883-1.045 1.569v6.45h-1.78zM70.718 510.918v-10.13h1.06c.253 0 .413.123.48.37l.14 1.1c.44-.486.931-.88 1.475-1.18s1.172-.45 1.885-.45c.553 0 1.042.092 1.465.275.423.183.777.443 1.06.779.283.337.498.742.645 1.216.146.473.22.996.22 1.569v6.45h-1.78v-6.45c0-.767-.175-1.361-.525-1.785-.35-.423-.885-.635-1.605-.635-.527 0-1.019.127-1.475.38-.457.254-.878.597-1.265 1.03v7.46h-1.78zM81.837 510.918v-10.13h1.06c.253 0 .413.123.48.37l.13 1.04c.374-.46.792-.837 1.255-1.13.463-.294 1.002-.44 1.615-.44.687 0 1.242.19 1.665.57s.728.894.915 1.54c.14-.367.325-.684.555-.95s.488-.486.775-.66c.287-.173.592-.3.915-.38s.652-.12.985-.12c.533 0 1.008.085 1.425.255s.77.419 1.06.745c.29.327.512.729.665 1.205s.23 1.021.23 1.635v6.45h-1.78v-6.45c0-.793-.173-1.395-.52-1.805s-.85-.615-1.51-.615c-.293 0-.572.052-.835.155-.264.104-.495.255-.695.455-.2.2-.358.451-.475.755s-.175.655-.175 1.055v6.45h-1.78v-6.45c0-.813-.164-1.42-.49-1.819-.327-.4-.803-.601-1.43-.601-.44 0-.849.118-1.225.355-.376.236-.722.558-1.035.965v7.55h-1.78zM102.267 500.628c.607 0 1.167.102 1.68.305.513.204.957.497 1.33.88.373.384.665.857.875 1.421s.315 1.204.315 1.925c0 .279-.03.467-.09.56-.06.094-.174.141-.34.141h-6.74c.013.64.1 1.196.26 1.67.16.473.38.868.66 1.185.28.316.613.554 1 .71.387.157.82.235 1.3.235.447 0 .832-.052 1.155-.155.323-.104.602-.215.835-.335s.428-.231.585-.335.292-.155.405-.155c.147 0 .26.057.34.17l.5.65c-.22.267-.483.498-.79.695-.307.196-.635.358-.985.484-.35.127-.712.222-1.085.285-.374.063-.744.095-1.11.095-.7 0-1.345-.118-1.935-.354-.59-.236-1.1-.583-1.53-1.04s-.765-1.021-1.005-1.695c-.24-.673-.36-1.446-.36-2.319 0-.707.108-1.367.325-1.98s.528-1.145.935-1.595.903-.804 1.49-1.061c.587-.258 1.247-.387 1.98-.387zm.04 1.31c-.86 0-1.537.249-2.03.745-.494.497-.8 1.186-.92 2.065h5.51c0-.413-.057-.792-.17-1.135-.113-.344-.28-.641-.5-.891s-.488-.443-.805-.58c-.316-.135-.678-.204-1.085-.204zM108.737 510.918v-10.13h1.06c.253 0 .413.123.48.37l.14 1.1c.44-.486.931-.88 1.475-1.18s1.172-.45 1.885-.45c.553 0 1.042.092 1.465.275.423.183.777.443 1.06.779.283.337.498.742.645 1.216.146.473.22.996.22 1.569v6.45h-1.78v-6.45c0-.767-.175-1.361-.525-1.785-.35-.423-.885-.635-1.605-.635-.527 0-1.019.127-1.475.38-.457.254-.878.597-1.265 1.03v7.46h-1.78zM122.927 511.078c-.8 0-1.415-.224-1.845-.67-.43-.447-.645-1.09-.645-1.931v-6.199h-1.22c-.106 0-.197-.032-.27-.096-.073-.062-.11-.161-.11-.295v-.71l1.66-.21.41-3.13c.014-.1.057-.182.13-.245.073-.063.167-.095.28-.095h.9v3.49h2.9v1.29h-2.9v6.08c0 .427.104.743.31.949.207.207.473.311.8.311.187 0 .348-.025.485-.075.136-.05.255-.105.355-.165l.255-.165.185-.075c.093 0 .177.057.25.17l.52.851c-.307.286-.677.512-1.11.675-.434.163-.88.245-1.34.245z"/></g><g fill="#fff"><path d="M198.375 481.558v5.36h-1.93v-14.33h4.23c.907 0 1.695.105 2.365.315.67.21 1.225.508 1.665.895.44.387.769.854.985 1.4.216.547.325 1.156.325 1.83 0 .666-.117 1.276-.35 1.83-.233.553-.575 1.029-1.025 1.43-.45.399-1.008.712-1.675.935-.667.224-1.43.335-2.29.335h-2.3zm0-1.54h2.3c.553 0 1.042-.073 1.465-.22s.778-.352 1.065-.615c.287-.263.503-.578.65-.944.146-.367.22-.771.22-1.21 0-.914-.282-1.627-.845-2.141-.563-.513-1.415-.77-2.555-.77h-2.3v5.9zM208.184 486.918v-10.13h1.02c.193 0 .327.036.4.11.073.073.124.199.15.38l.12 1.58c.347-.707.775-1.259 1.285-1.655.51-.396 1.108-.595 1.795-.595.28 0 .533.031.76.095s.437.151.63.265l-.23 1.33c-.047.167-.15.25-.31.25-.094 0-.237-.031-.43-.095s-.463-.095-.81-.095c-.62 0-1.138.18-1.555.54-.417.359-.765.883-1.045 1.569v6.45h-1.78zM220.344 476.628c.74 0 1.408.123 2.005.37s1.103.597 1.52 1.05c.417.453.736 1.002.96 1.646.223.643.335 1.361.335 2.154 0 .801-.112 1.521-.335 2.16-.224.641-.543 1.187-.96 1.641-.417.453-.923.801-1.52 1.045-.597.243-1.265.364-2.005.364s-1.409-.121-2.005-.364c-.597-.244-1.105-.592-1.525-1.045-.42-.454-.743-1-.97-1.641-.227-.64-.34-1.359-.34-2.16 0-.793.113-1.512.34-2.154.227-.644.55-1.192.97-1.646.42-.453.928-.803 1.525-1.05.597-.247 1.265-.37 2.005-.37zm0 9.04c1 0 1.747-.335 2.24-1.005s.74-1.605.74-2.805c0-1.207-.247-2.147-.74-2.82-.493-.674-1.24-1.01-2.24-1.01-.507 0-.947.086-1.32.26-.373.173-.685.423-.935.75-.25.326-.437.729-.56 1.205-.124.477-.185 1.015-.185 1.615 0 .6.062 1.137.185 1.609.123.474.31.872.56 1.195s.562.571.935.745c.373.174.813.261 1.32.261zM225.824 476.788h1.46c.14 0 .256.036.35.11.094.073.16.159.2.26l2.57 6.52c.093.24.167.48.22.721l.15.71.17-.71c.06-.24.137-.48.23-.721l2.6-6.52c.04-.106.105-.195.195-.266.09-.069.202-.104.335-.104h1.39l-4.13 10.13h-1.61l-4.13-10.13zM239.724 473.608c0 .173-.035.335-.105.484-.07.15-.164.283-.28.4-.117.116-.252.208-.405.274-.153.067-.316.101-.49.101s-.335-.033-.485-.101c-.15-.066-.284-.158-.4-.274-.117-.117-.208-.25-.275-.4-.066-.149-.1-.312-.1-.484 0-.174.034-.339.1-.495.066-.157.158-.294.275-.41.117-.117.25-.208.4-.275.15-.066.312-.1.485-.1s.336.033.49.1c.153.067.289.158.405.275.116.116.21.253.28.41.07.157.105.322.105.495zm-.4 3.18v10.13h-1.78v-10.13h1.78zM242.464 486.918v-10.13h1.06c.253 0 .413.123.48.37l.14 1.1c.44-.486.931-.88 1.475-1.18s1.172-.45 1.885-.45c.553 0 1.042.092 1.465.275.423.183.777.443 1.06.779.283.337.498.742.645 1.216.146.473.22.996.22 1.569v6.45h-1.78v-6.45c0-.767-.175-1.361-.525-1.785-.35-.423-.885-.635-1.605-.635-.527 0-1.019.127-1.475.38-.457.254-.878.597-1.265 1.03v7.46h-1.78zM260.494 478.588l-.16.17c-.054.04-.13.061-.23.061s-.208-.042-.325-.125c-.117-.084-.265-.176-.445-.275s-.398-.191-.655-.275c-.257-.083-.572-.125-.945-.125-.493 0-.93.089-1.31.266-.38.177-.698.432-.955.765-.256.334-.45.737-.58 1.21-.13.474-.195 1.004-.195 1.59 0 .613.07 1.159.21 1.636.14.477.337.876.59 1.199.253.324.562.57.925.74s.771.255 1.225.255c.433 0 .79-.052 1.07-.154.28-.104.513-.219.7-.346.187-.126.34-.241.46-.345s.24-.155.36-.155c.153 0 .267.057.34.17l.5.65c-.44.54-.99.935-1.65 1.185-.66.25-1.356.375-2.09.375-.633 0-1.222-.116-1.765-.35s-1.015-.571-1.415-1.015c-.4-.443-.715-.988-.945-1.636-.23-.646-.345-1.383-.345-2.21 0-.753.105-1.449.315-2.09.21-.64.517-1.191.92-1.655.403-.463.901-.824 1.495-1.085.594-.26 1.273-.39 2.04-.39.707 0 1.333.115 1.88.345.546.23 1.03.556 1.45.976l-.47.638zM265.303 473.608c0 .173-.035.335-.105.484-.07.15-.164.283-.28.4-.117.116-.252.208-.405.274-.153.067-.316.101-.49.101s-.335-.033-.485-.101c-.15-.066-.284-.158-.4-.274-.117-.117-.208-.25-.275-.4-.066-.149-.1-.312-.1-.484 0-.174.034-.339.1-.495.066-.157.158-.294.275-.41.117-.117.25-.208.4-.275.15-.066.312-.1.485-.1s.336.033.49.1c.153.067.289.158.405.275.116.116.21.253.28.41.071.157.105.322.105.495zm-.4 3.18v10.13h-1.78v-10.13h1.78zM275.483 486.918h-.79c-.173 0-.313-.026-.42-.08-.107-.053-.177-.166-.21-.34l-.2-.94c-.267.24-.526.455-.78.646-.253.189-.52.35-.8.479-.28.13-.578.229-.895.295-.317.067-.668.101-1.055.101-.394 0-.762-.056-1.105-.166s-.642-.275-.895-.496-.455-.5-.605-.838-.225-.738-.225-1.199c0-.401.11-.788.33-1.159s.575-.7 1.065-.988c.49-.288 1.131-.523 1.925-.708.793-.184 1.764-.275 2.91-.275v-.795c0-.792-.168-1.391-.505-1.796-.337-.406-.835-.609-1.495-.609-.434 0-.798.055-1.095.165-.297.11-.554.233-.77.37l-.56.37c-.157.109-.312.165-.465.165-.12 0-.225-.032-.315-.095s-.162-.142-.215-.235l-.32-.57c.56-.54 1.163-.943 1.81-1.21s1.363-.399 2.15-.399c.566 0 1.07.093 1.51.279s.81.447 1.11.78c.3.333.527.736.68 1.21s.23.993.23 1.56v6.478zm-4.62-1.09c.313 0 .6-.031.86-.095.26-.063.505-.153.735-.271.23-.116.45-.258.66-.425.21-.167.415-.356.615-.57v-2.09c-.82 0-1.517.052-2.09.156-.574.104-1.04.239-1.4.407-.36.168-.622.365-.785.594-.164.228-.245.482-.245.764 0 .269.043.5.13.694.087.194.204.354.35.478s.32.215.52.271c.201.059.417.087.65.087zM280.163 472.188v14.73h-1.78v-14.73h1.78zM192.904 509.508c.387 0 .742-.019 1.065-.055.323-.037.628-.092.915-.165s.557-.162.81-.265c.253-.104.506-.222.76-.355v-3.16h-2.22c-.127 0-.229-.036-.305-.109-.077-.074-.115-.164-.115-.271v-1.1h4.4v5.5c-.36.26-.735.486-1.125.68s-.807.354-1.25.485c-.443.13-.918.227-1.425.29-.507.062-1.057.095-1.65.095-1.04 0-1.993-.179-2.86-.535s-1.613-.856-2.24-1.5c-.627-.644-1.115-1.415-1.465-2.315-.35-.899-.525-1.89-.525-2.97 0-1.093.172-2.09.515-2.99.343-.899.833-1.671 1.47-2.314s1.407-1.142 2.31-1.495 1.915-.53 3.035-.53c.566 0 1.093.042 1.58.125.486.084.938.204 1.355.36.417.156.801.347 1.155.57.354.223.683.475.99.755l-.55.88c-.113.18-.26.27-.44.27-.106 0-.223-.036-.35-.109-.167-.094-.354-.207-.56-.341-.207-.133-.458-.261-.755-.385-.296-.123-.646-.229-1.05-.314-.403-.087-.882-.13-1.435-.13-.807 0-1.537.131-2.19.395s-1.21.64-1.67 1.13-.813 1.084-1.06 1.78-.37 1.479-.37 2.345c0 .907.128 1.715.385 2.425.256.71.618 1.312 1.085 1.806.466.493 1.02.87 1.66 1.13.64.257 1.347.387 2.12.387zM205.014 500.628c.74 0 1.408.123 2.005.37s1.103.597 1.52 1.05c.417.453.736 1.002.96 1.646.223.643.335 1.361.335 2.154 0 .801-.112 1.521-.335 2.16-.224.641-.543 1.187-.96 1.641-.417.453-.923.801-1.52 1.045-.597.243-1.265.364-2.005.364s-1.409-.121-2.005-.364c-.597-.244-1.105-.592-1.525-1.045-.42-.454-.743-1-.97-1.641-.227-.64-.34-1.359-.34-2.16 0-.793.113-1.512.34-2.154.227-.644.55-1.192.97-1.646.42-.453.928-.803 1.525-1.05.596-.247 1.265-.37 2.005-.37zm0 9.04c1 0 1.747-.335 2.24-1.005s.74-1.605.74-2.805c0-1.207-.247-2.147-.74-2.82-.493-.674-1.24-1.01-2.24-1.01-.507 0-.947.086-1.32.26-.373.173-.685.423-.935.75-.25.326-.437.729-.56 1.205-.124.477-.185 1.015-.185 1.615 0 .6.062 1.137.185 1.609.123.474.31.872.56 1.195s.562.571.935.745c.373.174.813.261 1.32.261zM210.495 500.788h1.46c.14 0 .256.036.35.11.094.073.16.159.2.26l2.57 6.52c.093.24.167.48.22.721l.15.71.17-.71c.06-.24.137-.48.23-.721l2.6-6.52c.04-.106.105-.195.195-.266.09-.069.202-.104.335-.104h1.39l-4.13 10.13h-1.61l-4.13-10.13zM225.764 500.628c.607 0 1.167.102 1.68.305.513.204.957.497 1.33.88.373.384.665.857.875 1.421s.315 1.204.315 1.925c0 .279-.03.467-.09.56-.06.094-.174.141-.34.141h-6.74c.013.64.1 1.196.26 1.67.16.473.38.868.66 1.185.28.316.613.554 1 .71.387.157.82.235 1.3.235.447 0 .832-.052 1.155-.155.323-.104.602-.215.835-.335s.428-.231.585-.335.292-.155.405-.155c.147 0 .26.057.34.17l.5.65c-.22.267-.483.498-.79.695-.307.196-.635.358-.985.484-.35.127-.712.222-1.085.285-.374.063-.744.095-1.11.095-.7 0-1.345-.118-1.935-.354-.59-.236-1.1-.583-1.53-1.04s-.765-1.021-1.005-1.695c-.24-.673-.36-1.446-.36-2.319 0-.707.108-1.367.325-1.98s.528-1.145.935-1.595.903-.804 1.49-1.061c.587-.258 1.247-.387 1.98-.387zm.04 1.31c-.86 0-1.537.249-2.03.745-.494.497-.8 1.186-.92 2.065h5.51c0-.413-.057-.792-.17-1.135-.113-.344-.28-.641-.5-.891s-.488-.443-.805-.58c-.316-.135-.678-.204-1.085-.204zM232.234 510.918v-10.13h1.02c.193 0 .327.036.4.11.073.073.124.199.15.38l.12 1.58c.347-.707.775-1.259 1.285-1.655.51-.396 1.108-.595 1.795-.595.28 0 .533.031.76.095s.437.151.63.265l-.23 1.33c-.047.167-.15.25-.31.25-.094 0-.237-.031-.43-.095s-.463-.095-.81-.095c-.62 0-1.138.18-1.555.54-.417.359-.765.883-1.045 1.569v6.45h-1.78zM240.294 510.918v-10.13h1.06c.253 0 .413.123.48.37l.14 1.1c.44-.486.931-.88 1.475-1.18s1.172-.45 1.885-.45c.553 0 1.042.092 1.465.275.423.183.777.443 1.06.779.283.337.498.742.645 1.216.146.473.22.996.22 1.569v6.45h-1.78v-6.45c0-.767-.175-1.361-.525-1.785-.35-.423-.885-.635-1.605-.635-.527 0-1.019.127-1.475.38-.457.254-.878.597-1.265 1.03v7.46h-1.78zM251.414 510.918v-10.13h1.06c.253 0 .413.123.48.37l.13 1.04c.374-.46.792-.837 1.255-1.13.463-.294 1.002-.44 1.615-.44.687 0 1.242.19 1.665.57s.728.894.915 1.54c.14-.367.325-.684.555-.95s.488-.486.775-.66c.287-.173.592-.3.915-.38s.652-.12.985-.12c.533 0 1.008.085 1.425.255s.77.419 1.06.745c.29.327.512.729.665 1.205s.23 1.021.23 1.635v6.45h-1.78v-6.45c0-.793-.173-1.395-.52-1.805s-.85-.615-1.51-.615c-.293 0-.572.052-.835.155-.264.104-.495.255-.695.455-.2.2-.358.451-.475.755s-.175.655-.175 1.055v6.45h-1.78v-6.45c0-.813-.164-1.42-.49-1.819-.327-.4-.803-.601-1.43-.601-.44 0-.849.118-1.225.355-.376.236-.722.558-1.035.965v7.55h-1.78zM271.843 500.628c.607 0 1.167.102 1.68.305.513.204.957.497 1.33.88.373.384.665.857.875 1.421s.315 1.204.315 1.925c0 .279-.03.467-.09.56-.06.094-.174.141-.34.141h-6.74c.013.64.1 1.196.26 1.67.16.473.38.868.66 1.185.28.316.613.554 1 .71.387.157.82.235 1.3.235.447 0 .832-.052 1.155-.155.323-.104.602-.215.835-.335s.428-.231.585-.335.292-.155.405-.155c.147 0 .26.057.34.17l.5.65c-.22.267-.483.498-.79.695-.307.196-.635.358-.985.484-.35.127-.712.222-1.085.285-.374.063-.744.095-1.11.095-.7 0-1.345-.118-1.935-.354-.59-.236-1.1-.583-1.53-1.04s-.765-1.021-1.005-1.695c-.24-.673-.36-1.446-.36-2.319 0-.707.108-1.367.325-1.98s.528-1.145.935-1.595.903-.804 1.49-1.061c.587-.258 1.247-.387 1.98-.387zm.04 1.31c-.86 0-1.537.249-2.03.745-.494.497-.8 1.186-.92 2.065h5.51c0-.413-.057-.792-.17-1.135-.113-.344-.28-.641-.5-.891s-.488-.443-.805-.58c-.316-.135-.678-.204-1.085-.204zM278.313 510.918v-10.13h1.06c.253 0 .413.123.48.37l.14 1.1c.44-.486.931-.88 1.475-1.18s1.172-.45 1.885-.45c.553 0 1.042.092 1.465.275.423.183.777.443 1.06.779.283.337.498.742.645 1.216.146.473.22.996.22 1.569v6.45h-1.78v-6.45c0-.767-.175-1.361-.525-1.785-.35-.423-.885-.635-1.605-.635-.527 0-1.019.127-1.475.38-.457.254-.878.597-1.265 1.03v7.46h-1.78zM292.503 511.078c-.8 0-1.415-.224-1.845-.67-.43-.447-.645-1.09-.645-1.931v-6.199h-1.22c-.106 0-.197-.032-.27-.096-.073-.062-.11-.161-.11-.295v-.71l1.66-.21.41-3.13c.014-.1.057-.182.13-.245.073-.063.167-.095.28-.095h.9v3.49h2.9v1.29h-2.9v6.08c0 .427.104.743.31.949.207.207.473.311.8.311.187 0 .348-.025.485-.075.136-.05.255-.105.355-.165l.255-.165.185-.075c.093 0 .177.057.25.17l.52.851c-.307.286-.677.512-1.11.675-.433.163-.88.245-1.34.245z"/></g><g fill="#fff"><path d="M371.811 472.653c.083.043.178.132.285.265l8.3 10.8-.04-.505-.01-.475v-10.15h1.7v14.33h-.98c-.153 0-.282-.026-.385-.08-.104-.053-.205-.144-.305-.27l-8.29-10.79.03.489.01.44v10.21h-1.7v-14.33h1c.173.001.301.022.385.066zM392.705 486.918h-.79c-.173 0-.313-.026-.42-.08-.107-.053-.177-.166-.21-.34l-.2-.94c-.267.24-.526.455-.78.646-.253.189-.52.35-.8.479-.28.13-.578.229-.895.295-.317.067-.668.101-1.055.101-.394 0-.762-.056-1.105-.166s-.642-.275-.895-.496-.455-.5-.605-.838-.225-.738-.225-1.199c0-.401.11-.788.33-1.159s.575-.7 1.065-.988c.49-.288 1.131-.523 1.925-.708.793-.184 1.764-.275 2.91-.275v-.795c0-.792-.168-1.391-.505-1.796-.337-.406-.835-.609-1.495-.609-.434 0-.798.055-1.095.165-.297.11-.554.233-.77.37l-.56.37c-.157.109-.312.165-.465.165-.12 0-.225-.032-.315-.095s-.162-.142-.215-.235l-.32-.57c.56-.54 1.163-.943 1.81-1.21s1.363-.399 2.15-.399c.566 0 1.07.093 1.51.279s.81.447 1.11.78c.3.333.527.736.68 1.21s.23.993.23 1.56v6.478zm-4.62-1.09c.313 0 .6-.031.86-.095.26-.063.505-.153.735-.271.23-.116.45-.258.66-.425.21-.167.415-.356.615-.57v-2.09c-.82 0-1.517.052-2.09.156-.574.104-1.04.239-1.4.407-.36.168-.622.365-.785.594-.164.228-.245.482-.245.764 0 .269.043.5.13.694.087.194.204.354.35.478s.32.215.52.271c.2.059.417.087.65.087zM398.475 487.078c-.8 0-1.415-.224-1.845-.67-.43-.447-.645-1.09-.645-1.931v-6.199h-1.22c-.106 0-.197-.032-.27-.096-.073-.062-.11-.161-.11-.295v-.71l1.66-.21.41-3.13c.014-.1.057-.182.13-.245.073-.063.167-.095.28-.095h.9v3.49h2.9v1.29h-2.9v6.08c0 .427.104.743.31.949.207.207.473.311.8.311.187 0 .348-.025.485-.075.136-.05.255-.105.355-.165l.255-.165.185-.075c.093 0 .177.057.25.17l.52.851c-.307.286-.677.512-1.11.675-.434.163-.88.245-1.34.245zM405.245 473.608c0 .173-.035.335-.105.484-.07.15-.164.283-.28.4-.117.116-.252.208-.405.274-.153.067-.316.101-.49.101s-.335-.033-.485-.101c-.15-.066-.284-.158-.4-.274-.117-.117-.208-.25-.275-.4-.066-.149-.1-.312-.1-.484 0-.174.034-.339.1-.495.066-.157.158-.294.275-.41.117-.117.25-.208.4-.275.15-.066.312-.1.485-.1s.336.033.49.1c.153.067.289.158.405.275.116.116.21.253.28.41.07.157.105.322.105.495zm-.4 3.18v10.13h-1.78v-10.13h1.78zM412.084 476.628c.74 0 1.408.123 2.005.37s1.103.597 1.52 1.05c.417.453.736 1.002.96 1.646.223.643.335 1.361.335 2.154 0 .801-.112 1.521-.335 2.16-.224.641-.543 1.187-.96 1.641-.417.453-.923.801-1.52 1.045-.597.243-1.265.364-2.005.364s-1.409-.121-2.005-.364c-.597-.244-1.105-.592-1.525-1.045-.42-.454-.743-1-.97-1.641-.227-.64-.34-1.359-.34-2.16 0-.793.113-1.512.34-2.154.227-.644.55-1.192.97-1.646.42-.453.928-.803 1.525-1.05.597-.247 1.265-.37 2.005-.37zm0 9.04c1 0 1.747-.335 2.24-1.005s.74-1.605.74-2.805c0-1.207-.247-2.147-.74-2.82-.493-.674-1.24-1.01-2.24-1.01-.507 0-.947.086-1.32.26-.373.173-.685.423-.935.75-.25.326-.437.729-.56 1.205-.124.477-.185 1.015-.185 1.615 0 .6.062 1.137.185 1.609.123.474.31.872.56 1.195s.562.571.935.745c.374.174.814.261 1.32.261zM419.104 486.918v-10.13h1.06c.253 0 .413.123.48.37l.14 1.1c.44-.486.931-.88 1.475-1.18s1.172-.45 1.885-.45c.553 0 1.042.092 1.465.275.423.183.777.443 1.06.779.283.337.498.742.645 1.216.146.473.22.996.22 1.569v6.45h-1.78v-6.45c0-.767-.175-1.361-.525-1.785-.35-.423-.885-.635-1.605-.635-.527 0-1.019.127-1.475.38-.457.254-.878.597-1.265 1.03v7.46h-1.78zM437.664 486.918h-.79c-.173 0-.313-.026-.42-.08-.107-.053-.177-.166-.21-.34l-.2-.94c-.267.24-.526.455-.78.646-.253.189-.52.35-.8.479-.28.13-.578.229-.895.295-.317.067-.668.101-1.055.101-.394 0-.762-.056-1.105-.166s-.642-.275-.895-.496-.455-.5-.605-.838-.225-.738-.225-1.199c0-.401.11-.788.33-1.159s.575-.7 1.065-.988c.49-.288 1.131-.523 1.925-.708.793-.184 1.764-.275 2.91-.275v-.795c0-.792-.168-1.391-.505-1.796-.337-.406-.835-.609-1.495-.609-.434 0-.798.055-1.095.165-.297.11-.554.233-.77.37l-.56.37c-.157.109-.312.165-.465.165-.12 0-.225-.032-.315-.095s-.162-.142-.215-.235l-.32-.57c.56-.54 1.163-.943 1.81-1.21s1.363-.399 2.15-.399c.566 0 1.07.093 1.51.279s.81.447 1.11.78c.3.333.527.736.68 1.21s.23.993.23 1.56v6.478zm-4.62-1.09c.313 0 .6-.031.86-.095.26-.063.505-.153.735-.271.23-.116.45-.258.66-.425.21-.167.415-.356.615-.57v-2.09c-.82 0-1.517.052-2.09.156-.574.104-1.04.239-1.4.407-.36.168-.622.365-.785.594-.164.228-.245.482-.245.764 0 .269.043.5.13.694.087.194.204.354.35.478s.32.215.52.271c.2.059.417.087.65.087zM442.345 472.188v14.73h-1.78v-14.73h1.78zM359.155 509.508c.387 0 .742-.019 1.065-.055.323-.037.628-.092.915-.165s.557-.162.81-.265c.253-.104.506-.222.76-.355v-3.16h-2.22c-.127 0-.229-.036-.305-.109-.077-.074-.115-.164-.115-.271v-1.1h4.4v5.5c-.36.26-.735.486-1.125.68s-.807.354-1.25.485c-.443.13-.918.227-1.425.29-.507.062-1.057.095-1.65.095-1.04 0-1.993-.179-2.86-.535s-1.613-.856-2.24-1.5c-.627-.644-1.115-1.415-1.465-2.315-.35-.899-.525-1.89-.525-2.97 0-1.093.172-2.09.515-2.99.343-.899.833-1.671 1.47-2.314s1.407-1.142 2.31-1.495 1.915-.53 3.035-.53c.566 0 1.093.042 1.58.125.486.084.938.204 1.355.36.417.156.801.347 1.155.57.354.223.683.475.99.755l-.55.88c-.113.18-.26.27-.44.27-.106 0-.223-.036-.35-.109-.167-.094-.354-.207-.56-.341-.207-.133-.458-.261-.755-.385-.296-.123-.646-.229-1.05-.314-.403-.087-.882-.13-1.435-.13-.807 0-1.537.131-2.19.395s-1.21.64-1.67 1.13-.813 1.084-1.06 1.78-.37 1.479-.37 2.345c0 .907.128 1.715.385 2.425.256.71.618 1.312 1.085 1.806.466.493 1.02.87 1.66 1.13.64.257 1.347.387 2.12.387zM371.265 500.628c.74 0 1.408.123 2.005.37s1.103.597 1.52 1.05c.417.453.736 1.002.96 1.646.223.643.335 1.361.335 2.154 0 .801-.112 1.521-.335 2.16-.224.641-.543 1.187-.96 1.641-.417.453-.923.801-1.52 1.045-.597.243-1.265.364-2.005.364s-1.409-.121-2.005-.364c-.597-.244-1.105-.592-1.525-1.045-.42-.454-.743-1-.97-1.641-.227-.64-.34-1.359-.34-2.16 0-.793.113-1.512.34-2.154.227-.644.55-1.192.97-1.646.42-.453.928-.803 1.525-1.05.596-.247 1.265-.37 2.005-.37zm0 9.04c1 0 1.747-.335 2.24-1.005s.74-1.605.74-2.805c0-1.207-.247-2.147-.74-2.82-.493-.674-1.24-1.01-2.24-1.01-.507 0-.947.086-1.32.26-.373.173-.685.423-.935.75-.25.326-.437.729-.56 1.205-.124.477-.185 1.015-.185 1.615 0 .6.062 1.137.185 1.609.123.474.31.872.56 1.195s.562.571.935.745c.373.174.813.261 1.32.261zM376.746 500.788h1.46c.14 0 .256.036.35.11.094.073.16.159.2.26l2.57 6.52c.093.24.167.48.22.721l.15.71.17-.71c.06-.24.137-.48.23-.721l2.6-6.52c.04-.106.105-.195.195-.266.09-.069.202-.104.335-.104h1.39l-4.13 10.13h-1.61l-4.13-10.13zM392.015 500.628c.607 0 1.167.102 1.68.305.513.204.957.497 1.33.88.373.384.665.857.875 1.421s.315 1.204.315 1.925c0 .279-.03.467-.09.56-.06.094-.174.141-.34.141h-6.74c.013.64.1 1.196.26 1.67.16.473.38.868.66 1.185.28.316.613.554 1 .71.387.157.82.235 1.3.235.447 0 .832-.052 1.155-.155.323-.104.602-.215.835-.335s.428-.231.585-.335.292-.155.405-.155c.147 0 .26.057.34.17l.5.65c-.22.267-.483.498-.79.695-.307.196-.635.358-.985.484-.35.127-.712.222-1.085.285-.374.063-.744.095-1.11.095-.7 0-1.345-.118-1.935-.354-.59-.236-1.1-.583-1.53-1.04s-.765-1.021-1.005-1.695c-.24-.673-.36-1.446-.36-2.319 0-.707.108-1.367.325-1.98s.528-1.145.935-1.595.903-.804 1.49-1.061c.587-.258 1.247-.387 1.98-.387zm.04 1.31c-.86 0-1.537.249-2.03.745-.494.497-.8 1.186-.92 2.065h5.51c0-.413-.057-.792-.17-1.135-.113-.344-.28-.641-.5-.891s-.488-.443-.805-.58c-.316-.135-.678-.204-1.085-.204zM398.485 510.918v-10.13h1.02c.193 0 .327.036.4.11.073.073.124.199.15.38l.12 1.58c.347-.707.775-1.259 1.285-1.655.51-.396 1.108-.595 1.795-.595.28 0 .533.031.76.095s.437.151.63.265l-.23 1.33c-.047.167-.15.25-.31.25-.094 0-.237-.031-.43-.095s-.463-.095-.81-.095c-.62 0-1.138.18-1.555.54-.417.359-.765.883-1.045 1.569v6.45h-1.78zM406.545 510.918v-10.13h1.06c.253 0 .413.123.48.37l.14 1.1c.44-.486.931-.88 1.475-1.18s1.172-.45 1.885-.45c.553 0 1.042.092 1.465.275.423.183.777.443 1.06.779.283.337.498.742.645 1.216.146.473.22.996.22 1.569v6.45h-1.78v-6.45c0-.767-.175-1.361-.525-1.785-.35-.423-.885-.635-1.605-.635-.527 0-1.019.127-1.475.38-.457.254-.878.597-1.265 1.03v7.46h-1.78zM417.665 510.918v-10.13h1.06c.253 0 .413.123.48.37l.13 1.04c.374-.46.792-.837 1.255-1.13.463-.294 1.002-.44 1.615-.44.687 0 1.242.19 1.665.57s.728.894.915 1.54c.14-.367.325-.684.555-.95s.488-.486.775-.66c.287-.173.592-.3.915-.38s.652-.12.985-.12c.533 0 1.008.085 1.425.255s.77.419 1.06.745c.29.327.512.729.665 1.205s.23 1.021.23 1.635v6.45h-1.78v-6.45c0-.793-.173-1.395-.52-1.805s-.85-.615-1.51-.615c-.293 0-.572.052-.835.155-.264.104-.495.255-.695.455-.2.2-.358.451-.475.755s-.175.655-.175 1.055v6.45h-1.78v-6.45c0-.813-.164-1.42-.49-1.819-.327-.4-.803-.601-1.43-.601-.44 0-.849.118-1.225.355-.376.236-.722.558-1.035.965v7.55h-1.78zM438.094 500.628c.607 0 1.168.102 1.682.305.512.204.955.497 1.328.88.375.384.666.857.875 1.421.211.563.316 1.204.316 1.925 0 .279-.031.467-.09.56-.061.094-.174.141-.34.141h-6.741c.013.64.1 1.196.26 1.67.16.473.38.868.66 1.185.28.316.613.554 1 .71.387.157.82.235 1.299.235.447 0 .832-.052 1.156-.155.322-.104.602-.215.834-.335.234-.12.43-.231.586-.335s.291-.155.404-.155c.146 0 .26.057.34.17l.5.65c-.219.267-.482.498-.789.695-.307.196-.635.358-.986.484-.35.127-.711.222-1.084.285s-.744.095-1.11.095c-.7 0-1.345-.118-1.935-.354-.59-.236-1.1-.583-1.53-1.04s-.765-1.021-1.005-1.695c-.24-.673-.36-1.446-.36-2.319 0-.707.108-1.367.325-1.98s.528-1.145.935-1.595.903-.804 1.49-1.061c.587-.258 1.247-.387 1.98-.387zm.041 1.31c-.86 0-1.537.249-2.03.745-.494.497-.8 1.186-.92 2.065h5.511c0-.413-.057-.792-.17-1.135-.115-.344-.281-.641-.5-.891-.221-.25-.49-.443-.807-.58-.317-.135-.678-.204-1.084-.204zM444.564 510.918v-10.13h1.06c.254 0 .414.123.48.37l.14 1.1c.44-.486.932-.88 1.476-1.18.543-.3 1.171-.45 1.885-.45.553 0 1.041.092 1.465.275.424.183.776.443 1.061.779.283.337.498.742.645 1.216.146.473.22.996.22 1.569v6.45h-1.779v-6.45c0-.767-.176-1.361-.525-1.785-.35-.423-.885-.635-1.605-.635-.526 0-1.018.127-1.475.38-.457.254-.878.597-1.265 1.03v7.46h-1.783zM458.754 511.078c-.801 0-1.415-.224-1.846-.67-.43-.447-.645-1.09-.645-1.931v-6.199h-1.22c-.107 0-.197-.032-.271-.096-.073-.062-.109-.161-.109-.295v-.71l1.659-.21.41-3.13c.014-.1.057-.182.13-.245s.167-.095.28-.095h.9v3.49h2.899v1.29h-2.899v6.08c0 .427.103.743.31.949.207.207.474.311.8.311.187 0 .349-.025.485-.075l.354-.165.256-.165c.069-.05.131-.075.185-.075.093 0 .177.057.25.17l.52.851c-.307.286-.677.512-1.109.675-.433.163-.879.245-1.339.245z"/></g><g fill="#fff"><path d="M560.966 474.828c-.061.1-.124.175-.19.225s-.153.075-.26.075c-.113 0-.245-.057-.395-.17-.15-.113-.341-.238-.57-.375-.23-.137-.507-.262-.83-.375s-.715-.17-1.175-.17c-.434 0-.817.059-1.15.175-.333.117-.611.275-.835.475-.224.2-.392.436-.505.705-.113.271-.17.562-.17.875 0 .4.099.732.295.995.196.264.457.488.78.675.323.188.689.349 1.1.485l1.26.425c.431.147.851.312 1.261.495.409.184.776.415 1.1.695s.583.623.78 1.03c.196.406.295.906.295 1.5 0 .626-.106 1.215-.32 1.765-.213.55-.524 1.028-.935 1.435-.41.407-.914.728-1.511.96-.597.233-1.274.351-2.034.351-.927 0-1.772-.168-2.535-.505-.764-.337-1.415-.792-1.955-1.365l.56-.92c.054-.073.118-.135.195-.186.076-.05.161-.074.255-.074.141 0 .3.074.48.225.18.15.404.315.675.495.27.18.597.345.979.495.384.149.852.225 1.405.225.46 0 .87-.063 1.23-.189.359-.127.665-.306.915-.535.25-.23.441-.505.574-.825.134-.32.2-.677.2-1.07 0-.433-.099-.788-.295-1.064s-.455-.509-.775-.695c-.319-.187-.685-.345-1.095-.475l-1.26-.4s-.85-.295-1.26-.475c-.41-.181-.775-.414-1.096-.7-.319-.287-.578-.646-.774-1.075-.197-.43-.295-.962-.295-1.595 0-.507.098-.997.295-1.47.196-.474.481-.894.854-1.261.374-.366.835-.66 1.386-.88.55-.22 1.182-.33 1.895-.33.8 0 1.53.127 2.19.38.659.254 1.236.62 1.729 1.101l-.468.917zM567.016 487.078c-.801 0-1.415-.224-1.846-.67-.43-.447-.645-1.09-.645-1.931v-6.199h-1.22c-.107 0-.197-.032-.271-.096-.073-.062-.109-.161-.109-.295v-.71l1.659-.21.41-3.13c.014-.1.057-.182.13-.245s.167-.095.28-.095h.9v3.49h2.899v1.29h-2.899v6.08c0 .427.103.743.31.949.207.207.474.311.8.311.187 0 .349-.025.485-.075l.354-.165.256-.165c.069-.05.131-.075.185-.075.093 0 .177.057.25.17l.52.851c-.307.286-.677.512-1.109.675-.433.163-.879.245-1.339.245zM578.846 486.918h-.79c-.174 0-.313-.026-.421-.08-.106-.053-.176-.166-.21-.34l-.199-.94c-.267.24-.527.455-.78.646-.254.189-.521.35-.8.479-.28.13-.579.229-.896.295-.316.067-.668.101-1.055.101-.394 0-.762-.056-1.105-.166-.343-.11-.642-.275-.895-.496-.254-.221-.455-.5-.605-.838-.149-.338-.225-.738-.225-1.199 0-.401.11-.788.33-1.159s.575-.7 1.065-.988c.489-.288 1.131-.523 1.925-.708.793-.184 1.763-.275 2.91-.275v-.795c0-.792-.169-1.391-.506-1.796-.336-.406-.835-.609-1.494-.609-.434 0-.799.055-1.096.165s-.553.233-.77.37l-.561.37c-.156.109-.312.165-.465.165-.12 0-.225-.032-.314-.095-.09-.063-.162-.142-.215-.235l-.32-.57c.56-.54 1.163-.943 1.81-1.21s1.363-.399 2.15-.399c.566 0 1.069.093 1.51.279s.81.447 1.11.78c.3.333.526.736.68 1.21s.23.993.23 1.56v6.478zm-4.62-1.09c.312 0 .6-.031.859-.095.261-.063.505-.153.735-.271.229-.116.45-.258.66-.425s.415-.356.615-.57v-2.09c-.82 0-1.518.052-2.091.156-.573.104-1.04.239-1.399.407-.36.168-.622.365-.785.594-.163.228-.245.482-.245.764 0 .269.043.5.13.694s.203.354.351.478c.146.124.319.215.52.271.199.059.416.087.65.087zM584.615 487.078c-.801 0-1.415-.224-1.846-.67-.43-.447-.645-1.09-.645-1.931v-6.199h-1.22c-.107 0-.197-.032-.271-.096-.073-.062-.109-.161-.109-.295v-.71l1.659-.21.41-3.13c.014-.1.057-.182.13-.245s.167-.095.28-.095h.9v3.49h2.899v1.29h-2.899v6.08c0 .427.103.743.31.949.207.207.474.311.8.311.187 0 .349-.025.485-.075l.354-.165.256-.165c.069-.05.131-.075.185-.075.093 0 .177.057.25.17l.52.851c-.307.286-.677.512-1.109.675-.433.163-.879.245-1.339.245zM593.015 476.628c.606 0 1.167.102 1.681.305.513.204.956.497 1.329.88.374.384.665.857.875 1.421s.315 1.204.315 1.925c0 .279-.03.467-.09.56-.061.094-.174.141-.34.141h-6.74c.014.64.1 1.196.26 1.67.16.473.38.868.66 1.185s.613.554 1 .71c.387.157.82.235 1.3.235.446 0 .832-.052 1.155-.155s.602-.215.835-.335.429-.231.585-.335.292-.155.405-.155c.146 0 .26.057.34.17l.5.65c-.22.267-.483.498-.79.695-.307.196-.635.358-.985.484-.35.127-.712.222-1.085.285s-.743.095-1.109.095c-.7 0-1.346-.118-1.936-.354s-1.1-.583-1.53-1.04c-.43-.457-.765-1.021-1.005-1.695-.239-.673-.359-1.446-.359-2.319 0-.707.108-1.367.325-1.98.216-.613.528-1.145.935-1.595s.903-.804 1.49-1.061c.585-.258 1.245-.387 1.979-.387zm.04 1.31c-.859 0-1.536.249-2.03.745-.493.497-.8 1.186-.92 2.065h5.511c0-.413-.057-.792-.17-1.135-.114-.344-.28-.641-.5-.891-.221-.25-.489-.443-.806-.58-.317-.135-.679-.204-1.085-.204zM616.934 479.758c0 1.073-.17 2.059-.51 2.955s-.82 1.669-1.44 2.315-1.364 1.148-2.234 1.505-1.832.535-2.886.535c-1.053 0-2.013-.179-2.88-.535-.866-.356-1.609-.858-2.229-1.505s-1.101-1.419-1.44-2.315-.51-1.882-.51-2.955.17-2.059.51-2.955.82-1.67 1.44-2.319c.62-.65 1.363-1.155 2.229-1.516.867-.359 1.827-.54 2.88-.54 1.054 0 2.016.181 2.886.54.87.36 1.614.865 2.234 1.516.62.649 1.101 1.423 1.44 2.319s.51 1.882.51 2.955zm-1.991 0c0-.88-.12-1.67-.359-2.37-.24-.7-.58-1.291-1.021-1.774-.439-.483-.974-.855-1.6-1.115-.627-.26-1.327-.39-2.101-.39-.767 0-1.463.13-2.09.39-.626.26-1.161.632-1.604 1.115s-.785 1.074-1.025 1.774-.359 1.49-.359 2.37.119 1.669.359 2.365.582 1.287 1.025 1.77c.443.483.979.854 1.604 1.11.627.257 1.323.385 2.09.385.773 0 1.474-.128 2.101-.385.626-.257 1.16-.627 1.6-1.11.44-.482.78-1.073 1.021-1.77.239-.696.359-1.485.359-2.365zM617.983 476.788h1.4c.146 0 .267.036.36.11.093.073.156.159.189.26l1.94 6.52.149.695.12.675c.054-.227.113-.451.18-.675l.211-.695 2.14-6.56c.033-.101.092-.184.175-.25s.188-.101.315-.101h.77c.134 0 .243.034.33.101s.146.149.18.25l2.09 6.56c.073.233.139.464.195.69l.165.67c.033-.22.076-.45.13-.69.054-.239.11-.463.17-.67l1.98-6.52c.033-.106.097-.195.189-.266.094-.069.203-.104.33-.104h1.34l-3.279 10.13h-1.41c-.174 0-.294-.113-.36-.34l-2.239-6.87c-.054-.153-.098-.309-.131-.465l-.1-.465-.1.47c-.034.16-.077.316-.131.47l-2.27 6.86c-.073.227-.21.34-.41.34h-1.34l-3.278-10.13zM634.623 486.918v-10.13h1.06c.254 0 .414.123.48.37l.14 1.1c.44-.486.932-.88 1.476-1.18.543-.3 1.171-.45 1.885-.45.553 0 1.041.092 1.465.275.424.183.776.443 1.061.779.283.337.498.742.645 1.216.146.473.22.996.22 1.569v6.45h-1.779v-6.45c0-.767-.176-1.361-.525-1.785-.35-.423-.885-.635-1.605-.635-.526 0-1.018.127-1.475.38-.457.254-.878.597-1.265 1.03v7.46h-1.783zM649.753 476.628c.606 0 1.167.102 1.681.305.513.204.956.497 1.329.88.374.384.665.857.875 1.421s.315 1.204.315 1.925c0 .279-.03.467-.09.56-.061.094-.174.141-.34.141h-6.74c.014.64.1 1.196.26 1.67.16.473.38.868.66 1.185s.613.554 1 .71c.387.157.82.235 1.3.235.446 0 .832-.052 1.155-.155s.602-.215.835-.335.429-.231.585-.335.292-.155.405-.155c.146 0 .26.057.34.17l.5.65c-.22.267-.483.498-.79.695-.307.196-.635.358-.985.484-.35.127-.712.222-1.085.285s-.743.095-1.109.095c-.7 0-1.346-.118-1.936-.354s-1.1-.583-1.53-1.04c-.43-.457-.765-1.021-1.005-1.695-.239-.673-.359-1.446-.359-2.319 0-.707.108-1.367.325-1.98.216-.613.528-1.145.935-1.595s.903-.804 1.49-1.061c.585-.258 1.246-.387 1.979-.387zm.04 1.31c-.859 0-1.536.249-2.03.745-.493.497-.8 1.186-.92 2.065h5.511c0-.413-.057-.792-.17-1.135-.114-.344-.28-.641-.5-.891-.221-.25-.489-.443-.806-.58-.316-.135-.679-.204-1.085-.204zM663.353 486.918c-.253 0-.413-.123-.479-.37l-.16-1.229c-.434.526-.929.948-1.485 1.265s-1.195.475-1.915.475c-.58 0-1.106-.111-1.58-.335-.474-.223-.877-.551-1.21-.984s-.59-.974-.77-1.62c-.181-.646-.271-1.391-.271-2.23 0-.746.101-1.441.3-2.085.2-.643.488-1.201.865-1.675s.835-.845 1.375-1.115 1.153-.404 1.84-.404c.62 0 1.15.104 1.59.314.44.21.834.505 1.181.885v-5.62h1.78v14.73h-1.061zm-3.451-1.3c.58 0 1.089-.134 1.525-.4s.838-.644 1.205-1.13v-4.9c-.327-.439-.686-.748-1.075-.925s-.821-.265-1.295-.265c-.946 0-1.674.337-2.18 1.01-.507.674-.761 1.634-.761 2.88 0 .66.057 1.226.17 1.695s.28.856.5 1.16c.221.304.49.524.811.665.321.14.687.21 1.1.21zM594.905 496.588v1.58h-6.88v4.76h5.569v1.521h-5.569v4.89h6.88v1.58h-8.83v-14.33h8.83zM597.415 510.918v-10.13h1.06c.254 0 .414.123.48.37l.14 1.1c.44-.486.932-.88 1.476-1.18.543-.3 1.171-.45 1.885-.45.553 0 1.041.092 1.465.275.424.183.776.443 1.061.779.283.337.498.742.645 1.216.146.473.22.996.22 1.569v6.45h-1.779v-6.45c0-.767-.176-1.361-.525-1.785-.35-.423-.885-.635-1.605-.635-.526 0-1.018.127-1.475.38-.457.254-.878.597-1.265 1.03v7.46h-1.783zM611.604 511.078c-.801 0-1.415-.224-1.846-.67-.43-.447-.645-1.09-.645-1.931v-6.199h-1.22c-.107 0-.197-.032-.271-.096-.073-.062-.109-.161-.109-.295v-.71l1.659-.21.41-3.13c.014-.1.057-.182.13-.245s.167-.095.28-.095h.9v3.49h2.899v1.29h-2.899v6.08c0 .427.103.743.31.949.207.207.474.311.8.311.187 0 .349-.025.485-.075l.354-.165.256-.165c.069-.05.131-.075.185-.075.093 0 .177.057.25.17l.52.851c-.307.286-.677.512-1.109.675-.432.163-.879.245-1.339.245zM618.374 497.608c0 .173-.035.335-.104.484-.07.15-.164.283-.28.4-.117.116-.252.208-.405.274-.153.067-.316.101-.49.101-.173 0-.335-.033-.484-.101-.15-.066-.283-.158-.4-.274-.116-.117-.208-.25-.274-.4-.067-.149-.101-.312-.101-.484 0-.174.033-.339.101-.495.066-.157.158-.294.274-.41.117-.117.25-.208.4-.275.149-.066.312-.1.484-.1.174 0 .337.033.49.1.153.067.288.158.405.275.116.116.21.253.28.41.069.157.104.322.104.495zm-.399 3.18v10.13h-1.78v-10.13h1.78zM624.185 511.078c-.801 0-1.415-.224-1.846-.67-.43-.447-.645-1.09-.645-1.931v-6.199h-1.22c-.107 0-.197-.032-.271-.096-.073-.062-.109-.161-.109-.295v-.71l1.659-.21.41-3.13c.014-.1.057-.182.13-.245s.167-.095.28-.095h.9v3.49h2.899v1.29h-2.899v6.08c0 .427.103.743.31.949.207.207.474.311.8.311.187 0 .349-.025.485-.075l.354-.165.256-.165c.069-.05.131-.075.185-.075.093 0 .177.057.25.17l.52.851c-.307.286-.677.512-1.109.675-.433.163-.879.245-1.339.245zM631.543 513.908c-.06.133-.135.24-.225.319-.09.08-.229.12-.415.12h-1.32l1.851-4.02-4.181-9.54h1.54c.153 0 .273.038.36.115.087.076.15.161.189.255l2.711 6.38.154.439.115.45.14-.45.16-.449 2.63-6.37c.04-.106.108-.195.205-.266.097-.069.202-.104.315-.104h1.42l-5.649 13.121z"/></g><g fill="#fff"><path d="M763.943 479.758c0 1.073-.17 2.059-.51 2.955s-.82 1.669-1.44 2.315-1.364 1.148-2.234 1.505-1.832.535-2.886.535c-1.053 0-2.013-.179-2.88-.535-.866-.356-1.609-.858-2.229-1.505s-1.101-1.419-1.44-2.315-.51-1.882-.51-2.955.17-2.059.51-2.955.82-1.67 1.44-2.319c.62-.65 1.363-1.155 2.229-1.516.867-.359 1.827-.54 2.88-.54 1.054 0 2.016.181 2.886.54.87.36 1.614.865 2.234 1.516.62.649 1.101 1.423 1.44 2.319s.51 1.882.51 2.955zm-1.99 0c0-.88-.12-1.67-.359-2.37-.24-.7-.58-1.291-1.021-1.774-.439-.483-.974-.855-1.6-1.115-.627-.26-1.327-.39-2.101-.39-.767 0-1.463.13-2.09.39-.626.26-1.161.632-1.604 1.115s-.785 1.074-1.025 1.774-.359 1.49-.359 2.37.119 1.669.359 2.365.582 1.287 1.025 1.77c.443.483.979.854 1.604 1.11.627.257 1.323.385 2.09.385.773 0 1.474-.128 2.101-.385.626-.257 1.16-.627 1.6-1.11.44-.482.78-1.073 1.021-1.77.239-.696.359-1.485.359-2.365zM769.384 487.078c-.801 0-1.415-.224-1.846-.67-.43-.447-.645-1.09-.645-1.931v-6.199h-1.22c-.107 0-.197-.032-.271-.096-.073-.062-.109-.161-.109-.295v-.71l1.659-.21.41-3.13c.014-.1.057-.182.13-.245s.167-.095.28-.095h.9v3.49h2.899v1.29h-2.899v6.08c0 .427.103.743.31.949.207.207.474.311.8.311.187 0 .349-.025.485-.075l.354-.165.256-.165c.069-.05.131-.075.185-.075.093 0 .177.057.25.17l.52.851c-.307.286-.677.512-1.109.675-.433.163-.879.245-1.339.245zM773.772 486.918v-14.73h1.78v5.961c.433-.461.913-.829 1.439-1.105s1.134-.415 1.82-.415c.553 0 1.041.092 1.465.275.424.183.776.443 1.061.779.283.337.498.742.645 1.216.146.473.22.996.22 1.569v6.45h-1.779v-6.45c0-.767-.176-1.361-.525-1.785-.35-.423-.885-.635-1.605-.635-.526 0-1.018.127-1.475.38-.457.254-.878.597-1.265 1.03v7.46h-1.781zM788.902 476.628c.606 0 1.167.102 1.681.305.513.204.956.497 1.329.88.374.384.665.857.875 1.421s.315 1.204.315 1.925c0 .279-.03.467-.09.56-.061.094-.174.141-.34.141h-6.74c.014.64.1 1.196.26 1.67.16.473.38.868.66 1.185s.613.554 1 .71c.387.157.82.235 1.3.235.446 0 .832-.052 1.155-.155s.602-.215.835-.335.429-.231.585-.335.292-.155.405-.155c.146 0 .26.057.34.17l.5.65c-.22.267-.483.498-.79.695-.307.196-.635.358-.985.484-.35.127-.712.222-1.085.285s-.743.095-1.109.095c-.7 0-1.346-.118-1.936-.354s-1.1-.583-1.53-1.04c-.43-.457-.765-1.021-1.005-1.695-.239-.673-.359-1.446-.359-2.319 0-.707.108-1.367.325-1.98.216-.613.528-1.145.935-1.595s.903-.804 1.49-1.061c.586-.258 1.246-.387 1.979-.387zm.04 1.31c-.859 0-1.536.249-2.03.745-.493.497-.8 1.186-.92 2.065h5.511c0-.413-.057-.792-.17-1.135-.114-.344-.28-.641-.5-.891-.221-.25-.489-.443-.806-.58-.316-.135-.678-.204-1.085-.204zM795.372 486.918v-10.13h1.02c.193 0 .327.036.4.11.073.073.123.199.15.38l.12 1.58c.346-.707.774-1.259 1.284-1.655.511-.396 1.108-.595 1.795-.595.28 0 .534.031.761.095s.437.151.63.265l-.23 1.33c-.047.167-.149.25-.31.25-.094 0-.237-.031-.43-.095-.194-.063-.464-.095-.811-.095-.62 0-1.139.18-1.555.54-.417.359-.766.883-1.045 1.569v6.45h-1.779z"/></g><g fill="#EEC900"><path d="M275.407 421.447v25.522h-70.381v-6.409zM275.407 408.246v6.514l-70.381 19.11v-6.516zM275.407 395.043v6.515l-70.381 19.109v-6.512zM275.407 381.835v6.519l-70.381 19.109v-6.51zM275.407 368.633v6.513l-70.381 19.114v-6.515zM275.407 355.431v6.513l-70.381 19.115v-6.519zM275.407 342.228v6.51l-70.381 19.116v-6.515zM275.407 329.025v6.514l-70.381 19.108v-6.512zM275.407 315.821v6.514l-70.381 19.111v-6.513zM275.407 302.616v6.515l-70.381 19.112v-6.514zM275.407 289.414v6.514l-70.381 19.113v-6.519zM275.407 276.212v6.514l-70.381 19.107v-6.513zM275.407 263.006v6.515l-70.381 19.11v-6.514zM275.407 249.803v6.516l-70.381 19.107v-6.51zM275.407 236.599v6.518l-70.381 19.11v-6.517zM275.407 223.394v6.515l-70.381 19.114v-6.517zM275.407 210.193v6.512l-70.381 19.114v-6.519zM275.407 196.99v6.512l-70.381 19.108v-6.512zM275.407 183.786v6.513l-70.381 19.109v-6.512zM275.407 170.583v6.512l-70.381 19.109v-6.512zM275.407 157.376v6.515l-70.381 19.112v-6.513zM275.407 144.175v6.513l-70.381 19.111v-6.516zM275.407 130.972v6.513l-70.381 19.11v-6.515zM275.407 117.768v6.512l-70.381 19.112v-6.517zM275.407 104.562v6.515l-70.381 19.108v-6.511zM275.407 91.357v6.517l-70.381 19.11v-6.515zM275.407 78.154v6.516l-70.381 19.11v-6.512zM275.407 64.954v6.509l-70.381 19.115v-6.514zM275.407 51.212v7.051l-70.381 19.113-.003-26.164z"/></g><g fill="#EEC900"><path d="M449.569 418.708v28.261h-70.381v-7.097zM449.569 404.087v7.215l-70.381 21.159v-7.212zM449.569 389.464v7.214l-70.381 21.164v-7.212zM449.569 374.838v7.219l-70.381 21.163v-7.21zM449.569 360.215v7.217l-70.381 21.168v-7.218zM449.569 345.597v7.214l-70.381 21.167v-7.218zM449.569 330.975v7.212l-70.381 21.167v-7.214zM449.569 316.353v7.214l-70.381 21.162v-7.212zM449.569 301.732v7.211l-70.381 21.167v-7.214zM449.569 287.108v7.211l-70.381 21.169v-7.215zM449.569 272.486v7.214l-70.381 21.166v-7.214zM449.569 257.201v7.881l-70.381 21.159v-29.04z"/></g><g fill="#EEC900"><path d="M644.325 418.708v28.261h-70.384v-7.097zM644.325 403.201v7.881l-70.384 21.159v-29.04z"/></g><g fill="#EEC900"><path d="M809.682 418.708v28.261h-70.382v-7.097zM809.682 404.087v7.215l-70.382 21.159v-7.212zM809.682 389.464v7.214l-70.382 21.164v-7.212zM809.682 374.838v7.219l-70.382 21.163v-7.21zM809.682 360.215v7.217l-70.382 21.168v-7.218zM809.682 345.597v7.214l-70.382 21.167v-7.218zM809.682 330.975v7.212l-70.382 21.167v-7.214zM809.682 316.353v7.214l-70.382 21.162v-7.212zM809.682 301.732v7.211l-70.382 21.167v-7.214zM809.682 287.108v7.211l-70.382 21.169v-7.215zM809.682 272.201v7.881l-70.382 21.159v-29.04z"/></g><g fill="#EEC900"><path d="M109.666 412.687v34.282h-70.382v-8.609zM109.666 394.953v8.751l-70.382 25.668v-8.751zM109.666 377.216v8.751l-70.382 25.671v-8.747zM109.666 359.473v8.757l-70.382 25.672v-8.748zM109.666 341.738v8.751l-70.382 25.678v-8.755zM109.666 324.005v8.748l-70.382 25.678v-8.754zM109.666 306.27v8.748l-70.382 25.674v-8.75zM109.666 288.531v8.751l-70.382 25.67v-8.75zM109.666 270.797v8.749l-70.382 25.673v-8.752zM109.666 253.06v8.748l-70.382 25.675v-8.753zM109.666 235.323v8.748l-70.382 25.677v-8.752zM109.666 216.779v9.56l-70.382 25.669v-35.229z"/></g><path fill="#EEC900" d="M10.229 443.807h833.287v10.467h-833.287z"/><g fill="#fff"><path d="M48.816 192.662h4.102v-13.013c0-.391.013-.786.04-1.186l-3.41 2.917c-.089.071-.178.122-.267.153l-.253.046c-.133 0-.253-.029-.359-.086-.107-.058-.187-.126-.24-.207l-.746-1.025 5.674-4.915h1.931v17.315h3.756v1.812h-10.228v-1.811zM68.155 194.686c-.95 0-1.82-.126-2.611-.379s-1.47-.615-2.038-1.085c-.568-.471-1.008-1.041-1.319-1.711-.311-.67-.466-1.423-.466-2.258 0-1.225.319-2.235.959-3.03.639-.795 1.554-1.361 2.744-1.698-1.003-.373-1.761-.93-2.271-1.672-.511-.741-.766-1.627-.766-2.657 0-.701.138-1.358.413-1.971.275-.612.666-1.146 1.172-1.598.506-.453 1.112-.808 1.818-1.065s1.494-.386 2.364-.386c.861 0 1.647.129 2.357.386.71.257 1.318.613 1.825 1.065.506.453.896.986 1.172 1.598.275.613.413 1.27.413 1.971 0 1.03-.258 1.916-.772 2.657-.515.742-1.27 1.299-2.265 1.672 1.19.337 2.104.903 2.744 1.698.639.794.959 1.805.959 3.03 0 .835-.158 1.587-.473 2.258s-.755 1.241-1.318 1.711c-.564.471-1.241.833-2.031 1.085-.79.253-1.661.379-2.61.379zm0-1.891c.621 0 1.179-.086 1.671-.26s.91-.417 1.252-.732c.342-.315.604-.693.786-1.132s.273-.926.273-1.458c0-.657-.109-1.219-.327-1.685-.218-.466-.511-.846-.879-1.139-.369-.293-.792-.508-1.272-.646s-.981-.207-1.505-.207c-.524 0-1.026.069-1.505.207s-.903.353-1.272.646c-.369.293-.662.673-.879 1.139-.218.466-.326 1.028-.326 1.685 0 .533.091 1.019.273 1.458.182.439.444.817.786 1.132.342.315.759.559 1.252.732.493.173 1.05.26 1.672.26zm0-9.164c.621 0 1.152-.095 1.591-.286s.797-.444 1.072-.759.475-.677.6-1.085c.124-.409.186-.831.186-1.266 0-.444-.073-.861-.22-1.252-.146-.391-.364-.732-.652-1.025-.289-.293-.648-.524-1.079-.693-.431-.168-.93-.253-1.498-.253s-1.068.084-1.499.253c-.431.169-.791.4-1.079.693s-.506.635-.652 1.025c-.146.391-.22.808-.22 1.252 0 .435.062.857.187 1.266.124.408.324.77.599 1.085.275.315.633.568 1.072.759s.97.286 1.592.286zM85.309 179.995c0 .746-.115 1.414-.346 2.004-.231.591-.54 1.088-.926 1.492-.386.404-.837.712-1.352.925-.515.213-1.052.32-1.611.32-.604 0-1.161-.106-1.671-.32-.511-.213-.957-.521-1.339-.925s-.679-.901-.892-1.492c-.213-.59-.32-1.258-.32-2.004 0-.764.106-1.443.32-2.038.213-.595.51-1.097.892-1.505.382-.408.828-.719 1.339-.932.51-.213 1.067-.32 1.671-.32.595 0 1.152.106 1.671.32.52.213.968.524 1.345.932.377.409.675.911.893 1.505.217.595.326 1.274.326 2.038zm6.673-4.129c.115-.151.237-.269.366-.353.129-.084.3-.126.513-.126h1.705l-13.945 18.7c-.089.115-.195.208-.319.28-.125.071-.271.106-.439.106h-1.758l13.877-18.607zm-8.524 4.129c0-.586-.062-1.083-.187-1.492-.125-.408-.295-.744-.513-1.005-.217-.262-.471-.451-.759-.566-.289-.115-.598-.173-.926-.173-.329 0-.637.058-.926.173-.289.116-.54.304-.752.566-.213.262-.379.597-.5 1.005-.12.409-.18.906-.18 1.492 0 .578.06 1.068.18 1.472.12.404.287.733.5.986s.464.435.752.546c.289.111.597.167.926.167.328 0 .637-.055.926-.167.288-.111.542-.293.759-.546.218-.253.389-.582.513-.986.125-.404.187-.894.187-1.472zm12.4 9.976c0 .746-.116 1.412-.346 1.998-.231.586-.54 1.081-.926 1.485-.386.404-.835.713-1.345.926-.511.213-1.046.32-1.605.32-.604 0-1.161-.107-1.671-.32-.511-.213-.957-.521-1.339-.926-.382-.404-.679-.899-.892-1.485-.213-.586-.32-1.252-.32-1.998 0-.764.106-1.445.32-2.044.213-.599.51-1.103.892-1.512.382-.408.828-.719 1.339-.932.51-.213 1.067-.32 1.671-.32.595 0 1.15.106 1.665.32.515.213.963.524 1.345.932.381.409.679.913.892 1.512.213.599.32 1.281.32 2.044zm-1.838 0c0-.586-.062-1.085-.186-1.499-.125-.413-.295-.748-.513-1.005-.217-.257-.471-.444-.759-.56-.289-.115-.598-.173-.926-.173-.329 0-.637.058-.926.173-.289.116-.54.302-.752.56-.213.258-.38.593-.5 1.005-.12.413-.18.913-.18 1.499 0 .577.06 1.065.18 1.465.12.399.286.726.5.979.213.253.464.435.752.546.289.111.597.167.926.167.328 0 .637-.055.926-.167.288-.111.542-.293.759-.546.218-.253.389-.58.513-.979s.186-.888.186-1.465z"/></g><g fill="#fff"><path d="M221.542 24.065h2.891v1.359c0 .142-.042.262-.126.359-.085.098-.216.146-.393.146h-2.371v5.021h-2.091v-5.02h-8.458c-.178 0-.331-.051-.459-.153-.129-.102-.211-.229-.247-.38l-.24-1.212 9.283-12.32h2.211v12.2zm-2.091-7.871c0-.23.007-.479.02-.746.013-.267.042-.542.086-.826l-6.939 9.443h6.833v-7.871zM232.676 31.165c-.95 0-1.82-.126-2.611-.379s-1.47-.615-2.038-1.085c-.568-.471-1.008-1.041-1.319-1.711-.311-.67-.466-1.423-.466-2.258 0-1.225.319-2.235.959-3.03.639-.795 1.554-1.361 2.744-1.698-1.003-.373-1.761-.93-2.271-1.672-.511-.741-.766-1.627-.766-2.657 0-.701.138-1.358.413-1.971.275-.612.666-1.146 1.172-1.598.506-.453 1.112-.808 1.818-1.065s1.494-.386 2.364-.386c.861 0 1.647.129 2.357.386.71.257 1.318.613 1.825 1.065.506.453.896.986 1.172 1.598.275.613.413 1.27.413 1.971 0 1.03-.258 1.916-.772 2.657-.515.742-1.27 1.299-2.265 1.672 1.19.337 2.104.903 2.744 1.698.639.794.959 1.805.959 3.03 0 .835-.158 1.587-.473 2.258s-.755 1.241-1.318 1.711c-.564.471-1.241.833-2.031 1.085s-1.66.379-2.61.379zm0-1.892c.621 0 1.179-.086 1.671-.26s.91-.417 1.252-.732c.342-.315.604-.693.786-1.132s.273-.926.273-1.458c0-.657-.109-1.219-.327-1.685-.218-.466-.511-.846-.879-1.139-.369-.293-.792-.508-1.272-.646s-.981-.207-1.505-.207c-.524 0-1.026.069-1.505.207s-.903.353-1.272.646c-.369.293-.662.673-.879 1.139-.218.466-.326 1.028-.326 1.685 0 .533.091 1.019.273 1.458.182.439.444.817.786 1.132.342.315.759.559 1.252.732.494.174 1.051.26 1.672.26zm0-9.163c.621 0 1.152-.095 1.591-.286s.797-.444 1.072-.759.475-.677.6-1.085c.124-.409.186-.831.186-1.266 0-.444-.073-.861-.22-1.252-.146-.391-.364-.732-.652-1.025-.289-.293-.648-.524-1.079-.693-.431-.168-.93-.253-1.498-.253s-1.068.084-1.499.253c-.431.169-.791.4-1.079.693s-.506.635-.652 1.025c-.146.391-.22.808-.22 1.252 0 .435.062.857.187 1.266.124.408.324.77.599 1.085.275.315.633.568 1.072.759s.971.286 1.592.286zM249.831 16.474c0 .746-.115 1.414-.346 2.004-.231.591-.54 1.088-.926 1.492-.386.404-.837.712-1.352.925-.515.213-1.052.32-1.611.32-.604 0-1.161-.106-1.671-.32-.511-.213-.957-.521-1.339-.925s-.679-.901-.892-1.492c-.213-.59-.32-1.258-.32-2.004 0-.764.106-1.443.32-2.038.213-.595.51-1.097.892-1.505.382-.408.828-.719 1.339-.932.51-.213 1.067-.32 1.671-.32.595 0 1.152.106 1.671.32.52.213.968.524 1.345.932.377.409.675.911.893 1.505.217.595.326 1.274.326 2.038zm6.672-4.129c.115-.151.237-.269.366-.353.129-.084.3-.126.513-.126h1.705l-13.945 18.7c-.089.115-.195.208-.319.28-.125.071-.271.106-.439.106h-1.758l13.877-18.607zm-8.524 4.129c0-.586-.062-1.083-.187-1.492-.125-.408-.295-.744-.513-1.005-.217-.262-.471-.451-.759-.566-.289-.115-.598-.173-.926-.173-.329 0-.637.058-.926.173-.289.116-.54.304-.752.566-.213.262-.379.597-.5 1.005-.12.409-.18.906-.18 1.492 0 .578.06 1.068.18 1.472.12.404.287.733.5.986s.464.435.752.546c.289.111.597.167.926.167.328 0 .637-.055.926-.167.288-.111.542-.293.759-.546.218-.253.389-.582.513-.986.125-.404.187-.895.187-1.472zm12.4 9.976c0 .746-.116 1.412-.346 1.998-.231.586-.54 1.081-.926 1.485-.386.404-.835.713-1.345.926-.511.213-1.046.32-1.605.32-.604 0-1.161-.107-1.671-.32-.511-.213-.957-.521-1.339-.926-.382-.404-.679-.899-.892-1.485-.213-.586-.32-1.252-.32-1.998 0-.764.106-1.445.32-2.044.213-.599.51-1.103.892-1.512.382-.408.828-.719 1.339-.932.51-.213 1.067-.32 1.671-.32.595 0 1.15.106 1.665.32.515.213.963.524 1.345.932.381.409.679.913.892 1.512.214.599.32 1.28.32 2.044zm-1.838 0c0-.586-.062-1.085-.186-1.499-.125-.413-.295-.748-.513-1.005-.217-.257-.471-.444-.759-.56-.289-.115-.598-.173-.926-.173-.329 0-.637.058-.926.173-.289.116-.54.302-.752.56-.213.258-.38.593-.5 1.005-.12.413-.18.913-.18 1.499 0 .577.06 1.065.18 1.465.12.399.286.726.5.979.213.253.464.435.752.546.289.111.597.167.926.167.328 0 .637-.055.926-.167.288-.111.542-.293.759-.546.218-.253.389-.58.513-.979.124-.4.186-.888.186-1.465z"/></g><g fill="#fff"><path d="M388.72 234.083h4.102v-13.013c0-.391.013-.786.04-1.186l-3.41 2.917c-.089.071-.178.122-.267.153l-.253.047c-.133 0-.253-.029-.359-.087-.107-.058-.187-.127-.24-.206l-.746-1.026 5.674-4.914h1.931v17.314h3.756v1.812h-10.228v-1.811zM409.004 224.2c.764 0 1.487.127 2.171.38.684.253 1.283.621 1.798 1.105.515.484.923 1.079 1.225 1.784.302.706.453 1.512.453 2.418 0 .879-.16 1.696-.479 2.45-.32.755-.766 1.412-1.338 1.972-.573.56-1.264.999-2.071 1.318-.808.32-1.696.479-2.664.479-.959 0-1.827-.153-2.604-.459-.777-.307-1.441-.741-1.991-1.306-.551-.563-.975-1.247-1.272-2.051-.298-.804-.446-1.703-.446-2.697 0-.835.187-1.723.56-2.664.373-.941.963-1.953 1.771-3.037l4.835-6.513c.125-.16.297-.295.52-.406.222-.111.475-.166.759-.166h2.104l-6.62 8.377c.453-.311.954-.553 1.505-.726.55-.171 1.145-.258 1.784-.258zm-4.927 5.808c0 .612.088 1.172.266 1.678s.438.941.779 1.306.759.646 1.252.846c.493.199 1.054.3 1.685.3.639 0 1.216-.103 1.731-.307.515-.204.957-.488 1.325-.853.368-.364.652-.795.853-1.292.2-.497.299-1.039.299-1.625 0-.621-.098-1.183-.293-1.685s-.471-.928-.826-1.278c-.355-.352-.781-.62-1.279-.807-.497-.187-1.043-.279-1.638-.279-.639 0-1.216.108-1.731.326s-.952.511-1.312.879c-.359.369-.635.795-.826 1.279-.19.483-.285.987-.285 1.512zM425.213 221.417c0 .745-.115 1.414-.346 2.004-.231.591-.54 1.088-.926 1.492s-.837.712-1.352.926c-.515.213-1.052.319-1.611.319-.604 0-1.161-.106-1.671-.319-.511-.214-.957-.521-1.339-.926s-.679-.901-.892-1.492c-.213-.59-.32-1.259-.32-2.004 0-.764.106-1.443.32-2.038.213-.595.51-1.097.892-1.505s.828-.72 1.339-.933c.51-.213 1.067-.319 1.671-.319.595 0 1.152.106 1.671.319s.968.524 1.345.933.675.91.893 1.505c.217.595.326 1.274.326 2.038zm6.673-4.129c.115-.151.237-.269.366-.354.129-.084.3-.126.513-.126h1.705l-13.945 18.699c-.089.116-.195.209-.319.28-.125.071-.271.106-.439.106h-1.758l13.877-18.605zm-8.524 4.129c0-.587-.062-1.084-.187-1.492-.125-.408-.295-.743-.513-1.006-.217-.262-.471-.45-.759-.565-.289-.115-.598-.174-.926-.174-.329 0-.637.059-.926.174s-.54.304-.752.565c-.213.263-.379.598-.5 1.006-.12.408-.18.905-.18 1.492 0 .577.06 1.067.18 1.472.12.404.287.732.5.985s.464.436.752.546c.289.111.597.167.926.167.328 0 .637-.056.926-.167.288-.11.542-.293.759-.546.218-.253.389-.581.513-.985.125-.405.187-.895.187-1.472zm12.4 9.976c0 .746-.116 1.412-.346 1.998-.231.586-.54 1.081-.926 1.485-.386.403-.835.712-1.345.926-.511.213-1.046.319-1.605.319-.604 0-1.161-.106-1.671-.319-.511-.214-.957-.522-1.339-.926s-.679-.899-.892-1.485c-.213-.586-.32-1.252-.32-1.998 0-.764.106-1.445.32-2.044.213-.6.51-1.104.892-1.512.382-.409.828-.72 1.339-.933.51-.213 1.067-.32 1.671-.32.595 0 1.15.107 1.665.32.515.213.963.523 1.345.933.381.408.679.912.892 1.512.214.598.32 1.28.32 2.044zm-1.838 0c0-.586-.062-1.085-.186-1.498-.125-.413-.295-.748-.513-1.006-.217-.258-.471-.444-.759-.56-.289-.115-.598-.173-.926-.173-.329 0-.637.058-.926.173s-.54.302-.752.56c-.213.258-.38.593-.5 1.006s-.18.912-.18 1.498c0 .577.06 1.065.18 1.465.12.4.286.727.5.979.213.253.464.435.752.546s.597.166.926.166c.328 0 .637-.055.926-.166.288-.111.542-.293.759-.546.218-.253.389-.579.513-.979s.186-.888.186-1.465z"/></g><g fill="#fff"><path d="M593.42 359.432c.808 0 1.554.116 2.237.347.684.231 1.272.56 1.765.985.493.427.877.941 1.152 1.545.275.604.413 1.274.413 2.012 0 .604-.078 1.144-.233 1.618s-.377.893-.666 1.252c-.288.359-.637.664-1.045.912-.409.249-.866.448-1.372.6 1.243.328 2.178.879 2.804 1.651s.938 1.74.938 2.903c0 .88-.166 1.67-.499 2.371-.333.702-.788 1.299-1.365 1.792-.577.492-1.25.87-2.018 1.132-.769.262-1.592.393-2.471.393-1.013 0-1.878-.126-2.598-.379-.719-.254-1.327-.602-1.824-1.046-.498-.444-.906-.97-1.226-1.578s-.591-1.268-.812-1.979l1.013-.426c.186-.08.372-.12.559-.12.178 0 .335.038.474.113.137.075.241.193.312.353l.054.113.053.127c.124.258.275.549.453.872.178.324.417.629.719.913s.678.523 1.126.719 1.006.293 1.671.293c.666 0 1.25-.108 1.752-.326s.919-.499 1.252-.846.584-.732.753-1.159c.168-.426.253-.848.253-1.265 0-.516-.069-.986-.207-1.412-.138-.427-.386-.795-.745-1.105-.36-.311-.857-.555-1.492-.732s-1.449-.267-2.444-.267v-1.731c.809 0 1.499-.084 2.071-.253.573-.169 1.041-.399 1.405-.692s.628-.645.793-1.053c.164-.408.246-.861.246-1.358 0-.551-.087-1.03-.26-1.438s-.411-.746-.713-1.013c-.302-.266-.659-.466-1.072-.599-.413-.134-.858-.2-1.338-.2s-.924.071-1.332.213c-.409.142-.771.34-1.086.592-.315.253-.579.555-.792.905-.214.351-.373.729-.479 1.138-.071.257-.178.443-.32.559-.142.115-.324.173-.546.173l-.14-.007-.167-.02-1.238-.21c.124-.87.364-1.64.72-2.311.354-.67.806-1.231 1.352-1.685s1.172-.797 1.878-1.032 1.465-.354 2.282-.354zM610.028 364.254c0 .745-.116 1.414-.347 2.004-.231.591-.539 1.088-.926 1.492-.386.404-.837.712-1.352.926-.516.213-1.053.319-1.612.319-.604 0-1.16-.106-1.671-.319-.511-.214-.957-.521-1.339-.926s-.679-.901-.893-1.492c-.213-.59-.319-1.259-.319-2.004 0-.764.106-1.443.319-2.038.214-.595.511-1.097.893-1.505s.828-.72 1.339-.933 1.067-.319 1.671-.319c.596 0 1.152.106 1.672.319s.968.524 1.346.933c.377.408.674.91.892 1.505s.327 1.274.327 2.038zm6.673-4.129c.115-.151.237-.269.366-.354.128-.084.299-.126.513-.126h1.704l-13.944 18.699c-.089.116-.195.209-.32.28-.124.071-.271.106-.439.106h-1.758l13.878-18.605zm-8.524 4.129c0-.587-.062-1.084-.187-1.492-.125-.408-.296-.743-.513-1.006-.218-.262-.471-.45-.76-.565-.288-.115-.597-.174-.926-.174-.328 0-.637.059-.925.174-.289.115-.54.304-.753.565-.213.263-.38.598-.499 1.006-.12.408-.181.905-.181 1.492 0 .577.061 1.067.181 1.472.119.404.286.732.499.985s.464.436.753.546c.288.111.597.167.925.167.329 0 .638-.056.926-.167.289-.11.542-.293.76-.546.217-.253.388-.581.513-.985.124-.405.187-.895.187-1.472zm12.399 9.975c0 .746-.115 1.412-.346 1.998-.231.586-.54 1.081-.926 1.485-.387.403-.835.712-1.346.926-.511.213-1.045.319-1.604.319-.604 0-1.161-.106-1.672-.319-.511-.214-.957-.522-1.338-.926-.382-.404-.68-.899-.893-1.485s-.32-1.252-.32-1.998c0-.764.107-1.445.32-2.044.213-.6.511-1.104.893-1.512.381-.409.827-.72 1.338-.933s1.067-.32 1.672-.32c.595 0 1.149.107 1.665.32.515.213.963.523 1.345.933.382.408.68.912.893 1.512.213.599.319 1.281.319 2.044zm-1.838 0c0-.586-.062-1.085-.187-1.498-.124-.413-.295-.748-.513-1.006s-.471-.444-.759-.56c-.289-.115-.598-.173-.926-.173-.329 0-.638.058-.926.173-.289.115-.539.302-.753.56-.213.258-.379.593-.499 1.006s-.18.912-.18 1.498c0 .577.06 1.065.18 1.465.12.4.286.727.499.979.214.253.464.435.753.546.288.111.597.166.926.166.328 0 .637-.055.926-.166.288-.111.541-.293.759-.546s.389-.579.513-.979c.126-.399.187-.887.187-1.465z"/></g><g fill="#fff"><path d="M752.185 249.593h4.103v-13.013c0-.391.014-.786.04-1.186l-3.41 2.917c-.089.071-.178.122-.266.153l-.253.047c-.134 0-.254-.029-.36-.087s-.187-.127-.239-.206l-.746-1.026 5.674-4.914h1.932v17.314h3.756v1.812h-10.229v-1.811zM776.839 233.356c0 .338-.106.615-.32.833-.213.218-.572.326-1.078.326h-5.994l-.879 5.008c.994-.213 1.913-.319 2.757-.319.994 0 1.871.146 2.631.439.759.293 1.396.697 1.911 1.212s.903 1.123 1.165 1.825c.262.701.394 1.465.394 2.29 0 1.013-.178 1.928-.533 2.744-.355.817-.841 1.517-1.458 2.098-.617.582-1.344 1.028-2.178 1.339-.835.311-1.736.466-2.704.466-.56 0-1.097-.056-1.611-.166-.516-.111-.995-.26-1.438-.446-.444-.187-.857-.399-1.238-.64-.383-.239-.72-.492-1.013-.759l.719-1.013c.16-.23.373-.346.64-.346.169 0 .366.068.593.206s.499.291.819.46c.319.168.694.321 1.125.459s.943.206 1.539.206c.665 0 1.265-.106 1.798-.319.532-.213.987-.517 1.365-.912.377-.396.668-.868.872-1.419.204-.55.307-1.167.307-1.851 0-.595-.087-1.133-.26-1.612s-.436-.888-.786-1.226c-.351-.337-.788-.599-1.312-.785-.524-.187-1.137-.28-1.838-.28-.479 0-.978.04-1.492.12s-1.048.209-1.599.387l-1.491-.439 1.545-8.924h9.044v1.038zM788.679 236.927c0 .745-.116 1.414-.347 2.004-.231.591-.539 1.088-.926 1.492-.386.404-.837.712-1.352.926-.516.213-1.053.319-1.612.319-.604 0-1.16-.106-1.671-.319-.511-.214-.957-.521-1.339-.926s-.679-.901-.893-1.492c-.213-.59-.319-1.259-.319-2.004 0-.764.106-1.443.319-2.038.214-.595.511-1.097.893-1.505s.828-.72 1.339-.933 1.067-.319 1.671-.319c.596 0 1.152.106 1.672.319s.968.524 1.346.933c.377.408.674.91.892 1.505s.327 1.274.327 2.038zm6.673-4.129c.115-.151.237-.269.366-.354.128-.084.299-.126.513-.126h1.704l-13.944 18.699c-.089.116-.195.209-.32.28-.124.071-.271.106-.439.106h-1.758l13.878-18.605zm-8.525 4.129c0-.587-.062-1.084-.187-1.492-.125-.408-.296-.743-.513-1.006-.218-.262-.471-.45-.76-.565-.288-.115-.597-.174-.926-.174-.328 0-.637.059-.925.174-.289.115-.54.304-.753.565-.213.263-.38.598-.499 1.006-.12.408-.181.905-.181 1.492 0 .577.061 1.067.181 1.472.119.404.286.732.499.985s.464.436.753.546c.288.111.597.167.925.167.329 0 .638-.056.926-.167.289-.11.542-.293.76-.546.217-.253.388-.581.513-.985.125-.405.187-.895.187-1.472zm12.4 9.975c0 .746-.115 1.412-.346 1.998-.231.586-.54 1.081-.926 1.485-.387.403-.835.712-1.346.926-.511.213-1.045.319-1.604.319-.604 0-1.161-.106-1.672-.319-.511-.214-.957-.522-1.338-.926-.382-.404-.68-.899-.893-1.485s-.32-1.252-.32-1.998c0-.764.107-1.445.32-2.044.213-.6.511-1.104.893-1.512.381-.409.827-.72 1.338-.933s1.067-.32 1.672-.32c.595 0 1.149.107 1.665.32.515.213.963.523 1.345.933.382.408.68.912.893 1.512.212.599.319 1.281.319 2.044zm-1.838 0c0-.586-.062-1.085-.187-1.498-.124-.413-.295-.748-.513-1.006s-.471-.444-.759-.56c-.289-.115-.598-.173-.926-.173-.329 0-.638.058-.926.173-.289.115-.539.302-.753.56-.213.258-.379.593-.499 1.006s-.18.912-.18 1.498c0 .577.06 1.065.18 1.465.12.4.286.727.499.979.214.253.464.435.753.546.288.111.597.166.926.166.328 0 .637-.055.926-.166.288-.111.541-.293.759-.546s.389-.579.513-.979c.125-.399.187-.888.187-1.465z"/></g></svg>