<svg xmlns="http://www.w3.org/2000/svg" width="800" height="599.97" viewBox="0 0 800 599.97"><g fill="#fff"><path d="M95.396 533.186h-1.109c-.128 0-.232-.031-.311-.096-.079-.064-.138-.145-.177-.244l-.991-2.559h-4.756l-.991 2.559c-.035.088-.094.168-.178.236-.084.07-.188.104-.311.104h-1.11l4.239-10.6h1.457l4.238 10.6zm-6.945-3.936h3.958l-1.665-4.312c-.108-.266-.214-.598-.318-.998l-.159.559-.152.447-1.664 4.304zM96.573 533.186v-10.896h1.324v4.484c.311-.361.667-.65 1.069-.869.402-.221.862-.33 1.38-.33.434 0 .826.082 1.176.244.35.162.648.406.895.729.246.324.436.723.569 1.199.133.475.2 1.023.2 1.645 0 .553-.074 1.066-.222 1.543s-.361.887-.64 1.234c-.278.348-.619.623-1.021.822-.402.199-.854.299-1.357.299-.483 0-.894-.094-1.232-.281-.337-.188-.632-.447-.884-.783l-.066.68c-.04.188-.153.281-.34.281h-.851zm3.343-6.561c-.429 0-.805.098-1.128.295-.323.197-.62.477-.892.836v3.625c.237.326.5.555.788.688.289.135.61.201.965.201.7 0 1.238-.25 1.612-.748.375-.498.562-1.207.562-2.131 0-.488-.043-.906-.129-1.258-.086-.35-.211-.637-.374-.861-.163-.225-.363-.389-.6-.492-.234-.104-.503-.155-.804-.155zM105.938 525.693v4.777c0 .568.13 1.006.392 1.316.261.312.656.467 1.184.467.384 0 .747-.092 1.087-.273.34-.182.653-.438.939-.762v-5.525h1.317v7.492h-.784c-.188 0-.306-.09-.355-.273l-.104-.807c-.326.361-.69.65-1.095.869-.404.221-.868.33-1.391.33-.41 0-.771-.068-1.084-.203-.313-.137-.576-.328-.788-.574s-.371-.545-.477-.895-.159-.738-.159-1.162v-4.777h1.318zM117.314 526.928c-.059.109-.15.162-.273.162-.074 0-.158-.025-.251-.08l-.344-.182s-.297-.129-.484-.186-.409-.084-.666-.084c-.222 0-.422.027-.599.084-.178.057-.33.135-.455.234-.126.098-.222.213-.289.344s-.1.271-.1.426c0 .191.055.352.166.48.111.127.258.238.44.332.182.094.389.176.621.248l.714.229c.244.082.482.172.714.271.232.098.439.221.622.369.182.148.329.33.44.543.111.215.167.473.167.773 0 .346-.062.664-.185.959-.123.293-.306.547-.547.762s-.538.383-.888.506-.754.186-1.213.186c-.523 0-.996-.086-1.42-.256s-.784-.389-1.08-.654l.311-.504.14-.146c.054-.035.126-.053.215-.053.088 0 .182.035.281.104l.359.23s.311.16.51.229.45.104.751.104c.256 0 .481-.033.673-.1s.353-.156.48-.27c.128-.113.223-.244.285-.393.062-.148.092-.307.092-.473 0-.207-.056-.379-.167-.516-.111-.135-.258-.25-.44-.348-.183-.096-.391-.18-.625-.25l-.718-.227s-.483-.168-.717-.27c-.234-.102-.443-.229-.625-.381-.183-.152-.33-.342-.44-.566s-.167-.496-.167-.816c0-.287.059-.562.178-.826.118-.264.291-.494.518-.695.227-.199.505-.357.836-.477s.708-.178 1.132-.178c.493 0 .936.078 1.328.232.392.156.731.369 1.017.641l-.297.483zM122.411 525.574c.449 0 .863.076 1.243.227.379.15.708.367.984.65.276.283.492.633.647 1.051.155.416.233.891.233 1.424 0 .207-.022.344-.066.414-.044.068-.128.104-.251.104h-4.986c.01.473.074.885.192 1.234.119.352.281.643.488.877s.454.41.74.525.606.174.961.174c.331 0 .615-.037.854-.115.239-.076.445-.158.618-.248.172-.088.317-.17.433-.246.116-.078.216-.115.3-.115.108 0 .192.041.251.125l.37.48c-.163.197-.357.369-.584.516-.227.145-.47.264-.729.357-.259.094-.526.164-.802.211-.276.047-.55.07-.821.07-.518 0-.995-.088-1.431-.262-.437-.176-.814-.432-1.132-.77-.318-.338-.566-.756-.744-1.254-.177-.498-.266-1.07-.266-1.717 0-.521.08-1.01.24-1.465.16-.453.391-.846.692-1.18.301-.332.668-.594 1.102-.783s.921-.284 1.464-.284zm.029.969c-.636 0-1.137.184-1.501.551-.365.367-.592.877-.681 1.527h4.076c0-.305-.042-.584-.125-.838s-.207-.475-.37-.658c-.163-.186-.361-.328-.595-.43s-.503-.152-.804-.152zM133.084 525.574c.547 0 1.042.092 1.483.273.441.184.816.441 1.125.777s.545.74.71 1.217c.166.477.248 1.008.248 1.594 0 .592-.083 1.125-.248 1.598-.165.475-.402.879-.71 1.213-.308.336-.683.594-1.125.773s-.936.27-1.483.27-1.042-.09-1.483-.27c-.441-.18-.817-.438-1.128-.773-.311-.334-.55-.738-.717-1.213-.168-.473-.251-1.006-.251-1.598 0-.586.083-1.117.251-1.594.167-.477.407-.881.717-1.217.311-.336.687-.594 1.128-.777.441-.181.936-.273 1.483-.273zm0 6.688c.74 0 1.292-.248 1.657-.744s.547-1.188.547-2.074c0-.893-.182-1.588-.547-2.086-.365-.498-.917-.748-1.657-.748-.375 0-.7.064-.977.193-.276.127-.506.312-.691.555s-.323.539-.415.891c-.091.354-.137.752-.137 1.195s.045.84.137 1.191c.091.35.229.645.415.883.185.24.416.424.691.551.277.128.602.193.977.193zM138.573 533.186v-6.369l-.829-.096c-.104-.023-.188-.062-.255-.115-.066-.051-.1-.127-.1-.225v-.541h1.184v-.725c0-.428.06-.809.181-1.143.121-.332.293-.613.518-.844.225-.229.495-.402.81-.521.315-.117.671-.178 1.065-.178.335 0 .646.051.932.148l-.03.658c-.005.1-.047.158-.126.178-.079.02-.19.029-.333.029h-.229c-.227 0-.433.029-.618.09-.185.059-.344.154-.477.287-.133.135-.235.309-.307.525-.071.219-.107.486-.107.807v.688h2.167v.955h-2.123v6.391h-1.323zM79.537 543.32c.325 0 .63.035.914.107.283.07.541.176.773.314h2.034v.488c0 .162-.104.266-.311.311l-.851.117c.168.32.251.678.251 1.072 0 .365-.07.697-.21.996-.141.299-.335.553-.584.766-.249.211-.545.375-.888.488s-.719.17-1.128.17c-.351 0-.681-.043-.991-.125-.158.102-.277.211-.359.328s-.122.232-.122.344c0 .184.071.322.214.418.143.094.333.16.57.201s.505.062.806.062h.921s.62.027.921.082.57.145.807.27c.236.125.426.297.569.516.143.221.214.506.214.854 0 .326-.08.641-.24.943-.16.305-.391.576-.691.814-.301.236-.668.426-1.103.568s-.924.213-1.472.213-1.027-.055-1.439-.162c-.412-.109-.753-.254-1.024-.438-.271-.182-.475-.395-.61-.633-.136-.24-.204-.49-.204-.752 0-.371.117-.686.352-.943.234-.26.556-.467.965-.619-.212-.098-.381-.23-.507-.395-.125-.166-.188-.385-.188-.662 0-.107.02-.219.059-.336.04-.115.1-.23.181-.344.082-.113.182-.221.3-.324s.256-.193.414-.273c-.37-.207-.66-.482-.869-.824-.209-.344-.314-.744-.314-1.203 0-.363.07-.695.211-.994s.336-.553.588-.762c.252-.209.551-.371.899-.484s.728-.169 1.142-.169zm2.338 7.998c0-.189-.052-.344-.155-.459s-.244-.205-.422-.268c-.177-.064-.382-.109-.614-.141-.232-.029-.476-.045-.732-.045h-.784c-.266 0-.52-.033-.762-.1-.281.133-.509.297-.684.488-.175.193-.263.422-.263.689 0 .168.043.324.129.471.086.145.218.271.396.377.178.107.401.191.669.252.269.062.586.094.951.094.355 0 .673-.033.954-.098.281-.066.519-.16.714-.279.195-.121.344-.266.448-.432s.155-.347.155-.549zm-2.338-4.041c.266 0 .501-.037.706-.111s.376-.178.514-.311.242-.291.311-.477.104-.389.104-.611c0-.457-.14-.822-.418-1.094-.279-.271-.685-.406-1.217-.406-.528 0-.931.135-1.209.406-.279.271-.418.637-.418 1.094 0 .223.036.426.107.611.071.186.176.344.314.477s.308.236.511.311c.202.074.433.111.695.111zM87.607 543.328c.547 0 1.042.09 1.483.273.441.182.816.441 1.125.775.308.336.545.742.71 1.217.166.477.248 1.008.248 1.596 0 .592-.083 1.123-.248 1.598-.165.473-.402.877-.71 1.213-.308.334-.683.592-1.125.773-.441.18-.936.27-1.483.27s-1.042-.09-1.483-.27c-.441-.182-.817-.439-1.128-.773-.311-.336-.55-.74-.717-1.213-.168-.475-.251-1.006-.251-1.598 0-.588.083-1.119.251-1.596.167-.475.407-.881.717-1.217.311-.334.687-.594 1.128-.775.441-.183.936-.273 1.483-.273zm0 6.686c.74 0 1.292-.248 1.657-.742.365-.496.547-1.188.547-2.076 0-.893-.182-1.588-.547-2.086-.365-.498-.917-.746-1.657-.746-.375 0-.7.064-.977.191-.276.129-.506.314-.691.555-.185.242-.323.539-.415.893-.091.352-.137.75-.137 1.193 0 .445.045.842.137 1.191s.229.645.415.885c.185.238.416.422.691.551.277.128.602.191.977.191zM91.661 543.445h1.08c.104 0 .19.027.259.082.069.055.118.117.148.191l1.901 4.824c.069.178.123.354.163.531l.111.525.125-.525s.101-.354.17-.531l1.923-4.824c.03-.078.078-.145.145-.195.066-.053.149-.078.248-.078h1.028l-3.055 7.494h-1.191l-3.055-7.494zM102.957 543.328c.449 0 .863.074 1.243.225.379.15.708.367.984.65.276.285.492.635.647 1.051.155.418.233.893.233 1.424 0 .207-.022.346-.066.414-.044.07-.128.104-.251.104h-4.986c.01.475.074.887.192 1.236.119.35.281.643.488.877s.454.408.74.525c.286.115.606.174.961.174.331 0 .615-.039.854-.115s.445-.16.618-.248c.172-.088.317-.172.433-.248s.216-.115.3-.115c.108 0 .192.043.251.127l.37.48c-.163.197-.357.369-.584.514-.227.146-.47.266-.729.359-.259.094-.526.164-.802.211-.276.047-.55.07-.821.07-.518 0-.995-.088-1.431-.264-.437-.174-.814-.432-1.132-.77-.318-.336-.566-.754-.744-1.254-.177-.498-.266-1.068-.266-1.715 0-.523.08-1.012.24-1.465s.391-.848.692-1.18c.301-.334.668-.594 1.102-.785.433-.188.921-.282 1.464-.282zm.029.969c-.636 0-1.137.184-1.501.551-.365.367-.592.877-.681 1.527h4.076c0-.307-.042-.586-.125-.84s-.207-.473-.37-.658c-.163-.186-.361-.328-.595-.43-.236-.099-.503-.15-.804-.15zM107.742 550.939v-7.494h.754c.143 0 .242.027.296.082s.091.148.111.281l.089 1.168c.256-.521.573-.93.951-1.225.377-.293.82-.439 1.328-.439.207 0 .395.023.562.07.168.047.323.111.466.195l-.17.984c-.034.123-.111.186-.229.186-.069 0-.175-.023-.318-.07s-.343-.07-.599-.07c-.458 0-.842.133-1.15.398-.308.268-.565.654-.773 1.162v4.771h-1.318zM113.704 550.939v-7.494h.784c.187 0 .306.092.355.273l.104.814c.325-.359.689-.65 1.091-.873s.867-.332 1.395-.332c.409 0 .771.066 1.083.203.313.135.575.328.784.576.209.25.369.549.477.898.108.352.163.738.163 1.162v4.771h-1.317v-4.771c0-.566-.129-1.008-.388-1.32-.259-.312-.655-.471-1.188-.471-.39 0-.753.094-1.091.281-.338.188-.65.441-.936.762v5.52h-1.316zM121.93 550.939v-7.494h.784c.187 0 .306.092.355.273l.096.77c.276-.34.585-.619.928-.836s.741-.324 1.195-.324c.508 0 .918.141 1.231.42.313.281.539.662.677 1.141.104-.271.24-.506.411-.703.17-.197.361-.359.573-.488s.438-.223.677-.281.482-.088.729-.088c.395 0 .746.062 1.054.188.308.127.57.311.784.551.214.242.378.539.492.893.113.352.17.756.17 1.209v4.771h-1.317v-4.771c0-.588-.128-1.031-.385-1.336-.256-.303-.628-.455-1.117-.455-.217 0-.423.039-.618.115s-.366.189-.514.336c-.148.148-.265.334-.352.559-.086.225-.129.484-.129.781v4.771h-1.316v-4.771c0-.602-.121-1.051-.363-1.346-.242-.297-.594-.445-1.058-.445-.325 0-.627.088-.906.264-.278.174-.534.412-.766.713v5.586h-1.315zM137.042 543.328c.449 0 .863.074 1.243.225.379.15.708.367.984.65.276.285.492.635.647 1.051.155.418.233.893.233 1.424 0 .207-.022.346-.066.414-.044.07-.128.104-.251.104h-4.986c.01.475.074.887.192 1.236.119.35.281.643.488.877s.454.408.74.525c.286.115.606.174.961.174.331 0 .615-.039.854-.115s.445-.16.618-.248c.172-.088.317-.172.433-.248s.216-.115.3-.115c.108 0 .192.043.251.127l.37.48c-.163.197-.357.369-.584.514-.227.146-.47.266-.729.359-.259.094-.526.164-.802.211-.276.047-.55.07-.821.07-.518 0-.995-.088-1.431-.264-.437-.174-.814-.432-1.132-.77-.318-.336-.566-.754-.744-1.254-.177-.498-.266-1.068-.266-1.715 0-.523.08-1.012.24-1.465s.391-.848.692-1.18c.301-.334.668-.594 1.102-.785.433-.188.922-.282 1.464-.282zm.029.969c-.636 0-1.137.184-1.501.551-.365.367-.592.877-.681 1.527h4.076c0-.307-.042-.586-.125-.84s-.207-.473-.37-.658c-.163-.186-.361-.328-.595-.43-.235-.099-.503-.15-.804-.15zM141.828 550.939v-7.494h.784c.187 0 .306.092.355.273l.104.814c.325-.359.689-.65 1.091-.873s.867-.332 1.395-.332c.409 0 .771.066 1.083.203.313.135.575.328.784.576.209.25.369.549.477.898.108.352.163.738.163 1.162v4.771h-1.317v-4.771c0-.566-.129-1.008-.388-1.32-.259-.312-.655-.471-1.188-.471-.39 0-.753.094-1.091.281-.338.188-.65.441-.936.762v5.52h-1.316zM152.324 551.057c-.592 0-1.047-.164-1.365-.494-.318-.332-.478-.807-.478-1.428v-4.588h-.902c-.079 0-.146-.021-.2-.07-.054-.045-.081-.119-.081-.217v-.525l1.228-.156.303-2.314c.01-.074.042-.135.096-.182s.124-.07.208-.07h.666v2.582h2.145v.953h-2.145v4.498c0 .316.076.551.229.703.153.152.35.229.592.229.138 0 .257-.018.358-.055l.263-.123.188-.121.137-.055c.069 0 .13.041.185.125l.385.629c-.227.213-.5.379-.821.5-.32.118-.651.179-.991.179zM70.047 568.693v-7.494h.754c.143 0 .242.027.296.082s.091.148.111.281l.089 1.168c.256-.521.573-.93.951-1.225.377-.293.82-.439 1.328-.439.207 0 .395.023.562.07.168.047.323.111.466.195l-.17.984c-.034.123-.111.186-.229.186-.069 0-.175-.023-.318-.07s-.343-.07-.599-.07c-.458 0-.842.133-1.15.398-.308.268-.565.654-.773 1.162v4.771h-1.318zM78.975 561.082c.449 0 .863.074 1.243.225.379.15.708.367.984.65.276.285.492.635.647 1.051.155.418.233.893.233 1.424 0 .207-.022.346-.066.414-.044.07-.128.104-.251.104h-4.986c.01.475.074.887.192 1.236.119.35.281.643.488.877s.454.408.74.525c.286.115.606.174.961.174.331 0 .615-.039.854-.115s.445-.16.618-.248c.172-.088.317-.172.433-.248s.216-.115.3-.115c.108 0 .192.043.251.127l.37.48c-.163.197-.357.369-.584.514-.227.146-.47.266-.729.359-.259.094-.526.164-.802.211-.276.047-.55.07-.821.07-.518 0-.995-.088-1.431-.264-.437-.174-.814-.432-1.132-.77-.318-.336-.566-.754-.744-1.254-.177-.498-.266-1.068-.266-1.715 0-.523.08-1.012.24-1.465s.391-.848.692-1.18c.301-.334.668-.594 1.102-.785.433-.188.922-.282 1.464-.282zm.029.969c-.636 0-1.137.184-1.501.551-.365.367-.592.877-.681 1.527h4.076c0-.307-.042-.586-.125-.84s-.207-.473-.37-.658c-.163-.186-.361-.328-.595-.43-.235-.099-.503-.15-.804-.15zM88.051 562.436c-.059.107-.15.162-.273.162-.074 0-.158-.027-.251-.082l-.344-.18c-.136-.068-.297-.129-.484-.186s-.409-.086-.666-.086c-.222 0-.422.029-.599.086-.178.057-.33.135-.455.232-.126.1-.222.213-.289.344s-.1.273-.1.426c0 .191.055.354.166.48.111.129.258.24.44.334.182.094.389.176.621.248l.714.229s.482.172.714.27c.232.1.439.223.622.371.182.146.329.328.44.543s.167.473.167.773c0 .344-.062.664-.185.957s-.306.547-.547.762-.538.385-.888.508-.754.184-1.213.184c-.523 0-.996-.084-1.42-.254s-.784-.389-1.08-.654l.311-.504.14-.148c.054-.033.126-.051.215-.051.088 0 .182.033.281.104l.359.229s.311.16.51.23c.2.068.45.104.751.104.256 0 .481-.033.673-.102.192-.066.353-.156.48-.27.128-.113.223-.244.285-.393.062-.146.092-.305.092-.473 0-.207-.056-.379-.167-.514-.111-.137-.258-.252-.44-.348-.183-.096-.391-.18-.625-.252l-.718-.225c-.244-.08-.483-.17-.717-.271-.234-.1-.443-.227-.625-.381-.183-.152-.33-.342-.44-.564-.111-.225-.167-.498-.167-.818 0-.285.059-.561.178-.824.118-.264.291-.496.518-.695.227-.201.505-.359.836-.479.331-.117.708-.176 1.132-.176.493 0 .936.076 1.328.232.392.154.731.369 1.017.639l-.297.483zM93.214 561.082c.547 0 1.042.09 1.483.273.441.182.816.441 1.125.775.308.336.545.742.71 1.217.166.477.248 1.008.248 1.596 0 .592-.083 1.123-.248 1.598-.165.473-.402.877-.71 1.213-.308.334-.683.592-1.125.773-.441.18-.936.27-1.483.27s-1.042-.09-1.483-.27c-.441-.182-.817-.439-1.128-.773-.311-.336-.55-.74-.717-1.213-.168-.475-.251-1.006-.251-1.598 0-.588.083-1.119.251-1.596.167-.475.407-.881.717-1.217.311-.334.687-.594 1.128-.775.441-.183.936-.273 1.483-.273zm0 6.686c.74 0 1.292-.248 1.657-.742.365-.496.547-1.188.547-2.076 0-.893-.182-1.588-.547-2.086-.365-.498-.917-.746-1.657-.746-.375 0-.7.064-.977.191-.276.129-.506.314-.691.555-.185.242-.323.539-.415.893-.091.352-.137.75-.137 1.193 0 .445.045.842.137 1.191s.229.645.415.885c.185.238.416.422.691.551.277.128.602.191.977.191zM99.546 561.199v4.779c0 .566.13 1.006.392 1.316.261.311.656.467 1.184.467.384 0 .747-.092 1.087-.275.34-.182.653-.436.939-.762v-5.525h1.317v7.494h-.784c-.188 0-.306-.092-.355-.273l-.104-.807c-.326.359-.69.648-1.095.869-.404.219-.868.328-1.391.328-.41 0-.771-.066-1.084-.203-.313-.135-.576-.326-.788-.572-.212-.248-.371-.545-.477-.896-.106-.35-.159-.736-.159-1.16v-4.779h1.318zM106.632 568.693v-7.494h.754c.143 0 .242.027.296.082s.091.148.111.281l.089 1.168c.256-.521.573-.93.951-1.225.377-.293.82-.439 1.328-.439.207 0 .395.023.562.07.168.047.323.111.466.195l-.17.984c-.034.123-.111.186-.229.186-.069 0-.175-.023-.318-.07s-.343-.07-.599-.07c-.458 0-.842.133-1.15.398-.308.268-.565.654-.773 1.162v4.771h-1.318zM117.706 562.531l-.118.125-.17.045c-.074 0-.154-.031-.24-.092l-.329-.203c-.133-.074-.295-.143-.485-.205-.19-.061-.423-.092-.699-.092-.365 0-.688.066-.969.195-.281.131-.517.32-.707.566-.189.246-.333.545-.429.895-.096.352-.145.742-.145 1.178 0 .453.052.855.155 1.209.104.352.249.648.437.887.188.24.416.422.685.549.269.125.57.188.906.188.321 0 .584-.037.792-.115.208-.076.38-.16.518-.254l.34-.256c.088-.076.177-.115.266-.115.113 0 .197.043.251.127l.37.48c-.326.398-.732.691-1.221.877-.488.184-1.003.277-1.546.277-.469 0-.904-.086-1.306-.26-.402-.172-.751-.422-1.047-.75s-.529-.73-.699-1.209c-.17-.479-.255-1.023-.255-1.635 0-.559.078-1.074.233-1.547s.382-.881.681-1.225c.298-.342.667-.609 1.106-.803.439-.191.942-.287 1.509-.287.523 0 .986.084 1.391.254s.762.41 1.073.721l-.348.475zM122.469 561.082c.449 0 .863.074 1.243.225.379.15.708.367.984.65.276.285.492.635.647 1.051.155.418.233.893.233 1.424 0 .207-.022.346-.066.414-.044.07-.128.104-.251.104h-4.986c.01.475.074.887.192 1.236.119.35.281.643.488.877s.454.408.74.525c.286.115.606.174.961.174.331 0 .615-.039.854-.115s.445-.16.618-.248c.172-.088.317-.172.433-.248s.216-.115.3-.115c.108 0 .192.043.251.127l.37.48c-.163.197-.357.369-.584.514-.227.146-.47.266-.729.359-.259.094-.526.164-.802.211-.276.047-.55.07-.821.07-.518 0-.995-.088-1.431-.264-.437-.174-.814-.432-1.132-.77-.318-.336-.566-.754-.744-1.254-.177-.498-.266-1.068-.266-1.715 0-.523.08-1.012.24-1.465s.391-.848.692-1.18c.301-.334.668-.594 1.102-.785.433-.188.922-.282 1.464-.282zm.03.969c-.636 0-1.137.184-1.501.551-.365.367-.592.877-.681 1.527h4.076c0-.307-.042-.586-.125-.84s-.207-.473-.37-.658c-.163-.186-.361-.328-.595-.43-.236-.099-.504-.15-.804-.15zM131.545 562.436c-.059.107-.15.162-.273.162-.074 0-.158-.027-.251-.082l-.344-.18c-.136-.068-.297-.129-.484-.186s-.409-.086-.666-.086c-.222 0-.422.029-.599.086-.178.057-.33.135-.455.232-.126.1-.222.213-.289.344s-.1.273-.1.426c0 .191.055.354.166.48.111.129.258.24.44.334.182.094.389.176.621.248l.714.229s.482.172.714.27c.232.1.439.223.622.371.182.146.329.328.44.543s.167.473.167.773c0 .344-.062.664-.185.957s-.306.547-.547.762-.538.385-.888.508-.754.184-1.213.184c-.523 0-.996-.084-1.42-.254s-.784-.389-1.08-.654l.311-.504.14-.148c.054-.033.126-.051.215-.051.088 0 .182.033.281.104l.359.229s.311.16.51.23c.2.068.45.104.751.104.256 0 .481-.033.673-.102.192-.066.353-.156.48-.27.128-.113.223-.244.285-.393.062-.146.092-.305.092-.473 0-.207-.056-.379-.167-.514-.111-.137-.258-.252-.44-.348-.183-.096-.391-.18-.625-.252l-.718-.225c-.244-.08-.483-.17-.717-.271-.234-.1-.443-.227-.625-.381-.183-.152-.33-.342-.44-.564-.111-.225-.167-.498-.167-.818 0-.285.059-.561.178-.824.118-.264.291-.496.518-.695.227-.201.505-.359.836-.479.331-.117.708-.176 1.132-.176.493 0 .936.076 1.328.232.392.154.731.369 1.017.639l-.297.483zM136.575 568.693v-10.896h1.324v4.482c.311-.359.667-.65 1.069-.869.402-.219.862-.328 1.38-.328.434 0 .826.08 1.176.244.35.162.648.404.895.729.246.322.436.723.569 1.197.133.477.2 1.025.2 1.646 0 .553-.074 1.066-.222 1.543-.148.475-.361.887-.64 1.234-.278.348-.619.621-1.021.82-.402.201-.854.301-1.357.301-.483 0-.894-.094-1.232-.281-.337-.188-.632-.449-.884-.785l-.066.682c-.04.188-.153.281-.34.281h-.851zm3.343-6.562c-.429 0-.805.1-1.128.297-.323.197-.62.477-.892.836v3.625c.237.324.5.555.788.688s.61.199.965.199c.7 0 1.238-.248 1.612-.746.375-.498.562-1.209.562-2.131 0-.488-.043-.908-.129-1.258-.086-.35-.211-.637-.374-.861-.163-.225-.363-.389-.6-.492-.234-.104-.503-.157-.804-.157zM146.805 570.904c-.044.1-.1.178-.167.236-.066.061-.169.09-.307.09h-.977l1.368-2.975-3.092-7.057h1.139c.113 0 .202.029.266.086.064.057.111.119.141.188l2.005 4.721.115.324.085.334.104-.334.118-.332 1.945-4.713c.03-.078.081-.145.152-.195.071-.053.149-.078.233-.078h1.05l-4.178 9.705zM160.542 568.693h-.584c-.128 0-.232-.02-.311-.061-.079-.039-.131-.123-.155-.25l-.148-.695c-.197.178-.39.336-.577.477s-.385.26-.592.355-.428.168-.662.217c-.234.051-.494.074-.78.074-.291 0-.563-.041-.817-.121-.254-.082-.475-.205-.662-.367-.188-.164-.336-.371-.447-.621-.111-.25-.167-.545-.167-.887 0-.297.081-.582.244-.857.163-.273.425-.518.788-.73s.837-.387 1.424-.523 1.305-.205 2.153-.205v-.588c0-.586-.125-1.027-.374-1.328s-.618-.451-1.106-.451c-.321 0-.591.041-.81.123s-.409.172-.569.273l-.415.273s-.23.123-.344.123c-.089 0-.167-.023-.233-.07-.067-.047-.12-.105-.159-.174l-.237-.422c.414-.4.86-.697 1.339-.896.479-.195 1.008-.295 1.59-.295.419 0 .792.068 1.117.207.325.139.599.33.821.576.222.248.39.545.503.896.114.35.17.734.17 1.154v4.793zm-3.418-.806c.231 0 .444-.023.636-.07s.374-.113.543-.199c.17-.086.333-.191.488-.314s.307-.264.455-.422v-1.547c-.607 0-1.122.039-1.546.115-.424.078-.77.178-1.036.303-.267.123-.46.27-.581.438-.121.17-.181.357-.181.566 0 .197.032.369.096.514.064.143.15.262.259.354s.237.158.385.201c.149.039.309.061.482.061zM73.479 588.982v-10.029h.784c.187 0 .306.09.355.273l.111.887c.32-.389.687-.703 1.099-.939.412-.236.886-.355 1.424-.355.429 0 .818.084 1.168.248.35.166.648.41.896.732.246.324.436.725.569 1.203s.2 1.027.2 1.648c0 .553-.074 1.066-.222 1.543s-.36.887-.636 1.234c-.276.348-.615.623-1.017.822-.402.199-.854.299-1.357.299-.464 0-.859-.076-1.188-.229-.328-.152-.618-.371-.869-.65v3.312h-1.317zm3.336-9.097c-.429 0-.805.098-1.128.295-.323.197-.62.477-.892.836v3.625c.242.326.507.555.795.688.289.135.61.201.965.201.695 0 1.23-.25 1.605-.748s.562-1.207.562-2.131c0-.488-.043-.906-.13-1.258-.086-.35-.21-.637-.374-.861-.163-.225-.362-.389-.599-.492-.234-.104-.503-.155-.804-.155zM82.784 578.953v4.777c0 .568.13 1.006.392 1.316.261.312.656.467 1.184.467.384 0 .747-.092 1.087-.273.34-.182.653-.438.939-.762v-5.525h1.317v7.492h-.784c-.188 0-.306-.09-.355-.273l-.104-.807c-.326.361-.69.65-1.095.869-.404.221-.868.33-1.391.33-.41 0-.771-.068-1.084-.203-.313-.137-.576-.328-.788-.574s-.371-.545-.477-.895-.159-.738-.159-1.162v-4.777h1.318zM89.915 586.445v-10.896h1.324v4.484c.311-.361.667-.65 1.069-.869.402-.221.862-.33 1.38-.33.434 0 .826.082 1.176.244.35.162.648.406.895.729.246.324.436.723.569 1.199.133.475.2 1.023.2 1.645 0 .553-.074 1.066-.222 1.543s-.361.887-.64 1.234c-.278.348-.619.623-1.021.822-.402.199-.854.299-1.357.299-.483 0-.894-.094-1.232-.281-.337-.188-.632-.447-.884-.783l-.066.68c-.04.188-.153.281-.34.281h-.851zm3.343-6.56c-.429 0-.805.098-1.128.295-.323.197-.62.477-.892.836v3.625c.237.326.5.555.788.688.289.135.61.201.965.201.7 0 1.238-.25 1.612-.748.375-.498.562-1.207.562-2.131 0-.488-.043-.906-.129-1.258-.086-.35-.211-.637-.374-.861-.163-.225-.363-.389-.6-.492-.234-.104-.503-.155-.804-.155zM99.605 575.549v10.896h-1.316v-10.896h1.316zM103.688 576.6c0 .129-.026.248-.078.359s-.121.209-.207.295c-.086.088-.186.154-.299.205-.114.049-.234.072-.363.072s-.248-.023-.359-.072c-.111-.051-.209-.117-.296-.205-.086-.086-.154-.184-.203-.295s-.074-.23-.074-.359c0-.127.025-.25.074-.365s.117-.217.203-.303c.086-.088.185-.154.296-.205.111-.049.23-.072.359-.072s.249.023.363.072c.113.051.213.117.299.205.086.086.155.188.207.303s.078.238.078.365zm-.296 2.353v7.492h-1.316v-7.492h1.316zM110.826 580.283l-.118.127-.17.043c-.074 0-.154-.029-.24-.092l-.329-.203c-.133-.074-.295-.143-.485-.203-.19-.062-.423-.092-.699-.092-.365 0-.688.064-.969.195s-.517.318-.707.566c-.189.246-.333.545-.429.895s-.145.742-.145 1.176c0 .453.052.857.155 1.209.104.354.249.648.437.889.188.238.416.422.685.547.269.125.57.189.906.189.321 0 .584-.039.792-.115.208-.076.38-.162.518-.256l.34-.254c.088-.078.177-.115.266-.115.113 0 .197.041.251.125l.37.48c-.326.4-.732.693-1.221.877-.488.186-1.003.277-1.546.277-.469 0-.904-.086-1.306-.258-.402-.174-.751-.424-1.047-.752s-.529-.73-.699-1.209c-.17-.479-.255-1.023-.255-1.635 0-.557.078-1.072.233-1.545.155-.475.382-.883.681-1.225.298-.344.667-.611 1.106-.803.439-.193.942-.289 1.509-.289.523 0 .986.086 1.391.256s.762.41 1.073.721l-.348.474zM118.511 578.834c.547 0 1.042.092 1.483.273.441.184.816.441 1.125.777s.545.74.71 1.217c.166.477.248 1.008.248 1.594 0 .592-.083 1.125-.248 1.598-.165.475-.402.879-.71 1.213-.308.336-.683.594-1.125.773s-.936.27-1.483.27-1.042-.09-1.483-.27c-.441-.18-.817-.438-1.128-.773-.311-.334-.55-.738-.717-1.213-.168-.473-.251-1.006-.251-1.598 0-.586.083-1.117.251-1.594.167-.477.407-.881.717-1.217.311-.336.687-.594 1.128-.777.441-.181.936-.273 1.483-.273zm0 6.687c.74 0 1.292-.248 1.657-.744s.547-1.188.547-2.074c0-.893-.182-1.588-.547-2.086-.365-.498-.917-.748-1.657-.748-.375 0-.7.064-.977.193-.276.127-.506.312-.691.555s-.323.539-.415.891c-.091.354-.137.752-.137 1.195s.045.84.137 1.191c.091.35.229.645.415.883.185.24.416.424.691.551.277.129.602.193.977.193zM124 586.445v-6.369l-.829-.096c-.104-.023-.188-.062-.255-.115-.066-.051-.1-.127-.1-.225v-.54h1.184v-.725c0-.428.06-.809.181-1.143.121-.332.293-.613.518-.844.225-.229.495-.402.81-.521.315-.117.671-.178 1.065-.178.335 0 .646.051.932.148l-.03.658c-.005.1-.047.158-.126.178-.079.02-.19.029-.333.029h-.229c-.227 0-.433.029-.618.09-.185.059-.344.154-.477.287-.133.135-.235.309-.307.525-.071.219-.107.486-.107.807v.688h2.167v.955h-2.123v6.391h-1.323zM128.985 586.445v-6.369l-.829-.096c-.104-.023-.188-.062-.255-.115-.066-.051-.1-.127-.1-.225v-.54h1.184v-.414c0-.457.071-.879.214-1.26.143-.383.357-.713.644-.988s.642-.49 1.069-.645c.427-.152.923-.229 1.491-.229.187 0 .378.014.573.037.195.025.363.064.507.115l-.044.688c-.01.062-.04.102-.089.119l-.215.025h-.37c-.873 0-1.508.18-1.905.541s-.595.906-.595 1.635v.375h4.527v7.346h-1.317v-6.391h-3.166v6.391h-1.324zM142.233 580.283l-.118.127-.17.043c-.074 0-.154-.029-.24-.092l-.329-.203c-.133-.074-.295-.143-.485-.203-.19-.062-.423-.092-.699-.092-.365 0-.688.064-.969.195s-.517.318-.707.566c-.189.246-.333.545-.429.895s-.145.742-.145 1.176c0 .453.052.857.155 1.209.104.354.249.648.437.889.188.238.416.422.685.547.269.125.57.189.906.189.321 0 .584-.039.792-.115.208-.076.38-.162.518-.256l.34-.254c.088-.078.177-.115.266-.115.113 0 .197.041.251.125l.37.48c-.326.4-.732.693-1.221.877-.488.186-1.003.277-1.546.277-.469 0-.904-.086-1.306-.258-.402-.174-.751-.424-1.047-.752s-.529-.73-.699-1.209c-.17-.479-.255-1.023-.255-1.635 0-.557.078-1.072.233-1.545.155-.475.382-.883.681-1.225.298-.344.667-.611 1.106-.803.439-.193.942-.289 1.509-.289.523 0 .986.086 1.391.256s.762.41 1.073.721l-.348.474zM145.791 576.6c0 .129-.026.248-.078.359s-.121.209-.207.295c-.086.088-.186.154-.299.205-.114.049-.234.072-.363.072s-.248-.023-.359-.072c-.111-.051-.209-.117-.296-.205-.086-.086-.154-.184-.203-.295s-.074-.23-.074-.359c0-.127.025-.25.074-.365s.117-.217.203-.303c.086-.088.185-.154.296-.205.111-.049.23-.072.359-.072s.249.023.363.072c.113.051.213.117.299.205.086.086.155.188.207.303s.078.238.078.365zm-.296 2.353v7.492h-1.316v-7.492h1.316zM153.321 586.445h-.584c-.128 0-.232-.02-.311-.059-.079-.039-.131-.123-.155-.252l-.148-.695c-.197.178-.39.336-.577.477s-.385.26-.592.355-.428.17-.662.219-.494.074-.78.074c-.291 0-.563-.041-.817-.123s-.475-.203-.662-.367-.336-.369-.447-.619c-.111-.25-.167-.547-.167-.887 0-.297.081-.584.244-.857.163-.275.425-.52.788-.732s.837-.387 1.424-.523c.587-.135 1.305-.203 2.153-.203v-.588c0-.586-.125-1.029-.374-1.33-.249-.299-.618-.449-1.106-.449-.321 0-.591.041-.81.121-.219.082-.409.174-.569.273l-.415.275c-.116.08-.23.121-.344.121-.089 0-.167-.023-.233-.07-.067-.047-.12-.104-.159-.174l-.237-.422c.414-.398.86-.697 1.339-.895s1.008-.297 1.59-.297c.419 0 .792.07 1.117.209.325.137.599.33.821.576.222.246.39.545.503.895.114.352.17.734.17 1.154v4.793zm-3.417-.806c.231 0 .444-.023.636-.07s.374-.113.543-.199c.17-.086.333-.191.488-.314s.307-.264.455-.422v-1.545c-.607 0-1.122.037-1.546.115-.424.076-.77.178-1.036.301-.267.125-.46.271-.581.439-.121.168-.181.357-.181.564 0 .199.032.371.096.514.064.145.15.262.259.354s.237.16.385.201c.149.042.309.062.482.062zM156.783 575.549v10.896h-1.316v-10.896h1.316z"/></g><g fill="#fff"><path d="M214.019 530.996c.079 0 .15.033.214.096l.562.615c-.434.502-.96.895-1.579 1.176-.619.281-1.365.422-2.238.422-.764 0-1.457-.133-2.079-.396-.621-.264-1.151-.633-1.59-1.109s-.779-1.047-1.021-1.713c-.242-.666-.363-1.396-.363-2.195 0-.801.13-1.531.389-2.197s.623-1.238 1.091-1.717c.469-.479 1.029-.85 1.683-1.113.653-.264 1.375-.396 2.164-.396.779 0 1.451.121 2.016.363s1.066.57 1.505.984l-.466.658-.119.121c-.044.033-.108.049-.192.049-.064 0-.132-.023-.203-.07l-.255-.174-.348-.223c-.133-.078-.291-.152-.474-.221-.182-.07-.395-.127-.636-.174-.242-.047-.521-.07-.836-.07-.567 0-1.086.098-1.557.291-.471.195-.876.473-1.217.832-.34.361-.605.799-.795 1.316-.19.52-.285 1.098-.285 1.74 0 .66.095 1.25.285 1.768s.449.955.777 1.312c.328.357.716.631 1.165.816.449.188.932.281 1.45.281.315 0 .599-.018.851-.055s.485-.096.699-.174.414-.18.599-.299c.185-.121.371-.266.559-.434.083-.073.164-.11.244-.11zM219.507 525.574c.547 0 1.042.092 1.483.273.441.184.816.441 1.125.777s.545.74.71 1.217c.166.477.248 1.008.248 1.594 0 .592-.083 1.125-.248 1.598-.165.475-.402.879-.71 1.213-.308.336-.683.594-1.125.773s-.936.27-1.483.27-1.042-.09-1.483-.27c-.441-.18-.817-.438-1.128-.773-.311-.334-.55-.738-.717-1.213-.168-.473-.251-1.006-.251-1.598 0-.586.083-1.117.251-1.594.167-.477.407-.881.717-1.217.311-.336.687-.594 1.128-.777.441-.181.935-.273 1.483-.273zm0 6.688c.74 0 1.292-.248 1.657-.744s.547-1.188.547-2.074c0-.893-.182-1.588-.547-2.086-.365-.498-.917-.748-1.657-.748-.375 0-.7.064-.977.193-.276.127-.506.312-.691.555s-.323.539-.415.891c-.091.354-.137.752-.137 1.195s.045.84.137 1.191c.091.35.229.645.415.883.185.24.416.424.691.551.277.128.602.193.977.193zM224.7 533.186v-7.492h.754c.143 0 .242.027.296.08.054.055.091.148.111.281l.089 1.17c.256-.523.573-.932.951-1.225.377-.293.82-.441 1.328-.441.207 0 .395.025.562.07.168.047.323.113.466.197l-.17.984c-.034.123-.111.184-.229.184-.069 0-.175-.023-.318-.07s-.343-.07-.599-.07c-.458 0-.842.133-1.15.4-.308.266-.565.652-.773 1.16v4.771h-1.318zM230.662 533.186v-7.492h.754c.143 0 .242.027.296.08.054.055.091.148.111.281l.089 1.17c.256-.523.573-.932.951-1.225.377-.293.82-.441 1.328-.441.207 0 .395.025.562.07.168.047.323.113.466.197l-.17.984c-.034.123-.111.184-.229.184-.069 0-.175-.023-.318-.07s-.343-.07-.599-.07c-.458 0-.842.133-1.15.4-.308.266-.565.652-.773 1.16v4.771h-1.318zM237.763 525.693v4.777c0 .568.13 1.006.392 1.316.261.312.656.467 1.184.467.384 0 .747-.092 1.087-.273.34-.182.653-.438.939-.762v-5.525h1.317v7.492h-.784c-.188 0-.306-.09-.355-.273l-.104-.807c-.326.361-.69.65-1.095.869-.404.221-.868.33-1.391.33-.41 0-.771-.068-1.084-.203-.313-.137-.576-.328-.788-.574s-.371-.545-.477-.895-.159-.738-.159-1.162v-4.777h1.318zM244.849 535.723v-10.029h.784c.187 0 .306.09.355.273l.111.887c.32-.389.687-.703 1.099-.939.412-.236.886-.355 1.424-.355.429 0 .818.084 1.168.248.35.166.648.41.896.732.246.324.436.725.569 1.203s.2 1.027.2 1.648c0 .553-.074 1.066-.222 1.543s-.36.887-.636 1.234c-.276.348-.615.623-1.017.822-.402.199-.854.299-1.357.299-.464 0-.859-.076-1.188-.229-.328-.152-.618-.371-.869-.65v3.312h-1.317zm3.336-9.098c-.429 0-.805.098-1.128.295-.323.197-.62.477-.892.836v3.625c.242.326.507.555.795.688.289.135.61.201.965.201.695 0 1.23-.25 1.605-.748s.562-1.207.562-2.131c0-.488-.043-.906-.13-1.258-.086-.35-.21-.637-.374-.861-.163-.225-.362-.389-.599-.492-.234-.104-.503-.155-.804-.155zM255.286 533.305c-.592 0-1.047-.166-1.365-.496-.318-.33-.478-.807-.478-1.428v-4.586h-.902c-.079 0-.146-.023-.2-.07s-.081-.119-.081-.219v-.525l1.228-.154.303-2.316c.01-.072.042-.133.096-.18s.124-.07.208-.07h.666v2.58h2.145v.955h-2.145v4.498c0 .314.076.549.229.701.153.154.35.23.592.23.138 0 .257-.02.358-.057l.263-.121.188-.121.137-.057c.069 0 .13.043.185.125l.385.629c-.227.213-.5.379-.821.5-.32.121-.651.182-.991.182zM260.293 523.34c0 .129-.026.248-.078.359s-.121.209-.207.295c-.086.088-.186.154-.299.205-.114.049-.234.072-.363.072s-.248-.023-.359-.072c-.111-.051-.209-.117-.296-.205-.086-.086-.154-.184-.203-.295s-.074-.23-.074-.359c0-.127.025-.25.074-.365s.117-.217.203-.303c.086-.088.185-.154.296-.205.111-.049.23-.072.359-.072s.249.023.363.072c.113.051.213.117.299.205.086.086.155.188.207.303s.078.238.078.365zm-.295 2.353v7.492h-1.316v-7.492h1.316zM265.353 525.574c.547 0 1.042.092 1.483.273.441.184.816.441 1.125.777s.545.74.71 1.217c.166.477.248 1.008.248 1.594 0 .592-.083 1.125-.248 1.598-.165.475-.402.879-.71 1.213-.308.336-.683.594-1.125.773s-.936.27-1.483.27-1.042-.09-1.483-.27c-.441-.18-.817-.438-1.128-.773-.311-.334-.55-.738-.717-1.213-.168-.473-.251-1.006-.251-1.598 0-.586.083-1.117.251-1.594.167-.477.407-.881.717-1.217.311-.336.687-.594 1.128-.777.441-.181.936-.273 1.483-.273zm0 6.688c.74 0 1.292-.248 1.657-.744s.547-1.188.547-2.074c0-.893-.182-1.588-.547-2.086-.365-.498-.917-.748-1.657-.748-.375 0-.7.064-.977.193-.276.127-.506.312-.691.555s-.323.539-.415.891c-.091.354-.137.752-.137 1.195s.045.84.137 1.191c.091.35.229.645.415.883.185.24.416.424.691.551.277.128.602.193.977.193zM270.546 533.186v-7.492h.784c.187 0 .306.09.355.273l.104.812c.325-.359.689-.65 1.091-.873.402-.221.867-.332 1.395-.332.409 0 .771.068 1.083.203.313.137.575.328.784.578.209.248.369.549.477.898s.163.736.163 1.16v4.771h-1.317v-4.771c0-.566-.129-1.006-.388-1.32-.259-.312-.655-.469-1.188-.469-.39 0-.753.094-1.091.281-.338.188-.65.441-.936.762v5.518h-1.316zM283.387 523.34c0 .129-.026.248-.078.359s-.121.209-.207.295c-.086.088-.186.154-.299.205-.114.049-.234.072-.363.072s-.248-.023-.359-.072c-.111-.051-.209-.117-.296-.205-.086-.086-.154-.184-.203-.295s-.074-.23-.074-.359c0-.127.025-.25.074-.365s.117-.217.203-.303c.086-.088.185-.154.296-.205.111-.049.23-.072.359-.072s.249.023.363.072c.113.051.213.117.299.205.086.086.155.188.207.303s.078.238.078.365zm-.296 2.353v7.492h-1.316v-7.492h1.316zM285.414 533.186v-7.492h.784c.187 0 .306.09.355.273l.104.812c.325-.359.689-.65 1.091-.873.402-.221.867-.332 1.395-.332.409 0 .771.068 1.083.203.313.137.575.328.784.578.209.248.369.549.477.898s.163.736.163 1.16v4.771h-1.317v-4.771c0-.566-.129-1.006-.388-1.32-.259-.312-.655-.469-1.188-.469-.39 0-.753.094-1.091.281-.338.188-.65.441-.936.762v5.518h-1.316zM213.834 543.328c.449 0 .863.074 1.243.225.379.15.708.367.984.65.276.285.492.635.647 1.051.155.418.233.893.233 1.424 0 .207-.022.346-.066.414-.044.07-.128.104-.251.104h-4.986c.01.475.074.887.192 1.236.119.35.281.643.488.877s.454.408.74.525c.286.115.606.174.961.174.331 0 .615-.039.854-.115s.445-.16.618-.248c.172-.088.317-.172.433-.248s.216-.115.3-.115c.108 0 .192.043.251.127l.37.48c-.163.197-.357.369-.584.514-.227.146-.47.266-.729.359-.259.094-.526.164-.802.211-.276.047-.55.07-.821.07-.518 0-.995-.088-1.431-.264-.437-.174-.814-.432-1.132-.77-.318-.336-.566-.754-.744-1.254-.177-.498-.266-1.068-.266-1.715 0-.523.08-1.012.24-1.465s.391-.848.692-1.18c.301-.334.668-.594 1.102-.785.433-.188.922-.282 1.464-.282zm.029.969c-.636 0-1.137.184-1.501.551-.365.367-.592.877-.681 1.527h4.076c0-.307-.042-.586-.125-.84s-.207-.473-.37-.658c-.163-.186-.361-.328-.595-.43-.235-.099-.503-.15-.804-.15zM218.62 550.939v-7.494h.784c.187 0 .306.092.355.273l.096.77c.276-.34.585-.619.928-.836s.741-.324 1.195-.324c.508 0 .918.141 1.231.42.313.281.539.662.677 1.141.104-.271.24-.506.411-.703.17-.197.361-.359.573-.488s.438-.223.677-.281.482-.088.729-.088c.395 0 .746.062 1.054.188.308.127.57.311.784.551.214.242.378.539.492.893.113.352.17.756.17 1.209v4.771h-1.317v-4.771c0-.588-.128-1.031-.385-1.336-.256-.303-.628-.455-1.117-.455-.217 0-.423.039-.618.115s-.366.189-.514.336c-.148.148-.265.334-.352.559-.086.225-.129.484-.129.781v4.771h-1.316v-4.771c0-.602-.121-1.051-.363-1.346-.242-.297-.594-.445-1.058-.445-.325 0-.627.088-.906.264-.278.174-.534.412-.766.713v5.586h-1.315zM230.766 553.477v-10.031h.784c.187 0 .306.092.355.273l.111.889c.32-.391.687-.703 1.099-.939.412-.236.886-.355 1.424-.355.429 0 .818.082 1.168.248.35.164.648.408.896.732.246.322.436.723.569 1.201s.2 1.029.2 1.65c0 .553-.074 1.066-.222 1.543-.148.475-.36.887-.636 1.234-.276.348-.615.621-1.017.82-.402.201-.854.301-1.357.301-.464 0-.859-.076-1.188-.23-.328-.152-.618-.369-.869-.65v3.314h-1.317zm3.336-9.1c-.429 0-.805.1-1.128.297-.323.197-.62.477-.892.836v3.625c.242.324.507.555.795.688s.61.199.965.199c.695 0 1.23-.248 1.605-.746s.562-1.209.562-2.131c0-.488-.043-.908-.13-1.258-.086-.35-.21-.637-.374-.861-.163-.225-.362-.389-.599-.492-.235-.104-.504-.157-.804-.157zM240.396 540.043v10.896h-1.316v-10.896h1.316zM245.751 543.328c.547 0 1.042.09 1.483.273.441.182.816.441 1.125.775.308.336.545.742.71 1.217.166.477.248 1.008.248 1.596 0 .592-.083 1.123-.248 1.598-.165.473-.402.877-.71 1.213-.308.334-.683.592-1.125.773-.441.18-.936.27-1.483.27s-1.042-.09-1.483-.27c-.441-.182-.817-.439-1.128-.773-.311-.336-.55-.74-.717-1.213-.168-.475-.251-1.006-.251-1.598 0-.588.083-1.119.251-1.596.167-.475.407-.881.717-1.217.311-.334.687-.594 1.128-.775.441-.183.936-.273 1.483-.273zm0 6.686c.74 0 1.292-.248 1.657-.742.365-.496.547-1.188.547-2.076 0-.893-.182-1.588-.547-2.086-.365-.498-.917-.746-1.657-.746-.375 0-.7.064-.977.191-.276.129-.506.314-.691.555-.185.242-.323.539-.415.893-.091.352-.137.75-.137 1.193 0 .445.045.842.137 1.191s.229.645.415.885c.185.238.416.422.691.551.277.128.602.191.977.191zM252.949 553.15c-.044.1-.1.178-.167.236-.066.061-.169.09-.307.09h-.975l1.368-2.975-3.092-7.057h1.139c.113 0 .202.029.266.086.064.057.111.119.141.188l2.005 4.721.115.324.085.334.104-.334.118-.332 1.945-4.713c.03-.078.081-.145.152-.195.071-.053.149-.078.233-.078h1.05l-4.18 9.705zM258.327 550.939v-7.494h.784c.187 0 .306.092.355.273l.096.77c.276-.34.585-.619.928-.836s.741-.324 1.195-.324c.508 0 .918.141 1.231.42.313.281.539.662.677 1.141.104-.271.24-.506.411-.703.17-.197.361-.359.573-.488s.438-.223.677-.281.482-.088.729-.088c.395 0 .746.062 1.054.188.308.127.57.311.784.551.214.242.378.539.492.893.113.352.17.756.17 1.209v4.771h-1.317v-4.771c0-.588-.128-1.031-.385-1.336-.256-.303-.628-.455-1.117-.455-.217 0-.423.039-.618.115s-.366.189-.514.336c-.148.148-.265.334-.352.559-.086.225-.129.484-.129.781v4.771h-1.316v-4.771c0-.602-.121-1.051-.363-1.346-.242-.297-.594-.445-1.058-.445-.325 0-.627.088-.906.264-.278.174-.534.412-.766.713v5.586h-1.315zM273.439 543.328c.449 0 .863.074 1.243.225.379.15.708.367.984.65.276.285.492.635.647 1.051.155.418.233.893.233 1.424 0 .207-.022.346-.066.414-.044.07-.128.104-.251.104h-4.986c.01.475.074.887.192 1.236.119.35.281.643.488.877s.454.408.74.525c.286.115.606.174.961.174.331 0 .615-.039.854-.115s.445-.16.618-.248c.172-.088.317-.172.433-.248s.216-.115.3-.115c.108 0 .192.043.251.127l.37.48c-.163.197-.357.369-.584.514-.227.146-.47.266-.729.359-.259.094-.526.164-.802.211-.276.047-.55.07-.821.07-.518 0-.995-.088-1.431-.264-.437-.174-.814-.432-1.132-.77-.318-.336-.566-.754-.744-1.254-.177-.498-.266-1.068-.266-1.715 0-.523.08-1.012.24-1.465s.391-.848.692-1.18c.301-.334.668-.594 1.102-.785.434-.188.922-.282 1.464-.282zm.03.969c-.636 0-1.137.184-1.501.551-.365.367-.592.877-.681 1.527h4.076c0-.307-.042-.586-.125-.84s-.207-.473-.37-.658c-.163-.186-.361-.328-.595-.43-.236-.099-.503-.15-.804-.15zM278.225 550.939v-7.494h.784c.187 0 .306.092.355.273l.104.814c.325-.359.689-.65 1.091-.873s.867-.332 1.395-.332c.409 0 .771.066 1.083.203.313.135.575.328.784.576.209.25.369.549.477.898.108.352.163.738.163 1.162v4.771h-1.317v-4.771c0-.566-.129-1.008-.388-1.32-.259-.312-.655-.471-1.188-.471-.39 0-.753.094-1.091.281-.338.188-.65.441-.936.762v5.52h-1.316zM288.722 551.057c-.592 0-1.047-.164-1.365-.494-.318-.332-.478-.807-.478-1.428v-4.588h-.902c-.079 0-.146-.021-.2-.07-.054-.045-.081-.119-.081-.217v-.525l1.228-.156.303-2.314c.01-.074.042-.135.096-.182s.124-.07.208-.07h.666v2.582h2.145v.953h-2.145v4.498c0 .316.076.551.229.703.153.152.35.229.592.229.138 0 .257-.018.358-.055l.263-.123.188-.121.137-.055c.069 0 .13.041.185.125l.385.629c-.227.213-.5.379-.821.5-.321.118-.651.179-.991.179z"/></g><g fill="#fff"><path d="M342.123 530.996c.079 0 .15.033.214.096l.562.615c-.434.502-.96.895-1.579 1.176-.619.281-1.365.422-2.238.422-.764 0-1.457-.133-2.079-.396-.621-.264-1.151-.633-1.59-1.109s-.779-1.047-1.021-1.713c-.242-.666-.363-1.396-.363-2.195 0-.801.13-1.531.389-2.197s.623-1.238 1.091-1.717c.469-.479 1.029-.85 1.683-1.113.653-.264 1.375-.396 2.164-.396.779 0 1.451.121 2.016.363s1.066.57 1.505.984l-.466.658-.119.121c-.044.033-.108.049-.192.049-.064 0-.132-.023-.203-.07l-.255-.174-.348-.223c-.133-.078-.291-.152-.474-.221-.182-.07-.395-.127-.636-.174-.242-.047-.521-.07-.836-.07-.567 0-1.086.098-1.557.291-.471.195-.876.473-1.217.832-.34.361-.605.799-.795 1.316-.19.52-.285 1.098-.285 1.74 0 .66.095 1.25.285 1.768s.449.955.777 1.312c.328.357.716.631 1.165.816.449.188.932.281 1.45.281.315 0 .599-.018.851-.055s.485-.096.699-.174.414-.18.599-.299c.185-.121.371-.266.559-.434.083-.073.164-.11.244-.11zM347.611 525.574c.547 0 1.042.092 1.483.273.441.184.816.441 1.125.777s.545.74.71 1.217c.166.477.248 1.008.248 1.594 0 .592-.083 1.125-.248 1.598-.165.475-.402.879-.71 1.213-.308.336-.683.594-1.125.773s-.936.27-1.483.27-1.042-.09-1.483-.27c-.441-.18-.817-.438-1.128-.773-.311-.334-.55-.738-.717-1.213-.168-.473-.251-1.006-.251-1.598 0-.586.083-1.117.251-1.594.167-.477.407-.881.717-1.217.311-.336.687-.594 1.128-.777.441-.181.935-.273 1.483-.273zm0 6.688c.74 0 1.292-.248 1.657-.744s.547-1.188.547-2.074c0-.893-.182-1.588-.547-2.086-.365-.498-.917-.748-1.657-.748-.375 0-.7.064-.977.193-.276.127-.506.312-.691.555s-.323.539-.415.891c-.091.354-.137.752-.137 1.195s.045.84.137 1.191c.091.35.229.645.415.883.185.24.416.424.691.551.277.128.602.193.977.193zM352.804 533.186v-7.492h.784c.187 0 .306.09.355.273l.104.812c.325-.359.689-.65 1.091-.873.402-.221.867-.332 1.395-.332.409 0 .771.068 1.083.203.313.137.575.328.784.578.209.248.369.549.477.898s.163.736.163 1.16v4.771h-1.317v-4.771c0-.566-.129-1.006-.388-1.32-.259-.312-.655-.469-1.188-.469-.39 0-.753.094-1.091.281-.338.188-.65.441-.936.762v5.518h-1.316zM365.319 526.928c-.059.109-.15.162-.273.162-.074 0-.158-.025-.251-.08l-.344-.182s-.297-.129-.484-.186-.409-.084-.666-.084c-.222 0-.422.027-.599.084-.178.057-.33.135-.455.234-.126.098-.222.213-.289.344s-.1.271-.1.426c0 .191.055.352.166.48.111.127.258.238.44.332.182.094.389.176.621.248l.714.229c.244.082.482.172.714.271.232.098.439.221.622.369.182.148.329.33.44.543.111.215.167.473.167.773 0 .346-.062.664-.185.959-.123.293-.306.547-.547.762s-.538.383-.888.506-.754.186-1.213.186c-.523 0-.996-.086-1.42-.256s-.784-.389-1.08-.654l.311-.504.14-.146c.054-.035.126-.053.215-.053.088 0 .182.035.281.104l.359.23s.311.16.51.229.45.104.751.104c.256 0 .481-.033.673-.1s.353-.156.48-.27c.128-.113.223-.244.285-.393.062-.148.092-.307.092-.473 0-.207-.056-.379-.167-.516-.111-.135-.258-.25-.44-.348-.183-.096-.391-.18-.625-.25l-.718-.227s-.483-.168-.717-.27c-.234-.102-.443-.229-.625-.381-.183-.152-.33-.342-.44-.566s-.167-.496-.167-.816c0-.287.059-.562.178-.826.118-.264.291-.494.518-.695.227-.199.505-.357.836-.477s.708-.178 1.132-.178c.493 0 .936.078 1.328.232.392.156.731.369 1.017.641l-.297.483zM369.721 533.305c-.592 0-1.047-.166-1.365-.496-.318-.33-.478-.807-.478-1.428v-4.586h-.902c-.079 0-.146-.023-.2-.07s-.081-.119-.081-.219v-.525l1.228-.154.303-2.316c.01-.072.042-.133.096-.18s.124-.07.208-.07h.666v2.58h2.145v.955h-2.145v4.498c0 .314.076.549.229.701.153.154.35.23.592.23.138 0 .257-.02.358-.057l.263-.121.188-.121.137-.057c.069 0 .13.043.185.125l.385.629c-.227.213-.5.379-.821.5-.321.121-.651.182-.991.182zM372.968 533.186v-7.492h.754c.143 0 .242.027.296.08.054.055.091.148.111.281l.089 1.17c.256-.523.573-.932.951-1.225.377-.293.82-.441 1.328-.441.207 0 .395.025.562.07.168.047.323.113.466.197l-.17.984c-.034.123-.111.184-.229.184-.069 0-.175-.023-.318-.07s-.343-.07-.599-.07c-.458 0-.842.133-1.15.4-.308.266-.565.652-.773 1.16v4.771h-1.318zM380.069 525.693v4.777c0 .568.13 1.006.392 1.316.261.312.656.467 1.184.467.384 0 .747-.092 1.087-.273.34-.182.653-.438.939-.762v-5.525h1.317v7.492h-.784c-.188 0-.306-.09-.355-.273l-.104-.807c-.326.361-.69.65-1.095.869-.404.221-.868.33-1.391.33-.41 0-.771-.068-1.084-.203-.313-.137-.576-.328-.788-.574s-.371-.545-.477-.895-.159-.738-.159-1.162v-4.777h1.318zM392.267 527.023l-.118.127-.17.043c-.074 0-.154-.029-.24-.092l-.329-.203c-.133-.074-.295-.143-.485-.203-.19-.062-.423-.092-.699-.092-.365 0-.688.064-.969.195s-.517.318-.707.566c-.189.246-.333.545-.429.895s-.145.742-.145 1.176c0 .453.052.857.155 1.209.104.354.249.648.437.889.188.238.416.422.685.547.269.125.57.189.906.189.321 0 .584-.039.792-.115.208-.076.38-.162.518-.256l.34-.254c.088-.078.177-.115.266-.115.113 0 .197.041.251.125l.37.48c-.326.4-.732.693-1.221.877-.488.186-1.003.277-1.546.277-.469 0-.904-.086-1.306-.258-.402-.174-.751-.424-1.047-.752s-.529-.73-.699-1.209c-.17-.479-.255-1.023-.255-1.635 0-.557.078-1.072.233-1.545.155-.475.382-.883.681-1.225.298-.344.667-.611 1.106-.803.439-.193.942-.289 1.509-.289.523 0 .986.086 1.391.256s.762.41 1.073.721l-.348.474zM396.335 533.305c-.592 0-1.047-.166-1.365-.496-.318-.33-.478-.807-.478-1.428v-4.586h-.902c-.079 0-.146-.023-.2-.07s-.081-.119-.081-.219v-.525l1.228-.154.303-2.316c.01-.072.042-.133.096-.18s.124-.07.208-.07h.666v2.58h2.145v.955h-2.145v4.498c0 .314.076.549.229.701.153.154.35.23.592.23.138 0 .257-.02.358-.057l.263-.121.188-.121.137-.057c.069 0 .13.043.185.125l.385.629c-.227.213-.5.379-.821.5-.321.121-.651.182-.991.182zM401.342 523.34c0 .129-.025.248-.077.359s-.12.209-.207.295c-.086.088-.186.154-.299.205-.114.049-.234.072-.363.072s-.248-.023-.359-.072c-.111-.051-.209-.117-.296-.205-.086-.086-.154-.184-.203-.295s-.074-.23-.074-.359c0-.127.025-.25.074-.365s.117-.217.203-.303c.086-.088.185-.154.296-.205.111-.049.23-.072.359-.072s.249.023.363.072c.113.051.213.117.299.205.087.086.155.188.207.303s.077.238.077.365zm-.295 2.353v7.492h-1.317v-7.492h1.317zM406.401 525.574c.548 0 1.042.092 1.483.273.441.184.816.441 1.125.777.308.336.544.74.71 1.217.165.477.247 1.008.247 1.594 0 .592-.082 1.125-.247 1.598-.166.475-.402.879-.71 1.213-.309.336-.684.594-1.125.773s-.936.27-1.483.27-1.041-.09-1.482-.27-.817-.438-1.128-.773c-.311-.334-.55-.738-.718-1.213-.168-.473-.252-1.006-.252-1.598 0-.586.084-1.117.252-1.594s.407-.881.718-1.217.687-.594 1.128-.777c.441-.181.935-.273 1.482-.273zm0 6.688c.74 0 1.292-.248 1.657-.744s.548-1.188.548-2.074c0-.893-.183-1.588-.548-2.086s-.917-.748-1.657-.748c-.374 0-.7.064-.976.193-.276.127-.507.312-.692.555-.185.242-.322.539-.414.891-.091.354-.137.752-.137 1.195s.046.84.137 1.191c.092.35.229.645.414.883.186.24.416.424.692.551.276.128.602.193.976.193zM411.595 533.186v-7.492h.784c.188 0 .306.09.354.273l.104.812c.326-.359.689-.65 1.092-.873.401-.221.866-.332 1.395-.332.409 0 .77.068 1.083.203.313.137.574.328.784.578.21.248.369.549.478.898s.162.736.162 1.16v4.771h-1.316v-4.771c0-.566-.13-1.006-.389-1.32-.259-.312-.654-.469-1.187-.469-.39 0-.754.094-1.092.281s-.649.441-.936.762v5.518h-1.316zM424.437 523.34c0 .129-.026.248-.078.359s-.121.209-.207.295c-.086.088-.187.154-.3.205-.113.049-.234.072-.362.072s-.248-.023-.358-.072c-.111-.051-.21-.117-.296-.205-.087-.086-.154-.184-.204-.295-.049-.111-.073-.23-.073-.359 0-.127.024-.25.073-.365.05-.115.117-.217.204-.303.086-.088.185-.154.296-.205.11-.049.23-.072.358-.072s.249.023.362.072c.113.051.214.117.3.205.086.086.155.188.207.303s.078.238.078.365zm-.296 2.353v7.492h-1.317v-7.492h1.317zM426.463 533.186v-7.492h.784c.188 0 .306.09.354.273l.104.812c.326-.359.689-.65 1.092-.873.401-.221.866-.332 1.395-.332.409 0 .77.068 1.083.203.313.137.574.328.784.578.21.248.369.549.478.898s.162.736.162 1.16v4.771h-1.316v-4.771c0-.566-.13-1.006-.389-1.32-.259-.312-.654-.469-1.187-.469-.39 0-.754.094-1.092.281s-.649.441-.936.762v5.518h-1.316zM342.145 553.477v-10.031h.784c.187 0 .306.092.355.273l.111.889c.32-.391.687-.703 1.099-.939.412-.236.886-.355 1.424-.355.429 0 .818.082 1.168.248.35.164.648.408.896.732.246.322.436.723.569 1.201s.2 1.029.2 1.65c0 .553-.074 1.066-.222 1.543-.148.475-.36.887-.636 1.234-.276.348-.615.621-1.017.82-.402.201-.854.301-1.357.301-.464 0-.859-.076-1.188-.23-.328-.152-.618-.369-.869-.65v3.314h-1.317zm3.335-9.1c-.429 0-.805.1-1.128.297-.323.197-.62.477-.892.836v3.625c.242.324.507.555.795.688s.61.199.965.199c.695 0 1.23-.248 1.605-.746s.562-1.209.562-2.131c0-.488-.043-.908-.13-1.258-.086-.35-.21-.637-.374-.861-.163-.225-.362-.389-.599-.492-.234-.104-.503-.157-.804-.157zM350.311 550.939v-7.494h.754c.143 0 .242.027.296.082s.091.148.111.281l.089 1.168c.256-.521.573-.93.951-1.225.377-.293.82-.439 1.328-.439.207 0 .395.023.562.07.168.047.323.111.466.195l-.17.984c-.034.123-.111.186-.229.186-.069 0-.175-.023-.318-.07s-.343-.07-.599-.07c-.458 0-.842.133-1.15.398-.308.268-.565.654-.773 1.162v4.771h-1.318zM359.305 543.328c.547 0 1.042.09 1.483.273.441.182.816.441 1.125.775.308.336.545.742.71 1.217.166.477.248 1.008.248 1.596 0 .592-.083 1.123-.248 1.598-.165.473-.402.877-.71 1.213-.308.334-.683.592-1.125.773-.441.18-.936.27-1.483.27s-1.042-.09-1.483-.27c-.441-.182-.817-.439-1.128-.773-.311-.336-.55-.74-.717-1.213-.168-.475-.251-1.006-.251-1.598 0-.588.083-1.119.251-1.596.167-.475.407-.881.717-1.217.311-.334.687-.594 1.128-.775.441-.183.936-.273 1.483-.273zm0 6.686c.74 0 1.292-.248 1.657-.742.365-.496.547-1.188.547-2.076 0-.893-.182-1.588-.547-2.086-.365-.498-.917-.746-1.657-.746-.375 0-.7.064-.977.191-.276.129-.506.314-.691.555-.185.242-.323.539-.415.893-.091.352-.137.75-.137 1.193 0 .445.045.842.137 1.191s.229.645.415.885c.185.238.416.422.691.551.277.128.602.191.977.191zM369.609 544.777l-.118.125-.17.045c-.074 0-.154-.031-.24-.092l-.329-.203c-.133-.074-.295-.143-.485-.205-.19-.061-.423-.092-.699-.092-.365 0-.688.066-.969.195-.281.131-.517.32-.707.566-.189.246-.333.545-.429.895-.096.352-.145.742-.145 1.178 0 .453.052.855.155 1.209.104.352.249.648.437.887.188.24.416.422.685.549.269.125.57.188.906.188.321 0 .584-.037.792-.115.208-.076.38-.16.518-.254l.34-.256c.088-.076.177-.115.266-.115.113 0 .197.043.251.127l.37.48c-.326.398-.732.691-1.221.877-.488.184-1.003.277-1.546.277-.469 0-.904-.086-1.306-.26-.402-.172-.751-.422-1.047-.75s-.529-.73-.699-1.209c-.17-.479-.255-1.023-.255-1.635 0-.559.078-1.074.233-1.547s.382-.881.681-1.225c.298-.342.667-.609 1.106-.803.439-.191.942-.287 1.509-.287.523 0 .986.084 1.391.254s.762.41 1.073.721l-.348.475zM372.546 543.445v4.779c0 .566.13 1.006.392 1.316.261.311.656.467 1.184.467.384 0 .747-.092 1.087-.275.34-.182.653-.436.939-.762v-5.525h1.317v7.494h-.784c-.188 0-.306-.092-.355-.273l-.104-.807c-.326.359-.69.648-1.095.869-.404.219-.868.328-1.391.328-.41 0-.771-.066-1.084-.203-.313-.135-.576-.326-.788-.572-.212-.248-.371-.545-.477-.896-.106-.35-.159-.736-.159-1.16v-4.779h1.318zM379.632 550.939v-7.494h.754c.143 0 .242.027.296.082s.091.148.111.281l.089 1.168c.256-.521.573-.93.951-1.225.377-.293.82-.439 1.328-.439.207 0 .395.023.562.07.168.047.323.111.466.195l-.17.984c-.034.123-.111.186-.229.186-.069 0-.175-.023-.318-.07s-.343-.07-.599-.07c-.458 0-.842.133-1.15.398-.308.268-.565.654-.773 1.162v4.771h-1.318zM388.561 543.328c.449 0 .863.074 1.243.225.379.15.708.367.984.65.276.285.492.635.647 1.051.155.418.233.893.233 1.424 0 .207-.022.346-.066.414-.044.07-.128.104-.251.104h-4.986c.01.475.074.887.192 1.236.119.35.281.643.488.877s.454.408.74.525c.286.115.606.174.961.174.331 0 .615-.039.854-.115s.445-.16.618-.248c.172-.088.317-.172.433-.248s.216-.115.3-.115c.108 0 .192.043.251.127l.37.48c-.163.197-.357.369-.584.514-.227.146-.47.266-.729.359-.259.094-.526.164-.802.211-.276.047-.55.07-.821.07-.518 0-.995-.088-1.431-.264-.437-.174-.814-.432-1.132-.77-.318-.336-.566-.754-.744-1.254-.177-.498-.266-1.068-.266-1.715 0-.523.08-1.012.24-1.465s.391-.848.692-1.18c.301-.334.668-.594 1.102-.785.433-.188.921-.282 1.464-.282zm.029.969c-.636 0-1.137.184-1.501.551-.365.367-.592.877-.681 1.527h4.076c0-.307-.042-.586-.125-.84s-.207-.473-.37-.658c-.163-.186-.361-.328-.595-.43-.236-.099-.503-.15-.804-.15zM393.346 550.939v-7.494h.784c.187 0 .306.092.355.273l.096.77c.276-.34.585-.619.928-.836s.741-.324 1.195-.324c.508 0 .918.141 1.231.42.313.281.539.662.677 1.141.104-.271.24-.506.411-.703.17-.197.361-.359.573-.488s.438-.223.677-.281.482-.088.729-.088c.395 0 .746.062 1.055.188.309.127.568.311.783.551.215.242.379.539.492.893.113.352.17.756.17 1.209v4.771h-1.316v-4.771c0-.588-.129-1.031-.385-1.336-.256-.303-.629-.455-1.117-.455-.217 0-.423.039-.618.115s-.366.189-.514.336c-.148.148-.265.334-.352.559-.086.225-.129.484-.129.781v4.771h-1.316v-4.771c0-.602-.121-1.051-.363-1.346-.242-.297-.594-.445-1.058-.445-.325 0-.627.088-.906.264-.278.174-.534.412-.766.713v5.586h-1.316zM408.458 543.328c.449 0 .863.074 1.243.225s.707.367.983.65c.276.285.492.635.647 1.051.155.418.233.893.233 1.424 0 .207-.022.346-.067.414-.044.07-.128.104-.251.104h-4.985c.01.475.073.887.192 1.236.118.35.28.643.488.877.207.234.453.408.739.525.286.115.606.174.962.174.33 0 .615-.039.854-.115.238-.076.444-.16.617-.248l.433-.248s.216-.115.3-.115c.108 0 .192.043.251.127l.37.48c-.162.197-.357.369-.584.514-.228.146-.47.266-.729.359s-.526.164-.803.211-.55.07-.821.07c-.518 0-.995-.088-1.432-.264-.437-.174-.813-.432-1.132-.77-.317-.336-.565-.754-.743-1.254-.178-.498-.266-1.068-.266-1.715 0-.523.08-1.012.24-1.465s.391-.848.691-1.18c.301-.334.668-.594 1.103-.785.437-.188.925-.282 1.467-.282zm.03.969c-.637 0-1.137.184-1.502.551s-.592.877-.681 1.527h4.076c0-.307-.042-.586-.126-.84s-.207-.473-.37-.658c-.162-.186-.361-.328-.596-.43-.232-.099-.5-.15-.801-.15zM413.244 550.939v-7.494h.784c.188 0 .306.092.354.273l.104.814c.326-.359.689-.65 1.092-.873.401-.223.866-.332 1.395-.332.409 0 .77.066 1.083.203.313.135.574.328.784.576.21.25.369.549.478.898.108.352.162.738.162 1.162v4.771h-1.316v-4.771c0-.566-.13-1.008-.389-1.32s-.654-.471-1.187-.471c-.39 0-.754.094-1.092.281s-.649.441-.936.762v5.52h-1.316zM423.74 551.057c-.592 0-1.047-.164-1.364-.494-.318-.332-.478-.807-.478-1.428v-4.588h-.902c-.079 0-.146-.021-.199-.07-.055-.045-.082-.119-.082-.217v-.525l1.229-.156.303-2.314c.01-.074.042-.135.097-.182.054-.047.123-.07.207-.07h.666v2.582h2.145v.953h-2.145v4.498c0 .316.076.551.229.703.153.152.351.229.592.229.139 0 .258-.018.359-.055l.263-.123.188-.121.137-.055c.068 0 .131.041.185.125l.385.629c-.227.213-.501.379-.821.5-.323.118-.653.179-.994.179zM352.552 571.23v-10.031h.784c.187 0 .306.092.355.273l.111.889c.32-.391.687-.703 1.099-.939.412-.236.886-.355 1.424-.355.429 0 .818.082 1.168.248.35.164.648.408.896.732.246.322.436.723.569 1.201s.2 1.029.2 1.65c0 .553-.074 1.066-.222 1.543-.148.475-.36.887-.636 1.234-.276.348-.615.621-1.017.82-.402.201-.854.301-1.357.301-.464 0-.859-.076-1.188-.23-.328-.152-.618-.369-.869-.65v3.314h-1.317zm3.336-9.099c-.429 0-.805.1-1.128.297-.323.197-.62.477-.892.836v3.625c.242.324.507.555.795.688s.61.199.965.199c.695 0 1.23-.248 1.605-.746s.562-1.209.562-2.131c0-.488-.043-.908-.13-1.258-.086-.35-.21-.637-.374-.861-.163-.225-.362-.389-.599-.492-.234-.104-.503-.157-.804-.157zM360.718 568.693v-7.494h.754c.143 0 .242.027.296.082s.091.148.111.281l.089 1.168c.256-.521.573-.93.951-1.225.377-.293.82-.439 1.328-.439.207 0 .395.023.562.07.168.047.323.111.466.195l-.17.984c-.034.123-.111.186-.229.186-.069 0-.175-.023-.318-.07s-.343-.07-.599-.07c-.458 0-.842.133-1.15.398-.308.268-.565.654-.773 1.162v4.771h-1.318zM369.713 561.082c.547 0 1.042.09 1.483.273.441.182.816.441 1.125.775.308.336.545.742.71 1.217.166.477.248 1.008.248 1.596 0 .592-.083 1.123-.248 1.598-.165.473-.402.877-.71 1.213-.308.334-.683.592-1.125.773-.441.18-.936.27-1.483.27s-1.042-.09-1.483-.27c-.441-.182-.817-.439-1.128-.773-.311-.336-.55-.74-.717-1.213-.168-.475-.251-1.006-.251-1.598 0-.588.083-1.119.251-1.596.167-.475.407-.881.717-1.217.311-.334.687-.594 1.128-.775.441-.183.936-.273 1.483-.273zm0 6.686c.74 0 1.292-.248 1.657-.742.365-.496.547-1.188.547-2.076 0-.893-.182-1.588-.547-2.086-.365-.498-.917-.746-1.657-.746-.375 0-.7.064-.977.191-.276.129-.506.314-.691.555-.185.242-.323.539-.415.893-.091.352-.137.75-.137 1.193 0 .445.045.842.137 1.191s.229.645.415.885c.185.238.416.422.691.551.277.128.602.191.977.191zM380.017 562.531l-.118.125-.17.045c-.074 0-.154-.031-.24-.092l-.329-.203c-.133-.074-.295-.143-.485-.205-.19-.061-.423-.092-.699-.092-.365 0-.688.066-.969.195-.281.131-.517.32-.707.566-.189.246-.333.545-.429.895-.096.352-.145.742-.145 1.178 0 .453.052.855.155 1.209.104.352.249.648.437.887.188.24.416.422.685.549.269.125.57.188.906.188.321 0 .584-.037.792-.115.208-.076.38-.16.518-.254l.34-.256c.088-.076.177-.115.266-.115.113 0 .197.043.251.127l.37.48c-.326.398-.732.691-1.221.877-.488.184-1.003.277-1.546.277-.469 0-.904-.086-1.306-.26-.402-.172-.751-.422-1.047-.75s-.529-.73-.699-1.209c-.17-.479-.255-1.023-.255-1.635 0-.559.078-1.074.233-1.547s.382-.881.681-1.225c.298-.342.667-.609 1.106-.803.439-.191.942-.287 1.509-.287.523 0 .986.084 1.391.254s.762.41 1.073.721l-.348.475zM384.781 561.082c.449 0 .863.074 1.243.225.379.15.708.367.984.65.276.285.492.635.647 1.051.155.418.233.893.233 1.424 0 .207-.022.346-.066.414-.044.07-.128.104-.251.104h-4.986c.01.475.074.887.192 1.236.119.35.281.643.488.877s.454.408.74.525c.286.115.606.174.961.174.331 0 .615-.039.854-.115s.445-.16.618-.248c.172-.088.317-.172.433-.248s.216-.115.3-.115c.108 0 .192.043.251.127l.37.48c-.163.197-.357.369-.584.514-.227.146-.47.266-.729.359-.259.094-.526.164-.802.211-.276.047-.55.07-.821.07-.518 0-.995-.088-1.431-.264-.437-.174-.814-.432-1.132-.77-.318-.336-.566-.754-.744-1.254-.177-.498-.266-1.068-.266-1.715 0-.523.08-1.012.24-1.465s.391-.848.692-1.18c.301-.334.668-.594 1.102-.785.433-.188.921-.282 1.464-.282zm.029.969c-.636 0-1.137.184-1.501.551-.365.367-.592.877-.681 1.527h4.076c0-.307-.042-.586-.125-.84s-.207-.473-.37-.658c-.163-.186-.361-.328-.595-.43-.236-.099-.503-.15-.804-.15zM393.856 562.436c-.059.107-.15.162-.273.162-.074 0-.158-.027-.251-.082l-.344-.18c-.136-.068-.297-.129-.484-.186s-.409-.086-.666-.086c-.222 0-.422.029-.599.086-.178.057-.33.135-.455.232-.126.1-.222.213-.289.344s-.1.273-.1.426c0 .191.055.354.166.48.111.129.258.24.44.334.182.094.389.176.621.248l.714.229s.482.172.714.27c.232.1.439.223.622.371.182.146.329.328.44.543s.167.473.167.773c0 .344-.062.664-.185.957s-.306.547-.547.762-.538.385-.888.508-.754.184-1.213.184c-.523 0-.996-.084-1.42-.254s-.784-.389-1.08-.654l.311-.504.14-.148c.054-.033.126-.051.215-.051.088 0 .182.033.281.104l.359.229s.311.16.51.23c.2.068.45.104.751.104.256 0 .481-.033.673-.102.192-.066.353-.156.48-.27.128-.113.223-.244.285-.393.062-.146.092-.305.092-.473 0-.207-.056-.379-.167-.514-.111-.137-.258-.252-.44-.348-.183-.096-.391-.18-.625-.252l-.718-.225c-.244-.08-.483-.17-.717-.271-.234-.1-.443-.227-.625-.381-.183-.152-.33-.342-.44-.564-.111-.225-.167-.498-.167-.818 0-.285.059-.561.178-.824.118-.264.291-.496.518-.695.227-.201.505-.359.836-.479.331-.117.708-.176 1.132-.176.493 0 .936.076 1.328.232.392.154.731.369 1.017.639l-.297.483zM400.277 562.436c-.059.107-.15.162-.273.162-.074 0-.158-.027-.251-.082l-.344-.18c-.136-.068-.297-.129-.484-.186s-.409-.086-.666-.086c-.222 0-.422.029-.599.086-.178.057-.33.135-.455.232-.126.1-.222.213-.289.344s-.1.273-.1.426c0 .191.055.354.166.48.111.129.258.24.44.334.182.094.389.176.621.248l.714.229s.482.172.714.27c.232.1.439.223.622.371.182.146.329.328.44.543s.167.473.167.773c0 .344-.062.664-.185.957s-.306.547-.547.762-.538.385-.888.508-.754.184-1.213.184c-.523 0-.996-.084-1.42-.254s-.784-.389-1.08-.654l.311-.504.14-.148c.054-.033.126-.051.215-.051.088 0 .182.033.281.104l.359.229s.311.16.51.23c.2.068.45.104.751.104.256 0 .481-.033.673-.102.192-.066.353-.156.48-.27.128-.113.223-.244.285-.393.062-.146.092-.305.092-.473 0-.207-.056-.379-.167-.514-.111-.137-.258-.252-.44-.348-.183-.096-.391-.18-.625-.252l-.718-.225c-.244-.08-.483-.17-.717-.271-.234-.1-.443-.227-.625-.381-.183-.152-.33-.342-.44-.564-.111-.225-.167-.498-.167-.818 0-.285.059-.561.178-.824.118-.264.291-.496.518-.695.227-.201.505-.359.836-.479.331-.117.708-.176 1.132-.176.493 0 .936.076 1.328.232.392.154.731.369 1.017.639l-.297.483zM405.373 561.082c.449 0 .863.074 1.243.225s.707.367.983.65c.276.285.492.635.647 1.051.155.418.233.893.233 1.424 0 .207-.022.346-.067.414-.044.07-.128.104-.251.104h-4.985c.01.475.073.887.192 1.236.118.35.28.643.488.877.207.234.453.408.739.525.286.115.606.174.962.174.33 0 .615-.039.854-.115.238-.076.444-.16.617-.248l.433-.248s.216-.115.3-.115c.108 0 .192.043.251.127l.37.48c-.162.197-.357.369-.584.514-.228.146-.47.266-.729.359s-.526.164-.803.211-.55.07-.821.07c-.518 0-.995-.088-1.432-.264-.437-.174-.813-.432-1.132-.77-.317-.336-.565-.754-.743-1.254-.178-.498-.266-1.068-.266-1.715 0-.523.08-1.012.24-1.465s.391-.848.691-1.18c.301-.334.668-.594 1.103-.785.437-.188.925-.282 1.467-.282zm.03.969c-.637 0-1.137.184-1.502.551s-.592.877-.681 1.527h4.076c0-.307-.042-.586-.126-.84s-.207-.473-.37-.658c-.162-.186-.361-.328-.596-.43-.232-.099-.5-.15-.801-.15zM414.449 562.436c-.059.107-.15.162-.273.162-.074 0-.158-.027-.252-.082l-.344-.18c-.136-.068-.297-.129-.484-.186s-.409-.086-.666-.086c-.222 0-.421.029-.599.086s-.329.135-.455.232c-.126.1-.222.213-.288.344-.067.131-.101.273-.101.426 0 .191.056.354.167.48.11.129.257.24.439.334s.39.176.622.248l.714.229s.481.172.714.27c.231.1.438.223.621.371.183.146.329.328.44.543.11.215.166.473.166.773 0 .344-.062.664-.185.957-.124.293-.307.547-.548.762s-.537.385-.888.508-.755.184-1.213.184c-.522 0-.996-.084-1.42-.254-.425-.17-.784-.389-1.08-.654l.311-.504.141-.148c.054-.033.125-.051.214-.051s.183.033.281.104l.359.229c.14.084.311.16.51.23.2.068.45.104.751.104.257 0 .48-.033.673-.102.192-.066.353-.156.481-.27.128-.113.223-.244.284-.393.062-.146.093-.305.093-.473 0-.207-.056-.379-.166-.514-.111-.137-.258-.252-.44-.348s-.391-.18-.625-.252l-.718-.225c-.244-.08-.483-.17-.718-.271-.234-.1-.442-.227-.625-.381-.183-.152-.329-.342-.439-.564-.111-.225-.167-.498-.167-.818 0-.285.06-.561.178-.824s.291-.496.518-.695c.227-.201.506-.359.836-.479.33-.117.708-.176 1.132-.176.493 0 .936.076 1.328.232.392.154.73.369 1.017.639l-.296.483z"/></g><g fill="#fff"><path d="M495.949 533.186v-10.602h3.381c.65 0 1.212.064 1.683.193s.857.311 1.161.547.527.527.673.869c.146.344.219.729.219 1.158 0 .262-.041.514-.122.754-.082.242-.205.467-.37.674s-.372.393-.621.555-.541.295-.877.398c.774.154 1.358.432 1.753.836.395.406.592.938.592 1.6 0 .447-.082.857-.247 1.227-.166.371-.407.688-.726.955-.317.266-.707.473-1.168.617-.462.146-.988.219-1.58.219h-3.751zm1.435-5.852h1.895c.404 0 .754-.045 1.05-.133.296-.09.541-.213.736-.371.194-.156.339-.348.433-.572s.141-.471.141-.736c0-.621-.188-1.078-.562-1.369s-.957-.436-1.745-.436h-1.946v3.617zm0 1.021v3.689h2.294c.409 0 .76-.045 1.054-.139.293-.094.535-.227.725-.396.19-.17.329-.373.418-.607s.134-.492.134-.771c0-.549-.194-.98-.581-1.299s-.973-.477-1.757-.477h-2.287zM505.313 533.186v-7.494h.755c.143 0 .241.027.295.082.055.055.092.148.111.281l.089 1.168c.257-.521.573-.93.95-1.225.378-.293.82-.439 1.328-.439.207 0 .395.023.562.07.167.047.322.111.466.195l-.17.984c-.035.123-.111.186-.229.186-.069 0-.175-.023-.318-.07-.143-.047-.343-.07-.599-.07-.459 0-.843.133-1.15.398-.309.268-.566.654-.773 1.162v4.771h-1.317zM513.036 523.34c0 .127-.026.248-.078.357-.052.111-.121.211-.207.297s-.187.154-.3.203-.234.074-.362.074-.248-.025-.358-.074c-.111-.049-.21-.117-.296-.203-.087-.086-.154-.186-.204-.297-.049-.109-.073-.23-.073-.357 0-.129.024-.25.073-.367.05-.115.117-.217.204-.303.086-.086.185-.154.296-.203.11-.049.23-.074.358-.074s.249.025.362.074.214.117.3.203.155.188.207.303c.052.117.078.238.078.367zm-.296 2.351v7.494h-1.317v-7.494h1.317zM515.106 533.186v-10.896h1.324v4.482c.311-.359.667-.65 1.069-.869.401-.219.861-.328 1.379-.328.435 0 .826.08 1.177.244.35.162.648.404.895.729.247.322.437.723.57 1.197.133.477.199 1.025.199 1.646 0 .553-.074 1.066-.222 1.543-.148.475-.361.887-.64 1.234-.279.348-.619.621-1.021.82-.401.201-.854.301-1.357.301-.483 0-.894-.094-1.231-.281s-.632-.449-.884-.785l-.066.682c-.04.188-.153.281-.341.281h-.851zm3.344-6.563c-.429 0-.805.1-1.128.297s-.62.477-.892.836v3.625c.237.324.499.555.788.688.288.133.61.199.965.199.7 0 1.238-.248 1.613-.746.374-.498.562-1.209.562-2.131 0-.488-.043-.908-.129-1.258-.087-.35-.211-.637-.374-.861-.162-.225-.362-.389-.599-.492-.236-.104-.505-.157-.806-.157zM526.298 525.574c.449 0 .863.074 1.243.225s.707.367.983.65c.276.285.492.635.647 1.051.155.418.233.893.233 1.424 0 .207-.022.346-.067.414-.044.07-.128.104-.251.104h-4.985c.01.475.073.887.192 1.236.118.35.28.643.488.877.207.234.453.408.739.525.286.115.606.174.962.174.33 0 .615-.039.854-.115.238-.076.444-.16.617-.248l.433-.248s.216-.115.3-.115c.108 0 .192.043.251.127l.37.48c-.162.197-.357.369-.584.514-.228.146-.47.266-.729.359s-.526.164-.803.211-.55.07-.821.07c-.518 0-.995-.088-1.432-.264-.437-.174-.813-.432-1.132-.77-.317-.336-.565-.754-.743-1.254-.178-.498-.266-1.068-.266-1.715 0-.523.08-1.012.24-1.465s.391-.848.691-1.18c.301-.334.668-.594 1.103-.785.437-.188.925-.282 1.467-.282zm.03.969c-.637 0-1.137.184-1.502.551s-.592.877-.681 1.527h4.076c0-.307-.042-.586-.126-.84s-.207-.473-.37-.658c-.162-.186-.361-.328-.596-.43-.233-.099-.5-.15-.801-.15zM531.084 533.186v-7.494h.755c.143 0 .241.027.295.082.055.055.092.148.111.281l.089 1.168c.257-.521.573-.93.95-1.225.378-.293.82-.439 1.328-.439.207 0 .395.023.562.07.167.047.322.111.466.195l-.17.984c-.035.123-.111.186-.229.186-.069 0-.175-.023-.318-.07-.143-.047-.343-.07-.599-.07-.459 0-.843.133-1.15.398-.309.268-.566.654-.773 1.162v4.771h-1.317zM539.243 535.396c-.045.1-.101.178-.167.236-.066.061-.169.09-.307.09h-.977l1.368-2.975-3.092-7.057h1.14c.113 0 .202.029.266.086.064.057.111.119.141.188l2.005 4.721.114.324.085.334.104-.334.119-.332 1.945-4.713c.029-.078.08-.145.151-.195.071-.053.149-.078.233-.078h1.05l-4.178 9.705z"/></g><g fill="#fff"><path d="M654.106 527.889c0 .795-.126 1.523-.377 2.186-.252.664-.607 1.234-1.065 1.713-.459.479-1.01.85-1.653 1.113s-1.355.396-2.134.396c-.779 0-1.49-.133-2.131-.396s-1.19-.635-1.649-1.113-.813-1.049-1.065-1.713c-.251-.662-.377-1.391-.377-2.186 0-.793.126-1.523.377-2.186.252-.664.606-1.236 1.065-1.717s1.009-.854 1.649-1.121c.641-.266 1.352-.398 2.131-.398.778 0 1.49.133 2.134.398.644.268 1.194.641 1.653 1.121.458.48.813 1.053 1.065 1.717.251.662.377 1.393.377 2.186zm-1.472 0c0-.65-.088-1.234-.266-1.754-.178-.518-.43-.955-.755-1.312s-.72-.633-1.184-.824c-.463-.193-.981-.289-1.553-.289-.567 0-1.083.096-1.547.289-.463.191-.859.467-1.187.824-.328.357-.581.795-.759 1.312-.177.52-.266 1.104-.266 1.754s.089 1.234.266 1.75c.178.516.431.951.759 1.309.327.357.724.631 1.187.82.464.191.979.285 1.547.285.571 0 1.09-.094 1.553-.285.464-.189.858-.463 1.184-.82s.577-.793.755-1.309.266-1.1.266-1.75zM658.13 533.303c-.592 0-1.047-.164-1.364-.494-.318-.332-.478-.807-.478-1.428v-4.588h-.902c-.079 0-.146-.021-.199-.07-.055-.045-.082-.119-.082-.217v-.525l1.229-.156.303-2.314c.01-.074.042-.135.097-.182.054-.047.123-.07.207-.07h.666v2.582h2.145v.953h-2.145v4.498c0 .316.076.551.229.703.153.152.351.229.592.229.139 0 .258-.018.359-.055l.263-.123.188-.121.137-.055c.068 0 .131.041.185.125l.385.629c-.227.213-.501.379-.821.5-.323.118-.653.179-.994.179zM661.377 533.186v-10.896h1.316v4.408c.32-.34.676-.611 1.065-.816s.838-.307 1.347-.307c.409 0 .77.066 1.083.203.313.135.574.328.784.576.21.25.369.549.478.898.108.352.162.738.162 1.162v4.771h-1.316v-4.771c0-.566-.13-1.008-.389-1.32s-.654-.471-1.187-.471c-.39 0-.754.094-1.092.281s-.649.441-.936.762v5.52h-1.315zM672.568 525.574c.449 0 .863.074 1.243.225s.707.367.983.65c.276.285.492.635.647 1.051.155.418.233.893.233 1.424 0 .207-.022.346-.067.414-.044.07-.128.104-.251.104h-4.985c.01.475.073.887.192 1.236.118.35.28.643.488.877.207.234.453.408.739.525.286.115.606.174.962.174.33 0 .615-.039.854-.115.238-.076.444-.16.617-.248l.433-.248s.216-.115.3-.115c.108 0 .192.043.251.127l.37.48c-.162.197-.357.369-.584.514-.228.146-.47.266-.729.359s-.526.164-.803.211-.55.07-.821.07c-.518 0-.995-.088-1.432-.264-.437-.174-.813-.432-1.132-.77-.317-.336-.565-.754-.743-1.254-.178-.498-.266-1.068-.266-1.715 0-.523.08-1.012.24-1.465s.391-.848.691-1.18c.301-.334.668-.594 1.103-.785.437-.188.925-.282 1.467-.282zm.031.969c-.637 0-1.137.184-1.502.551s-.592.877-.681 1.527h4.076c0-.307-.042-.586-.126-.84s-.207-.473-.37-.658c-.162-.186-.361-.328-.596-.43-.233-.099-.501-.15-.801-.15zM677.354 533.186v-7.494h.755c.143 0 .241.027.295.082.055.055.092.148.111.281l.089 1.168c.257-.521.573-.93.95-1.225.378-.293.82-.439 1.328-.439.207 0 .395.023.562.07.167.047.322.111.466.195l-.17.984c-.035.123-.111.186-.229.186-.069 0-.175-.023-.318-.07-.143-.047-.343-.07-.599-.07-.459 0-.843.133-1.15.398-.309.268-.566.654-.773 1.162v4.771h-1.317z"/></g><g fill="#5DC7C3"><path d="M166.187 419.401v25.357h-96.983v-6.371zM166.187 406.284v6.471l-96.983 18.983v-6.468zM166.187 393.166v6.472l-96.983 18.987v-6.471zM166.187 380.043v6.477l-96.983 18.986v-6.471zM166.187 366.926v6.472l-96.983 18.991v-6.474zM166.187 353.811v6.47l-96.983 18.99v-6.473zM166.187 340.693v6.471l-96.983 18.989v-6.472zM166.187 327.575v6.472l-96.983 18.985v-6.469zM166.187 314.458v6.472l-96.983 18.987v-6.471zM166.187 301.34v6.47l-96.983 18.99v-6.474zM166.187 288.222v6.471l-96.983 18.988v-6.472zM166.187 275.104v6.475l-96.983 18.983v-6.47zM166.187 261.986v6.474l-96.983 18.983v-6.468zM166.187 248.868v6.475l-96.983 18.983v-6.469zM166.187 235.748v6.478l-96.983 18.985v-6.474zM166.187 222.63v6.474l-96.983 18.989v-6.474zM166.187 209.515v6.47l-96.983 18.991v-6.476zM166.187 196.397v6.471l-96.983 18.986v-6.472zM166.187 183.279v6.471l-96.983 18.985v-6.469zM166.187 170.162v6.472l-96.983 18.985v-6.472zM166.187 157.042v6.474l-96.983 18.989v-6.476zM166.187 143.926v6.471l-96.983 18.987v-6.476zM166.187 130.808v6.472l-96.983 18.986v-6.475zM166.187 117.691v6.47l-96.983 18.986v-6.473zM166.187 104.569v6.476l-96.983 18.981v-6.468zM166.187 91.451v6.473l-96.983 18.987v-6.473zM166.187 78.333v6.475l-96.983 18.986v-6.471zM166.187 65.219v6.467l-96.983 18.991v-6.471zM166.187 51.565v7.007l-96.983 18.987-.007-25.994z"/></g><g fill="#5E7E53"><path d="M296.812 419.401v25.357h-96.976v-6.371zM296.812 406.284v6.471l-96.976 18.983v-6.468zM296.812 393.166v6.472l-96.976 18.987v-6.471zM296.812 380.043v6.477l-96.976 18.986v-6.471zM296.812 365.977v7.007l-96.976 18.988-.011-25.995z"/></g><g fill="#EEC900"><path d="M434.226 419.401v25.357h-96.979v-6.371zM434.226 406.284v6.471l-96.979 18.983v-6.468zM434.226 393.166v6.472l-96.979 18.987v-6.471zM434.226 380.043v6.477l-96.979 18.986v-6.471zM434.226 366.926v6.472l-96.979 18.991v-6.474zM434.226 353.811v6.47l-96.979 18.99v-6.473zM434.226 340.693v6.471l-96.979 18.989v-6.472zM434.226 327.575v6.472l-96.979 18.985v-6.469zM434.226 314.458v6.472l-96.979 18.987v-6.471zM434.226 301.34v6.47l-96.979 18.99v-6.474zM434.226 285.677v7.006l-96.979 18.989-.009-25.995z"/></g><g fill="#0E5461"><path d="M570.791 419.401v25.357h-96.978v-6.371zM570.791 406.284v6.471l-96.978 18.983v-6.468zM570.791 393.166v6.472l-96.978 18.987v-6.471zM570.791 380.043v6.477l-96.978 18.986v-6.471zM570.791 366.926v6.472l-96.978 18.991v-6.474zM570.791 353.811v6.47l-96.978 18.99v-6.473zM570.791 340.693v6.471l-96.978 18.989v-6.472zM570.791 327.575v6.472l-96.978 18.985v-6.469zM570.791 314.706v6.476l-96.978 18.985v-6.471zM570.791 301.511v7.006l-96.978 18.985-.008-25.991z"/></g><g fill="#2AC4F3"><path d="M708.203 419.401v25.357h-96.976v-6.371zM708.203 406.284v6.471l-96.976 18.983v-6.468zM708.203 393.166v6.472l-96.976 18.987v-6.471zM708.203 381.244v7.006l-96.976 18.987-.008-25.993z"/></g><path fill="#0E5461" d="M17.581 495.439h765.98v7.743h-765.98z"/><g fill="#fff"><path d="M108.197 33.63h2.69v2.01c0 .188-.064.349-.192.485s-.315.204-.562.204h-1.936v4.961h-3.192v-4.961h-9.015c-.247 0-.463-.072-.65-.218-.187-.145-.305-.325-.354-.541l-.37-1.757 10.124-12.86h3.458v12.677zm-3.193-6.648c0-.3.01-.623.03-.97.02-.347.054-.708.104-1.082l-6.636 8.7h6.502v-6.648zM120.315 20.742c.985 0 1.887.138 2.705.415s1.517.667 2.099 1.174c.582.506 1.035 1.115 1.36 1.827.325.712.488 1.504.488 2.375 0 .75-.116 1.443-.348 2.08s-.542 1.246-.931 1.827-.845 1.143-1.367 1.687c-.522.543-1.069 1.096-1.641 1.658l-4.818 4.68c.473-.131.936-.231 1.389-.302s.887-.105 1.3-.105h5.483c.394 0 .707.105.938.316.231.211.347.49.347.836v2.08h-14.659v-1.152c0-.234.052-.478.155-.731s.269-.487.495-.703l6.488-6.184c.542-.525 1.027-1.026 1.456-1.504s.788-.951 1.079-1.419c.291-.468.512-.944.665-1.427.152-.482.229-.991.229-1.525 0-.487-.074-.916-.222-1.286-.148-.37-.36-.682-.636-.935s-.604-.442-.982-.569c-.379-.126-.806-.19-1.279-.19-.877 0-1.599.211-2.165.632-.566.422-.963.989-1.189 1.701-.109.356-.271.611-.488.766-.217.154-.493.232-.828.232-.148 0-.311-.014-.488-.042l-1.921-.323c.148-.974.434-1.829.857-2.565.423-.735.953-1.349 1.588-1.841.636-.492 1.365-.862 2.188-1.11s1.708-.373 2.653-.373zM132.538 38.69h4.33v-11.848c0-.459.015-.941.044-1.448l-3.074 2.446c-.128.103-.259.173-.392.211-.133.037-.264.056-.392.056-.197 0-.376-.04-.539-.12s-.284-.171-.362-.274l-1.153-1.504 6.518-5.271h3v17.752h3.842v2.6h-11.823v-2.6z"/></g><g fill="#DA1C5C"><path d="M244.841 462.261v1.662c0 .497-.057.898-.171 1.203-.114.306-.226.562-.335.77l-8.935 17.522c-.185.362-.447.671-.784.924-.337.254-.795.381-1.372.381h-2.924l9.147-17.165c.381-.704.806-1.31 1.274-1.817h-11.304c-.25 0-.468-.088-.653-.265-.185-.176-.277-.383-.277-.621v-2.594h16.334zM257.794 467.697c0 .85-.15 1.615-.449 2.299-.3.684-.7 1.267-1.201 1.748s-1.083.852-1.748 1.11c-.664.259-1.355.389-2.074.389-.784 0-1.508-.13-2.173-.389-.664-.259-1.239-.629-1.723-1.11-.485-.481-.863-1.064-1.135-1.748-.272-.684-.408-1.449-.408-2.299 0-.87.136-1.657.408-2.361.272-.704.65-1.299 1.135-1.786.484-.486 1.059-.862 1.723-1.126.665-.265 1.389-.396 2.173-.396s1.511.132 2.181.396c.669.264 1.25.64 1.74 1.126.49.487.871 1.082 1.143 1.786s.408 1.491.408 2.361zm7.857-4.831c.131-.155.294-.295.49-.419.196-.125.468-.187.816-.187h2.924l-17.544 21.887c-.13.166-.297.304-.498.412-.202.108-.444.163-.727.163h-3.005l17.544-21.856zm-10.977 4.831c0-.601-.06-1.103-.18-1.507-.12-.403-.286-.73-.498-.979-.212-.249-.463-.427-.751-.536-.289-.108-.596-.163-.923-.163s-.632.055-.915.163c-.283.109-.528.287-.735.536-.207.248-.368.575-.482.979-.114.404-.171.906-.171 1.507 0 .58.057 1.064.171 1.452.114.389.275.702.482.94.207.238.452.409.735.513s.588.155.915.155.634-.052.923-.155.539-.274.751-.513.378-.552.498-.94c.12-.387.18-.872.18-1.452zm16.45 11.744c0 .849-.15 1.615-.449 2.299-.3.684-.7 1.266-1.201 1.747-.501.482-1.083.854-1.748 1.119-.665.264-1.356.396-2.075.396-.784 0-1.508-.132-2.172-.396-.665-.265-1.239-.637-1.724-1.119-.484-.481-.863-1.063-1.135-1.747s-.408-1.45-.408-2.299c0-.87.136-1.657.408-2.361s.651-1.3 1.135-1.786c.484-.487 1.059-.862 1.724-1.127.664-.264 1.388-.396 2.172-.396s1.511.132 2.181.396c.67.265 1.25.64 1.74 1.127.49.486.871 1.082 1.144 1.786.271.704.408 1.491.408 2.361zm-3.104 0c0-.601-.063-1.104-.188-1.507-.125-.404-.294-.73-.506-.979-.212-.249-.463-.428-.751-.536-.289-.109-.596-.163-.923-.163s-.632.054-.915.163c-.284.108-.526.287-.727.536-.202.248-.362.574-.482.979-.12.403-.18.906-.18 1.507 0 .58.06 1.066.18 1.46.12.394.28.709.482.947.201.238.443.409.727.513.283.104.588.155.915.155s.634-.052.923-.155.539-.274.751-.513.381-.554.506-.947c.125-.393.188-.88.188-1.46z"/></g><g fill="#DA1C5C"><path d="M357.239 481.849h4.786v-13.095c0-.508.016-1.041.049-1.601l-3.397 2.703c-.142.114-.286.191-.433.233-.147.041-.291.062-.433.062-.218 0-.417-.044-.596-.132s-.313-.188-.4-.303l-1.274-1.662 7.204-5.825h3.316v19.619h4.247v2.874h-13.068v-2.873zM381.626 462.012c1.089 0 2.085.153 2.989.458.904.306 1.677.738 2.32 1.298.642.559 1.143 1.232 1.502 2.02s.539 1.662.539 2.625c0 .828-.128 1.595-.384 2.299s-.599 1.377-1.029 2.02c-.431.643-.934 1.264-1.511 1.864s-1.182 1.211-1.813 1.833l-5.325 5.173c.522-.146 1.034-.257 1.535-.334.501-.078.98-.117 1.438-.117h6.061c.436 0 .781.117 1.037.35.256.233.384.542.384.925v2.299h-16.204v-1.273c0-.259.057-.528.171-.809.115-.279.297-.538.547-.776l7.171-6.835c.599-.58 1.135-1.134 1.609-1.662s.872-1.051 1.193-1.569c.321-.518.566-1.043.735-1.576s.253-1.096.253-1.686c0-.538-.082-1.012-.245-1.421-.164-.409-.398-.754-.703-1.033-.305-.28-.667-.489-1.086-.629-.419-.141-.891-.21-1.413-.21-.969 0-1.767.232-2.393.699-.626.466-1.064 1.093-1.315 1.879-.12.394-.3.676-.539.847-.24.171-.545.257-.915.257-.163 0-.343-.016-.539-.047l-2.124-.357c.164-1.077.479-2.021.948-2.835.468-.812 1.054-1.491 1.756-2.035.703-.543 1.508-.952 2.417-1.227s1.888-.415 2.933-.415zM402.648 467.697c0 .85-.15 1.615-.449 2.299s-.699 1.267-1.2 1.748-1.083.852-1.748 1.11c-.664.259-1.355.389-2.074.389-.784 0-1.508-.13-2.173-.389-.664-.259-1.239-.629-1.723-1.11-.485-.481-.863-1.064-1.135-1.748-.272-.684-.408-1.449-.408-2.299 0-.87.136-1.657.408-2.361.272-.704.65-1.299 1.135-1.786.484-.486 1.059-.862 1.723-1.126.665-.265 1.389-.396 2.173-.396s1.511.132 2.181.396c.669.264 1.25.64 1.74 1.126.489.487.871 1.082 1.143 1.786s.407 1.491.407 2.361zm7.858-4.831c.131-.155.295-.295.49-.419.195-.125.469-.187.816-.187h2.924l-17.543 21.887c-.13.166-.297.304-.498.412-.202.108-.444.163-.727.163h-3.005l17.543-21.856zm-10.977 4.831c0-.601-.06-1.103-.18-1.507-.12-.403-.286-.73-.498-.979-.212-.249-.463-.427-.751-.536-.289-.108-.596-.163-.923-.163s-.632.055-.915.163c-.283.109-.528.287-.735.536-.207.248-.368.575-.482.979-.114.404-.171.906-.171 1.507 0 .58.057 1.064.171 1.452.114.389.275.702.482.94.207.238.452.409.735.513s.588.155.915.155.634-.052.923-.155.539-.274.751-.513.378-.552.498-.94c.12-.387.18-.872.18-1.452zm16.45 11.744c0 .849-.15 1.615-.449 2.299-.301.684-.701 1.266-1.201 1.747-.5.482-1.084.854-1.748 1.119-.664.264-1.355.396-2.074.396-.783 0-1.508-.132-2.172-.396-.664-.265-1.24-.637-1.725-1.119-.484-.481-.863-1.063-1.135-1.747s-.408-1.45-.408-2.299c0-.87.137-1.657.408-2.361s.65-1.3 1.135-1.786c.484-.487 1.061-.862 1.725-1.127.664-.264 1.389-.396 2.172-.396s1.512.132 2.182.396c.668.265 1.248.64 1.738 1.127.49.486.871 1.082 1.145 1.786.27.704.407 1.491.407 2.361zm-3.104 0c0-.601-.062-1.104-.188-1.507-.127-.404-.295-.73-.508-.979-.211-.249-.463-.428-.75-.536-.289-.109-.598-.163-.924-.163s-.631.054-.914.163c-.283.108-.525.287-.729.536-.201.248-.361.574-.48.979-.121.403-.18.906-.18 1.507 0 .58.059 1.066.18 1.46.119.394.279.709.48.947.203.238.445.409.729.513s.588.155.914.155.635-.052.924-.155c.287-.104.539-.274.75-.513.213-.238.381-.554.508-.947.125-.393.188-.88.188-1.46z"/></g><g fill="#DA1C5C"><path d="M494.111 481.849h4.786v-13.095c0-.508.016-1.041.049-1.601l-3.398 2.703c-.142.114-.285.191-.433.233-.146.041-.291.062-.433.062-.218 0-.417-.044-.597-.132s-.312-.188-.399-.303l-1.274-1.662 7.203-5.825h3.316v19.619h4.247v2.874h-13.067v-2.873zM513.06 481.849h4.786v-13.095c0-.508.016-1.041.049-1.601l-3.398 2.703c-.142.114-.285.191-.433.233-.146.041-.291.062-.433.062-.218 0-.417-.044-.597-.132s-.312-.188-.399-.303l-1.274-1.662 7.203-5.825h3.316v19.619h4.247v2.874h-13.067v-2.873zM539.521 467.697c0 .85-.15 1.615-.449 2.299-.3.684-.7 1.267-1.201 1.748s-1.083.852-1.747 1.11c-.665.259-1.356.389-2.075.389-.784 0-1.508-.13-2.172-.389-.665-.259-1.239-.629-1.724-1.11s-.863-1.064-1.135-1.748c-.272-.684-.409-1.449-.409-2.299 0-.87.137-1.657.409-2.361.271-.704.65-1.299 1.135-1.786.484-.486 1.059-.862 1.724-1.126.664-.265 1.388-.396 2.172-.396s1.512.132 2.181.396c.67.264 1.25.64 1.74 1.126.49.487.871 1.082 1.144 1.786.271.704.407 1.491.407 2.361zm7.858-4.831c.13-.155.294-.295.489-.419.196-.125.469-.187.817-.187h2.924l-17.544 21.887c-.131.166-.297.304-.498.412-.202.108-.444.163-.727.163h-3.006l17.545-21.856zm-10.978 4.831c0-.601-.06-1.103-.18-1.507-.12-.403-.286-.73-.498-.979-.213-.249-.463-.427-.752-.536-.288-.108-.596-.163-.923-.163-.326 0-.631.055-.914.163-.283.109-.528.287-.735.536-.207.248-.367.575-.481.979-.115.404-.172.906-.172 1.507 0 .58.057 1.064.172 1.452.114.389.274.702.481.94s.452.409.735.513.588.155.914.155c.327 0 .635-.052.923-.155.289-.104.539-.274.752-.513.212-.238.378-.552.498-.94.121-.387.18-.872.18-1.452zm16.45 11.744c0 .849-.149 1.615-.449 2.299s-.7 1.266-1.2 1.747c-.501.482-1.084.854-1.748 1.119-.664.264-1.355.396-2.074.396-.784 0-1.509-.132-2.173-.396-.664-.265-1.239-.637-1.724-1.119-.484-.481-.863-1.063-1.135-1.747-.272-.684-.409-1.45-.409-2.299 0-.87.137-1.657.409-2.361.271-.704.65-1.3 1.135-1.786.484-.487 1.06-.862 1.724-1.127.664-.264 1.389-.396 2.173-.396.783 0 1.511.132 2.181.396.669.265 1.249.64 1.739 1.127.49.486.871 1.082 1.144 1.786.27.704.407 1.491.407 2.361zm-3.104 0c0-.601-.062-1.104-.188-1.507-.126-.404-.295-.73-.507-.979-.212-.249-.463-.428-.751-.536-.289-.109-.597-.163-.923-.163-.327 0-.632.054-.915.163-.283.108-.525.287-.728.536-.201.248-.361.574-.481.979-.12.403-.18.906-.18 1.507 0 .58.06 1.066.18 1.46s.28.709.481.947c.202.238.444.409.728.513s.588.155.915.155c.326 0 .634-.052.923-.155.288-.104.539-.274.751-.513s.381-.554.507-.947c.126-.393.188-.88.188-1.46z"/></g><g fill="#DA1C5C"><path d="M657.707 476.257h2.973v2.221c0 .208-.071.387-.212.536-.142.15-.349.226-.621.226h-2.14v5.483h-3.528v-5.483h-9.965c-.272 0-.512-.08-.719-.241-.207-.16-.337-.359-.392-.598l-.408-1.941 11.189-14.214h3.822v14.011zm-3.528-7.348c0-.331.011-.688.032-1.072.021-.383.06-.781.114-1.196l-7.334 9.616h7.188v-7.348zM673.176 467.697c0 .85-.15 1.615-.449 2.299-.3.684-.7 1.267-1.201 1.748s-1.083.852-1.747 1.11c-.665.259-1.356.389-2.075.389-.784 0-1.508-.13-2.172-.389-.665-.259-1.239-.629-1.724-1.11s-.863-1.064-1.135-1.748c-.272-.684-.409-1.449-.409-2.299 0-.87.137-1.657.409-2.361.271-.704.65-1.299 1.135-1.786.484-.486 1.059-.862 1.724-1.126.664-.265 1.388-.396 2.172-.396s1.512.132 2.181.396c.67.264 1.25.64 1.74 1.126.49.487.871 1.082 1.144 1.786.27.704.407 1.491.407 2.361zm7.857-4.831c.13-.155.294-.295.489-.419.196-.125.469-.187.817-.187h2.924l-17.544 21.887c-.131.166-.297.304-.498.412-.202.108-.444.163-.727.163h-3.006l17.545-21.856zm-10.977 4.831c0-.601-.06-1.103-.18-1.507-.12-.403-.286-.73-.498-.979-.213-.249-.463-.427-.752-.536-.288-.108-.596-.163-.923-.163-.326 0-.631.055-.914.163-.283.109-.528.287-.735.536-.207.248-.367.575-.481.979-.115.404-.172.906-.172 1.507 0 .58.057 1.064.172 1.452.114.389.274.702.481.94s.452.409.735.513.588.155.914.155c.327 0 .635-.052.923-.155.289-.104.539-.274.752-.513.212-.238.378-.552.498-.94.12-.387.18-.872.18-1.452zm16.449 11.744c0 .849-.149 1.615-.449 2.299s-.7 1.266-1.2 1.747c-.501.482-1.084.854-1.748 1.119-.664.264-1.355.396-2.074.396-.784 0-1.509-.132-2.173-.396-.664-.265-1.239-.637-1.724-1.119-.484-.481-.863-1.063-1.135-1.747-.272-.684-.409-1.45-.409-2.299 0-.87.137-1.657.409-2.361.271-.704.65-1.3 1.135-1.786.484-.487 1.06-.862 1.724-1.127.664-.264 1.389-.396 2.173-.396.783 0 1.511.132 2.181.396.669.265 1.249.64 1.739 1.127.49.486.871 1.082 1.144 1.786.27.704.407 1.491.407 2.361zm-3.104 0c0-.601-.062-1.104-.188-1.507-.126-.404-.295-.73-.507-.979-.212-.249-.463-.428-.751-.536-.289-.109-.597-.163-.923-.163-.327 0-.632.054-.915.163-.283.108-.525.287-.728.536-.201.248-.361.574-.481.979-.12.403-.18.906-.18 1.507 0 .58.06 1.066.18 1.46s.28.709.481.947c.202.238.444.409.728.513s.588.155.915.155c.326 0 .634-.052.923-.155.288-.104.539-.274.751-.513s.381-.554.507-.947c.126-.393.188-.88.188-1.46z"/></g><g fill="#fff"><path d="M236.389 354.489c-1.104 0-2.111-.141-3.022-.421-.912-.281-1.692-.68-2.343-1.195-.65-.515-1.155-1.139-1.515-1.869-.36-.73-.54-1.546-.54-2.445 0-1.199.311-2.214.931-3.043s1.586-1.445 2.896-1.849c-1.044-.412-1.825-.997-2.342-1.757-.518-.759-.776-1.672-.776-2.74 0-.769.165-1.485.495-2.15.33-.665.791-1.244 1.382-1.735.591-.492 1.298-.876 2.121-1.152s1.727-.415 2.712-.415 1.889.139 2.712.415 1.53.66 2.121 1.152c.591.491 1.052 1.07 1.382 1.735s.495 1.382.495 2.15c0 1.068-.261 1.981-.783 2.74-.522.76-1.301 1.345-2.335 1.757 1.311.403 2.276 1.02 2.897 1.849s.931 1.844.931 3.043c0 .899-.18 1.715-.54 2.445-.36.73-.865 1.354-1.515 1.869-.65.516-1.431.914-2.342 1.195s-1.918.421-3.022.421zm0-2.712c.601 0 1.128-.082 1.582-.246s.835-.392 1.146-.682c.31-.291.544-.638.702-1.04.158-.403.237-.839.237-1.308 0-1.114-.325-1.958-.976-2.529s-1.547-.857-2.69-.857-2.04.286-2.689.857c-.65.571-.976 1.415-.976 2.529 0 .469.079.904.236 1.308.158.402.392.749.702 1.04.31.29.692.518 1.146.682.452.164.979.246 1.58.246zm0-9.388c.591 0 1.089-.089 1.493-.268.404-.178.729-.414.976-.709.246-.296.421-.633.524-1.013.104-.379.155-.771.155-1.173 0-.385-.064-.75-.192-1.097s-.32-.653-.577-.921c-.256-.267-.581-.479-.975-.639-.395-.159-.862-.239-1.404-.239s-1.01.08-1.404.239-.722.372-.983.639c-.261.268-.453.574-.576.921-.124.347-.185.712-.185 1.097 0 .402.052.794.155 1.173.104.38.278.717.525 1.013.246.295.571.531.975.709.404.179.902.268 1.493.268zM253.858 333.717c.985 0 1.887.139 2.705.415s1.517.667 2.099 1.173 1.035 1.115 1.36 1.827.488 1.504.488 2.375c0 .75-.116 1.443-.348 2.08-.231.638-.542 1.247-.931 1.827-.389.581-.845 1.144-1.367 1.687-.522.544-1.069 1.097-1.641 1.659l-4.818 4.68c.473-.131.936-.231 1.389-.302s.887-.105 1.3-.105h5.483c.394 0 .707.105.938.316.231.211.347.489.347.836v2.08h-14.661v-1.152c0-.234.052-.478.155-.731.104-.253.269-.486.495-.702l6.488-6.185c.542-.524 1.027-1.025 1.456-1.504.429-.478.788-.95 1.079-1.419.291-.469.512-.944.665-1.427.152-.482.229-.991.229-1.524 0-.487-.074-.916-.222-1.286s-.36-.682-.636-.935-.604-.443-.982-.569c-.379-.127-.806-.189-1.279-.189-.877 0-1.599.21-2.165.632s-.963.989-1.189 1.701c-.109.355-.271.611-.488.766-.217.154-.493.231-.828.231-.148 0-.311-.014-.488-.042l-1.921-.323c.148-.975.434-1.829.857-2.564.423-.735.953-1.35 1.588-1.842.636-.491 1.365-.861 2.188-1.11.825-.25 1.709-.374 2.655-.374z"/></g><g fill="#fff"><path d="M361.85 272.207h4.33v-11.848c0-.459.015-.941.044-1.448l-3.074 2.446c-.128.103-.259.173-.392.211-.133.037-.264.056-.392.056-.197 0-.376-.04-.539-.12s-.284-.171-.362-.274l-1.153-1.504 6.518-5.271h3v17.751h3.842v2.6h-11.822v-2.599zM388.94 267.147h2.69v2.01c0 .188-.064.349-.192.485s-.315.204-.562.204h-1.936v4.961h-3.192v-4.961h-9.015c-.247 0-.463-.072-.65-.218-.187-.145-.305-.325-.354-.541l-.37-1.757 10.124-12.86h3.458v12.677zm-3.192-6.648c0-.3.01-.623.03-.97.02-.347.054-.708.104-1.082l-6.636 8.7h6.502v-6.648zM400.733 275.032c-1.104 0-2.111-.141-3.022-.422-.912-.281-1.692-.679-2.343-1.195-.65-.515-1.155-1.138-1.515-1.869-.36-.731-.54-1.546-.54-2.445 0-1.199.311-2.214.931-3.043s1.586-1.445 2.896-1.848c-1.044-.412-1.825-.998-2.342-1.757-.518-.759-.776-1.672-.776-2.741 0-.768.165-1.485.495-2.15.33-.665.791-1.244 1.382-1.736.591-.492 1.298-.876 2.121-1.152s1.727-.415 2.712-.415 1.89.138 2.712.415 1.529.661 2.121 1.152c.592.492 1.051 1.071 1.381 1.736.33.666.496 1.382.496 2.15 0 1.068-.262 1.982-.783 2.741-.523.759-1.301 1.345-2.336 1.757 1.311.403 2.277 1.019 2.896 1.848.621.829.932 1.844.932 3.043 0 .899-.18 1.714-.539 2.445s-.865 1.354-1.516 1.869c-.65.516-1.43.914-2.342 1.195s-1.918.422-3.021.422zm0-2.713c.601 0 1.128-.082 1.581-.246.453-.164.836-.391 1.146-.682s.543-.637.701-1.04.236-.839.236-1.307c0-1.115-.324-1.958-.975-2.53-.65-.572-1.547-.857-2.69-.857s-2.04.286-2.689.857c-.65.571-.976 1.415-.976 2.53 0 .468.079.904.236 1.307s.392.75.702 1.04c.31.291.692.518 1.146.682.454.164.981.246 1.582.246zm0-9.388c.591 0 1.089-.089 1.493-.267.404-.178.729-.415.975-.71s.422-.632.525-1.012.154-.771.154-1.174c0-.384-.064-.75-.191-1.096-.129-.347-.32-.653-.576-.92s-.582-.48-.977-.64c-.393-.159-.861-.239-1.403-.239s-1.01.08-1.404.239c-.394.16-.722.373-.983.64s-.453.574-.576.92c-.124.347-.185.712-.185 1.096 0 .403.052.794.155 1.174s.278.717.525 1.012c.246.295.571.532.975.71.405.177.903.267 1.493.267z"/></g><g fill="#fff"><path d="M499.634 288.267h4.33v-11.848c0-.459.015-.941.045-1.448l-3.074 2.446c-.128.103-.259.173-.392.211-.133.037-.264.056-.392.056-.197 0-.377-.04-.54-.12-.162-.08-.283-.171-.361-.274l-1.153-1.504 6.518-5.271h3v17.751h3.843v2.6h-11.823v-2.599zM522.039 270.319c.984 0 1.874.133 2.667.4s1.471.637 2.032 1.11.993 1.028 1.293 1.666c.301.637.451 1.326.451 2.066 0 .646-.076 1.216-.229 1.708-.152.492-.374.92-.665 1.286-.29.366-.646.675-1.063.928-.419.253-.895.464-1.427.632 1.281.384 2.237.97 2.867 1.757.631.787.946 1.776.946 2.966 0 1.012-.197 1.907-.591 2.684-.395.778-.927 1.432-1.597 1.961s-1.446.93-2.328 1.202c-.882.271-1.815.408-2.8.408-1.074 0-2.011-.118-2.809-.352s-1.492-.581-2.084-1.04c-.591-.459-1.094-1.021-1.507-1.687-.414-.665-.769-1.434-1.064-2.305l1.611-.632c.275-.112.557-.168.842-.168.257 0 .485.051.688.154.202.104.357.253.466.45.177.328.371.651.583.97.212.319.466.603.762.851.296.249.643.45 1.042.604.398.154.874.231 1.426.231.621 0 1.163-.096 1.626-.288.463-.192.85-.442 1.16-.752.311-.309.542-.653.694-1.033.153-.379.229-.761.229-1.146 0-.487-.055-.93-.163-1.328-.108-.398-.335-.738-.68-1.019s-.84-.501-1.485-.661c-.646-.159-1.51-.239-2.594-.239v-2.488c.896 0 1.641-.075 2.231-.225.592-.15 1.062-.358 1.412-.625s.593-.588.731-.963.207-.787.207-1.237c0-.965-.276-1.693-.828-2.186-.552-.492-1.306-.738-2.261-.738-.867 0-1.587.218-2.158.653-.571.436-.971.995-1.197 1.677-.118.356-.28.611-.487.766-.207.154-.479.231-.812.231-.158 0-.325-.014-.503-.042l-1.921-.318c.147-.975.434-1.83.856-2.565.424-.736.954-1.35 1.589-1.842.636-.492 1.365-.862 2.188-1.111.823-.246 1.708-.371 2.654-.371zM538.843 270.319c.984 0 1.887.138 2.704.415s1.518.667 2.099 1.174c.581.506 1.034 1.115 1.359 1.827.325.712.488 1.504.488 2.375 0 .75-.116 1.443-.348 2.08s-.542 1.246-.931 1.827c-.39.581-.846 1.143-1.367 1.687-.522.543-1.069 1.096-1.641 1.658l-4.818 4.68c.474-.131.937-.231 1.39-.302s.887-.105 1.301-.105h5.482c.395 0 .707.105.938.316.231.211.348.49.348.836v2.08h-14.661v-1.152c0-.234.052-.478.155-.731s.269-.487.495-.703l6.488-6.184c.542-.525 1.027-1.026 1.456-1.504.428-.478.788-.951 1.078-1.419.291-.468.513-.944.665-1.427.153-.482.229-.991.229-1.525 0-.487-.074-.916-.222-1.286-.147-.37-.359-.682-.636-.935-.275-.253-.604-.442-.982-.569-.38-.126-.806-.19-1.278-.19-.877 0-1.599.211-2.165.632-.567.422-.964.989-1.19 1.701-.108.356-.271.611-.487.766-.217.154-.493.232-.828.232-.147 0-.31-.014-.487-.042l-1.921-.323c.147-.974.433-1.829.856-2.565.424-.735.953-1.349 1.589-1.841s1.365-.862 2.188-1.11 1.707-.373 2.654-.373z"/></g><g fill="#fff"><path d="M653.399 364.355h2.689v2.01c0 .188-.063.35-.191.485-.129.136-.315.204-.562.204h-1.937v4.961h-3.192v-4.961h-9.015c-.247 0-.464-.073-.65-.218-.188-.146-.306-.326-.355-.542l-.369-1.757 10.124-12.859h3.458v12.677zm-3.192-6.647c0-.3.01-.623.029-.97.021-.347.055-.707.104-1.082l-6.636 8.699h6.503v-6.647zM664.454 363.906c-.739 0-1.463-.122-2.173-.365-.709-.244-1.343-.611-1.898-1.104-.558-.492-1.003-1.101-1.338-1.827-.335-.726-.503-1.576-.503-2.551 0-.909.178-1.762.532-2.559.354-.796.853-1.494 1.493-2.094.64-.6 1.408-1.072 2.306-1.42.896-.346 1.887-.52 2.971-.52 1.093 0 2.076.164 2.948.492s1.615.787 2.231 1.377c.615.591 1.089 1.298 1.419 2.122.33.825.495 1.729.495 2.713 0 .628-.057 1.223-.17 1.785-.113.562-.276 1.103-.488 1.623-.212.52-.465 1.026-.761 1.518s-.626.986-.99 1.483l-4.892 6.634c-.168.225-.417.414-.747.569-.33.154-.707.231-1.13.231h-3.355l6.636-7.885.474-.576.429-.562c-.493.301-1.035.527-1.626.682-.592.157-1.213.234-1.863.234zm4.981-6.086c0-.553-.089-1.047-.266-1.482-.178-.436-.429-.804-.754-1.104s-.712-.529-1.16-.688-.938-.239-1.471-.239c-.552 0-1.05.087-1.493.26-.443.174-.819.415-1.13.725-.311.309-.55.677-.717 1.103-.168.427-.252.893-.252 1.398 0 1.134.309 1.998.924 2.594.616.595 1.49.893 2.624.893.591 0 1.115-.09 1.573-.268s.845-.422 1.16-.73c.315-.31.555-.675.717-1.097.164-.423.245-.877.245-1.365z"/></g><g fill="#DA1C5C"><path d="M96.58 462.013c1.088 0 2.071.147 2.948.442.876.296 1.625.705 2.246 1.228s1.097 1.137 1.429 1.841.498 1.466.498 2.283c0 .715-.084 1.344-.253 1.888-.169.544-.414 1.018-.735 1.422-.321.403-.713.745-1.176 1.024-.463.28-.988.513-1.576.699 1.415.425 2.472 1.072 3.169 1.942.697.869 1.045 1.962 1.045 3.277 0 1.118-.218 2.107-.654 2.967-.436.86-1.023 1.582-1.764 2.167-.74.585-1.598 1.028-2.573 1.328-.975.301-2.006.451-3.095.451-1.187 0-2.222-.13-3.104-.389-.882-.259-1.65-.643-2.303-1.149-.653-.508-1.209-1.129-1.666-1.864-.458-.735-.85-1.585-1.176-2.548l1.78-.699c.305-.124.615-.187.931-.187.283 0 .536.058.76.171.223.114.395.28.515.497.196.363.411.721.645 1.072.234.353.515.666.841.939.327.275.71.497 1.151.668.441.171.966.257 1.577.257.686 0 1.285-.106 1.797-.318.512-.212.939-.489 1.282-.831.343-.342.599-.723.768-1.142.168-.42.253-.842.253-1.267 0-.538-.06-1.027-.18-1.468-.12-.44-.371-.815-.751-1.126-.381-.311-.929-.554-1.642-.73-.713-.176-1.669-.264-2.867-.264v-2.75c.991 0 1.813-.083 2.467-.248.653-.166 1.173-.396 1.56-.691.386-.295.656-.65.809-1.064.152-.414.229-.87.229-1.367 0-1.066-.305-1.871-.915-2.415-.61-.544-1.443-.815-2.5-.815-.958 0-1.753.24-2.385.722-.632.48-1.073 1.099-1.323 1.854-.13.394-.31.676-.539.846-.229.171-.528.256-.898.256-.174 0-.359-.015-.555-.046l-2.124-.352c.163-1.077.479-2.022.947-2.836.468-.812 1.054-1.491 1.756-2.035.703-.544 1.508-.953 2.418-1.228.91-.275 1.888-.412 2.933-.412zM123.221 462.262v1.662c0 .497-.057.898-.171 1.203-.114.306-.226.562-.335.77l-8.935 17.522c-.185.362-.447.671-.784.924-.337.254-.795.381-1.372.381h-2.924l9.147-17.165c.381-.704.806-1.31 1.274-1.817h-11.304c-.25 0-.468-.088-.653-.265-.185-.176-.277-.383-.277-.621v-2.594h16.334zM136.174 467.698c0 .85-.15 1.615-.449 2.299-.3.684-.7 1.267-1.201 1.748s-1.083.852-1.748 1.11c-.664.259-1.355.389-2.074.389-.784 0-1.508-.13-2.173-.389-.664-.259-1.239-.629-1.723-1.11-.485-.481-.863-1.064-1.135-1.748-.272-.684-.408-1.449-.408-2.299 0-.87.136-1.657.408-2.361.272-.704.65-1.299 1.135-1.786.484-.486 1.059-.862 1.723-1.126.665-.265 1.389-.396 2.173-.396s1.511.132 2.181.396c.669.264 1.25.64 1.74 1.126.49.487.871 1.082 1.143 1.786s.408 1.491.408 2.361zm7.857-4.831c.131-.155.294-.295.49-.419.196-.125.468-.187.816-.187h2.924l-17.544 21.887c-.13.166-.297.304-.498.412-.202.108-.444.163-.727.163h-3.005l17.544-21.856zm-10.977 4.831c0-.601-.06-1.103-.18-1.507-.12-.403-.286-.73-.498-.979-.212-.249-.463-.427-.751-.536-.289-.108-.596-.163-.923-.163s-.632.055-.915.163c-.283.109-.528.287-.735.536-.207.248-.368.575-.482.979-.114.404-.171.906-.171 1.507 0 .58.057 1.064.171 1.452.114.389.275.702.482.94.207.238.452.409.735.513s.588.155.915.155.634-.052.923-.155.539-.274.751-.513.378-.552.498-.94c.12-.387.18-.872.18-1.452zm16.449 11.744c0 .849-.15 1.615-.449 2.299-.3.684-.7 1.266-1.201 1.747-.501.482-1.083.854-1.748 1.119-.665.264-1.356.396-2.075.396-.784 0-1.508-.132-2.172-.396-.665-.265-1.239-.637-1.724-1.119-.484-.481-.863-1.063-1.135-1.747s-.408-1.45-.408-2.299c0-.87.136-1.657.408-2.361s.651-1.3 1.135-1.786c.484-.487 1.059-.862 1.724-1.127.664-.264 1.388-.396 2.172-.396s1.511.132 2.181.396c.67.265 1.25.64 1.74 1.127.49.486.871 1.082 1.144 1.786.272.704.408 1.491.408 2.361zm-3.103 0c0-.601-.063-1.104-.188-1.507-.125-.404-.294-.73-.506-.979-.212-.249-.463-.428-.751-.536-.289-.109-.596-.163-.923-.163s-.632.054-.915.163c-.284.108-.526.287-.727.536-.202.248-.362.574-.482.979-.12.403-.18.906-.18 1.507 0 .58.06 1.066.18 1.46.12.394.28.709.482.947.201.238.443.409.727.513.283.104.588.155.915.155s.634-.052.923-.155.539-.274.751-.513.381-.554.506-.947c.125-.393.188-.88.188-1.46z"/></g></svg>