<svg xmlns="http://www.w3.org/2000/svg" width="858" height="519" viewBox="0 0 858 519"><g fill="#fff"><path d="M51.988 485.483h5.456v1.435h-7.163v-12.609h1.707v11.174zM62.371 477.864c.651 0 1.239.108 1.764.325s.971.525 1.337.924c.367.399.648.882.845 1.447.197.566.295 1.198.295 1.896 0 .704-.098 1.337-.295 1.9-.196.563-.478 1.044-.845 1.443-.367.398-.812.705-1.337.919s-1.113.321-1.764.321-1.239-.107-1.764-.321-.972-.521-1.342-.919c-.37-.399-.654-.88-.854-1.443s-.299-1.196-.299-1.9c0-.698.1-1.33.299-1.896.199-.565.484-1.048.854-1.447.37-.398.817-.707 1.342-.924s1.113-.325 1.764-.325zm0 7.954c.88 0 1.537-.295 1.971-.885.434-.589.651-1.412.651-2.468 0-1.062-.217-1.889-.651-2.481-.435-.593-1.091-.889-1.971-.889-.446 0-.833.076-1.161.229-.329.153-.603.373-.823.66-.22.287-.384.641-.493 1.061-.109.419-.163.893-.163 1.421 0 .527.054 1 .163 1.417.108.416.272.767.493 1.051.22.285.494.503.823.655.328.153.715.229 1.161.229zM74.628 479.589l-.141.149-.202.053s-.184-.037-.286-.11l-.392-.242c-.158-.088-.351-.168-.576-.241s-.503-.11-.832-.11c-.434 0-.818.078-1.152.233-.334.155-.615.38-.84.673-.226.293-.396.648-.51 1.064-.115.417-.172.883-.172 1.399 0 .54.062 1.02.185 1.438.123.42.296.771.519 1.056.223.285.494.502.814.651.319.149.679.225 1.078.225.381 0 .695-.046.941-.137.247-.091.452-.192.616-.304.164-.111.299-.212.405-.304.105-.091.211-.136.316-.136.135 0 .235.05.299.149l.44.572c-.387.475-.871.822-1.452 1.042-.581.221-1.194.33-1.839.33-.557 0-1.075-.103-1.553-.308s-.893-.503-1.245-.894c-.352-.39-.629-.869-.832-1.438-.202-.568-.304-1.217-.304-1.944 0-.663.093-1.276.277-1.839.185-.563.455-1.049.81-1.456.355-.408.793-.727 1.315-.955s1.12-.343 1.795-.343c.622 0 1.173.101 1.654.303.481.203.906.488 1.276.858l-.412.566zM83.312 486.918h-.695c-.152 0-.276-.023-.37-.07s-.155-.146-.185-.299l-.176-.827c-.235.211-.464.4-.687.567-.223.167-.458.308-.704.422-.246.114-.509.201-.787.26-.279.059-.588.088-.928.088-.346 0-.67-.049-.973-.146s-.564-.243-.787-.437c-.223-.194-.4-.44-.533-.737-.132-.298-.198-.649-.198-1.056 0-.353.097-.693.291-1.02.193-.327.506-.616.937-.87.431-.253.996-.46 1.694-.622.698-.162 1.551-.243 2.56-.243v-.699c0-.696-.148-1.224-.444-1.58-.296-.357-.734-.536-1.315-.536-.381 0-.702.049-.963.146s-.487.205-.677.325l-.493.325c-.138.098-.274.146-.409.146-.106 0-.198-.027-.277-.083-.079-.057-.143-.125-.189-.207l-.281-.502c.493-.475 1.023-.83 1.592-1.064.569-.234 1.2-.352 1.892-.352.499 0 .941.082 1.329.246s.712.393.977.687c.264.293.463.647.598 1.064.135.416.203.874.203 1.372v5.702zm-4.064-.959c.275 0 .528-.028.756-.084.229-.056.444-.135.647-.237.202-.103.396-.228.581-.374.185-.146.365-.313.541-.501v-1.84c-.721 0-1.334.046-1.839.138s-.915.211-1.232.358c-.316.147-.547.321-.69.522-.144.2-.216.425-.216.672 0 .236.038.44.115.611.076.171.179.311.308.42s.282.189.458.239c.175.051.365.076.571.076zM87.43 473.957v12.961h-1.566v-12.961h1.566zM28.091 498.973c.387 0 .749.042 1.086.127s.644.21.919.374h2.42v.581c0 .193-.123.316-.37.369l-1.012.141c.199.382.299.807.299 1.276 0 .434-.083.828-.25 1.184-.167.354-.399.658-.695.91-.296.253-.648.446-1.056.581s-.855.202-1.342.202c-.417 0-.81-.05-1.179-.149-.188.121-.33.252-.427.392-.097.139-.145.275-.145.409 0 .218.085.384.255.495.17.112.396.193.678.241.282.049.601.073.959.073h1.096c.372 0 .737.032 1.095.098s.678.173.959.321c.282.148.507.354.678.614.17.261.255.6.255 1.016 0 .386-.095.76-.286 1.122-.191.362-.465.685-.823.967-.358.281-.795.507-1.311.677-.516.169-1.1.254-1.751.254-.651 0-1.222-.064-1.711-.194-.49-.129-.896-.303-1.219-.52s-.564-.468-.726-.753c-.162-.285-.242-.583-.242-.895 0-.44.139-.814.418-1.122.278-.309.661-.554 1.148-.736-.252-.117-.453-.273-.603-.47-.149-.196-.224-.458-.224-.786 0-.129.023-.262.07-.399s.119-.274.215-.409c.097-.135.216-.264.356-.387.141-.122.305-.23.493-.324-.44-.247-.785-.573-1.034-.981-.25-.407-.374-.885-.374-1.43 0-.435.083-.828.251-1.184.167-.354.4-.657.699-.906.299-.249.656-.441 1.069-.576s.869-.203 1.362-.203zm2.78 9.514c0-.228-.062-.409-.185-.547-.124-.138-.291-.244-.501-.319-.211-.074-.455-.13-.73-.166-.276-.035-.566-.054-.871-.054h-.933c-.317 0-.619-.039-.906-.118-.334.158-.606.353-.814.581-.208.229-.312.503-.312.819 0 .2.051.387.154.56.103.174.26.323.471.45.211.126.476.226.796.3.32.073.697.109 1.131.109.422 0 .801-.038 1.135-.116.334-.078.617-.188.849-.332.232-.144.409-.314.533-.512.122-.197.183-.415.183-.655zm-2.78-4.807c.316 0 .597-.044.84-.132.243-.088.447-.211.611-.37.164-.158.288-.347.37-.567.082-.22.123-.462.123-.726 0-.546-.166-.979-.497-1.303-.332-.322-.814-.483-1.447-.483-.628 0-1.107.161-1.439.483-.331.323-.497.757-.497 1.303 0 .264.042.506.128.726.085.221.209.409.374.567.164.159.366.282.607.37.24.088.516.132.827.132zM37.69 498.981c.651 0 1.239.108 1.764.325s.971.525 1.337.924c.367.399.648.882.845 1.447.197.566.295 1.198.295 1.896 0 .704-.098 1.337-.295 1.9-.196.563-.478 1.044-.845 1.443-.367.398-.812.705-1.337.919s-1.113.321-1.764.321-1.239-.107-1.764-.321-.972-.521-1.342-.919c-.37-.399-.654-.88-.854-1.443s-.299-1.196-.299-1.9c0-.698.1-1.33.299-1.896.199-.565.484-1.048.854-1.447.37-.398.817-.707 1.342-.924s1.113-.325 1.764-.325zm0 7.955c.88 0 1.537-.295 1.971-.885.434-.589.651-1.412.651-2.468 0-1.062-.217-1.889-.651-2.481-.435-.593-1.091-.889-1.971-.889-.446 0-.833.076-1.161.229-.329.153-.603.373-.823.66-.22.287-.384.641-.493 1.061-.109.419-.163.893-.163 1.421 0 .527.054 1 .163 1.417.108.416.272.767.493 1.051.22.285.494.503.823.655.328.152.715.229 1.161.229zM42.512 499.122h1.285c.124 0 .226.032.308.097s.141.141.176.229l2.262 5.737c.082.211.146.422.193.633l.132.625.15-.625c.053-.211.12-.422.202-.633l2.288-5.737c.035-.094.093-.172.172-.233s.177-.092.294-.092h1.223l-3.634 8.913h-1.417l-3.634-8.914zM55.948 498.981c.534 0 1.026.089 1.478.268.452.18.842.438 1.17.774.329.338.585.754.77 1.25.185.495.277 1.06.277 1.693 0 .246-.026.411-.079.493s-.152.123-.299.123h-5.931c.012.563.088 1.053.229 1.47.141.416.334.764.581 1.042.246.279.54.487.88.625.34.138.722.207 1.144.207.393 0 .732-.046 1.017-.137.284-.091.529-.189.734-.295.206-.105.377-.203.515-.295.138-.091.256-.136.356-.136.129 0 .229.05.299.149l.44.572c-.193.234-.425.438-.695.611-.27.173-.559.315-.867.427-.308.111-.626.195-.955.251s-.654.083-.977.083c-.616 0-1.184-.104-1.703-.312s-.968-.513-1.346-.915c-.378-.401-.673-.898-.884-1.491-.211-.593-.317-1.272-.317-2.041 0-.622.096-1.203.286-1.742.19-.54.465-1.008.823-1.403.358-.396.795-.707 1.311-.934.517-.224 1.097-.337 1.743-.337zm.035 1.153c-.757 0-1.352.219-1.786.655-.434.438-.704 1.043-.81 1.817h4.848c0-.364-.05-.696-.149-.999-.1-.302-.247-.563-.44-.783-.194-.22-.43-.39-.708-.51-.279-.12-.597-.18-.955-.18zM61.641 508.035v-8.913h.897c.17 0 .287.032.352.097.064.064.108.176.132.334l.105 1.391c.305-.622.682-1.107 1.131-1.456.449-.35.975-.523 1.58-.523.246 0 .469.027.668.083.199.056.384.134.554.233l-.202 1.17c-.041.146-.132.221-.273.221-.082 0-.208-.028-.378-.084-.17-.056-.408-.084-.712-.084-.546 0-1.002.159-1.368.476-.367.316-.673.777-.919 1.381v5.676h-1.567zM68.732 508.035v-8.913h.933c.223 0 .364.108.422.325l.123.968c.387-.428.82-.774 1.298-1.038s1.031-.396 1.659-.396c.487 0 .917.08 1.289.241.373.162.683.391.933.687.25.297.438.652.567 1.069.129.416.194.877.194 1.381v5.676h-1.566v-5.676c0-.674-.154-1.197-.462-1.57-.308-.372-.779-.559-1.412-.559-.463 0-.896.111-1.298.334-.402.224-.773.525-1.113.906v6.564h-1.567zM78.517 508.035v-8.913h.933c.223 0 .364.108.422.325l.114.915c.329-.404.697-.736 1.104-.994s.881-.387 1.421-.387c.604 0 1.092.167 1.465.501.373.335.641.786.805 1.355.124-.323.286-.602.488-.836.203-.234.43-.429.682-.581.252-.152.521-.264.805-.334.284-.07.573-.105.867-.105.469 0 .887.074 1.254.224.366.15.677.368.933.656.255.287.45.641.585 1.06.135.42.202.899.202 1.438v5.676h-1.566v-5.676c0-.697-.153-1.227-.458-1.588-.305-.36-.748-.541-1.329-.541-.258 0-.503.046-.735.137s-.436.224-.611.4c-.176.176-.315.397-.418.664-.103.267-.154.576-.154.928v5.676h-1.566v-5.676c0-.715-.144-1.249-.431-1.601-.288-.353-.707-.528-1.258-.528-.387 0-.747.104-1.078.312-.332.208-.635.491-.911.849v6.644h-1.565zM96.493 498.981c.534 0 1.026.089 1.478.268.452.18.842.438 1.17.774.329.338.585.754.77 1.25.185.495.277 1.06.277 1.693 0 .246-.026.411-.079.493s-.152.123-.299.123h-5.931c.012.563.088 1.053.229 1.47.141.416.334.764.581 1.042.246.279.54.487.88.625.34.138.722.207 1.144.207.393 0 .732-.046 1.017-.137.284-.091.529-.189.734-.295.206-.105.377-.203.515-.295.138-.091.256-.136.356-.136.129 0 .229.05.299.149l.44.572c-.193.234-.425.438-.695.611-.27.173-.559.315-.867.427-.308.111-.626.195-.955.251s-.654.083-.977.083c-.616 0-1.184-.104-1.703-.312s-.968-.513-1.346-.915c-.378-.401-.673-.898-.884-1.491-.211-.593-.317-1.272-.317-2.041 0-.622.096-1.203.286-1.742.19-.54.465-1.008.823-1.403.358-.396.795-.707 1.311-.934.517-.224 1.097-.337 1.743-.337zm.035 1.153c-.757 0-1.352.219-1.786.655-.434.438-.704 1.043-.81 1.817h4.848c0-.364-.05-.696-.149-.999-.1-.302-.247-.563-.44-.783-.194-.22-.43-.39-.708-.51-.279-.12-.597-.18-.955-.18zM102.186 508.035v-8.913h.933c.223 0 .364.108.422.325l.123.968c.387-.428.82-.774 1.298-1.038s1.031-.396 1.659-.396c.487 0 .917.08 1.289.241.373.162.683.391.933.687.25.297.438.652.567 1.069.129.416.194.877.194 1.381v5.676h-1.566v-5.676c0-.674-.154-1.197-.462-1.57-.308-.372-.779-.559-1.412-.559-.463 0-.896.111-1.298.334-.402.224-.773.525-1.113.906v6.564h-1.567zM114.671 508.176c-.704 0-1.245-.196-1.624-.59-.378-.393-.567-.959-.567-1.697v-5.456h-1.073c-.094 0-.173-.027-.238-.083s-.097-.143-.097-.26v-.625l1.46-.185.361-2.754c.012-.088.05-.16.114-.216s.146-.084.247-.084h.792v3.071h2.551v1.135h-2.551v5.35c0 .376.091.654.272.836.182.183.417.273.704.273.164 0 .307-.022.427-.066l.312-.146.224-.145.163-.066c.083 0 .156.05.22.149l.458.748c-.27.253-.595.45-.977.594-.38.145-.773.217-1.178.217z"/></g><g fill="#fff"><path d="M203.386 482.202v4.716h-1.698v-12.609h3.722c.798 0 1.492.093 2.081.277.589.186 1.078.447 1.465.788.387.34.676.751.867 1.231.191.481.286 1.018.286 1.61 0 .587-.103 1.123-.308 1.61-.205.486-.506.906-.902 1.258-.396.353-.887.627-1.474.823s-1.258.295-2.015.295h-2.024zm0-1.355h2.023c.487 0 .917-.064 1.289-.193s.685-.31.937-.541c.252-.232.443-.509.572-.832.129-.322.193-.678.193-1.064 0-.804-.248-1.432-.743-1.883-.496-.452-1.245-.678-2.249-.678h-2.023v5.191zM212.018 486.918v-8.913h.897c.17 0 .287.032.352.097.064.064.108.176.132.334l.105 1.391c.305-.622.682-1.107 1.131-1.456.449-.35.975-.523 1.58-.523.246 0 .469.027.668.083.199.056.384.134.554.233l-.202 1.17c-.041.146-.132.221-.273.221-.082 0-.208-.028-.378-.084-.17-.056-.408-.084-.712-.084-.546 0-1.002.159-1.368.476-.367.316-.673.777-.919 1.381v5.676h-1.567zM222.717 477.864c.651 0 1.239.108 1.764.325s.971.525 1.337.924c.367.399.648.882.845 1.447.197.566.295 1.198.295 1.896 0 .704-.098 1.337-.295 1.9-.196.563-.478 1.044-.845 1.443-.367.398-.812.705-1.337.919s-1.113.321-1.764.321-1.239-.107-1.764-.321-.972-.521-1.342-.919c-.37-.399-.654-.88-.854-1.443s-.299-1.196-.299-1.9c0-.698.1-1.33.299-1.896.199-.565.484-1.048.854-1.447.37-.398.817-.707 1.342-.924s1.113-.325 1.764-.325zm0 7.954c.88 0 1.537-.295 1.971-.885.434-.589.651-1.412.651-2.468 0-1.062-.217-1.889-.651-2.481-.435-.593-1.091-.889-1.971-.889-.446 0-.833.076-1.161.229-.329.153-.603.373-.823.66-.22.287-.384.641-.493 1.061-.109.419-.163.893-.163 1.421 0 .527.054 1 .163 1.417.108.416.272.767.493 1.051.22.285.494.503.823.655.328.153.715.229 1.161.229zM227.539 478.005h1.285c.124 0 .226.032.308.097s.141.141.176.229l2.262 5.737c.082.211.146.422.193.633l.132.625.15-.625c.053-.211.12-.422.202-.633l2.288-5.737c.035-.094.093-.172.172-.233s.177-.092.294-.092h1.223l-3.634 8.913h-1.417l-3.634-8.914zM239.769 475.207c0 .152-.031.294-.093.427-.062.132-.144.249-.246.352s-.222.184-.356.242-.279.088-.431.088-.295-.029-.427-.088-.25-.14-.352-.242-.183-.22-.242-.352c-.059-.133-.088-.274-.088-.427 0-.153.029-.298.088-.436.059-.139.139-.259.242-.361s.22-.184.352-.242.274-.088.427-.088.296.029.431.088.254.14.356.242.185.223.246.361c.062.138.093.283.093.436zm-.352 2.798v8.913h-1.566v-8.913h1.566zM242.18 486.918v-8.913h.933c.223 0 .364.108.422.325l.123.968c.387-.428.82-.774 1.298-1.038s1.031-.396 1.659-.396c.487 0 .917.08 1.289.241.373.162.683.391.933.687.25.297.438.652.567 1.069.129.416.194.877.194 1.381v5.676h-1.566v-5.676c0-.674-.154-1.197-.462-1.57-.308-.372-.779-.559-1.412-.559-.463 0-.896.111-1.298.334-.402.224-.773.525-1.113.906v6.564h-1.567zM258.044 479.589l-.141.149-.202.053s-.184-.037-.286-.11l-.392-.242c-.158-.088-.351-.168-.576-.241s-.503-.11-.832-.11c-.434 0-.818.078-1.152.233-.334.155-.615.38-.84.673-.226.293-.396.648-.51 1.064-.115.417-.172.883-.172 1.399 0 .54.062 1.02.185 1.438.123.42.296.771.519 1.056.223.285.494.502.814.651.319.149.679.225 1.078.225.381 0 .695-.046.941-.137.247-.091.452-.192.616-.304.164-.111.299-.212.405-.304.105-.091.211-.136.316-.136.135 0 .235.05.299.149l.44.572c-.387.475-.871.822-1.452 1.042-.581.221-1.194.33-1.839.33-.557 0-1.075-.103-1.553-.308s-.893-.503-1.245-.894c-.352-.39-.629-.869-.832-1.438-.202-.568-.304-1.217-.304-1.944 0-.663.093-1.276.277-1.839.185-.563.455-1.049.81-1.456.355-.408.793-.727 1.315-.955s1.12-.343 1.795-.343c.622 0 1.173.101 1.654.303.481.203.906.488 1.276.858l-.412.566zM262.276 475.207c0 .152-.031.294-.093.427-.062.132-.144.249-.246.352s-.222.184-.356.242-.279.088-.431.088-.295-.029-.427-.088-.25-.14-.352-.242-.183-.22-.242-.352c-.059-.133-.088-.274-.088-.427 0-.153.029-.298.088-.436.059-.139.139-.259.242-.361s.22-.184.352-.242.274-.088.427-.088.296.029.431.088.254.14.356.242.185.223.246.361c.063.138.093.283.093.436zm-.352 2.798v8.913h-1.566v-8.913h1.566zM271.233 486.918h-.695c-.152 0-.276-.023-.37-.07s-.155-.146-.185-.299l-.176-.827c-.235.211-.464.4-.687.567-.223.167-.458.308-.704.422-.246.114-.509.201-.787.26-.279.059-.588.088-.928.088-.346 0-.67-.049-.973-.146s-.564-.243-.787-.437c-.223-.194-.4-.44-.533-.737-.132-.298-.198-.649-.198-1.056 0-.353.097-.693.291-1.02.193-.327.506-.616.937-.87.431-.253.996-.46 1.694-.622.698-.162 1.551-.243 2.56-.243v-.699c0-.696-.148-1.224-.444-1.58-.296-.357-.734-.536-1.315-.536-.381 0-.702.049-.963.146s-.487.205-.677.325l-.493.325c-.138.098-.274.146-.409.146-.106 0-.198-.027-.277-.083-.079-.057-.143-.125-.189-.207l-.281-.502c.493-.475 1.023-.83 1.592-1.064.569-.234 1.2-.352 1.892-.352.499 0 .941.082 1.329.246s.712.393.977.687c.264.293.463.647.598 1.064.135.416.203.874.203 1.372v5.702zm-4.065-.959c.275 0 .528-.028.756-.084.229-.056.444-.135.647-.237.202-.103.396-.228.581-.374.185-.146.365-.313.541-.501v-1.84c-.721 0-1.334.046-1.839.138s-.915.211-1.232.358c-.316.147-.547.321-.69.522-.144.2-.216.425-.216.672 0 .236.038.44.115.611.076.171.179.311.308.42s.282.189.458.239c.175.051.366.076.571.076zM275.351 473.957v12.961h-1.566v-12.961h1.566zM197.667 498.973c.387 0 .749.042 1.086.127s.644.21.919.374h2.42v.581c0 .193-.123.316-.37.369l-1.012.141c.199.382.299.807.299 1.276 0 .434-.083.828-.25 1.184-.167.354-.399.658-.695.91-.296.253-.648.446-1.056.581s-.855.202-1.342.202c-.417 0-.81-.05-1.179-.149-.188.121-.33.252-.427.392-.097.139-.145.275-.145.409 0 .218.085.384.255.495.17.112.396.193.678.241.282.049.601.073.959.073h1.096c.372 0 .737.032 1.095.098s.678.173.959.321c.282.148.507.354.678.614.17.261.255.6.255 1.016 0 .386-.095.76-.286 1.122-.191.362-.465.685-.823.967-.358.281-.795.507-1.311.677-.516.169-1.1.254-1.751.254-.651 0-1.222-.064-1.711-.194-.49-.129-.896-.303-1.219-.52s-.564-.468-.726-.753c-.162-.285-.242-.583-.242-.895 0-.44.139-.814.418-1.122.278-.309.661-.554 1.148-.736-.252-.117-.453-.273-.603-.47-.149-.196-.224-.458-.224-.786 0-.129.023-.262.07-.399s.119-.274.215-.409c.097-.135.216-.264.356-.387.141-.122.305-.23.493-.324-.44-.247-.785-.573-1.034-.981-.25-.407-.374-.885-.374-1.43 0-.435.083-.828.251-1.184.167-.354.4-.657.699-.906.299-.249.656-.441 1.069-.576s.869-.203 1.362-.203zm2.78 9.514c0-.228-.062-.409-.185-.547-.124-.138-.291-.244-.501-.319-.211-.074-.455-.13-.73-.166-.276-.035-.566-.054-.871-.054h-.933c-.317 0-.619-.039-.906-.118-.334.158-.606.353-.814.581-.208.229-.312.503-.312.819 0 .2.051.387.154.56.103.174.26.323.471.45.211.126.476.226.796.3.32.073.697.109 1.131.109.422 0 .801-.038 1.135-.116.334-.078.617-.188.849-.332.232-.144.409-.314.533-.512.122-.197.183-.415.183-.655zm-2.78-4.807c.316 0 .597-.044.84-.132.243-.088.447-.211.611-.37.164-.158.288-.347.37-.567.082-.22.123-.462.123-.726 0-.546-.166-.979-.497-1.303-.332-.322-.814-.483-1.447-.483-.628 0-1.107.161-1.439.483-.331.323-.497.757-.497 1.303 0 .264.042.506.128.726.085.221.209.409.374.567.164.159.366.282.607.37.24.088.516.132.827.132zM207.266 498.981c.651 0 1.239.108 1.764.325s.971.525 1.337.924c.367.399.648.882.845 1.447.197.566.295 1.198.295 1.896 0 .704-.098 1.337-.295 1.9-.196.563-.478 1.044-.845 1.443-.367.398-.812.705-1.337.919s-1.113.321-1.764.321-1.239-.107-1.764-.321-.972-.521-1.342-.919c-.37-.399-.654-.88-.854-1.443s-.299-1.196-.299-1.9c0-.698.1-1.33.299-1.896.199-.565.484-1.048.854-1.447.37-.398.817-.707 1.342-.924s1.113-.325 1.764-.325zm0 7.955c.88 0 1.537-.295 1.971-.885.434-.589.651-1.412.651-2.468 0-1.062-.217-1.889-.651-2.481-.435-.593-1.091-.889-1.971-.889-.446 0-.833.076-1.161.229-.329.153-.603.373-.823.66-.22.287-.384.641-.493 1.061-.109.419-.163.893-.163 1.421 0 .527.054 1 .163 1.417.108.416.272.767.493 1.051.22.285.494.503.823.655.328.152.715.229 1.161.229zM212.088 499.122h1.285c.124 0 .226.032.308.097s.141.141.176.229l2.262 5.737c.082.211.146.422.193.633l.132.625.15-.625c.053-.211.12-.422.202-.633l2.288-5.737c.035-.094.093-.172.172-.233s.177-.092.294-.092h1.223l-3.634 8.913h-1.417l-3.634-8.914zM225.524 498.981c.534 0 1.026.089 1.478.268.452.18.842.438 1.17.774.329.338.585.754.77 1.25.185.495.277 1.06.277 1.693 0 .246-.026.411-.079.493s-.152.123-.299.123h-5.931c.012.563.088 1.053.229 1.47.141.416.334.764.581 1.042.246.279.54.487.88.625.34.138.722.207 1.144.207.393 0 .732-.046 1.017-.137.284-.091.529-.189.734-.295.206-.105.377-.203.515-.295.138-.091.256-.136.356-.136.129 0 .229.05.299.149l.44.572c-.193.234-.425.438-.695.611-.27.173-.559.315-.867.427-.308.111-.626.195-.955.251s-.654.083-.977.083c-.616 0-1.184-.104-1.703-.312s-.968-.513-1.346-.915c-.378-.401-.673-.898-.884-1.491-.211-.593-.317-1.272-.317-2.041 0-.622.096-1.203.286-1.742.19-.54.465-1.008.823-1.403.358-.396.795-.707 1.311-.934.517-.224 1.097-.337 1.743-.337zm.035 1.153c-.757 0-1.352.219-1.786.655-.434.438-.704 1.043-.81 1.817h4.848c0-.364-.05-.696-.149-.999-.1-.302-.247-.563-.44-.783-.194-.22-.43-.39-.708-.51-.279-.12-.597-.18-.955-.18zM231.217 508.035v-8.913h.897c.17 0 .287.032.352.097.064.064.108.176.132.334l.105 1.391c.305-.622.682-1.107 1.131-1.456.449-.35.975-.523 1.58-.523.246 0 .469.027.668.083.199.056.384.134.554.233l-.202 1.17c-.041.146-.132.221-.273.221-.082 0-.208-.028-.378-.084-.17-.056-.408-.084-.712-.084-.546 0-1.002.159-1.368.476-.367.316-.673.777-.919 1.381v5.676h-1.567zM238.309 508.035v-8.913h.933c.223 0 .364.108.422.325l.123.968c.387-.428.82-.774 1.298-1.038s1.031-.396 1.659-.396c.487 0 .917.08 1.289.241.373.162.683.391.933.687.25.297.438.652.567 1.069.129.416.194.877.194 1.381v5.676h-1.566v-5.676c0-.674-.154-1.197-.462-1.57-.308-.372-.779-.559-1.412-.559-.463 0-.896.111-1.298.334-.402.224-.773.525-1.113.906v6.564h-1.567zM248.093 508.035v-8.913h.933c.223 0 .364.108.422.325l.114.915c.329-.404.697-.736 1.104-.994s.881-.387 1.421-.387c.604 0 1.092.167 1.465.501.373.335.641.786.805 1.355.124-.323.286-.602.488-.836.203-.234.43-.429.682-.581.252-.152.521-.264.805-.334.284-.07.573-.105.867-.105.469 0 .887.074 1.254.224.366.15.677.368.933.656.255.287.45.641.585 1.06.135.42.202.899.202 1.438v5.676h-1.566v-5.676c0-.697-.153-1.227-.458-1.588-.305-.36-.748-.541-1.329-.541-.258 0-.503.046-.735.137s-.436.224-.611.4c-.176.176-.315.397-.418.664-.103.267-.154.576-.154.928v5.676h-1.566v-5.676c0-.715-.144-1.249-.431-1.601-.288-.353-.707-.528-1.258-.528-.387 0-.747.104-1.078.312-.332.208-.635.491-.911.849v6.644h-1.565zM266.069 498.981c.534 0 1.026.089 1.478.268.452.18.842.438 1.17.774.329.338.585.754.77 1.25.185.495.277 1.06.277 1.693 0 .246-.026.411-.079.493s-.152.123-.299.123h-5.931c.012.563.088 1.053.229 1.47.141.416.334.764.581 1.042.246.279.54.487.88.625.34.138.722.207 1.144.207.393 0 .732-.046 1.017-.137.284-.091.529-.189.734-.295.206-.105.377-.203.515-.295.138-.091.256-.136.356-.136.129 0 .229.05.299.149l.44.572c-.193.234-.425.438-.695.611-.27.173-.559.315-.867.427-.308.111-.626.195-.955.251s-.654.083-.977.083c-.616 0-1.184-.104-1.703-.312s-.968-.513-1.346-.915c-.378-.401-.673-.898-.884-1.491-.211-.593-.317-1.272-.317-2.041 0-.622.096-1.203.286-1.742.19-.54.465-1.008.823-1.403.358-.396.795-.707 1.311-.934.517-.224 1.097-.337 1.743-.337zm.035 1.153c-.757 0-1.352.219-1.786.655-.434.438-.704 1.043-.81 1.817h4.848c0-.364-.05-.696-.149-.999-.1-.302-.247-.563-.44-.783-.194-.22-.43-.39-.708-.51-.279-.12-.597-.18-.955-.18zM271.762 508.035v-8.913h.933c.223 0 .364.108.422.325l.123.968c.387-.428.82-.774 1.298-1.038s1.031-.396 1.659-.396c.487 0 .917.08 1.289.241.373.162.683.391.933.687.25.297.438.652.567 1.069.129.416.194.877.194 1.381v5.676h-1.566v-5.676c0-.674-.154-1.197-.462-1.57-.308-.372-.779-.559-1.412-.559-.463 0-.896.111-1.298.334-.402.224-.773.525-1.113.906v6.564h-1.567zM284.247 508.176c-.704 0-1.245-.196-1.624-.59-.378-.393-.567-.959-.567-1.697v-5.456h-1.073c-.094 0-.173-.027-.238-.083s-.097-.143-.097-.26v-.625l1.46-.185.361-2.754c.012-.088.05-.16.114-.216s.146-.084.247-.084h.792v3.071h2.551v1.135h-2.551v5.35c0 .376.091.654.272.836.182.183.417.273.704.273.164 0 .307-.022.427-.066l.312-.146.224-.145.163-.066c.083 0 .156.05.22.149l.458.748c-.27.253-.595.45-.977.594-.38.145-.773.217-1.178.217z"/></g><g fill="#fff"><path d="M375.959 474.366c.073.038.157.116.251.233l7.303 9.503-.036-.444-.009-.418v-8.932h1.496v12.609h-.862c-.135 0-.248-.023-.339-.07s-.18-.126-.269-.237l-7.294-9.494.026.431.009.388v8.983h-1.496v-12.609h.88c.154 0 .267.019.34.057zM394.344 486.918h-.695c-.152 0-.276-.023-.37-.07s-.155-.146-.185-.299l-.176-.827c-.235.211-.464.4-.687.567-.223.167-.458.308-.704.422-.246.114-.509.201-.787.26-.279.059-.588.088-.928.088-.346 0-.67-.049-.973-.146s-.564-.243-.787-.437c-.223-.194-.4-.44-.533-.737-.132-.298-.198-.649-.198-1.056 0-.353.097-.693.291-1.02.193-.327.506-.616.937-.87.431-.253.996-.46 1.694-.622.698-.162 1.551-.243 2.56-.243v-.699c0-.696-.148-1.224-.444-1.58-.296-.357-.734-.536-1.315-.536-.381 0-.702.049-.963.146s-.487.205-.677.325l-.493.325c-.138.098-.274.146-.409.146-.106 0-.198-.027-.277-.083-.079-.057-.143-.125-.189-.207l-.281-.502c.493-.475 1.023-.83 1.592-1.064.569-.234 1.2-.352 1.892-.352.499 0 .941.082 1.329.246s.712.393.977.687c.264.293.463.647.598 1.064.135.416.203.874.203 1.372v5.702zm-4.065-.959c.275 0 .528-.028.756-.084.229-.056.444-.135.647-.237.202-.103.396-.228.581-.374.185-.146.365-.313.541-.501v-1.84c-.721 0-1.334.046-1.839.138s-.915.211-1.232.358c-.316.147-.547.321-.69.522-.144.2-.216.425-.216.672 0 .236.038.44.115.611.076.171.179.311.308.42s.282.189.458.239c.175.051.366.076.571.076zM399.421 487.059c-.704 0-1.245-.196-1.624-.59-.378-.393-.567-.959-.567-1.697v-5.456h-1.073c-.094 0-.173-.027-.238-.083s-.097-.143-.097-.26v-.625l1.46-.185.361-2.754c.012-.088.05-.16.114-.216s.146-.084.247-.084h.792v3.071h2.551v1.135h-2.551v5.35c0 .376.091.654.272.836.182.183.417.273.704.273.164 0 .307-.022.427-.066l.312-.146.224-.145.163-.066c.083 0 .156.05.22.149l.458.748c-.27.253-.595.45-.977.594-.38.145-.773.217-1.178.217zM405.377 475.207c0 .152-.031.294-.093.427-.062.132-.144.249-.246.352s-.222.184-.356.242-.279.088-.431.088-.295-.029-.427-.088-.25-.14-.352-.242-.183-.22-.242-.352c-.059-.133-.088-.274-.088-.427 0-.153.029-.298.088-.436.059-.139.139-.259.242-.361s.22-.184.352-.242.274-.088.427-.088.296.029.431.088.254.14.356.242.185.223.246.361c.063.138.093.283.093.436zm-.352 2.798v8.913h-1.566v-8.913h1.566zM411.396 477.864c.651 0 1.239.108 1.764.325s.971.525 1.337.924c.367.399.648.882.845 1.447.197.566.295 1.198.295 1.896 0 .704-.098 1.337-.295 1.9-.196.563-.478 1.044-.845 1.443-.367.398-.812.705-1.337.919s-1.113.321-1.764.321-1.239-.107-1.764-.321-.972-.521-1.342-.919c-.37-.399-.654-.88-.854-1.443s-.299-1.196-.299-1.9c0-.698.1-1.33.299-1.896.199-.565.484-1.048.854-1.447.37-.398.817-.707 1.342-.924s1.113-.325 1.764-.325zm0 7.954c.88 0 1.537-.295 1.971-.885.434-.589.651-1.412.651-2.468 0-1.062-.217-1.889-.651-2.481-.435-.593-1.091-.889-1.971-.889-.446 0-.833.076-1.161.229-.329.153-.603.373-.823.66-.22.287-.384.641-.493 1.061-.109.419-.163.893-.163 1.421 0 .527.054 1 .163 1.417.108.416.272.767.493 1.051.22.285.494.503.823.655.327.153.715.229 1.161.229zM417.572 486.918v-8.913h.933c.223 0 .364.108.422.325l.123.968c.387-.428.82-.774 1.298-1.038s1.031-.396 1.659-.396c.487 0 .917.08 1.289.241.373.162.683.391.933.687.25.297.438.652.567 1.069.129.416.194.877.194 1.381v5.676h-1.566v-5.676c0-.674-.154-1.197-.462-1.57-.308-.372-.779-.559-1.412-.559-.463 0-.896.111-1.298.334-.402.224-.773.525-1.113.906v6.564h-1.567zM433.903 486.918h-.695c-.152 0-.276-.023-.37-.07s-.155-.146-.185-.299l-.176-.827c-.235.211-.464.4-.687.567-.223.167-.458.308-.704.422-.246.114-.509.201-.787.26-.279.059-.588.088-.928.088-.346 0-.67-.049-.973-.146s-.564-.243-.787-.437c-.223-.194-.4-.44-.533-.737-.132-.298-.198-.649-.198-1.056 0-.353.097-.693.291-1.02.193-.327.506-.616.937-.87.431-.253.996-.46 1.694-.622.698-.162 1.551-.243 2.56-.243v-.699c0-.696-.148-1.224-.444-1.58-.296-.357-.734-.536-1.315-.536-.381 0-.702.049-.963.146s-.487.205-.677.325l-.493.325c-.138.098-.274.146-.409.146-.106 0-.198-.027-.277-.083-.079-.057-.143-.125-.189-.207l-.281-.502c.493-.475 1.023-.83 1.592-1.064.569-.234 1.2-.352 1.892-.352.499 0 .941.082 1.329.246s.712.393.977.687c.264.293.463.647.598 1.064.135.416.203.874.203 1.372v5.702zm-4.065-.959c.275 0 .528-.028.756-.084.229-.056.444-.135.647-.237.202-.103.396-.228.581-.374.185-.146.365-.313.541-.501v-1.84c-.721 0-1.334.046-1.839.138s-.915.211-1.232.358c-.316.147-.547.321-.69.522-.144.2-.216.425-.216.672 0 .236.038.44.115.611.076.171.179.311.308.42s.282.189.458.239c.175.051.365.076.571.076zM438.021 473.957v12.961h-1.566v-12.961h1.566zM363.918 498.973c.387 0 .749.042 1.086.127s.644.21.919.374h2.42v.581c0 .193-.123.316-.37.369l-1.012.141c.199.382.299.807.299 1.276 0 .434-.083.828-.25 1.184-.167.354-.399.658-.695.91-.296.253-.648.446-1.056.581s-.855.202-1.342.202c-.417 0-.81-.05-1.179-.149-.188.121-.33.252-.427.392-.097.139-.145.275-.145.409 0 .218.085.384.255.495.17.112.396.193.678.241.282.049.601.073.959.073h1.096c.372 0 .737.032 1.095.098s.678.173.959.321c.282.148.507.354.678.614.17.261.255.6.255 1.016 0 .386-.095.76-.286 1.122-.191.362-.465.685-.823.967-.358.281-.795.507-1.311.677-.516.169-1.1.254-1.751.254-.651 0-1.222-.064-1.711-.194-.49-.129-.896-.303-1.219-.52s-.564-.468-.726-.753c-.162-.285-.242-.583-.242-.895 0-.44.139-.814.418-1.122.278-.309.661-.554 1.148-.736-.252-.117-.453-.273-.603-.47-.149-.196-.224-.458-.224-.786 0-.129.023-.262.07-.399s.119-.274.215-.409c.097-.135.216-.264.356-.387.141-.122.305-.23.493-.324-.44-.247-.785-.573-1.034-.981-.25-.407-.374-.885-.374-1.43 0-.435.083-.828.251-1.184.167-.354.4-.657.699-.906.299-.249.656-.441 1.069-.576s.869-.203 1.362-.203zm2.78 9.514c0-.228-.062-.409-.185-.547-.124-.138-.291-.244-.501-.319-.211-.074-.455-.13-.73-.166-.276-.035-.566-.054-.871-.054h-.933c-.317 0-.619-.039-.906-.118-.334.158-.606.353-.814.581-.208.229-.312.503-.312.819 0 .2.051.387.154.56.103.174.26.323.471.45.211.126.476.226.796.3.32.073.697.109 1.131.109.422 0 .801-.038 1.135-.116.334-.078.617-.188.849-.332.232-.144.409-.314.533-.512.122-.197.183-.415.183-.655zm-2.78-4.807c.316 0 .597-.044.84-.132.243-.088.447-.211.611-.37.164-.158.288-.347.37-.567.082-.22.123-.462.123-.726 0-.546-.166-.979-.497-1.303-.332-.322-.814-.483-1.447-.483-.628 0-1.107.161-1.439.483-.331.323-.497.757-.497 1.303 0 .264.042.506.128.726.085.221.209.409.374.567.164.159.366.282.607.37.24.088.516.132.827.132zM373.517 498.981c.651 0 1.239.108 1.764.325s.971.525 1.337.924c.367.399.648.882.845 1.447.197.566.295 1.198.295 1.896 0 .704-.098 1.337-.295 1.9-.196.563-.478 1.044-.845 1.443-.367.398-.812.705-1.337.919s-1.113.321-1.764.321-1.239-.107-1.764-.321-.972-.521-1.342-.919c-.37-.399-.654-.88-.854-1.443s-.299-1.196-.299-1.9c0-.698.1-1.33.299-1.896.199-.565.484-1.048.854-1.447.37-.398.817-.707 1.342-.924s1.113-.325 1.764-.325zm0 7.955c.88 0 1.537-.295 1.971-.885.434-.589.651-1.412.651-2.468 0-1.062-.217-1.889-.651-2.481-.435-.593-1.091-.889-1.971-.889-.446 0-.833.076-1.161.229-.329.153-.603.373-.823.66-.22.287-.384.641-.493 1.061-.109.419-.163.893-.163 1.421 0 .527.054 1 .163 1.417.108.416.272.767.493 1.051.22.285.494.503.823.655.328.152.715.229 1.161.229zM378.339 499.122h1.285c.124 0 .226.032.308.097s.141.141.176.229l2.262 5.737c.082.211.146.422.193.633l.132.625.15-.625c.053-.211.12-.422.202-.633l2.288-5.737c.035-.094.093-.172.172-.233s.177-.092.294-.092h1.223l-3.634 8.913h-1.417l-3.634-8.914zM391.775 498.981c.534 0 1.026.089 1.478.268.452.18.842.438 1.17.774.329.338.585.754.77 1.25.185.495.277 1.06.277 1.693 0 .246-.026.411-.079.493s-.152.123-.299.123h-5.931c.012.563.088 1.053.229 1.47.141.416.334.764.581 1.042.246.279.54.487.88.625.34.138.722.207 1.144.207.393 0 .732-.046 1.017-.137.284-.091.529-.189.734-.295.206-.105.377-.203.515-.295.138-.091.256-.136.356-.136.129 0 .229.05.299.149l.44.572c-.193.234-.425.438-.695.611-.27.173-.559.315-.867.427-.308.111-.626.195-.955.251s-.654.083-.977.083c-.616 0-1.184-.104-1.703-.312s-.968-.513-1.346-.915c-.378-.401-.673-.898-.884-1.491-.211-.593-.317-1.272-.317-2.041 0-.622.096-1.203.286-1.742.19-.54.465-1.008.823-1.403.358-.396.795-.707 1.311-.934.517-.224 1.097-.337 1.743-.337zm.035 1.153c-.757 0-1.352.219-1.786.655-.434.438-.704 1.043-.81 1.817h4.848c0-.364-.05-.696-.149-.999-.1-.302-.247-.563-.44-.783-.194-.22-.43-.39-.708-.51-.279-.12-.597-.18-.955-.18zM397.468 508.035v-8.913h.897c.17 0 .287.032.352.097.064.064.108.176.132.334l.105 1.391c.305-.622.682-1.107 1.131-1.456.449-.35.975-.523 1.58-.523.246 0 .469.027.668.083.199.056.384.134.554.233l-.202 1.17c-.041.146-.132.221-.273.221-.082 0-.208-.028-.378-.084-.17-.056-.408-.084-.712-.084-.546 0-1.002.159-1.368.476-.367.316-.673.777-.919 1.381v5.676h-1.567zM404.56 508.035v-8.913h.933c.223 0 .364.108.422.325l.123.968c.387-.428.82-.774 1.298-1.038s1.031-.396 1.659-.396c.487 0 .917.08 1.289.241.373.162.683.391.933.687.25.297.438.652.567 1.069.129.416.194.877.194 1.381v5.676h-1.566v-5.676c0-.674-.154-1.197-.462-1.57-.308-.372-.779-.559-1.412-.559-.463 0-.896.111-1.298.334-.402.224-.773.525-1.113.906v6.564h-1.567zM414.344 508.035v-8.913h.933c.223 0 .364.108.422.325l.114.915c.329-.404.697-.736 1.104-.994s.881-.387 1.421-.387c.604 0 1.092.167 1.465.501.373.335.641.786.805 1.355.124-.323.286-.602.488-.836.203-.234.43-.429.682-.581.252-.152.521-.264.805-.334.284-.07.573-.105.867-.105.469 0 .887.074 1.254.224.366.15.677.368.933.656.255.287.45.641.585 1.06.135.42.202.899.202 1.438v5.676h-1.566v-5.676c0-.697-.153-1.227-.458-1.588-.305-.36-.748-.541-1.329-.541-.258 0-.503.046-.735.137s-.436.224-.611.4c-.176.176-.315.397-.418.664-.103.267-.154.576-.154.928v5.676h-1.566v-5.676c0-.715-.144-1.249-.431-1.601-.288-.353-.707-.528-1.258-.528-.387 0-.747.104-1.078.312-.332.208-.635.491-.911.849v6.644h-1.565zM432.32 498.981c.534 0 1.026.089 1.478.268.452.18.842.438 1.17.774.329.338.585.754.77 1.25.185.495.277 1.06.277 1.693 0 .246-.026.411-.079.493s-.152.123-.299.123h-5.931c.012.563.088 1.053.229 1.47.141.416.334.764.581 1.042.246.279.54.487.88.625.34.138.722.207 1.144.207.393 0 .732-.046 1.017-.137.284-.091.529-.189.734-.295.206-.105.377-.203.515-.295.138-.091.256-.136.356-.136.129 0 .229.05.299.149l.44.572c-.193.234-.425.438-.695.611-.27.173-.559.315-.867.427-.308.111-.626.195-.955.251s-.654.083-.977.083c-.616 0-1.184-.104-1.703-.312s-.968-.513-1.346-.915c-.378-.401-.673-.898-.884-1.491-.211-.593-.317-1.272-.317-2.041 0-.622.096-1.203.286-1.742.19-.54.465-1.008.823-1.403.358-.396.795-.707 1.311-.934.517-.224 1.097-.337 1.743-.337zm.035 1.153c-.757 0-1.352.219-1.786.655-.434.438-.704 1.043-.81 1.817h4.848c0-.364-.05-.696-.149-.999-.1-.302-.247-.563-.44-.783-.194-.22-.43-.39-.708-.51-.279-.12-.597-.18-.955-.18zM438.013 508.035v-8.913h.933c.223 0 .363.108.422.325l.123.968c.389-.428.82-.774 1.299-1.038s1.031-.396 1.658-.396c.486 0 .916.08 1.289.241.373.162.684.391.934.687.248.297.438.652.566 1.069.129.416.193.877.193 1.381v5.676h-1.566v-5.676c0-.674-.154-1.197-.461-1.57-.309-.372-.779-.559-1.412-.559-.465 0-.896.111-1.299.334-.4.224-.771.525-1.113.906v6.564h-1.566zM450.499 508.176c-.704 0-1.245-.196-1.624-.59-.378-.393-.567-.959-.567-1.697v-5.456h-1.073c-.094 0-.173-.027-.237-.083-.065-.056-.098-.143-.098-.26v-.625l1.461-.185.361-2.754c.011-.088.049-.16.114-.216.064-.056.146-.084.246-.084h.792v3.071h2.552v1.135h-2.552v5.35c0 .376.091.654.272.836.182.183.417.273.704.273.164 0 .307-.022.427-.066l.312-.146.225-.145.162-.066c.082 0 .155.05.22.149l.458.748c-.27.253-.596.45-.977.594-.381.145-.774.217-1.178.217z"/></g><g fill="#fff"><path d="M566.956 476.28c-.053.088-.108.153-.167.197-.059.045-.135.066-.229.066-.101 0-.216-.05-.348-.149s-.3-.21-.502-.33-.445-.23-.73-.33c-.284-.1-.629-.149-1.033-.149-.382 0-.719.052-1.012.154-.294.103-.539.241-.735.418-.196.176-.345.383-.444.62s-.149.494-.149.77c0 .353.087.645.26.876s.401.43.687.594c.284.164.606.307.968.427l1.108.374s.748.274 1.108.436c.361.161.684.365.968.611.285.246.514.549.687.906.173.358.26.798.26 1.32 0 .551-.094 1.068-.281 1.553-.188.483-.462.905-.823 1.263-.36.357-.804.64-1.328.845-.525.205-1.122.308-1.791.308-.815 0-1.559-.147-2.23-.444-.672-.296-1.245-.696-1.72-1.201l.492-.81.172-.162s.142-.066.225-.066c.123 0 .264.066.422.198s.356.277.594.436c.238.158.525.304.862.436.338.132.749.198 1.236.198.405 0 .766-.056 1.082-.168.317-.111.586-.268.806-.471.22-.202.389-.444.506-.726s.176-.596.176-.941c0-.382-.087-.693-.26-.938-.173-.243-.4-.447-.682-.611s-.603-.304-.964-.418l-1.108-.352c-.378-.12-.748-.26-1.108-.418-.361-.158-.682-.364-.964-.616-.281-.252-.509-.567-.682-.946-.173-.378-.26-.846-.26-1.403 0-.445.087-.877.26-1.293.173-.417.424-.786.752-1.108.329-.323.735-.581 1.219-.774.484-.194 1.04-.291 1.668-.291.703 0 1.346.112 1.927.335s1.088.545 1.522.968l-.417.806zM572.28 487.059c-.704 0-1.245-.196-1.624-.59-.378-.393-.567-.959-.567-1.697v-5.456h-1.073c-.094 0-.173-.027-.237-.083-.065-.056-.098-.143-.098-.26v-.625l1.461-.185.361-2.754c.011-.088.049-.16.114-.216.064-.056.146-.084.246-.084h.792v3.071h2.552v1.135h-2.552v5.35c0 .376.091.654.272.836.182.183.417.273.704.273.164 0 .307-.022.427-.066l.312-.146.225-.145.162-.066c.082 0 .155.05.22.149l.458.748c-.27.253-.596.45-.977.594-.381.145-.773.217-1.178.217zM582.688 486.918h-.695c-.152 0-.275-.023-.369-.07s-.156-.146-.185-.299l-.177-.827c-.234.211-.463.4-.686.567-.224.167-.458.308-.704.422-.247.114-.509.201-.788.26-.278.059-.588.088-.928.088-.347 0-.671-.049-.973-.146s-.564-.243-.787-.437c-.224-.194-.4-.44-.532-.737-.133-.298-.198-.649-.198-1.056 0-.353.097-.693.29-1.02.193-.327.506-.616.938-.87.431-.253.995-.46 1.693-.622s1.552-.243 2.561-.243v-.699c0-.696-.148-1.224-.444-1.58-.296-.357-.734-.536-1.315-.536-.381 0-.702.049-.963.146-.262.097-.487.205-.678.325l-.493.325c-.138.098-.274.146-.409.146-.105 0-.197-.027-.277-.083-.079-.057-.142-.125-.188-.207l-.282-.502c.493-.475 1.024-.83 1.593-1.064.569-.234 1.2-.352 1.892-.352.499 0 .941.082 1.329.246.387.164.713.393.977.687.264.293.463.647.599 1.064.135.416.202.874.202 1.372v5.702zm-4.065-.959c.276 0 .528-.028.757-.084s.444-.135.646-.237c.203-.103.396-.228.581-.374s.365-.313.541-.501v-1.84c-.722 0-1.334.046-1.839.138s-.915.211-1.231.358c-.317.147-.547.321-.691.522-.144.2-.215.425-.215.672 0 .236.038.44.114.611s.179.311.308.42.281.189.458.239c.176.051.366.076.571.076zM587.766 487.059c-.704 0-1.245-.196-1.624-.59-.378-.393-.567-.959-.567-1.697v-5.456h-1.073c-.094 0-.173-.027-.237-.083-.065-.056-.098-.143-.098-.26v-.625l1.461-.185.361-2.754c.011-.088.049-.16.114-.216.064-.056.146-.084.246-.084h.792v3.071h2.552v1.135h-2.552v5.35c0 .376.091.654.272.836.182.183.417.273.704.273.164 0 .307-.022.427-.066l.312-.146.225-.145.162-.066c.082 0 .155.05.22.149l.458.748c-.27.253-.596.45-.977.594-.382.145-.774.217-1.178.217zM595.155 477.864c.534 0 1.027.089 1.479.268.452.18.842.438 1.171.774.328.338.585.754.77 1.25.185.495.277 1.06.277 1.693 0 .246-.026.411-.079.493s-.153.123-.3.123h-5.93c.011.563.088 1.053.229 1.47.141.416.334.764.58 1.042.247.279.54.487.88.625.341.138.722.207 1.145.207.393 0 .731-.046 1.016-.137.285-.091.529-.189.735-.295.205-.105.377-.203.515-.295.138-.091.257-.136.356-.136.129 0 .229.05.299.149l.44.572c-.194.234-.426.438-.695.611-.271.173-.559.315-.867.427-.308.111-.626.195-.954.251-.329.056-.654.083-.977.083-.616 0-1.184-.104-1.703-.312-.519-.208-.968-.513-1.346-.915-.379-.401-.674-.898-.885-1.491s-.316-1.272-.316-2.041c0-.622.095-1.203.286-1.742.19-.54.465-1.008.822-1.403.357-.396.795-.707 1.312-.934.515-.224 1.096-.337 1.74-.337zm.036 1.153c-.757 0-1.353.219-1.787.655-.434.438-.703 1.043-.809 1.817h4.848c0-.364-.05-.696-.149-.999-.1-.302-.246-.563-.44-.783-.193-.22-.43-.39-.708-.51s-.597-.18-.955-.18zM616.202 480.618c0 .944-.149 1.811-.448 2.6-.3.789-.722 1.469-1.268 2.037-.545.569-1.201 1.011-1.967 1.324-.765.314-1.611.471-2.538.471s-1.771-.156-2.534-.471c-.763-.313-1.416-.755-1.962-1.324-.546-.568-.968-1.248-1.268-2.037-.299-.789-.448-1.655-.448-2.6s.149-1.812.448-2.601c.3-.789.722-1.469 1.268-2.041s1.199-1.017 1.962-1.333 1.607-.476 2.534-.476 1.773.159 2.538.476c.766.316 1.422.761 1.967 1.333.546.572.968 1.252 1.268 2.041.299.79.448 1.657.448 2.601zm-1.751 0c0-.774-.105-1.47-.316-2.086-.211-.615-.511-1.136-.897-1.562-.388-.425-.856-.752-1.408-.981-.552-.229-1.167-.343-1.848-.343-.675 0-1.288.114-1.839.343-.552.229-1.022.557-1.412.981-.391.426-.69.946-.902 1.562-.211.616-.316 1.312-.316 2.086s.105 1.468.316 2.081c.212.612.512 1.132.902 1.557.39.426.86.751 1.412.978.551.226 1.164.338 1.839.338.681 0 1.296-.112 1.848-.338.552-.227 1.021-.552 1.408-.978.387-.425.687-.944.897-1.557.211-.613.316-1.306.316-2.081zM617.126 478.005h1.232c.129 0 .234.032.316.097s.138.141.167.229l1.707 5.737.132.611.105.594.158-.594.186-.611 1.883-5.772c.029-.088.08-.161.154-.22.073-.059.165-.088.276-.088h.678c.117 0 .214.029.29.088s.13.132.159.22l1.839 5.772.171.606.146.59c.029-.193.067-.396.114-.607l.149-.589 1.742-5.737c.029-.094.085-.172.168-.233.082-.062.179-.092.29-.092h1.179l-2.886 8.913h-1.24c-.153 0-.259-.1-.317-.299l-1.971-6.045c-.047-.135-.085-.271-.114-.409l-.088-.409-.088.413c-.03.141-.068.279-.115.414l-1.997 6.036c-.064.199-.185.299-.36.299h-1.18l-2.885-8.914zM631.767 486.918v-8.913h.934c.223 0 .363.108.422.325l.123.968c.388-.428.819-.774 1.298-1.038s1.031-.396 1.659-.396c.486 0 .916.08 1.288.241.373.162.684.391.934.687.249.297.438.652.567 1.069.129.416.193.877.193 1.381v5.676h-1.566v-5.676c0-.674-.154-1.197-.462-1.57-.308-.372-.778-.559-1.412-.559-.464 0-.896.111-1.298.334-.401.224-.772.525-1.113.906v6.564h-1.567zM645.079 477.864c.534 0 1.027.089 1.479.268.452.18.842.438 1.171.774.328.338.585.754.77 1.25.185.495.277 1.06.277 1.693 0 .246-.026.411-.079.493s-.153.123-.3.123h-5.93c.011.563.088 1.053.229 1.47.141.416.334.764.58 1.042.247.279.54.487.88.625.341.138.722.207 1.145.207.393 0 .731-.046 1.016-.137.285-.091.529-.189.735-.295.205-.105.377-.203.515-.295.138-.091.257-.136.356-.136.129 0 .229.05.299.149l.44.572c-.194.234-.426.438-.695.611-.271.173-.559.315-.867.427-.308.111-.626.195-.954.251-.329.056-.654.083-.977.083-.616 0-1.184-.104-1.703-.312-.519-.208-.968-.513-1.346-.915-.379-.401-.674-.898-.885-1.491s-.316-1.272-.316-2.041c0-.622.095-1.203.286-1.742.19-.54.465-1.008.822-1.403.357-.396.795-.707 1.312-.934.515-.224 1.096-.337 1.74-.337zm.036 1.153c-.757 0-1.353.219-1.787.655-.434.438-.703 1.043-.809 1.817h4.848c0-.364-.05-.696-.149-.999-.1-.302-.246-.563-.44-.783-.193-.22-.43-.39-.708-.51s-.597-.18-.955-.18zM657.046 486.918c-.224 0-.364-.108-.423-.325l-.141-1.083c-.382.464-.817.835-1.307 1.113-.49.279-1.052.418-1.685.418-.511 0-.975-.099-1.391-.295-.417-.196-.771-.485-1.064-.866-.294-.382-.52-.856-.678-1.426-.158-.568-.237-1.223-.237-1.962 0-.657.088-1.269.264-1.835.176-.565.43-1.057.761-1.474.332-.416.735-.743 1.21-.981.476-.237 1.015-.355 1.619-.355.546 0 1.012.092 1.399.276.387.186.733.444 1.038.779v-4.945h1.566v12.961h-.931zm-3.036-1.144c.511 0 .958-.117 1.342-.353.385-.234.737-.565 1.061-.994v-4.312c-.287-.387-.603-.658-.946-.813-.343-.155-.723-.233-1.139-.233-.833 0-1.473.296-1.919.889-.445.593-.668 1.438-.668 2.534 0 .581.05 1.078.149 1.491.1.414.246.754.439 1.021.193.268.432.462.713.585.281.124.604.185.968.185zM596.819 495.426v1.391h-6.054v4.188h4.9v1.337h-4.9v4.303h6.054v1.391h-7.77v-12.609h7.77zM599.027 508.035v-8.913h.934c.223 0 .363.108.422.325l.123.968c.388-.428.819-.774 1.298-1.038s1.031-.396 1.659-.396c.486 0 .916.08 1.288.241.373.162.684.391.934.687.249.297.438.652.567 1.069.129.416.193.877.193 1.381v5.676h-1.566v-5.676c0-.674-.154-1.197-.462-1.57-.308-.372-.778-.559-1.412-.559-.464 0-.896.111-1.298.334-.401.224-.772.525-1.113.906v6.564h-1.567zM611.514 508.176c-.704 0-1.245-.196-1.624-.59-.378-.393-.567-.959-.567-1.697v-5.456h-1.073c-.094 0-.173-.027-.237-.083-.065-.056-.098-.143-.098-.26v-.625l1.461-.185.361-2.754c.011-.088.049-.16.114-.216.064-.056.146-.084.246-.084h.792v3.071h2.552v1.135h-2.552v5.35c0 .376.091.654.272.836.182.183.417.273.704.273.164 0 .307-.022.427-.066l.312-.146.225-.145.162-.066c.082 0 .155.05.22.149l.458.748c-.27.253-.596.45-.977.594-.381.145-.774.217-1.178.217zM617.47 496.324c0 .152-.031.294-.093.427-.062.132-.144.249-.246.352s-.222.184-.356.242-.278.088-.431.088c-.153 0-.295-.029-.427-.088-.133-.059-.25-.14-.353-.242s-.184-.22-.242-.352c-.059-.133-.088-.274-.088-.427 0-.153.029-.298.088-.436.059-.139.14-.259.242-.361s.22-.184.353-.242c.132-.059.273-.088.427-.088.152 0 .296.029.431.088s.254.14.356.242.185.223.246.361c.061.138.093.283.093.436zm-.353 2.798v8.913h-1.565v-8.913h1.565zM622.582 508.176c-.704 0-1.245-.196-1.624-.59-.378-.393-.567-.959-.567-1.697v-5.456h-1.073c-.094 0-.173-.027-.237-.083-.065-.056-.098-.143-.098-.26v-.625l1.461-.185.361-2.754c.011-.088.049-.16.114-.216.064-.056.146-.084.246-.084h.792v3.071h2.552v1.135h-2.552v5.35c0 .376.091.654.272.836.182.183.417.273.704.273.164 0 .307-.022.427-.066l.312-.146.225-.145.162-.066c.082 0 .155.05.22.149l.458.748c-.27.253-.596.45-.977.594-.381.145-.774.217-1.178.217zM629.057 510.666c-.053.117-.118.211-.197.281s-.201.105-.365.105h-1.162l1.628-3.537-3.678-8.394h1.355c.135 0 .24.033.316.101s.132.143.167.225l2.385 5.614.137.387.101.396.123-.396.142-.396 2.313-5.605c.035-.094.096-.172.181-.233s.177-.092.277-.092h1.249l-4.972 11.544z"/></g><g fill="#fff"><path d="M765.323 480.618c0 .944-.149 1.811-.448 2.6-.3.789-.722 1.469-1.268 2.037-.545.569-1.201 1.011-1.967 1.324-.765.314-1.611.471-2.538.471s-1.771-.156-2.534-.471c-.763-.313-1.416-.755-1.962-1.324-.546-.568-.968-1.248-1.268-2.037-.299-.789-.448-1.655-.448-2.6s.149-1.812.448-2.601c.3-.789.722-1.469 1.268-2.041s1.199-1.017 1.962-1.333 1.607-.476 2.534-.476 1.773.159 2.538.476c.766.316 1.422.761 1.967 1.333.546.572.968 1.252 1.268 2.041.299.79.448 1.657.448 2.601zm-1.751 0c0-.774-.105-1.47-.316-2.086-.211-.615-.511-1.136-.897-1.562-.388-.425-.856-.752-1.408-.981-.552-.229-1.167-.343-1.848-.343-.675 0-1.288.114-1.839.343-.552.229-1.022.557-1.412.981-.391.426-.69.946-.902 1.562-.211.616-.316 1.312-.316 2.086s.105 1.468.316 2.081c.212.612.512 1.132.902 1.557.39.426.86.751 1.412.978.551.226 1.164.338 1.839.338.681 0 1.296-.112 1.848-.338.552-.227 1.021-.552 1.408-.978.387-.425.687-.944.897-1.557.211-.613.316-1.306.316-2.081zM770.11 487.059c-.704 0-1.245-.196-1.624-.59-.378-.393-.567-.959-.567-1.697v-5.456h-1.073c-.094 0-.173-.027-.237-.083-.065-.056-.098-.143-.098-.26v-.625l1.461-.185.361-2.754c.011-.088.049-.16.114-.216.064-.056.146-.084.246-.084h.792v3.071h2.552v1.135h-2.552v5.35c0 .376.091.654.272.836.182.183.417.273.704.273.164 0 .307-.022.427-.066l.312-.146.225-.145.162-.066c.082 0 .155.05.22.149l.458.748c-.27.253-.596.45-.977.594-.381.145-.773.217-1.178.217zM773.972 486.918v-12.961h1.566v5.244c.382-.404.804-.729 1.268-.972.463-.244.997-.365 1.602-.365.486 0 .916.08 1.288.241.373.162.684.391.934.687.249.297.438.652.567 1.069.129.416.193.877.193 1.381v5.676h-1.566v-5.676c0-.674-.154-1.197-.462-1.57-.308-.372-.778-.559-1.412-.559-.464 0-.896.111-1.298.334-.401.224-.772.525-1.113.906v6.564h-1.567zM787.284 477.864c.534 0 1.027.089 1.479.268.452.18.842.438 1.171.774.328.338.585.754.77 1.25.185.495.277 1.06.277 1.693 0 .246-.026.411-.079.493s-.153.123-.3.123h-5.93c.011.563.088 1.053.229 1.47.141.416.334.764.58 1.042.247.279.54.487.88.625.341.138.722.207 1.145.207.393 0 .731-.046 1.016-.137.285-.091.529-.189.735-.295.205-.105.377-.203.515-.295.138-.091.257-.136.356-.136.129 0 .229.05.299.149l.44.572c-.194.234-.426.438-.695.611-.271.173-.559.315-.867.427-.308.111-.626.195-.954.251-.329.056-.654.083-.977.083-.616 0-1.184-.104-1.703-.312-.519-.208-.968-.513-1.346-.915-.379-.401-.674-.898-.885-1.491s-.316-1.272-.316-2.041c0-.622.095-1.203.286-1.742.19-.54.465-1.008.822-1.403.357-.396.795-.707 1.312-.934.515-.224 1.096-.337 1.74-.337zm.036 1.153c-.757 0-1.353.219-1.787.655-.434.438-.703 1.043-.809 1.817h4.848c0-.364-.05-.696-.149-.999-.1-.302-.246-.563-.44-.783-.193-.22-.43-.39-.708-.51s-.597-.18-.955-.18zM792.977 486.918v-8.913h.897c.171 0 .288.032.353.097s.108.176.132.334l.105 1.391c.305-.622.682-1.107 1.131-1.456.448-.35.976-.523 1.579-.523.247 0 .47.027.669.083s.384.134.555.233l-.203 1.17c-.041.146-.132.221-.272.221-.082 0-.208-.028-.378-.084-.171-.056-.408-.084-.713-.084-.546 0-1.002.159-1.368.476-.367.316-.673.777-.92 1.381v5.676h-1.567z"/></g><g fill="#EEC900"><path d="M275.407 421.447v25.522h-70.381v-6.409zM275.407 408.246v6.514l-70.381 19.11v-6.516zM275.407 395.043v6.515l-70.381 19.109v-6.512zM275.407 381.835v6.519l-70.381 19.109v-6.51zM275.407 368.633v6.513l-70.381 19.114v-6.515zM275.407 355.431v6.513l-70.381 19.115v-6.519zM275.407 342.228v6.51l-70.381 19.116v-6.515zM275.407 329.025v6.514l-70.381 19.108v-6.512zM275.407 315.821v6.514l-70.381 19.111v-6.513zM275.407 302.616v6.515l-70.381 19.112v-6.514zM275.407 289.414v6.514l-70.381 19.113v-6.519zM275.407 276.212v6.514l-70.381 19.107v-6.513zM275.407 263.006v6.515l-70.381 19.11v-6.514zM275.407 249.803v6.516l-70.381 19.107v-6.51zM275.407 236.599v6.518l-70.381 19.11v-6.517zM275.407 223.394v6.515l-70.381 19.114v-6.517zM275.407 210.193v6.512l-70.381 19.114v-6.519zM275.407 196.99v6.512l-70.381 19.108v-6.512zM275.407 183.786v6.513l-70.381 19.109v-6.512zM275.407 170.583v6.512l-70.381 19.109v-6.512zM275.407 157.376v6.515l-70.381 19.112v-6.513zM275.407 144.175v6.513l-70.381 19.111v-6.516zM275.407 130.972v6.513l-70.381 19.11v-6.515zM275.407 117.768v6.512l-70.381 19.112v-6.517zM275.407 104.562v6.515l-70.381 19.108v-6.511zM275.407 91.357v6.517l-70.381 19.11v-6.515zM275.407 78.154v6.516l-70.381 19.11v-6.512zM275.407 64.954v6.509l-70.381 19.115v-6.514zM275.407 51.212v7.051l-70.381 19.113-.003-26.164z"/></g><g fill="#EEC900"><path d="M449.569 418.708v28.261h-70.381v-7.097zM449.569 404.087v7.215l-70.381 21.159v-7.212zM449.569 389.464v7.214l-70.381 21.164v-7.212zM449.569 374.838v7.219l-70.381 21.163v-7.21zM449.569 360.215v7.217l-70.381 21.168v-7.218zM449.569 345.597v7.214l-70.381 21.167v-7.218zM449.569 330.975v7.212l-70.381 21.167v-7.214zM449.569 316.353v7.214l-70.381 21.162v-7.212zM449.569 301.732v7.211l-70.381 21.167v-7.214zM449.569 287.108v7.211l-70.381 21.169v-7.215zM449.569 272.486v7.214l-70.381 21.166v-7.214zM449.569 257.201v7.881l-70.381 21.159v-29.04z"/></g><g fill="#EEC900"><path d="M644.325 418.708v28.261h-70.384v-7.097zM644.325 403.201v7.881l-70.384 21.159v-29.04z"/></g><g fill="#EEC900"><path d="M809.682 418.708v28.261h-70.382v-7.097zM809.682 404.087v7.215l-70.382 21.159v-7.212zM809.682 389.464v7.214l-70.382 21.164v-7.212zM809.682 374.838v7.219l-70.382 21.163v-7.21zM809.682 360.215v7.217l-70.382 21.168v-7.218zM809.682 345.597v7.214l-70.382 21.167v-7.218zM809.682 330.975v7.212l-70.382 21.167v-7.214zM809.682 316.353v7.214l-70.382 21.162v-7.212zM809.682 301.732v7.211l-70.382 21.167v-7.214zM809.682 287.108v7.211l-70.382 21.169v-7.215zM809.682 272.201v7.881l-70.382 21.159v-29.04z"/></g><g fill="#EEC900"><path d="M109.666 412.687v34.282h-70.382v-8.609zM109.666 394.953v8.751l-70.382 25.668v-8.751zM109.666 377.216v8.751l-70.382 25.671v-8.747zM109.666 359.473v8.757l-70.382 25.672v-8.748zM109.666 341.738v8.751l-70.382 25.678v-8.755zM109.666 324.005v8.748l-70.382 25.678v-8.754zM109.666 306.27v8.748l-70.382 25.674v-8.75zM109.666 288.531v8.751l-70.382 25.67v-8.75zM109.666 270.797v8.749l-70.382 25.673v-8.752zM109.666 253.06v8.748l-70.382 25.675v-8.753zM109.666 235.323v8.748l-70.382 25.677v-8.752zM109.666 216.779v9.56l-70.382 25.669v-35.229z"/></g><path fill="#EEC900" d="M10.229 443.807h833.287v10.467h-833.287z"/><g fill="#fff"><path d="M48.816 192.662h4.102v-13.013c0-.391.013-.786.04-1.186l-3.41 2.917c-.089.071-.178.122-.267.153l-.253.046c-.133 0-.253-.029-.359-.086-.107-.058-.187-.126-.24-.207l-.746-1.025 5.674-4.915h1.931v17.315h3.756v1.812h-10.228v-1.811zM68.155 194.686c-.95 0-1.82-.126-2.611-.379s-1.47-.615-2.038-1.085c-.568-.471-1.008-1.041-1.319-1.711-.311-.67-.466-1.423-.466-2.258 0-1.225.319-2.235.959-3.03.639-.795 1.554-1.361 2.744-1.698-1.003-.373-1.761-.93-2.271-1.672-.511-.741-.766-1.627-.766-2.657 0-.701.138-1.358.413-1.971.275-.612.666-1.146 1.172-1.598.506-.453 1.112-.808 1.818-1.065s1.494-.386 2.364-.386c.861 0 1.647.129 2.357.386.71.257 1.318.613 1.825 1.065.506.453.896.986 1.172 1.598.275.613.413 1.27.413 1.971 0 1.03-.258 1.916-.772 2.657-.515.742-1.27 1.299-2.265 1.672 1.19.337 2.104.903 2.744 1.698.639.794.959 1.805.959 3.03 0 .835-.158 1.587-.473 2.258s-.755 1.241-1.318 1.711c-.564.471-1.241.833-2.031 1.085-.79.253-1.661.379-2.61.379zm0-1.891c.621 0 1.179-.086 1.671-.26s.91-.417 1.252-.732c.342-.315.604-.693.786-1.132s.273-.926.273-1.458c0-.657-.109-1.219-.327-1.685-.218-.466-.511-.846-.879-1.139-.369-.293-.792-.508-1.272-.646s-.981-.207-1.505-.207c-.524 0-1.026.069-1.505.207s-.903.353-1.272.646c-.369.293-.662.673-.879 1.139-.218.466-.326 1.028-.326 1.685 0 .533.091 1.019.273 1.458.182.439.444.817.786 1.132.342.315.759.559 1.252.732.493.173 1.05.26 1.672.26zm0-9.164c.621 0 1.152-.095 1.591-.286s.797-.444 1.072-.759.475-.677.6-1.085c.124-.409.186-.831.186-1.266 0-.444-.073-.861-.22-1.252-.146-.391-.364-.732-.652-1.025-.289-.293-.648-.524-1.079-.693-.431-.168-.93-.253-1.498-.253s-1.068.084-1.499.253c-.431.169-.791.4-1.079.693s-.506.635-.652 1.025c-.146.391-.22.808-.22 1.252 0 .435.062.857.187 1.266.124.408.324.77.599 1.085.275.315.633.568 1.072.759s.97.286 1.592.286zM85.309 179.995c0 .746-.115 1.414-.346 2.004-.231.591-.54 1.088-.926 1.492-.386.404-.837.712-1.352.925-.515.213-1.052.32-1.611.32-.604 0-1.161-.106-1.671-.32-.511-.213-.957-.521-1.339-.925s-.679-.901-.892-1.492c-.213-.59-.32-1.258-.32-2.004 0-.764.106-1.443.32-2.038.213-.595.51-1.097.892-1.505.382-.408.828-.719 1.339-.932.51-.213 1.067-.32 1.671-.32.595 0 1.152.106 1.671.32.52.213.968.524 1.345.932.377.409.675.911.893 1.505.217.595.326 1.274.326 2.038zm6.673-4.129c.115-.151.237-.269.366-.353.129-.084.3-.126.513-.126h1.705l-13.945 18.7c-.089.115-.195.208-.319.28-.125.071-.271.106-.439.106h-1.758l13.877-18.607zm-8.524 4.129c0-.586-.062-1.083-.187-1.492-.125-.408-.295-.744-.513-1.005-.217-.262-.471-.451-.759-.566-.289-.115-.598-.173-.926-.173-.329 0-.637.058-.926.173-.289.116-.54.304-.752.566-.213.262-.379.597-.5 1.005-.12.409-.18.906-.18 1.492 0 .578.06 1.068.18 1.472.12.404.287.733.5.986s.464.435.752.546c.289.111.597.167.926.167.328 0 .637-.055.926-.167.288-.111.542-.293.759-.546.218-.253.389-.582.513-.986.125-.404.187-.894.187-1.472zm12.4 9.976c0 .746-.116 1.412-.346 1.998-.231.586-.54 1.081-.926 1.485-.386.404-.835.713-1.345.926-.511.213-1.046.32-1.605.32-.604 0-1.161-.107-1.671-.32-.511-.213-.957-.521-1.339-.926-.382-.404-.679-.899-.892-1.485-.213-.586-.32-1.252-.32-1.998 0-.764.106-1.445.32-2.044.213-.599.51-1.103.892-1.512.382-.408.828-.719 1.339-.932.51-.213 1.067-.32 1.671-.32.595 0 1.15.106 1.665.32.515.213.963.524 1.345.932.381.409.679.913.892 1.512.213.599.32 1.281.32 2.044zm-1.838 0c0-.586-.062-1.085-.186-1.499-.125-.413-.295-.748-.513-1.005-.217-.257-.471-.444-.759-.56-.289-.115-.598-.173-.926-.173-.329 0-.637.058-.926.173-.289.116-.54.302-.752.56-.213.258-.38.593-.5 1.005-.12.413-.18.913-.18 1.499 0 .577.06 1.065.18 1.465.12.399.286.726.5.979.213.253.464.435.752.546.289.111.597.167.926.167.328 0 .637-.055.926-.167.288-.111.542-.293.759-.546.218-.253.389-.58.513-.979s.186-.888.186-1.465z"/></g><g fill="#fff"><path d="M221.542 24.065h2.891v1.359c0 .142-.042.262-.126.359-.085.098-.216.146-.393.146h-2.371v5.021h-2.091v-5.02h-8.458c-.178 0-.331-.051-.459-.153-.129-.102-.211-.229-.247-.38l-.24-1.212 9.283-12.32h2.211v12.2zm-2.091-7.871c0-.23.007-.479.02-.746.013-.267.042-.542.086-.826l-6.939 9.443h6.833v-7.871zM232.676 31.165c-.95 0-1.82-.126-2.611-.379s-1.47-.615-2.038-1.085c-.568-.471-1.008-1.041-1.319-1.711-.311-.67-.466-1.423-.466-2.258 0-1.225.319-2.235.959-3.03.639-.795 1.554-1.361 2.744-1.698-1.003-.373-1.761-.93-2.271-1.672-.511-.741-.766-1.627-.766-2.657 0-.701.138-1.358.413-1.971.275-.612.666-1.146 1.172-1.598.506-.453 1.112-.808 1.818-1.065s1.494-.386 2.364-.386c.861 0 1.647.129 2.357.386.71.257 1.318.613 1.825 1.065.506.453.896.986 1.172 1.598.275.613.413 1.27.413 1.971 0 1.03-.258 1.916-.772 2.657-.515.742-1.27 1.299-2.265 1.672 1.19.337 2.104.903 2.744 1.698.639.794.959 1.805.959 3.03 0 .835-.158 1.587-.473 2.258s-.755 1.241-1.318 1.711c-.564.471-1.241.833-2.031 1.085s-1.66.379-2.61.379zm0-1.892c.621 0 1.179-.086 1.671-.26s.91-.417 1.252-.732c.342-.315.604-.693.786-1.132s.273-.926.273-1.458c0-.657-.109-1.219-.327-1.685-.218-.466-.511-.846-.879-1.139-.369-.293-.792-.508-1.272-.646s-.981-.207-1.505-.207c-.524 0-1.026.069-1.505.207s-.903.353-1.272.646c-.369.293-.662.673-.879 1.139-.218.466-.326 1.028-.326 1.685 0 .533.091 1.019.273 1.458.182.439.444.817.786 1.132.342.315.759.559 1.252.732.494.174 1.051.26 1.672.26zm0-9.163c.621 0 1.152-.095 1.591-.286s.797-.444 1.072-.759.475-.677.6-1.085c.124-.409.186-.831.186-1.266 0-.444-.073-.861-.22-1.252-.146-.391-.364-.732-.652-1.025-.289-.293-.648-.524-1.079-.693-.431-.168-.93-.253-1.498-.253s-1.068.084-1.499.253c-.431.169-.791.4-1.079.693s-.506.635-.652 1.025c-.146.391-.22.808-.22 1.252 0 .435.062.857.187 1.266.124.408.324.77.599 1.085.275.315.633.568 1.072.759s.971.286 1.592.286zM249.831 16.474c0 .746-.115 1.414-.346 2.004-.231.591-.54 1.088-.926 1.492-.386.404-.837.712-1.352.925-.515.213-1.052.32-1.611.32-.604 0-1.161-.106-1.671-.32-.511-.213-.957-.521-1.339-.925s-.679-.901-.892-1.492c-.213-.59-.32-1.258-.32-2.004 0-.764.106-1.443.32-2.038.213-.595.51-1.097.892-1.505.382-.408.828-.719 1.339-.932.51-.213 1.067-.32 1.671-.32.595 0 1.152.106 1.671.32.52.213.968.524 1.345.932.377.409.675.911.893 1.505.217.595.326 1.274.326 2.038zm6.672-4.129c.115-.151.237-.269.366-.353.129-.084.3-.126.513-.126h1.705l-13.945 18.7c-.089.115-.195.208-.319.28-.125.071-.271.106-.439.106h-1.758l13.877-18.607zm-8.524 4.129c0-.586-.062-1.083-.187-1.492-.125-.408-.295-.744-.513-1.005-.217-.262-.471-.451-.759-.566-.289-.115-.598-.173-.926-.173-.329 0-.637.058-.926.173-.289.116-.54.304-.752.566-.213.262-.379.597-.5 1.005-.12.409-.18.906-.18 1.492 0 .578.06 1.068.18 1.472.12.404.287.733.5.986s.464.435.752.546c.289.111.597.167.926.167.328 0 .637-.055.926-.167.288-.111.542-.293.759-.546.218-.253.389-.582.513-.986.125-.404.187-.895.187-1.472zm12.4 9.976c0 .746-.116 1.412-.346 1.998-.231.586-.54 1.081-.926 1.485-.386.404-.835.713-1.345.926-.511.213-1.046.32-1.605.32-.604 0-1.161-.107-1.671-.32-.511-.213-.957-.521-1.339-.926-.382-.404-.679-.899-.892-1.485-.213-.586-.32-1.252-.32-1.998 0-.764.106-1.445.32-2.044.213-.599.51-1.103.892-1.512.382-.408.828-.719 1.339-.932.51-.213 1.067-.32 1.671-.32.595 0 1.15.106 1.665.32.515.213.963.524 1.345.932.381.409.679.913.892 1.512.214.599.32 1.28.32 2.044zm-1.838 0c0-.586-.062-1.085-.186-1.499-.125-.413-.295-.748-.513-1.005-.217-.257-.471-.444-.759-.56-.289-.115-.598-.173-.926-.173-.329 0-.637.058-.926.173-.289.116-.54.302-.752.56-.213.258-.38.593-.5 1.005-.12.413-.18.913-.18 1.499 0 .577.06 1.065.18 1.465.12.399.286.726.5.979.213.253.464.435.752.546.289.111.597.167.926.167.328 0 .637-.055.926-.167.288-.111.542-.293.759-.546.218-.253.389-.58.513-.979.124-.4.186-.888.186-1.465z"/></g><g fill="#fff"><path d="M388.72 234.083h4.102v-13.013c0-.391.013-.786.04-1.186l-3.41 2.917c-.089.071-.178.122-.267.153l-.253.047c-.133 0-.253-.029-.359-.087-.107-.058-.187-.127-.24-.206l-.746-1.026 5.674-4.914h1.931v17.314h3.756v1.812h-10.228v-1.811zM409.004 224.2c.764 0 1.487.127 2.171.38.684.253 1.283.621 1.798 1.105.515.484.923 1.079 1.225 1.784.302.706.453 1.512.453 2.418 0 .879-.16 1.696-.479 2.45-.32.755-.766 1.412-1.338 1.972-.573.56-1.264.999-2.071 1.318-.808.32-1.696.479-2.664.479-.959 0-1.827-.153-2.604-.459-.777-.307-1.441-.741-1.991-1.306-.551-.563-.975-1.247-1.272-2.051-.298-.804-.446-1.703-.446-2.697 0-.835.187-1.723.56-2.664.373-.941.963-1.953 1.771-3.037l4.835-6.513c.125-.16.297-.295.52-.406.222-.111.475-.166.759-.166h2.104l-6.62 8.377c.453-.311.954-.553 1.505-.726.55-.171 1.145-.258 1.784-.258zm-4.927 5.808c0 .612.088 1.172.266 1.678s.438.941.779 1.306.759.646 1.252.846c.493.199 1.054.3 1.685.3.639 0 1.216-.103 1.731-.307.515-.204.957-.488 1.325-.853.368-.364.652-.795.853-1.292.2-.497.299-1.039.299-1.625 0-.621-.098-1.183-.293-1.685s-.471-.928-.826-1.278c-.355-.352-.781-.62-1.279-.807-.497-.187-1.043-.279-1.638-.279-.639 0-1.216.108-1.731.326s-.952.511-1.312.879c-.359.369-.635.795-.826 1.279-.19.483-.285.987-.285 1.512zM425.213 221.417c0 .745-.115 1.414-.346 2.004-.231.591-.54 1.088-.926 1.492s-.837.712-1.352.926c-.515.213-1.052.319-1.611.319-.604 0-1.161-.106-1.671-.319-.511-.214-.957-.521-1.339-.926s-.679-.901-.892-1.492c-.213-.59-.32-1.259-.32-2.004 0-.764.106-1.443.32-2.038.213-.595.51-1.097.892-1.505s.828-.72 1.339-.933c.51-.213 1.067-.319 1.671-.319.595 0 1.152.106 1.671.319s.968.524 1.345.933.675.91.893 1.505c.217.595.326 1.274.326 2.038zm6.673-4.129c.115-.151.237-.269.366-.354.129-.084.3-.126.513-.126h1.705l-13.945 18.699c-.089.116-.195.209-.319.28-.125.071-.271.106-.439.106h-1.758l13.877-18.605zm-8.524 4.129c0-.587-.062-1.084-.187-1.492-.125-.408-.295-.743-.513-1.006-.217-.262-.471-.45-.759-.565-.289-.115-.598-.174-.926-.174-.329 0-.637.059-.926.174s-.54.304-.752.565c-.213.263-.379.598-.5 1.006-.12.408-.18.905-.18 1.492 0 .577.06 1.067.18 1.472.12.404.287.732.5.985s.464.436.752.546c.289.111.597.167.926.167.328 0 .637-.056.926-.167.288-.11.542-.293.759-.546.218-.253.389-.581.513-.985.125-.405.187-.895.187-1.472zm12.4 9.976c0 .746-.116 1.412-.346 1.998-.231.586-.54 1.081-.926 1.485-.386.403-.835.712-1.345.926-.511.213-1.046.319-1.605.319-.604 0-1.161-.106-1.671-.319-.511-.214-.957-.522-1.339-.926s-.679-.899-.892-1.485c-.213-.586-.32-1.252-.32-1.998 0-.764.106-1.445.32-2.044.213-.6.51-1.104.892-1.512.382-.409.828-.72 1.339-.933.51-.213 1.067-.32 1.671-.32.595 0 1.15.107 1.665.32.515.213.963.523 1.345.933.381.408.679.912.892 1.512.214.598.32 1.28.32 2.044zm-1.838 0c0-.586-.062-1.085-.186-1.498-.125-.413-.295-.748-.513-1.006-.217-.258-.471-.444-.759-.56-.289-.115-.598-.173-.926-.173-.329 0-.637.058-.926.173s-.54.302-.752.56c-.213.258-.38.593-.5 1.006s-.18.912-.18 1.498c0 .577.06 1.065.18 1.465.12.4.286.727.5.979.213.253.464.435.752.546s.597.166.926.166c.328 0 .637-.055.926-.166.288-.111.542-.293.759-.546.218-.253.389-.579.513-.979s.186-.888.186-1.465z"/></g><g fill="#fff"><path d="M593.42 359.432c.808 0 1.554.116 2.237.347.684.231 1.272.56 1.765.985.493.427.877.941 1.152 1.545.275.604.413 1.274.413 2.012 0 .604-.078 1.144-.233 1.618s-.377.893-.666 1.252c-.288.359-.637.664-1.045.912-.409.249-.866.448-1.372.6 1.243.328 2.178.879 2.804 1.651s.938 1.74.938 2.903c0 .88-.166 1.67-.499 2.371-.333.702-.788 1.299-1.365 1.792-.577.492-1.25.87-2.018 1.132-.769.262-1.592.393-2.471.393-1.013 0-1.878-.126-2.598-.379-.719-.254-1.327-.602-1.824-1.046-.498-.444-.906-.97-1.226-1.578s-.591-1.268-.812-1.979l1.013-.426c.186-.08.372-.12.559-.12.178 0 .335.038.474.113.137.075.241.193.312.353l.054.113.053.127c.124.258.275.549.453.872.178.324.417.629.719.913s.678.523 1.126.719 1.006.293 1.671.293c.666 0 1.25-.108 1.752-.326s.919-.499 1.252-.846.584-.732.753-1.159c.168-.426.253-.848.253-1.265 0-.516-.069-.986-.207-1.412-.138-.427-.386-.795-.745-1.105-.36-.311-.857-.555-1.492-.732s-1.449-.267-2.444-.267v-1.731c.809 0 1.499-.084 2.071-.253.573-.169 1.041-.399 1.405-.692s.628-.645.793-1.053c.164-.408.246-.861.246-1.358 0-.551-.087-1.03-.26-1.438s-.411-.746-.713-1.013c-.302-.266-.659-.466-1.072-.599-.413-.134-.858-.2-1.338-.2s-.924.071-1.332.213c-.409.142-.771.34-1.086.592-.315.253-.579.555-.792.905-.214.351-.373.729-.479 1.138-.071.257-.178.443-.32.559-.142.115-.324.173-.546.173l-.14-.007-.167-.02-1.238-.21c.124-.87.364-1.64.72-2.311.354-.67.806-1.231 1.352-1.685s1.172-.797 1.878-1.032 1.465-.354 2.282-.354zM610.028 364.254c0 .745-.116 1.414-.347 2.004-.231.591-.539 1.088-.926 1.492-.386.404-.837.712-1.352.926-.516.213-1.053.319-1.612.319-.604 0-1.16-.106-1.671-.319-.511-.214-.957-.521-1.339-.926s-.679-.901-.893-1.492c-.213-.59-.319-1.259-.319-2.004 0-.764.106-1.443.319-2.038.214-.595.511-1.097.893-1.505s.828-.72 1.339-.933 1.067-.319 1.671-.319c.596 0 1.152.106 1.672.319s.968.524 1.346.933c.377.408.674.91.892 1.505s.327 1.274.327 2.038zm6.673-4.129c.115-.151.237-.269.366-.354.128-.084.299-.126.513-.126h1.704l-13.944 18.699c-.089.116-.195.209-.32.28-.124.071-.271.106-.439.106h-1.758l13.878-18.605zm-8.524 4.129c0-.587-.062-1.084-.187-1.492-.125-.408-.296-.743-.513-1.006-.218-.262-.471-.45-.76-.565-.288-.115-.597-.174-.926-.174-.328 0-.637.059-.925.174-.289.115-.54.304-.753.565-.213.263-.38.598-.499 1.006-.12.408-.181.905-.181 1.492 0 .577.061 1.067.181 1.472.119.404.286.732.499.985s.464.436.753.546c.288.111.597.167.925.167.329 0 .638-.056.926-.167.289-.11.542-.293.76-.546.217-.253.388-.581.513-.985.124-.405.187-.895.187-1.472zm12.399 9.975c0 .746-.115 1.412-.346 1.998-.231.586-.54 1.081-.926 1.485-.387.403-.835.712-1.346.926-.511.213-1.045.319-1.604.319-.604 0-1.161-.106-1.672-.319-.511-.214-.957-.522-1.338-.926-.382-.404-.68-.899-.893-1.485s-.32-1.252-.32-1.998c0-.764.107-1.445.32-2.044.213-.6.511-1.104.893-1.512.381-.409.827-.72 1.338-.933s1.067-.32 1.672-.32c.595 0 1.149.107 1.665.32.515.213.963.523 1.345.933.382.408.68.912.893 1.512.213.599.319 1.281.319 2.044zm-1.838 0c0-.586-.062-1.085-.187-1.498-.124-.413-.295-.748-.513-1.006s-.471-.444-.759-.56c-.289-.115-.598-.173-.926-.173-.329 0-.638.058-.926.173-.289.115-.539.302-.753.56-.213.258-.379.593-.499 1.006s-.18.912-.18 1.498c0 .577.06 1.065.18 1.465.12.4.286.727.499.979.214.253.464.435.753.546.288.111.597.166.926.166.328 0 .637-.055.926-.166.288-.111.541-.293.759-.546s.389-.579.513-.979c.126-.399.187-.887.187-1.465z"/></g><g fill="#fff"><path d="M752.185 249.593h4.103v-13.013c0-.391.014-.786.04-1.186l-3.41 2.917c-.089.071-.178.122-.266.153l-.253.047c-.134 0-.254-.029-.36-.087s-.187-.127-.239-.206l-.746-1.026 5.674-4.914h1.932v17.314h3.756v1.812h-10.229v-1.811zM776.839 233.356c0 .338-.106.615-.32.833-.213.218-.572.326-1.078.326h-5.994l-.879 5.008c.994-.213 1.913-.319 2.757-.319.994 0 1.871.146 2.631.439.759.293 1.396.697 1.911 1.212s.903 1.123 1.165 1.825c.262.701.394 1.465.394 2.29 0 1.013-.178 1.928-.533 2.744-.355.817-.841 1.517-1.458 2.098-.617.582-1.344 1.028-2.178 1.339-.835.311-1.736.466-2.704.466-.56 0-1.097-.056-1.611-.166-.516-.111-.995-.26-1.438-.446-.444-.187-.857-.399-1.238-.64-.383-.239-.72-.492-1.013-.759l.719-1.013c.16-.23.373-.346.64-.346.169 0 .366.068.593.206s.499.291.819.46c.319.168.694.321 1.125.459s.943.206 1.539.206c.665 0 1.265-.106 1.798-.319.532-.213.987-.517 1.365-.912.377-.396.668-.868.872-1.419.204-.55.307-1.167.307-1.851 0-.595-.087-1.133-.26-1.612s-.436-.888-.786-1.226c-.351-.337-.788-.599-1.312-.785-.524-.187-1.137-.28-1.838-.28-.479 0-.978.04-1.492.12s-1.048.209-1.599.387l-1.491-.439 1.545-8.924h9.044v1.038zM788.679 236.927c0 .745-.116 1.414-.347 2.004-.231.591-.539 1.088-.926 1.492-.386.404-.837.712-1.352.926-.516.213-1.053.319-1.612.319-.604 0-1.16-.106-1.671-.319-.511-.214-.957-.521-1.339-.926s-.679-.901-.893-1.492c-.213-.59-.319-1.259-.319-2.004 0-.764.106-1.443.319-2.038.214-.595.511-1.097.893-1.505s.828-.72 1.339-.933 1.067-.319 1.671-.319c.596 0 1.152.106 1.672.319s.968.524 1.346.933c.377.408.674.91.892 1.505s.327 1.274.327 2.038zm6.673-4.129c.115-.151.237-.269.366-.354.128-.084.299-.126.513-.126h1.704l-13.944 18.699c-.089.116-.195.209-.32.28-.124.071-.271.106-.439.106h-1.758l13.878-18.605zm-8.525 4.129c0-.587-.062-1.084-.187-1.492-.125-.408-.296-.743-.513-1.006-.218-.262-.471-.45-.76-.565-.288-.115-.597-.174-.926-.174-.328 0-.637.059-.925.174-.289.115-.54.304-.753.565-.213.263-.38.598-.499 1.006-.12.408-.181.905-.181 1.492 0 .577.061 1.067.181 1.472.119.404.286.732.499.985s.464.436.753.546c.288.111.597.167.925.167.329 0 .638-.056.926-.167.289-.11.542-.293.76-.546.217-.253.388-.581.513-.985.125-.405.187-.895.187-1.472zm12.4 9.975c0 .746-.115 1.412-.346 1.998-.231.586-.54 1.081-.926 1.485-.387.403-.835.712-1.346.926-.511.213-1.045.319-1.604.319-.604 0-1.161-.106-1.672-.319-.511-.214-.957-.522-1.338-.926-.382-.404-.68-.899-.893-1.485s-.32-1.252-.32-1.998c0-.764.107-1.445.32-2.044.213-.6.511-1.104.893-1.512.381-.409.827-.72 1.338-.933s1.067-.32 1.672-.32c.595 0 1.149.107 1.665.32.515.213.963.523 1.345.933.382.408.68.912.893 1.512.212.599.319 1.281.319 2.044zm-1.838 0c0-.586-.062-1.085-.187-1.498-.124-.413-.295-.748-.513-1.006s-.471-.444-.759-.56c-.289-.115-.598-.173-.926-.173-.329 0-.638.058-.926.173-.289.115-.539.302-.753.56-.213.258-.379.593-.499 1.006s-.18.912-.18 1.498c0 .577.06 1.065.18 1.465.12.4.286.727.499.979.214.253.464.435.753.546.288.111.597.166.926.166.328 0 .637-.055.926-.166.288-.111.541-.293.759-.546s.389-.579.513-.979c.125-.399.187-.888.187-1.465z"/></g></svg>