<svg xmlns="http://www.w3.org/2000/svg" width="800" height="599.97" viewBox="0 0 800 599.97"><g><g fill="#fff"><path d="M95.396 533.186h-1.109c-.128 0-.232-.031-.311-.096-.079-.064-.138-.145-.177-.244l-.991-2.559h-4.756l-.991 2.559c-.035.088-.094.168-.178.236-.084.07-.188.104-.311.104h-1.11l4.239-10.6h1.457l4.238 10.6zm-6.945-3.936h3.958l-1.665-4.312c-.108-.266-.214-.598-.318-.998l-.159.559-.152.447-1.664 4.304zM96.573 533.186v-10.896h1.324v4.484c.311-.361.667-.65 1.069-.869.402-.221.862-.33 1.38-.33.434 0 .826.082 1.176.244.35.162.648.406.895.729.246.324.436.723.569 1.199.133.475.2 1.023.2 1.645 0 .553-.074 1.066-.222 1.543s-.361.887-.64 1.234c-.278.348-.619.623-1.021.822-.402.199-.854.299-1.357.299-.483 0-.894-.094-1.232-.281-.337-.188-.632-.447-.884-.783l-.066.68c-.04.188-.153.281-.34.281h-.851zm3.343-6.561c-.429 0-.805.098-1.128.295-.323.197-.62.477-.892.836v3.625c.237.326.5.555.788.688.289.135.61.201.965.201.7 0 1.238-.25 1.612-.748.375-.498.562-1.207.562-2.131 0-.488-.043-.906-.129-1.258-.086-.35-.211-.637-.374-.861-.163-.225-.363-.389-.6-.492-.234-.104-.503-.155-.804-.155zM105.938 525.693v4.777c0 .568.13 1.006.392 1.316.261.312.656.467 1.184.467.384 0 .747-.092 1.087-.273.34-.182.653-.438.939-.762v-5.525h1.317v7.492h-.784c-.188 0-.306-.09-.355-.273l-.104-.807c-.326.361-.69.65-1.095.869-.404.221-.868.33-1.391.33-.41 0-.771-.068-1.084-.203-.313-.137-.576-.328-.788-.574s-.371-.545-.477-.895-.159-.738-.159-1.162v-4.777h1.318zM117.314 526.928c-.059.109-.15.162-.273.162-.074 0-.158-.025-.251-.08l-.344-.182s-.297-.129-.484-.186-.409-.084-.666-.084c-.222 0-.422.027-.599.084-.178.057-.33.135-.455.234-.126.098-.222.213-.289.344s-.1.271-.1.426c0 .191.055.352.166.48.111.127.258.238.44.332.182.094.389.176.621.248l.714.229c.244.082.482.172.714.271.232.098.439.221.622.369.182.148.329.33.44.543.111.215.167.473.167.773 0 .346-.062.664-.185.959-.123.293-.306.547-.547.762s-.538.383-.888.506-.754.186-1.213.186c-.523 0-.996-.086-1.42-.256s-.784-.389-1.08-.654l.311-.504.14-.146c.054-.035.126-.053.215-.053.088 0 .182.035.281.104l.359.23s.311.16.51.229.45.104.751.104c.256 0 .481-.033.673-.1s.353-.156.48-.27c.128-.113.223-.244.285-.393.062-.148.092-.307.092-.473 0-.207-.056-.379-.167-.516-.111-.135-.258-.25-.44-.348-.183-.096-.391-.18-.625-.25l-.718-.227s-.483-.168-.717-.27c-.234-.102-.443-.229-.625-.381-.183-.152-.33-.342-.44-.566s-.167-.496-.167-.816c0-.287.059-.562.178-.826.118-.264.291-.494.518-.695.227-.199.505-.357.836-.477s.708-.178 1.132-.178c.493 0 .936.078 1.328.232.392.156.731.369 1.017.641l-.297.483zM122.411 525.574c.449 0 .863.076 1.243.227.379.15.708.367.984.65.276.283.492.633.647 1.051.155.416.233.891.233 1.424 0 .207-.022.344-.066.414-.044.068-.128.104-.251.104h-4.986c.01.473.074.885.192 1.234.119.352.281.643.488.877s.454.41.74.525.606.174.961.174c.331 0 .615-.037.854-.115.239-.076.445-.158.618-.248.172-.088.317-.17.433-.246.116-.078.216-.115.3-.115.108 0 .192.041.251.125l.37.48c-.163.197-.357.369-.584.516-.227.145-.47.264-.729.357-.259.094-.526.164-.802.211-.276.047-.55.07-.821.07-.518 0-.995-.088-1.431-.262-.437-.176-.814-.432-1.132-.77-.318-.338-.566-.756-.744-1.254-.177-.498-.266-1.07-.266-1.717 0-.521.08-1.01.24-1.465.16-.453.391-.846.692-1.18.301-.332.668-.594 1.102-.783s.921-.284 1.464-.284zm.029.969c-.636 0-1.137.184-1.501.551-.365.367-.592.877-.681 1.527h4.076c0-.305-.042-.584-.125-.838s-.207-.475-.37-.658c-.163-.186-.361-.328-.595-.43s-.503-.152-.804-.152zM133.084 525.574c.547 0 1.042.092 1.483.273.441.184.816.441 1.125.777s.545.74.71 1.217c.166.477.248 1.008.248 1.594 0 .592-.083 1.125-.248 1.598-.165.475-.402.879-.71 1.213-.308.336-.683.594-1.125.773s-.936.27-1.483.27-1.042-.09-1.483-.27c-.441-.18-.817-.438-1.128-.773-.311-.334-.55-.738-.717-1.213-.168-.473-.251-1.006-.251-1.598 0-.586.083-1.117.251-1.594.167-.477.407-.881.717-1.217.311-.336.687-.594 1.128-.777.441-.181.936-.273 1.483-.273zm0 6.688c.74 0 1.292-.248 1.657-.744s.547-1.188.547-2.074c0-.893-.182-1.588-.547-2.086-.365-.498-.917-.748-1.657-.748-.375 0-.7.064-.977.193-.276.127-.506.312-.691.555s-.323.539-.415.891c-.091.354-.137.752-.137 1.195s.045.84.137 1.191c.091.35.229.645.415.883.185.24.416.424.691.551.277.128.602.193.977.193zM138.573 533.186v-6.369l-.829-.096c-.104-.023-.188-.062-.255-.115-.066-.051-.1-.127-.1-.225v-.541h1.184v-.725c0-.428.06-.809.181-1.143.121-.332.293-.613.518-.844.225-.229.495-.402.81-.521.315-.117.671-.178 1.065-.178.335 0 .646.051.932.148l-.03.658c-.005.1-.047.158-.126.178-.079.02-.19.029-.333.029h-.229c-.227 0-.433.029-.618.09-.185.059-.344.154-.477.287-.133.135-.235.309-.307.525-.071.219-.107.486-.107.807v.688h2.167v.955h-2.123v6.391h-1.323zM79.537 543.32c.325 0 .63.035.914.107.283.07.541.176.773.314h2.034v.488c0 .162-.104.266-.311.311l-.851.117c.168.32.251.678.251 1.072 0 .365-.07.697-.21.996-.141.299-.335.553-.584.766-.249.211-.545.375-.888.488s-.719.17-1.128.17c-.351 0-.681-.043-.991-.125-.158.102-.277.211-.359.328s-.122.232-.122.344c0 .184.071.322.214.418.143.094.333.16.57.201s.505.062.806.062h.921s.62.027.921.082.57.145.807.27c.236.125.426.297.569.516.143.221.214.506.214.854 0 .326-.08.641-.24.943-.16.305-.391.576-.691.814-.301.236-.668.426-1.103.568s-.924.213-1.472.213-1.027-.055-1.439-.162c-.412-.109-.753-.254-1.024-.438-.271-.182-.475-.395-.61-.633-.136-.24-.204-.49-.204-.752 0-.371.117-.686.352-.943.234-.26.556-.467.965-.619-.212-.098-.381-.23-.507-.395-.125-.166-.188-.385-.188-.662 0-.107.02-.219.059-.336.04-.115.1-.23.181-.344.082-.113.182-.221.3-.324s.256-.193.414-.273c-.37-.207-.66-.482-.869-.824-.209-.344-.314-.744-.314-1.203 0-.363.07-.695.211-.994s.336-.553.588-.762c.252-.209.551-.371.899-.484s.728-.169 1.142-.169zm2.338 7.998c0-.189-.052-.344-.155-.459s-.244-.205-.422-.268c-.177-.064-.382-.109-.614-.141-.232-.029-.476-.045-.732-.045h-.784c-.266 0-.52-.033-.762-.1-.281.133-.509.297-.684.488-.175.193-.263.422-.263.689 0 .168.043.324.129.471.086.145.218.271.396.377.178.107.401.191.669.252.269.062.586.094.951.094.355 0 .673-.033.954-.098.281-.066.519-.16.714-.279.195-.121.344-.266.448-.432s.155-.347.155-.549zm-2.338-4.041c.266 0 .501-.037.706-.111s.376-.178.514-.311.242-.291.311-.477.104-.389.104-.611c0-.457-.14-.822-.418-1.094-.279-.271-.685-.406-1.217-.406-.528 0-.931.135-1.209.406-.279.271-.418.637-.418 1.094 0 .223.036.426.107.611.071.186.176.344.314.477s.308.236.511.311c.202.074.433.111.695.111zM87.607 543.328c.547 0 1.042.09 1.483.273.441.182.816.441 1.125.775.308.336.545.742.71 1.217.166.477.248 1.008.248 1.596 0 .592-.083 1.123-.248 1.598-.165.473-.402.877-.71 1.213-.308.334-.683.592-1.125.773-.441.18-.936.27-1.483.27s-1.042-.09-1.483-.27c-.441-.182-.817-.439-1.128-.773-.311-.336-.55-.74-.717-1.213-.168-.475-.251-1.006-.251-1.598 0-.588.083-1.119.251-1.596.167-.475.407-.881.717-1.217.311-.334.687-.594 1.128-.775.441-.183.936-.273 1.483-.273zm0 6.686c.74 0 1.292-.248 1.657-.742.365-.496.547-1.188.547-2.076 0-.893-.182-1.588-.547-2.086-.365-.498-.917-.746-1.657-.746-.375 0-.7.064-.977.191-.276.129-.506.314-.691.555-.185.242-.323.539-.415.893-.091.352-.137.75-.137 1.193 0 .445.045.842.137 1.191s.229.645.415.885c.185.238.416.422.691.551.277.128.602.191.977.191zM91.661 543.445h1.08c.104 0 .19.027.259.082.069.055.118.117.148.191l1.901 4.824c.069.178.123.354.163.531l.111.525.125-.525s.101-.354.17-.531l1.923-4.824c.03-.078.078-.145.145-.195.066-.053.149-.078.248-.078h1.028l-3.055 7.494h-1.191l-3.055-7.494zM102.957 543.328c.449 0 .863.074 1.243.225.379.15.708.367.984.65.276.285.492.635.647 1.051.155.418.233.893.233 1.424 0 .207-.022.346-.066.414-.044.07-.128.104-.251.104h-4.986c.01.475.074.887.192 1.236.119.35.281.643.488.877s.454.408.74.525c.286.115.606.174.961.174.331 0 .615-.039.854-.115s.445-.16.618-.248c.172-.088.317-.172.433-.248s.216-.115.3-.115c.108 0 .192.043.251.127l.37.48c-.163.197-.357.369-.584.514-.227.146-.47.266-.729.359-.259.094-.526.164-.802.211-.276.047-.55.07-.821.07-.518 0-.995-.088-1.431-.264-.437-.174-.814-.432-1.132-.77-.318-.336-.566-.754-.744-1.254-.177-.498-.266-1.068-.266-1.715 0-.523.08-1.012.24-1.465s.391-.848.692-1.18c.301-.334.668-.594 1.102-.785.433-.188.921-.282 1.464-.282zm.029.969c-.636 0-1.137.184-1.501.551-.365.367-.592.877-.681 1.527h4.076c0-.307-.042-.586-.125-.84s-.207-.473-.37-.658c-.163-.186-.361-.328-.595-.43-.236-.099-.503-.15-.804-.15zM107.742 550.939v-7.494h.754c.143 0 .242.027.296.082s.091.148.111.281l.089 1.168c.256-.521.573-.93.951-1.225.377-.293.82-.439 1.328-.439.207 0 .395.023.562.07.168.047.323.111.466.195l-.17.984c-.034.123-.111.186-.229.186-.069 0-.175-.023-.318-.07s-.343-.07-.599-.07c-.458 0-.842.133-1.15.398-.308.268-.565.654-.773 1.162v4.771h-1.318zM113.704 550.939v-7.494h.784c.187 0 .306.092.355.273l.104.814c.325-.359.689-.65 1.091-.873s.867-.332 1.395-.332c.409 0 .771.066 1.083.203.313.135.575.328.784.576.209.25.369.549.477.898.108.352.163.738.163 1.162v4.771h-1.317v-4.771c0-.566-.129-1.008-.388-1.32-.259-.312-.655-.471-1.188-.471-.39 0-.753.094-1.091.281-.338.188-.65.441-.936.762v5.52h-1.316zM121.93 550.939v-7.494h.784c.187 0 .306.092.355.273l.096.77c.276-.34.585-.619.928-.836s.741-.324 1.195-.324c.508 0 .918.141 1.231.42.313.281.539.662.677 1.141.104-.271.24-.506.411-.703.17-.197.361-.359.573-.488s.438-.223.677-.281.482-.088.729-.088c.395 0 .746.062 1.054.188.308.127.57.311.784.551.214.242.378.539.492.893.113.352.17.756.17 1.209v4.771h-1.317v-4.771c0-.588-.128-1.031-.385-1.336-.256-.303-.628-.455-1.117-.455-.217 0-.423.039-.618.115s-.366.189-.514.336c-.148.148-.265.334-.352.559-.086.225-.129.484-.129.781v4.771h-1.316v-4.771c0-.602-.121-1.051-.363-1.346-.242-.297-.594-.445-1.058-.445-.325 0-.627.088-.906.264-.278.174-.534.412-.766.713v5.586h-1.315zM137.042 543.328c.449 0 .863.074 1.243.225.379.15.708.367.984.65.276.285.492.635.647 1.051.155.418.233.893.233 1.424 0 .207-.022.346-.066.414-.044.07-.128.104-.251.104h-4.986c.01.475.074.887.192 1.236.119.35.281.643.488.877s.454.408.74.525c.286.115.606.174.961.174.331 0 .615-.039.854-.115s.445-.16.618-.248c.172-.088.317-.172.433-.248s.216-.115.3-.115c.108 0 .192.043.251.127l.37.48c-.163.197-.357.369-.584.514-.227.146-.47.266-.729.359-.259.094-.526.164-.802.211-.276.047-.55.07-.821.07-.518 0-.995-.088-1.431-.264-.437-.174-.814-.432-1.132-.77-.318-.336-.566-.754-.744-1.254-.177-.498-.266-1.068-.266-1.715 0-.523.08-1.012.24-1.465s.391-.848.692-1.18c.301-.334.668-.594 1.102-.785.433-.188.922-.282 1.464-.282zm.029.969c-.636 0-1.137.184-1.501.551-.365.367-.592.877-.681 1.527h4.076c0-.307-.042-.586-.125-.84s-.207-.473-.37-.658c-.163-.186-.361-.328-.595-.43-.235-.099-.503-.15-.804-.15zM141.828 550.939v-7.494h.784c.187 0 .306.092.355.273l.104.814c.325-.359.689-.65 1.091-.873s.867-.332 1.395-.332c.409 0 .771.066 1.083.203.313.135.575.328.784.576.209.25.369.549.477.898.108.352.163.738.163 1.162v4.771h-1.317v-4.771c0-.566-.129-1.008-.388-1.32-.259-.312-.655-.471-1.188-.471-.39 0-.753.094-1.091.281-.338.188-.65.441-.936.762v5.52h-1.316zM152.324 551.057c-.592 0-1.047-.164-1.365-.494-.318-.332-.478-.807-.478-1.428v-4.588h-.902c-.079 0-.146-.021-.2-.07-.054-.045-.081-.119-.081-.217v-.525l1.228-.156.303-2.314c.01-.074.042-.135.096-.182s.124-.07.208-.07h.666v2.582h2.145v.953h-2.145v4.498c0 .316.076.551.229.703.153.152.35.229.592.229.138 0 .257-.018.358-.055l.263-.123.188-.121.137-.055c.069 0 .13.041.185.125l.385.629c-.227.213-.5.379-.821.5-.32.118-.651.179-.991.179zM70.047 568.693v-7.494h.754c.143 0 .242.027.296.082s.091.148.111.281l.089 1.168c.256-.521.573-.93.951-1.225.377-.293.82-.439 1.328-.439.207 0 .395.023.562.07.168.047.323.111.466.195l-.17.984c-.034.123-.111.186-.229.186-.069 0-.175-.023-.318-.07s-.343-.07-.599-.07c-.458 0-.842.133-1.15.398-.308.268-.565.654-.773 1.162v4.771h-1.318zM78.975 561.082c.449 0 .863.074 1.243.225.379.15.708.367.984.65.276.285.492.635.647 1.051.155.418.233.893.233 1.424 0 .207-.022.346-.066.414-.044.07-.128.104-.251.104h-4.986c.01.475.074.887.192 1.236.119.35.281.643.488.877s.454.408.74.525c.286.115.606.174.961.174.331 0 .615-.039.854-.115s.445-.16.618-.248c.172-.088.317-.172.433-.248s.216-.115.3-.115c.108 0 .192.043.251.127l.37.48c-.163.197-.357.369-.584.514-.227.146-.47.266-.729.359-.259.094-.526.164-.802.211-.276.047-.55.07-.821.07-.518 0-.995-.088-1.431-.264-.437-.174-.814-.432-1.132-.77-.318-.336-.566-.754-.744-1.254-.177-.498-.266-1.068-.266-1.715 0-.523.08-1.012.24-1.465s.391-.848.692-1.18c.301-.334.668-.594 1.102-.785.433-.188.922-.282 1.464-.282zm.029.969c-.636 0-1.137.184-1.501.551-.365.367-.592.877-.681 1.527h4.076c0-.307-.042-.586-.125-.84s-.207-.473-.37-.658c-.163-.186-.361-.328-.595-.43-.235-.099-.503-.15-.804-.15zM88.051 562.436c-.059.107-.15.162-.273.162-.074 0-.158-.027-.251-.082l-.344-.18c-.136-.068-.297-.129-.484-.186s-.409-.086-.666-.086c-.222 0-.422.029-.599.086-.178.057-.33.135-.455.232-.126.1-.222.213-.289.344s-.1.273-.1.426c0 .191.055.354.166.48.111.129.258.24.44.334.182.094.389.176.621.248l.714.229s.482.172.714.27c.232.1.439.223.622.371.182.146.329.328.44.543s.167.473.167.773c0 .344-.062.664-.185.957s-.306.547-.547.762-.538.385-.888.508-.754.184-1.213.184c-.523 0-.996-.084-1.42-.254s-.784-.389-1.08-.654l.311-.504.14-.148c.054-.033.126-.051.215-.051.088 0 .182.033.281.104l.359.229s.311.16.51.23c.2.068.45.104.751.104.256 0 .481-.033.673-.102.192-.066.353-.156.48-.27.128-.113.223-.244.285-.393.062-.146.092-.305.092-.473 0-.207-.056-.379-.167-.514-.111-.137-.258-.252-.44-.348-.183-.096-.391-.18-.625-.252l-.718-.225c-.244-.08-.483-.17-.717-.271-.234-.1-.443-.227-.625-.381-.183-.152-.33-.342-.44-.564-.111-.225-.167-.498-.167-.818 0-.285.059-.561.178-.824.118-.264.291-.496.518-.695.227-.201.505-.359.836-.479.331-.117.708-.176 1.132-.176.493 0 .936.076 1.328.232.392.154.731.369 1.017.639l-.297.483zM93.214 561.082c.547 0 1.042.09 1.483.273.441.182.816.441 1.125.775.308.336.545.742.71 1.217.166.477.248 1.008.248 1.596 0 .592-.083 1.123-.248 1.598-.165.473-.402.877-.71 1.213-.308.334-.683.592-1.125.773-.441.18-.936.27-1.483.27s-1.042-.09-1.483-.27c-.441-.182-.817-.439-1.128-.773-.311-.336-.55-.74-.717-1.213-.168-.475-.251-1.006-.251-1.598 0-.588.083-1.119.251-1.596.167-.475.407-.881.717-1.217.311-.334.687-.594 1.128-.775.441-.183.936-.273 1.483-.273zm0 6.686c.74 0 1.292-.248 1.657-.742.365-.496.547-1.188.547-2.076 0-.893-.182-1.588-.547-2.086-.365-.498-.917-.746-1.657-.746-.375 0-.7.064-.977.191-.276.129-.506.314-.691.555-.185.242-.323.539-.415.893-.091.352-.137.75-.137 1.193 0 .445.045.842.137 1.191s.229.645.415.885c.185.238.416.422.691.551.277.128.602.191.977.191zM99.546 561.199v4.779c0 .566.13 1.006.392 1.316.261.311.656.467 1.184.467.384 0 .747-.092 1.087-.275.34-.182.653-.436.939-.762v-5.525h1.317v7.494h-.784c-.188 0-.306-.092-.355-.273l-.104-.807c-.326.359-.69.648-1.095.869-.404.219-.868.328-1.391.328-.41 0-.771-.066-1.084-.203-.313-.135-.576-.326-.788-.572-.212-.248-.371-.545-.477-.896-.106-.35-.159-.736-.159-1.16v-4.779h1.318zM106.632 568.693v-7.494h.754c.143 0 .242.027.296.082s.091.148.111.281l.089 1.168c.256-.521.573-.93.951-1.225.377-.293.82-.439 1.328-.439.207 0 .395.023.562.07.168.047.323.111.466.195l-.17.984c-.034.123-.111.186-.229.186-.069 0-.175-.023-.318-.07s-.343-.07-.599-.07c-.458 0-.842.133-1.15.398-.308.268-.565.654-.773 1.162v4.771h-1.318zM117.706 562.531l-.118.125-.17.045c-.074 0-.154-.031-.24-.092l-.329-.203c-.133-.074-.295-.143-.485-.205-.19-.061-.423-.092-.699-.092-.365 0-.688.066-.969.195-.281.131-.517.32-.707.566-.189.246-.333.545-.429.895-.096.352-.145.742-.145 1.178 0 .453.052.855.155 1.209.104.352.249.648.437.887.188.24.416.422.685.549.269.125.57.188.906.188.321 0 .584-.037.792-.115.208-.076.38-.16.518-.254l.34-.256c.088-.076.177-.115.266-.115.113 0 .197.043.251.127l.37.48c-.326.398-.732.691-1.221.877-.488.184-1.003.277-1.546.277-.469 0-.904-.086-1.306-.26-.402-.172-.751-.422-1.047-.75s-.529-.73-.699-1.209c-.17-.479-.255-1.023-.255-1.635 0-.559.078-1.074.233-1.547s.382-.881.681-1.225c.298-.342.667-.609 1.106-.803.439-.191.942-.287 1.509-.287.523 0 .986.084 1.391.254s.762.41 1.073.721l-.348.475zM122.469 561.082c.449 0 .863.074 1.243.225.379.15.708.367.984.65.276.285.492.635.647 1.051.155.418.233.893.233 1.424 0 .207-.022.346-.066.414-.044.07-.128.104-.251.104h-4.986c.01.475.074.887.192 1.236.119.35.281.643.488.877s.454.408.74.525c.286.115.606.174.961.174.331 0 .615-.039.854-.115s.445-.16.618-.248c.172-.088.317-.172.433-.248s.216-.115.3-.115c.108 0 .192.043.251.127l.37.48c-.163.197-.357.369-.584.514-.227.146-.47.266-.729.359-.259.094-.526.164-.802.211-.276.047-.55.07-.821.07-.518 0-.995-.088-1.431-.264-.437-.174-.814-.432-1.132-.77-.318-.336-.566-.754-.744-1.254-.177-.498-.266-1.068-.266-1.715 0-.523.08-1.012.24-1.465s.391-.848.692-1.18c.301-.334.668-.594 1.102-.785.433-.188.922-.282 1.464-.282zm.03.969c-.636 0-1.137.184-1.501.551-.365.367-.592.877-.681 1.527h4.076c0-.307-.042-.586-.125-.84s-.207-.473-.37-.658c-.163-.186-.361-.328-.595-.43-.236-.099-.504-.15-.804-.15zM131.545 562.436c-.059.107-.15.162-.273.162-.074 0-.158-.027-.251-.082l-.344-.18c-.136-.068-.297-.129-.484-.186s-.409-.086-.666-.086c-.222 0-.422.029-.599.086-.178.057-.33.135-.455.232-.126.1-.222.213-.289.344s-.1.273-.1.426c0 .191.055.354.166.48.111.129.258.24.44.334.182.094.389.176.621.248l.714.229s.482.172.714.27c.232.1.439.223.622.371.182.146.329.328.44.543s.167.473.167.773c0 .344-.062.664-.185.957s-.306.547-.547.762-.538.385-.888.508-.754.184-1.213.184c-.523 0-.996-.084-1.42-.254s-.784-.389-1.08-.654l.311-.504.14-.148c.054-.033.126-.051.215-.051.088 0 .182.033.281.104l.359.229s.311.16.51.23c.2.068.45.104.751.104.256 0 .481-.033.673-.102.192-.066.353-.156.48-.27.128-.113.223-.244.285-.393.062-.146.092-.305.092-.473 0-.207-.056-.379-.167-.514-.111-.137-.258-.252-.44-.348-.183-.096-.391-.18-.625-.252l-.718-.225c-.244-.08-.483-.17-.717-.271-.234-.1-.443-.227-.625-.381-.183-.152-.33-.342-.44-.564-.111-.225-.167-.498-.167-.818 0-.285.059-.561.178-.824.118-.264.291-.496.518-.695.227-.201.505-.359.836-.479.331-.117.708-.176 1.132-.176.493 0 .936.076 1.328.232.392.154.731.369 1.017.639l-.297.483zM136.575 568.693v-10.896h1.324v4.482c.311-.359.667-.65 1.069-.869.402-.219.862-.328 1.38-.328.434 0 .826.08 1.176.244.35.162.648.404.895.729.246.322.436.723.569 1.197.133.477.2 1.025.2 1.646 0 .553-.074 1.066-.222 1.543-.148.475-.361.887-.64 1.234-.278.348-.619.621-1.021.82-.402.201-.854.301-1.357.301-.483 0-.894-.094-1.232-.281-.337-.188-.632-.449-.884-.785l-.066.682c-.04.188-.153.281-.34.281h-.851zm3.343-6.562c-.429 0-.805.1-1.128.297-.323.197-.62.477-.892.836v3.625c.237.324.5.555.788.688s.61.199.965.199c.7 0 1.238-.248 1.612-.746.375-.498.562-1.209.562-2.131 0-.488-.043-.908-.129-1.258-.086-.35-.211-.637-.374-.861-.163-.225-.363-.389-.6-.492-.234-.104-.503-.157-.804-.157zM146.805 570.904c-.044.1-.1.178-.167.236-.066.061-.169.09-.307.09h-.977l1.368-2.975-3.092-7.057h1.139c.113 0 .202.029.266.086.064.057.111.119.141.188l2.005 4.721.115.324.085.334.104-.334.118-.332 1.945-4.713c.03-.078.081-.145.152-.195.071-.053.149-.078.233-.078h1.05l-4.178 9.705zM160.542 568.693h-.584c-.128 0-.232-.02-.311-.061-.079-.039-.131-.123-.155-.25l-.148-.695c-.197.178-.39.336-.577.477s-.385.26-.592.355-.428.168-.662.217c-.234.051-.494.074-.78.074-.291 0-.563-.041-.817-.121-.254-.082-.475-.205-.662-.367-.188-.164-.336-.371-.447-.621-.111-.25-.167-.545-.167-.887 0-.297.081-.582.244-.857.163-.273.425-.518.788-.73s.837-.387 1.424-.523 1.305-.205 2.153-.205v-.588c0-.586-.125-1.027-.374-1.328s-.618-.451-1.106-.451c-.321 0-.591.041-.81.123s-.409.172-.569.273l-.415.273s-.23.123-.344.123c-.089 0-.167-.023-.233-.07-.067-.047-.12-.105-.159-.174l-.237-.422c.414-.4.86-.697 1.339-.896.479-.195 1.008-.295 1.59-.295.419 0 .792.068 1.117.207.325.139.599.33.821.576.222.248.39.545.503.896.114.35.17.734.17 1.154v4.793zm-3.418-.806c.231 0 .444-.023.636-.07s.374-.113.543-.199c.17-.086.333-.191.488-.314s.307-.264.455-.422v-1.547c-.607 0-1.122.039-1.546.115-.424.078-.77.178-1.036.303-.267.123-.46.27-.581.438-.121.17-.181.357-.181.566 0 .197.032.369.096.514.064.143.15.262.259.354s.237.158.385.201c.149.039.309.061.482.061zM73.479 588.982v-10.029h.784c.187 0 .306.09.355.273l.111.887c.32-.389.687-.703 1.099-.939.412-.236.886-.355 1.424-.355.429 0 .818.084 1.168.248.35.166.648.41.896.732.246.324.436.725.569 1.203s.2 1.027.2 1.648c0 .553-.074 1.066-.222 1.543s-.36.887-.636 1.234c-.276.348-.615.623-1.017.822-.402.199-.854.299-1.357.299-.464 0-.859-.076-1.188-.229-.328-.152-.618-.371-.869-.65v3.312h-1.317zm3.336-9.097c-.429 0-.805.098-1.128.295-.323.197-.62.477-.892.836v3.625c.242.326.507.555.795.688.289.135.61.201.965.201.695 0 1.23-.25 1.605-.748s.562-1.207.562-2.131c0-.488-.043-.906-.13-1.258-.086-.35-.21-.637-.374-.861-.163-.225-.362-.389-.599-.492-.234-.104-.503-.155-.804-.155zM82.784 578.953v4.777c0 .568.13 1.006.392 1.316.261.312.656.467 1.184.467.384 0 .747-.092 1.087-.273.34-.182.653-.438.939-.762v-5.525h1.317v7.492h-.784c-.188 0-.306-.09-.355-.273l-.104-.807c-.326.361-.69.65-1.095.869-.404.221-.868.33-1.391.33-.41 0-.771-.068-1.084-.203-.313-.137-.576-.328-.788-.574s-.371-.545-.477-.895-.159-.738-.159-1.162v-4.777h1.318zM89.915 586.445v-10.896h1.324v4.484c.311-.361.667-.65 1.069-.869.402-.221.862-.33 1.38-.33.434 0 .826.082 1.176.244.35.162.648.406.895.729.246.324.436.723.569 1.199.133.475.2 1.023.2 1.645 0 .553-.074 1.066-.222 1.543s-.361.887-.64 1.234c-.278.348-.619.623-1.021.822-.402.199-.854.299-1.357.299-.483 0-.894-.094-1.232-.281-.337-.188-.632-.447-.884-.783l-.066.68c-.04.188-.153.281-.34.281h-.851zm3.343-6.56c-.429 0-.805.098-1.128.295-.323.197-.62.477-.892.836v3.625c.237.326.5.555.788.688.289.135.61.201.965.201.7 0 1.238-.25 1.612-.748.375-.498.562-1.207.562-2.131 0-.488-.043-.906-.129-1.258-.086-.35-.211-.637-.374-.861-.163-.225-.363-.389-.6-.492-.234-.104-.503-.155-.804-.155zM99.605 575.549v10.896h-1.316v-10.896h1.316zM103.688 576.6c0 .129-.026.248-.078.359s-.121.209-.207.295c-.086.088-.186.154-.299.205-.114.049-.234.072-.363.072s-.248-.023-.359-.072c-.111-.051-.209-.117-.296-.205-.086-.086-.154-.184-.203-.295s-.074-.23-.074-.359c0-.127.025-.25.074-.365s.117-.217.203-.303c.086-.088.185-.154.296-.205.111-.049.23-.072.359-.072s.249.023.363.072c.113.051.213.117.299.205.086.086.155.188.207.303s.078.238.078.365zm-.296 2.353v7.492h-1.316v-7.492h1.316zM110.826 580.283l-.118.127-.17.043c-.074 0-.154-.029-.24-.092l-.329-.203c-.133-.074-.295-.143-.485-.203-.19-.062-.423-.092-.699-.092-.365 0-.688.064-.969.195s-.517.318-.707.566c-.189.246-.333.545-.429.895s-.145.742-.145 1.176c0 .453.052.857.155 1.209.104.354.249.648.437.889.188.238.416.422.685.547.269.125.57.189.906.189.321 0 .584-.039.792-.115.208-.076.38-.162.518-.256l.34-.254c.088-.078.177-.115.266-.115.113 0 .197.041.251.125l.37.48c-.326.4-.732.693-1.221.877-.488.186-1.003.277-1.546.277-.469 0-.904-.086-1.306-.258-.402-.174-.751-.424-1.047-.752s-.529-.73-.699-1.209c-.17-.479-.255-1.023-.255-1.635 0-.557.078-1.072.233-1.545.155-.475.382-.883.681-1.225.298-.344.667-.611 1.106-.803.439-.193.942-.289 1.509-.289.523 0 .986.086 1.391.256s.762.41 1.073.721l-.348.474zM118.511 578.834c.547 0 1.042.092 1.483.273.441.184.816.441 1.125.777s.545.74.71 1.217c.166.477.248 1.008.248 1.594 0 .592-.083 1.125-.248 1.598-.165.475-.402.879-.71 1.213-.308.336-.683.594-1.125.773s-.936.27-1.483.27-1.042-.09-1.483-.27c-.441-.18-.817-.438-1.128-.773-.311-.334-.55-.738-.717-1.213-.168-.473-.251-1.006-.251-1.598 0-.586.083-1.117.251-1.594.167-.477.407-.881.717-1.217.311-.336.687-.594 1.128-.777.441-.181.936-.273 1.483-.273zm0 6.687c.74 0 1.292-.248 1.657-.744s.547-1.188.547-2.074c0-.893-.182-1.588-.547-2.086-.365-.498-.917-.748-1.657-.748-.375 0-.7.064-.977.193-.276.127-.506.312-.691.555s-.323.539-.415.891c-.091.354-.137.752-.137 1.195s.045.84.137 1.191c.091.35.229.645.415.883.185.24.416.424.691.551.277.129.602.193.977.193zM124 586.445v-6.369l-.829-.096c-.104-.023-.188-.062-.255-.115-.066-.051-.1-.127-.1-.225v-.54h1.184v-.725c0-.428.06-.809.181-1.143.121-.332.293-.613.518-.844.225-.229.495-.402.81-.521.315-.117.671-.178 1.065-.178.335 0 .646.051.932.148l-.03.658c-.005.1-.047.158-.126.178-.079.02-.19.029-.333.029h-.229c-.227 0-.433.029-.618.09-.185.059-.344.154-.477.287-.133.135-.235.309-.307.525-.071.219-.107.486-.107.807v.688h2.167v.955h-2.123v6.391h-1.323zM128.985 586.445v-6.369l-.829-.096c-.104-.023-.188-.062-.255-.115-.066-.051-.1-.127-.1-.225v-.54h1.184v-.414c0-.457.071-.879.214-1.26.143-.383.357-.713.644-.988s.642-.49 1.069-.645c.427-.152.923-.229 1.491-.229.187 0 .378.014.573.037.195.025.363.064.507.115l-.044.688c-.01.062-.04.102-.089.119l-.215.025h-.37c-.873 0-1.508.18-1.905.541s-.595.906-.595 1.635v.375h4.527v7.346h-1.317v-6.391h-3.166v6.391h-1.324zM142.233 580.283l-.118.127-.17.043c-.074 0-.154-.029-.24-.092l-.329-.203c-.133-.074-.295-.143-.485-.203-.19-.062-.423-.092-.699-.092-.365 0-.688.064-.969.195s-.517.318-.707.566c-.189.246-.333.545-.429.895s-.145.742-.145 1.176c0 .453.052.857.155 1.209.104.354.249.648.437.889.188.238.416.422.685.547.269.125.57.189.906.189.321 0 .584-.039.792-.115.208-.076.38-.162.518-.256l.34-.254c.088-.078.177-.115.266-.115.113 0 .197.041.251.125l.37.48c-.326.4-.732.693-1.221.877-.488.186-1.003.277-1.546.277-.469 0-.904-.086-1.306-.258-.402-.174-.751-.424-1.047-.752s-.529-.73-.699-1.209c-.17-.479-.255-1.023-.255-1.635 0-.557.078-1.072.233-1.545.155-.475.382-.883.681-1.225.298-.344.667-.611 1.106-.803.439-.193.942-.289 1.509-.289.523 0 .986.086 1.391.256s.762.41 1.073.721l-.348.474zM145.791 576.6c0 .129-.026.248-.078.359s-.121.209-.207.295c-.086.088-.186.154-.299.205-.114.049-.234.072-.363.072s-.248-.023-.359-.072c-.111-.051-.209-.117-.296-.205-.086-.086-.154-.184-.203-.295s-.074-.23-.074-.359c0-.127.025-.25.074-.365s.117-.217.203-.303c.086-.088.185-.154.296-.205.111-.049.23-.072.359-.072s.249.023.363.072c.113.051.213.117.299.205.086.086.155.188.207.303s.078.238.078.365zm-.296 2.353v7.492h-1.316v-7.492h1.316zM153.321 586.445h-.584c-.128 0-.232-.02-.311-.059-.079-.039-.131-.123-.155-.252l-.148-.695c-.197.178-.39.336-.577.477s-.385.26-.592.355-.428.17-.662.219-.494.074-.78.074c-.291 0-.563-.041-.817-.123s-.475-.203-.662-.367-.336-.369-.447-.619c-.111-.25-.167-.547-.167-.887 0-.297.081-.584.244-.857.163-.275.425-.52.788-.732s.837-.387 1.424-.523c.587-.135 1.305-.203 2.153-.203v-.588c0-.586-.125-1.029-.374-1.33-.249-.299-.618-.449-1.106-.449-.321 0-.591.041-.81.121-.219.082-.409.174-.569.273l-.415.275c-.116.08-.23.121-.344.121-.089 0-.167-.023-.233-.07-.067-.047-.12-.104-.159-.174l-.237-.422c.414-.398.86-.697 1.339-.895s1.008-.297 1.59-.297c.419 0 .792.07 1.117.209.325.137.599.33.821.576.222.246.39.545.503.895.114.352.17.734.17 1.154v4.793zm-3.417-.806c.231 0 .444-.023.636-.07s.374-.113.543-.199c.17-.086.333-.191.488-.314s.307-.264.455-.422v-1.545c-.607 0-1.122.037-1.546.115-.424.076-.77.178-1.036.301-.267.125-.46.271-.581.439-.121.168-.181.357-.181.564 0 .199.032.371.096.514.064.145.15.262.259.354s.237.16.385.201c.149.042.309.062.482.062zM156.783 575.549v10.896h-1.316v-10.896h1.316z"/></g><g fill="#fff"><path d="M214.019 530.996c.079 0 .15.033.214.096l.562.615c-.434.502-.96.895-1.579 1.176-.619.281-1.365.422-2.238.422-.764 0-1.457-.133-2.079-.396-.621-.264-1.151-.633-1.59-1.109s-.779-1.047-1.021-1.713c-.242-.666-.363-1.396-.363-2.195 0-.801.13-1.531.389-2.197s.623-1.238 1.091-1.717c.469-.479 1.029-.85 1.683-1.113.653-.264 1.375-.396 2.164-.396.779 0 1.451.121 2.016.363s1.066.57 1.505.984l-.466.658-.119.121c-.044.033-.108.049-.192.049-.064 0-.132-.023-.203-.07l-.255-.174-.348-.223c-.133-.078-.291-.152-.474-.221-.182-.07-.395-.127-.636-.174-.242-.047-.521-.07-.836-.07-.567 0-1.086.098-1.557.291-.471.195-.876.473-1.217.832-.34.361-.605.799-.795 1.316-.19.52-.285 1.098-.285 1.74 0 .66.095 1.25.285 1.768s.449.955.777 1.312c.328.357.716.631 1.165.816.449.188.932.281 1.45.281.315 0 .599-.018.851-.055s.485-.096.699-.174.414-.18.599-.299c.185-.121.371-.266.559-.434.083-.073.164-.11.244-.11zM219.507 525.574c.547 0 1.042.092 1.483.273.441.184.816.441 1.125.777s.545.74.71 1.217c.166.477.248 1.008.248 1.594 0 .592-.083 1.125-.248 1.598-.165.475-.402.879-.71 1.213-.308.336-.683.594-1.125.773s-.936.27-1.483.27-1.042-.09-1.483-.27c-.441-.18-.817-.438-1.128-.773-.311-.334-.55-.738-.717-1.213-.168-.473-.251-1.006-.251-1.598 0-.586.083-1.117.251-1.594.167-.477.407-.881.717-1.217.311-.336.687-.594 1.128-.777.441-.181.935-.273 1.483-.273zm0 6.688c.74 0 1.292-.248 1.657-.744s.547-1.188.547-2.074c0-.893-.182-1.588-.547-2.086-.365-.498-.917-.748-1.657-.748-.375 0-.7.064-.977.193-.276.127-.506.312-.691.555s-.323.539-.415.891c-.091.354-.137.752-.137 1.195s.045.84.137 1.191c.091.35.229.645.415.883.185.24.416.424.691.551.277.128.602.193.977.193zM224.7 533.186v-7.492h.754c.143 0 .242.027.296.08.054.055.091.148.111.281l.089 1.17c.256-.523.573-.932.951-1.225.377-.293.82-.441 1.328-.441.207 0 .395.025.562.07.168.047.323.113.466.197l-.17.984c-.034.123-.111.184-.229.184-.069 0-.175-.023-.318-.07s-.343-.07-.599-.07c-.458 0-.842.133-1.15.4-.308.266-.565.652-.773 1.16v4.771h-1.318zM230.662 533.186v-7.492h.754c.143 0 .242.027.296.08.054.055.091.148.111.281l.089 1.17c.256-.523.573-.932.951-1.225.377-.293.82-.441 1.328-.441.207 0 .395.025.562.07.168.047.323.113.466.197l-.17.984c-.034.123-.111.184-.229.184-.069 0-.175-.023-.318-.07s-.343-.07-.599-.07c-.458 0-.842.133-1.15.4-.308.266-.565.652-.773 1.16v4.771h-1.318zM237.763 525.693v4.777c0 .568.13 1.006.392 1.316.261.312.656.467 1.184.467.384 0 .747-.092 1.087-.273.34-.182.653-.438.939-.762v-5.525h1.317v7.492h-.784c-.188 0-.306-.09-.355-.273l-.104-.807c-.326.361-.69.65-1.095.869-.404.221-.868.33-1.391.33-.41 0-.771-.068-1.084-.203-.313-.137-.576-.328-.788-.574s-.371-.545-.477-.895-.159-.738-.159-1.162v-4.777h1.318zM244.849 535.723v-10.029h.784c.187 0 .306.09.355.273l.111.887c.32-.389.687-.703 1.099-.939.412-.236.886-.355 1.424-.355.429 0 .818.084 1.168.248.35.166.648.41.896.732.246.324.436.725.569 1.203s.2 1.027.2 1.648c0 .553-.074 1.066-.222 1.543s-.36.887-.636 1.234c-.276.348-.615.623-1.017.822-.402.199-.854.299-1.357.299-.464 0-.859-.076-1.188-.229-.328-.152-.618-.371-.869-.65v3.312h-1.317zm3.336-9.098c-.429 0-.805.098-1.128.295-.323.197-.62.477-.892.836v3.625c.242.326.507.555.795.688.289.135.61.201.965.201.695 0 1.23-.25 1.605-.748s.562-1.207.562-2.131c0-.488-.043-.906-.13-1.258-.086-.35-.21-.637-.374-.861-.163-.225-.362-.389-.599-.492-.234-.104-.503-.155-.804-.155zM255.286 533.305c-.592 0-1.047-.166-1.365-.496-.318-.33-.478-.807-.478-1.428v-4.586h-.902c-.079 0-.146-.023-.2-.07s-.081-.119-.081-.219v-.525l1.228-.154.303-2.316c.01-.072.042-.133.096-.18s.124-.07.208-.07h.666v2.58h2.145v.955h-2.145v4.498c0 .314.076.549.229.701.153.154.35.23.592.23.138 0 .257-.02.358-.057l.263-.121.188-.121.137-.057c.069 0 .13.043.185.125l.385.629c-.227.213-.5.379-.821.5-.32.121-.651.182-.991.182zM260.293 523.34c0 .129-.026.248-.078.359s-.121.209-.207.295c-.086.088-.186.154-.299.205-.114.049-.234.072-.363.072s-.248-.023-.359-.072c-.111-.051-.209-.117-.296-.205-.086-.086-.154-.184-.203-.295s-.074-.23-.074-.359c0-.127.025-.25.074-.365s.117-.217.203-.303c.086-.088.185-.154.296-.205.111-.049.23-.072.359-.072s.249.023.363.072c.113.051.213.117.299.205.086.086.155.188.207.303s.078.238.078.365zm-.295 2.353v7.492h-1.316v-7.492h1.316zM265.353 525.574c.547 0 1.042.092 1.483.273.441.184.816.441 1.125.777s.545.74.71 1.217c.166.477.248 1.008.248 1.594 0 .592-.083 1.125-.248 1.598-.165.475-.402.879-.71 1.213-.308.336-.683.594-1.125.773s-.936.27-1.483.27-1.042-.09-1.483-.27c-.441-.18-.817-.438-1.128-.773-.311-.334-.55-.738-.717-1.213-.168-.473-.251-1.006-.251-1.598 0-.586.083-1.117.251-1.594.167-.477.407-.881.717-1.217.311-.336.687-.594 1.128-.777.441-.181.936-.273 1.483-.273zm0 6.688c.74 0 1.292-.248 1.657-.744s.547-1.188.547-2.074c0-.893-.182-1.588-.547-2.086-.365-.498-.917-.748-1.657-.748-.375 0-.7.064-.977.193-.276.127-.506.312-.691.555s-.323.539-.415.891c-.091.354-.137.752-.137 1.195s.045.84.137 1.191c.091.35.229.645.415.883.185.24.416.424.691.551.277.128.602.193.977.193zM270.546 533.186v-7.492h.784c.187 0 .306.09.355.273l.104.812c.325-.359.689-.65 1.091-.873.402-.221.867-.332 1.395-.332.409 0 .771.068 1.083.203.313.137.575.328.784.578.209.248.369.549.477.898s.163.736.163 1.16v4.771h-1.317v-4.771c0-.566-.129-1.006-.388-1.32-.259-.312-.655-.469-1.188-.469-.39 0-.753.094-1.091.281-.338.188-.65.441-.936.762v5.518h-1.316zM283.387 523.34c0 .129-.026.248-.078.359s-.121.209-.207.295c-.086.088-.186.154-.299.205-.114.049-.234.072-.363.072s-.248-.023-.359-.072c-.111-.051-.209-.117-.296-.205-.086-.086-.154-.184-.203-.295s-.074-.23-.074-.359c0-.127.025-.25.074-.365s.117-.217.203-.303c.086-.088.185-.154.296-.205.111-.049.23-.072.359-.072s.249.023.363.072c.113.051.213.117.299.205.086.086.155.188.207.303s.078.238.078.365zm-.296 2.353v7.492h-1.316v-7.492h1.316zM285.414 533.186v-7.492h.784c.187 0 .306.09.355.273l.104.812c.325-.359.689-.65 1.091-.873.402-.221.867-.332 1.395-.332.409 0 .771.068 1.083.203.313.137.575.328.784.578.209.248.369.549.477.898s.163.736.163 1.16v4.771h-1.317v-4.771c0-.566-.129-1.006-.388-1.32-.259-.312-.655-.469-1.188-.469-.39 0-.753.094-1.091.281-.338.188-.65.441-.936.762v5.518h-1.316zM213.834 543.328c.449 0 .863.074 1.243.225.379.15.708.367.984.65.276.285.492.635.647 1.051.155.418.233.893.233 1.424 0 .207-.022.346-.066.414-.044.07-.128.104-.251.104h-4.986c.01.475.074.887.192 1.236.119.35.281.643.488.877s.454.408.74.525c.286.115.606.174.961.174.331 0 .615-.039.854-.115s.445-.16.618-.248c.172-.088.317-.172.433-.248s.216-.115.3-.115c.108 0 .192.043.251.127l.37.48c-.163.197-.357.369-.584.514-.227.146-.47.266-.729.359-.259.094-.526.164-.802.211-.276.047-.55.07-.821.07-.518 0-.995-.088-1.431-.264-.437-.174-.814-.432-1.132-.77-.318-.336-.566-.754-.744-1.254-.177-.498-.266-1.068-.266-1.715 0-.523.08-1.012.24-1.465s.391-.848.692-1.18c.301-.334.668-.594 1.102-.785.433-.188.922-.282 1.464-.282zm.029.969c-.636 0-1.137.184-1.501.551-.365.367-.592.877-.681 1.527h4.076c0-.307-.042-.586-.125-.84s-.207-.473-.37-.658c-.163-.186-.361-.328-.595-.43-.235-.099-.503-.15-.804-.15zM218.62 550.939v-7.494h.784c.187 0 .306.092.355.273l.096.77c.276-.34.585-.619.928-.836s.741-.324 1.195-.324c.508 0 .918.141 1.231.42.313.281.539.662.677 1.141.104-.271.24-.506.411-.703.17-.197.361-.359.573-.488s.438-.223.677-.281.482-.088.729-.088c.395 0 .746.062 1.054.188.308.127.57.311.784.551.214.242.378.539.492.893.113.352.17.756.17 1.209v4.771h-1.317v-4.771c0-.588-.128-1.031-.385-1.336-.256-.303-.628-.455-1.117-.455-.217 0-.423.039-.618.115s-.366.189-.514.336c-.148.148-.265.334-.352.559-.086.225-.129.484-.129.781v4.771h-1.316v-4.771c0-.602-.121-1.051-.363-1.346-.242-.297-.594-.445-1.058-.445-.325 0-.627.088-.906.264-.278.174-.534.412-.766.713v5.586h-1.315zM230.766 553.477v-10.031h.784c.187 0 .306.092.355.273l.111.889c.32-.391.687-.703 1.099-.939.412-.236.886-.355 1.424-.355.429 0 .818.082 1.168.248.35.164.648.408.896.732.246.322.436.723.569 1.201s.2 1.029.2 1.65c0 .553-.074 1.066-.222 1.543-.148.475-.36.887-.636 1.234-.276.348-.615.621-1.017.82-.402.201-.854.301-1.357.301-.464 0-.859-.076-1.188-.23-.328-.152-.618-.369-.869-.65v3.314h-1.317zm3.336-9.1c-.429 0-.805.1-1.128.297-.323.197-.62.477-.892.836v3.625c.242.324.507.555.795.688s.61.199.965.199c.695 0 1.23-.248 1.605-.746s.562-1.209.562-2.131c0-.488-.043-.908-.13-1.258-.086-.35-.21-.637-.374-.861-.163-.225-.362-.389-.599-.492-.235-.104-.504-.157-.804-.157zM240.396 540.043v10.896h-1.316v-10.896h1.316zM245.751 543.328c.547 0 1.042.09 1.483.273.441.182.816.441 1.125.775.308.336.545.742.71 1.217.166.477.248 1.008.248 1.596 0 .592-.083 1.123-.248 1.598-.165.473-.402.877-.71 1.213-.308.334-.683.592-1.125.773-.441.18-.936.27-1.483.27s-1.042-.09-1.483-.27c-.441-.182-.817-.439-1.128-.773-.311-.336-.55-.74-.717-1.213-.168-.475-.251-1.006-.251-1.598 0-.588.083-1.119.251-1.596.167-.475.407-.881.717-1.217.311-.334.687-.594 1.128-.775.441-.183.936-.273 1.483-.273zm0 6.686c.74 0 1.292-.248 1.657-.742.365-.496.547-1.188.547-2.076 0-.893-.182-1.588-.547-2.086-.365-.498-.917-.746-1.657-.746-.375 0-.7.064-.977.191-.276.129-.506.314-.691.555-.185.242-.323.539-.415.893-.091.352-.137.75-.137 1.193 0 .445.045.842.137 1.191s.229.645.415.885c.185.238.416.422.691.551.277.128.602.191.977.191zM252.949 553.15c-.044.1-.1.178-.167.236-.066.061-.169.09-.307.09h-.975l1.368-2.975-3.092-7.057h1.139c.113 0 .202.029.266.086.064.057.111.119.141.188l2.005 4.721.115.324.085.334.104-.334.118-.332 1.945-4.713c.03-.078.081-.145.152-.195.071-.053.149-.078.233-.078h1.05l-4.18 9.705zM258.327 550.939v-7.494h.784c.187 0 .306.092.355.273l.096.77c.276-.34.585-.619.928-.836s.741-.324 1.195-.324c.508 0 .918.141 1.231.42.313.281.539.662.677 1.141.104-.271.24-.506.411-.703.17-.197.361-.359.573-.488s.438-.223.677-.281.482-.088.729-.088c.395 0 .746.062 1.054.188.308.127.57.311.784.551.214.242.378.539.492.893.113.352.17.756.17 1.209v4.771h-1.317v-4.771c0-.588-.128-1.031-.385-1.336-.256-.303-.628-.455-1.117-.455-.217 0-.423.039-.618.115s-.366.189-.514.336c-.148.148-.265.334-.352.559-.086.225-.129.484-.129.781v4.771h-1.316v-4.771c0-.602-.121-1.051-.363-1.346-.242-.297-.594-.445-1.058-.445-.325 0-.627.088-.906.264-.278.174-.534.412-.766.713v5.586h-1.315zM273.439 543.328c.449 0 .863.074 1.243.225.379.15.708.367.984.65.276.285.492.635.647 1.051.155.418.233.893.233 1.424 0 .207-.022.346-.066.414-.044.07-.128.104-.251.104h-4.986c.01.475.074.887.192 1.236.119.35.281.643.488.877s.454.408.74.525c.286.115.606.174.961.174.331 0 .615-.039.854-.115s.445-.16.618-.248c.172-.088.317-.172.433-.248s.216-.115.3-.115c.108 0 .192.043.251.127l.37.48c-.163.197-.357.369-.584.514-.227.146-.47.266-.729.359-.259.094-.526.164-.802.211-.276.047-.55.07-.821.07-.518 0-.995-.088-1.431-.264-.437-.174-.814-.432-1.132-.77-.318-.336-.566-.754-.744-1.254-.177-.498-.266-1.068-.266-1.715 0-.523.08-1.012.24-1.465s.391-.848.692-1.18c.301-.334.668-.594 1.102-.785.434-.188.922-.282 1.464-.282zm.03.969c-.636 0-1.137.184-1.501.551-.365.367-.592.877-.681 1.527h4.076c0-.307-.042-.586-.125-.84s-.207-.473-.37-.658c-.163-.186-.361-.328-.595-.43-.236-.099-.503-.15-.804-.15zM278.225 550.939v-7.494h.784c.187 0 .306.092.355.273l.104.814c.325-.359.689-.65 1.091-.873s.867-.332 1.395-.332c.409 0 .771.066 1.083.203.313.135.575.328.784.576.209.25.369.549.477.898.108.352.163.738.163 1.162v4.771h-1.317v-4.771c0-.566-.129-1.008-.388-1.32-.259-.312-.655-.471-1.188-.471-.39 0-.753.094-1.091.281-.338.188-.65.441-.936.762v5.52h-1.316zM288.722 551.057c-.592 0-1.047-.164-1.365-.494-.318-.332-.478-.807-.478-1.428v-4.588h-.902c-.079 0-.146-.021-.2-.07-.054-.045-.081-.119-.081-.217v-.525l1.228-.156.303-2.314c.01-.074.042-.135.096-.182s.124-.07.208-.07h.666v2.582h2.145v.953h-2.145v4.498c0 .316.076.551.229.703.153.152.35.229.592.229.138 0 .257-.018.358-.055l.263-.123.188-.121.137-.055c.069 0 .13.041.185.125l.385.629c-.227.213-.5.379-.821.5-.321.118-.651.179-.991.179z"/></g><g fill="#fff"><path d="M348.595 530.996c.079 0 .15.033.214.096l.562.615c-.434.502-.96.895-1.579 1.176-.619.281-1.365.422-2.238.422-.764 0-1.457-.133-2.079-.396-.621-.264-1.151-.633-1.59-1.109s-.779-1.047-1.021-1.713c-.242-.666-.363-1.396-.363-2.195 0-.801.13-1.531.389-2.197s.623-1.238 1.091-1.717c.469-.479 1.029-.85 1.683-1.113.653-.264 1.375-.396 2.164-.396.779 0 1.451.121 2.016.363s1.066.57 1.505.984l-.466.658-.119.121c-.044.033-.108.049-.192.049-.064 0-.132-.023-.203-.07l-.255-.174-.348-.223c-.133-.078-.291-.152-.474-.221-.182-.07-.395-.127-.636-.174-.242-.047-.521-.07-.836-.07-.567 0-1.086.098-1.557.291-.471.195-.876.473-1.217.832-.34.361-.605.799-.795 1.316-.19.52-.285 1.098-.285 1.74 0 .66.095 1.25.285 1.768s.449.955.777 1.312c.328.357.716.631 1.165.816.449.188.932.281 1.45.281.315 0 .599-.018.851-.055s.485-.096.699-.174.414-.18.599-.299c.185-.121.371-.266.559-.434.083-.073.165-.11.244-.11zM354.083 525.574c.547 0 1.042.092 1.483.273.441.184.816.441 1.125.777s.545.74.71 1.217c.166.477.248 1.008.248 1.594 0 .592-.083 1.125-.248 1.598-.165.475-.402.879-.71 1.213-.308.336-.683.594-1.125.773s-.936.27-1.483.27-1.042-.09-1.483-.27c-.441-.18-.817-.438-1.128-.773-.311-.334-.55-.738-.717-1.213-.168-.473-.251-1.006-.251-1.598 0-.586.083-1.117.251-1.594.167-.477.407-.881.717-1.217.311-.336.687-.594 1.128-.777.441-.181.936-.273 1.483-.273zm0 6.688c.74 0 1.292-.248 1.657-.744s.547-1.188.547-2.074c0-.893-.182-1.588-.547-2.086-.365-.498-.917-.748-1.657-.748-.375 0-.7.064-.977.193-.276.127-.506.312-.691.555s-.323.539-.415.891c-.091.354-.137.752-.137 1.195s.045.84.137 1.191c.091.35.229.645.415.883.185.24.416.424.691.551.277.128.602.193.977.193zM359.276 533.186v-7.492h.754c.143 0 .242.027.296.08.054.055.091.148.111.281l.089 1.17c.256-.523.573-.932.951-1.225.377-.293.82-.441 1.328-.441.207 0 .395.025.562.07.168.047.323.113.466.197l-.17.984c-.034.123-.111.184-.229.184-.069 0-.175-.023-.318-.07s-.343-.07-.599-.07c-.458 0-.842.133-1.15.4-.308.266-.565.652-.773 1.16v4.771h-1.318zM365.238 533.186v-7.492h.754c.143 0 .242.027.296.08.054.055.091.148.111.281l.089 1.17c.256-.523.573-.932.951-1.225.377-.293.82-.441 1.328-.441.207 0 .395.025.562.07.168.047.323.113.466.197l-.17.984c-.034.123-.111.184-.229.184-.069 0-.175-.023-.318-.07s-.343-.07-.599-.07c-.458 0-.842.133-1.15.4-.308.266-.565.652-.773 1.16v4.771h-1.318zM372.339 525.693v4.777c0 .568.13 1.006.392 1.316.261.312.656.467 1.184.467.384 0 .747-.092 1.087-.273.34-.182.653-.438.939-.762v-5.525h1.317v7.492h-.784c-.188 0-.306-.09-.355-.273l-.104-.807c-.326.361-.69.65-1.095.869-.404.221-.868.33-1.391.33-.41 0-.771-.068-1.084-.203-.313-.137-.576-.328-.788-.574s-.371-.545-.477-.895-.159-.738-.159-1.162v-4.777h1.318zM379.426 535.723v-10.029h.784c.187 0 .306.09.355.273l.111.887c.32-.389.687-.703 1.099-.939.412-.236.886-.355 1.424-.355.429 0 .818.084 1.168.248.35.166.648.41.896.732.246.324.436.725.569 1.203s.2 1.027.2 1.648c0 .553-.074 1.066-.222 1.543s-.36.887-.636 1.234c-.276.348-.615.623-1.017.822-.402.199-.854.299-1.357.299-.464 0-.859-.076-1.188-.229-.328-.152-.618-.371-.869-.65v3.312h-1.317zm3.336-9.098c-.429 0-.805.098-1.128.295-.323.197-.62.477-.892.836v3.625c.242.326.507.555.795.688.289.135.61.201.965.201.695 0 1.23-.25 1.605-.748s.562-1.207.562-2.131c0-.488-.043-.906-.13-1.258-.086-.35-.21-.637-.374-.861-.163-.225-.362-.389-.599-.492-.234-.104-.504-.155-.804-.155zM389.863 533.305c-.592 0-1.047-.166-1.365-.496-.318-.33-.478-.807-.478-1.428v-4.586h-.902c-.079 0-.146-.023-.2-.07s-.081-.119-.081-.219v-.525l1.228-.154.303-2.316c.01-.072.042-.133.096-.18s.124-.07.208-.07h.666v2.58h2.145v.955h-2.145v4.498c0 .314.076.549.229.701.153.154.35.23.592.23.138 0 .257-.02.358-.057l.263-.121.188-.121.137-.057c.069 0 .13.043.185.125l.385.629c-.227.213-.5.379-.821.5-.321.121-.651.182-.991.182zM394.87 523.34c0 .129-.026.248-.078.359s-.121.209-.207.295c-.086.088-.186.154-.299.205-.114.049-.234.072-.363.072s-.248-.023-.359-.072c-.111-.051-.209-.117-.296-.205-.086-.086-.154-.184-.203-.295s-.074-.23-.074-.359c0-.127.025-.25.074-.365s.117-.217.203-.303c.086-.088.185-.154.296-.205.111-.049.23-.072.359-.072s.249.023.363.072c.113.051.213.117.299.205.086.086.155.188.207.303s.078.238.078.365zm-.296 2.353v7.492h-1.316v-7.492h1.316zM399.93 525.574c.547 0 1.042.092 1.482.273.441.184.816.441 1.125.777s.545.74.711 1.217c.164.477.246 1.008.246 1.594 0 .592-.082 1.125-.246 1.598-.166.475-.402.879-.711 1.213-.309.336-.684.594-1.125.773-.441.18-.935.27-1.482.27s-1.042-.09-1.483-.27c-.441-.18-.817-.438-1.128-.773-.311-.334-.55-.738-.717-1.213-.168-.473-.251-1.006-.251-1.598 0-.586.083-1.117.251-1.594.167-.477.407-.881.717-1.217.311-.336.687-.594 1.128-.777.441-.181.935-.273 1.483-.273zm0 6.688c.74 0 1.292-.248 1.656-.744.365-.496.549-1.188.549-2.074 0-.893-.184-1.588-.549-2.086-.364-.498-.917-.748-1.656-.748-.375 0-.7.064-.977.193-.276.127-.506.312-.691.555s-.323.539-.415.891c-.091.354-.137.752-.137 1.195s.045.84.137 1.191c.091.35.229.645.415.883.185.24.416.424.691.551.276.128.602.193.977.193zM405.123 533.186v-7.492h.784c.188 0 .306.09.354.273l.104.812c.326-.359.689-.65 1.092-.873.401-.221.866-.332 1.395-.332.409 0 .77.068 1.083.203.313.137.574.328.784.578.21.248.369.549.478.898s.162.736.162 1.16v4.771h-1.316v-4.771c0-.566-.13-1.006-.389-1.32-.259-.312-.654-.469-1.187-.469-.39 0-.754.094-1.092.281s-.649.441-.936.762v5.518h-1.316zM417.964 523.34c0 .129-.026.248-.078.359s-.121.209-.207.295c-.086.088-.187.154-.3.205-.113.049-.234.072-.362.072s-.248-.023-.358-.072c-.111-.051-.21-.117-.296-.205-.087-.086-.154-.184-.204-.295-.049-.111-.073-.23-.073-.359 0-.127.024-.25.073-.365.05-.115.117-.217.204-.303.086-.088.185-.154.296-.205.11-.049.23-.072.358-.072s.249.023.362.072c.113.051.214.117.3.205.086.086.155.188.207.303s.078.238.078.365zm-.296 2.353v7.492h-1.317v-7.492h1.317zM419.99 533.186v-7.492h.784c.188 0 .306.09.354.273l.104.812c.326-.359.689-.65 1.092-.873.401-.221.866-.332 1.395-.332.409 0 .77.068 1.083.203.313.137.574.328.784.578.21.248.369.549.478.898s.162.736.162 1.16v4.771h-1.316v-4.771c0-.566-.13-1.006-.389-1.32-.259-.312-.654-.469-1.187-.469-.39 0-.754.094-1.092.281s-.649.441-.936.762v5.518h-1.316zM342.145 553.477v-10.031h.784c.187 0 .306.092.355.273l.111.889c.32-.391.687-.703 1.099-.939.412-.236.886-.355 1.424-.355.429 0 .818.082 1.168.248.35.164.648.408.896.732.246.322.436.723.569 1.201s.2 1.029.2 1.65c0 .553-.074 1.066-.222 1.543-.148.475-.36.887-.636 1.234-.276.348-.615.621-1.017.82-.402.201-.854.301-1.357.301-.464 0-.859-.076-1.188-.23-.328-.152-.618-.369-.869-.65v3.314h-1.317zm3.335-9.1c-.429 0-.805.1-1.128.297-.323.197-.62.477-.892.836v3.625c.242.324.507.555.795.688s.61.199.965.199c.695 0 1.23-.248 1.605-.746s.562-1.209.562-2.131c0-.488-.043-.908-.13-1.258-.086-.35-.21-.637-.374-.861-.163-.225-.362-.389-.599-.492-.234-.104-.503-.157-.804-.157zM350.311 550.939v-7.494h.754c.143 0 .242.027.296.082s.091.148.111.281l.089 1.168c.256-.521.573-.93.951-1.225.377-.293.82-.439 1.328-.439.207 0 .395.023.562.07.168.047.323.111.466.195l-.17.984c-.034.123-.111.186-.229.186-.069 0-.175-.023-.318-.07s-.343-.07-.599-.07c-.458 0-.842.133-1.15.398-.308.268-.565.654-.773 1.162v4.771h-1.318zM359.306 543.328c.547 0 1.042.09 1.483.273.441.182.816.441 1.125.775.308.336.545.742.71 1.217.166.477.248 1.008.248 1.596 0 .592-.083 1.123-.248 1.598-.165.473-.402.877-.71 1.213-.308.334-.683.592-1.125.773-.441.18-.936.27-1.483.27s-1.042-.09-1.483-.27c-.441-.182-.817-.439-1.128-.773-.311-.336-.55-.74-.717-1.213-.168-.475-.251-1.006-.251-1.598 0-.588.083-1.119.251-1.596.167-.475.407-.881.717-1.217.311-.334.687-.594 1.128-.775.441-.183.935-.273 1.483-.273zm0 6.686c.74 0 1.292-.248 1.657-.742.365-.496.547-1.188.547-2.076 0-.893-.182-1.588-.547-2.086-.365-.498-.917-.746-1.657-.746-.375 0-.7.064-.977.191-.276.129-.506.314-.691.555-.185.242-.323.539-.415.893-.091.352-.137.75-.137 1.193 0 .445.045.842.137 1.191s.229.645.415.885c.185.238.416.422.691.551.276.128.602.191.977.191zM369.61 544.777l-.118.125-.17.045c-.074 0-.154-.031-.24-.092l-.329-.203c-.133-.074-.295-.143-.485-.205-.19-.061-.423-.092-.699-.092-.365 0-.688.066-.969.195-.281.131-.517.32-.707.566-.189.246-.333.545-.429.895-.096.352-.145.742-.145 1.178 0 .453.052.855.155 1.209.104.352.249.648.437.887.188.24.416.422.685.549.269.125.57.188.906.188.321 0 .584-.037.792-.115.208-.076.38-.16.518-.254l.34-.256c.088-.076.177-.115.266-.115.113 0 .197.043.251.127l.37.48c-.326.398-.732.691-1.221.877-.488.184-1.003.277-1.546.277-.469 0-.904-.086-1.306-.26-.402-.172-.751-.422-1.047-.75s-.529-.73-.699-1.209c-.17-.479-.255-1.023-.255-1.635 0-.559.078-1.074.233-1.547s.382-.881.681-1.225c.298-.342.667-.609 1.106-.803.439-.191.942-.287 1.509-.287.523 0 .986.084 1.391.254s.762.41 1.073.721l-.348.475zM372.546 543.445v4.779c0 .566.13 1.006.392 1.316.261.311.656.467 1.184.467.384 0 .747-.092 1.087-.275.34-.182.653-.436.939-.762v-5.525h1.317v7.494h-.784c-.188 0-.306-.092-.355-.273l-.104-.807c-.326.359-.69.648-1.095.869-.404.219-.868.328-1.391.328-.41 0-.771-.066-1.084-.203-.313-.135-.576-.326-.788-.572-.212-.248-.371-.545-.477-.896-.106-.35-.159-.736-.159-1.16v-4.779h1.318zM379.633 550.939v-7.494h.754c.143 0 .242.027.296.082s.091.148.111.281l.089 1.168c.256-.521.573-.93.951-1.225.377-.293.82-.439 1.328-.439.207 0 .395.023.562.07.168.047.323.111.466.195l-.17.984c-.034.123-.111.186-.229.186-.069 0-.175-.023-.318-.07s-.343-.07-.599-.07c-.458 0-.842.133-1.15.398-.308.268-.565.654-.773 1.162v4.771h-1.318zM388.561 543.328c.449 0 .863.074 1.243.225.379.15.708.367.984.65.276.285.492.635.647 1.051.155.418.233.893.233 1.424 0 .207-.022.346-.066.414-.044.07-.128.104-.251.104h-4.986c.01.475.074.887.192 1.236.119.35.281.643.488.877s.454.408.74.525c.286.115.606.174.961.174.331 0 .615-.039.854-.115s.445-.16.618-.248c.172-.088.317-.172.433-.248s.216-.115.3-.115c.108 0 .192.043.251.127l.37.48c-.163.197-.357.369-.584.514-.227.146-.47.266-.729.359-.259.094-.526.164-.802.211-.276.047-.55.07-.821.07-.518 0-.995-.088-1.431-.264-.437-.174-.814-.432-1.132-.77-.318-.336-.566-.754-.744-1.254-.177-.498-.266-1.068-.266-1.715 0-.523.08-1.012.24-1.465s.391-.848.692-1.18c.301-.334.668-.594 1.102-.785.433-.188.922-.282 1.464-.282zm.029.969c-.636 0-1.137.184-1.501.551-.365.367-.592.877-.681 1.527h4.076c0-.307-.042-.586-.125-.84s-.207-.473-.37-.658c-.163-.186-.361-.328-.595-.43-.235-.099-.503-.15-.804-.15zM393.347 550.939v-7.494h.784c.187 0 .306.092.355.273l.096.77c.276-.34.585-.619.928-.836s.741-.324 1.195-.324c.508 0 .918.141 1.231.42.313.281.539.662.677 1.141.104-.271.24-.506.411-.703.17-.197.361-.359.573-.488s.438-.223.677-.281.482-.088.728-.088c.396 0 .746.062 1.055.188.309.127.569.311.784.551.215.242.378.539.492.893.113.352.17.756.17 1.209v4.771h-1.316v-4.771c0-.588-.129-1.031-.385-1.336-.257-.303-.629-.455-1.117-.455-.217 0-.423.039-.618.115s-.366.189-.514.336c-.148.148-.265.334-.352.559-.086.225-.129.484-.129.781v4.771h-1.316v-4.771c0-.602-.121-1.051-.363-1.346-.242-.297-.594-.445-1.058-.445-.325 0-.627.088-.906.264-.278.174-.534.412-.766.713v5.586h-1.316zM408.459 543.328c.449 0 .863.074 1.243.225s.707.367.983.65c.276.285.492.635.647 1.051.155.418.233.893.233 1.424 0 .207-.022.346-.067.414-.044.07-.128.104-.251.104h-4.985c.01.475.073.887.192 1.236.118.35.28.643.488.877.207.234.453.408.739.525.286.115.606.174.962.174.33 0 .615-.039.854-.115.238-.076.444-.16.617-.248l.433-.248s.216-.115.3-.115c.108 0 .192.043.251.127l.37.48c-.162.197-.357.369-.584.514-.228.146-.47.266-.729.359s-.526.164-.803.211-.55.07-.821.07c-.518 0-.995-.088-1.432-.264-.437-.174-.813-.432-1.132-.77-.317-.336-.565-.754-.743-1.254-.178-.498-.266-1.068-.266-1.715 0-.523.08-1.012.24-1.465s.391-.848.691-1.18c.301-.334.668-.594 1.103-.785.437-.188.925-.282 1.467-.282zm.03.969c-.637 0-1.137.184-1.502.551s-.592.877-.681 1.527h4.076c0-.307-.042-.586-.126-.84s-.207-.473-.37-.658c-.162-.186-.361-.328-.596-.43-.232-.099-.5-.15-.801-.15zM413.245 550.939v-7.494h.784c.188 0 .306.092.354.273l.104.814c.326-.359.689-.65 1.092-.873.401-.223.866-.332 1.395-.332.409 0 .77.066 1.083.203.313.135.574.328.784.576.21.25.369.549.478.898.108.352.162.738.162 1.162v4.771h-1.316v-4.771c0-.566-.13-1.008-.389-1.32s-.654-.471-1.187-.471c-.39 0-.754.094-1.092.281s-.649.441-.936.762v5.52h-1.316zM423.741 551.057c-.592 0-1.047-.164-1.364-.494-.318-.332-.478-.807-.478-1.428v-4.588h-.902c-.079 0-.146-.021-.199-.07-.055-.045-.082-.119-.082-.217v-.525l1.229-.156.303-2.314c.01-.074.042-.135.097-.182.054-.047.123-.07.207-.07h.666v2.582h2.145v.953h-2.145v4.498c0 .316.076.551.229.703.153.152.351.229.592.229.139 0 .258-.018.359-.055l.263-.123.188-.121.137-.055c.068 0 .131.041.185.125l.385.629c-.227.213-.501.379-.821.5-.323.118-.653.179-.994.179zM352.552 571.23v-10.031h.784c.187 0 .306.092.355.273l.111.889c.32-.391.687-.703 1.099-.939.412-.236.886-.355 1.424-.355.429 0 .818.082 1.168.248.35.164.648.408.896.732.246.322.436.723.569 1.201s.2 1.029.2 1.65c0 .553-.074 1.066-.222 1.543-.148.475-.36.887-.636 1.234-.276.348-.615.621-1.017.82-.402.201-.854.301-1.357.301-.464 0-.859-.076-1.188-.23-.328-.152-.618-.369-.869-.65v3.314h-1.317zm3.336-9.099c-.429 0-.805.1-1.128.297-.323.197-.62.477-.892.836v3.625c.242.324.507.555.795.688s.61.199.965.199c.695 0 1.23-.248 1.605-.746s.562-1.209.562-2.131c0-.488-.043-.908-.13-1.258-.086-.35-.21-.637-.374-.861-.163-.225-.362-.389-.599-.492-.234-.104-.503-.157-.804-.157zM360.718 568.693v-7.494h.754c.143 0 .242.027.296.082s.091.148.111.281l.089 1.168c.256-.521.573-.93.951-1.225.377-.293.82-.439 1.328-.439.207 0 .395.023.562.07.168.047.323.111.466.195l-.17.984c-.034.123-.111.186-.229.186-.069 0-.175-.023-.318-.07s-.343-.07-.599-.07c-.458 0-.842.133-1.15.398-.308.268-.565.654-.773 1.162v4.771h-1.318zM369.713 561.082c.547 0 1.042.09 1.483.273.441.182.816.441 1.125.775.308.336.545.742.71 1.217.166.477.248 1.008.248 1.596 0 .592-.083 1.123-.248 1.598-.165.473-.402.877-.71 1.213-.308.334-.683.592-1.125.773-.441.18-.936.27-1.483.27s-1.042-.09-1.483-.27c-.441-.182-.817-.439-1.128-.773-.311-.336-.55-.74-.717-1.213-.168-.475-.251-1.006-.251-1.598 0-.588.083-1.119.251-1.596.167-.475.407-.881.717-1.217.311-.334.687-.594 1.128-.775.441-.183.936-.273 1.483-.273zm0 6.686c.74 0 1.292-.248 1.657-.742.365-.496.547-1.188.547-2.076 0-.893-.182-1.588-.547-2.086-.365-.498-.917-.746-1.657-.746-.375 0-.7.064-.977.191-.276.129-.506.314-.691.555-.185.242-.323.539-.415.893-.091.352-.137.75-.137 1.193 0 .445.045.842.137 1.191s.229.645.415.885c.185.238.416.422.691.551.277.128.602.191.977.191zM380.018 562.531l-.118.125-.17.045c-.074 0-.154-.031-.24-.092l-.329-.203c-.133-.074-.295-.143-.485-.205-.19-.061-.423-.092-.699-.092-.365 0-.688.066-.969.195-.281.131-.517.32-.707.566-.189.246-.333.545-.429.895-.096.352-.145.742-.145 1.178 0 .453.052.855.155 1.209.104.352.249.648.437.887.188.24.416.422.685.549.269.125.57.188.906.188.321 0 .584-.037.792-.115.208-.076.38-.16.518-.254l.34-.256c.088-.076.177-.115.266-.115.113 0 .197.043.251.127l.37.48c-.326.398-.732.691-1.221.877-.488.184-1.003.277-1.546.277-.469 0-.904-.086-1.306-.26-.402-.172-.751-.422-1.047-.75s-.529-.73-.699-1.209c-.17-.479-.255-1.023-.255-1.635 0-.559.078-1.074.233-1.547s.382-.881.681-1.225c.298-.342.667-.609 1.106-.803.439-.191.942-.287 1.509-.287.523 0 .986.084 1.391.254s.762.41 1.073.721l-.348.475zM384.781 561.082c.449 0 .863.074 1.243.225.379.15.708.367.984.65.276.285.492.635.647 1.051.155.418.233.893.233 1.424 0 .207-.022.346-.066.414-.044.07-.128.104-.251.104h-4.986c.01.475.074.887.192 1.236.119.35.281.643.488.877s.454.408.74.525c.286.115.606.174.961.174.331 0 .615-.039.854-.115s.445-.16.618-.248c.172-.088.317-.172.433-.248s.216-.115.3-.115c.108 0 .192.043.251.127l.37.48c-.163.197-.357.369-.584.514-.227.146-.47.266-.729.359-.259.094-.526.164-.802.211-.276.047-.55.07-.821.07-.518 0-.995-.088-1.431-.264-.437-.174-.814-.432-1.132-.77-.318-.336-.566-.754-.744-1.254-.177-.498-.266-1.068-.266-1.715 0-.523.08-1.012.24-1.465s.391-.848.692-1.18c.301-.334.668-.594 1.102-.785.433-.188.922-.282 1.464-.282zm.03.969c-.636 0-1.137.184-1.501.551-.365.367-.592.877-.681 1.527h4.076c0-.307-.042-.586-.125-.84s-.207-.473-.37-.658c-.163-.186-.361-.328-.595-.43-.236-.099-.504-.15-.804-.15zM393.857 562.436c-.059.107-.15.162-.273.162-.074 0-.158-.027-.251-.082l-.344-.18c-.136-.068-.297-.129-.484-.186s-.409-.086-.666-.086c-.222 0-.422.029-.599.086-.178.057-.33.135-.455.232-.126.1-.222.213-.289.344s-.1.273-.1.426c0 .191.055.354.166.48.111.129.258.24.44.334.182.094.389.176.621.248l.714.229s.482.172.714.27c.232.1.439.223.622.371.182.146.329.328.44.543s.167.473.167.773c0 .344-.062.664-.185.957s-.306.547-.547.762-.538.385-.888.508-.754.184-1.213.184c-.523 0-.996-.084-1.42-.254s-.784-.389-1.08-.654l.311-.504.14-.148c.054-.033.126-.051.215-.051.088 0 .182.033.281.104l.359.229s.311.16.51.23c.2.068.45.104.751.104.256 0 .481-.033.673-.102.192-.066.353-.156.48-.27.128-.113.223-.244.285-.393.062-.146.092-.305.092-.473 0-.207-.056-.379-.167-.514-.111-.137-.258-.252-.44-.348-.183-.096-.391-.18-.625-.252l-.718-.225c-.244-.08-.483-.17-.717-.271-.234-.1-.443-.227-.625-.381-.183-.152-.33-.342-.44-.564-.111-.225-.167-.498-.167-.818 0-.285.059-.561.178-.824.118-.264.291-.496.518-.695.227-.201.505-.359.836-.479.331-.117.708-.176 1.132-.176.493 0 .936.076 1.328.232.392.154.731.369 1.017.639l-.297.483zM400.277 562.436c-.059.107-.15.162-.273.162-.074 0-.158-.027-.251-.082l-.344-.18c-.136-.068-.297-.129-.484-.186s-.409-.086-.666-.086c-.222 0-.422.029-.599.086-.178.057-.33.135-.455.232-.126.1-.222.213-.289.344s-.1.273-.1.426c0 .191.055.354.166.48.111.129.258.24.44.334.182.094.389.176.621.248l.714.229s.482.172.714.27c.232.1.439.223.622.371.182.146.329.328.44.543s.167.473.167.773c0 .344-.062.664-.185.957s-.306.547-.547.762-.538.385-.888.508-.754.184-1.213.184c-.523 0-.996-.084-1.42-.254s-.784-.389-1.08-.654l.311-.504.14-.148c.054-.033.126-.051.215-.051.088 0 .182.033.281.104l.359.229s.311.16.51.23c.2.068.45.104.751.104.256 0 .481-.033.673-.102.192-.066.353-.156.48-.27.128-.113.223-.244.285-.393.062-.146.092-.305.092-.473 0-.207-.056-.379-.167-.514-.111-.137-.258-.252-.44-.348-.183-.096-.391-.18-.625-.252l-.718-.225c-.244-.08-.483-.17-.717-.271-.234-.1-.443-.227-.625-.381-.183-.152-.33-.342-.44-.564-.111-.225-.167-.498-.167-.818 0-.285.059-.561.178-.824.118-.264.291-.496.518-.695.227-.201.505-.359.836-.479.331-.117.708-.176 1.132-.176.493 0 .936.076 1.328.232.392.154.731.369 1.017.639l-.297.483zM405.374 561.082c.449 0 .863.074 1.243.225s.707.367.983.65c.276.285.492.635.647 1.051.155.418.233.893.233 1.424 0 .207-.022.346-.067.414-.044.07-.128.104-.251.104h-4.985c.01.475.073.887.192 1.236.118.35.28.643.488.877.207.234.453.408.739.525.286.115.606.174.962.174.33 0 .615-.039.854-.115.238-.076.444-.16.617-.248l.433-.248s.216-.115.3-.115c.108 0 .192.043.251.127l.37.48c-.162.197-.357.369-.584.514-.228.146-.47.266-.729.359s-.526.164-.803.211-.55.07-.821.07c-.518 0-.995-.088-1.432-.264-.437-.174-.813-.432-1.132-.77-.317-.336-.565-.754-.743-1.254-.178-.498-.266-1.068-.266-1.715 0-.523.08-1.012.24-1.465s.391-.848.691-1.18c.301-.334.668-.594 1.103-.785.437-.188.925-.282 1.467-.282zm.03.969c-.637 0-1.137.184-1.502.551s-.592.877-.681 1.527h4.076c0-.307-.042-.586-.126-.84s-.207-.473-.37-.658c-.162-.186-.361-.328-.596-.43-.232-.099-.5-.15-.801-.15zM414.45 562.436c-.059.107-.15.162-.273.162-.074 0-.158-.027-.252-.082l-.344-.18c-.136-.068-.297-.129-.484-.186s-.409-.086-.666-.086c-.222 0-.421.029-.599.086s-.329.135-.455.232c-.126.1-.222.213-.288.344-.067.131-.101.273-.101.426 0 .191.056.354.167.48.11.129.257.24.439.334s.39.176.622.248l.714.229s.481.172.714.27c.231.1.438.223.621.371.183.146.329.328.44.543.11.215.166.473.166.773 0 .344-.062.664-.185.957-.124.293-.307.547-.548.762s-.537.385-.888.508-.755.184-1.213.184c-.522 0-.996-.084-1.42-.254-.425-.17-.784-.389-1.08-.654l.311-.504.141-.148c.054-.033.125-.051.214-.051s.183.033.281.104l.359.229c.14.084.311.16.51.23.2.068.45.104.751.104.257 0 .48-.033.673-.102.192-.066.353-.156.481-.27.128-.113.223-.244.284-.393.062-.146.093-.305.093-.473 0-.207-.056-.379-.166-.514-.111-.137-.258-.252-.44-.348s-.391-.18-.625-.252l-.718-.225c-.244-.08-.483-.17-.718-.271-.234-.1-.442-.227-.625-.381-.183-.152-.329-.342-.439-.564-.111-.225-.167-.498-.167-.818 0-.285.06-.561.178-.824s.291-.496.518-.695c.227-.201.506-.359.836-.479.33-.117.708-.176 1.132-.176.493 0 .936.076 1.328.232.392.154.73.369 1.017.639l-.296.483z"/></g><g fill="#fff"><path d="M495.949 533.186v-10.602h3.381c.65 0 1.212.064 1.683.193s.857.311 1.161.547.527.527.673.869c.146.344.219.729.219 1.158 0 .262-.041.514-.122.754-.082.242-.205.467-.37.674s-.372.393-.621.555-.541.295-.877.398c.774.154 1.358.432 1.753.836.395.406.592.938.592 1.6 0 .447-.082.857-.247 1.227-.166.371-.407.688-.726.955-.317.266-.707.473-1.168.617-.462.146-.988.219-1.58.219h-3.751zm1.435-5.852h1.895c.404 0 .754-.045 1.05-.133.296-.09.541-.213.736-.371.194-.156.339-.348.433-.572s.141-.471.141-.736c0-.621-.188-1.078-.562-1.369s-.957-.436-1.745-.436h-1.946v3.617zm0 1.021v3.689h2.294c.409 0 .76-.045 1.054-.139.293-.094.535-.227.725-.396.19-.17.329-.373.418-.607s.134-.492.134-.771c0-.549-.194-.98-.581-1.299s-.973-.477-1.757-.477h-2.287zM505.313 533.186v-7.494h.755c.143 0 .241.027.295.082.055.055.092.148.111.281l.089 1.168c.257-.521.573-.93.95-1.225.378-.293.82-.439 1.328-.439.207 0 .395.023.562.07.167.047.322.111.466.195l-.17.984c-.035.123-.111.186-.229.186-.069 0-.175-.023-.318-.07-.143-.047-.343-.07-.599-.07-.459 0-.843.133-1.15.398-.309.268-.566.654-.773 1.162v4.771h-1.317zM513.036 523.34c0 .127-.026.248-.078.357-.052.111-.121.211-.207.297s-.187.154-.3.203-.234.074-.362.074-.248-.025-.358-.074c-.111-.049-.21-.117-.296-.203-.087-.086-.154-.186-.204-.297-.049-.109-.073-.23-.073-.357 0-.129.024-.25.073-.367.05-.115.117-.217.204-.303.086-.086.185-.154.296-.203.11-.049.23-.074.358-.074s.249.025.362.074.214.117.3.203.155.188.207.303c.052.117.078.238.078.367zm-.296 2.351v7.494h-1.317v-7.494h1.317zM515.106 533.186v-10.896h1.324v4.482c.311-.359.667-.65 1.069-.869.401-.219.861-.328 1.379-.328.435 0 .826.08 1.177.244.35.162.648.404.895.729.247.322.437.723.57 1.197.133.477.199 1.025.199 1.646 0 .553-.074 1.066-.222 1.543-.148.475-.361.887-.64 1.234-.279.348-.619.621-1.021.82-.401.201-.854.301-1.357.301-.483 0-.894-.094-1.231-.281s-.632-.449-.884-.785l-.066.682c-.04.188-.153.281-.341.281h-.851zm3.344-6.563c-.429 0-.805.1-1.128.297s-.62.477-.892.836v3.625c.237.324.499.555.788.688.288.133.61.199.965.199.7 0 1.238-.248 1.613-.746.374-.498.562-1.209.562-2.131 0-.488-.043-.908-.129-1.258-.087-.35-.211-.637-.374-.861-.162-.225-.362-.389-.599-.492-.236-.104-.505-.157-.806-.157zM526.298 525.574c.449 0 .863.074 1.243.225s.707.367.983.65c.276.285.492.635.647 1.051.155.418.233.893.233 1.424 0 .207-.022.346-.067.414-.044.07-.128.104-.251.104h-4.985c.01.475.073.887.192 1.236.118.35.28.643.488.877.207.234.453.408.739.525.286.115.606.174.962.174.33 0 .615-.039.854-.115.238-.076.444-.16.617-.248l.433-.248s.216-.115.3-.115c.108 0 .192.043.251.127l.37.48c-.162.197-.357.369-.584.514-.228.146-.47.266-.729.359s-.526.164-.803.211-.55.07-.821.07c-.518 0-.995-.088-1.432-.264-.437-.174-.813-.432-1.132-.77-.317-.336-.565-.754-.743-1.254-.178-.498-.266-1.068-.266-1.715 0-.523.08-1.012.24-1.465s.391-.848.691-1.18c.301-.334.668-.594 1.103-.785.437-.188.925-.282 1.467-.282zm.03.969c-.637 0-1.137.184-1.502.551s-.592.877-.681 1.527h4.076c0-.307-.042-.586-.126-.84s-.207-.473-.37-.658c-.162-.186-.361-.328-.596-.43-.233-.099-.5-.15-.801-.15zM531.084 533.186v-7.494h.755c.143 0 .241.027.295.082.055.055.092.148.111.281l.089 1.168c.257-.521.573-.93.95-1.225.378-.293.82-.439 1.328-.439.207 0 .395.023.562.07.167.047.322.111.466.195l-.17.984c-.035.123-.111.186-.229.186-.069 0-.175-.023-.318-.07-.143-.047-.343-.07-.599-.07-.459 0-.843.133-1.15.398-.309.268-.566.654-.773 1.162v4.771h-1.317zM539.243 535.396c-.045.1-.101.178-.167.236-.066.061-.169.09-.307.09h-.977l1.368-2.975-3.092-7.057h1.14c.113 0 .202.029.266.086.064.057.111.119.141.188l2.005 4.721.114.324.085.334.104-.334.119-.332 1.945-4.713c.029-.078.08-.145.151-.195.071-.053.149-.078.233-.078h1.05l-4.178 9.705z"/></g><g fill="#fff"><path d="M654.106 527.889c0 .795-.126 1.523-.377 2.186-.252.664-.607 1.234-1.065 1.713-.459.479-1.01.85-1.653 1.113s-1.355.396-2.134.396c-.779 0-1.49-.133-2.131-.396s-1.19-.635-1.649-1.113-.813-1.049-1.065-1.713c-.251-.662-.377-1.391-.377-2.186 0-.793.126-1.523.377-2.186.252-.664.606-1.236 1.065-1.717s1.009-.854 1.649-1.121c.641-.266 1.352-.398 2.131-.398.778 0 1.49.133 2.134.398.644.268 1.194.641 1.653 1.121.458.48.813 1.053 1.065 1.717.251.662.377 1.393.377 2.186zm-1.472 0c0-.65-.088-1.234-.266-1.754-.178-.518-.43-.955-.755-1.312s-.72-.633-1.184-.824c-.463-.193-.981-.289-1.553-.289-.567 0-1.083.096-1.547.289-.463.191-.859.467-1.187.824-.328.357-.581.795-.759 1.312-.177.52-.266 1.104-.266 1.754s.089 1.234.266 1.75c.178.516.431.951.759 1.309.327.357.724.631 1.187.82.464.191.979.285 1.547.285.571 0 1.09-.094 1.553-.285.464-.189.858-.463 1.184-.82s.577-.793.755-1.309.266-1.1.266-1.75zM658.13 533.303c-.592 0-1.047-.164-1.364-.494-.318-.332-.478-.807-.478-1.428v-4.588h-.902c-.079 0-.146-.021-.199-.07-.055-.045-.082-.119-.082-.217v-.525l1.229-.156.303-2.314c.01-.074.042-.135.097-.182.054-.047.123-.07.207-.07h.666v2.582h2.145v.953h-2.145v4.498c0 .316.076.551.229.703.153.152.351.229.592.229.139 0 .258-.018.359-.055l.263-.123.188-.121.137-.055c.068 0 .131.041.185.125l.385.629c-.227.213-.501.379-.821.5-.323.118-.653.179-.994.179zM661.377 533.186v-10.896h1.316v4.408c.32-.34.676-.611 1.065-.816s.838-.307 1.347-.307c.409 0 .77.066 1.083.203.313.135.574.328.784.576.21.25.369.549.478.898.108.352.162.738.162 1.162v4.771h-1.316v-4.771c0-.566-.13-1.008-.389-1.32s-.654-.471-1.187-.471c-.39 0-.754.094-1.092.281s-.649.441-.936.762v5.52h-1.315zM672.568 525.574c.449 0 .863.074 1.243.225s.707.367.983.65c.276.285.492.635.647 1.051.155.418.233.893.233 1.424 0 .207-.022.346-.067.414-.044.07-.128.104-.251.104h-4.985c.01.475.073.887.192 1.236.118.35.28.643.488.877.207.234.453.408.739.525.286.115.606.174.962.174.33 0 .615-.039.854-.115.238-.076.444-.16.617-.248l.433-.248s.216-.115.3-.115c.108 0 .192.043.251.127l.37.48c-.162.197-.357.369-.584.514-.228.146-.47.266-.729.359s-.526.164-.803.211-.55.07-.821.07c-.518 0-.995-.088-1.432-.264-.437-.174-.813-.432-1.132-.77-.317-.336-.565-.754-.743-1.254-.178-.498-.266-1.068-.266-1.715 0-.523.08-1.012.24-1.465s.391-.848.691-1.18c.301-.334.668-.594 1.103-.785.437-.188.925-.282 1.467-.282zm.031.969c-.637 0-1.137.184-1.502.551s-.592.877-.681 1.527h4.076c0-.307-.042-.586-.126-.84s-.207-.473-.37-.658c-.162-.186-.361-.328-.596-.43-.233-.099-.501-.15-.801-.15zM677.354 533.186v-7.494h.755c.143 0 .241.027.295.082.055.055.092.148.111.281l.089 1.168c.257-.521.573-.93.95-1.225.378-.293.82-.439 1.328-.439.207 0 .395.023.562.07.167.047.322.111.466.195l-.17.984c-.035.123-.111.186-.229.186-.069 0-.175-.023-.318-.07-.143-.047-.343-.07-.599-.07-.459 0-.843.133-1.15.398-.309.268-.566.654-.773 1.162v4.771h-1.317z"/></g><g fill="#5DC7C3"><path d="M166.187 419.401v25.357h-96.983v-6.371zM166.187 406.284v6.471l-96.983 18.983v-6.468zM166.187 393.166v6.472l-96.983 18.987v-6.471zM166.187 380.043v6.477l-96.983 18.986v-6.471zM166.187 366.926v6.472l-96.983 18.991v-6.474zM166.187 353.811v6.47l-96.983 18.99v-6.473zM166.187 340.693v6.471l-96.983 18.989v-6.472zM166.187 327.575v6.472l-96.983 18.985v-6.469zM166.187 314.458v6.472l-96.983 18.987v-6.471zM166.187 301.34v6.47l-96.983 18.99v-6.474zM166.187 288.222v6.471l-96.983 18.988v-6.472zM166.187 275.104v6.475l-96.983 18.983v-6.47zM166.187 261.986v6.474l-96.983 18.983v-6.468zM166.187 248.868v6.475l-96.983 18.983v-6.469zM166.187 235.748v6.478l-96.983 18.985v-6.474zM166.187 222.63v6.474l-96.983 18.989v-6.474zM166.187 209.515v6.47l-96.983 18.991v-6.476zM166.187 196.397v6.471l-96.983 18.986v-6.472zM166.187 183.279v6.471l-96.983 18.985v-6.469zM166.187 170.162v6.472l-96.983 18.985v-6.472zM166.187 157.042v6.474l-96.983 18.989v-6.476zM166.187 143.926v6.471l-96.983 18.987v-6.476zM166.187 130.808v6.472l-96.983 18.986v-6.475zM166.187 117.691v6.47l-96.983 18.986v-6.473zM166.187 104.569v6.476l-96.983 18.981v-6.468zM166.187 91.451v6.473l-96.983 18.987v-6.473zM166.187 78.333v6.475l-96.983 18.986v-6.471zM166.187 65.219v6.467l-96.983 18.991v-6.471zM166.187 51.565v7.007l-96.983 18.987-.007-25.994z"/></g><g fill="#5E7E53"><path d="M296.812 419.401v25.357h-96.976v-6.371zM296.812 406.284v6.471l-96.976 18.983v-6.468zM296.812 393.166v6.472l-96.976 18.987v-6.471zM296.812 380.043v6.477l-96.976 18.986v-6.471zM296.812 372.977v1.007l-96.976 18.988-.011-19.995z"/></g><g fill="#EEC900"><path d="M434.226 419.401v25.357h-96.979v-6.371zM434.226 406.284v6.471l-96.979 18.983v-6.468zM434.226 393.166v6.472l-96.979 18.987v-6.471zM434.226 380.043v6.477l-96.979 18.986v-6.471zM434.226 366.926v6.472l-96.979 18.991v-6.474zM434.226 353.811v6.47l-96.979 18.99v-6.473zM434.226 340.693v6.471l-96.979 18.989v-6.472zM434.226 327.575v6.472l-96.979 18.985v-6.469zM434.226 314.458v6.472l-96.979 18.987v-6.471zM434.226 302.677v5.006l-96.979 18.989-.009-23.995z"/></g><g fill="#0E5461"><path d="M570.791 419.401v25.357h-96.978v-6.371zM570.791 406.284v6.471l-96.978 18.983v-6.468zM570.791 393.166v6.472l-96.978 18.987v-6.471zM570.791 380.043v6.477l-96.978 18.986v-6.471zM570.791 366.926v6.472l-96.978 18.991v-6.474zM570.791 353.811v6.47l-96.978 18.99v-6.473zM570.791 340.693v6.471l-96.978 18.989v-6.472zM570.791 327.575v6.472l-96.978 18.985v-6.469zM570.791 321.517l-96.978 18.985-.008-18.991z"/></g><g fill="#2AC4F3"><path d="M708.203 419.401v25.357h-96.976v-6.371zM708.203 406.284v6.471l-96.976 18.983v-6.468zM708.203 399.244v1.006l-96.976 18.987-.008-19.993z"/></g><path fill="#0E5461" d="M17.581 495.439h765.98v7.743h-765.98z"/><g fill="#fff"><path d="M108.892 22.443c0 .497-.165.899-.495 1.208-.331.309-.879.464-1.648.464h-5.882l-.769 4.245c.966-.188 1.848-.281 2.646-.281 1.124 0 2.111.16 2.963.478.852.318 1.569.759 2.15 1.321.581.562 1.02 1.221 1.315 1.975.295.754.443 1.567.443 2.438 0 1.078-.2 2.061-.599 2.951-.399.891-.953 1.651-1.663 2.284-.709.632-1.549 1.122-2.52 1.469-.97.346-2.027.52-3.17.52-.67 0-1.306-.066-1.907-.197s-1.165-.307-1.692-.527c-.527-.22-1.015-.473-1.463-.759s-.85-.588-1.205-.907l1.124-1.476c.236-.318.552-.478.946-.478.246 0 .495.075.746.225.251.15.544.314.879.492.335.178.724.342 1.167.492s.98.225 1.611.225c.67 0 1.261-.103 1.773-.309.512-.206.938-.494 1.278-.864s.596-.811.769-1.321.258-1.065.258-1.666c0-1.105-.337-1.97-1.012-2.593s-1.667-.935-2.978-.935c-1.035 0-2.074.178-3.118.534l-2.276-.618 1.774-9.866h10.552v1.476zM125.34 33.63h2.69v2.01c0 .188-.064.349-.192.485s-.315.204-.562.204h-1.936v4.961h-3.192v-4.961h-9.015c-.247 0-.463-.072-.65-.218-.187-.145-.305-.325-.354-.541l-.37-1.757 10.124-12.86h3.458v12.677zm-3.192-6.648c0-.3.01-.623.03-.97.02-.347.054-.708.104-1.082l-6.636 8.7h6.502v-6.648zM144.759 20.967v1.503c0 .45-.052.813-.155 1.089-.104.276-.205.508-.303.696l-8.084 15.854c-.168.328-.404.607-.709.836-.306.229-.719.344-1.242.344h-2.646l8.276-15.53c.345-.637.729-1.185 1.153-1.645h-10.227c-.227 0-.424-.08-.591-.239s-.251-.347-.251-.562v-2.347h14.779z"/></g><g fill="#DA1C5C"><path d="M235.596 475.76c-.816 0-1.617-.135-2.401-.404-.784-.269-1.484-.676-2.099-1.22-.615-.543-1.108-1.216-1.479-2.019s-.555-1.742-.555-2.82c0-1.004.196-1.946.588-2.827.392-.88.942-1.651 1.65-2.314.708-.662 1.557-1.186 2.548-1.568.991-.384 2.085-.575 3.283-.575 1.209 0 2.295.182 3.259.544s1.786.87 2.467 1.522c.68.652 1.203 1.435 1.568 2.346s.547 1.91.547 2.998c0 .693-.063 1.352-.188 1.973s-.305 1.22-.539 1.794c-.234.575-.515 1.134-.841 1.678s-.691 1.09-1.094 1.639l-5.407 7.332c-.186.249-.46.459-.825.63s-.781.256-1.25.256h-3.708l7.334-8.715c.185-.217.359-.43.522-.637l.474-.621c-.545.331-1.144.582-1.797.753s-1.339.255-2.057.255zm5.505-6.727c0-.611-.098-1.157-.294-1.639-.196-.481-.474-.888-.833-1.22-.359-.331-.787-.585-1.282-.761s-1.037-.265-1.625-.265c-.61 0-1.16.097-1.65.288-.49.191-.906.458-1.25.8-.343.342-.607.748-.792 1.22-.186.471-.278.986-.278 1.545 0 1.253.34 2.209 1.021 2.866.68.658 1.647.986 2.899.986.653 0 1.233-.099 1.74-.295s.934-.466 1.282-.808.612-.746.792-1.212.27-.966.27-1.505zM257.794 467.697c0 .85-.15 1.615-.449 2.299-.3.684-.7 1.267-1.201 1.748s-1.083.852-1.748 1.11c-.664.259-1.355.389-2.074.389-.784 0-1.508-.13-2.173-.389-.664-.259-1.239-.629-1.723-1.11-.485-.481-.863-1.064-1.135-1.748-.272-.684-.408-1.449-.408-2.299 0-.87.136-1.657.408-2.361.272-.704.65-1.299 1.135-1.786.484-.486 1.059-.862 1.723-1.126.665-.265 1.389-.396 2.173-.396s1.511.132 2.181.396c.669.264 1.25.64 1.74 1.126.49.487.871 1.082 1.143 1.786s.408 1.491.408 2.361zm7.857-4.831c.131-.155.294-.295.49-.419.196-.125.468-.187.816-.187h2.924l-17.544 21.887c-.13.166-.297.304-.498.412-.202.108-.444.163-.727.163h-3.005l17.544-21.856zm-10.977 4.831c0-.601-.06-1.103-.18-1.507-.12-.403-.286-.73-.498-.979-.212-.249-.463-.427-.751-.536-.289-.108-.596-.163-.923-.163s-.632.055-.915.163c-.283.109-.528.287-.735.536-.207.248-.368.575-.482.979-.114.404-.171.906-.171 1.507 0 .58.057 1.064.171 1.452.114.389.275.702.482.94.207.238.452.409.735.513s.588.155.915.155.634-.052.923-.155.539-.274.751-.513.378-.552.498-.94c.12-.387.18-.872.18-1.452zm16.45 11.744c0 .849-.15 1.615-.449 2.299-.3.684-.7 1.266-1.201 1.747-.501.482-1.083.854-1.748 1.119-.665.264-1.356.396-2.075.396-.784 0-1.508-.132-2.172-.396-.665-.265-1.239-.637-1.724-1.119-.484-.481-.863-1.063-1.135-1.747s-.408-1.45-.408-2.299c0-.87.136-1.657.408-2.361s.651-1.3 1.135-1.786c.484-.487 1.059-.862 1.724-1.127.664-.264 1.388-.396 2.172-.396s1.511.132 2.181.396c.67.265 1.25.64 1.74 1.127.49.486.871 1.082 1.144 1.786.271.704.408 1.491.408 2.361zm-3.104 0c0-.601-.063-1.104-.188-1.507-.125-.404-.294-.73-.506-.979-.212-.249-.463-.428-.751-.536-.289-.109-.596-.163-.923-.163s-.632.054-.915.163c-.284.108-.526.287-.727.536-.202.248-.362.574-.482.979-.12.403-.18.906-.18 1.507 0 .58.06 1.066.18 1.46.12.394.28.709.482.947.201.238.443.409.727.513.283.104.588.155.915.155s.634-.052.923-.155.539-.274.751-.513.381-.554.506-.947c.125-.393.188-.88.188-1.46z"/></g><g fill="#DA1C5C"><path d="M357.239 481.849h4.786v-13.095c0-.508.016-1.041.049-1.601l-3.397 2.703c-.142.114-.286.191-.433.233-.147.041-.291.062-.433.062-.218 0-.417-.044-.596-.132s-.313-.188-.4-.303l-1.274-1.662 7.204-5.825h3.316v19.619h4.247v2.874h-13.068v-2.873zM381.267 484.972c-1.22 0-2.333-.156-3.34-.467s-1.871-.75-2.589-1.32c-.719-.569-1.277-1.258-1.674-2.065-.397-.809-.596-1.709-.596-2.703 0-1.325.343-2.447 1.029-3.363.686-.917 1.753-1.598 3.202-2.043-1.154-.455-2.018-1.103-2.589-1.941-.571-.839-.857-1.849-.857-3.029 0-.849.182-1.642.547-2.377.365-.735.874-1.374 1.527-1.918s1.435-.969 2.344-1.274c.909-.305 1.909-.458 2.998-.458s2.088.153 2.998.458c.909.306 1.69.73 2.344 1.274.653.544 1.162 1.183 1.527 1.918s.547 1.528.547 2.377c0 1.181-.289 2.19-.866 3.029s-1.438 1.486-2.581 1.941c1.448.445 2.516 1.126 3.202 2.043.686.916 1.029 2.038 1.029 3.363 0 .994-.199 1.895-.596 2.703-.397.808-.956 1.496-1.674 2.065-.719.57-1.582 1.01-2.589 1.32s-2.123.467-3.343.467zm0-2.999c.664 0 1.247-.09 1.748-.271.5-.181.923-.433 1.266-.753.343-.321.602-.704.776-1.149s.262-.927.262-1.445c0-1.232-.359-2.164-1.078-2.796s-1.71-.947-2.973-.947-2.254.315-2.973.947-1.078 1.563-1.078 2.796c0 .519.087 1 .261 1.445.174.445.433.828.776 1.149.343.32.765.572 1.266.753.5.181 1.083.271 1.747.271zm0-10.376c.653 0 1.203-.099 1.65-.296.446-.196.806-.458 1.078-.784s.465-.699.58-1.118c.114-.42.171-.852.171-1.297 0-.425-.071-.829-.212-1.212s-.354-.723-.637-1.018-.643-.53-1.078-.707c-.436-.176-.953-.264-1.552-.264-.599 0-1.116.088-1.552.264-.436.177-.798.412-1.086.707s-.501.635-.637 1.018-.204.787-.204 1.212c0 .445.057.877.171 1.297.114.419.308.792.58 1.118.272.326.632.588 1.078.784.447.197.997.296 1.65.296zM402.649 467.697c0 .85-.15 1.615-.449 2.299-.3.684-.7 1.267-1.201 1.748-.501.481-1.083.852-1.748 1.11-.664.259-1.355.389-2.074.389-.784 0-1.508-.13-2.173-.389-.664-.259-1.239-.629-1.723-1.11-.485-.481-.863-1.064-1.135-1.748-.272-.684-.408-1.449-.408-2.299 0-.87.136-1.657.408-2.361.272-.704.65-1.299 1.135-1.786.484-.486 1.059-.862 1.723-1.126.665-.265 1.389-.396 2.173-.396s1.511.132 2.181.396c.669.264 1.25.64 1.74 1.126.49.487.871 1.082 1.144 1.786.271.704.407 1.491.407 2.361zm7.858-4.831c.13-.155.294-.295.489-.419.196-.125.469-.187.817-.187h2.924l-17.544 21.887c-.13.166-.297.304-.498.412-.202.108-.444.163-.727.163h-3.005l17.544-21.856zm-10.978 4.831c0-.601-.06-1.103-.18-1.507-.12-.403-.286-.73-.498-.979-.212-.249-.463-.427-.751-.536-.289-.108-.596-.163-.923-.163s-.632.055-.915.163c-.283.109-.528.287-.735.536-.207.248-.368.575-.482.979-.114.404-.171.906-.171 1.507 0 .58.057 1.064.171 1.452.114.389.275.702.482.94.207.238.452.409.735.513s.588.155.915.155.634-.052.923-.155.539-.274.751-.513.378-.552.498-.94c.12-.387.18-.872.18-1.452zm16.45 11.744c0 .849-.149 1.615-.449 2.299s-.7 1.266-1.2 1.747c-.501.482-1.084.854-1.748 1.119-.664.264-1.355.396-2.074.396-.784 0-1.509-.132-2.173-.396-.664-.265-1.239-.637-1.724-1.119-.484-.481-.863-1.063-1.135-1.747-.272-.684-.409-1.45-.409-2.299 0-.87.137-1.657.409-2.361.271-.704.65-1.3 1.135-1.786.484-.487 1.06-.862 1.724-1.127.664-.264 1.389-.396 2.173-.396.783 0 1.511.132 2.181.396.669.265 1.249.64 1.739 1.127.49.486.871 1.082 1.144 1.786.27.704.407 1.491.407 2.361zm-3.104 0c0-.601-.062-1.104-.188-1.507-.126-.404-.295-.73-.507-.979-.212-.249-.463-.428-.751-.536-.289-.109-.597-.163-.923-.163-.327 0-.632.054-.915.163-.283.108-.525.287-.728.536-.201.248-.361.574-.481.979-.12.403-.18.906-.18 1.507 0 .58.06 1.066.18 1.46s.28.709.481.947c.202.238.444.409.728.513s.588.155.915.155c.326 0 .634-.052.923-.155.288-.104.539-.274.751-.513s.381-.554.507-.947c.125-.393.188-.88.188-1.46z"/></g><g fill="#DA1C5C"><path d="M494.111 481.849h4.786v-13.095c0-.508.016-1.041.049-1.601l-3.398 2.703c-.142.114-.285.191-.433.233-.146.041-.291.062-.433.062-.218 0-.417-.044-.597-.132s-.312-.188-.399-.303l-1.274-1.662 7.203-5.825h3.316v19.619h4.247v2.874h-13.067v-2.873zM519.609 470.695c.893 0 1.762.14 2.605.42.844.279 1.587.701 2.229 1.266s1.16 1.266 1.552 2.104c.393.839.588 1.817.588 2.937 0 1.046-.201 2.027-.604 2.943-.402.917-.969 1.717-1.698 2.4s-1.609 1.222-2.638 1.615c-1.029.394-2.165.591-3.406.591-1.264 0-2.396-.192-3.397-.575s-1.857-.919-2.564-1.607c-.708-.689-1.25-1.518-1.626-2.486-.375-.968-.563-2.042-.563-3.223 0-1.057.227-2.142.678-3.255.452-1.113 1.152-2.271 2.1-3.472l5.636-7.192c.195-.248.481-.46.857-.637.375-.176.809-.264 1.299-.264h3.593l-7.007 8.155-.434.497c-.136.155-.27.315-.399.481.457-.218.949-.389 1.478-.513s1.1-.185 1.721-.185zm-5.651 6.975c0 .622.09 1.188.27 1.701.179.513.446.95.8 1.312.354.363.792.645 1.315.847.522.202 1.127.303 1.812.303.643 0 1.233-.104 1.772-.311s1.002-.497 1.389-.87c.387-.372.688-.81.906-1.312.218-.502.327-1.048.327-1.639 0-.642-.104-1.22-.311-1.732-.207-.512-.501-.947-.882-1.305-.382-.357-.839-.629-1.372-.815-.534-.187-1.122-.279-1.765-.279s-1.225.104-1.748.311c-.522.207-.972.495-1.348.862-.375.367-.664.803-.865 1.305-.2.501-.3 1.043-.3 1.622zM539.521 467.697c0 .85-.15 1.615-.449 2.299-.3.684-.7 1.267-1.201 1.748s-1.083.852-1.747 1.11c-.665.259-1.356.389-2.075.389-.784 0-1.508-.13-2.172-.389-.665-.259-1.239-.629-1.724-1.11s-.863-1.064-1.135-1.748c-.272-.684-.409-1.449-.409-2.299 0-.87.137-1.657.409-2.361.271-.704.65-1.299 1.135-1.786.484-.486 1.059-.862 1.724-1.126.664-.265 1.388-.396 2.172-.396s1.512.132 2.181.396c.67.264 1.25.64 1.74 1.126.49.487.871 1.082 1.144 1.786.27.704.407 1.491.407 2.361zm7.857-4.831c.13-.155.294-.295.489-.419.196-.125.469-.187.817-.187h2.924l-17.544 21.887c-.131.166-.297.304-.498.412-.202.108-.444.163-.727.163h-3.006l17.545-21.856zm-10.978 4.831c0-.601-.06-1.103-.18-1.507-.12-.403-.286-.73-.498-.979-.213-.249-.463-.427-.752-.536-.288-.108-.596-.163-.923-.163-.326 0-.631.055-.914.163-.283.109-.528.287-.735.536-.207.248-.367.575-.481.979-.115.404-.172.906-.172 1.507 0 .58.057 1.064.172 1.452.114.389.274.702.481.94s.452.409.735.513.588.155.914.155c.327 0 .635-.052.923-.155.289-.104.539-.274.752-.513.212-.238.378-.552.498-.94.121-.387.18-.872.18-1.452zm16.45 11.744c0 .849-.149 1.615-.449 2.299s-.7 1.266-1.2 1.747c-.501.482-1.084.854-1.748 1.119-.664.264-1.355.396-2.074.396-.784 0-1.509-.132-2.173-.396-.664-.265-1.239-.637-1.724-1.119-.484-.481-.863-1.063-1.135-1.747-.272-.684-.409-1.45-.409-2.299 0-.87.137-1.657.409-2.361.271-.704.65-1.3 1.135-1.786.484-.487 1.06-.862 1.724-1.127.664-.264 1.389-.396 2.173-.396.783 0 1.511.132 2.181.396.669.265 1.249.64 1.739 1.127.49.486.871 1.082 1.144 1.786.27.704.407 1.491.407 2.361zm-3.104 0c0-.601-.062-1.104-.188-1.507-.126-.404-.295-.73-.507-.979-.212-.249-.463-.428-.751-.536-.289-.109-.597-.163-.923-.163-.327 0-.632.054-.915.163-.283.108-.525.287-.728.536-.201.248-.361.574-.481.979-.12.403-.18.906-.18 1.507 0 .58.06 1.066.18 1.46s.28.709.481.947c.202.238.444.409.728.513s.588.155.915.155c.326 0 .634-.052.923-.155.288-.104.539-.274.751-.513s.381-.554.507-.947c.126-.393.188-.88.188-1.46z"/></g><g fill="#DA1C5C"><path d="M653.264 470.695c.893 0 1.762.14 2.605.42.844.279 1.587.701 2.229 1.266s1.16 1.266 1.552 2.104c.393.839.588 1.817.588 2.937 0 1.046-.201 2.027-.604 2.943-.402.917-.969 1.717-1.698 2.4s-1.609 1.222-2.638 1.615c-1.029.394-2.165.591-3.406.591-1.264 0-2.396-.192-3.397-.575s-1.857-.919-2.564-1.607c-.708-.689-1.25-1.518-1.626-2.486-.375-.968-.563-2.042-.563-3.223 0-1.057.227-2.142.678-3.255.452-1.113 1.152-2.271 2.1-3.472l5.636-7.192c.195-.248.481-.46.857-.637.375-.176.809-.264 1.299-.264h3.593l-7.007 8.155-.434.497c-.136.155-.27.315-.399.481.457-.218.949-.389 1.478-.513s1.1-.185 1.721-.185zm-5.652 6.975c0 .622.09 1.188.27 1.701.179.513.446.95.8 1.312.354.363.792.645 1.315.847.522.202 1.127.303 1.812.303.643 0 1.233-.104 1.772-.311s1.002-.497 1.389-.87c.387-.372.688-.81.906-1.312.218-.502.327-1.048.327-1.639 0-.642-.104-1.22-.311-1.732-.207-.512-.501-.947-.882-1.305-.382-.357-.839-.629-1.372-.815-.534-.187-1.122-.279-1.765-.279s-1.225.104-1.748.311c-.522.207-.972.495-1.348.862-.375.367-.664.803-.865 1.305-.2.501-.3 1.043-.3 1.622zM673.176 467.697c0 .85-.15 1.615-.449 2.299-.3.684-.7 1.267-1.201 1.748s-1.083.852-1.747 1.11c-.665.259-1.356.389-2.075.389-.784 0-1.508-.13-2.172-.389-.665-.259-1.239-.629-1.724-1.11s-.863-1.064-1.135-1.748c-.272-.684-.409-1.449-.409-2.299 0-.87.137-1.657.409-2.361.271-.704.65-1.299 1.135-1.786.484-.486 1.059-.862 1.724-1.126.664-.265 1.388-.396 2.172-.396s1.512.132 2.181.396c.67.264 1.25.64 1.74 1.126.49.487.871 1.082 1.144 1.786.27.704.407 1.491.407 2.361zm7.857-4.831c.13-.155.294-.295.489-.419.196-.125.469-.187.817-.187h2.924l-17.544 21.887c-.131.166-.297.304-.498.412-.202.108-.444.163-.727.163h-3.006l17.545-21.856zm-10.977 4.831c0-.601-.06-1.103-.18-1.507-.12-.403-.286-.73-.498-.979-.213-.249-.463-.427-.752-.536-.288-.108-.596-.163-.923-.163-.326 0-.631.055-.914.163-.283.109-.528.287-.735.536-.207.248-.367.575-.481.979-.115.404-.172.906-.172 1.507 0 .58.057 1.064.172 1.452.114.389.274.702.481.94s.452.409.735.513.588.155.914.155c.327 0 .635-.052.923-.155.289-.104.539-.274.752-.513.212-.238.378-.552.498-.94.12-.387.18-.872.18-1.452zm16.449 11.744c0 .849-.149 1.615-.449 2.299s-.7 1.266-1.2 1.747c-.501.482-1.084.854-1.748 1.119-.664.264-1.355.396-2.074.396-.784 0-1.509-.132-2.173-.396-.664-.265-1.239-.637-1.724-1.119-.484-.481-.863-1.063-1.135-1.747-.272-.684-.409-1.45-.409-2.299 0-.87.137-1.657.409-2.361.271-.704.65-1.3 1.135-1.786.484-.487 1.06-.862 1.724-1.127.664-.264 1.389-.396 2.173-.396.783 0 1.511.132 2.181.396.669.265 1.249.64 1.739 1.127.49.486.871 1.082 1.144 1.786.27.704.407 1.491.407 2.361zm-3.104 0c0-.601-.062-1.104-.188-1.507-.126-.404-.295-.73-.507-.979-.212-.249-.463-.428-.751-.536-.289-.109-.597-.163-.923-.163-.327 0-.632.054-.915.163-.283.108-.525.287-.728.536-.201.248-.361.574-.481.979-.12.403-.18.906-.18 1.507 0 .58.06 1.066.18 1.46s.28.709.481.947c.202.238.444.409.728.513s.588.155.915.155c.326 0 .634-.052.923-.155.288-.104.539-.274.751-.513s.381-.554.507-.947c.126-.393.188-.88.188-1.46z"/></g><g fill="#fff"><path d="M235.65 355.155c-.739 0-1.463-.122-2.172-.365-.709-.244-1.343-.611-1.899-1.104s-1.002-1.101-1.337-1.827c-.335-.726-.502-1.576-.502-2.551 0-.909.177-1.762.532-2.559.355-.796.853-1.494 1.493-2.094.641-.6 1.409-1.072 2.306-1.42.896-.346 1.887-.52 2.971-.52 1.094 0 2.077.164 2.948.492.872.328 1.616.787 2.232 1.377.616.591 1.088 1.298 1.419 2.122.33.825.495 1.729.495 2.713 0 .628-.057 1.223-.17 1.785-.113.562-.276 1.103-.487 1.623-.212.52-.466 1.026-.761 1.518-.296.492-.626.986-.99 1.483l-4.892 6.634c-.167.225-.416.414-.746.569-.331.154-.707.231-1.131.231h-3.354l6.636-7.885.473-.576.429-.562c-.493.301-1.035.527-1.625.682-.597.157-1.217.234-1.868.234zm4.981-6.086c0-.553-.089-1.047-.266-1.482s-.429-.804-.753-1.104c-.325-.3-.712-.529-1.16-.688-.449-.159-.938-.239-1.471-.239-.552 0-1.049.087-1.493.26-.443.174-.82.415-1.131.725-.31.309-.549.677-.717 1.103-.167.427-.251.893-.251 1.398 0 1.134.308 1.998.924 2.594.615.595 1.49.893 2.623.893.591 0 1.116-.09 1.574-.268.458-.178.845-.422 1.16-.73.315-.31.554-.675.717-1.097s.244-.877.244-1.365zM253.533 363.489c-1.104 0-2.111-.141-3.022-.421-.912-.281-1.692-.68-2.343-1.195-.65-.515-1.155-1.139-1.515-1.869-.36-.73-.54-1.546-.54-2.445 0-1.199.311-2.214.931-3.043s1.586-1.445 2.896-1.849c-1.044-.412-1.825-.997-2.342-1.757-.518-.759-.776-1.672-.776-2.74 0-.769.165-1.485.495-2.15.33-.665.791-1.244 1.382-1.735.591-.492 1.298-.876 2.121-1.152s1.727-.415 2.712-.415 1.889.139 2.712.415 1.53.66 2.121 1.152c.591.491 1.052 1.07 1.382 1.735s.495 1.382.495 2.15c0 1.068-.261 1.981-.783 2.74-.522.76-1.301 1.345-2.335 1.757 1.311.403 2.276 1.02 2.897 1.849s.931 1.844.931 3.043c0 .899-.18 1.715-.54 2.445-.36.73-.865 1.354-1.515 1.869-.65.516-1.431.914-2.342 1.195s-1.919.421-3.022.421zm0-2.712c.601 0 1.128-.082 1.582-.246s.835-.392 1.146-.682c.31-.291.544-.638.702-1.04.158-.403.237-.839.237-1.308 0-1.114-.325-1.958-.976-2.529s-1.547-.857-2.69-.857-2.04.286-2.689.857c-.65.571-.976 1.415-.976 2.529 0 .469.079.904.236 1.308.158.402.392.749.702 1.04.31.29.692.518 1.146.682.452.164.979.246 1.58.246zm0-9.388c.591 0 1.089-.089 1.493-.268.404-.178.729-.414.976-.709.246-.296.421-.633.524-1.013.104-.379.155-.771.155-1.173 0-.385-.064-.75-.192-1.097s-.32-.653-.577-.921c-.256-.267-.581-.479-.975-.639-.395-.159-.862-.239-1.404-.239s-1.01.08-1.404.239-.722.372-.983.639c-.261.268-.453.574-.576.921-.124.347-.185.712-.185 1.097 0 .402.052.794.155 1.173.104.38.278.717.525 1.013.246.295.571.531.975.709.404.179.902.268 1.493.268z"/></g><g fill="#fff"><path d="M361.85 288.207h4.33v-11.848c0-.459.015-.941.044-1.448l-3.074 2.446c-.128.103-.259.173-.392.211-.133.037-.264.056-.392.056-.197 0-.376-.04-.539-.12s-.284-.171-.362-.274l-1.153-1.504 6.518-5.271h3v17.751h3.842v2.6h-11.822v-2.599zM382.851 282.697c-.739 0-1.463-.122-2.172-.366-.709-.243-1.343-.611-1.899-1.103-.557-.492-1.002-1.101-1.337-1.827s-.502-1.576-.502-2.551c0-.909.177-1.762.532-2.558.355-.796.853-1.495 1.493-2.094.641-.6 1.409-1.073 2.306-1.419s1.887-.52 2.971-.52c1.094 0 2.077.164 2.948.492.872.328 1.616.787 2.232 1.377s1.088 1.298 1.419 2.123c.33.824.495 1.729.495 2.712 0 .628-.057 1.223-.17 1.785-.113.562-.276 1.104-.487 1.624-.212.52-.466 1.026-.761 1.518-.296.492-.626.986-.99 1.482l-4.892 6.634c-.167.225-.416.415-.746.569-.331.155-.707.232-1.131.232h-3.354l6.636-7.885.473-.576.429-.562c-.493.3-1.035.527-1.625.682-.597.154-1.218.231-1.868.231zm4.981-6.086c0-.553-.089-1.047-.266-1.482-.177-.436-.429-.804-.753-1.104-.325-.3-.712-.529-1.16-.688-.449-.159-.938-.239-1.471-.239-.552 0-1.049.087-1.493.26s-.82.415-1.131.724c-.31.309-.549.677-.717 1.104s-.251.893-.251 1.398c0 1.134.308 1.998.924 2.593.615.595 1.49.893 2.623.893.591 0 1.116-.089 1.574-.267.458-.178.845-.421 1.16-.731.315-.309.554-.674.717-1.096.162-.423.244-.877.244-1.365zM402.063 278.115c.808 0 1.594.126 2.357.379.763.253 1.436.635 2.017 1.146.581.511 1.05 1.146 1.404 1.904.354.759.532 1.645.532 2.657 0 .946-.183 1.834-.547 2.663-.365.829-.877 1.553-1.537 2.171-.66.619-1.456 1.106-2.387 1.462-.932.356-1.958.534-3.082.534-1.143 0-2.168-.174-3.074-.52-.907-.347-1.68-.832-2.32-1.455-.641-.623-1.13-1.373-1.47-2.249-.34-.876-.51-1.848-.51-2.917 0-.956.205-1.937.613-2.944.409-1.007 1.042-2.054 1.899-3.141l5.099-6.507c.177-.225.436-.417.775-.576s.731-.239 1.175-.239h3.252l-6.34 7.378-.392.45-.362.436c.414-.197.859-.351 1.337-.463.48-.113 1-.169 1.561-.169zm-5.113 6.311c0 .562.081 1.075.244 1.539s.404.86.724 1.188c.32.328.717.583 1.19.766.473.183 1.02.274 1.641.274.581 0 1.115-.093 1.604-.281.487-.188.906-.45 1.256-.787s.623-.733.82-1.188c.197-.454.296-.949.296-1.482 0-.581-.094-1.104-.281-1.567s-.453-.857-.798-1.181-.759-.569-1.241-.738c-.483-.168-1.016-.253-1.596-.253-.582 0-1.108.094-1.582.281s-.879.447-1.219.78c-.34.333-.601.727-.783 1.181-.184.454-.275.943-.275 1.468z"/></g><g fill="#fff"><path d="M499.634 308.268h4.33v-11.849c0-.459.015-.941.045-1.448l-3.074 2.446c-.128.103-.259.173-.392.211-.133.037-.264.056-.392.056-.197 0-.377-.039-.54-.119-.162-.08-.283-.171-.361-.273l-1.153-1.504 6.518-5.271h3v17.751h3.843v2.6h-11.823v-2.6zM529 290.544v1.503c0 .45-.052.813-.155 1.089s-.205.508-.303.696l-8.085 15.854c-.167.328-.403.606-.709.837-.306.229-.72.344-1.241.344h-2.646l8.276-15.53c.345-.637.729-1.185 1.152-1.645h-10.228c-.227 0-.423-.08-.591-.239s-.251-.347-.251-.562v-2.347h14.781zM546.351 300.705c0 1.771-.2 3.311-.599 4.617-.399 1.308-.951 2.388-1.655 3.24-.705.853-1.537 1.487-2.498 1.904-.961.416-1.998.625-3.111.625s-2.146-.209-3.096-.625c-.951-.417-1.776-1.052-2.476-1.904-.7-.853-1.247-1.933-1.641-3.24-.395-1.307-.591-2.846-.591-4.617 0-1.779.196-3.32.591-4.624.394-1.302.94-2.38 1.641-3.232.699-.853 1.524-1.487 2.476-1.904.95-.417 1.982-.625 3.096-.625s2.15.208 3.111.625 1.793 1.052 2.498 1.904c.704.853 1.256 1.93 1.655 3.232.398 1.304.599 2.845.599 4.624zm-3.77 0c0-1.471-.113-2.688-.34-3.654-.227-.964-.529-1.732-.908-2.304-.38-.571-.815-.972-1.309-1.202-.492-.229-1.005-.344-1.537-.344-.522 0-1.026.115-1.515.344-.487.229-.919.63-1.293 1.202-.375.572-.673 1.34-.895 2.304-.222.966-.332 2.184-.332 3.654 0 1.472.11 2.689.332 3.654.222.966.52 1.734.895 2.306.374.571.806.972 1.293 1.202.488.229.992.344 1.515.344.532 0 1.045-.115 1.537-.344.493-.23.929-.631 1.309-1.202.379-.571.682-1.34.908-2.306.227-.964.34-2.182.34-3.654z"/></g><g fill="#fff"><path d="M649.38 377.324c.808 0 1.594.127 2.357.38.763.253 1.436.635 2.017 1.146s1.05 1.146 1.404 1.904.532 1.645.532 2.656c0 .946-.183 1.834-.547 2.663-.365.829-.877 1.553-1.537 2.172-.66.618-1.456 1.105-2.387 1.461-.932.356-1.958.534-3.082.534-1.143 0-2.167-.173-3.073-.52-.907-.347-1.681-.832-2.32-1.455-.641-.623-1.131-1.372-1.471-2.249-.34-.876-.51-1.848-.51-2.916 0-.955.204-1.937.613-2.944.408-1.007 1.042-2.054 1.898-3.142l5.1-6.507c.177-.225.436-.417.775-.576s.731-.239 1.175-.239h3.252l-6.341 7.379-.392.45-.362.436c.414-.197.86-.352 1.338-.464s.999-.169 1.561-.169zm-5.114 6.311c0 .562.082 1.075.244 1.539.163.464.404.859.725 1.188.319.328.717.583 1.189.766.473.184 1.02.274 1.641.274.581 0 1.115-.094 1.604-.281.487-.188.906-.449 1.256-.787.35-.337.623-.732.82-1.188.197-.454.296-.948.296-1.482 0-.581-.094-1.104-.281-1.567s-.453-.857-.798-1.181-.759-.569-1.241-.737c-.483-.169-1.016-.253-1.597-.253s-1.108.094-1.581.28c-.473.188-.879.448-1.22.78-.34.333-.601.727-.783 1.181-.183.454-.274.943-.274 1.468zM660.597 387.415h4.33v-11.848c0-.459.015-.941.045-1.447l-3.074 2.445c-.128.104-.259.174-.392.211s-.264.056-.392.056c-.197 0-.377-.039-.54-.119-.162-.079-.283-.171-.361-.274l-1.153-1.504 6.518-5.271h3v17.751h3.843v2.601h-11.823v-2.601z"/></g><g fill="#DA1C5C"><path d="M102.526 463.893c0 .549-.183.994-.547 1.336s-.972.513-1.821.513h-6.501l-.849 4.691c1.067-.207 2.042-.311 2.924-.311 1.241 0 2.333.176 3.275.527.942.353 1.734.839 2.377 1.461.643.621 1.127 1.349 1.454 2.183.327.833.49 1.731.49 2.694 0 1.191-.221 2.278-.662 3.263-.441.983-1.054 1.825-1.837 2.524-.784.698-1.713 1.24-2.785 1.623-1.073.383-2.241.575-3.504.575-.741 0-1.443-.073-2.107-.218-.664-.146-1.288-.339-1.87-.583-.583-.243-1.122-.522-1.617-.839-.496-.315-.939-.649-1.332-1.002l1.242-1.631c.261-.352.61-.528 1.045-.528.272 0 .547.083.825.249.278.166.602.347.972.544.37.196.8.378 1.291.543.49.166 1.083.249 1.78.249.741 0 1.394-.114 1.96-.342.566-.228 1.037-.546 1.413-.955.376-.409.659-.896.85-1.461s.286-1.178.286-1.841c0-1.222-.373-2.177-1.119-2.865-.746-.689-1.843-1.033-3.292-1.033-1.144 0-2.292.196-3.447.59l-2.516-.684 1.96-10.904h11.663v1.632zM109.712 481.85h4.786v-13.095c0-.508.016-1.041.049-1.601l-3.397 2.703c-.142.114-.286.191-.433.233-.147.041-.291.062-.433.062-.218 0-.417-.044-.596-.132s-.313-.188-.4-.303l-1.274-1.662 7.204-5.825h3.316v19.619h4.247v2.874h-13.068v-2.873zM136.175 467.698c0 .85-.15 1.615-.449 2.299-.3.684-.7 1.267-1.201 1.748s-1.083.852-1.748 1.11c-.664.259-1.355.389-2.074.389-.784 0-1.508-.13-2.173-.389-.664-.259-1.239-.629-1.723-1.11-.485-.481-.863-1.064-1.135-1.748-.272-.684-.408-1.449-.408-2.299 0-.87.136-1.657.408-2.361.272-.704.65-1.299 1.135-1.786.484-.486 1.059-.862 1.723-1.126.665-.265 1.389-.396 2.173-.396s1.511.132 2.181.396c.669.264 1.25.64 1.74 1.126.49.487.871 1.082 1.143 1.786s.408 1.491.408 2.361zm7.857-4.831c.131-.155.294-.295.49-.419.196-.125.468-.187.816-.187h2.924l-17.544 21.887c-.13.166-.297.304-.498.412-.202.108-.444.163-.727.163h-3.005l17.544-21.856zm-10.977 4.831c0-.601-.06-1.103-.18-1.507-.12-.403-.286-.73-.498-.979-.212-.249-.463-.427-.751-.536-.289-.108-.596-.163-.923-.163s-.632.055-.915.163c-.283.109-.528.287-.735.536-.207.248-.368.575-.482.979-.114.404-.171.906-.171 1.507 0 .58.057 1.064.171 1.452.114.389.275.702.482.94.207.238.452.409.735.513s.588.155.915.155.634-.052.923-.155.539-.274.751-.513.378-.552.498-.94c.12-.387.18-.872.18-1.452zm16.449 11.744c0 .849-.15 1.615-.449 2.299-.3.684-.7 1.266-1.201 1.747-.501.482-1.083.854-1.748 1.119-.665.264-1.356.396-2.075.396-.784 0-1.508-.132-2.172-.396-.665-.265-1.239-.637-1.724-1.119-.484-.481-.863-1.063-1.135-1.747s-.408-1.45-.408-2.299c0-.87.136-1.657.408-2.361s.651-1.3 1.135-1.786c.484-.487 1.059-.862 1.724-1.127.664-.264 1.388-.396 2.172-.396s1.511.132 2.181.396c.67.265 1.25.64 1.74 1.127.49.486.871 1.082 1.144 1.786.272.704.408 1.491.408 2.361zm-3.104 0c0-.601-.063-1.104-.188-1.507-.125-.404-.294-.73-.506-.979-.212-.249-.463-.428-.751-.536-.289-.109-.596-.163-.923-.163s-.632.054-.915.163c-.284.108-.526.287-.727.536-.202.248-.362.574-.482.979-.12.403-.18.906-.18 1.507 0 .58.06 1.066.18 1.46.12.394.28.709.482.947.201.238.443.409.727.513.283.104.588.155.915.155s.634-.052.923-.155.539-.274.751-.513.381-.554.506-.947c.125-.393.188-.88.188-1.46z"/></g></g></svg>