<svg xmlns="http://www.w3.org/2000/svg" width="109.966" height="185.388" viewBox="0 0 109.966 185.388"><path fill="#fff" d="M51.433 100.874c.065 3.992 1.313 7.775-3.393 10.98-2.441 1.635-4.084 6.132-4.127 9.366-.246 15.806.121 31.587.385 47.405.146 7.271 5.643 12.609 12.579 12.565 6.901-.057 12.42-5.505 12.402-12.775-.06-15.914-.332-31.832-.556-47.757-.058-4.285-1.822-7.922-5.485-10.041-2.497-1.416-3.159-3.131-2.921-5.684.133-1.445.035-2.915.061-4.348 29.495-5.174 42.229-30.815 39.19-51.561-3.331-22.802-23.005-39.572-46.068-39.098-22.638.484-41.445 17.977-44.036 40.525-2.338 20.36 10.788 46.487 41.969 50.423z"/><path clip-rule="evenodd" stroke="#fff" stroke-width="7.961" stroke-miterlimit="10" d="M51.433 100.874c-31.181-3.936-44.307-30.063-41.969-50.423 2.591-22.548 21.398-40.041 44.036-40.525 23.062-.475 42.737 16.295 46.067 39.098 3.039 20.746-9.695 46.387-39.19 51.561-.025 1.433.072 2.902-.061 4.348-.238 2.553.424 4.268 2.921 5.684 3.663 2.119 5.427 5.756 5.485 10.041.224 15.925.497 31.843.556 47.757.018 7.271-5.501 12.719-12.402 12.775-6.936.044-12.433-5.293-12.579-12.565-.264-15.818-.63-31.599-.385-47.405.043-3.234 1.686-7.731 4.127-9.366 4.707-3.206 3.459-6.989 3.394-10.98zm36.77-26.635c10.508-18.675 3.903-42.156-14.826-52.621-18.493-10.365-41.975-3.776-52.404 14.708-10.491 18.593-3.815 42.241 14.841 52.682 18.486 10.34 41.99 3.719 52.389-14.769z" fill="none"/><path fill-rule="evenodd" clip-rule="evenodd" fill="#ED1C24" d="M88.203 74.239c-10.399 18.488-33.903 25.109-52.389 14.769-18.656-10.442-25.332-34.089-14.841-52.682 10.429-18.484 33.911-25.073 52.404-14.708 18.729 10.465 25.333 33.945 14.826 52.621zm-9.286-40.026c-8.678-9.317-19.034-13.541-31.445-10.7-11.533 2.637-18.86 10.064-22.183 21.672 14.839-18.668 33.296-19.161 53.628-10.972z"/><path fill-rule="evenodd" clip-rule="evenodd" fill="#F9F7F7" d="M78.917 34.213c-20.332-8.188-38.789-7.696-53.627 10.972 3.322-11.607 10.649-19.035 22.183-21.672 12.41-2.841 22.766 1.383 31.444 10.7z"/><g fill-rule="evenodd" clip-rule="evenodd" fill="#F9F9F9"><path d="M61.733 52.93c-1.741 2.813-4.494 4.615-7.712 5.736-2.96 1.022-5.917 2.021-8.174 4.362-.82.85-1.599.842-2.221-.279-.044-.095-.098-.178-.179-.25-5.263-5.899-5.295-5.921-.466-12.04 2.836-3.573 6.121-6.578 10.925-7.216 3.333-.419 5.906.945 7.799 3.594 1.347 1.877 1.183 3.913.028 6.093zM82.451 60.515c-2.624 3.985-6.211 6.222-10.165 7.979-5.215 2.311-5.068 2.208-8.754-2.041-1.984-2.285-2.616-3.847.439-5.612 1.655-.96 2.569-2.695 3.489-4.34 1.38-2.487 2.986-4.791 5.418-6.353 2.471-1.58 5.068-2.603 7.846-.639 2.45 1.732 3.597 5.284 2.705 8.37-.288.994-.721 1.955-.978 2.636zM55.63 75.567c-1.58-1.204-3.043-2.785-2.697-5.278.253-1.794 4.052-6.006 5.412-5.538 3.027 1.071 4.031 4.424 6.142 6.576.431.433 1.163.874.653 1.792-1.357 2.41-6.863 3.997-9.51 2.448zM32.109 61.832c.18-.24.458-.672.772-1.073 2.682-3.459 3.22-3.486 5.977-.122.476.552 1.103 1.06 1.328 1.711.56 1.704 4.408 2.394 1.523 5.178-2.971 2.861-5.8 3.731-7.987 2.222-2.548-1.78-3.268-4.97-1.613-7.916z"/></g></svg>