<svg xmlns="http://www.w3.org/2000/svg" width="141.732" height="76.536" viewBox="0 0 141.732 76.536"><path fill="#fff" d="M94.896 3.956c-16.943 3.99-30.854 22.577-25.135 43.689 5.354 19.759 25.289 29.983 43.604 25.12 17.96-4.771 30.657-23.548 25.241-43.718-5.62-20.936-26.924-30.221-43.71-25.091zM53.033 40.918c-5.916 1.189-9.267 7.648-7.85 12.948 1.577 5.89 7.393 9.409 13.159 7.896 5.743-1.507 9.297-7.606 7.707-13.312-1.792-6.426-8.738-9.065-13.016-7.532zM38.076 56.092c-1.036-3.959-5.034-6.372-8.93-5.388-4.077 1.029-6.559 5.042-5.577 9.022.982 3.983 5.129 6.485 9.09 5.486 4.013-1.011 6.46-5.131 5.417-9.12zM10.075 63.621c-.577-2.288-2.713-3.623-4.934-3.085-2.166.527-3.653 2.846-3.192 4.98.466 2.157 3.046 3.733 5.17 3.159 2.17-.587 3.506-2.873 2.956-5.054z"/><path fill-rule="evenodd" clip-rule="evenodd" fill="#ED1C24" d="M94.896 3.956c16.786-5.13 38.09 4.156 43.71 25.091 5.416 20.17-7.281 38.947-25.241 43.718-18.314 4.863-38.25-5.361-43.604-25.12-5.719-21.113 8.192-39.7 25.135-43.689zM53.033 40.918c4.278-1.533 11.225 1.105 13.017 7.533 1.59 5.706-1.964 11.805-7.707 13.312-5.767 1.513-11.582-2.007-13.159-7.896-1.418-5.301 1.933-11.76 7.849-12.949zM38.076 56.092c1.043 3.988-1.403 8.108-5.417 9.12-3.961.999-8.107-1.503-9.09-5.486-.981-3.979 1.5-7.993 5.577-9.022 3.896-.983 7.894 1.429 8.93 5.388zM10.075 63.621c.55 2.182-.786 4.468-2.956 5.055-2.124.574-4.704-1.002-5.17-3.159-.461-2.135 1.026-4.453 3.192-4.98 2.221-.539 4.357.796 4.934 3.084z"/><path fill="#fff" d="M101.306 38.305c-.712 1.176-1.042 2.506-2.998 2.578-1.013.029-2.314 1.039-2.918 1.973-2.964 4.561-5.747 9.226-8.565 13.883-1.288 2.145-.663 4.707 1.366 5.963 2.021 1.247 4.625.67 5.951-1.452 2.896-4.647 5.73-9.334 8.578-14.016.768-1.259.921-2.641.242-3.93-.47-.869-.35-1.489.188-2.189.304-.397.545-.843.813-1.257 9.542 3.893 17.943-1.248 20.855-7.849 3.205-7.252.543-15.739-6.265-19.823-6.684-4.002-15.364-2.348-20.246 3.747-4.407 5.504-5.365 15.518 2.999 22.372z"/><path clip-rule="evenodd" stroke="#fff" stroke-width="2.739" stroke-miterlimit="10" d="M101.306 38.305c-8.364-6.854-7.406-16.868-2.998-22.372 4.882-6.095 13.562-7.749 20.246-3.747 6.808 4.084 9.47 12.571 6.265 19.823-2.912 6.601-11.313 11.741-20.855 7.849-.269.414-.51.859-.813 1.257-.537.7-.657 1.32-.188 2.189.679 1.289.525 2.671-.242 3.93-2.848 4.682-5.682 9.368-8.578 14.016-1.326 2.122-3.93 2.699-5.951 1.452-2.029-1.256-2.654-3.818-1.366-5.963 2.818-4.657 5.602-9.322 8.565-13.883.604-.934 1.905-1.943 2.918-1.973 1.955-.072 2.285-1.403 2.997-2.578zm15.587-1.029c6.479-3.519 8.854-11.568 5.312-18.046-3.489-6.404-11.536-8.783-17.96-5.307-6.458 3.497-8.841 11.608-5.316 18.065 3.49 6.398 11.551 8.77 17.964 5.288z" fill="none"/><path fill-rule="evenodd" clip-rule="evenodd" fill="#ED1C24" d="M116.893 37.276c-6.413 3.481-14.474 1.109-17.965-5.287-3.524-6.457-1.142-14.568 5.316-18.065 6.424-3.477 14.471-1.098 17.96 5.307 3.544 6.477 1.169 14.527-5.311 18.045zm4.622-13.362c-.824-4.303-3.068-7.429-7.204-8.873-3.842-1.343-7.336-.52-10.429 2.254 7.74-2.723 13.206.513 17.633 6.619z"/><path fill-rule="evenodd" clip-rule="evenodd" fill="#F9F7F7" d="M121.515 23.914c-4.427-6.106-9.894-9.342-17.633-6.619 3.093-2.773 6.587-3.597 10.429-2.254 4.136 1.444 6.38 4.57 7.204 8.873z"/><g fill-rule="evenodd" clip-rule="evenodd" fill="#F9F9F9"><path d="M113.082 26.222c-1.022.502-2.153.522-3.296.26-1.05-.244-2.094-.493-3.182-.226-.395.098-.619-.047-.596-.487l-.005-.106c-.454-2.681-.459-2.693 2.066-3.593 1.481-.521 2.987-.796 4.504-.103 1.05.489 1.549 1.357 1.616 2.475.049.793-.372 1.357-1.107 1.78zM117.73 32.224c-1.495.682-2.949.676-4.423.465-1.941-.281-1.879-.285-2.177-2.197-.159-1.028-.057-1.6 1.156-1.555.658.022 1.24-.314 1.81-.625.858-.473 1.747-.85 2.743-.86 1.009-.007 1.951.17 2.402 1.25.397.953.08 2.199-.744 2.935-.265.235-.568.436-.767.587zM107.16 31.7c-.238-.64-.375-1.368.181-2.031.402-.477 2.281-1.008 2.59-.622.688.865.365 2.026.588 3.039.046.205.177.468-.14.642-.836.454-2.73-.092-3.219-1.028zM102.823 23.393l.421-.17c1.415-.518 1.576-.427 1.764 1.058.038.248.126.511.072.742-.147.599.846 1.504-.504 1.787-1.388.29-2.373.025-2.733-.814-.417-.986-.043-2.048.98-2.603z"/></g></svg>