<svg xmlns="http://www.w3.org/2000/svg" width="720" height="458.984" viewBox="0 0 720 458.984"><g fill-rule="evenodd" clip-rule="evenodd" fill="#ED1C24"><path d="M3 249.855c7.582-3.456 11.468-10.115 14.871-17.183.521-1.073.231-2.926 2.033-2.699 1.514.192 1.772 1.639 1.635 3.021-.128 1.368.093 3.023 1.454 3.182 5.669.664 4.979 5.403 4.942 8.656-.053 5.219 3.58 6.58 6.832 8.739 1.414.931 2.672.645 3.247-.604 1.949-4.289 4.88-2.592 7.724-1.466 3.502 1.379 6.408 4.105 10.536 4.1 3.852 0 7.685 1.318 10.884-2.537 1.721-2.063 4.51-2.516 6.282.757.919 1.71 2.768 2.314 4.331 3.221 1.677.962 2.784-.149 3.697-1.331.917-1.182.844-2.387-.487-3.297-1.365-.943-3.037-1.777-1.91-3.853 1.345-2.463 3.548-1.035 5.42-1.018 1.691.021 5.056 2.555 4.74-.104-.753-6.341 4.742-5.168 7.099-7.628 2.369-2.478 4.197-4.367 8.597-.509-5.979-27.892-3.619-54.721-5.883-81.304 1.812-.063 2.029 1.428 2.778 2.368 1.241 1.562 2.304 3.989 3.89 4.426 10.271 2.808 11.598 12.57 15.86 19.957 1.212 2.1 2.634 3.087 4.141 1.745 4.209-3.75 8.954-2.223 13.552-1.954 3.643.209 7.365 1.719 9.868-2.688.562-.996 2.562-1.236 3.94-1.701 10.774-3.63 16.302-13.198 23.515-20.905 1.781 1.341.893 3.108.972 4.614.248 4.218 2.476 8.621 5.761 9.222 5.815 1.077 3.97 3.901 3.243 7.081-1.869 8.183.438 12.719 8.512 14.421 4.693.986 6.283 6.591 11.473 6.435 1.524-.044 3.067 1.434 3.49-1.32.127-.79 1.093-1.219 1.73-.73 4.511 3.444 4.938-.899 6.305-3.3.404-.716.146-2.048 1.442-1.825 1.26.207 1.672 1.338 1.556 2.511-.109 1.078-.565 2.137-.602 3.208-.128 3.272.602 5.776 4.771 5.596 3.572-.156 5.811.726 3.671 5.153-1.831 3.804 2.658 3.82 4.324 6.209-1.155-4.355-.679-6.954 4.333-6.052 1.422.255 1.781-.868 1.343-2.173-.871-2.589 1.156-3.521 2.729-4.707.215.156.422.312.617.48 4.507 1.786 9.594 3.398 2.095 8.293-.378.251-.989 2.019.154 2.312 4.645 1.186 3.352 4.445 2.776 7.432-.919 4.739.466 9.389.444 14.109-.038 8.311-5.062 14.295-8.982 20.807-1.202 1.99-3.033 3.6-4.271 5.571-1.573 2.512-4.148 5.446 1.645 6.325 1.986.303 2.546 2.818 3.051 4.226 1.507 4.227 4.561 5.188 8.393 5.33l.879.892c.905 8.206 5.511 13.834 12.696 17.296 3.438 1.658 4.844 3.373 3.067 7.154-.906 1.917-.999 4.215-1.487 6.328-.949 4.088-3.192 6.821-7.575 7.542-7.646 1.256-13.761 4.605-18.088 11.516-2.838 4.527-6.619 9.055-13.303 5.817-1.084-.53-1.598.445-2.246 1.016-2.626 2.312-5.018 1.868-7.895.051-5.232-3.294-13.171-1.457-16.936 3.539-.529.703-1.108 2.212-1.767 1.745-4.06-2.841-9.394-.056-13.378-3.429-5.168-4.368-7.863-3.583-10.536 2.493-.507 1.157-1.107 2.292-1.766 3.384-2.106 3.518-1.186 5.047 2.946 4.703 1.063-.089 2.674-.213 3.161.388 3.355 4.117 8.255 3.045 12.454 4.361 3.639 1.133 5.65-.419 7.562-2.156 3.697-3.364 10.454-4.562 14.804-2.271 2.649 1.408 5.519 5.279 8.039-.66.833-1.974 2.208.694 3.222 1.323 2.049 1.271 4.665 3.267 2.511 5.538-2.343 2.476-3.659 5.959-6.949 7.52l-.333.396c-4.184 2.034-7.962 4.675-12.783 5.592-4.565.863-5.414 3.853-2.514 7.613 2.96 3.834 2.116 5.865-2.34 6.643-4.479.779-7.151 3.005-7.673 7.688-.276 2.461-1.437 4.419-3.87 5.57-1.477.692-2.887 1.75-2.131 3.841.758 2.107 2.097 3.417 4.499 3.166 1.088-.111 2.388.027 3.202-.521 5.677-3.841 10.97-1.379 16.345.745 1.652.657 2.972 1.59 2.927 3.498-.044 2.289-1.775 2.398-3.518 2.398-1.351 0-2.719.383-3.201 1.693-.68 1.801 1.071 1.875 2.105 2.493 2.289 1.369 3.241 3.853 2.844 6.086-.476 2.653-3.33 3.336-5.671 3.415-9.449.318-18.893.397-28.203 2.557-2.603.598-5.104.822-6.221 3.602-2.147 5.343-6.114 7.812-11.793 8.15-3.441.201-6.863 1.456-10.266 1.361-10.832-.313-19.676 3.996-27.601 10.887-6.626 5.769-12.87 5.877-19.762.56-1.275-.984-2.846-1.623-4.347-2.242-5.441-2.257-8.851-8.664-15.988-7.715-.707.095-1.794-2.509-2.653-3.894-.74-1.183-.993-3.099-2.991-2.496-1.757.542-3.417 1.476-3.372 3.758.023.722.339 1.507.148 2.158-.477 1.659-1.566 3.146-3.342 3.16-1.921.014-1.943-1.837-2.075-3.284-.147-1.631-.406-3.279-.316-4.907.701-11.979-5.624-20.607-13.528-28.449-2.001-1.991-.963-4.714-2.392-7.03-2.489-4.047 2.475-3.382 4.075-4.565 3.335-2.456 5.882-4.865 4.687-9.482-1.345-5.209-.432-10.443.148-15.669 1.069-9.508-5.554-15.227-11.263-20.843-8.109-7.953-7.308-13.006 2.84-17.998 3.479-1.713 6.189-5.91 8.545-9.307 2.535-3.657 3.878-2.76 6.117-.4 1.375 1.447 2.872 2.774 4.253 4.212 1.69 1.736 4.856 2.208 2.33 6.442-1.798 3.012 3.029 6.411 3.115 10.479.142 6.882 2.032 13.421 5.57 19.473 1.729 2.954 4.272 4.609 7.324 5.135 4.157.719 4.813 2.975 4.162 6.593-.736 4.134-1.491 8.416 3.393 11.768-.403-7.074 6.264-6.949 9.795-9.911 1.57-1.315 4.32-4.495 6.164-3.361 3.237 1.996-1.121 4.13-1.22 6.553-.326 8.281 5.84 14.365 13.865 13.255 3.142-.428 7.681.914 6.291-5.17-.121-.518 1.179-1.982 1.625-1.91 4.646.763 4.935-6.446 9.852-5.259.955.232.809-1.36.693-2.229-.346-2.542 1.377-3.832 3.256-4.464 3.147-1.047 6.643-.881 7.624-5.466.359-1.688 2.827-.658 4.013.713 1.267 1.466 2.868 2.685 4.735 2.016 2.634-.938 1.069-3.51 1.444-5.324.209-1.018-.699-2.574-.214-3.173 4.108-5.132-2.753-5.049-3.624-7.768-.092-.291-1.375-.557-1.415-.479-2.357 4.657-9.325 4.228-10.796 9.533-.678 2.418-2.11 2.935-4.001 3.743-4.072 1.734-8.398 3.241-8.929 8.828-.214 2.295-8.74 4.606-11.978 3.506-7.867-2.678-10.246-9.059-6.066-16.479.538-.96.415-1.707-.194-2.475-.451-.564-1.006-1.35-1.784-.872-4.889 2.998-11.282 3.915-14.211 9.641-2.029 3.963-3.55 1.999-4.827-.258-1.507-2.673-1.264-5.8-.336-8.5 1.224-3.556-.18-5.059-3.228-6.164-6.642-2.403-12.146-11.153-12.861-18.057-.447-4.29 1.261-9.438-3.331-12.898-.736-.55-1.129-3.07-.624-3.52 4.856-4.388-1.12-5.094-2.377-7.337-.249-.453-.812-1.095-1.173-1.06-3.281.296-2.995-8.026-7.733-3.391-2.361 2.314-6.532 2.917-7.003 7.17-.179 1.509-1.223 2.953-2.779 3.029-4.003.186-5.802 2.072-6.27 6.044-.253 2.191-1.96 2.725-4.134 1.483-2.247-1.285-4.194-2.378-5.076-5.241-2.219-7.251-5.02-13.951-10.573-19.861-4.591-4.895-3.85-13.087-6.661-19.334-3.135-6.966-5.294-14.756-13.054-18.687-3.31-1.688-3.145-5.987-5.345-8.611v-3.294zM415.221 5.374c7.479 4.436 15.74 5.469 24.238 6.197 7.756.666 15.336 3.106 23.254 2.454 2.205-.183 3.324 1.241 3.998 3.068 1.203 3.254 2.236 6.557 2.42 10.072.064 1.264-.18 3.006.533 3.711 5.594 5.553 4.439 11.491 1.602 17.772-1.193 2.647-.414 4.762 2.344 6.383 4.299 2.527 3.287 8.29 6.588 11.627.928.94-.453 2.094-1.623 2.016-5.055-.336-7.607 1.936-8.783 6.876-.428 1.816-2.926 3.124-4.414 4.725-.936.997-2.701 1.697-1.963 3.505.576 1.447 2.061 1.25 3.336 1.261 1.045.018 2.385-.466 2.834.918.48 1.508-.678 2.229-1.797 2.972-1.729 1.162-3.873 2.287-.25 4.032 1.297.628-.041 1.542-.646 1.986-2.354 1.7-4.686 3.463-7.201 4.892-2.283 1.279-3.584-.343-3.84-2.313-.23-1.751.182-3.623.494-5.403.32-1.824-.086-3.215-1.658-4.268-6.912-4.608-23.076-4.586-30.127.134-1.188.794-2.879 1.82-3.068 2.945-.994 5.88-5.834 7.443-10.1 9.8-2.045 1.138-4.09 2.066-6.131.633-2.057-1.439-2.666-3.827-2.717-6.281-.031-1.355 1.771-3.065.125-3.972-1.705-.936-3.602.176-4.838 1.613-2.254 2.63-5.562 2.406-8.42 3.446-5.561 2.021-11.648 2.474-16.547 6.547-2.617 2.171-5.021-.004-6.863-2.364-2.405-3.066-4.518-5.929-8.854-7.444-3.85-1.35-7.057-1.138-9.588.737-4.255 3.158-7.599.597-11.288-.462-2.239-.642-.937-2.35-.888-3.654.253-6.521-1.777-8.262-7.858-6.717-3.928.997-7.987-1.613-9.005-5.744-.279-1.134.18-1.982 1.148-2.029 3.542-.162 4.65-2.756 5.042-5.437.718-4.993 4.75-8.271 6.193-13.07.86-2.853 3.053-6.312 5.257-9.235 2.767-3.674 5.662-3.765 9.404-3.271 2.931.384 4.743-1.768 6.344-3.708 5.347-6.516 9.088-14.27 15.983-19.694 1.648-1.301 2.807-2.949 5.066-3.117 5.16-.385 10.326-.729 15.439-1.089-.955-5.005 6.324-6.052 5.992-11.049 6.952-.001 13.887-.001 20.833-.001zM216.979 362.563c8.815.864 15.853-2.422 21.678-8.953 1.278-1.425 2.101-2.72 1.08-4.276-2.657-4.071.402-4.843 3.159-5.831 3.19-1.136 4.783-3.099 6.482-6.372 1.994-3.851 6.764-6.406 10.638-9.067 1.856-1.281 4.649-2.504 6.643-2.059 6.318 1.402 6.577-2.552 6.56-6.698-.013-3.905 3.148-6.45 3.805-10.016.073-.402.694-.979 1.089-1.004 9.533-.521 17.876-8.157 28.407-3.999 4.021 1.587 8.761.694 13.552-1.595 3.194-1.524 5.972-2.532 8.192-5.448 1.935-2.534 2.981.362 4.181 1.362 1.663 1.396 1.396 3.802 3.315 5.418 5.889 4.942 12.234 3.148 14.947-3.94 1.565-4.081 5.229-7.384 9.164-9.3 2.755-1.345 6.202-.81 8.405-4.021.887-1.296 3.168-.227 4.137 1.29 1.105 1.715 2.088 3.658.104 5.41-.787.704-1.904 1.05-2.895 1.516-2.57 1.203-5.267 2.403-3.518 6.032 1.859 3.877 6.824 6.033 9.816 4.486 2.115-1.1 1.199-2.722.252-3.58-4.436-4.049-.939-6.623 1.871-8.613 2.49-1.761 2.654-3.757 3.559-6.322 1.928-5.501 1.891-12.23 7.588-16.123 5.422-3.699 4.951-11.205-.736-14.299-.324-.173-.65-.36-1.004-.443-3.123-.707-5.807-3.186-7.102-5.207-2.465-3.844 3.154-3.917 4.797-6.008 4.064-5.187 8.553-9.984 14.742-13.304 3.543-1.897 1.766-7.516 1.105-10.996-.959-5.118 1.82-9.407 1.596-14.221-.041-.832 1.773-2.581 2.576-2.496 9.602 1.02 18.238-5.819 27.99-3.334 1.615.411 3.137.827 4.584 1.675 3.23 1.876 5.838 2.55 7.662-2.14 1.752-4.526 5.951-1.552 7.152-.23 4.689 5.126 9.238-1.049 13.771.438 1.082.351 1.363-1.849 1.383-3.136.018-1.825-.1-3.652-.004-5.478.309-6.488 1.559-7.426 7.383-4.955 2.898 1.223 5.502 1.616 8.373.19 1.125-.565 2.441-.76 3.684-1.017 2.859-.588 7.023-1.9 8.121.669 1.492 3.472 2.578 7.814-.066 11.91-5.758 8.89-8.43 18.946-10.574 29.203-1.539 7.347-7.639 11.639-12.064 17.043-4.277 5.216-10.047 7.706-16.029 10.57-6.51 3.122-9.559 10.521-13.369 16.643-9.094 14.643-16.742 30.188-27.324 43.914-1.469 1.901-3.785 2.226-4.67.995-2.83-3.923-7.51-4.866-11.076-7.566-4.957-3.749-10.906-5.871-17.59-3.326 7.02.418 10.85 6.904 17.357 8.481 3.703.897 4.908 6.739 2.551 10.024-5.154 7.173-12.293 12.363-18.809 18.123-7.506 6.627-15.277 12.825-21.635 20.76-5.718 7.136-14.38 11.124-21.247 17.078-7.3 6.318-14.881 12.165-22.913 17.521-2.78 1.854-5.692 2.113-8.708 2.744-5.924 1.239-11.487 4.042-17.912 3.1-2.688-.392-4.946.924-3.612 4.756 1.041 2.961-.799 5.737-3.625 5.384-10.95-1.382-20.655 3.816-31.062 5.178-4.142.533-8 .043-11.757-1.572-2.91-1.248-5.964-1.766-9.064-1.829-3.666-.078-7.071-.269-7.948-4.84-.09-.468-.54-.962-.96-1.252-1.147-.784-4.042.366-3.306-2.331.519-1.858 2.4-3.255 4.501-3.596 2.561-.405 3.809-2.255 1.394-3.274-4.522-1.905-8.812-6.487-14.61-2.811-1.811 1.155-4.023 1.604-6.295 1.604-2.543.001-4.223-1.129-5.062-3.406-1.201-3.263 2.019-2.243 3.229-3.025 1.722-1.1 3.332-1.794 3.295-4.424-.082-5.782 2.728-9.586 8.585-10.812 2.828-.591 4.022-1.958 1.726-4.412-2.661-2.849-4.716-5.393.538-7.716.678-.306.014-1.676-.505-2.449l.332-.395zM382.639 135.116c.02 6.179-4.146 9.675-8.562 12.812-2.059 1.462-4.158 2.281-5.002 5.235-.865 3.031-1.389 4.791 2.605 4.919 1.244.043 2.664.615 2.564 2.27-.088 1.254-1.229 1.796-2.338 1.916-3.324.363-5.061 2.068-5.982 5.375-1.001 3.612-3.562 5.116-7.051 2.6-3.39-2.441-7.157-2.432-11.007-2.059-2.574.257-4.266-.313-4.252-3.364.019-3.068-1.901-5.203-4.336-6.469-1.429-.742-3.828-1.979-4.733 1.32-1.593 5.742-6.145 7.436-11.392 7.233-3.974-.157-7.59.784-11.144 2.181-3.158 1.239-5.468 3.125-5.54 7.149-.082 4.421-2.619 7.74-6.942 8.691-4.895 1.072-9.187 3.38-13.696 5.269-.83.356-1.81.963-2.572.788-9.439-2.21-13.719 5.901-20.032 9.907-1.068.682-1.926 1.703-3.018 2.315-2.804 1.555-4.666-1.007-5.907-2.383-1.008-1.123.333-3.339 2.7-3.627 1.25-.151 2.733-.427 2.454-2.235-.256-1.597-1.646-1.662-2.933-1.912-1.051-.206-2.028-.715-3.054-1.07-.665-.225-1.352-.422-2.03-.634 1.277 5.784-7.773 4.225-6.883 9.654.333 1.994-.839 2.572-2.299 3.071-.195-.168-.402-.324-.617-.48-1.256-2.563-3.91-4.424-1.655-8.229 1.405-2.36-2.027-2.879-3.842-3.147-4.619-.679-7.539-2.118-4.474-7.38.838-1.428-.018-2.479-1.163-3.187-1.204-.755-1.87.176-2.715.965-6.818 6.334-11.364 6.455-19.054.649-1.641-1.246-3.547-1.72-5.55-2.107-5.555-1.072-8.382-6.951-6.948-12.474.716-2.796 5.475-7.474-2.954-8.371-4.847-.514-7.289-9.218-4.99-14.458 1.552-3.538 2.508-6.982 2.52-10.954.023-6.228 3.057-11.659 7.337-15.884 5.373-5.303 13.842-4.584 19.412.895 3.775 3.714 7.38 7.728 13.149 2.741 1.475-1.288 3.541.206 5.106 1.032 4.578 2.436 9.582 3.45 14.56 4.508 4.053.864 8.031 2.062 11.292-2.485 1.478-2.06 4.785-1.186 7.296-.645 5.312 1.135 8.52-1.503 8.203-6.897-.282-4.877 2.116-9.725 1.442-14.273-1.016-6.762 5.597-7.973 7.614-12.462.85-1.884 5.783-2.354 8.937-2.641 2.91-.259 4.736-1.346 5.983-4.951 2.562 5.906 5.891 6.753 11.144 4.858 3.732-1.35 5.536 1.846 5.849 5.742.137 1.722-1.951 4.507 1.812 5.241 3.479.683 6.453 4.26 10.513.558 3.721-3.394 12.195-1.626 15.263 2.597.109.142.231.297.268.47.823 4.044 8.085 6.222 6.021 9.213-4.013 5.793-6.151 14.028-14.519 15.91-5.014 1.126-5.147 5.082-6.99 8.864-2.834 5.813-.161 8.554 2.942 12.055.705.79 1.129 1.88 1.53 2.891.47 1.188.645 2.642 2.495 2.056 1.251-.397 2.642-1.021 2.428-2.546-1.052-7.615 4.542-9.878 9.822-12.339 2.678-1.254 4.986-2.522 6.222-5.597 1.579-3.951 6.101-5.965 7.191-10.549.433-1.853 11.092-2.23 12.08-.609 1.133 1.859-.264 3.407-.934 5.077-.773 1.913-5.012 2.496-2.475 5.59 2.475 3.017 5.422 2.241 8.242.276.864.515 1.729 1.016 2.589 1.525zM248.441 279.366l-.879-.892c-1.251-3.397-1.055-7.822-6.243-8.378-1.302-.138-1.927-2.149-1.367-2.455 4.009-2.185 2.774-8.757 8.219-9.626.614-.097 1.511-.725 1.635-1.254 1.928-8.14 7.441-15.496 4.976-24.602-1.661-6.146-.423-11.027 5.69-14.864 5.132-3.214 9.258-8.054 13.782-12.224.768-.708 1.557-.998 2.466-.727 6.366 1.887 11.176-1.801 16.261-4.509.477-.247 1.007-.891 1.373-.793 8.266 2.181 8.329-3.39 9.258-9.057.8-4.947 10.023-9.648 16.902-9.104 2.427.189 4.689-.164 7.037-.406 2.625-.283 3.784-1.701 4.226-4.188 1.082-6.048 5.773-9.006 11.461-6.634 3.242 1.35 7.476 2.662 6.578 7.957-.435 2.566 1.226 4.032 3.539 4.818 4.39 1.491 8.909 2.278 13.474 1.311 3.488-.737 5.848.388 8.201 2.9 2.846 3.042 6.346 5.335 9.977 7.441 3.902 2.254 7.062 6.028 5.527 10.236-1.883 5.197-.561 10.153-.736 15.149-.111 3.101-1.023 5.021-3.346 6.179-6.699 3.342-12.07 8.137-16.387 14.153-1.262 1.75-2.543 2.676-4.451.979-2.436-2.181-6.311-2.011-8.2-5.108-.766-1.257-1.816-1.025-2.701-.082-2.088 2.239-5.48 2.398-7.51 3.943-4.281 3.262-10.272 4.055-13.071 9.712-2.153 4.337-5.431 8.14-9.324 11.343-3.806 3.126-5.149 7.101-3.34 12.142 1.453 4.052 1.583 8.441 3.888 12.378 1.649 2.809-3.05 7.403-7.343 9.275-7.998 3.48-16.072 2.928-24.356 2.04-4.567-.484-8.971.428-13.125 2.822-4.7 2.696-11.218 1.515-15.643-2.666-3.448-3.265-6.981-6.727-8.483-11.279-1.381-4.192-4.126-5.542-7.965-5.93zM382.639 135.116c-.859-.509-1.725-1.01-2.586-1.525 1.029-2.974 6.188-1.873 5.965-6.312-.131-2.573.311-4.859-3.512-4.151-1.357.248-3.289.549-3.689-1.331-.367-1.752 1.627-2.581 2.738-2.941 5.141-1.645 10.34-3.17 15.617-4.225 2.246-.45 4.266-.415 5.248-2.934.504-1.284 1.637-2.112 3.072-1.631 1.918.638 1.34 2.114 1.119 3.632-.564 3.817.457 6.912 4.729 7.84 3.418.74 11.375-4.771 11.691-8.384.312-3.625 3.762-4.952 5.619-6.08 5.867-3.557 12.545-6.144 19.469-2.004 2.006 1.2 4.188 1.321 6.32 1.389 4.592.147 7.055 1.594 5.412 6.729-.424 1.324-.699 3.191-.08 4.243 1.01 1.696 2.426 5.066 4.924 1.165.836-1.297 1.803-1.636 3.162-1.621 1.371.008 2.699-.473 3.105-1.81.574-1.882-1.562-1.545-2.236-2.342-3.432-4.078 2.105-3.999 3.068-6.326-2.135-1.769-6.064.172-7.572-3.751 3.947-.593 7.029-2.924 8.762-6.182 1.021-1.925-.617-4.769 2.699-6.377 2.092-1.016 3.73-3.241 6.266-1.99 2.441 1.207 3.633 3.718 3.738 6.305.486 12.571 1.936 25.083-.354 37.747-.854 4.719-.104 9.661-3.166 13.91-1.348 1.87 1.123 3.183 1.105 4.591-7.334 4.756-10.486-2.865-15.008-5.326-4.15-2.248-7.607-.993-8.822 1.292-4.324 8.129-10.934 14.97-13.545 24.063-1.174 4.083-1.068 7.287 2.695 10.123 2.416 1.828 3.801 4.853 6.383 6.706 2.186 1.58 2.234 3.752.75 5.779-1.471 1.994-3.615 3.809-6.047 2.14-6.02-4.146-13.027-2.907-19.158-2.369-4.82.432-9.682 3.369-15.049 3.629-1.973.097-3.439.164-4.891-1.327-4.148-4.273-9.801-6.685-13.836-11.171-1.719-1.917-4.254-1.641-6.693-1.34-4.76.592-9.482.508-13.971-1.544-4.805-2.198-5.238-5.721-1.002-8.852.898-.666 1.994-1.16 1.953-2.402-.195-5.839 2.982-8.162 8.416-8.053-.012-1.562-1.021-2.021-2.066-2.395-1.828-.651-5.697.491-5.039-2.171.75-3.042.971-8.027 5.467-8.404 5.066-.422 5.617-5.595 9.229-7.392 1.203-.6.857-2.244.199-3.482-.875-1.652-2.238-2.562-4.029-2.028-2.446.731-4.64.816-6.569-1.11z"/></g><g fill="#fff"><path d="M392.385 54.128h2.809v1.32c0 .138-.041.254-.123.349-.082.095-.209.143-.381.143h-2.305v4.879h-2.031v-4.879h-8.219c-.174 0-.322-.05-.447-.149s-.205-.222-.238-.369l-.234-1.178 9.021-11.972h2.148v11.856zm-2.031-7.649c0-.224.006-.466.02-.725.012-.259.041-.526.084-.803l-6.744 9.177h6.641v-7.649zM404.861 46.751c0 .725-.111 1.374-.336 1.948-.225.574-.523 1.057-.898 1.45-.377.393-.814.692-1.314.899s-1.023.311-1.566.311c-.586 0-1.129-.104-1.625-.311s-.93-.507-1.301-.899-.66-.875-.867-1.45c-.207-.574-.311-1.223-.311-1.948 0-.742.104-1.402.311-1.98.207-.578.496-1.065.867-1.462s.805-.699 1.301-.906c.496-.207 1.039-.311 1.625-.311.578 0 1.119.104 1.625.311.504.208.939.509 1.307.906s.656.885.867 1.462c.21.578.315 1.238.315 1.98zm6.485-4.012c.113-.147.232-.261.357-.343s.291-.123.498-.123h1.656l-13.551 18.172c-.086.112-.189.203-.311.272-.121.069-.264.104-.428.104h-1.709l13.488-18.082zm-8.284 4.012c0-.57-.061-1.053-.182-1.45-.119-.397-.285-.723-.498-.977-.211-.254-.457-.438-.736-.55-.281-.112-.582-.168-.9-.168s-.619.056-.898.168c-.281.112-.525.296-.732.55s-.369.58-.484.977c-.117.397-.176.88-.176 1.45 0 .561.059 1.038.176 1.43.115.393.277.712.484.958.207.246.451.423.732.531.279.108.58.162.898.162s.619-.054.9-.162c.279-.108.525-.285.736-.531.213-.246.379-.565.498-.958.122-.392.182-.869.182-1.43zm12.051 9.694c0 .725-.113 1.372-.338 1.941-.223.569-.523 1.05-.898 1.443s-.811.692-1.307.899c-.496.208-1.018.311-1.561.311-.586 0-1.129-.104-1.625-.311-.496-.207-.93-.506-1.301-.899-.371-.393-.66-.874-.867-1.443-.207-.57-.311-1.217-.311-1.941 0-.742.104-1.404.311-1.987s.496-1.072.867-1.469c.371-.396.805-.699 1.301-.906s1.039-.311 1.625-.311c.578 0 1.117.104 1.617.311.502.207.938.509 1.309.906s.66.887.867 1.469.311 1.245.311 1.987zm-1.787 0c0-.57-.061-1.055-.18-1.456-.121-.401-.287-.727-.5-.978-.211-.25-.457-.431-.736-.543-.281-.112-.582-.168-.9-.168s-.619.057-.898.168c-.281.112-.525.293-.732.543-.207.25-.369.576-.484.978-.117.401-.176.886-.176 1.456 0 .561.059 1.035.176 1.423.115.389.277.706.484.952.207.246.451.423.732.53.279.108.58.162.898.162s.619-.054.9-.162c.279-.107.525-.285.736-.53.213-.246.379-.563.5-.952.12-.388.18-.862.18-1.423z"/></g><g fill="#fff"><path d="M257.336 148.011c0 .328-.104.598-.311.809s-.557.317-1.048.317h-5.825l-.854 4.867c.966-.207 1.859-.311 2.679-.311.966 0 1.818.142 2.556.427s1.357.678 1.857 1.178c.5.5.878 1.092 1.132 1.773s.382 1.424.382 2.226c0 .984-.172 1.873-.518 2.667s-.818 1.473-1.417 2.038c-.6.565-1.305.999-2.116 1.301-.812.302-1.688.453-2.627.453-.544 0-1.066-.054-1.566-.162s-.966-.252-1.398-.434c-.431-.181-.833-.388-1.204-.622-.371-.233-.699-.479-.983-.737l.699-.984c.155-.224.362-.336.621-.336.164 0 .356.067.576.201s.485.283.796.446c.311.164.675.313 1.094.447s.917.201 1.495.201c.647 0 1.229-.104 1.747-.311s.96-.502 1.327-.886.649-.843.848-1.378c.199-.535.298-1.135.298-1.799 0-.578-.084-1.1-.252-1.566s-.423-.863-.764-1.191c-.341-.328-.766-.583-1.275-.764s-1.104-.271-1.786-.271c-.466 0-.949.039-1.45.116s-1.018.203-1.553.375l-1.45-.427 1.501-8.672h8.788v1.009zM268.842 151.479c0 .725-.112 1.374-.337 1.948-.224.574-.524 1.057-.899 1.45s-.813.692-1.313.899c-.5.207-1.022.311-1.566.311-.587 0-1.128-.104-1.624-.311-.497-.207-.93-.507-1.301-.899-.371-.393-.66-.875-.867-1.45-.207-.574-.311-1.223-.311-1.948 0-.742.104-1.402.311-1.98.207-.578.496-1.065.867-1.462s.804-.699 1.301-.906c.496-.207 1.037-.311 1.624-.311.578 0 1.12.104 1.625.311.505.208.94.509 1.307.906s.656.885.867 1.462c.21.578.316 1.238.316 1.98zm6.485-4.012c.112-.147.23-.261.356-.343.125-.082.291-.123.498-.123h1.657l-13.551 18.172c-.086.112-.19.203-.311.272s-.263.104-.427.104h-1.708l13.486-18.082zm-8.284 4.012c0-.57-.061-1.053-.181-1.45-.121-.397-.287-.723-.499-.977s-.457-.438-.738-.55c-.28-.112-.58-.168-.899-.168s-.619.056-.899.168c-.28.112-.524.296-.731.55s-.369.58-.485.977c-.116.397-.174.88-.174 1.45 0 .561.058 1.038.174 1.43.117.393.278.712.485.958.207.246.451.423.731.531s.58.162.899.162.619-.054.899-.162c.281-.108.526-.285.738-.531.211-.246.377-.565.499-.958.12-.392.181-.868.181-1.43zm12.05 9.695c0 .725-.112 1.372-.336 1.941-.225.569-.524 1.05-.899 1.443s-.812.692-1.308.899c-.496.208-1.016.311-1.56.311-.587 0-1.128-.104-1.624-.311-.497-.207-.93-.506-1.301-.899-.371-.393-.66-.874-.867-1.443-.207-.57-.311-1.217-.311-1.941 0-.742.104-1.404.311-1.987s.496-1.072.867-1.469c.371-.396.804-.699 1.301-.906.496-.207 1.037-.311 1.624-.311.578 0 1.118.104 1.618.311.5.207.936.509 1.307.906.371.397.66.887.867 1.469s.311 1.245.311 1.987zm-1.786 0c0-.57-.061-1.055-.181-1.456-.121-.401-.287-.727-.498-.978-.212-.25-.458-.431-.738-.543-.281-.112-.581-.168-.9-.168s-.619.057-.899.168c-.28.112-.524.293-.731.543-.207.25-.369.576-.485.978-.116.401-.174.886-.174 1.456 0 .561.058 1.035.174 1.423.117.389.278.706.485.952.208.246.451.423.731.53.28.108.58.162.899.162s.619-.054.9-.162c.28-.107.526-.285.738-.53.211-.246.377-.563.498-.952.12-.388.181-.862.181-1.423z"/></g><g fill="#fff"><path d="M128.31 285.31h3.986v-12.646c0-.38.013-.764.039-1.152l-3.313 2.835c-.086.069-.172.118-.259.148l-.246.046c-.129 0-.246-.028-.35-.085-.104-.056-.181-.122-.233-.2l-.725-.997 5.514-4.775h1.877v16.826h3.65v1.76h-9.94v-1.76zM148.759 273c0 .726-.112 1.375-.337 1.948-.224.574-.524 1.057-.899 1.449-.375.394-.813.693-1.313.9-.5.207-1.022.311-1.566.311-.587 0-1.128-.104-1.624-.311-.497-.207-.93-.507-1.301-.9-.371-.393-.66-.875-.867-1.449-.207-.573-.311-1.223-.311-1.948 0-.741.104-1.401.311-1.979s.496-1.066.867-1.463c.371-.396.804-.699 1.301-.906.496-.207 1.037-.311 1.624-.311.578 0 1.12.104 1.625.311s.94.51 1.307.906.656.885.867 1.463.316 1.238.316 1.979zm6.485-4.012c.112-.146.23-.261.356-.343.125-.082.291-.123.498-.123h1.657l-13.551 18.172c-.086.112-.19.202-.311.271s-.263.104-.427.104h-1.708l13.486-18.081zm-8.284 4.012c0-.569-.061-1.052-.181-1.449-.121-.396-.287-.723-.499-.978-.211-.254-.457-.438-.738-.55-.28-.112-.58-.168-.899-.168s-.619.056-.899.168-.524.296-.731.55c-.207.255-.369.581-.485.978-.116.397-.174.88-.174 1.449 0 .562.058 1.038.174 1.431.117.393.278.712.485.958.207.245.451.423.731.53.28.108.58.162.899.162s.619-.054.899-.162c.281-.107.526-.285.738-.53.211-.246.377-.565.499-.958.12-.393.181-.869.181-1.431zm12.05 9.694c0 .726-.112 1.372-.336 1.941-.225.569-.524 1.051-.899 1.443-.375.393-.812.692-1.308.899s-1.016.311-1.56.311c-.587 0-1.128-.104-1.624-.311-.497-.207-.93-.507-1.301-.899-.371-.393-.66-.874-.867-1.443s-.311-1.216-.311-1.941c0-.741.104-1.404.311-1.986.207-.583.496-1.072.867-1.469s.804-.699 1.301-.906c.496-.207 1.037-.311 1.624-.311.578 0 1.118.104 1.618.311.5.207.936.509 1.307.906.371.396.66.886.867 1.469.207.582.311 1.245.311 1.986zm-1.786 0c0-.569-.061-1.055-.181-1.456-.121-.401-.287-.727-.498-.977-.212-.251-.458-.432-.738-.544-.281-.112-.581-.168-.9-.168s-.619.056-.899.168-.524.293-.731.544c-.207.25-.369.575-.485.977-.116.401-.174.887-.174 1.456 0 .562.058 1.036.174 1.424.117.389.278.706.485.951.208.246.451.423.731.531.28.107.58.161.899.161s.619-.054.9-.161c.28-.108.526-.285.738-.531.211-.245.377-.562.498-.951.12-.388.181-.862.181-1.424z"/></g><g fill="#fff"><path d="M108.494 407.587c0 .328-.104.598-.311.81-.207.211-.557.317-1.048.317h-5.825l-.854 4.866c.966-.207 1.859-.311 2.679-.311.966 0 1.818.143 2.556.427.738.285 1.357.678 1.857 1.178.5.501.878 1.092 1.132 1.773s.382 1.424.382 2.227c0 .983-.172 1.872-.518 2.666s-.818 1.474-1.417 2.038c-.6.565-1.305.999-2.116 1.301-.812.302-1.688.453-2.627.453-.544 0-1.066-.054-1.566-.162-.5-.107-.966-.252-1.398-.434-.431-.181-.833-.388-1.204-.621-.371-.232-.699-.479-.983-.737l.699-.983c.155-.225.362-.337.621-.337.164 0 .356.066.576.2s.485.283.796.447.675.312 1.094.446.917.2 1.495.2c.647 0 1.229-.104 1.747-.311s.96-.502 1.327-.887c.367-.384.649-.843.848-1.378.199-.535.298-1.135.298-1.799 0-.578-.084-1.101-.252-1.566s-.423-.863-.764-1.19c-.341-.328-.766-.583-1.275-.764-.509-.182-1.104-.272-1.786-.272-.466 0-.949.039-1.45.117-.5.077-1.018.202-1.553.375l-1.45-.427 1.501-8.672h8.788v1.01zM120 411.056c0 .726-.112 1.375-.337 1.948-.224.574-.524 1.057-.899 1.449-.375.394-.813.693-1.313.9-.5.207-1.022.311-1.566.311-.587 0-1.128-.104-1.624-.311-.497-.207-.93-.507-1.301-.9-.371-.393-.66-.875-.867-1.449-.207-.573-.311-1.223-.311-1.948 0-.741.104-1.401.311-1.979s.496-1.066.867-1.463c.371-.396.804-.699 1.301-.906.496-.207 1.037-.311 1.624-.311.578 0 1.12.104 1.625.311s.94.51 1.307.906.656.885.867 1.463.316 1.237.316 1.979zm6.484-4.012c.112-.146.23-.261.356-.343.125-.082.291-.123.498-.123h1.657l-13.551 18.172c-.086.112-.19.202-.311.271s-.263.104-.427.104h-1.708l13.486-18.081zm-8.284 4.012c0-.569-.061-1.052-.181-1.449-.121-.396-.287-.723-.499-.978-.211-.254-.457-.438-.738-.55-.28-.112-.58-.168-.899-.168s-.619.056-.899.168-.524.296-.731.55c-.207.255-.369.581-.485.978-.116.397-.174.88-.174 1.449 0 .562.058 1.038.174 1.431.117.393.278.712.485.958.207.245.451.423.731.53.28.108.58.162.899.162s.619-.054.899-.162c.281-.107.526-.285.738-.53.211-.246.377-.565.499-.958.121-.393.181-.87.181-1.431zm12.05 9.694c0 .726-.112 1.372-.336 1.941-.225.569-.524 1.051-.899 1.443-.375.393-.812.692-1.308.899s-1.016.311-1.56.311c-.587 0-1.128-.104-1.624-.311-.497-.207-.93-.507-1.301-.899-.371-.393-.66-.874-.867-1.443s-.311-1.216-.311-1.941c0-.741.104-1.404.311-1.986.207-.583.496-1.072.867-1.469s.804-.699 1.301-.906c.496-.207 1.037-.311 1.624-.311.578 0 1.118.104 1.618.311.5.207.936.509 1.307.906.371.396.66.886.867 1.469.207.582.311 1.245.311 1.986zm-1.786 0c0-.569-.061-1.055-.181-1.456-.121-.401-.287-.727-.498-.977-.212-.251-.458-.432-.738-.544-.281-.112-.581-.168-.9-.168s-.619.056-.899.168-.524.293-.731.544c-.207.25-.369.575-.485.977-.116.401-.174.887-.174 1.456 0 .562.058 1.036.174 1.424.117.389.278.706.485.951.208.246.451.423.731.531.28.107.58.161.899.161s.619-.054.9-.161c.28-.108.526-.285.738-.531.211-.245.377-.562.498-.951.12-.388.181-.862.181-1.424z"/></g><g fill="#fff"><path d="M281.472 363.687h3.986v-12.646c0-.38.013-.764.039-1.152l-3.313 2.835c-.086.069-.172.118-.259.148l-.246.046c-.129 0-.246-.028-.35-.085-.104-.056-.181-.122-.233-.2l-.725-.997 5.514-4.775h1.877v16.826h3.65v1.76h-9.94v-1.76zM300.795 346.692c.785 0 1.51.112 2.175.336.664.225 1.236.544 1.715.958s.852.915 1.12 1.501c.267.587.401 1.238.401 1.955 0 .587-.076 1.11-.227 1.572s-.367.867-.647 1.217-.619.645-1.016.887c-.397.241-.841.436-1.333.582 1.208.319 2.116.854 2.725 1.605.608.75.913 1.69.913 2.821 0 .854-.162 1.622-.485 2.304-.324.682-.766 1.262-1.327 1.741-.561.479-1.215.846-1.961 1.1-.747.255-1.547.382-2.401.382-.984 0-1.825-.123-2.524-.369-.699-.245-1.29-.584-1.773-1.016s-.88-.942-1.19-1.534c-.311-.591-.574-1.231-.79-1.922l.983-.414c.181-.077.363-.116.544-.116.172 0 .325.037.459.109.133.074.235.188.304.344l.052.109.052.123c.121.251.267.533.44.848.172.315.405.611.699.887.293.276.658.51 1.094.699s.977.285 1.625.285c.647 0 1.214-.106 1.702-.317.488-.212.893-.485 1.217-.822.324-.336.567-.712.731-1.126.164-.414.246-.824.246-1.229 0-.5-.067-.958-.201-1.372s-.375-.771-.725-1.074c-.35-.302-.833-.539-1.45-.712-.617-.172-1.409-.259-2.375-.259v-1.683c.785 0 1.456-.082 2.013-.246.557-.163 1.012-.388 1.366-.673.354-.284.61-.625.77-1.022.16-.396.239-.837.239-1.32 0-.534-.084-1.001-.252-1.397-.168-.396-.399-.725-.692-.983s-.641-.453-1.042-.583c-.401-.129-.834-.194-1.301-.194-.466 0-.897.069-1.294.207-.397.138-.749.33-1.055.575-.306.246-.563.539-.77.88s-.362.709-.466 1.105c-.069.25-.173.431-.311.543-.138.112-.315.168-.531.168l-.136-.007-.162-.019-1.204-.204c.121-.846.354-1.594.699-2.245s.783-1.197 1.314-1.638 1.139-.774 1.825-1.003c.684-.229 1.424-.344 2.218-.344zM316.935 351.377c0 .726-.112 1.375-.337 1.948-.224.574-.524 1.057-.899 1.449-.375.394-.813.693-1.313.9-.5.207-1.022.311-1.566.311-.587 0-1.128-.104-1.624-.311-.497-.207-.93-.507-1.301-.9-.371-.393-.66-.875-.867-1.449-.207-.573-.311-1.223-.311-1.948 0-.741.104-1.401.311-1.979s.496-1.066.867-1.463c.371-.396.804-.699 1.301-.906.496-.207 1.037-.311 1.624-.311.578 0 1.12.104 1.625.311s.94.51 1.307.906.656.885.867 1.463.316 1.238.316 1.979zm6.484-4.012c.112-.146.23-.261.356-.343.125-.082.291-.123.498-.123h1.657l-13.551 18.172c-.086.112-.19.202-.311.271s-.263.104-.427.104h-1.708l13.486-18.081zm-8.284 4.012c0-.569-.061-1.052-.181-1.449-.121-.396-.287-.723-.499-.978-.211-.254-.457-.438-.738-.55-.28-.112-.58-.168-.899-.168s-.619.056-.899.168-.524.296-.731.55c-.207.255-.369.581-.485.978-.116.397-.174.88-.174 1.449 0 .562.058 1.038.174 1.431.117.393.278.712.485.958.207.245.451.423.731.53.28.108.58.162.899.162s.619-.054.899-.162c.281-.107.526-.285.738-.53.211-.246.377-.565.499-.958.121-.393.181-.87.181-1.431zm12.05 9.694c0 .726-.112 1.372-.336 1.941-.225.569-.524 1.051-.899 1.443-.375.393-.812.692-1.308.899s-1.016.311-1.56.311c-.587 0-1.128-.104-1.624-.311-.497-.207-.93-.507-1.301-.899-.371-.393-.66-.874-.867-1.443s-.311-1.216-.311-1.941c0-.741.104-1.404.311-1.986.207-.583.496-1.072.867-1.469s.804-.699 1.301-.906c.496-.207 1.037-.311 1.624-.311.578 0 1.118.104 1.618.311.5.207.936.509 1.307.906.371.396.66.886.867 1.469.208.582.311 1.245.311 1.986zm-1.786 0c0-.569-.061-1.055-.181-1.456-.121-.401-.287-.727-.498-.977-.212-.251-.458-.432-.738-.544-.281-.112-.581-.168-.9-.168s-.619.056-.899.168-.524.293-.731.544c-.207.25-.369.575-.485.977-.116.401-.174.887-.174 1.456 0 .562.058 1.036.174 1.424.117.389.278.706.485.951.208.246.451.423.731.531.28.107.58.161.899.161s.619-.054.9-.161c.28-.108.526-.285.738-.531.211-.245.377-.562.498-.951.12-.388.181-.862.181-1.424z"/></g><g fill="#fff"><path d="M411.617 242.165h3.986v-12.645c0-.38.014-.764.039-1.152l-3.312 2.835c-.088.069-.174.118-.26.148l-.246.046c-.129 0-.246-.028-.35-.084-.104-.057-.182-.123-.232-.201l-.725-.997 5.514-4.776h1.877v16.826h3.648v1.76h-9.939v-1.76zM430.941 225.17c.785 0 1.51.112 2.174.336.664.225 1.236.544 1.715.958s.852.915 1.119 1.501.402 1.238.402 1.954c0 .587-.076 1.111-.227 1.573s-.367.867-.646 1.217c-.281.35-.621.645-1.018.887-.396.241-.84.436-1.332.582 1.207.319 2.115.854 2.725 1.605.607.75.912 1.69.912 2.821 0 .854-.162 1.622-.486 2.304-.322.682-.766 1.262-1.326 1.741-.561.479-1.215.846-1.961 1.1-.746.255-1.547.382-2.4.382-.984 0-1.824-.123-2.523-.369-.699-.245-1.291-.584-1.773-1.016-.484-.432-.881-.942-1.191-1.534-.311-.591-.574-1.231-.789-1.922l.984-.414c.18-.077.361-.116.543-.116.172 0 .326.037.459.109.135.074.234.188.305.344l.051.109.053.123c.121.251.268.533.439.848.174.315.406.611.699.887.293.276.658.51 1.094.699s.977.285 1.625.285c.646 0 1.213-.106 1.701-.317.488-.212.893-.485 1.217-.822.324-.336.566-.712.73-1.126s.246-.824.246-1.229c0-.5-.066-.958-.199-1.372-.135-.414-.377-.771-.725-1.074-.35-.302-.834-.539-1.451-.712-.617-.172-1.408-.259-2.375-.259v-1.683c.785 0 1.457-.082 2.014-.246.557-.163 1.012-.388 1.365-.673.354-.284.609-.625.77-1.022.16-.396.24-.837.24-1.32 0-.535-.084-1.001-.252-1.398-.17-.397-.4-.725-.693-.984s-.641-.453-1.041-.583c-.402-.129-.836-.194-1.301-.194-.467 0-.898.069-1.295.207-.396.138-.748.33-1.055.575s-.562.539-.77.879c-.207.34-.363.709-.467 1.105-.068.25-.172.431-.311.543-.139.112-.314.168-.531.168l-.135-.006-.162-.019-1.203-.204c.119-.846.354-1.594.697-2.246.346-.651.783-1.197 1.314-1.637s1.139-.774 1.824-1.003c.688-.227 1.426-.342 2.221-.342zM447.08 229.856c0 .725-.111 1.375-.336 1.948-.225.574-.523 1.057-.898 1.449-.377.394-.814.693-1.314.9s-1.023.311-1.566.311c-.586 0-1.129-.104-1.625-.311s-.93-.507-1.301-.9c-.371-.393-.66-.875-.867-1.449-.207-.573-.311-1.223-.311-1.948 0-.742.104-1.402.311-1.98.207-.578.496-1.065.867-1.462s.805-.699 1.301-.906c.496-.207 1.039-.311 1.625-.311.578 0 1.119.104 1.625.311.504.208.939.509 1.307.906s.656.885.867 1.462c.21.578.315 1.238.315 1.98zm6.484-4.012c.113-.147.232-.261.357-.343s.291-.123.498-.123h1.656l-13.551 18.172c-.086.112-.189.202-.311.271s-.264.104-.428.104h-1.709l13.488-18.081zm-8.283 4.012c0-.57-.061-1.053-.182-1.45-.119-.397-.285-.723-.498-.977-.211-.254-.457-.438-.736-.55-.281-.112-.582-.168-.9-.168s-.619.056-.898.168c-.281.112-.525.296-.732.55s-.369.58-.484.977c-.117.397-.176.88-.176 1.45 0 .561.059 1.038.176 1.43.115.393.277.712.484.958.207.245.451.423.732.53.279.108.58.162.898.162s.619-.054.9-.162c.279-.107.525-.285.736-.53.213-.246.379-.565.498-.958.122-.392.182-.869.182-1.43zm12.051 9.694c0 .726-.113 1.372-.338 1.941-.223.569-.523 1.051-.898 1.443s-.811.692-1.307.899-1.018.311-1.561.311c-.586 0-1.129-.104-1.625-.311s-.93-.507-1.301-.899-.66-.874-.867-1.443-.311-1.216-.311-1.941c0-.741.104-1.404.311-1.986.207-.583.496-1.072.867-1.469s.805-.699 1.301-.906 1.039-.311 1.625-.311c.578 0 1.117.104 1.617.311.502.207.938.509 1.309.906.371.396.66.886.867 1.469.208.582.311 1.245.311 1.986zm-1.787 0c0-.569-.061-1.055-.18-1.456-.121-.401-.287-.727-.5-.977-.211-.251-.457-.432-.736-.544-.281-.112-.582-.168-.9-.168s-.619.056-.898.168c-.281.112-.525.293-.732.544-.207.25-.369.575-.484.977-.117.401-.176.887-.176 1.456 0 .562.059 1.036.176 1.424.115.389.277.706.484.951.207.246.451.423.732.531.279.107.58.161.898.161s.619-.054.9-.161c.279-.108.525-.285.736-.531.213-.245.379-.562.5-.951.119-.388.18-.863.18-1.424z"/></g><g fill="#fff"><path d="M282.224 239.479h3.986v-12.646c0-.38.013-.764.039-1.152l-3.313 2.835c-.086.069-.172.119-.259.148l-.246.045c-.129 0-.246-.028-.35-.084s-.181-.123-.233-.201l-.725-.997 5.514-4.776h1.877v16.826h3.65v1.76h-9.94v-1.758zM305.21 234.548h2.809v1.32c0 .138-.041.255-.123.35s-.209.142-.382.142h-2.304v4.88h-2.032v-4.88h-8.219c-.172 0-.321-.049-.446-.148-.125-.099-.205-.222-.24-.369l-.233-1.178 9.021-11.972h2.148v11.855zm-2.032-7.65c0-.224.007-.466.02-.725.013-.259.041-.526.084-.803l-6.743 9.177h6.64v-7.649zM317.687 227.17c0 .725-.112 1.374-.337 1.948-.224.574-.524 1.057-.899 1.45s-.813.693-1.313.9c-.5.207-1.022.311-1.566.311-.587 0-1.128-.104-1.624-.311-.497-.207-.93-.507-1.301-.9-.371-.393-.66-.875-.867-1.45-.207-.574-.311-1.223-.311-1.948 0-.742.104-1.402.311-1.98.207-.578.496-1.065.867-1.462s.804-.699 1.301-.906c.496-.207 1.037-.311 1.624-.311.578 0 1.12.104 1.625.311.505.208.94.509 1.307.906s.656.885.867 1.462c.21.578.316 1.238.316 1.98zm6.484-4.012c.112-.147.23-.261.356-.343.125-.082.291-.123.498-.123h1.657l-13.551 18.172c-.086.112-.19.202-.311.271s-.263.104-.427.104h-1.708l13.486-18.081zm-8.284 4.012c0-.57-.061-1.053-.181-1.45-.121-.397-.287-.723-.499-.977s-.457-.438-.738-.55c-.28-.112-.58-.168-.899-.168s-.619.056-.899.168c-.28.112-.524.296-.731.55s-.369.58-.485.977c-.116.397-.174.88-.174 1.45 0 .561.058 1.038.174 1.43.117.393.278.712.485.958.207.246.451.423.731.531s.58.162.899.162.619-.054.899-.162c.281-.108.526-.285.738-.531.211-.246.377-.565.499-.958.121-.392.181-.869.181-1.43zm12.05 9.694c0 .726-.112 1.372-.336 1.941-.225.569-.524 1.051-.899 1.443-.375.393-.812.692-1.308.899s-1.016.311-1.56.311c-.587 0-1.128-.104-1.624-.311-.497-.207-.93-.507-1.301-.899-.371-.393-.66-.874-.867-1.443s-.311-1.216-.311-1.941c0-.741.104-1.404.311-1.986.207-.583.496-1.072.867-1.469s.804-.699 1.301-.906c.496-.207 1.037-.311 1.624-.311.578 0 1.118.104 1.618.311.5.207.936.509 1.307.906.371.396.66.886.867 1.469.207.582.311 1.245.311 1.986zm-1.786 0c0-.569-.061-1.055-.181-1.456-.121-.401-.287-.727-.498-.977-.212-.251-.458-.432-.738-.544-.281-.112-.581-.168-.9-.168s-.619.056-.899.168-.524.293-.731.544c-.207.25-.369.575-.485.977-.116.401-.174.887-.174 1.456 0 .562.058 1.036.174 1.424.117.389.278.706.485.951.208.246.451.423.731.531.28.107.58.161.899.161s.619-.054.9-.161c.28-.108.526-.285.738-.531.211-.245.377-.562.498-.951.12-.388.181-.862.181-1.424z"/></g><g fill="#fff"><path d="M412.584 144.844v1.036c0 .293-.031.535-.098.725-.064.19-.131.35-.199.479l-7.676 15.493c-.111.225-.268.417-.465.576-.199.16-.467.239-.803.239h-1.645l7.791-15.298c.113-.216.227-.415.344-.596s.248-.354.395-.518h-9.682c-.146 0-.277-.058-.395-.175-.115-.116-.174-.248-.174-.395v-1.566h12.607zM422.719 149.322c0 .725-.113 1.374-.336 1.948-.225.574-.525 1.057-.9 1.45s-.812.692-1.314.899c-.5.207-1.021.311-1.564.311-.588 0-1.129-.104-1.625-.311s-.93-.507-1.301-.899-.66-.875-.867-1.45c-.207-.574-.311-1.223-.311-1.948 0-.742.104-1.402.311-1.98.207-.578.496-1.065.867-1.462s.805-.699 1.301-.906c.496-.207 1.037-.311 1.625-.311.576 0 1.119.104 1.623.311.506.208.941.509 1.309.906.365.397.654.885.867 1.462.209.578.315 1.238.315 1.98zm6.484-4.012c.111-.147.23-.261.355-.343s.291-.123.498-.123h1.656l-13.551 18.172c-.086.112-.189.203-.311.272-.121.069-.264.104-.426.104h-1.709l13.488-18.082zm-8.283 4.012c0-.57-.061-1.053-.182-1.45s-.287-.723-.498-.977-.457-.438-.738-.55c-.279-.112-.58-.168-.898-.168-.32 0-.619.056-.9.168-.281.112-.523.296-.73.55s-.369.58-.486.977-.174.88-.174 1.45c0 .561.057 1.038.174 1.43s.279.712.486.958c.207.246.449.423.73.531s.58.162.9.162c.318 0 .619-.054.898-.162.281-.108.527-.285.738-.531.211-.246.377-.565.498-.958s.182-.869.182-1.43zm12.049 9.695c0 .725-.111 1.372-.336 1.941-.225.569-.523 1.05-.9 1.443-.375.393-.811.692-1.307.899-.496.208-1.016.311-1.559.311-.588 0-1.129-.104-1.625-.311-.496-.207-.93-.506-1.301-.899-.371-.393-.66-.874-.867-1.443-.207-.57-.311-1.217-.311-1.941 0-.742.104-1.404.311-1.987s.496-1.072.867-1.469c.371-.396.805-.699 1.301-.906s1.037-.311 1.625-.311c.578 0 1.117.104 1.617.311s.936.509 1.307.906c.371.397.66.887.867 1.469s.311 1.244.311 1.987zm-1.785 0c0-.57-.061-1.055-.182-1.456s-.287-.727-.498-.978c-.211-.25-.457-.431-.738-.543-.279-.112-.58-.168-.898-.168-.32 0-.619.057-.9.168-.281.112-.523.293-.73.543-.207.25-.369.576-.486.978-.117.401-.174.886-.174 1.456 0 .561.057 1.035.174 1.423.117.389.279.706.486.952.207.246.449.423.73.53.281.108.58.162.9.162.318 0 .619-.054.898-.162.281-.107.527-.285.738-.53.211-.246.377-.563.498-.952.121-.388.182-.862.182-1.423z"/></g><g fill="#fff"><path d="M345.428 146.648c.431 0 .828.062 1.192.185s.678.298.94.525c.262.227.467.501.614.823.146.322.22.679.22 1.071 0 .322-.042.609-.124.862-.083.253-.201.475-.355.667-.154.191-.339.354-.557.486-.218.132-.461.239-.731.319.662.175 1.16.468 1.494.88s.5.927.5 1.547c0 .468-.089.889-.266 1.263-.177.374-.42.692-.727.955-.308.262-.666.463-1.075.603-.409.139-.848.209-1.316.209-.539 0-1-.067-1.384-.202-.383-.135-.707-.32-.972-.557-.265-.237-.483-.517-.653-.841-.17-.324-.315-.675-.433-1.054l.54-.227c.099-.042.199-.064.298-.064.095 0 .179.02.252.061.073.04.129.103.167.188l.028.06.029.067.241.465c.094.173.222.334.383.486.161.152.361.279.6.383s.536.156.891.156c.354 0 .666-.058.933-.174.267-.116.489-.266.667-.451.177-.185.311-.39.401-.617.089-.227.135-.452.135-.674 0-.274-.037-.525-.11-.752s-.206-.423-.397-.589c-.192-.166-.457-.295-.795-.39s-.772-.142-1.302-.142v-.922c.43 0 .798-.045 1.103-.135s.555-.213.749-.369c.194-.156.335-.343.422-.561.087-.217.131-.458.131-.724 0-.293-.046-.549-.139-.766-.092-.218-.219-.397-.379-.54-.161-.142-.351-.248-.571-.319-.22-.071-.458-.106-.713-.106s-.492.038-.709.113c-.218.076-.411.181-.578.315-.168.135-.309.295-.422.482-.114.187-.199.389-.255.606-.038.137-.095.236-.17.298-.076.061-.173.092-.291.092l-.074-.003-.089-.01-.66-.112c.066-.463.194-.874.383-1.231.189-.357.43-.656.72-.898.291-.241.625-.424 1-.55.373-.124.779-.187 1.214-.187zM353.367 157.042c-.506 0-.97-.067-1.391-.202s-.783-.327-1.085-.578c-.303-.25-.537-.555-.702-.912-.166-.357-.249-.758-.249-1.203 0-.653.17-1.191.511-1.614.341-.423.828-.725 1.462-.905-.535-.199-.938-.496-1.21-.891s-.408-.867-.408-1.416c0-.374.073-.724.22-1.05.146-.327.355-.61.625-.852s.592-.43.968-.567.796-.206 1.259-.206c.459 0 .877.069 1.256.206s.703.326.972.567.478.525.625.852c.146.326.22.676.22 1.05 0 .549-.137 1.021-.411 1.416-.274.395-.677.692-1.207.891.634.18 1.121.481 1.462.905.34.423.511.961.511 1.614 0 .444-.084.845-.252 1.203-.168.357-.402.661-.703.912-.3.251-.661.443-1.082.578-.421.135-.884.202-1.391.202zm0-1.007c.331 0 .628-.046.891-.138s.485-.223.667-.391c.182-.167.322-.369.418-.603.097-.234.146-.493.146-.777 0-.35-.058-.649-.174-.897s-.272-.451-.468-.606c-.196-.156-.422-.271-.678-.344-.255-.073-.522-.11-.802-.11-.279 0-.546.037-.802.11-.255.073-.481.188-.677.344-.196.156-.353.358-.468.606-.116.249-.174.547-.174.897 0 .284.048.543.146.777.097.234.236.436.418.603.182.168.404.298.667.391.262.092.559.138.89.138zm0-4.881c.331 0 .614-.051.848-.153.234-.102.424-.236.571-.404.146-.168.253-.361.319-.578.066-.218.099-.442.099-.674 0-.236-.039-.458-.117-.667-.078-.208-.194-.39-.348-.546-.154-.156-.345-.279-.575-.369s-.496-.135-.798-.135-.569.045-.798.135c-.229.09-.421.213-.575.369-.154.156-.27.338-.348.546-.078.208-.117.431-.117.667 0 .232.033.457.099.674.066.217.173.41.319.578s.337.303.571.404c.236.102.519.153.85.153zM362.506 149.217c0 .397-.062.753-.184 1.067-.123.315-.288.58-.494.795-.205.215-.445.379-.72.493-.274.113-.561.17-.858.17-.322 0-.619-.057-.891-.17-.272-.114-.51-.278-.713-.493-.204-.215-.362-.48-.476-.795-.114-.314-.17-.67-.17-1.067 0-.407.057-.769.17-1.086.113-.317.272-.584.476-.802.203-.217.441-.383.713-.497.272-.113.569-.17.891-.17.316 0 .613.057.891.17.276.114.516.279.717.497.2.218.359.485.475.802.115.317.173.679.173 1.086zm3.555-2.2c.062-.081.127-.143.195-.188s.16-.067.273-.067h.908l-7.429 9.962-.17.149c-.066.038-.145.057-.234.057h-.937l7.394-9.913zm-4.541 2.2c0-.312-.033-.577-.1-.795-.066-.217-.156-.396-.272-.536s-.251-.24-.405-.302c-.153-.061-.318-.092-.493-.092s-.34.031-.493.092c-.154.062-.288.162-.401.302-.114.14-.202.318-.266.536-.064.218-.096.482-.096.795 0 .307.032.569.096.784.064.215.152.39.266.525.113.135.247.231.401.291.153.06.318.089.493.089s.339-.029.493-.089c.154-.059.289-.156.405-.291.116-.135.206-.31.272-.525.066-.215.1-.477.1-.784zm6.605 5.314c0 .397-.061.752-.184 1.064-.123.312-.287.576-.494.791-.205.215-.443.38-.717.493-.271.114-.557.17-.854.17-.322 0-.619-.057-.891-.17-.272-.113-.51-.278-.713-.493-.204-.215-.362-.479-.477-.791-.113-.312-.17-.667-.17-1.064 0-.407.057-.77.17-1.089.114-.319.272-.588.477-.805.203-.218.44-.383.713-.497.271-.113.568-.17.891-.17.316 0 .611.057.887.17.273.114.512.279.717.497.203.217.361.486.475.805s.17.682.17 1.089zm-.979 0c0-.312-.033-.578-.1-.798-.066-.22-.156-.398-.273-.536-.115-.137-.25-.237-.404-.298s-.318-.092-.492-.092c-.176 0-.34.031-.494.092s-.287.161-.4.298-.202.315-.266.536c-.064.22-.096.486-.096.798 0 .308.031.568.096.781.063.213.152.387.266.521s.246.232.4.291.318.088.494.088c.174 0 .338-.029.492-.088s.289-.156.404-.291c.117-.135.207-.309.273-.521s.1-.474.1-.781z"/></g><g fill="#fff"><path d="M582.438 32.729c2.062 0 3.924.294 5.584.881 1.658.588 3.076 1.403 4.252 2.444 1.176 1.042 2.078 2.263 2.707 3.665.629 1.403.943 2.918.943 4.547 0 1.423-.16 2.676-.48 3.758s-.783 2.026-1.391 2.83c-.609.804-1.352 1.485-2.229 2.042-.875.557-1.871 1.021-2.984 1.392 2.68.846 4.682 2.134 6 3.866 1.32 1.732 1.98 3.908 1.98 6.527 0 2.227-.412 4.196-1.236 5.908-.826 1.712-1.939 3.15-3.342 4.315-1.402 1.166-3.025 2.047-4.871 2.645-1.846.598-3.799.897-5.861.897-2.248 0-4.207-.258-5.877-.773s-3.123-1.278-4.361-2.289c-1.236-1.01-2.289-2.247-3.154-3.712-.867-1.464-1.609-3.155-2.227-5.073l3.371-1.392c.576-.248 1.164-.371 1.762-.371.537 0 1.016.113 1.439.34.422.228.746.557.975.99.371.722.777 1.433 1.221 2.134s.975 1.325 1.594 1.871c.617.547 1.346.99 2.18 1.33.836.34 1.83.51 2.984.51 1.301 0 2.434-.211 3.402-.634.971-.422 1.779-.975 2.43-1.655.648-.681 1.133-1.438 1.453-2.274.318-.835.479-1.675.479-2.521 0-1.072-.113-2.046-.34-2.923-.227-.876-.701-1.624-1.422-2.242-.723-.619-1.76-1.103-3.109-1.454-1.35-.35-3.16-.526-5.428-.526v-5.475c1.875 0 3.434-.165 4.67-.495 1.238-.33 2.223-.789 2.955-1.376.73-.587 1.24-1.293 1.529-2.119.289-.825.434-1.732.434-2.722 0-2.124-.578-3.727-1.732-4.81s-2.732-1.624-4.732-1.624c-1.814 0-3.32.479-4.516 1.437s-2.031 2.188-2.506 3.691c-.246.783-.586 1.345-1.02 1.684-.434.34-1 .51-1.701.51-.33 0-.682-.031-1.053-.091l-4.02-.701c.309-2.145.906-4.027 1.793-5.646.887-1.619 1.996-2.97 3.326-4.053 1.33-1.083 2.855-1.897 4.576-2.444 1.722-.546 3.572-.819 5.553-.819zM616.924 78.445c-2.309 0-4.418-.31-6.324-.928-1.908-.619-3.541-1.495-4.902-2.629s-2.418-2.506-3.17-4.114c-.754-1.608-1.131-3.402-1.131-5.382 0-2.639.65-4.872 1.949-6.697 1.299-1.825 3.32-3.181 6.062-4.067-2.186-.907-3.82-2.196-4.902-3.867-1.082-1.67-1.623-3.681-1.623-6.031 0-1.691.344-3.268 1.035-4.733.691-1.464 1.654-2.737 2.893-3.82 1.236-1.083 2.717-1.928 4.438-2.537 1.723-.608 3.615-.912 5.676-.912 2.062 0 3.955.304 5.676.912 1.723.609 3.201 1.454 4.439 2.537 1.236 1.083 2.201 2.356 2.893 3.82.689 1.465 1.035 3.042 1.035 4.733 0 2.351-.547 4.361-1.639 6.031-1.094 1.67-2.723 2.959-4.887 3.867 2.742.887 4.762 2.243 6.062 4.067 1.299 1.825 1.947 4.058 1.947 6.697 0 1.979-.375 3.773-1.129 5.382-.752 1.608-1.809 2.98-3.17 4.114s-2.996 2.01-4.902 2.629c-1.908.619-4.016.928-6.326.928zm0-5.97c1.258 0 2.361-.18 3.311-.541.947-.361 1.748-.861 2.396-1.5.65-.639 1.139-1.402 1.469-2.289s.496-1.845.496-2.877c0-2.454-.682-4.31-2.041-5.567-1.361-1.258-3.238-1.887-5.631-1.887-2.391 0-4.268.629-5.629 1.887s-2.041 3.114-2.041 5.567c0 1.032.164 1.99.494 2.877s.82 1.65 1.471 2.289c.648.639 1.447 1.139 2.396 1.5.947.361 2.051.541 3.309.541zm0-20.662c1.238 0 2.279-.196 3.125-.587s1.525-.913 2.041-1.562c.516-.65.881-1.392 1.098-2.227.217-.835.326-1.696.326-2.583 0-.845-.135-1.649-.402-2.413-.27-.763-.672-1.438-1.207-2.026-.537-.588-1.217-1.057-2.041-1.408-.826-.35-1.805-.526-2.939-.526-1.133 0-2.113.176-2.938.526-.824.351-1.512.82-2.057 1.408-.547.587-.949 1.263-1.207 2.026-.258.763-.387 1.567-.387 2.413 0 .887.109 1.748.326 2.583.215.835.582 1.577 1.098 2.227.514.649 1.195 1.17 2.041 1.562s1.887.587 3.123.587zM656.203 44.049c0 1.691-.283 3.217-.85 4.578-.568 1.361-1.326 2.521-2.273 3.48-.949.959-2.053 1.696-3.311 2.211-1.258.516-2.566.773-3.928.773-1.484 0-2.857-.257-4.113-.773-1.26-.515-2.348-1.252-3.264-2.211-.918-.959-1.635-2.119-2.15-3.48-.516-1.361-.773-2.887-.773-4.578 0-1.732.258-3.299.773-4.702.516-1.402 1.232-2.587 2.15-3.557.916-.969 2.004-1.717 3.264-2.243 1.256-.525 2.629-.789 4.113-.789s2.861.263 4.129.789c1.268.526 2.365 1.274 3.295 2.243.928.97 1.648 2.155 2.164 3.557.516 1.403.774 2.97.774 4.702zm14.877-9.619c.248-.31.557-.588.928-.835s.887-.371 1.547-.371h5.537l-33.219 43.583c-.248.33-.562.603-.943.82-.383.216-.842.325-1.377.325h-5.691l33.218-43.522zm-20.785 9.619c0-1.196-.113-2.196-.34-3s-.541-1.454-.943-1.949c-.402-.495-.877-.851-1.422-1.067-.547-.217-1.129-.325-1.748-.325s-1.197.108-1.732.325c-.537.216-1 .572-1.393 1.067-.391.495-.695 1.145-.912 1.949s-.324 1.805-.324 3c0 1.155.107 2.119.324 2.892s.521 1.397.912 1.871c.393.475.855.815 1.393 1.021.535.207 1.113.309 1.732.309s1.201-.103 1.748-.309c.545-.206 1.02-.546 1.422-1.021.402-.474.717-1.098.943-1.871s.34-1.736.34-2.892zm31.148 23.385c0 1.691-.285 3.217-.852 4.578-.566 1.361-1.324 2.521-2.273 3.48s-2.053 1.701-3.309 2.227c-1.26.526-2.568.789-3.93.789-1.484 0-2.855-.263-4.113-.789s-2.346-1.268-3.264-2.227-1.635-2.119-2.148-3.48c-.516-1.361-.773-2.887-.773-4.578 0-1.732.258-3.299.773-4.702.514-1.402 1.23-2.587 2.148-3.557.918-.969 2.006-1.717 3.264-2.243s2.629-.789 4.113-.789 2.861.263 4.131.789c1.268.526 2.365 1.273 3.293 2.243.928.97 1.65 2.155 2.166 3.557.515 1.402.774 2.969.774 4.702zm-5.877 0c0-1.196-.119-2.196-.355-3-.238-.804-.559-1.454-.959-1.949-.402-.495-.877-.851-1.424-1.067-.547-.217-1.129-.325-1.748-.325-.617 0-1.195.108-1.73.325-.537.216-.996.572-1.377 1.067-.383.495-.686 1.145-.912 1.949-.229.804-.342 1.805-.342 3 0 1.155.113 2.124.342 2.907.227.784.529 1.413.912 1.887.381.475.84.814 1.377 1.021.535.207 1.113.31 1.73.31.619 0 1.201-.103 1.748-.31.547-.206 1.021-.546 1.424-1.021.4-.474.721-1.103.959-1.887.236-.783.355-1.753.355-2.907z"/></g><path fill="#fff" d="M551.936 108.296l-18.139-9.91 1.119 5.221c-57.895 13.99-111.51 31.516-169.494 35.488 58.248-2.262 115.148-9.205 173.305-17.731l1.217 5.679 11.992-18.747z"/><path fill="#CECECE" d="M574.365 87.53h110.916c11.42 0 20.676 10.199 20.676 22.797 0 .531-.025 1.068-.07 1.58-.74 11.872-9.674 21.231-20.605 21.231h-110.917c-10.939 0-19.889-9.359-20.607-21.231-.027-.512-.078-1.049-.078-1.58 0-12.598 9.258-22.797 20.685-22.797z"/><path fill="#ED1C24" d="M577.17 90.699h105.307c10.842 0 19.629 8.782 19.629 19.628 0 .458-.023.919-.068 1.36-.705 10.225-9.18 18.283-19.561 18.283h-105.307c-10.387 0-18.879-8.059-19.562-18.283-.023-.441-.076-.902-.076-1.36-.001-10.846 8.788-19.628 19.638-19.628z"/><path fill="#CECECE" d="M667.145 110.327c0 8.563 6.951 15.495 15.506 15.495 8.557 0 15.498-6.932 15.498-15.495 0-8.559-6.941-15.497-15.498-15.497-8.555 0-15.506 6.939-15.506 15.497z"/><path fill-rule="evenodd" clip-rule="evenodd" fill="#AE1F24" d="M682.262 122.989c-.988-1.981-1.912-3.998-2.99-5.929-.49-.881-1.152-1.771-1.953-2.354-3.305-2.403-4.77-6.523-3.551-10.403 1.217-3.883 4.834-6.553 8.838-6.523 4.127.029 7.617 2.684 8.852 6.728 1.143 3.763-.381 7.884-3.648 10.227-.764.547-1.4 1.381-1.861 2.214-1.094 1.978-2.047 4.033-3.059 6.058l-.628-.018zm.242-23.133c-3.898.031-7.139 3.295-7.139 7.189 0 3.985 3.301 7.249 7.285 7.204 3.924-.043 7.127-3.27 7.137-7.187.016-3.959-3.301-7.238-7.283-7.206z"/><path fill="#fff" d="M675.426 107.104c0 4.002 3.246 7.249 7.252 7.249 3.996 0 7.238-3.247 7.238-7.249 0-4.005-3.242-7.25-7.238-7.25-4.006 0-7.252 3.246-7.252 7.25z"/><path fill="#AE1F24" d="M678.975 106.899c0 1.998 1.611 3.641 3.631 3.641 2 0 3.643-1.643 3.643-3.641 0-2.001-1.643-3.639-3.643-3.639-2.02.001-3.631 1.638-3.631 3.639z"/><g fill="#fff"><path d="M585.205 116.542c-.979.351-2.91.928-5.191.928-2.561 0-4.666-.652-6.322-2.233-1.455-1.405-2.357-3.663-2.357-6.296.023-5.042 3.486-8.729 9.156-8.729 1.955 0 3.486.426 4.213.777l-.525 1.781c-.904-.401-2.033-.728-3.738-.728-4.113 0-6.799 2.559-6.799 6.798 0 4.29 2.584 6.823 6.523 6.823 1.43 0 2.408-.201 2.908-.452v-5.042h-3.436v-1.756h5.568v8.129zM595.393 117.295l-.176-1.53h-.074c-.678.953-1.982 1.806-3.713 1.806-2.459 0-3.713-1.731-3.713-3.487 0-2.935 2.609-4.541 7.299-4.516v-.25c0-1.003-.275-2.81-2.76-2.81-1.127 0-2.307.351-3.16.903l-.502-1.455c1.004-.652 2.459-1.079 3.988-1.079 3.713 0 4.617 2.534 4.617 4.967v4.54c0 1.054.049 2.083.199 2.91h-2.005zm-.327-6.196c-2.408-.05-5.143.376-5.143 2.734 0 1.43.953 2.107 2.082 2.107 1.58 0 2.584-1.003 2.936-2.032.074-.226.125-.477.125-.702v-2.107zM610.922 113.983c0 1.254.025 2.358.1 3.312h-1.955l-.127-1.982h-.049c-.578.979-1.857 2.258-4.014 2.258-1.906 0-4.189-1.054-4.189-5.318v-7.1h2.207v6.723c0 2.308.703 3.863 2.709 3.863 1.48 0 2.51-1.029 2.91-2.007.125-.326.201-.728.201-1.129v-7.451h2.207v8.831zM617.244 101.667v3.487h3.162v1.681h-3.162v6.547c0 1.505.428 2.358 1.656 2.358.576 0 1.004-.075 1.279-.151l.1 1.656c-.426.176-1.104.301-1.955.301-1.029 0-1.857-.326-2.385-.928-.627-.652-.852-1.731-.852-3.161v-6.623h-1.883v-1.681h1.883v-2.91l2.157-.576zM623.969 111.625c.051 2.985 1.957 4.214 4.164 4.214 1.58 0 2.533-.276 3.361-.627l.377 1.58c-.777.352-2.107.753-4.039.753-3.738 0-5.971-2.458-5.971-6.121 0-3.662 2.158-6.547 5.695-6.547 3.963 0 5.018 3.487 5.018 5.72 0 .452-.051.803-.076 1.028h-8.529zm6.472-1.58c.025-1.405-.578-3.587-3.061-3.587-2.232 0-3.211 2.057-3.387 3.587h6.448zM635.309 108.44c0-1.254-.025-2.283-.1-3.287h1.957l.125 2.007h.051c.602-1.154 2.006-2.283 4.014-2.283 1.68 0 4.289 1.003 4.289 5.168v7.25h-2.207v-6.999c0-1.957-.729-3.587-2.811-3.587-1.455 0-2.584 1.028-2.959 2.258-.102.276-.15.652-.15 1.028v7.3h-2.209v-8.855zM659.693 105.153c-.051.878-.1 1.856-.1 3.336v7.049c0 2.784-.553 4.49-1.73 5.544-1.18 1.104-2.885 1.455-4.416 1.455-1.455 0-3.061-.351-4.039-1.003l.553-1.681c.803.502 2.057.953 3.562.953 2.258 0 3.912-1.179 3.912-4.239v-1.354h-.049c-.678 1.129-1.982 2.032-3.863 2.032-3.012 0-5.168-2.559-5.168-5.92 0-4.114 2.684-6.447 5.469-6.447 2.107 0 3.26 1.104 3.787 2.107h.051l.1-1.832h1.931zm-2.283 4.792c0-.376-.023-.702-.125-1.003-.4-1.279-1.48-2.333-3.086-2.333-2.105 0-3.611 1.781-3.611 4.591 0 2.383 1.203 4.365 3.588 4.365 1.354 0 2.582-.853 3.059-2.258.127-.376.176-.803.176-1.179v-2.183z"/></g><path fill-rule="evenodd" clip-rule="evenodd" fill="#465560" d="M366.809 146.391c-1.029-2.065-1.99-4.169-3.116-6.183-.511-.918-1.2-1.846-2.036-2.453-3.443-2.508-4.971-6.801-3.702-10.848 1.271-4.049 5.039-6.832 9.214-6.801 4.301.031 7.943 2.798 9.229 7.014 1.189 3.924-.396 8.22-3.803 10.662-.797.57-1.461 1.44-1.941 2.309-1.141 2.062-2.133 4.205-3.189 6.315l-.656-.015zm.253-24.119c-4.062.032-7.442 3.436-7.442 7.496 0 4.154 3.442 7.557 7.595 7.509 4.094-.043 7.43-3.408 7.439-7.491.018-4.13-3.437-7.548-7.592-7.514z"/><path fill="#D9D9D9" d="M359.686 129.829c0 4.172 3.382 7.558 7.559 7.558 4.164 0 7.547-3.386 7.547-7.558 0-4.176-3.383-7.559-7.547-7.559-4.178.001-7.559 3.383-7.559 7.559z"/><path fill="#465560" d="M363.382 129.614c0 2.084 1.683 3.797 3.786 3.797 2.086 0 3.795-1.713 3.795-3.797 0-2.086-1.709-3.794-3.795-3.794-2.104 0-3.786 1.708-3.786 3.794z"/></svg>