<svg xmlns="http://www.w3.org/2000/svg" width="431" height="363.912" viewBox="0 0 431 363.912"><path fill="#fff" d="M389.035 160.96l-2.787-18.631c-6.301-37.15-20.82-93.643-25.689-105.869-4.868-12.223-11.873-8.131-14.521-5.449-2.65 2.678-25.062 23.543-46.494 38.166-21.438 14.623-39.838 31.113-87.238 42.754-47.404 11.64-112.761 22.912-126.81 25.767l18.562 124.46c6.002-.573 21.143-2.377 40.277-4.471 5.277 4.758 12.68-.305 17.291 21.678 5.271 25.115 3.293 61.275 6.805 69.511 3.516 8.237 36.311-4.269 44.959-10.125 8.646-5.867 12.814-13.765 8.972-42.92-3.142-23.795 3.555-38.435 9.133-45.949l1.373-.078c48.734-2.697 69.811-1.305 94.576 6.426 24.768 7.738 52.893 14.974 56.205 16.758 3.313 1.797 10.901 6.804 12.305-9.444 1.134-13.115-1.153-62.152-6.919-102.584z"/><path d="M407.174 156.366c-9.174-75.541-33.832-136.279-42.762-142.572-9.355-6.604-19.748 10.566-20.986 17.607l-.809 2.854c1.74-1.609 2.922-2.746 3.42-3.244 2.647-2.682 9.652-6.773 14.521 5.449 4.869 12.227 19.39 68.719 25.689 105.869l2.787 18.631c8.293 58.188 6.819 93.764 6.037 106.905-.435 7.298-4.232 6.519-8.017 6.703 4.556 5.029 13.031 11.586 21.177 2.375 7.31-8.258 7.984-46.137-1.057-120.577zM98.436 199.843l9.383 64.885-6.529.682c-6.518.673-56.289-1.479-62.443-2.03-4.326-.381-18.805-40.191-19.723-45.355l-1.852-12.422c-.633-5.203 1.598-47.506 5.625-49.137 5.723-2.328 52.697-18.904 59.133-20.158l6.438-1.254 9.968 64.789z"/><g fill="#ED1C24"><path d="M237.814 175.646c-6.623 1.088-13.24 2.215-19.863 3.328-7.273 1.215-14.548 2.43-21.819 3.674-.975.164-2.152.076-2.602 1.32-.885 2.455 1.014 5.916 3.615 6.555 5.418 1.33 10.811 2.771 16.27 3.906 2.285.475 2.684 1.371 2.473 3.613-1.82 19.043 15.439 32.93 33.672 27.194 12.074-3.793 19.808-17.196 16.967-29.405-3.248-13.896-15.324-22.394-28.713-20.185zm5.387 37.267c-6.838 1.086-12.764-3.285-13.832-10.203-1.057-6.875 3.293-12.773 10.215-13.871 6.74-1.064 12.768 3.393 13.85 10.248 1.082 6.805-3.299 12.721-10.233 13.826zM315.283 181.982c-6.41-24.279-21.381-41.318-44.225-51.439-12.111-5.363-24.882-6.846-38.025-5.635-4.285.391-4.631.637-3.91 4.986.131.748.248 1.49.375 2.236.16.932.311 1.867.467 2.799.678 3.965.682 3.977 4.729 3.441 9.688-1.264 19.115-.076 28.168 3.381 20.074 7.654 33.244 21.877 39.232 42.526 1.871 6.461 1.574 6.547 8.101 5.449 6.666-1.122 6.836-1.163 5.088-7.744zM264.436 155.368c-8.953-4.643-18.555-6.199-28.602-5.258-2.455.23-3.303 1.258-2.729 3.697.516 2.209.896 4.457 1.115 6.711.239 2.402 1.266 3.016 3.711 2.885 18.963-1.01 33.407 8.844 39.461 26.697 1.647 4.842 1.647 4.842 7.631 3.84.738-.131 1.481-.254 2.227-.381 4.641-.777 4.85-1.125 3.557-5.697-4.166-14.576-12.901-25.502-26.371-32.494z"/></g></svg>