<svg xmlns="http://www.w3.org/2000/svg" width="126.506" height="106.814" viewBox="0 0 126.506 106.814"><path fill="#fff" d="M114.471 47.587l-.835-5.58c-1.887-11.125-6.235-28.044-7.693-31.705-1.458-3.661-3.556-2.435-4.349-1.632-.794.803-7.505 7.051-13.924 11.43-6.42 4.379-11.931 9.318-26.125 12.804-14.196 3.486-33.769 6.861-37.976 7.716l5.559 37.273c1.798-.172 6.332-.712 12.062-1.339 1.581 1.425 3.797-.091 5.178 6.492 1.579 7.521.986 18.351 2.038 20.816 1.053 2.467 10.874-1.278 13.464-3.032 2.59-1.757 3.837-4.122 2.687-12.854-.94-7.126 1.064-11.51 2.735-13.761l.411-.023c14.594-.808 20.906-.391 28.323 1.925 7.417 2.317 15.84 4.483 16.832 5.019.992.538 3.265 2.037 3.685-2.829.339-3.926-.346-18.612-2.072-30.72z"/><path fill="#333" stroke="#333" stroke-width=".113" stroke-miterlimit="10" d="M119.902 46.211c-2.747-22.623-10.132-40.812-12.806-42.697-2.802-1.978-5.914 3.164-6.285 5.273l-.242.854c.521-.482.875-.822 1.024-.972.793-.803 2.891-2.028 4.349 1.632 1.458 3.661 5.807 20.58 7.693 31.705l.835 5.58c2.483 17.426 2.042 28.08 1.808 32.015-.13 2.186-1.268 1.952-2.4 2.008 1.364 1.506 3.902 3.47 6.342.711 2.188-2.472 2.39-13.816-.318-36.109z"/><path fill="#0E5461" d="M27.443 59.231l2.81 19.432-1.955.204c-1.952.201-16.857-.443-18.7-.608-1.296-.114-5.632-12.037-5.907-13.583l-.555-3.72c-.189-1.558.479-14.227 1.685-14.715 1.714-.697 15.781-5.662 17.709-6.037l1.928-.375 2.985 19.402z"/><g fill="#0E5461"><path d="M69.184 51.985c-1.983.326-3.965.663-5.948.997-2.179.364-4.357.728-6.534 1.1-.292.049-.645.022-.779.396-.265.735.304 1.771 1.083 1.963 1.622.398 3.237.83 4.872 1.169.685.143.804.411.741 1.083-.545 5.703 4.624 9.861 10.083 8.144 3.616-1.136 5.932-5.15 5.081-8.806-.973-4.162-4.59-6.707-8.599-6.046zm1.613 11.161c-2.048.326-3.822-.983-4.142-3.055-.316-2.059.986-3.825 3.059-4.154 2.019-.319 3.823 1.016 4.147 3.069.325 2.037-.988 3.808-3.064 4.14zM92.384 53.882c-1.92-7.271-6.403-12.374-13.244-15.405-3.627-1.606-7.451-2.05-11.388-1.688-1.283.117-1.387.191-1.171 1.494l.113.669.14.838c.203 1.187.204 1.191 1.416 1.03 2.901-.378 5.724-.022 8.435 1.013 6.012 2.292 9.956 6.552 11.749 12.736.561 1.935.472 1.96 2.426 1.632 1.996-.335 2.047-.347 1.524-2.319zM77.156 45.913c-2.682-1.391-5.557-1.856-8.565-1.575-.735.069-.99.377-.817 1.107.154.661.269 1.334.333 2.01.072.719.379.903 1.112.864 5.678-.302 10.004 2.648 11.817 7.995.494 1.45.494 1.45 2.285 1.15l.667-.114c1.39-.233 1.452-.337 1.065-1.707-1.247-4.365-3.863-7.637-7.897-9.73z"/></g></svg>