<svg xmlns="http://www.w3.org/2000/svg" width="250" height="267.857" viewBox="0 0 250 267.857"><path fill-rule="evenodd" clip-rule="evenodd" fill="#115D6B" d="M3.7 211.926l.847-65.518 24.615 7.618 66.419-22.285 3.018 10.734 5.339-7.968-12.608-9.698-6.774-5.216 5.231-6.797 46.908-59.932 5.212-6.774 6.797 5.229 6.903 5.31c-1.305-5.914-.088-12.344 3.868-17.487l20.412-26.529c7.102-9.234 20.473-10.975 29.705-3.868l28.461 21.9c9.238 7.101 10.982 20.47 3.876 29.704l-20.407 26.529c-3.96 5.146-9.864 7.962-15.914 8.225l6.05 4.653 6.775 5.211-5.231 6.8-46.903 59.93-5.215 6.777-6.799-5.233-13.726-10.562-7.75 8.983 11.894 7.227-6.945 16.511-9.01-1.396 3.941 10.022-10.563 12.338-11.466-5.48 4 11.456-11.253 14.799-13.587-7.523 5.172 12.068-9.784 12.745-19.916-4.477-11.673 13.532c-9.973-3.955-17.977-10.003-23.828-18.336l2.365-3.537-28.456-29.685.778 2.64-.778-2.64zm190.716-103.828l-49.379-37.99-36.468 46.355 49.382 37.993 36.465-46.358z"/><g fill="#fff"><path d="M143.452 126.905c-2.708 0-4.912-2.204-4.912-4.914 0-2.708 2.204-4.914 4.912-4.914 2.71 0 4.914 2.206 4.914 4.914 0 2.71-2.204 4.914-4.914 4.914m0-15.28h-17.598v3.26l8.076 3.011c-.542 1.259-.847 2.642-.847 4.096 0 5.717 4.652 10.368 10.368 10.368 5.719 0 10.366-4.651 10.366-10.368.001-5.717-4.646-10.367-10.365-10.367zM164.445 121.991h-5.612c0-8.52-6.932-15.451-15.455-15.451v-5.611c11.616 0 21.067 9.451 21.067 21.062M174.657 121.991h-5.611c0-14.152-11.515-25.663-25.668-25.663v-5.61c17.247 0 31.279 14.029 31.279 31.273"/></g></svg>