<svg xmlns="http://www.w3.org/2000/svg" width="126" height="135" viewBox="0 0 126 135"><path fill-rule="evenodd" clip-rule="evenodd" fill="#115D6B" d="M.71 107.553l.435-33.645 12.641 3.912 34.107-11.444 1.55 5.512 2.741-4.092-6.475-4.98-3.479-2.679 2.687-3.49 24.088-30.776 2.677-3.479 3.49 2.686 3.545 2.727c-.67-3.037-.045-6.339 1.986-8.98l10.483-13.623c3.646-4.742 10.513-5.636 15.254-1.986l14.615 11.246c4.744 3.646 5.64 10.512 1.99 15.254l-10.479 13.623c-2.033 2.643-5.065 4.089-8.172 4.224l3.106 2.39 3.479 2.676-2.687 3.492-24.085 30.774-2.678 3.48-3.491-2.688-7.049-5.424-3.979 4.613 6.107 3.711-3.566 8.479-4.627-.717 2.024 5.146-5.425 6.336-5.888-2.814 2.054 5.883-5.778 7.6-6.978-3.863 2.656 6.197-5.024 6.545-10.228-2.299-5.994 6.949c-5.121-2.031-9.231-5.137-12.236-9.416l1.215-1.816-14.612-15.244.399 1.355-.399-1.355zm97.936-53.318l-25.357-19.508-18.727 23.804 25.358 19.51 18.726-23.806z"/><g fill="#fff"><path d="M72.476 63.894c-1.391 0-2.522-1.132-2.522-2.523 0-1.391 1.132-2.523 2.522-2.523 1.392 0 2.523 1.133 2.523 2.523 0 1.391-1.132 2.523-2.523 2.523m0-7.847h-9.037v1.674l4.147 1.546c-.278.646-.435 1.356-.435 2.104 0 2.936 2.389 5.324 5.324 5.324 2.937 0 5.323-2.389 5.323-5.324s-2.386-5.324-5.322-5.324zM83.256 61.37h-2.882c0-4.375-3.56-7.935-7.937-7.935v-2.882c5.965.001 10.819 4.854 10.819 10.817M88.5 61.37h-2.882c0-7.268-5.913-13.179-13.181-13.179v-2.881c8.857.001 16.063 7.205 16.063 16.06"/></g></svg>