<svg xmlns="http://www.w3.org/2000/svg" width="141.732" height="76.536" viewBox="0 0 141.732 76.536"><path fill="#fff" d="M94.896 3.956c-16.943 3.99-30.854 22.577-25.135 43.689 5.354 19.759 25.289 29.983 43.604 25.12 17.96-4.771 30.657-23.548 25.241-43.718-5.62-20.936-26.924-30.221-43.71-25.091zM53.033 40.918c-5.916 1.189-9.267 7.648-7.85 12.948 1.577 5.89 7.393 9.409 13.159 7.896 5.743-1.507 9.297-7.606 7.707-13.312-1.792-6.426-8.738-9.065-13.016-7.532zM38.076 56.092c-1.036-3.959-5.034-6.372-8.93-5.388-4.077 1.029-6.559 5.042-5.577 9.022.982 3.983 5.129 6.485 9.09 5.486 4.013-1.011 6.46-5.131 5.417-9.12zM10.075 63.621c-.577-2.288-2.713-3.623-4.934-3.085-2.166.527-3.653 2.846-3.192 4.98.466 2.157 3.046 3.733 5.17 3.159 2.17-.587 3.506-2.873 2.956-5.054z"/><path fill-rule="evenodd" clip-rule="evenodd" fill="#ED1C24" d="M94.896 3.956c16.786-5.13 38.09 4.156 43.71 25.091 5.416 20.17-7.281 38.947-25.241 43.718-18.314 4.863-38.25-5.361-43.604-25.12-5.719-21.113 8.192-39.7 25.135-43.689zM53.033 40.918c4.278-1.533 11.225 1.105 13.017 7.533 1.59 5.706-1.964 11.805-7.707 13.312-5.767 1.513-11.582-2.007-13.159-7.896-1.418-5.301 1.933-11.76 7.849-12.949zM38.076 56.092c1.043 3.988-1.403 8.108-5.417 9.12-3.961.999-8.107-1.503-9.09-5.486-.981-3.979 1.5-7.993 5.577-9.022 3.896-.983 7.894 1.429 8.93 5.388zM10.075 63.621c.55 2.182-.786 4.468-2.956 5.055-2.124.574-4.704-1.002-5.17-3.159-.461-2.135 1.026-4.453 3.192-4.98 2.221-.539 4.357.796 4.934 3.084z"/><path fill-rule="evenodd" clip-rule="evenodd" fill="#fff" d="M80.123 23.762c2.544 1.69 5.079 3.375 7.711 5.126 7.822-8.612 17.267-10.543 28.275-5.527.857-1.404 1.68-2.702 2.455-4.027.76-1.303 1.887-2.404 2.269-3.905-14.111-9.009-33.6-3.289-40.71 8.333zm37.219.546c4.453 3.171 7.537 7.485 9.042 12.925l8.956-1.848c.143-6.084-7.88-17-12.908-18.854l-5.09 7.777zm-34.198 21.85c.233-2.92.184-5.622.73-8.197.545-2.571 1.688-5.018 2.646-7.749-2.416-1.588-4.951-3.256-7.457-4.902-4.572 5.349-6.986 18.023-4.413 22.603l8.494-1.755zm31.831-12.9c-2.543.857-4.895 1.34-7.136 2.598l1.78 1.932-4.395 4.963c-.665-.167-1.172-.385-1.688-.41-1.429-.068-2.641.396-3.343 1.733-.637 1.211-.665 2.432.174 3.576.873 1.19 2.236 1.635 3.73 1.246 1.373-.357 2.242-1.506 2.428-3.067.084-.696.121-1.532.52-2.036 1.268-1.611 2.694-3.095 4.141-4.719l2.099 1.87c.934-2.685 1.197-5.036 1.69-7.686zm24.064 5.326l-.619-2.111-1.973.405.464 2.245 2.128-.539zm-7.971 1.762c.662-.079.975-.492.839-1.219-.126-.68-.282-1.33-1.228-1.177-.727.117-1.048.507-.91 1.236.127.679.284 1.342 1.299 1.16zm-8.315-.35c.815 1.887.815 1.887 2.472 1.337l-.462-2.237-2.01.9zm-39.139 8.463c.486.769.701 1.506 1.143 1.687.419.173 1.316-.074 1.564-.438.266-.385.015-1.125-.015-1.804l-2.692.555zm51.667-9.769c-.142-1.268-.59-1.587-1.424-1.386-.773.185-.871.686-.742 1.367.153.812.6 1.269 1.381.915.413-.187.66-.744.785-.896zm-8.897.273c.253 2.379.454 2.497 2.326 1.44l-.524-1.812-1.802.372zm-36.653 5l-2.133.018-.027 2.097 2.143.041.017-2.156zm10.44-15.801c.747-.179 1.521-.206 1.658-1.085.06-.387-.129-1.009-.422-1.217-.721-.509-1.328-.079-1.904.621l.668 1.681zm-17.38 22.355l-.392-1.896c-.75.198-1.353.359-1.932.516.235 2.065.262 2.082 2.324 1.38zm-6.129-.589c.341.687.485 1.376.907 1.683.277.2 1.234-.006 1.392-.298.25-.464.088-1.15.103-1.88l-2.402.495zm-3.306.645c.281 2.097.322 2.12 2.332 1.387l-.37-1.791-1.962.404zm22.814-22.888l1.11 1.726c2.031-.813 2.031-.813.773-2.613l-1.883.887zm-1.366 3.804l1.645-1.38-1.412-1.637-1.693 1.386 1.46 1.631zm11.491-4.663c2.249.457 2.414.288 1.958-1.842l-1.818-.073-.14 1.915zm-13.198 7.235l1.102-1.8-1.862-1.404-1.263 1.791 2.023 1.413zm27.649-2.288l-1.701-1.568-1.416 1.672 1.492 1.322 1.625-1.426zm-30.356 7.963l.59-2.035-2.08-.629-.596 2.055 2.086.609zm31.121-6.755l-1.822 1.212 1.189 1.683 1.813-1.096-1.18-1.799zm-33.848 9.586l2.279.285.058-2.141-1.946-.228-.391 2.084zm34.335-3.801l2.307-.798c-.429-.703-.639-1.367-1.092-1.667-.258-.169-1.211.148-1.32.443-.188.512.035 1.175.105 2.022zm-34.55 8.814c.406.794.585 1.418.989 1.807.173.166 1.112-.056 1.185-.275.179-.534.057-1.17.055-1.891l-2.229.359zm29.092-19.686l-1.324 1.803 1.718 1.278 1.309-1.702-1.703-1.379zm-26.223 5.82l-.812 1.843c1.777 1.397 2.035 1.307 2.61-1.076-.155-.04-.426-.083-.671-.184-.297-.122-.575-.293-1.127-.583zm22.221-5.702c1.935 1.23 2.133 1.146 2.599-1.006l-1.792-.82-.807 1.826zm-.361-2.325l-2.15-.445c-.626 2.075-.624 2.078 1.506 2.337l.644-1.892zm-8.917 1.59l2.114-.436-.488-1.821c-1.938.173-1.938.173-1.626 2.257z"/></svg>