<svg xmlns="http://www.w3.org/2000/svg" width="97.211" height="140" viewBox="0 0 97.211 140"><path fill="#115D6B" d="M31.101 137.677c-2.846 0-5.162-2.71-5.162-6.042v-47.927h-3.189v47.927c0 3.332-2.312 6.042-5.154 6.042-2.851 0-5.171-2.71-5.171-6.042v-54.045c-.05-.427-.098-.817-.098-1.199v-30.501h-3.802v28.627c0 2.238-1.639 4.06-3.653 4.06-1.997 0-3.622-1.821-3.622-4.06v-35.318c0-2.24 2.801-10.244 11.694-10.515l23.567.127c7.133 0 11.023 6.532 11.023 9.888v2.515l1.146 33.312c0 2.286-2.056 4.539-4.15 4.539-2.258 0-3.832-2.396-3.832-4.548l-1.009-28.627h-3.427v85.745c.001 3.332-2.315 6.042-5.161 6.042z"/><path fill="#fff" d="M12.943 28.935l23.57.127c6.97 0 10.771 6.367 10.771 9.638v2.532l1.146 33.286c0 2.169-1.932 4.298-3.9 4.298-2.05 0-3.582-2.27-3.583-4.315l-1-28.377-.017-.482h-3.919v85.995c0 3.193-2.204 5.792-4.912 5.792s-4.912-2.599-4.912-5.792v-48.179h-3.687v48.177c0 3.193-2.2 5.792-4.904 5.792-2.713 0-4.921-2.599-4.921-5.792v-54.075l-.003-.03-.006-.052c-.043-.354-.088-.721-.088-1.087v-30.751h-4.303v28.877c0 2.101-1.527 3.81-3.403 3.81-1.859 0-3.372-1.709-3.372-3.81v-35.318c0-2.186 2.741-9.994 11.443-10.264m-.006-.5c-8.722.265-11.937 8.054-11.937 10.764v35.318c0 2.389 1.746 4.31 3.872 4.31 2.154 0 3.903-1.921 3.903-4.31v-28.377h3.302v30.251c0 .416.053.829.098 1.199v54.045c0 3.475 2.425 6.292 5.421 6.292 2.985 0 5.404-2.817 5.404-6.292v-47.677h2.688v47.677c0 3.475 2.426 6.292 5.412 6.292 2.98 0 5.412-2.817 5.412-6.292v-85.495h2.936l1 28.377c0 2.389 1.786 4.798 4.082 4.798 2.311 0 4.4-2.409 4.4-4.798l-1.146-33.303v-2.515c0-3.296-3.895-10.138-11.271-10.138l-23.576-.126z"/><path fill="#115D6B" d="M27.428 26.436c-.598 0-1.176-.009-1.714-.017-.469-.007-.909-.013-1.304-.013-.396 0-.834.006-1.304.013-.538.008-1.116.017-1.713.017h-.001c-2.905 0-6.401-.198-7.814-1.719 1.462-1.676 1.098-5.018.804-7.712-.101-.925-.196-1.8-.196-2.46 0-5.643 4.587-10.233 10.225-10.233 5.637 0 10.224 4.591 10.224 10.233 0 .66-.095 1.534-.196 2.459-.294 2.694-.659 6.036.805 7.712-1.415 1.522-4.911 1.72-7.816 1.72z"/><path fill="#E6E7E8" d="M24.41 4.437c5.568 0 10.099 4.535 10.099 10.108 0 .653-.095 1.524-.196 2.446-.292 2.672-.652 5.977.761 7.72-1.427 1.414-4.818 1.6-7.646 1.6-.597 0-1.175-.009-1.712-.017-.47-.007-.91-.013-1.306-.013s-.836.006-1.306.013c-.538.008-1.115.017-1.712.017-2.828 0-6.219-.187-7.646-1.6 1.412-1.743 1.051-5.047.76-7.719-.101-.922-.196-1.793-.196-2.447.001-5.574 4.531-10.108 10.1-10.108m0-.25c-5.717 0-10.35 4.637-10.35 10.358 0 2.569 1.393 8.005-.65 10.171 1.388 1.626 4.94 1.845 7.982 1.845 1.119 0 2.169-.03 3.018-.03.848 0 1.898.03 3.018.03 3.042 0 6.595-.219 7.982-1.845-2.044-2.166-.651-7.602-.651-10.171 0-5.722-4.633-10.358-10.349-10.358z"/><path fill="#115D6B" d="M67.832 22.306c-5.835 0-10.582-4.751-10.582-10.591 0-5.839 4.747-10.59 10.582-10.59 5.842 0 10.595 4.75 10.595 10.59s-4.753 10.591-10.595 10.591z"/><path fill="#E6E7E8" d="M67.832 1.25c5.773 0 10.47 4.694 10.47 10.465s-4.696 10.466-10.47 10.466c-5.766 0-10.457-4.695-10.457-10.466 0-5.771 4.691-10.465 10.457-10.465m0-.25c-5.915 0-10.707 4.797-10.707 10.715 0 5.93 4.792 10.716 10.707 10.716 5.922 0 10.72-4.786 10.72-10.716 0-5.918-4.798-10.715-10.72-10.715z"/><path fill-rule="evenodd" clip-rule="evenodd" fill="#115D6B" d="M75.528 137.396c-3.285 0-5.958-2.808-5.958-6.259v-49.574h-3.582v49.574c0 3.451-2.668 6.259-5.946 6.259-3.288 0-5.964-2.808-5.964-6.259v-55.908c-.054-.405-.112-.826-.112-1.242v-31.549h-4.277l-1.008 32.898c0 2.233-1.668 3.729-4.15 3.729-2.364 0-3.832-1.426-3.832-3.721l.564-37.747v-2.088c0-2.319 3.22-10.605 13.443-10.886l27.026.129c8.204 0 12.679 6.764 12.679 10.239v40.353c0 2.321-2.036 4.21-4.539 4.21-2.492 0-4.52-1.889-4.52-4.21v-32.906h-3.869v88.7c0 3.451-2.671 6.258-5.955 6.258zm-7.226-101.211c-2.362.085-2.588 1.77-2.788 3.255l-.569 4.039c-.497 3.483-1.011 7.084-1.427 10.636-.229 1.941.351 3.915 1.59 5.415.94 1.139 2.152 1.841 3.326 1.927l.149.005c2.226 0 4.603-3.555 4.687-6.11l-.594-4.429c-.548-4.054-1.05-7.762-1.514-11.479l-.018-.14c-.188-1.535-.385-3.122-2.647-3.122l-.195.003zm.141-6.487l-.338.012c-1.701.114-2.669 1.261-2.588 3.067.09 2.048 1.848 2.048 2.599 2.048l.65-.014c.939-.031 1.569-.279 1.952-.738.365-.439.491-1.058.374-1.839-.113-1.652-1.03-2.536-2.649-2.536z"/><path fill="#fff" d="M54.705 24.873l27.028.129c8.041 0 12.428 6.599 12.428 9.989v40.352c0 2.184-1.924 3.96-4.289 3.96-2.354 0-4.27-1.776-4.27-3.96v-33.155h-4.369v88.95c0 3.313-2.56 6.009-5.705 6.009-3.147 0-5.708-2.695-5.708-6.009v-49.825h-4.082v49.824c0 3.313-2.556 6.009-5.696 6.009-3.15 0-5.714-2.695-5.714-6.009v-55.942l-.005-.034c-.051-.363-.107-.774-.107-1.174v-31.799h-4.7700000000000005l-.015.485-1 32.671c0 2.076-1.567 3.471-3.9 3.471-2.209 0-3.582-1.33-3.582-3.463l.564-37.759v-2.084c0-2.265 3.159-10.357 13.192-10.636m13.411 10.202l.658-.014.08-.003c.935-.031 1.626-.309 2.057-.825.413-.497.558-1.182.434-1.996-.125-1.798-1.155-2.789-2.901-2.789l-.354.012c-1.854.125-2.908 1.369-2.82 3.328.098 2.287 2.094 2.287 2.846 2.287m.467 26.636c2.391 0 4.848-3.637 4.937-6.352l.001-.042-.006-.041-.591-4.388c-.54-3.991-1.05-7.761-1.514-11.476l-.018-.14c-.192-1.566-.411-3.341-2.896-3.341l-.204.004c-2.573.093-2.824 1.966-3.026 3.471l-.025.185c-.179 1.284-.362 2.568-.545 3.852-.496 3.484-1.01 7.087-1.428 10.642-.236 2.008.363 4.051 1.646 5.604.984 1.191 2.26 1.926 3.503 2.017l.166.005m-13.884-37.338c-10 .274-13.687 8.333-13.687 11.136v2.084l-.564 37.751c0 2.472 1.645 3.971 4.082 3.971 2.473 0 4.4-1.499 4.4-3.971l1-32.656h3.785v31.299c0 .431.059.855.112 1.242v55.909c0 3.595 2.78 6.509 6.214 6.509 3.425 0 6.196-2.914 6.196-6.509v-49.325h3.082v49.324c0 3.595 2.783 6.509 6.208 6.509 3.419 0 6.205-2.914 6.205-6.509v-88.45h3.369v32.656c0 2.472 2.136 4.46 4.77 4.46 2.649 0 4.789-1.988 4.789-4.46v-40.351c0-3.407-4.468-10.489-12.928-10.489l-27.033-.13zm13.417 10.202c-1.166 0-2.279-.211-2.349-1.81-.065-1.459.595-2.688 2.354-2.807l.321-.011c1.458 0 2.292.738 2.402 2.324.233 1.553-.572 2.239-2.008 2.287l-.72.017zm.467 26.637l-.131-.005c-2.535-.186-5.116-3.416-4.687-7.063.567-4.836 1.299-9.657 1.971-14.483.215-1.57.334-3.145 2.575-3.226l.186-.003c2.104 0 2.218 1.441 2.417 3.042.626 5.016 1.32 10.016 2.105 15.869-.079 2.423-2.365 5.869-4.436 5.869z"/></svg>