<svg xmlns="http://www.w3.org/2000/svg" width="376" height="188" viewBox="0 0 376 188"><path fill-rule="evenodd" clip-rule="evenodd" fill="#EC2227" d="M252.707 41.292c-7.742 11.049-14.738 21.121-21.842 31.106-1.316 1.855-2.911 3.564-4.616 5.07-10.606 9.415-12.765 24.249-5.073 35.558 7.549 11.113 22.412 15.141 34.21 9.266 12.348-6.158 18.181-20.054 13.318-33.254-1.484-4.01-.892-6.704 1.865-9.322 2.851-2.697 5.848-5.244 9.526-8.516 5.812 6.564 11.709 12.24 16.375 18.794 4.188 5.883 3.628 12.75-1.295 18.202-20.257 22.422-40.567 44.777-61.346 66.714-2.793 2.943-8.334 4.603-12.611 4.627-53.643.307-107.275.196-160.925.178-10.05 0-20.101.05-30.14-.153-10.695-.218-16.714-5.969-16.739-16.582-.128-43.329-.118-86.668.061-130.011.043-10.806 6.443-16.757 17.353-16.761 63.439-.021 126.875-.071 190.312.286 4.445.018 9.821 2.144 13.129 5.116 7.107 6.357 13.151 13.909 18.438 19.682zM274.494 152.309c4.367-4.759 8.373-9.604 12.947-13.803 1.295-1.188 4.32-.849 6.514-.67 20.143 1.58 40.735-12.397 45.062-30.728 6.379-27.018-18.326-52.455-47.135-48.523-21.541 2.946-35.381 17.289-37.539 38.912-.663 6.6-4.455 10.328-10.229 10.042-5.658-.271-9.047-4.435-9.082-11.149-.111-23.172 17.185-45.662 41.405-53.846 31.163-10.535 66.65 4.955 78.359 34.21 12.237 30.557-3.589 65.009-34.781 75.715-17.533 6.018-32.224 6.072-45.521-.16z"/><g fill="#fff"><path d="M32.082 101.364l-.007 11.968h-5.699l.018-30.629h9.343c2.09 0 3.88.216 5.371.646 1.49.431 2.711 1.034 3.665 1.812.953.776 1.651 1.705 2.096 2.785.444 1.081.667 2.27.666 3.569 0 1.031-.153 2.005-.458 2.923-.305.918-.743 1.751-1.315 2.5-.572.749-1.279 1.405-2.12 1.97-.841.565-1.798 1.017-2.872 1.355.72.41 1.341.996 1.863 1.758l7.664 11.312h-5.127c-.495 0-.915-.099-1.261-.297-.346-.198-.639-.48-.878-.848l-6.436-9.807c-.24-.367-.504-.628-.794-.784-.29-.155-.717-.233-1.282-.233h-2.437zm.002-4.088h3.56c1.073 0 2.009-.134 2.808-.402.798-.268 1.455-.639 1.971-1.112.515-.473.901-1.035 1.155-1.684.255-.649.383-1.363.383-2.14 0-1.553-.511-2.746-1.534-3.58-1.024-.833-2.588-1.25-4.693-1.25h-3.644l-.006 10.168zM56.548 109.414h6.208l.011-17.856c0-.692.022-1.419.065-2.182l-4.409 3.686c-.184.155-.371.261-.562.317-.191.057-.378.085-.562.085-.283 0-.54-.06-.773-.18-.233-.12-.406-.257-.519-.413l-1.651-2.267 9.348-7.943h4.301l-.016 26.753h5.509l-.002 3.918h-16.95l.002-3.918zM98.95 98.019c-.001 2.669-.289 4.988-.862 6.958-.573 1.97-1.366 3.598-2.376 4.883-1.011 1.285-2.205 2.242-3.583 2.87-1.377.628-2.864.942-4.46.942s-3.075-.314-4.438-.942c-1.363-.628-2.545-1.585-3.547-2.87-1.003-1.285-1.786-2.913-2.349-4.883-.564-1.97-.845-4.289-.843-6.958.001-2.683.285-5.006.852-6.969.566-1.962 1.351-3.586 2.354-4.872 1.003-1.285 2.187-2.242 3.551-2.87 1.363-.628 2.843-.943 4.439-.943s3.083.314 4.459.943c1.377.629 2.57 1.586 3.579 2.871 1.009 1.285 1.8 2.909 2.371 4.872.57 1.962.855 4.285.853 6.968zm-5.403 0c.001-2.217-.16-4.053-.484-5.508-.324-1.455-.758-2.612-1.301-3.474-.543-.861-1.168-1.465-1.874-1.811-.706-.346-1.44-.519-2.203-.519-.749 0-1.472.173-2.172.519-.699.346-1.318.95-1.855 1.811-.538.862-.965 2.02-1.284 3.474s-.479 3.291-.48 5.507.157 4.053.474 5.507c.317 1.455.743 2.612 1.279 3.474.536.862 1.154 1.465 1.853 1.811.699.346 1.422.519 2.171.519.763 0 1.498-.173 2.204-.519.707-.346 1.332-.949 1.876-1.811.544-.861.979-2.019 1.306-3.474.325-1.453.489-3.289.49-5.506zM123.527 98.02c-.001 2.669-.289 4.988-.862 6.958-.573 1.97-1.366 3.598-2.376 4.883-1.011 1.285-2.205 2.242-3.583 2.87-1.377.628-2.864.942-4.46.942s-3.075-.314-4.438-.942c-1.363-.628-2.545-1.585-3.547-2.87-1.003-1.285-1.786-2.913-2.349-4.883-.564-1.97-.845-4.289-.843-6.958.001-2.683.285-5.006.852-6.969.566-1.962 1.351-3.586 2.354-4.872 1.003-1.285 2.187-2.242 3.551-2.87 1.363-.628 2.843-.943 4.439-.943s3.083.314 4.459.943c1.377.629 2.57 1.586 3.579 2.871 1.009 1.285 1.8 2.909 2.371 4.872.57 1.962.854 4.284.853 6.968zm-5.403 0c.001-2.217-.16-4.053-.484-5.507-.324-1.455-.758-2.613-1.301-3.475-.543-.861-1.168-1.465-1.874-1.811-.706-.346-1.44-.519-2.203-.519-.749 0-1.472.173-2.172.519-.699.346-1.318.95-1.855 1.811-.538.862-.965 2.02-1.284 3.474s-.479 3.291-.48 5.507.157 4.053.474 5.507c.317 1.455.743 2.612 1.279 3.474.536.862 1.154 1.465 1.853 1.811.699.346 1.422.519 2.171.519.763 0 1.498-.173 2.204-.519.707-.346 1.332-.949 1.876-1.811.544-.861.979-2.019 1.306-3.473.325-1.455.489-3.291.49-5.507zM126.273 110.114c0-.395.074-.766.223-1.112.148-.346.357-.649.625-.911.268-.261.594-.466.975-.614.381-.148.798-.222 1.25-.222.537 0 1.003.095 1.398.286.395.191.727.452.995.784s.466.713.592 1.144c.127.431.19.886.19 1.366 0 .678-.104 1.391-.309 2.14-.206.748-.506 1.497-.902 2.245s-.884 1.476-1.463 2.182c-.58.706-1.244 1.355-1.993 1.949l-.911-.826c-.254-.212-.381-.473-.381-.784 0-.113.039-.24.117-.381s.173-.268.286-.381l.573-.625c.226-.248.452-.53.678-.847.226-.318.435-.664.625-1.038.191-.375.329-.773.415-1.197-.438 0-.841-.081-1.208-.244-.367-.162-.682-.385-.942-.667-.261-.282-.465-.614-.614-.995-.145-.383-.219-.8-.219-1.252zM157.638 98.02c-.001 2.669-.289 4.988-.862 6.958-.573 1.97-1.366 3.598-2.376 4.883-1.011 1.285-2.205 2.242-3.583 2.87-1.377.628-2.864.942-4.46.942s-3.075-.314-4.438-.942c-1.363-.629-2.545-1.585-3.547-2.871-1.003-1.285-1.786-2.913-2.349-4.883-.564-1.97-.845-4.289-.843-6.958.001-2.683.285-5.006.852-6.969.566-1.962 1.351-3.586 2.354-4.872 1.003-1.285 2.187-2.242 3.551-2.87 1.363-.628 2.843-.943 4.439-.943s3.083.314 4.459.943c1.377.628 2.57 1.585 3.579 2.87 1.009 1.285 1.8 2.909 2.371 4.872.569 1.964.854 4.287.853 6.97zm-5.403 0c.001-2.217-.16-4.053-.484-5.507-.324-1.455-.758-2.612-1.301-3.474-.543-.861-1.168-1.465-1.874-1.811-.706-.346-1.44-.519-2.203-.519-.749 0-1.472.173-2.172.519-.699.346-1.318.95-1.855 1.811-.538.861-.965 2.019-1.284 3.474s-.479 3.291-.48 5.507.157 4.053.474 5.507c.317 1.455.743 2.612 1.279 3.474.536.862 1.154 1.465 1.853 1.811.699.346 1.422.519 2.171.519.763 0 1.498-.173 2.204-.519.707-.346 1.332-.949 1.876-1.811.544-.861.979-2.019 1.306-3.474.325-1.454.488-3.29.49-5.507zM182.214 98.021c-.001 2.669-.289 4.988-.862 6.958-.573 1.97-1.366 3.598-2.376 4.883-1.011 1.285-2.205 2.242-3.583 2.87-1.377.628-2.864.942-4.46.942s-3.075-.314-4.438-.942c-1.363-.629-2.545-1.585-3.547-2.871-1.003-1.285-1.786-2.913-2.349-4.883-.564-1.97-.845-4.289-.843-6.958.001-2.683.285-5.006.852-6.969.566-1.962 1.351-3.586 2.354-4.872 1.003-1.285 2.187-2.242 3.551-2.87 1.363-.628 2.843-.943 4.439-.943s3.083.314 4.459.943c1.377.628 2.57 1.585 3.579 2.87 1.009 1.285 1.8 2.909 2.371 4.872.57 1.964.855 4.286.853 6.97zm-5.402 0c.001-2.217-.16-4.053-.484-5.507-.324-1.455-.758-2.612-1.301-3.474-.543-.861-1.168-1.465-1.874-1.811-.706-.346-1.44-.519-2.203-.519-.749 0-1.472.173-2.172.519-.699.346-1.318.95-1.855 1.811-.538.862-.965 2.019-1.284 3.474s-.479 3.291-.48 5.507.157 4.053.474 5.507c.317 1.455.743 2.613 1.279 3.474.536.862 1.154 1.465 1.853 1.811.699.346 1.422.519 2.171.519.763 0 1.498-.173 2.204-.519.707-.346 1.332-.949 1.876-1.811.544-.861.979-2.019 1.306-3.474.324-1.455.488-3.291.49-5.507zM206.791 98.021c-.001 2.669-.289 4.988-.862 6.958-.573 1.97-1.366 3.598-2.376 4.883-1.011 1.285-2.205 2.242-3.583 2.87-1.377.628-2.864.942-4.46.942s-3.075-.314-4.438-.942c-1.363-.629-2.545-1.585-3.547-2.871-1.003-1.285-1.786-2.913-2.349-4.883-.564-1.97-.845-4.289-.843-6.958.001-2.683.285-5.006.852-6.969.566-1.962 1.351-3.586 2.354-4.872 1.003-1.285 2.187-2.242 3.551-2.87 1.363-.628 2.843-.943 4.439-.943s3.083.314 4.459.943c1.377.628 2.57 1.585 3.579 2.87 1.009 1.285 1.8 2.909 2.371 4.872.57 1.964.854 4.287.853 6.97zm-5.403 0c.001-2.217-.16-4.053-.484-5.507-.324-1.455-.758-2.612-1.301-3.474-.543-.861-1.168-1.465-1.874-1.811-.706-.346-1.44-.519-2.203-.519-.749 0-1.472.173-2.172.519-.699.346-1.318.95-1.855 1.811-.538.862-.965 2.019-1.284 3.474s-.479 3.291-.48 5.507.157 4.053.474 5.507c.317 1.455.743 2.613 1.279 3.474.536.862 1.154 1.465 1.853 1.811.699.346 1.422.519 2.171.519.763 0 1.498-.173 2.204-.519.707-.346 1.332-.949 1.876-1.811.544-.861.979-2.019 1.306-3.474.325-1.454.489-3.29.49-5.507z"/></g></svg>