<svg xmlns="http://www.w3.org/2000/svg" width="376" height="188" viewBox="0 0 376 188"><path fill-rule="evenodd" clip-rule="evenodd" fill="#EC2227" d="M252.707 41.292c-7.742 11.049-14.738 21.121-21.842 31.106-1.316 1.855-2.911 3.564-4.616 5.07-10.606 9.415-12.765 24.249-5.073 35.558 7.549 11.113 22.412 15.141 34.21 9.266 12.348-6.158 18.181-20.054 13.318-33.254-1.484-4.01-.892-6.704 1.865-9.322 2.851-2.697 5.848-5.244 9.526-8.516 5.812 6.564 11.709 12.24 16.375 18.794 4.188 5.883 3.628 12.75-1.295 18.202-20.257 22.422-40.567 44.777-61.346 66.714-2.793 2.943-8.334 4.603-12.611 4.627-53.643.307-107.275.196-160.925.178-10.05 0-20.101.05-30.14-.153-10.695-.218-16.714-5.969-16.739-16.582-.128-43.329-.118-86.668.061-130.011.043-10.806 6.443-16.757 17.353-16.761 63.439-.021 126.875-.071 190.312.286 4.445.018 9.821 2.144 13.129 5.116 7.107 6.357 13.151 13.909 18.438 19.682zM274.494 152.309c4.367-4.759 8.373-9.604 12.947-13.803 1.295-1.188 4.32-.849 6.514-.67 20.143 1.58 40.735-12.397 45.062-30.728 6.379-27.018-18.326-52.455-47.135-48.523-21.541 2.946-35.381 17.289-37.539 38.912-.663 6.6-4.455 10.328-10.229 10.042-5.658-.271-9.047-4.435-9.082-11.149-.111-23.172 17.185-45.662 41.405-53.846 31.163-10.535 66.65 4.955 78.359 34.21 12.237 30.557-3.589 65.009-34.781 75.715-17.533 6.018-32.224 6.072-45.521-.16z"/><path fill="#fff" d="M98.198 112.053l-.025 42.283h-20.137l.064-108.215h33.012c7.385 0 13.71.762 18.975 2.283 5.264 1.522 9.58 3.655 12.947 6.398 3.367 2.745 5.835 6.025 7.405 9.842s2.353 8.021 2.351 12.61c-.002 3.642-.541 7.085-1.616 10.328-1.076 3.244-2.623 6.187-4.646 8.83-2.022 2.645-4.52 4.965-7.489 6.96-2.971 1.996-6.353 3.592-10.146 4.79 2.544 1.448 4.738 3.518 6.584 6.211l27.074 39.964h-18.115c-1.747 0-3.231-.349-4.453-1.048-1.223-.698-2.258-1.695-3.105-2.993l-22.736-34.65c-.848-1.297-1.784-2.22-2.805-2.769-1.023-.548-2.533-.823-4.528-.823l-8.611-.001zm.008-14.444h12.576c3.792 0 7.099-.474 9.919-1.422 2.819-.946 5.14-2.256 6.963-3.928 1.822-1.671 3.184-3.654 4.083-5.95.899-2.294 1.35-4.814 1.352-7.559.003-5.488-1.804-9.703-5.42-12.647-3.617-2.943-9.143-4.416-16.578-4.416h-12.875l-.02 35.922z"/></svg>