<svg xmlns="http://www.w3.org/2000/svg" width="721" height="250.601" viewBox="0 0 721 250.601"><g><g fill="#fff"><path d="M433.746 178.315c1.149 0 2.186.156 3.111.467s1.715.743 2.37 1.294c.655.552 1.157 1.2 1.508 1.942.351.743.526 1.546.526 2.409 0 .754-.089 1.418-.267 1.992-.178.573-.437 1.073-.776 1.5s-.752.787-1.241 1.082c-.489.295-1.043.541-1.663.738 1.493.448 2.608 1.131 3.343 2.049.735.917 1.103 2.07 1.103 3.458 0 1.18-.23 2.224-.689 3.13-.459.907-1.08 1.669-1.861 2.287s-1.686 1.084-2.714 1.401c-1.028.316-2.117.475-3.266.475-1.252 0-2.344-.137-3.274-.41s-1.741-.677-2.43-1.213c-.689-.535-1.275-1.191-1.758-1.967s-.896-1.672-1.241-2.688l1.878-.737c.322-.131.649-.197.982-.197.299 0 .566.06.801.18.235.121.417.295.543.524.207.383.434.76.681 1.131.247.372.543.702.888.992s.75.524 1.215.705c.465.181 1.02.271 1.664.271.724 0 1.355-.112 1.896-.336.54-.224.991-.516 1.353-.877.362-.36.632-.762.81-1.205.178-.442.267-.888.267-1.335 0-.568-.063-1.084-.189-1.549-.126-.464-.391-.861-.793-1.188s-.979-.584-1.732-.771c-.753-.186-1.761-.278-3.025-.278v-2.901c1.045 0 1.913-.087 2.603-.262s1.238-.418 1.646-.729c.408-.312.692-.686.853-1.123.161-.437.241-.918.241-1.442 0-1.125-.322-1.975-.965-2.549-.644-.574-1.523-.86-2.637-.86-1.011 0-1.85.254-2.516.761-.667.508-1.132 1.16-1.396 1.956-.138.415-.328.712-.569.893s-.558.27-.948.27c-.184 0-.379-.016-.586-.048l-2.241-.371c.172-1.137.505-2.134 1-2.992s1.112-1.574 1.853-2.148c.741-.573 1.591-1.005 2.551-1.295.957-.291 1.988-.436 3.091-.436zM455.53 184.314c0 .896-.158 1.705-.474 2.426-.316.721-.739 1.336-1.267 1.844-.528.508-1.143.899-1.844 1.172-.701.273-1.431.41-2.189.41-.827 0-1.592-.137-2.292-.41-.701-.273-1.307-.664-1.818-1.172-.512-.508-.911-1.123-1.198-1.844-.288-.721-.431-1.53-.431-2.426 0-.917.144-1.748.431-2.491.287-.743.686-1.371 1.198-1.885.511-.513 1.117-.91 1.818-1.188.701-.279 1.465-.418 2.292-.418s1.594.139 2.301.418c.707.278 1.318.675 1.835 1.188.517.514.919 1.142 1.207 1.885.288.743.431 1.573.431 2.491zm8.29-5.097c.138-.164.31-.312.517-.442.207-.131.494-.197.862-.197h3.085l-18.51 23.093c-.138.175-.313.32-.525.435-.213.115-.468.172-.767.172h-3.171l18.509-23.061zm-11.581 5.097c0-.633-.063-1.164-.19-1.59-.126-.426-.301-.77-.525-1.032s-.489-.451-.793-.565c-.305-.115-.629-.172-.974-.172s-.667.058-.965.172-.557.303-.775.565-.388.606-.508 1.032c-.121.426-.181.957-.181 1.59 0 .612.061 1.123.181 1.533s.29.74.508.992.477.432.775.541c.299.109.621.164.965.164s.669-.055.974-.164c.304-.109.569-.289.793-.541s.399-.582.525-.992.19-.921.19-1.533zm17.355 12.391c0 .896-.158 1.705-.474 2.426-.316.721-.739 1.336-1.267 1.844-.528.508-1.143.902-1.844 1.18-.701.279-1.431.418-2.189.418-.827 0-1.592-.139-2.292-.418-.701-.278-1.307-.672-1.818-1.18-.512-.508-.911-1.123-1.198-1.844-.288-.721-.431-1.529-.431-2.426 0-.917.144-1.748.431-2.491.287-.743.686-1.371 1.198-1.885.511-.513 1.117-.91 1.818-1.188.701-.279 1.465-.418 2.292-.418s1.594.139 2.301.418c.707.278 1.318.675 1.835 1.188.517.514.919 1.142 1.207 1.885.287.743.431 1.573.431 2.491zm-3.275 0c0-.633-.066-1.164-.198-1.589-.132-.426-.31-.771-.534-1.033s-.489-.451-.793-.565c-.305-.115-.629-.172-.974-.172s-.667.058-.965.172-.554.303-.767.565c-.213.262-.382.606-.509 1.033-.126.426-.189.956-.189 1.589 0 .612.063 1.126.189 1.541s.296.749.509 1c.212.251.468.432.767.541.299.109.621.164.965.164s.669-.055.974-.164c.304-.109.569-.29.793-.541.224-.251.402-.584.534-1 .132-.415.198-.929.198-1.541zM392.807 210.507h1.95c.201 0 .369.047.504.143.135.095.226.223.272.384l2.122 7.461c.052.185.1.384.143.6l.125.686c.046-.242.096-.47.151-.686.055-.215.114-.415.177-.6l2.45-7.461c.046-.132.136-.253.271-.362s.3-.164.496-.164h.682c.201 0 .368.047.5.143.132.095.225.223.276.384l2.432 7.461c.126.368.236.776.328 1.225l.125-.647.134-.578 2.122-7.461c.04-.144.129-.268.267-.371.138-.104.305-.155.5-.155h1.82l-3.874 12.474h-2.096l-2.726-8.522-.108-.354-.108-.405-.108.405-.107.354-2.752 8.522h-2.096l-3.872-12.476zM417.978 222.98h-.958c-.202 0-.36-.03-.475-.09-.115-.061-.201-.183-.259-.367l-.19-.63c-.224.201-.444.378-.66.531s-.438.28-.668.384-.475.181-.733.233-.546.078-.862.078c-.374 0-.719-.051-1.035-.151-.316-.101-.588-.252-.815-.455-.227-.202-.404-.453-.53-.753-.127-.3-.19-.649-.19-1.047 0-.334.087-.665.263-.991.175-.326.467-.62.875-.882.408-.263.952-.48 1.63-.654.678-.173 1.521-.26 2.527-.26v-.521c0-.597-.125-1.039-.375-1.325-.25-.287-.614-.43-1.091-.43-.345 0-.633.04-.863.121s-.43.171-.6.271l-.47.272c-.144.081-.302.121-.475.121-.144 0-.268-.037-.371-.112-.104-.074-.187-.167-.25-.276l-.388-.681c1.018-.932 2.246-1.397 3.683-1.397.518 0 .979.084 1.385.254.405.169.749.405 1.031.707.282.302.496.663.643 1.083.146.419.22.879.22 1.38v5.587zm-4.141-1.328c.218 0 .419-.02.604-.059.184-.04.358-.099.522-.179.164-.079.322-.177.475-.292.152-.116.306-.253.461-.412v-1.481c-.621 0-1.14.039-1.557.117s-.752.178-1.005.3-.433.264-.539.426-.16.339-.16.53c0 .377.111.646.332.808.221.161.51.242.867.242zM422.98 223.119c-.765 0-1.354-.217-1.768-.651s-.621-1.034-.621-1.799v-4.942h-.897c-.115 0-.214-.038-.298-.112s-.125-.187-.125-.336v-.845l1.423-.233.449-2.416c.022-.115.076-.204.159-.268.083-.063.188-.095.315-.095h1.104v2.786h2.329v1.519h-2.329v4.796c0 .276.069.492.207.647.138.155.322.233.552.233.132 0 .243-.016.332-.047l.233-.099.177-.099.155-.048.155.048.129.142.639 1.035c-.311.259-.667.455-1.07.586-.401.131-.818.198-1.25.198zM430.407 213.992c.558 0 1.071.089 1.54.267s.873.438 1.212.781.604.762.793 1.259c.19.498.285 1.065.285 1.704l-.021.401-.078.25c-.038.061-.088.104-.151.129-.063.026-.144.039-.242.039h-5.469c.063.909.308 1.576.733 2.001.425.426.989.639 1.69.639.345 0 .643-.041.893-.121.25-.08.468-.169.655-.267l.492-.268s.277-.121.41-.121c.086 0 .161.017.225.052l.164.146.621.776c-.236.276-.5.508-.793.694-.293.187-.6.336-.918.449-.319.112-.645.191-.975.237-.331.046-.651.069-.962.069-.615 0-1.188-.102-1.716-.306-.529-.204-.989-.506-1.38-.906s-.699-.894-.923-1.484c-.224-.589-.336-1.272-.336-2.049 0-.604.098-1.171.293-1.704.195-.532.476-.995.841-1.389s.811-.706 1.337-.936c.525-.227 1.119-.342 1.78-.342zm.044 1.527c-.621 0-1.107.175-1.458.526-.351.351-.575.849-.673 1.492h4.002c0-.276-.037-.536-.112-.78-.075-.245-.19-.458-.345-.643-.155-.184-.351-.329-.586-.436-.236-.106-.512-.159-.828-.159zM435.971 222.98v-8.851h1.251c.218 0 .371.041.457.121s.144.218.172.414l.129 1.069c.316-.546.687-.978 1.113-1.294.426-.316.903-.474 1.432-.474.437 0 .799.101 1.087.302l-.276 1.596c-.017.104-.055.177-.112.22-.058.043-.135.064-.233.064-.086 0-.204-.02-.354-.061-.149-.04-.348-.06-.595-.06-.443 0-.822.122-1.139.367-.316.244-.583.603-.802 1.074v5.512h-2.13zM446.348 222.98v-8.851h1.251c.218 0 .371.041.457.121s.144.218.172.414l.129 1.069c.316-.546.687-.978 1.113-1.294.426-.316.903-.474 1.432-.474.437 0 .799.101 1.087.302l-.276 1.596c-.017.104-.055.177-.112.22-.058.043-.135.064-.233.064-.086 0-.204-.02-.354-.061-.149-.04-.348-.06-.595-.06-.443 0-.822.122-1.139.367-.316.244-.583.603-.802 1.074v5.512h-2.13zM457.053 213.992c.558 0 1.071.089 1.54.267s.873.438 1.212.781.604.762.793 1.259c.19.498.285 1.065.285 1.704l-.021.401-.078.25c-.038.061-.088.104-.151.129-.063.026-.144.039-.242.039h-5.469c.063.909.308 1.576.733 2.001.425.426.989.639 1.69.639.345 0 .643-.041.893-.121.25-.08.468-.169.655-.267l.492-.268s.277-.121.41-.121c.086 0 .161.017.225.052l.164.146.621.776c-.236.276-.5.508-.793.694-.293.187-.6.336-.918.449-.319.112-.645.191-.975.237-.331.046-.651.069-.962.069-.615 0-1.188-.102-1.716-.306-.529-.204-.989-.506-1.38-.906s-.699-.894-.923-1.484c-.224-.589-.336-1.272-.336-2.049 0-.604.098-1.171.293-1.704.195-.532.476-.995.841-1.389s.811-.706 1.337-.936c.525-.227 1.119-.342 1.78-.342zm.043 1.527c-.621 0-1.107.175-1.458.526-.351.351-.575.849-.673 1.492h4.002c0-.276-.037-.536-.112-.78-.075-.245-.19-.458-.345-.643-.155-.184-.351-.329-.586-.436-.236-.106-.512-.159-.828-.159zM464.885 210.162v12.818h-2.13v-12.818h2.13zM474.228 222.98h-.958c-.202 0-.36-.03-.475-.09-.115-.061-.201-.183-.259-.367l-.19-.63c-.224.201-.444.378-.66.531s-.438.28-.668.384-.475.181-.733.233-.546.078-.862.078c-.374 0-.719-.051-1.035-.151-.316-.101-.588-.252-.815-.455-.227-.202-.404-.453-.53-.753-.127-.3-.19-.649-.19-1.047 0-.334.087-.665.263-.991.175-.326.467-.62.875-.882.408-.263.952-.48 1.63-.654.678-.173 1.521-.26 2.527-.26v-.521c0-.597-.125-1.039-.375-1.325-.25-.287-.614-.43-1.091-.43-.345 0-.633.04-.863.121s-.43.171-.6.271l-.47.272c-.144.081-.302.121-.475.121-.144 0-.268-.037-.371-.112-.104-.074-.187-.167-.25-.276l-.388-.681c1.018-.932 2.246-1.397 3.683-1.397.518 0 .979.084 1.385.254.405.169.749.405 1.031.707.282.302.496.663.643 1.083.146.419.22.879.22 1.38v5.587zm-4.141-1.328c.218 0 .419-.02.604-.059.184-.04.358-.099.522-.179.164-.079.322-.177.475-.292.152-.116.306-.253.461-.412v-1.481c-.621 0-1.14.039-1.557.117s-.752.178-1.005.3-.433.264-.539.426-.16.339-.16.53c0 .377.111.646.332.808.221.161.51.242.867.242zM479.23 223.119c-.765 0-1.354-.217-1.768-.651s-.621-1.034-.621-1.799v-4.942h-.897c-.115 0-.214-.038-.298-.112s-.125-.187-.125-.336v-.845l1.423-.233.449-2.416c.022-.115.076-.204.159-.268.083-.063.188-.095.315-.095h1.104v2.786h2.329v1.519h-2.329v4.796c0 .276.069.492.207.647.138.155.322.233.552.233.132 0 .243-.016.332-.047l.233-.099.177-.099.155-.048.155.048.129.142.639 1.035c-.311.259-.667.455-1.07.586-.401.131-.818.198-1.25.198zM486.657 213.992c.558 0 1.071.089 1.54.267s.873.438 1.212.781.604.762.793 1.259c.19.498.285 1.065.285 1.704l-.021.401-.078.25c-.038.061-.088.104-.151.129-.063.026-.144.039-.242.039h-5.469c.063.909.308 1.576.733 2.001.425.426.989.639 1.69.639.345 0 .643-.041.893-.121.25-.08.468-.169.655-.267l.492-.268s.277-.121.41-.121c.086 0 .161.017.225.052l.164.146.621.776c-.236.276-.5.508-.793.694-.293.187-.6.336-.918.449-.319.112-.645.191-.975.237-.331.046-.651.069-.962.069-.615 0-1.188-.102-1.716-.306-.529-.204-.989-.506-1.38-.906s-.699-.894-.923-1.484c-.224-.589-.336-1.272-.336-2.049 0-.604.098-1.171.293-1.704.195-.532.476-.995.841-1.389s.811-.706 1.337-.936c.525-.227 1.119-.342 1.78-.342zm.044 1.527c-.621 0-1.107.175-1.458.526-.351.351-.575.849-.673 1.492h4.002c0-.276-.037-.536-.112-.78-.075-.245-.19-.458-.345-.643-.155-.184-.351-.329-.586-.436-.236-.106-.512-.159-.828-.159zM498.449 222.98c-.276 0-.457-.129-.543-.388l-.172-.854c-.184.207-.377.394-.578.561-.201.167-.418.311-.651.432-.233.121-.483.214-.75.28-.267.066-.556.099-.867.099-.483 0-.926-.101-1.329-.302s-.749-.493-1.04-.875c-.29-.383-.515-.855-.673-1.419-.158-.563-.237-1.208-.237-1.932 0-.656.089-1.265.267-1.829s.434-1.052.768-1.466c.333-.414.733-.738 1.199-.971s.989-.349 1.57-.349c.495 0 .917.079 1.268.237.351.158.665.37.94.634v-4.675h2.131v12.818h-1.303zm-2.838-1.561c.443 0 .819-.092 1.13-.276s.604-.446.88-.785v-3.968c-.242-.293-.504-.5-.789-.621s-.591-.181-.919-.181c-.322 0-.614.061-.875.181s-.483.303-.664.548c-.181.244-.321.555-.418.932-.098.376-.146.821-.146 1.333 0 .518.042.956.125 1.315.083.359.203.653.358.88.155.228.345.391.569.492s.473.15.749.15z"/></g><path fill-rule="evenodd" clip-rule="evenodd" fill="#ED1C24" d="M393.359 53.376h2.496c6.944 0 13.885-.005 20.83 0 7.312 0 14.623-.067 21.936.022 6.469.073 10.962 4.606 11.146 11.042.021.713.073 1.433.121 2.25h13.052c.114-.252.217-.379.227-.512 1.29-12.624-8.69-24.941-21.337-26.013-4.914-.417-9.888-.195-14.834-.252-.859-.012-1.712-.005-2.806-.005 0-2.174.231-4.047-.074-5.825-.231-1.338-.858-3.3-1.83-3.684-2.69-1.066-2.21-2.808-1.807-5.005 3.362 0 6.675.073 9.987-.029 1.893-.058 3.105-1.419 3.005-3.138-.103-1.849-1.197-2.77-2.992-2.931l-.441-.017c-8.422 0-16.843-.017-25.266.019-2.017.009-3.364 1.327-3.359 3.053.005 1.722 1.345 2.951 3.387 3.072.737.049 1.477.012 2.213.012h7.608v4.024c-3.157.68-4.125 2.807-3.863 5.772.085.953-.047 1.925.027 2.877.105 1.33-.387 1.85-1.757 1.812-2.808-.078-5.617-.013-8.419-.013-2.404.005-4.812 0-7.25 0v13.469zm86.701 14.687c-.019.263-.069.617-.063.969.127 5.751.564 11.514.317 17.249-.415 9.59-1.383 19.146-4.446 28.35-.359 1.079-.796 1.529-1.991 1.529-11.435-.009-22.867.037-34.303.103-1.561.011-2.457-.577-2.784-2.154-.72-3.459-1.655-6.878-2.258-10.358-1.933-11.176-2.739-22.422-1.683-33.756.07-.696.012-1.4.012-2.188-.733-.038-1.24-.073-1.749-.084-3.268-.049-3.375-.049-3.504 3.131-.18 4.571-.363 9.156-.228 13.722.381 12.46 2.247 24.694 6.187 36.551.931 2.808 2.162 3.603 5.096 3.603 11.819.006 23.644.006 35.465 0 3.232 0 4.501-.728 5.343-3.856 1.544-5.758 3.098-11.53 4.179-17.388 1.916-10.421 2.533-20.969 1.844-31.557-.301-4.576-.581-4.708-5.146-4.08-.067.009-.122.09-.288.214zm-10.78 9.624c-.186-1.329-.312-3.021-.687-4.66-.355-1.541-1.462-2.417-3.095-2.145-1.598.266-2.444 1.354-2.332 2.975.125 1.679.353 3.356.661 5.016.323 1.694 1.49 2.576 3.179 2.345 1.735-.239 2.422-1.479 2.274-3.531zm-26.168 32.012c.771-.903 1.864-1.694 2.226-2.742.517-1.497.564-3.169.681-4.772.123-1.686-.623-2.906-2.38-3.147-1.729-.243-2.825.642-3.158 2.342-.316 1.578-.596 3.175-.764 4.773-.186 1.705 1.25 3.178 3.395 3.546zm6.707-35.662c.092-1.76-.731-3.011-2.546-3.168-1.688-.153-2.756.834-3.006 2.556-.237 1.597-.513 3.196-.634 4.807-.115 1.61.723 2.729 2.32 2.986 1.73.278 2.848-.672 3.196-2.317.339-1.576.455-3.194.67-4.864zm16.948 28.41c.312 1.425.637 3.151 1.079 4.854.417 1.6 1.504 2.287 3.161 1.954 1.771-.359 2.45-1.531 2.244-3.227-.188-1.526-.495-3.037-.765-4.549-.307-1.716-1.315-2.642-3.08-2.436-1.753.203-2.378 1.483-2.639 3.404zm-18.813-14.664c-.081-1.282-.602-2.539-2.289-2.793-1.72-.262-2.898.515-3.217 2.261-.311 1.663-.561 3.348-.697 5.039-.131 1.635.709 2.723 2.345 2.95 1.746.235 2.84-.661 3.157-2.368.283-1.594.447-3.216.701-5.089zm11.262-10.058h.013c.002-.885.068-1.776-.005-2.652-.148-1.643-1.097-2.571-2.743-2.585-1.551-.014-2.592.885-2.719 2.374-.161 1.897-.155 3.838.033 5.737.149 1.514 1.237 2.298 2.797 2.238 1.566-.06 2.46-.92 2.61-2.46.083-.874.014-1.766.014-2.652zm12.063 14.491c-.233-1.618-.417-3.31-.723-4.978-.306-1.629-1.424-2.441-3.024-2.279-1.633.171-2.528 1.256-2.426 2.891.107 1.763.312 3.532.679 5.262.331 1.578 1.472 2.368 3.115 2.136 1.673-.239 2.347-1.365 2.379-3.032zm-12.077-.376h-.017c0-.888.043-1.775-.011-2.655-.1-1.583-1.043-2.431-2.558-2.521-1.544-.092-2.673.764-2.822 2.247-.194 1.97-.186 3.992.022 5.963.161 1.499 1.398 2.522 2.827 2.124.989-.271 1.962-1.354 2.477-2.324.401-.744.082-1.87.082-2.834zm.185 13.038h-.084c-.029-.585.158-1.356-.148-1.725-.733-.879-1.587-2.006-2.581-2.241-1.427-.335-2.634.706-2.787 2.211-.186 1.897-.18 3.844-.011 5.747.15 1.662 1.343 2.365 2.985 2.273 1.587-.084 2.42-.853 2.414-2.52 0-1.249.138-2.497.212-3.745z"/><g fill="#fff"><path d="M261.159 178.578v1.754c0 .524-.06.948-.181 1.27-.121.322-.238.593-.353.812l-9.427 18.487c-.196.383-.471.708-.828.976-.356.268-.839.401-1.448.401h-3.085l9.652-18.111c.402-.743.85-1.382 1.344-1.917h-11.927c-.264 0-.494-.093-.689-.279-.196-.186-.293-.404-.293-.655v-2.737h17.235zM274.825 184.314c0 .896-.158 1.705-.474 2.426-.316.721-.739 1.336-1.267 1.844-.528.508-1.143.899-1.844 1.172-.701.273-1.431.41-2.189.41-.827 0-1.592-.137-2.292-.41-.701-.273-1.307-.664-1.818-1.172-.512-.508-.911-1.123-1.198-1.844-.288-.721-.431-1.53-.431-2.426 0-.917.144-1.748.431-2.491.287-.743.686-1.371 1.198-1.885.511-.513 1.117-.91 1.818-1.188.701-.279 1.465-.418 2.292-.418s1.594.139 2.301.418c.707.278 1.318.675 1.835 1.188.517.514.919 1.142 1.207 1.885.288.743.431 1.573.431 2.491zm8.29-5.097c.138-.164.31-.312.517-.442.207-.131.494-.197.862-.197h3.085l-18.51 23.093c-.138.175-.313.32-.525.435-.213.115-.468.172-.767.172h-3.171l18.509-23.061zm-11.581 5.097c0-.633-.063-1.164-.19-1.59-.126-.426-.301-.77-.525-1.032s-.489-.451-.793-.565c-.305-.115-.629-.172-.974-.172s-.667.058-.965.172-.557.303-.775.565-.388.606-.508 1.032c-.121.426-.181.957-.181 1.59 0 .612.061 1.123.181 1.533s.29.74.508.992.477.432.775.541c.299.109.621.164.965.164s.669-.055.974-.164c.304-.109.569-.289.793-.541s.399-.582.525-.992.19-.921.19-1.533zm17.355 12.391c0 .896-.158 1.705-.474 2.426-.316.721-.739 1.336-1.267 1.844-.528.508-1.143.902-1.844 1.18-.701.279-1.431.418-2.189.418-.827 0-1.592-.139-2.292-.418-.701-.278-1.307-.672-1.818-1.18-.512-.508-.911-1.123-1.198-1.844-.288-.721-.431-1.529-.431-2.426 0-.917.144-1.748.431-2.491.287-.743.686-1.371 1.198-1.885.511-.513 1.117-.91 1.818-1.188.701-.279 1.465-.418 2.292-.418s1.594.139 2.301.418c.707.278 1.318.675 1.835 1.188.517.514.919 1.142 1.207 1.885.287.743.431 1.573.431 2.491zm-3.275 0c0-.633-.066-1.164-.198-1.589-.132-.426-.31-.771-.534-1.033s-.489-.451-.793-.565c-.305-.115-.629-.172-.974-.172s-.667.058-.965.172-.554.303-.767.565c-.213.262-.382.606-.509 1.033-.126.426-.189.956-.189 1.589 0 .612.063 1.126.189 1.541s.296.749.509 1c.212.251.468.432.767.541.299.109.621.164.965.164s.669-.055.974-.164c.304-.109.569-.29.793-.541.224-.251.402-.584.534-1 .132-.415.198-.929.198-1.541zM221.957 210.507v1.907h-3.752v10.567h-2.32v-10.567h-3.77v-1.907h9.842zM221.931 222.98v-8.851h1.251c.218 0 .371.041.457.121s.144.218.172.414l.129 1.069c.316-.546.687-.978 1.113-1.294.426-.316.903-.474 1.432-.474.437 0 .799.101 1.087.302l-.276 1.596c-.017.104-.055.177-.112.22-.058.043-.135.064-.233.064-.086 0-.204-.02-.354-.061-.149-.04-.348-.06-.595-.06-.443 0-.822.122-1.139.367-.316.244-.583.603-.802 1.074v5.512h-2.13zM235.664 222.98h-.958c-.202 0-.36-.03-.475-.09-.115-.061-.201-.183-.259-.367l-.19-.63c-.224.201-.444.378-.66.531s-.438.28-.668.384-.475.181-.733.233-.546.078-.862.078c-.374 0-.719-.051-1.035-.151-.316-.101-.588-.252-.815-.455-.227-.202-.404-.453-.53-.753-.127-.3-.19-.649-.19-1.047 0-.334.087-.665.263-.991.175-.326.467-.62.875-.882.408-.263.952-.48 1.63-.654.678-.173 1.521-.26 2.527-.26v-.521c0-.597-.125-1.039-.375-1.325-.25-.287-.614-.43-1.091-.43-.345 0-.633.04-.863.121s-.43.171-.6.271l-.47.272c-.144.081-.302.121-.475.121-.144 0-.268-.037-.371-.112-.104-.074-.187-.167-.25-.276l-.388-.681c1.018-.932 2.246-1.397 3.683-1.397.518 0 .979.084 1.385.254.405.169.749.405 1.031.707.282.302.496.663.643 1.083.146.419.22.879.22 1.38v5.587zm-4.141-1.328c.218 0 .419-.02.604-.059.184-.04.358-.099.522-.179.164-.079.322-.177.475-.292.152-.116.306-.253.461-.412v-1.481c-.621 0-1.14.039-1.557.117s-.752.178-1.005.3-.433.264-.539.426-.16.339-.16.53c0 .377.111.646.332.808.221.161.51.242.867.242zM238.139 222.98v-7.246l-.768-.121c-.167-.029-.301-.086-.401-.172-.101-.086-.151-.207-.151-.362v-.872h1.32v-.655c0-.506.076-.96.229-1.363.152-.402.371-.745.656-1.026s.631-.498 1.04-.647c.408-.149.868-.224 1.38-.224.409 0 .788.055 1.139.164l-.043 1.07c-.012.167-.089.271-.233.311s-.311.061-.5.061c-.253 0-.479.027-.677.082-.199.055-.367.15-.505.285-.138.135-.243.313-.315.535-.072.221-.107.496-.107.824v.586h2.303v1.519h-2.234v7.254h-2.133zM244.186 222.98v-7.246l-.768-.121c-.167-.029-.301-.086-.401-.172-.101-.086-.151-.207-.151-.362v-.872h1.32v-.285c0-.541.089-1.042.268-1.505.178-.462.449-.864.811-1.203s.819-.605 1.371-.798c.552-.193 1.205-.289 1.958-.289.241 0 .489.013.742.039s.472.068.656.125l-.069 1.104c-.011.132-.083.211-.215.237-.132.026-.296.039-.492.039-.558 0-1.025.049-1.402.147-.377.098-.682.243-.915.436-.233.192-.399.434-.5.725-.101.291-.151.628-.151 1.014v.215h5.486v8.773h-2.13v-7.254h-3.287v7.254h-2.131zM260.394 216.002l-.185.189c-.061.046-.148.069-.263.069-.109 0-.216-.033-.319-.099l-.371-.225c-.144-.083-.314-.158-.513-.224-.198-.066-.444-.099-.737-.099-.374 0-.702.067-.983.203s-.516.329-.703.582c-.187.253-.327.56-.418.919s-.138.767-.138 1.221c0 .472.05.891.151 1.259s.246.677.436.927.419.44.69.569.575.194.915.194.614-.042.824-.125c.21-.083.387-.176.53-.276l.375-.276s.226-.125.358-.125c.172 0 .302.066.388.198l.612.776c-.236.276-.492.508-.768.694-.276.187-.562.336-.858.449s-.603.191-.918.237c-.316.046-.63.069-.94.069-.546 0-1.061-.102-1.544-.306s-.904-.502-1.264-.893c-.359-.391-.644-.87-.854-1.436s-.315-1.212-.315-1.937c0-.65.093-1.252.28-1.807.187-.555.461-1.035.824-1.441.362-.405.811-.723 1.346-.953.535-.23 1.15-.345 1.846-.345.661 0 1.241.106 1.738.319.497.213.944.518 1.341.915l-.563.778zM265.734 222.98v-8.851h1.251c.218 0 .371.041.457.121s.144.218.172.414l.129 1.069c.316-.546.687-.978 1.113-1.294.426-.316.903-.474 1.432-.474.437 0 .799.101 1.087.302l-.276 1.596c-.017.104-.055.177-.112.22-.058.043-.135.064-.233.064-.086 0-.204-.02-.354-.061-.149-.04-.348-.06-.595-.06-.443 0-.822.122-1.139.367-.316.244-.583.603-.802 1.074v5.512h-2.13zM276.438 213.992c.558 0 1.071.089 1.54.267s.873.438 1.212.781.604.762.793 1.259c.19.498.285 1.065.285 1.704l-.021.401-.078.25c-.038.061-.088.104-.151.129-.063.026-.144.039-.242.039h-5.469c.063.909.308 1.576.733 2.001.425.426.989.639 1.69.639.345 0 .643-.041.893-.121.25-.08.468-.169.655-.267l.492-.268s.277-.121.41-.121c.086 0 .161.017.225.052l.164.146.621.776c-.236.276-.5.508-.793.694-.293.187-.6.336-.918.449-.319.112-.645.191-.975.237-.331.046-.651.069-.962.069-.615 0-1.188-.102-1.716-.306-.529-.204-.989-.506-1.38-.906s-.699-.894-.923-1.484c-.224-.589-.336-1.272-.336-2.049 0-.604.098-1.171.293-1.704.195-.532.476-.995.841-1.389s.811-.706 1.337-.936c.526-.227 1.119-.342 1.78-.342zm.044 1.527c-.621 0-1.107.175-1.458.526-.351.351-.575.849-.673 1.492h4.002c0-.276-.037-.536-.112-.78-.075-.245-.19-.458-.345-.643-.155-.184-.351-.329-.586-.436-.236-.106-.512-.159-.828-.159zM284.271 210.162v12.818h-2.13v-12.818h2.13zM293.613 222.98h-.958c-.202 0-.36-.03-.475-.09-.115-.061-.201-.183-.259-.367l-.19-.63c-.224.201-.444.378-.66.531s-.438.28-.668.384-.475.181-.733.233-.546.078-.862.078c-.374 0-.719-.051-1.035-.151-.316-.101-.588-.252-.815-.455-.227-.202-.404-.453-.53-.753-.127-.3-.19-.649-.19-1.047 0-.334.087-.665.263-.991.175-.326.467-.62.875-.882.408-.263.952-.48 1.63-.654.678-.173 1.521-.26 2.527-.26v-.521c0-.597-.125-1.039-.375-1.325-.25-.287-.614-.43-1.091-.43-.345 0-.633.04-.863.121s-.43.171-.6.271l-.47.272c-.144.081-.302.121-.475.121-.144 0-.268-.037-.371-.112-.104-.074-.187-.167-.25-.276l-.388-.681c1.018-.932 2.246-1.397 3.683-1.397.518 0 .979.084 1.385.254.405.169.749.405 1.031.707.282.302.496.663.643 1.083.146.419.22.879.22 1.38v5.587zm-4.141-1.328c.218 0 .419-.02.604-.059.184-.04.358-.099.522-.179.164-.079.322-.177.475-.292.152-.116.306-.253.461-.412v-1.481c-.621 0-1.14.039-1.557.117s-.752.178-1.005.3-.433.264-.539.426-.16.339-.16.53c0 .377.111.646.332.808.222.161.51.242.867.242zM298.616 223.119c-.765 0-1.354-.217-1.768-.651s-.621-1.034-.621-1.799v-4.942h-.897c-.115 0-.214-.038-.298-.112s-.125-.187-.125-.336v-.845l1.423-.233.449-2.416c.022-.115.076-.204.159-.268.083-.063.188-.095.315-.095h1.104v2.786h2.329v1.519h-2.329v4.796c0 .276.069.492.207.647.138.155.322.233.552.233.132 0 .243-.016.332-.047l.233-.099.177-.099.155-.048.155.048.129.142.639 1.035c-.311.259-.667.455-1.07.586-.402.131-.819.198-1.25.198zM306.042 213.992c.558 0 1.071.089 1.54.267s.873.438 1.212.781.604.762.793 1.259c.19.498.285 1.065.285 1.704l-.021.401-.078.25c-.038.061-.088.104-.151.129-.063.026-.144.039-.242.039h-5.469c.063.909.308 1.576.733 2.001.425.426.989.639 1.69.639.345 0 .643-.041.893-.121.25-.08.468-.169.655-.267l.492-.268s.277-.121.41-.121c.086 0 .161.017.225.052l.164.146.621.776c-.236.276-.5.508-.793.694-.293.187-.6.336-.918.449-.319.112-.645.191-.975.237-.331.046-.651.069-.962.069-.615 0-1.188-.102-1.716-.306-.529-.204-.989-.506-1.38-.906s-.699-.894-.923-1.484c-.224-.589-.336-1.272-.336-2.049 0-.604.098-1.171.293-1.704.195-.532.476-.995.841-1.389s.811-.706 1.337-.936c.526-.227 1.119-.342 1.78-.342zm.044 1.527c-.621 0-1.107.175-1.458.526-.351.351-.575.849-.673 1.492h4.002c0-.276-.037-.536-.112-.78-.075-.245-.19-.458-.345-.643-.155-.184-.351-.329-.586-.436-.236-.106-.512-.159-.828-.159zM317.834 222.98c-.276 0-.457-.129-.543-.388l-.172-.854c-.184.207-.377.394-.578.561-.201.167-.418.311-.651.432-.233.121-.483.214-.75.28-.267.066-.556.099-.867.099-.483 0-.926-.101-1.329-.302s-.749-.493-1.04-.875c-.29-.383-.515-.855-.673-1.419-.158-.563-.237-1.208-.237-1.932 0-.656.089-1.265.267-1.829s.434-1.052.768-1.466c.333-.414.733-.738 1.199-.971s.989-.349 1.57-.349c.495 0 .917.079 1.268.237.351.158.665.37.94.634v-4.675h2.131v12.818h-1.303zm-2.837-1.561c.443 0 .819-.092 1.13-.276s.604-.446.88-.785v-3.968c-.242-.293-.504-.5-.789-.621s-.591-.181-.919-.181c-.322 0-.614.061-.875.181s-.483.303-.664.548c-.181.244-.321.555-.418.932-.098.376-.146.821-.146 1.333 0 .518.042.956.125 1.315.083.359.203.653.358.88.155.228.345.391.569.492s.472.15.749.15z"/></g><g fill-rule="evenodd" clip-rule="evenodd" fill="#ED1C24"><path d="M222.507 71.897v-3.967c3.472.162 6.859.329 10.268.495 0-3.469.429-6.81-.114-9.984-.535-3.139-2.046-6.098-3.195-9.312h8.517c-2.502 6.16-4.852 12.279-3.344 19.284 3.243-.16 6.642-.32 10.211-.489v3.964c-3.368.195-6.823.397-10.417.615v3.498h10.476v3.723c-3.42.195-6.875.4-10.472.609v4.198c3.295-.273 6.546-.548 10.085-.838v3.23c0 10.043 0 20.082-.003 30.131 0 .577.013 1.167-.052 1.747-.294 2.819-2.33 4.668-5.049 4.609-2.688-.056-4.764-2.03-4.801-4.856-.08-5.772-.026-11.556-.026-17.328v-13.654c-1.752-.792-1.822.241-1.822 1.479.014 9.603.017 19.199.003 28.809-.003 3.227-1.753 5.342-4.506 5.538-3.191.228-5.373-1.937-5.39-5.454-.021-8.696-.003-17.396-.003-26.093v-8.172c3.403.304 6.608.584 10.001.884v-4.244c-3.437-.188-6.838-.374-10.337-.563v-3.977c3.482.166 6.877.316 10.39.482v-3.759c-3.44-.205-6.845-.394-10.42-.605zM297.447 66.705h-36.862c0-2.23-.006-4.358.003-6.48 0-.189.007-.488.124-.551 2.778-1.493 2.912-4.537 3.589-6.969 1.223-4.401 3.379-6.383 8.177-6.852 6.123-.596 12.026-.045 17.974.965.524.087 1.131.802 1.353 1.366 1.255 3.126 2.363 6.307 3.611 9.436.26.655.904 1.145 1.353 1.728.248.326.635.681.647 1.03.06 2.056.031 4.126.031 6.327zm-5.061-8.861c-.979-2.617-1.872-5.107-2.869-7.552-.167-.421-.784-.821-1.253-.923-6.154-1.346-12.325-1.366-18.482-.026-.46.098-1.107.353-1.245.701-1.021 2.546-1.948 5.137-2.934 7.794 4.624-.389 8.993-1.05 13.359-1.05 4.377.001 8.749.662 13.424 1.056zm-.36 2.596c-1.462.14-2.365.941-2.376 2.349-.013 1.425.887 2.351 2.315 2.351 1.413 0 2.321-.869 2.334-2.324.022-1.467-.905-2.191-2.273-2.376zm-28.374 2.216c.051 1.525.846 2.422 2.259 2.471 1.407.059 2.352-.805 2.409-2.233.055-1.438-.818-2.35-2.241-2.408-1.42-.053-2.261.781-2.427 2.17zM224.74 37.369c.625-1.76-.871-2.686-1.932-3.748-.926-.92-1.092-1.695-.695-3.041.893-2.973 2.837-4.414 5.532-5.832 4.248-2.229 8.079-2.483 12.07.146 1.447.951 3.455.864 4.396 2.846 1.316 2.807 2.19 5.31-.979 7.514-.429.297-.439 1.386-.429 2.102.115 5.238-3.845 9.4-9.021 9.417-5.084.013-9.036-4.065-8.942-9.404zm17.51-3.449c-.479-2.034-2.922-2.924-8.172-2.986-5.534-.065-8.424.891-8.964 2.986 5.686-2.363 11.354-2.395 17.136 0zm-11.501-6.751c2.983 2.063 3.432 2.051 5.87-.065-1.861-2.164-3.969-2.269-5.87.065zM242.865 49.243c2.887.616 4.77 2.409 6.246 4.675 2.552 3.907 3.652 8.354 3.967 12.881.397 5.558.385 11.146.327 16.709-.016 1.111-.775 2.571-1.66 3.227-2.065 1.52-4.71-.267-4.721-3.018-.013-4.414.225-8.834-.076-13.221-.231-3.329-.563-6.862-1.865-9.864-1.493-3.441-1.63-6.976-2.276-10.479-.045-.241.026-.503.058-.91zM224.651 49.471c-.746 3.575-.468 7.262-2.253 10.767-1.165 2.288-1.583 5.094-1.754 7.708-.328 4.975-.318 9.968-.294 14.952.02 2.649-.932 4.23-3.045 4.312-2.052.082-3.296-1.293-3.385-3.836-.276-7.653-.599-15.35 1.598-22.787.837-2.853 2.293-5.633 3.968-8.104 1.027-1.513 3.013-2.376 4.567-3.537l.598.525zM300.984 79.194c2.868-.749 4.794.193 6.71 2.136 7.872 7.982 15.899 15.809 23.882 23.685.314.31.674.57.858 1.313-2.864 0-5.734.032-8.597-.046-.408-.007-.897-.457-1.209-.831-7.085-8.511-14.159-17.048-21.229-25.574-.148-.187-.253-.409-.415-.683zM291.947 79.152c2.683-.615 4.521-.032 6.135 2.614 4.97 8.169 10.285 16.132 15.718 24.548-3.241 0-6.163.033-9.075-.039-.309-.007-.711-.515-.878-.876-3.998-8.619-7.962-17.25-11.923-25.879-.047-.097.01-.244.023-.368zM246.969 106.347c4.644-7.246 9.046-14.107 13.449-20.973.697-1.092 1.409-2.171 2.111-3.266 2.15-3.345 2.15-3.345 6.275-3.021-.09.368-.115.743-.262 1.066-3.807 8.294-7.596 16.591-11.489 24.847-.292.617-1.279 1.246-1.973 1.281-2.573.154-5.169.066-8.111.066zM266.029 106.347c2.577-9.349 5.052-18.312 7.521-27.267h4.554c-.53 5.724-1.044 11.324-1.559 16.921-.268 2.9-.571 5.805-.772 8.712-.072 1.214-.489 1.702-1.756 1.66-2.58-.091-5.169-.026-7.988-.026zM294.568 106.247h-9.404c-.852-9.072-1.69-18.052-2.554-27.267 1.401 0 2.566-.114 3.691.055.443.072 1.012.707 1.155 1.19 1.188 4.032 2.296 8.091 3.409 12.142 1.16 4.225 2.326 8.455 3.479 12.683.087.306.121.621.224 1.197zM297.435 67.698c-.159 1.196.714 2.479-1.169 2.931-.273.069-.093 1.688-.254 2.565-.16.896-.314 2.405-.775 2.526-1.312.345-2.772.231-4.153.059-.32-.045-.687-1.018-.742-1.588-.121-1.157-.035-2.331-.035-3.647h-22.636c0 1.063-.061 2.142.01 3.208.107 1.646-.55 2.351-2.249 2.356-3.318.02-3.48-.102-3.537-3.442-.02-.902.526-2.062-1.048-2.506-.301-.086-.223-1.506-.337-2.462h36.925zM222.409 65.85c2.582-.392 4.922-1.104 5.428-4.101-1.201-.838-2.183-4.7-1.249-5.773.419-.488 1.489-.553 2.273-.547.433 0 1.115.443 1.265.845 1.136 3.054-2.602 9.883-5.812 10.062-.589.029-1.184.089-1.771.131l-.134-.617zM285.006 49.835c1.806.017 3.302 1.595 3.258 3.423-.054 1.783-1.452 3.148-3.258 3.169-1.891.013-3.363-1.419-3.354-3.271.006-1.841 1.531-3.347 3.354-3.321z"/></g><g fill="#fff"><path d="M44.789 182.581c1.149 0 2.186.155 3.111.467s1.715.743 2.37 1.295c.655.552 1.158 1.199 1.508 1.942.35.743.525 1.546.525 2.41 0 .754-.089 1.417-.267 1.991s-.437 1.074-.775 1.5c-.339.426-.753.787-1.241 1.082-.489.295-1.043.541-1.664.737 1.494.448 2.608 1.131 3.344 2.049.735.917 1.103 2.071 1.103 3.458 0 1.18-.23 2.224-.689 3.13-.459.907-1.08 1.669-1.861 2.287s-1.686 1.084-2.714 1.401c-1.028.316-2.117.475-3.266.475-1.252 0-2.344-.137-3.274-.41s-1.741-.677-2.43-1.213c-.689-.535-1.275-1.191-1.758-1.967-.482-.775-.896-1.672-1.241-2.688l1.878-.737c.321-.131.649-.197.982-.197.298 0 .566.06.801.18.235.121.417.295.543.524.207.383.434.76.681 1.131.247.372.543.703.888.992.345.29.75.524 1.215.705.465.18 1.02.27 1.663.27.724 0 1.356-.112 1.896-.336.54-.224.991-.516 1.353-.877.362-.36.632-.762.81-1.205.178-.442.267-.887.267-1.335 0-.568-.063-1.084-.19-1.549s-.391-.86-.792-1.188c-.402-.328-.98-.584-1.732-.77-.753-.186-1.761-.279-3.025-.279v-2.901c1.045 0 1.913-.087 2.603-.262s1.238-.418 1.646-.729c.408-.312.692-.686.853-1.123.161-.437.241-.918.241-1.442 0-1.125-.322-1.975-.965-2.548-.644-.574-1.522-.861-2.637-.861-1.011 0-1.85.254-2.516.762-.667.507-1.132 1.159-1.396 1.956-.138.415-.328.713-.569.893-.241.18-.558.27-.948.27-.184 0-.379-.016-.586-.048l-2.241-.371c.172-1.137.505-2.134 1-2.992s1.112-1.574 1.853-2.148c.741-.574 1.591-1.005 2.55-1.295.959-.292 1.99-.436 3.093-.436zM72.898 182.843v1.753c0 .524-.061.948-.181 1.271s-.239.593-.353.811l-9.428 18.487c-.195.383-.471.708-.827.976s-.839.401-1.448.401h-3.085l9.651-18.11c.402-.743.85-1.382 1.344-1.918h-11.925c-.264 0-.494-.092-.689-.278-.195-.186-.293-.404-.293-.656v-2.737h17.234zM75.259 204.313c0-.338.066-.661.198-.967.132-.306.315-.568.551-.787.235-.218.514-.393.836-.524.321-.131.666-.196 1.034-.196.356 0 .695.065 1.017.196.322.131.597.306.827.524.23.219.414.481.552.787.138.306.207.628.207.967 0 .35-.069.675-.207.975-.138.301-.322.56-.552.779-.23.218-.505.391-.827.516s-.661.188-1.017.188c-.368 0-.713-.063-1.034-.188-.322-.125-.601-.298-.836-.516-.236-.219-.419-.478-.551-.779-.132-.3-.198-.625-.198-.975zM98.801 184.563c0 .579-.192 1.049-.577 1.41-.385.36-1.026.541-1.922.541h-6.859l-.896 4.95c1.126-.218 2.154-.328 3.085-.328 1.31 0 2.461.186 3.456.557.994.372 1.83.885 2.507 1.541.678.656 1.189 1.423 1.534 2.303.345.88.517 1.828.517 2.844 0 1.257-.233 2.404-.698 3.442s-1.112 1.926-1.939 2.663c-.827.738-1.807 1.309-2.938 1.713-1.132.404-2.364.606-3.697.606-.781 0-1.522-.077-2.223-.229-.701-.153-1.359-.358-1.974-.615-.615-.256-1.183-.551-1.706-.885-.523-.333-.991-.686-1.404-1.057l1.31-1.721c.276-.371.644-.557 1.103-.557.287 0 .577.088.87.262.293.175.635.366 1.026.574.39.208.844.399 1.361.574s1.143.262 1.878.262c.781 0 1.471-.12 2.068-.361.597-.24 1.094-.576 1.491-1.008s.695-.945.896-1.541c.201-.595.302-1.243.302-1.942 0-1.289-.394-2.297-1.181-3.024-.787-.726-1.945-1.09-3.473-1.09-1.207 0-2.419.208-3.636.623l-2.654-.721 2.068-11.505h12.306v1.719zM114.312 188.579c0 .896-.158 1.705-.474 2.425-.316.721-.738 1.336-1.267 1.844-.529.508-1.144.899-1.844 1.172s-1.43.41-2.188.41c-.827 0-1.592-.137-2.292-.41s-1.307-.664-1.818-1.172c-.512-.508-.911-1.123-1.198-1.844-.287-.721-.431-1.529-.431-2.425 0-.918.144-1.748.431-2.491s.687-1.371 1.198-1.885c.511-.514 1.117-.91 1.818-1.188s1.465-.418 2.292-.418 1.594.139 2.301.418 1.318.675 1.835 1.188.919 1.142 1.207 1.885c.285.743.43 1.573.43 2.491zm8.289-5.097c.138-.164.311-.312.517-.443.207-.131.494-.196.862-.196h3.085l-18.51 23.093c-.138.175-.313.32-.526.435-.212.115-.468.172-.767.172h-3.171l18.51-23.061zm-11.581 5.097c0-.634-.063-1.164-.189-1.59s-.302-.771-.525-1.033c-.224-.262-.489-.451-.793-.565-.305-.115-.629-.172-.974-.172s-.667.057-.965.172-.557.303-.775.565-.388.606-.508 1.033c-.121.426-.181.956-.181 1.59 0 .612.06 1.123.181 1.532.121.41.29.74.508.992s.477.432.775.541.621.164.965.164.669-.054.974-.164c.304-.109.569-.29.793-.541.224-.251.399-.582.525-.992s.189-.92.189-1.532zm17.355 12.391c0 .896-.158 1.704-.474 2.425s-.738 1.336-1.267 1.844c-.529.508-1.144.901-1.844 1.18-.701.279-1.43.418-2.189.418-.827 0-1.591-.139-2.292-.418-.701-.278-1.307-.672-1.818-1.18-.511-.508-.911-1.123-1.198-1.844s-.431-1.529-.431-2.425c0-.918.144-1.748.431-2.491s.687-1.371 1.198-1.885c.511-.513 1.118-.909 1.818-1.188s1.465-.418 2.292-.418c.828 0 1.594.139 2.301.418.707.279 1.318.675 1.835 1.188.517.514.919 1.142 1.206 1.885s.432 1.573.432 2.491zm-3.275 0c0-.634-.066-1.164-.198-1.59-.132-.426-.311-.771-.535-1.033-.224-.262-.488-.451-.792-.565-.305-.115-.629-.172-.974-.172-.344 0-.666.057-.965.172s-.555.303-.767.565-.382.606-.508 1.033c-.126.426-.189.956-.189 1.59 0 .612.063 1.125.189 1.541s.296.749.508 1c.212.251.468.432.767.541.299.109.621.164.965.164.345 0 .669-.055.974-.164.304-.109.569-.29.792-.541.224-.251.402-.584.535-1 .132-.416.198-.929.198-1.541zM62.037 217.038c-.063.126-.137.216-.22.268-.083.052-.183.078-.298.078-.115 0-.244-.044-.388-.134l-.509-.297c-.195-.109-.424-.208-.686-.298-.262-.089-.571-.133-.927-.133-.322 0-.603.039-.841.116-.238.078-.439.186-.604.323-.164.138-.286.304-.367.496-.081.193-.121.404-.121.634 0 .293.082.538.246.733.164.196.38.362.651.5.27.138.578.262.923.371.345.109.697.226 1.057.35.359.124.711.267 1.056.431.345.164.652.371.923.621.27.25.487.557.651.919.164.362.246.802.246 1.319 0 .563-.096 1.091-.289 1.583-.192.492-.474.92-.845 1.285-.371.365-.823.652-1.358.862-.535.21-1.147.315-1.837.315-.396 0-.788-.039-1.173-.117s-.754-.188-1.108-.332c-.354-.144-.685-.316-.992-.518-.308-.201-.583-.425-.824-.672l.673-1.113c.063-.08.139-.148.229-.203.089-.055.188-.082.297-.082.144 0 .299.059.466.177.167.118.363.249.591.393.227.144.494.275.802.393s.677.177 1.108.177c.661 0 1.173-.157 1.535-.47.362-.313.543-.763.543-1.35 0-.328-.082-.595-.246-.802-.164-.207-.381-.38-.651-.521-.27-.141-.578-.26-.922-.358-.345-.098-.696-.204-1.052-.319-.356-.115-.708-.253-1.052-.414-.345-.161-.653-.371-.923-.63s-.487-.582-.651-.97c-.164-.388-.246-.867-.246-1.436 0-.454.091-.897.272-1.328s.445-.813.793-1.147c.348-.333.774-.601 1.28-.802s1.084-.302 1.734-.302c.736 0 1.414.115 2.035.345s1.15.552 1.587.966l-.568 1.093zM70.705 220.263l-.186.19c-.06.046-.148.069-.263.069-.109 0-.215-.033-.319-.099l-.371-.224c-.144-.083-.315-.158-.513-.225-.199-.066-.444-.099-.738-.099-.374 0-.701.068-.983.203-.282.135-.516.33-.703.583-.187.253-.327.559-.418.918-.092.359-.138.766-.138 1.22 0 .471.05.891.151 1.259.101.368.246.677.436.927s.42.44.69.569c.271.129.575.194.915.194.339 0 .613-.042.823-.125.21-.083.387-.175.53-.276l.375-.276s.226-.125.358-.125c.172 0 .302.066.388.198l.612.776c-.236.276-.492.507-.768.694-.276.187-.562.336-.858.449-.296.112-.602.191-.918.237-.316.046-.629.069-.94.069-.546 0-1.061-.102-1.544-.306-.483-.204-.904-.501-1.263-.893s-.644-.87-.854-1.436-.314-1.212-.314-1.936c0-.65.093-1.252.28-1.807.187-.555.461-1.035.823-1.44.362-.405.811-.723 1.346-.953s1.15-.345 1.846-.345c.661 0 1.24.106 1.737.319.498.213.945.518 1.341.914l-.56.777zM72.713 227.24v-12.815h2.13v4.924c.345-.328.725-.592 1.138-.793.414-.201.9-.302 1.458-.302.483 0 .911.082 1.285.246.374.164.686.394.936.69.25.296.44.65.569 1.061s.194.864.194 1.358v5.632h-2.13v-5.632c0-.54-.125-.958-.375-1.254-.25-.296-.625-.444-1.125-.444-.368 0-.713.083-1.035.25-.322.167-.626.394-.914.681v6.399h-2.131zM86.297 218.254c.661 0 1.26.106 1.798.319.538.213.996.515 1.375.906s.673.868.88 1.432.311 1.193.311 1.889c0 .702-.104 1.334-.311 1.897s-.5 1.043-.88 1.44c-.379.397-.838.702-1.375.914-.538.213-1.137.319-1.798.319-.662 0-1.262-.106-1.803-.319-.541-.212-1.002-.517-1.384-.914-.382-.396-.678-.876-.888-1.44s-.315-1.196-.315-1.897c0-.696.105-1.325.315-1.889s.506-1.041.888-1.432.844-.693 1.384-.906c.541-.213 1.141-.319 1.803-.319zm0 7.477c.736 0 1.28-.247 1.634-.742.354-.494.53-1.219.53-2.173s-.177-1.682-.53-2.182c-.354-.5-.898-.75-1.634-.75-.748 0-1.3.251-1.656.754-.356.503-.535 1.229-.535 2.178s.178 1.672.535 2.169c.356.497.908.746 1.656.746zM96.103 218.254c.661 0 1.26.106 1.798.319.538.213.996.515 1.375.906s.673.868.88 1.432.311 1.193.311 1.889c0 .702-.104 1.334-.311 1.897s-.5 1.043-.88 1.44c-.379.397-.838.702-1.375.914-.538.213-1.137.319-1.798.319-.662 0-1.262-.106-1.803-.319-.541-.212-1.002-.517-1.384-.914-.382-.396-.678-.876-.888-1.44s-.315-1.196-.315-1.897c0-.696.105-1.325.315-1.889s.506-1.041.888-1.432.844-.693 1.384-.906c.54-.213 1.141-.319 1.803-.319zm0 7.477c.736 0 1.28-.247 1.634-.742.354-.494.53-1.219.53-2.173s-.177-1.682-.53-2.182c-.354-.5-.898-.75-1.634-.75-.748 0-1.3.251-1.656.754-.356.503-.535 1.229-.535 2.178s.178 1.672.535 2.169c.356.497.908.746 1.656.746zM104.399 214.425v12.815h-2.13v-12.815h2.13zM112.057 220.117c-.058.092-.118.157-.181.194-.063.038-.144.056-.242.056-.104 0-.214-.029-.332-.086l-.41-.194s-.332-.137-.53-.194c-.198-.058-.433-.086-.703-.086-.42 0-.75.089-.992.267-.241.179-.362.411-.362.699 0 .19.062.349.185.479s.288.243.492.341.436.186.694.263l.793.254c.27.092.535.197.793.315.259.118.49.267.694.448.204.181.368.398.491.651.124.253.186.558.186.915 0 .425-.078.818-.233 1.177s-.382.67-.681.931c-.299.262-.668.466-1.108.612-.439.146-.944.22-1.513.22-.305 0-.603-.027-.893-.082-.291-.055-.569-.131-.837-.229-.267-.098-.515-.213-.742-.345-.227-.132-.427-.276-.599-.431l.492-.811c.063-.098.138-.172.224-.224.086-.052.195-.078.328-.078s.257.037.375.112l.41.242c.155.086.338.167.548.241.209.075.476.112.798.112.253 0 .47-.03.651-.09.181-.061.331-.14.448-.237.118-.098.204-.211.259-.341s.082-.263.082-.401c0-.207-.062-.376-.186-.509s-.288-.247-.491-.345c-.204-.098-.437-.185-.699-.263l-.802-.254c-.273-.092-.541-.2-.802-.324-.262-.124-.495-.28-.699-.47-.204-.19-.368-.423-.492-.699s-.185-.609-.185-1c0-.362.072-.707.215-1.035.144-.328.355-.614.634-.858s.627-.44 1.044-.586c.417-.146.898-.22 1.444-.22.609 0 1.164.101 1.665.302.5.201.917.466 1.25.793l-.481.768z"/></g><g fill-rule="evenodd" clip-rule="evenodd" fill="#ED1C24"><path d="M117.441 35.225c-.896.688-5.846 4.5-7.92 6.337-3.572 3.167-7.287 5.767-12.47 4.771-.772-.148-1.659.277-2.608.462v-4.715c4.554 5.571 8.79 2.482 9.835 1.652 2.334-1.857 2.125-6.247.148-8.179-2.749-2.686-7.058-2.058-9.944 2.246v-18.446h56.854v42.248h-45.591c0-3.011-.12-5.791.078-8.548.052-.799.841-1.714 1.532-2.271 3.508-2.805 10.173-7.679 13.737-10.408m-.256-4.633l.928-.878"/><path d="M111.327 88.961c-3.622 2.257-3.812 2.188-5.072-1.294-1.674-4.636-3.385-9.263-5.089-13.889-.207-.553-.464-6.204-.944-7.183-.481 1.002-.865 6.709-1.088 7.324-1.728 4.711-3.433 9.431-5.155 14.148-.513 1.396-.657 2.947-3.049 2.125-2.334-.81-1.665-2.034-1.113-3.51.941-2.518 1.6-5.176 2.808-7.553 3.112-6.115 3.444-23.022 3.174-24.165-1.824 2.961-3.819 6.481-5.451 9.106-2.262 3.655-5.155 2.229-2.32-2.426 2.157-4.03 4.614-8.53 6.706-12.599.7-1.375 1.575-2.129 3.14-1.853 4.151.731 7.246-1.082 10.416-3.628 1.872-1.496 3.806-2.989 5.719-4.469 2.87-2.215 5.856-.252 3.694 2.439-.492.615-7.61 6.083-11.308 9.009-.826.661-1.476 2.039-1.497 3.106-.12 5.367-.093 10.579-.018 15.865.018 1.134.297 2.307.675 3.382 1.893 5.395 3.854 10.755 5.772 16.065zM104.942 39.614c-.024 2.679-2.111 4.696-4.807 4.641-2.592-.057-4.537-2.02-4.589-4.601-.052-2.651 2.043-4.809 4.669-4.817 2.609-.014 4.737 2.14 4.727 4.777zM68.555 76.122c.147-.154.442-.4.407-.461-.572-1.022-1.501-1.547-2.565-1.043-.836.394-1.848 1.052-2.14 1.83-.947 2.513-1.804 5.095-2.295 7.725-.435 2.316 1.019 3.645 3.417 3.661 1.493.015 2.985.034 4.479.063.08 0 .153.086.308.172-.218 2.648-.432 5.327-.651 8.021 1.148.452 1.562.108 1.613-1.056.071-1.888.28-3.773.728-5.655.325 1.761.64 3.514.955 5.272.19 1.082.628 1.948 1.904 1.69 1.217-.246 1.271-1.178 1.076-2.196-.459-2.432-.907-4.86-1.328-7.295-.205-1.193-.578-2.168-2.081-2.369.456-.113.903-.326 1.367-.333 2.38-.027 4.771.019 7.148-.016 1.327-.023 1.942.52 2.039 1.88.259 3.351.604 6.688.933 10.177l1.441.09c-.273-3.342-.526-6.533-.791-9.732-.087-1.002-.536-1.99.317-2.953.246-.279.042-.972.042-1.555h-15.047c.18.927.346 1.714.535 2.622h-3.244c.596-1.964 1.161-3.849 1.722-5.734-.703-.322-1.511-.527-2.088-1.011-.331-.289-.434-1.041-.354-1.53.045-.231.777-.399 1.225-.469.286-.046.617.13.928.205zM67.123 88.714h-7.475c-.413 2.409-.827 4.772-1.247 7.254h9.951c-.406-2.392-.802-4.753-1.229-7.254zM67.43 71.691c.012 1.695 1.312 3.021 2.995 3.035 1.671.009 3.01-1.313 3.025-3.002.03-1.729-1.378-3.154-3.065-3.119-1.655.036-2.965 1.4-2.955 3.086zM68.555 76.122c-.311-.074-.642-.251-.928-.205-.447.069-1.18.237-1.225.469-.079.489.023 1.241.354 1.53.577.483 1.385.688 2.088 1.011 2.146.372 4.279.771 6.429 1.107.81.125 1.604-.124 1.613-1.08.015-.961-.758-1.101-1.582-1.127-2.366-.08-4.719-.257-6.749-1.705zM36.785 83.294c.154-.175.478-.443.443-.507-.627-1.127-1.653-1.701-2.814-1.149-.927.435-2.031 1.155-2.354 2.013-1.038 2.759-1.979 5.594-2.52 8.48-.474 2.546 1.12 4.003 3.75 4.023 1.642.016 3.283.037 4.916.067.094.002.178.096.344.19-.233 2.907-.474 5.851-.715 8.812 1.259.495 1.717.118 1.765-1.164.083-2.072.312-4.141.811-6.209.348 1.93.709 3.857 1.041 5.79.211 1.188.693 2.142 2.1 1.855 1.333-.269 1.39-1.297 1.179-2.412-.498-2.67-.999-5.338-1.454-8.012-.229-1.312-.639-2.379-2.296-2.6.499-.125 1.003-.359 1.496-.365 2.625-.034 5.246.021 7.861-.024 1.459-.021 2.131.579 2.241 2.07.278 3.676.66 7.346 1.02 11.177l1.591.097c-.297-3.668-.583-7.175-.882-10.683-.091-1.104-.58-2.193.355-3.249.28-.309.045-1.064.045-1.705h-16.528c.205 1.014.383 1.88.595 2.879h-3.56l1.889-6.298c-.778-.351-1.671-.577-2.294-1.113-.372-.313-.479-1.141-.389-1.681.045-.253.852-.438 1.339-.516.319-.05.684.15 1.025.234zM35.21 97.12h-8.212c-.454 2.646-.902 5.246-1.373 7.97h10.934c-.446-2.633-.887-5.221-1.349-7.97zM35.546 78.428c.006 1.859 1.442 3.315 3.285 3.33 1.836.011 3.302-1.437 3.323-3.296.029-1.9-1.51-3.468-3.363-3.427-1.819.04-3.249 1.537-3.245 3.393zM36.785 83.294c-.341-.084-.706-.284-1.026-.232-.487.078-1.294.263-1.339.516-.09.54.017 1.367.389 1.681.623.536 1.516.763 2.294 1.113 2.352.409 4.698.847 7.06 1.215.885.139 1.757-.136 1.769-1.186.019-1.05-.836-1.206-1.738-1.239-2.6-.086-5.18-.281-7.409-1.868zM107.647 100.847c.14-.165.417-.427.39-.481-.624-.998-1.586-1.478-2.615-.923-.817.435-1.803 1.139-2.054 1.934-.826 2.546-1.557 5.167-1.93 7.815-.323 2.334 1.185 3.592 3.577 3.5 1.493-.056 2.987-.105 4.485-.146.078-.003.161.076.317.159-.094 2.65-.183 5.337-.276 8.042 1.17.396 1.572.032 1.562-1.131-.011-1.894.104-3.781.468-5.682.399 1.738.802 3.477 1.197 5.218.239 1.068.715 1.92 1.982 1.604 1.198-.309 1.21-1.242.969-2.249-.568-2.402-1.132-4.813-1.67-7.224-.257-1.184-.681-2.137-2.196-2.266.451-.137.901-.368 1.355-.397 2.374-.144 4.767-.206 7.143-.354 1.321-.084 1.96.432 2.132 1.785.406 3.329.909 6.652 1.401 10.12l1.448.023c-.426-3.323-.83-6.504-1.253-9.681-.136-1.002-.63-1.968.182-2.969.241-.292-.004-.971-.033-1.556-4.995.233-9.876.463-15.036.703l.663 2.597-3.238.156c.498-1.997.974-3.902 1.454-5.812-.722-.288-1.545-.455-2.128-.912-.355-.268-.494-1.019-.43-1.514.029-.231.756-.435 1.192-.525.294-.059.628.104.942.166zM106.807 113.491c-2.54.117-4.938.231-7.466.35l-.91 7.306c3.348-.159 6.572-.309 9.938-.466-.51-2.375-1.019-4.712-1.562-7.19zM106.318 96.469c.075 1.697 1.45 2.959 3.127 2.894 1.669-.068 2.94-1.452 2.885-3.139-.057-1.73-1.524-3.089-3.213-2.973-1.646.115-2.889 1.535-2.799 3.218zM107.647 100.847c-.314-.062-.648-.226-.941-.165-.437.091-1.163.294-1.192.525-.064.495.074 1.246.43 1.514.583.457 1.406.624 2.128.912 2.15.271 4.309.569 6.474.802.81.088 1.593-.199 1.559-1.149-.028-.962-.814-1.067-1.636-1.056-2.364.03-4.728-.035-6.822-1.383zM76.243 109.499c.154-.184.467-.467.423-.529-.677-1.097-1.728-1.62-2.866-1.017-.897.476-1.973 1.251-2.259 2.123-.904 2.802-1.714 5.682-2.112 8.589-.36 2.563 1.298 3.944 3.928 3.844 1.639-.064 3.281-.117 4.923-.168.087-.002.172.089.35.18-.103 2.907-.206 5.864-.31 8.829 1.287.438 1.729.039 1.718-1.241-.019-2.076.108-4.149.511-6.24.44 1.909.884 3.82 1.32 5.735.266 1.175.782 2.108 2.179 1.756 1.316-.332 1.326-1.363 1.063-2.464-.623-2.643-1.246-5.286-1.83-7.937-.292-1.301-.749-2.35-2.414-2.487.498-.152.984-.406 1.487-.438 2.609-.154 5.23-.226 7.844-.387 1.453-.092 2.152.473 2.334 1.958.452 3.659 1.004 7.306 1.54 11.117l1.593.024c-.473-3.653-.912-7.142-1.375-10.634-.145-1.098-.69-2.164.199-3.259.264-.32-.006-1.065-.033-1.709l-16.508.772.721 2.851c-.904.044-2.011.098-3.553.167.55-2.187 1.07-4.284 1.595-6.38-.793-.314-1.697-.496-2.344-.998-.383-.301-.538-1.122-.473-1.666.039-.253.839-.476 1.319-.575.32-.065.686.112 1.03.184zM75.322 123.38c-2.793.133-5.427.259-8.199.385-.332 2.663-.658 5.282-1.005 8.025l10.925-.512c-.571-2.607-1.126-5.175-1.721-7.898zM74.784 104.692c.093 1.862 1.592 3.248 3.427 3.173 1.842-.075 3.235-1.59 3.175-3.45-.06-1.894-1.673-3.388-3.523-3.262-1.812.13-3.171 1.688-3.079 3.539zM76.243 109.499c-.344-.071-.71-.249-1.03-.184-.48.1-1.28.322-1.319.575-.065.544.09 1.365.473 1.666.646.502 1.551.684 2.344.998 2.368.303 4.73.629 7.107.884.887.097 1.755-.218 1.716-1.266-.039-1.055-.891-1.169-1.801-1.157-2.603.035-5.191-.038-7.49-1.516z"/></g><g fill="#fff"><path d="M614.45 178.316c1.149 0 2.186.156 3.111.467s1.715.743 2.37 1.295c.655.552 1.157 1.199 1.508 1.942.351.743.526 1.546.526 2.409 0 .754-.089 1.418-.267 1.992-.179.573-.437 1.073-.776 1.5s-.752.787-1.241 1.082c-.489.295-1.043.541-1.663.738 1.493.448 2.608 1.131 3.343 2.049.735.917 1.103 2.07 1.103 3.458 0 1.18-.23 2.224-.689 3.13-.459.907-1.08 1.669-1.861 2.287s-1.686 1.084-2.714 1.401c-1.028.316-2.117.475-3.266.475-1.252 0-2.344-.137-3.274-.41s-1.741-.677-2.43-1.213c-.689-.535-1.275-1.191-1.758-1.967s-.896-1.672-1.241-2.688l1.878-.737c.322-.131.649-.197.982-.197.299 0 .566.06.801.18.235.121.417.295.543.524.207.383.434.76.681 1.131.247.372.543.702.888.992s.75.524 1.215.705c.465.181 1.02.271 1.664.271.724 0 1.355-.112 1.896-.336.54-.224.991-.516 1.353-.877.362-.36.632-.762.81-1.205.178-.442.267-.888.267-1.335 0-.568-.063-1.084-.189-1.549-.126-.464-.391-.861-.793-1.188s-.979-.584-1.732-.771c-.753-.186-1.761-.278-3.025-.278v-2.901c1.045 0 1.913-.087 2.603-.262s1.238-.418 1.646-.729c.408-.312.692-.686.853-1.123.161-.437.241-.918.241-1.442 0-1.125-.322-1.975-.965-2.549-.644-.574-1.523-.86-2.637-.86-1.011 0-1.85.254-2.516.761-.667.508-1.132 1.16-1.396 1.956-.138.415-.328.712-.569.893s-.558.27-.948.27c-.184 0-.379-.016-.586-.048l-2.241-.371c.172-1.137.505-2.134 1-2.992s1.112-1.574 1.853-2.148c.741-.573 1.591-1.005 2.551-1.295.957-.292 1.988-.437 3.091-.437zM636.234 184.315c0 .896-.158 1.705-.474 2.426-.316.721-.739 1.336-1.267 1.844-.528.508-1.143.899-1.844 1.172-.701.273-1.431.41-2.189.41-.827 0-1.592-.137-2.292-.41-.701-.273-1.307-.664-1.818-1.172-.512-.508-.911-1.123-1.198-1.844-.288-.721-.431-1.529-.431-2.426 0-.917.144-1.748.431-2.491.287-.743.686-1.371 1.198-1.885.511-.513 1.117-.91 1.818-1.188.701-.279 1.465-.418 2.292-.418s1.594.139 2.301.418c.707.278 1.318.675 1.835 1.188.517.514.919 1.142 1.207 1.885.288.743.431 1.573.431 2.491zm8.29-5.097c.138-.164.31-.311.517-.442.207-.131.494-.197.862-.197h3.085l-18.51 23.093c-.138.175-.313.32-.525.435-.213.115-.468.172-.767.172h-3.171l18.509-23.061zm-11.581 5.097c0-.633-.063-1.164-.19-1.59-.126-.426-.301-.77-.525-1.032s-.489-.451-.793-.565c-.305-.115-.629-.172-.974-.172s-.667.058-.965.172-.557.303-.775.565-.388.606-.508 1.032c-.121.426-.181.957-.181 1.59 0 .612.061 1.123.181 1.533s.29.74.508.992.477.432.775.541c.299.109.621.164.965.164s.669-.055.974-.164c.304-.109.569-.289.793-.541s.399-.582.525-.992.19-.921.19-1.533zm17.355 12.391c0 .896-.158 1.705-.474 2.426-.316.721-.739 1.336-1.267 1.844-.528.508-1.143.902-1.844 1.18-.701.279-1.431.418-2.189.418-.827 0-1.592-.139-2.292-.418-.701-.278-1.307-.672-1.818-1.18-.512-.508-.911-1.123-1.198-1.844-.288-.721-.431-1.529-.431-2.426 0-.917.144-1.748.431-2.491.287-.743.686-1.371 1.198-1.885.511-.513 1.117-.91 1.818-1.188.701-.279 1.465-.418 2.292-.418s1.594.139 2.301.418c.707.278 1.318.675 1.835 1.188.517.514.919 1.142 1.207 1.885.287.743.431 1.573.431 2.491zm-3.275 0c0-.633-.066-1.164-.198-1.589-.132-.426-.31-.771-.534-1.033s-.489-.451-.793-.565c-.305-.115-.629-.172-.974-.172s-.667.058-.965.172-.554.303-.767.565c-.213.262-.382.606-.509 1.033-.126.426-.189.956-.189 1.589 0 .612.063 1.126.189 1.541s.296.749.509 1c.212.251.468.432.767.541.299.109.621.164.965.164s.669-.055.974-.164c.304-.109.569-.29.793-.541.224-.251.402-.584.534-1 .132-.415.198-.929.198-1.541zM596.305 222.981h-2.337v-5.452h-5.849v5.452h-2.338v-12.474h2.338v5.366h5.849v-5.366h2.337v12.474zM602.36 213.993c.558 0 1.071.089 1.54.267s.873.438 1.212.781.604.762.793 1.259c.19.498.285 1.065.285 1.704l-.021.401-.078.25c-.038.061-.088.104-.151.129-.063.026-.144.039-.242.039h-5.469c.063.909.308 1.576.733 2.001.425.426.989.639 1.69.639.345 0 .643-.041.893-.121.25-.08.468-.169.655-.267l.492-.268s.277-.121.41-.121c.086 0 .161.017.225.052l.164.146.621.776c-.236.276-.5.508-.793.694-.293.187-.6.336-.918.449-.319.112-.645.191-.975.237-.331.046-.651.069-.962.069-.615 0-1.188-.102-1.716-.306-.529-.204-.989-.506-1.38-.906s-.699-.894-.923-1.484c-.224-.589-.336-1.272-.336-2.049 0-.604.098-1.171.293-1.704.195-.532.476-.995.841-1.389s.811-.706 1.337-.936c.525-.228 1.119-.342 1.78-.342zm.044 1.527c-.621 0-1.107.175-1.458.526-.351.351-.575.849-.673 1.492h4.002c0-.276-.037-.536-.112-.78-.075-.245-.19-.458-.345-.643s-.351-.33-.586-.436c-.236-.106-.512-.159-.828-.159zM614.86 222.981h-.958c-.202 0-.36-.03-.475-.09-.115-.061-.201-.183-.259-.367l-.19-.63c-.224.201-.444.378-.66.531s-.438.28-.668.384-.475.181-.733.233-.546.078-.862.078c-.374 0-.719-.051-1.035-.151-.316-.101-.588-.252-.815-.455-.227-.202-.404-.453-.53-.753-.127-.3-.19-.649-.19-1.047 0-.334.087-.665.263-.991.175-.326.467-.62.875-.882.408-.263.952-.48 1.63-.654.678-.173 1.521-.26 2.527-.26v-.521c0-.597-.125-1.039-.375-1.325-.25-.287-.614-.43-1.091-.43-.345 0-.633.04-.863.121s-.43.171-.6.271l-.47.272c-.144.081-.302.121-.475.121-.144 0-.268-.037-.371-.112s-.187-.167-.25-.276l-.388-.681c1.018-.932 2.246-1.397 3.683-1.397.518 0 .979.084 1.385.254.405.169.749.405 1.031.707.282.302.496.663.643 1.083.146.419.22.879.22 1.38v5.587zm-4.141-1.329c.218 0 .419-.02.604-.059.184-.04.358-.099.522-.179.164-.079.322-.177.475-.292.152-.116.306-.253.461-.412v-1.481c-.621 0-1.14.039-1.557.117s-.752.178-1.005.3-.433.264-.539.426-.16.339-.16.53c0 .377.111.646.332.808.222.161.51.242.867.242zM619.224 210.163v12.818h-2.13v-12.818h2.13zM624.538 223.119c-.765 0-1.354-.217-1.768-.651s-.621-1.034-.621-1.799v-4.942h-.897c-.115 0-.214-.038-.298-.112s-.125-.187-.125-.336v-.845l1.423-.233.449-2.416c.022-.115.076-.204.159-.268.083-.063.188-.095.315-.095h1.104v2.786h2.329v1.519h-2.329v4.796c0 .276.069.492.207.647.138.155.322.233.552.233.132 0 .243-.016.332-.047l.233-.099.177-.099.155-.048.155.048.129.142.639 1.035c-.311.259-.667.455-1.07.586-.402.132-.819.198-1.25.198zM628.308 222.981v-12.818h2.131v4.925c.345-.328.724-.592 1.138-.793s.9-.302 1.458-.302c.483 0 .912.082 1.285.246.374.164.686.394.936.69.25.296.44.65.569 1.061.129.412.194.864.194 1.359v5.633h-2.131v-5.633c0-.541-.125-.959-.375-1.255-.25-.296-.625-.444-1.126-.444-.368 0-.713.083-1.035.25s-.627.394-.914.682v6.4h-2.13zM644.334 216.002l-.186.19c-.06.046-.148.069-.263.069-.109 0-.216-.033-.319-.099l-.371-.225c-.144-.083-.314-.158-.513-.224-.198-.066-.444-.099-.737-.099-.374 0-.702.067-.983.203s-.516.329-.703.583c-.187.253-.327.559-.418.918s-.138.767-.138 1.221c0 .472.05.892.151 1.259.101.368.246.677.436.927.189.25.419.44.69.569s.575.194.915.194.614-.042.824-.125c.21-.083.387-.176.53-.276l.375-.276s.226-.125.358-.125c.172 0 .302.066.388.198l.612.776c-.236.276-.492.508-.768.694-.276.187-.562.336-.858.449s-.603.191-.918.237c-.316.046-.63.069-.94.069-.546 0-1.061-.102-1.544-.306s-.904-.502-1.264-.893c-.359-.391-.644-.87-.854-1.436s-.315-1.212-.315-1.937c0-.65.093-1.252.28-1.807.187-.555.461-1.035.824-1.441.362-.405.811-.723 1.346-.953s1.15-.345 1.846-.345c.661 0 1.241.106 1.738.319.497.213.944.518 1.341.915l-.562.777zM653.28 222.981h-.958c-.202 0-.36-.03-.475-.09-.115-.061-.201-.183-.259-.367l-.19-.63c-.224.201-.444.378-.66.531s-.438.28-.668.384-.475.181-.733.233-.546.078-.862.078c-.374 0-.719-.051-1.035-.151-.316-.101-.588-.252-.815-.455-.227-.202-.404-.453-.53-.753-.127-.3-.19-.649-.19-1.047 0-.334.087-.665.263-.991.175-.326.467-.62.875-.882.408-.263.952-.48 1.63-.654.678-.173 1.521-.26 2.527-.26v-.521c0-.597-.125-1.039-.375-1.325-.25-.287-.614-.43-1.091-.43-.345 0-.633.04-.863.121s-.43.171-.6.271l-.47.272c-.144.081-.302.121-.475.121-.144 0-.268-.037-.371-.112s-.187-.167-.25-.276l-.388-.681c1.018-.932 2.246-1.397 3.683-1.397.518 0 .979.084 1.385.254.405.169.749.405 1.031.707.282.302.496.663.643 1.083.146.419.22.879.22 1.38v5.587zm-4.141-1.329c.218 0 .419-.02.604-.059.184-.04.358-.099.522-.179.164-.079.322-.177.475-.292.152-.116.306-.253.461-.412v-1.481c-.621 0-1.14.039-1.557.117s-.752.178-1.005.3-.433.264-.539.426-.16.339-.16.53c0 .377.111.646.332.808.222.161.51.242.867.242zM655.376 222.981v-8.851h1.251c.218 0 .371.041.457.121s.144.218.172.414l.129 1.069c.316-.546.687-.978 1.113-1.294.426-.316.903-.474 1.432-.474.437 0 .799.101 1.087.302l-.276 1.596c-.017.104-.055.177-.112.22-.058.043-.135.064-.233.064-.086 0-.204-.02-.354-.06-.149-.041-.348-.061-.595-.061-.443 0-.822.122-1.139.367-.316.244-.583.603-.802 1.074v5.512h-2.13zM666.081 213.993c.558 0 1.071.089 1.54.267s.873.438 1.212.781.604.762.793 1.259c.19.498.285 1.065.285 1.704l-.021.401-.078.25c-.038.061-.088.104-.151.129-.063.026-.144.039-.242.039h-5.469c.063.909.308 1.576.733 2.001.425.426.989.639 1.69.639.345 0 .643-.041.893-.121.25-.08.468-.169.655-.267l.492-.268s.277-.121.41-.121c.086 0 .161.017.225.052l.164.146.621.776c-.236.276-.5.508-.793.694-.293.187-.6.336-.918.449-.319.112-.645.191-.975.237-.331.046-.651.069-.962.069-.615 0-1.188-.102-1.716-.306-.529-.204-.989-.506-1.38-.906s-.699-.894-.923-1.484c-.224-.589-.336-1.272-.336-2.049 0-.604.098-1.171.293-1.704.195-.532.476-.995.841-1.389s.811-.706 1.337-.936c.525-.228 1.118-.342 1.78-.342zm.043 1.527c-.621 0-1.107.175-1.458.526-.351.351-.575.849-.673 1.492h4.002c0-.276-.037-.536-.112-.78-.075-.245-.19-.458-.345-.643s-.351-.33-.586-.436c-.236-.106-.512-.159-.828-.159z"/></g><g fill-rule="evenodd" clip-rule="evenodd"><path fill="#ED1C24" d="M586.781 93.497c-2.007-1.605-2.623-3.655-2.611-6.244.105-15.468.184-30.94-.015-46.408-.071-5.249 2.084-6.94 7.114-6.874 5.23.068 9.405-.033 14.271-.041 3.976-.006 5.886 1.11 6.341 4.916.562 4.687 3.405 5.627 7.781 5.55 2.752-.049 5.462-.021 8.316-.006 6.688-.015 11.461.109 12.133-7.793.159-1.843 1.246-2.648 3.215-2.614 6.146.1 12.292.018 18.444.067 3.699.032 5.237 2.002 5.219 5.667-.063 16.063-.063 32.129.019 48.196.014 2.43-.857 4.18-2.677 5.608-2.244 2.195-5.133 1.856-7.86 1.864-20.612.064-41.227.066-61.839-.002-2.723-.007-5.617.331-7.851-1.886z"/><path fill="#E0E0E0" d="M586.781 93.497c25.853.01 51.697.017 77.551.024"/><g fill="#FCFCFC"><path d="M643.314 70.913c0 3.02-2.446 5.468-5.467 5.468h-23.261c-3.018 0-5.465-2.448-5.465-5.468 0-3.019 2.447-5.467 5.465-5.467h23.261c3.021 0 5.467 2.448 5.467 5.467zM625.92 53.916c3.02 0 5.467 2.447 5.467 5.467v23.262c0 3.018-2.447 5.466-5.467 5.466-3.021 0-5.465-2.448-5.465-5.466v-23.263c0-3.019 2.444-5.466 5.465-5.466z"/></g></g></g></svg>