<svg xmlns="http://www.w3.org/2000/svg" width="571.433" height="250.601" viewBox="0 0 571.433 250.601"><g><g fill="#fff"><path d="M340.308 166.496c1.298 0 2.469.176 3.514.527 1.044.352 1.937.839 2.676 1.462s1.307 1.354 1.703 2.193c.396.84.594 1.747.594 2.722 0 .852-.101 1.601-.302 2.249-.202.647-.493 1.212-.876 1.693s-.85.889-1.401 1.222c-.552.333-1.178.61-1.878.833 1.687.506 2.945 1.277 3.776 2.313.831 1.037 1.246 2.339 1.246 3.906 0 1.332-.26 2.511-.779 3.535s-1.22 1.885-2.102 2.582c-.883.697-1.904 1.225-3.065 1.583-1.162.357-2.391.536-3.688.536-1.415 0-2.647-.154-3.698-.463-1.051-.308-1.966-.765-2.745-1.369-.779-.604-1.44-1.345-1.985-2.222-.545-.876-1.012-1.888-1.401-3.035l2.122-.833c.363-.148.733-.223 1.109-.223.337 0 .639.068.905.204.266.136.47.333.613.592.234.433.49.858.769 1.277.279.42.613.793 1.002 1.12s.847.593 1.372.796c.525.204 1.151.306 1.878.306.817 0 1.531-.127 2.141-.38.61-.253 1.119-.583 1.528-.99s.713-.86.915-1.36c.201-.5.302-1.003.302-1.509 0-.642-.072-1.225-.214-1.749-.143-.524-.441-.972-.896-1.342s-1.106-.66-1.956-.87c-.85-.21-1.989-.314-3.416-.314v-3.276c1.181 0 2.161-.099 2.939-.296.779-.197 1.398-.473 1.859-.824s.782-.774.964-1.268c.181-.494.272-1.037.272-1.629 0-1.271-.364-2.23-1.09-2.879-.727-.647-1.719-.972-2.978-.972-1.142 0-2.089.287-2.842.86s-1.278 1.31-1.577 2.209c-.155.469-.37.805-.642 1.008s-.629.305-1.071.305c-.208 0-.428-.019-.662-.055l-2.53-.419c.195-1.283.571-2.41 1.129-3.379.558-.969 1.255-1.777 2.092-2.426.837-.647 1.797-1.136 2.881-1.463s2.247-.488 3.493-.488zM364.91 173.271c0 1.012-.178 1.925-.535 2.739s-.834 1.509-1.431 2.083c-.597.573-1.292 1.015-2.083 1.323-.792.309-1.616.463-2.472.463-.934 0-1.797-.154-2.589-.463s-1.476-.75-2.053-1.323c-.578-.574-1.029-1.269-1.353-2.083s-.486-1.728-.486-2.739c0-1.036.162-1.975.486-2.813s.775-1.549 1.353-2.129c.577-.58 1.262-1.027 2.053-1.342s1.655-.472 2.589-.472 1.8.157 2.599.472c.798.314 1.489.762 2.073 1.342s1.038 1.29 1.363 2.129c.324.838.486 1.776.486 2.813zm9.362-5.757c.156-.185.351-.352.584-.5.234-.147.558-.222.973-.222h3.484l-20.905 26.081c-.156.197-.354.36-.594.49s-.529.194-.866.194h-3.582l20.906-26.043zm-13.08 5.757c0-.716-.071-1.314-.214-1.796-.143-.48-.341-.869-.594-1.166-.253-.296-.552-.509-.896-.639-.344-.129-.71-.194-1.1-.194s-.753.065-1.09.194c-.338.13-.63.343-.876.639-.247.297-.438.686-.574 1.166-.136.481-.205 1.08-.205 1.796 0 .691.068 1.268.205 1.73s.328.836.574 1.12c.246.284.538.487.876.61.337.124.701.186 1.09.186s.756-.062 1.1-.186c.344-.123.643-.326.896-.61s.451-.657.594-1.12c.143-.463.214-1.039.214-1.73zm19.601 13.993c0 1.013-.178 1.926-.535 2.74s-.834 1.509-1.431 2.082c-.597.574-1.291 1.019-2.083 1.333s-1.616.472-2.472.472c-.934 0-1.797-.157-2.588-.472-.792-.314-1.477-.759-2.054-1.333-.578-.573-1.029-1.268-1.353-2.082s-.486-1.728-.486-2.74c0-1.036.162-1.974.486-2.813.324-.839.775-1.548 1.353-2.128.577-.58 1.262-1.027 2.054-1.343.791-.314 1.654-.472 2.588-.472.935 0 1.801.157 2.599.472.798.315 1.489.763 2.073 1.343.584.58 1.038 1.289 1.363 2.128.324.839.486 1.777.486 2.813zm-3.698 0c0-.715-.075-1.313-.224-1.795-.149-.481-.351-.87-.604-1.166s-.552-.509-.895-.639c-.344-.13-.71-.194-1.1-.194-.389 0-.752.064-1.09.194s-.626.343-.866.639-.432.685-.574 1.166c-.143.481-.214 1.08-.214 1.795 0 .691.071 1.271.214 1.74.143.47.334.846.574 1.129.24.284.529.488.866.611s.701.185 1.09.185c.39 0 .756-.062 1.1-.185.343-.123.642-.327.895-.611.253-.283.454-.659.604-1.129.149-.469.224-1.049.224-1.74zM294.072 202.852h2.202c.227 0 .417.054.57.16.152.107.255.252.307.434l2.396 8.427c.059.208.112.434.161.678l.141.774c.052-.272.108-.531.17-.774.062-.244.128-.47.2-.678l2.767-8.427c.052-.149.154-.285.307-.409.152-.123.339-.185.56-.185h.77c.228 0 .416.054.565.16.149.107.253.252.312.434l2.747 8.427c.143.416.267.877.37 1.384l.142-.73.151-.653 2.396-8.427c.045-.162.146-.302.302-.419.156-.116.344-.175.565-.175h2.056l-4.375 14.087h-2.367l-3.079-9.625-.122-.399-.122-.458-.122.458-.122.399-3.108 9.625h-2.367l-4.373-14.088zM322.5 216.938h-1.082c-.227 0-.406-.034-.536-.103s-.228-.206-.292-.414l-.214-.711c-.253.228-.501.427-.745.6-.244.172-.495.316-.755.433-.26.117-.536.205-.828.264-.292.059-.617.088-.974.088-.422 0-.812-.058-1.169-.171-.357-.114-.665-.285-.921-.514-.257-.228-.457-.512-.599-.851-.143-.339-.214-.732-.214-1.183 0-.378.099-.751.297-1.119.198-.368.527-.7.989-.997.461-.297 1.075-.542 1.841-.738.766-.195 1.718-.293 2.854-.293v-.589c0-.674-.142-1.173-.424-1.497-.283-.324-.693-.486-1.232-.486-.39 0-.715.046-.974.137-.26.091-.486.193-.677.307l-.531.308c-.162.091-.341.136-.536.136-.162 0-.302-.042-.419-.126-.117-.085-.211-.188-.282-.312l-.438-.77c1.149-1.052 2.536-1.578 4.16-1.578.584 0 1.106.096 1.563.287.458.192.846.458 1.165.799.318.342.56.749.726 1.223.166.475.249.994.249 1.56v6.31zm-4.677-1.5c.247 0 .474-.022.682-.067.208-.045.404-.112.589-.201.185-.09.364-.2.536-.331s.346-.286.521-.465v-1.674c-.702 0-1.288.045-1.759.133s-.849.201-1.135.339c-.286.137-.489.298-.609.48-.12.184-.18.383-.18.599 0 .425.125.729.375.912.251.184.577.275.98.275zM328.149 217.095c-.864 0-1.529-.245-1.997-.736-.467-.49-.701-1.167-.701-2.031v-5.582h-1.013c-.13 0-.242-.042-.336-.127-.094-.084-.141-.211-.141-.38v-.954l1.607-.264.507-2.728c.026-.13.086-.23.18-.302.094-.071.212-.107.355-.107h1.247v3.146h2.63v1.715h-2.63v5.417c0 .312.078.555.234.73.156.176.363.263.624.263.149 0 .274-.018.375-.053l.263-.112.2-.112.176-.054c.071 0 .13.019.175.054l.146.161.721 1.169c-.351.292-.753.513-1.208.662s-.926.225-1.414.225zM336.538 206.787c.63 0 1.209.101 1.739.302.529.201.985.495 1.369.882s.682.86.896 1.423c.214.562.322 1.203.322 1.924 0 .182-.008.333-.024.453s-.045.214-.088.282c-.042.068-.099.117-.17.146l-.272.044h-6.177c.071 1.025.348 1.779.828 2.26s1.117.721 1.91.721c.39 0 .726-.045 1.008-.136.282-.091.529-.192.74-.303l.555-.302s.313-.137.463-.137c.097 0 .182.02.253.059.071.039.133.095.185.166l.701.877c-.266.312-.565.573-.896.784-.332.211-.677.38-1.038.506-.36.127-.728.217-1.101.269s-.735.078-1.086.078c-.695 0-1.341-.116-1.939-.347s-1.117-.571-1.559-1.022c-.442-.451-.789-1.01-1.042-1.676s-.38-1.437-.38-2.313c0-.682.11-1.323.331-1.924.221-.602.538-1.124.95-1.569.412-.444.916-.797 1.51-1.057s1.265-.39 2.012-.39zm.048 1.725c-.702 0-1.25.198-1.646.594-.396.396-.649.958-.76 1.686h4.521c0-.312-.042-.605-.127-.882-.084-.275-.214-.518-.39-.726s-.396-.372-.663-.492c-.266-.121-.578-.18-.935-.18zM342.821 216.938v-9.995h1.413c.247 0 .419.045.516.136.098.091.162.247.195.468l.146 1.208c.357-.617.776-1.104 1.257-1.461s1.02-.536 1.617-.536c.494 0 .903.114 1.228.341l-.312 1.803c-.02.117-.062.199-.127.248s-.152.073-.263.073c-.098 0-.231-.022-.399-.068-.169-.045-.393-.068-.672-.068-.5 0-.929.139-1.286.414-.357.276-.659.681-.906 1.213v6.226h-2.407zM354.541 216.938v-9.995h1.413c.247 0 .419.045.516.136.098.091.162.247.195.468l.146 1.208c.357-.617.776-1.104 1.257-1.461s1.02-.536 1.617-.536c.494 0 .903.114 1.228.341l-.312 1.803c-.02.117-.062.199-.127.248s-.152.073-.263.073c-.098 0-.231-.022-.399-.068-.169-.045-.393-.068-.672-.068-.5 0-.929.139-1.286.414-.357.276-.659.681-.906 1.213v6.226h-2.407zM366.63 206.787c.63 0 1.209.101 1.739.302.529.201.985.495 1.369.882s.682.86.896 1.423c.214.562.322 1.203.322 1.924 0 .182-.008.333-.024.453s-.045.214-.088.282c-.042.068-.099.117-.17.146l-.272.044h-6.177c.071 1.025.348 1.779.828 2.26s1.117.721 1.91.721c.39 0 .726-.045 1.008-.136.282-.091.529-.192.74-.303l.555-.302s.313-.137.463-.137c.097 0 .182.02.253.059.071.039.133.095.185.166l.701.877c-.266.312-.565.573-.896.784-.332.211-.677.38-1.038.506-.36.127-.728.217-1.101.269s-.735.078-1.086.078c-.695 0-1.341-.116-1.939-.347s-1.117-.571-1.559-1.022c-.442-.451-.789-1.01-1.042-1.676s-.38-1.437-.38-2.313c0-.682.11-1.323.331-1.924.221-.602.538-1.124.95-1.569.412-.444.916-.797 1.51-1.057s1.265-.39 2.012-.39zm.049 1.725c-.702 0-1.25.198-1.646.594-.396.396-.649.958-.76 1.686h4.521c0-.312-.042-.605-.127-.882-.084-.275-.214-.518-.39-.726s-.396-.372-.663-.492c-.266-.121-.578-.18-.935-.18zM375.476 202.462v14.477h-2.406v-14.477h2.406zM386.026 216.938h-1.082c-.227 0-.406-.034-.536-.103s-.228-.206-.292-.414l-.214-.711c-.253.228-.501.427-.745.6-.244.172-.495.316-.755.433-.26.117-.536.205-.828.264-.292.059-.617.088-.974.088-.422 0-.812-.058-1.169-.171-.357-.114-.665-.285-.921-.514-.257-.228-.457-.512-.599-.851-.143-.339-.214-.732-.214-1.183 0-.378.099-.751.297-1.119.198-.368.527-.7.989-.997.461-.297 1.075-.542 1.841-.738.766-.195 1.718-.293 2.854-.293v-.589c0-.674-.142-1.173-.424-1.497-.283-.324-.693-.486-1.232-.486-.39 0-.715.046-.974.137-.26.091-.486.193-.677.307l-.531.308c-.162.091-.341.136-.536.136-.162 0-.302-.042-.419-.126-.117-.085-.211-.188-.282-.312l-.438-.77c1.149-1.052 2.536-1.578 4.16-1.578.584 0 1.106.096 1.563.287.458.192.846.458 1.165.799.318.342.56.749.726 1.223.166.475.249.994.249 1.56v6.31zm-4.676-1.5c.247 0 .474-.022.682-.067.208-.045.404-.112.589-.201.185-.09.364-.2.536-.331s.346-.286.521-.465v-1.674c-.702 0-1.288.045-1.759.133s-.849.201-1.135.339c-.286.137-.489.298-.609.48-.12.184-.18.383-.18.599 0 .425.125.729.375.912.251.184.577.275.98.275zM391.676 217.095c-.864 0-1.529-.245-1.997-.736-.467-.49-.701-1.167-.701-2.031v-5.582h-1.013c-.13 0-.242-.042-.336-.127-.094-.084-.141-.211-.141-.38v-.954l1.607-.264.507-2.728c.026-.13.086-.23.18-.302.094-.071.212-.107.355-.107h1.247v3.146h2.63v1.715h-2.63v5.417c0 .312.078.555.234.73.156.176.363.263.624.263.149 0 .274-.018.375-.053l.263-.112.2-.112.176-.054c.071 0 .13.019.175.054l.146.161.721 1.169c-.351.292-.753.513-1.208.662s-.926.225-1.414.225zM400.064 206.787c.63 0 1.209.101 1.739.302.529.201.985.495 1.369.882s.682.86.896 1.423c.214.562.322 1.203.322 1.924 0 .182-.008.333-.024.453s-.045.214-.088.282c-.042.068-.099.117-.17.146l-.272.044h-6.177c.071 1.025.348 1.779.828 2.26s1.117.721 1.91.721c.39 0 .726-.045 1.008-.136.282-.091.529-.192.74-.303l.555-.302s.313-.137.463-.137c.097 0 .182.02.253.059.071.039.133.095.185.166l.701.877c-.266.312-.565.573-.896.784-.332.211-.677.38-1.038.506-.36.127-.728.217-1.101.269s-.735.078-1.086.078c-.695 0-1.341-.116-1.939-.347s-1.117-.571-1.559-1.022c-.442-.451-.789-1.01-1.042-1.676s-.38-1.437-.38-2.313c0-.682.11-1.323.331-1.924.221-.602.538-1.124.95-1.569.412-.444.916-.797 1.51-1.057s1.265-.39 2.012-.39zm.049 1.725c-.702 0-1.25.198-1.646.594-.396.396-.649.958-.76 1.686h4.521c0-.312-.042-.605-.127-.882-.084-.275-.214-.518-.39-.726s-.396-.372-.663-.492c-.266-.121-.578-.18-.935-.18zM413.382 216.938c-.312 0-.517-.146-.614-.438l-.195-.965c-.208.234-.425.445-.653.634s-.473.351-.735.487c-.263.136-.546.242-.848.316-.302.074-.628.112-.979.112-.546 0-1.046-.114-1.5-.342-.455-.227-.846-.557-1.174-.988-.328-.432-.582-.966-.76-1.603-.179-.637-.268-1.364-.268-2.183 0-.74.101-1.429.302-2.065.201-.636.49-1.188.867-1.656.377-.467.828-.833 1.354-1.096.526-.263 1.117-.395 1.773-.395.559 0 1.036.09 1.432.268.396.179.75.418 1.062.717v-5.28h2.407v14.477h-1.471zm-3.205-1.763c.5 0 .925-.104 1.276-.312.351-.208.682-.503.994-.887v-4.481c-.272-.331-.57-.564-.891-.701-.322-.137-.667-.204-1.038-.204-.364 0-.693.067-.989.204-.296.137-.545.343-.75.619-.205.275-.362.626-.473 1.052s-.166.927-.166 1.505c0 .585.047 1.08.141 1.486.094.405.229.736.404.993s.39.441.643.556c.255.113.537.17.849.17z"/></g><path fill-rule="evenodd" clip-rule="evenodd" fill="#ED1C24" d="M312.806 75.843h1.973c5.49 0 10.977-.004 16.467 0 5.781 0 11.561-.054 17.342.018 5.114.058 8.666 3.642 8.812 8.729.017.563.058 1.132.096 1.778h10.318c.09-.199.171-.299.179-.404 1.02-9.98-6.87-19.718-16.868-20.565-3.885-.33-7.817-.154-11.728-.199-.679-.009-1.354-.004-2.218-.004 0-1.718.183-3.199-.059-4.605-.183-1.058-.679-2.608-1.446-2.912-2.127-.843-1.747-2.219-1.428-3.957 2.658 0 5.276.058 7.895-.023 1.497-.045 2.455-1.121 2.376-2.48-.082-1.461-.947-2.189-2.366-2.317l-.349-.013c-6.658 0-13.316-.013-19.975.015-1.594.007-2.66 1.049-2.656 2.414.004 1.361 1.063 2.333 2.677 2.429.583.039 1.167.009 1.75.009h6.015v3.182c-2.496.537-3.261 2.219-3.054 4.564.067.753-.037 1.521.021 2.274.083 1.051-.305 1.462-1.389 1.432-2.22-.062-4.44-.01-6.656-.01-1.901.004-3.805 0-5.731 0 .002 3.67.002 7.035.002 10.645zm68.542 11.611c-.015.208-.054.488-.05.766.101 4.546.446 9.102.251 13.636-.328 7.582-1.093 15.137-3.515 22.412-.284.854-.629 1.209-1.574 1.209-9.04-.007-18.078.03-27.118.081-1.234.009-1.943-.456-2.202-1.703-.569-2.734-1.308-5.437-1.785-8.188-1.528-8.835-2.166-17.726-1.33-26.687.055-.55.009-1.106.009-1.729-.58-.03-.98-.058-1.382-.066-2.583-.039-2.668-.039-2.77 2.475-.142 3.614-.287 7.239-.18 10.848.301 9.85 1.776 19.522 4.891 28.896.736 2.219 1.709 2.848 4.028 2.848 9.344.004 18.692.004 28.037 0 2.556 0 3.558-.576 4.224-3.049 1.221-4.552 2.449-9.116 3.304-13.747 1.515-8.238 2.003-16.577 1.458-24.947-.238-3.618-.459-3.723-4.069-3.226l-.227.171zm-8.522 7.608c-.146-1.051-.246-2.388-.542-3.685-.281-1.218-1.156-1.911-2.447-1.695-1.263.209-1.932 1.07-1.844 2.352.099 1.327.279 2.653.522 3.965.256 1.339 1.179 2.037 2.514 1.853 1.371-.187 1.914-1.168 1.797-2.79zm-20.687 25.307c.609-.714 1.474-1.34 1.759-2.167.408-1.184.446-2.506.538-3.773.097-1.333-.493-2.298-1.881-2.488-1.367-.192-2.234.507-2.497 1.851-.25 1.248-.471 2.51-.604 3.774-.146 1.348.988 2.512 2.685 2.803zm5.302-28.193c.072-1.391-.579-2.38-2.013-2.504-1.334-.122-2.179.659-2.376 2.02-.188 1.263-.405 2.527-.501 3.8-.091 1.273.572 2.157 1.835 2.36 1.368.22 2.251-.531 2.526-1.832.268-1.245.359-2.524.529-3.844zm13.398 22.46c.247 1.126.503 2.491.853 3.837.33 1.265 1.189 1.808 2.5 1.545 1.399-.285 1.937-1.211 1.774-2.551-.148-1.207-.392-2.401-.604-3.597-.242-1.356-1.04-2.088-2.435-1.925-1.387.16-1.881 1.173-2.088 2.691zm-14.873-11.593c-.063-1.014-.475-2.007-1.809-2.208-1.36-.207-2.292.407-2.543 1.787-.246 1.315-.443 2.647-.551 3.984-.104 1.292.56 2.153 1.853 2.333 1.38.186 2.246-.522 2.496-1.873.224-1.26.354-2.542.554-4.023zm8.904-7.951h.01c.002-.7.054-1.404-.003-2.097-.118-1.299-.867-2.033-2.168-2.043-1.226-.011-2.049.699-2.149 1.877-.127 1.5-.123 3.034.026 4.536.118 1.196.979 1.816 2.211 1.77 1.238-.047 1.945-.728 2.063-1.945.065-.692.01-1.398.01-2.098zm9.536 11.456c-.184-1.279-.33-2.616-.571-3.935-.242-1.288-1.125-1.93-2.391-1.802-1.291.135-1.999.993-1.917 2.285.084 1.393.247 2.792.537 4.16.262 1.248 1.163 1.872 2.462 1.688 1.322-.188 1.855-1.078 1.88-2.396zm-9.547-.297h-.013c0-.702.034-1.404-.008-2.099-.079-1.251-.825-1.922-2.022-1.993-1.22-.073-2.113.604-2.231 1.776-.153 1.558-.146 3.156.018 4.714.127 1.186 1.105 1.994 2.235 1.68.782-.214 1.551-1.07 1.958-1.838.315-.588.063-1.478.063-2.24zm.146 10.307h-.067c-.022-.462.125-1.072-.117-1.363-.58-.695-1.255-1.585-2.041-1.771-1.128-.265-2.082.558-2.203 1.748-.146 1.5-.142 3.039-.009 4.543.119 1.314 1.062 1.87 2.36 1.797 1.255-.066 1.913-.674 1.909-1.992 0-.989.11-1.975.168-2.962z"/><g fill="#fff"><path d="M206.617 166.792v1.98c0 .593-.068 1.07-.205 1.435s-.27.67-.399.916l-10.647 20.88c-.221.432-.532.799-.934 1.102-.402.302-.948.453-1.635.453h-3.484l10.9-20.454c.454-.839.96-1.561 1.518-2.165h-13.469c-.299 0-.558-.105-.778-.315-.221-.209-.331-.456-.331-.74v-3.091h19.464zM222.051 173.271c0 1.012-.178 1.925-.535 2.739s-.834 1.509-1.431 2.083c-.597.573-1.292 1.015-2.083 1.323-.792.309-1.616.463-2.472.463-.934 0-1.797-.154-2.589-.463s-1.476-.75-2.053-1.323c-.578-.574-1.029-1.269-1.353-2.083s-.486-1.728-.486-2.739c0-1.036.162-1.975.486-2.813s.775-1.549 1.353-2.129c.577-.58 1.262-1.027 2.053-1.342s1.655-.472 2.589-.472 1.8.157 2.599.472c.798.314 1.489.762 2.073 1.342s1.038 1.29 1.363 2.129c.324.838.486 1.776.486 2.813zm9.363-5.757c.156-.185.351-.352.584-.5.234-.147.558-.222.973-.222h3.484l-20.905 26.081c-.156.197-.354.36-.594.49s-.529.194-.866.194h-3.582l20.906-26.043zm-13.081 5.757c0-.716-.071-1.314-.214-1.796-.143-.48-.341-.869-.594-1.166-.253-.296-.552-.509-.896-.639-.344-.129-.71-.194-1.1-.194s-.753.065-1.09.194c-.338.13-.63.343-.876.639-.247.297-.438.686-.574 1.166-.136.481-.205 1.08-.205 1.796 0 .691.068 1.268.205 1.73s.328.836.574 1.12c.246.284.538.487.876.61.337.124.701.186 1.09.186s.756-.062 1.1-.186c.344-.123.643-.326.896-.61s.451-.657.594-1.12c.143-.463.214-1.039.214-1.73zm19.601 13.993c0 1.013-.178 1.926-.535 2.74s-.834 1.509-1.431 2.082c-.597.574-1.291 1.019-2.083 1.333s-1.616.472-2.472.472c-.934 0-1.797-.157-2.588-.472-.792-.314-1.477-.759-2.054-1.333-.578-.573-1.029-1.268-1.353-2.082s-.486-1.728-.486-2.74c0-1.036.162-1.974.486-2.813.324-.839.775-1.548 1.353-2.128.577-.58 1.262-1.027 2.054-1.343.791-.314 1.654-.472 2.588-.472.935 0 1.801.157 2.599.472.798.315 1.489.763 2.073 1.343.584.58 1.038 1.289 1.363 2.128.324.839.486 1.777.486 2.813zm-3.698 0c0-.715-.075-1.313-.224-1.795-.149-.481-.351-.87-.604-1.166s-.552-.509-.895-.639c-.344-.13-.71-.194-1.1-.194-.389 0-.752.064-1.09.194s-.626.343-.866.639-.432.685-.574 1.166c-.143.481-.214 1.08-.214 1.795 0 .691.071 1.271.214 1.74.143.47.334.846.574 1.129.24.284.529.488.866.611s.701.185 1.09.185c.39 0 .756-.062 1.1-.185.343-.123.642-.327.895-.611.253-.283.454-.659.604-1.129.149-.469.224-1.049.224-1.74zM162.343 202.852v2.152h-4.238v11.935h-2.621v-11.935h-4.257v-2.152h11.116zM162.314 216.938v-9.995h1.413c.247 0 .419.045.516.136.098.091.162.247.195.468l.146 1.208c.357-.617.776-1.104 1.257-1.461s1.02-.536 1.617-.536c.494 0 .903.114 1.228.341l-.312 1.803c-.02.117-.062.199-.127.248s-.152.073-.263.073c-.098 0-.231-.022-.399-.068-.169-.045-.393-.068-.672-.068-.5 0-.929.139-1.286.414-.357.276-.659.681-.906 1.213v6.226h-2.407zM177.823 216.938h-1.082c-.227 0-.406-.034-.536-.103s-.228-.206-.292-.414l-.214-.711c-.253.228-.501.427-.745.6-.244.172-.495.316-.755.433-.26.117-.536.205-.828.264-.292.059-.617.088-.974.088-.422 0-.812-.058-1.169-.171-.357-.114-.665-.285-.921-.514-.257-.228-.457-.512-.599-.851-.143-.339-.214-.732-.214-1.183 0-.378.099-.751.297-1.119.198-.368.527-.7.989-.997.461-.297 1.075-.542 1.841-.738.766-.195 1.718-.293 2.854-.293v-.589c0-.674-.142-1.173-.424-1.497-.283-.324-.693-.486-1.232-.486-.39 0-.715.046-.974.137-.26.091-.486.193-.677.307l-.531.308c-.162.091-.341.136-.536.136-.162 0-.302-.042-.419-.126-.117-.085-.211-.188-.282-.312l-.438-.77c1.149-1.052 2.536-1.578 4.16-1.578.584 0 1.106.096 1.563.287.458.192.846.458 1.165.799.318.342.56.749.726 1.223.166.475.249.994.249 1.56v6.31zm-4.676-1.5c.247 0 .474-.022.682-.067.208-.045.404-.112.589-.201.185-.09.364-.2.536-.331s.346-.286.521-.465v-1.674c-.702 0-1.288.045-1.759.133s-.849.201-1.135.339c-.286.137-.489.298-.609.48-.12.184-.18.383-.18.599 0 .425.125.729.375.912.251.184.577.275.98.275zM180.62 216.938v-8.184l-.867-.137c-.188-.032-.339-.097-.453-.194s-.17-.233-.17-.409v-.984h1.491v-.74c0-.571.086-1.084.258-1.539.172-.454.419-.841.741-1.159.321-.318.712-.562 1.174-.73.461-.169.98-.254 1.559-.254.461 0 .89.062 1.286.186l-.049 1.208c-.013.188-.101.306-.263.351-.162.046-.351.068-.565.068-.286 0-.541.03-.765.093-.224.062-.414.169-.57.321-.156.152-.274.354-.356.604-.081.25-.122.561-.122.931v.662h2.601v1.715h-2.523v8.193h-2.407zM187.449 216.938v-8.184l-.867-.137c-.188-.032-.339-.097-.453-.194s-.17-.233-.17-.409v-.984h1.491v-.321c0-.61.101-1.177.302-1.7.201-.522.507-.976.916-1.358.409-.384.926-.684 1.549-.901s1.36-.326 2.211-.326c.273 0 .552.015.838.044.286.029.532.076.74.141l-.078 1.247c-.013.149-.094.239-.243.269-.149.028-.335.043-.556.043-.63 0-1.158.056-1.583.166s-.77.274-1.033.492c-.263.218-.451.49-.565.818s-.17.71-.17 1.145v.243h6.196v9.908h-2.406v-8.193h-3.711v8.193h-2.408zM205.754 209.057l-.209.215s-.167.078-.297.078c-.123 0-.243-.038-.36-.112l-.419-.253c-.162-.095-.355-.179-.58-.254-.224-.074-.501-.112-.833-.112-.422 0-.792.077-1.11.229-.318.152-.583.372-.794.657-.211.286-.369.632-.473 1.038-.104.405-.156.865-.156 1.378 0 .533.057 1.007.17 1.423.113.416.278.765.492 1.047.214.283.474.497.779.644.305.146.649.219 1.033.219.383 0 .693-.047.93-.142.237-.094.437-.197.599-.312l.424-.312c.12-.094.255-.142.404-.142.195 0 .341.075.438.225l.691.877c-.266.312-.555.573-.867.784-.312.211-.635.38-.97.506-.334.127-.68.217-1.037.269-.357.052-.711.078-1.062.078-.617 0-1.198-.116-1.744-.347-.545-.23-1.021-.566-1.427-1.008-.406-.441-.727-.982-.964-1.622-.237-.64-.355-1.369-.355-2.188 0-.733.105-1.414.316-2.041.211-.626.521-1.169.931-1.627.409-.457.916-.816 1.52-1.076s1.299-.39 2.085-.39c.747 0 1.401.12 1.963.36s1.067.585 1.515 1.033l-.633.878zM211.784 216.938v-9.995h1.413c.247 0 .419.045.516.136.098.091.162.247.195.468l.146 1.208c.357-.617.776-1.104 1.257-1.461s1.02-.536 1.617-.536c.494 0 .903.114 1.228.341l-.312 1.803c-.02.117-.062.199-.127.248s-.152.073-.263.073c-.098 0-.231-.022-.399-.068-.169-.045-.393-.068-.672-.068-.5 0-.929.139-1.286.414-.357.276-.659.681-.906 1.213v6.226h-2.407zM223.874 206.787c.63 0 1.209.101 1.739.302.529.201.985.495 1.369.882s.682.86.896 1.423c.214.562.322 1.203.322 1.924 0 .182-.008.333-.024.453s-.045.214-.088.282c-.042.068-.099.117-.17.146l-.272.044h-6.177c.071 1.025.348 1.779.828 2.26s1.117.721 1.91.721c.39 0 .726-.045 1.008-.136.282-.091.529-.192.74-.303l.555-.302s.313-.137.463-.137c.097 0 .182.02.253.059.071.039.133.095.185.166l.701.877c-.266.312-.565.573-.896.784-.332.211-.677.38-1.038.506-.36.127-.728.217-1.101.269s-.735.078-1.086.078c-.695 0-1.341-.116-1.939-.347s-1.117-.571-1.559-1.022c-.442-.451-.789-1.01-1.042-1.676s-.38-1.437-.38-2.313c0-.682.11-1.323.331-1.924.221-.602.538-1.124.95-1.569.412-.444.916-.797 1.51-1.057s1.264-.39 2.012-.39zm.048 1.725c-.702 0-1.25.198-1.646.594-.396.396-.649.958-.76 1.686h4.521c0-.312-.042-.605-.127-.882-.084-.275-.214-.518-.39-.726s-.396-.372-.663-.492c-.266-.121-.578-.18-.935-.18zM232.719 202.462v14.477h-2.406v-14.477h2.406zM243.27 216.938h-1.082c-.227 0-.406-.034-.536-.103s-.228-.206-.292-.414l-.214-.711c-.253.228-.501.427-.745.6-.244.172-.495.316-.755.433-.26.117-.536.205-.828.264-.292.059-.617.088-.974.088-.422 0-.812-.058-1.169-.171-.357-.114-.665-.285-.921-.514-.257-.228-.457-.512-.599-.851-.143-.339-.214-.732-.214-1.183 0-.378.099-.751.297-1.119.198-.368.527-.7.989-.997.461-.297 1.075-.542 1.841-.738.766-.195 1.718-.293 2.854-.293v-.589c0-.674-.142-1.173-.424-1.497-.283-.324-.693-.486-1.232-.486-.39 0-.715.046-.974.137-.26.091-.486.193-.677.307l-.531.308c-.162.091-.341.136-.536.136-.162 0-.302-.042-.419-.126-.117-.085-.211-.188-.282-.312l-.438-.77c1.149-1.052 2.536-1.578 4.16-1.578.584 0 1.106.096 1.563.287.458.192.846.458 1.165.799.318.342.56.749.726 1.223.166.475.249.994.249 1.56v6.31zm-4.677-1.5c.247 0 .474-.022.682-.067.208-.045.404-.112.589-.201.185-.09.364-.2.536-.331s.346-.286.521-.465v-1.674c-.702 0-1.288.045-1.759.133s-.849.201-1.135.339c-.286.137-.489.298-.609.48-.12.184-.18.383-.18.599 0 .425.125.729.375.912.251.184.577.275.98.275zM248.92 217.095c-.864 0-1.529-.245-1.997-.736-.467-.49-.701-1.167-.701-2.031v-5.582h-1.013c-.13 0-.242-.042-.336-.127-.094-.084-.141-.211-.141-.38v-.954l1.607-.264.507-2.728c.026-.13.086-.23.18-.302.094-.071.212-.107.355-.107h1.247v3.146h2.63v1.715h-2.63v5.417c0 .312.078.555.234.73.156.176.363.263.624.263.149 0 .274-.018.375-.053l.263-.112.2-.112.176-.054c.071 0 .13.019.175.054l.146.161.721 1.169c-.351.292-.753.513-1.208.662s-.927.225-1.414.225zM257.308 206.787c.63 0 1.209.101 1.739.302.529.201.985.495 1.369.882s.682.86.896 1.423c.214.562.322 1.203.322 1.924 0 .182-.008.333-.024.453s-.045.214-.088.282c-.042.068-.099.117-.17.146l-.272.044h-6.177c.071 1.025.348 1.779.828 2.26s1.117.721 1.91.721c.39 0 .726-.045 1.008-.136.282-.091.529-.192.74-.303l.555-.302s.313-.137.463-.137c.097 0 .182.02.253.059.071.039.133.095.185.166l.701.877c-.266.312-.565.573-.896.784-.332.211-.677.38-1.038.506-.36.127-.728.217-1.101.269s-.735.078-1.086.078c-.695 0-1.341-.116-1.939-.347s-1.117-.571-1.559-1.022c-.442-.451-.789-1.01-1.042-1.676s-.38-1.437-.38-2.313c0-.682.11-1.323.331-1.924.221-.602.538-1.124.95-1.569.412-.444.916-.797 1.51-1.057s1.265-.39 2.012-.39zm.048 1.725c-.702 0-1.25.198-1.646.594-.396.396-.649.958-.76 1.686h4.521c0-.312-.042-.605-.127-.882-.084-.275-.214-.518-.39-.726s-.396-.372-.663-.492c-.266-.121-.578-.18-.935-.18zM270.625 216.938c-.312 0-.517-.146-.614-.438l-.195-.965c-.208.234-.425.445-.653.634s-.473.351-.735.487c-.263.136-.546.242-.848.316-.302.074-.628.112-.979.112-.546 0-1.046-.114-1.5-.342-.455-.227-.846-.557-1.174-.988-.328-.432-.582-.966-.76-1.603-.179-.637-.268-1.364-.268-2.183 0-.74.101-1.429.302-2.065.201-.636.49-1.188.867-1.656.377-.467.828-.833 1.354-1.096.526-.263 1.117-.395 1.773-.395.559 0 1.036.09 1.432.268.396.179.75.418 1.062.717v-5.28h2.407v14.477h-1.471zm-3.205-1.763c.5 0 .925-.104 1.276-.312.351-.208.682-.503.994-.887v-4.481c-.272-.331-.57-.564-.891-.701-.322-.137-.667-.204-1.038-.204-.364 0-.693.067-.989.204-.296.137-.545.343-.75.619-.205.275-.362.626-.473 1.052s-.166.927-.166 1.505c0 .585.047 1.08.141 1.486.094.405.229.736.404.993s.39.441.643.556c.255.113.537.17.849.17z"/></g><g fill-rule="evenodd" clip-rule="evenodd" fill="#ED1C24"><path d="M177.737 90.484v-3.136c2.744.128 5.423.26 8.117.391 0-2.742.339-5.383-.09-7.893-.423-2.481-1.617-4.821-2.526-7.362h6.733c-1.978 4.87-3.835 9.707-2.644 15.245 2.564-.126 5.25-.253 8.072-.387v3.134c-2.662.154-5.394.314-8.235.487v2.765h8.282v2.943c-2.704.155-5.436.317-8.279.482v3.319c2.605-.216 5.175-.433 7.973-.662v2.554c0 7.939 0 15.876-.002 23.82 0 .457.01.923-.041 1.381-.232 2.229-1.842 3.69-3.991 3.644-2.125-.043-3.766-1.605-3.796-3.839-.063-4.564-.021-9.135-.021-13.699v-10.794c-1.385-.626-1.44.191-1.44 1.169.01 7.592.013 15.179.002 22.775-.002 2.551-1.386 4.223-3.562 4.378-2.523.18-4.248-1.531-4.261-4.312-.017-6.875-.002-13.752-.002-20.628v-6.46c2.691.24 5.225.461 7.906.699v-3.355c-2.716-.149-5.406-.296-8.172-.446v-3.143c2.753.131 5.437.25 8.214.381v-2.972c-2.719-.162-5.411-.312-8.237-.479zM236.982 86.379h-29.142c0-1.763-.005-3.445.002-5.123 0-.149.005-.386.098-.435 2.196-1.181 2.302-3.587 2.837-5.51.966-3.479 2.671-5.046 6.464-5.416 4.841-.471 9.507-.036 14.209.762.415.069.894.634 1.069 1.08.992 2.471 1.868 4.986 2.855 7.459.205.519.715.905 1.069 1.366.196.258.501.538.512.814.049 1.628.027 3.264.027 5.003zm-4.002-7.004c-.773-2.069-1.479-4.038-2.268-5.97-.132-.333-.62-.649-.99-.729-4.866-1.064-9.744-1.08-14.611-.021-.364.077-.875.278-.984.554-.808 2.013-1.541 4.062-2.319 6.162 3.655-.307 7.11-.83 10.562-.83 3.458 0 6.914.522 10.61.834zm-.284 2.052c-1.156.111-1.87.745-1.878 1.857-.01 1.126.701 1.858 1.831 1.858 1.117 0 1.835-.688 1.845-1.837.016-1.159-.717-1.732-1.798-1.878zm-22.431 1.752c.04 1.206.668 1.915 1.786 1.954 1.112.046 1.859-.637 1.904-1.766.043-1.137-.647-1.858-1.772-1.904-1.122-.042-1.787.618-1.918 1.716zM179.502 63.188c.494-1.392-.688-2.124-1.527-2.963-.732-.727-.863-1.34-.549-2.404.705-2.35 2.243-3.489 4.374-4.61 3.358-1.763 6.387-1.963 9.542.116 1.145.752 2.732.683 3.475 2.25 1.041 2.219 1.731 4.198-.774 5.94-.339.234-.348 1.095-.339 1.662.091 4.141-3.04 7.431-7.131 7.444-4.021.009-7.146-3.214-7.071-7.435zm13.843-2.726c-.379-1.608-2.311-2.312-6.46-2.361-4.375-.051-6.66.704-7.087 2.361 4.494-1.869 8.975-1.894 13.547 0zm-9.093-5.337c2.359 1.631 2.713 1.621 4.641-.052-1.471-1.711-3.137-1.793-4.641.052zM193.832 72.575c2.282.487 3.77 1.905 4.938 3.696 2.017 3.089 2.888 6.604 3.136 10.184.314 4.394.304 8.811.259 13.209-.013.879-.613 2.033-1.312 2.551-1.633 1.201-3.724-.211-3.732-2.386-.01-3.489.177-6.983-.061-10.452-.183-2.631-.445-5.425-1.475-7.798-1.181-2.721-1.289-5.515-1.8-8.285-.035-.19.021-.397.047-.719zM179.432 72.755c-.59 2.827-.37 5.741-1.781 8.512-.921 1.809-1.252 4.027-1.387 6.094-.259 3.933-.251 7.88-.232 11.82.016 2.095-.736 3.345-2.407 3.409-1.622.064-2.606-1.022-2.676-3.033-.219-6.051-.473-12.135 1.263-18.015.662-2.255 1.813-4.453 3.137-6.406.812-1.196 2.381-1.878 3.61-2.796l.473.415zM239.778 96.253c2.268-.592 3.79.153 5.305 1.688 6.223 6.311 12.569 12.498 18.88 18.724.249.245.532.451.678 1.039-2.264 0-4.533.025-6.796-.036-.323-.005-.709-.361-.956-.657-5.601-6.729-11.194-13.478-16.783-20.218-.117-.147-.2-.323-.328-.54zM232.633 96.22c2.121-.487 3.574-.025 4.85 2.066 3.929 6.458 8.131 12.753 12.426 19.407-2.562 0-4.873.026-7.175-.031-.244-.005-.562-.407-.694-.693-3.161-6.813-6.294-13.637-9.425-20.458-.037-.076.008-.193.018-.291zM197.075 117.719c3.671-5.729 7.152-11.152 10.632-16.58l1.669-2.582c1.7-2.644 1.7-2.644 4.961-2.389-.071.291-.091.587-.207.843-3.01 6.558-6.005 13.116-9.083 19.644-.23.487-1.011.984-1.559 1.013-2.034.121-4.087.051-6.413.051zM212.144 117.719c2.038-7.39 3.994-14.477 5.947-21.556h3.6c-.419 4.525-.826 8.952-1.233 13.377-.211 2.293-.452 4.589-.61 6.888-.057.959-.387 1.346-1.388 1.312-2.042-.072-4.088-.021-6.316-.021zM234.706 117.64h-7.435c-.673-7.172-1.336-14.271-2.019-21.556 1.108 0 2.029-.09 2.918.043.351.057.8.559.913.941.939 3.188 1.815 6.396 2.696 9.599.917 3.34 1.839 6.684 2.75 10.027.068.242.095.492.177.946zM236.972 87.165c-.126.946.564 1.959-.924 2.317-.216.054-.074 1.334-.201 2.028-.126.708-.249 1.901-.613 1.997-1.037.273-2.192.183-3.284.047-.253-.036-.542-.805-.587-1.255-.096-.915-.027-1.843-.027-2.884h-17.895c0 .84-.048 1.693.008 2.536.085 1.301-.435 1.858-1.778 1.863-2.624.016-2.751-.08-2.796-2.721-.016-.714.416-1.631-.829-1.981-.238-.067-.176-1.19-.267-1.946 9.78-.001 19.386-.001 29.193-.001zM177.659 85.704c2.042-.31 3.892-.874 4.291-3.242-.95-.662-1.726-3.716-.987-4.564.331-.386 1.177-.438 1.797-.433.342 0 .881.351 1 .667.898 2.415-2.057 7.813-4.595 7.955-.466.023-.936.07-1.4.104l-.106-.487zM227.146 73.043c1.427.013 2.61 1.261 2.576 2.706-.043 1.41-1.148 2.489-2.576 2.505-1.495.011-2.659-1.121-2.652-2.585.006-1.456 1.211-2.646 2.652-2.626z"/></g><g fill="#fff"><path d="M23.48 169.867c1.297 0 2.469.176 3.513.527s1.937.84 2.676 1.462c.74.624 1.308 1.354 1.703 2.194.396.839.594 1.746.594 2.721 0 .852-.101 1.601-.302 2.249-.201.647-.493 1.212-.875 1.693-.383.481-.85.889-1.402 1.222-.551.333-1.177.611-1.878.833 1.687.506 2.945 1.277 3.776 2.313.83 1.037 1.246 2.339 1.246 3.906 0 1.332-.26 2.511-.778 3.535-.519 1.024-1.22 1.885-2.102 2.582-.883.697-1.905 1.225-3.066 1.583-1.161.357-2.391.536-3.688.536-1.415 0-2.647-.154-3.698-.463-1.051-.308-1.966-.765-2.744-1.369-.779-.604-1.44-1.345-1.985-2.222-.545-.876-1.012-1.888-1.401-3.035l2.122-.833c.363-.148.733-.223 1.109-.223.337 0 .639.068.905.204s.47.333.613.592c.233.433.49.858.769 1.277.279.42.613.793 1.002 1.12.389.327.847.593 1.372.796.525.204 1.151.306 1.878.306.817 0 1.531-.127 2.141-.38.609-.253 1.119-.583 1.528-.99s.713-.86.915-1.36.302-1.002.302-1.509c0-.642-.071-1.225-.214-1.749-.143-.524-.441-.972-.896-1.342s-1.106-.66-1.956-.87c-.85-.21-1.989-.314-3.416-.314v-3.276c1.181 0 2.161-.099 2.939-.296.779-.197 1.398-.473 1.859-.824.46-.352.782-.774.963-1.268s.272-1.037.272-1.629c0-1.271-.363-2.23-1.09-2.879-.727-.647-1.72-.972-2.978-.972-1.142 0-2.089.287-2.842.86s-1.278 1.31-1.577 2.209c-.156.469-.37.805-.642 1.008s-.63.305-1.071.305c-.208 0-.428-.018-.662-.055l-2.53-.419c.194-1.283.571-2.41 1.129-3.379.558-.969 1.255-1.777 2.092-2.426.837-.647 1.797-1.136 2.881-1.463 1.084-.324 2.249-.488 3.494-.488zM55.226 170.163v1.98c0 .593-.068 1.071-.204 1.435-.136.364-.27.67-.399.916l-10.647 20.88c-.221.432-.532.799-.935 1.102-.402.302-.947.453-1.635.453h-3.484l10.9-20.453c.454-.84.96-1.562 1.518-2.166h-13.468c-.299 0-.558-.104-.779-.314s-.331-.457-.331-.74v-3.092h19.464zM57.892 194.411c0-.382.075-.746.224-1.092.149-.346.357-.642.623-.889s.581-.444.944-.592c.363-.148.752-.223 1.168-.223.402 0 .785.074 1.148.223.363.147.674.345.934.592s.467.543.623.889.233.71.233 1.092c0 .396-.078.763-.233 1.102-.156.34-.363.633-.623.879-.26.247-.571.441-.934.583-.363.143-.746.213-1.148.213-.416 0-.805-.07-1.168-.213-.363-.142-.678-.336-.944-.583-.266-.246-.474-.539-.623-.879-.149-.339-.224-.706-.224-1.102zM84.48 172.106c0 .654-.217 1.185-.652 1.592-.435.407-1.158.611-2.17.611h-7.747l-1.012 5.59c1.271-.247 2.433-.37 3.484-.37 1.479 0 2.78.21 3.903.629 1.122.42 2.066 1 2.832 1.74s1.343 1.607 1.732 2.601.583 2.064.583 3.212c0 1.419-.263 2.715-.788 3.887-.525 1.173-1.255 2.175-2.19 3.008-.934.833-2.041 1.479-3.318 1.935-1.278.456-2.67.685-4.175.685-.882 0-1.719-.086-2.511-.259s-1.535-.404-2.229-.694c-.694-.29-1.337-.623-1.927-.999-.59-.377-1.119-.774-1.586-1.194l1.479-1.943c.312-.42.727-.63 1.246-.63.324 0 .652.1.983.297.331.197.717.413 1.158.647.441.234.954.45 1.538.647.584.198 1.291.297 2.122.297.882 0 1.661-.136 2.336-.407.674-.271 1.236-.651 1.684-1.139s.785-1.067 1.012-1.74c.227-.672.341-1.403.341-2.193 0-1.456-.445-2.594-1.333-3.415-.889-.82-2.196-1.23-3.922-1.23-1.363 0-2.732.234-4.107.703l-2.998-.814 2.335-12.994h13.897v1.94zM101.997 176.642c0 1.012-.179 1.925-.535 2.739-.357.814-.834 1.509-1.431 2.083-.597.573-1.292 1.015-2.083 1.323s-1.615.463-2.472.463c-.935 0-1.797-.154-2.589-.463s-1.476-.75-2.053-1.323c-.578-.574-1.029-1.269-1.353-2.083s-.486-1.728-.486-2.739c0-1.036.162-1.974.486-2.813.324-.839.775-1.549 1.353-2.129.577-.579 1.262-1.027 2.053-1.342s1.654-.472 2.589-.472c.934 0 1.8.157 2.599.472.798.314 1.489.763 2.073 1.342.584.58 1.038 1.29 1.362 2.129.324.839.487 1.776.487 2.813zm9.362-5.757c.156-.185.35-.352.584-.499.233-.148.558-.223.973-.223h3.484l-20.904 26.081c-.156.197-.354.36-.594.49s-.529.194-.866.194h-3.582l20.905-26.043zm-13.08 5.757c0-.716-.071-1.314-.214-1.795-.143-.481-.341-.87-.594-1.167-.253-.296-.552-.509-.896-.638-.344-.13-.71-.194-1.1-.194s-.753.064-1.09.194c-.338.129-.63.342-.876.638-.247.297-.438.686-.574 1.167-.136.48-.205 1.079-.205 1.795 0 .691.068 1.269.205 1.73.136.463.328.837.574 1.12.246.284.538.487.876.611.337.123.701.185 1.09.185s.756-.062 1.1-.185c.344-.124.643-.327.896-.611.253-.283.451-.657.594-1.12.143-.462.214-1.039.214-1.73zm19.601 13.994c0 1.012-.179 1.925-.535 2.739-.357.814-.834 1.509-1.431 2.082-.597.574-1.292 1.019-2.083 1.333s-1.615.472-2.472.472c-.935 0-1.797-.157-2.589-.472s-1.476-.759-2.053-1.333c-.578-.573-1.029-1.268-1.353-2.082s-.486-1.728-.486-2.739c0-1.037.162-1.975.486-2.813.324-.84.775-1.549 1.353-2.129.577-.58 1.262-1.027 2.053-1.342.792-.315 1.654-.473 2.589-.473.934 0 1.8.157 2.598.473.798.314 1.489.762 2.073 1.342s1.038 1.289 1.362 2.129c.325.838.488 1.776.488 2.813zm-3.698 0c0-.716-.075-1.314-.224-1.796-.149-.481-.35-.87-.603-1.166s-.552-.509-.896-.639-.71-.194-1.1-.194-.753.064-1.09.194c-.338.13-.626.343-.866.639s-.432.685-.574 1.166c-.143.481-.214 1.08-.214 1.796 0 .69.071 1.271.214 1.739.143.47.334.846.574 1.129.24.284.528.488.866.611.337.123.701.185 1.09.185s.756-.062 1.1-.185.643-.327.896-.611c.253-.283.454-.659.603-1.129.149-.469.224-1.049.224-1.739zM42.96 208.782c-.071.143-.154.243-.248.302s-.206.088-.336.088c-.13 0-.276-.05-.438-.151l-.575-.336c-.221-.123-.479-.235-.774-.336s-.645-.15-1.047-.15c-.364 0-.68.043-.95.131s-.497.21-.682.365c-.185.156-.323.343-.414.561s-.136.456-.136.716c0 .331.092.607.277.828s.43.409.735.564c.305.156.653.296 1.042.419s.787.255 1.193.395.804.302 1.193.487c.39.185.737.418 1.042.701.305.282.55.628.735 1.037s.278.905.278 1.49c0 .637-.109 1.232-.327 1.787-.217.556-.536 1.039-.954 1.451-.419.412-.93.737-1.534.975-.604.236-1.295.355-2.075.355-.448 0-.89-.044-1.325-.132s-.852-.213-1.251-.375-.773-.357-1.12-.584c-.347-.228-.657-.48-.93-.76l.76-1.257c.071-.091.157-.167.258-.229s.212-.093.336-.093c.162 0 .337.066.526.199.188.134.411.281.667.443.257.162.559.311.906.443.348.133.765.199 1.252.199.747 0 1.324-.177 1.733-.53.409-.354.614-.862.614-1.524 0-.37-.093-.672-.278-.906-.185-.233-.43-.43-.735-.589s-.652-.294-1.042-.404-.786-.23-1.188-.36c-.403-.13-.799-.286-1.188-.468s-.737-.419-1.042-.711c-.306-.292-.55-.657-.735-1.096s-.278-.979-.278-1.622c0-.513.102-1.013.307-1.499.205-.487.503-.919.896-1.296s.875-.679 1.446-.906c.571-.227 1.224-.341 1.958-.341.831 0 1.597.13 2.299.39.701.26 1.298.624 1.792 1.091l-.643 1.238zM52.749 212.425c-.071.091-.141.163-.209.215-.068.052-.167.077-.297.077-.124 0-.244-.037-.36-.111l-.419-.254c-.163-.094-.355-.178-.58-.253-.224-.074-.501-.112-.833-.112-.422 0-.792.077-1.11.229-.318.152-.583.372-.794.657-.211.286-.369.632-.472 1.037-.104.406-.156.865-.156 1.379 0 .532.057 1.006.17 1.422.114.415.278.765.492 1.047s.474.497.779.643c.305.146.649.22 1.032.22s.693-.048.93-.142c.237-.094.437-.198.599-.312l.423-.312c.12-.095.255-.142.404-.142.195 0 .341.074.438.224l.691.877c-.266.312-.555.573-.867.784-.312.211-.635.38-.969.507-.334.126-.68.216-1.037.268-.357.052-.711.078-1.062.078-.617 0-1.198-.116-1.743-.346-.545-.23-1.021-.566-1.427-1.009-.406-.441-.728-.981-.964-1.621-.237-.64-.355-1.369-.355-2.187 0-.734.105-1.414.316-2.041s.521-1.169.93-1.627c.409-.457.916-.816 1.52-1.076.604-.26 1.298-.39 2.084-.39.747 0 1.401.12 1.963.36s1.066.585 1.515 1.033l-.632.878zM55.018 220.305v-14.474h2.406v5.562c.39-.37.818-.669 1.286-.896.468-.227 1.016-.341 1.646-.341.545 0 1.029.093 1.451.278.422.185.774.444 1.057.778.282.335.497.734.643 1.198.146.465.219.976.219 1.534v6.36h-2.406v-6.36c0-.61-.141-1.083-.424-1.417-.282-.334-.706-.502-1.271-.502-.416 0-.805.095-1.169.283-.363.188-.708.444-1.032.769v7.228h-2.406zM70.358 210.155c.747 0 1.423.12 2.031.36.607.24 1.125.582 1.554 1.023.428.441.759.98.993 1.616.234.637.351 1.348.351 2.134 0 .792-.117 1.506-.351 2.143-.234.636-.565 1.179-.993 1.626-.429.448-.947.793-1.554 1.033-.607.239-1.284.36-2.031.36s-1.425-.121-2.036-.36c-.61-.24-1.131-.585-1.563-1.033-.432-.447-.766-.99-1.003-1.626-.237-.637-.355-1.351-.355-2.143 0-.786.118-1.497.355-2.134.237-.636.571-1.175 1.003-1.616.432-.441.953-.783 1.563-1.023s1.29-.36 2.036-.36zm0 8.446c.831 0 1.446-.279 1.846-.838s.599-1.377.599-2.455c0-1.077-.2-1.898-.599-2.464-.399-.564-1.015-.848-1.846-.848-.844 0-1.468.284-1.87.853-.403.568-.604 1.388-.604 2.459 0 1.072.201 1.889.604 2.45.403.561 1.026.843 1.87.843zM81.433 210.155c.747 0 1.423.12 2.031.36.607.24 1.125.582 1.554 1.023.428.441.759.98.993 1.616.234.637.351 1.348.351 2.134 0 .792-.117 1.506-.351 2.143-.234.636-.565 1.179-.993 1.626-.429.448-.947.793-1.554 1.033-.607.239-1.284.36-2.031.36s-1.425-.121-2.036-.36c-.61-.24-1.131-.585-1.563-1.033-.432-.447-.766-.99-1.003-1.626-.237-.637-.355-1.351-.355-2.143 0-.786.118-1.497.355-2.134.237-.636.571-1.175 1.003-1.616.432-.441.953-.783 1.563-1.023s1.289-.36 2.036-.36zm0 8.446c.831 0 1.446-.279 1.846-.838s.599-1.377.599-2.455c0-1.077-.2-1.898-.599-2.464-.399-.564-1.015-.848-1.846-.848-.844 0-1.468.284-1.87.853-.403.568-.604 1.388-.604 2.459 0 1.072.201 1.889.604 2.45.402.561 1.025.843 1.87.843zM90.802 205.831v14.474h-2.406v-14.474h2.406zM99.451 212.26c-.065.104-.133.177-.205.219s-.162.063-.272.063c-.117 0-.242-.032-.375-.098l-.463-.219s-.375-.154-.599-.22c-.224-.064-.488-.097-.793-.097-.474 0-.848.101-1.12.302-.273.201-.409.464-.409.789 0 .214.07.395.209.54.14.146.325.274.555.385s.492.21.784.297c.292.088.59.184.896.288.305.104.604.222.896.355.292.133.553.302.784.506.23.205.415.45.555.735.139.286.209.63.209 1.033 0 .48-.087.923-.263 1.329s-.432.757-.77 1.052c-.338.296-.755.526-1.251.691-.497.166-1.066.249-1.709.249-.344 0-.68-.031-1.008-.093-.328-.062-.643-.147-.944-.258-.302-.11-.582-.24-.838-.39s-.482-.312-.677-.487l.555-.916c.071-.11.156-.194.253-.253.098-.059.221-.088.37-.088s.291.043.424.127l.463.272s.381.188.618.272c.237.085.537.127.901.127.286 0 .531-.034.735-.103.205-.067.374-.157.507-.268.133-.11.23-.238.292-.385.062-.146.093-.297.093-.453 0-.233-.07-.425-.209-.574s-.325-.279-.555-.39-.494-.209-.789-.297l-.906-.287c-.309-.104-.61-.226-.906-.365s-.559-.317-.789-.531-.416-.478-.555-.789-.209-.688-.209-1.13c0-.409.081-.799.244-1.169.162-.37.401-.692.716-.969s.708-.497 1.179-.662c.471-.166 1.014-.249 1.631-.249.688 0 1.315.114 1.88.341.565.228 1.036.526 1.412.896l-.547.872z"/></g><g fill-rule="evenodd" clip-rule="evenodd" fill="#ED1C24"><path d="M94.676 61.493c-.709.544-4.622 3.558-6.262 5.01-2.824 2.503-5.76 4.559-9.857 3.772-.611-.118-1.312.219-2.062.365v-3.728c3.6 4.405 6.949 1.963 7.775 1.307 1.846-1.468 1.68-4.938.118-6.466-2.173-2.123-5.58-1.626-7.862 1.776v-14.583h44.946v33.4h-36.042c0-2.38-.095-4.578.062-6.758.041-.631.665-1.354 1.211-1.795 2.773-2.217 8.042-6.071 10.86-8.229m-.204-3.663l.733-.694"/><path d="M89.842 103.975c-2.863 1.784-3.013 1.729-4.01-1.023-1.323-3.665-2.675-7.323-4.023-10.98-.164-.437-.367-4.905-.747-5.678-.38.792-.684 5.304-.86 5.79-1.366 3.724-2.714 7.456-4.075 11.186-.406 1.104-.52 2.33-2.411 1.68-1.845-.64-1.316-1.609-.88-2.775.744-1.991 1.264-4.092 2.22-5.971 2.46-4.835 2.723-18.201 2.509-19.104-1.442 2.341-3.019 5.124-4.31 7.199-1.788 2.89-4.075 1.762-1.834-1.917 1.705-3.186 3.647-6.744 5.301-9.96.554-1.087 1.245-1.683 2.482-1.465 3.281.578 5.728-.855 8.234-2.868 1.479-1.183 3.008-2.363 4.521-3.533 2.27-1.75 4.63-.199 2.921 1.929-.389.486-6.016 4.809-8.939 7.122-.653.522-1.167 1.612-1.184 2.456-.095 4.243-.073 8.363-.014 12.542.014.896.235 1.823.534 2.673 1.499 4.261 3.049 8.499 4.565 12.697zM84.794 64.963c-.019 2.117-1.669 3.713-3.8 3.668-2.049-.044-3.587-1.597-3.627-3.637-.041-2.096 1.615-3.801 3.691-3.809 2.063-.01 3.745 1.693 3.736 3.778zM56.028 93.825c.117-.122.35-.317.322-.365-.453-.809-1.187-1.223-2.028-.825-.661.312-1.461.832-1.691 1.447-.749 1.986-1.426 4.027-1.814 6.106-.344 1.832.806 2.881 2.701 2.895 1.181.012 2.361.027 3.542.05l.244.136-.516 6.341c.908.357 1.235.085 1.276-.835.057-1.492.222-2.983.575-4.471.257 1.392.506 2.778.755 4.168.151.855.497 1.54 1.505 1.336.962-.195 1.005-.932.851-1.737-.362-1.922-.717-3.842-1.049-5.767-.162-.943-.457-1.714-1.646-1.873.361-.089.714-.257 1.081-.263 1.881-.021 3.772.014 5.651-.013 1.049-.019 1.536.411 1.612 1.486.205 2.648.478 5.287.738 8.045l1.139.071c-.216-2.642-.416-5.165-.625-7.694-.068-.792-.424-1.574.251-2.334.195-.221.033-.769.033-1.229h-11.896c.143.732.273 1.354.423 2.073h-2.565c.471-1.553.918-3.043 1.361-4.533-.556-.255-1.194-.417-1.65-.799-.262-.229-.343-.823-.281-1.21.036-.183.615-.316.968-.37.226-.035.488.105.733.164zM54.896 103.78h-5.909c-.326 1.905-.653 3.773-.986 5.735h7.868c-.322-1.892-.635-3.758-.973-5.735zM55.139 90.322c.009 1.34 1.038 2.388 2.368 2.399 1.321.007 2.379-1.038 2.392-2.373.024-1.367-1.09-2.494-2.423-2.466-1.309.029-2.345 1.107-2.337 2.44zM56.028 93.825c-.245-.059-.507-.199-.733-.162-.354.054-.933.188-.968.37-.062.387.019.981.281 1.21.456.382 1.095.544 1.65.799 1.697.293 3.383.61 5.082.875.641.099 1.269-.098 1.275-.854.012-.76-.599-.87-1.25-.891-1.872-.063-3.732-.203-5.337-1.347zM30.913 99.495c.122-.138.377-.35.35-.4-.496-.891-1.307-1.345-2.225-.909-.733.344-1.606.913-1.862 1.591-.82 2.181-1.565 4.422-1.992 6.704-.374 2.013.885 3.165 2.964 3.181 1.298.012 2.596.029 3.887.053.074.002.141.076.271.151-.184 2.298-.375 4.625-.565 6.966.995.391 1.357.093 1.395-.92.066-1.638.247-3.273.641-4.909.275 1.525.561 3.049.823 4.578.167.939.548 1.693 1.66 1.466 1.054-.212 1.099-1.025.932-1.907-.394-2.11-.79-4.22-1.149-6.334-.181-1.037-.505-1.88-1.815-2.055.395-.099.792-.284 1.183-.289 2.075-.027 4.147.016 6.214-.019 1.154-.017 1.685.458 1.772 1.636.22 2.906.521 5.808.806 8.836l1.257.076c-.234-2.899-.461-5.672-.697-8.445-.072-.873-.458-1.734.281-2.568.222-.244.036-.842.036-1.348h-13.067c.162.801.303 1.486.47 2.275h-2.813l1.493-4.979c-.615-.277-1.321-.456-1.813-.879-.294-.249-.378-.902-.308-1.329.036-.2.673-.346 1.058-.407.254-.04.543.118.813.184zM29.667 110.425h-6.492c-.358 2.092-.713 4.147-1.085 6.3h8.644c-.353-2.081-.702-4.127-1.067-6.3zM29.933 95.648c.005 1.47 1.14 2.621 2.597 2.633 1.452.008 2.61-1.136 2.627-2.606.023-1.502-1.193-2.742-2.659-2.709-1.438.031-2.568 1.214-2.565 2.682zM30.913 99.495c-.27-.066-.559-.224-.812-.183-.385.062-1.022.208-1.058.407-.071.427.013 1.081.308 1.329.492.423 1.198.603 1.813.879 1.859.324 3.714.67 5.582.96.699.11 1.388-.107 1.398-.937.014-.83-.661-.954-1.374-.979-2.056-.068-4.096-.221-5.857-1.476zM86.934 113.372c.11-.131.33-.337.308-.38-.493-.789-1.253-1.168-2.067-.73-.646.343-1.425.9-1.624 1.528-.653 2.013-1.23 4.085-1.526 6.179-.255 1.845.937 2.839 2.828 2.767 1.181-.044 2.362-.083 3.546-.116l.251.125c-.075 2.096-.145 4.22-.219 6.358.925.313 1.243.026 1.234-.894-.009-1.497.082-2.989.37-4.491.315 1.374.634 2.748.946 4.125.189.844.565 1.518 1.567 1.268.948-.244.957-.982.766-1.778-.449-1.899-.895-3.805-1.32-5.711-.204-.935-.539-1.689-1.737-1.791.357-.108.712-.291 1.072-.314 1.877-.113 3.768-.163 5.647-.28 1.044-.066 1.549.341 1.685 1.412.321 2.631.719 5.259 1.108 8l1.145.019c-.336-2.627-.656-5.142-.99-7.654-.107-.792-.498-1.555.144-2.347.19-.231-.003-.767-.026-1.23-3.949.185-7.807.366-11.887.556l.524 2.053-2.561.124c.394-1.579.77-3.085 1.149-4.595-.57-.228-1.221-.359-1.682-.721-.281-.212-.391-.806-.34-1.197.023-.183.598-.343.943-.416.233-.048.497.081.746.131zM86.269 123.367l-5.902.276-.72 5.775 7.857-.369c-.403-1.875-.806-3.723-1.235-5.682zM85.882 109.911c.06 1.342 1.146 2.339 2.472 2.287 1.319-.054 2.325-1.147 2.281-2.481-.044-1.368-1.205-2.442-2.54-2.351-1.302.091-2.284 1.214-2.213 2.545zM86.934 113.372c-.249-.049-.513-.178-.744-.131-.346.072-.92.232-.943.416-.051.391.059.985.34 1.197.461.361 1.112.493 1.682.721 1.7.215 3.406.451 5.118.634.64.07 1.259-.157 1.232-.909-.022-.76-.644-.844-1.293-.834-1.868.023-3.737-.029-5.392-1.094zM62.106 120.211c.122-.145.369-.369.334-.418-.536-.867-1.366-1.281-2.266-.804-.71.376-1.56.989-1.786 1.679-.715 2.214-1.354 4.492-1.669 6.79-.285 2.027 1.026 3.118 3.105 3.039 1.295-.051 2.594-.093 3.892-.133.068-.002.136.07.276.142l-.245 6.98c1.018.346 1.366.031 1.358-.981-.014-1.642.086-3.28.404-4.933.348 1.509.699 3.02 1.044 4.534.21.928.618 1.667 1.722 1.388 1.041-.263 1.049-1.078.841-1.948-.493-2.089-.985-4.179-1.447-6.274-.231-1.028-.592-1.857-1.908-1.966.394-.121.778-.321 1.176-.346 2.062-.123 4.135-.179 6.201-.306 1.149-.072 1.702.374 1.845 1.548.357 2.893.794 5.775 1.218 8.789l1.259.019c-.374-2.888-.722-5.646-1.087-8.406-.114-.868-.546-1.711.158-2.577.208-.253-.005-.842-.026-1.351l-13.05.61.57 2.253c-.715.035-1.59.077-2.809.132.434-1.729.846-3.387 1.26-5.043-.626-.249-1.341-.393-1.853-.79-.303-.237-.426-.887-.374-1.317.031-.2.663-.376 1.042-.455.254-.052.543.088.815.145zM61.378 131.185c-2.208.105-4.291.205-6.482.305-.262 2.105-.52 4.176-.794 6.344l8.637-.404-1.361-6.245zM60.953 116.411c.073 1.472 1.258 2.567 2.709 2.508 1.457-.059 2.558-1.257 2.51-2.727-.047-1.498-1.323-2.678-2.785-2.579-1.432.103-2.507 1.335-2.434 2.798zM62.106 120.211c-.272-.057-.561-.197-.815-.145-.379.079-1.012.255-1.042.455-.052.43.071 1.08.374 1.317.511.397 1.226.541 1.853.79 1.872.239 3.74.497 5.619.698.701.077 1.387-.172 1.356-1-.031-.834-.704-.924-1.423-.915-2.059.027-4.104-.031-5.922-1.2z"/></g><g fill="#fff"><path d="M483.166 166.496c1.298 0 2.469.176 3.514.528 1.044.352 1.937.839 2.676 1.462.74.623 1.308 1.354 1.703 2.193.396.839.594 1.746.594 2.721 0 .852-.101 1.601-.302 2.249s-.493 1.212-.876 1.694-.85.889-1.401 1.222-1.177.611-1.878.833c1.687.506 2.945 1.277 3.776 2.313.83 1.037 1.245 2.339 1.245 3.906 0 1.333-.26 2.511-.778 3.536-.52 1.024-1.22 1.885-2.103 2.582-.882.697-1.904 1.225-3.065 1.583s-2.391.537-3.688.537c-1.414 0-2.646-.155-3.698-.463-1.051-.309-1.966-.765-2.744-1.37s-1.44-1.345-1.985-2.221c-.545-.876-1.013-1.888-1.401-3.036l2.121-.833c.363-.148.733-.222 1.109-.222.338 0 .64.068.905.204s.471.333.613.592c.233.432.49.858.769 1.277.279.42.613.793 1.003 1.12.39.327.847.592 1.372.796s1.151.306 1.878.306c.818 0 1.531-.126 2.142-.38.609-.252 1.119-.583 1.528-.99.408-.407.713-.86.914-1.36s.302-1.002.302-1.509c0-.641-.071-1.225-.214-1.749s-.441-.972-.896-1.342c-.454-.371-1.106-.66-1.956-.87s-1.988-.315-3.416-.315v-3.276c1.181 0 2.16-.099 2.939-.296.778-.197 1.397-.472 1.858-.824s.782-.774.964-1.268c.182-.493.272-1.037.272-1.629 0-1.271-.363-2.23-1.09-2.878-.728-.648-1.72-.972-2.979-.972-1.142 0-2.089.287-2.842.86s-1.278 1.31-1.576 2.209c-.156.468-.37.804-.643 1.008-.272.203-.63.305-1.07.305-.208 0-.429-.018-.662-.055l-2.53-.419c.194-1.284.571-2.41 1.129-3.379.558-.969 1.256-1.778 2.093-2.426s1.797-1.136 2.88-1.462c1.083-.328 2.248-.492 3.494-.492zM507.768 173.271c0 1.012-.179 1.925-.535 2.739-.357.814-.834 1.509-1.431 2.083s-1.291 1.015-2.083 1.324c-.791.309-1.615.462-2.472.462-.935 0-1.798-.154-2.589-.462-.792-.309-1.477-.75-2.054-1.324s-1.028-1.268-1.353-2.083-.486-1.727-.486-2.739c0-1.037.162-1.974.486-2.813s.775-1.548 1.353-2.129c.577-.58 1.262-1.027 2.054-1.342.791-.315 1.654-.472 2.589-.472s1.801.157 2.599.472c.798.314 1.489.762 2.073 1.342.584.581 1.037 1.29 1.362 2.129.325.839.487 1.776.487 2.813zm9.362-5.757c.156-.185.351-.352.584-.5s.558-.222.974-.222h3.483l-20.904 26.081c-.156.198-.354.361-.594.491s-.529.194-.866.194h-3.581l20.904-26.044zm-13.08 5.757c0-.715-.071-1.314-.214-1.795-.143-.481-.341-.87-.594-1.166-.253-.296-.552-.509-.896-.639s-.71-.194-1.1-.194-.753.064-1.09.194c-.338.129-.63.342-.876.639-.247.296-.438.685-.574 1.166-.137.481-.204 1.08-.204 1.795 0 .691.067 1.268.204 1.73.136.463.327.836.574 1.12.246.284.538.488.876.611.337.124.7.185 1.09.185s.756-.062 1.1-.185c.344-.123.643-.327.896-.611s.451-.657.594-1.12c.143-.462.214-1.039.214-1.73zm19.601 13.994c0 1.012-.179 1.925-.535 2.74-.357.814-.834 1.508-1.431 2.082s-1.291 1.018-2.083 1.333c-.791.314-1.615.472-2.472.472-.935 0-1.797-.157-2.589-.472-.791-.315-1.476-.759-2.054-1.333-.577-.574-1.028-1.268-1.353-2.082-.324-.814-.486-1.728-.486-2.74 0-1.037.162-1.974.486-2.813.324-.839.775-1.548 1.353-2.129.578-.58 1.263-1.027 2.054-1.342.792-.314 1.654-.472 2.589-.472s1.801.158 2.599.472 1.489.762 2.073 1.342c.584.581 1.038 1.29 1.362 2.129.325.839.487 1.776.487 2.813zm-3.698 0c0-.715-.074-1.314-.224-1.795-.149-.481-.351-.87-.604-1.166-.253-.296-.552-.509-.896-.639s-.71-.194-1.1-.194-.753.064-1.09.194c-.338.129-.626.342-.866.639-.24.296-.432.685-.574 1.166-.143.481-.214 1.08-.214 1.795 0 .691.071 1.271.214 1.74.143.469.334.846.574 1.129.24.284.528.488.866.611.337.124.7.185 1.09.185s.756-.062 1.1-.185c.344-.123.643-.327.896-.611s.454-.66.604-1.129c.149-.469.224-1.049.224-1.74zM462.673 216.939h-2.64v-6.157h-6.605v6.157h-2.641v-14.087h2.641v6.06h6.605v-6.06h2.64v14.087zM469.512 206.788c.63 0 1.209.101 1.738.302.529.201.985.495 1.369.881.383.387.682.861.896 1.422.214.562.321 1.203.321 1.924 0 .182-.009.333-.024.453-.017.121-.046.214-.088.283s-.099.117-.17.146c-.072.029-.163.044-.273.044h-6.176c.071 1.026.347 1.78.828 2.26.48.481 1.116.721 1.909.721.39 0 .726-.045 1.008-.136.283-.091.529-.191.74-.302l.556-.302c.159-.091.313-.136.463-.136.098 0 .182.02.253.058.071.039.134.094.186.166l.701.876c-.267.312-.564.573-.896.784-.331.211-.677.38-1.037.507s-.728.216-1.101.268c-.374.052-.736.078-1.087.078-.694 0-1.341-.115-1.938-.346s-1.117-.571-1.559-1.023c-.441-.451-.789-1.01-1.042-1.676-.254-.666-.381-1.437-.381-2.313 0-.682.11-1.323.332-1.924.221-.601.537-1.124.949-1.568.413-.445.916-.797 1.511-1.057.594-.26 1.265-.39 2.012-.39zm.048 1.725c-.701 0-1.25.198-1.646.594-.396.396-.65.958-.761 1.685h4.521c0-.312-.042-.605-.126-.881-.085-.276-.215-.518-.39-.726-.176-.208-.396-.372-.663-.492s-.578-.18-.935-.18zM483.627 216.939h-1.081c-.228 0-.406-.034-.536-.102-.13-.068-.227-.207-.292-.414l-.214-.711c-.254.228-.502.427-.745.599-.244.172-.496.317-.756.434s-.535.205-.828.263c-.292.058-.616.087-.974.087-.423 0-.812-.057-1.169-.171-.357-.114-.664-.285-.921-.513s-.456-.512-.599-.851c-.144-.338-.215-.733-.215-1.183 0-.378.099-.751.297-1.119s.528-.7.989-.997c.461-.296 1.074-.542 1.841-.738s1.718-.293 2.854-.293v-.589c0-.674-.141-1.173-.424-1.497-.282-.324-.693-.486-1.232-.486-.39 0-.714.045-.974.136-.26.091-.485.193-.678.307l-.53.307c-.163.091-.341.136-.536.136-.162 0-.302-.042-.419-.126s-.211-.188-.282-.312l-.438-.77c1.149-1.052 2.536-1.578 4.16-1.578.584 0 1.105.096 1.563.288s.846.458 1.164.799c.318.341.56.749.726 1.223s.248.994.248 1.559v6.312zm-4.675-1.5c.247 0 .474-.022.682-.067s.404-.112.59-.202c.185-.089.363-.2.536-.331.172-.131.346-.286.521-.465v-1.673c-.701 0-1.287.044-1.758.132-.472.088-.85.201-1.136.338-.285.138-.488.298-.608.481s-.181.383-.181.599c0 .425.125.729.375.913s.576.275.979.275zM488.557 202.462v14.477h-2.406v-14.477h2.406zM494.559 217.095c-.864 0-1.53-.245-1.997-.735-.468-.49-.702-1.167-.702-2.031v-5.583h-1.013c-.13 0-.242-.042-.336-.126-.095-.084-.142-.211-.142-.38v-.955l1.607-.263.507-2.728c.025-.13.086-.23.18-.302.095-.071.213-.107.356-.107h1.246v3.147h2.631v1.714h-2.631v5.417c0 .312.078.555.234.73.155.175.363.263.623.263.149 0 .274-.018.375-.054l.264-.112.199-.112.176-.054c.071 0 .13.018.175.054l.146.161.721 1.169c-.351.292-.753.513-1.208.662-.453.151-.925.225-1.411.225zM498.816 216.939v-14.477h2.406v5.563c.39-.37.818-.669 1.286-.896.468-.227 1.016-.341 1.646-.341.545 0 1.029.093 1.451.278s.774.445 1.057.779c.283.334.497.734.644 1.198.146.464.219.976.219 1.534v6.362h-2.406v-6.362c0-.61-.141-1.083-.424-1.417-.282-.334-.706-.501-1.271-.501-.415 0-.805.094-1.169.282-.363.188-.708.445-1.032.77v7.229h-2.407zM516.917 209.058c-.071.091-.141.162-.209.214-.068.052-.167.078-.297.078-.124 0-.244-.037-.36-.112l-.419-.253c-.163-.094-.355-.178-.58-.253-.224-.074-.502-.112-.833-.112-.422 0-.792.076-1.11.229s-.583.372-.794.658c-.211.286-.369.631-.473 1.038-.104.406-.156.865-.156 1.378 0 .533.058 1.007.171 1.422s.277.765.492 1.047c.214.282.474.497.779.643.305.146.649.219 1.032.219.384 0 .693-.047.931-.141s.437-.198.599-.312l.424-.312s.255-.141.404-.141c.195 0 .342.075.438.224l.692.876c-.267.312-.556.573-.867.784-.312.211-.635.38-.97.507-.334.126-.681.216-1.037.268-.357.052-.711.078-1.062.078-.617 0-1.198-.115-1.743-.346-.546-.23-1.021-.566-1.428-1.008-.405-.441-.728-.982-.964-1.622-.237-.64-.356-1.369-.356-2.187 0-.734.106-1.414.317-2.041s.521-1.169.93-1.627.916-.817 1.521-1.077c.604-.26 1.299-.39 2.084-.39.747 0 1.401.12 1.964.36.562.24 1.066.584 1.515 1.033l-.635.878zM527.019 216.939h-1.081c-.228 0-.406-.034-.536-.102-.13-.068-.227-.207-.292-.414l-.214-.711c-.254.228-.502.427-.745.599-.244.172-.496.317-.756.434s-.535.205-.828.263c-.292.058-.616.087-.974.087-.423 0-.812-.057-1.169-.171-.357-.114-.664-.285-.921-.513s-.456-.512-.599-.851c-.144-.338-.215-.733-.215-1.183 0-.378.099-.751.297-1.119s.528-.7.989-.997c.461-.296 1.074-.542 1.841-.738s1.718-.293 2.854-.293v-.589c0-.674-.141-1.173-.424-1.497-.282-.324-.693-.486-1.232-.486-.39 0-.714.045-.974.136-.26.091-.485.193-.678.307l-.53.307c-.163.091-.341.136-.536.136-.162 0-.302-.042-.419-.126s-.211-.188-.282-.312l-.438-.77c1.149-1.052 2.536-1.578 4.16-1.578.584 0 1.105.096 1.563.288s.846.458 1.164.799c.318.341.56.749.726 1.223s.248.994.248 1.559v6.312zm-4.676-1.5c.247 0 .474-.022.682-.067s.404-.112.59-.202c.185-.089.363-.2.536-.331.172-.131.346-.286.521-.465v-1.673c-.701 0-1.287.044-1.758.132-.472.088-.85.201-1.136.338-.285.138-.488.298-.608.481s-.181.383-.181.599c0 .425.125.729.375.913s.577.275.979.275zM529.386 216.939v-9.996h1.412c.247 0 .419.045.517.137.098.091.162.247.195.467l.146 1.208c.357-.617.776-1.104 1.257-1.461.48-.357 1.02-.536 1.617-.536.493 0 .902.114 1.228.341l-.312 1.803c-.02.117-.062.2-.127.248-.064.049-.152.073-.263.073-.098 0-.23-.022-.399-.068-.169-.045-.394-.068-.673-.068-.5 0-.929.138-1.285.414-.357.276-.659.68-.906 1.213v6.225h-2.407zM541.476 206.788c.63 0 1.209.101 1.738.302.529.201.985.495 1.369.881.383.387.682.861.896 1.422.214.562.321 1.203.321 1.924 0 .182-.009.333-.024.453-.017.121-.046.214-.088.283s-.099.117-.17.146c-.072.029-.163.044-.273.044h-6.176c.071 1.026.347 1.78.828 2.26.48.481 1.116.721 1.909.721.39 0 .726-.045 1.008-.136.283-.091.529-.191.74-.302l.556-.302c.159-.091.313-.136.463-.136.098 0 .182.02.253.058.071.039.134.094.186.166l.701.876c-.267.312-.564.573-.896.784-.331.211-.677.38-1.037.507s-.728.216-1.101.268c-.374.052-.736.078-1.087.078-.694 0-1.341-.115-1.938-.346s-1.117-.571-1.559-1.023c-.441-.451-.789-1.01-1.042-1.676-.254-.666-.381-1.437-.381-2.313 0-.682.11-1.323.332-1.924.221-.601.537-1.124.949-1.568.413-.445.916-.797 1.511-1.057.594-.26 1.265-.39 2.012-.39zm.048 1.725c-.701 0-1.25.198-1.646.594-.396.396-.65.958-.761 1.685h4.521c0-.312-.042-.605-.126-.881-.085-.276-.215-.518-.39-.726-.176-.208-.396-.372-.663-.492s-.578-.18-.935-.18z"/></g><g fill-rule="evenodd" clip-rule="evenodd"><path fill="#ED1C24" d="M465.718 107.561c-1.587-1.269-2.074-2.89-2.065-4.937.083-12.229.145-24.46-.012-36.688-.056-4.149 1.648-5.487 5.625-5.435 4.135.054 7.436-.026 11.282-.032 3.143-.004 4.653.878 5.013 3.886.444 3.705 2.692 4.449 6.151 4.388 2.176-.039 4.318-.016 6.575-.005 5.288-.011 9.061.086 9.592-6.161.125-1.457.985-2.094 2.542-2.067 4.859.079 9.718.014 14.581.054 2.925.025 4.141 1.582 4.126 4.479-.05 12.7-.05 25.4.015 38.102.011 1.921-.678 3.305-2.116 4.434-1.774 1.736-4.058 1.468-6.214 1.474-16.295.051-32.592.052-48.887-.001-2.155-.006-4.443.262-6.208-1.491z"/><path fill="#E0E0E0" d="M465.718 107.561c20.438.007 40.87.013 61.309.019"/><g fill="#FCFCFC"><path d="M510.411 89.706c0 2.387-1.934 4.323-4.322 4.323h-18.389c-2.385 0-4.32-1.936-4.32-4.323 0-2.386 1.935-4.321 4.32-4.321h18.389c2.388 0 4.322 1.935 4.322 4.321zM496.659 76.269c2.387 0 4.322 1.935 4.322 4.322v18.39c0 2.386-1.935 4.321-4.322 4.321-2.388 0-4.32-1.935-4.32-4.321v-18.39c0-2.387 1.932-4.322 4.32-4.322z"/></g></g></g></svg>