<svg xmlns="http://www.w3.org/2000/svg" width="1000" height="250.601" viewBox="0 0 1000 250.601"><g><path fill="#0E5461" d="M636.535 183.47h3.542v2.647c0 .247-.084.459-.253.639-.169.179-.416.268-.74.268h-2.55v6.534h-4.204v-6.534h-11.874c-.324 0-.61-.095-.856-.287s-.402-.429-.467-.713l-.486-2.313 13.333-16.937h4.555v16.696zm-4.204-8.755c0-.395.013-.821.039-1.277s.071-.932.136-1.425l-8.739 11.458h8.564v-8.756zM652.496 166.496c1.297 0 2.484.182 3.562.546 1.077.364 1.999.879 2.764 1.545s1.362 1.469 1.791 2.406c.428.938.643 1.98.643 3.128 0 .987-.153 1.9-.458 2.739-.305.839-.714 1.642-1.226 2.406-.513.766-1.113 1.506-1.801 2.221-.688.716-1.408 1.444-2.16 2.185l-6.346 6.164c.623-.172 1.233-.305 1.83-.398.597-.092 1.168-.139 1.713-.139h7.222c.519 0 .931.139 1.236.417.305.278.458.645.458 1.101v2.74h-19.309v-1.518c0-.308.068-.629.205-.962.136-.333.354-.642.652-.925l8.545-8.145c.714-.691 1.353-1.351 1.917-1.98s1.038-1.252 1.421-1.87c.382-.617.674-1.243.876-1.879.201-.635.302-1.305.302-2.008 0-.642-.098-1.206-.292-1.694-.195-.487-.474-.897-.837-1.231-.363-.333-.795-.583-1.294-.75-.5-.167-1.061-.25-1.684-.25-1.155 0-2.105.278-2.851.833-.747.556-1.269 1.302-1.567 2.24-.143.469-.357.805-.643 1.009-.286.204-.649.306-1.09.306-.195 0-.409-.019-.643-.056l-2.53-.426c.195-1.283.571-2.409 1.129-3.378.558-.969 1.255-1.777 2.092-2.425.837-.648 1.797-1.135 2.881-1.462 1.081-.326 2.246-.49 3.492-.49z"/><path fill="#fff" d="M578.435 214.777h5.641v2.163h-8.261v-14.087h2.621v11.924zM588.673 204.031c0 .208-.042.402-.126.584-.084.182-.197.341-.336.477-.14.137-.303.246-.492.327s-.39.122-.604.122c-.208 0-.404-.041-.589-.122s-.346-.19-.482-.327c-.136-.136-.245-.295-.326-.477-.082-.182-.122-.377-.122-.584 0-.214.041-.416.122-.604.081-.188.19-.351.326-.487.137-.136.297-.245.482-.326.185-.082.381-.122.589-.122.214 0 .416.041.604.122.188.081.352.19.492.326s.252.299.336.487.126.39.126.604zm-.36 2.913v9.996h-2.406v-9.996h2.406zM598.055 209.058l-.209.214c-.068.052-.167.078-.297.078-.123 0-.243-.037-.36-.112l-.419-.253c-.162-.094-.355-.178-.58-.253-.224-.074-.501-.112-.833-.112-.422 0-.792.076-1.11.229-.318.153-.583.372-.794.658-.211.286-.369.631-.473 1.038-.104.406-.156.865-.156 1.378 0 .533.057 1.007.17 1.422.113.416.278.765.492 1.047.214.282.474.497.78.643.305.146.649.219 1.033.219.383 0 .693-.047.93-.141.237-.094.437-.198.599-.312l.424-.312s.255-.141.404-.141c.195 0 .341.075.438.224l.691.876c-.266.312-.555.573-.867.784-.312.211-.635.38-.97.507s-.68.216-1.038.268c-.357.052-.711.078-1.062.078-.617 0-1.198-.115-1.744-.346-.545-.23-1.021-.566-1.427-1.008-.406-.441-.727-.982-.964-1.622-.237-.64-.355-1.369-.355-2.187 0-.734.105-1.414.316-2.041s.521-1.169.931-1.627.916-.817 1.52-1.077 1.299-.39 2.085-.39c.747 0 1.401.12 1.963.36s1.067.584 1.515 1.033l-.633.878zM604.455 206.788c.63 0 1.209.101 1.739.302.529.201.985.495 1.369.881.383.387.682.861.896 1.422.214.562.322 1.203.322 1.924 0 .182-.008.333-.024.453-.016.121-.045.214-.088.283-.042.068-.099.117-.17.146l-.272.044h-6.177c.071 1.026.348 1.78.828 2.26.48.481 1.117.721 1.91.721.39 0 .726-.045 1.008-.136.282-.091.529-.191.74-.302l.555-.302c.159-.091.313-.136.463-.136.097 0 .182.02.253.058.071.039.133.094.185.166l.701.876c-.266.312-.565.573-.896.784-.332.211-.677.38-1.038.507s-.728.216-1.101.268c-.374.052-.735.078-1.086.078-.695 0-1.341-.115-1.939-.346s-1.117-.571-1.559-1.023c-.442-.451-.789-1.01-1.042-1.676-.253-.666-.38-1.437-.38-2.313 0-.682.11-1.323.331-1.924.221-.601.538-1.124.95-1.568.412-.445.916-.797 1.51-1.057s1.265-.39 2.012-.39zm.049 1.725c-.702 0-1.25.198-1.646.594-.396.396-.649.958-.76 1.685h4.52c0-.312-.042-.605-.126-.881-.084-.276-.214-.518-.39-.726-.175-.208-.396-.372-.663-.492-.266-.12-.578-.18-.935-.18zM610.739 216.939v-9.996h1.471c.312 0 .517.146.614.438l.166.789c.201-.208.414-.396.638-.565s.461-.315.711-.438c.25-.123.518-.217.804-.282.286-.065.597-.098.935-.098.546 0 1.029.093 1.452.278s.774.445 1.057.779c.282.334.497.734.643 1.198.146.464.219.976.219 1.534v6.362h-2.407v-6.362c0-.61-.141-1.083-.423-1.417-.283-.334-.707-.501-1.271-.501-.416 0-.806.094-1.169.282-.364.188-.708.445-1.033.77v7.229h-2.407zM627.748 208.893c-.065.104-.133.177-.205.219-.071.042-.162.063-.272.063-.117 0-.242-.032-.375-.097l-.462-.219s-.375-.154-.599-.219-.489-.098-.794-.098c-.474 0-.848.101-1.121.302-.272.201-.409.464-.409.789 0 .214.07.395.209.541.14.146.325.274.555.385.23.111.492.209.785.297.292.088.591.184.896.288.305.104.604.222.896.355.292.133.554.302.784.506s.416.45.555.736.209.63.209 1.033c0 .48-.088.924-.263 1.33s-.432.757-.77 1.052-.755.526-1.252.691c-.497.166-1.066.249-1.709.249-.344 0-.681-.031-1.008-.092-.328-.062-.643-.148-.945-.258-.302-.11-.581-.24-.837-.39-.257-.149-.482-.312-.677-.487l.555-.916c.071-.11.156-.195.253-.253.097-.059.221-.088.37-.088s.291.042.424.127l.463.273c.175.097.381.188.619.272.237.084.537.127.901.127.286 0 .531-.034.736-.103s.373-.157.506-.268c.133-.11.23-.238.292-.385.062-.146.092-.297.092-.453 0-.233-.07-.425-.209-.575s-.325-.279-.555-.39c-.23-.11-.494-.209-.789-.297-.296-.088-.598-.184-.906-.288-.309-.104-.61-.226-.906-.365-.296-.14-.559-.317-.789-.531-.231-.214-.416-.478-.556-.79-.14-.312-.209-.688-.209-1.13 0-.409.081-.799.243-1.169.163-.37.401-.693.716-.969.315-.276.708-.497 1.179-.663.471-.166 1.015-.249 1.632-.249.688 0 1.315.114 1.88.341.565.228 1.036.526 1.413.896l-.546.87zM633.252 204.031c0 .208-.042.402-.126.584-.084.182-.197.341-.336.477-.14.137-.303.246-.492.327s-.39.122-.604.122c-.208 0-.404-.041-.589-.122s-.346-.19-.482-.327c-.136-.136-.245-.295-.326-.477-.082-.182-.122-.377-.122-.584 0-.214.041-.416.122-.604.081-.188.19-.351.326-.487.137-.136.297-.245.482-.326.185-.082.381-.122.589-.122.214 0 .416.041.604.122.188.081.352.19.492.326s.252.299.336.487.126.39.126.604zm-.36 2.913v9.996h-2.406v-9.996h2.406zM635.61 216.939v-9.996h1.471c.312 0 .517.146.614.438l.166.789c.201-.208.414-.396.638-.565s.461-.315.711-.438c.25-.123.518-.217.804-.282.286-.065.597-.098.935-.098.546 0 1.029.093 1.452.278s.774.445 1.057.779c.282.334.497.734.643 1.198.146.464.219.976.219 1.534v6.362h-2.407v-6.362c0-.61-.141-1.083-.423-1.417-.283-.334-.707-.501-1.271-.501-.416 0-.806.094-1.169.282-.364.188-.708.445-1.033.77v7.229h-2.407zM650.146 206.769c.428 0 .831.044 1.208.131.376.088.721.216 1.032.385h2.874v.896c0 .149-.039.267-.117.351-.078.084-.211.143-.399.176l-.896.166c.065.169.115.347.151.536s.054.387.054.594c0 .494-.099.94-.297 1.34-.198.399-.471.739-.818 1.018-.348.279-.76.495-1.237.647-.478.153-.996.229-1.554.229-.377 0-.744-.036-1.101-.107-.312.19-.468.402-.468.638 0 .203.093.352.278.447.185.095.429.162.73.201.302.04.645.059 1.028.059s.776.017 1.179.049c.403.033.796.09 1.179.171.383.081.726.21 1.027.386.302.176.546.416.731.719.185.303.277.692.277 1.167 0 .443-.108.874-.326 1.291s-.533.788-.945 1.114c-.413.326-.917.588-1.515.787s-1.279.298-2.046.298c-.76 0-1.419-.073-1.978-.219-.559-.146-1.021-.341-1.388-.584-.367-.244-.642-.525-.823-.843-.182-.318-.273-.649-.273-.994 0-.468.143-.861.429-1.179.286-.318.682-.571 1.188-.76-.247-.136-.445-.318-.594-.545s-.224-.523-.224-.887c0-.149.026-.303.078-.462s.131-.317.239-.473c.107-.156.242-.304.404-.443.162-.14.354-.265.575-.375-.506-.273-.904-.636-1.193-1.091-.289-.455-.434-.987-.434-1.598 0-.494.099-.94.297-1.339.198-.399.474-.741.828-1.023.354-.283.772-.499 1.256-.648s1.012-.226 1.584-.226zm2.639 10.59c0-.199-.058-.361-.175-.487-.117-.126-.276-.224-.477-.293-.202-.07-.437-.121-.707-.154s-.555-.05-.857-.05h-.935s-.632-.036-.93-.107c-.273.149-.492.327-.658.531s-.249.44-.249.706c0 .175.044.339.131.492.088.152.228.284.419.395.192.11.44.196.746.258.305.062.678.092 1.12.092.448 0 .834-.035 1.159-.104s.593-.166.804-.289c.211-.123.366-.269.463-.438.098-.169.146-.353.146-.552zm-2.639-5.661c.298 0 .558-.041.779-.122.221-.081.404-.193.55-.336.146-.143.256-.315.331-.516.075-.202.112-.422.112-.663 0-.494-.148-.885-.443-1.174s-.739-.434-1.33-.434c-.591 0-1.035.145-1.33.434s-.443.68-.443 1.174c0 .234.038.452.112.653.074.201.185.375.331.521s.331.26.555.341c.225.082.483.122.776.122zM673.175 209.896c0 1.033-.172 1.981-.516 2.845-.345.864-.828 1.607-1.452 2.231s-1.374 1.107-2.25 1.452-1.848.516-2.913.516h-5.377v-14.087h5.377c1.065 0 2.036.174 2.913.521s1.627.832 2.25 1.452 1.107 1.362 1.452 2.226c.343.863.516 1.811.516 2.844zm-2.679 0c0-.773-.104-1.466-.312-2.08-.208-.614-.503-1.133-.887-1.559s-.849-.752-1.398-.979c-.549-.227-1.167-.341-1.856-.341h-2.737v9.917h2.737c.688 0 1.307-.113 1.856-.341.549-.227 1.015-.554 1.398-.979s.679-.945.887-1.559c.208-.613.312-1.306.312-2.079zM679.225 206.788c.63 0 1.209.101 1.739.302.529.201.985.495 1.369.881.383.387.682.861.896 1.422.214.562.322 1.203.322 1.924 0 .182-.008.333-.024.453-.016.121-.045.214-.088.283-.042.068-.099.117-.17.146l-.272.044h-6.177c.071 1.026.348 1.78.828 2.26.48.481 1.117.721 1.91.721.39 0 .726-.045 1.008-.136.282-.091.529-.191.74-.302l.555-.302c.159-.091.313-.136.463-.136.097 0 .182.02.253.058.071.039.133.094.185.166l.701.876c-.266.312-.565.573-.896.784-.332.211-.677.38-1.038.507s-.728.216-1.101.268c-.374.052-.735.078-1.086.078-.695 0-1.341-.115-1.939-.346s-1.117-.571-1.559-1.023c-.442-.451-.789-1.01-1.042-1.676-.253-.666-.38-1.437-.38-2.313 0-.682.11-1.323.331-1.924.221-.601.538-1.124.95-1.568.412-.445.916-.797 1.51-1.057s1.265-.39 2.012-.39zm.048 1.725c-.702 0-1.25.198-1.646.594-.396.396-.649.958-.76 1.685h4.52c0-.312-.042-.605-.126-.881-.084-.276-.214-.518-.39-.726-.175-.208-.396-.372-.663-.492-.266-.12-.578-.18-.935-.18zM685.508 220.203v-13.259h1.471c.156 0 .289.036.399.107s.182.182.214.331l.195.926c.403-.461.866-.834 1.388-1.121.523-.286 1.135-.429 1.836-.429.546 0 1.044.114 1.496.341.451.228.841.557 1.169.989.328.432.581.964.76 1.598s.268 1.359.268 2.177c0 .747-.101 1.438-.302 2.075-.202.637-.489 1.188-.862 1.656-.374.467-.825.833-1.354 1.096-.53.263-1.122.395-1.778.395-.565 0-1.044-.086-1.437-.258-.393-.172-.745-.411-1.057-.716v4.092h-2.406zm4.676-11.544c-.5 0-.927.105-1.281.316-.354.211-.684.508-.989.892v4.481c.272.338.57.573.891.706.322.133.667.2 1.038.2.364 0 .693-.068.989-.205.295-.136.546-.344.75-.624.205-.279.362-.631.472-1.057s.166-.927.166-1.505c0-.584-.047-1.08-.141-1.486-.094-.406-.229-.735-.404-.989s-.388-.438-.638-.555-.535-.174-.853-.174zM699.809 217.095c-.864 0-1.529-.245-1.997-.735-.467-.49-.701-1.167-.701-2.031v-5.583h-1.013c-.13 0-.242-.042-.336-.126s-.141-.211-.141-.38v-.955l1.607-.263.507-2.728c.026-.13.086-.23.18-.302.094-.071.212-.107.355-.107h1.247v3.147h2.63v1.714h-2.63v5.417c0 .312.078.555.234.73.156.175.363.263.624.263.149 0 .274-.018.375-.054l.263-.112.2-.112.176-.054c.071 0 .13.018.175.054l.146.161.721 1.169c-.351.292-.753.513-1.208.662-.456.151-.927.225-1.414.225zM703.492 215.615c0-.202.038-.393.112-.575.075-.182.179-.337.312-.467s.291-.234.473-.312c.182-.078.376-.117.584-.117.201 0 .393.039.575.117.182.078.338.182.468.312s.234.286.312.467c.078.182.117.374.117.575 0 .208-.039.401-.117.58-.078.179-.182.333-.312.462-.13.13-.286.232-.468.307-.182.075-.374.112-.575.112-.208 0-.403-.037-.584-.112s-.339-.177-.473-.307c-.133-.13-.237-.284-.312-.462s-.112-.373-.112-.58z"/><g fill-rule="evenodd" clip-rule="evenodd" fill="#ED1C24"><path d="M644.253 69.002c1.105 7.266 1.384 28.936 1.365 30.134-.074 4.729-.053 9.459-.02 14.188.023 3.177-.115 6.395-4.409 6.271-4.249-.124-4.217-3.4-4.2-6.529.035-5.79.009-11.58-1.11-17.54-.256.854-.723 1.704-.735 2.558-.071 5.515-.052 11.035-.04 16.549.008 2.958-1.182 5.001-4.332 5.003-3.183.005-4.309-2.073-4.287-5.027.038-4.57.218-9.154-.071-13.706-.133-2.09-.193-20.858.691-26.619.265-1.75.417-3.519.619-5.28l-1.271-.185c-.873 5.175-1.804 10.338-2.593 15.523-.381 2.505-.909 4.996-4.062 4.653-3.296-.359-3.098-3.089-2.755-5.483.919-6.384 1.747-12.794 3.093-19.088.306-1.422 2.422-3.104 3.984-3.463 2.506-.577 5.246-.154 7.921-.154.422 4.687.602 9.053 1.311 13.336.318 1.945 1.684 3.717 2.576 5.567.98-1.916 2.498-3.745 2.832-5.766.702-4.277.782-8.656 1.122-13.048.169-.043.469-.201.759-.185 12.757.72 10.371-2.218 12.598 11.303.615 3.722 1.291 7.437 1.8 11.173.345 2.522.752 5.484-2.869 5.804-3.126.274-3.62-2.247-3.943-4.773-.503-3.901-1.174-7.783-1.854-11.659-.226-1.292-.69-2.543-1.047-3.812l-1.073.255zM636.208 46.644c1.568.008 3.141-.011 4.708.01 4.255.06 4.37.996 4.158 5.896-.177 4.202-5.241 6.739-9.793 6.436-4.482-.298-7.717-2.841-8.193-7.133-.344-3.107-.464-5.298 3.88-5.208 1.932.041 3.509-.007 5.24-.001zM647.122 41.547c-3.158 4.258-3.739 4.108-3.739 4.108l-14.779-.041s-3.458-2.236-4.862-3.996c6.389-5.358 16.806-5.62 23.38-.071zM635.154 77.219c-.378-4.577-.85-9.151-1.05-13.737-.033-.797 1.062-1.642 1.632-2.466.763.618 2.208 1.262 2.184 1.851-.169 4.812-.611 9.616-.975 14.422l-1.791-.07z"/></g><path fill="#0E5461" d="M773.224 166.496c1.297 0 2.469.176 3.514.528 1.044.352 1.936.839 2.676 1.462s1.307 1.354 1.703 2.193c.396.839.594 1.746.594 2.721 0 .852-.102 1.601-.302 2.249-.202.648-.493 1.212-.876 1.694s-.85.889-1.401 1.222-1.178.611-1.878.833c1.686.506 2.945 1.277 3.775 2.313s1.246 2.339 1.246 3.906c0 1.333-.26 2.511-.779 3.536-.519 1.024-1.219 1.885-2.102 2.582s-1.904 1.225-3.065 1.583-2.392.537-3.688.537c-1.414 0-2.647-.155-3.698-.463-1.052-.309-1.966-.765-2.745-1.37-.778-.604-1.439-1.345-1.984-2.221-.545-.876-1.013-1.888-1.402-3.036l2.122-.833c.362-.148.733-.222 1.109-.222.337 0 .64.068.905.204s.47.333.613.592c.233.432.489.858.769 1.277.278.42.613.793 1.003 1.12.389.327.846.592 1.371.796s1.152.306 1.879.306c.817 0 1.531-.126 2.141-.38.61-.252 1.119-.583 1.528-.99s.714-.86.915-1.36.302-1.002.302-1.509c0-.641-.071-1.225-.214-1.749-.144-.524-.441-.972-.896-1.342-.453-.371-1.105-.66-1.955-.87-.851-.21-1.989-.315-3.416-.315v-3.276c1.18 0 2.16-.099 2.938-.296.778-.197 1.398-.472 1.858-.824.461-.352.782-.774.965-1.268.181-.493.271-1.037.271-1.629 0-1.271-.363-2.23-1.09-2.878-.727-.648-1.719-.972-2.979-.972-1.142 0-2.089.287-2.842.86-.752.573-1.277 1.31-1.576 2.209-.156.468-.369.804-.643 1.008-.271.203-.629.305-1.07.305-.207 0-.428-.018-.662-.055l-2.529-.419c.194-1.284.57-2.41 1.129-3.379.557-.969 1.255-1.778 2.092-2.426s1.797-1.136 2.881-1.462c1.082-.328 2.247-.492 3.493-.492zM804.97 166.792v1.98c0 .592-.068 1.071-.205 1.435-.137.364-.27.669-.398.917l-10.647 20.879c-.221.432-.532.799-.935 1.101-.402.303-.947.454-1.635.454h-3.484l10.9-20.454c.454-.839.96-1.561 1.518-2.166h-13.469c-.299 0-.559-.104-.778-.314-.222-.209-.331-.457-.331-.74v-3.091h19.464z"/><path fill="#fff" d="M735.185 216.939h-2.64v-6.157h-6.605v6.157h-2.64v-14.087h2.64v6.06h6.605v-6.06h2.64v14.087zM742.16 206.788c.747 0 1.424.12 2.031.36s1.125.582 1.554 1.023c.429.442.76.981.994 1.617.233.637.35 1.348.35 2.134 0 .792-.116 1.507-.35 2.143-.234.637-.565 1.179-.994 1.627s-.947.792-1.554 1.033-1.284.36-2.031.36c-.747 0-1.426-.12-2.036-.36-.611-.24-1.132-.584-1.564-1.033-.432-.448-.766-.99-1.003-1.627-.237-.636-.355-1.351-.355-2.143 0-.786.119-1.497.355-2.134.237-.636.572-1.175 1.003-1.617.432-.441.953-.783 1.564-1.023.61-.24 1.289-.36 2.036-.36zm0 8.446c.831 0 1.446-.279 1.846-.837s.599-1.377.599-2.455-.2-1.9-.599-2.465-1.015-.848-1.846-.848c-.845 0-1.468.284-1.871.853-.403.568-.604 1.388-.604 2.46 0 1.071.201 1.888.604 2.45.403.562 1.026.842 1.871.842zM751.171 206.944v6.352c0 .61.142 1.083.424 1.417.283.334.707.501 1.271.501.416 0 .805-.092 1.17-.277.363-.185.707-.44 1.031-.765v-7.229h2.407v9.996h-1.472c-.312 0-.516-.146-.613-.438l-.166-.799c-.207.208-.422.398-.643.57-.221.172-.457.318-.707.438s-.52.214-.809.283c-.289.068-.599.102-.93.102-.545 0-1.027-.092-1.447-.277-.418-.185-.771-.447-1.057-.785-.285-.337-.502-.738-.647-1.203-.146-.464-.22-.976-.22-1.534v-6.352h2.408zM765.979 208.893c-.065.104-.133.177-.205.219-.071.042-.162.063-.272.063-.117 0-.242-.032-.376-.097l-.462-.219s-.375-.154-.599-.219c-.225-.065-.489-.098-.795-.098-.474 0-.848.101-1.12.302s-.409.464-.409.789c0 .214.07.395.209.541.141.146.325.274.556.385.23.111.492.209.784.297.293.088.592.184.896.288.305.104.604.222.896.355.292.133.554.302.784.506s.415.45.556.736c.139.286.209.63.209 1.033 0 .48-.088.924-.264 1.33-.175.406-.432.757-.77 1.052s-.754.526-1.252.691c-.496.166-1.066.249-1.709.249-.344 0-.681-.031-1.008-.092-.328-.062-.644-.148-.945-.258-.303-.11-.582-.24-.838-.39-.257-.149-.482-.312-.678-.487l.556-.916c.071-.11.155-.195.253-.253s.221-.088.371-.088c.148 0 .29.042.424.127l.463.273c.175.097.381.188.618.272s.537.127.901.127c.285 0 .531-.034.735-.103s.373-.157.507-.268c.133-.11.23-.238.292-.385.062-.146.093-.297.093-.453 0-.233-.07-.425-.21-.575s-.325-.279-.556-.39c-.23-.11-.493-.209-.789-.297-.295-.088-.598-.184-.906-.288-.309-.104-.609-.226-.905-.365s-.559-.317-.789-.531c-.231-.214-.416-.478-.556-.79-.14-.312-.209-.688-.209-1.13 0-.409.081-.799.243-1.169.163-.37.401-.693.716-.969.315-.276.708-.497 1.18-.663.471-.166 1.014-.249 1.631-.249.689 0 1.315.114 1.881.341.564.228 1.035.526 1.412.896l-.544.87zM771.483 204.031c0 .208-.042.402-.127.584-.084.182-.196.341-.336.477-.14.137-.303.246-.492.327-.188.081-.389.122-.604.122-.208 0-.404-.041-.59-.122-.185-.081-.346-.19-.482-.327-.136-.136-.244-.295-.326-.477-.081-.182-.121-.377-.121-.584 0-.214.04-.416.121-.604.082-.188.19-.351.326-.487.137-.136.298-.245.482-.326.186-.082.382-.122.59-.122.215 0 .416.041.604.122.189.081.353.19.492.326s.252.299.336.487c.085.189.127.39.127.604zm-.36 2.913v9.996h-2.406v-9.996h2.406zM773.841 216.939v-9.996h1.471c.312 0 .518.146.614.438l.166.789c.201-.208.413-.396.638-.565s.461-.315.711-.438c.25-.123.518-.217.805-.282.285-.065.597-.098.935-.098.546 0 1.029.093 1.452.278.422.185.773.445 1.057.779.282.334.496.734.643 1.198s.22.976.22 1.534v6.362h-2.407v-6.362c0-.61-.141-1.083-.423-1.417-.282-.334-.706-.501-1.271-.501-.416 0-.806.094-1.169.282-.363.188-.708.445-1.033.77v7.229h-2.409zM788.376 206.769c.429 0 .832.044 1.209.131.376.088.721.216 1.031.385h2.875v.896c0 .149-.039.267-.117.351-.078.084-.211.143-.399.176l-.896.166c.065.169.115.347.151.536.035.188.053.387.053.594 0 .494-.099.94-.297 1.34-.197.399-.471.739-.818 1.018s-.76.495-1.236.647c-.479.153-.996.229-1.555.229-.377 0-.744-.036-1.101-.107-.312.19-.468.402-.468.638 0 .203.093.352.277.447.186.095.43.162.73.201.303.04.645.059 1.028.059s.776.017 1.179.049c.402.033.796.09 1.18.171.383.081.725.21 1.027.386.302.176.545.416.73.719.186.303.277.692.277 1.167 0 .443-.108.874-.326 1.291s-.533.788-.945 1.114c-.412.326-.917.588-1.515.787s-1.279.298-2.046.298c-.76 0-1.419-.073-1.978-.219-.559-.146-1.021-.341-1.388-.584-.367-.244-.643-.525-.824-.843-.182-.318-.272-.649-.272-.994 0-.468.144-.861.429-1.179.285-.318.682-.571 1.188-.76-.247-.136-.444-.318-.595-.545-.148-.228-.223-.523-.223-.887 0-.149.025-.303.077-.462s.132-.317.239-.473c.106-.156.241-.304.404-.443.162-.14.354-.265.574-.375-.506-.273-.904-.636-1.193-1.091-.289-.455-.434-.987-.434-1.598 0-.494.1-.94.297-1.339.198-.399.475-.741.828-1.023.354-.283.773-.499 1.257-.648s1.015-.226 1.586-.226zm2.641 10.59c0-.199-.059-.361-.176-.487-.117-.126-.275-.224-.477-.293-.202-.07-.438-.121-.707-.154s-.555-.05-.857-.05h-.936c-.32 0-.631-.036-.93-.107-.273.149-.492.327-.658.531-.165.205-.248.44-.248.706 0 .175.044.339.131.492.088.152.229.284.42.395s.439.196.745.258.679.092 1.12.092c.448 0 .834-.035 1.159-.104s.593-.166.804-.289c.211-.123.365-.269.463-.438s.147-.353.147-.552zm-2.641-5.661c.299 0 .559-.041.779-.122.221-.081.404-.193.551-.336.146-.143.256-.315.331-.516.075-.202.112-.422.112-.663 0-.494-.148-.885-.443-1.174s-.738-.434-1.33-.434c-.591 0-1.034.145-1.33.434-.295.289-.443.68-.443 1.174 0 .234.038.452.113.653.074.201.185.375.33.521.146.146.332.26.556.341.223.082.482.122.774.122zM811.405 209.896c0 1.033-.172 1.981-.516 2.845-.345.864-.828 1.607-1.451 2.231-.624.624-1.374 1.107-2.251 1.452s-1.848.516-2.913.516h-5.377v-14.087h5.377c1.065 0 2.036.174 2.913.521s1.627.832 2.251 1.452c.623.62 1.106 1.362 1.451 2.226.344.863.516 1.811.516 2.844zm-2.678 0c0-.773-.104-1.466-.312-2.08-.208-.614-.504-1.133-.887-1.559s-.85-.752-1.398-.979c-.549-.227-1.167-.341-1.855-.341h-2.737v9.917h2.737c.688 0 1.307-.113 1.855-.341.549-.227 1.016-.554 1.398-.979s.679-.945.887-1.559c.207-.613.312-1.306.312-2.079zM817.456 206.788c.629 0 1.209.101 1.738.302.529.201.986.495 1.369.881.383.387.682.861.896 1.422.214.562.321 1.203.321 1.924 0 .182-.009.333-.024.453-.016.121-.045.214-.088.283-.042.068-.1.117-.17.146-.072.029-.162.044-.273.044h-6.176c.07 1.026.348 1.78.828 2.26.48.481 1.117.721 1.909.721.39 0 .726-.045 1.009-.136.281-.091.529-.191.74-.302l.555-.302c.159-.091.313-.136.463-.136.098 0 .182.02.254.058.07.039.133.094.185.166l.701.876c-.267.312-.565.573-.896.784-.332.211-.678.38-1.038.507s-.728.216-1.101.268c-.374.052-.736.078-1.086.078-.695 0-1.342-.115-1.939-.346s-1.117-.571-1.559-1.023c-.441-.451-.789-1.01-1.043-1.676-.253-.666-.379-1.437-.379-2.313 0-.682.109-1.323.33-1.924.221-.601.538-1.124.951-1.568.412-.445.915-.797 1.51-1.057.595-.26 1.265-.39 2.013-.39zm.049 1.725c-.702 0-1.251.198-1.646.594-.396.396-.65.958-.76 1.685h4.52c0-.312-.042-.605-.127-.881-.084-.276-.214-.518-.389-.726-.176-.208-.396-.372-.663-.492s-.579-.18-.935-.18zM823.739 220.203v-13.259h1.471c.156 0 .289.036.399.107s.183.182.214.331l.195.926c.402-.461.865-.834 1.389-1.121.522-.286 1.135-.429 1.836-.429.546 0 1.044.114 1.496.341.451.228.84.557 1.168.989.328.432.582.964.76 1.598.18.633.269 1.359.269 2.177 0 .747-.101 1.438-.302 2.075s-.488 1.188-.862 1.656c-.374.467-.825.833-1.354 1.096-.529.263-1.121.395-1.777.395-.565 0-1.045-.086-1.438-.258-.393-.172-.745-.411-1.057-.716v4.092h-2.407zm4.676-11.544c-.5 0-.927.105-1.281.316-.354.211-.684.508-.988.892v4.481c.272.338.57.573.891.706.322.133.668.2 1.038.2.364 0 .693-.068.989-.205.295-.136.545-.344.75-.624.205-.279.361-.631.473-1.057.109-.425.165-.927.165-1.505 0-.584-.047-1.08-.142-1.486-.094-.406-.229-.735-.404-.989-.175-.253-.388-.438-.638-.555s-.535-.174-.853-.174zM838.04 217.095c-.863 0-1.529-.245-1.997-.735s-.701-1.167-.701-2.031v-5.583h-1.013c-.131 0-.242-.042-.337-.126s-.142-.211-.142-.38v-.955l1.607-.263.508-2.728c.025-.13.086-.23.18-.302s.213-.107.355-.107h1.247v3.147h2.63v1.714h-2.63v5.417c0 .312.077.555.233.73s.363.263.624.263c.149 0 .274-.018.375-.054l.263-.112.199-.112.176-.054c.072 0 .131.018.176.054l.146.161.721 1.169c-.352.292-.754.513-1.209.662-.453.151-.924.225-1.411.225zM841.722 215.615c0-.202.038-.393.113-.575.074-.182.178-.337.311-.467.134-.13.291-.234.473-.312.182-.078.377-.117.585-.117.201 0 .394.039.575.117.182.078.338.182.467.312.131.13.234.286.312.467.078.182.117.374.117.575 0 .208-.039.401-.117.58s-.182.333-.312.462c-.129.13-.285.232-.467.307s-.374.112-.575.112c-.208 0-.403-.037-.585-.112s-.339-.177-.473-.307c-.133-.13-.236-.284-.311-.462-.075-.179-.113-.373-.113-.58z"/><g fill="#ED1C24"><path d="M787.566 64.962l-13.097 10.366-13.099 10.371v28.538h18.813v-24.175h14.758v24.175h18.806v-28.538l-13.092-10.371zM809.25 70.577v-13.559h-9.767v5.908l-6.954-5.448-4.415-3.466-4.417 3.466-31.217 24.453 3.359 4.297 32.275-25.286 32.275 25.286 3.365-4.297z"/></g><path fill="#0E5461" d="M915.634 166.496c1.297 0 2.484.182 3.562.546 1.076.364 1.998.879 2.764 1.545.766.667 1.363 1.469 1.791 2.407.428.938.643 1.98.643 3.128 0 .987-.152 1.9-.457 2.739-.307.84-.715 1.642-1.227 2.406-.514.766-1.113 1.506-1.801 2.222s-1.408 1.443-2.16 2.184l-6.346 6.164c.623-.173 1.232-.306 1.83-.397.596-.093 1.168-.14 1.713-.14h7.221c.52 0 .932.14 1.236.417s.457.645.457 1.102v2.739h-19.309v-1.518c0-.309.068-.63.205-.963.135-.333.352-.642.65-.926l8.545-8.145c.715-.69 1.354-1.351 1.918-1.98.564-.629 1.037-1.252 1.42-1.869s.676-1.243.877-1.879.301-1.305.301-2.009c0-.641-.096-1.206-.291-1.693s-.475-.897-.838-1.23-.795-.583-1.293-.75c-.5-.167-1.061-.25-1.684-.25-1.156 0-2.105.277-2.852.833s-1.27 1.302-1.568 2.24c-.143.469-.355.805-.641 1.009-.287.203-.65.305-1.092.305-.193 0-.408-.019-.641-.056l-2.531-.425c.195-1.284.57-2.409 1.129-3.379.559-.968 1.256-1.776 2.092-2.425.838-.647 1.797-1.135 2.881-1.462s2.25-.49 3.496-.49zM944.829 183.47h3.543v2.646c0 .247-.084.46-.252.639-.17.18-.416.269-.74.269h-2.551v6.534h-4.203v-6.534h-11.873c-.324 0-.611-.096-.857-.287-.246-.19-.402-.429-.467-.712l-.486-2.314 13.334-16.937h4.553v16.696zm-4.203-8.756c0-.395.012-.82.039-1.276.025-.457.07-.932.137-1.426l-8.74 11.458h8.564v-8.756z"/><path fill="#fff" d="M880.313 213.616c.143 0 .266.056.369.166l1.033 1.12c-.572.708-1.275 1.25-2.109 1.627s-1.836.565-3.006.565c-1.045 0-1.986-.179-2.82-.536s-1.547-.854-2.139-1.49c-.59-.637-1.043-1.396-1.359-2.28-.314-.883-.471-1.848-.471-2.894 0-1.059.174-2.027.525-2.907.35-.881.844-1.639 1.48-2.275s1.398-1.132 2.285-1.485c.887-.354 1.865-.531 2.938-.531 1.045 0 1.959.167 2.742.502.781.334 1.453.777 2.012 1.33l-.877 1.218c-.053.077-.119.146-.199.204-.082.059-.193.088-.338.088-.148 0-.301-.059-.457-.176-.156-.116-.354-.243-.594-.38-.24-.136-.545-.263-.912-.38s-.832-.175-1.396-.175c-.664 0-1.271.115-1.828.346-.555.23-1.031.56-1.432.988-.398.429-.711.95-.936 1.563-.223.614-.336 1.305-.336 2.07 0 .793.113 1.497.336 2.114.225.617.527 1.137.912 1.559.383.423.834.745 1.354.97.52.224 1.078.336 1.676.336.357 0 .68-.02.969-.059s.557-.101.799-.185c.244-.085.475-.193.691-.327.219-.133.434-.297.648-.491l.205-.142c.071-.034.15-.053.235-.053zM887.823 206.787c.746 0 1.424.12 2.031.36s1.125.581 1.553 1.023c.43.441.762.98.994 1.617.234.636.352 1.348.352 2.133 0 .793-.117 1.507-.352 2.144-.232.637-.564 1.179-.994 1.627-.428.448-.945.793-1.553 1.033-.607.239-1.285.36-2.031.36-.748 0-1.426-.121-2.037-.36-.609-.24-1.131-.585-1.562-1.033s-.768-.99-1.004-1.627-.355-1.351-.355-2.144c0-.785.119-1.497.355-2.133.236-.637.572-1.176 1.004-1.617.432-.442.953-.783 1.562-1.023.611-.24 1.289-.36 2.037-.36zm0 8.446c.83 0 1.447-.279 1.846-.838.4-.559.6-1.377.6-2.455s-.199-1.899-.6-2.465c-.398-.564-1.016-.848-1.846-.848-.844 0-1.469.284-1.871.853s-.604 1.389-.604 2.46c0 1.072.201 1.889.604 2.45.402.563 1.027.843 1.871.843zM894.634 216.938v-9.995h1.471c.311 0 .516.146.613.438l.166.789c.201-.208.414-.396.639-.565.223-.169.461-.315.711-.438s.518-.218.803-.282c.287-.065.598-.098.936-.098.545 0 1.029.093 1.451.277.422.186.775.445 1.057.779.283.335.498.734.645 1.198.145.465.219.977.219 1.535v6.361h-2.406v-6.361c0-.61-.141-1.083-.424-1.418-.283-.334-.707-.502-1.271-.502-.416 0-.805.095-1.17.283-.363.188-.707.444-1.031.77v7.229h-2.409zM911.644 208.892c-.064.104-.133.177-.205.219-.072.043-.162.063-.273.063-.115 0-.242-.032-.375-.098l-.463-.219c-.174-.081-.375-.154-.598-.22-.225-.064-.49-.097-.795-.097-.475 0-.848.101-1.119.302-.273.201-.41.465-.41.789 0 .214.07.395.209.541.141.146.326.274.557.385s.492.209.783.297c.293.088.592.184.896.287.305.104.604.223.896.355.293.134.553.303.783.507.23.205.416.45.557.735.139.286.209.631.209 1.033 0 .48-.088.924-.264 1.33-.174.405-.432.756-.77 1.052s-.754.526-1.252.691c-.496.166-1.066.249-1.709.249-.344 0-.68-.031-1.008-.093s-.645-.147-.945-.259c-.303-.11-.582-.239-.838-.39-.256-.148-.482-.312-.678-.486l.557-.916c.07-.11.154-.195.252-.253.098-.059.221-.088.371-.088.148 0 .291.042.424.126l.463.273c.174.098.381.188.617.272.238.085.539.127.902.127.285 0 .531-.034.734-.103.205-.068.375-.157.508-.268s.23-.239.291-.385c.062-.146.094-.298.094-.453 0-.234-.07-.426-.209-.575-.141-.149-.326-.279-.557-.39s-.494-.209-.789-.297l-.906-.287c-.309-.104-.609-.226-.906-.366-.295-.139-.559-.316-.789-.53-.23-.215-.414-.478-.555-.789-.139-.312-.209-.688-.209-1.131 0-.409.08-.799.244-1.169.162-.37.4-.692.715-.969s.709-.497 1.18-.663c.471-.165 1.014-.248 1.631-.248.689 0 1.316.113 1.881.341s1.035.526 1.412.896l-.544.872zM917.507 217.095c-.863 0-1.529-.245-1.996-.736-.469-.49-.703-1.167-.703-2.031v-5.582h-1.012c-.131 0-.242-.042-.336-.127-.096-.084-.143-.211-.143-.38v-.954l1.607-.264.508-2.728c.025-.13.086-.23.18-.302s.213-.107.355-.107h1.246v3.146h2.631v1.715h-2.631v5.417c0 .312.078.555.234.73s.363.263.623.263c.15 0 .275-.018.375-.053l.264-.112.199-.112.176-.054c.072 0 .131.019.176.054l.146.161.721 1.169c-.352.292-.754.513-1.209.662-.452.15-.925.225-1.411.225zM921.765 216.938v-9.995h1.412c.248 0 .42.045.518.136s.162.247.195.468l.145 1.208c.357-.617.777-1.104 1.258-1.461s1.02-.536 1.617-.536c.492 0 .902.114 1.227.341l-.311 1.803c-.02.117-.062.199-.127.248s-.152.073-.264.073c-.098 0-.23-.022-.398-.068-.17-.045-.395-.068-.674-.068-.5 0-.928.139-1.285.414-.357.276-.658.681-.906 1.213v6.226h-2.407zM931.925 206.943v6.352c0 .61.143 1.083.424 1.417.283.335.707.502 1.271.502.416 0 .807-.093 1.17-.277.363-.186.707-.44 1.033-.765v-7.229h2.406v9.995h-1.473c-.311 0-.516-.146-.613-.438l-.166-.799c-.207.208-.422.398-.643.57s-.455.318-.705.438-.52.214-.809.282-.6.103-.932.103c-.545 0-1.027-.093-1.445-.278-.42-.185-.771-.446-1.059-.784-.285-.338-.502-.738-.646-1.203-.146-.464-.221-.976-.221-1.534v-6.352h2.408zM947.823 209.057c-.07.092-.141.163-.209.215s-.166.078-.297.078c-.123 0-.244-.038-.359-.112l-.42-.253c-.162-.095-.355-.179-.58-.254-.223-.074-.502-.112-.832-.112-.422 0-.793.077-1.111.229s-.582.372-.793.657c-.211.286-.369.632-.473 1.038-.104.405-.156.865-.156 1.378 0 .533.057 1.007.17 1.423s.277.765.492 1.047c.215.283.475.497.779.644.305.146.65.219 1.033.219s.693-.047.93-.142c.238-.094.438-.197.6-.312l.424-.312c.119-.094.254-.142.404-.142.195 0 .342.075.438.225l.693.877c-.268.312-.557.573-.867.784-.312.211-.635.38-.971.506-.334.127-.68.217-1.037.269s-.711.078-1.062.078c-.617 0-1.197-.116-1.742-.347-.547-.23-1.021-.566-1.428-1.008s-.729-.982-.965-1.622-.355-1.369-.355-2.188c0-.733.105-1.414.316-2.041.211-.626.521-1.169.93-1.627.41-.457.916-.816 1.521-1.076.604-.26 1.299-.39 2.084-.39.746 0 1.4.12 1.963.36s1.066.585 1.516 1.033l-.636.878zM953.378 217.095c-.865 0-1.531-.245-1.998-.736-.467-.49-.701-1.167-.701-2.031v-5.582h-1.014c-.129 0-.242-.042-.336-.127-.094-.084-.141-.211-.141-.38v-.954l1.607-.264.506-2.728c.025-.13.086-.23.18-.302.096-.071.213-.107.357-.107h1.246v3.146h2.631v1.715h-2.631v5.417c0 .312.078.555.234.73.154.176.363.263.623.263.148 0 .273-.018.375-.053l.264-.112.199-.112.176-.054.174.054.146.161.721 1.169c-.35.292-.752.513-1.207.662s-.925.225-1.411.225zM960.558 204.03c0 .208-.043.402-.127.584-.086.183-.197.342-.336.478-.141.137-.305.245-.492.326-.189.082-.391.122-.605.122-.207 0-.404-.04-.588-.122-.186-.081-.346-.189-.482-.326-.137-.136-.246-.295-.326-.478-.082-.182-.123-.376-.123-.584 0-.215.041-.416.123-.604.08-.188.189-.351.326-.487s.297-.244.482-.326c.184-.081.381-.121.588-.121.215 0 .416.04.605.121.188.082.352.19.492.326.139.137.25.299.336.487.084.188.127.389.127.604zm-.362 2.913v9.995h-2.406v-9.995h2.406zM967.181 206.787c.748 0 1.424.12 2.031.36s1.125.581 1.555 1.023c.428.441.76.98.994 1.617.232.636.35 1.348.35 2.133 0 .793-.117 1.507-.35 2.144-.234.637-.566 1.179-.994 1.627-.43.448-.947.793-1.555 1.033-.607.239-1.283.36-2.031.36-.746 0-1.426-.121-2.035-.36-.611-.24-1.133-.585-1.564-1.033s-.766-.99-1.002-1.627c-.238-.637-.355-1.351-.355-2.144 0-.785.117-1.497.355-2.133.236-.637.57-1.176 1.002-1.617.432-.442.953-.783 1.564-1.023.609-.24 1.289-.36 2.035-.36zm0 8.446c.832 0 1.447-.279 1.848-.838.398-.559.598-1.377.598-2.455s-.199-1.899-.598-2.465c-.4-.564-1.016-.848-1.848-.848-.844 0-1.467.284-1.869.853-.404.568-.605 1.389-.605 2.46 0 1.072.201 1.889.605 2.45.402.563 1.025.843 1.869.843zM973.991 216.938v-9.995h1.471c.312 0 .518.146.615.438l.164.789c.201-.208.414-.396.639-.565s.461-.315.711-.438.518-.218.805-.282c.285-.065.598-.098.936-.098.545 0 1.029.093 1.451.277.422.186.773.445 1.057.779.283.335.496.734.643 1.198.146.465.219.977.219 1.535v6.361h-2.406v-6.361c0-.61-.141-1.083-.424-1.418-.281-.334-.705-.502-1.271-.502-.414 0-.805.095-1.168.283s-.709.444-1.033.77v7.229h-2.409zM916.466 233.276c0 1.033-.172 1.981-.516 2.845-.346.864-.828 1.607-1.453 2.231-.623.623-1.373 1.107-2.25 1.451-.877.345-1.848.517-2.912.517h-5.379v-14.087h5.379c1.064 0 2.035.174 2.912.521.877.348 1.627.832 2.25 1.452.625.62 1.107 1.362 1.453 2.226.344.864.516 1.812.516 2.844zm-2.68 0c0-.772-.104-1.466-.311-2.08-.209-.613-.504-1.133-.887-1.559-.383-.425-.85-.751-1.398-.979s-1.168-.341-1.855-.341h-2.738v9.917h2.738c.688 0 1.307-.113 1.855-.341s1.016-.554 1.398-.979c.383-.425.678-.944.887-1.559.208-.612.311-1.305.311-2.079zM922.517 230.169c.629 0 1.209.101 1.738.302s.984.495 1.369.882c.383.387.682.86.896 1.423.213.562.32 1.203.32 1.924 0 .182-.008.333-.023.453-.018.12-.047.214-.088.282-.043.068-.1.117-.17.146-.072.029-.164.044-.273.044h-6.176c.07 1.025.346 1.779.828 2.26.48.48 1.115.721 1.908.721.391 0 .727-.045 1.008-.136.283-.091.529-.192.74-.303l.557-.302c.158-.091.312-.137.463-.137.098 0 .182.02.252.059.072.039.135.095.186.166l.701.877c-.266.312-.564.573-.896.784-.33.211-.676.38-1.037.506-.359.127-.727.217-1.1.269-.375.052-.736.078-1.088.078-.693 0-1.34-.116-1.938-.347s-1.117-.571-1.559-1.022-.789-1.01-1.043-1.676-.381-1.437-.381-2.313c0-.682.111-1.323.332-1.924.221-.602.537-1.124.949-1.569.414-.444.916-.797 1.512-1.057.595-.26 1.265-.39 2.013-.39zm.046 1.725c-.701 0-1.25.198-1.645.594-.396.396-.65.958-.762 1.686h4.521c0-.312-.043-.605-.127-.882-.084-.275-.215-.518-.389-.726-.176-.208-.396-.372-.664-.492-.264-.121-.576-.18-.934-.18zM928.8 243.584v-13.259h1.471c.156 0 .289.035.398.106.111.072.182.183.215.332l.195.925c.402-.461.865-.834 1.389-1.12.521-.286 1.135-.429 1.836-.429.545 0 1.043.114 1.496.341.451.228.84.558 1.168.989s.582.964.76 1.598c.18.633.268 1.359.268 2.177 0 .747-.1 1.439-.301 2.075-.201.637-.49 1.188-.863 1.656s-.824.833-1.354 1.097c-.529.263-1.123.395-1.777.395-.566 0-1.045-.087-1.438-.259s-.746-.41-1.057-.716v4.092h-2.406zm4.676-11.545c-.5 0-.928.106-1.281.317s-.684.508-.988.891v4.481c.271.338.568.573.891.707.322.133.668.199 1.037.199.363 0 .693-.068.99-.204.295-.137.545-.345.75-.624.203-.279.361-.632.473-1.057.109-.426.164-.927.164-1.506 0-.584-.047-1.079-.141-1.485-.094-.405-.229-.735-.404-.988-.176-.254-.389-.438-.639-.556s-.534-.175-.852-.175zM943.101 240.477c-.865 0-1.531-.245-1.998-.736-.467-.49-.701-1.167-.701-2.031v-5.582h-1.014c-.129 0-.242-.042-.336-.127-.094-.084-.141-.211-.141-.38v-.954l1.607-.264.506-2.728c.025-.13.086-.23.18-.302.096-.071.213-.107.357-.107h1.246v3.146h2.631v1.715h-2.631v5.417c0 .312.078.555.234.73.154.176.363.263.623.263.148 0 .273-.018.375-.053l.264-.112.199-.112.176-.054.174.054.146.161.721 1.169c-.35.292-.752.513-1.207.662s-.925.225-1.411.225zM946.782 238.995c0-.201.037-.393.113-.574.074-.182.178-.338.311-.468s.291-.234.473-.312c.182-.078.377-.117.586-.117.201 0 .393.039.574.117.182.077.338.182.467.312.131.13.234.286.312.468s.117.373.117.574c0 .208-.039.401-.117.58s-.182.333-.312.463c-.129.13-.285.232-.467.307s-.373.112-.574.112c-.209 0-.404-.038-.586-.112s-.34-.177-.473-.307-.236-.284-.311-.463c-.076-.179-.113-.372-.113-.58z"/><g fill-rule="evenodd" clip-rule="evenodd" fill="#ED1C24"><path d="M939.263 116.412c-1.427-2.46-2.729-4.955-4.286-7.275-.696-1.036-1.914-1.719-2.864-2.597-.271-.251-.524-.611-.58-.959-.025-.163.399-.495.671-.587.316-.114.697-.061 1.046-.061 10.92.004 21.833.007 32.746.023.42 0 .841.114 1.055.142-.276 1.991-.539 3.881-.797 5.774l.664.456 4.567-3.419c.973-.441 2.362-1.22 3.855-1.687.739-.234 1.656.088 2.495.165-.443.718-.743 1.633-1.373 2.13-1.217.959-2.625 1.688-4.263 2.704-1.584-.771-4.404.874-4.811 3.57-.576 3.824-1.055 7.668-1.436 11.515-.19 1.903-.544 3.494-2.765 3.875-3.468.587-5.338-.132-6.393-2.655-1.279-3.071-2.457-6.19-3.714-9.387-.697.232-1.308.334-1.812.625-1.361.79-2.357.781-3.584-.537-2.243-2.415-5.216-2.619-8.421-1.815zm15.547.88l3.657 9.563c.811 2.109 2.661 1.426 4.074 1.254.62-.072 1.47-1.303 1.589-2.095.602-4.314 1.008-8.653 1.512-13.225-3.64 1.513-7.094 2.951-10.832 4.503zM897.826 107.554c.357-.595.915-1.503 1.459-2.416.588-1.006 1.34-1.317 2.362-.597 4.151 2.931 8.313 5.849 12.433 8.811.362.263.489.846.72 1.28-.406.19-.815.537-1.227.539-6.1.037-12.202.042-18.298.017-1.187-.002-1.403-.658-.947-1.687 1.024-2.325 1.316-2.516 3.851-2.163.758.104 1.508.244 2.347.049-.915-.279-1.816-.66-2.753-.811-1.933-.311-2.634-1.445-2.425-3.273.153-1.343-.258-1.63-1.722-1.847-2.181-.316-4.3-1.317-6.322-2.272-.475-.225-.809-1.542-.611-2.165.204-.627 1.312-1.551 1.747-1.419 2.255.681 4.753 1.245 6.509 2.669 1.435 1.171 1.955 3.478 2.877 5.285zm-9.765-6.957c2.072.725 4.133 1.44 6.634 2.311-1.972-1.937-5.341-2.952-6.634-2.311zM895.768 116.316c.665.258 1.398.411 1.978.792 2.142 1.422 4.214 2.948 6.36 4.362.42.276 1.14.495 1.561.333 3.097-1.213 6.151-2.53 9.41-3.889l-1.284-1.187c1.638-.441 2.868.381 2.922 1.879v.357c.711 3.598-.65 5.735-4.244 6.811-2.318.699-4.428 2.083-6.686 3.034-.516.221-1.417.146-1.86-.177-4.739-3.452-9.436-6.952-14.082-10.523-.482-.372-.736-1.298-.75-1.983-.109-4.855-.081-4.862 4.5-6.142.253-.067.538-.009.808-.009l.232.571-3.649 1.61 1.907 1.961-.408.443-2.054-1.217c-.792 2.702-.511 3.57 1.561 5.118 4.028 2.99 8.047 5.991 12.099 9.003.978-2.771.506-4.313-1.742-5.889-2.24-1.575-4.49-3.145-6.739-4.72l.16-.538zM936.958 103.129c-.172-4.748 3.282-7.823 8.131-7.786 1.438.007 2.996-.428 4.304-1.06 3.294-1.58 6.481-1.612 9.482.437 2.859 1.951 4.244 4.731 3.905 8.408-8.685.001-17.172.001-25.822.001zm19.093-8.081c-3.641-1.115-6.079-.26-7.717 2.594 2.401-.812 5.119-1.721 7.717-2.594zm-10.116 2.027c-2.662-1.124-4.684-.461-6.052 1.891 1.893-.59 3.998-1.249 6.052-1.891zM920.813 86.383v-7.865h21.518v7.865h-21.518zM918.37 78.531v7.835h-21.45v-7.835h21.45zM907.366 95.956v-7.735h21.427v7.735h-21.427zM907.371 76.366v-7.721h21.417v7.721h-21.417zM949.04 124.101c-.005 3.875-2.953 6.79-6.839 6.767-3.816-.021-6.89-3.085-6.871-6.843.027-3.67 3.269-6.872 6.948-6.857 3.775.008 6.771 3.079 6.762 6.933zm-9.845.715c.725.567 1.719 1.905 2.937 2.156 1.73.36 2.98-.911 3.082-2.75.109-1.854-.964-2.982-2.811-3.076-1.846-.096-2.922.892-3.208 3.67zM903.304 119.229c1.53-.314 2.701-1.963 4.337-.125-1.532.195-2.658 2.025-4.337.125zM907.627 117.44c1.442-.585 2.587-1.577 4.285-.295-1.512.354-2.534 2.01-4.285.295zM899.936 116.637c1.621-.088 2.811-.148 4.007-.211-1.136.697-2.171 2.201-4.007.211z"/></g><path fill="#0E5461" d="M351.734 168.735c0 .654-.218 1.185-.652 1.592-.435.407-1.158.611-2.17.611h-7.747l-1.012 5.59c1.271-.247 2.433-.37 3.484-.37 1.479 0 2.78.21 3.902.629 1.122.42 2.066 1 2.832 1.74s1.343 1.607 1.732 2.601.584 2.064.584 3.212c0 1.419-.263 2.715-.789 3.887-.525 1.173-1.255 2.175-2.189 3.008-.935.833-2.041 1.479-3.319 1.935-1.278.456-2.67.685-4.175.685-.883 0-1.72-.086-2.511-.259s-1.535-.404-2.229-.694c-.694-.29-1.337-.623-1.927-.999-.59-.377-1.119-.774-1.586-1.194l1.479-1.943c.312-.42.727-.63 1.246-.63.324 0 .652.1.983.297.331.197.717.413 1.158.647.441.234.954.45 1.538.647.583.198 1.291.297 2.122.297.882 0 1.661-.136 2.335-.407s1.236-.651 1.684-1.139.785-1.067 1.012-1.74c.227-.672.341-1.403.341-2.193 0-1.456-.445-2.594-1.333-3.415-.889-.82-2.196-1.23-3.922-1.23-1.363 0-2.732.234-4.107.703l-2.998-.814 2.335-12.994h13.898v1.94zM376.395 166.792v1.98c0 .593-.068 1.07-.205 1.435s-.27.67-.399.916l-10.647 20.88c-.221.432-.532.799-.934 1.102-.402.302-.948.453-1.635.453h-3.484l10.9-20.454c.454-.839.96-1.561 1.518-2.165h-13.469c-.299 0-.558-.105-.778-.315-.221-.209-.331-.456-.331-.74v-3.091h19.464z"/><path fill="#fff" d="M301.568 202.852h2.202c.227 0 .417.054.57.16.152.107.255.252.307.434l2.396 8.427c.059.208.112.434.161.678l.141.774c.052-.272.108-.531.17-.774.062-.244.128-.47.2-.678l2.767-8.427c.052-.149.154-.285.307-.409.152-.123.339-.185.56-.185h.77c.228 0 .416.054.565.16.149.107.253.252.312.434l2.747 8.427c.143.416.267.877.37 1.384l.142-.73.151-.653 2.396-8.427c.045-.162.146-.302.302-.419.156-.116.344-.175.565-.175h2.056l-4.375 14.087h-2.367l-3.079-9.625-.122-.399-.122-.458-.122.458-.122.399-3.108 9.625h-2.367l-4.373-14.088zM329.996 216.938h-1.082c-.227 0-.406-.034-.536-.103s-.228-.206-.292-.414l-.214-.711c-.253.228-.501.427-.745.6-.244.172-.495.316-.755.433-.26.117-.536.205-.828.264-.292.059-.617.088-.974.088-.422 0-.812-.058-1.169-.171-.357-.114-.665-.285-.921-.514-.257-.228-.457-.512-.599-.851-.143-.339-.214-.732-.214-1.183 0-.378.099-.751.297-1.119.198-.368.527-.7.989-.997.461-.297 1.075-.542 1.841-.738.766-.195 1.718-.293 2.854-.293v-.589c0-.674-.142-1.173-.424-1.497-.283-.324-.693-.486-1.232-.486-.39 0-.715.046-.974.137-.26.091-.486.193-.677.307l-.531.308c-.162.091-.341.136-.536.136-.162 0-.302-.042-.419-.126-.117-.085-.211-.188-.282-.312l-.438-.77c1.149-1.052 2.536-1.578 4.16-1.578.584 0 1.106.096 1.563.287.458.192.846.458 1.165.799.318.342.56.749.726 1.223.166.475.249.994.249 1.56v6.31zm-4.676-1.5c.247 0 .474-.022.682-.067.208-.045.404-.112.589-.201.185-.09.364-.2.536-.331s.346-.286.521-.465v-1.674c-.702 0-1.288.045-1.759.133s-.849.201-1.135.339c-.286.137-.489.298-.609.48-.12.184-.18.383-.18.599 0 .425.125.729.375.912.251.184.577.275.98.275zM335.646 217.095c-.864 0-1.529-.245-1.997-.736-.467-.49-.701-1.167-.701-2.031v-5.582h-1.013c-.13 0-.242-.042-.336-.127-.094-.084-.141-.211-.141-.38v-.954l1.607-.264.507-2.728c.026-.13.086-.23.18-.302.094-.071.212-.107.355-.107h1.247v3.146h2.63v1.715h-2.63v5.417c0 .312.078.555.234.73.156.176.363.263.624.263.149 0 .274-.018.375-.053l.263-.112.2-.112.176-.054c.071 0 .13.019.175.054l.146.161.721 1.169c-.351.292-.753.513-1.208.662s-.927.225-1.414.225zM344.034 206.787c.63 0 1.209.101 1.739.302.529.201.985.495 1.369.882s.682.86.896 1.423c.214.562.322 1.203.322 1.924 0 .182-.008.333-.024.453s-.045.214-.088.282c-.042.068-.099.117-.17.146l-.272.044h-6.177c.071 1.025.348 1.779.828 2.26s1.117.721 1.91.721c.39 0 .726-.045 1.008-.136.282-.091.529-.192.74-.303l.555-.302s.313-.137.463-.137c.097 0 .182.02.253.059.071.039.133.095.185.166l.701.877c-.266.312-.565.573-.896.784-.332.211-.677.38-1.038.506-.36.127-.728.217-1.101.269s-.735.078-1.086.078c-.695 0-1.341-.116-1.939-.347s-1.117-.571-1.559-1.022c-.442-.451-.789-1.01-1.042-1.676s-.38-1.437-.38-2.313c0-.682.11-1.323.331-1.924.221-.602.538-1.124.95-1.569.412-.444.916-.797 1.51-1.057s1.265-.39 2.012-.39zm.049 1.725c-.702 0-1.25.198-1.646.594-.396.396-.649.958-.76 1.686h4.521c0-.312-.042-.605-.127-.882-.084-.275-.214-.518-.39-.726s-.396-.372-.663-.492c-.266-.121-.578-.18-.935-.18zM350.318 216.938v-9.995h1.413c.247 0 .419.045.516.136.098.091.162.247.195.468l.146 1.208c.357-.617.776-1.104 1.257-1.461s1.02-.536 1.617-.536c.494 0 .903.114 1.228.341l-.312 1.803c-.02.117-.062.199-.127.248s-.152.073-.263.073c-.098 0-.231-.022-.399-.068-.169-.045-.393-.068-.672-.068-.5 0-.929.139-1.286.414-.357.276-.659.681-.906 1.213v6.226h-2.407zM374.682 209.895c0 1.033-.172 1.981-.516 2.845-.345.864-.828 1.607-1.452 2.231-.624.623-1.374 1.107-2.25 1.451-.877.345-1.848.517-2.913.517h-5.377v-14.087h5.377c1.065 0 2.036.174 2.913.521.877.348 1.627.832 2.25 1.452s1.107 1.362 1.452 2.226c.344.863.516 1.811.516 2.844zm-2.679 0c0-.772-.104-1.466-.312-2.08-.208-.613-.503-1.133-.887-1.559-.383-.425-.849-.751-1.398-.979s-1.167-.341-1.856-.341h-2.737v9.917h2.737c.688 0 1.307-.113 1.856-.341s1.015-.554 1.398-.979c.383-.425.679-.944.887-1.559.208-.613.312-1.306.312-2.079zM380.732 206.787c.63 0 1.209.101 1.739.302.529.201.985.495 1.369.882s.682.86.896 1.423c.214.562.322 1.203.322 1.924 0 .182-.008.333-.024.453s-.045.214-.088.282c-.042.068-.099.117-.17.146l-.272.044h-6.177c.071 1.025.348 1.779.828 2.26s1.117.721 1.91.721c.39 0 .726-.045 1.008-.136.282-.091.529-.192.74-.303l.555-.302s.313-.137.463-.137c.097 0 .182.02.253.059.071.039.133.095.185.166l.701.877c-.266.312-.565.573-.896.784-.332.211-.677.38-1.038.506-.36.127-.728.217-1.101.269s-.735.078-1.086.078c-.695 0-1.341-.116-1.939-.347s-1.117-.571-1.559-1.022c-.442-.451-.789-1.01-1.042-1.676s-.38-1.437-.38-2.313c0-.682.11-1.323.331-1.924.221-.602.538-1.124.95-1.569.412-.444.916-.797 1.51-1.057s1.265-.39 2.012-.39zm.049 1.725c-.702 0-1.25.198-1.646.594-.396.396-.649.958-.76 1.686h4.521c0-.312-.042-.605-.127-.882-.084-.275-.214-.518-.39-.726s-.396-.372-.663-.492c-.266-.121-.578-.18-.935-.18zM387.016 220.202v-13.259h1.471c.156 0 .289.035.399.106.11.072.182.183.214.332l.195.925c.403-.461.866-.834 1.389-1.12.522-.286 1.135-.429 1.836-.429.546 0 1.044.114 1.496.341.451.228.841.558 1.169.989s.581.964.76 1.598c.179.633.268 1.359.268 2.177 0 .747-.101 1.439-.302 2.075-.202.637-.489 1.188-.862 1.656s-.825.833-1.354 1.097c-.53.263-1.122.395-1.778.395-.565 0-1.044-.087-1.437-.259-.393-.172-.746-.41-1.057-.716v4.092h-2.407zm4.676-11.545c-.5 0-.927.106-1.281.317s-.684.508-.989.891v4.481c.272.338.57.573.891.707.322.133.667.199 1.038.199.364 0 .693-.068.989-.204.295-.137.546-.345.75-.624s.362-.632.472-1.057c.11-.426.166-.927.166-1.506 0-.584-.047-1.079-.141-1.485-.094-.405-.229-.735-.404-.988-.175-.254-.388-.438-.638-.556s-.535-.175-.853-.175zM401.316 217.095c-.864 0-1.529-.245-1.997-.736-.467-.49-.701-1.167-.701-2.031v-5.582h-1.013c-.13 0-.242-.042-.336-.127-.094-.084-.141-.211-.141-.38v-.954l1.607-.264.507-2.728c.026-.13.086-.23.18-.302.094-.071.212-.107.355-.107h1.247v3.146h2.63v1.715h-2.63v5.417c0 .312.078.555.234.73.156.176.363.263.624.263.149 0 .274-.018.375-.053l.263-.112.2-.112.176-.054c.071 0 .13.019.175.054l.146.161.721 1.169c-.351.292-.753.513-1.208.662s-.926.225-1.414.225zM404.999 215.613c0-.201.038-.393.112-.574s.179-.338.312-.468.291-.234.473-.312c.182-.078.376-.117.584-.117.201 0 .393.039.575.117.182.077.338.182.468.312s.234.286.312.468c.078.182.117.373.117.574 0 .208-.039.401-.117.58-.078.179-.182.333-.312.463s-.286.232-.468.307c-.182.074-.374.112-.575.112-.208 0-.403-.038-.584-.112s-.339-.177-.473-.307c-.133-.13-.237-.284-.312-.463s-.112-.372-.112-.58z"/><path fill-rule="evenodd" clip-rule="evenodd" fill="#ED1C24" d="M312.806 75.843h1.973c5.49 0 10.977-.004 16.467 0 5.781 0 11.561-.054 17.342.018 5.114.058 8.666 3.642 8.812 8.729.017.563.058 1.132.096 1.778h10.318c.09-.199.171-.299.179-.404 1.02-9.98-6.87-19.718-16.868-20.565-3.885-.33-7.817-.154-11.728-.199-.679-.009-1.354-.004-2.218-.004 0-1.718.183-3.199-.059-4.605-.183-1.058-.679-2.608-1.446-2.912-2.127-.843-1.747-2.219-1.428-3.957 2.658 0 5.276.058 7.895-.023 1.497-.045 2.455-1.121 2.376-2.48-.082-1.461-.947-2.189-2.366-2.317l-.349-.013c-6.658 0-13.316-.013-19.975.015-1.594.007-2.66 1.049-2.656 2.414.004 1.361 1.063 2.333 2.677 2.429.583.039 1.167.009 1.75.009h6.015v3.182c-2.496.537-3.261 2.219-3.054 4.564.067.753-.037 1.521.021 2.274.083 1.051-.305 1.462-1.389 1.432-2.22-.062-4.44-.01-6.656-.01-1.901.004-3.805 0-5.731 0 .002 3.67.002 7.035.002 10.645zm68.542 11.611c-.015.208-.054.488-.05.766.101 4.546.446 9.102.251 13.636-.328 7.582-1.093 15.137-3.515 22.412-.284.854-.629 1.209-1.574 1.209-9.04-.007-18.078.03-27.118.081-1.234.009-1.943-.456-2.202-1.703-.569-2.734-1.308-5.437-1.785-8.188-1.528-8.835-2.166-17.726-1.33-26.687.055-.55.009-1.106.009-1.729-.58-.03-.98-.058-1.382-.066-2.583-.039-2.668-.039-2.77 2.475-.142 3.614-.287 7.239-.18 10.848.301 9.85 1.776 19.522 4.891 28.896.736 2.219 1.709 2.848 4.028 2.848 9.344.004 18.692.004 28.037 0 2.556 0 3.558-.576 4.224-3.049 1.221-4.552 2.449-9.116 3.304-13.747 1.515-8.238 2.003-16.577 1.458-24.947-.238-3.618-.459-3.723-4.069-3.226l-.227.171zm-8.522 7.608c-.146-1.051-.246-2.388-.542-3.685-.281-1.218-1.156-1.911-2.447-1.695-1.263.209-1.932 1.07-1.844 2.352.099 1.327.279 2.653.522 3.965.256 1.339 1.179 2.037 2.514 1.853 1.371-.187 1.914-1.168 1.797-2.79zm-20.687 25.307c.609-.714 1.474-1.34 1.759-2.167.408-1.184.446-2.506.538-3.773.097-1.333-.493-2.298-1.881-2.488-1.367-.192-2.234.507-2.497 1.851-.25 1.248-.471 2.51-.604 3.774-.146 1.348.988 2.512 2.685 2.803zm5.302-28.193c.072-1.391-.579-2.38-2.013-2.504-1.334-.122-2.179.659-2.376 2.02-.188 1.263-.405 2.527-.501 3.8-.091 1.273.572 2.157 1.835 2.36 1.368.22 2.251-.531 2.526-1.832.268-1.245.359-2.524.529-3.844zm13.398 22.46c.247 1.126.503 2.491.853 3.837.33 1.265 1.189 1.808 2.5 1.545 1.399-.285 1.937-1.211 1.774-2.551-.148-1.207-.392-2.401-.604-3.597-.242-1.356-1.04-2.088-2.435-1.925-1.387.16-1.881 1.173-2.088 2.691zm-14.873-11.593c-.063-1.014-.475-2.007-1.809-2.208-1.36-.207-2.292.407-2.543 1.787-.246 1.315-.443 2.647-.551 3.984-.104 1.292.56 2.153 1.853 2.333 1.38.186 2.246-.522 2.496-1.873.224-1.26.354-2.542.554-4.023zm8.904-7.951h.01c.002-.7.054-1.404-.003-2.097-.118-1.299-.867-2.033-2.168-2.043-1.226-.011-2.049.699-2.149 1.877-.127 1.5-.123 3.034.026 4.536.118 1.196.979 1.816 2.211 1.77 1.238-.047 1.945-.728 2.063-1.945.065-.692.01-1.398.01-2.098zm9.536 11.456c-.184-1.279-.33-2.616-.571-3.935-.242-1.288-1.125-1.93-2.391-1.802-1.291.135-1.999.993-1.917 2.285.084 1.393.247 2.792.537 4.16.262 1.248 1.163 1.872 2.462 1.688 1.322-.188 1.855-1.078 1.88-2.396zm-9.547-.297h-.013c0-.702.034-1.404-.008-2.099-.079-1.251-.825-1.922-2.022-1.993-1.22-.073-2.113.604-2.231 1.776-.153 1.558-.146 3.156.018 4.714.127 1.186 1.105 1.994 2.235 1.68.782-.214 1.551-1.07 1.958-1.838.315-.588.063-1.478.063-2.24zm.146 10.307h-.067c-.022-.462.125-1.072-.117-1.363-.58-.695-1.255-1.585-2.041-1.771-1.128-.265-2.082.558-2.203 1.748-.146 1.5-.142 3.039-.009 4.543.119 1.314 1.062 1.87 2.36 1.797 1.255-.066 1.913-.674 1.909-1.992 0-.989.11-1.975.168-2.962z"/><path fill="#0E5461" d="M183.571 190.133h5.703v-15.604c0-.604.02-1.24.059-1.906l-4.049 3.221c-.169.136-.34.229-.516.277-.175.05-.348.074-.516.074-.26 0-.496-.053-.71-.157-.214-.105-.373-.226-.477-.361l-1.519-1.98 8.584-6.941h3.951v23.378h5.061v3.425h-15.572v-3.426zM222.519 180.175c0 2.332-.263 4.359-.788 6.08-.526 1.722-1.252 3.145-2.18 4.267-.928 1.123-2.024 1.96-3.29 2.509s-2.631.823-4.097.823c-1.467 0-2.826-.274-4.078-.823-1.252-.549-2.339-1.386-3.261-2.509-.921-1.122-1.642-2.545-2.16-4.267-.52-1.721-.779-3.748-.779-6.08 0-2.345.259-4.375.779-6.09.519-1.715 1.239-3.135 2.16-4.258.921-1.122 2.008-1.958 3.261-2.508 1.252-.549 2.611-.823 4.078-.823 1.466 0 2.832.274 4.097.823 1.265.55 2.362 1.386 3.29 2.508.928 1.123 1.654 2.543 2.18 4.258.525 1.715.788 3.745.788 6.09zm-4.963 0c0-1.938-.149-3.542-.448-4.812-.299-1.271-.698-2.283-1.197-3.036-.5-.752-1.074-1.28-1.722-1.582-.649-.303-1.324-.454-2.024-.454-.688 0-1.353.151-1.995.454-.643.302-1.21.83-1.703 1.582-.493.753-.886 1.765-1.178 3.036-.292 1.271-.438 2.875-.438 4.812s.146 3.542.438 4.812c.292 1.271.685 2.283 1.178 3.036s1.061 1.28 1.703 1.582c.642.303 1.307.454 1.995.454.701 0 1.375-.151 2.024-.454.648-.302 1.223-.829 1.722-1.582s.898-1.765 1.197-3.036c.298-1.27.448-2.875.448-4.812zM233.808 182.877c-.973 0-1.927-.16-2.861-.481-.935-.32-1.769-.805-2.501-1.452-.733-.648-1.32-1.45-1.761-2.407-.441-.956-.662-2.075-.662-3.359 0-1.196.234-2.319.701-3.368.467-1.049 1.123-1.969 1.966-2.759.844-.789 1.856-1.412 3.037-1.869 1.181-.456 2.485-.685 3.913-.685 1.44 0 2.734.216 3.883.647 1.148.433 2.128 1.036 2.939 1.814.811.777 1.434 1.709 1.868 2.795s.652 2.276.652 3.572c0 .827-.075 1.61-.224 2.351-.149.74-.363 1.453-.642 2.138-.279.686-.613 1.352-1.002 1.999-.389.648-.824 1.299-1.304 1.953l-6.443 8.737c-.221.296-.548.546-.983.749-.435.204-.931.306-1.489.306h-4.418l8.739-10.384c.221-.26.428-.513.623-.76.195-.246.383-.493.564-.74-.649.396-1.362.694-2.141.898-.78.203-1.598.305-2.454.305zm6.559-8.015c0-.728-.117-1.379-.35-1.953-.234-.573-.564-1.058-.993-1.453-.428-.395-.938-.696-1.528-.906s-1.236-.315-1.937-.315c-.727 0-1.382.114-1.966.343s-1.08.546-1.489.953c-.409.407-.723.892-.944 1.453s-.331 1.176-.331 1.842c0 1.493.406 2.632 1.217 3.415.811.784 1.962 1.176 3.455 1.176.778 0 1.469-.117 2.073-.352s1.112-.556 1.528-.963c.415-.407.73-.889.944-1.443.214-.556.321-1.155.321-1.797z"/><path fill="#fff" d="M169.84 202.852v2.152h-4.238v11.935h-2.621v-11.935h-4.257v-2.152h11.116zM169.811 216.938v-9.995h1.413c.247 0 .419.045.516.136.098.091.162.247.195.468l.146 1.208c.357-.617.776-1.104 1.257-1.461s1.02-.536 1.617-.536c.494 0 .903.114 1.228.341l-.312 1.803c-.02.117-.062.199-.127.248s-.152.073-.263.073c-.098 0-.231-.022-.399-.068-.169-.045-.393-.068-.672-.068-.5 0-.929.139-1.286.414-.357.276-.659.681-.906 1.213v6.226h-2.407zM185.32 216.938h-1.082c-.227 0-.406-.034-.536-.103s-.228-.206-.292-.414l-.214-.711c-.253.228-.501.427-.745.6-.244.172-.495.316-.755.433-.26.117-.536.205-.828.264-.292.059-.617.088-.974.088-.422 0-.812-.058-1.169-.171-.357-.114-.665-.285-.921-.514-.257-.228-.457-.512-.599-.851-.143-.339-.214-.732-.214-1.183 0-.378.099-.751.297-1.119.198-.368.527-.7.989-.997.461-.297 1.075-.542 1.841-.738.766-.195 1.718-.293 2.854-.293v-.589c0-.674-.142-1.173-.424-1.497-.283-.324-.693-.486-1.232-.486-.39 0-.715.046-.974.137-.26.091-.486.193-.677.307l-.531.308c-.162.091-.341.136-.536.136-.162 0-.302-.042-.419-.126-.117-.085-.211-.188-.282-.312l-.438-.77c1.149-1.052 2.536-1.578 4.16-1.578.584 0 1.106.096 1.563.287.458.192.846.458 1.165.799.318.342.56.749.726 1.223.166.475.249.994.249 1.56v6.31zm-4.676-1.5c.247 0 .474-.022.682-.067.208-.045.404-.112.589-.201.185-.09.364-.2.536-.331s.346-.286.521-.465v-1.674c-.702 0-1.288.045-1.759.133s-.849.201-1.135.339c-.286.137-.489.298-.609.48-.12.184-.18.383-.18.599 0 .425.125.729.375.912.251.184.577.275.98.275zM188.116 216.938v-8.184l-.867-.137c-.188-.032-.339-.097-.453-.194s-.17-.233-.17-.409v-.984h1.491v-.74c0-.571.086-1.084.258-1.539.172-.454.419-.841.741-1.159.321-.318.712-.562 1.174-.73.461-.169.98-.254 1.559-.254.461 0 .89.062 1.286.186l-.049 1.208c-.013.188-.101.306-.263.351-.162.046-.351.068-.565.068-.286 0-.541.03-.765.093-.224.062-.414.169-.57.321-.156.152-.274.354-.356.604-.081.25-.122.561-.122.931v.662h2.601v1.715h-2.523v8.193h-2.407zM194.945 216.938v-8.184l-.867-.137c-.188-.032-.339-.097-.453-.194s-.17-.233-.17-.409v-.984h1.491v-.321c0-.61.101-1.177.302-1.7.201-.522.507-.976.916-1.358.409-.384.926-.684 1.549-.901s1.36-.326 2.211-.326c.273 0 .552.015.838.044.286.029.532.076.74.141l-.078 1.247c-.013.149-.094.239-.243.269-.149.028-.335.043-.556.043-.63 0-1.158.056-1.583.166s-.77.274-1.033.492c-.263.218-.451.49-.565.818s-.17.71-.17 1.145v.243h6.196v9.908h-2.406v-8.193h-3.711v8.193h-2.408zM213.25 209.057l-.209.215s-.167.078-.297.078c-.123 0-.243-.038-.36-.112l-.419-.253c-.162-.095-.355-.179-.58-.254-.224-.074-.501-.112-.833-.112-.422 0-.792.077-1.11.229-.318.152-.583.372-.794.657-.211.286-.369.632-.473 1.038-.104.405-.156.865-.156 1.378 0 .533.057 1.007.17 1.423.113.416.278.765.492 1.047.214.283.474.497.779.644.305.146.649.219 1.033.219.383 0 .693-.047.93-.142.237-.094.437-.197.599-.312l.424-.312c.12-.094.255-.142.404-.142.195 0 .341.075.438.225l.691.877c-.266.312-.555.573-.867.784-.312.211-.635.38-.97.506-.334.127-.68.217-1.037.269-.357.052-.711.078-1.062.078-.617 0-1.198-.116-1.744-.347-.545-.23-1.021-.566-1.427-1.008-.406-.441-.727-.982-.964-1.622-.237-.64-.355-1.369-.355-2.188 0-.733.105-1.414.316-2.041.211-.626.521-1.169.931-1.627.409-.457.916-.816 1.52-1.076s1.299-.39 2.085-.39c.747 0 1.401.12 1.963.36s1.067.585 1.515 1.033l-.633.878zM231.926 209.895c0 1.033-.172 1.981-.516 2.845-.345.864-.828 1.607-1.452 2.231-.624.623-1.374 1.107-2.25 1.451-.877.345-1.848.517-2.913.517h-5.377v-14.087h5.377c1.065 0 2.036.174 2.913.521.877.348 1.627.832 2.25 1.452s1.107 1.362 1.452 2.226c.344.863.516 1.811.516 2.844zm-2.679 0c0-.772-.104-1.466-.312-2.08-.208-.613-.503-1.133-.887-1.559-.383-.425-.849-.751-1.398-.979s-1.167-.341-1.856-.341h-2.737v9.917h2.737c.688 0 1.307-.113 1.856-.341s1.015-.554 1.398-.979c.383-.425.679-.944.887-1.559.208-.613.312-1.306.312-2.079zM237.975 206.787c.63 0 1.209.101 1.739.302.529.201.985.495 1.369.882s.682.86.896 1.423c.214.562.322 1.203.322 1.924 0 .182-.008.333-.024.453s-.045.214-.088.282c-.042.068-.099.117-.17.146l-.272.044h-6.177c.071 1.025.348 1.779.828 2.26s1.117.721 1.91.721c.39 0 .726-.045 1.008-.136.282-.091.529-.192.74-.303l.555-.302s.313-.137.463-.137c.097 0 .182.02.253.059.071.039.133.095.185.166l.701.877c-.266.312-.565.573-.896.784-.332.211-.677.38-1.038.506-.36.127-.728.217-1.101.269s-.735.078-1.086.078c-.695 0-1.341-.116-1.939-.347s-1.117-.571-1.559-1.022c-.442-.451-.789-1.01-1.042-1.676s-.38-1.437-.38-2.313c0-.682.11-1.323.331-1.924.221-.602.538-1.124.95-1.569.412-.444.916-.797 1.51-1.057s1.265-.39 2.012-.39zm.049 1.725c-.702 0-1.25.198-1.646.594-.396.396-.649.958-.76 1.686h4.521c0-.312-.042-.605-.127-.882-.084-.275-.214-.518-.39-.726s-.396-.372-.663-.492c-.266-.121-.578-.18-.935-.18zM244.259 220.202v-13.259h1.471c.156 0 .289.035.399.106.11.072.182.183.214.332l.195.925c.403-.461.866-.834 1.389-1.12.522-.286 1.135-.429 1.836-.429.546 0 1.044.114 1.496.341.451.228.841.558 1.169.989s.581.964.76 1.598c.179.633.268 1.359.268 2.177 0 .747-.101 1.439-.302 2.075-.202.637-.489 1.188-.862 1.656s-.825.833-1.354 1.097c-.53.263-1.122.395-1.778.395-.565 0-1.044-.087-1.437-.259-.393-.172-.746-.41-1.057-.716v4.092h-2.407zm4.676-11.545c-.5 0-.927.106-1.281.317s-.684.508-.989.891v4.481c.272.338.57.573.891.707.322.133.667.199 1.038.199.364 0 .693-.068.989-.204.295-.137.546-.345.75-.624s.362-.632.472-1.057c.11-.426.166-.927.166-1.506 0-.584-.047-1.079-.141-1.485-.094-.405-.229-.735-.404-.988-.175-.254-.388-.438-.638-.556s-.535-.175-.853-.175zM258.56 217.095c-.864 0-1.529-.245-1.997-.736-.467-.49-.701-1.167-.701-2.031v-5.582h-1.013c-.13 0-.242-.042-.336-.127-.094-.084-.141-.211-.141-.38v-.954l1.607-.264.507-2.728c.026-.13.086-.23.18-.302.094-.071.212-.107.355-.107h1.247v3.146h2.63v1.715h-2.63v5.417c0 .312.078.555.234.73.156.176.363.263.624.263.149 0 .274-.018.375-.053l.263-.112.2-.112.176-.054c.071 0 .13.019.175.054l.146.161.721 1.169c-.351.292-.753.513-1.208.662s-.927.225-1.414.225zM262.242 215.613c0-.201.038-.393.112-.574s.179-.338.312-.468.291-.234.473-.312c.182-.078.376-.117.584-.117.201 0 .393.039.575.117.182.077.338.182.468.312s.234.286.312.468c.078.182.117.373.117.574 0 .208-.039.401-.117.58-.078.179-.182.333-.312.463s-.286.232-.468.307c-.182.074-.374.112-.575.112-.208 0-.403-.038-.584-.112s-.339-.177-.473-.307c-.133-.13-.237-.284-.312-.463s-.112-.372-.112-.58z"/><g fill-rule="evenodd" clip-rule="evenodd" fill="#ED1C24"><path d="M177.737 90.484v-3.136c2.744.128 5.423.26 8.117.391 0-2.742.339-5.383-.09-7.893-.423-2.481-1.617-4.821-2.526-7.362h6.733c-1.978 4.87-3.835 9.707-2.644 15.245 2.564-.126 5.25-.253 8.072-.387v3.134c-2.662.154-5.394.314-8.235.487v2.765h8.282v2.943c-2.704.155-5.436.317-8.279.482v3.319c2.605-.216 5.175-.433 7.973-.662v2.554c0 7.939 0 15.876-.002 23.82 0 .457.01.923-.041 1.381-.232 2.229-1.842 3.69-3.991 3.644-2.125-.043-3.766-1.605-3.796-3.839-.063-4.564-.021-9.135-.021-13.699v-10.794c-1.385-.626-1.44.191-1.44 1.169.01 7.592.013 15.179.002 22.775-.002 2.551-1.386 4.223-3.562 4.378-2.523.18-4.248-1.531-4.261-4.312-.017-6.875-.002-13.752-.002-20.628v-6.46c2.691.24 5.225.461 7.906.699v-3.355c-2.716-.149-5.406-.296-8.172-.446v-3.143c2.753.131 5.437.25 8.214.381v-2.972c-2.719-.162-5.411-.312-8.237-.479zM236.982 86.379h-29.142c0-1.763-.005-3.445.002-5.123 0-.149.005-.386.098-.435 2.196-1.181 2.302-3.587 2.837-5.51.966-3.479 2.671-5.046 6.464-5.416 4.841-.471 9.507-.036 14.209.762.415.069.894.634 1.069 1.08.992 2.471 1.868 4.986 2.855 7.459.205.519.715.905 1.069 1.366.196.258.501.538.512.814.049 1.628.027 3.264.027 5.003zm-4.002-7.004c-.773-2.069-1.479-4.038-2.268-5.97-.132-.333-.62-.649-.99-.729-4.866-1.064-9.744-1.08-14.611-.021-.364.077-.875.278-.984.554-.808 2.013-1.541 4.062-2.319 6.162 3.655-.307 7.11-.83 10.562-.83 3.458 0 6.914.522 10.61.834zm-.284 2.052c-1.156.111-1.87.745-1.878 1.857-.01 1.126.701 1.858 1.831 1.858 1.117 0 1.835-.688 1.845-1.837.016-1.159-.717-1.732-1.798-1.878zm-22.431 1.752c.04 1.206.668 1.915 1.786 1.954 1.112.046 1.859-.637 1.904-1.766.043-1.137-.647-1.858-1.772-1.904-1.122-.042-1.787.618-1.918 1.716zM179.502 63.188c.494-1.392-.688-2.124-1.527-2.963-.732-.727-.863-1.34-.549-2.404.705-2.35 2.243-3.489 4.374-4.61 3.358-1.763 6.387-1.963 9.542.116 1.145.752 2.732.683 3.475 2.25 1.041 2.219 1.731 4.198-.774 5.94-.339.234-.348 1.095-.339 1.662.091 4.141-3.04 7.431-7.131 7.444-4.021.009-7.146-3.214-7.071-7.435zm13.843-2.726c-.379-1.608-2.311-2.312-6.46-2.361-4.375-.051-6.66.704-7.087 2.361 4.494-1.869 8.975-1.894 13.547 0zm-9.093-5.337c2.359 1.631 2.713 1.621 4.641-.052-1.471-1.711-3.137-1.793-4.641.052zM193.832 72.575c2.282.487 3.77 1.905 4.938 3.696 2.017 3.089 2.888 6.604 3.136 10.184.314 4.394.304 8.811.259 13.209-.013.879-.613 2.033-1.312 2.551-1.633 1.201-3.724-.211-3.732-2.386-.01-3.489.177-6.983-.061-10.452-.183-2.631-.445-5.425-1.475-7.798-1.181-2.721-1.289-5.515-1.8-8.285-.035-.19.021-.397.047-.719zM179.432 72.755c-.59 2.827-.37 5.741-1.781 8.512-.921 1.809-1.252 4.027-1.387 6.094-.259 3.933-.251 7.88-.232 11.82.016 2.095-.736 3.345-2.407 3.409-1.622.064-2.606-1.022-2.676-3.033-.219-6.051-.473-12.135 1.263-18.015.662-2.255 1.813-4.453 3.137-6.406.812-1.196 2.381-1.878 3.61-2.796l.473.415zM239.778 96.253c2.268-.592 3.79.153 5.305 1.688 6.223 6.311 12.569 12.498 18.88 18.724.249.245.532.451.678 1.039-2.264 0-4.533.025-6.796-.036-.323-.005-.709-.361-.956-.657-5.601-6.729-11.194-13.478-16.783-20.218-.117-.147-.2-.323-.328-.54zM232.633 96.22c2.121-.487 3.574-.025 4.85 2.066 3.929 6.458 8.131 12.753 12.426 19.407-2.562 0-4.873.026-7.175-.031-.244-.005-.562-.407-.694-.693-3.161-6.813-6.294-13.637-9.425-20.458-.037-.076.008-.193.018-.291zM197.075 117.719c3.671-5.729 7.152-11.152 10.632-16.58l1.669-2.582c1.7-2.644 1.7-2.644 4.961-2.389-.071.291-.091.587-.207.843-3.01 6.558-6.005 13.116-9.083 19.644-.23.487-1.011.984-1.559 1.013-2.034.121-4.087.051-6.413.051zM212.144 117.719c2.038-7.39 3.994-14.477 5.947-21.556h3.6c-.419 4.525-.826 8.952-1.233 13.377-.211 2.293-.452 4.589-.61 6.888-.057.959-.387 1.346-1.388 1.312-2.042-.072-4.088-.021-6.316-.021zM234.706 117.64h-7.435c-.673-7.172-1.336-14.271-2.019-21.556 1.108 0 2.029-.09 2.918.043.351.057.8.559.913.941.939 3.188 1.815 6.396 2.696 9.599.917 3.34 1.839 6.684 2.75 10.027.068.242.095.492.177.946zM236.972 87.165c-.126.946.564 1.959-.924 2.317-.216.054-.074 1.334-.201 2.028-.126.708-.249 1.901-.613 1.997-1.037.273-2.192.183-3.284.047-.253-.036-.542-.805-.587-1.255-.096-.915-.027-1.843-.027-2.884h-17.895c0 .84-.048 1.693.008 2.536.085 1.301-.435 1.858-1.778 1.863-2.624.016-2.751-.08-2.796-2.721-.016-.714.416-1.631-.829-1.981-.238-.067-.176-1.19-.267-1.946 9.78-.001 19.386-.001 29.193-.001zM177.659 85.704c2.042-.31 3.892-.874 4.291-3.242-.95-.662-1.726-3.716-.987-4.564.331-.386 1.177-.438 1.797-.433.342 0 .881.351 1 .667.898 2.415-2.057 7.813-4.595 7.955-.466.023-.936.07-1.4.104l-.106-.487zM227.146 73.043c1.427.013 2.61 1.261 2.576 2.706-.043 1.41-1.148 2.489-2.576 2.505-1.495.011-2.659-1.121-2.652-2.585.006-1.456 1.211-2.646 2.652-2.626z"/></g><path fill="#0E5461" d="M50.574 172.106c0 .654-.217 1.185-.652 1.592-.435.407-1.158.611-2.17.611h-7.747l-1.012 5.59c1.271-.247 2.433-.37 3.484-.37 1.479 0 2.78.21 3.903.629 1.122.42 2.066 1 2.832 1.74s1.343 1.607 1.732 2.601.583 2.064.583 3.212c0 1.419-.263 2.715-.788 3.887-.525 1.173-1.255 2.175-2.19 3.008-.934.833-2.041 1.479-3.318 1.935-1.278.456-2.67.685-4.175.685-.882 0-1.719-.086-2.511-.259s-1.535-.404-2.229-.694c-.694-.29-1.337-.623-1.927-.999-.59-.377-1.119-.774-1.586-1.194l1.479-1.943c.312-.42.727-.63 1.246-.63.324 0 .652.1.983.297.331.197.717.413 1.158.647.441.234.954.45 1.538.647.584.198 1.291.297 2.122.297.882 0 1.661-.136 2.336-.407.674-.271 1.236-.651 1.684-1.139s.785-1.067 1.012-1.74c.227-.672.341-1.403.341-2.193 0-1.456-.445-2.594-1.333-3.415-.889-.82-2.196-1.23-3.922-1.23-1.363 0-2.732.234-4.107.703l-2.998-.814 2.335-12.994h13.897v1.94zM66.943 180.214c1.064 0 2.099.167 3.104.5 1.005.333 1.891.836 2.657 1.509s1.382 1.509 1.849 2.508c.467 1 .701 2.166.701 3.499 0 1.246-.24 2.415-.72 3.507-.48 1.093-1.155 2.046-2.024 2.86-.87.814-1.917 1.456-3.144 1.925s-2.579.703-4.058.703c-1.506 0-2.855-.229-4.049-.685s-2.212-1.095-3.056-1.916c-.844-.82-1.489-1.808-1.937-2.961-.448-1.154-.671-2.435-.671-3.841 0-1.259.269-2.552.808-3.878.539-1.327 1.373-2.706 2.501-4.138l6.715-8.569c.234-.297.574-.55 1.022-.76.448-.209.963-.314 1.547-.314h4.282l-8.35 9.718-.516.593c-.163.185-.321.376-.477.573.545-.259 1.132-.463 1.761-.61.631-.149 1.316-.223 2.055-.223zm-6.734 8.311c0 .74.107 1.416.321 2.026.214.611.532 1.133.954 1.564.421.432.944.768 1.566 1.009.623.24 1.343.361 2.161.361.766 0 1.47-.124 2.112-.371.643-.246 1.194-.592 1.655-1.036.46-.444.82-.966 1.08-1.564.259-.598.389-1.249.389-1.952 0-.766-.124-1.453-.37-2.064-.247-.61-.597-1.129-1.051-1.555s-.999-.75-1.635-.972c-.636-.222-1.337-.333-2.102-.333-.766 0-1.46.123-2.083.37-.623.247-1.158.59-1.605 1.027-.448.438-.792.956-1.032 1.555s-.36 1.244-.36 1.935zM86.796 186.248c-.973 0-1.927-.16-2.861-.48-.934-.321-1.768-.806-2.501-1.453-.733-.648-1.32-1.45-1.762-2.406-.441-.956-.662-2.076-.662-3.36 0-1.196.233-2.319.701-3.368s1.123-1.969 1.966-2.758c.844-.79 1.855-1.413 3.037-1.87 1.181-.456 2.485-.685 3.912-.685 1.44 0 2.735.216 3.883.647 1.148.433 2.128 1.037 2.939 1.814s1.434 1.709 1.869 2.795c.435 1.086.652 2.276.652 3.572 0 .827-.075 1.61-.224 2.351-.149.74-.363 1.453-.643 2.138-.279.686-.613 1.352-1.002 2-.39.647-.824 1.299-1.304 1.952l-6.443 8.737c-.221.296-.548.546-.983.749-.435.204-.931.306-1.489.306h-4.418l8.739-10.384c.221-.26.428-.513.623-.759.194-.247.382-.494.564-.741-.649.396-1.363.694-2.141.898-.778.203-1.596.305-2.452.305zm6.559-8.015c0-.728-.117-1.379-.351-1.952-.233-.574-.564-1.059-.993-1.453-.428-.396-.938-.697-1.528-.907s-1.236-.314-1.937-.314c-.727 0-1.382.114-1.966.342-.584.229-1.081.546-1.489.953s-.724.893-.944 1.453c-.221.562-.331 1.176-.331 1.842 0 1.493.405 2.632 1.217 3.415.811.784 1.962 1.176 3.455 1.176.779 0 1.47-.117 2.073-.352.603-.234 1.112-.556 1.528-.963.415-.407.73-.889.944-1.443.216-.556.322-1.155.322-1.797z"/><path fill="#fff" d="M42.96 208.782c-.071.143-.154.243-.248.302s-.206.088-.336.088c-.13 0-.276-.05-.438-.151l-.575-.336c-.221-.123-.479-.235-.774-.336s-.645-.15-1.047-.15c-.364 0-.68.043-.95.131s-.497.21-.682.365c-.185.156-.323.343-.414.561s-.136.456-.136.716c0 .331.092.607.277.828s.43.409.735.564c.305.156.653.296 1.042.419s.787.255 1.193.395.804.302 1.193.487c.39.185.737.418 1.042.701.305.282.55.628.735 1.037s.278.905.278 1.49c0 .637-.109 1.232-.327 1.787-.217.556-.536 1.039-.954 1.451-.419.412-.93.737-1.534.975-.604.236-1.295.355-2.075.355-.448 0-.89-.044-1.325-.132s-.852-.213-1.251-.375-.773-.357-1.12-.584c-.347-.228-.657-.48-.93-.76l.76-1.257c.071-.091.157-.167.258-.229s.212-.093.336-.093c.162 0 .337.066.526.199.188.134.411.281.667.443.257.162.559.311.906.443.348.133.765.199 1.252.199.747 0 1.324-.177 1.733-.53.409-.354.614-.862.614-1.524 0-.37-.093-.672-.278-.906-.185-.233-.43-.43-.735-.589s-.652-.294-1.042-.404-.786-.23-1.188-.36c-.403-.13-.799-.286-1.188-.468s-.737-.419-1.042-.711c-.306-.292-.55-.657-.735-1.096s-.278-.979-.278-1.622c0-.513.102-1.013.307-1.499.205-.487.503-.919.896-1.296s.875-.679 1.446-.906c.571-.227 1.224-.341 1.958-.341.831 0 1.597.13 2.299.39.701.26 1.298.624 1.792 1.091l-.643 1.238zM52.749 212.425c-.071.091-.141.163-.209.215-.068.052-.167.077-.297.077-.124 0-.244-.037-.36-.111l-.419-.254c-.163-.094-.355-.178-.58-.253-.224-.074-.501-.112-.833-.112-.422 0-.792.077-1.11.229-.318.152-.583.372-.794.657-.211.286-.369.632-.472 1.037-.104.406-.156.865-.156 1.379 0 .532.057 1.006.17 1.422.114.415.278.765.492 1.047s.474.497.779.643c.305.146.649.22 1.032.22s.693-.048.93-.142c.237-.094.437-.198.599-.312l.423-.312c.12-.095.255-.142.404-.142.195 0 .341.074.438.224l.691.877c-.266.312-.555.573-.867.784-.312.211-.635.38-.969.507-.334.126-.68.216-1.037.268-.357.052-.711.078-1.062.078-.617 0-1.198-.116-1.743-.346-.545-.23-1.021-.566-1.427-1.009-.406-.441-.728-.981-.964-1.621-.237-.64-.355-1.369-.355-2.187 0-.734.105-1.414.316-2.041s.521-1.169.93-1.627c.409-.457.916-.816 1.52-1.076.604-.26 1.298-.39 2.084-.39.747 0 1.401.12 1.963.36s1.066.585 1.515 1.033l-.632.878zM55.018 220.305v-14.474h2.406v5.562c.39-.37.818-.669 1.286-.896.468-.227 1.016-.341 1.646-.341.545 0 1.029.093 1.451.278.422.185.774.444 1.057.778.282.335.497.734.643 1.198.146.465.219.976.219 1.534v6.36h-2.406v-6.36c0-.61-.141-1.083-.424-1.417-.282-.334-.706-.502-1.271-.502-.416 0-.805.095-1.169.283-.363.188-.708.444-1.032.769v7.228h-2.406zM70.358 210.155c.747 0 1.423.12 2.031.36.607.24 1.125.582 1.554 1.023.428.441.759.98.993 1.616.234.637.351 1.348.351 2.134 0 .792-.117 1.506-.351 2.143-.234.636-.565 1.179-.993 1.626-.429.448-.947.793-1.554 1.033-.607.239-1.284.36-2.031.36s-1.425-.121-2.036-.36c-.61-.24-1.131-.585-1.563-1.033-.432-.447-.766-.99-1.003-1.626-.237-.637-.355-1.351-.355-2.143 0-.786.118-1.497.355-2.134.237-.636.571-1.175 1.003-1.616.432-.441.953-.783 1.563-1.023s1.29-.36 2.036-.36zm0 8.446c.831 0 1.446-.279 1.846-.838s.599-1.377.599-2.455c0-1.077-.2-1.898-.599-2.464-.399-.564-1.015-.848-1.846-.848-.844 0-1.468.284-1.87.853-.403.568-.604 1.388-.604 2.459 0 1.072.201 1.889.604 2.45.403.561 1.026.843 1.87.843zM81.433 210.155c.747 0 1.423.12 2.031.36.607.24 1.125.582 1.554 1.023.428.441.759.98.993 1.616.234.637.351 1.348.351 2.134 0 .792-.117 1.506-.351 2.143-.234.636-.565 1.179-.993 1.626-.429.448-.947.793-1.554 1.033-.607.239-1.284.36-2.031.36s-1.425-.121-2.036-.36c-.61-.24-1.131-.585-1.563-1.033-.432-.447-.766-.99-1.003-1.626-.237-.637-.355-1.351-.355-2.143 0-.786.118-1.497.355-2.134.237-.636.571-1.175 1.003-1.616.432-.441.953-.783 1.563-1.023s1.289-.36 2.036-.36zm0 8.446c.831 0 1.446-.279 1.846-.838s.599-1.377.599-2.455c0-1.077-.2-1.898-.599-2.464-.399-.564-1.015-.848-1.846-.848-.844 0-1.468.284-1.87.853-.403.568-.604 1.388-.604 2.459 0 1.072.201 1.889.604 2.45.402.561 1.025.843 1.87.843zM90.802 205.831v14.474h-2.406v-14.474h2.406zM99.451 212.26c-.065.104-.133.177-.205.219s-.162.063-.272.063c-.117 0-.242-.032-.375-.098l-.463-.219s-.375-.154-.599-.22c-.224-.064-.488-.097-.793-.097-.474 0-.848.101-1.12.302-.273.201-.409.464-.409.789 0 .214.07.395.209.54.14.146.325.274.555.385s.492.21.784.297c.292.088.59.184.896.288.305.104.604.222.896.355.292.133.553.302.784.506.23.205.415.45.555.735.139.286.209.63.209 1.033 0 .48-.087.923-.263 1.329s-.432.757-.77 1.052c-.338.296-.755.526-1.251.691-.497.166-1.066.249-1.709.249-.344 0-.68-.031-1.008-.093-.328-.062-.643-.147-.944-.258-.302-.11-.582-.24-.838-.39s-.482-.312-.677-.487l.555-.916c.071-.11.156-.194.253-.253.098-.059.221-.088.37-.088s.291.043.424.127l.463.272s.381.188.618.272c.237.085.537.127.901.127.286 0 .531-.034.735-.103.205-.067.374-.157.507-.268.133-.11.23-.238.292-.385.062-.146.093-.297.093-.453 0-.233-.07-.425-.209-.574s-.325-.279-.555-.39-.494-.209-.789-.297l-.906-.287c-.309-.104-.61-.226-.906-.365s-.559-.317-.789-.531-.416-.478-.555-.789-.209-.688-.209-1.13c0-.409.081-.799.244-1.169.162-.37.401-.692.716-.969s.708-.497 1.179-.662c.471-.166 1.014-.249 1.631-.249.688 0 1.315.114 1.88.341.565.228 1.036.526 1.412.896l-.547.872z"/><g fill-rule="evenodd" clip-rule="evenodd" fill="#ED1C24"><path d="M94.676 61.493c-.709.544-4.622 3.558-6.262 5.01-2.824 2.503-5.76 4.559-9.857 3.772-.611-.118-1.312.219-2.062.365v-3.728c3.6 4.405 6.949 1.963 7.775 1.307 1.846-1.468 1.68-4.938.118-6.466-2.173-2.123-5.58-1.626-7.862 1.776v-14.583h44.946v33.4h-36.042c0-2.38-.095-4.578.062-6.758.041-.631.665-1.354 1.211-1.795 2.773-2.217 8.042-6.071 10.86-8.229m-.204-3.663l.733-.694"/><path d="M89.842 103.975c-2.863 1.784-3.013 1.729-4.01-1.023-1.323-3.665-2.675-7.323-4.023-10.98-.164-.437-.367-4.905-.747-5.678-.38.792-.684 5.304-.86 5.79-1.366 3.724-2.714 7.456-4.075 11.186-.406 1.104-.52 2.33-2.411 1.68-1.845-.64-1.316-1.609-.88-2.775.744-1.991 1.264-4.092 2.22-5.971 2.46-4.835 2.723-18.201 2.509-19.104-1.442 2.341-3.019 5.124-4.31 7.199-1.788 2.89-4.075 1.762-1.834-1.917 1.705-3.186 3.647-6.744 5.301-9.96.554-1.087 1.245-1.683 2.482-1.465 3.281.578 5.728-.855 8.234-2.868 1.479-1.183 3.008-2.363 4.521-3.533 2.27-1.75 4.63-.199 2.921 1.929-.389.486-6.016 4.809-8.939 7.122-.653.522-1.167 1.612-1.184 2.456-.095 4.243-.073 8.363-.014 12.542.014.896.235 1.823.534 2.673 1.499 4.261 3.049 8.499 4.565 12.697zM84.794 64.963c-.019 2.117-1.669 3.713-3.8 3.668-2.049-.044-3.587-1.597-3.627-3.637-.041-2.096 1.615-3.801 3.691-3.809 2.063-.01 3.745 1.693 3.736 3.778zM56.028 93.825c.117-.122.35-.317.322-.365-.453-.809-1.187-1.223-2.028-.825-.661.312-1.461.832-1.691 1.447-.749 1.986-1.426 4.027-1.814 6.106-.344 1.832.806 2.881 2.701 2.895 1.181.012 2.361.027 3.542.05l.244.136-.516 6.341c.908.357 1.235.085 1.276-.835.057-1.492.222-2.983.575-4.471.257 1.392.506 2.778.755 4.168.151.855.497 1.54 1.505 1.336.962-.195 1.005-.932.851-1.737-.362-1.922-.717-3.842-1.049-5.767-.162-.943-.457-1.714-1.646-1.873.361-.089.714-.257 1.081-.263 1.881-.021 3.772.014 5.651-.013 1.049-.019 1.536.411 1.612 1.486.205 2.648.478 5.287.738 8.045l1.139.071c-.216-2.642-.416-5.165-.625-7.694-.068-.792-.424-1.574.251-2.334.195-.221.033-.769.033-1.229h-11.896c.143.732.273 1.354.423 2.073h-2.565c.471-1.553.918-3.043 1.361-4.533-.556-.255-1.194-.417-1.65-.799-.262-.229-.343-.823-.281-1.21.036-.183.615-.316.968-.37.226-.035.488.105.733.164zM54.896 103.78h-5.909c-.326 1.905-.653 3.773-.986 5.735h7.868c-.322-1.892-.635-3.758-.973-5.735zM55.139 90.322c.009 1.34 1.038 2.388 2.368 2.399 1.321.007 2.379-1.038 2.392-2.373.024-1.367-1.09-2.494-2.423-2.466-1.309.029-2.345 1.107-2.337 2.44zM56.028 93.825c-.245-.059-.507-.199-.733-.162-.354.054-.933.188-.968.37-.062.387.019.981.281 1.21.456.382 1.095.544 1.65.799 1.697.293 3.383.61 5.082.875.641.099 1.269-.098 1.275-.854.012-.76-.599-.87-1.25-.891-1.872-.063-3.732-.203-5.337-1.347zM30.913 99.495c.122-.138.377-.35.35-.4-.496-.891-1.307-1.345-2.225-.909-.733.344-1.606.913-1.862 1.591-.82 2.181-1.565 4.422-1.992 6.704-.374 2.013.885 3.165 2.964 3.181 1.298.012 2.596.029 3.887.053.074.002.141.076.271.151-.184 2.298-.375 4.625-.565 6.966.995.391 1.357.093 1.395-.92.066-1.638.247-3.273.641-4.909.275 1.525.561 3.049.823 4.578.167.939.548 1.693 1.66 1.466 1.054-.212 1.099-1.025.932-1.907-.394-2.11-.79-4.22-1.149-6.334-.181-1.037-.505-1.88-1.815-2.055.395-.099.792-.284 1.183-.289 2.075-.027 4.147.016 6.214-.019 1.154-.017 1.685.458 1.772 1.636.22 2.906.521 5.808.806 8.836l1.257.076c-.234-2.899-.461-5.672-.697-8.445-.072-.873-.458-1.734.281-2.568.222-.244.036-.842.036-1.348h-13.067c.162.801.303 1.486.47 2.275h-2.813l1.493-4.979c-.615-.277-1.321-.456-1.813-.879-.294-.249-.378-.902-.308-1.329.036-.2.673-.346 1.058-.407.254-.04.543.118.813.184zM29.667 110.425h-6.492c-.358 2.092-.713 4.147-1.085 6.3h8.644c-.353-2.081-.702-4.127-1.067-6.3zM29.933 95.648c.005 1.47 1.14 2.621 2.597 2.633 1.452.008 2.61-1.136 2.627-2.606.023-1.502-1.193-2.742-2.659-2.709-1.438.031-2.568 1.214-2.565 2.682zM30.913 99.495c-.27-.066-.559-.224-.812-.183-.385.062-1.022.208-1.058.407-.071.427.013 1.081.308 1.329.492.423 1.198.603 1.813.879 1.859.324 3.714.67 5.582.96.699.11 1.388-.107 1.398-.937.014-.83-.661-.954-1.374-.979-2.056-.068-4.096-.221-5.857-1.476zM86.934 113.372c.11-.131.33-.337.308-.38-.493-.789-1.253-1.168-2.067-.73-.646.343-1.425.9-1.624 1.528-.653 2.013-1.23 4.085-1.526 6.179-.255 1.845.937 2.839 2.828 2.767 1.181-.044 2.362-.083 3.546-.116l.251.125c-.075 2.096-.145 4.22-.219 6.358.925.313 1.243.026 1.234-.894-.009-1.497.082-2.989.37-4.491.315 1.374.634 2.748.946 4.125.189.844.565 1.518 1.567 1.268.948-.244.957-.982.766-1.778-.449-1.899-.895-3.805-1.32-5.711-.204-.935-.539-1.689-1.737-1.791.357-.108.712-.291 1.072-.314 1.877-.113 3.768-.163 5.647-.28 1.044-.066 1.549.341 1.685 1.412.321 2.631.719 5.259 1.108 8l1.145.019c-.336-2.627-.656-5.142-.99-7.654-.107-.792-.498-1.555.144-2.347.19-.231-.003-.767-.026-1.23-3.949.185-7.807.366-11.887.556l.524 2.053-2.561.124c.394-1.579.77-3.085 1.149-4.595-.57-.228-1.221-.359-1.682-.721-.281-.212-.391-.806-.34-1.197.023-.183.598-.343.943-.416.233-.048.497.081.746.131zM86.269 123.367l-5.902.276-.72 5.775 7.857-.369c-.403-1.875-.806-3.723-1.235-5.682zM85.882 109.911c.06 1.342 1.146 2.339 2.472 2.287 1.319-.054 2.325-1.147 2.281-2.481-.044-1.368-1.205-2.442-2.54-2.351-1.302.091-2.284 1.214-2.213 2.545zM86.934 113.372c-.249-.049-.513-.178-.744-.131-.346.072-.92.232-.943.416-.051.391.059.985.34 1.197.461.361 1.112.493 1.682.721 1.7.215 3.406.451 5.118.634.64.07 1.259-.157 1.232-.909-.022-.76-.644-.844-1.293-.834-1.868.023-3.737-.029-5.392-1.094zM62.106 120.211c.122-.145.369-.369.334-.418-.536-.867-1.366-1.281-2.266-.804-.71.376-1.56.989-1.786 1.679-.715 2.214-1.354 4.492-1.669 6.79-.285 2.027 1.026 3.118 3.105 3.039 1.295-.051 2.594-.093 3.892-.133.068-.002.136.07.276.142l-.245 6.98c1.018.346 1.366.031 1.358-.981-.014-1.642.086-3.28.404-4.933.348 1.509.699 3.02 1.044 4.534.21.928.618 1.667 1.722 1.388 1.041-.263 1.049-1.078.841-1.948-.493-2.089-.985-4.179-1.447-6.274-.231-1.028-.592-1.857-1.908-1.966.394-.121.778-.321 1.176-.346 2.062-.123 4.135-.179 6.201-.306 1.149-.072 1.702.374 1.845 1.548.357 2.893.794 5.775 1.218 8.789l1.259.019c-.374-2.888-.722-5.646-1.087-8.406-.114-.868-.546-1.711.158-2.577.208-.253-.005-.842-.026-1.351l-13.05.61.57 2.253c-.715.035-1.59.077-2.809.132.434-1.729.846-3.387 1.26-5.043-.626-.249-1.341-.393-1.853-.79-.303-.237-.426-.887-.374-1.317.031-.2.663-.376 1.042-.455.254-.052.543.088.815.145zM61.378 131.185c-2.208.105-4.291.205-6.482.305-.262 2.105-.52 4.176-.794 6.344l8.637-.404-1.361-6.245zM60.953 116.411c.073 1.472 1.258 2.567 2.709 2.508 1.457-.059 2.558-1.257 2.51-2.727-.047-1.498-1.323-2.678-2.785-2.579-1.432.103-2.507 1.335-2.434 2.798zM62.106 120.211c-.272-.057-.561-.197-.815-.145-.379.079-1.012.255-1.042.455-.052.43.071 1.08.374 1.317.511.397 1.226.541 1.853.79 1.872.239 3.74.497 5.619.698.701.077 1.387-.172 1.356-1-.031-.834-.704-.924-1.423-.915-2.059.027-4.104-.031-5.922-1.2z"/></g><path fill="#0E5461" d="M493.676 183.47h3.543v2.647c0 .247-.085.459-.253.639-.169.179-.416.268-.74.268h-2.55v6.534h-4.204v-6.534h-11.873c-.324 0-.61-.095-.856-.287-.247-.191-.402-.429-.467-.713l-.487-2.313 13.334-16.937h4.554v16.696zm-4.204-8.755c0-.395.013-.821.039-1.277s.071-.932.137-1.425l-8.74 11.458h8.564v-8.756zM519.252 166.792v1.98c0 .592-.068 1.071-.204 1.435-.137.364-.27.669-.399.917l-10.646 20.879c-.222.432-.532.799-.935 1.101-.402.303-.947.454-1.635.454h-3.484l10.899-20.454c.454-.839.961-1.561 1.519-2.166h-13.469c-.299 0-.559-.104-.779-.314-.221-.209-.331-.457-.331-.74v-3.091h19.464z"/><path fill="#fff" d="M462.673 216.939h-2.64v-6.157h-6.605v6.157h-2.641v-14.087h2.641v6.06h6.605v-6.06h2.64v14.087zM469.512 206.788c.63 0 1.209.101 1.738.302.529.201.985.495 1.369.881.383.387.682.861.896 1.422.214.562.321 1.203.321 1.924 0 .182-.009.333-.024.453-.017.121-.046.214-.088.283s-.099.117-.17.146c-.072.029-.163.044-.273.044h-6.176c.071 1.026.347 1.78.828 2.26.48.481 1.116.721 1.909.721.39 0 .726-.045 1.008-.136.283-.091.529-.191.74-.302l.556-.302c.159-.091.313-.136.463-.136.098 0 .182.02.253.058.071.039.134.094.186.166l.701.876c-.267.312-.564.573-.896.784-.331.211-.677.38-1.037.507s-.728.216-1.101.268c-.374.052-.736.078-1.087.078-.694 0-1.341-.115-1.938-.346s-1.117-.571-1.559-1.023c-.441-.451-.789-1.01-1.042-1.676-.254-.666-.381-1.437-.381-2.313 0-.682.11-1.323.332-1.924.221-.601.537-1.124.949-1.568.413-.445.916-.797 1.511-1.057.594-.26 1.265-.39 2.012-.39zm.048 1.725c-.701 0-1.25.198-1.646.594-.396.396-.65.958-.761 1.685h4.521c0-.312-.042-.605-.126-.881-.085-.276-.215-.518-.39-.726-.176-.208-.396-.372-.663-.492s-.578-.18-.935-.18zM483.627 216.939h-1.081c-.228 0-.406-.034-.536-.102-.13-.068-.227-.207-.292-.414l-.214-.711c-.254.228-.502.427-.745.599-.244.172-.496.317-.756.434s-.535.205-.828.263c-.292.058-.616.087-.974.087-.423 0-.812-.057-1.169-.171-.357-.114-.664-.285-.921-.513s-.456-.512-.599-.851c-.144-.338-.215-.733-.215-1.183 0-.378.099-.751.297-1.119s.528-.7.989-.997c.461-.296 1.074-.542 1.841-.738s1.718-.293 2.854-.293v-.589c0-.674-.141-1.173-.424-1.497-.282-.324-.693-.486-1.232-.486-.39 0-.714.045-.974.136-.26.091-.485.193-.678.307l-.53.307c-.163.091-.341.136-.536.136-.162 0-.302-.042-.419-.126s-.211-.188-.282-.312l-.438-.77c1.149-1.052 2.536-1.578 4.16-1.578.584 0 1.105.096 1.563.288s.846.458 1.164.799c.318.341.56.749.726 1.223s.248.994.248 1.559v6.312zm-4.675-1.5c.247 0 .474-.022.682-.067s.404-.112.59-.202c.185-.089.363-.2.536-.331.172-.131.346-.286.521-.465v-1.673c-.701 0-1.287.044-1.758.132-.472.088-.85.201-1.136.338-.285.138-.488.298-.608.481s-.181.383-.181.599c0 .425.125.729.375.913s.576.275.979.275zM488.557 202.462v14.477h-2.406v-14.477h2.406zM494.559 217.095c-.864 0-1.53-.245-1.997-.735-.468-.49-.702-1.167-.702-2.031v-5.583h-1.013c-.13 0-.242-.042-.336-.126-.095-.084-.142-.211-.142-.38v-.955l1.607-.263.507-2.728c.025-.13.086-.23.18-.302.095-.071.213-.107.356-.107h1.246v3.147h2.631v1.714h-2.631v5.417c0 .312.078.555.234.73.155.175.363.263.623.263.149 0 .274-.018.375-.054l.264-.112.199-.112.176-.054c.071 0 .13.018.175.054l.146.161.721 1.169c-.351.292-.753.513-1.208.662-.453.151-.925.225-1.411.225zM498.816 216.939v-14.477h2.406v5.563c.39-.37.818-.669 1.286-.896.468-.227 1.016-.341 1.646-.341.545 0 1.029.093 1.451.278s.774.445 1.057.779c.283.334.497.734.644 1.198.146.464.219.976.219 1.534v6.362h-2.406v-6.362c0-.61-.141-1.083-.424-1.417-.282-.334-.706-.501-1.271-.501-.415 0-.805.094-1.169.282-.363.188-.708.445-1.032.77v7.229h-2.407zM516.917 209.058c-.071.091-.141.162-.209.214-.068.052-.167.078-.297.078-.124 0-.244-.037-.36-.112l-.419-.253c-.163-.094-.355-.178-.58-.253-.224-.074-.502-.112-.833-.112-.422 0-.792.076-1.11.229s-.583.372-.794.658c-.211.286-.369.631-.473 1.038-.104.406-.156.865-.156 1.378 0 .533.058 1.007.171 1.422s.277.765.492 1.047c.214.282.474.497.779.643.305.146.649.219 1.032.219.384 0 .693-.047.931-.141s.437-.198.599-.312l.424-.312s.255-.141.404-.141c.195 0 .342.075.438.224l.692.876c-.267.312-.556.573-.867.784-.312.211-.635.38-.97.507-.334.126-.681.216-1.037.268-.357.052-.711.078-1.062.078-.617 0-1.198-.115-1.743-.346-.546-.23-1.021-.566-1.428-1.008-.405-.441-.728-.982-.964-1.622-.237-.64-.356-1.369-.356-2.187 0-.734.106-1.414.317-2.041s.521-1.169.93-1.627.916-.817 1.521-1.077c.604-.26 1.299-.39 2.084-.39.747 0 1.401.12 1.964.36.562.24 1.066.584 1.515 1.033l-.635.878zM527.019 216.939h-1.081c-.228 0-.406-.034-.536-.102-.13-.068-.227-.207-.292-.414l-.214-.711c-.254.228-.502.427-.745.599-.244.172-.496.317-.756.434s-.535.205-.828.263c-.292.058-.616.087-.974.087-.423 0-.812-.057-1.169-.171-.357-.114-.664-.285-.921-.513s-.456-.512-.599-.851c-.144-.338-.215-.733-.215-1.183 0-.378.099-.751.297-1.119s.528-.7.989-.997c.461-.296 1.074-.542 1.841-.738s1.718-.293 2.854-.293v-.589c0-.674-.141-1.173-.424-1.497-.282-.324-.693-.486-1.232-.486-.39 0-.714.045-.974.136-.26.091-.485.193-.678.307l-.53.307c-.163.091-.341.136-.536.136-.162 0-.302-.042-.419-.126s-.211-.188-.282-.312l-.438-.77c1.149-1.052 2.536-1.578 4.16-1.578.584 0 1.105.096 1.563.288s.846.458 1.164.799c.318.341.56.749.726 1.223s.248.994.248 1.559v6.312zm-4.676-1.5c.247 0 .474-.022.682-.067s.404-.112.59-.202c.185-.089.363-.2.536-.331.172-.131.346-.286.521-.465v-1.673c-.701 0-1.287.044-1.758.132-.472.088-.85.201-1.136.338-.285.138-.488.298-.608.481s-.181.383-.181.599c0 .425.125.729.375.913s.577.275.979.275zM529.386 216.939v-9.996h1.412c.247 0 .419.045.517.137.098.091.162.247.195.467l.146 1.208c.357-.617.776-1.104 1.257-1.461.48-.357 1.02-.536 1.617-.536.493 0 .902.114 1.228.341l-.312 1.803c-.02.117-.062.2-.127.248-.064.049-.152.073-.263.073-.098 0-.23-.022-.399-.068-.169-.045-.394-.068-.673-.068-.5 0-.929.138-1.285.414-.357.276-.659.68-.906 1.213v6.225h-2.407zM541.476 206.788c.63 0 1.209.101 1.738.302.529.201.985.495 1.369.881.383.387.682.861.896 1.422.214.562.321 1.203.321 1.924 0 .182-.009.333-.024.453-.017.121-.046.214-.088.283s-.099.117-.17.146c-.072.029-.163.044-.273.044h-6.176c.071 1.026.347 1.78.828 2.26.48.481 1.116.721 1.909.721.39 0 .726-.045 1.008-.136.283-.091.529-.191.74-.302l.556-.302c.159-.091.313-.136.463-.136.098 0 .182.02.253.058.071.039.134.094.186.166l.701.876c-.267.312-.564.573-.896.784-.331.211-.677.38-1.037.507s-.728.216-1.101.268c-.374.052-.736.078-1.087.078-.694 0-1.341-.115-1.938-.346s-1.117-.571-1.559-1.023c-.441-.451-.789-1.01-1.042-1.676-.254-.666-.381-1.437-.381-2.313 0-.682.11-1.323.332-1.924.221-.601.537-1.124.949-1.568.413-.445.916-.797 1.511-1.057.594-.26 1.265-.39 2.012-.39zm.048 1.725c-.701 0-1.25.198-1.646.594-.396.396-.65.958-.761 1.685h4.521c0-.312-.042-.605-.126-.881-.085-.276-.215-.518-.39-.726-.176-.208-.396-.372-.663-.492s-.578-.18-.935-.18z"/><g fill-rule="evenodd" clip-rule="evenodd"><path fill="#ED1C24" d="M465.718 107.561c-1.587-1.269-2.074-2.89-2.065-4.937.083-12.229.145-24.46-.012-36.688-.056-4.149 1.648-5.487 5.625-5.435 4.135.054 7.436-.026 11.282-.032 3.143-.004 4.653.878 5.013 3.886.444 3.705 2.692 4.449 6.151 4.388 2.176-.039 4.318-.016 6.575-.005 5.288-.011 9.061.086 9.592-6.161.125-1.457.985-2.094 2.542-2.067 4.859.079 9.718.014 14.581.054 2.925.025 4.141 1.582 4.126 4.479-.05 12.7-.05 25.4.015 38.102.011 1.921-.678 3.305-2.116 4.434-1.774 1.736-4.058 1.468-6.214 1.474-16.295.051-32.592.052-48.887-.001-2.155-.006-4.443.262-6.208-1.491z"/><path fill="#E0E0E0" d="M465.718 107.561c20.438.007 40.87.013 61.309.019"/><g fill="#FCFCFC"><path d="M510.411 89.706c0 2.387-1.934 4.323-4.322 4.323h-18.389c-2.385 0-4.32-1.936-4.32-4.323 0-2.386 1.935-4.321 4.32-4.321h18.389c2.388 0 4.322 1.935 4.322 4.321zM496.659 76.269c2.387 0 4.322 1.935 4.322 4.322v18.39c0 2.386-1.935 4.321-4.322 4.321-2.388 0-4.32-1.935-4.32-4.321v-18.39c0-2.387 1.932-4.322 4.32-4.322z"/></g></g></g></svg>