<svg xmlns="http://www.w3.org/2000/svg" width="550" height="450" viewBox="0 0 550 450"><path fill="#5C8392" d="M78.624 239.41v184.844h-25.016v-184.844zM122.935 295.838v128.416h-25.008v-128.416zM163.748 421.193v4.36h-25.014v-4.36zM209.23 378.678v45.576h-25.013v-45.576zM253.519 411.615v13.938h-24.985v-13.938zM300.161 357v67.254h-25.006v-67.254zM347.979 394.41v29.844h-25.014v-29.844zM393.494 48.876v375.378h-25.045v-375.378zM441.281 399.348v24.906h-24.984v-24.906zM490.29 156.781v267.473h-25.039v-267.473z"/><g fill="#fff"><path d="M61.075 266.523c-.368 0-.729-.061-1.082-.182-.354-.122-.669-.305-.946-.55-.277-.245-.5-.548-.667-.91-.167-.361-.25-.785-.25-1.271 0-.452.088-.877.265-1.273.177-.397.425-.745.744-1.043.319-.299.702-.535 1.148-.707.446-.173.939-.26 1.479-.26.544 0 1.034.082 1.468.245.435.164.805.393 1.112.687s.542.646.707 1.057c.165.411.247.861.247 1.352 0 .312-.028.608-.084.889-.057.28-.138.55-.243.809s-.232.511-.379.756-.312.491-.493.738l-2.437 3.304c-.083.112-.208.207-.372.284-.165.077-.353.115-.563.115h-1.671l3.305-3.927.235-.287.214-.28c-.246.149-.516.263-.81.34s-.604.114-.927.114zm2.48-3.031c0-.275-.044-.521-.132-.738s-.213-.4-.375-.55c-.162-.148-.354-.264-.578-.343-.224-.079-.468-.119-.732-.119-.275 0-.523.044-.744.13s-.409.206-.563.36c-.155.154-.274.337-.357.55-.083.212-.125.444-.125.696 0 .564.153.995.46 1.291.307.297.742.445 1.306.445.294 0 .556-.045.784-.134.228-.088.421-.21.578-.363.157-.154.276-.336.357-.546.081-.209.121-.436.121-.679zM73.882 265.502c0 .882-.099 1.648-.298 2.299-.199.651-.474 1.189-.825 1.613-.351.425-.765.741-1.244.949-.479.207-.995.312-1.55.312-.554 0-1.068-.104-1.542-.312-.474-.208-.884-.524-1.233-.949-.349-.424-.621-.962-.817-1.613-.196-.65-.294-1.417-.294-2.299 0-.887.098-1.654.294-2.304.196-.648.468-1.185.817-1.609s.759-.741 1.233-.949c.474-.207.988-.312 1.542-.312.555 0 1.071.104 1.55.312.479.208.893.524 1.244.949.351.425.626.961.825 1.609.199.65.298 1.417.298 2.304zm-1.877 0c0-.733-.056-1.34-.169-1.82-.113-.48-.264-.863-.453-1.148-.189-.284-.406-.483-.651-.599-.245-.114-.5-.171-.766-.171-.26 0-.511.057-.754.171-.243.115-.458.314-.644.599-.187.285-.335.668-.445 1.148s-.166 1.087-.166 1.82c0 .732.055 1.339.166 1.819s.259.863.445 1.148c.187.284.401.484.644.599.243.114.495.171.754.171.265 0 .521-.057.766-.171.246-.114.462-.314.651-.599s.34-.668.453-1.148c.113-.48.169-1.087.169-1.819z"/></g><g fill="#fff"><path d="M106.757 349.989c.391 0 .772.063 1.142.189.37.126.696.316.978.57.281.255.508.57.68.948s.258.819.258 1.323c0 .472-.088.913-.265 1.326s-.425.773-.745 1.082c-.32.308-.705.551-1.156.728-.451.178-.949.267-1.493.267-.554 0-1.05-.087-1.489-.26-.439-.172-.813-.414-1.124-.724-.31-.311-.547-.684-.712-1.12-.165-.437-.247-.921-.247-1.453 0-.476.099-.965.297-1.466.198-.502.505-1.023.92-1.564l2.47-3.241c.086-.112.211-.208.375-.287.165-.079.354-.119.569-.119h1.575l-3.071 3.675-.19.225-.175.217c.2-.098.417-.175.648-.231.231-.056.483-.085.755-.085zm-2.477 3.144c0 .279.039.535.118.767.079.23.195.428.351.591.155.164.347.291.576.382s.494.137.795.137c.281 0 .541-.047.777-.141.236-.093.439-.224.608-.392s.302-.365.397-.592c.095-.226.143-.473.143-.738 0-.289-.045-.55-.136-.78-.09-.231-.219-.427-.386-.588-.167-.161-.368-.284-.602-.368s-.492-.126-.773-.126-.537.047-.766.141c-.229.093-.426.223-.591.389-.165.165-.291.361-.379.588s-.132.468-.132.73zM114.575 346.076c.477 0 .914.069 1.31.207.396.138.735.332 1.017.584s.501.556.659.91c.157.354.236.749.236 1.184 0 .373-.056.719-.168 1.035-.112.317-.263.621-.451.91-.188.29-.409.569-.662.84-.253.271-.518.547-.794.826l-2.334 2.331c.229-.065.453-.115.673-.15s.43-.053.63-.053h2.656c.191 0 .342.053.455.158.112.104.168.243.168.416v1.036h-7.102v-.574c0-.116.025-.237.075-.364.05-.126.13-.242.24-.35l3.143-3.08c.262-.261.498-.511.705-.749s.382-.474.522-.707.248-.47.322-.71c.074-.24.111-.494.111-.76 0-.242-.036-.456-.107-.641-.071-.185-.174-.34-.308-.466s-.292-.22-.476-.283c-.184-.062-.39-.095-.62-.095-.425 0-.774.105-1.049.315s-.466.492-.576.847c-.053.178-.131.305-.236.382s-.239.115-.401.115l-.236-.021-.931-.161c.072-.485.21-.911.416-1.277.205-.366.461-.673.77-.917.308-.245.661-.43 1.06-.554.396-.121.824-.184 1.283-.184z"/></g><path fill="#fff" d="M152.003 402.482c.491 0 .94.069 1.347.207s.756.332 1.045.584.515.556.677.91c.162.354.243.749.243 1.184 0 .373-.058.719-.173 1.035-.115.317-.27.621-.464.91-.194.29-.421.569-.681.84-.26.271-.533.547-.817.826l-2.399 2.331c.235-.065.466-.115.692-.15.226-.035.441-.053.647-.053h2.731c.196 0 .352.053.468.158.115.104.173.243.173.416v1.036h-7.302v-.574c0-.116.026-.237.078-.364.051-.126.133-.242.247-.35l3.231-3.08c.27-.261.511-.511.725-.749.213-.238.392-.474.537-.707.145-.233.255-.47.331-.71s.114-.494.114-.76c0-.242-.037-.456-.11-.641s-.179-.34-.316-.466c-.138-.126-.301-.22-.49-.283-.189-.062-.401-.095-.637-.095-.437 0-.796.105-1.078.315-.282.21-.48.492-.593.847-.054.178-.135.305-.243.382-.108.077-.246.115-.413.115l-.243-.021-.957-.161c.074-.485.216-.911.427-1.277.211-.366.475-.673.791-.917.316-.245.68-.43 1.089-.554.411-.121.852-.184 1.323-.184z"/><g fill="#fff"><path d="M192.624 386.338c.491 0 .94.069 1.347.207s.756.332 1.045.584.515.556.677.91c.162.354.243.749.243 1.184 0 .373-.058.719-.173 1.035-.115.317-.27.621-.464.91-.194.29-.421.569-.681.84-.26.271-.533.547-.817.826l-2.399 2.331c.235-.065.466-.115.692-.15.226-.035.441-.053.647-.053h2.731c.196 0 .352.053.468.158.115.104.173.243.173.416v1.036h-7.302v-.574c0-.116.026-.237.078-.364.051-.126.133-.242.247-.35l3.231-3.08c.27-.261.511-.511.725-.749.213-.238.392-.474.537-.707.145-.233.255-.47.331-.71s.114-.494.114-.76c0-.242-.037-.456-.11-.641s-.179-.34-.316-.466c-.138-.126-.301-.22-.49-.283-.189-.062-.401-.095-.637-.095-.437 0-.796.105-1.078.315-.282.21-.48.492-.593.847-.054.178-.135.305-.243.382-.108.077-.246.115-.413.115l-.243-.021-.957-.161c.074-.485.216-.911.427-1.277.211-.366.475-.673.791-.917.316-.245.68-.43 1.089-.554.411-.122.852-.184 1.323-.184zM201.163 386.338c.491 0 .94.069 1.347.207s.756.332 1.045.584.515.556.677.91c.162.354.243.749.243 1.184 0 .373-.058.719-.173 1.035-.115.317-.27.621-.464.91-.194.29-.421.569-.681.84-.26.271-.533.547-.817.826l-2.399 2.331c.235-.065.466-.115.692-.15.226-.035.441-.053.647-.053h2.731c.196 0 .352.053.468.158.115.104.173.243.173.416v1.036h-7.302v-.574c0-.116.026-.237.078-.364.051-.126.133-.242.247-.35l3.231-3.08c.27-.261.511-.511.725-.749.213-.238.392-.474.537-.707.145-.233.255-.47.331-.71s.114-.494.114-.76c0-.242-.037-.456-.11-.641s-.179-.34-.316-.466c-.138-.126-.301-.22-.49-.283-.189-.062-.401-.095-.637-.095-.437 0-.796.105-1.078.315-.282.21-.48.492-.593.847-.054.178-.135.305-.243.382-.108.077-.246.115-.413.115l-.243-.021-.957-.161c.074-.485.216-.911.427-1.277.211-.366.475-.673.791-.917.316-.245.68-.43 1.089-.554.411-.122.851-.184 1.323-.184z"/></g><path fill="#fff" d="M243.267 415.505c0 .178-.059.323-.177.438-.118.115-.317.172-.596.172h-3.312l-.486 2.632c.549-.112 1.057-.168 1.523-.168.55 0 1.034.077 1.454.231.419.153.771.366 1.056.637s.5.591.644.959c.145.369.217.77.217 1.204 0 .532-.098 1.013-.294 1.441-.196.43-.465.797-.806 1.103-.341.306-.742.541-1.204.704-.461.163-.959.245-1.494.245-.309 0-.606-.029-.891-.088s-.55-.137-.795-.234c-.246-.098-.474-.21-.685-.336s-.397-.259-.56-.399l.397-.531c.088-.122.206-.183.354-.183.093 0 .202.036.328.108l.453.242c.177.088.384.169.622.241.238.072.521.108.85.108.368 0 .699-.056.994-.168s.546-.271.754-.479.369-.456.482-.745c.113-.29.169-.614.169-.974 0-.312-.048-.595-.144-.847s-.24-.467-.434-.645c-.194-.177-.436-.314-.725-.412-.29-.099-.628-.147-1.016-.147-.265 0-.54.021-.825.062s-.579.11-.883.203l-.824-.23.854-4.69h4.999v.546z"/><g fill="#fff"><path d="M284.204 365.59c.49 0 .934.066 1.329.2.395.133.732.317 1.012.553s.494.512.644.829c.15.317.225.661.225 1.029 0 .322-.038.605-.113.851-.076.245-.187.458-.332.641-.145.182-.321.336-.529.462-.209.126-.445.23-.711.314.638.191 1.114.483 1.429.875.313.393.471.885.471 1.478 0 .504-.099.949-.295 1.337s-.461.713-.795.977c-.333.264-.72.463-1.159.599-.439.135-.904.203-1.395.203-.535 0-1.001-.059-1.398-.176-.397-.116-.744-.289-1.038-.518-.295-.229-.545-.509-.751-.84s-.383-.714-.53-1.148l.803-.314c.138-.057.277-.084.42-.084.127 0 .241.025.342.077.101.051.178.126.232.224.088.163.185.324.29.483.105.158.232.3.379.423.147.124.32.225.52.301.198.077.436.116.71.116.31 0 .579-.048.81-.144.231-.096.424-.221.578-.375.154-.153.27-.325.346-.515.076-.188.114-.379.114-.57 0-.242-.026-.463-.081-.661-.054-.198-.167-.367-.338-.508-.172-.14-.419-.249-.74-.329-.321-.079-.752-.119-1.292-.119v-1.238c.446 0 .817-.037 1.111-.112.295-.074.529-.179.703-.312s.296-.293.364-.479c.069-.187.104-.392.104-.616 0-.48-.138-.843-.412-1.088-.275-.245-.65-.368-1.127-.368-.432 0-.79.108-1.074.325-.285.217-.483.495-.597.836-.059.177-.14.304-.242.381-.104.077-.238.115-.405.115l-.25-.021-.957-.158c.073-.485.216-.912.427-1.278s.475-.672.791-.917c.317-.245.68-.43 1.09-.554.406-.125.846-.187 1.317-.187zM295.422 366.438c0 .247-.083.447-.247.602s-.438.231-.82.231h-2.93l-.383 2.113c.48-.093.92-.14 1.317-.14.56 0 1.052.079 1.476.238.425.158.781.378 1.071.658.289.279.508.607.655.983.147.375.221.78.221 1.214 0 .537-.1 1.027-.298 1.471-.199.443-.475.822-.828 1.137-.354.315-.772.56-1.255.731-.483.173-1.01.26-1.579.26-.334 0-.65-.033-.95-.099-.299-.065-.58-.152-.843-.262-.262-.11-.505-.236-.729-.379-.224-.142-.423-.292-.6-.451l.56-.735c.117-.158.274-.237.471-.237.123 0 .247.037.372.111l.438.245c.167.089.361.171.582.245.221.075.488.112.802.112.334 0 .628-.052.884-.154.255-.103.467-.246.637-.431.169-.184.297-.403.383-.657.086-.255.129-.531.129-.83 0-.551-.168-.98-.505-1.291-.336-.311-.83-.466-1.482-.466-.516 0-1.033.089-1.554.266l-1.134-.308.884-4.914h5.256v.737z"/></g><g fill="#fff"><path d="M328.412 411.107h2.156v-5.901c0-.229.008-.469.022-.721l-1.531 1.218-.195.105-.195.027c-.098 0-.188-.02-.269-.06-.081-.039-.141-.085-.18-.136l-.574-.749 3.246-2.625h1.494v8.841h1.914v1.295h-5.889v-1.294zM343.141 407.342c0 .882-.1 1.648-.299 2.299-.198.651-.474 1.189-.824 1.613-.351.425-.766.741-1.244.949-.479.207-.994.312-1.549.312s-1.069-.104-1.542-.312c-.474-.208-.885-.524-1.233-.949-.349-.424-.621-.962-.817-1.613-.196-.65-.294-1.417-.294-2.299 0-.887.098-1.654.294-2.304.196-.648.469-1.185.817-1.609s.76-.741 1.233-.949c.473-.207.987-.312 1.542-.312s1.07.104 1.549.312c.479.208.894.524 1.244.949s.626.961.824 1.609c.199.65.299 1.417.299 2.304zm-1.877 0c0-.733-.057-1.34-.17-1.82-.112-.48-.264-.863-.452-1.148-.189-.284-.406-.483-.651-.599-.246-.114-.501-.171-.766-.171-.261 0-.512.057-.755.171-.243.115-.458.314-.644.599-.187.285-.335.668-.445 1.148-.111.48-.166 1.087-.166 1.82 0 .732.055 1.339.166 1.819.11.48.259.863.445 1.148.186.284.4.484.644.599s.494.171.755.171c.265 0 .52-.057.766-.171.245-.114.462-.314.651-.599.188-.285.34-.668.452-1.148.113-.48.17-1.087.17-1.819z"/></g><g fill="#fff"><path d="M370.135 77.919h2.156v-5.901c0-.229.008-.469.022-.721l-1.531 1.218-.195.105-.195.028c-.098 0-.188-.02-.269-.06l-.18-.137-.574-.749 3.246-2.625h1.494v8.841h1.914v1.295h-5.889v-1.294zM380.962 79.326c-.55 0-1.052-.07-1.506-.21-.453-.14-.843-.338-1.166-.595-.324-.257-.576-.567-.755-.931-.179-.364-.269-.77-.269-1.218 0-.598.154-1.103.464-1.516.309-.413.79-.72 1.442-.92-.521-.206-.909-.497-1.167-.875-.257-.378-.386-.833-.386-1.365 0-.382.082-.74.246-1.071.165-.332.395-.62.688-.865.295-.245.646-.436 1.057-.574.409-.138.859-.207 1.351-.207.49 0 .94.069 1.351.207.409.138.762.329 1.057.574.294.245.523.533.688.865.165.331.247.688.247 1.071 0 .532-.13.987-.391 1.365-.26.378-.647.669-1.163.875.653.201 1.134.507 1.443.92.309.413.464.918.464 1.516 0 .448-.09.854-.269 1.218-.18.364-.431.674-.755.931-.324.256-.713.455-1.167.595-.453.14-.954.21-1.504.21zm0-1.35c.299 0 .562-.041.787-.123s.416-.195.57-.34c.155-.145.271-.317.351-.518.078-.2.117-.417.117-.651 0-.555-.162-.975-.485-1.26-.324-.285-.771-.427-1.34-.427s-1.016.143-1.34.427-.486.705-.486 1.26c0 .233.04.451.118.651.078.201.195.374.35.518.154.145.345.258.57.34s.488.123.788.123zm0-4.677c.294 0 .542-.044.743-.133.201-.089.363-.207.486-.354.122-.147.209-.315.261-.504.052-.189.077-.384.077-.585 0-.191-.031-.373-.096-.546-.063-.172-.159-.325-.287-.458-.127-.133-.289-.239-.485-.318-.196-.079-.43-.119-.699-.119-.271 0-.503.04-.699.119-.196.08-.359.186-.49.318-.13.133-.226.286-.286.458-.062.173-.093.355-.093.546 0 .201.026.396.077.585.052.189.139.357.262.504s.284.265.486.354c.2.089.448.133.743.133zM390.163 72.894c.402 0 .794.063 1.174.189.381.126.716.316 1.005.57.29.254.522.57.699.949.177.378.266.819.266 1.323 0 .472-.091.914-.272 1.327s-.437.773-.766 1.082c-.329.308-.726.551-1.188.728-.464.177-.976.266-1.535.266-.569 0-1.08-.086-1.531-.259-.451-.173-.837-.414-1.155-.725-.319-.31-.563-.684-.732-1.12-.17-.436-.254-.92-.254-1.452 0-.476.102-.965.306-1.467.203-.501.519-1.023.945-1.564l2.54-3.241c.088-.112.217-.208.386-.287.17-.08.364-.119.586-.119h1.619l-3.158 3.675-.195.224-.18.217c.206-.098.428-.175.666-.231.236-.058.495-.085.774-.085zm-2.547 3.142c0 .28.041.536.122.767.08.231.201.428.36.592.159.163.356.291.593.381.235.091.508.137.816.137.29 0 .556-.047.799-.14s.451-.224.626-.392c.174-.168.311-.365.408-.591.099-.227.147-.473.147-.739 0-.289-.047-.549-.14-.78-.094-.231-.226-.427-.397-.588-.172-.161-.378-.283-.618-.367-.241-.084-.506-.126-.796-.126-.289 0-.552.046-.787.14-.235.094-.438.223-.607.389s-.299.362-.39.588c-.09.224-.136.468-.136.729z"/></g><path fill="#fff" d="M433.984 406.597v.749c0 .224-.025.405-.077.543l-.15.346-4.027 7.896c-.083.163-.201.302-.353.416-.152.115-.358.172-.618.172h-1.318l4.122-7.735c.172-.317.363-.59.574-.818h-5.094c-.112 0-.211-.04-.294-.119-.084-.079-.125-.173-.125-.28v-1.169h7.36z"/><g fill="#fff"><path d="M467.395 203.657h2.156v-5.901c0-.229.008-.469.022-.721l-1.531 1.218-.195.105-.195.028c-.098 0-.188-.02-.269-.06l-.18-.137-.574-.749 3.246-2.625h1.494v8.841h1.914v1.295h-5.889v-1.294zM478.553 194.718c.49 0 .934.066 1.329.199.395.133.732.317 1.012.553s.494.512.644.83c.15.317.225.66.225 1.029 0 .322-.038.605-.113.851-.076.245-.187.458-.332.641-.145.182-.321.336-.529.462-.209.126-.445.231-.711.315.638.191 1.114.483 1.429.875.313.392.471.884.471 1.477 0 .504-.099.95-.295 1.337s-.461.713-.795.977c-.333.264-.72.463-1.159.599s-.904.203-1.395.203c-.535 0-1.001-.058-1.398-.175s-.744-.29-1.038-.518c-.295-.229-.545-.508-.751-.84s-.383-.714-.53-1.148l.803-.315c.138-.056.277-.084.42-.084.127 0 .241.025.342.077.101.052.178.126.232.224.088.164.185.324.29.483s.232.3.379.423c.147.124.32.224.52.301.198.077.436.115.71.115.31 0 .579-.047.81-.143.231-.096.424-.221.578-.375.154-.154.27-.326.346-.515s.114-.379.114-.57c0-.243-.026-.463-.081-.662-.054-.198-.167-.368-.338-.508-.172-.14-.419-.25-.74-.329-.321-.08-.752-.119-1.292-.119v-1.239c.446 0 .817-.037 1.111-.112.295-.075.529-.178.703-.312.174-.133.296-.293.364-.479.069-.187.104-.392.104-.616 0-.481-.138-.844-.412-1.089-.275-.245-.65-.367-1.127-.367-.432 0-.79.108-1.074.325-.285.217-.483.495-.597.835-.059.177-.14.304-.242.381-.104.077-.238.115-.405.115l-.25-.021-.957-.159c.073-.485.216-.911.427-1.278.211-.366.475-.672.791-.917.317-.245.68-.43 1.09-.553s.846-.184 1.317-.184zM486.923 194.718c.49 0 .939.069 1.347.207s.756.333 1.045.584c.29.252.516.555.678.91.162.355.243.749.243 1.183 0 .374-.059.719-.174 1.036s-.27.621-.463.91c-.194.289-.421.569-.682.84-.26.271-.532.546-.816.826l-2.4 2.331c.236-.065.467-.115.692-.15.226-.035.441-.052.647-.052h2.731c.196 0 .352.052.467.157s.173.244.173.417v1.036h-7.302v-.574c0-.116.026-.238.077-.364.052-.126.134-.243.247-.35l3.231-3.08c.27-.261.512-.511.725-.749.214-.238.393-.474.538-.707.145-.233.255-.47.331-.71.076-.24.114-.493.114-.759 0-.243-.037-.456-.111-.641-.073-.184-.179-.339-.316-.465s-.301-.221-.489-.284-.401-.094-.637-.094c-.437 0-.796.105-1.078.315s-.479.492-.593.847c-.054.178-.135.305-.243.382-.107.077-.245.115-.412.115l-.243-.021-.956-.161c.073-.485.216-.911.427-1.278.211-.366.475-.672.791-.917s.68-.429 1.09-.553c.409-.125.849-.187 1.321-.187z"/></g><g fill="#ED1C24"><path d="M68.416 219.116l-7.877-.036c-2.914.081-3.986 2.428-3.986 3.243v11.605c0 .719.582 1.299 1.295 1.299.719 0 1.302-.58 1.302-1.299v-9.513h1.104v9.117l.032.363v.25c.082-.018 7.051.02 8.131-.035v-9.695h.981v9.513c0 .719.621 1.299 1.39 1.299.771 0 1.395-.58 1.395-1.299v-11.756c-.001-.992-1.303-3.056-3.767-3.056zM64.252 218.514c1.725 0 3.119-1.396 3.119-3.122 0-1.724-1.395-3.12-3.119-3.12s-3.122 1.396-3.122 3.12c0 1.727 1.397 3.122 3.122 3.122zM74.723 221.408v-.875c0-.58-.76-1.786-2.198-1.786l-4.6-.02c-1.7.045-2.326 1.416-2.326 1.893v.625c3.04.007 6.083.078 9.124.163zM70.16 218.395c1.007 0 1.822-.814 1.822-1.824 0-1.006-.815-1.821-1.822-1.821s-1.823.815-1.823 1.821c0 1.01.816 1.824 1.823 1.824zM63.034 221.668l.312.025v-1.116c0-.478-.627-1.849-2.331-1.894l-4.598.02c-1.438 0-2.198 1.206-2.198 1.785v1.171c2.94-.063 5.877.004 8.815.009zM58.665 218.353c-1.004 0-1.822-.814-1.822-1.825 0-1.007.818-1.821 1.822-1.821 1.007 0 1.823.814 1.823 1.821 0 1.011-.816 1.825-1.823 1.825zM76.158 216.404c.008-.197.005-.396-.005-.591-.071-1.352-.557-2.638-1.396-3.695-.121-.154-.253-.304-.388-.447-.229-.239-.574-.282-.794-.132l-.085.07-.064.068c-.208.224-.188.571.022.788.114.122.223.246.322.376.173.214.475.295.733.192.439.685.73 1.453.852 2.26-.264.091-.434.353-.421.627l.005.492c-.011.305.2.58.508.61l.091.007.111-.003c.265-.031.497-.294.509-.622zM53.063 216.833c-.008-.198-.007-.396.002-.594.071-1.349.556-2.635 1.397-3.692.122-.155.25-.304.386-.447.229-.239.574-.283.796-.132l.084.069.063.066c.21.226.188.571-.022.791l-.322.375c-.173.215-.471.295-.73.191-.44.687-.73 1.455-.854 2.262.264.091.435.352.421.626l-.005.493c.013.306-.2.579-.505.61l-.094.007-.109-.004c-.264-.034-.495-.293-.508-.621z"/></g><g fill="#ED1C24"><path d="M292.767 341.91h-2.092v-2.344c0-.473-.383-.855-.854-.855s-.851.383-.851.855v.637l-5.378.002v-.639c0-.473-.383-.855-.852-.855-.472 0-.853.383-.853.855v2.344h-2.095c-1.113 0-2.016.904-2.016 2.016v8.51h17.006v-8.51c.001-1.112-.9-2.016-2.015-2.016zm-6.487 9.029c-2.239 0-4.053-1.812-4.053-4.053 0-.613.141-1.195.388-1.717.14-.303.314-.586.522-.842.137-.166.293-.324.454-.467.717-.635 1.656-1.025 2.688-1.025s1.97.391 2.689 1.025c.159.143.314.301.449.467.208.256.386.539.525.842.246.521.388 1.104.388 1.717.002 2.241-1.813 4.053-4.05 4.053zM287.003 344.328c-.229-.064-.475-.102-.723-.102-.251 0-.492.037-.723.102-1.119.314-1.94 1.34-1.94 2.559 0 1.471 1.191 2.664 2.663 2.664 1.471 0 2.662-1.193 2.662-2.664 0-1.219-.824-2.244-1.939-2.559zM296.459 336.74c-.738-.307-1.48-.582-2.234-.822-5.183-1.652-10.708-1.652-15.89 0-.752.24-1.499.516-2.231.822-1.223.516-1.882 1.762-1.626 2.805.032.139.077.279.143.412l.158.334c.554 1.117 1.886 1.521 3.014 1.049.612-.258 1.235-.486 1.861-.686 1.055-.342 1.788-1.357 1.766-2.48 3.21-.68 6.512-.68 9.723 0-.024 1.121.707 2.139 1.765 2.48.626.199 1.248.428 1.86.686 1.13.473 2.46.068 3.014-1.049l.16-.334c.064-.133.108-.273.145-.412.249-1.043-.405-2.289-1.628-2.805z"/></g><path fill="#ED1C24" d="M494.797 144.551h-2.583v-16.634c0-.505-.412-.914-.917-.914l-24.837-.001c-.505 0-.918.408-.918.915v16.634h-2.581c-.665 0-1.205.545-1.205 1.209v1.118c0 .665.54 1.206 1.205 1.206h31.836c.667 0 1.207-.541 1.207-1.206v-1.118c0-.664-.54-1.209-1.207-1.209zm-10.715.995c0 .252-.205.458-.459.458h-9.489c-.254 0-.459-.206-.459-.458v-.425l.013-.111h10.382l.013.111v.425zm5.341 1.266c-.213 0-.383-.173-.383-.387s.17-.386.383-.386.388.172.388.386-.175.387-.388.387zm.436-2.934h-21.961v-14.694l.049-.036 21.863.001.049.035v14.694zm1.339 2.934c-.211 0-.383-.173-.383-.387s.172-.386.383-.386c.213 0 .386.172.386.386s-.173.387-.386.387zm1.776 0c-.211 0-.386-.173-.386-.387s.175-.386.386-.386c.213 0 .383.172.383.386s-.17.387-.383.387z"/><path fill-rule="evenodd" clip-rule="evenodd" fill="#ED1C24" d="M469.034 129.715h19.631v1.907h-19.631z"/><path opacity=".7" clip-rule="evenodd" stroke="#ED1C24" stroke-width=".177" stroke-miterlimit="10" fill="none" d="M469.034 132.188h19.631v10.806h-19.631z"/><path fill-rule="evenodd" clip-rule="evenodd" fill="#ED1C24" d="M469.962 132.756h6.15v9.727h-6.15zM485.515 132.995h2.572v3.311h-2.572zM485.515 136.748h2.603v3.134h-2.603z"/><path stroke="#ED1C24" stroke-width=".629" stroke-miterlimit="10" fill="none" d="M476.317 133.465h8.843M476.317 134.501h8.843M476.317 135.655h8.843M476.317 136.659h8.843M476.317 138.434h8.843M476.317 139.469h8.843M476.317 140.621h11.767M476.317 141.626h11.767"/><path fill="#ED1C24" d="M387.936 24.549l-.019 4.465-13.59-.059.062-15.723 5.046.021c-.021-.245-.03-.492-.03-.737.005-.868.124-1.706.343-2.521l-5.148-.021c-1.666-.007-3.03 1.354-3.038 3.019l-.114 27.417c-.006 1.665 1.35 3.034 3.016 3.043l13.202.053c1.668.007 3.035-1.352 3.044-3.018l.067-16.98c-.249-.025-.497-.044-.743-.081-.643.379-1.361.76-2.098 1.122zm-9.866 16.253c0 .178-.147.322-.327.321l-3.299-.013c-.176-.003-.322-.148-.32-.326l.006-1.008c0-.179.145-.323.321-.321l3.3.012c.18 0 .327.146.324.325l-.005 1.01zm.013-2.813c-.001.18-.149.327-.327.324l-3.299-.013c-.178-.002-.322-.148-.322-.327l.002-1.012c0-.178.152-.323.327-.323l3.3.014c.178.003.324.147.324.327l-.005 1.01zm.013-2.816c-.003.182-.149.327-.33.325l-3.296-.012c-.178-.002-.325-.146-.325-.329l.005-1.01c0-.175.151-.32.327-.32l3.3.013c.178.002.324.147.324.325l-.005 1.008zm.009-2.81c0 .179-.146.327-.327.324l-3.299-.013c-.178-.002-.323-.149-.322-.328l.005-1.008c0-.182.147-.327.325-.327l3.299.013c.181.002.323.148.323.331l-.004 1.008zm4.944 8.461c0 .177-.145.319-.325.319l-3.302-.013c-.179 0-.324-.146-.324-.324l.005-1.008c0-.183.147-.323.324-.323l3.302.014c.181 0 .325.144.325.323l-.005 1.012zm.013-2.815c0 .18-.148.325-.328.325l-3.302-.015c-.18 0-.322-.148-.322-.327l.005-1.01c0-.179.147-.323.324-.323l3.302.016c.181 0 .322.146.322.322l-.001 1.012zm.009-2.813c0 .179-.145.325-.323.325l-3.303-.015c-.181 0-.325-.148-.325-.329l.003-1.008c.005-.178.146-.32.329-.32l3.302.014c.181 0 .322.146.321.32l-.004 1.013zm.01-2.813c0 .177-.142.325-.323.325l-3.303-.015c-.179 0-.323-.149-.322-.327l.003-1.01c.005-.183.146-.324.327-.324l3.304.015c.181 0 .322.146.32.327l-.006 1.009zm4.948 8.461c-.003.178-.15.32-.333.32l-3.294-.014c-.183 0-.327-.145-.324-.323l.002-1.012c0-.178.145-.322.327-.322l3.297.014c.179 0 .327.147.327.326l-.002 1.011zm.01-2.813c0 .179-.149.324-.33.324l-3.296-.014c-.183 0-.325-.146-.325-.328l.003-1.009c0-.179.146-.324.329-.324l3.297.013c.178 0 .327.148.327.328l-.005 1.01zm.012-2.813c0 .179-.148.323-.329.323l-3.299-.016c-.178 0-.322-.146-.322-.324l.003-1.013c.002-.177.146-.322.327-.322l3.299.015c.178 0 .327.148.325.323l-.004 1.014zm.011-2.813c-.001.178-.149.324-.327.324l-3.299-.014c-.183 0-.327-.148-.322-.327l.003-1.008c.002-.183.145-.33.327-.33l3.297.016c.183 0 .329.148.327.329l-.006 1.01zm3.844-29.681c-6.243-.025-11.333 4.368-11.358 9.798-.01 3.145 1.687 5.958 4.33 7.77.05 2.479-1.609 3.653-3.067 5.345 1.243-.124 5.303-1.754 7.98-3.396.66.106 1.345.163 2.037.166 6.243.025 11.338-4.367 11.36-9.793.024-5.429-5.039-9.865-11.282-9.89zm-6 12.934c-.649-.004-1.283-.172-1.6-.351l.264-1.054c.341.178.867.357 1.412.359.591.002.9-.238.9-.607.005-.349-.264-.556-.946-.801-.933-.332-1.544-.852-1.542-1.672.003-.965.812-1.696 2.146-1.69.64.001 1.107.137 1.438.289l-.289 1.029c-.226-.11-.627-.27-1.18-.271-.552-.003-.821.245-.821.537 0 .362.314.523 1.045.8.996.374 1.463.896 1.458 1.691-.003.949-.738 1.746-2.285 1.741zm7.993-.049l-.069-2.162c-.023-.677-.045-1.5-.039-2.317h-.031c-.175.717-.413 1.519-.634 2.181l-.694 2.199-.999-.003-.592-2.188c-.182-.663-.375-1.468-.504-2.203h-.016c-.04.759-.065 1.632-.109 2.334l-.112 2.143-1.182-.005.389-5.644 1.697.008.549 1.884c.169.658.346 1.36.463 2.021h.022c.168-.649.363-1.395.553-2.021l.606-1.875 1.67.008.285 5.645-1.253-.005zm3.615.096c-.646-.003-1.278-.172-1.596-.351l.262-1.054c.342.179.869.359 1.415.359.586.004.895-.238.895-.606.006-.35-.261-.556-.938-.8-.937-.331-1.547-.854-1.545-1.673.005-.964.811-1.696 2.146-1.692.637.005 1.105.14 1.438.291l-.289 1.028c-.226-.107-.626-.269-1.179-.272-.553-.001-.819.248-.823.54 0 .363.316.519 1.044.802.996.371 1.463.892 1.458 1.688-.004.947-.737 1.745-2.288 1.74zM325.503 387.924l-.179-.041 7.026-5.238 2.358 1.834c.126.094.291.146.466.146.176 0 .343-.053.467-.146l2.362-1.834 7.025 5.238-.182.041h-19.343zm12.986-5.653s6.748-5.227 6.771-5.246v10.295l-6.771-5.049zm-13.399-5.246l6.773 5.246-6.773 5.049v-10.295zm10.085 6.618c-.137 0-.261-.035-.354-.105l-9.505-7.01.187-.043h19.345l.189.043-9.506 7.01c-.094.069-.219.105-.356.105z"/><circle stroke="#ED1C24" stroke-width=".782" stroke-miterlimit="10" cx="151.009" cy="386.344" r="11.34" fill="none"/><path fill-rule="evenodd" clip-rule="evenodd" fill="#ED1C24" d="M149.208 380.357c.732-.992 1.746-1.309 2.927-1.236.221.014 1.616.152 2.095.201.309.029.321.154.294.438-.051.529-.097.77-.149 1.195-.054.289-.089.943-.737.844-1.854-.277-1.723.434-1.652 1.881.016.266.244.295.454.303.446.018.891.002 1.334.014.438.008.659.225.63.656-.028.439-.265 1.549-.274 1.68-.445.072-1.831.178-2.052.359-.157.148-.124.34-.124.525 0 .943-.008 1.887.005 2.83l.01.521c.008 1.002.008 2.002 0 3.004 0 .258.021.525-.188.729l.013.004c-1.144.012-1.448.029-3.031-.025-.166-.205-.157-.381-.157-.621 0-1.074-.02-2.146.007-3.221-.04-.707.032-1.412.002-2.117-.023-.406-.003-.814-.003-1.221-.003-.373-.172-.518-.54-.543-1.024-.066-1.033-.076-1.02-1.113.005-.438-.19-.908.129-1.309.178-.223.492-.145.751-.15.657-.021.769-.014.791-.689.019-.414 0-.426.051-1.264.073-.577.157-1.151.434-1.675z"/><path fill="#ED1C24" d="M110.783 291.808c-6.347 0-11.511-5.164-11.511-11.511 0-6.348 5.164-11.513 11.511-11.513 6.349 0 11.515 5.165 11.515 11.513 0 6.347-5.166 11.511-11.515 11.511zm0-22.256c-5.924 0-10.743 4.82-10.743 10.745 0 5.924 4.819 10.743 10.743 10.743 5.926 0 10.747-4.819 10.747-10.743 0-5.925-4.821-10.745-10.747-10.745z"/><path fill-rule="evenodd" clip-rule="evenodd" fill="#ED1C24" d="M115.341 284.346c-.857.922-1.948 1.371-3.127 1.619-2.376.496-5.117-.553-6.162-2.309-1.092-1.822-.799-4.66.651-6.369 1.507-1.766 4.015-2.395 6.188-1.543 2.693 1.055 3.466 4.84 1.351 6.652-.311.27-.66.631-1.104.393-.392-.207-.186-.645-.137-.977.178-1.236.369-2.469.59-3.703.16-.895-.238-1.221-1.075-1.137-.328.033-.553.301-.984.213-2.988-.602-5.154 1.648-4.666 4.793.287 1.855 1.491 2.682 3.306 2.324.44-.086.76-.41 1.338-.266 2.49.623 4.035-.092 5.148-2.221 1.115-2.133.729-4.449-1.094-6.004-2.391-2.043-5.133-2.18-7.887-1.012-2.716 1.158-4.113 3.336-4.039 6.613-.051.779.142 1.746.642 2.672 1.276 2.363 4.6 3.816 7.749 3.311 1.601-.258 3.176-.637 4.324-1.914.424-.482 1.058-1.061.418-1.684-.626-.611-1.068.158-1.43.549zm-4.883-1.803c-.223.352-.524.715-1.018.541-.494-.174-.731-.561-.749-1.102-.038-1.258.464-2.316 1.174-3.301.257-.35.622-.605 1.078-.473l-.485 4.335z"/><g fill="#ED1C24"><path fill-rule="evenodd" clip-rule="evenodd" d="M247.536 388.039l8.219 3.342-4.958 12.191-8.219-3.34 4.958-12.193zm-2.074 13.899l1.985.807-.294.721-1.986-.807.295-.721zm5.201-13.588l2.822 1.148-.135.328-2.821-1.148.134-.328zm-2.569-1.813c-.512-.205-1.098.041-1.306.553l-5.441 13.379c-.206.512.04 1.1.552 1.307l8.354 3.395c.51.209 1.097-.039 1.305-.549l5.44-13.381c.206-.51-.04-1.098-.553-1.305l-8.351-3.399z"/><path d="M241.858 379.074h-.36c-.022-.051-.066-.102-.143-.102h-1.633c-.065 0-.116.051-.142.102h-.434c-.024-.051-.051-.102-.1-.102h-1.026c-.041 0-.074.051-.084.102h-6.769c-.273 0-.541.057-.791.166l-.008.018h-.01c-.233.115-.45.283-.616.48-.284.336-.434.752-.434 1.18v20.682c0 .285.048.535.157.768.094.184.193.35.325.5l.05.033v.016l.018.01.023.025.01.016h.008l.025.018.008.016h.019v.018h.007l.015.018.028.023.017.01h.006v.006l.018.01.051.033v.018h.017l.05.031.015.016h.011l.058.037.019.016.049.025h.017l.066.033.009.008.058.033h.017l.066.025h.017l.068.025.082.018.251.047h.049l.026.018h10.812c1.027.008 1.852-.824 1.852-1.85l.017-20.693c-.003-1.019-.836-1.853-1.861-1.853zm-5.345 23.201c-.325 0-.591-.256-.591-.592 0-.316.266-.584.591-.584.316 0 .583.268.583.584 0 .337-.267.592-.583.592zm6.095-2.877l-12.206-.016.009-17.814 12.205.008-.008 17.822zM238.28 397.049v.033h1.836c.464 0 .842-.377.842-.832l-.594-2.553c0-.449-.375-.826-.834-.826h-.056c-.193.176-.442.283-.71.283-.284 0-.518-.107-.718-.283h-.051c-.249 0-.467.109-.616.275.068.133.102.293.102.451l.799 3.452zM238.765 391.131c-.508 0-.926.416-.926.916 0 .365.226.684.524.824.125.061.251.1.401.1.142 0 .268-.039.39-.1.31-.141.526-.459.526-.824.001-.5-.409-.916-.915-.916zM237.23 393.598l-.024-.135c-.067-.566-.526-1.002-1.109-1.002h-.068c-.257.236-.599.377-.983.377-.358 0-.683-.133-.949-.34l-.033-.037h-.065c-.618 0-1.137.51-1.137 1.137l-.801 3.451c0 .633.52 1.133 1.139 1.133h3.699c.616 0 1.106-.49 1.124-1.1l.008-.033-.801-3.451zM236.305 391.348c0-.703-.568-1.254-1.26-1.254-.683 0-1.249.551-1.249 1.254 0 .482.292.916.7 1.113h1.101c.416-.197.708-.631.708-1.113zM235.597 392.461h-1.101c.165.084.348.135.549.135s.394-.051.552-.135z"/></g><path fill="#5C8392" d="M35.788 443.146h485.479v1.555h-485.479z"/><g fill="#fff"><path d="M43.206 436.801l.15.067.395.431c-.305.354-.674.629-1.108.826-.435.197-.958.296-1.571.296-.537 0-1.023-.093-1.459-.277-.436-.186-.809-.445-1.117-.779s-.547-.735-.717-1.202c-.169-.468-.254-.981-.254-1.543 0-.561.091-1.075.273-1.542.182-.468.437-.869.766-1.205.329-.336.723-.597 1.181-.782.459-.185.965-.277 1.52-.277.547 0 1.019.085 1.415.254.396.17.749.4 1.057.691l-.327.462-.083.086-.135.033-.143-.049-.179-.122-.244-.156-.332-.155c-.128-.049-.277-.089-.447-.122-.17-.033-.365-.05-.587-.05-.398 0-.763.068-1.093.205-.331.138-.616.332-.854.585s-.425.561-.558.924c-.133.364-.2.771-.2 1.221 0 .464.067.878.2 1.241s.315.671.545.922c.23.251.503.442.818.574s.654.197 1.018.197c.221 0 .42-.013.597-.039.176-.026.34-.066.491-.122.15-.056.291-.125.421-.21.129-.085.26-.187.392-.304.056-.054.113-.079.169-.079zM48.794 438.338h-.41c-.09 0-.163-.014-.218-.042-.055-.027-.092-.086-.109-.176l-.104-.488c-.138.124-.273.236-.405.335-.132.099-.27.182-.416.249s-.3.119-.465.153-.347.052-.548.052c-.205 0-.396-.028-.574-.086s-.333-.144-.465-.258c-.131-.114-.236-.26-.314-.436-.078-.175-.117-.383-.117-.622 0-.209.057-.409.171-.603.114-.192.298-.363.553-.513.255-.149.588-.272 1-.368.412-.095.916-.143 1.511-.143v-.413c0-.411-.087-.723-.262-.933-.175-.211-.434-.316-.776-.316-.225 0-.415.028-.569.085-.154.058-.288.122-.4.192l-.291.192c-.081.058-.162.086-.241.086l-.164-.05-.112-.122-.166-.296c.291-.28.604-.49.94-.628.336-.139.708-.208 1.117-.208.294 0 .556.049.784.146s.42.231.577.405c.156.173.273.382.353.628s.119.516.119.811v3.367zm-2.399-.567c.163 0 .312-.016.447-.049s.262-.08.382-.141.234-.134.343-.221c.109-.086.215-.185.319-.296v-1.085c-.426 0-.788.026-1.085.08-.298.055-.54.125-.727.212s-.323.189-.408.309c-.085.118-.127.25-.127.396 0 .14.022.26.068.36.045.102.105.184.182.248s.166.112.27.142.214.045.336.045zM51.225 430.688v7.65h-.925v-7.65h.925zM53.884 430.688v7.65h-.924v-7.65h.924zM62.91 436.801l.15.067.395.431c-.305.354-.674.629-1.108.826-.435.197-.958.296-1.571.296-.537 0-1.023-.093-1.459-.277-.436-.186-.809-.445-1.117-.779s-.547-.735-.717-1.202c-.169-.468-.254-.981-.254-1.543 0-.561.091-1.075.273-1.542.182-.468.437-.869.766-1.205.329-.336.723-.597 1.181-.782.459-.185.965-.277 1.52-.277.547 0 1.019.085 1.415.254.396.17.749.4 1.057.691l-.327.462-.083.086-.135.033-.143-.049-.179-.122-.244-.156-.332-.155c-.128-.049-.277-.089-.447-.122-.17-.033-.365-.05-.587-.05-.398 0-.763.068-1.093.205-.331.138-.616.332-.854.585s-.425.561-.558.924c-.133.364-.2.771-.2 1.221 0 .464.067.878.2 1.241s.315.671.545.922c.23.251.503.442.818.574s.654.197 1.018.197c.221 0 .42-.013.597-.039.176-.026.34-.066.491-.122.15-.056.291-.125.421-.21.129-.085.26-.187.392-.304.056-.054.113-.079.169-.079zM66.717 432.994c.315 0 .606.053.873.158s.497.258.691.457.345.444.454.737c.109.293.164.626.164 1 0 .146-.015.242-.046.291-.031.048-.09.072-.177.072h-3.5c.007.332.052.621.135.867.083.246.197.451.343.615.145.165.318.288.519.369s.426.122.675.122c.232 0 .432-.027.6-.081.167-.053.312-.111.434-.174l.304-.174c.081-.054.151-.08.21-.08.076 0 .135.029.176.088l.26.338c-.114.139-.251.259-.41.36-.159.103-.33.187-.512.252-.182.066-.37.115-.563.148s-.386.049-.576.049c-.364 0-.699-.062-1.005-.184-.306-.123-.571-.304-.794-.54-.223-.237-.397-.531-.522-.881s-.187-.751-.187-1.205c0-.366.056-.709.169-1.028.112-.318.274-.595.485-.828.211-.233.469-.417.774-.551.302-.13.645-.197 1.026-.197zm.021.68c-.447 0-.798.129-1.055.387-.256.259-.415.616-.478 1.073h2.862c0-.215-.03-.411-.088-.59-.059-.179-.146-.332-.26-.462s-.254-.23-.418-.302c-.164-.07-.352-.106-.563-.106zM70.077 438.338v-5.261h.55c.132 0 .215.063.25.191l.073.571c.229-.252.484-.457.766-.612.282-.156.608-.233.979-.233.287 0 .541.047.761.143.22.095.403.23.55.405.147.175.259.385.335.631s.114.518.114.815v3.35h-.924v-3.35c0-.398-.091-.707-.272-.928-.182-.22-.46-.329-.833-.329-.274 0-.529.065-.766.197s-.457.31-.657.535v3.874h-.926zM77.447 438.421c-.416 0-.735-.116-.958-.348-.223-.232-.335-.566-.335-1.003v-3.22h-.634l-.14-.049c-.038-.033-.057-.084-.057-.153v-.369l.862-.109.213-1.625.067-.128.146-.049h.467v1.812h1.506v.67h-1.506v3.158c0 .221.054.386.161.493s.246.161.416.161l.252-.039.184-.086.132-.086.096-.039c.048 0 .092.03.13.089l.27.441c-.159.148-.352.266-.576.351-.225.086-.457.128-.696.128zM79.727 438.338v-5.261h.53c.1 0 .169.019.208.057l.078.197.062.821c.18-.367.403-.654.667-.86.265-.206.576-.309.933-.309.145 0 .277.017.395.049.118.033.227.079.327.138l-.12.691c-.024.086-.078.13-.161.13l-.224-.05s-.241-.049-.42-.049c-.322 0-.591.093-.808.28-.217.187-.397.459-.543.815v3.35h-.924zM85.995 432.994c.315 0 .606.053.873.158s.497.258.691.457.345.444.454.737c.109.293.164.626.164 1 0 .146-.015.242-.046.291-.031.048-.09.072-.177.072h-3.5c.007.332.052.621.135.867.083.246.197.451.343.615.145.165.318.288.519.369s.426.122.675.122c.232 0 .432-.027.6-.081.167-.053.312-.111.434-.174l.304-.174c.081-.054.151-.08.21-.08.076 0 .135.029.176.088l.26.338c-.114.139-.251.259-.41.36-.159.103-.33.187-.512.252-.182.066-.37.115-.563.148s-.386.049-.576.049c-.364 0-.699-.062-1.005-.184-.306-.123-.571-.304-.794-.54-.223-.237-.397-.531-.522-.881s-.187-.751-.187-1.205c0-.366.056-.709.169-1.028.112-.318.274-.595.485-.828.211-.233.469-.417.774-.551.302-.13.645-.197 1.026-.197zm.021.68c-.447 0-.798.129-1.055.387-.256.259-.415.616-.478 1.073h2.862c0-.215-.03-.411-.088-.59-.059-.179-.146-.332-.26-.462s-.254-.23-.418-.302c-.164-.07-.352-.106-.563-.106z"/></g><g fill="#fff"><path d="M138.497 430.897v.82h-3.573v2.603h3.054v.82h-3.054v3.199h-1.013v-7.442h4.586zM143.508 438.34h-.41c-.09 0-.163-.014-.218-.042-.055-.027-.092-.086-.109-.176l-.104-.488c-.138.124-.273.236-.405.335-.132.099-.27.182-.416.249s-.3.119-.465.153-.347.052-.548.052c-.205 0-.396-.028-.574-.086s-.333-.144-.465-.258c-.131-.114-.236-.26-.314-.436-.078-.175-.117-.383-.117-.622 0-.209.057-.409.171-.603.114-.192.298-.363.553-.513.255-.149.588-.272 1-.368.412-.095.916-.143 1.511-.143v-.413c0-.411-.087-.723-.262-.933-.175-.211-.434-.316-.776-.316-.225 0-.415.028-.569.085-.154.058-.288.122-.4.192l-.291.192c-.081.058-.162.086-.241.086l-.164-.05-.112-.122-.166-.296c.291-.28.604-.49.94-.628.336-.139.708-.208 1.117-.208.294 0 .556.049.784.146s.42.231.577.405c.156.173.273.382.353.628s.119.516.119.811v3.367zm-2.4-.567c.163 0 .312-.016.447-.049s.262-.08.382-.141.234-.134.343-.221c.109-.086.215-.185.319-.296v-1.085c-.426 0-.788.026-1.085.08-.298.055-.54.125-.727.212s-.323.189-.408.309c-.085.118-.127.25-.127.396 0 .14.022.26.068.36.045.102.105.184.182.248s.166.112.27.142.215.045.336.045zM148.499 434.014l-.083.088-.12.031-.169-.064-.231-.143c-.094-.053-.207-.1-.34-.144-.133-.043-.297-.064-.491-.064-.256 0-.483.046-.68.138-.198.092-.363.224-.496.397-.133.173-.234.382-.301.628s-.101.521-.101.826c0 .318.036.602.109.849.073.248.175.455.306.623.132.168.292.297.48.385.189.088.401.133.636.133.225 0 .411-.027.556-.081.146-.054.267-.113.364-.179l.239-.18c.062-.054.125-.08.187-.08.08 0 .139.029.177.088l.26.338c-.229.28-.514.485-.857.615s-.705.194-1.085.194c-.329 0-.635-.061-.917-.182s-.527-.297-.735-.526c-.208-.23-.371-.514-.491-.85s-.179-.719-.179-1.147c0-.392.055-.753.164-1.086.109-.332.269-.619.478-.859s.468-.429.776-.563.661-.202 1.06-.202c.367 0 .692.06.976.179.284.119.535.288.753.507l-.245.331zM151.843 432.996c.315 0 .606.053.873.158s.497.258.691.457.345.444.454.737c.109.293.164.626.164 1 0 .146-.015.242-.046.291-.031.048-.09.072-.177.072h-3.5c.007.332.052.621.135.867.083.246.197.451.343.615.145.165.318.288.519.369s.426.122.675.122c.232 0 .432-.027.6-.081.167-.053.312-.111.434-.174l.304-.174c.081-.054.151-.08.21-.08.076 0 .135.029.176.088l.26.338c-.114.139-.251.259-.41.36-.159.103-.33.187-.512.252-.182.066-.37.115-.563.148s-.386.049-.576.049c-.364 0-.699-.062-1.005-.184-.306-.123-.571-.304-.794-.54-.223-.237-.397-.531-.522-.881s-.187-.751-.187-1.205c0-.366.056-.709.169-1.028.112-.318.274-.595.485-.828.211-.233.469-.417.774-.551.303-.131.645-.197 1.026-.197zm.021.68c-.447 0-.798.129-1.055.387-.256.259-.415.616-.478 1.073h2.862c0-.215-.03-.411-.088-.59-.059-.179-.146-.332-.26-.462s-.254-.23-.418-.302c-.164-.07-.352-.106-.563-.106zM155.235 438.34v-7.65h.93v3.147c.218-.253.468-.456.75-.61.282-.154.605-.23.968-.23.305 0 .58.057.826.171.246.114.455.285.628.512.173.227.306.507.4.841.093.335.14.72.14 1.156 0 .388-.052.748-.156 1.083-.104.334-.254.623-.449.867-.196.244-.435.436-.717.576s-.6.21-.953.21c-.339 0-.627-.065-.865-.197-.237-.131-.444-.314-.621-.55l-.047.478c-.028.132-.107.197-.239.197h-.595zm2.347-4.607c-.301 0-.565.069-.792.207-.227.139-.435.335-.625.587v2.545c.166.229.351.39.553.483.203.094.429.141.678.141.491 0 .869-.175 1.132-.525.263-.35.395-.848.395-1.495 0-.343-.031-.638-.091-.883-.061-.246-.148-.448-.262-.605s-.254-.272-.42-.346c-.168-.072-.357-.109-.568-.109zM163.139 432.996c.384 0 .731.063 1.041.191.31.129.573.311.79.546s.383.52.499.854c.116.334.174.707.174 1.119 0 .415-.058.789-.174 1.121-.116.333-.282.617-.499.853s-.479.416-.79.542c-.31.127-.657.189-1.041.189s-.731-.062-1.042-.189c-.31-.126-.574-.307-.792-.542s-.386-.52-.504-.853c-.118-.332-.176-.706-.176-1.121 0-.412.059-.785.176-1.119.118-.335.286-.619.504-.854s.482-.417.792-.546c.311-.127.658-.191 1.042-.191zm0 4.694c.52 0 .907-.174 1.163-.521.256-.349.385-.834.385-1.457 0-.627-.128-1.115-.385-1.465-.256-.35-.644-.524-1.163-.524-.263 0-.492.045-.686.135-.194.091-.356.221-.486.39-.13.17-.227.379-.291.626-.064.248-.096.527-.096.839s.032.591.096.836c.064.246.161.453.291.621s.292.297.486.387.423.133.686.133zM168.915 432.996c.384 0 .731.063 1.041.191.31.129.573.311.79.546s.383.52.499.854c.116.334.174.707.174 1.119 0 .415-.058.789-.174 1.121-.116.333-.282.617-.499.853s-.479.416-.79.542c-.31.127-.657.189-1.041.189s-.731-.062-1.042-.189c-.31-.126-.574-.307-.792-.542s-.386-.52-.504-.853c-.118-.332-.176-.706-.176-1.121 0-.412.059-.785.176-1.119.118-.335.286-.619.504-.854s.482-.417.792-.546c.31-.127.657-.191 1.042-.191zm0 4.694c.52 0 .907-.174 1.163-.521.256-.349.385-.834.385-1.457 0-.627-.128-1.115-.385-1.465-.256-.35-.644-.524-1.163-.524-.263 0-.492.045-.686.135-.194.091-.356.221-.486.39-.13.17-.227.379-.291.626-.064.248-.096.527-.096.839s.032.591.096.836c.064.246.161.453.291.621s.292.297.486.387.422.133.686.133zM173.521 430.689v4.503h.239l.171-.028.15-.117 1.662-1.781.156-.135c.052-.035.121-.052.208-.052h.841l-1.938 2.062-.143.156-.159.119.169.143.143.185 2.057 2.597h-.831l-.195-.044-.153-.138-1.729-2.155c-.052-.073-.104-.12-.156-.143l-.234-.034h-.259v2.514h-.93v-7.65h.931z"/></g><g fill="#fff"><path d="M411.803 430.896h.837c.09 0 .164.022.223.067.06.045.099.103.12.172l1.537 5.173.075.301.064.338.073-.341.083-.298 1.75-5.173.122-.164c.061-.05.135-.075.221-.075h.291c.09 0 .164.022.221.067.058.045.098.103.122.172l1.74 5.173c.062.18.117.386.166.617l.057-.327.068-.29 1.542-5.173c.018-.062.057-.118.117-.167.061-.048.134-.072.221-.072h.784l-2.321 7.442h-.904l-1.885-5.677-.104-.374-.049.2-.05.174-1.896 5.677h-.903l-2.322-7.442zM426.48 438.338h-.41c-.09 0-.163-.014-.218-.042-.056-.027-.092-.086-.109-.176l-.104-.488c-.139.124-.273.236-.405.335s-.271.182-.416.249-.3.119-.465.153c-.164.034-.347.052-.548.052-.204 0-.396-.028-.573-.086-.179-.058-.334-.144-.465-.258-.132-.114-.236-.26-.314-.436-.078-.175-.117-.383-.117-.622 0-.209.058-.409.172-.603.114-.192.299-.363.553-.513.255-.149.588-.272 1-.368.412-.095.916-.143 1.512-.143v-.413c0-.411-.088-.723-.263-.933-.175-.211-.434-.316-.776-.316-.226 0-.415.028-.568.085-.154.058-.288.122-.4.192l-.291.192c-.081.058-.162.086-.241.086l-.164-.05-.111-.122-.166-.296c.291-.28.604-.49.939-.628.336-.139.708-.208 1.117-.208.294 0 .556.049.784.146s.421.231.576.405c.156.173.273.382.354.628.079.246.119.516.119.811v3.367zm-2.399-.567c.163 0 .312-.016.447-.049s.262-.08.381-.141c.12-.061.234-.134.343-.221.109-.086.216-.185.32-.296v-1.085c-.427 0-.788.026-1.086.08-.298.055-.54.125-.728.212-.187.087-.322.189-.407.309-.085.118-.127.25-.127.396 0 .14.022.26.067.36.045.102.105.184.182.248s.166.112.271.142c.104.031.216.045.337.045zM428.911 430.688v7.65h-.924v-7.65h.924zM431.503 430.688v4.503h.239l.171-.028.151-.117 1.662-1.781.155-.135c.052-.035.121-.052.208-.052h.841l-1.937 2.062-.144.156-.158.119.169.143.143.185 2.057 2.597h-.831l-.194-.044-.153-.138-1.729-2.155c-.052-.073-.104-.12-.155-.143l-.234-.034h-.26v2.514h-.93v-7.65h.929zM435.746 434.832h2.565v.784h-2.565v-.784zM440.825 431.425c0 .091-.018.175-.055.252-.036.078-.085.147-.146.208l-.21.143c-.08.035-.164.053-.255.053-.09 0-.174-.018-.251-.053-.078-.034-.147-.082-.208-.143l-.143-.208c-.035-.077-.053-.161-.053-.252 0-.09.018-.175.053-.257.034-.081.082-.152.143-.213l.208-.143c.077-.035.161-.052.251-.052.091 0 .175.017.255.052.08.034.149.082.21.143l.146.213c.038.082.055.167.055.257zm-.208 1.652v5.261h-.924v-5.261h.924zM442.248 438.338v-5.261h.551c.132 0 .215.063.249.191l.073.571c.229-.252.483-.457.766-.612.282-.156.608-.233.979-.233.287 0 .541.047.761.143.22.095.403.23.551.405.146.175.259.385.335.631s.114.518.114.815v3.35h-.925v-3.35c0-.398-.091-.707-.272-.928-.182-.22-.46-.329-.834-.329-.273 0-.528.065-.766.197s-.456.31-.657.535v3.874h-.925z"/></g><g fill="#fff"><path d="M468.067 430.896h.837c.09 0 .164.022.223.067.06.045.099.103.12.172l1.537 5.173.075.301.064.338.073-.341.083-.298 1.75-5.173.122-.164c.061-.05.135-.075.221-.075h.291c.09 0 .164.022.221.067.058.045.098.103.122.172l1.74 5.173c.062.18.117.386.166.617l.057-.327.068-.29 1.542-5.173c.018-.062.057-.118.117-.167.061-.048.134-.072.221-.072h.784l-2.321 7.442h-.904l-1.885-5.677-.104-.374-.049.2-.05.174-1.896 5.677h-.903l-2.322-7.442zM481.255 432.994c.315 0 .605.053.873.158.267.105.496.258.69.457.193.199.346.444.454.737.109.293.164.626.164 1 0 .146-.016.242-.047.291-.031.048-.09.072-.177.072h-3.5c.007.332.052.621.135.867s.197.451.343.615c.146.165.318.288.52.369.2.081.426.122.675.122.232 0 .432-.027.6-.081.168-.053.312-.111.434-.174l.304-.174c.082-.054.152-.08.211-.08.076 0 .135.029.177.088l.26.338c-.114.139-.252.259-.411.36-.159.103-.329.187-.511.252-.183.066-.37.115-.563.148-.194.033-.387.049-.577.049-.363 0-.698-.062-1.005-.184-.307-.123-.571-.304-.795-.54-.223-.237-.396-.531-.521-.881s-.187-.751-.187-1.205c0-.366.056-.709.168-1.028.113-.318.274-.595.486-.828.211-.233.469-.417.773-.551.303-.13.646-.197 1.027-.197zm.02.68c-.446 0-.798.129-1.054.387-.257.259-.416.616-.479 1.073h2.862c0-.215-.029-.411-.089-.59-.059-.179-.146-.332-.26-.462s-.253-.23-.418-.302c-.162-.07-.35-.106-.562-.106zM484.646 438.338v-7.65h.93v3.147c.219-.253.469-.456.751-.61s.604-.23.969-.23c.305 0 .579.057.825.171s.455.285.629.512c.173.227.307.507.399.841.094.335.141.72.141 1.156 0 .388-.052.748-.156 1.083-.104.334-.253.623-.449.867-.195.244-.435.436-.717.576s-.6.21-.953.21c-.339 0-.627-.065-.864-.197-.237-.131-.444-.314-.621-.55l-.046.478c-.028.132-.107.197-.239.197h-.599zm2.347-4.607c-.301 0-.565.069-.792.207-.227.139-.436.335-.626.587v2.545c.167.229.351.39.554.483.202.094.428.141.678.141.491 0 .869-.175 1.132-.525.264-.35.395-.848.395-1.495 0-.343-.03-.638-.091-.883-.061-.246-.147-.448-.262-.605s-.255-.272-.421-.346c-.166-.072-.356-.109-.567-.109z"/></g><g fill="#fff"><path d="M234.863 435.91l.106.277.109-.277.13-.268 2.519-4.576c.045-.079.092-.128.14-.145l.208-.026h.743v7.442h-.883v-5.469l.005-.233.016-.255-2.55 4.653c-.087.156-.208.233-.364.233h-.146c-.156 0-.277-.077-.363-.233l-2.607-4.669.023.265.008.239v5.469h-.883v-7.442h.743l.208.026c.048.017.095.065.14.145l2.571 4.581.127.263zM242.615 432.994c.384 0 .731.063 1.041.191.31.129.573.311.79.546s.383.52.499.854c.116.334.174.707.174 1.119 0 .415-.058.789-.174 1.121-.116.333-.282.617-.499.853s-.479.416-.79.542c-.31.127-.657.189-1.041.189s-.731-.062-1.042-.189c-.31-.126-.574-.307-.792-.542s-.386-.52-.504-.853c-.118-.332-.176-.706-.176-1.121 0-.412.059-.785.176-1.119.118-.335.286-.619.504-.854s.482-.417.792-.546c.31-.127.657-.191 1.042-.191zm0 4.694c.52 0 .907-.174 1.163-.521.256-.349.385-.834.385-1.457 0-.627-.128-1.115-.385-1.465-.256-.35-.644-.524-1.163-.524-.263 0-.492.045-.686.135-.194.091-.356.221-.486.39-.13.17-.227.379-.291.626-.064.248-.096.527-.096.839s.032.591.096.836c.064.246.161.453.291.621s.292.297.486.387.423.133.686.133zM246.292 438.338v-7.65h.93v3.147c.218-.253.468-.456.75-.61.282-.154.605-.23.968-.23.305 0 .58.057.826.171.246.114.455.285.628.512.173.227.306.507.4.841.093.335.14.72.14 1.156 0 .388-.052.748-.156 1.083-.104.334-.254.623-.449.867-.196.244-.435.436-.717.576s-.6.21-.953.21c-.339 0-.627-.065-.865-.197-.237-.131-.444-.314-.621-.55l-.047.478c-.028.132-.107.197-.239.197h-.595zm2.347-4.607c-.301 0-.565.069-.792.207-.227.139-.435.335-.625.587v2.545c.166.229.351.39.553.483.203.094.429.141.678.141.491 0 .869-.175 1.132-.525.263-.35.395-.848.395-1.495 0-.343-.031-.638-.091-.883-.061-.246-.148-.448-.262-.605s-.254-.272-.42-.346c-.168-.072-.356-.109-.568-.109zM253.303 431.425c0 .091-.018.175-.054.252l-.146.208-.21.143c-.08.035-.165.053-.254.053-.09 0-.174-.018-.252-.053-.078-.034-.147-.082-.208-.143-.061-.061-.108-.13-.143-.208-.035-.077-.052-.161-.052-.252 0-.09.017-.175.052-.257.035-.081.082-.152.143-.213.061-.061.13-.108.208-.143.078-.035.162-.052.252-.052s.175.017.254.052c.08.034.15.082.21.143l.146.213c.036.082.054.167.054.257zm-.208 1.652v5.261h-.924v-5.261h.924z"/></g><g fill="#fff"><path d="M276.845 435.556v2.784h-1.002v-7.442h2.197c.471 0 .881.055 1.229.164.348.108.637.264.865.464.229.201.398.443.511.728.113.284.169.601.169.95 0 .347-.061.663-.182.951-.121.287-.299.534-.532.742s-.523.37-.87.485c-.346.116-.742.174-1.189.174h-1.196zm0-.8h1.194c.288 0 .541-.038.761-.114.221-.076.404-.183.554-.319.148-.137.262-.3.338-.49.075-.19.114-.4.114-.629 0-.474-.146-.845-.439-1.111-.292-.267-.734-.399-1.327-.399h-1.194v3.062zM281.939 438.34v-7.65h.925v3.096c.226-.239.475-.431.748-.574s.589-.215.945-.215c.287 0 .541.047.761.143.22.095.403.23.551.405.146.175.259.385.335.631s.114.518.114.815v3.35h-.925v-3.35c0-.398-.091-.707-.272-.928-.182-.22-.46-.329-.834-.329-.273 0-.528.065-.766.197s-.456.31-.657.535v3.874h-.925zM289.845 432.996c.384 0 .731.063 1.041.191.311.129.573.311.79.546.216.235.382.52.498.854.116.334.174.707.174 1.119 0 .415-.058.789-.174 1.121-.116.333-.282.617-.498.853-.217.235-.479.416-.79.542-.31.127-.657.189-1.041.189-.385 0-.731-.062-1.041-.189-.311-.126-.574-.307-.792-.542-.219-.235-.387-.52-.504-.853-.118-.332-.177-.706-.177-1.121 0-.412.059-.785.177-1.119.117-.335.285-.619.504-.854.218-.235.481-.417.792-.546.309-.127.656-.191 1.041-.191zm0 4.694c.52 0 .907-.174 1.163-.521.257-.349.385-.834.385-1.457 0-.627-.128-1.115-.385-1.465-.256-.35-.644-.524-1.163-.524-.264 0-.492.045-.686.135-.194.091-.355.221-.485.39-.13.17-.228.379-.291.626-.064.248-.097.527-.097.839s.032.591.097.836c.063.246.161.453.291.621s.291.297.485.387c.194.089.422.133.686.133zM293.49 438.34v-5.261h.551c.132 0 .215.063.249.191l.073.571c.229-.252.483-.457.766-.612.282-.156.608-.233.979-.233.287 0 .541.047.761.143.22.095.403.23.551.405.146.175.259.385.335.631s.114.518.114.815v3.35h-.925v-3.35c0-.398-.091-.707-.272-.928-.182-.22-.46-.329-.834-.329-.273 0-.528.065-.766.197s-.456.31-.657.535v3.874h-.925zM301.349 432.996c.315 0 .605.053.873.158.267.105.496.258.69.457.193.199.346.444.454.737.109.293.164.626.164 1 0 .146-.016.242-.047.291-.031.048-.09.072-.177.072h-3.5c.007.332.052.621.135.867s.197.451.343.615c.146.165.318.288.52.369.2.081.426.122.675.122.232 0 .432-.027.6-.081.168-.053.312-.111.434-.174l.304-.174c.082-.054.152-.08.211-.08.076 0 .135.029.177.088l.26.338c-.114.139-.252.259-.411.36-.159.103-.329.187-.511.252-.183.066-.37.115-.563.148-.194.033-.387.049-.577.049-.363 0-.698-.062-1.005-.184-.307-.123-.571-.304-.795-.54-.223-.237-.396-.531-.521-.881s-.187-.751-.187-1.205c0-.366.056-.709.168-1.028.113-.318.274-.595.486-.828.211-.233.469-.417.773-.551.303-.131.646-.197 1.027-.197zm.02.68c-.446 0-.798.129-1.054.387-.257.259-.416.616-.479 1.073h2.862c0-.215-.029-.411-.089-.59-.059-.179-.146-.332-.26-.462s-.253-.23-.418-.302c-.162-.07-.35-.106-.562-.106z"/></g><g fill="#fff"><path d="M326.833 435.556v2.784h-1.002v-7.442h2.196c.471 0 .881.055 1.229.164.348.108.637.264.865.464.229.201.398.443.511.728.113.284.169.601.169.95 0 .347-.061.663-.182.951-.121.287-.299.534-.532.742s-.523.37-.87.485c-.346.116-.742.174-1.189.174h-1.195zm0-.8h1.194c.288 0 .541-.038.761-.114.221-.076.404-.183.554-.319.148-.137.262-.3.338-.49.075-.19.114-.4.114-.629 0-.474-.146-.845-.439-1.111-.292-.267-.734-.399-1.327-.399h-1.194v3.062zM333.901 432.996c.384 0 .731.063 1.041.191.311.129.573.311.79.546.216.235.382.52.498.854.116.334.174.707.174 1.119 0 .415-.058.789-.174 1.121-.116.333-.282.617-.498.853-.217.235-.479.416-.79.542-.31.127-.657.189-1.041.189-.385 0-.731-.062-1.041-.189-.311-.126-.574-.307-.792-.542-.219-.235-.387-.52-.504-.853-.118-.332-.177-.706-.177-1.121 0-.412.059-.785.177-1.119.117-.335.285-.619.504-.854.218-.235.481-.417.792-.546.31-.127.657-.191 1.041-.191zm0 4.694c.52 0 .907-.174 1.163-.521.257-.349.385-.834.385-1.457 0-.627-.128-1.115-.385-1.465-.256-.35-.644-.524-1.163-.524-.264 0-.492.045-.686.135-.194.091-.355.221-.485.39-.13.17-.228.379-.291.626-.064.248-.097.527-.097.839s.032.591.097.836c.063.246.161.453.291.621s.291.297.485.387c.194.089.423.133.686.133zM340.56 433.946c-.042.076-.105.114-.192.114l-.177-.058-.241-.127-.34-.13c-.132-.04-.288-.06-.468-.06-.155 0-.296.02-.421.06-.124.04-.23.095-.319.164-.088.069-.155.149-.202.241s-.07.191-.07.299c0 .135.039.247.117.337.078.091.181.168.309.234.128.065.273.123.437.174l.501.161c.172.057.339.12.501.189.163.069.309.155.437.26.128.104.231.23.31.382.077.15.116.331.116.542 0 .243-.043.467-.13.673-.086.206-.215.385-.384.535-.17.15-.378.27-.624.355-.245.087-.529.13-.852.13-.367 0-.699-.06-.997-.179-.298-.12-.551-.273-.758-.46l.218-.354.099-.104.15-.036c.062 0 .128.024.197.072l.252.161.358.161c.141.049.316.072.527.072.18 0 .338-.023.473-.069.135-.047.248-.11.338-.19.09-.079.156-.171.2-.274.043-.104.064-.215.064-.333 0-.146-.039-.266-.117-.36-.077-.096-.181-.177-.309-.244s-.274-.127-.438-.177l-.504-.158c-.172-.056-.34-.119-.504-.189-.165-.071-.311-.16-.439-.268-.128-.107-.23-.24-.309-.397-.078-.158-.117-.349-.117-.574 0-.2.042-.394.125-.579s.204-.348.363-.488.355-.252.587-.335c.232-.083.497-.124.795-.124.346 0 .657.054.933.163.274.109.513.259.714.449l-.209.339zM343.649 438.423c-.415 0-.734-.116-.958-.348-.224-.232-.335-.566-.335-1.003v-3.22h-.634l-.14-.049c-.039-.033-.058-.084-.058-.153v-.369l.862-.109.213-1.625.067-.128.146-.049h.468v1.812h1.506v.67h-1.506v3.158c0 .221.053.386.16.493s.246.161.416.161l.252-.039.185-.086.132-.086.097-.039c.048 0 .092.03.13.089l.27.441c-.159.148-.352.266-.576.351-.226.086-.457.128-.697.128z"/></g><g fill="#fff"><path d="M375.416 432.061l-.099.117-.135.039c-.06 0-.128-.029-.205-.089l-.297-.194c-.119-.071-.263-.136-.431-.194-.168-.06-.371-.089-.61-.089-.225 0-.424.03-.597.091-.174.061-.318.143-.435.247-.115.104-.203.226-.262.366-.059.14-.089.291-.089.454 0 .208.052.38.153.517.103.137.237.254.405.351.168.098.358.182.571.252l.654.221c.224.076.441.162.654.257.213.096.403.216.571.361s.304.324.405.535c.103.211.153.471.153.779 0 .325-.056.631-.166.916-.111.286-.272.534-.485.745-.213.212-.475.378-.784.499-.311.121-.662.182-1.058.182-.481 0-.92-.087-1.316-.262s-.734-.411-1.016-.709l.291-.479.102-.096.133-.039c.072 0 .155.039.249.117l.351.257c.14.094.31.179.509.257s.442.117.729.117c.239 0 .452-.033.639-.099.188-.065.346-.158.476-.278.13-.119.229-.262.299-.428.069-.167.104-.352.104-.557 0-.225-.051-.409-.153-.553-.102-.144-.236-.264-.402-.361-.166-.097-.355-.179-.568-.246l-.654-.208c-.224-.07-.441-.153-.654-.246-.213-.094-.403-.215-.569-.364-.166-.148-.3-.335-.402-.558-.103-.224-.153-.5-.153-.829 0-.263.051-.518.153-.764.103-.245.25-.464.444-.654.193-.19.434-.343.719-.457.286-.114.614-.171.984-.171.416 0 .795.065 1.138.197s.642.322.898.571l-.244.479zM380.897 435.912l.106.277.109-.277.13-.268 2.519-4.576c.045-.079.092-.128.141-.145l.207-.026h.743v7.442h-.883v-5.469l.005-.233.016-.255-2.55 4.653c-.087.156-.208.233-.364.233h-.145c-.156 0-.277-.077-.364-.233l-2.606-4.669.022.265.008.239v5.469h-.883v-7.442h.743l.208.026c.048.017.095.065.14.145l2.571 4.581.127.263zM390.478 432.061l-.099.117-.135.039c-.06 0-.128-.029-.205-.089l-.297-.194c-.119-.071-.263-.136-.431-.194-.168-.06-.371-.089-.61-.089-.225 0-.424.03-.597.091-.174.061-.318.143-.435.247-.115.104-.203.226-.262.366-.059.14-.089.291-.089.454 0 .208.052.38.153.517.103.137.237.254.405.351.168.098.358.182.571.252l.654.221c.224.076.441.162.654.257.213.096.403.216.571.361s.304.324.405.535c.103.211.153.471.153.779 0 .325-.056.631-.166.916-.111.286-.272.534-.485.745-.213.212-.475.378-.784.499-.311.121-.662.182-1.058.182-.481 0-.92-.087-1.316-.262s-.734-.411-1.016-.709l.291-.479.102-.096.133-.039c.072 0 .155.039.249.117l.351.257c.14.094.31.179.509.257s.442.117.729.117c.239 0 .452-.033.639-.099.188-.065.346-.158.476-.278.13-.119.229-.262.299-.428.069-.167.104-.352.104-.557 0-.225-.051-.409-.153-.553-.102-.144-.236-.264-.402-.361-.166-.097-.355-.179-.568-.246l-.654-.208c-.224-.07-.441-.153-.654-.246-.213-.094-.403-.215-.569-.364-.166-.148-.3-.335-.402-.558-.103-.224-.153-.5-.153-.829 0-.263.051-.518.153-.764.103-.245.25-.464.444-.654.193-.19.434-.343.719-.457.286-.114.614-.171.984-.171.416 0 .795.065 1.138.197s.642.322.898.571l-.244.479z"/></g><g fill="#fff"><path d="M193.86 430.896v.82h-3.573v2.603h3.054v.82h-3.054v3.199h-1.013v-7.442h4.586zM198.871 438.338h-.41c-.09 0-.163-.014-.218-.042-.055-.027-.092-.086-.109-.176l-.104-.488c-.138.124-.273.236-.405.335-.132.099-.27.182-.416.249s-.3.119-.465.153-.347.052-.548.052c-.205 0-.396-.028-.574-.086s-.333-.144-.465-.258c-.131-.114-.236-.26-.314-.436-.078-.175-.117-.383-.117-.622 0-.209.057-.409.171-.603.114-.192.298-.363.553-.513.255-.149.588-.272 1-.368.412-.095.916-.143 1.511-.143v-.413c0-.411-.087-.723-.262-.933-.175-.211-.434-.316-.776-.316-.225 0-.415.028-.569.085-.154.058-.288.122-.4.192l-.291.192c-.081.058-.162.086-.241.086l-.164-.05-.112-.122-.166-.296c.291-.28.604-.49.94-.628.336-.139.708-.208 1.117-.208.294 0 .556.049.784.146s.42.231.577.405c.156.173.273.382.353.628s.119.516.119.811v3.367zm-2.399-.567c.163 0 .312-.016.447-.049s.262-.08.382-.141.234-.134.343-.221c.109-.086.215-.185.319-.296v-1.085c-.426 0-.788.026-1.085.08-.298.055-.54.125-.727.212s-.323.189-.408.309c-.085.118-.127.25-.127.396 0 .14.022.26.068.36.045.102.105.184.182.248s.166.112.27.142.215.045.336.045zM201.504 435.643l-1.771-2.565h.888l.166.036.093.104 1.288 1.974c.031-.097.076-.193.135-.291l1.132-1.661.104-.117.13-.044h.852l-1.771 2.514 1.843 2.747h-.888c-.076 0-.136-.02-.179-.06l-.106-.133-1.325-2.062c-.024.101-.061.19-.109.27l-1.226 1.792-.112.133-.164.06h-.826l1.846-2.697z"/></g><g fill="#fff"><path d="M101.662 430.896v.82h-3.573v2.473h2.893v.789h-2.893v2.54h3.573v.82h-4.586v-7.442h4.586zM102.726 434.833h2.565v.784h-2.565v-.784zM106.569 438.339v-5.261h.55c.132 0 .215.063.25.191l.067.541c.194-.239.411-.435.652-.587s.52-.229.839-.229c.356 0 .645.099.865.296.22.197.378.464.475.8.073-.19.169-.355.288-.494.12-.138.254-.252.403-.343.149-.09.307-.155.475-.197.168-.041.338-.062.512-.062.277 0 .523.044.74.132.216.089.4.218.551.387.15.17.266.379.345.626.08.248.12.531.12.85v3.35h-.925v-3.35c0-.412-.09-.725-.27-.938-.18-.213-.441-.319-.784-.319-.152 0-.297.026-.434.08s-.257.133-.361.236c-.104.104-.186.234-.247.393-.061.157-.091.34-.091.548v3.35h-.925v-3.35c0-.423-.085-.737-.254-.945s-.417-.312-.743-.312c-.229 0-.44.062-.636.185-.196.122-.375.29-.538.501v3.921h-.924zM118.96 438.339h-.41c-.09 0-.163-.014-.218-.042-.055-.027-.092-.086-.109-.176l-.104-.488c-.138.124-.273.236-.405.335-.132.099-.27.182-.416.249s-.3.119-.465.153-.347.052-.548.052c-.205 0-.396-.028-.574-.086s-.333-.144-.465-.258c-.131-.114-.236-.26-.314-.436-.078-.175-.117-.383-.117-.622 0-.209.057-.409.171-.603.114-.192.298-.363.553-.513.255-.149.588-.272 1-.368.412-.095.916-.143 1.511-.143v-.413c0-.411-.087-.723-.262-.933-.175-.211-.434-.316-.776-.316-.225 0-.415.028-.569.085-.154.058-.288.122-.4.192l-.291.192c-.081.058-.162.086-.241.086l-.164-.05-.112-.122-.166-.296c.291-.28.604-.49.94-.628.336-.139.708-.208 1.117-.208.294 0 .556.049.784.146s.42.231.577.405c.156.173.273.382.353.628s.119.516.119.811v3.367zm-2.399-.567c.163 0 .312-.016.447-.049s.262-.08.382-.141.234-.134.343-.221c.109-.086.215-.185.319-.296v-1.085c-.426 0-.788.026-1.085.08-.298.055-.54.125-.727.212s-.323.189-.408.309c-.085.118-.127.25-.127.396 0 .14.022.26.068.36.045.102.105.184.182.248s.166.112.27.142.215.045.336.045zM121.599 431.426c0 .091-.018.175-.054.252l-.146.208-.21.143c-.08.035-.165.053-.254.053-.09 0-.174-.018-.252-.053-.078-.034-.147-.082-.208-.143-.061-.061-.108-.13-.143-.208-.035-.077-.052-.161-.052-.252 0-.09.017-.175.052-.257.035-.081.082-.152.143-.213.061-.061.13-.108.208-.143.078-.035.162-.052.252-.052s.175.017.254.052c.08.034.15.082.21.143l.146.213c.036.082.054.167.054.257zm-.208 1.652v5.261h-.924v-5.261h.924zM124.05 430.688v7.65h-.924v-7.65h.924z"/></g><g fill="#ED1C24"><circle cx="435.98" cy="365.736" r="3.144"/><path fill-rule="evenodd" clip-rule="evenodd" d="M434.903 376.199c-1.685 2.277-2.031 4.463.07 6.781 2.506 2.758 2.919 6.291 3.241 9.818.076.852-.14 1.572-1.041 1.801-.962.248-1.646-.229-1.916-1.137-.31-1.037-.649-2.102-.699-3.168-.122-2.432-1.508-4.09-3.028-5.771-1.148-1.27-1.79-.893-2.242.467-.867 2.605-1.776 5.182-3.34 7.479-.72 1.059-1.424 2.135-2.424 2.949-.642.523-1.428.703-2.123.166-.661-.506-.562-1.27-.23-1.928.52-1.025 1.032-2.072 1.702-2.998 2.033-2.828 2.521-6.08 2.764-9.414.147-2.012.927-3.838 1.664-5.674.35-.865.844-1.686.88-2.678-2.237.27-2.965 1.035-3.602 3.723-.281 1.189-.216 3.047-1.993 2.58-1.631-.426-.715-2.119-.616-3.283.381-4.375 3.759-5.902 7.127-7.422 2.795-.787 5.078.455 7.321 1.848 1.303.859 1.986 2.219 2.445 3.58.607 1.805 1.802 2.783 3.435 3.551.949.449 2.606.928 1.98 2.301-.621 1.359-2 .424-3.04.043-1.799-.654-3.092-1.553-4.494-3.229-.429-.516-.943-1.613-1.841-.385z"/></g><g fill="#ED1C24"><path d="M190.899 362.488c.001-.662.006-1.322.011-1.983.011-1.54.023-3.133-.011-4.698-.019-.928-.665-1.665-1.644-1.879-.299-.064-.605-.098-.908-.098-.303 0-.605.033-.9.098-.975.211-1.624.946-1.652 1.875-.032 1.115-.019 2.255-.005 3.355l.013 1.392-.016 1.459c-.015 1.144-.031 2.327.003 3.486.026.941.81 1.796 1.747 1.905.347.042.697.032 1.047.024l.206-.005c1.188-.02 2.061-.838 2.123-1.99.036-.667.02-1.353.004-2.016l-.018-.925zM209.17 353.852c-.005-1.488-.997-2.562-2.406-2.564-6.751-.01-13.504-.006-20.257 0-1.073 0-1.961.668-2.283 1.672-.139.436-.133.891-.137 1.342l-.043 5.221c.016.256.043.512.043.768.004 2.084-.013 4.168.008 6.252.018 1.799.973 2.729 2.774 2.73 6.51.004 13.017.004 19.526-.002 1.821 0 2.774-.967 2.779-2.785v-6.699c0-1.98.009-3.957-.004-5.935zm-2.135 9.63c.002.465-.231.461-.559.451-.472-.012-.943-.004-1.413-.004-.428 0-.856-.01-1.287.004-.347.01-.604.016-.599-.48.006-.469.248-.449.565-.447.922.01 1.844.018 2.767-.004.363-.008.523.053.526.48zm-.462-2.343c-.489-.025-.984-.008-1.476-.008s-.984-.014-1.474.008c-.351.016-.438-.133-.437-.455 0-.332.066-.508.459-.498.981.023 1.966.021 2.949 0 .351-.006.429.137.432.455.003.336-.063.519-.453.498zm.097-1.869c-.516-.025-1.03-.006-1.545-.006s-1.029-.016-1.542.006c-.329.014-.399-.139-.393-.424.01-.277.008-.496.397-.488 1.03.021 2.06.02 3.087 0 .37-.004.345.215.345.461.003.247.016.466-.349.451zm-12.145-6.098c.321-.152.661-.16 1.006-.16h4.768c1.655.002 3.309-.01 4.963.006.9.008 1.542.506 1.723 1.27.177.762-.19 1.535-.893 1.887-.278.137-.573.18-.875.18-3.267.004-6.53.012-9.794 0-.974-.004-1.653-.514-1.828-1.312-.167-.754.225-1.539.93-1.871zm4.575 5.118v1.354h-1.615v-1.354h1.615zm-2.065 0v1.354h-1.581v-1.354h1.581zm-3.486 0h1.486v1.354h-1.486v-1.354zm-2.137 7.167c-.077 1.426-1.151 2.438-2.614 2.463l-.202.004-.447.007c-.225 0-.449-.008-.671-.034-1.173-.137-2.155-1.207-2.188-2.388-.034-1.169-.018-2.357-.003-3.507l.016-1.453-.013-1.385c-.013-1.105-.026-2.25.005-3.376.036-1.149.858-2.093 2.046-2.349.658-.145 1.352-.145 2.021 0 1.195.261 2.014 1.208 2.038 2.356.034 1.573.022 3.169.011 4.713-.005.66-.01 1.319-.011 1.979l.017.915c.016.673.032 1.369-.005 2.055zm2.107-5.327h1.483v1.354h-1.483v-1.354zm1.547 5.129h-1.483v-1.355h1.483v1.355zm0-1.905h-1.483v-1.355h1.483v1.355zm.354-3.224h1.582v1.354h-1.582v-1.354zm1.647 5.129h-1.581v-1.355h1.581v1.355zm0-1.905h-1.581v-1.355h1.581v1.355zm.388-3.224h1.61v1.354h-1.61v-1.354zm1.677 5.129h-1.614v-1.355h1.614v1.355zm0-1.905h-1.614v-1.355h1.614v1.355zm.387-5.064h1.483v1.354h-1.483v-1.354zm1.517 6.969h-1.483v-1.355h1.483v1.355zm0-1.905h-1.483v-1.355h1.483v1.355zm.065-1.871h-1.485v-1.354h1.485v1.354zm5.424 4.318c-.943-.023-1.89-.021-2.83 0-.389.01-.525-.104-.53-.506-.004-.438.209-.486.558-.471.471.02.942.006 1.415.006.449 0 .9.012 1.352-.006.343-.014.561.02.551.469-.006.4-.126.516-.516.508zM202.095 369.686c-3.591-.006-7.185-.006-10.775-.002-1.014.002-1.615.529-1.59 1.363.028.801.637 1.307 1.59 1.309h5.293c1.825 0 3.654.004 5.482-.002.928-.002 1.552-.57 1.531-1.369-.02-.788-.61-1.299-1.531-1.299zM190.27 350.807c2.067-.018 4.129-.01 6.193-.01 2.063 0 4.125-.008 6.189.01.414.006.561-.102.556-.531-.024-1.504-.022-3.01-.005-4.512.005-.4-.135-.504-.521-.504-4.148.012-8.297.012-12.446 0-.385 0-.524.1-.52.504.022 1.506.025 3.01-.003 4.516-.006.439.151.532.557.527zM195.846 355.412c1.502.012 3.003.004 4.507.004 1.499.002 3.003-.008 4.504.006.53.002.913-.182.908-.75-.006-.521-.351-.725-.862-.725-3.025.008-6.051.006-9.076 0-.353 0-.645.09-.794.426-.242.537.136 1.033.813 1.039z"/></g></svg>