<svg xmlns="http://www.w3.org/2000/svg" width="550" height="450" viewBox="0 0 550 450"><path fill-rule="evenodd" clip-rule="evenodd" fill="#ED1C24" d="M184.044 359.521l.043-5.221c.004-.451-.002-.906.137-1.342.322-1.004 1.21-1.672 2.283-1.672 6.753-.006 13.506-.01 20.257 0 1.409.002 2.401 1.076 2.406 2.564.013 1.979.004 3.955.005 5.934l.028.643c-.011 2.02-.023 4.039-.028 6.057-.005 1.818-.958 2.785-2.779 2.785-6.51.006-13.017.006-19.526.002-1.802-.002-2.757-.932-2.774-2.73-.021-2.084-.004-4.168-.008-6.252-.001-.256-.028-.512-.044-.768zm1.509 1.03c-.01 1.65-.061 3.303-.013 4.951.03 1.092.943 2.027 1.968 2.146.424.051.857.029 1.286.021 1.302-.021 2.298-.918 2.368-2.227.054-.982-.005-1.971-.013-2.957.005-2.227.049-4.455 0-6.686-.022-1.08-.794-1.889-1.841-2.117-.633-.137-1.283-.139-1.915 0-1.05.227-1.815 1.045-1.849 2.111-.044 1.586.001 3.174.009 4.758z"/><path fill="#5C8392" d="M78.624 239.41v184.844h-25.016v-184.844zM122.935 295.838v128.416h-25.008v-128.416zM163.748 421.193v4.36h-25.014v-4.36zM209.23 378.678v45.576h-25.013v-45.576zM253.519 411.615v13.938h-24.985v-13.938zM300.161 357v67.254h-25.006v-67.254zM347.979 394.41v29.844h-25.014v-29.844zM393.494 48.876v375.378h-25.045v-375.378zM441.281 399.348v24.906h-24.984v-24.906zM490.29 156.781v267.473h-25.039v-267.473z"/><g fill="#fff"><path d="M60.211 265.771c-.437 0-.864-.072-1.284-.216-.419-.145-.793-.361-1.122-.652-.329-.29-.592-.65-.79-1.079-.198-.429-.297-.932-.297-1.508 0-.536.104-1.04.314-1.511.209-.471.503-.883.882-1.237s.833-.634 1.362-.839c.53-.205 1.115-.307 1.755-.307.646 0 1.227.097 1.742.29.515.194.955.465 1.318.813.364.35.643.768.838 1.254.195.487.292 1.021.292 1.603 0 .371-.034.723-.101 1.055s-.163.652-.288.959c-.125.308-.275.606-.45.897-.175.29-.37.582-.585.876l-2.89 3.919c-.099.133-.246.245-.441.337-.195.091-.418.137-.668.137h-1.982l3.92-4.658.28-.341.253-.332c-.291.178-.611.312-.96.402-.347.093-.714.138-1.098.138zm2.943-3.595c0-.327-.053-.619-.157-.876-.105-.258-.253-.475-.445-.652-.192-.177-.421-.312-.686-.406-.265-.095-.555-.142-.869-.142-.326 0-.62.052-.882.153-.262.103-.484.245-.668.428-.183.183-.325.4-.423.652-.099.252-.148.527-.148.826 0 .67.182 1.181.546 1.532.364.352.88.527 1.55.527.349 0 .659-.053.93-.158.271-.105.499-.249.686-.432s.328-.398.423-.647c.094-.249.143-.517.143-.805zM75.404 264.559c0 1.047-.118 1.956-.354 2.729-.236.771-.562 1.41-.978 1.913-.417.504-.908.879-1.476 1.126-.568.246-1.181.369-1.838.369s-1.268-.123-1.829-.369c-.562-.247-1.049-.622-1.463-1.126-.413-.503-.736-1.142-.969-1.913-.233-.772-.349-1.682-.349-2.729 0-1.052.116-1.962.349-2.731s.556-1.406.969-1.91c.414-.504.901-.879 1.463-1.125s1.171-.369 1.829-.369 1.271.123 1.838.369c.567.246 1.059.621 1.476 1.125.416.504.742 1.141.978 1.91s.354 1.679.354 2.731zm-2.226 0c0-.869-.067-1.589-.201-2.159-.134-.569-.313-1.023-.537-1.361s-.482-.574-.773-.71-.594-.203-.908-.203c-.309 0-.607.067-.895.203s-.542.372-.764.71c-.222.338-.397.792-.528 1.361-.131.57-.197 1.29-.197 2.159s.065 1.589.197 2.159c.131.57.307 1.024.528 1.362.221.337.476.574.764.71s.586.203.895.203c.314 0 .617-.067.908-.203s.549-.373.773-.71c.224-.338.403-.792.537-1.362.134-.571.201-1.29.201-2.159z"/></g><g fill="#fff"><path d="M106.103 348.812c.464 0 .916.074 1.355.224.438.149.825.375 1.159.677s.603.677.807 1.125c.204.449.306.972.306 1.57 0 .559-.104 1.083-.314 1.573s-.504.917-.883 1.283c-.379.365-.836.653-1.372.863s-1.125.315-1.771.315c-.657 0-1.246-.103-1.766-.308-.521-.204-.965-.491-1.333-.859s-.65-.811-.845-1.328-.293-1.092-.293-1.724c0-.564.118-1.144.353-1.739.235-.595.599-1.214 1.091-1.855l2.93-3.845c.102-.133.25-.246.446-.341.195-.094.42-.141.675-.141h1.868l-3.644 4.359-.225.266-.208.257c.238-.116.494-.207.769-.273.274-.065.572-.099.895-.099zm-2.938 3.729c0 .332.047.635.14.909.094.273.232.508.417.701.184.194.412.345.684.453.271.107.586.161.942.161.334 0 .642-.055.922-.166.28-.11.521-.266.722-.465.201-.199.358-.433.471-.701s.17-.561.17-.876c0-.344-.054-.652-.161-.926-.108-.274-.261-.507-.458-.698-.199-.19-.437-.336-.714-.436s-.583-.149-.917-.149-.637.056-.909.166-.505.265-.701.461-.345.429-.45.697-.158.558-.158.869zM115.377 344.171c.566 0 1.084.081 1.554.244.47.164.872.395 1.206.693.334.299.595.659.782 1.08.187.421.28.889.28 1.403 0 .442-.067.853-.2 1.229-.133.377-.312.736-.535 1.08-.224.343-.485.675-.786.996-.3.321-.614.647-.942.979l-2.769 2.766c.272-.077.538-.137.798-.179.261-.041.51-.062.748-.062h3.151c.227 0 .406.062.539.188.133.124.2.289.2.494v1.229h-8.425v-.681c0-.139.03-.282.089-.432.059-.149.154-.288.284-.416l3.729-3.653c.312-.31.59-.606.836-.889.247-.282.453-.562.62-.839.167-.276.294-.558.382-.843.087-.285.131-.585.131-.9 0-.288-.042-.541-.127-.76s-.207-.403-.365-.553c-.158-.149-.347-.262-.564-.336-.218-.075-.463-.112-.735-.112-.504 0-.918.125-1.244.374s-.553.584-.684 1.005c-.062.21-.156.361-.28.452-.125.092-.283.137-.476.137l-.28-.024-1.104-.191c.085-.575.249-1.08.493-1.516.243-.434.548-.797.913-1.087.365-.291.784-.51 1.257-.656.473-.147.981-.22 1.524-.22z"/></g><path fill="#414042" d="M152.033 400.577c.582 0 1.114.081 1.598.244.483.164.896.395 1.24.693.343.299.611.659.803 1.08.192.421.288.889.288 1.403 0 .442-.068.853-.205 1.229-.137.377-.32.736-.55 1.08-.23.343-.499.675-.808.996s-.632.647-.969.979l-2.847 2.766c.279-.077.553-.137.821-.179.268-.041.524-.062.769-.062h3.239c.233 0 .418.062.555.188.137.124.205.289.205.494v1.229h-8.662v-.681c0-.139.031-.282.092-.432s.159-.288.292-.416l3.833-3.653c.32-.31.607-.606.86-.889.253-.282.466-.562.638-.839.171-.276.302-.558.393-.843s.135-.585.135-.9c0-.288-.043-.541-.131-.76s-.212-.403-.375-.553-.356-.262-.581-.336c-.224-.075-.476-.112-.755-.112-.518 0-.944.125-1.279.374-.334.249-.569.584-.703 1.005-.064.21-.16.361-.288.452-.128.092-.292.137-.489.137l-.288-.024-1.135-.191c.087-.575.256-1.08.506-1.516.25-.434.563-.797.939-1.087.375-.291.806-.51 1.292-.656.486-.147 1.008-.22 1.567-.22z"/><g fill="#fff"><path d="M191.859 384.433c.582 0 1.114.081 1.598.244.483.164.896.395 1.24.693.343.299.611.659.803 1.08.192.421.288.889.288 1.403 0 .442-.068.853-.205 1.229-.137.377-.32.736-.55 1.08-.23.343-.499.675-.808.996s-.632.647-.969.979l-2.847 2.766c.279-.077.553-.137.821-.179.268-.041.524-.062.769-.062h3.239c.233 0 .418.062.555.188.137.124.205.289.205.494v1.229h-8.662v-.681c0-.139.031-.282.092-.432s.159-.288.292-.416l3.833-3.653c.32-.31.607-.606.86-.889.253-.282.466-.562.638-.839.171-.276.302-.558.393-.843s.135-.585.135-.9c0-.288-.043-.541-.131-.76s-.212-.403-.375-.553-.356-.262-.581-.336c-.224-.075-.476-.112-.755-.112-.518 0-.944.125-1.279.374-.334.249-.569.584-.703 1.005-.064.21-.16.361-.288.452-.128.092-.292.137-.489.137l-.288-.024-1.135-.191c.087-.575.256-1.08.506-1.516.25-.434.563-.797.939-1.087.375-.291.806-.51 1.292-.656.486-.147 1.008-.22 1.567-.22zM201.988 384.433c.582 0 1.114.081 1.598.244.483.164.896.395 1.24.693.343.299.611.659.803 1.08.192.421.288.889.288 1.403 0 .442-.068.853-.205 1.229-.137.377-.32.736-.55 1.08-.23.343-.499.675-.808.996s-.632.647-.969.979l-2.847 2.766c.279-.077.553-.137.821-.179.268-.041.524-.062.769-.062h3.239c.233 0 .418.062.555.188.137.124.205.289.205.494v1.229h-8.662v-.681c0-.139.031-.282.092-.432s.159-.288.292-.416l3.833-3.653c.32-.31.607-.606.86-.889.253-.282.466-.562.638-.839.171-.276.302-.558.393-.843s.135-.585.135-.9c0-.288-.043-.541-.131-.76s-.212-.403-.375-.553-.356-.262-.581-.336c-.224-.075-.476-.112-.755-.112-.518 0-.944.125-1.279.374-.334.249-.569.584-.703 1.005-.064.21-.16.361-.288.452-.128.092-.292.137-.489.137l-.288-.024-1.135-.191c.087-.575.256-1.08.506-1.516.25-.434.563-.797.939-1.087.375-.291.806-.51 1.292-.656.486-.147 1.008-.22 1.567-.22z"/></g><path fill="#fff" d="M243.908 412.442c0 .294-.098.532-.292.715s-.52.273-.974.273h-3.475l-.454 2.508c.57-.11 1.091-.166 1.563-.166.664 0 1.247.095 1.75.282.504.188.927.448 1.271.781.344.332.603.721.777 1.166.175.446.262.926.262 1.44 0 .637-.118 1.219-.354 1.744-.236.526-.563.976-.982 1.35-.419.374-.915.663-1.489.867-.573.205-1.198.308-1.873.308-.396 0-.771-.039-1.126-.116-.355-.077-.688-.182-1-.312s-.6-.279-.864-.448c-.265-.169-.502-.348-.712-.535l.664-.872c.14-.188.326-.282.559-.282.146 0 .292.044.441.133l.52.29c.198.105.428.202.69.291.262.089.579.133.952.133.396 0 .745-.061 1.048-.183s.554-.292.755-.511c.201-.219.352-.479.454-.78.102-.302.153-.63.153-.984 0-.653-.2-1.164-.598-1.532-.399-.368-.985-.552-1.76-.552-.611 0-1.226.104-1.842.315l-1.345-.365 1.048-5.829h6.234v.871z"/><g fill="#fff"><path d="M283.47 363.685c.582 0 1.107.078 1.576.236.469.157.869.376 1.201.656.332.279.586.607.764.983.178.377.267.783.267 1.221 0 .382-.045.719-.136 1.009-.09.291-.221.544-.393.76s-.382.398-.629.549c-.247.149-.528.273-.843.373.757.228 1.321.573 1.694 1.038.372.465.559 1.049.559 1.752 0 .598-.116 1.127-.349 1.586-.233.46-.548.846-.943 1.158-.396.313-.854.55-1.375.71-.521.161-1.073.241-1.655.241-.635 0-1.188-.069-1.659-.208-.472-.138-.882-.343-1.23-.614-.35-.271-.646-.604-.891-.996-.245-.394-.454-.847-.629-1.362l.951-.373c.163-.066.329-.1.498-.1.151 0 .287.03.406.091.119.062.211.149.274.266.105.194.22.385.346.573.125.188.274.355.449.502.175.147.38.267.616.357.235.092.516.137.842.137.367 0 .688-.057.961-.17s.502-.262.686-.444.32-.386.41-.61c.09-.224.136-.449.136-.677 0-.287-.032-.549-.097-.784-.063-.235-.197-.437-.401-.603s-.496-.296-.878-.39c-.381-.095-.892-.142-1.532-.142v-1.47c.53 0 .97-.044 1.318-.133.35-.089.628-.212.834-.369.207-.158.351-.348.433-.569.081-.222.122-.465.122-.73 0-.57-.163-1.001-.489-1.291-.326-.291-.771-.437-1.336-.437-.512 0-.938.129-1.274.386-.338.257-.573.588-.707.991-.07.21-.166.361-.289.452-.122.091-.282.137-.479.137l-.297-.024-1.136-.188c.088-.575.257-1.081.507-1.516s.563-.797.938-1.088c.376-.291.807-.51 1.292-.656.486-.147 1.008-.22 1.567-.22zM296.777 364.688c0 .294-.098.532-.292.715-.195.183-.52.273-.974.273h-3.476l-.454 2.508c.57-.11 1.092-.166 1.562-.166.664 0 1.248.095 1.751.282.504.188.927.448 1.271.781.344.332.603.721.777 1.166.175.446.262.926.262 1.44 0 .637-.117 1.219-.354 1.744-.235.526-.563.976-.982 1.35s-.915.663-1.488.867c-.574.205-1.198.308-1.873.308-.396 0-.771-.039-1.127-.116-.354-.077-.688-.182-1-.312-.311-.13-.6-.279-.864-.448s-.502-.348-.711-.535l.663-.872c.14-.188.326-.282.559-.282.146 0 .293.044.441.133l.52.29c.198.105.428.202.689.291.263.089.579.133.952.133.396 0 .745-.061 1.048-.183s.555-.292.755-.511c.201-.219.353-.479.454-.78.103-.302.153-.63.153-.984 0-.653-.199-1.164-.599-1.532-.398-.368-.985-.552-1.759-.552-.611 0-1.226.104-1.843.315l-1.345-.365 1.048-5.829h6.234v.871z"/></g><g fill="#fff"><path d="M327.189 410.866h2.559v-7c0-.271.009-.557.026-.855l-1.816 1.445c-.075.061-.152.103-.231.124l-.231.033c-.116 0-.223-.023-.318-.07-.097-.047-.168-.102-.214-.162l-.682-.889 3.852-3.113h1.772v10.487h2.27v1.536h-6.985v-1.536zM344.662 406.398c0 1.047-.118 1.956-.354 2.729-.236.771-.562 1.41-.979 1.913-.416.504-.907.879-1.476 1.126-.567.246-1.18.369-1.838.369s-1.268-.123-1.829-.369c-.562-.247-1.05-.622-1.463-1.126-.413-.503-.736-1.142-.969-1.913-.233-.772-.35-1.682-.35-2.729 0-1.052.116-1.962.35-2.731.232-.77.556-1.406.969-1.91s.901-.879 1.463-1.125 1.171-.369 1.829-.369 1.271.123 1.838.369c.568.246 1.06.621 1.476 1.125.417.504.742 1.141.979 1.91.236.77.354 1.68.354 2.731zm-2.226 0c0-.869-.067-1.589-.201-2.159-.134-.569-.312-1.023-.537-1.361-.224-.338-.481-.574-.772-.71s-.594-.203-.908-.203c-.309 0-.606.067-.895.203s-.543.372-.765.71c-.221.338-.397.792-.528 1.361-.131.57-.196 1.29-.196 2.159s.065 1.589.196 2.159.308 1.024.528 1.362c.222.337.477.574.765.71s.586.203.895.203c.314 0 .617-.067.908-.203s.549-.373.772-.71c.225-.338.403-.792.537-1.362s.201-1.289.201-2.159z"/></g><g fill="#fff"><path d="M371.827 78.122h1.819v-4.979c0-.193.006-.396.019-.608l-1.292 1.028-.164.088-.165.023c-.083 0-.158-.017-.227-.05l-.152-.115-.484-.632 2.739-2.214h1.261v7.459h1.614v1.093h-4.968v-1.093zM380.963 79.309c-.464 0-.888-.059-1.271-.177s-.711-.286-.984-.502c-.273-.217-.485-.479-.637-.786s-.227-.65-.227-1.028c0-.504.131-.93.392-1.279.261-.348.666-.607 1.217-.776-.438-.173-.767-.419-.984-.738-.217-.319-.326-.703-.326-1.152 0-.323.069-.624.208-.903.139-.28.333-.523.581-.729s.546-.368.892-.484.726-.174 1.14-.174c.413 0 .794.058 1.14.174s.643.278.891.484c.249.207.442.45.581.729.139.279.208.581.208.903 0 .449-.11.833-.329 1.152-.22.319-.547.565-.981.738.551.169.956.428 1.217.776.262.349.392.775.392 1.279 0 .378-.075.721-.227 1.028s-.363.569-.637.786c-.273.216-.602.384-.984.502s-.809.177-1.272.177zm0-1.14c.252 0 .474-.034.664-.104.19-.069.351-.164.481-.286.13-.122.229-.268.295-.437s.1-.353.1-.549c0-.469-.137-.823-.41-1.063s-.65-.36-1.13-.36c-.48 0-.857.12-1.131.36s-.41.594-.41 1.063c0 .197.033.38.1.549s.165.315.295.437c.131.122.291.217.481.286.19.07.412.104.665.104zm0-3.945c.248 0 .457-.037.627-.112.17-.075.307-.174.41-.298s.177-.266.22-.425c.044-.16.065-.324.065-.493 0-.162-.026-.315-.08-.461-.055-.146-.135-.274-.243-.387-.107-.112-.244-.202-.409-.269-.166-.067-.362-.101-.59-.101-.229 0-.425.034-.591.101-.165.067-.303.156-.412.269-.11.112-.191.241-.243.387-.052.146-.077.299-.077.461 0 .169.021.333.065.493.043.159.116.301.221.425.103.124.239.223.409.298.17.075.379.112.628.112zM388.726 73.881c.34 0 .67.053.99.159.321.106.604.267.848.481.245.215.441.481.591.8.148.319.224.691.224 1.116 0 .398-.077.771-.23 1.119-.153.349-.368.653-.646.913s-.612.465-1.003.614c-.392.149-.823.225-1.295.225-.48 0-.911-.073-1.292-.219s-.706-.35-.976-.611c-.269-.262-.475-.577-.617-.945-.144-.368-.215-.777-.215-1.226 0-.402.086-.814.258-1.237s.438-.863.798-1.32l2.143-2.735c.075-.094.184-.175.326-.242.144-.067.308-.1.494-.1h1.366l-2.664 3.101-.165.189-.152.183c.175-.083.361-.147.562-.195s.418-.07.655-.07zm-2.149 2.652c0 .236.033.452.102.646s.17.361.305.499c.135.138.302.245.5.322.199.077.429.115.689.115.244 0 .469-.039.674-.118.205-.079.381-.189.528-.331.146-.142.262-.308.344-.499.083-.191.125-.399.125-.623 0-.244-.04-.464-.118-.659-.079-.195-.19-.36-.336-.496-.145-.136-.318-.239-.521-.31s-.427-.106-.671-.106-.466.04-.664.118c-.199.079-.369.188-.513.328-.143.14-.252.305-.329.496-.077.192-.115.397-.115.618z"/></g><path fill="#fff" d="M434.692 404.712v.888c0 .266-.03.48-.092.644-.062.164-.121.301-.179.411l-4.776 9.367c-.1.193-.239.358-.42.494-.18.136-.425.203-.733.203h-1.562l4.89-9.176c.204-.376.431-.7.682-.972h-6.043c-.134 0-.25-.047-.35-.141-.099-.095-.148-.205-.148-.332v-1.387h8.731z"/><g fill="#fff"><path d="M469.498 203.908h1.738v-4.754l.018-.581-1.233.981-.157.084-.157.023c-.079 0-.151-.016-.217-.048l-.145-.11-.463-.604 2.615-2.115h1.204v7.123h1.541v1.043h-4.744v-1.042zM478.488 196.707c.396 0 .752.053 1.07.161.318.107.591.256.815.445.226.19.398.413.52.668.12.256.181.532.181.829 0 .259-.031.488-.092.685-.062.197-.15.369-.267.516-.117.146-.26.271-.428.372s-.358.186-.572.254c.515.154.897.389 1.15.705.253.316.38.713.38 1.19 0 .406-.079.765-.237 1.077s-.371.574-.641.787c-.269.212-.58.374-.934.482-.354.109-.729.164-1.124.164-.431 0-.807-.047-1.127-.141s-.599-.233-.836-.417c-.237-.184-.438-.41-.604-.677-.166-.267-.309-.575-.427-.925l.646-.253c.111-.045.224-.068.339-.068.103 0 .194.021.275.062s.144.102.187.181l.234.389c.085.127.187.241.306.341.118.1.258.181.418.243s.351.093.572.093c.249 0 .467-.039.652-.116s.341-.178.466-.302c.124-.124.217-.262.278-.415s.092-.306.092-.459c0-.196-.021-.373-.065-.533-.043-.16-.134-.296-.272-.409s-.337-.201-.596-.265c-.26-.064-.606-.096-1.041-.096v-.998c.359 0 .658-.03.896-.09s.426-.144.566-.251c.14-.107.238-.236.293-.386.056-.15.083-.316.083-.497 0-.387-.11-.679-.332-.877-.221-.197-.523-.296-.907-.296-.348 0-.637.087-.865.262-.229.174-.39.399-.48.673-.048.143-.113.245-.196.307s-.191.093-.326.093l-.201-.017-.771-.128c.059-.391.174-.734.344-1.029.17-.295.382-.542.638-.739.255-.198.547-.346.877-.446s.684-.149 1.063-.149zM485.231 196.707c.395 0 .757.055 1.085.166.328.111.608.268.842.471s.415.447.546.733c.13.286.195.604.195.953 0 .301-.046.579-.139.834-.094.256-.218.5-.374.733s-.339.458-.549.677c-.209.218-.429.44-.658.666l-1.933 1.878c.189-.053.375-.093.557-.122.183-.028.356-.042.522-.042h2.2c.158 0 .283.042.376.126.093.085.14.197.14.336v.834h-5.883v-.462c0-.094.021-.192.062-.293.041-.102.107-.195.198-.282l2.604-2.481c.218-.21.412-.412.584-.604.172-.191.316-.381.434-.569.116-.188.205-.379.267-.572.061-.194.092-.398.092-.612 0-.195-.029-.367-.089-.516s-.145-.273-.255-.375c-.111-.102-.242-.178-.395-.229s-.323-.076-.513-.076c-.353 0-.642.084-.869.254-.228.169-.387.396-.478.682-.043.143-.108.246-.195.308s-.198.093-.332.093l-.196-.017-.771-.13c.06-.391.174-.734.344-1.029.17-.295.383-.542.638-.739s.548-.346.878-.445.686-.149 1.065-.149z"/></g><g fill="#ED1C24"><path d="M68.416 219.116l-7.877-.036c-2.914.081-3.986 2.428-3.986 3.243v11.605c0 .719.582 1.299 1.295 1.299.719 0 1.302-.58 1.302-1.299v-9.513h1.104v9.117l.032.363v.25c.082-.018 7.051.02 8.131-.035v-9.695h.981v9.513c0 .719.621 1.299 1.39 1.299.771 0 1.395-.58 1.395-1.299v-11.756c-.001-.992-1.303-3.056-3.767-3.056zM64.252 218.514c1.725 0 3.119-1.396 3.119-3.122 0-1.724-1.395-3.12-3.119-3.12s-3.122 1.396-3.122 3.12c0 1.727 1.397 3.122 3.122 3.122zM74.723 221.408v-.875c0-.58-.76-1.786-2.198-1.786l-4.6-.02c-1.7.045-2.326 1.416-2.326 1.893v.625c3.04.007 6.083.078 9.124.163zM70.16 218.395c1.007 0 1.822-.814 1.822-1.824 0-1.006-.815-1.821-1.822-1.821s-1.823.815-1.823 1.821c0 1.01.816 1.824 1.823 1.824zM63.034 221.668l.312.025v-1.116c0-.478-.627-1.849-2.331-1.894l-4.598.02c-1.438 0-2.198 1.206-2.198 1.785v1.171c2.94-.063 5.877.004 8.815.009zM58.665 218.353c-1.004 0-1.822-.814-1.822-1.825 0-1.007.818-1.821 1.822-1.821 1.007 0 1.823.814 1.823 1.821 0 1.011-.816 1.825-1.823 1.825zM76.158 216.404c.008-.197.005-.396-.005-.591-.071-1.352-.557-2.638-1.396-3.695-.121-.154-.253-.304-.388-.447-.229-.239-.574-.282-.794-.132l-.085.07-.064.068c-.208.224-.188.571.022.788.114.122.223.246.322.376.173.214.475.295.733.192.439.685.73 1.453.852 2.26-.264.091-.434.353-.421.627l.005.492c-.011.305.2.58.508.61l.091.007.111-.003c.265-.031.497-.294.509-.622zM53.063 216.833c-.008-.198-.007-.396.002-.594.071-1.349.556-2.635 1.397-3.692.122-.155.25-.304.386-.447.229-.239.574-.283.796-.132l.084.069.063.066c.21.226.188.571-.022.791l-.322.375c-.173.215-.471.295-.73.191-.44.687-.73 1.455-.854 2.262.264.091.435.352.421.626l-.005.493c.013.306-.2.579-.505.61l-.094.007-.109-.004c-.264-.034-.495-.293-.508-.621z"/></g><g fill="#ED1C24"><path d="M292.767 341.91h-2.092v-2.344c0-.473-.383-.855-.854-.855s-.851.383-.851.855v.637l-5.378.002v-.639c0-.473-.383-.855-.852-.855-.472 0-.853.383-.853.855v2.344h-2.095c-1.113 0-2.016.904-2.016 2.016v8.51h17.006v-8.51c.001-1.112-.9-2.016-2.015-2.016zm-6.487 9.029c-2.239 0-4.053-1.812-4.053-4.053 0-.613.141-1.195.388-1.717.14-.303.314-.586.522-.842.137-.166.293-.324.454-.467.717-.635 1.656-1.025 2.688-1.025s1.97.391 2.689 1.025c.159.143.314.301.449.467.208.256.386.539.525.842.246.521.388 1.104.388 1.717.002 2.241-1.813 4.053-4.05 4.053zM287.003 344.328c-.229-.064-.475-.102-.723-.102-.251 0-.492.037-.723.102-1.119.314-1.94 1.34-1.94 2.559 0 1.471 1.191 2.664 2.663 2.664 1.471 0 2.662-1.193 2.662-2.664 0-1.219-.824-2.244-1.939-2.559zM296.459 336.74c-.738-.307-1.48-.582-2.234-.822-5.183-1.652-10.708-1.652-15.89 0-.752.24-1.499.516-2.231.822-1.223.516-1.882 1.762-1.626 2.805.032.139.077.279.143.412l.158.334c.554 1.117 1.886 1.521 3.014 1.049.612-.258 1.235-.486 1.861-.686 1.055-.342 1.788-1.357 1.766-2.48 3.21-.68 6.512-.68 9.723 0-.024 1.121.707 2.139 1.765 2.48.626.199 1.248.428 1.86.686 1.13.473 2.46.068 3.014-1.049l.16-.334c.064-.133.108-.273.145-.412.249-1.043-.405-2.289-1.628-2.805z"/></g><path fill="#ED1C24" d="M494.797 144.551h-2.583v-16.634c0-.505-.412-.914-.917-.914l-24.837-.001c-.505 0-.918.408-.918.915v16.634h-2.581c-.665 0-1.205.545-1.205 1.209v1.118c0 .665.54 1.206 1.205 1.206h31.836c.667 0 1.207-.541 1.207-1.206v-1.118c0-.664-.54-1.209-1.207-1.209zm-10.715.995c0 .252-.205.458-.459.458h-9.489c-.254 0-.459-.206-.459-.458v-.425l.013-.111h10.382l.013.111v.425zm5.341 1.266c-.213 0-.383-.173-.383-.387s.17-.386.383-.386.388.172.388.386-.175.387-.388.387zm.436-2.934h-21.961v-14.694l.049-.036 21.863.001.049.035v14.694zm1.339 2.934c-.211 0-.383-.173-.383-.387s.172-.386.383-.386c.213 0 .386.172.386.386s-.173.387-.386.387zm1.776 0c-.211 0-.386-.173-.386-.387s.175-.386.386-.386c.213 0 .383.172.383.386s-.17.387-.383.387z"/><path fill-rule="evenodd" clip-rule="evenodd" fill="#ED1C24" d="M469.034 129.715h19.631v1.907h-19.631z"/><path opacity=".7" clip-rule="evenodd" stroke="#ED1C24" stroke-width=".177" stroke-miterlimit="10" fill="none" d="M469.034 132.188h19.631v10.806h-19.631z"/><g fill="#fff"><path d="M472.549 130.372h.07l.019.005.01.013.098.329.008.035.006.034.009-.034.011-.035.107-.331.009-.013.017-.005h.038l.017.005.01.013.105.331.01.035.008.034.007-.035.009-.034.1-.329.01-.014.017-.005h.067l-.165.51h-.071l-.019-.017-.112-.346-.007-.023-.005-.023-.005.023-.007.024-.114.346-.021.017h-.068l-.168-.51zM473.32 130.372h.07l.019.005.01.013.098.329.008.035.006.034.009-.034.011-.035.107-.331.009-.013.017-.005h.038l.017.005.01.013.105.331.01.035.008.034.007-.035.009-.034.1-.329.01-.014.017-.005h.067l-.165.51h-.071l-.019-.017-.112-.346-.007-.023-.005-.023-.005.023-.007.024-.114.346-.021.017h-.068l-.168-.51zM474.093 130.372h.07l.019.005.01.013.098.329.008.035.006.034.009-.034.011-.035.107-.331.009-.013.017-.005h.038l.017.005.01.013.105.331.01.035.008.034.007-.035.009-.034.1-.329.01-.014.017-.005h.067l-.165.51h-.071l-.019-.017-.112-.346-.007-.023-.005-.023-.005.023-.007.024-.114.346-.021.017h-.068l-.168-.51zM474.87 130.827l.005-.024.014-.02.02-.014.024-.005.025.005.02.014.014.02.005.024-.005.025-.014.02-.02.014-.025.004-.024-.004-.02-.014-.014-.02-.005-.025zM475.462 130.462l-.008.009-.012.003-.017-.006-.022-.014-.033-.014-.048-.006-.065.013-.048.039-.029.061-.01.08.01.083.03.06.047.038.062.013.054-.008.035-.018.023-.017.018-.008.018.008.025.033-.083.06-.105.019-.089-.018-.071-.051-.048-.083-.018-.111.016-.105.047-.083.075-.055.103-.02.095.018.073.049-.025.031zM475.791 130.364l.101.019.077.053.048.083.018.109-.018.109-.048.083-.077.053-.101.018-.102-.018-.076-.053-.049-.083-.018-.109.018-.109.049-.083.076-.053.102-.019zm0 .455l.112-.051.038-.141-.038-.142-.112-.051-.066.013-.047.038-.028.061-.01.082.01.081.028.06.047.038.066.012zM476.145 130.882v-.51h.052l.021.005.007.019.007.08.064-.083.09-.03.039.005.031.013-.012.067-.016.013-.021-.005-.041-.004-.078.027-.053.079v.325h-.09zM476.551 130.882v-.51h.052l.021.005.007.019.007.08.064-.083.09-.03.039.005.031.013-.012.067-.016.013-.021-.005-.041-.004-.078.027-.053.079v.325h-.09zM477.035 130.372v.325l.026.09.081.032.074-.019.063-.052v-.376h.09v.51h-.054l-.024-.019-.007-.055-.074.06-.095.022-.074-.014-.054-.039-.032-.061-.011-.079v-.325h.091zM477.517 131.055v-.683h.054l.024.019.008.061.074-.064.097-.024.08.017.061.05.039.082.014.113-.015.105-.044.084-.069.056-.092.02-.081-.016-.06-.044v.226h-.09zm.227-.619l-.077.02-.061.057v.247l.055.047.065.014.109-.051.038-.145-.009-.086-.025-.059-.041-.034-.054-.01zM478.229 130.891l-.093-.034-.033-.097v-.312h-.062l-.014-.004-.005-.015v-.036l.083-.011.021-.158.006-.012.015-.005h.045v.176h.146v.065h-.146v.307l.016.048.04.016.024-.004.019-.008.013-.008.009-.004.013.009.026.043-.056.034-.067.01zM478.569 130.211l-.005.025-.015.02-.021.014-.024.005-.024-.005-.021-.014-.014-.02-.005-.025.005-.025.014-.021.021-.014.024-.005.024.005.021.014.015.021.005.025zm-.02.161v.51h-.089v-.51h.089zM478.914 130.364l.101.019.077.053.048.083.018.109-.018.109-.048.083-.077.053-.101.018-.102-.018-.076-.053-.049-.083-.018-.109.018-.109.049-.083.076-.053.102-.019zm0 .455l.112-.051.038-.141-.038-.142-.112-.051-.066.013-.047.038-.028.061-.01.082.01.081.028.06.047.038.066.012zM479.268 130.882v-.51h.054l.024.019.007.055.074-.059.095-.023.074.014.054.039.032.061.011.079v.325h-.09v-.325l-.026-.09-.08-.032-.075.019-.063.052v.376h-.091zM479.753 130.372h.07l.019.005.01.013.098.329.008.035.006.034.009-.034.011-.035.107-.331.009-.013.017-.005h.038l.017.005.01.013.105.331.01.035.008.034.007-.035.009-.034.1-.329.01-.014.017-.005h.067l-.165.51h-.071l-.019-.017-.112-.346-.007-.023-.005-.023-.005.023-.007.024-.114.346-.021.017h-.068l-.168-.51zM480.967 130.882h-.04l-.021-.004-.011-.017-.01-.047-.04.032-.04.024-.045.015-.054.005-.056-.009-.045-.025-.03-.042-.012-.061.017-.059.054-.05.098-.036.146-.014v-.04l-.025-.091-.075-.03-.056.008-.038.019-.028.019-.023.008-.017-.005-.011-.012-.016-.029.091-.061.108-.02.076.014.056.039.034.061.012.079v.329zm-.233-.054l.043-.005.037-.014.033-.021.031-.029v-.105l-.105.008-.07.021-.04.03-.012.039.006.035.018.024.026.014.033.003zM481.258 130.891l-.093-.034-.033-.097v-.312h-.062l-.014-.004-.005-.015v-.036l.083-.011.021-.158.006-.012.015-.005h.045v.176h.146v.065h-.146v.307l.016.048.04.016.024-.004.019-.008.013-.008.009-.004.013.009.026.043-.056.034-.067.01zM481.827 130.462l-.008.009-.012.003-.017-.006-.022-.014-.033-.014-.048-.006-.065.013-.048.039-.029.061-.01.08.01.083.03.06.047.038.062.013.054-.008.035-.018.023-.017.018-.008.018.008.025.033-.083.06-.105.019-.089-.018-.071-.051-.048-.083-.018-.111.016-.105.047-.083.075-.055.103-.02.095.018.073.049-.025.031zM481.949 130.882v-.742h.09v.3l.072-.056.092-.021.074.014.054.039.032.061.011.079v.325h-.09v-.325l-.026-.09-.08-.032-.075.019-.063.052v.376h-.091zM482.48 130.827l.005-.024.014-.02.02-.014.024-.005.025.005.02.014.014.02.005.024-.005.025-.014.02-.02.014-.025.004-.024-.004-.02-.014-.014-.02-.005-.025zM483.071 130.462l-.008.009-.012.003-.017-.006-.022-.014-.033-.014-.048-.006-.065.013-.048.039-.029.061-.01.08.01.083.03.06.047.038.062.013.054-.008.035-.018.023-.017.018-.008.018.008.025.033-.083.06-.105.019-.089-.018-.071-.051-.048-.083-.018-.111.016-.105.047-.083.075-.055.103-.02.095.018.073.049-.025.031zM483.4 130.364l.101.019.077.053.048.083.018.109-.018.109-.048.083-.077.053-.101.018-.102-.018-.076-.053-.049-.083-.018-.109.018-.109.049-.083.076-.053.102-.019zm0 .455l.112-.051.038-.141-.038-.142-.112-.051-.066.013-.047.038-.028.061-.01.082.01.081.028.06.047.038.066.012zM483.754 130.882v-.51h.054l.024.019.007.052.062-.057.082-.022.084.029.046.078.027-.048.039-.033.047-.019.049-.006.072.013.054.038.033.061.012.082v.325h-.09v-.325l-.026-.091-.076-.031-.042.008-.035.023-.023.038-.009.053v.325h-.09v-.325l-.024-.091-.072-.03-.062.018-.053.049v.38h-.09z"/></g><path fill-rule="evenodd" clip-rule="evenodd" fill="#ED1C24" d="M469.962 132.756h6.15v9.727h-6.15zM485.515 132.995h2.572v3.311h-2.572zM485.515 136.748h2.603v3.134h-2.603z"/><path stroke="#ED1C24" stroke-width=".629" stroke-miterlimit="10" fill="none" d="M476.317 133.465h8.843M476.317 134.501h8.843M476.317 135.655h8.843M476.317 136.659h8.843M476.317 138.434h8.843M476.317 139.469h8.843M476.317 140.621h11.767M476.317 141.626h11.767"/><path fill="#ED1C24" d="M387.936 24.549l-.019 4.465-13.59-.059.062-15.723 5.046.021c-.021-.245-.03-.492-.03-.737.005-.868.124-1.706.343-2.521l-5.148-.021c-1.666-.007-3.03 1.354-3.038 3.019l-.114 27.417c-.006 1.665 1.35 3.034 3.016 3.043l13.202.053c1.668.007 3.035-1.352 3.044-3.018l.067-16.98c-.249-.025-.497-.044-.743-.081-.643.379-1.361.76-2.098 1.122zm-9.866 16.253c0 .178-.147.322-.327.321l-3.299-.013c-.176-.003-.322-.148-.32-.326l.006-1.008c0-.179.145-.323.321-.321l3.3.012c.18 0 .327.146.324.325l-.005 1.01zm.013-2.813c-.001.18-.149.327-.327.324l-3.299-.013c-.178-.002-.322-.148-.322-.327l.002-1.012c0-.178.152-.323.327-.323l3.3.014c.178.003.324.147.324.327l-.005 1.01zm.013-2.816c-.003.182-.149.327-.33.325l-3.296-.012c-.178-.002-.325-.146-.325-.329l.005-1.01c0-.175.151-.32.327-.32l3.3.013c.178.002.324.147.324.325l-.005 1.008zm.009-2.81c0 .179-.146.327-.327.324l-3.299-.013c-.178-.002-.323-.149-.322-.328l.005-1.008c0-.182.147-.327.325-.327l3.299.013c.181.002.323.148.323.331l-.004 1.008zm4.944 8.461c0 .177-.145.319-.325.319l-3.302-.013c-.179 0-.324-.146-.324-.324l.005-1.008c0-.183.147-.323.324-.323l3.302.014c.181 0 .325.144.325.323l-.005 1.012zm.013-2.815c0 .18-.148.325-.328.325l-3.302-.015c-.18 0-.322-.148-.322-.327l.005-1.01c0-.179.147-.323.324-.323l3.302.016c.181 0 .322.146.322.322l-.001 1.012zm.009-2.813c0 .179-.145.325-.323.325l-3.303-.015c-.181 0-.325-.148-.325-.329l.003-1.008c.005-.178.146-.32.329-.32l3.302.014c.181 0 .322.146.321.32l-.004 1.013zm.01-2.813c0 .177-.142.325-.323.325l-3.303-.015c-.179 0-.323-.149-.322-.327l.003-1.01c.005-.183.146-.324.327-.324l3.304.015c.181 0 .322.146.32.327l-.006 1.009zm4.948 8.461c-.003.178-.15.32-.333.32l-3.294-.014c-.183 0-.327-.145-.324-.323l.002-1.012c0-.178.145-.322.327-.322l3.297.014c.179 0 .327.147.327.326l-.002 1.011zm.01-2.813c0 .179-.149.324-.33.324l-3.296-.014c-.183 0-.325-.146-.325-.328l.003-1.009c0-.179.146-.324.329-.324l3.297.013c.178 0 .327.148.327.328l-.005 1.01zm.012-2.813c0 .179-.148.323-.329.323l-3.299-.016c-.178 0-.322-.146-.322-.324l.003-1.013c.002-.177.146-.322.327-.322l3.299.015c.178 0 .327.148.325.323l-.004 1.014zm.011-2.813c-.001.178-.149.324-.327.324l-3.299-.014c-.183 0-.327-.148-.322-.327l.003-1.008c.002-.183.145-.33.327-.33l3.297.016c.183 0 .329.148.327.329l-.006 1.01zm3.844-29.681c-6.243-.025-11.333 4.368-11.358 9.798-.01 3.145 1.687 5.958 4.33 7.77.05 2.479-1.609 3.653-3.067 5.345 1.243-.124 5.303-1.754 7.98-3.396.66.106 1.345.163 2.037.166 6.243.025 11.338-4.367 11.36-9.793.024-5.429-5.039-9.865-11.282-9.89zm-6 12.934c-.649-.004-1.283-.172-1.6-.351l.264-1.054c.341.178.867.357 1.412.359.591.002.9-.238.9-.607.005-.349-.264-.556-.946-.801-.933-.332-1.544-.852-1.542-1.672.003-.965.812-1.696 2.146-1.69.64.001 1.107.137 1.438.289l-.289 1.029c-.226-.11-.627-.27-1.18-.271-.552-.003-.821.245-.821.537 0 .362.314.523 1.045.8.996.374 1.463.896 1.458 1.691-.003.949-.738 1.746-2.285 1.741zm7.993-.049l-.069-2.162c-.023-.677-.045-1.5-.039-2.317h-.031c-.175.717-.413 1.519-.634 2.181l-.694 2.199-.999-.003-.592-2.188c-.182-.663-.375-1.468-.504-2.203h-.016c-.04.759-.065 1.632-.109 2.334l-.112 2.143-1.182-.005.389-5.644 1.697.008.549 1.884c.169.658.346 1.36.463 2.021h.022c.168-.649.363-1.395.553-2.021l.606-1.875 1.67.008.285 5.645-1.253-.005zm3.615.096c-.646-.003-1.278-.172-1.596-.351l.262-1.054c.342.179.869.359 1.415.359.586.004.895-.238.895-.606.006-.35-.261-.556-.938-.8-.937-.331-1.547-.854-1.545-1.673.005-.964.811-1.696 2.146-1.692.637.005 1.105.14 1.438.291l-.289 1.028c-.226-.107-.626-.269-1.179-.272-.553-.001-.819.248-.823.54 0 .363.316.519 1.044.802.996.371 1.463.892 1.458 1.688-.004.947-.737 1.745-2.288 1.74zM325.503 387.924l-.179-.041 7.026-5.238 2.358 1.834c.126.094.291.146.466.146.176 0 .343-.053.467-.146l2.362-1.834 7.025 5.238-.182.041h-19.343zm12.986-5.653s6.748-5.227 6.771-5.246v10.295l-6.771-5.049zm-13.399-5.246l6.773 5.246-6.773 5.049v-10.295zm10.085 6.618c-.137 0-.261-.035-.354-.105l-9.505-7.01.187-.043h19.345l.189.043-9.506 7.01c-.094.069-.219.105-.356.105z"/><circle stroke="#ED1C24" stroke-width=".782" stroke-miterlimit="10" cx="151.009" cy="386.344" r="11.34" fill="none"/><path fill-rule="evenodd" clip-rule="evenodd" fill="#ED1C24" d="M149.208 380.357c.732-.992 1.746-1.309 2.927-1.236.221.014 1.616.152 2.095.201.309.029.321.154.294.438-.051.529-.097.77-.149 1.195-.054.289-.089.943-.737.844-1.854-.277-1.723.434-1.652 1.881.016.266.244.295.454.303.446.018.891.002 1.334.014.438.008.659.225.63.656-.028.439-.265 1.549-.274 1.68-.445.072-1.831.178-2.052.359-.157.148-.124.34-.124.525 0 .943-.008 1.887.005 2.83l.01.521c.008 1.002.008 2.002 0 3.004 0 .258.021.525-.188.729l.013.004c-1.144.012-1.448.029-3.031-.025-.166-.205-.157-.381-.157-.621 0-1.074-.02-2.146.007-3.221-.04-.707.032-1.412.002-2.117-.023-.406-.003-.814-.003-1.221-.003-.373-.172-.518-.54-.543-1.024-.066-1.033-.076-1.02-1.113.005-.438-.19-.908.129-1.309.178-.223.492-.145.751-.15.657-.021.769-.014.791-.689.019-.414 0-.426.051-1.264.073-.577.157-1.151.434-1.675z"/><circle stroke="#ED1C24" stroke-width=".767" stroke-miterlimit="10" cx="110.785" cy="280.297" r="11.129" fill="none"/><g fill-rule="evenodd" clip-rule="evenodd"><path fill="#ED1C24" d="M103.638 281.414c-.074-3.277 1.323-5.455 4.039-6.613 2.754-1.168 5.496-1.031 7.887 1.012 1.823 1.555 2.209 3.871 1.094 6.004-1.113 2.129-2.658 2.844-5.148 2.221-.578-.145-.897.18-1.338.266-1.814.357-3.019-.469-3.306-2.324-.488-3.145 1.678-5.395 4.666-4.793.432.088.656-.18.984-.213.837-.084 1.235.242 1.075 1.137-.221 1.234-.412 2.467-.59 3.703-.049.332-.255.77.137.977.443.238.793-.123 1.104-.393 2.115-1.812 1.343-5.598-1.351-6.652-2.173-.852-4.681-.223-6.188 1.543-1.45 1.709-1.743 4.547-.651 6.369 1.045 1.756 3.786 2.805 6.162 2.309 1.179-.248 2.27-.697 3.127-1.619.362-.391.804-1.16 1.43-.547.64.623.006 1.201-.418 1.684-1.148 1.277-2.724 1.656-4.324 1.914-3.149.506-6.473-.947-7.749-3.311-.501-.928-.693-1.895-.642-2.674z"/><path fill="#FCFCFC" d="M110.458 282.543c-.223.352-.524.715-1.018.541-.494-.174-.731-.561-.749-1.102-.038-1.258.464-2.316 1.174-3.301.257-.35.622-.605 1.078-.473"/></g><g fill="#ED1C24"><path fill-rule="evenodd" clip-rule="evenodd" d="M247.536 388.039l8.219 3.342-4.958 12.191-8.219-3.34 4.958-12.193zm-2.074 13.899l1.985.807-.294.721-1.986-.807.295-.721zm5.201-13.588l2.822 1.148-.135.328-2.821-1.148.134-.328zm-2.569-1.813c-.512-.205-1.098.041-1.306.553l-5.441 13.379c-.206.512.04 1.1.552 1.307l8.354 3.395c.51.209 1.097-.039 1.305-.549l5.44-13.381c.206-.51-.04-1.098-.553-1.305l-8.351-3.399z"/><path d="M241.858 379.074h-.36c-.022-.051-.066-.102-.143-.102h-1.633c-.065 0-.116.051-.142.102h-.434c-.024-.051-.051-.102-.1-.102h-1.026c-.041 0-.074.051-.084.102h-6.769c-.273 0-.541.057-.791.166l-.008.018h-.01c-.233.115-.45.283-.616.48-.284.336-.434.752-.434 1.18v20.682c0 .285.048.535.157.768.094.184.193.35.325.5l.05.033v.016l.018.01.023.025.01.016h.008l.025.018.008.016h.019v.018h.007l.015.018.028.023.017.01h.006v.006l.018.01.051.033v.018h.017l.05.031.015.016h.011l.058.037.019.016.049.025h.017l.066.033.009.008.058.033h.017l.066.025h.017l.068.025.082.018.251.047h.049l.026.018h10.812c1.027.008 1.852-.824 1.852-1.85l.017-20.693c-.003-1.019-.836-1.853-1.861-1.853zm-5.345 23.201c-.325 0-.591-.256-.591-.592 0-.316.266-.584.591-.584.316 0 .583.268.583.584 0 .337-.267.592-.583.592zm6.095-2.877l-12.206-.016.009-17.814 12.205.008-.008 17.822zM238.28 397.049v.033h1.836c.464 0 .842-.377.842-.832l-.594-2.553c0-.449-.375-.826-.834-.826h-.056c-.193.176-.442.283-.71.283-.284 0-.518-.107-.718-.283h-.051c-.249 0-.467.109-.616.275.068.133.102.293.102.451l.799 3.452zM238.765 391.131c-.508 0-.926.416-.926.916 0 .365.226.684.524.824.125.061.251.1.401.1.142 0 .268-.039.39-.1.31-.141.526-.459.526-.824.001-.5-.409-.916-.915-.916zM237.23 393.598l-.024-.135c-.067-.566-.526-1.002-1.109-1.002h-.068c-.257.236-.599.377-.983.377-.358 0-.683-.133-.949-.34l-.033-.037h-.065c-.618 0-1.137.51-1.137 1.137l-.801 3.451c0 .633.52 1.133 1.139 1.133h3.699c.616 0 1.106-.49 1.124-1.1l.008-.033-.801-3.451zM236.305 391.348c0-.703-.568-1.254-1.26-1.254-.683 0-1.249.551-1.249 1.254 0 .482.292.916.7 1.113h1.101c.416-.197.708-.631.708-1.113zM235.597 392.461h-1.101c.165.084.348.135.549.135s.394-.051.552-.135z"/></g><path fill="#5C8392" d="M35.788 440.146h485.479v1.555h-485.479z"/><g fill="#333"><path d="M43.206 434.284l.15.067.395.431c-.305.354-.674.629-1.108.826-.435.197-.958.296-1.571.296-.537 0-1.023-.093-1.459-.277-.436-.186-.809-.445-1.117-.779s-.547-.735-.717-1.202c-.169-.468-.254-.981-.254-1.543 0-.561.091-1.075.273-1.542.182-.468.437-.869.766-1.205.329-.336.723-.597 1.181-.782.459-.185.965-.277 1.52-.277.547 0 1.019.085 1.415.254.396.17.749.4 1.057.691l-.327.462-.083.086-.135.033-.143-.049-.179-.122-.244-.156-.332-.155c-.128-.049-.277-.089-.447-.122-.17-.033-.365-.05-.587-.05-.398 0-.763.068-1.093.205-.331.138-.616.332-.854.585s-.425.561-.558.924c-.133.364-.2.771-.2 1.221 0 .464.067.878.2 1.241s.315.671.545.922c.23.251.503.442.818.574s.654.197 1.018.197c.221 0 .42-.013.597-.039.176-.026.34-.066.491-.122.15-.056.291-.125.421-.21.129-.085.26-.187.392-.304.056-.053.113-.079.169-.079zM48.794 435.821h-.41c-.09 0-.163-.014-.218-.042-.055-.027-.092-.086-.109-.176l-.104-.488c-.138.124-.273.236-.405.335-.132.099-.27.182-.416.249s-.3.119-.465.153-.347.052-.548.052c-.205 0-.396-.028-.574-.086s-.333-.144-.465-.258c-.131-.114-.236-.26-.314-.436-.078-.175-.117-.383-.117-.622 0-.209.057-.409.171-.603.114-.192.298-.363.553-.513.255-.149.588-.272 1-.368.412-.095.916-.143 1.511-.143v-.413c0-.411-.087-.723-.262-.933-.175-.211-.434-.316-.776-.316-.225 0-.415.028-.569.085-.154.058-.288.122-.4.192l-.291.192c-.081.058-.162.086-.241.086l-.164-.05-.112-.122-.166-.296c.291-.28.604-.49.94-.628.336-.139.708-.208 1.117-.208.294 0 .556.049.784.146s.42.231.577.405c.156.173.273.382.353.628s.119.516.119.811v3.367zm-2.399-.566c.163 0 .312-.016.447-.049s.262-.08.382-.141.234-.134.343-.221c.109-.086.215-.185.319-.296v-1.085c-.426 0-.788.026-1.085.08-.298.055-.54.125-.727.212s-.323.189-.408.309c-.085.118-.127.25-.127.396 0 .14.022.26.068.36.045.102.105.184.182.248s.166.112.27.142.214.045.336.045zM51.225 428.171v7.65h-.925v-7.65h.925zM53.884 428.171v7.65h-.924v-7.65h.924zM62.91 434.284l.15.067.395.431c-.305.354-.674.629-1.108.826-.435.197-.958.296-1.571.296-.537 0-1.023-.093-1.459-.277-.436-.186-.809-.445-1.117-.779s-.547-.735-.717-1.202c-.169-.468-.254-.981-.254-1.543 0-.561.091-1.075.273-1.542.182-.468.437-.869.766-1.205.329-.336.723-.597 1.181-.782.459-.185.965-.277 1.52-.277.547 0 1.019.085 1.415.254.396.17.749.4 1.057.691l-.327.462-.083.086-.135.033-.143-.049-.179-.122-.244-.156-.332-.155c-.128-.049-.277-.089-.447-.122-.17-.033-.365-.05-.587-.05-.398 0-.763.068-1.093.205-.331.138-.616.332-.854.585s-.425.561-.558.924c-.133.364-.2.771-.2 1.221 0 .464.067.878.2 1.241s.315.671.545.922c.23.251.503.442.818.574s.654.197 1.018.197c.221 0 .42-.013.597-.039.176-.026.34-.066.491-.122.15-.056.291-.125.421-.21.129-.085.26-.187.392-.304.056-.053.113-.079.169-.079zM66.717 430.478c.315 0 .606.053.873.158s.497.258.691.457.345.444.454.737c.109.293.164.626.164 1 0 .146-.015.242-.046.291-.031.048-.09.072-.177.072h-3.5c.007.332.052.621.135.867.083.246.197.451.343.615.145.165.318.288.519.369s.426.122.675.122c.232 0 .432-.027.6-.081.167-.053.312-.111.434-.174l.304-.174c.081-.054.151-.08.21-.08.076 0 .135.029.176.088l.26.338c-.114.139-.251.259-.41.36-.159.103-.33.187-.512.252-.182.066-.37.115-.563.148s-.386.049-.576.049c-.364 0-.699-.062-1.005-.184-.306-.123-.571-.304-.794-.54-.223-.237-.397-.531-.522-.881s-.187-.751-.187-1.205c0-.366.056-.709.169-1.028.112-.318.274-.595.485-.828.211-.233.469-.417.774-.551.302-.131.645-.197 1.026-.197zm.021.679c-.447 0-.798.129-1.055.387-.256.259-.415.616-.478 1.073h2.862c0-.215-.03-.411-.088-.59-.059-.179-.146-.332-.26-.462s-.254-.23-.418-.302c-.164-.07-.352-.106-.563-.106zM70.077 435.821v-5.261h.55c.132 0 .215.063.25.191l.073.571c.229-.252.484-.457.766-.612.282-.156.608-.233.979-.233.287 0 .541.047.761.143.22.095.403.23.55.405.147.175.259.385.335.631s.114.518.114.815v3.35h-.924v-3.35c0-.398-.091-.707-.272-.928-.182-.22-.46-.329-.833-.329-.274 0-.529.065-.766.197s-.457.31-.657.535v3.874h-.926zM77.447 435.904c-.416 0-.735-.116-.958-.348-.223-.232-.335-.566-.335-1.003v-3.22h-.634l-.14-.049c-.038-.033-.057-.084-.057-.153v-.369l.862-.109.213-1.625.067-.128.146-.049h.467v1.812h1.506v.67h-1.506v3.158c0 .221.054.386.161.493s.246.161.416.161l.252-.039.184-.086.132-.086.096-.039c.048 0 .092.03.13.089l.27.441c-.159.148-.352.266-.576.351-.225.086-.457.128-.696.128zM79.727 435.821v-5.261h.53c.1 0 .169.019.208.057l.078.197.062.821c.18-.367.403-.654.667-.86.265-.206.576-.309.933-.309.145 0 .277.017.395.049.118.033.227.079.327.138l-.12.691c-.024.086-.078.13-.161.13l-.224-.05s-.241-.049-.42-.049c-.322 0-.591.093-.808.28-.217.187-.397.459-.543.815v3.35h-.924zM85.995 430.478c.315 0 .606.053.873.158s.497.258.691.457.345.444.454.737c.109.293.164.626.164 1 0 .146-.015.242-.046.291-.031.048-.09.072-.177.072h-3.5c.007.332.052.621.135.867.083.246.197.451.343.615.145.165.318.288.519.369s.426.122.675.122c.232 0 .432-.027.6-.081.167-.053.312-.111.434-.174l.304-.174c.081-.054.151-.08.21-.08.076 0 .135.029.176.088l.26.338c-.114.139-.251.259-.41.36-.159.103-.33.187-.512.252-.182.066-.37.115-.563.148s-.386.049-.576.049c-.364 0-.699-.062-1.005-.184-.306-.123-.571-.304-.794-.54-.223-.237-.397-.531-.522-.881s-.187-.751-.187-1.205c0-.366.056-.709.169-1.028.112-.318.274-.595.485-.828.211-.233.469-.417.774-.551.302-.131.645-.197 1.026-.197zm.021.679c-.447 0-.798.129-1.055.387-.256.259-.415.616-.478 1.073h2.862c0-.215-.03-.411-.088-.59-.059-.179-.146-.332-.26-.462s-.254-.23-.418-.302c-.164-.07-.352-.106-.563-.106z"/></g><g fill="#333"><path d="M138.497 429.678v.82h-3.573v2.603h3.054v.82h-3.054v3.199h-1.013v-7.442h4.586zM143.508 437.12h-.41c-.09 0-.163-.014-.218-.042-.055-.027-.092-.086-.109-.176l-.104-.488c-.138.124-.273.236-.405.335-.132.099-.27.182-.416.249s-.3.119-.465.153-.347.052-.548.052c-.205 0-.396-.028-.574-.086s-.333-.144-.465-.258c-.131-.114-.236-.26-.314-.436-.078-.175-.117-.383-.117-.622 0-.209.057-.409.171-.603.114-.192.298-.363.553-.513.255-.149.588-.272 1-.368.412-.095.916-.143 1.511-.143v-.413c0-.411-.087-.723-.262-.933-.175-.211-.434-.316-.776-.316-.225 0-.415.028-.569.085-.154.058-.288.122-.4.192l-.291.192c-.081.058-.162.086-.241.086l-.164-.05-.112-.122-.166-.296c.291-.28.604-.49.94-.628.336-.139.708-.208 1.117-.208.294 0 .556.049.784.146s.42.231.577.405c.156.173.273.382.353.628s.119.516.119.811v3.367zm-2.4-.566c.163 0 .312-.016.447-.049s.262-.08.382-.141.234-.134.343-.221c.109-.086.215-.185.319-.296v-1.085c-.426 0-.788.026-1.085.08-.298.055-.54.125-.727.212s-.323.189-.408.309c-.085.118-.127.25-.127.396 0 .14.022.26.068.36.045.102.105.184.182.248s.166.112.27.142.215.045.336.045zM148.499 432.794l-.083.088-.12.031-.169-.064-.231-.143c-.094-.053-.207-.1-.34-.144-.133-.043-.297-.064-.491-.064-.256 0-.483.046-.68.138-.198.092-.363.224-.496.397-.133.173-.234.382-.301.628s-.101.521-.101.826c0 .318.036.602.109.849.073.248.175.455.306.623.132.168.292.297.48.385.189.088.401.133.636.133.225 0 .411-.027.556-.081.146-.054.267-.113.364-.179l.239-.18c.062-.054.125-.08.187-.08.08 0 .139.029.177.088l.26.338c-.229.28-.514.485-.857.615s-.705.194-1.085.194c-.329 0-.635-.061-.917-.182s-.527-.297-.735-.526c-.208-.23-.371-.514-.491-.85s-.179-.719-.179-1.147c0-.392.055-.753.164-1.086.109-.332.269-.619.478-.859s.468-.429.776-.563.661-.202 1.06-.202c.367 0 .692.06.976.179.284.119.535.288.753.507l-.245.331zM151.843 431.776c.315 0 .606.053.873.158s.497.258.691.457.345.444.454.737c.109.293.164.626.164 1 0 .146-.015.242-.046.291-.031.048-.09.072-.177.072h-3.5c.007.332.052.621.135.867.083.246.197.451.343.615.145.165.318.288.519.369s.426.122.675.122c.232 0 .432-.027.6-.081.167-.053.312-.111.434-.174l.304-.174c.081-.054.151-.08.21-.08.076 0 .135.029.176.088l.26.338c-.114.139-.251.259-.41.36-.159.103-.33.187-.512.252-.182.066-.37.115-.563.148s-.386.049-.576.049c-.364 0-.699-.062-1.005-.184-.306-.123-.571-.304-.794-.54-.223-.237-.397-.531-.522-.881s-.187-.751-.187-1.205c0-.366.056-.709.169-1.028.112-.318.274-.595.485-.828.211-.233.469-.417.774-.551.303-.13.645-.197 1.026-.197zm.021.68c-.447 0-.798.129-1.055.387-.256.259-.415.616-.478 1.073h2.862c0-.215-.03-.411-.088-.59-.059-.179-.146-.332-.26-.462s-.254-.23-.418-.302c-.164-.07-.352-.106-.563-.106zM155.235 437.12v-7.65h.93v3.147c.218-.253.468-.456.75-.61.282-.154.605-.23.968-.23.305 0 .58.057.826.171.246.114.455.285.628.512.173.227.306.507.4.841.093.335.14.72.14 1.156 0 .388-.052.748-.156 1.083-.104.334-.254.623-.449.867-.196.244-.435.436-.717.576s-.6.21-.953.21c-.339 0-.627-.065-.865-.197-.237-.131-.444-.314-.621-.55l-.047.478c-.028.132-.107.197-.239.197h-.595zm2.347-4.606c-.301 0-.565.069-.792.207-.227.139-.435.335-.625.587v2.545c.166.229.351.39.553.483.203.094.429.141.678.141.491 0 .869-.175 1.132-.525.263-.35.395-.848.395-1.495 0-.343-.031-.638-.091-.883-.061-.246-.148-.448-.262-.605s-.254-.272-.42-.346c-.168-.073-.357-.109-.568-.109zM163.139 431.776c.384 0 .731.063 1.041.191.31.129.573.311.79.546s.383.52.499.854c.116.334.174.707.174 1.119 0 .415-.058.789-.174 1.121-.116.333-.282.617-.499.853s-.479.416-.79.542c-.31.127-.657.189-1.041.189s-.731-.062-1.042-.189c-.31-.126-.574-.307-.792-.542s-.386-.52-.504-.853c-.118-.332-.176-.706-.176-1.121 0-.412.059-.785.176-1.119.118-.335.286-.619.504-.854s.482-.417.792-.546c.311-.127.658-.191 1.042-.191zm0 4.695c.52 0 .907-.174 1.163-.521.256-.349.385-.834.385-1.457 0-.627-.128-1.115-.385-1.465-.256-.35-.644-.524-1.163-.524-.263 0-.492.045-.686.135-.194.091-.356.221-.486.39-.13.17-.227.379-.291.626-.064.248-.096.527-.096.839s.032.591.096.836c.064.246.161.453.291.621s.292.297.486.387.423.133.686.133zM168.915 431.776c.384 0 .731.063 1.041.191.31.129.573.311.79.546s.383.52.499.854c.116.334.174.707.174 1.119 0 .415-.058.789-.174 1.121-.116.333-.282.617-.499.853s-.479.416-.79.542c-.31.127-.657.189-1.041.189s-.731-.062-1.042-.189c-.31-.126-.574-.307-.792-.542s-.386-.52-.504-.853c-.118-.332-.176-.706-.176-1.121 0-.412.059-.785.176-1.119.118-.335.286-.619.504-.854s.482-.417.792-.546c.31-.127.657-.191 1.042-.191zm0 4.695c.52 0 .907-.174 1.163-.521.256-.349.385-.834.385-1.457 0-.627-.128-1.115-.385-1.465-.256-.35-.644-.524-1.163-.524-.263 0-.492.045-.686.135-.194.091-.356.221-.486.39-.13.17-.227.379-.291.626-.064.248-.096.527-.096.839s.032.591.096.836c.064.246.161.453.291.621s.292.297.486.387.422.133.686.133zM173.521 429.47v4.503h.239l.171-.028.15-.117 1.662-1.781.156-.135c.052-.035.121-.052.208-.052h.841l-1.938 2.062-.143.156-.159.119.169.143.143.185 2.057 2.597h-.831l-.195-.044-.153-.138-1.729-2.155c-.052-.073-.104-.12-.156-.143l-.234-.034h-.259v2.514h-.93v-7.65h.931z"/></g><g fill="#333"><path d="M411.803 429.029h.837c.09 0 .164.022.223.067.06.045.099.103.12.172l1.537 5.173.075.301.064.338.073-.341.083-.298 1.75-5.173.122-.164c.061-.05.135-.075.221-.075h.291c.09 0 .164.022.221.067.058.045.098.103.122.172l1.74 5.173c.062.18.117.386.166.617l.057-.327.068-.29 1.542-5.173c.018-.062.057-.118.117-.167.061-.048.134-.072.221-.072h.784l-2.321 7.442h-.904l-1.885-5.677-.104-.374-.049.2-.05.174-1.896 5.677h-.903l-2.322-7.442zM426.48 436.472h-.41c-.09 0-.163-.014-.218-.042-.056-.027-.092-.086-.109-.176l-.104-.488c-.139.124-.273.236-.405.335s-.271.182-.416.249-.3.119-.465.153c-.164.034-.347.052-.548.052-.204 0-.396-.028-.573-.086-.179-.058-.334-.144-.465-.258-.132-.114-.236-.26-.314-.436-.078-.175-.117-.383-.117-.622 0-.209.058-.409.172-.603.114-.192.299-.363.553-.513.255-.149.588-.272 1-.368.412-.095.916-.143 1.512-.143v-.413c0-.411-.088-.723-.263-.933-.175-.211-.434-.316-.776-.316-.226 0-.415.028-.568.085-.154.058-.288.122-.4.192l-.291.192c-.081.058-.162.086-.241.086l-.164-.05-.111-.122-.166-.296c.291-.28.604-.49.939-.628.336-.139.708-.208 1.117-.208.294 0 .556.049.784.146s.421.231.576.405c.156.173.273.382.354.628.079.246.119.516.119.811v3.367zm-2.399-.567c.163 0 .312-.016.447-.049s.262-.08.381-.141c.12-.061.234-.134.343-.221.109-.086.216-.185.32-.296v-1.085c-.427 0-.788.026-1.086.08-.298.055-.54.125-.728.212-.187.087-.322.189-.407.309-.085.118-.127.25-.127.396 0 .14.022.26.067.36.045.102.105.184.182.248s.166.112.271.142c.104.031.216.045.337.045zM428.911 428.821v7.65h-.924v-7.65h.924zM431.503 428.821v4.503h.239l.171-.028.151-.117 1.662-1.781.155-.135c.052-.035.121-.052.208-.052h.841l-1.937 2.062-.144.156-.158.119.169.143.143.185 2.057 2.597h-.831l-.194-.044-.153-.138-1.729-2.155c-.052-.073-.104-.12-.155-.143l-.234-.034h-.26v2.514h-.93v-7.65h.929zM435.746 432.966h2.565v.784h-2.565v-.784zM440.825 429.559c0 .091-.018.175-.055.252-.036.078-.085.147-.146.208l-.21.143c-.08.035-.164.053-.255.053-.09 0-.174-.018-.251-.053-.078-.034-.147-.082-.208-.143l-.143-.208c-.035-.077-.053-.161-.053-.252 0-.09.018-.175.053-.257.034-.081.082-.152.143-.213l.208-.143c.077-.035.161-.052.251-.052.091 0 .175.017.255.052.08.034.149.082.21.143l.146.213c.038.082.055.167.055.257zm-.208 1.652v5.261h-.924v-5.261h.924zM442.248 436.472v-5.261h.551c.132 0 .215.063.249.191l.073.571c.229-.252.483-.457.766-.612.282-.156.608-.233.979-.233.287 0 .541.047.761.143.22.095.403.23.551.405.146.175.259.385.335.631s.114.518.114.815v3.35h-.925v-3.35c0-.398-.091-.707-.272-.928-.182-.22-.46-.329-.834-.329-.273 0-.528.065-.766.197s-.456.31-.657.535v3.874h-.925z"/></g><g fill="#333"><path d="M468.067 429.029h.837c.09 0 .164.022.223.067.06.045.099.103.12.172l1.537 5.173.075.301.064.338.073-.341.083-.298 1.75-5.173.122-.164c.061-.05.135-.075.221-.075h.291c.09 0 .164.022.221.067.058.045.098.103.122.172l1.74 5.173c.062.18.117.386.166.617l.057-.327.068-.29 1.542-5.173c.018-.062.057-.118.117-.167.061-.048.134-.072.221-.072h.784l-2.321 7.442h-.904l-1.885-5.677-.104-.374-.049.2-.05.174-1.896 5.677h-.903l-2.322-7.442zM481.255 431.128c.315 0 .605.053.873.158.267.105.496.258.69.457.193.199.346.444.454.737.109.293.164.626.164 1 0 .146-.016.242-.047.291-.031.048-.09.072-.177.072h-3.5c.007.332.052.621.135.867s.197.451.343.615c.146.165.318.288.52.369.2.081.426.122.675.122.232 0 .432-.027.6-.081.168-.053.312-.111.434-.174l.304-.174c.082-.054.152-.08.211-.08.076 0 .135.029.177.088l.26.338c-.114.139-.252.259-.411.36-.159.103-.329.187-.511.252-.183.066-.37.115-.563.148-.194.033-.387.049-.577.049-.363 0-.698-.062-1.005-.184-.307-.123-.571-.304-.795-.54-.223-.237-.396-.531-.521-.881s-.187-.751-.187-1.205c0-.366.056-.709.168-1.028.113-.318.274-.595.486-.828.211-.233.469-.417.773-.551.303-.131.646-.197 1.027-.197zm.02.68c-.446 0-.798.129-1.054.387-.257.259-.416.616-.479 1.073h2.862c0-.215-.029-.411-.089-.59-.059-.179-.146-.332-.26-.462s-.253-.23-.418-.302c-.162-.07-.35-.106-.562-.106zM484.646 436.472v-7.65h.93v3.147c.219-.253.469-.456.751-.61s.604-.23.969-.23c.305 0 .579.057.825.171s.455.285.629.512c.173.227.307.507.399.841.094.335.141.72.141 1.156 0 .388-.052.748-.156 1.083-.104.334-.253.623-.449.867-.195.244-.435.436-.717.576s-.6.21-.953.21c-.339 0-.627-.065-.864-.197-.237-.131-.444-.314-.621-.55l-.046.478c-.028.132-.107.197-.239.197h-.599zm2.347-4.607c-.301 0-.565.069-.792.207-.227.139-.436.335-.626.587v2.545c.167.229.351.39.554.483.202.094.428.141.678.141.491 0 .869-.175 1.132-.525.264-.35.395-.848.395-1.495 0-.343-.03-.638-.091-.883-.061-.246-.147-.448-.262-.605s-.255-.272-.421-.346c-.166-.073-.356-.109-.567-.109z"/></g><g fill="#333"><path d="M234.863 433.827l.106.277.109-.277.13-.268 2.519-4.576c.045-.079.092-.128.14-.145l.208-.026h.743v7.442h-.883v-5.469l.005-.233.016-.255-2.55 4.653c-.087.156-.208.233-.364.233h-.146c-.156 0-.277-.077-.363-.233l-2.607-4.669.023.265.008.239v5.469h-.883v-7.442h.743l.208.026c.048.017.095.065.14.145l2.571 4.581.127.263zM242.615 430.911c.384 0 .731.063 1.041.191.31.129.573.311.79.546s.383.52.499.854c.116.334.174.707.174 1.119 0 .415-.058.789-.174 1.121-.116.333-.282.617-.499.853s-.479.416-.79.542c-.31.127-.657.189-1.041.189s-.731-.062-1.042-.189c-.31-.126-.574-.307-.792-.542s-.386-.52-.504-.853c-.118-.332-.176-.706-.176-1.121 0-.412.059-.785.176-1.119.118-.335.286-.619.504-.854s.482-.417.792-.546c.31-.127.657-.191 1.042-.191zm0 4.694c.52 0 .907-.174 1.163-.521.256-.349.385-.834.385-1.457 0-.627-.128-1.115-.385-1.465-.256-.35-.644-.524-1.163-.524-.263 0-.492.045-.686.135-.194.091-.356.221-.486.39-.13.17-.227.379-.291.626-.064.248-.096.527-.096.839s.032.591.096.836c.064.246.161.453.291.621s.292.297.486.387.423.133.686.133zM246.292 436.255v-7.65h.93v3.147c.218-.253.468-.456.75-.61.282-.154.605-.23.968-.23.305 0 .58.057.826.171.246.114.455.285.628.512.173.227.306.507.4.841.093.335.14.72.14 1.156 0 .388-.052.748-.156 1.083-.104.334-.254.623-.449.867-.196.244-.435.436-.717.576s-.6.21-.953.21c-.339 0-.627-.065-.865-.197-.237-.131-.444-.314-.621-.55l-.047.478c-.028.132-.107.197-.239.197h-.595zm2.347-4.607c-.301 0-.565.069-.792.207-.227.139-.435.335-.625.587v2.545c.166.229.351.39.553.483.203.094.429.141.678.141.491 0 .869-.175 1.132-.525.263-.35.395-.848.395-1.495 0-.343-.031-.638-.091-.883-.061-.246-.148-.448-.262-.605s-.254-.272-.42-.346c-.168-.072-.356-.109-.568-.109zM253.303 429.342c0 .091-.018.175-.054.252l-.146.208-.21.143c-.08.035-.165.053-.254.053-.09 0-.174-.018-.252-.053-.078-.034-.147-.082-.208-.143-.061-.061-.108-.13-.143-.208-.035-.077-.052-.161-.052-.252 0-.09.017-.175.052-.257.035-.081.082-.152.143-.213.061-.061.13-.108.208-.143.078-.035.162-.052.252-.052s.175.017.254.052c.08.034.15.082.21.143l.146.213c.036.082.054.167.054.257zm-.208 1.652v5.261h-.924v-5.261h.924z"/></g><g fill="#333"><path d="M276.845 433.039v2.784h-1.002v-7.442h2.197c.471 0 .881.055 1.229.164.348.108.637.264.865.464.229.201.398.443.511.728.113.284.169.601.169.95 0 .347-.061.663-.182.951-.121.287-.299.534-.532.742s-.523.37-.87.485c-.346.116-.742.174-1.189.174h-1.196zm0-.8h1.194c.288 0 .541-.038.761-.114.221-.076.404-.183.554-.319.148-.137.262-.3.338-.49.075-.19.114-.4.114-.629 0-.474-.146-.845-.439-1.111-.292-.267-.734-.399-1.327-.399h-1.194v3.062zM281.939 435.823v-7.65h.925v3.096c.226-.239.475-.431.748-.574s.589-.215.945-.215c.287 0 .541.047.761.143.22.095.403.23.551.405.146.175.259.385.335.631s.114.518.114.815v3.35h-.925v-3.35c0-.398-.091-.707-.272-.928-.182-.22-.46-.329-.834-.329-.273 0-.528.065-.766.197s-.456.31-.657.535v3.874h-.925zM289.845 430.479c.384 0 .731.063 1.041.191.311.129.573.311.79.546.216.235.382.52.498.854.116.334.174.707.174 1.119 0 .415-.058.789-.174 1.121-.116.333-.282.617-.498.853-.217.235-.479.416-.79.542-.31.127-.657.189-1.041.189-.385 0-.731-.062-1.041-.189-.311-.126-.574-.307-.792-.542-.219-.235-.387-.52-.504-.853-.118-.332-.177-.706-.177-1.121 0-.412.059-.785.177-1.119.117-.335.285-.619.504-.854.218-.235.481-.417.792-.546.309-.127.656-.191 1.041-.191zm0 4.695c.52 0 .907-.174 1.163-.521.257-.349.385-.834.385-1.457 0-.627-.128-1.115-.385-1.465-.256-.35-.644-.524-1.163-.524-.264 0-.492.045-.686.135-.194.091-.355.221-.485.39-.13.17-.228.379-.291.626-.064.248-.097.527-.097.839s.032.591.097.836c.063.246.161.453.291.621s.291.297.485.387c.194.088.422.133.686.133zM293.49 435.823v-5.261h.551c.132 0 .215.063.249.191l.073.571c.229-.252.483-.457.766-.612.282-.156.608-.233.979-.233.287 0 .541.047.761.143.22.095.403.23.551.405.146.175.259.385.335.631s.114.518.114.815v3.35h-.925v-3.35c0-.398-.091-.707-.272-.928-.182-.22-.46-.329-.834-.329-.273 0-.528.065-.766.197s-.456.31-.657.535v3.874h-.925zM301.349 430.479c.315 0 .605.053.873.158.267.105.496.258.69.457.193.199.346.444.454.737.109.293.164.626.164 1 0 .146-.016.242-.047.291-.031.048-.09.072-.177.072h-3.5c.007.332.052.621.135.867s.197.451.343.615c.146.165.318.288.52.369.2.081.426.122.675.122.232 0 .432-.027.6-.081.168-.053.312-.111.434-.174l.304-.174c.082-.054.152-.08.211-.08.076 0 .135.029.177.088l.26.338c-.114.139-.252.259-.411.36-.159.103-.329.187-.511.252-.183.066-.37.115-.563.148-.194.033-.387.049-.577.049-.363 0-.698-.062-1.005-.184-.307-.123-.571-.304-.795-.54-.223-.237-.396-.531-.521-.881s-.187-.751-.187-1.205c0-.366.056-.709.168-1.028.113-.318.274-.595.486-.828.211-.233.469-.417.773-.551.303-.13.646-.197 1.027-.197zm.02.68c-.446 0-.798.129-1.054.387-.257.259-.416.616-.479 1.073h2.862c0-.215-.029-.411-.089-.59-.059-.179-.146-.332-.26-.462s-.253-.23-.418-.302c-.162-.07-.35-.106-.562-.106z"/></g><g fill="#333"><path d="M326.833 433.039v2.784h-1.002v-7.442h2.196c.471 0 .881.055 1.229.164.348.108.637.264.865.464.229.201.398.443.511.728.113.284.169.601.169.95 0 .347-.061.663-.182.951-.121.287-.299.534-.532.742s-.523.37-.87.485c-.346.116-.742.174-1.189.174h-1.195zm0-.8h1.194c.288 0 .541-.038.761-.114.221-.076.404-.183.554-.319.148-.137.262-.3.338-.49.075-.19.114-.4.114-.629 0-.474-.146-.845-.439-1.111-.292-.267-.734-.399-1.327-.399h-1.194v3.062zM333.901 430.479c.384 0 .731.063 1.041.191.311.129.573.311.79.546.216.235.382.52.498.854.116.334.174.707.174 1.119 0 .415-.058.789-.174 1.121-.116.333-.282.617-.498.853-.217.235-.479.416-.79.542-.31.127-.657.189-1.041.189-.385 0-.731-.062-1.041-.189-.311-.126-.574-.307-.792-.542-.219-.235-.387-.52-.504-.853-.118-.332-.177-.706-.177-1.121 0-.412.059-.785.177-1.119.117-.335.285-.619.504-.854.218-.235.481-.417.792-.546.31-.127.657-.191 1.041-.191zm0 4.695c.52 0 .907-.174 1.163-.521.257-.349.385-.834.385-1.457 0-.627-.128-1.115-.385-1.465-.256-.35-.644-.524-1.163-.524-.264 0-.492.045-.686.135-.194.091-.355.221-.485.39-.13.17-.228.379-.291.626-.064.248-.097.527-.097.839s.032.591.097.836c.063.246.161.453.291.621s.291.297.485.387c.194.088.423.133.686.133zM340.56 431.43c-.042.076-.105.114-.192.114l-.177-.058-.241-.127-.34-.13c-.132-.04-.288-.06-.468-.06-.155 0-.296.02-.421.06-.124.04-.23.095-.319.164-.088.069-.155.149-.202.241s-.07.191-.07.299c0 .135.039.247.117.337.078.091.181.168.309.234.128.065.273.123.437.174l.501.161c.172.057.339.12.501.189.163.069.309.155.437.26.128.104.231.23.31.382.077.15.116.331.116.542 0 .243-.043.467-.13.673-.086.206-.215.385-.384.535-.17.15-.378.27-.624.355-.245.087-.529.13-.852.13-.367 0-.699-.06-.997-.179-.298-.12-.551-.273-.758-.46l.218-.354.099-.104.15-.036c.062 0 .128.024.197.072l.252.161.358.161c.141.049.316.072.527.072.18 0 .338-.023.473-.069.135-.047.248-.11.338-.19.09-.079.156-.171.2-.274.043-.104.064-.215.064-.333 0-.146-.039-.266-.117-.36-.077-.096-.181-.177-.309-.244s-.274-.127-.438-.177l-.504-.158c-.172-.056-.34-.119-.504-.189-.165-.071-.311-.16-.439-.268-.128-.107-.23-.24-.309-.397-.078-.158-.117-.349-.117-.574 0-.2.042-.394.125-.579s.204-.348.363-.488.355-.252.587-.335c.232-.083.497-.124.795-.124.346 0 .657.054.933.163.274.109.513.259.714.449l-.209.339zM343.649 435.906c-.415 0-.734-.116-.958-.348-.224-.232-.335-.566-.335-1.003v-3.22h-.634l-.14-.049c-.039-.033-.058-.084-.058-.153v-.369l.862-.109.213-1.625.067-.128.146-.049h.468v1.812h1.506v.67h-1.506v3.158c0 .221.053.386.16.493s.246.161.416.161l.252-.039.185-.086.132-.086.097-.039c.048 0 .092.03.13.089l.27.441c-.159.148-.352.266-.576.351-.226.086-.457.128-.697.128z"/></g><g fill="#333"><path d="M375.416 429.544l-.099.117-.135.039c-.06 0-.128-.029-.205-.089l-.297-.194c-.119-.071-.263-.136-.431-.194-.168-.06-.371-.089-.61-.089-.225 0-.424.03-.597.091-.174.061-.318.143-.435.247-.115.104-.203.226-.262.366-.059.14-.089.291-.089.454 0 .208.052.38.153.517.103.137.237.254.405.351.168.098.358.182.571.252l.654.221c.224.076.441.162.654.257.213.096.403.216.571.361s.304.324.405.535c.103.211.153.471.153.779 0 .325-.056.631-.166.916-.111.286-.272.534-.485.745-.213.212-.475.378-.784.499-.311.121-.662.182-1.058.182-.481 0-.92-.087-1.316-.262s-.734-.411-1.016-.709l.291-.479.102-.096.133-.039c.072 0 .155.039.249.117l.351.257c.14.094.31.179.509.257s.442.117.729.117c.239 0 .452-.033.639-.099.188-.065.346-.158.476-.278.13-.119.229-.262.299-.428.069-.167.104-.352.104-.557 0-.225-.051-.409-.153-.553-.102-.144-.236-.264-.402-.361-.166-.097-.355-.179-.568-.246l-.654-.208c-.224-.07-.441-.153-.654-.246-.213-.094-.403-.215-.569-.364-.166-.148-.3-.335-.402-.558-.103-.224-.153-.5-.153-.829 0-.263.051-.518.153-.764.103-.245.25-.464.444-.654.193-.19.434-.343.719-.457.286-.114.614-.171.984-.171.416 0 .795.065 1.138.197s.642.322.898.571l-.244.479zM380.897 433.396l.106.277.109-.277.13-.268 2.519-4.576c.045-.079.092-.128.141-.145l.207-.026h.743v7.442h-.883v-5.469l.005-.233.016-.255-2.55 4.653c-.087.156-.208.233-.364.233h-.145c-.156 0-.277-.077-.364-.233l-2.606-4.669.022.265.008.239v5.469h-.883v-7.442h.743l.208.026c.048.017.095.065.14.145l2.571 4.581.127.263zM390.478 429.544l-.099.117-.135.039c-.06 0-.128-.029-.205-.089l-.297-.194c-.119-.071-.263-.136-.431-.194-.168-.06-.371-.089-.61-.089-.225 0-.424.03-.597.091-.174.061-.318.143-.435.247-.115.104-.203.226-.262.366-.059.14-.089.291-.089.454 0 .208.052.38.153.517.103.137.237.254.405.351.168.098.358.182.571.252l.654.221c.224.076.441.162.654.257.213.096.403.216.571.361s.304.324.405.535c.103.211.153.471.153.779 0 .325-.056.631-.166.916-.111.286-.272.534-.485.745-.213.212-.475.378-.784.499-.311.121-.662.182-1.058.182-.481 0-.92-.087-1.316-.262s-.734-.411-1.016-.709l.291-.479.102-.096.133-.039c.072 0 .155.039.249.117l.351.257c.14.094.31.179.509.257s.442.117.729.117c.239 0 .452-.033.639-.099.188-.065.346-.158.476-.278.13-.119.229-.262.299-.428.069-.167.104-.352.104-.557 0-.225-.051-.409-.153-.553-.102-.144-.236-.264-.402-.361-.166-.097-.355-.179-.568-.246l-.654-.208c-.224-.07-.441-.153-.654-.246-.213-.094-.403-.215-.569-.364-.166-.148-.3-.335-.402-.558-.103-.224-.153-.5-.153-.829 0-.263.051-.518.153-.764.103-.245.25-.464.444-.654.193-.19.434-.343.719-.457.286-.114.614-.171.984-.171.416 0 .795.065 1.138.197s.642.322.898.571l-.244.479z"/></g><g fill="#333"><path d="M193.86 428.812v.82h-3.573v2.603h3.054v.82h-3.054v3.199h-1.013v-7.442h4.586zM198.871 436.255h-.41c-.09 0-.163-.014-.218-.042-.055-.027-.092-.086-.109-.176l-.104-.488c-.138.124-.273.236-.405.335-.132.099-.27.182-.416.249s-.3.119-.465.153-.347.052-.548.052c-.205 0-.396-.028-.574-.086s-.333-.144-.465-.258c-.131-.114-.236-.26-.314-.436-.078-.175-.117-.383-.117-.622 0-.209.057-.409.171-.603.114-.192.298-.363.553-.513.255-.149.588-.272 1-.368.412-.095.916-.143 1.511-.143v-.413c0-.411-.087-.723-.262-.933-.175-.211-.434-.316-.776-.316-.225 0-.415.028-.569.085-.154.058-.288.122-.4.192l-.291.192c-.081.058-.162.086-.241.086l-.164-.05-.112-.122-.166-.296c.291-.28.604-.49.94-.628.336-.139.708-.208 1.117-.208.294 0 .556.049.784.146s.42.231.577.405c.156.173.273.382.353.628s.119.516.119.811v3.367zm-2.399-.567c.163 0 .312-.016.447-.049s.262-.08.382-.141.234-.134.343-.221c.109-.086.215-.185.319-.296v-1.085c-.426 0-.788.026-1.085.08-.298.055-.54.125-.727.212s-.323.189-.408.309c-.085.118-.127.25-.127.396 0 .14.022.26.068.36.045.102.105.184.182.248s.166.112.27.142.215.045.336.045zM201.504 433.56l-1.771-2.565h.888l.166.036.093.104 1.288 1.974c.031-.097.076-.193.135-.291l1.132-1.661.104-.117.13-.044h.852l-1.771 2.514 1.843 2.747h-.888c-.076 0-.136-.02-.179-.06l-.106-.133-1.325-2.062c-.024.101-.061.19-.109.27l-1.226 1.792-.112.133-.164.06h-.826l1.846-2.697z"/></g><g fill="#333"><path d="M101.662 429.245v.82h-3.573v2.473h2.893v.789h-2.893v2.54h3.573v.82h-4.586v-7.442h4.586zM102.726 433.182h2.565v.784h-2.565v-.784zM106.569 436.688v-5.261h.55c.132 0 .215.063.25.191l.067.541c.194-.239.411-.435.652-.587s.52-.229.839-.229c.356 0 .645.099.865.296.22.197.378.464.475.8.073-.19.169-.355.288-.494.12-.138.254-.252.403-.343.149-.09.307-.155.475-.197.168-.041.338-.062.512-.062.277 0 .523.044.74.132.216.089.4.218.551.387.15.17.266.379.345.626.08.248.12.531.12.85v3.35h-.925v-3.35c0-.412-.09-.725-.27-.938-.18-.213-.441-.319-.784-.319-.152 0-.297.026-.434.08s-.257.133-.361.236c-.104.104-.186.234-.247.393-.061.157-.091.34-.091.548v3.35h-.925v-3.35c0-.423-.085-.737-.254-.945s-.417-.312-.743-.312c-.229 0-.44.062-.636.185-.196.122-.375.29-.538.501v3.921h-.924zM118.96 436.688h-.41c-.09 0-.163-.014-.218-.042-.055-.027-.092-.086-.109-.176l-.104-.488c-.138.124-.273.236-.405.335-.132.099-.27.182-.416.249s-.3.119-.465.153-.347.052-.548.052c-.205 0-.396-.028-.574-.086s-.333-.144-.465-.258c-.131-.114-.236-.26-.314-.436-.078-.175-.117-.383-.117-.622 0-.209.057-.409.171-.603.114-.192.298-.363.553-.513.255-.149.588-.272 1-.368.412-.095.916-.143 1.511-.143v-.413c0-.411-.087-.723-.262-.933-.175-.211-.434-.316-.776-.316-.225 0-.415.028-.569.085-.154.058-.288.122-.4.192l-.291.192c-.081.058-.162.086-.241.086l-.164-.05-.112-.122-.166-.296c.291-.28.604-.49.94-.628.336-.139.708-.208 1.117-.208.294 0 .556.049.784.146s.42.231.577.405c.156.173.273.382.353.628s.119.516.119.811v3.367zm-2.399-.567c.163 0 .312-.016.447-.049s.262-.08.382-.141.234-.134.343-.221c.109-.086.215-.185.319-.296v-1.085c-.426 0-.788.026-1.085.08-.298.055-.54.125-.727.212s-.323.189-.408.309c-.085.118-.127.25-.127.396 0 .14.022.26.068.36.045.102.105.184.182.248s.166.112.27.142.215.045.336.045zM121.599 429.774c0 .091-.018.175-.054.252l-.146.208-.21.143c-.08.035-.165.053-.254.053-.09 0-.174-.018-.252-.053-.078-.034-.147-.082-.208-.143-.061-.061-.108-.13-.143-.208-.035-.077-.052-.161-.052-.252 0-.09.017-.175.052-.257.035-.081.082-.152.143-.213.061-.061.13-.108.208-.143.078-.035.162-.052.252-.052s.175.017.254.052c.08.034.15.082.21.143l.146.213c.036.083.054.168.054.257zm-.208 1.653v5.261h-.924v-5.261h.924zM124.05 429.037v7.65h-.924v-7.65h.924z"/></g><circle fill="#ED1C24" cx="435.98" cy="358.736" r="3.144"/><path fill-rule="evenodd" clip-rule="evenodd" fill="#ED1C24" d="M434.903 369.199c-1.685 2.277-2.031 4.463.07 6.781 2.506 2.758 2.919 6.291 3.241 9.818.076.852-.14 1.572-1.041 1.801-.962.248-1.646-.229-1.916-1.137-.31-1.037-.649-2.102-.699-3.168-.122-2.432-1.508-4.09-3.028-5.771-1.148-1.27-1.79-.893-2.242.467-.867 2.605-1.776 5.182-3.34 7.479-.72 1.059-1.424 2.135-2.424 2.949-.642.523-1.428.703-2.123.166-.661-.506-.562-1.27-.23-1.928.52-1.025 1.032-2.072 1.702-2.998 2.033-2.828 2.521-6.08 2.764-9.414.147-2.012.927-3.838 1.664-5.674.35-.865.844-1.686.88-2.678-2.237.27-2.965 1.035-3.602 3.723-.281 1.189-.216 3.047-1.993 2.58-1.631-.426-.715-2.119-.616-3.283.381-4.375 3.759-5.902 7.127-7.422 2.795-.787 5.078.455 7.321 1.848 1.303.859 1.986 2.219 2.445 3.58.607 1.805 1.802 2.783 3.435 3.551.949.449 2.606.928 1.98 2.301-.621 1.359-2 .424-3.04.043-1.799-.654-3.092-1.553-4.494-3.229-.429-.516-.943-1.613-1.841-.385z"/><path fill-rule="evenodd" clip-rule="evenodd" fill="#929292" d="M416.143 392.268c-1.005-.289-2.858.027-2.932-1.732-.066-1.584 1.607-1.734 2.865-1.93 1.945-.299 3.771.477 3.878 1.592.111 1.181-1.464 2.095-3.811 2.07z"/><path fill-rule="evenodd" clip-rule="evenodd" fill="#939393" d="M429.682 389.703c-1.232-.217-3.198.158-3.162-1.77.035-1.771 1.907-1.787 3.291-1.787 1.375.002 3.318-.004 3.351 1.691.034 1.907-1.941 1.763-3.48 1.866zM443.497 390.793c-.565-.037-.888-.037-1.202-.084-1.189-.178-2.5-.492-2.403-1.941.088-1.34 1.396-1.471 2.51-1.514.959-.041 1.95-.152 2.838.281.675.33 1.477.725 1.38 1.654-.084.793-.784 1.141-1.474 1.332-.612.167-1.255.209-1.649.272z"/><g fill-rule="evenodd" clip-rule="evenodd"><path fill="#ED1C24" d="M196.612 373.355h-5.293c-.953-.002-1.562-.508-1.59-1.309-.025-.834.576-1.361 1.59-1.363 3.591-.004 7.185-.004 10.775.002.921 0 1.512.512 1.531 1.299.021.799-.604 1.367-1.531 1.369-1.827.006-3.656.002-5.482.002zM196.463 350.361c-2.064 0-4.126-.008-6.193.01-.405.006-.562-.088-.556-.527.028-1.506.025-3.01.003-4.516-.005-.404.135-.504.52-.504 4.149.012 8.298.012 12.446 0 .386 0 .525.104.521.504-.018 1.502-.02 3.008.005 4.512.005.43-.142.537-.556.531-2.065-.017-4.127-.01-6.19-.01z"/><path fill="#fff" d="M200.299 353.012c1.655.002 3.309-.01 4.963.006.9.008 1.542.506 1.723 1.27.177.762-.19 1.535-.893 1.887-.278.137-.573.18-.875.18-3.267.004-6.53.012-9.794 0-.974-.004-1.653-.514-1.828-1.312-.167-.752.226-1.537.931-1.869.321-.152.661-.16 1.006-.16 1.59-.002 3.177-.002 4.767-.002zm.054 2.406c1.499 0 3.003-.01 4.504.004.53.002.913-.182.908-.75-.006-.521-.351-.725-.862-.725-3.025.008-6.051.006-9.076 0-.353 0-.645.09-.794.426-.241.537.137 1.033.813 1.039 1.502.012 3.003.004 4.507.006zM205.138 364.83c.449 0 .9.012 1.352-.006.343-.014.561.02.551.469-.005.4-.125.516-.515.508-.943-.023-1.89-.021-2.83 0-.389.01-.525-.104-.53-.506-.004-.438.209-.486.558-.471.469.02.941.006 1.414.006zM205.098 361.131c-.492 0-.984-.014-1.474.008-.351.016-.438-.133-.437-.455 0-.332.066-.508.459-.498.981.023 1.966.021 2.949 0 .351-.006.429.137.432.455.002.336-.064.52-.454.498-.489-.026-.984-.008-1.475-.008zM205.125 359.264c-.515 0-1.029-.016-1.542.006-.329.014-.399-.139-.393-.424.01-.277.008-.496.397-.488 1.03.021 2.06.02 3.087 0 .37-.004.345.215.345.461.003.248.016.467-.35.451-.515-.026-1.029-.006-1.544-.006zM205.063 363.93c-.428 0-.856-.01-1.287.004-.347.01-.604.016-.599-.48.006-.469.248-.449.565-.447.922.01 1.844.018 2.767-.004.362-.008.522.053.525.48.002.465-.231.461-.559.451-.47-.012-.942-.004-1.412-.004z"/><path fill="#ED1C24" d="M200.353 355.416c-1.504 0-3.005.008-4.507-.004-.677-.006-1.055-.502-.813-1.039.149-.336.441-.426.794-.426 3.025.006 6.051.008 9.076 0 .512 0 .856.203.862.725.005.568-.378.752-.908.75-1.502-.014-3.005-.004-4.504-.006z"/></g><path fill="#fff" d="M193.566 358.406h1.486v1.354h-1.486zM195.471 358.406h1.581v1.354h-1.581zM197.502 358.406h1.615v1.354h-1.615zM199.536 358.406h1.483v1.354h-1.483zM193.536 360.246h1.483v1.354h-1.483zM195.438 360.246h1.582v1.354h-1.582zM197.472 360.246h1.61v1.354h-1.61zM199.633 360.246h1.485v1.354h-1.485zM193.6 362.115h1.483v1.355h-1.483zM195.503 362.115h1.581v1.355h-1.581zM197.535 362.115h1.614v1.355h-1.614zM199.569 362.115h1.483v1.355h-1.483zM193.6 364.02h1.483v1.355h-1.483zM195.503 364.02h1.581v1.355h-1.581zM197.535 364.02h1.614v1.355h-1.614zM199.569 364.02h1.483v1.355h-1.483z"/></svg>