<svg xmlns="http://www.w3.org/2000/svg" width="141.732" height="76.536" viewBox="0 0 141.732 76.536"><path fill="#fff" d="M94.896 3.956c-16.943 3.99-30.854 22.577-25.135 43.689 5.354 19.759 25.289 29.983 43.604 25.12 17.96-4.771 30.657-23.548 25.241-43.718-5.62-20.936-26.924-30.221-43.71-25.091zM53.033 40.918c-5.916 1.189-9.267 7.648-7.85 12.948 1.577 5.89 7.393 9.409 13.159 7.896 5.743-1.507 9.297-7.606 7.707-13.312-1.792-6.426-8.738-9.065-13.016-7.532zM38.076 56.092c-1.036-3.959-5.034-6.372-8.93-5.388-4.077 1.029-6.559 5.042-5.577 9.022.982 3.983 5.129 6.485 9.09 5.486 4.013-1.011 6.46-5.131 5.417-9.12zM10.075 63.621c-.577-2.288-2.713-3.623-4.934-3.085-2.166.527-3.653 2.846-3.192 4.98.466 2.157 3.046 3.733 5.17 3.159 2.17-.587 3.506-2.873 2.956-5.054z"/><path fill-rule="evenodd" clip-rule="evenodd" fill="#ED1C24" d="M94.896 3.956c16.786-5.13 38.09 4.156 43.71 25.091 5.416 20.17-7.281 38.947-25.241 43.718-18.314 4.863-38.25-5.361-43.604-25.12-5.719-21.113 8.192-39.7 25.135-43.689zm8.274 15.677c-1.364.518-2.54 1.051-3.767 1.406-1.222.353-2.492.537-3.746.78-9.377 1.821-14.462 11.869-9.28 20.775.637 1.094.522 1.801-.04 2.749-1.761 2.98-3.479 5.988-5.196 8.994-.335.585-.666 1.19-.872 1.829-.586 1.812.155 3.776 1.738 4.793 1.577 1.013 3.688.86 5.063-.492.666-.655 1.215-1.458 1.694-2.267 1.562-2.625 3.062-5.287 4.6-7.927.299-.513.656-.991.755-1.136 3.029-.119 5.697-.225 8.559-.336-.103-.094.051-.021.085.088.413 1.289.795 2.588 1.21 3.875.97 3.016 2.872 4.069 5.947 3.253 6.429-1.709 12.856-3.433 19.277-5.173 3.228-.875 4.29-2.73 3.438-5.917-1.86-6.952-3.728-13.901-5.594-20.851-.527-1.967-1.025-3.943-1.595-5.897-.528-1.816-1.853-2.886-3.702-2.926-.933-.02-1.883.149-2.807.327-.92.177-1.818.472-2.692.707-1.375-1.744-2.947-1.998-4.838-1.346-1.602.551-3.253.998-4.914 1.316-1.923.369-3.005 1.43-3.323 3.376zM53.033 40.918c4.278-1.533 11.225 1.105 13.017 7.533 1.59 5.706-1.964 11.805-7.707 13.312-5.767 1.513-11.582-2.007-13.159-7.896-1.418-5.301 1.933-11.76 7.849-12.949zM38.076 56.092c1.043 3.988-1.403 8.108-5.417 9.12-3.961.999-8.107-1.503-9.09-5.486-.981-3.979 1.5-7.993 5.577-9.022 3.896-.983 7.894 1.429 8.93 5.388zM10.075 63.621c.55 2.182-.786 4.468-2.956 5.055-2.124.574-4.704-1.002-5.17-3.159-.461-2.135 1.026-4.453 3.192-4.98 2.221-.539 4.357.796 4.934 3.084z"/><path fill-rule="evenodd" clip-rule="evenodd" fill="#fff" d="M103.17 19.633c.317-1.946 1.399-3.007 3.324-3.375 1.661-.318 3.312-.766 4.914-1.316 1.891-.652 3.463-.398 4.838 1.346.874-.234 1.772-.529 2.692-.707.924-.178 1.874-.347 2.807-.327 1.85.04 3.174 1.11 3.702 2.926.569 1.955 1.067 3.93 1.595 5.897 1.866 6.949 3.733 13.899 5.594 20.851.852 3.187-.211 5.042-3.438 5.917-6.421 1.741-12.849 3.464-19.277 5.173-3.075.816-4.978-.237-5.947-3.253-.415-1.288-.797-2.587-1.21-3.875-.034-.11-.188-.182-.085-.088-2.861.111-5.529.217-8.559.336-.099.145-.456.623-.755 1.136-1.538 2.64-3.038 5.302-4.6 7.927-.479.809-1.028 1.611-1.694 2.267-1.376 1.353-3.486 1.505-5.063.492-1.583-1.017-2.324-2.98-1.738-4.793.206-.639.537-1.244.872-1.829 1.718-3.006 3.436-6.014 5.196-8.994.562-.947.677-1.654.04-2.749-5.182-8.906-.097-18.954 9.28-20.775 1.254-.243 2.524-.427 3.746-.78 1.226-.356 2.402-.889 3.766-1.407zm6.135 7.586c1.256-.139 2.395-.39 3.523-.356 1.383.042 2.468 1.2 2.5 2.475.027 1.037-.475 2.489-1.988 2.667-.522.06-1.028.263-1.607.418.026.611.021 1.076.076 1.534.038.32.16.632.27 1.04.803-.142 1.521-.343 2.248-.382 1.589-.086 2.865.93 3.082 2.361.217 1.437-.509 2.445-2.162 2.935-1.039.309-2.079.654-3.146.83-1.407.231-2.014 1.058-2.28 2.5 2.064-.554 3.949-1.12 5.863-1.556 1.771-.403 3.102.378 3.508 1.909.407 1.533-.354 2.865-2.1 3.397-2.074.63-4.175 1.19-6.285 1.687-1.535.36-2.547-.206-3.308-1.643l-.442-.87c-1.804.975-1.814.978-1.411 2.634.239.987.497 1.974.793 2.946.567 1.864 1.119 2.202 2.986 1.707 6.357-1.685 12.709-3.391 19.057-5.111 1.684-.457 2.059-1.096 1.766-2.815-.067-.399-.188-.792-.293-1.184-2.09-7.794-4.18-15.588-6.273-23.38-.141-.522-.273-1.053-.477-1.553-.553-1.357-1.25-1.799-2.697-1.535-1.188.215-2.344.606-3.452.904-.312 3.044-.745 3.553-3.544 4.311l-2.357.634-4.023 1.079c.906 1.006 1.573 1.747 2.173 2.417zm-8.705 17.73c4.438-.98 8.502-5.784 7.094-11.978-1.194-5.251-6.951-8.564-12.135-7.174-5.264 1.412-8.255 6.712-7.054 12 1.085 4.777 6.738 8.783 12.095 7.152z"/><path fill-rule="evenodd" clip-rule="evenodd" fill="#ED1C24" d="M109.305 27.219c-.601-.67-1.268-1.411-2.175-2.417l4.023-1.079 2.357-.634c2.799-.758 3.231-1.266 3.544-4.311 1.108-.297 2.264-.688 3.452-.904 1.447-.264 2.145.178 2.697 1.535.203.5.336 1.03.477 1.553 2.094 7.792 4.184 15.586 6.273 23.38.105.392.226.784.293 1.184.293 1.719-.082 2.358-1.766 2.815-6.348 1.72-12.699 3.427-19.057 5.111-1.867.495-2.419.157-2.986-1.707-.296-.972-.554-1.958-.793-2.946-.403-1.656-.393-1.659 1.411-2.634l.442.87c.761 1.437 1.772 2.002 3.308 1.643 2.11-.497 4.211-1.056 6.285-1.687 1.745-.532 2.507-1.865 2.1-3.397-.406-1.531-1.736-2.312-3.508-1.909-1.914.437-3.799 1.002-5.863 1.556.267-1.442.873-2.269 2.28-2.5 1.066-.176 2.106-.521 3.146-.83 1.653-.49 2.379-1.499 2.162-2.935-.217-1.431-1.493-2.447-3.082-2.361-.727.039-1.445.24-2.248.382-.109-.408-.231-.72-.27-1.04-.056-.458-.05-.923-.076-1.534.579-.155 1.085-.358 1.607-.418 1.514-.178 2.016-1.63 1.988-2.667-.032-1.275-1.117-2.433-2.5-2.475-1.126-.034-2.265.217-3.521.356zm12.977 15.492c-.654.079-1.608-.145-1.575.967.023.846.44 1.628 1.332 1.844.974.237 1.225-.535 1.484-1.278.605-1.723 1.27-3.424 1.89-5.144.12-.334.142-.705.261-1.329-2.677.838-2.428 3.28-3.392 4.94zm-4.02-15.561c-.68.352-1.342.486-1.609.886-.392.584.381 1.863 1.131 2.123.704.245 1.244-.137 1.596-1.115.616-1.718 1.244-3.431 1.848-5.153.119-.338.15-.708.276-1.338-2.737.694-2.216 3.214-3.242 4.597zm1.979 7.915c-.193-.002-.459-.058-.696.001-.557.14-1.063.406-.924 1.1.168.833.572 1.618 1.487 1.694.371.031 1.006-.436 1.155-.817.823-2.122 1.535-4.288 2.374-6.694-2.77.49-2.386 2.913-3.396 4.716zM100.6 44.949c-5.357 1.631-11.01-2.375-12.095-7.152-1.201-5.287 1.79-10.587 7.054-12 5.184-1.391 10.94 1.923 12.135 7.174 1.408 6.194-2.656 10.997-7.094 11.978z"/><path fill-rule="evenodd" clip-rule="evenodd" fill="#fff" d="M122.282 42.711c.964-1.661.715-4.103 3.392-4.94-.119.624-.141.994-.261 1.329-.62 1.72-1.284 3.421-1.89 5.144-.26.743-.511 1.515-1.484 1.278-.892-.216-1.309-.998-1.332-1.844-.034-1.111.92-.888 1.575-.967zM118.262 27.15c1.025-1.383.505-3.904 3.241-4.598-.126.63-.157 1-.276 1.338-.604 1.722-1.231 3.435-1.848 5.153-.352.978-.892 1.36-1.596 1.115-.75-.26-1.522-1.539-1.131-2.123.268-.398.931-.533 1.61-.885zM120.241 35.065c1.011-1.803.626-4.227 3.396-4.716-.839 2.406-1.551 4.572-2.374 6.694-.149.382-.784.848-1.155.817-.915-.076-1.319-.86-1.487-1.694-.14-.694.367-.96.924-1.1.237-.059.502-.003.696-.001z"/></svg>