<svg xmlns="http://www.w3.org/2000/svg" width="497.563" height="497.563" viewBox="0 0 497.563 497.563"><path fill="#BCBDBF" d="M249.643 92.195v-61.507c-71.951 0-134.512 34.671-172.631 95.693l52.149 32.588c25.111-40.101 69.676-66.774 120.482-66.774z"/><path fill="#5DC7C3" d="M249.643 30.688v61.507c78.458 0 142.061 63.603 142.061 142.061 0 78.459-63.603 142.063-142.061 142.063-78.46 0-142.062-63.604-142.062-142.063 0-27.655 7.911-53.458 21.579-75.287l-52.149-32.588c-21.455 34.323-30.938 67.402-30.938 107.875 0 112.426 91.146 203.569 203.569 203.569 112.42 0 203.568-91.143 203.568-203.569.001-112.428-91.147-203.568-203.567-203.568z"/><g fill="#fff"><path d="M311.688 461.29c.151 0 .282.059.392.176l1.094 1.186c-.605.749-1.35 1.323-2.232 1.722-.884.399-1.944.599-3.182.599-1.107 0-2.103-.189-2.985-.567-.884-.378-1.639-.903-2.264-1.578-.626-.673-1.105-1.478-1.438-2.413-.333-.935-.5-1.955-.5-3.062 0-1.12.186-2.146.557-3.078s.894-1.734 1.567-2.408 1.479-1.197 2.418-1.572 1.976-.562 3.109-.562c1.106 0 2.074.178 2.903.531.828.354 1.538.823 2.129 1.408l-.928 1.289c-.056.082-.126.154-.212.216s-.204.093-.355.093c-.158 0-.319-.062-.484-.186-.165-.123-.375-.258-.629-.401-.255-.145-.576-.279-.965-.402-.388-.124-.882-.186-1.479-.186-.701 0-1.346.122-1.934.365-.588.244-1.093.594-1.516 1.047-.423.454-.753 1.006-.99 1.655s-.355 1.381-.355 2.191c0 .839.118 1.585.355 2.238s.559 1.203.964 1.649c.406.447.884.789 1.434 1.026s1.142.355 1.773.355c.379 0 .721-.021 1.026-.062s.588-.106.846-.196c.258-.089.502-.204.732-.345.23-.142.459-.315.686-.521l.217-.149c.075-.038.158-.058.246-.058zM319.639 454.062c.791 0 1.507.127 2.15.381.643.255 1.19.615 1.645 1.083s.805 1.038 1.052 1.712c.248.674.371 1.427.371 2.259 0 .839-.123 1.595-.371 2.269-.247.674-.598 1.248-1.052 1.722-.454.475-1.002.839-1.645 1.094-.644.254-1.359.381-2.15.381s-1.509-.127-2.155-.381c-.646-.255-1.198-.619-1.655-1.094-.457-.474-.812-1.048-1.062-1.722-.251-.674-.377-1.43-.377-2.269 0-.832.126-1.585.377-2.259.25-.674.604-1.244 1.062-1.712s1.009-.828 1.655-1.083c.646-.255 1.364-.381 2.155-.381zm0 8.94c.88 0 1.531-.296 1.954-.887.423-.592.635-1.458.635-2.599 0-1.142-.212-2.011-.635-2.609-.423-.598-1.074-.897-1.954-.897-.894 0-1.554.301-1.979.902-.427.602-.64 1.47-.64 2.604 0 1.134.213 1.999.64 2.594.425.595 1.085.892 1.979.892zM326.848 464.807v-10.58h1.495c.262 0 .443.048.547.144.103.097.172.262.206.495l.154 1.279c.378-.653.821-1.169 1.331-1.547.508-.378 1.079-.567 1.711-.567.522 0 .956.12 1.3.36l-.33 1.908c-.021.124-.065.212-.134.263-.069.052-.162.078-.278.078-.104 0-.244-.024-.423-.072-.179-.049-.416-.072-.712-.072-.529 0-.983.146-1.361.438-.378.293-.697.721-.959 1.284v6.59h-2.547zM335.272 464.807v-10.58h1.495c.262 0 .443.048.547.144.103.097.172.262.206.495l.154 1.279c.378-.653.821-1.169 1.331-1.547.508-.378 1.079-.567 1.711-.567.522 0 .956.12 1.3.36l-.33 1.908c-.021.124-.065.212-.134.263-.069.052-.162.078-.278.078-.104 0-.244-.024-.423-.072-.179-.049-.416-.072-.712-.072-.529 0-.983.146-1.361.438-.378.293-.697.721-.959 1.284v6.59h-2.547zM346.027 454.227v6.724c0 .646.15 1.146.449 1.5.299.354.747.531 1.346.531.439 0 .853-.098 1.237-.294s.749-.466 1.093-.81v-7.651h2.548v10.58h-1.558c-.33 0-.547-.154-.649-.464l-.176-.846c-.22.22-.446.421-.681.604-.233.182-.482.337-.747.464s-.551.227-.856.299-.634.108-.984.108c-.578 0-1.088-.098-1.531-.294s-.816-.473-1.119-.83-.531-.782-.686-1.273c-.155-.491-.232-1.033-.232-1.624v-6.724h2.546zM355.423 468.262v-14.035h1.557c.165 0 .307.037.423.113.117.075.192.192.228.351l.206.979c.426-.488.916-.884 1.47-1.186.553-.303 1.201-.454 1.943-.454.578 0 1.105.12 1.583.36.478.241.891.59 1.237 1.047.348.458.615 1.021.805 1.691.189.671.283 1.438.283 2.305 0 .791-.106 1.523-.319 2.197s-.518 1.258-.913 1.753c-.395.495-.873.882-1.433 1.16-.561.278-1.188.417-1.883.417-.598 0-1.104-.091-1.521-.272-.416-.183-.789-.436-1.119-.759v4.332h-2.547zm4.95-12.221c-.53 0-.981.112-1.356.335-.375.224-.724.538-1.047.943v4.744c.289.357.604.606.943.748.341.141.707.211 1.099.211.385 0 .733-.072 1.047-.217.312-.144.577-.364.794-.659.217-.296.383-.669.5-1.119s.176-.981.176-1.594c0-.618-.051-1.143-.15-1.572s-.242-.778-.428-1.047-.41-.464-.675-.588-.567-.185-.903-.185zM370.562 464.972c-.915 0-1.619-.26-2.114-.778-.495-.52-.743-1.236-.743-2.15v-5.909h-1.072c-.138 0-.256-.045-.355-.134-.1-.09-.149-.224-.149-.402v-1.011l1.701-.278.536-2.888c.027-.138.092-.244.191-.319.1-.076.225-.113.376-.113h1.32v3.331h2.784v1.814h-2.784v5.733c0 .33.082.588.247.773s.385.279.66.279c.158 0 .29-.02.397-.058l.278-.118.211-.118.186-.058c.076 0 .138.02.186.058l.155.17.763 1.237c-.371.31-.798.543-1.278.701-.483.159-.981.238-1.496.238zM378.161 451.143c0 .22-.045.427-.134.619-.09.192-.208.36-.356.505-.147.145-.321.26-.521.346s-.412.129-.64.129c-.22 0-.428-.043-.624-.129-.195-.086-.365-.201-.51-.346s-.26-.312-.346-.505-.129-.399-.129-.619c0-.227.043-.439.129-.64.086-.199.201-.371.346-.516.145-.144.314-.259.51-.345.196-.086.404-.129.624-.129.228 0 .44.043.64.129s.373.201.521.345c.148.145.267.316.356.516.089.2.134.413.134.64zm-.382 3.084v10.58h-2.547v-10.58h2.547zM385.173 454.062c.791 0 1.507.127 2.15.381.643.255 1.19.615 1.645 1.083s.805 1.038 1.052 1.712c.248.674.371 1.427.371 2.259 0 .839-.123 1.595-.371 2.269-.247.674-.598 1.248-1.052 1.722-.454.475-1.002.839-1.645 1.094-.644.254-1.359.381-2.15.381s-1.509-.127-2.155-.381c-.646-.255-1.198-.619-1.655-1.094-.457-.474-.812-1.048-1.062-1.722-.251-.674-.377-1.43-.377-2.269 0-.832.126-1.585.377-2.259.25-.674.604-1.244 1.062-1.712s1.009-.828 1.655-1.083c.646-.255 1.364-.381 2.155-.381zm0 8.94c.88 0 1.531-.296 1.954-.887.423-.592.635-1.458.635-2.599 0-1.142-.212-2.011-.635-2.609-.423-.598-1.074-.897-1.954-.897-.894 0-1.554.301-1.979.902-.427.602-.64 1.47-.64 2.604 0 1.134.213 1.999.64 2.594.425.595 1.085.892 1.979.892zM392.382 464.807v-10.58h1.557c.33 0 .547.154.65.464l.175.835c.213-.22.438-.419.676-.598s.488-.334.753-.465c.265-.13.548-.229.851-.299.303-.068.633-.103.99-.103.577 0 1.089.098 1.536.294.447.195.82.471 1.119.824.299.354.525.777.681 1.269.154.492.231 1.033.231 1.624v6.734h-2.547v-6.734c0-.646-.149-1.146-.448-1.5s-.748-.531-1.346-.531c-.44 0-.853.1-1.237.299-.386.2-.75.472-1.094.815v7.651h-2.547z"/></g><g fill="#fff"><path d="M166.463 144.073l.222.062.191.134.206.232 7.827 9.972c-.028-.241-.046-.476-.057-.707l-.016-.645v-9.064h2.444v14.912h-1.433c-.22 0-.402-.034-.547-.103-.144-.069-.285-.192-.422-.372l-7.796-9.931.046.655.016.593v9.157h-2.444v-14.912h1.454l.309.017zM184.664 148.224c.791 0 1.507.127 2.15.382.643.254 1.191.615 1.645 1.083.454.468.805 1.038 1.052 1.712.248.674.372 1.427.372 2.258 0 .839-.124 1.595-.372 2.269-.247.674-.598 1.248-1.052 1.722-.454.474-1.002.839-1.645 1.093s-1.36.382-2.15.382-1.509-.127-2.155-.382c-.646-.254-1.198-.619-1.655-1.093-.457-.475-.811-1.048-1.062-1.722s-.376-1.43-.376-2.269c0-.832.125-1.584.376-2.258s.605-1.244 1.062-1.712c.458-.467 1.009-.828 1.655-1.083s1.365-.382 2.155-.382zm0 8.941c.88 0 1.531-.295 1.954-.887s.634-1.458.634-2.599c0-1.142-.211-2.011-.634-2.609s-1.074-.897-1.954-.897c-.894 0-1.554.301-1.98.902s-.639 1.469-.639 2.604c0 1.134.213 1.999.639 2.593s1.087.893 1.98.893zM195.348 159.134c-.915 0-1.619-.259-2.114-.779-.495-.519-.743-1.235-.743-2.15v-5.909h-1.072c-.138 0-.256-.044-.356-.134s-.149-.224-.149-.402v-1.011l1.701-.278.537-2.888c.027-.137.091-.244.19-.319s.225-.114.376-.114h1.32v3.331h2.784v1.815h-2.784v5.734c0 .33.082.588.247.773s.385.278.66.278c.158 0 .291-.019.397-.057l.278-.119.211-.119.186-.057c.076 0 .138.019.186.057l.154.17.763 1.237c-.371.31-.797.543-1.279.701-.479.161-.978.24-1.493.24zM211.27 150.626c-.076.096-.149.172-.222.227s-.177.083-.314.083c-.131 0-.258-.04-.382-.119l-.443-.268s-.376-.189-.613-.268c-.237-.079-.531-.119-.882-.119-.447 0-.839.081-1.176.242s-.617.394-.84.696c-.224.302-.39.668-.5 1.098-.11.43-.165.916-.165 1.459 0 .564.06 1.066.18 1.506.121.44.294.81.521 1.108.227.299.502.526.825.681.323.155.687.232 1.093.232s.734-.05.985-.149.462-.209.634-.33l.449-.33c.127-.1.27-.149.428-.149.207 0 .361.079.464.237l.732.928c-.282.33-.588.606-.918.83-.33.224-.672.402-1.026.536s-.72.229-1.098.284c-.378.055-.753.083-1.124.083-.653 0-1.269-.122-1.846-.366-.577-.244-1.081-.6-1.511-1.067-.43-.467-.77-1.04-1.021-1.717s-.376-1.449-.376-2.315c0-.777.111-1.497.335-2.16.223-.664.552-1.238.985-1.722.433-.485.969-.865 1.609-1.14.639-.275 1.375-.413 2.207-.413.791 0 1.483.127 2.078.382.594.254 1.129.619 1.604 1.093l-.672.927zM218.188 148.224c.791 0 1.507.127 2.15.382.643.254 1.191.615 1.645 1.083.454.468.805 1.038 1.052 1.712.248.674.372 1.427.372 2.258 0 .839-.124 1.595-.372 2.269-.247.674-.598 1.248-1.052 1.722-.454.474-1.002.839-1.645 1.093s-1.36.382-2.15.382-1.509-.127-2.155-.382c-.646-.254-1.198-.619-1.655-1.093-.457-.475-.811-1.048-1.062-1.722s-.376-1.43-.376-2.269c0-.832.125-1.584.376-2.258s.605-1.244 1.062-1.712c.458-.467 1.009-.828 1.655-1.083s1.365-.382 2.155-.382zm0 8.941c.88 0 1.531-.295 1.954-.887s.634-1.458.634-2.599c0-1.142-.211-2.011-.634-2.609s-1.074-.897-1.954-.897c-.894 0-1.554.301-1.98.902s-.639 1.469-.639 2.604c0 1.134.213 1.999.639 2.593s1.087.893 1.98.893zM225.397 158.969v-10.581h1.495c.261 0 .443.048.546.145.104.096.172.261.207.495l.155 1.279c.378-.653.821-1.168 1.33-1.547.509-.378 1.079-.567 1.712-.567.522 0 .956.12 1.299.361l-.33 1.908c-.021.124-.065.211-.134.263-.069.051-.162.077-.279.077-.103 0-.244-.024-.422-.072-.179-.048-.417-.072-.712-.072-.529 0-.983.146-1.361.438-.378.292-.698.72-.959 1.284v6.59h-2.547zM233.822 158.969v-10.581h1.495c.261 0 .443.048.546.145.104.096.172.261.207.495l.155 1.279c.378-.653.821-1.168 1.33-1.547.509-.378 1.079-.567 1.712-.567.522 0 .956.12 1.299.361l-.33 1.908c-.021.124-.065.211-.134.263-.069.051-.162.077-.279.077-.103 0-.244-.024-.422-.072-.179-.048-.417-.072-.712-.072-.529 0-.983.146-1.361.438-.378.292-.698.72-.959 1.284v6.59h-2.547zM244.578 148.389v6.724c0 .646.149 1.146.449 1.5.299.354.748.531 1.346.531.44 0 .852-.098 1.237-.294.385-.196.749-.466 1.093-.81v-7.652h2.547v10.581h-1.557c-.33 0-.546-.155-.649-.464l-.175-.846c-.22.22-.447.421-.681.603-.234.183-.483.337-.748.464s-.55.227-.856.299c-.306.072-.634.108-.985.108-.578 0-1.088-.098-1.532-.294-.443-.196-.816-.473-1.119-.83-.303-.357-.531-.782-.686-1.273-.154-.492-.232-1.033-.232-1.625v-6.724h2.548zM253.972 162.424v-14.035h1.557c.165 0 .306.038.423.113.117.076.192.193.227.351l.207.98c.426-.488.916-.883 1.469-1.186.554-.302 1.202-.454 1.944-.454.578 0 1.105.12 1.583.361s.89.589 1.238 1.047c.347.457.615 1.021.804 1.691s.284 1.438.284 2.305c0 .791-.107 1.522-.32 2.196-.213.674-.518 1.258-.913 1.753-.396.495-.873.882-1.434 1.16-.56.279-1.188.418-1.882.418-.598 0-1.105-.091-1.521-.273s-.789-.435-1.119-.758v4.331h-2.547zm4.95-12.22c-.529 0-.981.112-1.356.335-.375.223-.724.538-1.047.943v4.744c.289.357.604.607.944.748.34.141.706.211 1.098.211.385 0 .734-.072 1.047-.216.312-.145.577-.364.794-.66.216-.295.383-.668.5-1.119s.175-.981.175-1.593c0-.619-.05-1.143-.149-1.573s-.242-.779-.428-1.047c-.186-.268-.411-.464-.676-.588-.264-.123-.565-.185-.902-.185zM269.11 159.134c-.915 0-1.619-.259-2.114-.779-.495-.519-.743-1.235-.743-2.15v-5.909h-1.072c-.138 0-.256-.044-.356-.134s-.149-.224-.149-.402v-1.011l1.701-.278.537-2.888c.027-.137.091-.244.19-.319s.225-.114.376-.114h1.32v3.331h2.784v1.815h-2.784v5.734c0 .33.082.588.247.773s.385.278.66.278c.158 0 .291-.019.397-.057l.278-.119.211-.119.186-.057c.076 0 .138.019.186.057l.154.17.763 1.237c-.371.31-.797.543-1.279.701-.478.161-.977.24-1.493.24zM276.71 145.305c0 .22-.045.426-.134.619-.089.193-.208.361-.355.505-.148.145-.322.26-.521.346-.2.086-.413.129-.639.129-.22 0-.428-.043-.624-.129s-.366-.201-.511-.346c-.144-.144-.259-.312-.345-.505-.086-.192-.129-.398-.129-.619 0-.227.043-.44.129-.639s.201-.372.345-.516c.145-.145.315-.26.511-.346s.404-.129.624-.129c.227 0 .439.043.639.129.199.086.373.201.521.346.147.144.266.316.355.516s.134.413.134.639zm-.381 3.084v10.581h-2.547v-10.581h2.547zM283.723 148.224c.791 0 1.507.127 2.15.382.643.254 1.191.615 1.645 1.083.454.468.805 1.038 1.052 1.712.248.674.372 1.427.372 2.258 0 .839-.124 1.595-.372 2.269-.247.674-.598 1.248-1.052 1.722-.454.474-1.002.839-1.645 1.093s-1.36.382-2.15.382-1.509-.127-2.155-.382c-.646-.254-1.198-.619-1.655-1.093-.457-.475-.811-1.048-1.062-1.722s-.376-1.43-.376-2.269c0-.832.125-1.584.376-2.258s.605-1.244 1.062-1.712c.458-.467 1.009-.828 1.655-1.083s1.364-.382 2.155-.382zm0 8.941c.88 0 1.531-.295 1.954-.887s.634-1.458.634-2.599c0-1.142-.211-2.011-.634-2.609s-1.074-.897-1.954-.897c-.894 0-1.554.301-1.98.902s-.639 1.469-.639 2.604c0 1.134.213 1.999.639 2.593s1.086.893 1.98.893zM290.931 158.969v-10.581h1.557c.33 0 .546.155.649.464l.175.835c.213-.22.438-.419.676-.598s.488-.333.753-.464c.264-.131.548-.23.851-.299.302-.068.632-.103.99-.103.578 0 1.09.098 1.537.294s.82.471 1.119.825c.299.354.526.777.681 1.268.154.492.232 1.033.232 1.625v6.734h-2.547v-6.734c0-.646-.149-1.146-.449-1.5-.299-.354-.748-.531-1.346-.531-.44 0-.853.1-1.237.299-.385.199-.75.471-1.093.814v7.652h-2.548z"/></g><g fill="#fff"><path d="M297.59 400.217c-.925 0-1.772-.123-2.541-.369-.77-.246-1.431-.599-1.983-1.057-.553-.458-.981-1.013-1.284-1.666-.303-.652-.454-1.385-.454-2.197 0-1.192.311-2.176.934-2.949.622-.773 1.512-1.324 2.67-1.653-.977-.363-1.713-.905-2.21-1.627s-.746-1.584-.746-2.586c0-.683.134-1.323.402-1.919.268-.597.648-1.115 1.141-1.556.493-.441 1.083-.787 1.77-1.037.687-.251 1.454-.376 2.301-.376.838 0 1.603.125 2.294.376.691.25 1.284.596 1.776 1.037.492.44.873.959 1.141 1.556.268.596.402 1.236.402 1.919 0 1.002-.25 1.864-.752 2.586s-1.236 1.264-2.204 1.627c1.159.329 2.047.88 2.67 1.653s.934 1.757.934 2.949c0 .812-.154 1.545-.461 2.197-.307.653-.734 1.208-1.283 1.666s-1.208.811-1.977 1.057c-.769.246-1.615.369-2.54.369zm0-1.841c.605 0 1.147-.084 1.627-.253.48-.168.886-.405 1.219-.713.333-.307.588-.674.766-1.102.176-.428.266-.901.266-1.42 0-.64-.107-1.187-.318-1.64-.212-.454-.497-.823-.855-1.108-.359-.285-.771-.495-1.238-.629s-.955-.201-1.465-.201c-.51 0-.998.067-1.465.201s-.88.344-1.238.629c-.359.285-.644.654-.855 1.108-.212.453-.318 1-.318 1.64 0 .519.089.992.266 1.42.177.428.432.795.765 1.102.333.308.739.545 1.219.713.476.169 1.019.253 1.624.253zm0-8.919c.605 0 1.122-.093 1.549-.279.428-.186.775-.432 1.043-.738.268-.308.462-.659.583-1.057s.182-.809.182-1.232c0-.432-.071-.838-.214-1.219-.143-.38-.354-.713-.635-.998-.281-.285-.631-.51-1.05-.674-.419-.164-.905-.246-1.458-.246s-1.04.082-1.458.246c-.419.164-.77.389-1.05.674s-.493.618-.635.998c-.143.381-.214.787-.214 1.219 0 .424.061.835.182 1.232s.315.749.583 1.057c.268.307.616.553 1.043.738.427.186.944.279 1.549.279zM316.829 393.308h2.813v1.322c0 .138-.042.255-.124.35-.082.096-.209.143-.382.143h-2.308v4.888h-2.036v-4.888h-8.231c-.174 0-.322-.05-.447-.149-.126-.099-.206-.222-.24-.369l-.233-1.18 9.036-11.992h2.152v11.875zm-2.036-7.662c0-.225.007-.467.02-.727.014-.259.041-.527.085-.804l-6.755 9.192h6.65v-7.661zM329.326 385.917c0 .727-.112 1.377-.337 1.951-.226.575-.525 1.06-.901 1.452-.376.394-.814.694-1.316.901-.501.207-1.023.312-1.568.312-.588 0-1.13-.104-1.627-.312s-.932-.508-1.303-.901c-.372-.393-.661-.877-.869-1.452-.207-.574-.311-1.225-.311-1.951 0-.743.104-1.404.311-1.983.208-.579.497-1.067.869-1.465.371-.397.806-.7 1.303-.907.497-.208 1.039-.312 1.627-.312.579 0 1.121.104 1.627.312.506.207.942.51 1.31.907s.657.886.869 1.465c.21.579.316 1.24.316 1.983zm6.495-4.019c.112-.146.23-.262.356-.344.125-.082.292-.123.499-.123h1.659l-13.573 18.202c-.087.112-.19.203-.312.272s-.264.104-.428.104h-1.711l13.51-18.111zm-8.298 4.019c0-.57-.061-1.054-.181-1.451-.121-.397-.288-.725-.5-.979-.211-.255-.458-.438-.738-.551-.281-.112-.582-.169-.901-.169s-.62.057-.9.169c-.281.112-.525.296-.733.551-.207.255-.369.582-.485.979-.117.397-.176.881-.176 1.451 0 .562.059 1.04.176 1.433.116.394.278.714.485.96.208.246.452.424.733.531.28.108.581.162.9.162s.62-.054.901-.162c.28-.107.527-.285.738-.531.212-.246.379-.566.5-.96.121-.393.181-.871.181-1.433zm12.071 9.711c0 .726-.112 1.374-.337 1.944s-.525 1.053-.901 1.445c-.376.394-.812.694-1.31.901s-1.018.312-1.562.312c-.588 0-1.131-.104-1.627-.312-.498-.207-.932-.508-1.304-.901-.371-.393-.661-.875-.868-1.445-.208-.57-.312-1.219-.312-1.944 0-.743.104-1.407.312-1.99.207-.583.497-1.074.868-1.472.372-.397.806-.7 1.304-.907.496-.207 1.039-.312 1.627-.312.578 0 1.119.104 1.62.312s.938.51 1.31.907c.371.397.661.889.868 1.472.208.583.312 1.247.312 1.99zm-1.789 0c0-.57-.061-1.057-.182-1.459-.121-.401-.287-.728-.499-.979s-.458-.432-.739-.545c-.28-.111-.581-.168-.9-.168-.32 0-.621.057-.901.168-.281.113-.525.294-.732.545-.208.251-.369.577-.486.979-.116.402-.175.889-.175 1.459 0 .562.059 1.037.175 1.426.117.389.278.707.486.953.207.246.451.424.732.531.28.108.581.162.901.162.319 0 .62-.054.9-.162.281-.107.527-.285.739-.531s.378-.564.499-.953.182-.865.182-1.426z"/></g><g fill="#fff"><path d="M141.683 94.187h3.993v-12.666c0-.38.013-.765.039-1.154l-3.319 2.839c-.086.069-.173.119-.259.149l-.246.045c-.13 0-.247-.028-.35-.084s-.182-.123-.233-.201l-.726-.998 5.523-4.784h1.88v16.854h3.656v1.763h-9.957v-1.763zM161.427 84.567c.743 0 1.448.123 2.113.37.666.246 1.249.605 1.75 1.076.501.471.899 1.05 1.193 1.737.294.688.441 1.472.441 2.353 0 .856-.156 1.651-.467 2.386-.311.735-.746 1.374-1.303 1.918-.557.545-1.229.973-2.016 1.284-.787.311-1.651.467-2.593.467-.934 0-1.778-.149-2.535-.447-.756-.298-1.402-.722-1.938-1.271-.536-.549-.949-1.214-1.238-1.997s-.435-1.657-.435-2.625c0-.812.182-1.677.545-2.593.363-.916.938-1.901 1.724-2.956l4.706-6.339c.121-.156.29-.287.505-.396.216-.108.462-.162.739-.162h2.048l-6.443 8.155c.441-.303.929-.538 1.465-.707.538-.168 1.117-.253 1.739-.253zm-4.797 5.653c0 .597.086 1.141.259 1.634s.426.916.759 1.271c.333.354.739.629 1.218.823.48.194 1.026.292 1.64.292.622 0 1.184-.099 1.686-.298.501-.199.931-.476 1.29-.83s.635-.773.83-1.257c.194-.484.292-1.011.292-1.582 0-.605-.095-1.152-.285-1.64-.19-.488-.458-.903-.804-1.245s-.761-.603-1.245-.784c-.484-.182-1.016-.272-1.595-.272-.622 0-1.184.106-1.685.318-.501.211-.927.497-1.277.855-.35.359-.618.773-.804 1.245s-.279.96-.279 1.47zM177.204 81.858c0 .726-.113 1.376-.337 1.951s-.525 1.059-.901 1.452-.815.693-1.316.901c-.501.208-1.024.311-1.569.311-.588 0-1.13-.104-1.627-.311s-.931-.508-1.303-.901c-.372-.394-.661-.877-.869-1.452s-.311-1.225-.311-1.951c0-.743.104-1.404.311-1.983s.497-1.067.869-1.465c.372-.397.806-.7 1.303-.907.497-.208 1.039-.312 1.627-.312.579 0 1.122.104 1.627.312.506.207.942.51 1.31.907.367.398.657.886.869 1.465s.317 1.24.317 1.983zm6.495-4.019c.112-.147.231-.261.356-.344.125-.082.292-.123.499-.123h1.659l-13.573 18.202c-.087.112-.19.203-.312.272-.121.069-.264.104-.428.104h-1.711l13.51-18.111zm-8.297 4.019c0-.57-.061-1.054-.182-1.452-.121-.397-.287-.724-.499-.979s-.458-.439-.739-.551c-.281-.112-.582-.168-.901-.168s-.62.056-.901.168-.525.296-.732.551-.37.581-.486.979c-.117.398-.175.882-.175 1.452 0 .562.058 1.04.175 1.433s.279.713.486.959c.208.246.452.423.732.531.281.108.581.162.901.162s.62-.054.901-.162c.281-.108.527-.285.739-.531.212-.247.378-.566.499-.959s.182-.871.182-1.433zm12.07 9.71c0 .726-.112 1.374-.337 1.944-.225.571-.525 1.053-.901 1.446s-.812.693-1.309.901c-.497.208-1.018.311-1.562.311-.588 0-1.13-.104-1.627-.311s-.931-.508-1.303-.901c-.372-.393-.661-.875-.869-1.446-.208-.57-.311-1.218-.311-1.944 0-.743.104-1.407.311-1.99s.497-1.074.869-1.471.806-.7 1.303-.908 1.039-.311 1.627-.311c.579 0 1.119.104 1.621.311.501.208.938.51 1.31.908.372.397.661.888.869 1.471.205.584.309 1.247.309 1.99zm-1.789 0c0-.571-.061-1.057-.182-1.458s-.288-.728-.499-.979c-.212-.25-.458-.432-.739-.544s-.581-.168-.901-.168-.62.056-.901.168c-.281.112-.525.294-.732.544-.208.251-.37.577-.486.979s-.175.888-.175 1.458c0 .562.058 1.037.175 1.426.117.389.279.707.486.953.208.246.451.423.732.531.281.108.581.162.901.162s.62-.054.901-.162c.281-.108.527-.285.739-.531.211-.247.378-.564.499-.953s.182-.864.182-1.426z"/></g></svg>