<svg xmlns="http://www.w3.org/2000/svg" width="250" height="158.128" viewBox="0 0 250 158.128"><path fill-rule="evenodd" clip-rule="evenodd" fill="#fff" d="M125.494 7.74l42.785 23.446 42.792 23.444c1.805 1.001 2.627 3.611 1.815 5.836-.598 1.649-1.909 2.623-3.28 2.623v.009h-5.458v87.67h-161.81799999999998v-87.67h-3.882c-1.984 0-3.597-1.986-3.597-4.432 0-1.942 1.01-3.589 2.414-4.192l42.512-23.288 42.792-23.446c.967-.526 2.025-.489 2.921.004l.004-.004zm-69.866 55.358l.146 81.25h135.085l-.017-81.25h-135.214zm4.893 7.09v18.161h16.421v-18.161h-16.421zm19.768 0v18.161h16.42v-18.161h-16.42zm27.015 0v18.161h16.421v-18.161h-16.421zm19.768 0v18.161h16.421v-18.161h-16.421zm24.711 0v18.161h16.419v-18.161h-16.419zm19.766 0v18.161h16.422v-18.161h-16.422z"/><path fill="#fff" d="M92.628 132.223l3.155.251c-.165.68-.4 1.341-.474 2.021-.073.667-.125 1.407.108 1.996.092.225 1.369.32 1.487.115.317-.555.413-1.303.4-1.971-.01-.732-.236-1.464-.369-2.168l3.121-.244 1.969 1.307.878-.929c-.395.657-.859 1.286-1.167 1.98-.217.488-.46 1.425-.286 1.542.571.378 1.365.683 2.003.58.366-.06.773-.941.833-1.488.045-.421-.422-.896-.868-1.736 1.578-.489 3.003-.932 4.428-1.378l.431.471c-.193.665-.471 1.316-.562 1.992-.088.627-.188 1.418.114 1.876.191.291 1.394.351 1.631.075.355-.413.365-1.22.334-1.85-.035-.74-.265-1.474-.526-2.794 1.979.688 3.385 1.174 4.79 1.665l-.578.464c0 .785-.278 1.776.093 2.29.274.381 1.401.145 2.147.185.521-.068 1.41-.016 1.481-.233.173-.516.06-1.204-.161-1.729-.07-.169-.844-.038-1.296-.046l-.724-1.501 1.087.262c1.385 1.121 1.371-.731 2.106-.993l3.246.254c-.233.758-.525 1.404-.62 2.076-.087.622-.178 1.425.133 1.858.216.304 1.403.368 1.637.095.353-.413.355-1.218.324-1.849-.036-.743-.27-1.477-.418-2.212l3.139-.229 1.16 1.839.588-.491-.09-.423 1.532-.187-.153 1.324-.372-.361c-.617.302-1.431.466-1.78.958-.233.326.129 1.603.341 1.632 1.073.15 2.269.258 3.236-.107.352-.133.187-1.623.258-2.492l-.554-.455c1.421-.46 2.843-.918 4.266-1.383l.434.453c-.182.665-.425 1.323-.522 2.003-.089.622-.24 1.414.052 1.853.206.314 1.488.397 1.624.178.323-.529.338-1.301.323-1.975-.01-.735-.188-1.47-.365-2.703 1.909.662 3.293 1.138 4.877 1.686-.42.578-.742.822-.722 1.028.073.717.267 1.421.415 2.132.94-.258 1.892-.488 2.804-.829.055-.021-.066-1.047-.362-1.358-.658-.693-1.479-1.229-2.236-1.829l.585-.627.669 1.483 2.153-1.341 3.212.26c-.199.71-.467 1.358-.544 2.029-.073.66-.089 1.407.164 1.985.096.223 1.365.289 1.483.082.311-.556.384-1.302.369-1.971-.014-.731-.223-1.461-.341-2.128l3.083-.282c.39.422.714.949 1.185 1.233.505.307 1.268.686 1.323-.491l.934 1.523c-.275-.089-.596-.308-.818-.238-.631.195-1.474.362-1.744.825-.193.328.406 1.118.653 1.704.606-.291 1.24-.537 1.801-.9.182-.115.16-.538.233-.817.439.484.847 1.358 1.313 1.392 2.212.148 4.439.064 6.713.064l-.175-3.65.202-.011.255 1.856.407.011 1.742-10.074c1.905 0 3.619.033 5.329-.009 3.047-.074 4.703-1.656 4.31-4.711-.391-3.074-1.182-6.122-2.083-9.096-.326-1.069-1.328-2.132-2.3-2.771-1.9-1.245-4.229.019-4.446 2.256-.016.165.373.369.571.557-1.872 1.93-4.117 1.885-6.544 1.402-.603-.12-1.717.284-1.947.761-.477.989.265 1.716 1.278 1.812 1.913.178 3.839.22 5.759.317.163 1.149.327 2.303.487 3.45 1.324-1.852 1.233-2.987.193-3.799l1.409-.702c.06.673.089 1.351.185 2.019.195 1.359.425 2.711.647 4.097-3.104.589-7.196-1.372-7.523 3.828l-1.136-3.811c.847 0 1.492.014 2.139 0 .681-.021 1.362-.062 2.069-.096.038-.625.078-1.033.087-1.44.035-2.477.035-2.485-2.467-2.485-6.147-.002-12.296.005-18.444.009h-2.296c.391 2.147.718 3.948 1.042 5.751l-.982 2.731c0-3.104-.033-6.14.018-9.176.018-1.034-.282-1.516-1.389-1.496-3.234.064-6.474.064-9.713.089.545-.122 1.088-.343 1.637-.352 2.483-.037 4.975.065 7.458-.042 1.429-.062 2.418.202 2.47 1.919l2.369-.487-.831 1.018c1.559-.344 2.689-.478 3.694-.901.216-.092-.011-1.232-.035-1.893l1.533-1.307c.205.711.307 1.47.638 2.118.32.627.87 1.62 1.319 1.616 1.805-.002 3.672-.115 5.399-.594 2.153-.594 2.467-2.479.896-4.105-2.639-2.73-9.832-4.051-13.258-2.403-.387.185-.683.554-1.021.836-1.728-.439-3.435-1.083-5.188-1.278-3.046-.336-6.074-.122-8.795 1.574-.753-.516-1.472-1.414-2.26-1.48-2.401-.193-4.836-.191-7.24.004-.787.062-1.508.954-2.261 1.468-.223-.059-.467-.082-.668-.185-4.403-2.232-8.813-2.121-13.23-.031-.962-.462-1.888-1.172-2.898-1.327-1.505-.229-3.076.016-4.61-.085-2.785-.185-4.902 1.215-6.829 2.895-1.678 1.459-1.275 3.528.84 4.108 1.738.476 3.606.594 5.418.604.451 0 1.005-.989 1.325-1.623.328-.643.42-1.407.613-2.116l1.585 1.305c-.038.656-.285 1.801-.08 1.888.998.425 2.118.571 3.57.898l-.668-1.01 2.261.438.605-1.536c-.018 3.094 0 6.187-.076 9.276-.015.497-.429.982-.658 1.474.358-.951 1.052-1.95-.397-2.626 1.516-1.849.463-3.905.791-5.806h-22.744v3.879h4.219c-.46 1.445-.829 2.603-1.314 4.14-.218-.747-.393-1.078-.396-1.412-.035-1.9-1.122-2.583-2.86-2.574-1.285.011-2.567 0-4.281 0l1.296-6.138c.146.362.384.718.411 1.087.08 1.061.071 2.128.098 3.192l.77.031.751-3.224c1.705-.133 3.461-.222 5.199-.429.996-.118 1.975-.558 1.668-1.805-.292-1.188-1.208-1.149-2.274-.874-2.264.591-4.459.531-6.211-1.362.047-.558.349-1.345.087-1.627-.625-.689-1.459-1.487-2.303-1.616-1.601-.243-2.821.746-3.573 2.136-1.798 3.337-2.585 6.967-2.596 10.719-.007 2.721 1.505 4.082 4.219 4.138 1.814.042 3.63.011 5.399.011.798 4.1 1.554 7.965 2.314 11.864 1.827 0 3.248-.09 4.646.023 1.683.137 3.107-.035 3.783-1.855.052.505-.068 1.195.212 1.467.384.371 1.293.742 1.582.54.442-.307.805-1.14.717-1.672-.062-.384-.877-.798-1.412-.902-.326-.066-.765.434-1.149.676l.921-1.836c.387.198.913.658 1.133.542.537-.284.931-.834 1.38-1.273zm-15.693-6.758c-3.011 0-5.842-.049-8.667.021-1.457.034-2.07-.575-2.004-1.984.071-1.592.085-3.188.228-4.773.133-1.498.404-2.982.62-4.519h-3.284c0 4.353-.032 8.55.056 12.742.007.354.759.951 1.201.989 1.442.129 2.902.049 4.365.049.122 1.176.216 2.1.32 3.149-2.668.229-5.008.916-6.04 3.574-.192.491-.119 1.379.209 1.696.32.313 1.299.365 1.659.1.357-.267.397-1.082.399-1.658 0-.342-.342-.685-.722-1.389l4.336-1.36.44.424c-.216.721-.54 1.432-.615 2.168-.064.613.002 1.373.329 1.841.182.258 1.317.262 1.507 0 .336-.456.383-1.21.354-1.828-.038-.76-.275-1.509-.536-2.81l4.929 1.652c-.474.729-.867 1.062-.88 1.411-.022.526.051 1.263.391 1.538.336.276 1.198.307 1.549.052.365-.261.686-1.127.512-1.494-.702-1.538-1.502-3.079-3.441-3.428-.86-.155-1.711-.364-2.638-.564l.182-3.081h5.242l-.001-2.518zm95.871 6.441c-.305 1.33-.573 2.072-.616 2.828-.031.615.043 1.371.39 1.822.199.258 1.331.229 1.514-.035.324-.467.364-1.228.302-1.839-.08-.76-.387-1.496-.593-2.24l.521-.371c1.37.48 2.743.963 4.224 1.48-.434.777-.852 1.187-.84 1.583.018.514.251 1.178.627 1.478.3.235 1.125.211 1.411-.046.362-.32.718-1.149.543-1.485-.825-1.601-1.708-3.228-3.791-3.53-.804-.115-1.591-.32-2.493-.507l.449-3.152h5.552c0-4.439.016-8.689-.037-12.936-.007-.302-.505-.793-.836-.853-.725-.13-1.491-.04-2.474-.04.153 1.022.304 1.818.38 2.62.209 2.112.509 4.227.54 6.345.028 2.282-.198 2.419-2.425 2.447-2.699.031-5.4.007-8.25.007v2.536h5.241l.158 3.062c-2.341.544-4.921.62-5.729 3.419-.178.624-.14 1.425.116 2.002.098.216 1.527.2 1.611-.007.24-.6.129-1.349.094-2.038-.009-.191-.24-.373-.627-.934 1.621-.52 3.057-.982 5.038-1.616zm-21.228-28.599c.007-2.161-1.907-4.096-4.048-4.096-2.163 0-4.062 1.898-4.068 4.07-.011 2.201 1.818 4.037 4.04 4.062 2.186.022 4.072-1.849 4.076-4.036zm-16.589-4.078c-2.208.047-4.013 1.911-3.981 4.119.028 2.216 1.889 4.03 4.094 3.994 2.196-.037 4.048-1.932 4.013-4.102-.034-2.161-1.986-4.053-4.126-4.011zm-12.982-.011c-2.152-.053-4.074 1.797-4.142 3.984-.066 2.189 1.733 4.069 3.961 4.137 2.181.068 4.093-1.754 4.155-3.953.06-2.138-1.827-4.116-3.974-4.168zm-25.729 8.123c2.185.035 4.086-1.825 4.102-4.011.018-2.162-1.883-4.104-4.032-4.116-2.17-.011-4.048 1.848-4.082 4.044-.038 2.191 1.79 4.048 4.012 4.083zm16.561-4.106c-.031-2.186-1.989-4.068-4.163-4.002-2.194.065-4.034 2.028-3.953 4.213.083 2.136 1.93 3.905 4.075 3.896 2.21-.006 4.075-1.904 4.041-4.107zm-34.417-2.997c-2.119.038-3.807 1.763-3.797 3.882.015 2.071 1.815 3.877 3.856 3.872 2.174-.004 3.899-1.806 3.85-4.02-.053-2.128-1.767-3.772-3.909-3.734zm90.747 3.766c-.034-2.132-1.748-3.797-3.88-3.772-2.155.025-3.776 1.684-3.776 3.861 0 2.198 1.814 3.986 3.953 3.896 2.104-.088 3.738-1.848 3.703-3.985z"/></svg>