<svg xmlns="http://www.w3.org/2000/svg" width="313.827" height="259.339" viewBox="0 0 313.827 259.339"><g fill-rule="evenodd" clip-rule="evenodd" fill="#fff"><path d="M34.505 228.508c8.458-.224 15.202-7.078 15.104-15.35-.095-8.161-7.108-14.985-15.474-15.058-8.324-.072-15.483 6.703-15.688 14.852-.22 8.713 7.093 15.787 16.058 15.556zM56.901 237.662c0-4.277-3.462-7.742-7.741-7.742h-30.218c-4.276 0-7.742 3.465-7.742 7.742 0 .523.053 1.033.152 1.527v9.934h77.108v-10.123h-31.683c.077-.436.124-.881.124-1.338zM74.581 209.543c6.993-.185 12.567-5.848 12.486-12.688-.082-6.749-5.875-12.391-12.787-12.449-6.886-.059-12.811 5.545-12.972 12.28-.183 7.2 5.858 13.051 13.273 12.857zM93.099 217.111c0-3.535-2.867-6.4-6.4-6.4h-24.981c-3.54 0-6.404 2.865-6.404 6.4 0 .429.044.848.125 1.254v8.223h63.753v-8.37h-26.195c.063-.361.102-.729.102-1.107zM108.294 192.934c5.95-.155 10.685-4.972 10.617-10.785-.067-5.738-4.997-10.532-10.872-10.583-5.853-.051-10.885 4.709-11.029 10.438-.155 6.124 4.982 11.094 11.284 10.93zM124.036 199.369c0-3.007-2.438-5.439-5.442-5.439h-21.233c-3.006 0-5.441 2.433-5.441 5.439 0 .362.037.715.104 1.057v6.998h54.192v-7.116h-22.268c.054-.306.088-.618.088-.939zM265.421 213.705c-.102 8.271 6.646 15.125 15.103 15.348 8.968.232 16.275-6.842 16.061-15.554-.204-8.148-7.365-14.925-15.692-14.853-8.364.074-15.373 6.897-15.472 15.059zM303.827 238.207c0-4.275-3.467-7.742-7.741-7.742h-30.218c-4.274 0-7.737 3.467-7.737 7.742 0 .458.047.904.124 1.34h-31.686v10.121h77.109v-9.952c.096-.488.149-.992.149-1.509zM227.963 197.398c-.083 6.841 5.495 12.508 12.483 12.69 7.415.192 13.46-5.657 13.277-12.859-.169-6.738-6.085-12.336-12.972-12.277-6.907.057-12.71 5.699-12.788 12.446zM259.589 218.91c.08-.405.124-.823.124-1.251 0-3.538-2.861-6.399-6.398-6.399h-24.985c-3.532 0-6.4 2.861-6.4 6.399 0 .379.039.748.103 1.108h-26.19v8.365h63.748v-8.222zM196.118 182.696c-.071 5.81 4.669 10.629 10.614 10.783 6.304.162 11.436-4.808 11.288-10.931-.144-5.724-5.176-10.488-11.028-10.436-5.879.05-10.804 4.845-10.874 10.584zM223.005 200.952c.065-.336.102-.683.102-1.039 0-3.004-2.432-5.439-5.439-5.439h-21.232c-3.008 0-5.446 2.436-5.446 5.439 0 .321.033.634.087.94h-22.267v7.116h54.195v-7.017zM150.36 89.943c12.279 2.361 21.088-3.815 29.571-11.322 4.918-4.354 16.649-13.4 18.766-15.026l8.667 12.216c-8.45 6.468-24.262 18.03-32.569 24.682-1.651 1.32-3.517 3.488-3.646 5.379-.452 6.545-.175 13.139-.175 20.273h108.101v-100.187h-134.816v43.738c6.838-10.198 17.068-11.688 23.583-5.324 4.694 4.585 5.184 14.997-.352 19.397-2.476 1.968-12.535 9.298-23.32-3.918v11.173c2.251-.429 4.352-1.434 6.19-1.081zM184.202 191.026c-4.543-12.586-9.202-25.301-13.686-38.079-.899-2.556-1.565-5.33-1.602-8.017-.18-12.546-.241-24.907.046-37.632.059-2.53 1.58-5.795 3.561-7.363 8.759-6.941 25.636-19.913 26.806-21.363 5.121-6.385-1.965-11.041-8.756-5.793-4.551 3.511-9.134 7.054-13.565 10.604-7.521 6.033-14.857 10.329-24.703 8.597-3.707-.651-5.777 1.137-7.451 4.397-4.957 9.643-10.789 20.316-15.904 29.875-6.706 11.045.14 14.425 5.516 5.753 3.861-6.225 8.59-14.58 12.927-21.594.63 2.719-.155 42.799-7.531 57.306-2.876 5.641-4.423 11.948-6.658 17.915-1.312 3.501-2.909 6.398 2.637 8.316 5.656 1.959 6.016-1.727 7.226-5.038 4.083-11.182 8.125-22.378 12.228-33.553.533-1.454 1.445-14.994 2.581-17.364 1.134 2.322 1.748 15.72 2.235 17.032 4.05 10.968 8.089 21.941 12.071 32.933 2.987 8.257 3.446 8.426 12.022 3.068zM169.056 73.999c.039-6.249-5.01-11.357-11.198-11.329-6.235.025-11.186 5.142-11.069 11.43.112 6.123 4.746 10.773 10.868 10.908 6.395.139 11.354-4.653 11.399-11.009z"/></g><path fill-rule="evenodd" clip-rule="evenodd" fill="#ED1C24" d="M211.472 54.808c4.783.968 9.129 1.831 13.467 2.74.802.167 1.6.45 2.345.797 4.654 2.153 9.877.723 12.514-3.46 2.592-4.107 1.777-9.614-1.875-12.674-3.823-3.201-9.273-3.124-12.943.396-1.113 1.071-2.092 1.265-3.36.73-1.303-.555-2.58-1.179-4.198-1.924 1.337-2.876 2.365-5.651 3.86-8.145 1.347-2.238 3.701-3.045 6.219-2.202 10.355 3.47 20.699 6.967 30.972 10.679 1.379.501 2.729 2.095 3.357 3.51 7.854 17.729 15.572 35.515 23.324 53.29 1.451 3.33 2.923 6.652 4.307 10.008 1.472 3.576.438 6.4-3.074 7.944-14.34 6.306-28.697 12.567-43.083 18.775-3.588 1.549-6.484.289-8.063-3.326-9.178-21.015-18.366-42.024-27.418-63.093-.636-1.477-.708-3.563-.203-5.09 1.076-3.274 2.705-6.367 3.852-8.955zM245.104 31.541c-2.209-.76-4.393-1.385-6.446-2.294-.582-.257-.905-1.309-1.163-2.061-2.389-6.904-9.996-11.705-16.696-10.488-9.873 1.793-14.728 13.656-9.262 22.63 4.094 6.713 10.844 9.224 18.319 6.812 2.282-.735 4.066-.019 4.806 1.937.728 1.915-.161 3.64-2.377 4.62-7.664 3.388-17.617.909-23.829-5.932-7.995-8.801-7.994-22.8.004-30.908 8.357-8.472 22.06-8.209 30.117.577 4.527 4.941 6.67 9.799 6.527 15.107z"/><g fill="#fff"><path d="M257.158 122.06c-.432-.615-.928-1.544-1.329-2.462-.621-1.423-.761-2.453-.46-3.348.23-.722.809-1.318 1.604-1.665 1.362-.593 2.638-.13 3.48.795l.046-.019c-.072-.917.455-1.71 1.42-2.422 1.291-.963 2.18-1.641 2.483-2.029l.6 1.378c-.218.294-1.004.91-2.162 1.761-1.29.927-1.585 1.71-1.104 2.938l.549 1.254 4.466-1.947.581 1.333-10.174 4.433zm4.116-3.378l-.594-1.361c-.62-1.422-1.795-1.984-2.972-1.471-1.331.58-1.494 1.797-.895 3.21.279.643.541 1.075.697 1.263l3.764-1.641zM253.983 110.735l.014.03 1.688 1.323-.911.707-2.112-1.666-.499-1.148 9.945-4.333.567 1.3-8.692 3.787zM252.562 97.627c3.383-1.473 5.796-1.031 6.758 1.171.846 1.941-.399 4.052-3.677 5.516-3.335 1.453-5.799.814-6.679-1.203-.916-2.096.43-4.104 3.598-5.484zm2.509 5.333c2.585-1.126 3.707-2.56 3.172-3.785-.599-1.375-2.492-1.333-5.033-.226-2.448 1.066-3.78 2.392-3.174 3.784.514 1.177 2.325 1.407 5.035.227zM249.137 89.78c3.383-1.473 5.796-1.031 6.759 1.169.847 1.943-.4 4.052-3.677 5.518-3.335 1.453-5.799.815-6.68-1.205-.916-2.095.431-4.102 3.598-5.482zm2.51 5.332c2.585-1.126 3.707-2.562 3.172-3.785-.6-1.375-2.493-1.335-5.033-.228-2.448 1.066-3.781 2.393-3.174 3.785.513 1.178 2.326 1.408 5.035.228zM255.754 85.953c-1.052.056-2.868.357-4.058.676l-.809-1.432c1.454-.215 3.446-.282 4.353-.167l.514.923zM244.331 78.768c3.383-1.473 5.798-1.033 6.757 1.169.848 1.943-.4 4.052-3.674 5.516-3.337 1.453-5.8.815-6.681-1.203-.915-2.097.432-4.102 3.598-5.482zm2.51 5.332c2.585-1.126 3.709-2.562 3.174-3.786-.6-1.376-2.493-1.333-5.035-.226-2.446 1.066-3.78 2.393-3.172 3.784.513 1.179 2.324 1.408 5.033.228zM240.907 70.92c3.383-1.473 5.797-1.033 6.758 1.17.847 1.942-.399 4.052-3.675 5.516-3.337 1.454-5.801.815-6.682-1.203-.913-2.097.433-4.103 3.599-5.483zm2.511 5.332c2.585-1.126 3.707-2.562 3.173-3.786-.6-1.375-2.493-1.333-5.035-.226-2.447 1.066-3.781 2.393-3.173 3.784.513 1.178 2.326 1.409 5.035.228zM237.484 63.072c3.383-1.473 5.796-1.031 6.756 1.171.847 1.942-.399 4.052-3.675 5.516-3.335 1.453-5.8.814-6.68-1.204-.915-2.095.431-4.102 3.599-5.483zm2.51 5.334c2.585-1.125 3.707-2.561 3.172-3.786-.6-1.375-2.493-1.333-5.033-.226-2.448 1.067-3.781 2.392-3.174 3.784.514 1.177 2.325 1.409 5.035.228z"/></g></svg>