<svg xmlns="http://www.w3.org/2000/svg" width="250" height="158.128" viewBox="0 0 250 158.128"><g fill-rule="evenodd" clip-rule="evenodd" fill="#fff"><path d="M46.382 126.177c.029 2.62-2.104 4.79-4.782 4.859-2.843.073-5.156-2.166-5.084-4.925.064-2.581 2.328-4.726 4.967-4.703 2.649.022 4.868 2.185 4.899 4.769zM34.267 134.358h24.417v3.206h-24.417zM48.691 133.935c0 1.354-1.098 2.449-2.452 2.449h-9.567c-1.355 0-2.45-1.096-2.45-2.449 0-1.354 1.095-2.448 2.45-2.448h9.567c1.355-.001 2.452 1.093 2.452 2.448zM81.168 126.423c-.033 2.618 2.102 4.79 4.78 4.857 2.838.075 5.154-2.167 5.083-4.922-.064-2.581-2.329-4.728-4.963-4.703-2.654.024-4.873 2.181-4.9 4.768zM68.862 134.604h24.415v3.205h-24.415zM78.858 134.181c0 1.354 1.097 2.45 2.448 2.45h9.567c1.357 0 2.451-1.097 2.451-2.45 0-1.354-1.094-2.451-2.451-2.451h-9.567c-1.351-.001-2.448 1.097-2.448 2.451zM82.327 72.767c-.954.733-6.238 4.807-8.454 6.77-3.819 3.38-7.79 6.163-13.324 5.102-.827-.161-1.772.292-2.79.485v-5.031c4.859 5.953 9.392 2.65 10.506 1.764 2.498-1.983 2.276-6.674.162-8.739-2.935-2.867-7.547-2.196-10.626 2.397v-19.704h60.737v45.136h-48.698c0-3.215-.126-6.185.076-9.133.058-.854.898-1.829 1.645-2.425 3.741-2.996 10.864-8.207 14.672-11.119m-.279-4.954l.996-.936"/><path d="M75.8 130.176c-3.87 2.414-4.072 2.338-5.417-1.383-1.796-4.951-3.614-9.895-5.441-14.836-.219-.592-.494-6.629-1.007-7.674-.51 1.067-.923 7.169-1.163 7.824-1.848 5.033-3.668 10.077-5.507 15.116-.546 1.492-.708 3.15-3.258 2.27-2.497-.864-1.776-2.171-1.188-3.748 1.007-2.687 1.703-5.528 3.003-8.069 3.319-6.535 3.675-24.595 3.391-25.818-1.956 3.16-4.084 6.922-5.826 9.729-2.421 3.905-5.503 2.383-2.483-2.593 2.305-4.306 4.933-9.115 7.166-13.459.752-1.47 1.686-2.276 3.355-1.981 4.437.78 7.742-1.155 11.128-3.874 2-1.599 4.065-3.196 6.112-4.777 3.062-2.363 6.254-.267 3.946 2.61-.525.653-8.132 6.499-12.079 9.625-.888.707-1.574 2.178-1.602 3.318-.133 5.731-.104 11.3-.021 16.955.018 1.207.317 2.46.722 3.609 2.019 5.758 4.12 11.485 6.169 17.156zM68.972 77.455c-.017 2.863-2.253 5.02-5.136 4.959-2.758-.061-4.844-2.156-4.896-4.915-.049-2.834 2.18-5.138 4.988-5.149 2.787-.014 5.061 2.288 5.044 5.105z"/></g><g fill-rule="evenodd" clip-rule="evenodd" fill="#fff"><path d="M196.584 126.177c-.027 2.62 2.104 4.79 4.785 4.859 2.837.073 5.153-2.166 5.085-4.925-.067-2.581-2.335-4.726-4.971-4.703-2.645.022-4.868 2.185-4.899 4.769zM184.282 134.358h24.417v3.206h-24.417zM194.278 133.935c0 1.354 1.097 2.449 2.448 2.449h9.567c1.354 0 2.451-1.096 2.451-2.449 0-1.354-1.098-2.448-2.451-2.448h-9.567c-1.351-.001-2.448 1.093-2.448 2.448zM161.802 126.423c.031 2.618-2.104 4.79-4.782 4.857-2.839.075-5.152-2.167-5.084-4.922.064-2.581 2.328-4.728 4.967-4.703 2.649.024 4.868 2.183 4.899 4.768zM149.688 134.604h24.415v3.205h-24.415zM164.111 134.181c0 1.354-1.101 2.45-2.452 2.45h-9.569c-1.352 0-2.448-1.097-2.448-2.45 0-1.354 1.097-2.451 2.448-2.451h9.569c1.352-.001 2.452 1.097 2.452 2.451zM156.733 78.27c3.808 2.912 10.932 8.123 14.676 11.119.742.596 1.585 1.571 1.641 2.425.204 2.948.08 5.918.08 9.133h-48.701v-45.136h60.736v19.704c-3.079-4.594-7.689-5.265-10.624-2.397-2.114 2.065-2.336 6.756.16 8.739 1.116.887 5.646 4.189 10.503-1.764v5.031c-1.014-.193-1.96-.646-2.787-.485-5.533 1.061-9.503-1.722-13.32-5.102-2.218-1.963-7.504-6.036-8.458-6.77m-4.619-.387l.993.936"/><path d="M167.17 130.176c3.859 2.414 4.068 2.338 5.417-1.383 1.794-4.951 3.612-9.895 5.438-14.836.222-.592.495-6.629 1.007-7.674.512 1.067.923 7.169 1.163 7.824 1.849 5.033 3.668 10.077 5.508 15.116.547 1.492.709 3.15 3.261 2.27 2.494-.864 1.776-2.171 1.184-3.748-1.007-2.687-1.703-5.528-2.999-8.069-3.323-6.535-3.675-24.595-3.396-25.818 1.958 3.16 4.086 6.924 5.831 9.729 2.418 3.905 5.504 2.383 2.48-2.593-2.306-4.306-4.933-9.115-7.165-13.459-.753-1.47-1.685-2.276-3.354-1.981-4.437.78-7.744-1.155-11.133-3.874-1.996-1.599-4.062-3.196-6.108-4.777-3.061-2.363-6.255-.267-3.945 2.61.524.653 8.13 6.499 12.077 9.625.892.707 1.578 2.178 1.603 3.318.132 5.731.104 11.3.021 16.955-.016 1.207-.316 2.46-.721 3.609-2.024 5.758-4.124 11.485-6.169 17.156zM173.994 77.455c.02 2.863 2.254 5.02 5.138 4.959 2.756-.061 4.843-2.156 4.895-4.915.053-2.834-2.177-5.138-4.988-5.149-2.788-.014-5.062 2.288-5.045 5.105z"/></g><g fill-rule="evenodd" clip-rule="evenodd" fill="#fff"><path d="M238.312 33.531c-.495 4.53-2.334 8.751-7.03 11.017-2.302 1.11-3.64 2.166-3.361 5.109.394 4.199-2.152 7.083-5.713 8.81-3.884 1.884-7.75 1.3-10.893-1.676-1.771-1.675-2.706-2.076-5.375-.796-6.496 3.114-11.177.292-11.15-1.792.095-7.509-12.104-7.785-11.084-16.83.549-4.896 4.539-8.208 9.537-7.199 3.242.657 4.734.436 6.549-2.775 2.622-4.648 7.378-6.491 12.664-4.671 2.503.867 4.163.374 6.373-.776 9.042-4.71 19.286 1.269 19.483 11.579zM206.254 59.018c2.878.186 4.721 1.926 4.739 4.854.02 3.176-2.005 5.149-5.115 5.029-2.85-.11-4.579-2.17-4.557-5.047.018-2.995 1.899-4.681 4.933-4.836zM193.28 71.532c.047-3.271 1.499-4.087 3.405-4.005 1.689.074 3.152 1.008 3.042 2.935-.123 2.203-1.13 3.556-3.251 3.477-2.017-.075-3.163-1.118-3.196-2.407zM186.82 76.647c.033-2.082.958-2.603 2.167-2.55 1.076.047 2.01.643 1.937 1.867-.08 1.4-.722 2.261-2.069 2.21-1.283-.047-2.012-.709-2.035-1.527z"/></g><g fill-rule="evenodd" clip-rule="evenodd" fill="#fff"><path d="M4.666 34.249c.493 4.527 2.332 8.748 7.028 11.015 2.306 1.111 3.64 2.164 3.364 5.109-.398 4.199 2.149 7.083 5.71 8.81 3.886 1.883 7.749 1.3 10.893-1.676 1.772-1.673 2.706-2.077 5.375-.797 6.496 3.116 11.175.295 11.152-1.789-.093-7.509 12.103-7.787 11.086-16.831-.551-4.897-4.543-8.209-9.54-7.2-3.242.657-4.731.436-6.547-2.777-2.625-4.646-7.376-6.49-12.666-4.667-2.504.865-4.162.371-6.374-.778-9.04-4.71-19.286 1.27-19.481 11.581zM36.723 59.734c-2.874.188-4.717 1.925-4.737 4.856-.021 3.173 2.004 5.146 5.115 5.028 2.85-.111 4.577-2.171 4.56-5.048-.02-2.996-1.903-4.682-4.938-4.836zM49.698 72.249c-.049-3.274-1.501-4.088-3.401-4.007-1.695.074-3.158 1.008-3.047 2.938.128 2.201 1.133 3.554 3.254 3.475 2.017-.077 3.163-1.118 3.194-2.406zM56.156 77.361c-.031-2.08-.958-2.601-2.166-2.548-1.077.047-2.007.643-1.938 1.868.08 1.399.722 2.26 2.069 2.211 1.283-.047 2.015-.711 2.035-1.531z"/></g><path fill="#fff" d="M43.243 35.331c-.532-.464-.814-.825-1.185-1.02-2.055-1.075-4.11-2.146-6.207-3.128-.453-.213-1.143-.227-1.613-.044-5.1 1.978-10.186 4.003-15.25 6.058-.404.166-.92.674-.92 1.027-.003.37.474.883.873 1.094 1.952 1.036 3.924 2.034 5.938 2.95.51.232 1.261.316 1.763.122 5.15-1.995 10.276-4.057 15.396-6.126.376-.15.669-.509 1.205-.933zM18.243 43.067l-.366.39c.3.382.52.911.911 1.115 2.099 1.109 4.23 2.16 6.376 3.166.38.178.958.201 1.345.051 5.201-2.037 10.388-4.103 15.558-6.211.394-.16.628-.717.934-1.089l-.37-.35c-.585.216-1.181.417-1.762.649-4.552 1.813-9.113 3.603-13.646 5.47-1.021.426-1.846.385-2.821-.135-2.017-1.082-4.104-2.044-6.159-3.056zM18.299 39.535l-.397.443c.382.396.693.924 1.153 1.168 1.905 1.018 3.835 1.992 5.8 2.887.509.232 1.25.325 1.749.131 5.155-1.989 10.286-4.04 15.405-6.123.412-.168.678-.705 1.008-1.072l-.365-.403c-.629.236-1.261.464-1.888.712-4.546 1.815-9.103 3.604-13.628 5.477-.979.403-1.747.337-2.663-.151-2.03-1.079-4.113-2.051-6.174-3.069zM43.003 38.739l-.352-.387c-.478.179-.955.345-1.425.532-4.741 1.884-9.465 3.801-14.229 5.614-.676.256-1.645.205-2.313-.085-2.194-.953-4.312-2.082-6.462-3.142l-.376.414c.342.391.606.92 1.038 1.148 1.999 1.061 4.026 2.065 6.077 3.024.432.202 1.065.32 1.481.158 5.245-2.038 10.472-4.122 15.683-6.244.369-.147.586-.678.878-1.032zM42.996 42.319l-.38-.435c-4.19 1.671-8.468 3.154-12.54 5.076-2.975 1.403-5.57 1.609-8.315-.355-1.063-.76-2.365-1.18-3.562-1.757l-.301.434c.278.292.508.683.846.863 2.099 1.102 4.205 2.186 6.34 3.201.42.201 1.056.24 1.487.074 5.192-2.022 10.367-4.09 15.533-6.185.363-.145.594-.603.892-.916z"/><path fill-rule="evenodd" clip-rule="evenodd" fill="#5E7E53" d="M43.243 35.331c-.536.425-.829.783-1.205.934-5.12 2.069-10.246 4.131-15.396 6.126-.502.194-1.253.11-1.763-.122-2.014-.916-3.985-1.914-5.938-2.95-.399-.211-.876-.724-.873-1.094 0-.354.516-.861.92-1.027 5.064-2.055 10.15-4.08 15.25-6.058.471-.183 1.16-.169 1.613.044 2.097.981 4.152 2.053 6.207 3.128.371.193.653.555 1.185 1.019zm-21.409 3.096c2.934 2.316 7.275 1.538 9.468-.22-2.09-.391-4.357-.432-5.267-2.881-3.906 1.489-3.906 1.489-4.201 3.101zm17.17-4.541c-3.274-1.922-7.139-1.798-9.248.293 2.01.347 4.161.439 5.058 2.781 3.814-1.067 3.936-1.156 4.19-3.074zM18.243 43.067c2.055 1.012 4.142 1.974 6.158 3.057.976.52 1.8.561 2.821.135 4.532-1.867 9.094-3.656 13.646-5.47.581-.232 1.177-.434 1.762-.649l.37.35c-.306.372-.54.929-.934 1.089-5.17 2.108-10.356 4.174-15.558 6.211-.387.15-.965.127-1.345-.051-2.146-1.006-4.277-2.057-6.376-3.166-.392-.204-.611-.733-.911-1.115l.367-.391zM18.299 39.535c2.062 1.019 4.145 1.99 6.174 3.067.916.488 1.685.555 2.663.151 4.525-1.872 9.082-3.661 13.628-5.477.627-.248 1.259-.476 1.888-.712l.365.403c-.33.367-.596.904-1.008 1.072-5.119 2.083-10.25 4.134-15.405 6.123-.499.194-1.24.102-1.749-.131-1.965-.895-3.895-1.869-5.8-2.887-.46-.244-.771-.771-1.153-1.168l.397-.441zM43.003 38.739c-.292.354-.509.885-.878 1.034-5.211 2.122-10.438 4.206-15.683 6.244-.416.162-1.05.044-1.481-.158-2.051-.959-4.078-1.964-6.077-3.024-.432-.229-.696-.758-1.038-1.148l.376-.414c2.149 1.06 4.268 2.188 6.462 3.142.669.29 1.638.341 2.313.085 4.765-1.813 9.488-3.73 14.229-5.614.47-.188.947-.354 1.425-.532l.352.385zM42.996 42.319c-.298.313-.529.771-.892.917-5.166 2.095-10.341 4.162-15.533 6.185-.432.166-1.067.127-1.487-.074-2.135-1.016-4.241-2.1-6.34-3.201-.338-.181-.567-.571-.846-.863l.301-.434c1.196.577 2.498.997 3.562 1.757 2.745 1.965 5.341 1.759 8.315.355 4.072-1.922 8.35-3.405 12.54-5.076l.38.434z"/><path fill-rule="evenodd" clip-rule="evenodd" fill="#fff" d="M21.834 38.427c.295-1.612.295-1.612 4.201-3.101.909 2.449 3.177 2.49 5.267 2.881-2.193 1.758-6.534 2.537-9.468.22zM39.004 33.886c-.254 1.918-.376 2.007-4.19 3.074-.896-2.342-3.048-2.435-5.058-2.781 2.109-2.091 5.973-2.215 9.248-.293z"/><path fill="#ED1C24" d="M221.452 30.453h-19.329l17.006-6.284 2.323 6.284zm-29.319 3.692l3.855 10.43v-11.855l-3.855 1.425zm6.989 18.909l.12-.044h-.136l.016.044zm26.845-21.401v20.159h-28.783v-20.159h28.783zm-15.541 17.062h-10.55v1.049h10.55v-1.049zm0-2.446h-10.55v1.047h10.55v-1.047zm0-2.444h-10.55v1.048h10.55v-1.048zm0-2.447h-10.55v1.05h10.55v-1.05zm12.851 7.337h-10.551v1.049h10.551v-1.049zm0-2.446h-10.551v1.047h10.551v-1.047zm0-2.444h-10.551v1.048h10.551v-1.048zm0-2.447h-10.551v1.05h10.551v-1.05z"/><g fill="#fff"><path d="M202.451 35.116v.403h-.792v2.233h-.491v-2.233h-.796v-.403h2.079zM202.737 37.752v-2.708h.45v1.041c.073-.069.153-.125.241-.167.087-.042.189-.064.308-.064.103 0 .192.018.271.052.079.034.146.083.198.146l.12.224.041.287v1.19h-.45v-1.19c0-.114-.026-.203-.079-.265s-.133-.094-.238-.094c-.077 0-.15.018-.219.053l-.193.144v1.353h-.45zM205.583 35.853c.117 0 .226.019.325.057.099.038.185.093.256.165.072.072.128.161.168.266s.06.225.06.36l-.004.085-.017.053-.032.027-.051.008h-1.155c.013.192.064.333.154.423s.209.135.357.135l.188-.025.139-.057.104-.057.086-.025.048.011.034.031.132.164-.168.146-.194.095-.206.05-.203.015c-.13 0-.251-.021-.362-.065-.112-.043-.209-.106-.292-.191s-.147-.189-.195-.314c-.047-.125-.07-.269-.07-.433 0-.127.021-.248.062-.36.041-.113.101-.21.178-.293.077-.083.171-.149.282-.198.11-.049.236-.073.376-.073zm.009.322c-.131 0-.233.037-.308.111-.074.074-.122.179-.143.315h.846l-.023-.165-.073-.136-.124-.092-.175-.033zM207.543 37.752v-1.531l-.163-.025-.084-.037-.032-.076v-.185h.279v-.138c0-.107.016-.203.048-.288l.139-.217c.06-.06.133-.105.22-.137.086-.032.184-.047.291-.047l.241.035-.01.226-.049.065-.105.013-.144.018-.106.06-.066.113-.022.174v.124h.486v.321h-.472v1.533h-.451zM209.151 35.882v1.188c0 .114.026.203.079.265.054.062.133.094.238.094.078 0 .15-.017.219-.052l.193-.143v-1.353h.45v1.87h-.275c-.059 0-.097-.027-.115-.082l-.03-.149-.121.106-.132.082-.151.053-.174.019c-.103 0-.192-.018-.271-.052l-.198-.146c-.053-.063-.094-.138-.121-.225l-.041-.287v-1.188h.45zM211.426 37.781c-.161 0-.286-.046-.373-.138-.088-.092-.132-.218-.132-.38v-1.044h-.189l-.062-.024-.026-.071v-.178l.301-.049.095-.51.033-.057.066-.02h.233v.588h.492v.321h-.492v1.013l.044.137.117.049.069-.01.05-.021.037-.021.033-.01.032.01.027.03.135.219c-.065.055-.141.096-.226.124l-.264.042zM212.635 35.882v1.188c0 .114.026.203.079.265.054.062.133.094.238.094.078 0 .15-.017.219-.052l.193-.143v-1.353h.45v1.87h-.275c-.059 0-.097-.027-.115-.082l-.03-.149-.121.106-.132.082-.151.053-.174.019c-.103 0-.192-.018-.271-.052l-.198-.146c-.053-.063-.094-.138-.121-.225l-.041-.287v-1.188h.45zM214.295 37.752v-1.87h.265l.097.025.036.087.027.226c.067-.115.146-.207.235-.273s.19-.1.303-.1c.092 0 .169.021.229.064l-.059.337-.023.046-.049.014-.075-.013-.126-.013c-.093 0-.174.026-.24.078s-.123.127-.17.227v1.165h-.45zM216.558 35.853c.117 0 .226.019.325.057.099.038.185.093.256.165.072.072.128.161.168.266s.06.225.06.36l-.004.085-.017.053-.032.027-.051.008h-1.155c.013.192.064.333.154.423s.209.135.357.135l.188-.025.139-.057.104-.057.086-.025.048.011.034.031.132.164-.168.146-.194.095-.206.05-.203.015c-.13 0-.251-.021-.362-.065-.112-.043-.209-.106-.292-.191s-.147-.189-.195-.314c-.047-.125-.07-.269-.07-.433 0-.127.021-.248.062-.36.041-.113.101-.21.178-.293.077-.083.171-.149.282-.198.11-.049.236-.073.376-.073zm.008.322c-.131 0-.233.037-.308.111-.074.074-.122.179-.143.315h.846l-.023-.165-.073-.136-.124-.092-.175-.033zM219.875 35.596l-.047.057-.062.016-.082-.028-.107-.063-.145-.062-.196-.028-.178.024-.128.068-.077.105-.025.134.052.155.138.105.195.079.223.074.224.091.195.131.138.194c.034.077.052.169.052.279 0 .119-.021.23-.062.334-.04.104-.1.194-.179.271-.078.077-.174.138-.287.182-.112.044-.242.067-.388.067l-.248-.025-.234-.07-.21-.109-.174-.143.143-.235.048-.043.063-.017.098.037.125.083.17.083.234.037c.14 0 .248-.033.324-.099s.115-.161.115-.285l-.053-.169-.138-.11-.194-.076-.223-.067-.223-.087-.194-.133c-.058-.055-.104-.123-.138-.205-.035-.082-.053-.183-.053-.303 0-.096.02-.19.058-.281.038-.091.095-.172.168-.243s.164-.127.271-.169c.107-.042.229-.064.366-.064.156 0 .299.024.431.073.131.048.243.117.335.204l-.121.231zM222.734 37.752h-.379l-.105-.032-.059-.08-.197-.538h-1.092l-.197.538-.057.077-.105.035h-.381l1.035-2.636h.502l1.035 2.636zm-1.706-.995h.84l-.32-.877-.049-.138-.052-.172-.05.173-.049.141-.32.873z"/></g></svg>