<svg xmlns="http://www.w3.org/2000/svg" width="313.827" height="259.339" viewBox="0 0 313.827 259.339"><g fill-rule="evenodd" clip-rule="evenodd" fill="#fff"><path d="M49.608 213.158c.098 8.271-6.646 15.126-15.104 15.35-8.965.231-16.278-6.843-16.058-15.556.205-8.148 7.363-14.924 15.688-14.852 8.366.073 15.379 6.897 15.474 15.058zM11.353 239h77.108v10.123h-77.108zM56.901 237.662c0 4.273-3.462 7.74-7.741 7.74h-30.218c-4.276 0-7.742-3.467-7.742-7.74 0-4.277 3.466-7.742 7.742-7.742h30.218c4.278 0 7.741 3.465 7.741 7.742zM87.066 196.854c.082 6.841-5.493 12.504-12.486 12.688-7.415.194-13.456-5.657-13.273-12.857.162-6.735 6.086-12.339 12.972-12.28 6.912.059 12.706 5.7 12.787 12.449zM55.438 218.218h63.753v8.37h-63.753zM93.099 217.111c0 3.535-2.867 6.401-6.4 6.401h-24.981c-3.54 0-6.404-2.866-6.404-6.401 0-3.535 2.865-6.4 6.404-6.4h24.981c3.533 0 6.4 2.865 6.4 6.4zM118.912 182.148c.068 5.813-4.667 10.63-10.617 10.785-6.303.164-11.439-4.806-11.284-10.93.145-5.729 5.177-10.489 11.029-10.438 5.875.051 10.804 4.845 10.872 10.583zM92.024 200.308h54.192v7.116h-54.192zM124.036 199.369c0 3.003-2.438 5.438-5.442 5.438h-21.233c-3.006 0-5.441-2.436-5.441-5.438 0-3.007 2.435-5.439 5.441-5.439h21.233c3.004 0 5.442 2.432 5.442 5.439zM265.421 213.705c-.102 8.271 6.646 15.125 15.103 15.348 8.968.232 16.275-6.842 16.061-15.554-.204-8.148-7.365-14.925-15.692-14.853-8.364.074-15.373 6.897-15.472 15.059zM226.568 239.547h77.109v10.121h-77.109zM258.13 238.207c0 4.277 3.463 7.74 7.737 7.74h30.218c4.274 0 7.741-3.463 7.741-7.74 0-4.275-3.467-7.742-7.741-7.742h-30.218c-4.274 0-7.737 3.467-7.737 7.742zM227.963 197.398c-.083 6.841 5.495 12.508 12.483 12.69 7.415.192 13.46-5.657 13.277-12.859-.169-6.738-6.085-12.336-12.972-12.277-6.907.057-12.71 5.699-12.788 12.446zM195.841 218.767h63.748v8.365h-63.748zM221.929 217.658c0 3.535 2.868 6.399 6.4 6.399h24.985c3.537 0 6.398-2.864 6.398-6.399 0-3.538-2.861-6.399-6.398-6.399h-24.984c-3.533 0-6.401 2.861-6.401 6.399zM196.118 182.696c-.071 5.81 4.669 10.629 10.614 10.783 6.304.162 11.436-4.808 11.288-10.931-.144-5.724-5.176-10.488-11.028-10.436-5.879.05-10.804 4.845-10.874 10.584zM168.81 200.854h54.195v7.116h-54.195zM190.989 199.913c0 3.004 2.438 5.44 5.446 5.44h21.232c3.008 0 5.439-2.437 5.439-5.44 0-3.004-2.432-5.439-5.439-5.439h-21.232c-3.008 0-5.446 2.435-5.446 5.439zM198.697 63.596c-2.117 1.626-13.848 10.672-18.766 15.026-8.482 7.506-17.292 13.683-29.571 11.322-1.838-.354-3.939.652-6.19 1.082v-11.173c10.785 13.217 20.844 5.887 23.32 3.918 5.536-4.401 5.046-14.812.352-19.397-6.515-6.365-16.745-4.875-23.583 5.324v-43.738h134.816v100.187h-108.101c0-7.134-.277-13.728.175-20.273.129-1.891 1.995-4.059 3.646-5.379 8.307-6.652 24.119-18.214 32.569-24.682m-.619-10.999l2.207-2.077"/><path d="M184.202 191.026c-8.576 5.357-9.036 5.188-12.023-3.068-3.982-10.992-8.021-21.965-12.071-32.933-.487-1.312-1.101-14.71-2.235-17.032-1.136 2.37-2.047 15.91-2.581 17.364-4.102 11.175-8.144 22.372-12.228 33.553-1.21 3.312-1.569 6.997-7.226 5.038-5.546-1.918-3.95-4.815-2.637-8.316 2.235-5.967 3.782-12.274 6.658-17.915 7.375-14.507 8.161-54.587 7.531-57.306-4.337 7.014-9.066 15.37-12.927 21.594-5.376 8.671-12.222 5.292-5.516-5.753 5.115-9.559 10.948-20.232 15.904-29.875 1.674-3.261 3.744-5.049 7.451-4.397 9.846 1.732 17.182-2.563 24.703-8.597 4.431-3.55 9.014-7.093 13.565-10.604 6.791-5.247 13.877-.592 8.756 5.793-1.169 1.451-18.046 14.422-26.806 21.363-1.981 1.568-3.502 4.833-3.561 7.363-.287 12.725-.226 25.086-.046 37.632.037 2.687.702 5.461 1.602 8.017 4.485 12.778 9.144 25.493 13.687 38.079zM169.056 73.999c-.044 6.356-5.004 11.148-11.399 11.009-6.122-.134-10.755-4.785-10.868-10.908-.117-6.288 4.834-11.405 11.069-11.43 6.187-.028 11.236 5.08 11.198 11.329z"/></g><path fill-rule="evenodd" clip-rule="evenodd" fill="#ED1C24" d="M211.472 54.808c4.783.968 9.129 1.831 13.467 2.74.802.167 1.6.45 2.345.797 4.654 2.153 9.877.723 12.514-3.46 2.592-4.107 1.777-9.614-1.875-12.674-3.823-3.201-9.273-3.124-12.943.396-1.113 1.071-2.092 1.265-3.36.73-1.303-.555-2.58-1.179-4.198-1.924 1.337-2.876 2.365-5.651 3.86-8.145 1.347-2.238 3.701-3.045 6.219-2.202 10.355 3.47 20.699 6.967 30.972 10.679 1.379.501 2.729 2.095 3.357 3.51 7.854 17.729 25.247 52.942 26.631 56.298 1.472 3.576.438 7.4-3.074 8.944-14.34 6.306-28.697 12.567-43.083 18.775-3.588 1.549-6.484.289-8.063-3.326-9.178-21.015-17.366-36.024-26.418-57.093-.636-1.477-.708-3.563-.203-5.09 1.076-3.274 2.705-6.367 3.852-8.955zM245.104 31.541c-2.209-.76-4.393-1.385-6.446-2.294-.582-.257-.905-1.309-1.163-2.061-2.389-6.904-9.996-11.705-16.696-10.488-9.873 1.793-14.728 13.656-9.262 22.63 4.094 6.713 10.844 9.224 18.319 6.812 2.282-.735 4.066-.019 4.806 1.937.728 1.915-.161 3.64-2.377 4.62-7.664 3.388-17.617.909-23.829-5.932-7.995-8.801-7.994-22.8.004-30.908 8.357-8.472 22.06-8.209 30.117.577 4.527 4.941 6.67 9.799 6.527 15.107z"/><path fill="#fff" d="M237.118 104.614c-1.486-2.116-3.197-5.315-4.578-8.476-2.139-4.897-2.62-8.443-1.582-11.528.791-2.485 2.781-4.535 5.523-5.731 4.689-2.04 9.079-.448 11.983 2.739l.158-.066c-.25-3.157 1.565-5.886 4.887-8.338 4.446-3.315 7.504-5.649 8.549-6.987l2.066 4.746c-.751 1.015-3.457 3.134-7.445 6.061-4.442 3.194-5.458 5.89-3.8 10.118l1.888 4.317 15.377-6.7 2 4.587-35.026 15.258zm14.172-11.63l-2.047-4.687c-2.135-4.894-6.179-6.832-10.229-5.065-4.584 1.994-5.145 6.186-3.082 11.05.962 2.215 1.866 3.704 2.403 4.347l12.955-5.645z"/></svg>