<svg xmlns="http://www.w3.org/2000/svg" width="184.854" height="187.369" viewBox="0 0 184.854 187.369"><g fill-rule="evenodd" clip-rule="evenodd" fill="#fff"><path d="M59.152 168.227c4.037-.105 7.252-3.375 7.207-7.322-.047-3.896-3.391-7.156-7.383-7.188-3.977-.033-7.389 3.197-7.486 7.088-.108 4.156 3.379 7.533 7.662 7.422zM69.839 172.525c0-2.041-1.652-3.525-3.695-3.525h-14.418c-2.043 0-3.744 1.601-3.744 3.642l.018.632v4.726h37v-5h-15.225c.037 0 .064-.256.064-.475zM125.986 168.594c4.277.113 7.768-3.264 7.66-7.418-.098-3.889-3.51-7.123-7.479-7.086-4 .033-7.344 3.287-7.387 7.184-.048 3.945 3.169 7.218 7.206 7.32zM133.41 169h-14.418c-2.037 0-3.691 1.989-3.691 4.028 0 .218.028-.028.064.972h-15.365v4h37v-4.316l.088-.854c0-2.04-1.633-3.83-3.678-3.83zM84 55v29.555c4-6.924 11.374-7.936 15.798-3.613 3.186 3.111 3.66 10.18-.104 13.17-1.68 1.335-8.694 6.312-15.694-2.661v7.584c1-.291 2.711-.975 3.957-.732 8.34 1.602 14.2-2.594 19.956-7.688 3.34-2.959 11.241-9.098 12.678-10.201l5.854 8.293c-5.736 4.389-16.488 12.242-22.127 16.756-1.123.898-2.398 2.427-2.484 3.714-.305 4.443-.124 8.823-.124 13.823h73.29v-68h-91zM110.691 166.93c-3.086-8.545-6.252-17.176-9.297-25.854-.607-1.732-1.061-3.619-1.086-5.439-.123-8.521-.168-16.914.031-25.551.043-1.721 1.076-3.936 2.416-5 5.947-4.713 17.41-13.521 18.201-14.506 3.479-4.336-1.332-7.494-5.947-3.934-3.084 2.383-6.197 4.789-9.211 7.199-5.102 4.098-10.084 7.014-16.77 5.838-2.516-.443-3.924.771-5.057 2.986-3.365 6.547-7.326 13.793-10.799 20.281-4.551 7.5.094 9.793 3.742 3.908 2.625-4.23 5.832-9.9 8.781-14.662.428 1.844-.107 29.061-5.111 38.908-1.957 3.83-3.008 8.113-4.525 12.16-.887 2.379-1.973 4.348 1.791 5.648 3.842 1.328 4.086-1.17 4.908-3.42 2.771-7.594 5.514-15.195 8.299-22.779.363-.988.984-10.182 1.754-11.791.771 1.574 1.186 10.672 1.518 11.564 2.752 7.447 5.492 14.896 8.199 22.357 2.026 5.61 2.331 5.725 8.163 2.087zM100.402 87.477c.027-4.242-3.4-7.713-7.6-7.693-4.234.018-7.592 3.49-7.518 7.76.078 4.158 3.223 7.316 7.377 7.408 4.344.091 7.715-3.159 7.741-7.475z"/></g><g fill-rule="evenodd" clip-rule="evenodd" fill="#fff"><path d="M3.494 22.365c.742 6.822 3.514 13.184 10.59 16.6 3.477 1.676 5.486 3.262 5.072 7.701-.602 6.326 3.238 10.674 8.604 13.275 5.855 2.838 11.678 1.959 16.416-2.527 2.672-2.52 4.078-3.129 8.1-1.199 9.791 4.697 16.84.443 16.807-2.697-.14-11.317 18.237-11.735 16.706-25.364-.83-7.381-6.846-12.373-14.377-10.852-4.887.99-7.131.656-9.867-4.186-3.955-7.002-11.115-9.781-19.086-7.033-3.775 1.305-6.273.561-9.607-1.172-13.624-7.097-29.065 1.917-29.358 17.454zM51.802 60.771c-4.33.283-7.107 2.9-7.139 7.32-.033 4.781 3.02 7.754 7.709 7.578 4.293-.168 6.896-3.273 6.871-7.609-.029-4.515-2.867-7.056-7.441-7.289zM71.357 79.633c-.074-4.936-2.262-6.162-5.127-6.039-2.553.111-4.758 1.52-4.59 4.428.191 3.316 1.705 5.354 4.902 5.236 3.04-.115 4.768-1.684 4.815-3.625zM81.089 87.336c-.047-3.135-1.443-3.918-3.266-3.84-1.621.072-3.023.967-2.918 2.818.121 2.105 1.086 3.402 3.117 3.328 1.935-.072 3.036-1.07 3.067-2.306z"/></g><path fill="#333" d="M61.628 23.996c-.803-.699-1.227-1.244-1.783-1.537-3.098-1.619-6.195-3.232-9.355-4.713-.682-.32-1.723-.342-2.43-.066-7.686 2.98-15.352 6.031-22.984 9.129-.607.25-1.385 1.016-1.385 1.549-.006.559.713 1.33 1.314 1.646 2.943 1.562 5.914 3.066 8.949 4.447.768.35 1.898.477 2.656.184 7.76-3.008 15.484-6.113 23.203-9.232.567-.227 1.009-.766 1.815-1.407zM23.953 35.654l-.551.588c.451.574.783 1.373 1.373 1.682 3.162 1.67 6.375 3.254 9.609 4.77.572.268 1.443.303 2.025.076 7.838-3.068 15.654-6.182 23.445-9.359.594-.242.947-1.08 1.406-1.641l-.557-.525c-.881.324-1.779.627-2.656.977-6.857 2.734-13.732 5.43-20.562 8.244-1.539.641-2.781.58-4.252-.205-3.038-1.632-6.183-3.081-9.28-4.607zM24.037 30.332l-.598.668c.574.598 1.045 1.393 1.738 1.76 2.871 1.533 5.779 3.002 8.74 4.352.766.35 1.885.488 2.635.197 7.77-2.998 15.502-6.09 23.217-9.229.621-.254 1.02-1.062 1.52-1.617l-.551-.607c-.949.357-1.9.699-2.846 1.074-6.852 2.734-13.717 5.432-20.537 8.254-1.475.607-2.633.506-4.014-.229-3.056-1.623-6.197-3.088-9.304-4.623zM61.267 29.133l-.529-.582c-.721.268-1.439.518-2.148.801-7.145 2.84-14.262 5.729-21.443 8.461-1.02.385-2.479.309-3.486-.129-3.307-1.436-6.498-3.137-9.738-4.734l-.566.625c.514.588.914 1.387 1.564 1.73 3.014 1.6 6.068 3.111 9.158 4.557.65.307 1.605.482 2.232.24 7.904-3.072 15.781-6.213 23.635-9.41.555-.227.88-1.024 1.321-1.559zM61.257 34.527l-.572-.656c-6.316 2.52-12.762 4.756-18.898 7.652-4.484 2.113-8.395 2.424-12.531-.537-1.604-1.145-3.564-1.777-5.367-2.646l-.455.652c.42.439.768 1.029 1.275 1.301 3.164 1.66 6.336 3.295 9.555 4.824.633.305 1.59.363 2.242.111 7.824-3.047 15.623-6.162 23.408-9.318.544-.221.894-.91 1.343-1.383z"/><path fill-rule="evenodd" clip-rule="evenodd" fill="#5E7E53" d="M61.628 23.996c-.807.641-1.248 1.18-1.814 1.406-7.719 3.119-15.443 6.225-23.203 9.232-.758.293-1.889.166-2.656-.184-3.035-1.381-6.006-2.885-8.949-4.447-.602-.316-1.32-1.088-1.314-1.646 0-.533.777-1.299 1.385-1.549 7.633-3.098 15.299-6.148 22.984-9.129.707-.275 1.748-.254 2.43.066 3.16 1.48 6.258 3.094 9.355 4.713.556.294.98.839 1.782 1.538zm-32.263 4.668c4.42 3.49 10.965 2.316 14.27-.332-3.15-.59-6.568-.65-7.938-4.342-5.889 2.244-5.889 2.244-6.332 4.674zm25.875-6.846c-4.934-2.895-10.758-2.709-13.938.443 3.029.521 6.271.662 7.623 4.189 5.748-1.606 5.932-1.739 6.315-4.632zM23.953 35.654c3.098 1.525 6.242 2.975 9.281 4.605 1.471.785 2.713.846 4.252.205 6.83-2.814 13.705-5.51 20.562-8.244.877-.35 1.775-.652 2.656-.977l.557.525c-.459.561-.812 1.398-1.406 1.641-7.791 3.178-15.607 6.291-23.445 9.359-.582.227-1.453.191-2.025-.076-3.234-1.516-6.447-3.1-9.609-4.77-.59-.309-.922-1.107-1.373-1.682l.55-.586zM24.037 30.332c3.107 1.535 6.248 3 9.305 4.623 1.381.734 2.539.836 4.014.229 6.82-2.822 13.686-5.52 20.537-8.254.945-.375 1.896-.717 2.846-1.074l.551.607c-.5.555-.898 1.363-1.52 1.617-7.715 3.139-15.447 6.23-23.217 9.229-.75.291-1.869.152-2.635-.197-2.961-1.35-5.869-2.818-8.74-4.352-.693-.367-1.164-1.162-1.738-1.76l.597-.668zM61.267 29.133c-.441.535-.766 1.332-1.322 1.559-7.854 3.197-15.73 6.338-23.635 9.41-.627.242-1.582.066-2.232-.24-3.09-1.445-6.145-2.957-9.158-4.557-.65-.344-1.051-1.143-1.564-1.73l.566-.625c3.24 1.598 6.432 3.299 9.738 4.734 1.008.438 2.467.514 3.486.129 7.182-2.732 14.299-5.621 21.443-8.461.709-.283 1.428-.533 2.148-.801l.53.582zM61.257 34.527c-.449.473-.799 1.162-1.344 1.383-7.785 3.156-15.584 6.271-23.408 9.318-.652.252-1.609.193-2.242-.111-3.219-1.529-6.391-3.164-9.555-4.824-.508-.271-.855-.861-1.275-1.301l.455-.652c1.803.869 3.764 1.502 5.367 2.646 4.137 2.961 8.047 2.65 12.531.537 6.137-2.896 12.582-5.133 18.898-7.652l.573.656z"/><path fill-rule="evenodd" clip-rule="evenodd" fill="#fff" d="M29.365 28.664c.443-2.43.443-2.43 6.332-4.674 1.369 3.691 4.787 3.752 7.938 4.342-3.305 2.648-9.85 3.822-14.27.332zM55.24 21.818c-.383 2.893-.566 3.025-6.314 4.633-1.352-3.527-4.594-3.668-7.623-4.189 3.179-3.153 9.003-3.338 13.937-.444z"/></svg>