<svg xmlns="http://www.w3.org/2000/svg" width="250" height="158.128" viewBox="0 0 250 158.128"><path fill-rule="evenodd" clip-rule="evenodd" fill="#fff" d="M196.167 40.378c-1.858 1.472-2.875 2.718-4.18 3.243-17.77 7.176-35.551 14.32-53.422 21.24-1.749.68-4.351.385-6.12-.419-6.971-3.176-13.815-6.638-20.581-10.233-1.372-.729-3.033-2.508-3.02-3.786.011-1.228 1.794-2.999 3.19-3.567 17.592-7.136 35.229-14.153 52.928-21.016 1.627-.63 4.023-.583 5.591.152 7.267 3.408 14.396 7.123 21.507 10.851 1.287.674 2.271 1.925 4.107 3.535zm-74.26 10.74c10.168 8.039 25.228 5.335 32.842-.76-7.254-1.354-15.125-1.5-18.262-9.992-13.553 5.166-13.553 5.166-14.58 10.752zm59.574-15.751c-11.356-6.665-24.754-6.237-32.079 1.026 6.974 1.196 14.425 1.519 17.528 9.642 13.24-3.706 13.655-4.013 14.551-10.668z"/><g fill-rule="evenodd" clip-rule="evenodd"><path fill="#fff" d="M141.891 97.759c5.568-2.575 11.165-5.091 16.694-7.743 4.183-2.008 8.48-3.834 11.448 1.402 3.009 5.309-.766 8.003-4.826 10.335-9.319 5.354-18.673 10.656-27.914 16.146-3.232 1.916-6.353 2.276-10.039 1.578-12.272-2.321-24.297-5.98-36.778-7.092-2.639-.235-2.692-1.46-2.686-3.338.021-6.147.083-12.296-.049-18.438-.056-2.643 1.069-3.87 3.49-4.737 5.145-1.843 10.13-2.407 15.362-.223 8.294 3.462 16.64 6.816 25.064 9.941 3.189 1.185 4.935 3.396 6.338 6.185.993 5.604-2.358 9.529-7.503 8.578-2.975-.551-5.821-1.685-8.816-2.494l.172.164c13.598 3.915 13.591 3.911 18.67-8.88.234-.587.87-.964 1.373-1.384zM84.836 105.686c-.84 5.215 2.898 13.185-1.505 17.358-4.012 3.8-11.768 1.121-17.856 1.139-12.634.038-11.551 2.05-11.568-11.537-.011-7.251.102-14.505-.069-21.754-.087-3.837 1.136-5.629 5.273-5.488 6.805.231 13.629.195 20.434-.012 4.003-.12 5.543 1.421 5.344 5.409-.227 4.603-.053 9.227-.053 14.885z"/><path fill="#FCFCFC" d="M141.891 97.759c-.132.175-.331.33-.387.524-4.394 15.307-5.876 16.016-21.827 10.321-1.358-.483-3.104-.442-3.766-2.682 4.17-1.383 7.489 1.216 11.015 2.215 7.371 2.087 9.238 1.11 11.07-6.362 1.732-.921.802-4.419 3.895-4.016zM80.245 92.494c-.139 2.132-1.114 3.497-3.25 3.375-2.052-.116-3.131-1.441-3.046-3.518.075-1.82 1.211-2.8 2.938-2.909 2.139-.135 3.166 1.108 3.358 3.052z"/></g><g fill="#fff"><path d="M109.429 67.213c-.425.449-.85.902-1.271 1.354 1.036 1.318 1.801 3.154 3.159 3.872 7.271 3.84 14.651 7.485 22.096 10.978 1.313.615 3.316.697 4.664.169 18.041-7.059 36.044-14.221 53.979-21.538 1.365-.558 2.178-2.485 3.243-3.777l-1.274-1.213c-2.04.749-4.101 1.451-6.119 2.254-15.792 6.288-31.621 12.497-47.336 18.977-3.559 1.468-6.419 1.332-9.787-.474-7.002-3.755-14.223-7.094-21.354-10.602zM109.631 54.964l-1.365 1.541c1.316 1.376 2.393 3.196 3.988 4.048 6.601 3.528 13.296 6.906 20.103 10.01 1.758.801 4.334 1.129 6.065.46 17.884-6.906 35.69-14.015 53.449-21.239 1.436-.583 2.352-2.448 3.506-3.724l-1.263-1.401c-2.184.823-4.386 1.608-6.554 2.475-15.778 6.293-31.586 12.498-47.282 18.986-3.4 1.405-6.072 1.167-9.233-.514-7.036-3.74-14.264-7.116-21.414-10.642zM195.328 52.203l-1.223-1.342c-1.648.613-3.313 1.191-4.947 1.842-16.448 6.529-32.842 13.189-49.381 19.474-2.336.889-5.699.714-8.016-.291-7.607-3.308-14.95-7.221-22.398-10.903l-1.303 1.438c1.185 1.354 2.111 3.196 3.595 3.985 6.926 3.682 13.959 7.165 21.062 10.491 1.498.704 3.695 1.111 5.142.549 18.195-7.069 36.327-14.298 54.407-21.654 1.292-.527 2.051-2.363 3.062-3.589zM195.275 64.616l-1.303-1.505c-14.543 5.795-29.394 10.938-43.525 17.604-10.325 4.871-19.322 5.584-28.836-1.229-3.679-2.636-8.2-4.094-12.338-6.088l-1.044 1.496c.967 1.014 1.754 2.371 2.932 2.989 7.263 3.828 14.564 7.59 21.974 11.115 1.452.69 3.663.826 5.145.248 18.021-7.018 35.98-14.185 53.899-21.449 1.257-.509 2.073-2.096 3.096-3.181z"/><path fill-rule="evenodd" clip-rule="evenodd" d="M109.429 67.213c7.131 3.508 14.352 6.847 21.354 10.601 3.368 1.806 6.229 1.941 9.787.474 15.715-6.479 31.544-12.688 47.336-18.977 2.019-.803 4.079-1.505 6.119-2.254l1.274 1.213c-1.065 1.292-1.878 3.22-3.243 3.777-17.936 7.317-35.938 14.479-53.979 21.538-1.348.528-3.351.446-4.664-.169-7.444-3.492-14.825-7.138-22.096-10.978-1.358-.718-2.123-2.554-3.159-3.872l1.271-1.353zM109.631 54.964c7.149 3.526 14.378 6.902 21.414 10.642 3.161 1.681 5.833 1.919 9.233.514 15.696-6.488 31.504-12.693 47.282-18.986 2.168-.866 4.37-1.651 6.554-2.475l1.263 1.401c-1.154 1.275-2.07 3.141-3.506 3.724-17.759 7.225-35.565 14.333-53.449 21.239-1.731.669-4.308.341-6.065-.46-6.807-3.104-13.502-6.481-20.103-10.01-1.596-.852-2.672-2.672-3.988-4.048l1.365-1.541zM195.328 52.203c-1.011 1.226-1.77 3.062-3.062 3.588-18.08 7.356-36.212 14.585-54.407 21.654-1.446.562-3.644.155-5.142-.549-7.103-3.326-14.136-6.81-21.062-10.491-1.483-.789-2.41-2.631-3.595-3.985l1.303-1.438c7.448 3.683 14.791 7.596 22.398 10.903 2.316 1.005 5.68 1.18 8.016.291 16.539-6.284 32.933-12.944 49.381-19.474 1.634-.65 3.299-1.229 4.947-1.842l1.223 1.343zM195.275 64.616c-1.022 1.085-1.839 2.672-3.097 3.181-17.919 7.265-35.879 14.432-53.899 21.449-1.481.578-3.692.442-5.145-.248-7.409-3.525-14.711-7.287-21.974-11.115-1.178-.618-1.965-1.976-2.932-2.989l1.044-1.496c4.138 1.994 8.659 3.452 12.338 6.088 9.514 6.813 18.511 6.101 28.836 1.229 14.132-6.666 28.982-11.809 43.525-17.604l1.304 1.505z"/></g><g fill-rule="evenodd" clip-rule="evenodd" fill="#ED1C24"><path d="M65.124 142.046c-1.484 1.484-3.25 2.121-3.946 1.425-.697-.697-.06-2.463 1.424-3.947l120.425-120.426c1.484-1.482 3.252-2.122 3.947-1.425.698.696.06 2.463-1.423 3.946l-120.427 120.427zM173.03 138.554c1.268 1.507 1.686 3.243.93 3.879-.752.632-2.39-.077-3.657-1.583l-102.968-122.366c-1.268-1.508-1.686-3.242-.934-3.877.753-.635 2.394.074 3.661 1.582l102.968 122.365z"/></g></svg>