<svg xmlns="http://www.w3.org/2000/svg" width="250" height="158.128" viewBox="0 0 250 158.128"><g fill-rule="evenodd" clip-rule="evenodd"><path fill="#fff" d="M70.742 16.243v10.984h7.872v-3.114h69.171v92.859h-9.367l-2.541 7.871h19.778v-108.6h-84.913zm-1.711 32.487h54.676v27.9h-54.676v-27.9zm-.115 75.181h23.858v3.25h-23.858v-3.25zm0-10.021h23.858v3.252h-23.858v-3.252zm0-10.93h34.402v3.252h-34.402v-3.252zm0-9.893h45.205v3.256h-45.205v-3.256zm0-9.111h54.791v3.256h-54.791v-3.256zm69.568-50.668v63.745999999999995l-.2.623-13.393 41.492-.885 2.736h-70.438v-108.598h84.916v.001zm-46.584 100.727h-30.462v-92.856h69.174v51.858l-24.767 28.021-2.275 2.572 2.243 2.592 6.755 7.812h-20.668v.001zm34.148-24l-6.484 20.098-5.578-6.451 12.062-13.647z"/><g fill="#ED1C24"><path d="M157.918 78.813l32.501 19.918c-1.989 3.174-4.027 6.412-6.041 9.621-10.697-6.605-21.597-13.334-32.667-20.17l6.207-9.369zM186.409 109.829l6.166-9.975c2.229.799 3.782 2.092 3.853 4.57.083 3.031-1.352 5.34-3.943 6.736-2.251 1.212-4.286.431-6.076-1.331zM154.393 76.13c2.927 2.419-.054 4.128-.985 5.354-1.432 1.884-1.355 5.836-5.678 5.309 2.312-3.703 4.371-6.998 6.663-10.663zM146.81 71.827c6.413-20.102-3.626-37.674-19.161-44.311-15.335-6.549-33.609-.702-42.844 13.729-8.855 13.834-5.978 33.362 6.559 44.25 6.828 5.933 14.836 8.945 23.854 8.615 10.113-.369 18.679-4.434 25.785-12.465 1.675 1.285 3.271 2.508 4.755 3.65 2.316-3.604 4.438-6.904 6.775-10.536l-5.723-2.932zm-26.011 14.824c-14.864 3.588-30.034-5.679-33.636-20.551-3.63-14.985 5.771-30.298 20.747-33.789 14.892-3.469 29.912 5.83 33.521 20.761 3.571 14.772-5.779 29.994-20.632 33.579z"/></g></g></svg>