<svg xmlns="http://www.w3.org/2000/svg" width="850" height="330.079" viewBox="0 0 850 330.079"><text transform="translate(41.705 56.898)"><tspan x="0" y="0" fill="#5E7E53" font-family="'Lato-Bold'" font-size="50.965">44%</tspan></text><text transform="translate(43.657 100.084)"><tspan x="0" y="0" fill="#0E5461" font-family="'Lato-Bold'" font-size="21.337">Financial</tspan><tspan x="-35.803" y="25.604" fill="#0E5461" font-family="'Lato-Bold'" font-size="21.337">mismanagement</tspan></text><text transform="translate(330.274 103.232)"><tspan x="0" y="0" fill="#0E5461" font-family="'Lato-Bold'" font-size="21.337">Theft of goods</tspan><tspan x="21.897" y="25.604" fill="#0E5461" font-family="'Lato-Bold'" font-size="21.337">and funds</tspan></text><text transform="translate(358.022 60.737)" fill="#5E7E53" font-family="'Lato-Bold'" font-size="40.629">24%</text><text transform="translate(665.142 101.658)"><tspan x="0" y="0" fill="#0E5461" font-family="'Lato-Bold'" font-size="21.337">Corruption in</tspan><tspan x="-47.346" y="25.604" fill="#0E5461" font-family="'Lato-Bold'" font-size="21.337">procurement processes</tspan></text><text transform="translate(685.139 58.046)" fill="#5E7E53" font-family="'Lato-Bold'" font-size="30.488">16%</text><g fill-rule="evenodd" clip-rule="evenodd"><path fill="#333" d="M115.568 258.552c5.43-2.511 10.889-4.967 16.286-7.554 4.078-1.96 8.271-3.741 11.168 1.367 2.936 5.179-.747 7.808-4.71 10.083-9.091 5.223-18.217 10.395-27.229 15.751-3.152 1.868-6.197 2.221-9.794 1.541-11.971-2.267-23.703-5.836-35.876-6.92-2.577-.229-2.627-1.423-2.621-3.256.018-5.998.08-11.995-.05-17.985-.052-2.581 1.044-3.777 3.406-4.621 5.017-1.8 9.884-2.349 14.984-.219 8.094 3.375 16.233 6.649 24.453 9.697 3.109 1.155 4.815 3.313 6.185 6.032.964 5.467-2.304 9.298-7.32 8.369-2.903-.535-5.679-1.642-8.603-2.432l.167.158c13.268 3.82 13.26 3.817 18.216-8.659.228-.575.847-.941 1.338-1.352zM59.91 266.287c-.821 5.084 2.826 12.86-1.471 16.932-3.911 3.709-11.478 1.092-17.416 1.111-12.33.037-11.271 1.999-11.289-11.255-.011-7.074.101-14.151-.064-21.223-.086-3.743 1.107-5.49 5.144-5.354 6.639.227 13.294.19 19.933-.01 3.905-.121 5.408 1.384 5.212 5.274-.222 4.494-.049 9.003-.049 14.525z"/><path fill="#FCFCFC" d="M115.568 258.552c-.128.171-.319.321-.378.511-4.289 14.933-5.734 15.625-21.295 10.07-1.322-.474-3.026-.432-3.674-2.617 4.068-1.348 7.309 1.187 10.746 2.161 7.193 2.036 9.014 1.082 10.803-6.208 1.685-.898.78-4.309 3.798-3.917zM55.431 253.416c-.137 2.08-1.09 3.411-3.174 3.292-1.997-.113-3.054-1.405-2.968-3.43.072-1.775 1.179-2.73 2.864-2.84 2.086-.131 3.09 1.082 3.278 2.978z"/></g><path fill="#333" d="M168.516 202.573c-1.789-1.57-2.751-2.789-4.006-3.446-6.934-3.638-13.894-7.261-20.981-10.587-1.528-.718-3.866-.761-5.453-.147-17.265 6.694-34.473 13.539-51.634 20.504-1.363.551-3.103 2.279-3.113 3.477-.012 1.25 1.61 2.982 2.947 3.695 6.599 3.508 13.278 6.887 20.077 9.981 1.724.787 4.266 1.071 5.972.409 17.432-6.75 34.779-13.72 52.116-20.72 1.27-.513 2.261-1.727 4.075-3.166zM83.899 228.754l-1.241 1.318c1.012 1.286 1.759 3.078 3.081 3.779 7.097 3.744 14.294 7.303 21.557 10.71 1.283.599 3.233.677 4.554.164 17.597-6.887 35.159-13.873 52.656-21.012 1.333-.545 2.124-2.423 3.167-3.685l-1.247-1.186c-1.99.732-3.998 1.417-5.969 2.2-15.407 6.135-30.848 12.191-46.178 18.512-3.471 1.433-6.263 1.301-9.549-.461-6.828-3.661-13.874-6.919-20.831-10.339zM84.096 216.806l-1.333 1.503c1.286 1.343 2.335 3.116 3.892 3.947 6.441 3.443 12.974 6.737 19.612 9.767 1.713.781 4.229 1.1 5.918.447 17.446-6.737 34.818-13.672 52.14-20.719 1.4-.568 2.295-2.391 3.42-3.633l-1.232-1.368c-2.128.804-4.274 1.568-6.391 2.414-15.393 6.14-30.816 12.192-46.124 18.521-3.316 1.373-5.929 1.141-9.008-.498-6.868-3.649-13.918-6.942-20.894-10.381zM167.696 214.109l-1.193-1.307c-1.605.597-3.229 1.163-4.828 1.795-16.042 6.372-32.035 12.868-48.172 18.998-2.274.867-5.561.697-7.82-.283-7.418-3.227-14.582-7.044-21.846-10.638l-1.271 1.402c1.151 1.323 2.054 3.118 3.503 3.89 6.761 3.59 13.618 6.989 20.549 10.233 1.458.687 3.604 1.085 5.013.536 17.753-6.897 35.44-13.947 53.077-21.124 1.262-.514 2.003-2.304 2.988-3.502zM167.643 226.219l-1.268-1.466c-14.19 5.652-28.675 10.67-42.46 17.173-10.073 4.752-18.852 5.445-28.133-1.201-3.587-2.57-7.998-3.99-12.031-5.938-.346.485-.682.973-1.021 1.46.943.99 1.713 2.313 2.86 2.916 7.082 3.736 14.205 7.403 21.433 10.843 1.417.673 3.575.805 5.021.242 17.581-6.846 35.099-13.838 52.584-20.926 1.223-.494 2.02-2.044 3.015-3.103z"/><path fill-rule="evenodd" clip-rule="evenodd" fill="#333" d="M168.516 202.573c-1.813 1.438-2.805 2.652-4.075 3.166-17.337 7-34.685 13.97-52.116 20.72-1.706.662-4.248.378-5.972-.409-6.799-3.095-13.479-6.474-20.077-9.981-1.337-.713-2.959-2.445-2.947-3.695.011-1.197 1.75-2.926 3.113-3.477 17.161-6.965 34.369-13.81 51.634-20.504 1.587-.613 3.925-.57 5.453.147 7.088 3.326 14.048 6.949 20.981 10.587 1.255.657 2.217 1.876 4.006 3.446zm-72.442 10.479c9.918 7.844 24.608 5.203 32.037-.74-7.08-1.319-14.754-1.464-17.814-9.747-13.223 5.039-13.223 5.039-14.223 10.487zm58.114-15.364c-11.076-6.503-24.147-6.083-31.294 1 6.805 1.168 14.073 1.482 17.101 9.408 12.916-3.617 13.321-3.916 14.193-10.408zM83.899 228.754c6.957 3.42 14.003 6.678 20.831 10.341 3.286 1.762 6.078 1.894 9.549.461 15.33-6.32 30.771-12.377 46.178-18.512 1.971-.783 3.979-1.468 5.969-2.2l1.247 1.186c-1.043 1.262-1.834 3.14-3.167 3.685-17.497 7.139-35.06 14.125-52.656 21.012-1.32.513-3.271.435-4.554-.164-7.263-3.407-14.46-6.966-21.557-10.71-1.322-.701-2.069-2.493-3.081-3.779l1.241-1.32zM84.096 216.806c6.977 3.439 14.026 6.732 20.894 10.381 3.079 1.639 5.691 1.871 9.008.498 15.308-6.328 30.731-12.381 46.124-18.521 2.116-.846 4.263-1.61 6.391-2.414l1.232 1.368c-1.125 1.242-2.02 3.064-3.42 3.633-17.321 7.047-34.693 13.981-52.14 20.719-1.688.652-4.205.334-5.918-.447-6.639-3.029-13.171-6.323-19.612-9.767-1.557-.831-2.605-2.604-3.892-3.947l1.333-1.503zM167.696 214.109c-.985 1.197-1.727 2.987-2.988 3.503-17.637 7.177-35.324 14.227-53.077 21.124-1.408.549-3.555.15-5.013-.536-6.931-3.244-13.788-6.644-20.549-10.233-1.449-.771-2.352-2.566-3.503-3.89l1.271-1.402c7.264 3.594 14.428 7.411 21.846 10.638 2.26.98 5.546 1.15 7.82.283 16.137-6.13 32.13-12.626 48.172-18.998 1.599-.632 3.223-1.198 4.828-1.795l1.193 1.306zM167.643 226.219c-.994 1.06-1.792 2.609-3.015 3.104-17.485 7.088-35.003 14.08-52.584 20.926-1.446.562-3.604.431-5.021-.242-7.228-3.439-14.351-7.106-21.433-10.843-1.147-.603-1.917-1.926-2.86-2.916.34-.487.676-.975 1.021-1.46 4.033 1.947 8.444 3.367 12.031 5.938 9.281 6.646 18.06 5.953 28.133 1.201 13.785-6.503 28.27-11.521 42.46-17.173l1.268 1.465z"/><path fill-rule="evenodd" clip-rule="evenodd" fill="#fff" d="M96.074 213.052c1-5.447 1-5.447 14.223-10.487 3.061 8.283 10.734 8.428 17.814 9.747-7.428 5.943-22.119 8.584-32.037.74zM154.188 197.688c-.872 6.492-1.277 6.791-14.193 10.408-3.027-7.926-10.296-8.24-17.101-9.408 7.147-7.084 20.218-7.503 31.294-1z"/><g fill-rule="evenodd" clip-rule="evenodd" fill="#ED1C24"><path d="M40.68 301.754c-1.448 1.45-3.172 2.072-3.851 1.392-.682-.68-.057-2.403 1.39-3.85l117.48-117.48c1.448-1.446 3.172-2.068 3.851-1.389.679.679.056 2.401-1.391 3.849l-117.479 117.478zM145.942 298.349c1.239 1.471 1.646 3.164.908 3.783-.735.616-2.331-.074-3.567-1.543l-100.444-119.37c-1.239-1.472-1.649-3.164-.914-3.785.735-.617 2.334.073 3.572 1.544l100.445 119.371z"/></g><path fill="#fff" d="M346.359 269.298c4.806 2.508 9.519 5.226 14.453 7.441 2.998 1.341 4.12 3.067 3.969 6.347-.26 5.979-.072 11.971-.072 18.031 7.431-1.067 7.781-1.445 7.82-7.585.026-4.182-.08-8.376.164-12.556.211-3.661-.879-5.891-4.503-7.534-5.806-2.63-11.265-6.022-16.872-9.091 1.919-.589 3.922-.981 5.738-1.811 8.016-3.64 15.687-3.302 23.084 1.61.705 7.092-6.616 5.516-9.496 8.66 2.481 3.632 5.35 4.049 9.042 2.004 2.681-1.485 5.779-2.227 8.548-3.603 1.198-.598 2.536-1.813 2.818-2.988.181-.735-1.301-2.272-2.363-2.838-5.882-3.14-11.826-6.16-17.833-9.045-1.107-.53-2.745-.715-3.873-.312-4.819 1.693-9.582 3.593-14.258 5.651-.691.307-.84 1.864-1.22 2.847-1.126-.332-2.228-.714-3.362-.975-2.977-.68-6.441 1.372-6.688 3.925-6.398 2.1-12.82 4.129-19.161 6.373-1.11.393-2.702 1.766-2.625 2.551.102 1.185 1.232 2.718 2.354 3.321 5.865 3.143 11.856 6.047 17.83 8.983.807.401 1.908.983 2.584.722 7.148-2.713 14.233-5.575 21.652-8.522-2.952-4.271-5.982-3.966-9.35-2.295-8.325 4.129-16.46 4.166-23.978-1.024-.952-4.243 1.664-5.312 4.647-6.485 2.125-.842 3.929-2.495 5.882-3.788 1.679.674 3.363 1.347 5.042 2.014-2.402.055-3.613 1.314-1.33 2.826 2.923 1.948 6.428 3.036 9.68 4.499l.607-1.435c-1.593-.857-3.257-1.599-4.757-2.591-1.474-.984-2.787-2.2-4.173-3.327zm32.237-80.81c.438.66.863 1.335 1.292 2.003-1.607 1.06-3.468 1.877-4.796 3.218-5.126 5.155-10.591 10.093-14.996 15.83-7.636 9.951-7.522 23.066-.565 32.285 12.428 16.467 45.264 16.664 57.863.353 7.812-10.117 7.615-23.485-1.545-34.361-5.804-6.888-12.797-12.785-19.051-18.918.682-1.182 1.203-2.067 1.896-3.262-1.95-.597-3.385-1.034-4.68-1.435 4.391-1.963 3.646-6.324 4.019-9.923.045-.43-3.94-1.313-6.093-1.897-1.356-.366-2.798-.88-4.138-.747-2.908.278-6.376.113-8.483 1.659-2.019 1.49 1.398 9.482 3.999 11.477-3.723-1.143-7.448-2.281-10.513-3.219v7.766c1.679-.243 3.74-.541 5.791-.829zm70.425 65.264c17.216-7.509 34.69-11.868 53.607-12.883-1.971-6.889-3.612-13.021-5.569-19.063-.244-.741-2.155-1.409-3.251-1.363-16.807.934-32.99 4.617-48.343 11.596-.892.409-2.028 2.076-1.826 2.846 1.575 6.149 3.438 12.21 5.382 18.867zm6.388 3.285c17.518-5.384 35.352-7.975 54.298-6.869-.782-6.245-1.464-11.807-2.18-17.336-.588-4.516-1.246-4.861-6.324-3.368 1.099 3.957 2.184 7.933 3.396 12.309-3.283.357-6.207.73-9.142 1-13.121 1.21-25.781 4.267-38.048 9.02-2.196.849-3.818 1.776-2 5.244zm16.066-47.424c3.664-.979 7.313-1.658 10.692-3.03 1.278-.518 2.706-2.673 2.625-4.004-.08-1.543-1.39-3.728-2.765-4.391-6.915-3.333-14.08-3.268-21.001.033-1.292.617-2.687 2.697-2.619 4.036.086 1.559 1.393 3.793 2.75 4.396 3.195 1.401 6.734 1.991 10.318 2.96zm-30.845-.648c-3.604.989-7.299 1.561-10.599 3.034-3.877 1.71-3.909 6.412-.12 8.307 7.037 3.523 14.312 3.489 21.354.008 1.261-.624 2.577-2.743 2.483-4.077-.101-1.546-1.398-3.755-2.762-4.351-3.185-1.372-6.718-1.955-10.356-2.921zm-120.214 71.582c-.378.245-.762.486-1.143.741.455.98.634 2.494 1.389 2.871 7.188 3.564 14.337 9.299 21.755 9.688 6.811.354 13.937-5.072 20.86-8.077.301-.142.039-1.587.039-3.041-5.501 2.181-10.66 3.845-15.464 6.229-4.225 2.086-7.744 1.706-11.708-.557-5.083-2.886-10.468-5.263-15.728-7.854zm-.185 5.072l-.858.722c.384.99.486 2.55 1.188 2.885 7.306 3.612 14.585 9.361 22.125 9.778 6.743.363 13.825-5.191 20.707-8.27.277-.122-.051-1.596-.11-2.846-6.132 2.417-11.777 4.931-17.628 6.811-2.181.704-5.113.609-7.222-.279-6.197-2.627-12.15-5.827-18.202-8.801zm43.395 7.244c-6.001 2.372-11.365 4.269-16.517 6.617-3.556 1.629-6.538 1.62-10.026-.362-5.463-3.097-11.246-5.621-17.783-8.818.443 1.956.366 3.482.926 3.773 7.145 3.67 14.211 7.601 21.674 10.498 3.562 1.389 20.991-8.072 21.726-11.708zm-44.389 2.446c1.497 4.147 20.991 15.167 23.827 14.09 6.885-2.636 13.601-5.717 20.335-8.714.24-.106-.029-1.333-.083-2.583-5.282 2.084-10.272 3.731-14.961 5.989-4.396 2.135-8.177 2.194-12.493-.414-4.962-3.003-10.366-5.267-16.625-8.368zm139.512-87.057l-.932.887c1 1.442 1.694 3.365 3.055 4.249 5.581 3.584 17.425 3.379 22.104-.369 1.128-.904 1.509-2.738 2.232-4.158-9.456 3.964-17.951 3.905-26.459-.609zm-5.291 14.136c-8.503 4.425-17.022 4.356-25.532.062-.462 4.756 4.331 7.53 12.517 7.54 8.604.003 13.368-2.683 13.015-7.602zm5.64-6.979l-1.232.75c.952 1.363 1.588 3.251 2.896 4.005 7.706 4.473 15.255.332 22.811-.963.696-.123 1.026-2.366 1.821-4.382-10.744 4.756-16.688 4.783-26.296.59zm-31.421 21.513c.233 4.937 7.801 8.001 16.847 5.782-1.625-1.419-2.56-2.899-3.786-3.211-4.23-1.062-8.562-1.722-13.061-2.571zm-36.609 40.38c-10.232 2.184-16.92 5.94-16.75 9.292 9.836-2.306 16.18-5.674 16.75-9.292zm-.366-5.004c-9.902 2.038-16.539 5.717-16.408 9.119 9.499-1.921 16.545-5.837 16.408-9.119zm51.647-36.153c-3.472-6.402-10.667-2.67-14.331-7.437-.532 5.876 5.134 8.655 14.331 7.437zm-51.436 46.248c-11.606 2.886-16.949 5.93-16.407 9.253 9.344-2.096 16.131-5.776 16.407-9.253zm-17 14.167c10.106-2.07 17.039-5.888 16.557-8.976-9.957 2.58-15.708 5.569-16.557 8.976z"/><path fill-rule="evenodd" clip-rule="evenodd" fill="#333" d="M378.596 188.488c-2.051.288-4.111.586-5.79.828v-7.766c3.064.938 6.79 2.076 10.513 3.219-2.601-1.994-6.018-9.986-3.999-11.477 2.107-1.546 5.575-1.381 8.483-1.659 1.34-.133 2.781.381 4.138.747 2.152.584 6.138 1.468 6.093 1.897-.373 3.599.372 7.96-4.019 9.923 1.295.4 2.729.838 4.68 1.435-.693 1.194-1.215 2.08-1.896 3.262 6.254 6.133 13.247 12.03 19.051 18.918 9.16 10.876 9.356 24.244 1.545 34.361-12.6 16.312-45.436 16.114-57.863-.353-6.957-9.219-7.07-22.334.565-32.285 4.405-5.737 9.87-10.675 14.996-15.83 1.328-1.341 3.188-2.158 4.796-3.218-.43-.667-.856-1.342-1.293-2.002zm-10.094 16.876c-7.534 6.882-11.761 15.144-9.412 25.643 1.935 8.63 7.715 13.848 16.987 17.236-15.339-15.986-16.628-24.422-7.575-42.879zM449.021 253.752c-1.944-6.657-3.808-12.718-5.382-18.868-.202-.77.935-2.437 1.826-2.846 15.353-6.979 31.536-10.662 48.343-11.596 1.096-.046 3.007.622 3.251 1.363 1.957 6.042 3.599 12.175 5.569 19.063-18.916 1.016-36.391 5.375-53.607 12.884zm15.896-25.608c-9.156 1.983-10.253 3.399-14.413 7.516-3.599 3.561-1.334 6.636.021 8.969.977 1.678 4.793 2.694 7.103 2.371 3.914-.548 7.653-2.39 11.746-3.772-6.559-5.039-7.257-7.448-4.457-15.084zm13.928 12.823c6.793-1.438 13.669-.185 17.857-7.141 0-10.024-10.806-11.854-21.417-7.78 5.358 3.708 7.748 8.247 3.56 14.921zM455.409 257.037c-1.818-3.468-.196-4.396 2.001-5.245 12.267-4.753 24.927-7.81 38.048-9.02 2.935-.27 5.858-.643 9.142-1l-3.396-12.309c5.078-1.493 5.736-1.147 6.324 3.368.716 5.529 1.397 11.091 2.18 17.336-18.947-1.105-36.781 1.486-54.299 6.87zM341.292 267.312c-1.953 1.293-3.757 2.946-5.882 3.788-2.983 1.174-5.6 2.242-4.647 6.485 7.518 5.19 15.652 5.153 23.978 1.024 3.367-1.671 6.397-1.977 9.35 2.295-7.419 2.947-14.504 5.81-21.652 8.522-.676.262-1.777-.32-2.584-.722-5.974-2.937-11.965-5.841-17.83-8.983-1.122-.604-2.253-2.137-2.354-3.321-.077-.785 1.515-2.158 2.625-2.551 6.341-2.244 12.763-4.273 19.158-6.373l-.162-.164zM351.496 264.519c.39-.974.538-2.531 1.229-2.838 4.676-2.059 9.438-3.958 14.258-5.651 1.128-.402 2.766-.218 3.873.312 6.007 2.885 11.951 5.905 17.833 9.045 1.062.565 2.544 2.103 2.363 2.838-.282 1.175-1.62 2.391-2.818 2.988-2.769 1.376-5.867 2.117-8.548 3.603-3.692 2.045-6.561 1.628-9.042-2.004 2.88-3.145 10.201-1.568 9.496-8.66-7.397-4.912-15.068-5.25-23.084-1.61-1.816.829-3.819 1.222-5.736 1.823l.176.154zM346.334 269.326c-1.679-.667-3.363-1.34-5.042-2.014l.16.165c.25-2.553 3.715-4.604 6.691-3.925 1.135.261 2.236.643 3.362.966l-.186-.154c5.605 3.056 11.064 6.448 16.87 9.078 3.624 1.644 4.714 3.873 4.503 7.534-.244 4.18-.138 8.374-.164 12.556-.039 6.14-.39 6.518-7.82 7.585 0-6.061-.188-12.053.072-18.031.151-3.279-.971-5.006-3.969-6.347-4.935-2.216-9.647-4.934-14.453-7.441l-.024.028zm-.744-3.971l-.319 1.406c5.476 2.826 10.83 5.939 16.477 8.376 3.944 1.694 5.225 4.071 4.921 8.209-.352 5.038-.08 10.116-.08 15.18l1.721.659c.836-1.527 2.289-3.016 2.396-4.603.318-4.781.337-9.626-.023-14.401-.128-1.629-1.378-3.815-2.76-4.588-6.084-3.402-12.383-6.435-18.66-9.485-1.086-.528-2.444-.519-3.673-.753zM471.475 209.613c-3.584-.97-7.123-1.56-10.317-2.96-1.357-.603-2.664-2.837-2.75-4.396-.067-1.339 1.327-3.419 2.619-4.036 6.921-3.301 14.086-3.366 21.001-.033 1.375.663 2.685 2.848 2.765 4.391.081 1.331-1.347 3.486-2.625 4.004-3.38 1.372-7.029 2.051-10.693 3.03zm.139-4.501c2.936-.722 6.055-1.173 8.894-2.278 2.278-.887 2.32-2.854.043-3.897-5.838-2.669-11.854-2.592-17.732-.129-2.554 1.069-2.511 3.114-.023 4.119 2.689 1.091 5.69 1.447 8.818 2.185zM440.63 208.965c3.638.966 7.171 1.549 10.356 2.921 1.363.596 2.661 2.805 2.762 4.351.094 1.334-1.223 3.453-2.483 4.077-7.042 3.481-14.316 3.516-21.354-.008-3.789-1.895-3.757-6.597.12-8.307 3.3-1.474 6.994-2.045 10.599-3.034zm-.057 9.844c2.823-.633 5.742-1.172 8.559-2.016.801-.254 1.83-1.407 1.842-2.156.013-.746-.967-1.88-1.776-2.219-5.745-2.427-11.57-2.436-17.298.063-.795.344-1.756 1.537-1.692 2.26.064.763 1.13 1.836 1.96 2.085 2.679.819 5.456 1.315 8.405 1.983zM320.416 280.547c5.26 2.591 10.645 4.968 15.729 7.854 3.964 2.263 7.483 2.643 11.708.557 4.804-2.384 9.963-4.048 15.464-6.229 0 1.454.262 2.899-.039 3.041-6.924 3.005-14.05 8.432-20.86 8.077-7.418-.389-14.566-6.123-21.755-9.688-.755-.377-.934-1.891-1.389-2.871.38-.255.764-.496 1.142-.741zM320.231 285.619c6.052 2.974 12.005 6.174 18.202 8.801 2.108.889 5.041.983 7.222.279 5.851-1.88 11.496-4.394 17.628-6.811.06 1.25.388 2.724.11 2.846-6.882 3.078-13.964 8.633-20.707 8.27-7.54-.417-14.819-6.166-22.125-9.778-.702-.335-.805-1.895-1.188-2.885l.858-.722zM363.626 292.863c-.735 3.636-18.164 13.097-21.727 11.708-7.463-2.897-14.529-6.828-21.674-10.498-.56-.291-.482-1.817-.926-3.773 6.537 3.197 12.32 5.722 17.783 8.818 3.488 1.982 6.471 1.991 10.026.362 5.153-2.348 10.517-4.245 16.518-6.617zM319.237 295.309c6.259 3.102 11.663 5.365 16.625 8.368 4.316 2.608 8.097 2.549 12.493.414 4.688-2.258 9.679-3.905 14.961-5.989.054 1.25.323 2.477.083 2.583-6.734 2.997-13.45 6.078-20.335 8.714-2.835 1.077-22.33-9.943-23.827-14.09zM458.749 208.252c8.508 4.514 17.003 4.573 26.46.608-.724 1.42-1.104 3.254-2.232 4.158-4.68 3.748-16.523 3.953-22.104.369-1.36-.884-2.055-2.807-3.055-4.249l.931-.886zM453.458 222.388c.353 4.919-4.411 7.605-13.016 7.603-8.186-.01-12.979-2.784-12.517-7.54 8.511 4.293 17.03 4.361 25.533-.063zM459.098 215.409c9.608 4.192 15.553 4.166 26.296-.59-.795 2.016-1.125 4.259-1.821 4.382-7.556 1.295-15.104 5.436-22.811.963-1.309-.754-1.944-2.642-2.896-4.005l1.232-.75zM427.677 236.922c4.499.849 8.831 1.509 13.061 2.571 1.227.312 2.161 1.792 3.786 3.211-9.046 2.219-16.614-.846-16.847-5.782zM391.068 277.302c-.57 3.618-6.914 6.986-16.75 9.292-.17-3.352 6.518-7.109 16.75-9.292zM390.702 272.298c.137 3.282-6.909 7.198-16.408 9.119-.131-3.402 6.506-7.081 16.408-9.119zM442.349 236.145c-9.196 1.219-14.862-1.561-14.331-7.437 3.664 4.767 10.859 1.034 14.331 7.437zM390.913 282.393c-.276 3.478-7.063 7.157-16.407 9.253-.542-3.324 4.801-6.368 16.407-9.253zM373.913 296.56c.849-3.406 6.6-6.396 16.557-8.976.482 3.088-6.45 6.905-16.557 8.976zM346.334 269.326l.025-.028c1.386 1.127 2.698 2.343 4.175 3.328 1.5.992 3.164 1.733 4.757 2.591l-.607 1.435c-3.252-1.463-6.757-2.551-9.68-4.499-2.283-1.512-1.072-2.772 1.33-2.827z"/><path fill-rule="evenodd" clip-rule="evenodd" fill="#fff" d="M368.502 205.364c-9.053 18.457-7.764 26.893 7.575 42.879-9.272-3.389-15.053-8.606-16.987-17.236-2.349-10.499 1.878-18.761 9.412-25.643zM464.917 228.144c-2.8 7.637-2.102 10.046 4.456 15.083-4.093 1.383-7.832 3.225-11.746 3.772-2.31.323-6.126-.693-7.103-2.371-1.354-2.333-3.619-5.408-.021-8.969 4.161-4.116 5.258-5.532 14.414-7.515zM478.845 240.967c4.188-6.674 1.798-11.213-3.56-14.921 10.611-4.073 21.417-2.244 21.417 7.78-4.188 6.956-11.064 5.703-17.857 7.141zM345.59 265.355c1.229.233 2.587.225 3.671.753 6.277 3.051 12.576 6.083 18.66 9.485 1.382.772 2.632 2.959 2.76 4.588.36 4.775.342 9.62.023 14.401-.106 1.587-1.56 3.075-2.396 4.603l-1.721-.659c0-5.063-.271-10.142.08-15.18.304-4.138-.977-6.515-4.921-8.209-5.646-2.437-11.001-5.55-16.477-8.376.11-.468.217-.939.321-1.406zM471.614 205.112c-3.128-.738-6.129-1.095-8.819-2.186-2.487-1.005-2.53-3.05.023-4.119 5.879-2.463 11.895-2.54 17.732.129 2.277 1.044 2.235 3.011-.043 3.897-2.838 1.106-5.957 1.558-8.893 2.279zM440.573 218.809c-2.949-.668-5.727-1.164-8.406-1.982-.83-.249-1.896-1.322-1.96-2.085-.063-.723.897-1.916 1.692-2.26 5.728-2.499 11.553-2.49 17.298-.063.81.339 1.789 1.473 1.776 2.219-.012.749-1.041 1.902-1.842 2.156-2.816.843-5.735 1.382-8.558 2.015z"/><path clip-rule="evenodd" fill="none" d="M406.096 241.44l-23.598.173-.232-30.926 23.617-.165z"/><text transform="matrix(1 -.007 .007 1 382.368 234.85)" fill="#F9F9F9" font-family="'MyriadPro-Regular'" font-size="33.997">R</text><path clip-rule="evenodd" fill="none" d="M478.938 242.946l-11.001.079-.107-14.416 11.005-.073z"/><text transform="matrix(1 -.007 .007 1 467.841 239.892)" fill="#F9F9F9" font-family="'MyriadPro-Regular'" font-size="15.848">R</text><g fill-rule="evenodd" clip-rule="evenodd" fill="#ED1C24"><path d="M351.425 310.535c-1.763 1.766-3.861 2.521-4.686 1.695-.831-.829-.068-2.928 1.69-4.687l143.014-143.016c1.764-1.762 3.862-2.519 4.688-1.69.827.826.068 2.923-1.691 4.687l-143.015 143.011zM479.568 306.391c1.506 1.79 2.003 3.854 1.104 4.606-.894.75-2.837-.091-4.343-1.88l-122.274-145.315c-1.511-1.792-2.008-3.853-1.113-4.607.895-.752 2.844.089 4.347 1.878l122.279 145.318z"/></g><g fill-rule="evenodd" clip-rule="evenodd"><path fill="#333" d="M661.391 190.844v11.317h8.115v-3.207h71.273v95.682h-9.65l-2.619 8.106h20.38v-111.899h-87.499v.001zm-1.759 33.472h56.337v28.752h-56.337v-28.752zm-.119 77.466h24.582v3.351h-24.582v-3.351zm0-10.324h24.582v3.35h-24.582v-3.35zm0-11.264h35.443v3.352h-35.443v-3.352zm0-10.191h46.576v3.354h-46.576v-3.354zm0-9.388h56.456v3.354h-56.456v-3.354zm71.678-52.209v65.686l-.205.643-13.8 42.752-.911 2.815h-72.57499999999999v-111.896h87.491zm-47.996 103.789h-31.387v-95.678h71.277v53.434l-25.525 28.872-2.343 2.652 2.313 2.667 6.958 8.053h-21.293zm35.185-24.727l-6.683 20.707-5.745-6.648 12.428-14.059z"/><path fill="#ED1C24" d="M739.773 248.117l5.896 3.021c-2.408 3.74-4.596 7.143-6.98 10.855-1.526-1.176-3.17-2.437-4.899-3.761-7.322 8.276-16.154 12.465-26.573 12.843-9.287.344-17.538-2.762-24.575-8.873-12.919-11.22-15.884-31.342-6.757-45.598 9.511-14.87 28.343-20.895 44.145-14.145 16.008 6.839 26.352 24.946 19.743 45.658zm-3.373-19.734c-3.956-16.844-20.465-27.123-37.224-23.181-16.729 3.934-27.097 20.622-23.2 37.324 3.918 16.756 20.752 27.081 37.672 23.095 16.442-3.877 26.664-20.601 22.752-37.238zM751.219 255.316c11.104 6.806 22.321 13.678 33.489 20.521l-6.223 9.914c-11.02-6.804-22.257-13.739-33.66-20.781 2.036-3.079 4.218-6.37 6.394-9.654zM780.578 287.274c2.137-3.453 4.203-6.808 6.353-10.277 2.298.823 3.897 2.153 3.968 4.709.086 3.123-1.394 5.501-4.066 6.941-2.315 1.249-4.415.441-6.255-1.373zM747.59 252.553c3.01 2.492-.06 4.252-1.018 5.516-1.474 1.942-1.396 6.013-5.854 5.468 2.384-3.813 4.509-7.21 6.872-10.984z"/><path fill="#fff" d="M736.4 228.383c3.912 16.637-6.311 33.361-22.752 37.238-16.92 3.986-33.754-6.339-37.672-23.095-3.896-16.702 6.472-33.391 23.2-37.324 16.76-3.942 33.268 6.337 37.224 23.181zm-23.149 36.07c15.901-3.655 25.773-19.599 22.075-35.65-3.777-16.401-19.593-26.292-35.955-22.484-15.914 3.7-25.966 19.732-22.305 35.58 3.823 16.556 19.578 26.377 36.185 22.554z"/><path fill="#ED1C24" d="M713.251 264.453c-16.607 3.823-32.362-5.998-36.185-22.555-3.661-15.848 6.391-31.88 22.305-35.58 16.362-3.808 32.178 6.083 35.955 22.484 3.698 16.052-6.174 31.996-22.075 35.651zm20.978-35.661c-3.72-15.383-19.192-24.965-34.537-21.391-15.432 3.597-25.12 19.377-21.379 34.814 3.709 15.325 19.34 24.875 34.658 21.178 15.306-3.694 24.94-19.38 21.258-34.601zM732.784 236.064c.727 9.843-7.761 24.572-24.495 26.136-13.092 1.222-26.543-8.448-28.529-21.319 5.975 13.139 15.613 19.812 29.532 18.068 12.948-1.619 20.343-9.921 23.492-22.885z"/><g fill="#ED1C24"><path d="M628.93 310.535c-1.761 1.766-3.859 2.521-4.684 1.695-.832-.829-.069-2.928 1.689-4.687l143.016-143.016c1.764-1.762 3.86-2.519 4.686-1.69.827.826.069 2.923-1.689 4.687l-143.018 143.011zM757.077 306.391c1.505 1.79 2.003 3.854 1.102 4.606-.892.75-2.837-.091-4.344-1.88l-122.273-145.315c-1.513-1.792-2.008-3.853-1.113-4.607.895-.752 2.844.089 4.348 1.878l122.28 145.318z"/></g></g></svg>