<svg xmlns="http://www.w3.org/2000/svg" width="300" height="239.363" viewBox="0 0 300 239.363"><g fill-rule="evenodd" clip-rule="evenodd" fill="#0E5461"><path d="M192.911 9.079v30.812c4.816-7.185 12.021-8.234 16.61-3.75 3.307 3.229 3.654 10.562-.249 13.663-1.745 1.385-8.827 6.549-16.429-2.761v7.871c1.593-.304 3.07-1.013 4.365-.764 8.65 1.663 14.854-2.688 20.829-7.974 3.468-3.067 11.729-9.438 13.219-10.585l6.107 8.606c-5.952 4.555-17.093 12.701-22.941 17.386-1.161.93-2.481 2.456-2.572 3.789-.316 4.609-.125 9.254-.125 14.28h76.151v-70.573h-94.965zM186.013 83.779c2.718-4.386 6.051-10.27 9.103-15.211.446 1.914-.105 30.149-5.306 40.368-2.021 3.972-3.114 8.413-4.687 12.618-.923 2.466-2.051 4.506 1.854 5.858 3.989 1.378 4.24-1.216 5.091-3.55 2.876-7.876 5.727-15.762 8.615-23.633.376-1.025 1.017-10.561 1.815-12.23.804 1.635 1.231 11.071 1.574 11.996 2.857 7.727 5.7 15.456 8.503 23.197 2.104 5.817 2.428 5.935 8.473 2.162-3.202-8.865-6.483-17.822-9.645-26.822-.633-1.8-1.1-3.756-1.125-5.648-.127-8.835-.172-17.544.031-26.506.038-1.782 1.117-4.084 2.507-5.188 6.17-4.89 18.061-14.025 18.885-15.048 3.607-4.497-1.382-7.776-6.172-4.081-3.2 2.473-6.432 4.967-9.551 7.47-5.299 4.249-10.467 7.274-17.401 6.055-2.612-.459-4.069.8-5.249 3.097-3.491 6.793-7.599 14.311-11.201 21.045-4.729 7.777.098 10.159 3.886 4.051zM210.378 42.919c.025-4.401-3.532-8-7.89-7.979-4.391.018-7.876 3.62-7.795 8.051.08 4.313 3.34 7.59 7.652 7.683 4.509.098 8.004-3.278 8.033-7.755zM144.289 123.476c2.495.021 4.992.056 7.487.097.133.004.265.144.521.294-.36 4.417-.726 8.895-1.095 13.398 1.92.753 2.617.178 2.695-1.767.121-3.154.467-6.299 1.221-9.445.534 2.936 1.076 5.869 1.593 8.805.319 1.806 1.042 3.258 3.189 2.824 2.021-.41 2.111-1.971 1.795-3.668-.763-4.06-1.522-8.119-2.218-12.188-.347-1.993-.975-3.618-3.487-3.949.762-.196 1.521-.55 2.287-.559 3.979-.052 7.961.028 11.942-.033 2.217-.035 3.241.874 3.413 3.145.417 5.593 1.006 11.173 1.548 17.001l2.417.149c-.454-5.581-.879-10.917-1.333-16.252-.143-1.677-.89-3.336.537-4.942.415-.467.064-1.618.064-2.597h-25.137l.895 4.384h-5.41l2.876-9.58c3.576.623 7.15 1.287 10.736 1.847 1.352.211 2.68-.204 2.697-1.8.021-1.603-1.273-1.84-2.653-1.887-3.949-.133-7.881-.428-11.26-2.842.233-.265.729-.67.674-.771-.957-1.711-2.516-2.587-4.29-1.748-1.395.663-3.086 1.764-3.582 3.067-1.574 4.192-3.005 8.506-3.825 12.898-.721 3.867 1.704 6.083 5.703 6.119zM147.211 124.943h-12.487c-.698 4.025-1.377 7.974-2.09 12.12h16.626c-.677-4.002-1.343-7.942-2.049-12.12zM152.715 101.574c2.798.017 5.028-2.189 5.067-5.013.038-2.885-2.309-5.27-5.125-5.21-2.764.061-4.943 2.335-4.932 5.157.005 2.834 2.189 5.045 4.99 5.066zM90.689 137.375c2.741.022 5.482.061 8.221.108.148.002.293.158.573.321-.394 4.853-.799 9.771-1.198 14.717 2.105.828 2.871.195 2.954-1.941.135-3.463.516-6.919 1.346-10.374.581 3.224 1.178 6.443 1.746 9.669.35 1.984 1.144 3.579 3.503 3.102 2.22-.45 2.318-2.167 1.968-4.03-.835-4.458-1.667-8.915-2.438-13.384-.376-2.191-1.068-3.976-3.825-4.34.837-.212 1.673-.6 2.51-.61 4.37-.057 8.748.031 13.117-.037 2.438-.039 3.561.959 3.748 3.452.461 6.144 1.104 12.272 1.699 18.675.765.044 1.548.093 2.658.161-.5-6.129-.97-11.989-1.465-17.849-.153-1.841-.978-3.663.591-5.428.456-.512.067-1.775.067-2.852h-27.604c.347 1.699.646 3.147.983 4.816h-5.941c1.084-3.61 2.119-7.067 3.159-10.521 3.929.685 7.85 1.412 11.789 2.026 1.483.232 2.943-.224 2.964-1.977.021-1.758-1.403-2.019-2.915-2.071-4.338-.146-8.654-.471-12.37-3.121.262-.291.804-.738.742-.848-1.048-1.88-2.759-2.841-4.709-1.918-1.533.725-3.39 1.934-3.932 3.366-1.73 4.604-3.301 9.343-4.201 14.164-.796 4.251 1.867 6.684 6.26 6.724zM93.897 138.986h-13.713c-.763 4.42-1.512 8.759-2.295 13.312h18.26c-.742-4.398-1.476-8.722-2.252-13.312zM99.945 113.321c3.068.019 5.519-2.404 5.56-5.506.046-3.168-2.534-5.787-5.627-5.721-3.034.067-5.423 2.566-5.417 5.664.01 3.111 2.403 5.539 5.484 5.563zM71.639 145.579c.568-.642.088-2.221.088-3.568h-34.536l1.232 6.024h-7.438c1.359-4.516 2.656-8.838 3.953-13.161 4.917.854 9.823 1.766 14.751 2.535 1.856.291 3.68-.279 3.706-2.473.029-2.202-1.753-2.526-3.644-2.591-5.431-.184-10.827-.588-15.475-3.905.327-.363 1.004-.922.929-1.061-1.312-2.351-3.457-3.553-5.895-2.398-1.917.906-4.24 2.418-4.914 4.211-2.171 5.758-4.131 11.686-5.259 17.72-.993 5.314 2.336 8.358 7.832 8.408 3.431.03 6.859.078 10.288.136.179.004.36.197.713.402-.495 6.07-.998 12.223-1.499 18.41 2.635 1.035 3.594.244 3.695-2.429.171-4.332.643-8.654 1.683-12.977.729 4.034 1.478 8.062 2.189 12.098.436 2.479 1.429 4.476 4.377 3.879 2.777-.564 2.902-2.71 2.463-5.042-1.047-5.577-2.087-11.154-3.044-16.744-.475-2.74-1.338-4.973-4.792-5.428 1.05-.268 2.093-.752 3.141-.766 5.469-.071 10.941.04 16.411-.044 3.047-.048 4.453 1.199 4.689 4.319.578 7.684 1.379 15.35 2.126 23.358l3.325.204c-.625-7.667-1.214-14.999-1.833-22.329-.196-2.301-1.225-4.582.738-6.788zM13.828 157.335c-.957 5.53-1.893 10.957-2.874 16.654h22.845l-2.816-16.654h-17.155zM38.548 125.228c3.841.024 6.903-3.007 6.958-6.887.054-3.964-3.169-7.241-7.043-7.158-3.797.086-6.784 3.21-6.774 7.085.007 3.893 3.008 6.933 6.859 6.96zM242.657 156.396c.394-.486-.011-1.62-.055-2.597-8.349.39-16.494.773-25.111 1.176l1.102 4.338-5.406.254c.832-3.33 1.626-6.517 2.425-9.705 3.602.454 7.201.949 10.809 1.341 1.364.148 2.666-.329 2.611-1.923-.055-1.603-1.361-1.779-2.741-1.761-3.949.052-7.889-.059-11.38-2.312.227-.275.698-.706.639-.801-1.035-1.667-2.635-2.468-4.367-1.546-1.361.726-3.001 1.906-3.432 3.23-1.379 4.261-2.604 8.639-3.218 13.062-.542 3.9 1.983 6 5.98 5.848 2.497-.096 4.992-.178 7.484-.253.132-.001.27.132.534.268-.156 4.431-.309 8.921-.465 13.437 1.95.664 2.622.056 2.604-1.891-.021-3.158.176-6.316.783-9.492.666 2.907 1.348 5.811 1.999 8.719.404 1.79 1.195 3.207 3.319 2.672 1.997-.504 2.018-2.069 1.621-3.75-.952-4.02-1.898-8.037-2.791-12.071-.436-1.975-1.138-3.568-3.667-3.781.753-.231 1.497-.62 2.262-.666 3.971-.237 7.954-.343 11.927-.592 2.215-.139 3.278.722 3.556 2.981.682 5.566 1.527 11.114 2.345 16.911l2.425.034c-.722-5.554-1.396-10.863-2.096-16.171-.222-1.668-1.044-3.289.304-4.959zM201.025 166.914c-.503 4.055-1.001 8.03-1.52 12.206l16.608-.778-2.611-12.012c-4.247.198-8.254.386-12.477.584zM212.681 137.9c.14 2.832 2.422 4.938 5.226 4.828 2.79-.114 4.914-2.421 4.82-5.244-.093-2.885-2.549-5.157-5.36-4.963-2.758.19-4.827 2.563-4.686 5.379zM192.924 171.944c.434-.533-.013-1.778-.062-2.853-9.165.429-18.112.849-27.575 1.293.431 1.682.791 3.113 1.211 4.765l-5.937.279 2.658-10.659c3.958.5 7.91 1.045 11.873 1.473 1.496.163 2.928-.361 2.868-2.114-.06-1.758-1.491-1.952-3.006-1.932-4.342.057-8.667-.065-12.505-2.539.249-.301.768-.773.702-.883-1.136-1.827-2.892-2.708-4.795-1.695-1.499.796-3.296 2.09-3.768 3.548-1.518 4.678-2.863 9.486-3.535 14.346-.596 4.282 2.179 6.587 6.569 6.421 2.741-.105 5.477-.196 8.218-.276.146-.005.299.144.584.293-.164 4.867-.335 9.796-.506 14.757 2.14.728 2.879.06 2.86-2.077-.026-3.467.189-6.936.858-10.425.731 3.192 1.48 6.38 2.199 9.578.44 1.964 1.31 3.52 3.644 2.934 2.194-.554 2.215-2.274 1.779-4.12-1.048-4.411-2.085-8.826-3.065-13.254-.478-2.17-1.253-3.921-4.025-4.156.828-.251 1.645-.678 2.479-.728 4.364-.262 8.739-.378 13.102-.651 2.433-.152 3.6.791 3.903 3.273.749 6.115 1.678 12.207 2.572 18.573l2.663.037c-.788-6.099-1.529-11.93-2.297-17.761-.238-1.83-1.147-3.612.334-5.447zM147.204 183.497c-.555 4.451-1.097 8.82-1.67 13.405 6.141-.288 12.059-.565 18.244-.854l-2.873-13.192c-4.664.216-9.062.423-13.701.641zM165.149 145.725c-3.029.208-5.298 2.816-5.146 5.91.153 3.108 2.658 5.42 5.734 5.299 3.07-.125 5.404-2.659 5.301-5.76-.102-3.166-2.8-5.662-5.889-5.449zM138.978 190.483c.537-.667-.018-2.223-.083-3.568-11.465.538-22.655 1.063-34.497 1.618.537 2.104.993 3.895 1.515 5.959l-7.428.349 3.333-13.333c4.948.624 9.894 1.306 14.852 1.841 1.867.204 3.662-.45 3.589-2.644-.078-2.199-1.873-2.44-3.766-2.416-5.43.071-10.843-.082-15.64-3.177.309-.377.959-.968.876-1.102-1.421-2.289-3.615-3.389-6.001-2.123-1.867.996-4.121 2.617-4.712 4.438-1.896 5.854-3.579 11.866-4.421 17.947-.745 5.355 2.728 8.239 8.218 8.033 3.428-.132 6.854-.244 10.283-.346.181-.005.368.179.731.367-.208 6.086-.422 12.257-.638 18.46 2.682.911 3.602.075 3.582-2.6-.034-4.335.238-8.673 1.071-13.041.921 3.994 1.852 7.983 2.754 11.981.552 2.458 1.636 4.405 4.554 3.671 2.749-.692 2.772-2.842 2.228-5.15-1.307-5.522-2.609-11.043-3.828-16.583-.602-2.716-1.569-4.905-5.039-5.2 1.032-.315 2.051-.848 3.102-.912 5.459-.327 10.928-.472 16.387-.813 3.044-.19 4.502.989 4.883 4.095.941 7.647 2.103 15.27 3.218 23.233l3.335.047c-.988-7.628-1.917-14.923-2.878-22.218-.304-2.288-1.437-4.518.42-6.813zM81.781 204.936c-.695 5.569-1.379 11.032-2.093 16.77 7.684-.359 15.085-.707 22.819-1.07l-3.589-16.504c-5.832.272-11.335.53-17.137.804zM104.227 157.68c-3.789.263-6.628 3.524-6.434 7.395.189 3.889 3.328 6.784 7.176 6.63 3.836-.154 6.756-3.326 6.629-7.204-.133-3.963-3.507-7.084-7.371-6.821z"/></g></svg>