<svg xmlns="http://www.w3.org/2000/svg" width="250" height="158.128" viewBox="0 0 250 158.128"><g fill-rule="evenodd" clip-rule="evenodd"><path fill="#fff" d="M70.742 16.243v10.984h7.872v-3.114h69.171v92.859h-9.367l-2.541 7.871h19.778v-108.6h-84.913zm-1.711 32.487h54.676v27.9h-54.676v-27.9zm-.115 75.181h23.858v3.25h-23.858v-3.25zm0-10.021h23.858v3.252h-23.858v-3.252zm0-10.93h34.402v3.252h-34.402v-3.252zm0-9.893h45.205v3.256h-45.205v-3.256zm0-9.111h54.791v3.256h-54.791v-3.256zm69.568-50.668v63.745999999999995l-.2.623-13.393 41.492-.885 2.736h-70.438v-108.598h84.916v.001zm-46.584 100.727h-30.462v-92.856h69.174v51.858l-24.767 28.021-2.275 2.572 2.243 2.592 6.755 7.812h-20.668v.001zm34.148-24l-6.484 20.098-5.578-6.451 12.062-13.647z"/><path fill="#ED1C24" d="M146.81 71.827l5.724 2.933c-2.338 3.632-4.459 6.933-6.775 10.536-1.484-1.143-3.08-2.365-4.755-3.65-7.106 8.032-15.672 12.096-25.785 12.465-9.019.33-17.026-2.682-23.854-8.615-12.536-10.888-15.414-30.416-6.559-44.25 9.234-14.432 27.509-20.278 42.844-13.729 15.534 6.636 25.573 24.208 19.16 44.31zm-3.272-19.153c-3.838-16.344-19.862-26.324-36.126-22.495-16.234 3.817-26.3 20.012-22.518 36.224 3.801 16.263 20.144 26.28 36.559 22.411 15.96-3.761 25.879-19.993 22.085-36.14zM157.918 78.813l32.501 19.918c-1.989 3.174-4.027 6.412-6.041 9.621-10.697-6.605-21.597-13.334-32.667-20.17l6.207-9.369zM186.409 109.829l6.166-9.975c2.229.799 3.782 2.092 3.853 4.57.083 3.031-1.352 5.34-3.943 6.736-2.251 1.212-4.286.431-6.076-1.331zM154.393 76.13c2.927 2.419-.054 4.128-.985 5.354-1.432 1.884-1.355 5.836-5.678 5.309 2.312-3.703 4.371-6.998 6.663-10.663z"/><path fill="#fff" d="M143.538 52.674c3.794 16.146-6.125 32.379-22.085 36.139-16.415 3.869-32.758-6.148-36.559-22.411-3.782-16.212 6.283-32.406 22.518-36.224 16.264-3.828 32.288 6.152 36.126 22.496zm-22.468 35.007c15.436-3.548 25.015-19.019 21.423-34.6-3.664-15.916-19.016-25.515-34.894-21.821-15.443 3.593-25.199 19.154-21.647 34.531 3.713 16.07 19 25.601 35.118 21.89z"/><path fill="#ED1C24" d="M121.07 87.681c-16.118 3.711-31.405-5.82-35.118-21.89-3.552-15.377 6.204-30.938 21.648-34.532 15.878-3.693 31.229 5.905 34.894 21.821 3.591 15.582-5.988 31.052-21.424 34.601zm20.361-34.609c-3.608-14.931-18.629-24.229-33.521-20.761-14.975 3.491-24.377 18.804-20.747 33.789 3.602 14.872 18.771 24.139 33.636 20.551 14.853-3.585 24.203-18.807 20.632-33.579zM140.027 60.131c.707 9.551-7.531 23.846-23.771 25.362-12.705 1.189-25.76-8.198-27.689-20.689 5.8 12.751 15.154 19.229 28.662 17.537 12.568-1.572 19.744-9.631 22.798-22.21z"/></g></svg>