<svg xmlns="http://www.w3.org/2000/svg" width="850" height="330.079" viewBox="0 0 850 330.079"><g fill="#5E7E53"><path d="M65.71 54.983h4.638v3.644c0 .34-.11.633-.331.879-.221.246-.544.369-.968.369h-3.339v8.996h-5.504v-8.996h-15.545c-.425 0-.799-.131-1.121-.395-.323-.263-.527-.59-.612-.981l-.637-3.185 17.456-23.317h5.963v22.986zm-5.504-12.053c0-.543.017-1.13.051-1.758.034-.628.093-1.283.178-1.962l-11.442 15.773h11.213v-12.053zM95.271 54.983h4.638v3.644c0 .34-.11.633-.331.879-.221.246-.544.369-.968.369h-3.338v8.996h-5.504v-8.996h-15.547c-.425 0-.799-.131-1.121-.395-.323-.263-.527-.59-.612-.981l-.637-3.185 17.456-23.317h5.963v22.986zm-5.505-12.053c0-.543.017-1.13.051-1.758.034-.628.093-1.283.178-1.962l-11.442 15.773h11.213v-12.053zM119.402 40.942c0 1.393-.233 2.65-.701 3.771s-1.092 2.077-1.873 2.867c-.782.79-1.69 1.398-2.727 1.822-1.037.425-2.115.637-3.236.637-1.223 0-2.354-.212-3.389-.637-1.037-.424-1.933-1.032-2.688-1.822-.756-.79-1.347-1.746-1.771-2.867s-.637-2.378-.637-3.771c0-1.427.212-2.718.637-3.873s1.015-2.132 1.771-2.931c.755-.798 1.652-1.415 2.688-1.848 1.036-.433 2.166-.65 3.389-.65s2.357.217 3.402.65 1.95 1.049 2.714 1.848c.765.799 1.359 1.775 1.784 2.931.424 1.155.637 2.446.637 3.873zm12.258-7.925c.204-.255.458-.484.764-.688.306-.204.73-.306 1.274-.306h4.562l-27.369 35.905c-.204.272-.463.497-.777.675s-.692.268-1.134.268h-4.689l27.369-35.854zm-17.125 7.925c0-.985-.094-1.809-.28-2.472-.187-.663-.446-1.198-.777-1.605-.331-.408-.722-.701-1.172-.879-.45-.178-.93-.267-1.439-.267s-.986.089-1.427.267c-.442.179-.824.472-1.146.879-.323.408-.574.943-.752 1.605s-.268 1.487-.268 2.472c0 .952.089 1.746.268 2.383s.429 1.151.752 1.542c.322.391.705.671 1.146.841.441.17.917.255 1.427.255s.989-.084 1.439-.255c.45-.169.841-.45 1.172-.841.332-.391.59-.904.777-1.542.186-.637.28-1.431.28-2.383zm25.661 19.265c0 1.393-.234 2.65-.701 3.771-.467 1.121-1.092 2.077-1.873 2.867-.782.79-1.69 1.401-2.727 1.835-1.037.433-2.115.649-3.236.649-1.224 0-2.354-.216-3.39-.649-1.036-.434-1.933-1.045-2.688-1.835s-1.347-1.746-1.771-2.867c-.425-1.122-.637-2.378-.637-3.771 0-1.427.212-2.718.637-3.874.424-1.155 1.015-2.132 1.771-2.931.756-.798 1.652-1.414 2.688-1.847s2.166-.65 3.39-.65c1.223 0 2.357.217 3.402.65s1.949 1.049 2.714 1.847c.765.799 1.359 1.776 1.784 2.931.425 1.156.637 2.447.637 3.874zm-4.842 0c0-.985-.098-1.81-.293-2.472-.195-.663-.458-1.198-.79-1.605-.331-.408-.722-.701-1.172-.879s-.93-.268-1.439-.268c-.51 0-.986.089-1.427.268-.442.178-.82.472-1.134.879-.315.408-.565.943-.752 1.605-.187.662-.28 1.486-.28 2.472 0 .952.093 1.75.28 2.396.187.646.437 1.164.752 1.554.314.391.692.671 1.134.841.441.17.917.255 1.427.255.509 0 .989-.084 1.439-.255.45-.169.841-.45 1.172-.841.332-.391.595-.909.79-1.554.195-.646.293-1.444.293-2.396z"/></g><g fill="#0E5461"><path d="M54.944 84.657v2.283h-6.838v4.566h5.771v2.294h-5.771v6.284h-2.891v-15.427h9.729zM60.246 85.948c0 .228-.046.441-.139.64-.093.199-.215.374-.368.523-.153.149-.333.269-.539.357-.207.089-.427.134-.662.134-.228 0-.443-.044-.646-.134-.203-.088-.379-.208-.528-.357-.149-.149-.269-.324-.357-.523-.089-.199-.134-.413-.134-.64 0-.235.044-.455.134-.662.089-.206.208-.384.357-.533.149-.149.325-.269.528-.357s.418-.133.646-.133c.235 0 .455.044.662.133.206.089.385.208.539.357.153.149.275.327.368.533.093.207.139.427.139.662zm-.395 3.19v10.946h-2.635v-10.946h2.635zM62.828 100.084v-10.946h1.611c.341 0 .565.16.672.48l.181.864c.22-.228.454-.434.699-.619.246-.185.505-.345.779-.48s.567-.238.88-.309.654-.107 1.024-.107c.598 0 1.127.102 1.59.304.462.203.848.487 1.157.854.31.366.544.804.704 1.312.16.509.24 1.069.24 1.681v6.966h-2.635v-6.966c0-.668-.155-1.186-.464-1.552-.31-.367-.773-.55-1.392-.55-.456 0-.882.104-1.28.31-.398.207-.775.487-1.131.843v7.916h-2.635zM83.535 100.084h-1.185c-.249 0-.444-.037-.586-.112-.143-.075-.249-.226-.32-.454l-.235-.779c-.277.249-.549.468-.816.656s-.542.347-.827.475c-.285.128-.587.224-.907.288-.32.064-.676.096-1.067.096-.462 0-.889-.062-1.28-.188s-.728-.312-1.008-.562c-.281-.25-.5-.56-.656-.931-.156-.371-.234-.803-.234-1.295 0-.414.108-.822.325-1.226.217-.403.578-.767 1.083-1.092.505-.325 1.177-.594 2.016-.808.839-.214 1.881-.321 3.126-.321v-.645c0-.738-.155-1.285-.464-1.64-.31-.354-.759-.532-1.35-.532-.427 0-.783.05-1.067.149-.285.1-.532.212-.742.336l-.581.336c-.178.1-.374.149-.587.149-.178 0-.331-.046-.459-.139-.128-.093-.231-.207-.309-.342l-.48-.843c1.259-1.152 2.777-1.728 4.555-1.728.64 0 1.211.105 1.712.314.501.21.926.501 1.275.875.348.374.613.82.794 1.339.182.519.272 1.088.272 1.707v6.917zm-5.121-1.643c.27 0 .519-.024.747-.073.228-.049.443-.123.646-.221s.398-.219.587-.362.379-.313.571-.509v-1.832c-.768 0-1.41.048-1.926.145s-.93.22-1.243.371-.535.326-.667.526c-.131.201-.197.419-.197.655 0 .466.137.799.411 1s.63.3 1.071.3zM86.127 100.084v-10.946h1.611c.341 0 .565.16.672.48l.181.864c.22-.228.454-.434.699-.619.246-.185.505-.345.779-.48s.567-.238.88-.309.654-.107 1.024-.107c.598 0 1.127.102 1.59.304.462.203.848.487 1.157.854.31.366.544.804.704 1.312.16.509.24 1.069.24 1.681v6.966h-2.634v-6.966c0-.668-.155-1.186-.464-1.552-.31-.367-.773-.55-1.392-.55-.456 0-.882.104-1.28.31-.398.207-.775.487-1.131.843v7.916h-2.636zM105.949 91.453c-.078.1-.155.178-.229.235s-.183.085-.325.085c-.135 0-.267-.041-.395-.123l-.459-.277c-.178-.103-.389-.195-.635-.277-.246-.082-.549-.123-.912-.123-.462 0-.868.083-1.216.25-.349.167-.638.407-.87.72-.231.313-.403.692-.517 1.136-.114.445-.171.948-.171 1.51 0 .583.062 1.103.187 1.558.124.455.304.837.539 1.146.235.31.519.544.854.705.334.16.711.24 1.131.24.419 0 .759-.051 1.019-.155.26-.103.479-.217.656-.341l.464-.341c.131-.103.279-.155.442-.155.213 0 .374.082.48.246l.758.96c-.292.341-.608.628-.95.859s-.695.416-1.062.555-.745.236-1.136.293c-.391.057-.779.085-1.163.085-.676 0-1.312-.126-1.91-.379-.598-.252-1.119-.621-1.563-1.104-.444-.484-.796-1.076-1.056-1.776s-.39-1.499-.39-2.395c0-.804.116-1.549.347-2.235.231-.686.57-1.28 1.019-1.781.448-.501 1.003-.895 1.665-1.179.661-.284 1.422-.427 2.283-.427.818 0 1.535.132 2.15.395s1.168.64 1.659 1.131l-.694.959zM111.635 85.948c0 .228-.046.441-.139.64-.093.199-.215.374-.368.523-.153.149-.333.269-.539.357-.207.089-.427.134-.662.134-.228 0-.443-.044-.646-.134-.203-.088-.379-.208-.528-.357-.149-.149-.269-.324-.357-.523-.089-.199-.134-.413-.134-.64 0-.235.044-.455.134-.662.089-.206.208-.384.357-.533.149-.149.325-.269.528-.357s.418-.133.646-.133c.235 0 .455.044.662.133.206.089.385.208.539.357.153.149.275.327.368.533.093.207.139.427.139.662zm-.395 3.19v10.946h-2.635v-10.946h2.635zM122.794 100.084h-1.185c-.249 0-.444-.037-.586-.112-.143-.075-.249-.226-.32-.454l-.235-.779c-.277.249-.549.468-.816.656s-.542.347-.827.475c-.285.128-.587.224-.907.288-.32.064-.676.096-1.067.096-.462 0-.889-.062-1.28-.188s-.728-.312-1.008-.562c-.281-.25-.5-.56-.656-.931-.156-.371-.234-.803-.234-1.295 0-.414.108-.822.325-1.226.217-.403.578-.767 1.083-1.092.505-.325 1.177-.594 2.016-.808.839-.214 1.881-.321 3.126-.321v-.645c0-.738-.155-1.285-.464-1.64-.31-.354-.759-.532-1.35-.532-.427 0-.783.05-1.067.149-.285.1-.532.212-.742.336l-.581.336c-.178.1-.374.149-.587.149-.178 0-.331-.046-.459-.139-.128-.093-.231-.207-.309-.342l-.48-.843c1.259-1.152 2.777-1.728 4.555-1.728.64 0 1.211.105 1.712.314.501.21.926.501 1.275.875.348.374.613.82.794 1.339.182.519.272 1.088.272 1.707v6.917zm-5.121-1.643c.27 0 .519-.024.747-.073.228-.049.443-.123.646-.221s.398-.219.587-.362.379-.313.571-.509v-1.832c-.768 0-1.41.048-1.926.145s-.93.22-1.243.371-.535.326-.667.526c-.131.201-.197.419-.197.655 0 .466.137.799.411 1s.63.3 1.071.3zM128.192 84.23v15.854h-2.635v-15.854h2.635zM9.263 125.688v-10.946h1.611c.341 0 .565.16.672.48l.17.811c.192-.213.393-.409.603-.587.209-.178.434-.331.672-.459.238-.128.494-.229.768-.304s.574-.112.902-.112c.689 0 1.257.187 1.701.56.445.374.777.87.998 1.488.171-.363.384-.674.64-.934.256-.259.537-.471.843-.635.306-.163.631-.284.976-.362.345-.079.692-.118 1.041-.118.604 0 1.142.093 1.611.277.469.185.864.456 1.184.811.32.355.563.79.731 1.301.167.512.25 1.099.25 1.761v6.966h-2.635v-6.966c0-.697-.153-1.222-.459-1.574s-.754-.528-1.344-.528c-.271 0-.521.046-.752.139-.231.093-.434.226-.608.4s-.311.393-.411.656c-.1.263-.149.565-.149.907v6.966h-2.646v-6.966c0-.733-.148-1.266-.443-1.601-.295-.334-.731-.501-1.307-.501-.377 0-.731.095-1.062.283-.331.188-.639.447-.923.773v8.012h-2.634zM30.429 111.552c0 .228-.046.441-.139.64-.093.199-.215.374-.368.523-.153.149-.333.269-.539.357-.207.089-.427.134-.662.134-.228 0-.443-.044-.646-.134-.203-.088-.379-.208-.528-.357-.149-.149-.269-.324-.357-.523-.089-.199-.134-.413-.134-.64 0-.235.044-.455.134-.662.089-.206.208-.384.357-.533.149-.149.325-.269.528-.357s.418-.133.646-.133c.235 0 .455.044.662.133.206.089.385.208.539.357.153.149.275.327.368.533.092.207.139.427.139.662zm-.395 3.19v10.946h-2.635v-10.946h2.635zM39.507 116.876c-.071.114-.146.194-.224.24-.078.046-.178.069-.299.069-.128 0-.265-.035-.411-.106l-.507-.24c-.192-.089-.411-.169-.656-.24-.246-.071-.535-.107-.87-.107-.519 0-.928.11-1.227.331-.298.221-.448.509-.448.864 0 .235.076.432.229.592.153.16.356.3.608.421s.539.229.859.325c.32.096.647.201.981.315.334.114.661.244.981.389.32.146.606.331.859.555.252.224.455.493.608.806s.229.69.229 1.131c0 .526-.096 1.012-.288 1.456-.192.445-.473.829-.843 1.152-.37.324-.827.576-1.371.757-.544.182-1.168.272-1.872.272-.377 0-.745-.034-1.104-.102-.359-.068-.704-.162-1.035-.283-.331-.121-.637-.263-.917-.427s-.528-.341-.741-.533l.608-1.003c.078-.121.171-.213.277-.277.107-.064.242-.096.405-.096s.318.046.464.139l.507.299c.192.106.417.207.677.299s.588.139.987.139c.313 0 .582-.038.806-.112.224-.075.409-.172.555-.293.146-.121.252-.261.32-.421.067-.16.102-.325.102-.496 0-.256-.077-.465-.229-.629-.153-.164-.355-.306-.608-.427s-.541-.229-.864-.325-.654-.201-.992-.315c-.338-.113-.668-.247-.992-.4s-.612-.347-.864-.582c-.252-.234-.455-.522-.608-.864-.153-.342-.229-.754-.229-1.238 0-.448.089-.875.267-1.28s.439-.759.784-1.062c.345-.302.775-.544 1.291-.726.516-.181 1.111-.272 1.787-.272.753 0 1.44.125 2.059.374.619.249 1.135.576 1.547.981l-.598.95zM42.334 125.688v-10.946h1.611c.341 0 .565.16.672.48l.17.811c.192-.213.393-.409.603-.587.209-.178.434-.331.672-.459.238-.128.494-.229.768-.304s.574-.112.902-.112c.689 0 1.257.187 1.701.56.445.374.777.87.998 1.488.171-.363.384-.674.64-.934.256-.259.537-.471.843-.635.306-.163.631-.284.976-.362.345-.079.692-.118 1.041-.118.604 0 1.142.093 1.611.277.469.185.864.456 1.184.811.32.355.563.79.731 1.301.167.512.25 1.099.25 1.761v6.966h-2.635v-6.966c0-.697-.153-1.222-.459-1.574s-.754-.528-1.344-.528c-.271 0-.521.046-.752.139-.231.093-.434.226-.608.4s-.311.393-.411.656c-.1.263-.149.565-.149.907v6.966h-2.646v-6.966c0-.733-.148-1.266-.443-1.601-.295-.334-.731-.501-1.307-.501-.377 0-.731.095-1.062.283-.331.188-.639.447-.923.773v8.012h-2.634zM68.877 125.688h-1.185c-.249 0-.444-.037-.586-.112-.143-.075-.249-.226-.32-.454l-.235-.779c-.277.249-.549.468-.816.656s-.542.347-.827.475c-.285.128-.587.224-.907.288-.32.064-.676.096-1.067.096-.462 0-.889-.062-1.28-.188s-.728-.312-1.008-.562c-.281-.25-.5-.56-.656-.931-.156-.371-.234-.803-.234-1.295 0-.414.108-.822.325-1.226.217-.403.578-.767 1.083-1.092.505-.325 1.177-.594 2.016-.808.839-.214 1.881-.321 3.126-.321v-.645c0-.738-.155-1.285-.464-1.64-.31-.354-.759-.532-1.35-.532-.427 0-.783.05-1.067.149-.285.1-.532.212-.742.336l-.581.336c-.178.1-.374.149-.587.149-.178 0-.331-.046-.459-.139-.128-.093-.231-.207-.309-.342l-.48-.843c1.259-1.152 2.777-1.728 4.555-1.728.64 0 1.211.105 1.712.314.501.21.926.501 1.275.875.348.374.613.82.794 1.339.182.519.272 1.088.272 1.707v6.917zm-5.121-1.643c.27 0 .519-.024.747-.073.228-.049.443-.123.646-.221s.398-.219.587-.362.379-.313.571-.509v-1.832c-.768 0-1.41.048-1.926.145s-.93.22-1.243.371-.535.326-.667.526c-.131.201-.197.419-.197.655 0 .466.137.799.411 1s.63.3 1.071.3zM71.47 125.688v-10.946h1.611c.341 0 .565.16.672.48l.181.864c.22-.228.454-.434.699-.619.246-.185.505-.345.779-.48s.567-.238.88-.309.654-.107 1.024-.107c.598 0 1.127.102 1.59.304.462.203.848.487 1.157.854.31.366.544.804.704 1.312.16.509.24 1.069.24 1.681v6.966h-2.635v-6.966c0-.668-.155-1.186-.464-1.552-.31-.367-.773-.55-1.392-.55-.456 0-.882.104-1.28.31-.398.207-.775.487-1.131.843v7.916h-2.635zM92.177 125.688h-1.185c-.249 0-.444-.037-.586-.112-.143-.075-.249-.226-.32-.454l-.235-.779c-.277.249-.549.468-.816.656s-.542.347-.827.475c-.285.128-.587.224-.907.288-.32.064-.676.096-1.067.096-.462 0-.889-.062-1.28-.188s-.728-.312-1.008-.562c-.281-.25-.5-.56-.656-.931-.156-.371-.234-.803-.234-1.295 0-.414.108-.822.325-1.226.217-.403.578-.767 1.083-1.092.505-.325 1.177-.594 2.016-.808.839-.214 1.881-.321 3.126-.321v-.645c0-.738-.155-1.285-.464-1.64-.31-.354-.759-.532-1.35-.532-.427 0-.783.05-1.067.149-.285.1-.532.212-.742.336l-.581.336c-.178.1-.374.149-.587.149-.178 0-.331-.046-.459-.139-.128-.093-.231-.207-.309-.342l-.48-.843c1.259-1.152 2.777-1.728 4.555-1.728.64 0 1.211.105 1.712.314.501.21.926.501 1.275.875.348.374.613.82.794 1.339.182.519.272 1.088.272 1.707v6.917zm-5.121-1.643c.27 0 .519-.024.747-.073.228-.049.443-.123.646-.221s.398-.219.587-.362.379-.313.571-.509v-1.832c-.768 0-1.41.048-1.926.145s-.93.22-1.243.371-.535.326-.667.526c-.131.201-.197.419-.197.655 0 .466.137.799.411 1s.63.3 1.071.3zM98.557 114.55c.47 0 .911.048 1.323.144.412.096.789.236 1.131.421h3.147v.981c0 .164-.042.292-.128.384-.085.093-.231.157-.438.192l-.981.181c.071.185.126.38.166.587.039.206.059.423.059.65 0 .541-.108 1.03-.326 1.467-.217.438-.516.809-.896 1.115s-.832.542-1.355.709c-.522.167-1.09.25-1.702.25-.413 0-.814-.039-1.206-.117-.341.208-.512.441-.512.698 0 .223.101.385.304.489.203.104.47.177.8.22s.706.064 1.125.064.85.018 1.291.054.871.098 1.291.187c.419.089.794.23 1.125.423.331.193.597.455.8.787.203.332.304.758.304 1.279 0 .485-.119.956-.357 1.413s-.583.863-1.035 1.22-1.005.644-1.659.862-1.401.327-2.24.327c-.832 0-1.554-.08-2.166-.24-.612-.16-1.119-.374-1.521-.64s-.702-.574-.901-.923-.299-.711-.299-1.088c0-.512.156-.942.47-1.291.312-.349.747-.626 1.301-.833-.271-.149-.487-.348-.651-.597s-.245-.572-.245-.971c0-.164.028-.333.085-.507.057-.174.144-.347.261-.518.117-.17.265-.333.443-.485.178-.153.387-.29.629-.411-.555-.299-.991-.697-1.307-1.195-.316-.498-.475-1.081-.475-1.75 0-.54.108-1.029.325-1.467s.519-.811.907-1.12.847-.546 1.376-.709 1.111-.242 1.737-.242zm2.891 11.597c0-.218-.064-.396-.192-.534s-.302-.245-.522-.321c-.221-.076-.479-.132-.773-.169-.295-.036-.608-.054-.939-.054h-1.024s-.691-.039-1.019-.118c-.299.164-.539.357-.72.582s-.272.482-.272.773c0 .192.048.372.144.539.096.167.249.311.458.432.21.121.482.215.816.283.334.067.743.101 1.227.101.491 0 .914-.038 1.27-.114.356-.076.649-.182.88-.316.231-.134.4-.294.507-.479.106-.185.159-.387.159-.605zm-2.891-6.199c.327 0 .612-.044.854-.133s.443-.211.603-.368c.16-.156.281-.345.363-.565.082-.22.123-.462.123-.725 0-.541-.162-.969-.485-1.286-.324-.316-.809-.475-1.457-.475-.647 0-1.132.159-1.456.475s-.485.745-.485 1.286c0 .256.041.494.123.714.082.221.203.411.363.571.16.16.363.285.608.374.243.088.526.132.846.132zM110.334 114.571c.69 0 1.325.11 1.904.331.58.22 1.079.542 1.499.965.419.423.747.942.981 1.558s.352 1.317.352 2.107c0 .199-.009.365-.027.496-.018.132-.05.235-.096.31-.046.075-.109.128-.187.16s-.178.048-.299.048h-6.764c.078 1.124.38 1.949.907 2.475s1.224.79 2.091.79c.427 0 .795-.05 1.104-.149.31-.1.58-.21.811-.331l.608-.331s.343-.149.507-.149c.106 0 .199.021.277.064.078.043.146.104.203.182l.768.96c-.292.341-.619.628-.981.859s-.741.416-1.136.555c-.395.139-.796.236-1.206.293-.409.057-.805.085-1.189.085-.761 0-1.469-.126-2.123-.379s-1.223-.625-1.707-1.12c-.483-.494-.864-1.106-1.141-1.835s-.417-1.574-.417-2.534c0-.747.121-1.449.363-2.107.242-.658.588-1.23 1.041-1.718.451-.487 1.002-.873 1.653-1.158.652-.284 1.387-.427 2.204-.427zm.054 1.889c-.768 0-1.369.217-1.803.65-.434.434-.711 1.049-.832 1.846h4.95c0-.341-.046-.663-.139-.965-.092-.302-.234-.567-.427-.795-.192-.228-.434-.407-.725-.539-.292-.132-.633-.197-1.024-.197zM117.215 125.688v-10.946h1.611c.341 0 .565.16.672.48l.17.811c.192-.213.393-.409.603-.587.209-.178.434-.331.672-.459.238-.128.494-.229.768-.304s.574-.112.902-.112c.689 0 1.257.187 1.701.56.445.374.777.87.998 1.488.171-.363.384-.674.64-.934.256-.259.537-.471.843-.635.306-.163.631-.284.976-.362.345-.079.692-.118 1.041-.118.604 0 1.142.093 1.611.277.469.185.864.456 1.184.811.32.355.563.79.731 1.301.167.512.25 1.099.25 1.761v6.966h-2.635v-6.966c0-.697-.153-1.222-.459-1.574s-.754-.528-1.344-.528c-.271 0-.521.046-.752.139-.231.093-.434.226-.608.4s-.311.393-.411.656c-.1.263-.149.565-.149.907v6.966h-2.646v-6.966c0-.733-.148-1.266-.443-1.601-.295-.334-.731-.501-1.307-.501-.377 0-.731.095-1.062.283-.331.188-.639.447-.923.773v8.012h-2.634zM139.704 114.571c.69 0 1.325.11 1.904.331.58.22 1.079.542 1.499.965.419.423.747.942.981 1.558s.352 1.317.352 2.107c0 .199-.009.365-.027.496-.018.132-.05.235-.096.31-.046.075-.109.128-.187.16s-.178.048-.299.048h-6.764c.078 1.124.38 1.949.907 2.475s1.224.79 2.091.79c.427 0 .795-.05 1.104-.149.31-.1.58-.21.811-.331l.608-.331s.343-.149.507-.149c.106 0 .199.021.277.064.078.043.146.104.203.182l.768.96c-.292.341-.619.628-.981.859s-.741.416-1.136.555c-.395.139-.796.236-1.206.293-.409.057-.805.085-1.189.085-.761 0-1.469-.126-2.123-.379s-1.223-.625-1.707-1.12c-.483-.494-.864-1.106-1.141-1.835s-.417-1.574-.417-2.534c0-.747.121-1.449.363-2.107.242-.658.588-1.23 1.041-1.718.451-.487 1.002-.873 1.653-1.158.652-.284 1.386-.427 2.204-.427zm.053 1.889c-.768 0-1.369.217-1.803.65-.434.434-.711 1.049-.832 1.846h4.95c0-.341-.046-.663-.139-.965-.092-.302-.234-.567-.427-.795-.192-.228-.434-.407-.725-.539-.291-.132-.633-.197-1.024-.197zM146.585 125.688v-10.946h1.611c.341 0 .565.16.672.48l.181.864c.22-.228.454-.434.699-.619.246-.185.505-.345.779-.48s.567-.238.88-.309.654-.107 1.024-.107c.598 0 1.127.102 1.59.304.462.203.848.487 1.157.854.31.366.544.804.704 1.312.16.509.24 1.069.24 1.681v6.966h-2.635v-6.966c0-.668-.155-1.186-.464-1.552-.31-.367-.773-.55-1.392-.55-.456 0-.882.104-1.28.31-.398.207-.775.487-1.131.843v7.916h-2.635zM162.31 125.859c-.946 0-1.675-.269-2.187-.806s-.768-1.278-.768-2.225v-6.113h-1.109c-.143 0-.265-.046-.368-.139s-.155-.231-.155-.416v-1.045l1.76-.288.555-2.987c.028-.142.094-.252.198-.331.103-.079.232-.118.389-.118h1.366v3.446h2.88v1.878h-2.88v5.932c0 .341.085.608.256.8.171.192.398.288.683.288.164 0 .301-.02.411-.059l.288-.123.219-.123.192-.059c.078 0 .142.02.192.059l.16.176.789 1.28c-.384.32-.825.562-1.323.726s-1.014.247-1.548.247z"/></g><g fill="#0E5461"><path d="M342.703 87.806v2.358h-4.641v13.069h-2.87v-13.069h-4.662v-2.358h12.173zM344.377 103.232v-15.853h2.635v6.092c.427-.405.896-.732 1.408-.981s1.113-.374 1.803-.374c.598 0 1.127.102 1.59.304.462.203.848.487 1.157.854.31.366.544.804.704 1.312.16.509.24 1.069.24 1.681v6.966h-2.635v-6.966c0-.668-.155-1.186-.464-1.552-.31-.367-.773-.55-1.392-.55-.456 0-.882.104-1.28.31-.398.207-.775.487-1.131.843v7.916h-2.635zM361.03 92.116c.69 0 1.325.11 1.904.331.58.22 1.079.542 1.499.965.419.423.747.942.981 1.558s.352 1.317.352 2.107c0 .199-.009.365-.027.496-.018.132-.05.235-.096.31-.046.075-.109.128-.187.16s-.178.048-.299.048h-6.764c.078 1.124.38 1.949.907 2.475s1.224.79 2.091.79c.427 0 .795-.05 1.104-.149.31-.1.58-.21.811-.331l.608-.331s.343-.149.507-.149c.106 0 .199.021.277.064.078.043.146.104.203.182l.768.96c-.292.341-.619.628-.981.859s-.741.416-1.136.555c-.395.139-.796.236-1.206.293-.409.057-.805.085-1.189.085-.761 0-1.469-.126-2.123-.379s-1.223-.625-1.707-1.12c-.483-.494-.864-1.106-1.141-1.835s-.417-1.574-.417-2.534c0-.747.121-1.449.363-2.107.242-.658.588-1.23 1.041-1.718.451-.487 1.002-.873 1.653-1.158.652-.285 1.386-.427 2.204-.427zm.053 1.888c-.768 0-1.369.217-1.803.65-.434.434-.711 1.049-.832 1.846h4.95c0-.341-.046-.663-.139-.965-.092-.302-.234-.567-.427-.795-.192-.228-.434-.407-.725-.539-.291-.131-.632-.197-1.024-.197zM368.38 103.232v-8.961l-.949-.149c-.207-.036-.372-.107-.496-.213-.125-.107-.187-.256-.187-.448v-1.078h1.632v-.811c0-.626.094-1.188.283-1.686s.459-.921.811-1.27.78-.615 1.286-.8c.505-.185 1.074-.277 1.707-.277.505 0 .974.068 1.408.203l-.054 1.323c-.014.207-.11.334-.288.384s-.384.075-.619.075c-.313 0-.592.034-.837.102-.245.067-.454.185-.624.352-.171.167-.301.388-.39.661-.089.274-.133.613-.133 1.019v.725h2.849v1.878h-2.763v8.972h-2.636zM378.985 103.403c-.946 0-1.675-.269-2.187-.806s-.768-1.278-.768-2.225v-6.112h-1.109c-.143 0-.265-.046-.368-.139s-.155-.231-.155-.416v-1.045l1.76-.288.555-2.987c.028-.142.094-.252.198-.331.103-.079.232-.118.389-.118h1.366v3.446h2.88v1.878h-2.88v5.932c0 .341.085.608.256.8.171.192.398.288.683.288.164 0 .301-.02.411-.059l.288-.123.219-.123.192-.059c.078 0 .142.02.192.059l.16.176.789 1.28c-.384.32-.825.562-1.323.726s-1.014.246-1.548.246zM392.438 92.116c.818 0 1.559.132 2.224.395s1.232.636 1.702 1.12c.47.484.832 1.074 1.088 1.771.256.697.384 1.476.384 2.336 0 .868-.128 1.65-.384 2.347-.256.697-.619 1.291-1.088 1.781-.469.491-1.037.868-1.702 1.131s-1.406.395-2.224.395-1.562-.132-2.23-.395c-.668-.263-1.239-.64-1.712-1.131-.473-.491-.839-1.084-1.099-1.781-.26-.697-.389-1.479-.389-2.347 0-.861.129-1.64.389-2.336.26-.697.626-1.287 1.099-1.771s1.043-.857 1.712-1.12 1.412-.395 2.23-.395zm0 9.249c.91 0 1.584-.306 2.021-.917.438-.611.656-1.507.656-2.688 0-1.18-.219-2.08-.656-2.699-.438-.619-1.111-.928-2.021-.928-.925 0-1.607.311-2.048.934-.441.622-.662 1.52-.662 2.693 0 1.174.221 2.068.662 2.683.44.615 1.123.922 2.048.922zM400.364 103.232v-8.961l-.949-.149c-.207-.036-.372-.107-.496-.213-.125-.107-.187-.256-.187-.448v-1.078h1.632v-.811c0-.626.094-1.188.283-1.686s.459-.921.811-1.27.78-.615 1.286-.8c.505-.185 1.074-.277 1.707-.277.505 0 .974.068 1.408.203l-.054 1.323c-.014.207-.11.334-.288.384s-.384.075-.619.075c-.313 0-.592.034-.837.102-.245.067-.454.185-.624.352-.171.167-.301.388-.39.661-.089.274-.133.613-.133 1.019v.725h2.849v1.878h-2.763v8.972h-2.636zM415.278 92.095c.47 0 .911.048 1.323.144.412.096.789.236 1.131.421h3.147v.981c0 .164-.042.292-.128.384-.085.093-.231.157-.438.192l-.981.181c.071.185.126.38.166.587.039.206.059.423.059.65 0 .541-.108 1.03-.326 1.467-.217.438-.516.809-.896 1.115s-.832.542-1.355.709c-.522.167-1.09.25-1.702.25-.413 0-.814-.039-1.206-.117-.341.208-.512.441-.512.698 0 .223.101.385.304.489.203.104.47.177.8.22s.706.064 1.125.064.85.018 1.291.054.871.098 1.291.187c.419.089.794.23 1.125.423.331.193.597.455.8.787.203.332.304.758.304 1.279 0 .485-.119.956-.357 1.413s-.583.863-1.035 1.22-1.005.644-1.659.862-1.401.327-2.24.327c-.832 0-1.554-.08-2.166-.24-.612-.16-1.119-.374-1.521-.64s-.702-.574-.901-.923-.299-.711-.299-1.088c0-.512.156-.942.47-1.291.312-.349.747-.626 1.301-.833-.271-.149-.487-.348-.651-.597s-.245-.572-.245-.971c0-.164.028-.333.085-.507.057-.174.144-.347.261-.518.117-.17.265-.333.443-.485.178-.153.387-.29.629-.411-.555-.299-.991-.697-1.307-1.195-.316-.498-.475-1.081-.475-1.75 0-.54.108-1.029.325-1.467s.519-.811.907-1.12.847-.546 1.376-.709 1.111-.242 1.737-.242zm2.891 11.597c0-.218-.064-.396-.192-.534s-.302-.245-.522-.321c-.221-.076-.479-.132-.773-.169-.295-.036-.608-.054-.939-.054h-1.024s-.691-.039-1.019-.118c-.299.164-.539.357-.72.582s-.272.482-.272.773c0 .192.048.372.144.539.096.167.249.311.458.432.21.121.482.215.816.283.334.067.743.101 1.227.101.491 0 .914-.038 1.27-.114.356-.076.649-.182.88-.316.231-.134.4-.294.507-.479.106-.186.159-.387.159-.605zm-2.891-6.199c.327 0 .612-.044.854-.133s.443-.211.603-.368c.16-.156.281-.345.363-.565.082-.22.123-.462.123-.725 0-.541-.162-.969-.485-1.286-.324-.316-.809-.475-1.457-.475-.647 0-1.132.159-1.456.475s-.485.745-.485 1.286c0 .256.041.494.123.714.082.221.203.411.363.571.16.16.363.285.608.374.243.087.526.132.846.132zM427.205 92.116c.817 0 1.56.132 2.225.395s1.231.636 1.701 1.12.832 1.074 1.088 1.771c.257.697.385 1.476.385 2.336 0 .868-.128 1.65-.385 2.347-.256.697-.618 1.291-1.088 1.781s-1.036.868-1.701 1.131-1.407.395-2.225.395c-.818 0-1.562-.132-2.23-.395-.668-.263-1.239-.64-1.712-1.131-.473-.491-.839-1.084-1.099-1.781-.26-.697-.389-1.479-.389-2.347 0-.861.129-1.64.389-2.336.26-.697.626-1.287 1.099-1.771s1.043-.857 1.712-1.12 1.412-.395 2.23-.395zm0 9.249c.91 0 1.584-.306 2.021-.917.438-.611.656-1.507.656-2.688 0-1.18-.219-2.08-.656-2.699-.438-.619-1.111-.928-2.021-.928-.925 0-1.607.311-2.048.934-.441.622-.662 1.52-.662 2.693 0 1.174.221 2.068.662 2.683.441.615 1.123.922 2.048.922zM439.335 92.116c.817 0 1.56.132 2.225.395s1.231.636 1.701 1.12.832 1.074 1.088 1.771c.257.697.385 1.476.385 2.336 0 .868-.128 1.65-.385 2.347-.256.697-.618 1.291-1.088 1.781s-1.036.868-1.701 1.131-1.407.395-2.225.395c-.818 0-1.562-.132-2.229-.395-.669-.263-1.239-.64-1.713-1.131-.473-.491-.839-1.084-1.099-1.781-.26-.697-.39-1.479-.39-2.347 0-.861.13-1.64.39-2.336.26-.697.626-1.287 1.099-1.771.474-.484 1.044-.857 1.713-1.12.667-.263 1.411-.395 2.229-.395zm0 9.249c.91 0 1.584-.306 2.021-.917.438-.611.656-1.507.656-2.688 0-1.18-.219-2.08-.656-2.699-.438-.619-1.111-.928-2.021-.928-.925 0-1.607.311-2.049.934-.44.622-.661 1.52-.661 2.693 0 1.174.221 2.068.661 2.683.442.615 1.124.922 2.049.922zM454.494 103.232c-.341 0-.565-.16-.672-.48l-.213-1.056c-.228.256-.466.487-.715.693-.249.207-.518.384-.806.533s-.598.265-.928.347c-.331.082-.688.123-1.072.123-.598 0-1.146-.125-1.644-.374s-.926-.61-1.285-1.083c-.359-.473-.637-1.058-.832-1.755-.196-.697-.294-1.494-.294-2.39 0-.811.11-1.564.331-2.262.221-.697.537-1.302.949-1.813.413-.512.907-.912 1.483-1.2s1.223-.432 1.941-.432c.611 0 1.135.098 1.568.293.434.195.821.457 1.163.784v-5.782h2.635v15.854h-1.609zm-3.51-1.931c.548 0 1.014-.114 1.397-.341.385-.228.747-.551 1.089-.971v-4.908c-.299-.363-.624-.619-.977-.768-.352-.149-.73-.224-1.136-.224-.398 0-.76.075-1.083.224-.324.149-.598.375-.821.678-.225.302-.396.686-.518 1.152s-.182 1.016-.182 1.648c0 .64.052 1.183.155 1.627.103.444.25.807.442 1.088s.427.483.704.608.59.187.93.187zM465.451 94.42c-.071.114-.146.194-.224.24-.079.046-.179.069-.299.069-.128 0-.266-.035-.411-.106l-.507-.24c-.191-.089-.41-.169-.656-.24-.245-.071-.535-.107-.869-.107-.52 0-.928.11-1.227.331-.299.221-.448.509-.448.864 0 .235.076.432.229.592.152.16.355.3.607.421.253.121.539.229.859.325.32.096.646.201.981.315.334.114.661.244.981.389.32.146.606.331.858.555.253.224.455.493.608.806s.229.69.229 1.131c0 .526-.096 1.012-.288 1.456-.192.445-.473.829-.843 1.152-.37.324-.827.576-1.371.757-.544.182-1.168.272-1.872.272-.377 0-.745-.034-1.104-.102-.359-.068-.704-.162-1.034-.283-.331-.121-.637-.263-.918-.427s-.528-.341-.741-.533l.608-1.003c.078-.121.17-.213.277-.277.106-.064.241-.096.405-.096.163 0 .318.046.464.139l.507.299c.191.106.418.207.678.299.259.092.588.139.986.139.312 0 .581-.038.806-.112.224-.075.409-.172.555-.293.146-.121.252-.261.32-.421.067-.16.101-.325.101-.496 0-.256-.076-.465-.229-.629-.153-.164-.356-.306-.608-.427-.253-.121-.541-.229-.864-.325-.324-.096-.654-.201-.992-.315-.338-.113-.669-.247-.992-.4s-.611-.347-.864-.582c-.252-.234-.455-.522-.608-.864-.152-.342-.229-.754-.229-1.238 0-.448.089-.875.267-1.28s.438-.759.784-1.062c.345-.302.774-.544 1.29-.726.516-.181 1.111-.272 1.787-.272.754 0 1.44.125 2.06.374.618.249 1.134.576 1.547.981l-.596.95zM362.156 128.836h-1.185c-.249 0-.444-.037-.586-.112-.143-.075-.249-.226-.32-.454l-.235-.779c-.277.249-.549.468-.816.656s-.542.347-.827.475c-.285.128-.587.224-.907.288-.32.064-.676.096-1.067.096-.462 0-.889-.062-1.28-.188s-.728-.312-1.008-.562c-.281-.25-.5-.56-.656-.931-.156-.371-.234-.803-.234-1.295 0-.414.108-.822.325-1.226.217-.403.578-.767 1.083-1.092.505-.325 1.177-.594 2.016-.808.839-.214 1.881-.321 3.126-.321v-.645c0-.738-.155-1.285-.464-1.64-.31-.354-.759-.532-1.35-.532-.427 0-.783.05-1.067.149-.285.1-.532.212-.742.336l-.581.336c-.178.1-.374.149-.587.149-.178 0-.331-.046-.459-.139-.128-.093-.231-.207-.309-.342l-.48-.843c1.259-1.152 2.777-1.728 4.555-1.728.64 0 1.211.105 1.712.314.501.21.926.501 1.275.875.348.374.613.82.794 1.339.182.519.272 1.088.272 1.707v6.917zm-5.121-1.643c.27 0 .519-.024.747-.073.228-.049.443-.123.646-.221s.398-.219.587-.362.379-.313.571-.509v-1.832c-.768 0-1.41.048-1.926.145s-.93.22-1.243.371-.535.326-.667.526c-.131.201-.197.419-.197.655 0 .466.137.799.411 1s.63.3 1.071.3zM364.749 128.836v-10.946h1.611c.341 0 .565.16.672.48l.181.864c.22-.228.454-.434.699-.619.246-.185.505-.345.779-.48s.567-.238.88-.309.654-.107 1.024-.107c.598 0 1.127.102 1.59.304.462.203.848.487 1.157.854.31.366.544.804.704 1.312.16.509.24 1.069.24 1.681v6.966h-2.635v-6.966c0-.668-.155-1.186-.464-1.552-.31-.367-.773-.55-1.392-.55-.456 0-.882.104-1.28.31-.398.207-.775.487-1.131.843v7.916h-2.635zM384.581 128.836c-.341 0-.565-.16-.672-.48l-.213-1.056c-.228.256-.466.487-.714.693-.249.207-.518.384-.806.533s-.598.265-.928.347c-.331.082-.688.123-1.072.123-.597 0-1.145-.125-1.643-.374s-.927-.61-1.286-1.083-.637-1.058-.832-1.755c-.196-.697-.293-1.494-.293-2.39 0-.811.11-1.564.331-2.262.22-.697.537-1.302.95-1.813.412-.512.907-.912 1.483-1.2.576-.288 1.223-.432 1.941-.432.612 0 1.134.098 1.568.293.434.195.821.457 1.163.784v-5.782h2.635v15.854h-1.612zm-3.51-1.931c.547 0 1.013-.114 1.397-.341.384-.228.747-.551 1.088-.971v-4.908c-.298-.363-.624-.619-.976-.768s-.73-.224-1.136-.224c-.398 0-.759.075-1.083.224-.324.149-.598.375-.822.678-.224.302-.396.686-.517 1.152-.121.466-.182 1.016-.182 1.648 0 .64.052 1.183.155 1.627s.25.807.443 1.088c.192.281.427.483.704.608s.587.187.929.187zM393.627 128.836v-8.961l-.949-.149c-.207-.036-.372-.107-.496-.213-.125-.107-.187-.256-.187-.448v-1.078h1.632v-.811c0-.626.094-1.188.283-1.686s.459-.921.811-1.27.78-.615 1.286-.8c.505-.185 1.074-.277 1.707-.277.505 0 .974.068 1.408.203l-.054 1.323c-.014.207-.11.334-.288.384s-.384.075-.619.075c-.313 0-.592.034-.837.102-.245.067-.454.185-.624.352-.171.167-.301.388-.39.661-.089.274-.133.613-.133 1.019v.725h2.849v1.878h-2.763v8.972h-2.636zM403.047 117.891v6.956c0 .669.155 1.186.464 1.552.31.367.773.55 1.393.55.455 0 .882-.102 1.28-.304.398-.203.775-.482 1.131-.837v-7.916h2.635v10.946h-1.611c-.341 0-.565-.16-.672-.48l-.181-.875c-.228.228-.462.436-.704.624-.242.188-.5.349-.773.48-.274.131-.569.234-.886.309s-.656.112-1.019.112c-.598 0-1.125-.102-1.584-.304-.458-.203-.844-.489-1.157-.859-.313-.37-.549-.809-.709-1.317-.16-.509-.24-1.069-.24-1.681v-6.956h2.633zM412.766 128.836v-10.946h1.611c.341 0 .565.16.672.48l.181.864c.22-.228.454-.434.699-.619.246-.185.505-.345.779-.48s.567-.238.88-.309.654-.107 1.024-.107c.598 0 1.127.102 1.59.304.462.203.848.487 1.157.854.31.366.544.804.704 1.312.16.509.24 1.069.24 1.681v6.966h-2.635v-6.966c0-.668-.155-1.186-.464-1.552-.31-.367-.773-.55-1.392-.55-.456 0-.882.104-1.28.31-.398.207-.775.487-1.131.843v7.916h-2.635zM432.598 128.836c-.34 0-.564-.16-.672-.48l-.213-1.056c-.227.256-.465.487-.715.693-.248.207-.518.384-.805.533-.289.149-.598.265-.928.347-.332.082-.689.123-1.072.123-.598 0-1.146-.125-1.645-.374-.497-.249-.926-.61-1.285-1.083-.359-.473-.637-1.058-.832-1.755-.196-.697-.293-1.494-.293-2.39 0-.811.11-1.564.331-2.262.22-.697.537-1.302.95-1.813.412-.512.907-.912 1.483-1.2s1.223-.432 1.941-.432c.611 0 1.135.098 1.568.293.434.195.82.457 1.162.784v-5.782h2.635v15.854h-1.61zm-3.51-1.931c.549 0 1.014-.114 1.398-.341s.746-.551 1.088-.971v-4.908c-.299-.363-.623-.619-.977-.768-.352-.149-.73-.224-1.135-.224-.398 0-.76.075-1.084.224s-.598.375-.82.678c-.225.302-.396.686-.518 1.152s-.182 1.016-.182 1.648c0 .64.051 1.183.154 1.627s.25.807.443 1.088c.191.281.426.483.703.608s.59.187.93.187zM443.555 120.024c-.071.114-.146.194-.224.24-.079.046-.179.069-.299.069-.128 0-.266-.035-.411-.106l-.507-.24c-.191-.089-.41-.169-.656-.24-.245-.071-.535-.107-.869-.107-.52 0-.928.11-1.227.331-.299.221-.448.509-.448.864 0 .235.076.432.229.592.152.16.355.3.607.421.253.121.539.229.859.325.32.096.646.201.981.315.334.114.661.244.981.389.32.146.606.331.858.555.253.224.455.493.608.806s.229.69.229 1.131c0 .526-.096 1.012-.288 1.456-.192.445-.473.829-.843 1.152-.37.324-.827.576-1.371.757-.544.182-1.168.272-1.872.272-.377 0-.745-.034-1.104-.102-.359-.068-.704-.162-1.034-.283-.331-.121-.637-.263-.918-.427s-.528-.341-.741-.533l.608-1.003c.078-.121.17-.213.277-.277.106-.064.241-.096.405-.096.163 0 .318.046.464.139l.507.299c.191.106.418.207.678.299.259.092.588.139.986.139.312 0 .581-.038.806-.112.224-.075.409-.172.555-.293.146-.121.252-.261.32-.421.067-.16.101-.325.101-.496 0-.256-.076-.465-.229-.629-.153-.164-.356-.306-.608-.427-.253-.121-.541-.229-.864-.325-.324-.096-.654-.201-.992-.315-.338-.113-.669-.247-.992-.4s-.611-.347-.864-.582c-.252-.234-.455-.522-.608-.864-.152-.342-.229-.754-.229-1.238 0-.448.089-.875.267-1.28s.438-.759.784-1.062c.345-.302.774-.544 1.29-.726.516-.181 1.111-.272 1.787-.272.754 0 1.44.125 2.06.374.618.249 1.134.576 1.547.981l-.596.95z"/></g><g fill="#5E7E53"><path d="M370.25 41.037c1.354 0 2.593.2 3.718.599 1.124.4 2.085.965 2.885 1.696.799.731 1.422 1.612 1.869 2.641s.67 2.173.67 3.433c0 1.083-.159 2.085-.478 3.006-.318.921-.745 1.801-1.28 2.641s-1.161 1.652-1.879 2.438c-.718.786-1.47 1.584-2.255 2.397l-6.623 6.765c.65-.19 1.287-.335 1.91-.437.623-.102 1.219-.152 1.788-.152h7.537c.542 0 .972.152 1.29.457.318.305.478.708.478 1.209v3.006h-20.152v-1.666c0-.338.071-.69.213-1.056.142-.366.369-.704.68-1.016l8.918-8.938c.745-.758 1.412-1.483 2.001-2.174.589-.69 1.083-1.374 1.483-2.052.399-.677.704-1.364.914-2.062.21-.698.315-1.433.315-2.204 0-.704-.102-1.324-.305-1.859s-.495-.985-.874-1.351-.83-.64-1.351-.823c-.521-.183-1.107-.274-1.757-.274-1.206 0-2.197.305-2.976.915s-1.324 1.429-1.635 2.458c-.149.515-.373.884-.67 1.107-.298.224-.677.335-1.138.335-.203 0-.426-.021-.67-.061l-2.641-.467c.203-1.408.596-2.644 1.178-3.708.582-1.063 1.31-1.95 2.184-2.661s1.875-1.246 3.007-1.605c1.131-.357 2.347-.537 3.646-.537zM400.722 59.666h3.697v2.905c0 .271-.088.505-.264.701-.176.197-.434.295-.772.295h-2.661v7.171h-4.388v-7.171h-12.392c-.339 0-.637-.105-.894-.315s-.42-.471-.487-.782l-.508-2.539 13.915-18.588h4.754v18.323zm-4.389-9.609c0-.433.014-.9.041-1.402.027-.5.075-1.022.143-1.564l-9.121 12.575h8.938v-9.609zM419.958 48.472c0 1.11-.187 2.113-.559 3.006-.373.894-.87 1.656-1.493 2.286s-1.348 1.114-2.173 1.452c-.827.339-1.687.508-2.58.508-.975 0-1.876-.169-2.702-.508-.827-.338-1.541-.822-2.144-1.452s-1.073-1.392-1.412-2.286c-.339-.894-.508-1.896-.508-3.006 0-1.138.169-2.167.508-3.088.338-.921.809-1.699 1.412-2.336s1.317-1.127 2.144-1.473c.826-.345 1.727-.518 2.702-.518s1.879.173 2.712.518c.833.346 1.554.836 2.164 1.473s1.083 1.415 1.422 2.336c.338.922.507 1.95.507 3.088zm9.771-6.318c.163-.203.366-.386.609-.548.244-.163.582-.244 1.016-.244h3.637l-21.818 28.624c-.162.217-.369.396-.619.538-.251.142-.552.213-.904.213h-3.738l21.817-28.583zm-13.65 6.318c0-.785-.075-1.442-.224-1.971-.149-.528-.355-.955-.62-1.28-.264-.325-.576-.559-.935-.701s-.741-.213-1.147-.213-.786.071-1.138.213c-.353.142-.657.376-.914.701-.257.325-.457.752-.599 1.28-.143.528-.213 1.186-.213 1.971 0 .759.071 1.392.213 1.899.142.508.342.917.599 1.229.257.312.562.535.914.67s.731.203 1.138.203.789-.068 1.147-.203.67-.359.935-.67.471-.721.62-1.229.224-1.14.224-1.899zm20.456 15.358c0 1.11-.187 2.112-.559 3.006-.373.894-.87 1.656-1.493 2.285-.623.63-1.348 1.118-2.174 1.463s-1.686.518-2.58.518c-.975 0-1.876-.173-2.701-.518-.826-.345-1.541-.833-2.144-1.463-.603-.629-1.074-1.391-1.412-2.285-.339-.894-.508-1.896-.508-3.006 0-1.138.169-2.167.508-3.088.338-.921.809-1.7 1.412-2.336.603-.636 1.317-1.127 2.144-1.473.825-.345 1.727-.518 2.701-.518.976 0 1.879.173 2.712.518s1.555.836 2.164 1.473c.609.637 1.083 1.416 1.422 2.336.338.921.508 1.95.508 3.088zm-3.86 0c0-.786-.077-1.442-.233-1.971-.155-.528-.365-.955-.63-1.28-.264-.325-.575-.559-.934-.701-.359-.143-.742-.213-1.148-.213s-.785.071-1.138.213c-.352.142-.653.375-.903.701-.251.325-.451.751-.6 1.28-.149.528-.224 1.185-.224 1.971 0 .758.074 1.395.224 1.909.148.515.349.928.6 1.239.25.312.552.535.903.67.353.136.731.203 1.138.203s.789-.067 1.148-.203c.358-.135.67-.358.934-.67.265-.311.475-.724.63-1.239.156-.514.233-1.151.233-1.909z"/></g><g fill="#0E5461"><path d="M677.304 98.02c.156 0 .291.061.405.182l1.131 1.227c-.626.775-1.396 1.369-2.31 1.781-.914.413-2.011.619-3.291.619-1.146 0-2.175-.196-3.089-.587s-1.694-.935-2.342-1.632c-.647-.697-1.144-1.529-1.488-2.497-.345-.967-.518-2.023-.518-3.168 0-1.159.192-2.221.576-3.185.385-.963.925-1.794 1.622-2.491.696-.697 1.53-1.239 2.502-1.627.971-.387 2.043-.581 3.216-.581 1.146 0 2.146.183 3.003.549.857.366 1.592.852 2.203 1.456l-.96 1.333c-.057.085-.13.16-.219.224s-.212.096-.368.096c-.163 0-.33-.064-.501-.192-.171-.128-.388-.267-.651-.417-.263-.149-.596-.288-.997-.416s-.912-.192-1.531-.192c-.725 0-1.392.126-2 .379s-1.131.613-1.568 1.083c-.438.47-.778 1.041-1.024 1.712-.245.672-.367 1.428-.367 2.267 0 .868.122 1.64.367 2.315.246.676.578 1.245.998 1.707.419.462.914.816 1.482 1.062.569.246 1.181.368 1.835.368.392 0 .745-.021 1.062-.064s.608-.11.875-.203.52-.211.758-.357.475-.326.709-.539l.225-.154c.077-.038.162-.058.255-.058zM685.528 90.542c.817 0 1.56.132 2.225.395s1.231.636 1.701 1.12.832 1.074 1.088 1.771c.257.697.385 1.476.385 2.336 0 .868-.128 1.65-.385 2.347-.256.697-.618 1.291-1.088 1.781s-1.036.868-1.701 1.131-1.407.395-2.225.395c-.818 0-1.562-.132-2.229-.395-.669-.263-1.239-.64-1.713-1.131-.473-.491-.839-1.084-1.099-1.781-.26-.697-.39-1.479-.39-2.347 0-.861.13-1.64.39-2.336.26-.697.626-1.287 1.099-1.771.474-.484 1.044-.857 1.713-1.12.668-.264 1.411-.395 2.229-.395zm0 9.249c.91 0 1.584-.306 2.021-.917.438-.611.656-1.507.656-2.688 0-1.18-.219-2.08-.656-2.699-.438-.619-1.111-.928-2.021-.928-.925 0-1.607.311-2.049.934-.44.622-.661 1.52-.661 2.693 0 1.174.221 2.068.661 2.683.442.615 1.125.922 2.049.922zM692.985 101.658v-10.946h1.547c.271 0 .459.05.565.149s.178.27.214.512l.159 1.323c.392-.676.851-1.209 1.377-1.601.526-.391 1.116-.586 1.771-.586.541 0 .988.125 1.345.373l-.342 1.974c-.021.128-.067.218-.139.272-.071.053-.167.08-.288.08-.106 0-.253-.025-.438-.075s-.431-.075-.736-.075c-.548 0-1.017.151-1.408.453-.391.303-.722.745-.992 1.328v6.817h-2.635zM701.701 101.658v-10.946h1.547c.271 0 .459.05.565.149s.178.27.214.512l.159 1.323c.392-.676.851-1.209 1.377-1.601.526-.391 1.116-.586 1.771-.586.541 0 .988.125 1.345.373l-.342 1.974c-.021.128-.067.218-.139.272-.071.053-.167.08-.288.08-.106 0-.253-.025-.438-.075s-.431-.075-.736-.075c-.548 0-1.017.151-1.408.453-.391.303-.722.745-.992 1.328v6.817h-2.635zM712.828 90.712v6.956c0 .669.154 1.186.464 1.552.31.367.773.55 1.393.55.455 0 .882-.102 1.28-.304s.774-.482 1.131-.837v-7.916h2.635v10.946h-1.611c-.341 0-.565-.16-.672-.48l-.181-.875c-.229.228-.463.436-.705.624-.241.188-.499.349-.773.48-.273.131-.568.234-.885.309s-.656.112-1.02.112c-.597 0-1.125-.102-1.584-.304s-.845-.489-1.157-.859c-.313-.37-.55-.809-.71-1.317-.159-.509-.239-1.069-.239-1.681v-6.956h2.634zM722.547 105.232v-14.52h1.611c.17 0 .316.039.438.117.12.079.198.199.234.363l.213 1.014c.441-.505.948-.914 1.521-1.227s1.243-.469 2.011-.469c.598 0 1.144.125 1.638.373.494.249.921.61 1.28 1.083s.637 1.056.832 1.75c.195.694.294 1.488.294 2.385 0 .818-.11 1.575-.331 2.272-.221.697-.535 1.302-.944 1.814s-.903.912-1.482 1.2c-.58.288-1.229.432-1.947.432-.619 0-1.144-.094-1.573-.283-.431-.188-.816-.45-1.158-.784v4.48h-2.637zm5.121-12.642c-.548 0-1.016.116-1.403.347-.388.231-.748.557-1.083.977v4.907c.299.37.624.628.977.773.352.146.73.219 1.136.219.398 0 .76-.075 1.083-.224.324-.149.598-.377.821-.683.225-.306.396-.691.518-1.158.121-.466.182-1.015.182-1.648 0-.64-.052-1.183-.154-1.627-.104-.444-.251-.806-.443-1.083-.191-.277-.425-.48-.698-.608-.277-.128-.588-.192-.936-.192zM738.208 101.829c-.946 0-1.676-.269-2.188-.806s-.769-1.278-.769-2.225v-6.113h-1.109c-.142 0-.265-.046-.368-.139-.103-.092-.154-.231-.154-.416v-1.045l1.761-.288.555-2.987c.028-.142.094-.252.197-.331.103-.079.232-.118.389-.118h1.366v3.446h2.88v1.878h-2.88v5.932c0 .341.085.608.256.8.171.192.398.288.683.288.164 0 .301-.02.411-.059l.288-.123.219-.123.191-.059c.078 0 .143.02.192.059l.16.176.789 1.28c-.384.32-.825.562-1.322.726-.498.165-1.014.247-1.547.247zM746.069 87.522c0 .228-.046.441-.139.64-.092.199-.215.374-.368.523-.152.149-.332.269-.538.357-.207.089-.427.134-.662.134-.228 0-.442-.044-.645-.134-.203-.088-.379-.208-.528-.357-.149-.149-.269-.324-.357-.523s-.134-.413-.134-.64c0-.235.045-.455.134-.662.089-.206.208-.384.357-.533s.325-.269.528-.357c.202-.089.417-.133.645-.133.235 0 .455.044.662.133.206.089.386.208.538.357.153.149.276.327.368.533.093.207.139.428.139.662zm-.394 3.19v10.946h-2.635v-10.946h2.635zM753.324 90.542c.817 0 1.56.132 2.225.395s1.231.636 1.701 1.12.832 1.074 1.088 1.771c.257.697.385 1.476.385 2.336 0 .868-.128 1.65-.385 2.347-.256.697-.618 1.291-1.088 1.781s-1.036.868-1.701 1.131-1.407.395-2.225.395c-.818 0-1.562-.132-2.229-.395-.669-.263-1.239-.64-1.713-1.131-.473-.491-.839-1.084-1.099-1.781-.26-.697-.39-1.479-.39-2.347 0-.861.13-1.64.39-2.336.26-.697.626-1.287 1.099-1.771.474-.484 1.044-.857 1.713-1.12.668-.264 1.411-.395 2.229-.395zm0 9.249c.91 0 1.584-.306 2.021-.917.438-.611.656-1.507.656-2.688 0-1.18-.219-2.08-.656-2.699-.438-.619-1.111-.928-2.021-.928-.925 0-1.607.311-2.049.934-.44.622-.661 1.52-.661 2.693 0 1.174.221 2.068.661 2.683.442.615 1.124.922 2.049.922zM760.781 101.658v-10.946h1.611c.341 0 .565.16.672.48l.182.864c.22-.228.453-.434.698-.619s.505-.345.779-.48c.273-.135.566-.238.88-.309.312-.071.654-.107 1.024-.107.597 0 1.127.102 1.589.304.463.203.849.487 1.158.854.309.366.544.804.704 1.312.16.509.239 1.069.239 1.681v6.966h-2.635v-6.966c0-.668-.154-1.186-.464-1.552-.31-.367-.773-.55-1.393-.55-.455 0-.882.104-1.28.31-.398.207-.775.487-1.131.843v7.916h-2.633zM780.229 87.522c0 .228-.046.441-.139.64-.092.199-.215.374-.368.523-.152.149-.332.269-.538.357-.207.089-.427.134-.662.134-.228 0-.442-.044-.645-.134-.203-.088-.379-.208-.528-.357-.149-.149-.269-.324-.357-.523s-.134-.413-.134-.64c0-.235.045-.455.134-.662.089-.206.208-.384.357-.533s.325-.269.528-.357c.202-.089.417-.133.645-.133.235 0 .455.044.662.133.206.089.386.208.538.357.153.149.276.327.368.533.094.207.139.428.139.662zm-.394 3.19v10.946h-2.635v-10.946h2.635zM782.812 101.658v-10.946h1.611c.341 0 .565.16.672.48l.182.864c.22-.228.453-.434.698-.619s.505-.345.779-.48c.273-.135.566-.238.88-.309.312-.071.654-.107 1.024-.107.597 0 1.127.102 1.589.304.463.203.849.487 1.158.854.309.366.544.804.704 1.312.16.509.239 1.069.239 1.681v6.966h-2.635v-6.966c0-.668-.154-1.186-.464-1.552-.31-.367-.773-.55-1.393-.55-.455 0-.882.104-1.28.31-.398.207-.775.487-1.131.843v7.916h-2.633zM619.204 130.836v-14.52h1.611c.17 0 .316.039.438.117.12.079.198.199.234.363l.213 1.014c.441-.505.948-.914 1.521-1.227s1.243-.469 2.011-.469c.598 0 1.144.125 1.638.373.494.249.921.61 1.28 1.083s.637 1.056.832 1.75c.195.694.294 1.488.294 2.385 0 .818-.11 1.575-.331 2.272-.221.697-.535 1.302-.944 1.814s-.903.912-1.482 1.2c-.58.288-1.229.432-1.947.432-.619 0-1.144-.094-1.573-.283-.431-.188-.816-.45-1.158-.784v4.48h-2.637zm5.121-12.642c-.548 0-1.016.116-1.403.347-.388.231-.748.557-1.083.977v4.907c.299.37.624.628.977.773.352.146.73.219 1.136.219.398 0 .76-.075 1.083-.224.324-.149.598-.377.821-.683.225-.306.396-.691.518-1.158.121-.466.182-1.015.182-1.648 0-.64-.052-1.183-.154-1.627-.104-.444-.251-.806-.443-1.083-.191-.277-.425-.48-.698-.608-.277-.128-.588-.192-.936-.192zM631.27 127.262v-10.946h1.547c.271 0 .459.05.565.149s.178.27.214.512l.159 1.323c.392-.676.851-1.209 1.377-1.601.526-.391 1.116-.586 1.771-.586.541 0 .988.125 1.345.373l-.342 1.974c-.021.128-.067.218-.139.272-.071.053-.167.08-.288.08-.106 0-.253-.025-.438-.075s-.431-.075-.736-.075c-.548 0-1.017.151-1.408.453-.391.303-.722.745-.992 1.328v6.817h-2.635zM644.658 116.146c.817 0 1.56.132 2.225.395s1.231.636 1.701 1.12.832 1.074 1.088 1.771c.257.697.385 1.476.385 2.336 0 .868-.128 1.65-.385 2.347-.256.697-.618 1.291-1.088 1.781s-1.036.868-1.701 1.131-1.407.395-2.225.395c-.818 0-1.562-.132-2.229-.395-.669-.263-1.239-.64-1.713-1.131-.473-.491-.839-1.084-1.099-1.781-.26-.697-.39-1.479-.39-2.347 0-.861.13-1.64.39-2.336.26-.697.626-1.287 1.099-1.771.474-.484 1.044-.857 1.713-1.12.668-.264 1.411-.395 2.229-.395zm0 9.249c.91 0 1.584-.306 2.021-.917.438-.611.656-1.507.656-2.688 0-1.18-.219-2.08-.656-2.699-.438-.619-1.111-.928-2.021-.928-.925 0-1.607.311-2.049.934-.44.622-.661 1.52-.661 2.693 0 1.174.221 2.068.661 2.683.442.615 1.124.922 2.049.922zM659.808 118.631c-.079.1-.155.178-.229.235-.075.057-.184.085-.326.085-.135 0-.267-.041-.395-.123l-.458-.277c-.179-.103-.39-.195-.635-.277-.246-.082-.55-.123-.913-.123-.462 0-.867.083-1.216.25-.349.167-.639.407-.869.72-.231.313-.404.692-.518 1.136-.114.445-.171.948-.171 1.51 0 .583.062 1.103.187 1.558.125.455.305.837.539 1.146.234.31.52.544.854.705.334.16.711.24 1.131.24s.759-.051 1.019-.155c.26-.103.479-.217.656-.341l.464-.341s.279-.155.443-.155c.213 0 .373.082.479.246l.758.96c-.292.341-.608.628-.949.859-.342.231-.695.416-1.062.555-.367.139-.745.236-1.137.293-.391.057-.778.085-1.163.085-.676 0-1.312-.126-1.909-.379s-1.118-.621-1.563-1.104c-.444-.484-.796-1.076-1.056-1.776s-.39-1.499-.39-2.395c0-.804.116-1.549.347-2.235.231-.686.571-1.28 1.02-1.781.447-.501 1.002-.895 1.664-1.179.661-.284 1.422-.427 2.283-.427.817 0 1.534.132 2.149.395s1.168.64 1.659 1.131l-.693.959zM664.704 116.316v6.956c0 .669.154 1.186.464 1.552.31.367.773.55 1.393.55.455 0 .882-.102 1.28-.304s.774-.482 1.131-.837v-7.916h2.635v10.946h-1.611c-.341 0-.565-.16-.672-.48l-.181-.875c-.229.228-.463.436-.705.624-.241.188-.499.349-.773.48-.273.131-.568.234-.885.309s-.656.112-1.02.112c-.597 0-1.125-.102-1.584-.304s-.845-.489-1.157-.859c-.313-.37-.55-.809-.71-1.317-.159-.509-.239-1.069-.239-1.681v-6.956h2.634zM674.423 127.262v-10.946h1.547c.271 0 .459.05.565.149s.178.27.214.512l.159 1.323c.392-.676.851-1.209 1.377-1.601.526-.391 1.116-.586 1.771-.586.541 0 .988.125 1.345.373l-.342 1.974c-.021.128-.067.218-.139.272-.071.053-.167.08-.288.08-.106 0-.253-.025-.438-.075s-.431-.075-.736-.075c-.548 0-1.017.151-1.408.453-.391.303-.722.745-.992 1.328v6.817h-2.635zM687.662 116.146c.689 0 1.324.11 1.904.331.579.22 1.079.542 1.499.965s.747.942.981 1.558.352 1.317.352 2.107c0 .199-.009.365-.026.496-.018.132-.05.235-.096.31-.047.075-.108.128-.187.16s-.179.048-.299.048h-6.764c.078 1.124.38 1.949.906 2.475s1.224.79 2.091.79c.427 0 .795-.05 1.104-.149s.58-.21.811-.331l.608-.331c.174-.1.343-.149.507-.149.106 0 .199.021.277.064.078.043.146.104.203.182l.768.96c-.292.341-.619.628-.981.859s-.741.416-1.136.555c-.396.139-.797.236-1.206.293-.409.057-.806.085-1.189.085-.761 0-1.469-.126-2.123-.379s-1.224-.625-1.707-1.12c-.483-.494-.864-1.106-1.142-1.835s-.416-1.574-.416-2.534c0-.747.121-1.449.363-2.107.241-.658.588-1.23 1.04-1.718.451-.487 1.003-.873 1.653-1.158.652-.285 1.387-.427 2.205-.427zm.054 1.888c-.769 0-1.369.217-1.804.65-.434.434-.711 1.049-.832 1.846h4.95c0-.341-.046-.663-.139-.965s-.234-.567-.427-.795c-.191-.228-.434-.407-.726-.539-.29-.131-.632-.197-1.022-.197zM694.543 127.262v-10.946h1.611c.341 0 .565.16.672.48l.171.811c.191-.213.393-.409.603-.587s.434-.331.672-.459c.238-.128.494-.229.769-.304.273-.075.574-.112.901-.112.689 0 1.257.187 1.701.56.444.374.777.87.998 1.488.17-.363.384-.674.64-.934.256-.259.537-.471.843-.635.306-.163.631-.284.977-.362.345-.079.691-.118 1.04-.118.604 0 1.142.093 1.61.277.47.185.864.456 1.185.811s.563.79.73 1.301c.167.512.251 1.099.251 1.761v6.966h-2.635v-6.966c0-.697-.153-1.222-.459-1.574s-.754-.528-1.344-.528c-.271 0-.521.046-.753.139-.23.093-.434.226-.607.4-.175.174-.312.393-.411.656-.1.263-.149.565-.149.907v6.966h-2.646v-6.966c0-.733-.147-1.266-.442-1.601-.296-.334-.731-.501-1.308-.501-.377 0-.73.095-1.062.283-.33.188-.638.447-.923.773v8.012h-2.635zM717.032 116.146c.689 0 1.324.11 1.904.331.579.22 1.079.542 1.499.965s.747.942.981 1.558.352 1.317.352 2.107c0 .199-.009.365-.026.496-.018.132-.05.235-.096.31-.047.075-.108.128-.187.16s-.179.048-.299.048h-6.764c.078 1.124.38 1.949.906 2.475s1.224.79 2.091.79c.427 0 .795-.05 1.104-.149s.58-.21.811-.331l.608-.331c.174-.1.343-.149.507-.149.106 0 .199.021.277.064.078.043.146.104.203.182l.768.96c-.292.341-.619.628-.981.859s-.741.416-1.136.555c-.396.139-.797.236-1.206.293-.409.057-.806.085-1.189.085-.761 0-1.469-.126-2.123-.379s-1.224-.625-1.707-1.12c-.483-.494-.864-1.106-1.142-1.835s-.416-1.574-.416-2.534c0-.747.121-1.449.363-2.107.241-.658.588-1.23 1.04-1.718.451-.487 1.003-.873 1.653-1.158.652-.285 1.387-.427 2.205-.427zm.054 1.888c-.769 0-1.369.217-1.804.65-.434.434-.711 1.049-.832 1.846h4.95c0-.341-.046-.663-.139-.965s-.234-.567-.427-.795c-.191-.228-.434-.407-.726-.539-.29-.131-.631-.197-1.022-.197zM723.913 127.262v-10.946h1.611c.341 0 .565.16.672.48l.182.864c.22-.228.453-.434.698-.619s.505-.345.779-.48c.273-.135.566-.238.88-.309.312-.071.654-.107 1.024-.107.597 0 1.127.102 1.589.304.463.203.849.487 1.158.854.309.366.544.804.704 1.312.16.509.239 1.069.239 1.681v6.966h-2.635v-6.966c0-.668-.154-1.186-.464-1.552-.31-.367-.773-.55-1.393-.55-.455 0-.882.104-1.28.31-.398.207-.775.487-1.131.843v7.916h-2.633zM739.639 127.433c-.946 0-1.676-.269-2.188-.806s-.769-1.278-.769-2.225v-6.113h-1.109c-.142 0-.265-.046-.368-.139-.103-.092-.154-.231-.154-.416v-1.045l1.761-.288.555-2.987c.028-.142.094-.252.197-.331.103-.079.232-.118.389-.118h1.366v3.446h2.88v1.878h-2.88v5.932c0 .341.085.608.256.8.171.192.398.288.683.288.164 0 .301-.02.411-.059l.288-.123.219-.123.191-.059c.078 0 .143.02.192.059l.16.176.789 1.28c-.384.32-.825.562-1.322.726-.498.165-1.014.247-1.547.247zM748.418 130.836v-14.52h1.611c.17 0 .316.039.438.117.12.079.198.199.234.363l.213 1.014c.441-.505.948-.914 1.521-1.227s1.243-.469 2.011-.469c.598 0 1.144.125 1.638.373.494.249.921.61 1.28 1.083s.637 1.056.832 1.75c.195.694.294 1.488.294 2.385 0 .818-.11 1.575-.331 2.272-.221.697-.535 1.302-.944 1.814s-.903.912-1.482 1.2c-.58.288-1.229.432-1.947.432-.619 0-1.144-.094-1.573-.283-.431-.188-.816-.45-1.158-.784v4.48h-2.637zm5.121-12.642c-.548 0-1.016.116-1.403.347-.388.231-.748.557-1.083.977v4.907c.299.37.624.628.977.773.352.146.73.219 1.136.219.398 0 .76-.075 1.083-.224.324-.149.598-.377.821-.683.225-.306.396-.691.518-1.158.121-.466.182-1.015.182-1.648 0-.64-.052-1.183-.154-1.627-.104-.444-.251-.806-.443-1.083-.191-.277-.425-.48-.698-.608-.277-.128-.588-.192-.936-.192zM760.483 127.262v-10.946h1.547c.271 0 .459.05.565.149s.178.27.214.512l.159 1.323c.392-.676.851-1.209 1.377-1.601.526-.391 1.116-.586 1.771-.586.541 0 .988.125 1.345.373l-.342 1.974c-.021.128-.067.218-.139.272-.071.053-.167.08-.288.08-.106 0-.253-.025-.438-.075s-.431-.075-.736-.075c-.548 0-1.017.151-1.408.453-.391.303-.722.745-.992 1.328v6.817h-2.635zM773.872 116.146c.817 0 1.56.132 2.225.395s1.231.636 1.701 1.12.832 1.074 1.088 1.771c.257.697.385 1.476.385 2.336 0 .868-.128 1.65-.385 2.347-.256.697-.618 1.291-1.088 1.781s-1.036.868-1.701 1.131-1.407.395-2.225.395c-.818 0-1.562-.132-2.229-.395-.669-.263-1.239-.64-1.713-1.131-.473-.491-.839-1.084-1.099-1.781-.26-.697-.39-1.479-.39-2.347 0-.861.13-1.64.39-2.336.26-.697.626-1.287 1.099-1.771.474-.484 1.044-.857 1.713-1.12.668-.264 1.411-.395 2.229-.395zm0 9.249c.91 0 1.584-.306 2.021-.917.438-.611.656-1.507.656-2.688 0-1.18-.219-2.08-.656-2.699-.438-.619-1.111-.928-2.021-.928-.925 0-1.607.311-2.049.934-.44.622-.661 1.52-.661 2.693 0 1.174.221 2.068.661 2.683.442.615 1.124.922 2.049.922zM789.021 118.631c-.079.1-.155.178-.229.235-.075.057-.184.085-.326.085-.135 0-.267-.041-.395-.123l-.458-.277c-.179-.103-.39-.195-.635-.277-.246-.082-.55-.123-.913-.123-.462 0-.867.083-1.216.25-.349.167-.639.407-.869.72-.231.313-.404.692-.518 1.136-.114.445-.171.948-.171 1.51 0 .583.062 1.103.187 1.558.125.455.305.837.539 1.146.234.31.52.544.854.705.334.16.711.24 1.131.24s.759-.051 1.019-.155c.26-.103.479-.217.656-.341l.464-.341s.279-.155.443-.155c.213 0 .373.082.479.246l.758.96c-.292.341-.608.628-.949.859-.342.231-.695.416-1.062.555-.367.139-.745.236-1.137.293-.391.057-.778.085-1.163.085-.676 0-1.312-.126-1.909-.379s-1.118-.621-1.563-1.104c-.444-.484-.796-1.076-1.056-1.776s-.39-1.499-.39-2.395c0-.804.116-1.549.347-2.235.231-.686.571-1.28 1.02-1.781.447-.501 1.002-.895 1.664-1.179.661-.284 1.422-.427 2.283-.427.817 0 1.534.132 2.149.395s1.168.64 1.659 1.131l-.693.959zM796.03 116.146c.689 0 1.324.11 1.904.331.579.22 1.079.542 1.499.965s.747.942.981 1.558.352 1.317.352 2.107c0 .199-.009.365-.026.496-.018.132-.05.235-.096.31-.047.075-.108.128-.187.16s-.179.048-.299.048h-6.764c.078 1.124.38 1.949.906 2.475s1.224.79 2.091.79c.427 0 .795-.05 1.104-.149s.58-.21.811-.331l.608-.331c.174-.1.343-.149.507-.149.106 0 .199.021.277.064.078.043.146.104.203.182l.768.96c-.292.341-.619.628-.981.859s-.741.416-1.136.555c-.396.139-.797.236-1.206.293-.409.057-.806.085-1.189.085-.761 0-1.469-.126-2.123-.379s-1.224-.625-1.707-1.12c-.483-.494-.864-1.106-1.142-1.835s-.416-1.574-.416-2.534c0-.747.121-1.449.363-2.107.241-.658.588-1.23 1.04-1.718.451-.487 1.003-.873 1.653-1.158.653-.285 1.387-.427 2.205-.427zm.054 1.888c-.769 0-1.369.217-1.804.65-.434.434-.711 1.049-.832 1.846h4.95c0-.341-.046-.663-.139-.965s-.234-.567-.427-.795c-.191-.228-.434-.407-.726-.539-.29-.131-.631-.197-1.022-.197zM809.408 118.45c-.071.114-.146.194-.224.24-.079.046-.179.069-.299.069-.128 0-.266-.035-.411-.106l-.507-.24c-.191-.089-.41-.169-.656-.24-.245-.071-.535-.107-.869-.107-.52 0-.928.11-1.227.331-.299.221-.448.509-.448.864 0 .235.076.432.229.592.152.16.355.3.607.421.253.121.539.229.859.325.32.096.646.201.981.315.334.114.661.244.981.389.32.146.606.331.858.555.253.224.455.493.608.806s.229.69.229 1.131c0 .526-.096 1.012-.288 1.456-.192.445-.473.829-.843 1.152-.37.324-.827.576-1.371.757-.544.182-1.168.272-1.872.272-.377 0-.745-.034-1.104-.102-.359-.068-.704-.162-1.034-.283-.331-.121-.637-.263-.918-.427s-.528-.341-.741-.533l.608-1.003c.078-.121.17-.213.277-.277.106-.064.241-.096.405-.096.163 0 .318.046.464.139l.507.299c.191.106.418.207.678.299.259.092.588.139.986.139.312 0 .581-.038.806-.112.224-.075.409-.172.555-.293.146-.121.252-.261.32-.421.067-.16.101-.325.101-.496 0-.256-.076-.465-.229-.629-.153-.164-.356-.306-.608-.427-.253-.121-.541-.229-.864-.325-.324-.096-.654-.201-.992-.315-.338-.113-.669-.247-.992-.4s-.611-.347-.864-.582c-.252-.234-.455-.522-.608-.864-.152-.342-.229-.754-.229-1.238 0-.448.089-.875.267-1.28s.438-.759.784-1.062c.345-.302.774-.544 1.29-.726.516-.181 1.111-.272 1.787-.272.754 0 1.44.125 2.06.374.618.249 1.134.576 1.547.981l-.596.95zM818.732 118.45c-.071.114-.146.194-.224.24-.079.046-.179.069-.299.069-.128 0-.266-.035-.411-.106l-.507-.24c-.191-.089-.41-.169-.656-.24-.245-.071-.535-.107-.869-.107-.52 0-.928.11-1.227.331-.299.221-.448.509-.448.864 0 .235.076.432.229.592.152.16.355.3.607.421.253.121.539.229.859.325.32.096.646.201.981.315.334.114.661.244.981.389.32.146.606.331.858.555.253.224.455.493.608.806s.229.69.229 1.131c0 .526-.096 1.012-.288 1.456-.192.445-.473.829-.843 1.152-.37.324-.827.576-1.371.757-.544.182-1.168.272-1.872.272-.377 0-.745-.034-1.104-.102-.359-.068-.704-.162-1.034-.283-.331-.121-.637-.263-.918-.427s-.528-.341-.741-.533l.608-1.003c.078-.121.17-.213.277-.277.106-.064.241-.096.405-.096.163 0 .318.046.464.139l.507.299c.191.106.418.207.678.299.259.092.588.139.986.139.312 0 .581-.038.806-.112.224-.075.409-.172.555-.293.146-.121.252-.261.32-.421.067-.16.101-.325.101-.496 0-.256-.076-.465-.229-.629-.153-.164-.356-.306-.608-.427-.253-.121-.541-.229-.864-.325-.324-.096-.654-.201-.992-.315-.338-.113-.669-.247-.992-.4s-.611-.347-.864-.582c-.252-.234-.455-.522-.608-.864-.152-.342-.229-.754-.229-1.238 0-.448.089-.875.267-1.28s.438-.759.784-1.062c.345-.302.774-.544 1.29-.726.516-.181 1.111-.272 1.787-.272.754 0 1.44.125 2.06.374.618.249 1.134.576 1.547.981l-.596.95zM826.083 116.146c.689 0 1.324.11 1.904.331.579.22 1.079.542 1.499.965s.747.942.981 1.558.352 1.317.352 2.107c0 .199-.009.365-.026.496-.018.132-.05.235-.096.31-.047.075-.108.128-.187.16s-.179.048-.299.048h-6.764c.078 1.124.38 1.949.906 2.475s1.224.79 2.091.79c.427 0 .795-.05 1.104-.149s.58-.21.811-.331l.608-.331c.174-.1.343-.149.507-.149.106 0 .199.021.277.064.078.043.146.104.203.182l.768.96c-.292.341-.619.628-.981.859s-.741.416-1.136.555c-.396.139-.797.236-1.206.293-.409.057-.806.085-1.189.085-.761 0-1.469-.126-2.123-.379s-1.224-.625-1.707-1.12c-.483-.494-.864-1.106-1.142-1.835s-.416-1.574-.416-2.534c0-.747.121-1.449.363-2.107.241-.658.588-1.23 1.04-1.718.451-.487 1.003-.873 1.653-1.158.652-.285 1.387-.427 2.205-.427zm.054 1.888c-.769 0-1.369.217-1.804.65-.434.434-.711 1.049-.832 1.846h4.95c0-.341-.046-.663-.139-.965s-.234-.567-.427-.795c-.191-.228-.434-.407-.726-.539-.29-.131-.632-.197-1.022-.197zM839.461 118.45c-.071.114-.146.194-.224.24-.079.046-.179.069-.299.069-.128 0-.266-.035-.411-.106l-.507-.24c-.191-.089-.41-.169-.656-.24-.245-.071-.535-.107-.869-.107-.52 0-.928.11-1.227.331-.299.221-.448.509-.448.864 0 .235.076.432.229.592.152.16.355.3.607.421.253.121.539.229.859.325.32.096.646.201.981.315.334.114.661.244.981.389.32.146.606.331.858.555.253.224.455.493.608.806s.229.69.229 1.131c0 .526-.096 1.012-.288 1.456-.192.445-.473.829-.843 1.152-.37.324-.827.576-1.371.757-.544.182-1.168.272-1.872.272-.377 0-.745-.034-1.104-.102-.359-.068-.704-.162-1.034-.283-.331-.121-.637-.263-.918-.427s-.528-.341-.741-.533l.608-1.003c.078-.121.17-.213.277-.277.106-.064.241-.096.405-.096.163 0 .318.046.464.139l.507.299c.191.106.418.207.678.299.259.092.588.139.986.139.312 0 .581-.038.806-.112.224-.075.409-.172.555-.293.146-.121.252-.261.32-.421.067-.16.101-.325.101-.496 0-.256-.076-.465-.229-.629-.153-.164-.356-.306-.608-.427-.253-.121-.541-.229-.864-.325-.324-.096-.654-.201-.992-.315-.338-.113-.669-.247-.992-.4s-.611-.347-.864-.582c-.252-.234-.455-.522-.608-.864-.152-.342-.229-.754-.229-1.238 0-.448.089-.875.267-1.28s.438-.759.784-1.062c.345-.302.774-.544 1.29-.726.516-.181 1.111-.272 1.787-.272.754 0 1.44.125 2.06.374.618.249 1.134.576 1.547.981l-.596.95z"/></g><g fill="#5E7E53"><path d="M689.239 69.747h4.467v-12.851c0-.498.015-1.021.045-1.57l-3.17 2.652c-.133.112-.268.188-.404.229-.138.041-.272.061-.404.061-.203 0-.389-.043-.556-.129-.168-.086-.293-.186-.374-.297l-1.188-1.631 6.722-5.716h3.095v19.253h3.964v2.82h-12.195v-2.821zM713.034 58.802c.834 0 1.645.137 2.432.412.788.274 1.481.688 2.081 1.242.6.554 1.082 1.242 1.448 2.065.365.823.549 1.784.549 2.881 0 1.026-.188 1.989-.564 2.889s-.904 1.685-1.585 2.355c-.681.671-1.502 1.199-2.462 1.585-.961.386-2.02.58-3.179.58-1.179 0-2.235-.188-3.171-.564-.935-.375-1.732-.901-2.393-1.578-.661-.676-1.166-1.489-1.517-2.439s-.526-2.004-.526-3.163c0-1.037.211-2.101.633-3.194.422-1.092 1.074-2.228 1.959-3.407l5.259-7.058c.183-.244.449-.452.801-.625.351-.172.754-.259 1.211-.259h3.354l-6.54 8.003-.404.488-.373.473c.427-.213.887-.381 1.38-.503.492-.122 1.028-.183 1.607-.183zm-5.273 6.844c0 .61.083 1.167.251 1.669s.417.933.747 1.288c.33.356.739.633 1.228.831.487.198 1.052.297 1.691.297.6 0 1.151-.102 1.654-.305s.935-.488 1.296-.854c.36-.366.643-.795.846-1.288.203-.493.305-1.029.305-1.608 0-.63-.097-1.197-.289-1.7-.193-.503-.468-.93-.823-1.281-.356-.351-.783-.617-1.281-.8-.498-.183-1.046-.274-1.646-.274-.601 0-1.144.102-1.632.305-.487.203-.906.485-1.257.846-.351.361-.62.788-.809 1.281-.188.494-.281 1.025-.281 1.593zM731.616 55.86c0 .833-.14 1.585-.419 2.256-.279.67-.653 1.242-1.12 1.715-.468.473-1.012.836-1.631 1.09-.62.254-1.266.381-1.937.381-.731 0-1.407-.127-2.027-.381-.62-.254-1.156-.617-1.608-1.09s-.806-1.044-1.06-1.715-.381-1.423-.381-2.256c0-.854.127-1.625.381-2.317.254-.691.607-1.275 1.06-1.753s.988-.846 1.608-1.105c.62-.259 1.296-.389 2.027-.389s1.41.13 2.035.389c.625.259 1.166.628 1.624 1.105.457.478.812 1.062 1.066 1.753.255.691.382 1.463.382 2.317zm7.333-4.741c.122-.152.274-.29.457-.412s.437-.183.762-.183h2.729l-16.372 21.479c-.122.163-.277.297-.465.404-.188.107-.414.16-.679.16h-2.805l16.373-21.448zm-10.244 4.741c0-.589-.056-1.082-.168-1.479-.111-.396-.267-.716-.465-.96s-.432-.419-.701-.526c-.27-.106-.557-.16-.861-.16s-.589.054-.854.16c-.265.107-.493.282-.686.526-.193.244-.344.564-.45.96s-.16.889-.16 1.479c0 .569.054 1.044.16 1.425.106.381.257.689.45.922.192.234.421.402.686.503.265.102.549.153.854.153s.592-.051.861-.153c.27-.101.503-.269.701-.503.198-.233.354-.541.465-.922.112-.381.168-.856.168-1.425zm15.351 11.524c0 .833-.14 1.585-.419 2.256-.28.671-.653 1.242-1.121 1.715-.467.473-1.011.838-1.631 1.098s-1.266.389-1.936.389c-.732 0-1.408-.129-2.027-.389-.62-.259-1.156-.625-1.608-1.098s-.806-1.044-1.06-1.715-.381-1.423-.381-2.256c0-.854.127-1.625.381-2.317.254-.691.607-1.275 1.06-1.753s.988-.846 1.608-1.105c.619-.259 1.295-.389 2.027-.389.731 0 1.41.13 2.035.389.625.259 1.166.628 1.623 1.105s.812 1.062 1.067 1.753c.255.692.382 1.464.382 2.317zm-2.897 0c0-.589-.059-1.082-.175-1.479-.117-.396-.274-.716-.473-.96-.198-.244-.433-.419-.701-.526-.27-.106-.557-.16-.861-.16-.306 0-.59.054-.854.16-.265.107-.491.282-.679.526-.188.244-.338.564-.45.96-.111.396-.167.89-.167 1.479 0 .569.056 1.047.167 1.433.112.386.262.696.45.93.188.234.414.402.679.503.264.102.548.152.854.152.305 0 .592-.051.861-.152.269-.102.503-.27.701-.503.198-.233.355-.543.473-.93.117-.386.175-.863.175-1.433z"/></g><g fill-rule="evenodd" clip-rule="evenodd"><path fill="#333" d="M115.568 258.552c5.43-2.511 10.889-4.967 16.286-7.554 4.078-1.96 8.271-3.741 11.168 1.367 2.936 5.179-.747 7.808-4.71 10.083-9.091 5.223-18.217 10.395-27.229 15.751-3.152 1.868-6.197 2.221-9.794 1.541-11.971-2.267-23.703-5.836-35.876-6.92-2.577-.229-2.627-1.423-2.621-3.256.018-5.998.08-11.995-.05-17.985-.052-2.581 1.044-3.777 3.406-4.621 5.017-1.8 9.884-2.349 14.984-.219 8.094 3.375 16.233 6.649 24.453 9.697 3.109 1.155 4.815 3.313 6.185 6.032.964 5.467-2.304 9.298-7.32 8.369-2.903-.535-5.679-1.642-8.603-2.432l.167.158c13.268 3.82 13.26 3.817 18.216-8.659.228-.575.847-.941 1.338-1.352zM59.91 266.287c-.821 5.084 2.826 12.86-1.471 16.932-3.911 3.709-11.478 1.092-17.416 1.111-12.33.037-11.271 1.999-11.289-11.255-.011-7.074.101-14.151-.064-21.223-.086-3.743 1.107-5.49 5.144-5.354 6.639.227 13.294.19 19.933-.01 3.905-.121 5.408 1.384 5.212 5.274-.222 4.494-.049 9.003-.049 14.525z"/><path fill="#FCFCFC" d="M115.568 258.552c-.128.171-.319.321-.378.511-4.289 14.933-5.734 15.625-21.295 10.07-1.322-.474-3.026-.432-3.674-2.617 4.068-1.348 7.309 1.187 10.746 2.161 7.193 2.036 9.014 1.082 10.803-6.208 1.685-.898.78-4.309 3.798-3.917zM55.431 253.416c-.137 2.08-1.09 3.411-3.174 3.292-1.997-.113-3.054-1.405-2.968-3.43.072-1.775 1.179-2.73 2.864-2.84 2.086-.131 3.09 1.082 3.278 2.978z"/></g><path fill="#5E7E53" d="M168.516 202.573c-1.789-1.57-2.751-2.789-4.006-3.446-6.934-3.638-13.894-7.261-20.981-10.587-1.528-.718-3.866-.761-5.453-.147-17.265 6.694-34.473 13.539-51.634 20.504-1.363.551-3.103 2.279-3.113 3.477-.012 1.25 1.61 2.982 2.947 3.695 6.599 3.508 13.278 6.887 20.077 9.981 1.724.787 4.266 1.071 5.972.409 17.432-6.75 34.779-13.72 52.116-20.72 1.27-.513 2.261-1.727 4.075-3.166zM83.899 228.754l-1.241 1.318c1.012 1.286 1.759 3.078 3.081 3.779 7.097 3.744 14.294 7.303 21.557 10.71 1.283.599 3.233.677 4.554.164 17.597-6.887 35.159-13.873 52.656-21.012 1.333-.545 2.124-2.423 3.167-3.685l-1.247-1.186c-1.99.732-3.998 1.417-5.969 2.2-15.407 6.135-30.848 12.191-46.178 18.512-3.471 1.433-6.263 1.301-9.549-.461-6.828-3.661-13.874-6.919-20.831-10.339zM84.096 216.806l-1.333 1.503c1.286 1.343 2.335 3.116 3.892 3.947 6.441 3.443 12.974 6.737 19.612 9.767 1.713.781 4.229 1.1 5.918.447 17.446-6.737 34.818-13.672 52.14-20.719 1.4-.568 2.295-2.391 3.42-3.633l-1.232-1.368c-2.128.804-4.274 1.568-6.391 2.414-15.393 6.14-30.816 12.192-46.124 18.521-3.316 1.373-5.929 1.141-9.008-.498-6.868-3.649-13.918-6.942-20.894-10.381zM167.696 214.109l-1.193-1.307c-1.605.597-3.229 1.163-4.828 1.795-16.042 6.372-32.035 12.868-48.172 18.998-2.274.867-5.561.697-7.82-.283-7.418-3.227-14.582-7.044-21.846-10.638l-1.271 1.402c1.151 1.323 2.054 3.118 3.503 3.89 6.761 3.59 13.618 6.989 20.549 10.233 1.458.687 3.604 1.085 5.013.536 17.753-6.897 35.44-13.947 53.077-21.124 1.262-.514 2.003-2.304 2.988-3.502zM167.643 226.219l-1.268-1.466c-14.19 5.652-28.675 10.67-42.46 17.173-10.073 4.752-18.852 5.445-28.133-1.201-3.587-2.57-7.998-3.99-12.031-5.938-.346.485-.682.973-1.021 1.46.943.99 1.713 2.313 2.86 2.916 7.082 3.736 14.205 7.403 21.433 10.843 1.417.673 3.575.805 5.021.242 17.581-6.846 35.099-13.838 52.584-20.926 1.223-.494 2.02-2.044 3.015-3.103z"/><path fill-rule="evenodd" clip-rule="evenodd" fill="#5E7E53" d="M83.899 228.754c6.957 3.42 14.003 6.678 20.831 10.341 3.286 1.762 6.078 1.894 9.549.461 15.33-6.32 30.771-12.377 46.178-18.512 1.971-.783 3.979-1.468 5.969-2.2l1.247 1.186c-1.043 1.262-1.834 3.14-3.167 3.685-17.497 7.139-35.06 14.125-52.656 21.012-1.32.513-3.271.435-4.554-.164-7.263-3.407-14.46-6.966-21.557-10.71-1.322-.701-2.069-2.493-3.081-3.779l1.241-1.32zM84.096 216.806c6.977 3.439 14.026 6.732 20.894 10.381 3.079 1.639 5.691 1.871 9.008.498 15.308-6.328 30.731-12.381 46.124-18.521 2.116-.846 4.263-1.61 6.391-2.414l1.232 1.368c-1.125 1.242-2.02 3.064-3.42 3.633-17.321 7.047-34.693 13.981-52.14 20.719-1.688.652-4.205.334-5.918-.447-6.639-3.029-13.171-6.323-19.612-9.767-1.557-.831-2.605-2.604-3.892-3.947l1.333-1.503zM167.696 214.109c-.985 1.197-1.727 2.987-2.988 3.503-17.637 7.177-35.324 14.227-53.077 21.124-1.408.549-3.555.15-5.013-.536-6.931-3.244-13.788-6.644-20.549-10.233-1.449-.771-2.352-2.566-3.503-3.89l1.271-1.402c7.264 3.594 14.428 7.411 21.846 10.638 2.26.98 5.546 1.15 7.82.283 16.137-6.13 32.13-12.626 48.172-18.998 1.599-.632 3.223-1.198 4.828-1.795l1.193 1.306zM167.643 226.219c-.994 1.06-1.792 2.609-3.015 3.104-17.485 7.088-35.003 14.08-52.584 20.926-1.446.562-3.604.431-5.021-.242-7.228-3.439-14.351-7.106-21.433-10.843-1.147-.603-1.917-1.926-2.86-2.916.34-.487.676-.975 1.021-1.46 4.033 1.947 8.444 3.367 12.031 5.938 9.281 6.646 18.06 5.953 28.133 1.201 13.785-6.503 28.27-11.521 42.46-17.173l1.268 1.465z"/><path fill-rule="evenodd" clip-rule="evenodd" fill="#fff" d="M96.074 213.052c1-5.447 1-5.447 14.223-10.487 3.061 8.283 10.734 8.428 17.814 9.747-7.428 5.943-22.119 8.584-32.037.74zM154.188 197.688c-.872 6.492-1.277 6.791-14.193 10.408-3.027-7.926-10.296-8.24-17.101-9.408 7.147-7.084 20.218-7.503 31.294-1z"/><path fill="#5E7E53" d="M449.021 253.752c17.216-7.509 34.69-11.868 53.607-12.883-1.971-6.889-3.612-13.021-5.569-19.063-.244-.741-2.155-1.409-3.251-1.363-16.807.934-32.99 4.617-48.343 11.596-.892.409-2.028 2.076-1.826 2.846 1.575 6.149 3.438 12.21 5.382 18.867zm6.388 3.285c17.518-5.384 35.352-7.975 54.298-6.869-.782-6.245-1.464-11.807-2.18-17.336-.588-4.516-1.246-4.861-6.324-3.368 1.099 3.957 2.184 7.933 3.396 12.309-3.283.357-6.207.73-9.142 1-13.121 1.21-25.781 4.267-38.048 9.02-2.196.849-3.818 1.776-2 5.244zm16.066-47.424c3.664-.979 7.313-1.658 10.692-3.03 1.278-.518 2.706-2.673 2.625-4.004-.08-1.543-1.39-3.728-2.765-4.391-6.915-3.333-14.08-3.268-21.001.033-1.292.617-2.687 2.697-2.619 4.036.086 1.559 1.393 3.793 2.75 4.396 3.195 1.401 6.734 1.991 10.318 2.96zm-30.845-.648c-3.604.989-7.299 1.561-10.599 3.034-3.877 1.71-3.909 6.412-.12 8.307 7.037 3.523 14.312 3.489 21.354.008 1.261-.624 2.577-2.743 2.483-4.077-.101-1.546-1.398-3.755-2.762-4.351-3.185-1.372-6.718-1.955-10.356-2.921zm18.119-.713l-.932.887c1 1.442 1.694 3.365 3.055 4.249 5.581 3.584 17.425 3.379 22.104-.369 1.128-.904 1.509-2.738 2.232-4.158-9.456 3.964-17.951 3.905-26.459-.609zm-5.291 14.136c-8.503 4.425-17.022 4.356-25.532.062-.462 4.756 4.331 7.53 12.517 7.54 8.604.003 13.368-2.683 13.015-7.602zm5.64-6.979l-1.232.75c.952 1.363 1.588 3.251 2.896 4.005 7.706 4.473 15.255.332 22.811-.963.696-.123 1.026-2.366 1.821-4.382-10.744 4.756-16.688 4.783-26.296.59zm-31.421 21.513c.233 4.937 7.801 8.001 16.847 5.782-1.625-1.419-2.56-2.899-3.786-3.211-4.23-1.062-8.562-1.722-13.061-2.571zm14.672-.777c-3.472-6.402-10.667-2.67-14.331-7.437-.532 5.876 5.134 8.655 14.331 7.437z"/><path fill-rule="evenodd" clip-rule="evenodd" fill="#333" d="M378.596 188.488c-2.051.288-4.111.586-5.79.828v-7.766c3.064.938 6.79 2.076 10.513 3.219-2.601-1.994-6.018-9.986-3.999-11.477 2.107-1.546 5.575-1.381 8.483-1.659 1.34-.133 2.781.381 4.138.747 2.152.584 6.138 1.468 6.093 1.897-.373 3.599.372 7.96-4.019 9.923 1.295.4 2.729.838 4.68 1.435-.693 1.194-1.215 2.08-1.896 3.262 6.254 6.133 13.247 12.03 19.051 18.918 9.16 10.876 9.356 24.244 1.545 34.361-12.6 16.312-45.436 16.114-57.863-.353-6.957-9.219-7.07-22.334.565-32.285 4.405-5.737 9.87-10.675 14.996-15.83 1.328-1.341 3.188-2.158 4.796-3.218-.43-.667-.856-1.342-1.293-2.002zm-10.094 16.876c-7.534 6.882-11.761 15.144-9.412 25.643 1.935 8.63 7.715 13.848 16.987 17.236-15.339-15.986-16.628-24.422-7.575-42.879z"/><path fill-rule="evenodd" clip-rule="evenodd" fill="#5E7E53" d="M449.021 253.752c-1.944-6.657-3.808-12.718-5.382-18.868-.202-.77.935-2.437 1.826-2.846 15.353-6.979 31.536-10.662 48.343-11.596 1.096-.046 3.007.622 3.251 1.363 1.957 6.042 3.599 12.175 5.569 19.063-18.916 1.016-36.391 5.375-53.607 12.884zm15.896-25.608c-9.156 1.983-10.253 3.399-14.413 7.516-3.599 3.561-1.334 6.636.021 8.969.977 1.678 4.793 2.694 7.103 2.371 3.914-.548 7.653-2.39 11.746-3.772-6.559-5.039-7.257-7.448-4.457-15.084zm13.928 12.823c6.793-1.438 13.669-.185 17.857-7.141 0-10.024-10.806-11.854-21.417-7.78 5.358 3.708 7.748 8.247 3.56 14.921zM455.409 257.037c-1.818-3.468-.196-4.396 2.001-5.245 12.267-4.753 24.927-7.81 38.048-9.02 2.935-.27 5.858-.643 9.142-1l-3.396-12.309c5.078-1.493 5.736-1.147 6.324 3.368.716 5.529 1.397 11.091 2.18 17.336-18.947-1.105-36.781 1.486-54.299 6.87z"/><path fill-rule="evenodd" clip-rule="evenodd" fill="#333" d="M341.292 267.312c-1.953 1.293-3.757 2.946-5.882 3.788-2.983 1.174-5.6 2.242-4.647 6.485 7.518 5.19 15.652 5.153 23.978 1.024 3.367-1.671 6.397-1.977 9.35 2.295-7.419 2.947-14.504 5.81-21.652 8.522-.676.262-1.777-.32-2.584-.722-5.974-2.937-11.965-5.841-17.83-8.983-1.122-.604-2.253-2.137-2.354-3.321-.077-.785 1.515-2.158 2.625-2.551 6.341-2.244 12.763-4.273 19.158-6.373l-.162-.164zM351.496 264.519c.39-.974.538-2.531 1.229-2.838 4.676-2.059 9.438-3.958 14.258-5.651 1.128-.402 2.766-.218 3.873.312 6.007 2.885 11.951 5.905 17.833 9.045 1.062.565 2.544 2.103 2.363 2.838-.282 1.175-1.62 2.391-2.818 2.988-2.769 1.376-5.867 2.117-8.548 3.603-3.692 2.045-6.561 1.628-9.042-2.004 2.88-3.145 10.201-1.568 9.496-8.66-7.397-4.912-15.068-5.25-23.084-1.61-1.816.829-3.819 1.222-5.736 1.823l.176.154zM346.334 269.326c-1.679-.667-3.363-1.34-5.042-2.014l.16.165c.25-2.553 3.715-4.604 6.691-3.925 1.135.261 2.236.643 3.362.966l-.186-.154c5.605 3.056 11.064 6.448 16.87 9.078 3.624 1.644 4.714 3.873 4.503 7.534-.244 4.18-.138 8.374-.164 12.556-.039 6.14-.39 6.518-7.82 7.585 0-6.061-.188-12.053.072-18.031.151-3.279-.971-5.006-3.969-6.347-4.935-2.216-9.647-4.934-14.453-7.441l-.024.028zm-.744-3.971l-.319 1.406c5.476 2.826 10.83 5.939 16.477 8.376 3.944 1.694 5.225 4.071 4.921 8.209-.352 5.038-.08 10.116-.08 15.18l1.721.659c.836-1.527 2.289-3.016 2.396-4.603.318-4.781.337-9.626-.023-14.401-.128-1.629-1.378-3.815-2.76-4.588-6.084-3.402-12.383-6.435-18.66-9.485-1.086-.528-2.444-.519-3.673-.753z"/><path fill-rule="evenodd" clip-rule="evenodd" fill="#5E7E53" d="M471.475 209.613c-3.584-.97-7.123-1.56-10.317-2.96-1.357-.603-2.664-2.837-2.75-4.396-.067-1.339 1.327-3.419 2.619-4.036 6.921-3.301 14.086-3.366 21.001-.033 1.375.663 2.685 2.848 2.765 4.391.081 1.331-1.347 3.486-2.625 4.004-3.38 1.372-7.029 2.051-10.693 3.03zm.139-4.501c2.936-.722 6.055-1.173 8.894-2.278 2.278-.887 2.32-2.854.043-3.897-5.838-2.669-11.854-2.592-17.732-.129-2.554 1.069-2.511 3.114-.023 4.119 2.689 1.091 5.69 1.447 8.818 2.185zM440.63 208.965c3.638.966 7.171 1.549 10.356 2.921 1.363.596 2.661 2.805 2.762 4.351.094 1.334-1.223 3.453-2.483 4.077-7.042 3.481-14.316 3.516-21.354-.008-3.789-1.895-3.757-6.597.12-8.307 3.3-1.474 6.994-2.045 10.599-3.034zm-.057 9.844c2.823-.633 5.742-1.172 8.559-2.016.801-.254 1.83-1.407 1.842-2.156.013-.746-.967-1.88-1.776-2.219-5.745-2.427-11.57-2.436-17.298.063-.795.344-1.756 1.537-1.692 2.26.064.763 1.13 1.836 1.96 2.085 2.679.819 5.456 1.315 8.405 1.983z"/><path fill-rule="evenodd" clip-rule="evenodd" fill="#333" d="M320.416 280.547c5.26 2.591 10.645 4.968 15.729 7.854 3.964 2.263 7.483 2.643 11.708.557 4.804-2.384 9.963-4.048 15.464-6.229 0 1.454.262 2.899-.039 3.041-6.924 3.005-14.05 8.432-20.86 8.077-7.418-.389-14.566-6.123-21.755-9.688-.755-.377-.934-1.891-1.389-2.871.38-.255.764-.496 1.142-.741zM320.231 285.619c6.052 2.974 12.005 6.174 18.202 8.801 2.108.889 5.041.983 7.222.279 5.851-1.88 11.496-4.394 17.628-6.811.06 1.25.388 2.724.11 2.846-6.882 3.078-13.964 8.633-20.707 8.27-7.54-.417-14.819-6.166-22.125-9.778-.702-.335-.805-1.895-1.188-2.885l.858-.722zM363.626 292.863c-.735 3.636-18.164 13.097-21.727 11.708-7.463-2.897-14.529-6.828-21.674-10.498-.56-.291-.482-1.817-.926-3.773 6.537 3.197 12.32 5.722 17.783 8.818 3.488 1.982 6.471 1.991 10.026.362 5.153-2.348 10.517-4.245 16.518-6.617zM319.237 295.309c6.259 3.102 11.663 5.365 16.625 8.368 4.316 2.608 8.097 2.549 12.493.414 4.688-2.258 9.679-3.905 14.961-5.989.054 1.25.323 2.477.083 2.583-6.734 2.997-13.45 6.078-20.335 8.714-2.835 1.077-22.33-9.943-23.827-14.09z"/><path fill-rule="evenodd" clip-rule="evenodd" fill="#5E7E53" d="M458.749 208.252c8.508 4.514 17.003 4.573 26.46.608-.724 1.42-1.104 3.254-2.232 4.158-4.68 3.748-16.523 3.953-22.104.369-1.36-.884-2.055-2.807-3.055-4.249l.931-.886zM453.458 222.388c.353 4.919-4.411 7.605-13.016 7.603-8.186-.01-12.979-2.784-12.517-7.54 8.511 4.293 17.03 4.361 25.533-.063zM459.098 215.409c9.608 4.192 15.553 4.166 26.296-.59-.795 2.016-1.125 4.259-1.821 4.382-7.556 1.295-15.104 5.436-22.811.963-1.309-.754-1.944-2.642-2.896-4.005l1.232-.75zM427.677 236.922c4.499.849 8.831 1.509 13.061 2.571 1.227.312 2.161 1.792 3.786 3.211-9.046 2.219-16.614-.846-16.847-5.782z"/><path fill-rule="evenodd" clip-rule="evenodd" fill="#333" d="M391.068 277.302c-.57 3.618-6.914 6.986-16.75 9.292-.17-3.352 6.518-7.109 16.75-9.292zM390.702 272.298c.137 3.282-6.909 7.198-16.408 9.119-.131-3.402 6.506-7.081 16.408-9.119z"/><path fill-rule="evenodd" clip-rule="evenodd" fill="#5E7E53" d="M442.349 236.145c-9.196 1.219-14.862-1.561-14.331-7.437 3.664 4.767 10.859 1.034 14.331 7.437z"/><path fill-rule="evenodd" clip-rule="evenodd" fill="#333" d="M390.913 282.393c-.276 3.478-7.063 7.157-16.407 9.253-.542-3.324 4.801-6.368 16.407-9.253zM373.913 296.56c.849-3.406 6.6-6.396 16.557-8.976.482 3.088-6.45 6.905-16.557 8.976zM346.334 269.326l.025-.028c1.386 1.127 2.698 2.343 4.175 3.328 1.5.992 3.164 1.733 4.757 2.591l-.607 1.435c-3.252-1.463-6.757-2.551-9.68-4.499-2.283-1.512-1.072-2.772 1.33-2.827z"/><path fill-rule="evenodd" clip-rule="evenodd" fill="#fff" d="M368.502 205.364c-9.053 18.457-7.764 26.893 7.575 42.879-9.272-3.389-15.053-8.606-16.987-17.236-2.349-10.499 1.878-18.761 9.412-25.643zM464.917 228.144c-2.8 7.637-2.102 10.046 4.456 15.083-4.093 1.383-7.832 3.225-11.746 3.772-2.31.323-6.126-.693-7.103-2.371-1.354-2.333-3.619-5.408-.021-8.969 4.161-4.116 5.258-5.532 14.414-7.515zM478.845 240.967c4.188-6.674 1.798-11.213-3.56-14.921 10.611-4.073 21.417-2.244 21.417 7.78-4.188 6.956-11.064 5.703-17.857 7.141zM345.59 265.355c1.229.233 2.587.225 3.671.753 6.277 3.051 12.576 6.083 18.66 9.485 1.382.772 2.632 2.959 2.76 4.588.36 4.775.342 9.62.023 14.401-.106 1.587-1.56 3.075-2.396 4.603l-1.721-.659c0-5.063-.271-10.142.08-15.18.304-4.138-.977-6.515-4.921-8.209-5.646-2.437-11.001-5.55-16.477-8.376.11-.468.217-.939.321-1.406zM471.614 205.112c-3.128-.738-6.129-1.095-8.819-2.186-2.487-1.005-2.53-3.05.023-4.119 5.879-2.463 11.895-2.54 17.732.129 2.277 1.044 2.235 3.011-.043 3.897-2.838 1.106-5.957 1.558-8.893 2.279zM440.573 218.809c-2.949-.668-5.727-1.164-8.406-1.982-.83-.249-1.896-1.322-1.96-2.085-.063-.723.897-1.916 1.692-2.26 5.728-2.499 11.553-2.49 17.298-.063.81.339 1.789 1.473 1.776 2.219-.012.749-1.041 1.902-1.842 2.156-2.816.843-5.735 1.382-8.558 2.015z"/><path fill="#F9F9F9" d="M384.748 212.188c1.494-.317 3.634-.503 5.674-.518 3.162-.022 5.206.541 6.643 1.823 1.163 1.011 1.82 2.571 1.833 4.339.021 3.025-1.868 5.045-4.275 5.878l.001.102c1.771.6 2.837 2.225 3.398 4.6.771 3.189 1.331 5.396 1.813 6.277l-3.06.021c-.379-.643-.903-2.611-1.568-5.463-.703-3.156-1.936-4.338-4.622-4.42l-2.788.021.071 9.927-2.958.02-.162-22.607zm3.032 10.416l3.026-.022c3.162-.022 5.154-1.771 5.136-4.389-.021-2.958-2.172-4.233-5.299-4.245-1.428.01-2.447.153-2.922.292l.059 8.364z"/><path fill="#fff" d="M468.931 229.314c.696-.147 1.695-.233 2.646-.24 1.475-.011 2.428.252 3.098.85.542.472.849 1.199.854 2.023.011 1.411-.87 2.352-1.993 2.741l.001.048c.826.279 1.323 1.036 1.585 2.145.359 1.488.621 2.516.846 2.926l-1.427.01c-.177-.299-.421-1.216-.732-2.546-.327-1.473-.902-2.023-2.155-2.062l-1.3.01.033 4.628-1.379.01-.077-10.543zm1.415 4.858l1.411-.01c1.475-.011 2.403-.826 2.395-2.047-.01-1.379-1.013-1.975-2.472-1.979-.666.005-1.141.071-1.362.136l.028 3.9z"/><g fill-rule="evenodd" clip-rule="evenodd"><path fill="#333" d="M661.391 190.844v11.317h8.115v-3.207h71.273v95.682h-9.65l-2.619 8.106h20.38v-111.899h-87.499v.001zm-1.759 33.472h56.337v28.752h-56.337v-28.752zm-.119 77.466h24.582v3.351h-24.582v-3.351zm0-10.324h24.582v3.35h-24.582v-3.35zm0-11.264h35.443v3.352h-35.443v-3.352zm0-10.191h46.576v3.354h-46.576v-3.354zm0-9.388h56.456v3.354h-56.456v-3.354zm71.678-52.209v65.686l-.205.643-13.8 42.752-.911 2.815h-72.57499999999999v-111.896h87.491zm-47.996 103.789h-31.387v-95.678h71.277v53.434l-25.525 28.872-2.343 2.652 2.313 2.667 6.958 8.053h-21.293zm35.185-24.727l-6.683 20.707-5.745-6.648 12.428-14.059z"/><path fill="#5E7E53" d="M739.773 248.117l5.896 3.021c-2.408 3.74-4.596 7.143-6.98 10.855-1.526-1.176-3.17-2.437-4.899-3.761-7.322 8.276-16.154 12.465-26.573 12.843-9.287.344-17.538-2.762-24.575-8.873-12.919-11.22-15.884-31.342-6.757-45.598 9.511-14.87 28.343-20.895 44.145-14.145 16.008 6.839 26.352 24.946 19.743 45.658zm-3.373-19.734c-3.956-16.844-20.465-27.123-37.224-23.181-16.729 3.934-27.097 20.622-23.2 37.324 3.918 16.756 20.752 27.081 37.672 23.095 16.442-3.877 26.664-20.601 22.752-37.238zM751.219 255.316c11.104 6.806 22.321 13.678 33.489 20.521l-6.223 9.914c-11.02-6.804-22.257-13.739-33.66-20.781 2.036-3.079 4.218-6.37 6.394-9.654zM780.578 287.274c2.137-3.453 4.203-6.808 6.353-10.277 2.298.823 3.897 2.153 3.968 4.709.086 3.123-1.394 5.501-4.066 6.941-2.315 1.249-4.415.441-6.255-1.373zM747.59 252.553c3.01 2.492-.06 4.252-1.018 5.516-1.474 1.942-1.396 6.013-5.854 5.468 2.384-3.813 4.509-7.21 6.872-10.984z"/><path fill="#fff" d="M736.4 228.383c3.912 16.637-6.311 33.361-22.752 37.238-16.92 3.986-33.754-6.339-37.672-23.095-3.896-16.702 6.472-33.391 23.2-37.324 16.76-3.942 33.268 6.337 37.224 23.181zm-23.149 36.07c15.901-3.655 25.773-19.599 22.075-35.65-3.777-16.401-19.593-26.292-35.955-22.484-15.914 3.7-25.966 19.732-22.305 35.58 3.823 16.556 19.578 26.377 36.185 22.554z"/><path fill="#5E7E53" d="M713.251 264.453c-16.607 3.823-32.362-5.998-36.185-22.555-3.661-15.848 6.391-31.88 22.305-35.58 16.362-3.808 32.178 6.083 35.955 22.484 3.698 16.052-6.174 31.996-22.075 35.651zm20.978-35.661c-3.72-15.383-19.192-24.965-34.537-21.391-15.432 3.597-25.12 19.377-21.379 34.814 3.709 15.325 19.34 24.875 34.658 21.178 15.306-3.694 24.94-19.38 21.258-34.601zM732.784 236.064c.727 9.843-7.761 24.572-24.495 26.136-13.092 1.222-26.543-8.448-28.529-21.319 5.975 13.139 15.613 19.812 29.532 18.068 12.948-1.619 20.343-9.921 23.492-22.885z"/></g></svg>