<svg xmlns="http://www.w3.org/2000/svg" width="250" height="158.128" viewBox="0 0 250 158.128"><g fill="#fff"><g stroke="#D1D3D4" stroke-width=".421" stroke-miterlimit="10"><path d="M92.628 132.223l3.155.251c-.165.68-.4 1.341-.474 2.021-.073.667-.125 1.407.108 1.996.092.225 1.369.32 1.487.115.317-.555.413-1.303.4-1.971-.01-.732-.236-1.464-.369-2.168l3.121-.244 1.969 1.307.878-.929c-.395.657-.859 1.286-1.167 1.98-.217.488-.46 1.425-.286 1.542.571.378 1.365.683 2.003.58.366-.06.773-.941.833-1.488.045-.421-.422-.896-.868-1.736 1.578-.489 3.003-.932 4.428-1.378l.431.471c-.193.665-.471 1.316-.562 1.992-.088.627-.188 1.418.114 1.876.191.291 1.394.351 1.631.075.355-.413.365-1.22.334-1.85-.035-.74-.265-1.474-.526-2.794 1.979.688 3.385 1.174 4.79 1.665l-.578.464c0 .785-.278 1.776.093 2.29.274.381 1.401.145 2.147.185.521-.068 1.41-.016 1.481-.233.173-.516.06-1.204-.161-1.729-.07-.169-.844-.038-1.296-.046l-.724-1.501 1.087.262c1.385 1.121 1.371-.731 2.106-.993l3.246.254c-.233.758-.525 1.404-.62 2.076-.087.622-.178 1.425.133 1.858.216.304 1.403.368 1.637.095.353-.413.355-1.218.324-1.849-.036-.743-.27-1.477-.418-2.212l3.139-.229 1.16 1.839.588-.491-.09-.423 1.532-.187-.153 1.324-.372-.361c-.617.302-1.431.466-1.78.958-.233.326.129 1.603.341 1.632 1.073.15 2.269.258 3.236-.107.352-.133.187-1.623.258-2.492l-.554-.455c1.421-.46 2.843-.918 4.266-1.383l.434.453c-.182.665-.425 1.323-.522 2.003-.089.622-.24 1.414.052 1.853.206.314 1.488.397 1.624.178.323-.529.338-1.301.323-1.975-.01-.735-.188-1.47-.365-2.703 1.909.662 3.293 1.138 4.877 1.686-.42.578-.742.822-.722 1.028.073.717.267 1.421.415 2.132.94-.258 1.892-.488 2.804-.829.055-.021-.066-1.047-.362-1.358-.658-.693-1.479-1.229-2.236-1.829l.585-.627.669 1.483 2.153-1.341 3.212.26c-.199.71-.467 1.358-.544 2.029-.073.66-.089 1.407.164 1.985.096.223 1.365.289 1.483.082.311-.556.384-1.302.369-1.971-.014-.731-.223-1.461-.341-2.128l3.083-.282c.39.422.714.949 1.185 1.233.505.307 1.268.686 1.323-.491l.934 1.523c-.275-.089-.596-.308-.818-.238-.631.195-1.474.362-1.744.825-.193.328.406 1.118.653 1.704.606-.291 1.24-.537 1.801-.9.182-.115.16-.538.233-.817.439.484.847 1.358 1.313 1.392 2.212.148 4.439.064 6.713.064l-.175-3.65.202-.011.255 1.856.407.011 1.742-10.074c1.905 0 3.619.033 5.329-.009 3.047-.074 4.703-1.656 4.31-4.711-.391-3.074-1.182-6.122-2.083-9.096-.326-1.069-1.328-2.132-2.3-2.771-1.9-1.245-4.229.019-4.446 2.256-.016.165.373.369.571.557-1.872 1.93-4.117 1.885-6.544 1.402-.603-.12-1.717.284-1.947.761-.477.989.265 1.716 1.278 1.812 1.913.178 3.839.22 5.759.317.163 1.149.327 2.303.487 3.45 1.324-1.852 1.233-2.987.193-3.799l1.409-.702c.06.673.089 1.351.185 2.019.195 1.359.425 2.711.647 4.097-3.104.589-7.196-1.372-7.523 3.828l-1.136-3.811c.847 0 1.492.014 2.139 0 .681-.021 1.362-.062 2.069-.096.038-.625.078-1.033.087-1.44.035-2.477.035-2.485-2.467-2.485-6.147-.002-12.296.005-18.444.009h-2.296c.391 2.147.718 3.948 1.042 5.751l-.982 2.731c0-3.104-.033-6.14.018-9.176.018-1.034-.282-1.516-1.389-1.496-3.234.064-6.474.064-9.713.089.545-.122 1.088-.343 1.637-.352 2.483-.037 4.975.065 7.458-.042 1.429-.062 2.418.202 2.47 1.919l2.369-.487-.831 1.018c1.559-.344 2.689-.478 3.694-.901.216-.092-.011-1.232-.035-1.893l1.533-1.307c.205.711.307 1.47.638 2.118.32.627.87 1.62 1.319 1.616 1.805-.002 3.672-.115 5.399-.594 2.153-.594 2.467-2.479.896-4.105-2.639-2.73-9.832-4.051-13.258-2.403-.387.185-.683.554-1.021.836-1.728-.439-3.435-1.083-5.188-1.278-3.046-.336-6.074-.122-8.795 1.574-.753-.516-1.472-1.414-2.26-1.48-2.401-.193-4.836-.191-7.24.004-.787.062-1.508.954-2.261 1.468-.223-.059-.467-.082-.668-.185-4.403-2.232-8.813-2.121-13.23-.031-.962-.462-1.888-1.172-2.898-1.327-1.505-.229-3.076.016-4.61-.085-2.785-.185-4.902 1.215-6.829 2.895-1.678 1.459-1.275 3.528.84 4.108 1.738.476 3.606.594 5.418.604.451 0 1.005-.989 1.325-1.623.328-.643.42-1.407.613-2.116l1.585 1.305c-.038.656-.285 1.801-.08 1.888.998.425 2.118.571 3.57.898l-.668-1.01 2.261.438.605-1.536c-.018 3.094 0 6.187-.076 9.276-.015.497-.429.982-.658 1.474.358-.951 1.052-1.95-.397-2.626 1.516-1.849.463-3.905.791-5.806h-22.744v3.879h4.219c-.46 1.445-.829 2.603-1.314 4.14-.218-.747-.393-1.078-.396-1.412-.035-1.9-1.122-2.583-2.86-2.574-1.285.011-2.567 0-4.281 0l1.296-6.138c.146.362.384.718.411 1.087.08 1.061.071 2.128.098 3.192l.77.031.751-3.224c1.705-.133 3.461-.222 5.199-.429.996-.118 1.975-.558 1.668-1.805-.292-1.188-1.208-1.149-2.274-.874-2.264.591-4.459.531-6.211-1.362.047-.558.349-1.345.087-1.627-.625-.689-1.459-1.487-2.303-1.616-1.601-.243-2.821.746-3.573 2.136-1.798 3.337-2.585 6.967-2.596 10.719-.007 2.721 1.505 4.082 4.219 4.138 1.814.042 3.63.011 5.399.011.798 4.1 1.554 7.965 2.314 11.864 1.827 0 3.248-.09 4.646.023 1.683.137 3.107-.035 3.783-1.855.052.505-.068 1.195.212 1.467.384.371 1.293.742 1.582.54.442-.307.805-1.14.717-1.672-.062-.384-.877-.798-1.412-.902-.326-.066-.765.434-1.149.676l.921-1.836c.387.198.913.658 1.133.542.537-.284.931-.834 1.38-1.273zm-15.693-6.758c-3.011 0-5.842-.049-8.667.021-1.457.034-2.07-.575-2.004-1.984.071-1.592.085-3.188.228-4.773.133-1.498.404-2.982.62-4.519h-3.284c0 4.353-.032 8.55.056 12.742.007.354.759.951 1.201.989 1.442.129 2.902.049 4.365.049.122 1.176.216 2.1.32 3.149-2.668.229-5.008.916-6.04 3.574-.192.491-.119 1.379.209 1.696.32.313 1.299.365 1.659.1.357-.267.397-1.082.399-1.658 0-.342-.342-.685-.722-1.389l4.336-1.36.44.424c-.216.721-.54 1.432-.615 2.168-.064.613.002 1.373.329 1.841.182.258 1.317.262 1.507 0 .336-.456.383-1.21.354-1.828-.038-.76-.275-1.509-.536-2.81l4.929 1.652c-.474.729-.867 1.062-.88 1.411-.022.526.051 1.263.391 1.538.336.276 1.198.307 1.549.052.365-.261.686-1.127.512-1.494-.702-1.538-1.502-3.079-3.441-3.428-.86-.155-1.711-.364-2.638-.564l.182-3.081h5.242l-.001-2.518zm95.871 6.441c-.305 1.33-.573 2.072-.616 2.828-.031.615.043 1.371.39 1.822.199.258 1.331.229 1.514-.035.324-.467.364-1.228.302-1.839-.08-.76-.387-1.496-.593-2.24l.521-.371c1.37.48 2.743.963 4.224 1.48-.434.777-.852 1.187-.84 1.583.018.514.251 1.178.627 1.478.3.235 1.125.211 1.411-.046.362-.32.718-1.149.543-1.485-.825-1.601-1.708-3.228-3.791-3.53-.804-.115-1.591-.32-2.493-.507l.449-3.152h5.552c0-4.439.016-8.689-.037-12.936-.007-.302-.505-.793-.836-.853-.725-.13-1.491-.04-2.474-.04.153 1.022.304 1.818.38 2.62.209 2.112.509 4.227.54 6.345.028 2.282-.198 2.419-2.425 2.447-2.699.031-5.4.007-8.25.007v2.536h5.241l.158 3.062c-2.341.544-4.921.62-5.729 3.419-.178.624-.14 1.425.116 2.002.098.216 1.527.2 1.611-.007.24-.6.129-1.349.094-2.038-.009-.191-.24-.373-.627-.934 1.621-.52 3.057-.982 5.038-1.616zm-21.228-28.599c.007-2.161-1.907-4.096-4.048-4.096-2.163 0-4.062 1.898-4.068 4.07-.011 2.201 1.818 4.037 4.04 4.062 2.186.022 4.072-1.849 4.076-4.036zm-16.589-4.078c-2.208.047-4.013 1.911-3.981 4.119.028 2.216 1.889 4.03 4.094 3.994 2.196-.037 4.048-1.932 4.013-4.102-.034-2.161-1.986-4.053-4.126-4.011zm-12.982-.011c-2.152-.053-4.074 1.797-4.142 3.984-.066 2.189 1.733 4.069 3.961 4.137 2.181.068 4.093-1.754 4.155-3.953.06-2.138-1.827-4.116-3.974-4.168zm-25.729 8.123c2.185.035 4.086-1.825 4.102-4.011.018-2.162-1.883-4.104-4.032-4.116-2.17-.011-4.048 1.848-4.082 4.044-.038 2.191 1.79 4.048 4.012 4.083zm16.561-4.106c-.031-2.186-1.989-4.068-4.163-4.002-2.194.065-4.034 2.028-3.953 4.213.083 2.136 1.93 3.905 4.075 3.896 2.21-.006 4.075-1.904 4.041-4.107zm-34.417-2.997c-2.119.038-3.807 1.763-3.797 3.882.015 2.071 1.815 3.877 3.856 3.872 2.174-.004 3.899-1.806 3.85-4.02-.053-2.128-1.767-3.772-3.909-3.734zm90.747 3.766c-.034-2.132-1.748-3.797-3.88-3.772-2.155.025-3.776 1.684-3.776 3.861 0 2.198 1.814 3.986 3.953 3.896 2.104-.088 3.738-1.848 3.703-3.985z"/><path fill-rule="evenodd" clip-rule="evenodd" d="M76.926 114.183l-1.294 6.141c1.714 0 2.996.006 4.281-.001 1.736-.011 2.825.674 2.86 2.574.003.332.178.667.392 1.412.489-1.536.856-2.696 1.318-4.139h-4.219v-3.884h22.74c.021 1.86.638 4.025-.787 5.809l-3.525 1.845-4.139 3.215-2.259 2.678-2.109 3.032c-.387.519-.683 1.194-.923 1.839l.053-.109c-.676 1.819-2.103 1.994-3.783 1.856-1.4-.117-2.82-.026-4.647-.026-.759-3.897-1.515-7.765-2.316-11.864-1.766 0-3.582.031-5.397-.007-2.715-.056-4.226-1.422-4.217-4.139.011-3.755.794-7.385 2.599-10.722.749-1.387 1.969-2.378 3.57-2.134.844.127 1.676.929 2.305 1.616.256.28-.044 1.067-.091 1.629-.147-.185-.276-.384-.444-.544-.703-.678-1.281-2.07-2.494-.885-1.03 1.012-.603 2.178.328 3.076.67.647 1.461 1.16 2.198 1.732zM154.775 134.369l-.93-1.522c-.689-1.061-1.38-2.122-2.073-3.183-.748-.841-1.501-1.681-2.252-2.52-1.392-1.07-2.781-2.14-4.175-3.207-1.221-.691-2.443-1.381-3.668-2.069-.327-1.799-.651-3.6-1.038-5.749h2.292c6.148-.004 12.297-.009 18.445-.007 2.501 0 2.504.007 2.466 2.483-.007.407-.049.815-.085 1.438-.709.037-1.392.079-2.071.096-.645.018-1.29.006-2.135.006l1.136 3.807c.323-5.2 4.422-3.237 7.521-3.826-.224-1.387-.451-2.739-.648-4.097-.096-.67-.123-1.346-.181-2.019.832-.801 1.71-1.561 2.49-2.412.687-.761.782-1.773-.163-2.256-.54-.274-1.48.046-2.156.309-.361.14-.547.731-.812 1.116-.196-.187-.585-.39-.567-.557.218-2.237 2.547-3.5 4.445-2.254.975.637 1.975 1.699 2.302 2.769.9 2.976 1.688 6.023 2.083 9.098.391 3.053-1.264 4.636-4.309 4.711-1.714.042-3.428.007-5.335.007-.59 3.428-1.167 6.751-1.74 10.074l-.403-.011-.258-1.856-.202.011.174 3.654c-2.271 0-4.499.082-6.713-.068-.463-.029-.874-.907-1.31-1.394l-.13-.572zM141.657 121.888c1.683.947 2.901 1.637 3.668 2.065l-1.101 3.022-.369 5.222s-1.198.716-2.122 1.294l-.669-1.489-.585.629c.756.599 1.578 1.137 2.236 1.828.296.313.415 1.342.359 1.362-.909.338-1.86.571-2.801.825-.146-.707-.342-1.414-.415-2.128-.021-.207.302-.451.722-1.027-1.585-.551-2.969-1.029-4.879-1.688.18 1.233.357 1.967.371 2.705.009.673-.006 1.442-.329 1.974-.135.222-1.416.136-1.622-.18-.292-.438-.143-1.229-.052-1.853.096-.68.345-1.335.522-2.003l-.436-.45c-1.42.464-2.839.924-4.264 1.384l.554.452c-.073.871.093 2.362-.258 2.493-.969.365-2.163.259-3.236.107-.214-.029-.574-1.305-.345-1.632.352-.493 1.165-.655 1.78-.958l.373.36.156-1.322 2.498-1.234 2.915-.736c-.136-1.166-.265-2.211-.405-3.39h-5.05c.011-.92.024-1.836.04-2.756.225-.519.633-1.031.648-1.554.089-3.074.103-6.465.109-9.224 0-.117.347.075.465.073 3.371-.026 5.928-.047 9.163-.111 1.108-.021 1.404.459 1.391 1.496-.049 3.035-.018 6.073-.018 9.175l.986-2.731zm-2.773 9.649v-3.607l1.962-.145-.011-.157h-4.584c-.08 1.2-.15 2.293-.22 3.403l2.853.506zM115.093 132.881l.725 1.498-.021 2.01c-.749-.038-1.876.199-2.152-.185-.371-.515-.093-1.503-.093-2.288l.58-.464c-1.407-.489-2.814-.979-4.79-1.663.262 1.318.493 2.05.526 2.792.028.631.021 1.432-.334 1.847-.241.275-1.439.216-1.631-.073-.301-.456-.202-1.247-.118-1.876.094-.678.373-1.329.566-1.991l-.431-.47-4.426 1.374c.444.841.911 1.316.866 1.736-.06.549-.467 1.43-.833 1.489-.638.103-1.432-.204-2.003-.578-.174-.116.069-1.054.285-1.541.307-.697.772-1.324 1.167-1.982l2.124-.88 2.95-.712-.375-3.409h-5.173l.111-2.795c.23-.491.646-.976.659-1.474.074-3.09.059-6.183.074-9.274l-.05.078c3.699 0 11.042-.066 11.042-.066.014 3.107 0 6.211.078 9.315.013.477.462.938.706 1.407.839.954.669 1.895-.053 2.826h-5.015l-.356 3.507c1.129.158 2.097.292 3.065.425l2.33 1.417zM77.008 125.378v2.522h-5.246c-.062 1.132-.118 2.059-.178 3.077.927.202 1.776.409 2.636.566 1.941.348 2.739 1.888 3.443 3.428.171.369-.146 1.232-.513 1.496-.35.252-1.212.221-1.55-.055-.338-.274-.413-1.014-.39-1.537.014-.351.403-.684.881-1.413-1.567-.522-2.988-1.001-4.933-1.652.263 1.304.502 2.053.54 2.809.028.62-.018 1.373-.352 1.831-.19.26-1.327.256-1.509 0-.331-.469-.394-1.228-.331-1.841.077-.735.399-1.446.617-2.167l-.442-.425c-1.383.436-2.767.871-4.337 1.362.383.7.725 1.045.725 1.386-.004.575-.042 1.39-.401 1.656-.358.271-1.339.215-1.657-.097-.328-.319-.401-1.204-.209-1.695 1.03-2.658 3.371-3.348 6.04-3.577l-.32-3.149c-1.467 0-2.925.08-4.365-.049-.445-.038-1.194-.634-1.205-.985-.084-4.194-.053-8.392-.053-12.744h3.282c-.213 1.532-.484 3.019-.62 4.516-.142 1.587-.153 3.186-.227 4.778-.066 1.407.547 2.017 2.006 1.979 2.826-.069 5.655-.02 8.668-.02zM172.879 131.82l-5.037 1.615c.387.561.617.741.627.937.037.687.146 1.438-.094 2.034-.084.208-1.516.227-1.613.007-.258-.574-.292-1.376-.114-1.999.81-2.801 3.386-2.874 5.727-3.417l-.158-3.063h-5.237v-2.538c2.846 0 5.549.022 8.248-.007 2.227-.024 2.453-.164 2.421-2.445-.027-2.118-.33-4.232-.536-6.347-.08-.802-.229-1.596-.38-2.618.98 0 1.745-.089 2.474.04.331.06.829.549.832.85.055 4.25.039 8.5.039 12.938h-5.55c-.16 1.122-.296 2.08-.452 3.152.905.187 1.692.395 2.494.506 2.086.303 2.968 1.933 3.793 3.53.174.336-.183 1.165-.543 1.487-.286.253-1.111.277-1.411.044-.38-.3-.613-.962-.629-1.478-.012-.396.406-.808.842-1.585-1.48-.516-2.854-.996-4.223-1.479l-.525.371c.209.745.516 1.482.592 2.239.066.613.024 1.373-.3 1.84-.185.267-1.314.292-1.512.035-.348-.446-.421-1.204-.39-1.822.039-.752.31-1.494.615-2.827zM143.524 115.074l-2.371.487c-.05-1.716-1.039-1.979-2.473-1.916-2.479.106-4.97.004-7.456.04-.349.006-1.14-.019-1.551.302l-.71 1.541-2.149-.434-1.467-2.194 2.529-3.146c2.72-1.694 5.747-1.909 8.795-1.573 1.756.193 3.459.838 5.188 1.28 1.038 1.167 2.076 2.331 3.117 3.498l-1.452 2.115zM102.22 109.532c4.415-2.091 8.819-2.202 13.228.033.202.101.446.123.669.183l2.564 3.208-2.111 2.461h-1.667c-.322-.409-.214-1.057-.396-1.516 0 0-.943-.203-1.361-.209-2.871-.032-5.736-.032-8.604-.005-.413.005-1.193.436-1.193.436-.179.456-.358.76-.604 1.383l-2.264-.438-1.436-2.156 3.175-3.38zM128.916 124.765c-.016.92-.029 1.836-.04 2.756l2.54.554v3.572l-2.498 1.234-1.532.186.089.421-.587.491-1.16-1.839.027.052c-.247-2.189-.501-4.375-.752-6.562-.279-1.427-1.101-2.383-2.581-2.414-1.655-.035-2.992.558-3.338 2.438-.083.453-.303.881-.459 1.322l-.366 5.222.024-.048c-.731.26-.718 2.115-2.104.989.34-.794 1.035-1.63.953-2.379-.273-2.505-.824-4.978-1.267-7.465-.094-1.918.737-2.85 2.599-2.867 2.146-.021 4.299.108 6.441-.038 1.954-.132 3.034.713 3.479 2.489l1.136-.915c-.267 1.246-.435 2.024-.604 2.801zM102.22 109.532c-1.058 1.125-2.116 2.254-3.172 3.38l-1.387.38-1.581-1.306c-.195.712-.293 1.473-.62 2.119-.317.631-.871 1.622-1.322 1.622-1.813-.009-3.681-.128-5.418-.604-2.115-.58-2.519-2.651-.844-4.109 1.93-1.677 4.045-3.079 6.835-2.896 1.532.104 3.104-.139 4.608.089 1.01.154 1.934.865 2.901 1.325zM144.977 112.96c-1.041-1.167-2.079-2.331-3.117-3.498.336-.282.634-.654 1.019-.838 3.426-1.647 10.619-.327 13.256 2.405 1.571 1.624 1.262 3.508-.892 4.104-1.728.478-3.595.589-5.402.595-.446.001-1-.991-1.318-1.618-.333-.645-.433-1.406-.636-2.114l-1.533 1.306-1.377-.342zM151.651 103.222c-.004 2.189-1.892 4.057-4.072 4.035-2.227-.022-4.055-1.859-4.045-4.063.008-2.168 1.906-4.066 4.069-4.068 2.139-.001 4.049 1.935 4.048 4.096zM135.066 99.145c2.136-.047 4.086 1.852 4.121 4.011.034 2.174-1.818 4.067-4.013 4.102-2.205.039-4.065-1.776-4.094-3.991-.03-2.212 1.771-4.074 3.986-4.122zM122.08 99.13c2.146.053 4.034 2.031 3.975 4.17-.064 2.2-1.977 4.021-4.157 3.954-2.228-.066-4.025-1.947-3.959-4.135.062-2.187 1.989-4.041 4.141-3.989zM96.354 107.257c-2.225-.038-4.05-1.895-4.019-4.082.037-2.198 1.916-4.059 4.09-4.048 2.143.012 4.042 1.952 4.026 4.117-.013 2.188-1.917 4.046-4.097 4.013zM112.913 103.15c.033 2.203-1.834 4.102-4.046 4.108-2.141.005-3.99-1.765-4.073-3.897-.084-2.183 1.761-4.147 3.955-4.214 2.172-.064 4.132 1.819 4.164 4.003zM78.499 100.151c2.139-.037 3.856 1.605 3.901 3.737.052 2.21-1.669 4.013-3.842 4.019-2.045.005-3.85-1.803-3.86-3.872-.011-2.118 1.676-3.846 3.801-3.884zM169.239 103.918c.038 2.138-1.6 3.9-3.701 3.987-2.138.087-3.95-1.7-3.95-3.898-.002-2.179 1.617-3.835 3.771-3.859 2.131-.027 3.845 1.638 3.88 3.77zM118.625 126.976c.156-.441.376-.869.459-1.322.346-1.881 1.683-2.474 3.338-2.438 1.48.031 2.302.987 2.581 2.414v1.768l-1.84.253-.274 3.023 2.866 1.519-.027-.052-3.139.233c.147.734.38 1.466.414 2.208.035.631.033 1.436-.323 1.85-.233.275-1.418.209-1.634-.094-.313-.436-.22-1.235-.135-1.856.096-.673.387-1.318.622-2.078-1.303-.103-2.274-.18-3.25-.253l-.024.048 2.901-1.537-.303-2.788-2.232-.898zM118.681 112.956l-2.564-3.208c.751-.513 1.474-1.404 2.261-1.467 2.4-.196 4.839-.2 7.239-.003.787.063 1.51.959 2.261 1.477l-2.529 3.146-2.104.427c-1.132-1.9-1.407-1.905-2.494-.04l-2.07-.332zM76.926 114.183c-.736-.571-1.527-1.085-2.199-1.731-.931-.898-1.358-2.064-.328-3.076 1.213-1.186 1.791.207 2.494.885.168.16.297.359.444.544 1.754 1.893 3.947 1.948 6.213 1.361 1.066-.278 1.979-.316 2.274.873.307 1.245-.672 1.688-1.668 1.805-1.74.207-3.494.294-5.201.427l-.749 3.226-.773-.031c-.024-1.064-.016-2.133-.094-3.194-.027-.373-.269-.727-.413-1.089zM102.618 124.755l-.108 2.797c.826.167 1.651.336 2.599.531v3.588l-2.124.881-.878.929-1.972-1.307s-.474-4.315-.722-6.498l-.717-1.701 3.528-1.845c1.448.678.756 1.677.394 2.625zM166.717 110.779c.265-.389.449-.979.809-1.122.677-.261 1.619-.582 2.159-.307.944.484.851 1.496.158 2.256-.774.854-1.656 1.611-2.488 2.412l-1.411.702-.679.348c-1.92-.096-3.846-.141-5.759-.318-1.017-.094-1.757-.824-1.278-1.808.233-.478 1.345-.882 1.947-.765 2.425.486 4.672.532 6.542-1.398zM144.283 127.007c.366-1.007.68-2.003 1.049-3.008 1.39 1.069 2.78 2.137 4.173 3.204-.434 1.227-.87 2.449-1.212 3.401 1.316.702 2.192 1.166 3.069 1.631l-.044-.068-3.081.282c.115.667.327 1.397.342 2.129.012.669-.06 1.414-.371 1.97-.119.209-1.389.141-1.486-.08-.254-.58-.233-1.327-.16-1.987.073-.671.345-1.318.544-2.027-1.286-.106-2.251-.185-3.216-.262l-.027.047 2.908-1.543-.307-2.781-2.181-.908zM98.713 124l.713 1.702v1.752l-1.843.26-.277 3.019 2.871 1.519-.026-.051-3.12.244c.131.702.359 1.434.371 2.167.013.67-.083 1.416-.405 1.973-.115.202-1.394.108-1.484-.116-.236-.587-.185-1.329-.111-1.994.075-.682.311-1.345.478-2.024-1.261-.098-3.201-.189-3.201-.189l3.119-1.647-1.221-3.398c1.377-1.072 2.753-2.146 4.136-3.217zM115.865 123.295c.442 2.487.993 4.96 1.267 7.465.082.749-.613 1.585-.953 2.379l-1.086-.258-2.327-1.417-.213-3.398 2.519-.533c.722-.932.892-1.872.053-2.826-.19-.802-.38-1.604-.573-2.404l.336-.121.977 1.113zM97.661 113.292l1.387-.38 1.432 2.156.671 1.009c-1.449-.327-2.573-.47-3.572-.898-.203-.086.04-1.23.082-1.887zM144.977 112.96l1.376.341c.021.658.251 1.798.035 1.89-1.007.425-1.927.42-3.487.765.547-.669.48-.705.624-.881l1.452-2.115zM154.755 134.386l.127.575c-.075.28-.054.704-.235.818-.562.362-1.198.609-1.803.899-.245-.582-.845-1.376-.652-1.702.274-.462 1.11-.632 1.743-.825.227-.068.544.15.82.235zM89.315 134.594l-.053.109c.387-.247.822-.742 1.149-.678.536.106 1.352.516 1.414.904.088.529-.274 1.363-.719 1.672-.288.198-1.197-.171-1.58-.542-.281-.273-.157-.962-.211-1.465zM151.761 129.804l2.071 3.184c-.058 1.18-.822.798-1.327.493-.471-.285-.795-.815-1.183-1.236l.078-.028.361-2.413zM90.186 132.864c.704-1.011 1.418-1.958 2.118-2.97.122.789.397 2.243.397 2.243-.449.442-.845.991-1.38 1.27-.226.118-.749-.345-1.135-.543zM165.265 115.068l.679-.348c1.042.81 1.132 1.947-.191 3.8l-.488-3.452zM115.796 136.389l.021-2.01c.45.007 1.226-.122 1.295.047.22.523.335 1.215.161 1.729-.072.218-.958.164-1.477.234zM92.684 132.275l-.36-2.365c.75-.896 1.505-1.785 2.259-2.679l1.221 3.396-3.12 1.648zM151.752 129.682l-.398 2.51c-.873-.467-1.749-.932-3.065-1.63l1.184-3.352 2.279 2.472zM115.865 123.295l-.979-1.114-.336.121c.193.8.383 1.603.573 2.404-.244-.469-.693-.931-.706-1.407-.078-3.104.006-8.511.208-7.997l1.943.115c.843.134 1.679.371 2.522.385 1.93.03 2.337-.641 1.657-2.515 1.087-1.865 1.362-1.86 2.494.04-.557.929-.667 1.963.478 2.321.947.297 2.065.06 3.11.056l-.017-.609 2.149.434c.268-.583.507-.329.726-.812-.026 3.078-.036 5.42-.125 8.494-.016.522-.424 1.035-.648 1.554.169-.776.337-1.555.604-2.801l-1.136.915c-.445-1.776-1.525-2.621-3.479-2.489-2.143.146-4.295.018-6.441.038-1.859.017-2.691.949-2.597 2.867zm13.275-3.205v-3.821h-14.309v3.821h14.309zM138.884 131.537l-2.853-.506c.069-1.11.14-2.203.22-3.403h4.584l.011.157-1.962.145v3.607zM131.416 131.646v-3.572l-2.54-.554h5.05c.141 1.179.27 2.224.405 3.39l-2.915.736zM144.287 126.98c.656.265 1.25.522 2.174.892l.303 2.781c-1.08.57-1.992 1.054-2.908 1.544.121-1.742.306-3.476.431-5.217zM105.101 131.636v-3.59c-.942-.191.074-.362-.751-.531h3.326l.375 3.409-2.95.712zM113.375 127.532c-.776.164.145.329-.822.533l.213 3.398c-.969-.133-1.937-.267-3.065-.425l.356-3.507 3.318.001zM104.541 113.688c2.868-.027 5.733-.027 8.604.005.418.006-.213.229.205.353-3.699.001-9.222-.354-8.809-.358zM126.814 115.095l.017.609c-1.045.004-2.163.241-3.11-.056-1.145-.358-1.034-1.393-.478-2.321l2.104-.427 1.467 2.195zM120.749 113.287c.68 1.874.272 2.545-1.657 2.515-.844-.014-1.68-.251-2.522-.385l2.111-2.461 2.068.331zM125.755 132.191l-2.866-1.519c.073-.805.174-1.892.274-3.023l1.84-.253v-1.768c.251 2.188.505 4.374.752 6.563zM118.625 126.976l2.232.896.303 2.788-2.901 1.537.366-5.221zM100.155 132.188l-2.867-1.52c.07-.796.171-1.884.275-3.017l1.843-.259v-1.754c.249 2.185.498 4.366.749 6.55zM129.14 120.09h-14.309v-3.821h14.309v3.821z"/></g><path fill-rule="evenodd" clip-rule="evenodd" d="M125.494 7.74l42.785 23.446 42.792 23.444c1.805 1.001 2.627 3.611 1.815 5.836-.598 1.649-1.909 2.623-3.28 2.623v.009h-5.458v87.67h-161.81799999999998v-87.67h-3.882c-1.984 0-3.597-1.986-3.597-4.432 0-1.942 1.01-3.589 2.414-4.192l42.512-23.288 42.792-23.446c.967-.526 2.025-.489 2.921.004l.004-.004zm-69.866 55.358l.146 81.25h135.085l-.017-81.25h-135.214zm4.893 7.09v18.161h16.421v-18.161h-16.421zm19.768 0v18.161h16.42v-18.161h-16.42zm27.015 0v18.161h16.421v-18.161h-16.421zm19.768 0v18.161h16.421v-18.161h-16.421zm24.711 0v18.161h16.419v-18.161h-16.419zm19.766 0v18.161h16.422v-18.161h-16.422z"/></g></svg>