<svg xmlns="http://www.w3.org/2000/svg" width="120.167" height="68.167" viewBox="0 0 120.167 68.167"><path fill-rule="evenodd" clip-rule="evenodd" fill="#fff" d="M87.404 22.435c-3.13 3.142-5.959 6.003-8.819 8.837-.53.524-1.141.987-1.777 1.378-3.963 2.45-5.494 7.124-3.645 11.218 1.818 4.02 6.398 6.16 10.547 4.924 4.341-1.295 7.012-5.465 6.18-10.009-.254-1.38.089-2.22 1.128-2.912 1.075-.712 2.188-1.367 3.561-2.22 1.512 2.453 3.101 4.621 4.241 7.004 1.023 2.141.455 4.331-1.443 5.815-7.814 6.112-15.647 12.202-23.603 18.13-1.069.796-2.954 1.021-4.342.788-17.37-2.921-34.716-5.976-52.07-9-3.25-.567-6.506-1.114-9.741-1.745-3.448-.676-5.072-2.873-4.484-6.308 2.4-14.028 4.842-28.045 7.338-42.057.623-3.495 3.029-5.06 6.56-4.446 20.524 3.563 41.05 7.116 61.552 10.803 1.438.258 3.055 1.249 3.959 2.396 1.942 2.455 3.471 5.24 4.858 7.404zM88.201 59.577c1.683-1.293 3.249-2.635 4.967-3.736.487-.313 1.446-.031 2.145.15 6.429 1.645 13.875-1.717 16.308-7.405 3.585-8.381-2.977-18.001-12.516-18.351-7.138-.258-12.421 3.602-14.335 10.473-.586 2.1-2.023 3.093-3.874 2.675-1.815-.407-2.68-1.943-2.312-4.116 1.27-7.504 8.132-13.808 16.428-15.092 10.673-1.654 21.283 5.355 23.426 15.477 2.236 10.576-4.822 20.831-15.517 22.54-6.013.962-10.769.151-14.72-2.615z"/><path fill="#0E5461" d="M17.062 20.547c1.117.195 1.884.646 2.301 1.352.366.617.463 1.407.296 2.367l-.337 1.932c-.164.939-.659 1.673-1.488 2.199l.475 6.059-2.17-.378-.344-5.216-.179-.032-1.155-.201-.875 5.006-2.005-.349 2.32-13.291 3.161.552zm.64 3.411c.133-.77-.179-1.221-.944-1.354l-1.209-.21-.743 4.252 1.209.211c.319.055.609-.011.87-.198.261-.188.421-.441.479-.759l.338-1.942zm3.691 11.035l1.787-10.234-1.708-.296.243-1.4c.492.028.983-.075 1.47-.306.49-.233.87-.551 1.137-.957l1.397.244-2.32 13.298-2.006-.349zm10.653-1.271c-.157.884-.598 1.578-1.329 2.085-.729.507-1.529.684-2.399.533-.882-.153-1.583-.594-2.093-1.318-.513-.729-.688-1.53-.537-2.407l1.267-7.253c.153-.883.598-1.581 1.327-2.09.731-.51 1.533-.69 2.413-.536.883.153 1.578.594 2.086 1.325.505.729.682 1.531.53 2.407l-1.265 7.254zm-.809-7.659c.055-.318-.01-.611-.196-.875-.188-.265-.439-.425-.758-.48-.319-.056-.608.011-.873.197-.261.187-.42.439-.476.759l-1.268 7.263c-.056.318.008.611.193.875.184.266.433.425.752.481.317.055.608-.01.876-.197.265-.187.424-.44.48-.758l1.27-7.265zm8.887 9.065c-.152.884-.595 1.578-1.324 2.086-.731.508-1.53.684-2.401.532-.883-.155-1.58-.593-2.092-1.318-.51-.728-.688-1.529-.536-2.407l1.265-7.253c.156-.883.6-1.581 1.329-2.09.729-.511 1.533-.69 2.412-.536.884.153 1.579.594 2.084 1.322.506.731.685 1.534.531 2.411l-1.268 7.253zm-.804-7.658c.056-.317-.008-.609-.195-.874-.187-.266-.441-.428-.757-.48-.321-.059-.61.008-.874.197-.26.186-.418.438-.475.757l-1.269 7.264c-.056.318.01.609.191.875.184.265.435.425.754.481.315.055.608-.01.875-.196.265-.188.425-.441.481-.759l1.269-7.265zm1.654 10.932l.351-1.995 2.003.35-.347 1.991-.995 1.402-.843-.146.743-1.445-.912-.157zm10.28-1.336c-.156.881-.597 1.576-1.328 2.084-.727.507-1.527.686-2.397.534-.885-.154-1.582-.595-2.094-1.321-.511-.726-.689-1.528-.536-2.403l1.267-7.255c.155-.884.596-1.58 1.327-2.091.729-.51 1.535-.688 2.411-.536.886.154 1.579.594 2.087 1.325.507.729.683 1.531.529 2.407l-1.266 7.256zm-.806-7.66c.055-.319-.011-.61-.196-.876-.187-.264-.439-.423-.757-.48-.318-.054-.609.01-.871.198-.264.188-.421.439-.478.76l-1.268 7.263c-.056.319.008.61.192.875.182.265.432.425.751.48.318.053.611-.01.874-.197.267-.188.428-.441.483-.76l1.27-7.263zm8.89 9.066c-.154.883-.598 1.579-1.328 2.084-.729.508-1.528.686-2.398.534-.886-.154-1.583-.594-2.094-1.319-.511-.726-.69-1.528-.536-2.404l1.265-7.254c.156-.885.598-1.581 1.33-2.09.73-.512 1.532-.691 2.41-.538.885.154 1.58.594 2.086 1.325.506.729.685 1.533.53 2.408l-1.265 7.254zm-.807-7.659c.056-.318-.008-.61-.196-.876-.186-.265-.44-.424-.757-.48-.317-.056-.608.011-.87.198s-.422.44-.478.76l-1.268 7.263c-.058.319.008.609.191.875s.431.425.752.48c.318.056.609-.008.874-.197.268-.187.428-.438.483-.757l1.269-7.266zm8.888 9.065c-.153.883-.596 1.579-1.326 2.084-.729.509-1.526.688-2.398.534-.885-.154-1.582-.594-2.092-1.318-.512-.726-.689-1.529-.539-2.405l1.268-7.254c.153-.885.598-1.582 1.326-2.092.731-.511 1.535-.689 2.412-.536.885.153 1.58.595 2.086 1.324.506.729.682 1.532.529 2.409l-1.266 7.254zm-.804-7.658c.056-.319-.012-.611-.198-.876s-.438-.426-.757-.479c-.318-.057-.608.008-.871.197-.263.187-.422.439-.477.759l-1.269 7.263c-.056.319.009.609.192.877.184.262.433.424.752.479.318.054.61-.01.877-.197.265-.187.426-.441.482-.758l1.269-7.265z"/></svg>