<svg xmlns="http://www.w3.org/2000/svg" width="120.167" height="68.167" viewBox="0 0 120.167 68.167"><path fill-rule="evenodd" clip-rule="evenodd" fill="#fff" d="M87.404 22.435c-3.13 3.142-5.959 6.003-8.819 8.837-.53.524-1.141.987-1.777 1.378-3.963 2.45-5.494 7.124-3.645 11.218 1.818 4.02 6.398 6.16 10.547 4.924 4.341-1.295 7.012-5.465 6.18-10.009-.254-1.38.089-2.22 1.128-2.912 1.075-.712 2.188-1.367 3.561-2.22 1.512 2.453 3.101 4.621 4.241 7.004 1.023 2.141.455 4.331-1.443 5.815-7.814 6.112-15.647 12.202-23.603 18.13-1.069.796-2.954 1.021-4.342.788-17.37-2.921-34.716-5.976-52.07-9-3.25-.567-6.506-1.114-9.741-1.745-3.448-.676-5.072-2.873-4.484-6.308 2.4-14.028 4.842-28.045 7.338-42.057.623-3.495 3.029-5.06 6.56-4.446 20.524 3.563 41.05 7.116 61.552 10.803 1.438.258 3.055 1.249 3.959 2.396 1.942 2.455 3.471 5.24 4.858 7.404zM88.201 59.577c1.683-1.293 3.249-2.635 4.967-3.736.487-.313 1.446-.031 2.145.15 6.429 1.645 13.875-1.717 16.308-7.405 3.585-8.381-2.977-18.001-12.516-18.351-7.138-.258-12.421 3.602-14.335 10.473-.586 2.1-2.023 3.093-3.874 2.675-1.815-.407-2.68-1.943-2.312-4.116 1.27-7.504 8.132-13.808 16.428-15.092 10.673-1.654 21.283 5.355 23.426 15.477 2.236 10.576-4.822 20.831-15.517 22.54-6.013.962-10.769.151-14.72-2.615z"/><path fill="#0E5461" d="M44.803 14.287c3.311.578 5.582 1.916 6.818 4.008 1.084 1.828 1.373 4.17.877 7.016l-1 5.727c-.486 2.781-1.953 4.957-4.41 6.518l1.406 17.959-6.432-1.121-1.02-15.461-.529-.096-3.424-.594-2.591 14.837-5.943-1.033 6.875-39.393 9.373 1.633zm1.894 10.111c.396-2.283-.529-3.619-2.797-4.016l-3.584-.623-2.203 12.604 3.584.625c.945.164 1.807-.033 2.58-.588.773-.559 1.248-1.307 1.42-2.248l1-5.754z"/></svg>