<svg xmlns="http://www.w3.org/2000/svg" width="855.795" height="410" viewBox="0 0 855.795 410"><g fill="#333"><path d="M-152.68 85.793c-.141-5.379-4.371-9.568-9.613-9.529-4.871.033-9.492 4.805-9.523 9.83-.027 5.235 4.168 9.139 9.836 9.149 5.636.024 9.445-3.853 9.3-9.45zM-148.551 220.288c-.012 5.251 4.34 9.588 9.578 9.554 5.395-.034 9.533-4.174 9.527-9.531-.008-5.379-4.117-9.503-9.502-9.544-5.282-.04-9.585 4.236-9.603 9.521zM-195.297 220.257c-.027 5.326 4.113 9.516 9.469 9.596 5.193.075 9.6-4.288 9.629-9.512.02-5.234-4.326-9.592-9.557-9.568-5.394.012-9.512 4.112-9.541 9.484zM-171.699 63.401c-.135 4.961 4.445 9.725 9.406 9.785 5.408.061 9.479-3.923 9.586-9.401.104-5.463-3.797-9.572-9.244-9.728-5.297-.144-9.592 3.975-9.748 9.344zM-171.684 130.979c.08 5.22 4.51 9.435 9.781 9.302 5.543-.145 9.406-4.178 9.227-9.648-.176-5.614-4.223-9.621-9.535-9.442-5.078.178-9.547 4.789-9.473 9.788zM-176.305 130.435c-.176-5.045-4.928-9.512-9.914-9.317-5.354.209-9.129 4.333-9.094 9.934.025 5.433 4.129 9.362 9.633 9.229 5-.125 9.543-4.889 9.375-9.846zM-105.234 176.015c.168-5.014-4.189-9.621-9.328-9.867-5.615-.268-9.564 3.45-9.645 9.072-.076 5.699 3.676 9.896 8.936 10.018 5.044.11 9.876-4.326 10.037-9.223zM-152.688 108.757c.273-5.577-3.465-9.576-9.055-9.675-5.654-.1-9.922 3.687-10.039 8.918-.117 5.028 4.328 9.884 9.209 10.062 4.973.184 9.637-4.215 9.885-9.305zM-139.816 143.618c-5.266.612-9.111 5.242-8.656 10.408.492 5.444 4.631 8.72 10.447 8.271 5.627-.435 9.098-4.527 8.58-10.108-.489-5.197-5.285-9.165-10.371-8.571zM-129.436 85.793c-.145-5.087-4.701-9.575-9.658-9.519-4.977.057-9.488 4.809-9.336 9.83.174 5.502 4.084 9.169 9.773 9.162 5.645-.011 9.386-3.852 9.221-9.473zM-195.309 85.938c-.104 5.565 3.76 9.416 9.365 9.321 5.408-.088 9.783-4.266 9.756-9.31-.035-4.965-4.721-9.69-9.596-9.664-4.974.024-9.421 4.533-9.525 9.653zM-162.236 207.323c5.592.022 9.596-3.861 9.545-9.256-.051-5.415-4.195-9.812-9.244-9.801-5.021.004-9.729 4.581-9.754 9.484-.036 5.296 4.171 9.554 9.453 9.573zM-114.635 140.281c4.975-.069 9.521-4.782 9.416-9.758-.102-4.896-4.848-9.382-9.9-9.355-5.227.034-9.115 4.253-9.084 9.85.031 5.42 4.082 9.339 9.568 9.263zM-171.773 152.957c-.164 5.255 3.838 9.174 9.539 9.345 5.924.175 9.521-3.2 9.57-8.987.047-5.275-4.062-9.541-9.348-9.708-5.109-.157-9.595 4.142-9.761 9.35zM-195.309 153.006c-.1 5.46 3.832 9.508 9.289 9.58 5.184.075 9.68-4.182 9.812-9.272.133-5.143-4.23-9.59-9.432-9.616-5.38-.034-9.573 4.002-9.669 9.308zM-210.014 185.226c5.289.202 9.396-3.899 9.439-9.428.047-5.646-3.766-9.674-9.145-9.663-5.145.013-9.688 4.353-9.816 9.378-.12 4.86 4.456 9.524 9.522 9.713zM-138.793 118.063c5.014-.145 9.357-4.664 9.381-9.759.021-5.52-3.85-9.286-9.482-9.222-5.271.068-9.506 4.276-9.539 9.484-.036 4.932 4.745 9.642 9.64 9.497zM-162.176 389.55c5.254-.068 9.449-4.311 9.4-9.53-.049-5.497-3.893-9.328-9.404-9.37-5.242-.034-9.668 4.272-9.564 9.313.113 5.034 4.701 9.64 9.568 9.587zM-138.344 389.458c5.307-.734 8.828-3.651 8.812-9.495-.006-5.665-4.027-9.561-9.498-9.358-5.438.197-9.537 4.474-9.348 9.75.171 5.063 5.103 9.796 10.034 9.103zM-148.412 130.245c-.273 4.904 4.162 9.777 9.104 10.024 5.328.267 9.57-3.618 9.859-9.039.289-5.433-3.607-9.872-8.822-10.04-5.016-.167-9.866 4.174-10.141 9.055zM-209.834 140.281c5.373-.069 9.289-4.143 9.26-9.63-.027-5.478-4.143-9.628-9.391-9.469-5.078.164-9.646 4.76-9.57 9.637.072 4.969 4.736 9.515 9.701 9.462zM-148.445 357.471c.133 5.464 4.047 9.226 9.662 9.271 5.666.042 9.406-3.687 9.334-9.317-.066-5.212-4.441-9.606-9.479-9.507-5.218.087-9.634 4.532-9.517 9.553zM-114.555 162.506c5.432-.465 8.887-3.48 9.281-9.024.389-5.432-4.457-10.097-9.834-9.99-4.998.1-9.199 4.691-9.1 9.934.106 5.474 4.28 9.548 9.653 9.08zM-139.186 185.151c4.877.145 9.629-4.455 9.721-9.397.094-5.543-3.76-9.584-9.168-9.605-5.639-.023-9.607 3.663-9.789 9.111-.18 5.001 4.256 9.749 9.236 9.891zM-162.057 185.139c5.268-.134 9.305-4.291 9.369-9.66.064-5.333-3.938-9.259-9.48-9.298-5.189-.033-9.492 4.246-9.521 9.477-.036 4.904 4.742 9.614 9.632 9.481zM-171.768 220.03c-.197 5.113 4.045 9.655 9.186 9.823 5.242.182 9.646-3.865 9.883-9.074.258-5.565-3.428-9.465-9.035-9.568-5.672-.103-9.83 3.553-10.034 8.819zM-162.066 366.708c5.67.068 9.43-3.629 9.387-9.218-.049-5.277-4.162-9.37-9.488-9.451-5.061-.063-9.58 4.376-9.605 9.439-.025 4.977 4.389 9.162 9.706 9.23zM-200.539 220.707c.193-5.52-3.502-9.5-9.035-9.735-5.381-.222-9.68 3.721-9.859 9.017-.186 5.288 3.906 9.721 9.094 9.854 5.314.131 9.612-3.875 9.8-9.136zM-185.691 366.731c5.285-.179 9.414-4.421 9.375-9.605-.039-4.977-4.654-9.307-9.83-9.219-4.963.08-9.213 4.642-9.15 9.838.067 5.57 3.929 9.184 9.605 8.986zM-195.264 379.564c-.129 5.732 3.643 9.872 9.006 9.895 5.205.023 9.686-4.283 9.801-9.427.105-4.977-4.484-9.438-9.693-9.438-5.336.011-8.991 3.606-9.114 8.97zM-219.512 379.898c-.131 4.631 4.195 9.317 8.895 9.63 5.158.334 9.801-3.873 9.982-9.051.191-5.577-3.572-9.675-9.059-9.838-5.351-.18-9.673 3.895-9.818 9.259zM-209.971 118.063c4.984-.095 9.439-4.577 9.396-9.675-.043-5.639-2.93-8.872-8.621-9.249-5.43-.357-10.258 4.117-10.34 9.394-.083 4.908 4.649 9.617 9.565 9.53zM-185.945 117.96c5.02-.012 9.633-4.485 9.738-9.451.104-4.766-4.559-9.316-9.658-9.427-5.586-.118-9.471 3.676-9.451 9.218.007 5.152 4.394 9.668 9.371 9.66zM-138.996 207.323c5.389.061 9.402-3.861 9.523-9.317.121-5.208-4.166-9.758-9.184-9.75-4.965.011-9.705 4.584-9.773 9.428-.066 4.963 4.444 9.581 9.434 9.639zM-176.305 175.286c-.301-5.038-4.855-9.2-9.986-9.138-5.365.067-9.105 4.135-8.963 9.75.121 5.189 4.549 9.408 9.703 9.245 4.953-.149 9.539-5.038 9.246-9.857zM-195.277 197.744c0 5.481 3.887 9.5 9.275 9.567 4.975.065 9.615-4.413 9.725-9.386.094-4.809-4.547-9.503-9.547-9.647-4.996-.153-9.453 4.306-9.453 9.466zM-209.971 162.301c5.475.061 9.188-3.337 9.416-8.637.232-5.447-3.812-9.952-8.982-9.99-5.562-.046-9.701 3.815-9.881 9.219-.18 5.52 3.658 9.344 9.447 9.408zM-114.635 117.918c5.059-.19 9.328-4.311 9.408-9.085.086-5.312-4.748-9.94-10.188-9.74-5.32.194-8.879 3.965-8.781 9.295.106 5.3 4.534 9.716 9.561 9.53zM-105.369 379.564c-.178-5.041-4.24-8.925-9.328-8.925-5.631.011-9.51 3.838-9.441 9.339.072 5.417 4.279 9.596 9.5 9.428 5.173-.167 9.452-4.71 9.269-9.842zM-115.191 229.818c5.1.21 9.725-4.086 9.857-9.16.133-5.155-4.158-9.646-9.279-9.713-5.375-.072-9.68 3.892-9.857 9.088-.175 5.064 4.103 9.572 9.279 9.785zM-200.566 357.358c-.129-5.231-4.471-9.55-9.5-9.439-5.146.121-9.461 4.565-9.387 9.674.074 4.764 4.93 9.439 9.787 9.428 5.273-.013 9.232-4.22 9.1-9.663zM-219.414 197.816c-.164 4.903 4.398 9.51 9.447 9.529 5.395.012 9.324-3.93 9.385-9.431.055-5.255-4.184-9.671-9.252-9.648-5.008.012-9.404 4.394-9.58 9.55zM-114.73 367.008c4.891-.167 9.506-4.964 9.385-9.762-.129-5.154-4.576-9.45-9.682-9.362-4.973.092-9.191 4.618-9.154 9.819.044 5.422 4.177 9.485 9.451 9.305zM-114.756 207.333c4.77-.022 9.242-4.31 9.416-9.016.189-5.145-4.197-9.896-9.213-9.987-5.15-.087-9.598 4.288-9.619 9.48-.023 5.483 3.994 9.55 9.416 9.523zM-233.809 144.591c-4.834.407-8.275 3.073-8.432 8.134-.168 5.326 3.092 8.457 8.252 9.092 4.492.556 8.654-3.762 8.717-8.525.061-4.751-3.964-9.085-8.537-8.701zM-91.148 161.829c4.631.267 8.625-4.051 8.576-8.738-.057-4.69-4.182-8.693-8.803-8.541-4.604.148-8.254 4.28-8.104 10.032.377 4.318 3.432 6.958 8.331 7.247zM-234.365 139.021c5.314.111 8.586-2.557 9.088-7.912.439-4.748-3.445-8.736-8.305-8.701-5.477.034-8.053 3.268-8.797 8.188.443 5.123 2.766 8.316 8.014 8.425zM-99.438 175.689c.023 5.015 2.965 7.936 7.955 8.339 4.883.396 9.082-3.968 8.938-8.947-.139-4.729-3.35-7.651-8.445-7.675-5.563-.045-8.473 2.891-8.448 8.283zM-194.365 402.919c.557 5.006 3.453 7.669 8.635 7.502 4.955-.167 8.701-4.021 8.203-8.762-.521-5.033-3.609-7.514-8.045-7.734-5.133.221-9.291 4.574-8.793 8.994zM-106.49 402.295c-.365-4.798-2.811-8.058-8.016-8.317-4.775-.243-8.773 3.597-8.834 8.306-.062 4.664 3.275 8.035 8.053 8.138 5.084.098 9.146-3.463 8.797-8.127zM-233.494 184.036c5.049-.289 7.971-3.15 8.217-8.245.242-4.956-3.51-8.452-8.648-8.385-5.059.065-8.303 3.192-8.266 7.972.039 4.778 4.021 8.923 8.697 8.658zM-218.254 402.996c.602 5.174 3.961 7.503 8.969 7.392 5.375-.125 7.988-3.474 7.779-8.416-.213-4.941-3.352-7.757-7.838-8.004-5.431.178-9.449 4.363-8.91 9.028zM-91.398 138.995c4.988.301 8.859-3.313 8.75-8.29-.105-5.09-2.951-7.963-8.018-8.289-4.906-.323-8.822 3.477-8.836 8.971.459 4.259 2.979 7.3 8.104 7.608zM-170.318 401.85c-.367 5.087 2.574 8.081 7.688 8.491 4.877.399 9.217-3.428 9-8.104-.229-5.04-3.207-7.768-8.092-8.312-5.35.076-8.245 3.071-8.596 7.925zM-130.893 402.527c.096-5.041-2.609-8.068-7.662-8.525-4.805-.434-8.887 3.462-8.674 8.248.225 5.053 3.125 7.716 7.967 8.203 5.194-.279 8.274-2.747 8.369-7.926zM-264.986 152.922c.033 4.844 2.703 7.804 7.551 7.738 4.459-.068 7.252-2.963 7.369-7.347.121-4.899-2.994-7.281-7.697-7.669-4.647.268-7.255 2.648-7.223 7.278zM-74.66 153.353c.127 4.413 2.941 7.273 7.402 7.308 4.85.043 7.523-2.94 7.527-7.779.006-4.634-2.621-7.016-7.332-7.232-4.662.402-7.746 2.81-7.597 7.703zM-162.221 432.078c4.887-.074 7.627-3.135 7.596-7.742-.025-4.487-3.129-7.013-7.562-6.891-4.457.11-7.045 2.624-7.029 7.983.15 3.881 2.267 6.72 6.995 6.65zM-193.379 425.447c.223 4.465 3.465 6.857 7.904 6.547 4.518-.314 6.859-3.064 6.686-7.705-.172-4.685-2.711-6.936-7.256-7.081-4.838.705-7.574 3.642-7.334 8.239zM-257.637 182.795c5.002.016 7.691-2.838 7.586-7.57-.109-4.87-3.557-7.408-8.115-7.229-4.475.18-6.51 3.451-6.928 7.256.406 5.101 2.844 7.525 7.457 7.543zM-59.777 175.643c-.074-4.843-3.008-7.682-7.684-7.56-4.268.114-7.293 2.797-7.229 7.343.064 4.771 2.82 7.385 7.818 7.419 4.464-.29 7.169-2.584 7.095-7.202zM-139.082 432.016c4.629.242 7.434-2.607 7.59-6.98.154-4.33-2.355-7.469-6.99-7.625-4.516-.156-7.213 2.261-7.451 6.234-.135 5.453 2.322 8.113 6.851 8.371zM-115.023 432.016c4.547.023 7.24-2.738 7.227-7.312-.002-4.565-2.707-7.316-7.25-7.292-4.523.022-6.875 2.926-7.535 7.322.669 4.375 3.054 7.27 7.558 7.282zM-209.441 431.994c4.363-.268 7.375-2.906 6.951-7.514-.387-4.21-2.92-7.294-7.596-7.07-4.594.209-6.736 3.162-6.973 7.681.602 4.417 3.055 7.19 7.618 6.903z"/><path fill-rule="evenodd" clip-rule="evenodd" d="M-161.98 95.244c5.637.023 9.445-3.854 9.301-9.45-.141-5.379-4.371-9.568-9.613-9.529-4.871.033-9.492 4.805-9.523 9.83-.029 5.235 4.167 9.138 9.835 9.149zM-138.947 210.766c-5.283-.039-9.586 4.237-9.604 9.521-.012 5.251 4.34 9.588 9.578 9.554 5.395-.034 9.533-4.174 9.527-9.531-.007-5.379-4.116-9.503-9.501-9.544zM-185.756 210.773c-5.395.012-9.512 4.112-9.541 9.484-.027 5.326 4.113 9.516 9.469 9.596 5.193.075 9.6-4.288 9.629-9.512.019-5.234-4.326-9.591-9.557-9.568zM-161.951 54.057c-5.297-.145-9.592 3.975-9.748 9.344-.135 4.961 4.445 9.725 9.406 9.785 5.408.061 9.479-3.923 9.586-9.401.103-5.463-3.797-9.573-9.244-9.728zM-162.211 121.19c-5.078.179-9.547 4.79-9.473 9.789.08 5.22 4.51 9.435 9.781 9.302 5.543-.145 9.406-4.178 9.227-9.648-.176-5.615-4.222-9.622-9.535-9.443zM-185.68 140.281c5-.125 9.543-4.889 9.375-9.846-.176-5.045-4.928-9.512-9.914-9.317-5.354.209-9.129 4.333-9.094 9.934.026 5.432 4.129 9.362 9.633 9.229zM-115.271 185.238c5.045.11 9.877-4.326 10.037-9.223.168-5.014-4.189-9.621-9.328-9.867-5.615-.268-9.564 3.45-9.645 9.072-.076 5.699 3.676 9.897 8.936 10.018zM-162.572 118.063c4.973.183 9.637-4.216 9.885-9.306.273-5.577-3.465-9.576-9.055-9.675-5.654-.1-9.922 3.687-10.039 8.918-.117 5.029 4.328 9.884 9.209 10.063zM-129.445 152.189c-.488-5.197-5.285-9.165-10.371-8.571-5.266.612-9.111 5.242-8.656 10.408.492 5.444 4.631 8.72 10.447 8.271 5.627-.434 9.097-4.527 8.58-10.108zM-138.656 95.267c5.645-.012 9.385-3.854 9.221-9.474-.145-5.087-4.701-9.575-9.658-9.519-4.977.057-9.488 4.809-9.336 9.83.173 5.503 4.083 9.17 9.773 9.163zM-185.783 76.286c-4.975.023-9.422 4.532-9.525 9.652-.104 5.565 3.76 9.416 9.365 9.321 5.408-.088 9.783-4.266 9.756-9.31-.036-4.964-4.721-9.69-9.596-9.663zM-171.689 197.75c-.035 5.296 4.172 9.554 9.453 9.572 5.592.022 9.596-3.861 9.545-9.256-.051-5.415-4.195-9.812-9.244-9.801-5.022.005-9.729 4.582-9.754 9.485zM-124.203 131.017c.031 5.421 4.082 9.34 9.568 9.264 4.975-.069 9.521-4.782 9.416-9.758-.102-4.896-4.848-9.382-9.9-9.355-5.227.034-9.115 4.252-9.084 9.849zM-162.012 143.606c-5.109-.156-9.596 4.143-9.762 9.351-.164 5.255 3.838 9.174 9.539 9.345 5.924.175 9.521-3.2 9.57-8.987.048-5.276-4.062-9.542-9.347-9.709zM-185.639 143.698c-5.381-.034-9.574 4.002-9.67 9.309-.1 5.46 3.832 9.508 9.289 9.58 5.184.075 9.68-4.182 9.812-9.272.134-5.144-4.23-9.591-9.431-9.617zM-219.535 175.513c-.121 4.859 4.455 9.523 9.521 9.713 5.289.202 9.396-3.899 9.439-9.428.047-5.646-3.766-9.674-9.145-9.663-5.143.013-9.686 4.353-9.815 9.378zM-148.434 108.567c-.035 4.931 4.746 9.641 9.641 9.496 5.014-.145 9.357-4.664 9.381-9.759.021-5.52-3.85-9.286-9.482-9.222-5.272.069-9.506 4.277-9.54 9.485zM-171.744 379.963c.113 5.033 4.701 9.64 9.568 9.587 5.254-.068 9.449-4.311 9.4-9.53-.049-5.497-3.893-9.328-9.404-9.37-5.242-.034-9.668 4.272-9.564 9.313zM-148.377 380.355c.17 5.063 5.102 9.796 10.033 9.104 5.307-.734 8.828-3.651 8.812-9.495-.006-5.665-4.027-9.561-9.498-9.358-5.437.196-9.536 4.473-9.347 9.749zM-138.271 121.19c-5.016-.167-9.865 4.174-10.141 9.055-.273 4.904 4.162 9.777 9.104 10.024 5.328.267 9.57-3.618 9.859-9.039.289-5.433-3.608-9.872-8.822-10.04zM-219.535 130.819c.072 4.969 4.736 9.516 9.701 9.462 5.373-.069 9.289-4.143 9.26-9.63-.027-5.478-4.143-9.628-9.391-9.469-5.078.164-9.646 4.76-9.57 9.637zM-138.928 347.918c-5.219.087-9.635 4.531-9.518 9.553.133 5.464 4.047 9.226 9.662 9.271 5.666.042 9.406-3.687 9.334-9.317-.066-5.212-4.441-9.606-9.478-9.507zM-124.207 153.425c.105 5.475 4.279 9.549 9.652 9.081 5.432-.465 8.887-3.48 9.281-9.024.389-5.432-4.457-10.097-9.834-9.99-4.997.099-9.199 4.691-9.099 9.933zM-148.422 175.259c-.18 5.002 4.256 9.75 9.236 9.892 4.877.145 9.629-4.455 9.721-9.397.094-5.543-3.76-9.584-9.168-9.605-5.638-.024-9.607 3.662-9.789 9.11zM-171.689 175.658c-.035 4.904 4.742 9.614 9.633 9.481 5.268-.134 9.305-4.291 9.369-9.66.064-5.333-3.938-9.259-9.48-9.298-5.19-.033-9.493 4.246-9.522 9.477zM-161.734 211.21c-5.672-.103-9.83 3.554-10.033 8.819-.197 5.113 4.045 9.655 9.186 9.823 5.242.182 9.646-3.865 9.883-9.074.257-5.565-3.429-9.464-9.036-9.568zM-171.773 357.479c-.023 4.976 4.391 9.161 9.707 9.229 5.67.068 9.43-3.629 9.387-9.218-.049-5.277-4.162-9.37-9.488-9.451-5.062-.063-9.581 4.377-9.606 9.44zM-210.34 229.841c5.314.133 9.613-3.873 9.801-9.135.193-5.52-3.502-9.5-9.035-9.735-5.381-.222-9.68 3.721-9.859 9.017-.186 5.288 3.906 9.72 9.093 9.853zM-195.297 357.745c.068 5.57 3.93 9.185 9.605 8.986 5.285-.179 9.414-4.421 9.375-9.605-.039-4.977-4.654-9.307-9.83-9.219-4.962.08-9.212 4.641-9.15 9.838zM-186.15 370.593c-5.336.012-8.99 3.606-9.113 8.971-.129 5.732 3.643 9.872 9.006 9.895 5.205.023 9.686-4.283 9.801-9.427.104-4.977-4.485-9.439-9.694-9.439zM-209.693 370.639c-5.352-.18-9.674 3.895-9.818 9.259-.131 4.631 4.195 9.317 8.895 9.63 5.158.334 9.801-3.873 9.982-9.051.191-5.577-3.573-9.675-9.059-9.838zM-219.535 108.533c-.084 4.908 4.648 9.617 9.564 9.53 4.984-.095 9.439-4.577 9.396-9.675-.043-5.639-2.93-8.872-8.621-9.249-5.429-.357-10.257 4.117-10.339 9.394zM-195.316 108.3c.008 5.151 4.395 9.668 9.371 9.66 5.02-.012 9.633-4.485 9.738-9.451.104-4.766-4.559-9.316-9.658-9.427-5.586-.118-9.471 3.676-9.451 9.218zM-148.43 197.683c-.066 4.964 4.443 9.582 9.434 9.64 5.389.061 9.402-3.861 9.523-9.317.121-5.208-4.166-9.758-9.184-9.75-4.964.01-9.704 4.583-9.773 9.427zM-185.551 185.143c4.953-.149 9.539-5.038 9.246-9.857-.301-5.038-4.855-9.2-9.986-9.138-5.365.067-9.105 4.135-8.963 9.75.121 5.189 4.549 9.408 9.703 9.245zM-185.824 188.278c-4.996-.152-9.453 4.307-9.453 9.466 0 5.481 3.887 9.5 9.275 9.567 4.975.065 9.615-4.413 9.725-9.386.093-4.808-4.547-9.503-9.547-9.647zM-219.418 152.893c-.18 5.52 3.658 9.344 9.447 9.408 5.475.061 9.188-3.337 9.416-8.637.232-5.447-3.812-9.952-8.982-9.99-5.563-.046-9.701 3.816-9.881 9.219zM-124.195 108.388c.105 5.3 4.533 9.716 9.561 9.53 5.059-.19 9.328-4.311 9.408-9.085.086-5.312-4.748-9.94-10.188-9.74-5.32.195-8.879 3.965-8.781 9.295zM-114.639 389.406c5.174-.167 9.453-4.71 9.27-9.842-.178-5.041-4.24-8.925-9.328-8.925-5.631.011-9.51 3.838-9.441 9.339.072 5.417 4.279 9.596 9.499 9.428zM-124.471 220.033c-.174 5.064 4.104 9.572 9.279 9.785 5.1.21 9.725-4.086 9.857-9.16.133-5.155-4.158-9.646-9.279-9.713-5.374-.072-9.679 3.891-9.857 9.088zM-209.666 367.02c5.273-.012 9.232-4.219 9.1-9.662-.129-5.231-4.471-9.55-9.5-9.439-5.146.121-9.461 4.565-9.387 9.674.074 4.763 4.93 9.439 9.787 9.427zM-209.834 188.266c-5.008.012-9.404 4.394-9.58 9.55-.164 4.903 4.398 9.51 9.447 9.529 5.395.012 9.324-3.93 9.385-9.431.055-5.254-4.184-9.67-9.252-9.648zM-124.182 357.704c.045 5.422 4.178 9.484 9.451 9.305 4.891-.167 9.506-4.964 9.385-9.762-.129-5.154-4.576-9.45-9.682-9.362-4.972.091-9.191 4.617-9.154 9.819zM-124.172 197.811c-.023 5.482 3.994 9.549 9.416 9.522 4.77-.022 9.242-4.31 9.416-9.016.189-5.145-4.197-9.896-9.213-9.987-5.15-.086-9.597 4.289-9.619 9.481zM-225.271 153.292c.061-4.751-3.965-9.085-8.537-8.7-4.834.407-8.275 3.073-8.432 8.134-.168 5.326 3.092 8.457 8.252 9.092 4.492.555 8.654-3.763 8.717-8.526zM-99.479 154.582c.377 4.318 3.432 6.958 8.33 7.247 4.631.267 8.625-4.051 8.576-8.738-.057-4.69-4.182-8.693-8.803-8.541-4.603.148-8.253 4.28-8.103 10.032zM-242.379 130.595c.443 5.124 2.766 8.316 8.014 8.426 5.314.111 8.586-2.557 9.088-7.912.439-4.748-3.445-8.736-8.305-8.701-5.477.034-8.053 3.267-8.797 8.187zM-90.998 167.395c-5.555-.034-8.465 2.902-8.439 8.294.023 5.015 2.965 7.936 7.955 8.339 4.883.396 9.082-3.968 8.938-8.947-.14-4.73-3.351-7.652-8.454-7.686zM-185.572 393.925c-5.133.221-9.291 4.573-8.793 8.994.557 5.006 3.453 7.669 8.635 7.502 4.955-.167 8.701-4.021 8.203-8.762-.522-5.033-3.61-7.513-8.045-7.734zM-115.287 410.421c5.084.099 9.146-3.462 8.797-8.126-.365-4.798-2.811-8.058-8.016-8.317-4.775-.243-8.773 3.597-8.834 8.306-.062 4.664 3.276 8.035 8.053 8.137zM-242.191 175.377c.039 4.778 4.021 8.924 8.697 8.658 5.049-.289 7.971-3.15 8.217-8.245.242-4.956-3.51-8.452-8.648-8.385-5.059.066-8.304 3.193-8.266 7.972zM-209.344 393.967c-5.432.179-9.449 4.363-8.91 9.028.602 5.174 3.961 7.503 8.969 7.392 5.375-.125 7.988-3.474 7.779-8.416-.213-4.941-3.351-7.757-7.838-8.004zM-99.502 131.386c.459 4.26 2.979 7.301 8.104 7.608 4.988.301 8.859-3.313 8.75-8.29-.105-5.09-2.951-7.963-8.018-8.289-4.906-.323-8.822 3.477-8.836 8.971zM-161.723 393.925c-5.35.076-8.244 3.07-8.596 7.925-.367 5.087 2.574 8.081 7.688 8.491 4.877.399 9.217-3.428 9-8.104-.228-5.039-3.207-7.767-8.092-8.312zM-139.262 410.453c5.193-.278 8.273-2.747 8.369-7.926.096-5.041-2.609-8.068-7.662-8.525-4.805-.434-8.887 3.462-8.674 8.248.225 5.052 3.125 7.715 7.967 8.203zM-257.764 145.645c-4.646.267-7.254 2.647-7.223 7.277.033 4.844 2.703 7.804 7.551 7.738 4.459-.068 7.252-2.963 7.369-7.347.122-4.898-2.994-7.28-7.697-7.668zM-67.062 145.649c-4.662.403-7.746 2.812-7.598 7.704.127 4.413 2.941 7.273 7.402 7.308 4.85.043 7.523-2.94 7.527-7.779.006-4.634-2.621-7.016-7.331-7.233zM-169.217 425.428c.15 3.881 2.268 6.721 6.996 6.65 4.887-.074 7.627-3.135 7.596-7.742-.025-4.487-3.129-7.013-7.562-6.891-4.458.11-7.045 2.624-7.03 7.983zM-186.045 417.208c-4.838.704-7.574 3.641-7.334 8.239.223 4.465 3.465 6.857 7.904 6.547 4.518-.314 6.859-3.064 6.686-7.705-.172-4.685-2.711-6.936-7.256-7.081zM-265.094 175.251c.406 5.102 2.844 7.525 7.457 7.544 5.002.016 7.691-2.838 7.586-7.57-.109-4.87-3.557-7.408-8.115-7.229-4.475.179-6.51 3.451-6.928 7.255zM-66.871 182.845c4.463-.29 7.168-2.584 7.094-7.202-.074-4.843-3.008-7.682-7.684-7.56-4.268.114-7.293 2.797-7.229 7.343.065 4.771 2.821 7.385 7.819 7.419zM-145.934 423.645c-.135 5.453 2.322 8.113 6.852 8.371 4.629.242 7.434-2.607 7.59-6.98.154-4.33-2.355-7.469-6.99-7.625-4.516-.157-7.213 2.26-7.452 6.234zM-122.582 424.732c.67 4.377 3.055 7.271 7.559 7.283 4.547.023 7.24-2.738 7.227-7.312-.002-4.565-2.707-7.316-7.25-7.292-4.524.022-6.876 2.925-7.536 7.321zM-217.059 425.092c.602 4.416 3.055 7.189 7.617 6.902 4.363-.268 7.375-2.906 6.951-7.514-.387-4.21-2.92-7.294-7.596-7.07-4.593.21-6.735 3.162-6.972 7.682z"/></g><path fill="none" d="M448.295 57.259h371.705v101.767h-371.705z"/><text transform="translate(448.295 84.573)"><tspan x="0" y="0" fill="#0E5461" font-family="'Lato-Bold'" font-size="36.761">5 485</tspan><tspan x="99.475" y="0" fill="#fff" font-family="'Lato-Regular'" font-size="24.507">reports of alleged</tspan><tspan x="0" y="29.409" fill="#fff" font-family="'Lato-Regular'" font-size="24.507">corruption received since our</tspan><tspan x="0" y="58.817" fill="#fff" font-family="'Lato-Regular'" font-size="24.507">January 2012 launch.</tspan></text><path fill="none" d="M448.295 253.307h371.705v105.851h-371.705z"/><text transform="translate(448.295 280.62)"><tspan x="0" y="0" fill="#5DC7C3" font-family="'Lato-Bold'" font-size="36.761">2 262</tspan><tspan x="99.475" y="0" fill="#fff" font-family="'Lato-Regular'" font-size="24.507">reports received in 2013,</tspan><tspan x="0" y="29.409" fill="#fff" font-family="'Lato-Regular'" font-size="24.507">with a marked improvement in</tspan><tspan x="0" y="58.817" fill="#fff" font-family="'Lato-Regular'" font-size="24.507">overall reporting quality.</tspan></text><path fill="none" d="M127.795-135.5h761v112h-761z"/><text transform="translate(127.795 -108.186)"><tspan x="0" y="0" fill="#ED1C24" font-family="'Lato-Bold'" font-size="36.761">5396</tspan><tspan x="0" y="44.113" fill="#ED1C24" font-family="'Lato-Bold'" font-size="36.761">2262</tspan></text><path fill="#ED1C24" d="M1156.601 361.959c5.514-.233 9.805-4.874 9.541-10.33-.254-5.421-4.352-9.339-9.699-9.294-5.434.046-10.092 4.619-10.014 9.842.072 5.274 4.984 10.006 10.172 9.782zm80.742-217.805c.064-5.577-4.17-10.128-9.621-10.329-5.457-.202-10.254 4.308-10.25 9.629.012 5.231 4.805 10.074 10.002 10.102 4.818.026 9.812-4.738 9.869-9.402zm-80.772 9.271c5.354-.209 9.861-4.942 9.75-10.237-.117-5.433-4.588-9.275-10.557-9.074-5.471.183-9.492 4.276-9.352 9.53.138 5.402 4.894 9.983 10.159 9.781zm23.039 0c5.217-.054 9.564-4.208 9.775-9.347.23-5.825-3.551-9.976-9.334-10.231-5.527-.254-10.1 3.995-10.215 9.474-.11 5.376 4.52 10.161 9.774 10.104zm-23.088-22.772c5.355-.123 9.633-4.151 9.777-9.227.16-5.41-4.297-10.112-9.664-10.191-5.307-.072-10.117 4.603-10.105 9.812.02 5.577 4.354 9.727 9.992 9.606zm70.938 231.387c5.215.045 9.473-4.565 9.477-10.277 0-5.71-3.652-9.438-9.215-9.415-5.676.022-10.219 4.295-10.242 9.64-.024 5.163 4.779 10.006 9.98 10.052zm-47.426 89.261c5.852-.191 9.604-4.285 9.348-10.211-.23-5.166-4.684-9.385-9.807-9.293-5.318.088-10.01 4.92-9.85 10.119.184 5.678 4.465 9.576 10.309 9.385zm-33.51-32.016c-.074 5.352 4.553 9.94 9.951 9.864 5.238-.078 9.477-4.223 9.656-9.43.193-5.878-3.631-9.919-9.473-10.006-5.698-.088-10.061 4.04-10.134 9.572zm-14.216-57.257c5.324-.023 10.068-4.699 10.049-9.907-.033-5.322-4.01-9.519-9.275-9.785-5.617-.277-10.137 3.831-10.277 9.34-.134 5.409 4.419 10.364 9.503 10.352zm47.961 67.099c5.299-.324 9.307-4.756 9.127-10.064-.189-5.68-4.619-9.675-10.396-9.373-5.533.288-9.371 4.409-9.223 9.865.152 5.306 5.181 9.89 10.492 9.572zm33.148-76.95c.121-5.166-3.986-9.575-9.184-9.842-5.688-.289-10.09 3.671-10.318 9.294-.236 5.768 3.701 10.143 9.32 10.33 5.153.19 10.049-4.531 10.182-9.782zm-19.502 67.175c.121 5.343 4.873 10.007 10.029 9.839 5.119-.156 9.412-4.52 9.484-9.636.086-5.681-4.053-9.877-9.729-9.889-5.923-.011-9.913 3.942-9.784 9.686zm-61.51-12.79c5.547.088 9.906-4.196 9.951-9.796.043-4.908-4.42-9.596-9.385-9.838-5.383-.268-10.006 4.108-10.162 9.605-.162 5.677 3.92 9.942 9.596 10.029zm-.14-253.046c5.291.023 10.107-4.683 10.102-9.864-.004-5.242-4.057-9.561-9.238-9.839-5.625-.304-10.145 3.786-10.318 9.329-.169 5.413 4.329 10.356 9.454 10.374zm14.254 221.025c.088 5.295 4.887 9.868 10.186 9.716 5.531-.155 9.482-4.488 9.428-10.31-.057-5.197-4.307-9.313-9.629-9.313-5.388-.001-10.079 4.649-9.985 9.907zm9.257 31.698c5.82.312 10.195-3.618 10.395-9.329.193-5.542-4.27-10.139-9.783-10.073-5.018.057-9.758 4.622-9.893 9.519-.131 5.173 4.02 9.616 9.281 9.883zm33.731-8.925c.273-5.335-4.18-10.12-9.637-10.356-4.996-.208-9.82 4.166-10.109 9.177-.334 5.63 3.828 10.005 9.621 10.128 5.445.11 9.869-3.799 10.125-8.949zm14.203-243.855c4.969 0 9.66-4.63 9.742-9.605.082-5.231-4.07-9.763-9.195-10.041-5.701-.312-10.225 3.812-10.352 9.439-.123 5.383 4.512 10.207 9.805 10.207zm33.172 243.909c.176-5.521-4.275-10.531-9.387-10.539-5.008-.023-9.715 4.481-9.918 9.47-.219 5.722 3.988 10.241 9.586 10.275 5.709.023 9.539-3.595 9.719-9.206zm-105.002-13.146c5.387.312 10.291-4.15 10.463-9.518.178-5.521-4.262-10.053-9.826-10.041-5.355.022-9.551 4.121-9.686 9.462-.143 5.365 3.828 9.786 9.049 10.097zm47.588-.012c5.609.055 10.025-4.386 9.918-9.964-.123-5.718-4.547-9.86-10.221-9.571-5.064.255-9.537 4.965-9.416 9.895.133 5.076 4.688 9.596 9.719 9.64zm23.754-253.546c5.744.11 10.172-4.052 10.195-9.583.023-5.167-4.93-9.908-10.246-9.812-5.227.095-9.201 4.314-9.254 9.835-.047 5.546 3.75 9.46 9.305 9.56zm-23.754 231.151c5.119.109 9.695-4.196 9.918-9.341.25-5.763-3.799-10.059-9.539-10.139-5.168-.064-9.941 4.265-10.109 9.161-.19 5.387 4.376 10.219 9.73 10.319zm9.799-240.72c-.016-5.741-4.383-10.066-9.912-9.805-5.086.24-9.652 4.882-9.582 9.744.074 5.539 4.549 9.728 10.232 9.606 5.74-.133 9.281-3.785 9.262-9.545zm.138 207.959c-.211-5.266-4.613-9.427-9.859-9.306-5.045.103-9.758 4.71-9.809 9.587-.047 5.486 4.463 9.93 10.041 9.861 5.635-.056 9.838-4.495 9.627-10.142zm13.59 10.154c5.781.186 10.33-3.907 10.457-9.416.109-4.988-4.312-9.785-9.295-10.097-5.322-.324-10.086 4.185-10.252 9.693-.168 5.578 3.578 9.63 9.09 9.82zm-47.326-.045c5.748.369 10.246-3.596 10.439-9.218.191-5.25-3.838-9.781-9.027-10.15-5.285-.389-10.371 4.131-10.572 9.404-.203 5.155 3.9 9.618 9.16 9.964zm-23.732-208.51c5.867.17 10.303-3.805 10.406-9.341.102-4.941-4.328-9.679-9.324-9.982-5.566-.347-10.033 3.857-10.193 9.583-.155 5.52 3.634 9.571 9.111 9.74zm71.125 275.921c5.441.255 10.256-4.219 10.318-9.606.062-5.266-4.703-10.085-10.002-10.108-4.822-.022-9.352 4.676-9.463 9.797-.109 5.397 3.82 9.658 9.147 9.917zm14.494-76.751c.176 5.646 4.352 9.428 10.443 9.442 5.348.02 9.021-4.021 8.926-9.808-.088-5.489-4.166-9.731-9.359-9.731-5.29 0-10.159 4.923-10.01 10.097zm19.334-208.698c-.059-5.589-3.914-9.758-9.145-9.876-5.48-.122-10.492 5.067-10.213 10.553.271 5.22 4.529 8.948 10.131 8.861 5.602-.087 9.285-3.899 9.227-9.538zm-114.09 208.276c-.145 5.843 3.938 9.918 9.803 9.785 5.574-.123 9.664-4.063 9.713-9.37.051-5.335-4.604-10.021-9.982-10.067-5.071-.041-9.401 4.344-9.534 9.652zm114.426 44.69c-.156-5.307-4.344-9.348-9.742-9.405-5.289-.053-10.148 4.9-9.908 10.098.24 5.063 4.869 9.481 9.91 9.438 5.566-.046 9.906-4.565 9.74-10.131zm-34.184 10.119c5.395.29 10.256-4.185 10.387-9.549.117-5.258-4.676-10.043-9.986-9.976-5.334.069-9.428 4.174-9.516 9.55-.096 5.381 3.861 9.698 9.115 9.975zm-85.445-32.581c-.254-5.554-3.971-8.034-8.93-8.525-4.838-.49-9.277 4.196-8.902 9.15.418 5.311 3.621 8.08 8.363 8.647 5.293.001 9.695-4.371 9.469-9.272zm101.146-253.151c-.182 5.405 2.744 8.521 8.256 8.834 5.318.3 9.492-3.429 9.348-8.617-.145-5.521-3.605-7.997-8.008-8.515-6.289.027-9.418 2.895-9.596 8.298zm-53.582.574c.117-5.188-3.012-8.549-8.309-9.123-5.068-.551-9.369 3.546-9.232 8.731.154 5.444 3.34 8.172 8.484 8.728 5.542-.198 8.934-3.04 9.057-8.336zm87.127 283.946c5.158-.393 8.324-4.417 7.721-9.918-.639-5.768-4.525-7.469-9.598-7.301-4.795.155-8.33 4.395-7.943 9.172.433 5.242 4.347 8.446 9.82 8.047zm-143.855-.024c5.494.069 8.414-3.039 9.008-8.168.555-4.785-3.848-9.131-8.844-9.218-4.898-.099-8.852 3.527-8.957 8.214-.118 5.144 3.644 9.115 8.793 9.172zm86.441-283.846c.326 5.532 3.705 8.092 8.975 8.172 5.717.088 8.176-3.374 8.275-8.64.113-5.543-3.033-8.241-7.867-8.613-5.791-.022-9.703 3.873-9.383 9.081zm65.17 253.259c.322-5.087-3.596-9.462-8.613-9.307-5.311.156-8.301 3.406-8.906 8.496-.545 4.618 4.066 9.261 9.451 9.348 4.511-.544 7.718-3.162 8.068-8.537zm-151.393-13.901c5.141-.381 8.402-3.387 8.895-8.595.449-4.831-3.988-9.073-8.965-9.039-4.883.034-8.77 3.698-8.902 8.404-.133 4.71 4.33 9.561 8.972 9.23zm23.67-231.144c5.391.034 8.943-3.614 8.742-9.036-.213-5.573-3.453-8.316-8.756-8.206-5.344.126-8.195 3.276-8.584 8.964.723 4.713 2.926 8.236 8.598 8.278zm47.024-.042c5.443.197 8.498-2.85 9.1-8.065.57-4.953-3.602-9.135-8.734-9.21-4.596-.069-8.725 3.929-8.869 9.16.487 4.607 3.059 7.914 8.503 8.115zm71.611 231.162c5.227-.126 8.711-2.818 9.016-8.26.297-5.364-2.598-8.628-7.918-9.259-4.934-.594-9.389 3.571-9.566 8.559-.165 4.563 3.861 9.071 8.468 8.96zm-174.152-8.96c.055 4.585 2.682 7.724 7.582 8.081 4.496.32 8.547-3.641 8.211-8.114-.365-4.798-3.193-7.339-7.855-7.716-4.968.359-7.991 2.942-7.938 7.749zm63.408-252.47c.24-5.018-2.471-8.122-7.674-8.278-4.949-.155-7.66 2.805-7.852 7.411-.205 4.676 2.336 7.605 6.768 7.871 5.291.015 8.529-2.127 8.758-7.004zm127.31 252.883c.156 4.977 3.174 7.646 7.848 7.566 4.699-.076 7.73-3.093 7.672-7.849-.062-4.596-2.594-7.631-6.008-7.769-6.918.07-9.666 2.74-9.512 8.052zm-39.884-245.902c5.037 0 7.533-3.093 7.48-7.818-.049-4.383-2.4-7.343-7.143-7.452-5.252-.114-7.971 2.644-8.242 8.644.262 4.234 3.121 6.626 7.905 6.626zm-16.315-7.959c-.168-4.736-3.23-7.514-8.09-7.289-4.799.21-7.693 3.021-7.5 7.879.199 4.858 3.314 7.19 8.219 7.392 4.75-.453 7.527-3.294 7.371-7.982zm63.637 283.557c4.822.1 7.869-2.479 8.07-7.247.219-5.098-2.793-8.069-7.902-8.126-4.869-.042-7.314 2.918-7.803 7.872.389 4.496 2.705 7.402 7.635 7.501zm-102.816-283.279c-.004 4.475 2.191 7.438 6.844 7.583 4.961.145 8.328-2.161 8.414-7.537.082-5.048-3.148-7.103-7.59-7.685-5.041.182-7.659 2.731-7.668 7.639zm-79.641 275.8c.119-4.6-2.662-7.693-7.471-7.884-5.182-.212-8.184 2.851-8.205 7.815-.023 4.721 3.125 7.178 7.703 7.646 4.942-.253 7.86-2.969 7.973-7.577zm63.934-268.263c4.828.046 7.641-2.827 7.615-7.67-.037-4.542-2.84-7.201-7.283-7.335-4.734-.14-7.65 2.306-7.928 7.145.072 5.178 2.853 7.81 7.596 7.86zm38.714 222.823c-.012 5.258 4.342 9.587 9.572 9.554 5.398-.035 9.537-4.175 9.525-9.531-.01-5.375-4.117-9.503-9.492-9.537-5.286-.047-9.593 4.23-9.605 9.514zm-46.754-.03c-.023 5.33 4.121 9.515 9.475 9.594 5.189.077 9.596-4.287 9.631-9.507.021-5.23-4.33-9.595-9.562-9.571-5.387.01-9.508 4.118-9.544 9.484zm33.063-12.936c5.6.023 9.594-3.861 9.549-9.252-.053-5.418-4.195-9.815-9.248-9.805-5.023.012-9.729 4.585-9.752 9.485-.033 5.296 4.174 9.561 9.451 9.572zm-9.531 12.711c-.199 5.109 4.045 9.651 9.184 9.818 5.242.19 9.652-3.865 9.887-9.073.256-5.565-3.43-9.461-9.037-9.561-5.671-.11-9.833 3.55-10.034 8.816zm-28.774.681c.203-5.524-3.496-9.508-9.039-9.739-5.375-.225-9.67 3.718-9.848 9.017-.191 5.285 3.906 9.717 9.092 9.851 5.311.131 9.606-3.874 9.795-9.129zm61.547-13.392c5.385.069 9.402-3.861 9.529-9.317.123-5.208-4.178-9.75-9.186-9.75-4.963.011-9.707 4.588-9.773 9.427-.066 4.964 4.442 9.583 9.43 9.64zm-56.281-9.571c0 5.474 3.887 9.495 9.271 9.561 4.977.064 9.619-4.41 9.729-9.386.092-4.81-4.551-9.504-9.549-9.648s-9.451 4.306-9.451 9.473zm80.088 32.067c5.098.209 9.721-4.086 9.854-9.161.133-5.155-4.152-9.641-9.271-9.705-5.381-.08-9.686 3.885-9.863 9.081-.181 5.063 4.106 9.576 9.28 9.785zm-104.217-32.003c-.168 4.911 4.396 9.519 9.438 9.53 5.398.012 9.328-3.931 9.381-9.428.057-5.258-4.186-9.675-9.248-9.652-5.012.012-9.405 4.395-9.571 9.55zm104.654 9.519c4.764-.022 9.238-4.311 9.416-9.017.188-5.144-4.195-9.896-9.217-9.986-5.152-.088-9.596 4.287-9.619 9.484-.023 5.479 3.998 9.553 9.42 9.519z"/><circle fill="#ED1C24" cx="999" cy="-333.647" r="159"/><g stroke="#000" stroke-width=".5" stroke-miterlimit="10"><path d="M1284.045 741.352v-91.219c50.379 0 91.219 40.84 91.219 91.219s-40.84 91.219-91.219 91.219-91.219-40.84-91.219-91.219 40.84-91.219 91.219-91.219v91.219zM1492.545 741.352v-58.579c32.353 0 58.579 26.227 58.579 58.579s-26.227 58.579-58.579 58.579-58.579-26.227-58.579-58.579 26.227-58.579 58.579-58.579v58.579z"/></g><path fill="#0E5461" d="M213.954 208.208v-188.217c103.951 0 188.218 84.268 188.218 188.217s-84.267 188.217-188.218 188.217c-103.949 0-188.217-84.268-188.217-188.217s84.268-188.217 188.217-188.217v188.217z"/><path fill="#5DC7C3" d="M249.831 263.208v-120.87c66.756 0 120.87 54.115 120.87 120.87s-54.114 120.87-120.87 120.87c-66.754 0-120.869-54.115-120.869-120.87s54.115-120.87 120.869-120.87v120.87z"/><path fill="none" d="M107.455 64.978h213v68.282h-213z"/><text transform="translate(141.566 87.268)"><tspan x="0" y="0" fill="#fff" font-family="'Lato-Bold'" font-size="30">Total since</tspan><tspan x="-9.96" y="30" fill="#fff" font-family="'Lato-Bold'" font-size="30">2012 launch</tspan></text><path fill="none" d="M142.831 247.208h213v50h-213z"/><text transform="translate(161.995 269.498)" fill="#fff" font-family="'Lato-Bold'" font-size="30">2013 reports</text></svg>