<?xml version="1.0" encoding="utf-8"?>
<!-- Generator: Adobe Illustrator 16.0.0, SVG Export Plug-In . SVG Version: 6.00 Build 0)  -->
<!DOCTYPE svg PUBLIC "-//W3C//DTD SVG 1.1//EN" "http://www.w3.org/Graphics/SVG/1.1/DTD/svg11.dtd">
<svg version="1.1" id="Layer_1" xmlns="http://www.w3.org/2000/svg" xmlns:xlink="http://www.w3.org/1999/xlink" x="0px" y="0px"
	 width="400px" height="366.667px" viewBox="0 0 400 366.667" enable-background="new 0 0 400 366.667" xml:space="preserve">
<g>
	<path fill="#0E5461" d="M126.659,137.816c-6.748,0-12.213-5.465-12.213-12.205V81.624c0-6.74,5.465-12.208,12.213-12.208
		c6.744,0,12.211,5.469,12.211,12.208v43.987C138.87,132.351,133.403,137.816,126.659,137.816L126.659,137.816z M273.733,137.816
		c-6.742,0-12.215-5.465-12.215-12.205V81.624c0-6.74,5.473-12.208,12.215-12.208c6.744,0,12.212,5.469,12.212,12.208v43.987
		C285.945,132.351,280.478,137.816,273.733,137.816L273.733,137.816z M87.925,177.039v137.018c0,5.141,4.166,9.304,9.306,9.304
		h205.931c5.139,0,9.307-4.163,9.307-9.304V177.039c0-5.135-4.168-9.302-9.307-9.302H97.23
		C92.091,167.736,87.925,171.903,87.925,177.039L87.925,177.039z M46.681,120.152c0-15.413,12.5-27.912,27.914-27.912h33.338v33.372
		c0,10.337,8.387,18.719,18.727,18.719c10.336,0,18.722-8.377,18.722-18.719V92.24h109.626v33.372
		c0,10.341,8.391,18.719,18.727,18.719c10.341,0,18.725-8.381,18.725-18.719V92.24H325.8c15.411,0,27.911,12.499,27.911,27.912
		v205.206c0,15.414-12.5,27.912-27.911,27.912H74.595c-15.414,0-27.914-12.499-27.914-27.912V120.152L46.681,120.152z
		 M173.446,230.823v29.448h-29.461v-29.448H173.446L173.446,230.823z M214.917,270.234v29.451h-29.439v-29.451H214.917
		L214.917,270.234z M173.446,270.234v29.451h-29.461v-29.451H173.446L173.446,270.234z M173.446,191.416v29.444h-29.461v-29.444
		H173.446L173.446,191.416z M131.942,230.823v29.448h-29.443v-29.448H131.942L131.942,230.823z M131.942,270.234v29.451h-29.443
		v-29.451H131.942L131.942,270.234z M297.896,230.823v29.448h-29.446v-29.448H297.896L297.896,230.823z M256.419,191.416v29.444
		h-29.453v-29.444H256.419L256.419,191.416z M214.917,230.823v29.448h-29.439v-29.448H214.917L214.917,230.823z M297.896,191.416
		v29.444h-29.446v-29.444H297.896L297.896,191.416z M256.419,230.823v29.448h-29.453v-29.448H256.419L256.419,230.823z
		 M214.917,191.416v29.444h-29.439v-29.444H214.917L214.917,191.416z M256.419,270.234v29.451h-29.453v-29.451H256.419
		L256.419,270.234z M98.327,35.464c0-4.733,2.133-8.575,4.766-8.575h193.816c2.633,0,4.766,3.842,4.766,8.575v15.563
		c0,4.736-2.133,8.577-4.766,8.577H103.093c-2.633,0-4.766-3.84-4.766-8.577V35.464L98.327,35.464z"/>
	<g>
		<path fill="#ED1C24" d="M160.052,204.754c0.709,0,1.377,0.115,2.004,0.349c0.631,0.232,1.186,0.572,1.656,1.018
			c0.477,0.448,0.853,0.997,1.134,1.649c0.282,0.65,0.417,1.393,0.417,2.229c0,0.81-0.147,1.563-0.441,2.261
			c-0.297,0.696-0.709,1.302-1.234,1.818c-0.529,0.514-1.168,0.921-1.914,1.217c-0.746,0.293-1.563,0.442-2.457,0.442
			c-0.883,0-1.68-0.142-2.396-0.423c-0.721-0.286-1.33-0.686-1.839-1.206c-0.512-0.521-0.901-1.152-1.173-1.893
			c-0.274-0.74-0.413-1.57-0.413-2.488c0-0.769,0.171-1.589,0.515-2.457c0.344-0.87,0.887-1.803,1.633-2.801l4.461-6.01
			c0.113-0.146,0.274-0.271,0.482-0.374c0.203-0.103,0.436-0.154,0.697-0.154h1.944l-6.104,7.729
			c0.415-0.287,0.877-0.511,1.383-0.669C158.917,204.833,159.468,204.754,160.052,204.754z M155.505,210.109
			c0,0.567,0.084,1.083,0.246,1.549c0.167,0.467,0.404,0.867,0.719,1.206c0.318,0.335,0.701,0.594,1.16,0.78
			c0.453,0.182,0.972,0.274,1.551,0.274c0.59,0,1.121-0.093,1.599-0.28c0.478-0.191,0.882-0.451,1.222-0.789
			c0.342-0.336,0.604-0.732,0.787-1.191c0.184-0.459,0.274-0.958,0.274-1.499c0-0.573-0.091-1.09-0.267-1.556
			c-0.181-0.461-0.436-0.855-0.766-1.179c-0.328-0.323-0.722-0.571-1.18-0.743c-0.46-0.173-0.962-0.259-1.51-0.259
			c-0.592,0-1.121,0.1-1.598,0.301c-0.477,0.203-0.878,0.47-1.211,0.81c-0.328,0.343-0.584,0.734-0.765,1.182
			C155.597,209.162,155.505,209.625,155.505,210.109z"/>
	</g>
	<g>
		<path fill="#ED1C24" d="M199.082,204.754c0.71,0,1.377,0.115,2.003,0.349c0.631,0.232,1.186,0.572,1.66,1.018
			c0.477,0.448,0.85,0.997,1.131,1.649c0.281,0.65,0.418,1.393,0.418,2.229c0,0.81-0.148,1.563-0.442,2.261
			c-0.297,0.696-0.71,1.302-1.233,1.818c-0.531,0.514-1.169,0.921-1.916,1.217c-0.743,0.293-1.563,0.442-2.457,0.442
			c-0.883,0-1.68-0.142-2.396-0.423c-0.721-0.286-1.33-0.686-1.837-1.206c-0.513-0.521-0.901-1.152-1.175-1.893
			c-0.274-0.74-0.412-1.57-0.412-2.488c0-0.769,0.174-1.589,0.515-2.457c0.344-0.87,0.888-1.803,1.632-2.801l4.461-6.01
			c0.114-0.146,0.275-0.271,0.482-0.374c0.205-0.103,0.438-0.154,0.7-0.154h1.942l-6.107,7.729c0.419-0.287,0.879-0.511,1.387-0.669
			C197.946,204.833,198.498,204.754,199.082,204.754z M194.537,210.109c0,0.567,0.084,1.083,0.244,1.549
			c0.167,0.467,0.405,0.867,0.723,1.206c0.314,0.335,0.698,0.594,1.155,0.78c0.453,0.182,0.973,0.274,1.551,0.274
			c0.59,0,1.121-0.093,1.6-0.28c0.477-0.191,0.883-0.451,1.223-0.789c0.34-0.336,0.602-0.732,0.785-1.191
			c0.188-0.459,0.275-0.958,0.275-1.499c0-0.573-0.088-1.09-0.268-1.556c-0.18-0.461-0.436-0.855-0.762-1.179
			c-0.332-0.323-0.724-0.571-1.183-0.743c-0.46-0.173-0.962-0.259-1.509-0.259c-0.59,0-1.121,0.1-1.599,0.301
			c-0.478,0.203-0.878,0.47-1.212,0.81c-0.327,0.343-0.584,0.734-0.764,1.182C194.626,209.162,194.537,209.625,194.537,210.109z"/>
	</g>
	<g>
		<path fill="#ED1C24" d="M240.271,204.754c0.709,0,1.378,0.115,2.006,0.349c0.63,0.232,1.186,0.572,1.656,1.018
			c0.477,0.448,0.854,0.997,1.133,1.649c0.281,0.65,0.417,1.393,0.417,2.229c0,0.81-0.148,1.563-0.44,2.261
			c-0.299,0.696-0.709,1.302-1.234,1.818c-0.531,0.514-1.168,0.921-1.914,1.217c-0.747,0.293-1.563,0.442-2.459,0.442
			c-0.881,0-1.682-0.142-2.396-0.423c-0.723-0.286-1.33-0.686-1.838-1.206c-0.512-0.521-0.899-1.152-1.174-1.893
			c-0.276-0.74-0.412-1.57-0.412-2.488c0-0.769,0.173-1.589,0.512-2.457c0.348-0.87,0.891-1.803,1.637-2.801l4.461-6.01
			c0.113-0.146,0.272-0.271,0.482-0.374c0.203-0.103,0.436-0.154,0.697-0.154h1.945l-6.108,7.729
			c0.419-0.287,0.876-0.511,1.385-0.669C239.138,204.833,239.687,204.754,240.271,204.754z M235.727,210.109
			c0,0.567,0.082,1.083,0.245,1.549c0.167,0.467,0.405,0.867,0.721,1.206c0.316,0.335,0.697,0.594,1.157,0.78
			c0.454,0.182,0.972,0.274,1.548,0.274c0.594,0,1.123-0.093,1.601-0.28c0.478-0.191,0.883-0.451,1.223-0.789
			c0.341-0.336,0.603-0.732,0.788-1.191c0.184-0.459,0.273-0.958,0.273-1.499c0-0.573-0.09-1.09-0.266-1.556
			c-0.181-0.461-0.438-0.855-0.765-1.179c-0.329-0.323-0.722-0.571-1.183-0.743c-0.459-0.173-0.959-0.259-1.508-0.259
			c-0.592,0-1.123,0.1-1.601,0.301c-0.476,0.203-0.874,0.47-1.21,0.81c-0.326,0.343-0.584,0.734-0.764,1.182
			C235.815,209.162,235.727,209.625,235.727,210.109z"/>
	</g>
	<g>
		<path fill="#ED1C24" d="M282.349,204.754c0.709,0,1.379,0.115,2.006,0.349c0.631,0.232,1.187,0.572,1.656,1.018
			c0.478,0.448,0.854,0.997,1.132,1.649c0.282,0.65,0.42,1.393,0.42,2.229c0,0.81-0.15,1.563-0.44,2.261
			c-0.301,0.696-0.711,1.302-1.236,1.818c-0.531,0.514-1.168,0.921-1.915,1.217c-0.744,0.293-1.562,0.442-2.456,0.442
			c-0.886,0-1.684-0.142-2.397-0.423c-0.722-0.286-1.331-0.686-1.837-1.206c-0.514-0.521-0.901-1.152-1.176-1.893
			c-0.275-0.74-0.413-1.57-0.413-2.488c0-0.769,0.175-1.589,0.515-2.457c0.346-0.87,0.89-1.803,1.635-2.801l4.463-6.01
			c0.111-0.146,0.272-0.271,0.482-0.374c0.201-0.103,0.434-0.154,0.697-0.154h1.943l-6.107,7.729
			c0.418-0.287,0.877-0.511,1.384-0.669C281.218,204.833,281.765,204.754,282.349,204.754z M277.804,210.109
			c0,0.567,0.084,1.083,0.245,1.549c0.166,0.467,0.407,0.867,0.722,1.206c0.314,0.335,0.698,0.594,1.156,0.78
			c0.455,0.182,0.972,0.274,1.551,0.274c0.593,0,1.121-0.093,1.599-0.28c0.478-0.191,0.883-0.451,1.224-0.789
			c0.34-0.336,0.602-0.732,0.789-1.191c0.183-0.459,0.271-0.958,0.271-1.499c0-0.573-0.089-1.09-0.268-1.556
			c-0.18-0.461-0.438-0.855-0.764-1.179c-0.326-0.323-0.722-0.571-1.18-0.743c-0.462-0.173-0.96-0.259-1.512-0.259
			c-0.588,0-1.12,0.1-1.598,0.301c-0.477,0.203-0.875,0.47-1.212,0.81c-0.327,0.343-0.583,0.734-0.761,1.182
			C277.894,209.162,277.804,209.625,277.804,210.109z"/>
	</g>
	<g>
		<path fill="#ED1C24" d="M160.052,243.784c0.709,0,1.377,0.117,2.004,0.35c0.631,0.234,1.186,0.573,1.656,1.018
			c0.477,0.449,0.853,0.996,1.134,1.649c0.282,0.65,0.417,1.393,0.417,2.229c0,0.81-0.147,1.567-0.441,2.261
			c-0.297,0.697-0.709,1.302-1.234,1.818c-0.529,0.518-1.168,0.922-1.914,1.218c-0.746,0.293-1.563,0.441-2.457,0.441
			c-0.883,0-1.68-0.142-2.396-0.423c-0.721-0.284-1.33-0.685-1.839-1.205c-0.512-0.521-0.901-1.152-1.173-1.892
			c-0.274-0.741-0.413-1.572-0.413-2.488c0-0.769,0.171-1.591,0.515-2.458s0.887-1.803,1.633-2.801l4.461-6.01
			c0.113-0.147,0.274-0.271,0.482-0.374c0.203-0.104,0.436-0.154,0.697-0.154h1.944l-6.104,7.729
			c0.415-0.286,0.877-0.509,1.383-0.669C158.917,243.862,159.468,243.784,160.052,243.784z M155.505,249.139
			c0,0.566,0.084,1.082,0.246,1.549c0.167,0.468,0.404,0.868,0.719,1.205c0.318,0.336,0.701,0.595,1.16,0.78
			c0.453,0.183,0.972,0.274,1.551,0.274c0.59,0,1.121-0.092,1.599-0.279c0.478-0.191,0.882-0.451,1.222-0.789
			c0.342-0.333,0.604-0.733,0.787-1.191c0.184-0.459,0.274-0.958,0.274-1.498c0-0.573-0.091-1.091-0.267-1.557
			c-0.181-0.459-0.436-0.855-0.766-1.178c-0.328-0.323-0.722-0.572-1.18-0.743c-0.46-0.172-0.962-0.259-1.51-0.259
			c-0.592,0-1.121,0.102-1.598,0.301c-0.477,0.202-0.878,0.47-1.211,0.813c-0.328,0.339-0.584,0.731-0.765,1.179
			C155.597,248.191,155.505,248.656,155.505,249.139z"/>
	</g>
	<g>
		<path fill="#ED1C24" d="M199.082,243.784c0.71,0,1.377,0.117,2.003,0.35c0.631,0.234,1.186,0.573,1.66,1.018
			c0.477,0.449,0.85,0.996,1.131,1.649c0.281,0.65,0.418,1.393,0.418,2.229c0,0.81-0.148,1.567-0.442,2.261
			c-0.297,0.697-0.71,1.302-1.233,1.818c-0.531,0.518-1.169,0.922-1.916,1.218c-0.743,0.293-1.563,0.441-2.457,0.441
			c-0.883,0-1.68-0.142-2.396-0.423c-0.721-0.284-1.33-0.685-1.837-1.205c-0.513-0.521-0.901-1.152-1.175-1.892
			c-0.274-0.741-0.412-1.572-0.412-2.488c0-0.769,0.174-1.591,0.515-2.458c0.344-0.867,0.888-1.803,1.632-2.801l4.461-6.01
			c0.114-0.147,0.275-0.271,0.482-0.374c0.205-0.104,0.438-0.154,0.7-0.154h1.942l-6.107,7.729c0.419-0.286,0.879-0.509,1.387-0.669
			C197.946,243.862,198.498,243.784,199.082,243.784z M194.537,249.139c0,0.566,0.084,1.082,0.244,1.549
			c0.167,0.468,0.405,0.868,0.723,1.205c0.314,0.336,0.698,0.595,1.155,0.78c0.453,0.183,0.973,0.274,1.551,0.274
			c0.59,0,1.121-0.092,1.6-0.279c0.477-0.191,0.883-0.451,1.223-0.789c0.34-0.333,0.602-0.733,0.785-1.191
			c0.188-0.459,0.275-0.958,0.275-1.498c0-0.573-0.088-1.091-0.268-1.557c-0.18-0.459-0.436-0.855-0.762-1.178
			c-0.332-0.323-0.724-0.572-1.183-0.743c-0.46-0.172-0.962-0.259-1.509-0.259c-0.59,0-1.121,0.102-1.599,0.301
			c-0.478,0.202-0.878,0.47-1.212,0.813c-0.327,0.339-0.584,0.731-0.764,1.179C194.626,248.191,194.537,248.656,194.537,249.139z"/>
	</g>
	<g>
		<path fill="#ED1C24" d="M240.271,243.784c0.709,0,1.378,0.117,2.006,0.35c0.63,0.234,1.186,0.573,1.656,1.018
			c0.477,0.449,0.854,0.996,1.133,1.649c0.281,0.65,0.417,1.393,0.417,2.229c0,0.81-0.148,1.567-0.44,2.261
			c-0.299,0.697-0.709,1.302-1.234,1.818c-0.531,0.518-1.168,0.922-1.914,1.218c-0.747,0.293-1.563,0.441-2.459,0.441
			c-0.881,0-1.682-0.142-2.396-0.423c-0.723-0.284-1.33-0.685-1.838-1.205c-0.512-0.521-0.899-1.152-1.174-1.892
			c-0.276-0.741-0.412-1.572-0.412-2.488c0-0.769,0.173-1.591,0.512-2.458c0.348-0.867,0.891-1.803,1.637-2.801l4.461-6.01
			c0.113-0.147,0.272-0.271,0.482-0.374c0.203-0.104,0.436-0.154,0.697-0.154h1.945l-6.108,7.729
			c0.419-0.286,0.876-0.509,1.385-0.669C239.138,243.862,239.687,243.784,240.271,243.784z M235.727,249.139
			c0,0.566,0.082,1.082,0.245,1.549c0.167,0.468,0.405,0.868,0.721,1.205c0.316,0.336,0.697,0.595,1.157,0.78
			c0.454,0.183,0.972,0.274,1.548,0.274c0.594,0,1.123-0.092,1.601-0.279c0.478-0.191,0.883-0.451,1.223-0.789
			c0.341-0.333,0.603-0.733,0.788-1.191c0.184-0.459,0.273-0.958,0.273-1.498c0-0.573-0.09-1.091-0.266-1.557
			c-0.181-0.459-0.438-0.855-0.765-1.178c-0.329-0.323-0.722-0.572-1.183-0.743c-0.459-0.172-0.959-0.259-1.508-0.259
			c-0.592,0-1.123,0.102-1.601,0.301c-0.476,0.202-0.874,0.47-1.21,0.813c-0.326,0.339-0.584,0.731-0.764,1.179
			C235.815,248.191,235.727,248.656,235.727,249.139z"/>
	</g>
	<g>
		<path fill="#ED1C24" d="M282.349,243.784c0.709,0,1.379,0.117,2.006,0.35c0.631,0.234,1.187,0.573,1.656,1.018
			c0.478,0.449,0.854,0.996,1.132,1.649c0.282,0.65,0.42,1.393,0.42,2.229c0,0.81-0.15,1.567-0.44,2.261
			c-0.301,0.697-0.711,1.302-1.236,1.818c-0.531,0.518-1.168,0.922-1.915,1.218c-0.744,0.293-1.562,0.441-2.456,0.441
			c-0.886,0-1.684-0.142-2.397-0.423c-0.722-0.284-1.331-0.685-1.837-1.205c-0.514-0.521-0.901-1.152-1.176-1.892
			c-0.275-0.741-0.413-1.572-0.413-2.488c0-0.769,0.175-1.591,0.515-2.458c0.346-0.867,0.89-1.803,1.635-2.801l4.463-6.01
			c0.111-0.147,0.272-0.271,0.482-0.374c0.201-0.104,0.434-0.154,0.697-0.154h1.943l-6.107,7.729
			c0.418-0.286,0.877-0.509,1.384-0.669C281.218,243.862,281.765,243.784,282.349,243.784z M277.804,249.139
			c0,0.566,0.084,1.082,0.245,1.549c0.166,0.468,0.407,0.868,0.722,1.205c0.314,0.336,0.698,0.595,1.156,0.78
			c0.455,0.183,0.972,0.274,1.551,0.274c0.593,0,1.121-0.092,1.599-0.279c0.478-0.191,0.883-0.451,1.224-0.789
			c0.34-0.333,0.602-0.733,0.789-1.191c0.183-0.459,0.271-0.958,0.271-1.498c0-0.573-0.089-1.091-0.268-1.557
			c-0.18-0.459-0.438-0.855-0.764-1.178s-0.722-0.572-1.18-0.743c-0.462-0.172-0.96-0.259-1.512-0.259
			c-0.588,0-1.12,0.102-1.598,0.301c-0.477,0.202-0.875,0.47-1.212,0.813c-0.327,0.339-0.583,0.731-0.761,1.179
			C277.894,248.191,277.804,248.656,277.804,249.139z"/>
	</g>
	<g>
		<path fill="#ED1C24" d="M160.052,282.813c0.709,0,1.377,0.118,2.004,0.35c0.631,0.234,1.186,0.573,1.656,1.021
			c0.477,0.447,0.853,0.994,1.134,1.648c0.282,0.648,0.417,1.391,0.417,2.228c0,0.812-0.147,1.566-0.441,2.26
			c-0.297,0.698-0.709,1.303-1.234,1.82c-0.529,0.517-1.168,0.92-1.914,1.215s-1.563,0.442-2.457,0.442
			c-0.883,0-1.68-0.141-2.396-0.423c-0.721-0.283-1.33-0.685-1.839-1.205c-0.512-0.52-0.901-1.151-1.173-1.892
			c-0.274-0.741-0.413-1.572-0.413-2.488c0-0.77,0.171-1.589,0.515-2.458c0.344-0.867,0.887-1.803,1.633-2.801l4.461-6.008
			c0.113-0.147,0.274-0.272,0.482-0.375c0.203-0.102,0.436-0.154,0.697-0.154h1.944l-6.104,7.73
			c0.415-0.287,0.877-0.511,1.383-0.672C158.917,282.892,159.468,282.813,160.052,282.813z M155.505,288.173
			c0,0.562,0.084,1.078,0.246,1.545c0.167,0.466,0.404,0.869,0.719,1.205c0.318,0.336,0.701,0.597,1.16,0.78
			c0.453,0.184,0.972,0.279,1.551,0.279c0.59,0,1.121-0.097,1.599-0.284c0.478-0.19,0.882-0.451,1.222-0.787
			c0.342-0.335,0.604-0.73,0.787-1.192c0.184-0.458,0.274-0.958,0.274-1.499c0-0.573-0.091-1.091-0.267-1.555
			c-0.181-0.462-0.436-0.856-0.766-1.18c-0.328-0.324-0.722-0.57-1.18-0.744c-0.46-0.171-0.962-0.257-1.51-0.257
			c-0.592,0-1.121,0.102-1.598,0.301c-0.477,0.201-0.878,0.472-1.211,0.811c-0.328,0.339-0.584,0.733-0.765,1.179
			C155.597,287.223,155.505,287.687,155.505,288.173z"/>
	</g>
	<g>
		<path fill="#ED1C24" d="M199.082,282.813c0.71,0,1.377,0.118,2.003,0.35c0.631,0.234,1.186,0.573,1.66,1.021
			c0.477,0.447,0.85,0.994,1.131,1.648c0.281,0.648,0.418,1.391,0.418,2.228c0,0.812-0.148,1.566-0.442,2.26
			c-0.297,0.698-0.71,1.303-1.233,1.82c-0.531,0.517-1.169,0.92-1.916,1.215c-0.743,0.295-1.563,0.442-2.457,0.442
			c-0.883,0-1.68-0.141-2.396-0.423c-0.721-0.283-1.33-0.685-1.837-1.205c-0.513-0.52-0.901-1.151-1.175-1.892
			c-0.274-0.741-0.412-1.572-0.412-2.488c0-0.77,0.174-1.589,0.515-2.458c0.344-0.867,0.888-1.803,1.632-2.801l4.461-6.008
			c0.114-0.147,0.275-0.272,0.482-0.375c0.205-0.102,0.438-0.154,0.7-0.154h1.942l-6.107,7.73c0.419-0.287,0.879-0.511,1.387-0.672
			C197.946,282.892,198.498,282.813,199.082,282.813z M194.537,288.173c0,0.562,0.084,1.078,0.244,1.545
			c0.167,0.466,0.405,0.869,0.723,1.205c0.314,0.336,0.698,0.597,1.155,0.78c0.453,0.184,0.973,0.279,1.551,0.279
			c0.59,0,1.121-0.097,1.6-0.284c0.477-0.19,0.883-0.451,1.223-0.787c0.34-0.335,0.602-0.73,0.785-1.192
			c0.188-0.458,0.275-0.958,0.275-1.499c0-0.573-0.088-1.091-0.268-1.555c-0.18-0.462-0.436-0.856-0.762-1.18
			c-0.332-0.324-0.724-0.57-1.183-0.744c-0.46-0.171-0.962-0.257-1.509-0.257c-0.59,0-1.121,0.102-1.599,0.301
			c-0.478,0.201-0.878,0.472-1.212,0.811c-0.327,0.339-0.584,0.733-0.764,1.179C194.626,287.223,194.537,287.687,194.537,288.173z"
			/>
	</g>
	<g>
		<path fill="#ED1C24" d="M240.271,282.813c0.709,0,1.378,0.118,2.006,0.35c0.63,0.234,1.186,0.573,1.656,1.021
			c0.477,0.447,0.854,0.994,1.133,1.648c0.281,0.648,0.417,1.391,0.417,2.228c0,0.812-0.148,1.566-0.44,2.26
			c-0.299,0.698-0.709,1.303-1.234,1.82c-0.531,0.517-1.168,0.92-1.914,1.215c-0.747,0.295-1.563,0.442-2.459,0.442
			c-0.881,0-1.682-0.141-2.396-0.423c-0.723-0.283-1.33-0.685-1.838-1.205c-0.512-0.52-0.899-1.151-1.174-1.892
			c-0.276-0.741-0.412-1.572-0.412-2.488c0-0.77,0.173-1.589,0.512-2.458c0.348-0.867,0.891-1.803,1.637-2.801l4.461-6.008
			c0.113-0.147,0.272-0.272,0.482-0.375c0.203-0.102,0.436-0.154,0.697-0.154h1.945l-6.108,7.73
			c0.419-0.287,0.876-0.511,1.385-0.672C239.138,282.892,239.687,282.813,240.271,282.813z M235.727,288.173
			c0,0.562,0.082,1.078,0.245,1.545c0.167,0.466,0.405,0.869,0.721,1.205c0.316,0.336,0.697,0.597,1.157,0.78
			c0.454,0.184,0.972,0.279,1.548,0.279c0.594,0,1.123-0.097,1.601-0.284c0.478-0.19,0.883-0.451,1.223-0.787
			c0.341-0.335,0.603-0.73,0.788-1.192c0.184-0.458,0.273-0.958,0.273-1.499c0-0.573-0.09-1.091-0.266-1.555
			c-0.181-0.462-0.438-0.856-0.765-1.18c-0.329-0.324-0.722-0.57-1.183-0.744c-0.459-0.171-0.959-0.257-1.508-0.257
			c-0.592,0-1.123,0.102-1.601,0.301c-0.476,0.201-0.874,0.472-1.21,0.811c-0.326,0.339-0.584,0.733-0.764,1.179
			C235.815,287.223,235.727,287.687,235.727,288.173z"/>
	</g>
	<g>
		<path fill="#ED1C24" d="M115.859,243.784c0.71,0,1.38,0.117,2.006,0.35c0.632,0.234,1.188,0.573,1.657,1.018
			c0.479,0.449,0.854,0.996,1.134,1.649c0.28,0.65,0.418,1.393,0.418,2.229c0,0.81-0.149,1.567-0.44,2.261
			c-0.299,0.697-0.71,1.302-1.236,1.818c-0.531,0.518-1.168,0.922-1.913,1.218c-0.747,0.293-1.563,0.441-2.458,0.441
			c-0.882,0-1.684-0.142-2.398-0.423c-0.721-0.284-1.33-0.685-1.838-1.205c-0.51-0.521-0.897-1.152-1.174-1.892
			c-0.275-0.741-0.412-1.572-0.412-2.488c0-0.769,0.174-1.591,0.514-2.458c0.346-0.867,0.89-1.803,1.635-2.801l4.462-6.01
			c0.114-0.147,0.272-0.271,0.481-0.374c0.203-0.104,0.438-0.154,0.699-0.154h1.943l-6.109,7.729
			c0.42-0.286,0.879-0.509,1.386-0.669C114.729,243.862,115.276,243.784,115.859,243.784z M111.317,249.139
			c0,0.566,0.082,1.082,0.242,1.549c0.168,0.468,0.408,0.868,0.723,1.205c0.316,0.336,0.697,0.595,1.156,0.78
			c0.457,0.183,0.972,0.274,1.552,0.274c0.591,0,1.122-0.092,1.599-0.279c0.476-0.191,0.883-0.451,1.223-0.789
			c0.34-0.333,0.602-0.733,0.787-1.191c0.185-0.459,0.273-0.958,0.273-1.498c0-0.573-0.089-1.091-0.268-1.557
			c-0.18-0.459-0.434-0.855-0.764-1.178c-0.326-0.323-0.721-0.572-1.18-0.743c-0.461-0.172-0.961-0.259-1.51-0.259
			c-0.591,0-1.122,0.102-1.6,0.301c-0.479,0.202-0.873,0.47-1.209,0.813c-0.33,0.339-0.584,0.731-0.764,1.179
			C111.405,248.191,111.317,248.656,111.317,249.139z"/>
	</g>
	<g>
		<path fill="#ED1C24" d="M115.859,281.594c0.71,0,1.38,0.117,2.006,0.35c0.632,0.232,1.188,0.574,1.657,1.018
			c0.479,0.448,0.854,0.997,1.134,1.649c0.28,0.65,0.418,1.393,0.418,2.229c0,0.81-0.149,1.565-0.44,2.261
			c-0.299,0.696-0.71,1.302-1.236,1.819c-0.531,0.514-1.168,0.921-1.913,1.217c-0.747,0.293-1.563,0.442-2.458,0.442
			c-0.882,0-1.684-0.142-2.398-0.423c-0.721-0.285-1.33-0.686-1.838-1.205c-0.51-0.521-0.897-1.153-1.174-1.893
			c-0.275-0.741-0.412-1.571-0.412-2.49c0-0.767,0.174-1.589,0.514-2.457c0.346-0.867,0.89-1.803,1.635-2.801l4.462-6.01
			c0.114-0.147,0.272-0.271,0.481-0.375c0.203-0.103,0.438-0.154,0.699-0.154h1.943l-6.109,7.729
			c0.42-0.285,0.879-0.509,1.386-0.669C114.729,281.673,115.276,281.594,115.859,281.594z M111.317,286.951
			c0,0.566,0.082,1.082,0.242,1.548c0.168,0.467,0.408,0.868,0.723,1.206c0.316,0.335,0.697,0.594,1.156,0.78
			c0.457,0.182,0.972,0.274,1.552,0.274c0.591,0,1.122-0.093,1.599-0.28c0.476-0.191,0.883-0.451,1.223-0.788
			s0.602-0.733,0.787-1.192c0.185-0.459,0.273-0.958,0.273-1.498c0-0.574-0.089-1.091-0.268-1.557
			c-0.18-0.459-0.434-0.854-0.764-1.179c-0.326-0.323-0.721-0.571-1.18-0.742c-0.461-0.173-0.961-0.26-1.51-0.26
			c-0.591,0-1.122,0.102-1.6,0.301c-0.479,0.203-0.873,0.47-1.209,0.811c-0.33,0.341-0.584,0.732-0.764,1.181
			C111.405,286.002,111.317,286.468,111.317,286.951z"/>
	</g>
	<g>
		<path fill="#FFFFFF" d="M119.608,41.275c0.775,0,1.512,0.128,2.205,0.386c0.695,0.257,1.303,0.631,1.826,1.122
			c0.521,0.491,0.938,1.097,1.246,1.812c0.305,0.717,0.458,1.537,0.458,2.456c0,0.894-0.162,1.722-0.487,2.489
			c-0.324,0.767-0.777,1.434-1.358,2.001s-1.283,1.015-2.104,1.339c-0.82,0.325-1.721,0.488-2.705,0.488
			c-0.974,0-1.854-0.155-2.645-0.467c-0.789-0.31-1.462-0.752-2.021-1.325c-0.561-0.573-0.99-1.268-1.293-2.083
			c-0.303-0.817-0.453-1.729-0.453-2.739c0-0.848,0.19-1.75,0.568-2.705c0.38-0.956,0.98-1.984,1.801-3.084l4.91-6.615
			c0.125-0.162,0.303-0.3,0.527-0.412c0.225-0.114,0.482-0.168,0.77-0.168h2.138l-6.722,8.508c0.459-0.316,0.968-0.562,1.527-0.737
			C118.354,41.364,118.959,41.275,119.608,41.275z M114.604,47.173c0,0.623,0.09,1.19,0.27,1.705
			c0.182,0.515,0.445,0.955,0.793,1.327c0.346,0.37,0.77,0.655,1.27,0.857c0.502,0.203,1.072,0.304,1.713,0.304
			c0.646,0,1.234-0.103,1.758-0.31c0.521-0.209,0.971-0.497,1.346-0.867c0.375-0.369,0.664-0.808,0.865-1.312
			c0.204-0.504,0.303-1.054,0.303-1.651c0-0.629-0.096-1.202-0.295-1.71c-0.2-0.509-0.479-0.941-0.84-1.299
			c-0.361-0.355-0.793-0.629-1.299-0.817c-0.505-0.191-1.057-0.285-1.664-0.285c-0.65,0-1.234,0.11-1.756,0.33
			c-0.525,0.222-0.969,0.52-1.332,0.893c-0.367,0.375-0.646,0.809-0.842,1.299C114.702,46.131,114.604,46.642,114.604,47.173z"/>
		<path fill="#FFFFFF" d="M131.648,53.153v-9.789h0.985c0.186,0,0.314,0.037,0.385,0.108c0.072,0.07,0.12,0.192,0.145,0.367
			l0.117,1.526c0.334-0.683,0.75-1.216,1.242-1.599c0.492-0.384,1.07-0.574,1.732-0.574c0.271,0,0.517,0.03,0.736,0.091
			c0.217,0.062,0.419,0.146,0.606,0.256l-0.22,1.286c-0.047,0.161-0.146,0.241-0.301,0.241c-0.091,0-0.229-0.029-0.414-0.09
			c-0.188-0.062-0.449-0.093-0.785-0.093c-0.598,0-1.1,0.175-1.502,0.522c-0.4,0.348-0.738,0.853-1.008,1.517v6.232H131.648z"/>
		<path fill="#FFFFFF" d="M143.311,43.209c0.585,0,1.126,0.098,1.622,0.294c0.496,0.198,0.926,0.481,1.286,0.851
			c0.36,0.371,0.642,0.829,0.845,1.372c0.202,0.545,0.305,1.164,0.305,1.86c0,0.27-0.029,0.451-0.088,0.541
			c-0.059,0.091-0.167,0.136-0.328,0.136h-6.512c0.013,0.618,0.095,1.156,0.25,1.613c0.155,0.456,0.368,0.839,0.639,1.144
			c0.27,0.307,0.591,0.536,0.965,0.686c0.374,0.153,0.794,0.228,1.258,0.228c0.431,0,0.802-0.049,1.115-0.149
			c0.314-0.101,0.582-0.208,0.808-0.324c0.226-0.117,0.413-0.224,0.564-0.324c0.149-0.101,0.28-0.15,0.392-0.15
			c0.141,0,0.252,0.055,0.326,0.164l0.484,0.628c-0.211,0.258-0.465,0.481-0.764,0.672c-0.296,0.19-0.613,0.346-0.951,0.468
			s-0.688,0.215-1.049,0.276c-0.359,0.061-0.715,0.091-1.07,0.091c-0.678,0-1.301-0.114-1.871-0.343
			c-0.568-0.228-1.062-0.563-1.478-1.005c-0.413-0.44-0.739-0.986-0.972-1.639c-0.232-0.649-0.347-1.396-0.347-2.24
			c0-0.683,0.104-1.32,0.312-1.912c0.21-0.594,0.513-1.107,0.904-1.542s0.872-0.776,1.438-1.024
			C141.964,43.336,142.601,43.209,143.311,43.209z M143.348,44.475c-0.83,0-1.485,0.241-1.96,0.721
			c-0.479,0.48-0.773,1.145-0.889,1.995h5.324c0-0.399-0.056-0.765-0.166-1.096c-0.107-0.331-0.271-0.619-0.481-0.859
			c-0.214-0.242-0.472-0.429-0.778-0.561C144.09,44.543,143.739,44.475,143.348,44.475z"/>
		<path fill="#FFFFFF" d="M149.563,56.466V43.364h1.021c0.246,0,0.4,0.12,0.465,0.358l0.146,1.159
			c0.418-0.509,0.895-0.917,1.434-1.226c0.536-0.31,1.158-0.464,1.859-0.464c0.562,0,1.068,0.107,1.526,0.324
			c0.458,0.214,0.846,0.533,1.168,0.955c0.323,0.423,0.571,0.946,0.743,1.57c0.178,0.625,0.262,1.345,0.262,2.155
			c0,0.722-0.096,1.393-0.289,2.014c-0.192,0.622-0.471,1.159-0.83,1.613c-0.361,0.455-0.805,0.812-1.328,1.074
			c-0.526,0.26-1.118,0.391-1.773,0.391c-0.607,0-1.123-0.1-1.552-0.3c-0.429-0.199-0.806-0.482-1.136-0.849v4.328H149.563z
			 M153.92,44.583c-0.56,0-1.052,0.129-1.475,0.386c-0.423,0.258-0.809,0.622-1.165,1.092v4.734
			c0.316,0.425,0.663,0.725,1.039,0.898c0.378,0.174,0.799,0.262,1.26,0.262c0.91,0,1.608-0.326,2.097-0.976
			c0.491-0.65,0.737-1.578,0.737-2.782c0-0.639-0.059-1.186-0.17-1.643c-0.114-0.458-0.275-0.832-0.489-1.125
			c-0.212-0.293-0.472-0.506-0.781-0.644C154.663,44.65,154.312,44.583,153.92,44.583z"/>
		<path fill="#FFFFFF" d="M164.188,43.209c0.715,0,1.361,0.12,1.937,0.358c0.577,0.238,1.065,0.577,1.47,1.015
			c0.401,0.437,0.711,0.968,0.926,1.589c0.217,0.62,0.325,1.315,0.325,2.082c0,0.773-0.108,1.468-0.325,2.087
			c-0.215,0.618-0.524,1.146-0.926,1.586c-0.404,0.437-0.893,0.773-1.47,1.009c-0.575,0.236-1.222,0.352-1.937,0.352
			s-1.359-0.116-1.938-0.352c-0.575-0.235-1.067-0.572-1.472-1.009c-0.407-0.439-0.719-0.968-0.938-1.586
			c-0.219-0.619-0.326-1.313-0.326-2.087c0-0.767,0.107-1.462,0.326-2.082c0.219-0.622,0.53-1.152,0.938-1.589
			c0.404-0.438,0.896-0.777,1.472-1.015C162.829,43.329,163.474,43.209,164.188,43.209z M164.188,51.945
			c0.967,0,1.688-0.323,2.164-0.971c0.477-0.647,0.714-1.552,0.714-2.71c0-1.167-0.237-2.075-0.714-2.726s-1.197-0.976-2.164-0.976
			c-0.49,0-0.914,0.084-1.275,0.251s-0.663,0.409-0.904,0.725c-0.24,0.315-0.42,0.704-0.541,1.166
			c-0.119,0.46-0.178,0.979-0.178,1.56c0,0.58,0.059,1.099,0.178,1.556c0.121,0.456,0.301,0.841,0.541,1.155
			c0.241,0.312,0.543,0.551,0.904,0.718C163.274,51.861,163.698,51.945,164.188,51.945z"/>
		<path fill="#FFFFFF" d="M170.97,53.153v-9.789h0.986c0.188,0,0.316,0.037,0.388,0.108c0.068,0.07,0.118,0.192,0.144,0.367
			l0.115,1.526c0.336-0.683,0.75-1.216,1.242-1.599c0.492-0.384,1.072-0.574,1.734-0.574c0.271,0,0.516,0.03,0.734,0.091
			c0.22,0.062,0.421,0.146,0.607,0.256l-0.221,1.286c-0.045,0.161-0.145,0.241-0.299,0.241c-0.092,0-0.229-0.029-0.417-0.09
			c-0.187-0.062-0.444-0.093-0.782-0.093c-0.598,0-1.101,0.175-1.502,0.522c-0.403,0.348-0.74,0.853-1.01,1.517v6.232H170.97z"/>
		<path fill="#FFFFFF" d="M181.724,53.307c-0.771,0-1.367-0.216-1.78-0.647c-0.417-0.431-0.626-1.053-0.626-1.865v-5.99h-1.177
			c-0.104,0-0.19-0.031-0.261-0.092c-0.072-0.062-0.108-0.156-0.108-0.286v-0.686l1.604-0.203l0.396-3.023
			c0.014-0.096,0.056-0.176,0.127-0.237c0.068-0.062,0.159-0.093,0.269-0.093h0.872v3.373h2.803v1.247h-2.803v5.874
			c0,0.413,0.098,0.718,0.298,0.916c0.198,0.202,0.456,0.301,0.772,0.301c0.18,0,0.336-0.024,0.469-0.073
			c0.132-0.047,0.248-0.102,0.342-0.159c0.097-0.058,0.18-0.112,0.248-0.159c0.068-0.049,0.126-0.073,0.18-0.073
			c0.088,0,0.169,0.055,0.242,0.163l0.502,0.824c-0.297,0.275-0.656,0.493-1.075,0.651
			C182.601,53.229,182.171,53.307,181.724,53.307z"/>
		<path fill="#FFFFFF" d="M191.568,44.979c-0.077,0.14-0.196,0.212-0.356,0.212c-0.098,0-0.208-0.036-0.328-0.106
			c-0.123-0.07-0.274-0.149-0.449-0.236c-0.178-0.086-0.39-0.167-0.633-0.242c-0.246-0.074-0.536-0.112-0.872-0.112
			c-0.288,0-0.549,0.038-0.78,0.112c-0.232,0.074-0.43,0.175-0.594,0.304s-0.291,0.279-0.377,0.45
			c-0.088,0.169-0.131,0.355-0.131,0.554c0,0.251,0.07,0.461,0.217,0.628c0.145,0.167,0.335,0.313,0.576,0.435
			c0.237,0.123,0.507,0.23,0.811,0.325c0.302,0.093,0.613,0.192,0.932,0.298c0.319,0.107,0.631,0.224,0.934,0.354
			c0.301,0.129,0.572,0.291,0.811,0.483c0.238,0.193,0.43,0.43,0.576,0.71s0.217,0.617,0.217,1.009c0,0.451-0.082,0.869-0.242,1.252
			c-0.161,0.382-0.4,0.714-0.715,0.994c-0.315,0.28-0.702,0.501-1.16,0.663c-0.458,0.16-0.985,0.241-1.583,0.241
			c-0.683,0-1.303-0.11-1.856-0.334c-0.555-0.223-1.023-0.507-1.412-0.855l0.406-0.656c0.053-0.084,0.114-0.148,0.187-0.194
			c0.068-0.044,0.163-0.068,0.278-0.068c0.117,0,0.238,0.046,0.369,0.137c0.127,0.09,0.283,0.189,0.468,0.298
			c0.183,0.11,0.405,0.209,0.665,0.3c0.262,0.09,0.59,0.135,0.982,0.135c0.335,0,0.628-0.043,0.879-0.13
			c0.25-0.086,0.461-0.205,0.627-0.353c0.169-0.148,0.291-0.319,0.373-0.513c0.08-0.192,0.121-0.399,0.121-0.618
			c0-0.27-0.072-0.494-0.217-0.672c-0.146-0.176-0.338-0.328-0.576-0.454c-0.237-0.125-0.51-0.235-0.817-0.327
			c-0.306-0.093-0.617-0.192-0.937-0.296c-0.318-0.104-0.631-0.22-0.937-0.352c-0.306-0.133-0.578-0.297-0.815-0.499
			c-0.24-0.199-0.431-0.445-0.576-0.738s-0.217-0.65-0.217-1.068c0-0.374,0.078-0.733,0.232-1.076
			c0.151-0.345,0.379-0.647,0.676-0.908c0.295-0.262,0.66-0.468,1.093-0.623c0.429-0.155,0.921-0.234,1.477-0.234
			c0.644,0,1.224,0.103,1.733,0.307c0.512,0.202,0.956,0.48,1.329,0.833L191.568,44.979z"/>
		<path fill="#FFFFFF" d="M200.369,48.137l-3.294-4.773h1.654c0.141,0,0.241,0.023,0.305,0.068c0.066,0.045,0.124,0.11,0.178,0.193
			l2.395,3.673c0.059-0.181,0.141-0.362,0.25-0.543l2.109-3.091c0.062-0.089,0.127-0.163,0.191-0.218
			c0.062-0.053,0.146-0.082,0.241-0.082h1.585l-3.293,4.677l3.428,5.111h-1.651c-0.14,0-0.252-0.037-0.334-0.111
			c-0.081-0.074-0.145-0.157-0.198-0.247l-2.463-3.835c-0.045,0.187-0.112,0.353-0.203,0.501l-2.278,3.333
			c-0.065,0.09-0.136,0.173-0.209,0.247c-0.075,0.074-0.176,0.111-0.306,0.111h-1.537L200.369,48.137z"/>
		<path fill="#FFFFFF" d="M216.126,39.152c0.588,0,1.13,0.083,1.627,0.251c0.494,0.167,0.922,0.407,1.279,0.715
			c0.355,0.31,0.635,0.683,0.836,1.121c0.199,0.438,0.299,0.925,0.299,1.46c0,0.438-0.057,0.828-0.168,1.172
			c-0.113,0.346-0.275,0.648-0.484,0.91c-0.21,0.261-0.462,0.481-0.759,0.662c-0.296,0.181-0.628,0.324-0.995,0.435
			c0.904,0.238,1.58,0.636,2.033,1.198c0.455,0.56,0.682,1.263,0.682,2.105c0,0.639-0.12,1.212-0.362,1.721
			c-0.242,0.508-0.571,0.942-0.989,1.298c-0.418,0.358-0.908,0.632-1.465,0.822s-1.154,0.285-1.794,0.285
			c-0.733,0-1.361-0.092-1.881-0.275c-0.524-0.185-0.966-0.436-1.326-0.759c-0.36-0.321-0.656-0.704-0.888-1.146
			c-0.232-0.441-0.428-0.919-0.59-1.434l0.733-0.309c0.137-0.058,0.271-0.087,0.407-0.087c0.129,0,0.244,0.026,0.344,0.082
			s0.175,0.14,0.227,0.256c0.012,0.024,0.025,0.054,0.039,0.083c0.012,0.028,0.023,0.06,0.037,0.09
			c0.091,0.187,0.201,0.399,0.329,0.634c0.129,0.235,0.304,0.456,0.523,0.661c0.218,0.208,0.49,0.382,0.813,0.522
			c0.326,0.142,0.73,0.212,1.215,0.212c0.482,0,0.905-0.079,1.269-0.237c0.364-0.157,0.666-0.362,0.909-0.613
			c0.24-0.251,0.424-0.532,0.547-0.84c0.123-0.309,0.183-0.614,0.183-0.917c0-0.375-0.048-0.716-0.149-1.024
			c-0.1-0.31-0.279-0.577-0.541-0.803c-0.262-0.226-0.621-0.401-1.08-0.531c-0.465-0.128-1.055-0.192-1.775-0.192v-1.257
			c0.588,0,1.088-0.061,1.502-0.183c0.415-0.122,0.755-0.289,1.02-0.501c0.264-0.213,0.457-0.467,0.575-0.765
			c0.12-0.296,0.179-0.625,0.179-0.985c0-0.401-0.063-0.747-0.188-1.043c-0.126-0.295-0.298-0.541-0.517-0.734
			c-0.219-0.193-0.478-0.339-0.777-0.435c-0.3-0.098-0.622-0.144-0.971-0.144c-0.35,0-0.672,0.051-0.968,0.155
			c-0.296,0.102-0.558,0.246-0.786,0.428c-0.229,0.183-0.422,0.402-0.577,0.658c-0.153,0.253-0.269,0.528-0.347,0.824
			c-0.05,0.186-0.129,0.322-0.232,0.405c-0.104,0.083-0.234,0.127-0.396,0.127c-0.031,0-0.064-0.003-0.1-0.006
			c-0.035-0.004-0.076-0.009-0.123-0.015l-0.896-0.153c0.09-0.63,0.264-1.189,0.521-1.675c0.257-0.486,0.584-0.894,0.979-1.223
			c0.396-0.327,0.853-0.578,1.363-0.748C214.983,39.239,215.535,39.152,216.126,39.152z"/>
		<path fill="#FFFFFF" d="M227.625,44.669c0.556,0,1.081,0.093,1.575,0.275c0.496,0.184,0.932,0.451,1.305,0.802
			c0.373,0.351,0.67,0.783,0.889,1.295c0.22,0.512,0.328,1.096,0.328,1.753c0,0.639-0.115,1.231-0.348,1.778
			c-0.23,0.547-0.555,1.022-0.971,1.43c-0.415,0.406-0.918,0.724-1.502,0.958c-0.588,0.231-1.23,0.347-1.934,0.347
			c-0.695,0-1.324-0.11-1.888-0.334c-0.565-0.223-1.046-0.537-1.446-0.946c-0.397-0.409-0.705-0.905-0.922-1.489
			c-0.216-0.582-0.323-1.234-0.323-1.956c0-0.604,0.136-1.25,0.405-1.933c0.271-0.682,0.699-1.416,1.287-2.203l3.506-4.725
			c0.09-0.115,0.217-0.212,0.375-0.294c0.162-0.081,0.347-0.121,0.553-0.121h1.527l-4.805,6.078
			c0.328-0.226,0.693-0.402,1.094-0.528C226.73,44.732,227.16,44.669,227.625,44.669z M224.052,48.882
			c0,0.445,0.064,0.851,0.191,1.218c0.129,0.367,0.316,0.683,0.568,0.946c0.245,0.266,0.549,0.468,0.905,0.614
			c0.357,0.145,0.767,0.217,1.222,0.217c0.465,0,0.883-0.072,1.257-0.221c0.372-0.149,0.694-0.355,0.962-0.62
			c0.266-0.263,0.471-0.575,0.617-0.936s0.219-0.754,0.219-1.18c0-0.451-0.072-0.858-0.213-1.221
			c-0.141-0.366-0.342-0.673-0.601-0.928c-0.257-0.253-0.565-0.449-0.926-0.585c-0.36-0.135-0.757-0.202-1.188-0.202
			c-0.465,0-0.884,0.078-1.258,0.236c-0.373,0.158-0.69,0.37-0.951,0.637c-0.26,0.268-0.459,0.578-0.598,0.928
			C224.119,48.135,224.052,48.502,224.052,48.882z"/>
		<path fill="#FFFFFF" d="M242.001,40.06c0,0.245-0.078,0.447-0.231,0.604s-0.416,0.237-0.782,0.237h-4.348l-0.639,3.633
			c0.722-0.155,1.388-0.231,2.001-0.231c0.722,0,1.357,0.106,1.909,0.318c0.551,0.212,1.012,0.505,1.386,0.88
			c0.374,0.373,0.655,0.814,0.846,1.323c0.188,0.509,0.286,1.062,0.286,1.661c0,0.734-0.131,1.4-0.388,1.992
			c-0.26,0.592-0.612,1.099-1.058,1.52c-0.447,0.423-0.975,0.746-1.58,0.972c-0.607,0.225-1.26,0.338-1.961,0.338
			c-0.406,0-0.799-0.041-1.171-0.122c-0.374-0.078-0.72-0.188-1.042-0.323c-0.322-0.137-0.622-0.289-0.9-0.465
			c-0.277-0.173-0.521-0.356-0.734-0.55l0.522-0.733c0.116-0.168,0.271-0.252,0.465-0.252c0.121,0,0.266,0.051,0.43,0.15
			c0.163,0.1,0.361,0.211,0.595,0.333c0.231,0.123,0.502,0.233,0.815,0.334c0.312,0.1,0.685,0.149,1.115,0.149
			c0.483,0,0.917-0.079,1.306-0.234c0.387-0.152,0.717-0.373,0.989-0.66c0.274-0.287,0.485-0.63,0.632-1.029
			c0.15-0.398,0.224-0.847,0.224-1.343c0-0.43-0.062-0.82-0.188-1.168c-0.125-0.348-0.314-0.645-0.57-0.889
			c-0.255-0.244-0.572-0.435-0.951-0.569c-0.38-0.137-0.824-0.204-1.334-0.204c-0.348,0-0.707,0.027-1.081,0.087
			c-0.374,0.058-0.761,0.15-1.161,0.28l-1.08-0.318l1.121-6.474h6.559V40.06z"/>
		<path fill="#FFFFFF" d="M255.788,53.153c-0.244,0-0.4-0.119-0.463-0.358l-0.156-1.188c-0.419,0.509-0.896,0.918-1.435,1.223
			c-0.537,0.306-1.153,0.458-1.849,0.458c-0.561,0-1.07-0.107-1.527-0.325c-0.457-0.214-0.848-0.532-1.169-0.95
			c-0.323-0.419-0.57-0.941-0.745-1.566c-0.172-0.624-0.26-1.343-0.26-2.155c0-0.72,0.097-1.394,0.288-2.014
			c0.195-0.621,0.472-1.161,0.838-1.619c0.363-0.457,0.807-0.815,1.329-1.076c0.521-0.261,1.113-0.391,1.775-0.391
			c0.601,0,1.112,0.099,1.537,0.303c0.426,0.204,0.805,0.488,1.14,0.854v-5.43h1.722v14.233H255.788z M252.454,51.896
			c0.562,0,1.054-0.129,1.473-0.386c0.423-0.259,0.812-0.624,1.165-1.093v-4.734c-0.315-0.425-0.661-0.723-1.038-0.894
			c-0.377-0.17-0.795-0.255-1.25-0.255c-0.916,0-1.619,0.326-2.107,0.976c-0.49,0.651-0.734,1.578-0.734,2.782
			c0,0.639,0.056,1.185,0.166,1.638c0.107,0.455,0.27,0.828,0.481,1.121c0.213,0.293,0.475,0.506,0.781,0.642
			C251.7,51.829,252.054,51.896,252.454,51.896z"/>
		<path fill="#FFFFFF" d="M266.89,53.153h-0.765c-0.166,0-0.302-0.026-0.403-0.078c-0.104-0.051-0.172-0.161-0.203-0.328
			l-0.195-0.909c-0.256,0.232-0.508,0.44-0.753,0.624c-0.245,0.183-0.501,0.337-0.772,0.464c-0.271,0.125-0.559,0.221-0.865,0.284
			c-0.306,0.065-0.645,0.097-1.02,0.097c-0.378,0-0.736-0.053-1.068-0.16c-0.332-0.106-0.619-0.267-0.863-0.479
			c-0.244-0.213-0.439-0.483-0.586-0.81c-0.145-0.328-0.215-0.713-0.215-1.159c0-0.387,0.104-0.761,0.317-1.121
			c0.214-0.357,0.556-0.676,1.029-0.954c0.473-0.279,1.095-0.507,1.859-0.685c0.766-0.177,1.704-0.266,2.813-0.266v-0.768
			c0-0.766-0.163-1.344-0.49-1.735c-0.324-0.392-0.806-0.588-1.443-0.588c-0.419,0-0.771,0.052-1.059,0.158
			c-0.287,0.108-0.535,0.227-0.744,0.358c-0.209,0.132-0.39,0.25-0.541,0.359c-0.15,0.104-0.3,0.158-0.448,0.158
			c-0.116,0-0.218-0.031-0.306-0.091c-0.086-0.062-0.156-0.137-0.206-0.228l-0.31-0.551c0.54-0.522,1.124-0.911,1.749-1.17
			c0.624-0.257,1.317-0.385,2.075-0.385c0.549,0,1.035,0.089,1.461,0.27c0.424,0.179,0.783,0.432,1.072,0.753
			c0.289,0.321,0.508,0.711,0.656,1.17c0.148,0.457,0.223,0.958,0.223,1.506V53.153z M262.425,52.1c0.305,0,0.58-0.031,0.832-0.092
			c0.252-0.062,0.486-0.148,0.711-0.261c0.221-0.113,0.435-0.25,0.637-0.411c0.202-0.162,0.4-0.345,0.596-0.552v-2.02
			c-0.794,0-1.469,0.051-2.02,0.15c-0.556,0.102-1.007,0.232-1.355,0.395c-0.346,0.162-0.6,0.353-0.758,0.574
			c-0.158,0.219-0.235,0.465-0.235,0.736c0,0.26,0.041,0.483,0.124,0.671c0.084,0.188,0.197,0.342,0.338,0.463
			c0.143,0.118,0.309,0.206,0.504,0.262C261.991,52.071,262.2,52.1,262.425,52.1z"/>
		<path fill="#FFFFFF" d="M272.06,56.042c-0.061,0.128-0.132,0.232-0.219,0.309c-0.086,0.078-0.221,0.116-0.402,0.116h-1.271
			l1.786-3.884l-4.038-9.218h1.486c0.15,0,0.265,0.038,0.346,0.112c0.086,0.074,0.146,0.156,0.188,0.246l2.616,6.165
			c0.058,0.141,0.107,0.282,0.151,0.425c0.041,0.142,0.077,0.287,0.111,0.435c0.043-0.148,0.09-0.293,0.133-0.435
			c0.046-0.143,0.098-0.286,0.156-0.435l2.541-6.154c0.039-0.104,0.104-0.189,0.199-0.256c0.092-0.067,0.193-0.102,0.304-0.102
			h1.372L272.06,56.042z"/>
		<path fill="#FFFFFF" d="M284.687,44.979c-0.078,0.14-0.197,0.212-0.355,0.212c-0.1,0-0.207-0.036-0.33-0.106
			c-0.121-0.07-0.273-0.149-0.448-0.236c-0.179-0.086-0.39-0.167-0.634-0.242s-0.533-0.112-0.87-0.112
			c-0.289,0-0.549,0.038-0.782,0.112c-0.231,0.074-0.43,0.175-0.594,0.304s-0.29,0.279-0.377,0.45
			c-0.088,0.169-0.131,0.355-0.131,0.554c0,0.251,0.072,0.461,0.218,0.628c0.145,0.167,0.335,0.313,0.576,0.435
			c0.235,0.123,0.506,0.23,0.812,0.325c0.301,0.093,0.611,0.192,0.931,0.298c0.319,0.107,0.63,0.224,0.933,0.354
			c0.303,0.129,0.574,0.291,0.812,0.483c0.237,0.193,0.429,0.43,0.575,0.71c0.146,0.28,0.218,0.617,0.218,1.009
			c0,0.451-0.081,0.869-0.241,1.252c-0.161,0.382-0.4,0.714-0.717,0.994c-0.314,0.28-0.701,0.501-1.156,0.663
			c-0.461,0.16-0.989,0.241-1.588,0.241c-0.682,0-1.301-0.11-1.854-0.334c-0.556-0.223-1.025-0.507-1.41-0.855l0.403-0.656
			c0.054-0.084,0.113-0.148,0.187-0.194c0.068-0.044,0.164-0.068,0.278-0.068c0.116,0,0.239,0.046,0.369,0.137
			c0.127,0.09,0.284,0.189,0.466,0.298c0.185,0.11,0.407,0.209,0.667,0.3c0.262,0.09,0.589,0.135,0.981,0.135
			c0.336,0,0.629-0.043,0.88-0.13c0.251-0.086,0.46-0.205,0.628-0.353c0.167-0.148,0.29-0.319,0.371-0.513
			c0.082-0.192,0.121-0.399,0.121-0.618c0-0.27-0.071-0.494-0.217-0.672c-0.145-0.176-0.338-0.328-0.576-0.454
			c-0.236-0.125-0.51-0.235-0.816-0.327c-0.306-0.093-0.617-0.192-0.936-0.296c-0.319-0.104-0.632-0.22-0.938-0.352
			c-0.307-0.133-0.58-0.297-0.816-0.499c-0.24-0.199-0.431-0.445-0.576-0.738c-0.145-0.293-0.215-0.65-0.215-1.068
			c0-0.374,0.076-0.733,0.23-1.076c0.154-0.345,0.38-0.647,0.676-0.908c0.297-0.262,0.661-0.468,1.094-0.623
			c0.429-0.155,0.922-0.234,1.477-0.234c0.645,0,1.223,0.103,1.734,0.307c0.512,0.202,0.955,0.48,1.328,0.833L284.687,44.979z"/>
	</g>
</g>
</svg>
