<?xml version="1.0" encoding="utf-8"?>
<!-- Generator: Adobe Illustrator 16.0.0, SVG Export Plug-In . SVG Version: 6.00 Build 0)  -->
<!DOCTYPE svg PUBLIC "-//W3C//DTD SVG 1.1//EN" "http://www.w3.org/Graphics/SVG/1.1/DTD/svg11.dtd">
<svg version="1.1" id="Layer_1" xmlns="http://www.w3.org/2000/svg" xmlns:xlink="http://www.w3.org/1999/xlink" x="0px" y="0px"
	 width="216px" height="198px" viewBox="0 0 216 198" enable-background="new 0 0 216 198" xml:space="preserve">
<g>
	<path fill="#0E5461" d="M68.174,64.416c-3.26,0-5.9-2.641-5.9-5.896V37.27c0-3.257,2.641-5.898,5.9-5.898
		c3.258,0,5.898,2.642,5.898,5.898v21.25C74.072,61.775,71.432,64.416,68.174,64.416L68.174,64.416z M139.226,64.416
		c-3.257,0-5.9-2.641-5.9-5.896V37.27c0-3.257,2.644-5.898,5.9-5.898c3.258,0,5.899,2.642,5.899,5.898v21.25
		C145.125,61.775,142.483,64.416,139.226,64.416L139.226,64.416z M49.461,83.364v66.193c0,2.483,2.013,4.495,4.496,4.495h99.485
		c2.482,0,4.496-2.012,4.496-4.495V83.364c0-2.481-2.014-4.494-4.496-4.494H53.957C51.474,78.87,49.461,80.883,49.461,83.364
		L49.461,83.364z M29.536,55.882c0-7.446,6.038-13.484,13.485-13.484h16.105V58.52c0,4.994,4.051,9.043,9.047,9.043
		c4.993,0,9.045-4.047,9.045-9.043V42.397h52.96V58.52c0,4.996,4.054,9.043,9.047,9.043c4.996,0,9.046-4.049,9.046-9.043V42.397
		h16.107c7.445,0,13.484,6.038,13.484,13.484v99.136c0,7.446-6.039,13.484-13.484,13.484H43.021
		c-7.447,0-13.485-6.038-13.485-13.484V55.882L29.536,55.882z M90.777,109.348v14.226H76.544v-14.226H90.777L90.777,109.348z
		 M110.812,128.387v14.229H96.589v-14.229H110.812L110.812,128.387z M90.777,128.387v14.229H76.544v-14.229H90.777L90.777,128.387z
		 M90.777,90.31v14.225H76.544V90.31H90.777L90.777,90.31z M70.727,109.348v14.226H56.502v-14.226H70.727L70.727,109.348z
		 M70.727,128.387v14.229H56.502v-14.229H70.727L70.727,128.387z M150.898,109.348v14.226h-14.226v-14.226H150.898L150.898,109.348z
		 M130.861,90.31v14.225h-14.229V90.31H130.861L130.861,90.31z M110.812,109.348v14.226H96.589v-14.226H110.812L110.812,109.348z
		 M150.898,90.31v14.225h-14.226V90.31H150.898L150.898,90.31z M130.861,109.348v14.226h-14.229v-14.226H130.861L130.861,109.348z
		 M110.812,90.31v14.225H96.589V90.31H110.812L110.812,90.31z M130.861,128.387v14.229h-14.229v-14.229H130.861L130.861,128.387z
		 M25.982,10.855c0-3.614,1.629-6.547,3.639-6.547H177.59c2.01,0,3.638,2.933,3.638,6.547v11.881c0,3.616-1.628,6.549-3.638,6.549
		H29.621c-2.01,0-3.639-2.933-3.639-6.549V10.855L25.982,10.855z"/>
	<g>
		<path fill="#ED1C24" d="M10.976,178.664c0.725,0,1.431,0.12,2.118,0.359c0.686,0.238,1.289,0.599,1.812,1.082
			c0.521,0.482,0.942,1.082,1.261,1.799s0.478,1.554,0.478,2.509c0,0.895-0.164,1.732-0.491,2.517
			c-0.326,0.783-0.788,1.468-1.381,2.052s-1.307,1.044-2.145,1.38c-0.835,0.337-1.759,0.505-2.768,0.505
			c-1.026,0-1.947-0.164-2.762-0.491c-0.815-0.328-1.51-0.785-2.084-1.374c-0.576-0.589-1.016-1.297-1.321-2.125
			c-0.306-0.827-0.458-1.746-0.458-2.755c0-0.902,0.183-1.83,0.55-2.781c0.368-0.951,0.937-1.94,1.707-2.968l4.58-6.147
			c0.16-0.213,0.393-0.394,0.697-0.544c0.306-0.15,0.657-0.227,1.057-0.227h2.92l-5.696,6.972c-0.124,0.15-0.24,0.292-0.352,0.425
			c-0.111,0.132-0.219,0.27-0.325,0.411c0.371-0.186,0.771-0.331,1.201-0.438C10.004,178.718,10.472,178.664,10.976,178.664z
			 M6.382,184.626c0,0.531,0.073,1.016,0.219,1.454c0.146,0.438,0.363,0.812,0.651,1.122c0.286,0.31,0.644,0.551,1.068,0.723
			c0.424,0.173,0.915,0.26,1.473,0.26c0.523,0,1.003-0.089,1.44-0.266c0.439-0.178,0.815-0.425,1.13-0.743
			c0.314-0.319,0.559-0.693,0.736-1.123c0.177-0.429,0.267-0.896,0.267-1.4c0-0.549-0.085-1.042-0.254-1.479
			c-0.167-0.439-0.406-0.811-0.716-1.116s-0.682-0.537-1.115-0.696c-0.434-0.16-0.912-0.239-1.435-0.239
			c-0.521,0-0.996,0.088-1.421,0.265c-0.425,0.178-0.789,0.423-1.095,0.737s-0.54,0.687-0.704,1.115
			C6.464,183.668,6.382,184.131,6.382,184.626z"/>
		<path fill="#FFFFFF" d="M22.76,190.654v-8.967h0.903c0.17,0,0.288,0.032,0.353,0.097c0.064,0.065,0.109,0.178,0.134,0.337
			l0.105,1.398c0.307-0.625,0.688-1.113,1.138-1.465c0.451-0.352,0.981-0.527,1.59-0.527c0.247,0,0.471,0.028,0.672,0.085
			c0.201,0.056,0.387,0.134,0.558,0.234l-0.204,1.178c-0.04,0.147-0.133,0.221-0.273,0.221c-0.082,0-0.209-0.028-0.381-0.084
			c-0.171-0.057-0.41-0.085-0.718-0.085c-0.549,0-1.007,0.16-1.375,0.479c-0.369,0.318-0.678,0.782-0.926,1.39v5.71H22.76z"/>
		<path fill="#FFFFFF" d="M33.443,181.546c0.536,0,1.033,0.09,1.487,0.27c0.453,0.18,0.847,0.44,1.177,0.779
			s0.589,0.759,0.775,1.257c0.186,0.499,0.277,1.066,0.277,1.704c0,0.247-0.025,0.413-0.079,0.495
			c-0.053,0.083-0.154,0.124-0.301,0.124h-5.966c0.012,0.566,0.088,1.06,0.23,1.479c0.141,0.419,0.335,0.769,0.583,1.049
			s0.543,0.49,0.887,0.629c0.341,0.139,0.725,0.208,1.149,0.208c0.396,0,0.736-0.047,1.022-0.138
			c0.287-0.092,0.533-0.19,0.739-0.296c0.206-0.107,0.379-0.206,0.518-0.297c0.14-0.092,0.259-0.138,0.358-0.138
			c0.13,0,0.23,0.05,0.301,0.15l0.442,0.575c-0.194,0.236-0.428,0.442-0.698,0.615c-0.271,0.175-0.562,0.318-0.872,0.43
			c-0.31,0.112-0.63,0.196-0.961,0.252c-0.33,0.057-0.658,0.084-0.982,0.084c-0.619,0-1.19-0.104-1.713-0.313
			c-0.521-0.21-0.973-0.517-1.354-0.921c-0.38-0.404-0.677-0.904-0.889-1.5c-0.213-0.596-0.318-1.28-0.318-2.054
			c0-0.626,0.095-1.21,0.287-1.753c0.191-0.542,0.468-1.014,0.828-1.412s0.8-0.711,1.318-0.938
			C32.21,181.659,32.794,181.546,33.443,181.546z M33.478,182.705c-0.76,0-1.359,0.22-1.796,0.659s-0.708,1.049-0.814,1.828h4.877
			c0-0.366-0.051-0.7-0.149-1.004c-0.102-0.305-0.248-0.567-0.442-0.788c-0.196-0.222-0.434-0.393-0.714-0.514
			S33.838,182.705,33.478,182.705z"/>
		<path fill="#FFFFFF" d="M39.17,193.69v-12.003h0.938c0.225,0,0.365,0.109,0.425,0.327l0.133,1.062
			c0.384-0.466,0.822-0.84,1.314-1.123c0.493-0.283,1.061-0.426,1.703-0.426c0.515,0,0.979,0.1,1.399,0.297
			c0.419,0.198,0.776,0.49,1.071,0.876c0.294,0.387,0.521,0.867,0.682,1.438c0.158,0.573,0.239,1.23,0.239,1.975
			c0,0.661-0.089,1.276-0.267,1.845c-0.177,0.57-0.431,1.062-0.761,1.479c-0.331,0.416-0.736,0.744-1.217,0.982
			c-0.481,0.239-1.023,0.358-1.624,0.358c-0.555,0-1.028-0.091-1.421-0.274c-0.393-0.183-0.739-0.442-1.04-0.778v3.966H39.17z
			 M43.162,182.803c-0.513,0-0.964,0.118-1.35,0.354c-0.387,0.236-0.742,0.57-1.066,1.001v4.337
			c0.288,0.389,0.606,0.663,0.951,0.823c0.346,0.159,0.73,0.238,1.155,0.238c0.831,0,1.473-0.297,1.921-0.894
			c0.447-0.596,0.672-1.445,0.672-2.549c0-0.585-0.052-1.086-0.153-1.505c-0.104-0.419-0.254-0.763-0.448-1.031
			s-0.434-0.465-0.716-0.589C43.844,182.865,43.522,182.803,43.162,182.803z"/>
		<path fill="#FFFFFF" d="M52.571,181.546c0.655,0,1.246,0.108,1.775,0.327c0.527,0.218,0.977,0.528,1.346,0.93
			c0.368,0.401,0.65,0.886,0.85,1.456c0.197,0.569,0.295,1.205,0.295,1.907c0,0.708-0.098,1.346-0.295,1.912
			c-0.199,0.566-0.481,1.05-0.85,1.451c-0.369,0.402-0.818,0.71-1.346,0.926c-0.529,0.215-1.12,0.322-1.775,0.322
			s-1.246-0.107-1.774-0.322c-0.527-0.216-0.979-0.523-1.351-0.926c-0.371-0.401-0.658-0.885-0.858-1.451s-0.301-1.204-0.301-1.912
			c0-0.702,0.101-1.338,0.301-1.907c0.2-0.57,0.487-1.055,0.858-1.456c0.372-0.401,0.823-0.712,1.351-0.93
			C51.325,181.654,51.916,181.546,52.571,181.546z M52.571,189.548c0.885,0,1.546-0.297,1.982-0.89
			c0.437-0.594,0.655-1.421,0.655-2.483c0-1.067-0.219-1.899-0.655-2.496c-0.437-0.596-1.098-0.894-1.982-0.894
			c-0.448,0-0.838,0.077-1.168,0.229c-0.33,0.154-0.606,0.375-0.827,0.664c-0.222,0.29-0.388,0.645-0.496,1.066
			c-0.109,0.423-0.164,0.898-0.164,1.43s0.055,1.006,0.164,1.426c0.108,0.418,0.274,0.771,0.496,1.058
			c0.221,0.285,0.497,0.506,0.827,0.659S52.123,189.548,52.571,189.548z"/>
		<path fill="#FFFFFF" d="M58.785,190.654v-8.967h0.903c0.17,0,0.288,0.032,0.353,0.097c0.065,0.065,0.109,0.178,0.135,0.337
			l0.104,1.398c0.307-0.625,0.688-1.113,1.139-1.465c0.45-0.352,0.98-0.527,1.589-0.527c0.248,0,0.471,0.028,0.673,0.085
			c0.2,0.056,0.386,0.134,0.558,0.234l-0.205,1.178c-0.04,0.147-0.132,0.221-0.273,0.221c-0.082,0-0.209-0.028-0.38-0.084
			c-0.172-0.057-0.411-0.085-0.718-0.085c-0.549,0-1.007,0.16-1.376,0.479s-0.677,0.782-0.925,1.39v5.71H58.785z"/>
		<path fill="#FFFFFF" d="M68.637,190.796c-0.708,0-1.252-0.198-1.633-0.594c-0.382-0.395-0.571-0.965-0.571-1.708v-5.488h-1.079
			c-0.096,0-0.175-0.028-0.239-0.084c-0.065-0.056-0.099-0.143-0.099-0.261v-0.629l1.47-0.186l0.363-2.771
			c0.012-0.089,0.051-0.161,0.115-0.217c0.064-0.057,0.146-0.084,0.248-0.084h0.797v3.089h2.566v1.142h-2.566v5.382
			c0,0.378,0.09,0.658,0.273,0.842c0.183,0.183,0.419,0.274,0.709,0.274c0.165,0,0.308-0.022,0.429-0.067
			c0.121-0.044,0.227-0.093,0.314-0.146c0.089-0.054,0.164-0.103,0.227-0.146c0.062-0.045,0.116-0.066,0.162-0.066
			c0.084,0,0.157,0.05,0.222,0.151l0.462,0.752c-0.272,0.253-0.6,0.453-0.983,0.598C69.438,190.723,69.044,190.796,68.637,190.796z"
			/>
		<path fill="#FFFFFF" d="M77.656,183.165c-0.071,0.131-0.18,0.195-0.328,0.195c-0.088,0-0.188-0.032-0.301-0.098
			s-0.25-0.137-0.411-0.217c-0.162-0.079-0.355-0.153-0.58-0.222c-0.225-0.067-0.49-0.102-0.797-0.102
			c-0.266,0-0.504,0.034-0.716,0.102c-0.214,0.068-0.396,0.161-0.545,0.279c-0.151,0.118-0.267,0.256-0.346,0.412
			s-0.119,0.325-0.119,0.508c0,0.23,0.065,0.423,0.198,0.576c0.134,0.153,0.309,0.286,0.527,0.398
			c0.218,0.112,0.466,0.211,0.743,0.297c0.278,0.085,0.562,0.176,0.854,0.274c0.293,0.097,0.576,0.204,0.854,0.322
			c0.276,0.118,0.524,0.266,0.743,0.442c0.218,0.177,0.394,0.394,0.527,0.651c0.133,0.256,0.199,0.564,0.199,0.925
			c0,0.413-0.075,0.795-0.222,1.146c-0.147,0.352-0.366,0.655-0.656,0.912c-0.288,0.257-0.643,0.459-1.062,0.606
			s-0.901,0.222-1.451,0.222c-0.626,0-1.192-0.103-1.699-0.306c-0.508-0.204-0.938-0.465-1.293-0.783l0.372-0.602
			c0.048-0.077,0.104-0.137,0.169-0.178c0.064-0.041,0.149-0.062,0.256-0.062s0.218,0.041,0.336,0.124
			c0.118,0.082,0.262,0.174,0.429,0.274c0.169,0.1,0.372,0.191,0.611,0.274s0.539,0.124,0.899,0.124c0.307,0,0.574-0.041,0.805-0.12
			c0.23-0.08,0.422-0.188,0.575-0.323c0.154-0.136,0.268-0.292,0.342-0.469c0.073-0.178,0.11-0.366,0.11-0.566
			c0-0.248-0.066-0.453-0.2-0.615c-0.133-0.163-0.309-0.301-0.525-0.416c-0.22-0.115-0.469-0.216-0.748-0.302
			c-0.281-0.085-0.566-0.175-0.858-0.27c-0.293-0.094-0.579-0.202-0.859-0.323s-0.53-0.272-0.747-0.456
			c-0.22-0.183-0.395-0.408-0.527-0.677s-0.199-0.595-0.199-0.979c0-0.342,0.07-0.67,0.212-0.986
			c0.143-0.315,0.349-0.593,0.619-0.832c0.272-0.239,0.605-0.43,1.002-0.57c0.395-0.143,0.846-0.213,1.354-0.213
			c0.59,0,1.12,0.093,1.59,0.278c0.468,0.187,0.874,0.441,1.216,0.766L77.656,183.165z"/>
		<path fill="#FFFFFF" d="M87.038,190.654v-8.967h0.903c0.17,0,0.288,0.032,0.354,0.097c0.064,0.065,0.109,0.178,0.134,0.337
			l0.105,1.398c0.307-0.625,0.687-1.113,1.138-1.465s0.981-0.527,1.589-0.527c0.248,0,0.472,0.028,0.673,0.085
			c0.2,0.056,0.387,0.134,0.558,0.234l-0.204,1.178c-0.041,0.147-0.133,0.221-0.274,0.221c-0.082,0-0.209-0.028-0.38-0.084
			c-0.172-0.057-0.411-0.085-0.718-0.085c-0.549,0-1.007,0.16-1.376,0.479c-0.368,0.318-0.677,0.782-0.925,1.39v5.71H87.038z"/>
		<path fill="#FFFFFF" d="M97.723,181.546c0.536,0,1.033,0.09,1.486,0.27c0.454,0.18,0.848,0.44,1.178,0.779
			c0.329,0.339,0.589,0.759,0.774,1.257c0.187,0.499,0.278,1.066,0.278,1.704c0,0.247-0.026,0.413-0.079,0.495
			c-0.054,0.083-0.154,0.124-0.301,0.124h-5.967c0.012,0.566,0.088,1.06,0.231,1.479c0.141,0.419,0.335,0.769,0.583,1.049
			s0.543,0.49,0.886,0.629c0.342,0.139,0.725,0.208,1.15,0.208c0.396,0,0.735-0.047,1.022-0.138c0.287-0.092,0.533-0.19,0.739-0.296
			c0.206-0.107,0.379-0.206,0.517-0.297c0.141-0.092,0.26-0.138,0.359-0.138c0.13,0,0.23,0.05,0.301,0.15l0.442,0.575
			c-0.194,0.236-0.428,0.442-0.699,0.615c-0.271,0.175-0.562,0.318-0.871,0.43c-0.31,0.112-0.63,0.196-0.961,0.252
			c-0.33,0.057-0.658,0.084-0.982,0.084c-0.62,0-1.19-0.104-1.713-0.313c-0.521-0.21-0.973-0.517-1.354-0.921
			c-0.38-0.404-0.677-0.904-0.889-1.5c-0.214-0.596-0.318-1.28-0.318-2.054c0-0.626,0.095-1.21,0.286-1.753
			c0.192-0.542,0.469-1.014,0.829-1.412c0.359-0.398,0.799-0.711,1.317-0.938C96.489,181.659,97.072,181.546,97.723,181.546z
			 M97.757,182.705c-0.761,0-1.359,0.22-1.796,0.659s-0.708,1.049-0.814,1.828h4.877c0-0.366-0.051-0.7-0.15-1.004
			c-0.101-0.305-0.247-0.567-0.442-0.788c-0.195-0.222-0.434-0.393-0.713-0.514C98.438,182.766,98.117,182.705,97.757,182.705z"/>
		<path fill="#FFFFFF" d="M109.566,183.28c-0.048,0.065-0.095,0.115-0.143,0.15s-0.115,0.054-0.203,0.054
			c-0.09,0-0.185-0.037-0.288-0.111c-0.103-0.073-0.235-0.154-0.394-0.243c-0.16-0.089-0.353-0.169-0.58-0.243
			c-0.227-0.074-0.506-0.11-0.836-0.11c-0.437,0-0.824,0.077-1.16,0.234c-0.337,0.156-0.618,0.382-0.846,0.677
			s-0.397,0.652-0.513,1.071s-0.173,0.888-0.173,1.407c0,0.543,0.062,1.025,0.186,1.447c0.124,0.422,0.299,0.775,0.523,1.062
			c0.224,0.286,0.497,0.504,0.818,0.655c0.321,0.15,0.683,0.225,1.083,0.225c0.385,0,0.7-0.045,0.948-0.137
			c0.248-0.091,0.454-0.192,0.619-0.306c0.166-0.112,0.302-0.214,0.408-0.305c0.105-0.092,0.212-0.138,0.318-0.138
			c0.136,0,0.236,0.05,0.301,0.15l0.442,0.575c-0.389,0.479-0.876,0.828-1.461,1.049c-0.583,0.222-1.2,0.332-1.85,0.332
			c-0.561,0-1.082-0.103-1.562-0.31c-0.481-0.206-0.899-0.506-1.254-0.898s-0.632-0.875-0.835-1.446
			c-0.205-0.573-0.306-1.225-0.306-1.957c0-0.667,0.092-1.283,0.278-1.85c0.186-0.567,0.458-1.055,0.813-1.465
			c0.357-0.41,0.798-0.73,1.324-0.961c0.524-0.23,1.127-0.345,1.805-0.345c0.626,0,1.182,0.102,1.664,0.306
			c0.484,0.203,0.912,0.491,1.284,0.862L109.566,183.28z"/>
		<path fill="#FFFFFF" d="M115.266,181.546c0.536,0,1.033,0.09,1.487,0.27c0.453,0.18,0.847,0.44,1.177,0.779
			s0.589,0.759,0.775,1.257c0.186,0.499,0.277,1.066,0.277,1.704c0,0.247-0.025,0.413-0.079,0.495
			c-0.053,0.083-0.154,0.124-0.301,0.124h-5.966c0.012,0.566,0.088,1.06,0.23,1.479c0.141,0.419,0.336,0.769,0.583,1.049
			c0.248,0.28,0.543,0.49,0.887,0.629c0.341,0.139,0.725,0.208,1.149,0.208c0.396,0,0.736-0.047,1.022-0.138
			c0.287-0.092,0.533-0.19,0.739-0.296c0.206-0.107,0.379-0.206,0.518-0.297c0.14-0.092,0.259-0.138,0.358-0.138
			c0.13,0,0.23,0.05,0.301,0.15l0.442,0.575c-0.194,0.236-0.428,0.442-0.698,0.615c-0.271,0.175-0.562,0.318-0.872,0.43
			c-0.31,0.112-0.629,0.196-0.961,0.252c-0.33,0.057-0.658,0.084-0.982,0.084c-0.619,0-1.189-0.104-1.713-0.313
			c-0.521-0.21-0.973-0.517-1.354-0.921c-0.38-0.404-0.677-0.904-0.889-1.5c-0.213-0.596-0.318-1.28-0.318-2.054
			c0-0.626,0.095-1.21,0.287-1.753c0.191-0.542,0.468-1.014,0.828-1.412s0.8-0.711,1.318-0.938
			C114.032,181.659,114.616,181.546,115.266,181.546z M115.301,182.705c-0.761,0-1.36,0.22-1.797,0.659s-0.708,1.049-0.814,1.828
			h4.877c0-0.366-0.051-0.7-0.149-1.004c-0.102-0.305-0.248-0.567-0.442-0.788c-0.196-0.222-0.434-0.393-0.713-0.514
			C115.98,182.766,115.66,182.705,115.301,182.705z"/>
		<path fill="#FFFFFF" d="M123.099,178.873c0,0.153-0.03,0.296-0.092,0.429c-0.062,0.133-0.146,0.251-0.248,0.354
			c-0.104,0.104-0.224,0.185-0.358,0.244c-0.136,0.059-0.281,0.088-0.434,0.088c-0.154,0-0.297-0.029-0.43-0.088
			c-0.133-0.06-0.251-0.14-0.354-0.244c-0.104-0.103-0.185-0.221-0.243-0.354c-0.06-0.133-0.088-0.275-0.088-0.429
			c0-0.154,0.028-0.3,0.088-0.439c0.059-0.138,0.14-0.259,0.243-0.362s0.222-0.184,0.354-0.243c0.133-0.059,0.275-0.089,0.43-0.089
			c0.152,0,0.298,0.03,0.434,0.089c0.135,0.06,0.255,0.14,0.358,0.243c0.103,0.104,0.186,0.225,0.248,0.362
			C123.068,178.573,123.099,178.719,123.099,178.873z M122.746,181.688v8.967h-1.576v-8.967H122.746z"/>
		<path fill="#FFFFFF" d="M124.393,181.688h1.292c0.124,0,0.227,0.032,0.31,0.097c0.082,0.065,0.142,0.142,0.178,0.23l2.274,5.771
			c0.082,0.213,0.147,0.425,0.194,0.637c0.047,0.213,0.091,0.422,0.133,0.629c0.048-0.207,0.097-0.416,0.15-0.629
			c0.053-0.212,0.121-0.424,0.204-0.637l2.301-5.771c0.036-0.094,0.094-0.173,0.173-0.234c0.079-0.062,0.179-0.093,0.297-0.093h1.23
			l-3.656,8.967h-1.425L124.393,181.688z"/>
		<path fill="#FFFFFF" d="M137.907,181.546c0.536,0,1.033,0.09,1.487,0.27c0.453,0.18,0.847,0.44,1.177,0.779
			s0.589,0.759,0.775,1.257c0.186,0.499,0.277,1.066,0.277,1.704c0,0.247-0.025,0.413-0.079,0.495
			c-0.053,0.083-0.154,0.124-0.301,0.124h-5.966c0.012,0.566,0.088,1.06,0.23,1.479c0.142,0.419,0.336,0.769,0.583,1.049
			c0.248,0.28,0.544,0.49,0.887,0.629c0.341,0.139,0.725,0.208,1.149,0.208c0.396,0,0.736-0.047,1.022-0.138
			c0.287-0.092,0.533-0.19,0.739-0.296c0.206-0.107,0.379-0.206,0.518-0.297c0.14-0.092,0.259-0.138,0.358-0.138
			c0.13,0,0.23,0.05,0.302,0.15l0.441,0.575c-0.194,0.236-0.428,0.442-0.698,0.615c-0.271,0.175-0.562,0.318-0.872,0.43
			c-0.31,0.112-0.629,0.196-0.961,0.252c-0.329,0.057-0.658,0.084-0.982,0.084c-0.619,0-1.189-0.104-1.713-0.313
			c-0.521-0.21-0.973-0.517-1.354-0.921c-0.38-0.404-0.677-0.904-0.889-1.5c-0.213-0.596-0.318-1.28-0.318-2.054
			c0-0.626,0.096-1.21,0.287-1.753c0.191-0.542,0.468-1.014,0.828-1.412s0.8-0.711,1.318-0.938
			C136.674,181.659,137.258,181.546,137.907,181.546z M137.942,182.705c-0.761,0-1.36,0.22-1.797,0.659s-0.707,1.049-0.813,1.828
			h4.876c0-0.366-0.05-0.7-0.149-1.004c-0.101-0.305-0.248-0.567-0.442-0.788c-0.196-0.222-0.434-0.393-0.713-0.514
			C138.622,182.766,138.303,182.705,137.942,182.705z"/>
		<path fill="#FFFFFF" d="M149.946,190.654c-0.226,0-0.366-0.109-0.426-0.328l-0.143-1.089c-0.383,0.467-0.821,0.84-1.313,1.12
			c-0.493,0.28-1.058,0.42-1.694,0.42c-0.515,0-0.979-0.099-1.398-0.296c-0.42-0.198-0.777-0.488-1.072-0.872
			c-0.295-0.383-0.521-0.861-0.682-1.435c-0.158-0.571-0.239-1.23-0.239-1.974c0-0.66,0.09-1.275,0.267-1.846
			c0.178-0.568,0.433-1.062,0.766-1.482c0.334-0.419,0.738-0.747,1.217-0.986s1.021-0.359,1.628-0.359
			c0.549,0,1.019,0.094,1.408,0.279s0.737,0.447,1.044,0.783v-4.975h1.576v13.039H149.946z M146.892,189.504
			c0.513,0,0.964-0.118,1.35-0.354c0.387-0.236,0.742-0.569,1.066-1.001v-4.337c-0.288-0.39-0.606-0.662-0.951-0.818
			c-0.346-0.156-0.728-0.235-1.146-0.235c-0.837,0-1.48,0.299-1.929,0.895c-0.45,0.597-0.673,1.445-0.673,2.549
			c0,0.584,0.05,1.084,0.149,1.501c0.101,0.415,0.248,0.758,0.444,1.026c0.194,0.269,0.434,0.465,0.716,0.589
			C146.201,189.441,146.525,189.504,146.892,189.504z"/>
		<path fill="#FFFFFF" d="M156.946,193.69v-12.003h0.938c0.225,0,0.366,0.109,0.426,0.327l0.132,1.062
			c0.385-0.466,0.823-0.84,1.315-1.123c0.493-0.283,1.061-0.426,1.703-0.426c0.515,0,0.979,0.1,1.398,0.297
			c0.42,0.198,0.777,0.49,1.072,0.876c0.294,0.387,0.521,0.867,0.682,1.438c0.158,0.573,0.239,1.23,0.239,1.975
			c0,0.661-0.09,1.276-0.267,1.845c-0.178,0.57-0.431,1.062-0.761,1.479c-0.332,0.416-0.736,0.744-1.218,0.982
			c-0.481,0.239-1.022,0.358-1.623,0.358c-0.555,0-1.029-0.091-1.421-0.274c-0.394-0.183-0.739-0.442-1.04-0.778v3.966H156.946z
			 M160.938,182.803c-0.513,0-0.964,0.118-1.35,0.354c-0.387,0.236-0.742,0.57-1.066,1.001v4.337
			c0.288,0.389,0.606,0.663,0.951,0.823c0.346,0.159,0.729,0.238,1.155,0.238c0.831,0,1.472-0.297,1.92-0.894
			c0.448-0.596,0.673-1.445,0.673-2.549c0-0.585-0.052-1.086-0.154-1.505c-0.104-0.419-0.253-0.763-0.448-1.031
			c-0.194-0.269-0.434-0.465-0.716-0.589C161.62,182.865,161.299,182.803,160.938,182.803z"/>
		<path fill="#FFFFFF" d="M170.269,181.546c0.535,0,1.032,0.09,1.486,0.27s0.848,0.44,1.177,0.779
			c0.33,0.339,0.59,0.759,0.775,1.257c0.186,0.499,0.278,1.066,0.278,1.704c0,0.247-0.026,0.413-0.079,0.495
			c-0.054,0.083-0.154,0.124-0.302,0.124h-5.966c0.012,0.566,0.088,1.06,0.23,1.479c0.142,0.419,0.336,0.769,0.584,1.049
			s0.543,0.49,0.886,0.629c0.342,0.139,0.725,0.208,1.149,0.208c0.396,0,0.736-0.047,1.023-0.138
			c0.286-0.092,0.533-0.19,0.739-0.296c0.206-0.107,0.379-0.206,0.517-0.297c0.14-0.092,0.26-0.138,0.359-0.138
			c0.129,0,0.23,0.05,0.301,0.15l0.442,0.575c-0.194,0.236-0.428,0.442-0.699,0.615c-0.271,0.175-0.562,0.318-0.871,0.43
			c-0.31,0.112-0.63,0.196-0.961,0.252c-0.33,0.057-0.658,0.084-0.982,0.084c-0.62,0-1.19-0.104-1.713-0.313
			c-0.521-0.21-0.973-0.517-1.354-0.921c-0.381-0.404-0.678-0.904-0.889-1.5c-0.214-0.596-0.318-1.28-0.318-2.054
			c0-0.626,0.095-1.21,0.286-1.753c0.191-0.542,0.469-1.014,0.828-1.412c0.36-0.398,0.8-0.711,1.318-0.938
			C169.035,181.659,169.618,181.546,170.269,181.546z M170.303,182.705c-0.761,0-1.36,0.22-1.797,0.659s-0.707,1.049-0.813,1.828
			h4.877c0-0.366-0.051-0.7-0.15-1.004c-0.101-0.305-0.248-0.567-0.442-0.788c-0.195-0.222-0.434-0.393-0.713-0.514
			C170.982,182.766,170.663,182.705,170.303,182.705z"/>
		<path fill="#FFFFFF" d="M175.995,190.654v-8.967h0.903c0.17,0,0.288,0.032,0.353,0.097c0.065,0.065,0.109,0.178,0.134,0.337
			l0.105,1.398c0.307-0.625,0.688-1.113,1.139-1.465c0.45-0.352,0.98-0.527,1.589-0.527c0.248,0,0.471,0.028,0.673,0.085
			c0.2,0.056,0.386,0.134,0.558,0.234l-0.205,1.178c-0.04,0.147-0.133,0.221-0.273,0.221c-0.082,0-0.209-0.028-0.381-0.084
			c-0.171-0.057-0.41-0.085-0.717-0.085c-0.549,0-1.007,0.16-1.376,0.479s-0.677,0.782-0.925,1.39v5.71H175.995z"/>
		<path fill="#FFFFFF" d="M192.858,190.654c-0.225,0-0.366-0.109-0.425-0.328l-0.143-1.089c-0.384,0.467-0.821,0.84-1.314,1.12
			c-0.492,0.28-1.058,0.42-1.694,0.42c-0.515,0-0.979-0.099-1.398-0.296c-0.42-0.198-0.776-0.488-1.072-0.872
			c-0.295-0.383-0.521-0.861-0.682-1.435c-0.158-0.571-0.239-1.23-0.239-1.974c0-0.66,0.09-1.275,0.267-1.846
			c0.178-0.568,0.433-1.062,0.766-1.482c0.334-0.419,0.738-0.747,1.217-0.986s1.021-0.359,1.628-0.359
			c0.549,0,1.019,0.094,1.408,0.279s0.737,0.447,1.044,0.783v-4.975h1.576v13.039H192.858z M189.804,189.504
			c0.513,0,0.964-0.118,1.351-0.354c0.386-0.236,0.741-0.569,1.065-1.001v-4.337c-0.288-0.39-0.606-0.662-0.95-0.818
			c-0.347-0.156-0.728-0.235-1.147-0.235c-0.837,0-1.48,0.299-1.929,0.895c-0.449,0.597-0.673,1.445-0.673,2.549
			c0,0.584,0.051,1.084,0.149,1.501c0.102,0.415,0.248,0.758,0.444,1.026c0.194,0.269,0.434,0.465,0.716,0.589
			C189.114,189.441,189.438,189.504,189.804,189.504z"/>
		<path fill="#FFFFFF" d="M203.028,190.654h-0.699c-0.154,0-0.278-0.024-0.371-0.071c-0.096-0.047-0.157-0.147-0.187-0.301
			l-0.177-0.832c-0.236,0.213-0.467,0.402-0.69,0.57c-0.225,0.169-0.461,0.31-0.709,0.425c-0.247,0.115-0.511,0.203-0.792,0.262
			c-0.279,0.06-0.591,0.089-0.934,0.089c-0.349,0-0.675-0.049-0.979-0.147c-0.304-0.097-0.567-0.244-0.792-0.439
			c-0.225-0.194-0.402-0.442-0.536-0.741c-0.133-0.299-0.199-0.653-0.199-1.062c0-0.355,0.099-0.697,0.293-1.025
			c0.194-0.329,0.509-0.62,0.942-0.875s1.003-0.464,1.704-0.626c0.701-0.163,1.561-0.245,2.576-0.245v-0.703
			c0-0.701-0.15-1.23-0.447-1.59c-0.298-0.359-0.738-0.539-1.323-0.539c-0.384,0-0.706,0.049-0.97,0.146
			c-0.263,0.098-0.49,0.207-0.682,0.328s-0.357,0.229-0.496,0.327c-0.138,0.098-0.274,0.146-0.41,0.146
			c-0.106,0-0.2-0.027-0.279-0.083c-0.079-0.057-0.143-0.126-0.19-0.208l-0.284-0.505c0.496-0.479,1.03-0.835,1.603-1.071
			c0.573-0.236,1.207-0.354,1.903-0.354c0.501,0,0.948,0.083,1.337,0.248c0.389,0.166,0.718,0.396,0.982,0.691
			c0.265,0.294,0.467,0.651,0.603,1.07c0.135,0.419,0.203,0.879,0.203,1.381V190.654z M198.939,189.689
			c0.276,0,0.53-0.028,0.761-0.084c0.23-0.057,0.446-0.136,0.651-0.239c0.203-0.104,0.397-0.229,0.583-0.376
			c0.186-0.148,0.367-0.315,0.545-0.505v-1.851c-0.727,0-1.343,0.047-1.851,0.139c-0.507,0.092-0.92,0.213-1.238,0.36
			c-0.318,0.148-0.551,0.323-0.696,0.525c-0.144,0.202-0.216,0.428-0.216,0.677c0,0.237,0.037,0.442,0.115,0.614
			c0.076,0.172,0.18,0.312,0.31,0.423c0.13,0.109,0.282,0.19,0.46,0.24C198.54,189.664,198.731,189.689,198.939,189.689z"/>
		<path fill="#FFFFFF" d="M207.765,193.301c-0.053,0.118-0.119,0.212-0.198,0.282c-0.081,0.072-0.203,0.107-0.367,0.107h-1.169
			l1.637-3.559l-3.699-8.444h1.362c0.136,0,0.242,0.033,0.318,0.102c0.078,0.068,0.134,0.143,0.169,0.226l2.398,5.647
			c0.054,0.13,0.1,0.26,0.137,0.389c0.039,0.131,0.072,0.264,0.103,0.398c0.042-0.135,0.082-0.268,0.124-0.398
			c0.042-0.129,0.088-0.262,0.141-0.397l2.328-5.639c0.036-0.094,0.097-0.173,0.182-0.234c0.085-0.062,0.179-0.093,0.28-0.093h1.256
			L207.765,193.301z"/>
	</g>
	<g>
		<path fill="#ED1C24" d="M84.306,96.753c0.343,0,0.665,0.056,0.968,0.169c0.306,0.112,0.573,0.276,0.801,0.492
			c0.23,0.216,0.412,0.481,0.548,0.796s0.201,0.674,0.201,1.077c0,0.392-0.071,0.756-0.213,1.093
			c-0.144,0.336-0.343,0.629-0.597,0.878c-0.256,0.249-0.564,0.445-0.925,0.588s-0.755,0.214-1.187,0.214
			c-0.427,0-0.812-0.068-1.158-0.204c-0.349-0.138-0.643-0.331-0.888-0.582c-0.248-0.252-0.436-0.557-0.567-0.915
			c-0.133-0.357-0.199-0.759-0.199-1.202c0-0.371,0.083-0.768,0.248-1.187c0.167-0.42,0.429-0.871,0.789-1.354l2.155-2.903
			c0.055-0.071,0.133-0.131,0.233-0.181c0.098-0.05,0.21-0.074,0.337-0.074h0.939l-2.95,3.733c0.201-0.139,0.424-0.246,0.668-0.323
			C83.758,96.791,84.023,96.753,84.306,96.753z M82.109,99.341c0,0.273,0.041,0.522,0.118,0.748
			c0.081,0.226,0.196,0.419,0.349,0.582c0.153,0.162,0.338,0.287,0.56,0.377c0.219,0.088,0.47,0.133,0.749,0.133
			c0.285,0,0.542-0.045,0.772-0.136c0.23-0.092,0.426-0.218,0.591-0.381c0.164-0.162,0.291-0.354,0.38-0.575
			s0.133-0.463,0.133-0.724c0-0.277-0.044-0.527-0.13-0.752c-0.087-0.223-0.21-0.413-0.369-0.569
			c-0.158-0.156-0.349-0.276-0.57-0.359s-0.464-0.125-0.729-0.125c-0.286,0-0.542,0.049-0.772,0.146
			c-0.23,0.098-0.424,0.228-0.585,0.392c-0.158,0.165-0.282,0.354-0.369,0.57C82.153,98.883,82.109,99.106,82.109,99.341z"/>
	</g>
	<g>
		<path fill="#ED1C24" d="M103.161,96.753c0.343,0,0.666,0.056,0.968,0.169c0.306,0.112,0.573,0.276,0.802,0.492
			c0.23,0.216,0.411,0.481,0.547,0.796s0.202,0.674,0.202,1.077c0,0.392-0.072,0.756-0.214,1.093
			c-0.144,0.336-0.343,0.629-0.596,0.878c-0.257,0.249-0.565,0.445-0.926,0.588c-0.359,0.143-0.755,0.214-1.187,0.214
			c-0.427,0-0.812-0.068-1.158-0.204c-0.349-0.138-0.643-0.331-0.888-0.582c-0.248-0.252-0.436-0.557-0.567-0.915
			c-0.133-0.357-0.199-0.759-0.199-1.202c0-0.371,0.084-0.768,0.248-1.187c0.167-0.42,0.43-0.871,0.789-1.354l2.155-2.903
			c0.055-0.071,0.133-0.131,0.233-0.181c0.099-0.05,0.211-0.074,0.338-0.074h0.938l-2.95,3.733c0.202-0.139,0.424-0.246,0.669-0.323
			C102.613,96.791,102.879,96.753,103.161,96.753z M100.966,99.341c0,0.273,0.04,0.522,0.118,0.748
			c0.08,0.226,0.195,0.419,0.349,0.582c0.152,0.162,0.337,0.287,0.559,0.377c0.219,0.088,0.47,0.133,0.749,0.133
			c0.285,0,0.542-0.045,0.772-0.136c0.23-0.092,0.427-0.218,0.591-0.381c0.164-0.162,0.291-0.354,0.38-0.575
			c0.09-0.222,0.133-0.463,0.133-0.724c0-0.277-0.043-0.527-0.13-0.752c-0.086-0.223-0.21-0.413-0.368-0.569
			c-0.159-0.156-0.349-0.276-0.571-0.359c-0.222-0.083-0.464-0.125-0.729-0.125c-0.285,0-0.542,0.049-0.772,0.146
			c-0.23,0.098-0.424,0.228-0.585,0.392c-0.158,0.165-0.282,0.354-0.369,0.57C101.009,98.883,100.966,99.106,100.966,99.341z"/>
	</g>
	<g>
		<path fill="#ED1C24" d="M123.06,96.753c0.343,0,0.666,0.056,0.969,0.169c0.305,0.112,0.573,0.276,0.801,0.492
			c0.23,0.216,0.412,0.481,0.547,0.796c0.136,0.314,0.202,0.674,0.202,1.077c0,0.392-0.072,0.756-0.213,1.093
			c-0.145,0.336-0.343,0.629-0.597,0.878c-0.257,0.249-0.564,0.445-0.925,0.588s-0.755,0.214-1.188,0.214
			c-0.426,0-0.812-0.068-1.158-0.204c-0.349-0.138-0.643-0.331-0.888-0.582c-0.247-0.252-0.435-0.557-0.567-0.915
			c-0.133-0.357-0.199-0.759-0.199-1.202c0-0.371,0.084-0.768,0.248-1.187c0.167-0.42,0.43-0.871,0.79-1.354l2.155-2.903
			c0.055-0.071,0.132-0.131,0.233-0.181c0.098-0.05,0.21-0.074,0.337-0.074h0.939l-2.951,3.733c0.202-0.139,0.424-0.246,0.669-0.323
			C122.513,96.791,122.777,96.753,123.06,96.753z M120.864,99.341c0,0.273,0.04,0.522,0.118,0.748
			c0.081,0.226,0.196,0.419,0.349,0.582c0.152,0.162,0.337,0.287,0.559,0.377c0.22,0.088,0.47,0.133,0.749,0.133
			c0.286,0,0.542-0.045,0.772-0.136c0.23-0.092,0.427-0.218,0.591-0.381c0.164-0.162,0.291-0.354,0.381-0.575
			c0.089-0.222,0.132-0.463,0.132-0.724c0-0.277-0.043-0.527-0.129-0.752c-0.087-0.223-0.211-0.413-0.369-0.569
			s-0.349-0.276-0.57-0.359c-0.223-0.083-0.464-0.125-0.729-0.125c-0.285,0-0.542,0.049-0.772,0.146
			c-0.23,0.098-0.423,0.228-0.585,0.392c-0.158,0.165-0.282,0.354-0.368,0.57C120.907,98.883,120.864,99.106,120.864,99.341z"/>
	</g>
	<g>
		<path fill="#ED1C24" d="M143.388,96.753c0.343,0,0.666,0.056,0.969,0.169c0.305,0.112,0.573,0.276,0.801,0.492
			c0.23,0.216,0.412,0.481,0.547,0.796c0.136,0.314,0.202,0.674,0.202,1.077c0,0.392-0.072,0.756-0.213,1.093
			c-0.145,0.336-0.343,0.629-0.597,0.878c-0.257,0.249-0.564,0.445-0.925,0.588s-0.755,0.214-1.188,0.214
			c-0.427,0-0.812-0.068-1.158-0.204c-0.349-0.138-0.643-0.331-0.888-0.582c-0.247-0.252-0.435-0.557-0.567-0.915
			c-0.133-0.357-0.199-0.759-0.199-1.202c0-0.371,0.084-0.768,0.248-1.187c0.167-0.42,0.43-0.871,0.79-1.354l2.155-2.903
			c0.055-0.071,0.132-0.131,0.233-0.181c0.098-0.05,0.21-0.074,0.337-0.074h0.939l-2.951,3.733c0.202-0.139,0.424-0.246,0.669-0.323
			C142.841,96.791,143.105,96.753,143.388,96.753z M141.192,99.341c0,0.273,0.04,0.522,0.118,0.748
			c0.08,0.226,0.196,0.419,0.349,0.582c0.152,0.162,0.337,0.287,0.559,0.377c0.22,0.088,0.47,0.133,0.749,0.133
			c0.286,0,0.542-0.045,0.772-0.136c0.23-0.092,0.427-0.218,0.591-0.381c0.164-0.162,0.291-0.354,0.381-0.575
			c0.089-0.222,0.132-0.463,0.132-0.724c0-0.277-0.043-0.527-0.13-0.752c-0.086-0.223-0.21-0.413-0.368-0.569
			s-0.349-0.276-0.57-0.359c-0.223-0.083-0.464-0.125-0.729-0.125c-0.285,0-0.542,0.049-0.772,0.146
			c-0.23,0.098-0.423,0.228-0.585,0.392c-0.158,0.165-0.282,0.354-0.368,0.57C141.235,98.883,141.192,99.106,141.192,99.341z"/>
	</g>
	<g>
		<path fill="#ED1C24" d="M84.306,115.608c0.343,0,0.665,0.057,0.968,0.169c0.306,0.113,0.573,0.277,0.801,0.492
			c0.23,0.217,0.412,0.481,0.548,0.796s0.201,0.674,0.201,1.077c0,0.392-0.071,0.757-0.213,1.093
			c-0.144,0.337-0.343,0.629-0.597,0.878c-0.256,0.25-0.564,0.445-0.925,0.588s-0.755,0.214-1.187,0.214
			c-0.427,0-0.812-0.068-1.158-0.204c-0.349-0.137-0.643-0.331-0.888-0.582c-0.248-0.252-0.436-0.557-0.567-0.914
			c-0.133-0.358-0.199-0.76-0.199-1.202c0-0.372,0.083-0.769,0.248-1.188c0.167-0.419,0.429-0.871,0.789-1.354l2.155-2.903
			c0.055-0.071,0.133-0.131,0.233-0.181c0.098-0.05,0.21-0.074,0.337-0.074h0.939l-2.95,3.733c0.201-0.138,0.424-0.246,0.668-0.323
			C83.758,115.646,84.023,115.608,84.306,115.608z M82.109,118.196c0,0.273,0.041,0.522,0.118,0.748
			c0.081,0.226,0.196,0.419,0.349,0.582c0.153,0.162,0.338,0.287,0.56,0.377c0.219,0.089,0.47,0.133,0.749,0.133
			c0.285,0,0.542-0.045,0.772-0.136c0.23-0.092,0.426-0.218,0.591-0.381c0.164-0.161,0.291-0.354,0.38-0.575
			s0.133-0.463,0.133-0.724c0-0.277-0.044-0.527-0.13-0.752c-0.087-0.223-0.21-0.413-0.369-0.569
			c-0.158-0.156-0.349-0.276-0.57-0.359s-0.464-0.125-0.729-0.125c-0.286,0-0.542,0.049-0.772,0.146
			c-0.23,0.098-0.424,0.228-0.585,0.393c-0.158,0.164-0.282,0.354-0.369,0.569C82.153,117.738,82.109,117.963,82.109,118.196z"/>
	</g>
	<g>
		<path fill="#ED1C24" d="M103.161,115.608c0.343,0,0.666,0.057,0.968,0.169c0.306,0.113,0.573,0.277,0.802,0.492
			c0.23,0.217,0.411,0.481,0.547,0.796s0.202,0.674,0.202,1.077c0,0.392-0.072,0.757-0.214,1.093
			c-0.144,0.337-0.343,0.629-0.596,0.878c-0.257,0.25-0.565,0.445-0.926,0.588c-0.359,0.143-0.755,0.214-1.187,0.214
			c-0.427,0-0.812-0.068-1.158-0.204c-0.349-0.137-0.643-0.331-0.888-0.582c-0.248-0.252-0.436-0.557-0.567-0.914
			c-0.133-0.358-0.199-0.76-0.199-1.202c0-0.372,0.084-0.769,0.248-1.188c0.167-0.419,0.43-0.871,0.789-1.354l2.155-2.903
			c0.055-0.071,0.133-0.131,0.233-0.181c0.099-0.05,0.211-0.074,0.338-0.074h0.938l-2.95,3.733c0.202-0.138,0.424-0.246,0.669-0.323
			C102.613,115.646,102.879,115.608,103.161,115.608z M100.966,118.196c0,0.273,0.04,0.522,0.118,0.748
			c0.08,0.226,0.195,0.419,0.349,0.582c0.152,0.162,0.337,0.287,0.559,0.377c0.219,0.089,0.47,0.133,0.749,0.133
			c0.285,0,0.542-0.045,0.772-0.136c0.23-0.092,0.427-0.218,0.591-0.381c0.164-0.161,0.291-0.354,0.38-0.575
			c0.09-0.222,0.133-0.463,0.133-0.724c0-0.277-0.043-0.527-0.13-0.752c-0.086-0.223-0.21-0.413-0.368-0.569
			c-0.159-0.156-0.349-0.276-0.571-0.359c-0.222-0.083-0.464-0.125-0.729-0.125c-0.285,0-0.542,0.049-0.772,0.146
			c-0.23,0.098-0.424,0.228-0.585,0.393c-0.158,0.164-0.282,0.354-0.369,0.569C101.009,117.738,100.966,117.963,100.966,118.196z"/>
	</g>
	<g>
		<path fill="#ED1C24" d="M123.06,115.608c0.343,0,0.666,0.057,0.969,0.169c0.305,0.113,0.573,0.277,0.801,0.492
			c0.23,0.217,0.412,0.481,0.547,0.796c0.136,0.314,0.202,0.674,0.202,1.077c0,0.392-0.072,0.757-0.213,1.093
			c-0.145,0.337-0.343,0.629-0.597,0.878c-0.257,0.25-0.564,0.445-0.925,0.588s-0.755,0.214-1.188,0.214
			c-0.426,0-0.812-0.068-1.158-0.204c-0.349-0.137-0.643-0.331-0.888-0.582c-0.247-0.252-0.435-0.557-0.567-0.914
			c-0.133-0.358-0.199-0.76-0.199-1.202c0-0.372,0.084-0.769,0.248-1.188c0.167-0.419,0.43-0.871,0.79-1.354l2.155-2.903
			c0.055-0.071,0.132-0.131,0.233-0.181c0.098-0.05,0.21-0.074,0.337-0.074h0.939l-2.951,3.733c0.202-0.138,0.424-0.246,0.669-0.323
			C122.513,115.646,122.777,115.608,123.06,115.608z M120.864,118.196c0,0.273,0.04,0.522,0.118,0.748
			c0.081,0.226,0.196,0.419,0.349,0.582c0.152,0.162,0.337,0.287,0.559,0.377c0.22,0.089,0.47,0.133,0.749,0.133
			c0.286,0,0.542-0.045,0.772-0.136c0.23-0.092,0.427-0.218,0.591-0.381c0.164-0.161,0.291-0.354,0.381-0.575
			c0.089-0.222,0.132-0.463,0.132-0.724c0-0.277-0.043-0.527-0.129-0.752c-0.087-0.223-0.211-0.413-0.369-0.569
			s-0.349-0.276-0.57-0.359c-0.223-0.083-0.464-0.125-0.729-0.125c-0.285,0-0.542,0.049-0.772,0.146
			c-0.23,0.098-0.423,0.228-0.585,0.393c-0.158,0.164-0.282,0.354-0.368,0.569C120.907,117.738,120.864,117.963,120.864,118.196z"/>
	</g>
	<g>
		<path fill="#ED1C24" d="M143.388,115.608c0.343,0,0.666,0.057,0.969,0.169c0.305,0.113,0.573,0.277,0.801,0.492
			c0.23,0.217,0.412,0.481,0.547,0.796c0.136,0.314,0.202,0.674,0.202,1.077c0,0.392-0.072,0.757-0.213,1.093
			c-0.145,0.337-0.343,0.629-0.597,0.878c-0.257,0.25-0.564,0.445-0.925,0.588s-0.755,0.214-1.188,0.214
			c-0.427,0-0.812-0.068-1.158-0.204c-0.349-0.137-0.643-0.331-0.888-0.582c-0.247-0.252-0.435-0.557-0.567-0.914
			c-0.133-0.358-0.199-0.76-0.199-1.202c0-0.372,0.084-0.769,0.248-1.188c0.167-0.419,0.43-0.871,0.79-1.354l2.155-2.903
			c0.055-0.071,0.132-0.131,0.233-0.181c0.098-0.05,0.21-0.074,0.337-0.074h0.939l-2.951,3.733c0.202-0.138,0.424-0.246,0.669-0.323
			C142.841,115.646,143.105,115.608,143.388,115.608z M141.192,118.196c0,0.273,0.04,0.522,0.118,0.748
			c0.08,0.226,0.196,0.419,0.349,0.582c0.152,0.162,0.337,0.287,0.559,0.377c0.22,0.089,0.47,0.133,0.749,0.133
			c0.286,0,0.542-0.045,0.772-0.136c0.23-0.092,0.427-0.218,0.591-0.381c0.164-0.161,0.291-0.354,0.381-0.575
			c0.089-0.222,0.132-0.463,0.132-0.724c0-0.277-0.043-0.527-0.13-0.752c-0.086-0.223-0.21-0.413-0.368-0.569
			s-0.349-0.276-0.57-0.359c-0.223-0.083-0.464-0.125-0.729-0.125c-0.285,0-0.542,0.049-0.772,0.146
			c-0.23,0.098-0.423,0.228-0.585,0.393c-0.158,0.164-0.282,0.354-0.368,0.569C141.235,117.738,141.192,117.963,141.192,118.196z"/>
	</g>
	<g>
		<path fill="#ED1C24" d="M84.306,134.464c0.343,0,0.665,0.057,0.968,0.169c0.306,0.113,0.573,0.277,0.801,0.493
			c0.23,0.216,0.412,0.48,0.548,0.796c0.136,0.313,0.201,0.673,0.201,1.076c0,0.393-0.071,0.757-0.213,1.093
			c-0.144,0.337-0.343,0.629-0.597,0.879c-0.256,0.249-0.564,0.444-0.925,0.587s-0.755,0.214-1.187,0.214
			c-0.427,0-0.812-0.068-1.158-0.204c-0.349-0.137-0.643-0.331-0.888-0.582c-0.248-0.251-0.436-0.556-0.567-0.914
			c-0.133-0.358-0.199-0.76-0.199-1.202c0-0.372,0.083-0.768,0.248-1.188c0.167-0.419,0.429-0.871,0.789-1.354l2.155-2.902
			c0.055-0.071,0.133-0.132,0.233-0.182c0.098-0.049,0.21-0.074,0.337-0.074h0.939l-2.95,3.734c0.201-0.139,0.424-0.247,0.668-0.324
			C83.758,134.502,84.023,134.464,84.306,134.464z M82.109,137.053c0,0.272,0.041,0.521,0.118,0.747
			c0.081,0.226,0.196,0.42,0.349,0.582c0.153,0.162,0.338,0.288,0.56,0.377c0.219,0.089,0.47,0.134,0.749,0.134
			c0.285,0,0.542-0.046,0.772-0.137c0.23-0.092,0.426-0.218,0.591-0.38c0.164-0.162,0.291-0.354,0.38-0.576
			c0.089-0.222,0.133-0.463,0.133-0.724c0-0.277-0.044-0.527-0.13-0.751c-0.087-0.224-0.21-0.414-0.369-0.57
			c-0.158-0.156-0.349-0.275-0.57-0.359c-0.222-0.083-0.464-0.124-0.729-0.124c-0.286,0-0.542,0.049-0.772,0.146
			s-0.424,0.228-0.585,0.392c-0.158,0.164-0.282,0.354-0.369,0.569C82.153,136.595,82.109,136.818,82.109,137.053z"/>
	</g>
	<g>
		<path fill="#ED1C24" d="M103.161,134.464c0.343,0,0.666,0.057,0.968,0.169c0.306,0.113,0.573,0.277,0.802,0.493
			c0.23,0.216,0.411,0.48,0.547,0.796c0.136,0.313,0.202,0.673,0.202,1.076c0,0.393-0.072,0.757-0.214,1.093
			c-0.144,0.337-0.343,0.629-0.596,0.879c-0.257,0.249-0.565,0.444-0.926,0.587c-0.359,0.143-0.755,0.214-1.187,0.214
			c-0.427,0-0.812-0.068-1.158-0.204c-0.349-0.137-0.643-0.331-0.888-0.582c-0.248-0.251-0.436-0.556-0.567-0.914
			c-0.133-0.358-0.199-0.76-0.199-1.202c0-0.372,0.084-0.768,0.248-1.188c0.167-0.419,0.43-0.871,0.789-1.354l2.155-2.902
			c0.055-0.071,0.133-0.132,0.233-0.182c0.099-0.049,0.211-0.074,0.338-0.074h0.938l-2.95,3.734
			c0.202-0.139,0.424-0.247,0.669-0.324C102.613,134.502,102.879,134.464,103.161,134.464z M100.966,137.053
			c0,0.272,0.04,0.521,0.118,0.747c0.08,0.226,0.195,0.42,0.349,0.582c0.152,0.162,0.337,0.288,0.559,0.377
			c0.219,0.089,0.47,0.134,0.749,0.134c0.285,0,0.542-0.046,0.772-0.137c0.23-0.092,0.427-0.218,0.591-0.38s0.291-0.354,0.38-0.576
			c0.09-0.222,0.133-0.463,0.133-0.724c0-0.277-0.043-0.527-0.13-0.751c-0.086-0.224-0.21-0.414-0.368-0.57
			c-0.159-0.156-0.349-0.275-0.571-0.359c-0.222-0.083-0.464-0.124-0.729-0.124c-0.285,0-0.542,0.049-0.772,0.146
			s-0.424,0.228-0.585,0.392c-0.158,0.164-0.282,0.354-0.369,0.569C101.009,136.595,100.966,136.818,100.966,137.053z"/>
	</g>
	<g>
		<path fill="#ED1C24" d="M123.06,134.464c0.343,0,0.666,0.057,0.969,0.169c0.305,0.113,0.573,0.277,0.801,0.493
			c0.23,0.216,0.412,0.48,0.547,0.796c0.136,0.313,0.202,0.673,0.202,1.076c0,0.393-0.072,0.757-0.213,1.093
			c-0.145,0.337-0.343,0.629-0.597,0.879c-0.257,0.249-0.564,0.444-0.925,0.587s-0.755,0.214-1.188,0.214
			c-0.426,0-0.812-0.068-1.158-0.204c-0.349-0.137-0.643-0.331-0.888-0.582c-0.247-0.251-0.435-0.556-0.567-0.914
			s-0.199-0.76-0.199-1.202c0-0.372,0.084-0.768,0.248-1.188c0.167-0.419,0.43-0.871,0.79-1.354l2.155-2.902
			c0.055-0.071,0.132-0.132,0.233-0.182c0.098-0.049,0.21-0.074,0.337-0.074h0.939l-2.951,3.734
			c0.202-0.139,0.424-0.247,0.669-0.324C122.513,134.502,122.777,134.464,123.06,134.464z M120.864,137.053
			c0,0.272,0.04,0.521,0.118,0.747c0.081,0.226,0.196,0.42,0.349,0.582s0.337,0.288,0.559,0.377c0.22,0.089,0.47,0.134,0.749,0.134
			c0.286,0,0.542-0.046,0.772-0.137c0.23-0.092,0.427-0.218,0.591-0.38s0.291-0.354,0.381-0.576
			c0.089-0.222,0.132-0.463,0.132-0.724c0-0.277-0.043-0.527-0.129-0.751c-0.087-0.224-0.211-0.414-0.369-0.57
			s-0.349-0.275-0.57-0.359c-0.223-0.083-0.464-0.124-0.729-0.124c-0.285,0-0.542,0.049-0.772,0.146s-0.423,0.228-0.585,0.392
			c-0.158,0.164-0.282,0.354-0.368,0.569C120.907,136.595,120.864,136.818,120.864,137.053z"/>
	</g>
	<g>
		<path fill="#ED1C24" d="M62.957,115.608c0.343,0,0.666,0.057,0.969,0.169c0.305,0.113,0.573,0.277,0.801,0.492
			c0.23,0.217,0.412,0.481,0.547,0.796c0.136,0.314,0.202,0.674,0.202,1.077c0,0.392-0.072,0.757-0.213,1.093
			c-0.145,0.337-0.343,0.629-0.597,0.878c-0.257,0.25-0.564,0.445-0.925,0.588s-0.755,0.214-1.188,0.214
			c-0.426,0-0.812-0.068-1.158-0.204c-0.349-0.137-0.643-0.331-0.888-0.582c-0.247-0.252-0.435-0.557-0.567-0.914
			c-0.133-0.358-0.199-0.76-0.199-1.202c0-0.372,0.084-0.769,0.248-1.188c0.167-0.419,0.43-0.871,0.79-1.354l2.155-2.903
			c0.055-0.071,0.132-0.131,0.233-0.181c0.098-0.05,0.21-0.074,0.337-0.074h0.939l-2.951,3.733c0.202-0.138,0.424-0.246,0.669-0.323
			C62.41,115.646,62.675,115.608,62.957,115.608z M60.762,118.196c0,0.273,0.04,0.522,0.118,0.748
			c0.081,0.226,0.196,0.419,0.349,0.582c0.152,0.162,0.337,0.287,0.559,0.377c0.22,0.089,0.47,0.133,0.75,0.133
			c0.285,0,0.541-0.045,0.771-0.136c0.23-0.092,0.427-0.218,0.591-0.381c0.164-0.161,0.291-0.354,0.381-0.575
			c0.089-0.222,0.132-0.463,0.132-0.724c0-0.277-0.043-0.527-0.129-0.752c-0.087-0.223-0.211-0.413-0.369-0.569
			s-0.349-0.276-0.57-0.359c-0.223-0.083-0.464-0.125-0.729-0.125c-0.285,0-0.542,0.049-0.772,0.146
			c-0.23,0.098-0.423,0.228-0.585,0.393c-0.158,0.164-0.282,0.354-0.368,0.569C60.805,117.738,60.762,117.963,60.762,118.196z"/>
	</g>
	<g>
		<path fill="#ED1C24" d="M62.957,133.875c0.343,0,0.666,0.057,0.969,0.169c0.305,0.112,0.573,0.277,0.801,0.492
			c0.23,0.216,0.412,0.481,0.547,0.796c0.136,0.314,0.202,0.674,0.202,1.077c0,0.392-0.072,0.756-0.213,1.093
			c-0.145,0.336-0.343,0.629-0.597,0.878c-0.257,0.249-0.564,0.445-0.925,0.588s-0.755,0.214-1.188,0.214
			c-0.426,0-0.812-0.068-1.158-0.204c-0.349-0.138-0.643-0.331-0.888-0.582c-0.247-0.252-0.435-0.557-0.567-0.914
			c-0.133-0.358-0.199-0.76-0.199-1.203c0-0.371,0.084-0.768,0.248-1.187c0.167-0.419,0.43-0.871,0.79-1.354l2.155-2.903
			c0.055-0.071,0.132-0.131,0.233-0.181c0.098-0.05,0.21-0.074,0.337-0.074h0.939l-2.951,3.733c0.202-0.138,0.424-0.246,0.669-0.323
			C62.41,133.913,62.675,133.875,62.957,133.875z M60.762,136.463c0,0.273,0.04,0.522,0.118,0.748
			c0.081,0.226,0.196,0.419,0.349,0.582c0.152,0.162,0.337,0.287,0.559,0.377c0.22,0.088,0.47,0.133,0.75,0.133
			c0.285,0,0.541-0.045,0.771-0.136c0.23-0.092,0.427-0.218,0.591-0.381c0.164-0.162,0.291-0.354,0.381-0.575
			c0.089-0.222,0.132-0.463,0.132-0.724c0-0.277-0.043-0.527-0.129-0.752c-0.087-0.223-0.211-0.413-0.369-0.569
			s-0.349-0.276-0.57-0.359c-0.223-0.083-0.464-0.125-0.729-0.125c-0.285,0-0.542,0.049-0.772,0.146
			c-0.23,0.098-0.423,0.228-0.585,0.392c-0.158,0.165-0.282,0.354-0.368,0.57C60.805,136.005,60.762,136.229,60.762,136.463z"/>
	</g>
	<g>
		<path fill="#FFFFFF" d="M42.23,15.292c0.592,0,1.153,0.098,1.684,0.295c0.53,0.195,0.994,0.481,1.394,0.856
			c0.398,0.375,0.716,0.837,0.951,1.384c0.233,0.547,0.35,1.173,0.35,1.874c0,0.683-0.124,1.315-0.372,1.9
			c-0.247,0.586-0.593,1.095-1.037,1.528c-0.443,0.434-0.979,0.774-1.606,1.022c-0.626,0.248-1.313,0.372-2.064,0.372
			c-0.743,0-1.416-0.118-2.02-0.356c-0.603-0.237-1.116-0.574-1.543-1.012c-0.428-0.438-0.757-0.968-0.987-1.591
			s-0.346-1.319-0.346-2.091c0-0.647,0.145-1.336,0.434-2.065c0.29-0.729,0.748-1.515,1.375-2.354l3.748-5.05
			c0.096-0.124,0.23-0.229,0.402-0.314c0.172-0.087,0.369-0.129,0.589-0.129h1.631l-5.132,6.495
			c0.351-0.241,0.739-0.429,1.167-0.562C41.273,15.359,41.734,15.292,42.23,15.292z M38.409,19.794c0,0.476,0.069,0.909,0.206,1.302
			c0.139,0.393,0.34,0.729,0.605,1.013c0.265,0.282,0.588,0.5,0.971,0.655c0.382,0.154,0.817,0.232,1.306,0.232
			c0.495,0,0.943-0.079,1.343-0.237c0.398-0.159,0.741-0.379,1.027-0.661s0.507-0.616,0.661-1.002
			c0.155-0.385,0.231-0.805,0.231-1.26c0-0.481-0.074-0.918-0.226-1.307c-0.153-0.389-0.366-0.719-0.642-0.991
			c-0.275-0.271-0.604-0.48-0.991-0.624c-0.386-0.146-0.808-0.217-1.271-0.217c-0.496,0-0.942,0.084-1.341,0.252
			c-0.401,0.169-0.739,0.396-1.018,0.682c-0.279,0.286-0.493,0.617-0.642,0.991C38.483,18.998,38.409,19.389,38.409,19.794z"/>
		<path fill="#FFFFFF" d="M51.422,24.359v-7.473h0.752c0.143,0,0.24,0.027,0.295,0.082c0.054,0.054,0.091,0.146,0.109,0.28
			l0.09,1.165c0.255-0.521,0.572-0.929,0.948-1.221c0.376-0.293,0.816-0.438,1.323-0.438c0.206,0,0.394,0.022,0.561,0.069
			s0.321,0.111,0.464,0.195l-0.168,0.981c-0.035,0.123-0.111,0.184-0.229,0.184c-0.069,0-0.174-0.022-0.316-0.069
			s-0.342-0.07-0.599-0.07c-0.456,0-0.84,0.133-1.146,0.398s-0.564,0.651-0.771,1.158v4.758H51.422z"/>
		<path fill="#FFFFFF" d="M60.325,16.769c0.446,0,0.86,0.075,1.239,0.225c0.379,0.151,0.706,0.367,0.98,0.649
			c0.275,0.283,0.49,0.633,0.646,1.048c0.154,0.416,0.232,0.889,0.232,1.42c0,0.206-0.021,0.345-0.066,0.413
			c-0.045,0.069-0.128,0.104-0.251,0.104h-4.972c0.01,0.472,0.073,0.883,0.191,1.231s0.281,0.641,0.487,0.874
			s0.452,0.408,0.737,0.523c0.285,0.116,0.605,0.174,0.96,0.174c0.328,0,0.612-0.038,0.852-0.114s0.443-0.158,0.616-0.247
			c0.172-0.089,0.315-0.171,0.431-0.247s0.215-0.114,0.299-0.114c0.107,0,0.192,0.041,0.25,0.125l0.369,0.479
			c-0.161,0.197-0.355,0.367-0.582,0.513s-0.469,0.265-0.727,0.357c-0.259,0.094-0.525,0.164-0.801,0.211s-0.547,0.069-0.818,0.069
			c-0.517,0-0.992-0.087-1.428-0.262c-0.435-0.174-0.811-0.43-1.128-0.767c-0.316-0.337-0.564-0.754-0.742-1.251
			c-0.177-0.496-0.265-1.066-0.265-1.711c0-0.521,0.079-1.008,0.239-1.46c0.16-0.453,0.391-0.845,0.689-1.177
			c0.3-0.332,0.666-0.593,1.1-0.782C59.297,16.864,59.783,16.769,60.325,16.769z M60.354,17.734c-0.634,0-1.134,0.185-1.496,0.55
			c-0.365,0.367-0.591,0.875-0.679,1.523h4.064c0-0.305-0.042-0.584-0.126-0.837c-0.083-0.253-0.207-0.473-0.368-0.656
			c-0.163-0.185-0.36-0.327-0.594-0.429C60.92,17.786,60.653,17.734,60.354,17.734z"/>
		<path fill="#FFFFFF" d="M65.099,26.889V16.887h0.78c0.188,0,0.306,0.091,0.354,0.273l0.111,0.885
			c0.319-0.389,0.684-0.7,1.095-0.937c0.41-0.236,0.885-0.354,1.42-0.354c0.429,0,0.815,0.082,1.166,0.247
			c0.349,0.164,0.646,0.407,0.892,0.729s0.436,0.722,0.567,1.198c0.135,0.478,0.2,1.026,0.2,1.646c0,0.551-0.074,1.063-0.222,1.538
			c-0.146,0.475-0.358,0.885-0.634,1.231s-0.613,0.619-1.014,0.819c-0.401,0.198-0.854,0.298-1.354,0.298
			c-0.463,0-0.857-0.076-1.185-0.229s-0.615-0.368-0.866-0.648v3.304H65.099z M68.425,17.816c-0.428,0-0.804,0.099-1.125,0.295
			c-0.323,0.197-0.618,0.475-0.89,0.834v3.613c0.241,0.325,0.506,0.554,0.793,0.687c0.288,0.133,0.609,0.199,0.962,0.199
			c0.694,0,1.228-0.248,1.601-0.745c0.375-0.496,0.562-1.204,0.562-2.124c0-0.487-0.044-0.905-0.13-1.254
			c-0.087-0.35-0.21-0.636-0.373-0.859c-0.161-0.224-0.36-0.387-0.597-0.491C68.992,17.868,68.725,17.816,68.425,17.816z"/>
		<path fill="#FFFFFF" d="M76.265,16.769c0.546,0,1.039,0.091,1.479,0.273c0.44,0.182,0.813,0.44,1.122,0.774
			c0.307,0.334,0.543,0.739,0.707,1.214c0.165,0.474,0.248,1.004,0.248,1.589c0,0.591-0.083,1.121-0.248,1.594
			c-0.164,0.472-0.4,0.875-0.707,1.21c-0.309,0.334-0.682,0.591-1.122,0.771c-0.439,0.18-0.933,0.269-1.479,0.269
			s-1.038-0.089-1.479-0.269c-0.439-0.18-0.815-0.437-1.125-0.771c-0.31-0.335-0.548-0.738-0.715-1.21
			c-0.167-0.473-0.25-1.003-0.25-1.594c0-0.585,0.083-1.115,0.25-1.589c0.167-0.475,0.405-0.88,0.715-1.214s0.686-0.593,1.125-0.774
			C75.227,16.859,75.719,16.769,76.265,16.769z M76.265,23.438c0.738,0,1.288-0.247,1.652-0.741
			c0.363-0.494,0.545-1.185,0.545-2.069c0-0.891-0.182-1.584-0.545-2.08c-0.364-0.497-0.914-0.745-1.652-0.745
			c-0.374,0-0.698,0.063-0.974,0.191s-0.506,0.312-0.69,0.554c-0.184,0.24-0.321,0.537-0.413,0.889
			c-0.091,0.352-0.136,0.748-0.136,1.191c0,0.442,0.045,0.839,0.136,1.188c0.092,0.349,0.229,0.643,0.413,0.882
			c0.185,0.238,0.415,0.421,0.69,0.549S75.891,23.438,76.265,23.438z"/>
		<path fill="#FFFFFF" d="M81.442,24.359v-7.473h0.752c0.144,0,0.241,0.027,0.296,0.082c0.053,0.054,0.091,0.146,0.109,0.28
			l0.089,1.165c0.256-0.521,0.572-0.929,0.948-1.221c0.376-0.293,0.817-0.438,1.324-0.438c0.206,0,0.394,0.022,0.561,0.069
			s0.321,0.111,0.464,0.195l-0.169,0.981c-0.034,0.123-0.11,0.184-0.229,0.184c-0.069,0-0.175-0.022-0.317-0.069
			s-0.341-0.07-0.598-0.07c-0.457,0-0.84,0.133-1.146,0.398c-0.308,0.266-0.565,0.651-0.771,1.158v4.758H81.442z"/>
		<path fill="#FFFFFF" d="M89.651,24.478c-0.589,0-1.043-0.165-1.359-0.494c-0.317-0.33-0.478-0.805-0.478-1.425v-4.572h-0.898
			c-0.079,0-0.146-0.023-0.199-0.07c-0.055-0.047-0.082-0.119-0.082-0.218v-0.523l1.225-0.155l0.303-2.309
			c0.01-0.073,0.042-0.134,0.097-0.181c0.053-0.047,0.122-0.07,0.206-0.07h0.664v2.574h2.14v0.952h-2.14v4.484
			c0,0.315,0.076,0.549,0.229,0.7c0.151,0.153,0.349,0.229,0.59,0.229c0.138,0,0.256-0.019,0.357-0.056
			c0.101-0.036,0.188-0.078,0.262-0.122s0.137-0.085,0.188-0.121c0.053-0.037,0.097-0.056,0.138-0.056
			c0.067,0,0.129,0.042,0.184,0.125l0.384,0.628c-0.227,0.211-0.5,0.377-0.82,0.498C90.321,24.417,89.992,24.478,89.651,24.478z"/>
		<path fill="#FFFFFF" d="M97.168,18.119c-0.06,0.107-0.15,0.162-0.272,0.162c-0.075,0-0.158-0.027-0.251-0.081
			c-0.094-0.054-0.209-0.114-0.343-0.181c-0.135-0.066-0.297-0.128-0.483-0.185c-0.188-0.057-0.408-0.085-0.665-0.085
			c-0.22,0-0.419,0.028-0.596,0.085c-0.178,0.057-0.329,0.134-0.454,0.232s-0.222,0.213-0.288,0.343s-0.1,0.271-0.1,0.424
			c0,0.191,0.055,0.352,0.166,0.479c0.11,0.128,0.256,0.239,0.439,0.332c0.182,0.094,0.388,0.176,0.619,0.247
			c0.23,0.071,0.469,0.147,0.712,0.229c0.243,0.082,0.481,0.171,0.712,0.27s0.438,0.222,0.619,0.369s0.328,0.328,0.439,0.542
			s0.166,0.471,0.166,0.771c0,0.345-0.062,0.663-0.185,0.956c-0.123,0.292-0.306,0.545-0.546,0.759
			c-0.241,0.214-0.536,0.383-0.885,0.506c-0.351,0.122-0.754,0.185-1.21,0.185c-0.521,0-0.994-0.085-1.417-0.255
			s-0.782-0.388-1.077-0.653l0.31-0.501c0.04-0.064,0.087-0.113,0.142-0.147c0.053-0.034,0.125-0.052,0.213-0.052
			c0.09,0,0.182,0.034,0.281,0.104c0.098,0.069,0.217,0.145,0.357,0.229c0.14,0.083,0.31,0.159,0.508,0.229
			c0.2,0.068,0.45,0.104,0.75,0.104c0.256,0,0.479-0.033,0.671-0.1s0.352-0.156,0.479-0.27c0.129-0.113,0.222-0.243,0.284-0.392
			c0.062-0.146,0.092-0.305,0.092-0.472c0-0.206-0.055-0.377-0.165-0.513c-0.111-0.135-0.258-0.251-0.439-0.347
			s-0.39-0.179-0.624-0.25c-0.233-0.071-0.472-0.146-0.715-0.226s-0.482-0.168-0.716-0.269c-0.233-0.102-0.44-0.228-0.622-0.381
			c-0.184-0.152-0.329-0.34-0.439-0.563c-0.111-0.224-0.166-0.496-0.166-0.815c0-0.285,0.06-0.56,0.177-0.822
			s0.29-0.494,0.517-0.693c0.226-0.199,0.504-0.357,0.834-0.476c0.328-0.118,0.704-0.178,1.128-0.178
			c0.491,0,0.934,0.078,1.324,0.233c0.39,0.154,0.729,0.367,1.014,0.637L97.168,18.119z"/>
		<path fill="#FFFFFF" d="M103.887,20.53l-2.515-3.644h1.262c0.108,0,0.186,0.018,0.234,0.052c0.05,0.034,0.094,0.084,0.135,0.147
			l1.828,2.804c0.045-0.138,0.107-0.276,0.191-0.414l1.609-2.36c0.049-0.068,0.098-0.124,0.146-0.166
			c0.049-0.041,0.111-0.062,0.185-0.062h1.21l-2.515,3.57l2.617,3.902h-1.261c-0.107,0-0.192-0.028-0.255-0.085
			c-0.062-0.057-0.11-0.119-0.151-0.188l-1.88-2.928c-0.034,0.143-0.086,0.27-0.155,0.383l-1.74,2.545
			c-0.05,0.069-0.103,0.132-0.159,0.188c-0.058,0.057-0.134,0.085-0.233,0.085h-1.173L103.887,20.53z"/>
		<path fill="#FFFFFF" d="M115.917,13.671c0.448,0,0.861,0.063,1.24,0.191c0.378,0.128,0.705,0.311,0.977,0.546
			c0.272,0.236,0.486,0.521,0.639,0.855c0.152,0.335,0.229,0.706,0.229,1.114c0,0.335-0.043,0.633-0.129,0.896
			c-0.087,0.264-0.209,0.495-0.369,0.694s-0.353,0.367-0.579,0.505s-0.479,0.248-0.76,0.332c0.689,0.182,1.206,0.486,1.552,0.915
			c0.348,0.428,0.521,0.964,0.521,1.607c0,0.487-0.092,0.925-0.276,1.313c-0.185,0.388-0.437,0.719-0.755,0.991
			c-0.32,0.273-0.693,0.482-1.118,0.628c-0.425,0.145-0.882,0.218-1.369,0.218c-0.561,0-1.04-0.07-1.438-0.211
			c-0.399-0.141-0.736-0.332-1.012-0.579c-0.274-0.245-0.501-0.537-0.678-0.874c-0.178-0.337-0.327-0.702-0.45-1.095l0.561-0.236
			c0.104-0.044,0.206-0.066,0.31-0.066c0.099,0,0.187,0.021,0.263,0.062s0.134,0.107,0.173,0.196c0.01,0.019,0.02,0.04,0.03,0.062
			c0.009,0.021,0.019,0.045,0.028,0.069c0.069,0.143,0.153,0.305,0.251,0.483c0.098,0.18,0.232,0.349,0.399,0.505
			c0.167,0.158,0.374,0.291,0.622,0.398c0.249,0.108,0.558,0.162,0.927,0.162c0.368,0,0.691-0.06,0.969-0.181
			c0.278-0.12,0.509-0.276,0.693-0.468c0.185-0.192,0.324-0.406,0.418-0.643c0.094-0.235,0.14-0.469,0.14-0.7
			c0-0.285-0.037-0.546-0.114-0.782c-0.076-0.236-0.214-0.439-0.413-0.612c-0.199-0.172-0.474-0.307-0.825-0.405
			c-0.354-0.098-0.805-0.147-1.354-0.147v-0.959c0.448,0,0.83-0.047,1.146-0.141c0.317-0.093,0.576-0.221,0.778-0.383
			c0.201-0.162,0.349-0.356,0.439-0.583s0.137-0.477,0.137-0.752c0-0.306-0.049-0.57-0.145-0.797
			c-0.096-0.226-0.228-0.413-0.395-0.561s-0.365-0.259-0.594-0.332c-0.229-0.074-0.475-0.11-0.741-0.11
			c-0.266,0-0.512,0.039-0.738,0.118c-0.226,0.078-0.426,0.188-0.601,0.327c-0.174,0.14-0.321,0.307-0.439,0.502
			c-0.118,0.193-0.206,0.403-0.265,0.629c-0.039,0.143-0.099,0.246-0.178,0.31s-0.18,0.097-0.303,0.097
			c-0.024,0-0.05-0.002-0.077-0.004c-0.026-0.003-0.058-0.007-0.093-0.012l-0.686-0.116c0.069-0.481,0.202-0.908,0.399-1.279
			c0.195-0.371,0.445-0.683,0.747-0.934c0.303-0.25,0.65-0.44,1.041-0.571C115.044,13.736,115.465,13.671,115.917,13.671z"/>
		<path fill="#FFFFFF" d="M124.695,17.883c0.423,0,0.824,0.07,1.203,0.21c0.377,0.141,0.71,0.345,0.995,0.612
			s0.512,0.598,0.679,0.988c0.167,0.392,0.25,0.837,0.25,1.339c0,0.487-0.089,0.939-0.265,1.357
			c-0.177,0.418-0.425,0.781-0.742,1.092c-0.316,0.31-0.7,0.553-1.146,0.73c-0.448,0.177-0.939,0.266-1.476,0.266
			c-0.531,0-1.011-0.085-1.441-0.255c-0.432-0.17-0.799-0.41-1.104-0.723s-0.539-0.691-0.705-1.137
			c-0.164-0.444-0.246-0.942-0.246-1.493c0-0.462,0.104-0.954,0.31-1.476c0.206-0.521,0.533-1.081,0.981-1.682l2.678-3.607
			c0.068-0.088,0.164-0.162,0.287-0.225c0.122-0.062,0.264-0.092,0.421-0.092h1.165l-3.667,4.64
			c0.251-0.172,0.529-0.307,0.835-0.402C124.012,17.931,124.341,17.883,124.695,17.883z M121.967,21.099
			c0,0.34,0.049,0.649,0.146,0.93s0.242,0.521,0.433,0.723c0.188,0.202,0.419,0.357,0.692,0.469c0.272,0.11,0.584,0.165,0.933,0.165
			c0.354,0,0.674-0.056,0.959-0.169s0.53-0.271,0.735-0.473c0.203-0.201,0.359-0.439,0.471-0.715s0.166-0.576,0.166-0.9
			c0-0.344-0.054-0.655-0.162-0.933c-0.107-0.278-0.261-0.514-0.458-0.709c-0.195-0.193-0.432-0.343-0.707-0.445
			c-0.275-0.104-0.578-0.155-0.907-0.155c-0.354,0-0.675,0.061-0.96,0.181c-0.285,0.121-0.527,0.282-0.727,0.487
			c-0.198,0.204-0.351,0.44-0.456,0.708C122.019,20.529,121.967,20.809,121.967,21.099z"/>
		<path fill="#FFFFFF" d="M135.67,14.364c0,0.187-0.059,0.341-0.177,0.461c-0.117,0.12-0.317,0.181-0.597,0.181h-3.319l-0.487,2.773
			c0.551-0.118,1.06-0.177,1.527-0.177c0.551,0,1.036,0.081,1.457,0.243c0.42,0.162,0.773,0.386,1.059,0.672
			c0.285,0.285,0.5,0.622,0.646,1.01c0.144,0.389,0.218,0.812,0.218,1.269c0,0.561-0.1,1.068-0.296,1.521
			c-0.197,0.452-0.467,0.839-0.808,1.161c-0.342,0.322-0.744,0.569-1.206,0.741c-0.463,0.172-0.961,0.259-1.497,0.259
			c-0.31,0-0.608-0.031-0.894-0.093c-0.285-0.061-0.55-0.144-0.796-0.247c-0.245-0.104-0.475-0.221-0.687-0.354
			c-0.212-0.132-0.397-0.272-0.561-0.42l0.398-0.561c0.089-0.128,0.207-0.192,0.354-0.192c0.093,0,0.203,0.039,0.328,0.115
			s0.276,0.161,0.454,0.254c0.177,0.094,0.384,0.179,0.623,0.255c0.238,0.076,0.521,0.114,0.852,0.114c0.369,0,0.7-0.06,0.996-0.178
			c0.295-0.117,0.547-0.285,0.756-0.505c0.209-0.219,0.37-0.48,0.482-0.785c0.114-0.305,0.17-0.646,0.17-1.025
			c0-0.329-0.047-0.627-0.144-0.893c-0.095-0.266-0.24-0.492-0.436-0.679c-0.194-0.187-0.437-0.332-0.726-0.435
			c-0.291-0.104-0.63-0.155-1.019-0.155c-0.266,0-0.54,0.021-0.825,0.066c-0.286,0.044-0.581,0.115-0.887,0.214l-0.825-0.243
			l0.855-4.942h5.008V14.364z"/>
		<path fill="#FFFFFF" d="M146.195,24.359c-0.187,0-0.305-0.091-0.354-0.273l-0.118-0.907c-0.32,0.389-0.685,0.7-1.096,0.934
			c-0.41,0.233-0.881,0.35-1.411,0.35c-0.428,0-0.817-0.082-1.166-0.247c-0.35-0.164-0.646-0.406-0.893-0.726
			c-0.247-0.32-0.436-0.719-0.568-1.195c-0.132-0.477-0.198-1.025-0.198-1.646c0-0.55,0.073-1.063,0.22-1.538
			c0.148-0.474,0.36-0.886,0.639-1.235c0.278-0.349,0.616-0.623,1.015-0.822s0.851-0.298,1.356-0.298
			c0.458,0,0.849,0.076,1.173,0.231c0.325,0.155,0.615,0.372,0.87,0.652v-4.146h1.314v10.866H146.195z M143.651,23.4
			c0.428,0,0.803-0.099,1.124-0.295c0.322-0.197,0.619-0.476,0.889-0.834v-3.614c-0.24-0.324-0.504-0.552-0.792-0.683
			c-0.288-0.13-0.606-0.195-0.955-0.195c-0.699,0-1.235,0.249-1.608,0.745c-0.374,0.497-0.561,1.205-0.561,2.124
			c0,0.487,0.042,0.904,0.126,1.251c0.083,0.347,0.206,0.632,0.368,0.855s0.362,0.387,0.597,0.49
			C143.075,23.349,143.346,23.4,143.651,23.4z"/>
		<path fill="#FFFFFF" d="M154.671,24.359h-0.583c-0.127,0-0.23-0.02-0.31-0.06c-0.078-0.039-0.13-0.122-0.154-0.25l-0.148-0.694
			c-0.196,0.178-0.388,0.336-0.575,0.477c-0.187,0.14-0.383,0.258-0.59,0.354c-0.206,0.096-0.427,0.169-0.66,0.218
			c-0.233,0.05-0.493,0.074-0.778,0.074c-0.289,0-0.562-0.041-0.815-0.123c-0.253-0.081-0.473-0.203-0.659-0.365
			c-0.188-0.163-0.336-0.369-0.447-0.618c-0.11-0.25-0.165-0.545-0.165-0.885c0-0.296,0.08-0.581,0.243-0.855
			c0.163-0.273,0.424-0.517,0.785-0.729c0.361-0.213,0.836-0.387,1.42-0.522c0.585-0.136,1.302-0.203,2.147-0.203v-0.586
			c0-0.585-0.124-1.026-0.373-1.325c-0.248-0.3-0.615-0.449-1.103-0.449c-0.32,0-0.589,0.04-0.809,0.121
			c-0.219,0.082-0.407,0.173-0.567,0.273s-0.298,0.191-0.413,0.273c-0.115,0.08-0.229,0.121-0.343,0.121
			c-0.088,0-0.166-0.023-0.232-0.069c-0.066-0.047-0.119-0.104-0.158-0.174l-0.236-0.421c0.413-0.398,0.858-0.695,1.335-0.893
			c0.478-0.196,1.006-0.294,1.585-0.294c0.419,0,0.79,0.068,1.115,0.206c0.324,0.137,0.597,0.329,0.818,0.575
			c0.221,0.245,0.388,0.543,0.501,0.893c0.114,0.35,0.17,0.732,0.17,1.15V24.359z M151.263,23.556c0.232,0,0.443-0.023,0.636-0.07
			c0.191-0.047,0.371-0.113,0.541-0.199s0.332-0.19,0.487-0.313c0.154-0.123,0.306-0.263,0.454-0.421V21.01
			c-0.605,0-1.12,0.039-1.542,0.115c-0.424,0.077-0.768,0.177-1.033,0.301c-0.265,0.124-0.458,0.27-0.579,0.438
			c-0.121,0.167-0.18,0.355-0.18,0.562c0,0.198,0.031,0.369,0.095,0.513s0.15,0.261,0.258,0.353c0.108,0.091,0.236,0.158,0.385,0.2
			C150.932,23.534,151.091,23.556,151.263,23.556z"/>
		<path fill="#FFFFFF" d="M158.617,26.564c-0.045,0.099-0.1,0.178-0.165,0.236c-0.066,0.059-0.169,0.088-0.308,0.088h-0.972
			l1.364-2.965l-3.083-7.037h1.135c0.114,0,0.202,0.028,0.265,0.085c0.065,0.057,0.111,0.119,0.142,0.188l1.998,4.706
			c0.045,0.107,0.082,0.216,0.115,0.324c0.032,0.108,0.06,0.219,0.085,0.332c0.033-0.113,0.068-0.224,0.103-0.332
			s0.073-0.219,0.118-0.332l1.94-4.698c0.029-0.079,0.079-0.145,0.151-0.196c0.07-0.051,0.148-0.077,0.232-0.077h1.047
			L158.617,26.564z"/>
		<path fill="#FFFFFF" d="M168.259,18.119c-0.06,0.107-0.15,0.162-0.272,0.162c-0.075,0-0.158-0.027-0.251-0.081
			c-0.094-0.054-0.209-0.114-0.343-0.181c-0.136-0.066-0.297-0.128-0.484-0.185c-0.187-0.057-0.407-0.085-0.664-0.085
			c-0.22,0-0.419,0.028-0.597,0.085c-0.177,0.057-0.328,0.134-0.453,0.232c-0.126,0.099-0.222,0.213-0.288,0.343
			s-0.1,0.271-0.1,0.424c0,0.191,0.055,0.352,0.166,0.479c0.11,0.128,0.256,0.239,0.439,0.332c0.181,0.094,0.387,0.176,0.619,0.247
			c0.23,0.071,0.468,0.147,0.712,0.229c0.243,0.082,0.48,0.171,0.711,0.27c0.231,0.099,0.438,0.222,0.62,0.369
			s0.328,0.328,0.439,0.542c0.11,0.214,0.165,0.471,0.165,0.771c0,0.345-0.062,0.663-0.184,0.956
			c-0.123,0.292-0.306,0.545-0.547,0.759c-0.24,0.214-0.535,0.383-0.884,0.506c-0.351,0.122-0.754,0.185-1.211,0.185
			c-0.521,0-0.993-0.085-1.416-0.255s-0.782-0.388-1.077-0.653l0.31-0.501c0.04-0.064,0.086-0.113,0.142-0.147
			c0.053-0.034,0.125-0.052,0.213-0.052c0.089,0,0.182,0.034,0.281,0.104c0.098,0.069,0.217,0.145,0.356,0.229
			c0.141,0.083,0.311,0.159,0.509,0.229c0.2,0.068,0.449,0.104,0.749,0.104c0.257,0,0.48-0.033,0.672-0.1s0.352-0.156,0.479-0.27
			s0.222-0.243,0.284-0.392c0.062-0.146,0.092-0.305,0.092-0.472c0-0.206-0.055-0.377-0.166-0.513
			c-0.11-0.135-0.258-0.251-0.439-0.347c-0.181-0.096-0.389-0.179-0.623-0.25c-0.233-0.071-0.472-0.146-0.715-0.226
			s-0.482-0.168-0.716-0.269c-0.233-0.102-0.441-0.228-0.623-0.381c-0.183-0.152-0.328-0.34-0.439-0.563
			c-0.11-0.224-0.165-0.496-0.165-0.815c0-0.285,0.059-0.56,0.177-0.822c0.117-0.263,0.29-0.494,0.516-0.693
			c0.227-0.199,0.505-0.357,0.835-0.476c0.328-0.118,0.704-0.178,1.128-0.178c0.491,0,0.934,0.078,1.324,0.233
			c0.39,0.154,0.729,0.367,1.014,0.637L168.259,18.119z"/>
	</g>
</g>
</svg>
