<?xml version="1.0" encoding="utf-8"?>
<!-- Generator: Adobe Illustrator 16.0.0, SVG Export Plug-In . SVG Version: 6.00 Build 0)  -->
<!DOCTYPE svg PUBLIC "-//W3C//DTD SVG 1.1//EN" "http://www.w3.org/Graphics/SVG/1.1/DTD/svg11.dtd">
<svg version="1.1" id="Layer_1" xmlns="http://www.w3.org/2000/svg" xmlns:xlink="http://www.w3.org/1999/xlink" x="0px" y="0px"
	 width="101.837px" height="73.667px" viewBox="0 0 101.837 73.667" enable-background="new 0 0 101.837 73.667"
	 xml:space="preserve">
<g>
	<path fill="#FFFFFF" d="M99.63,18.062c-2.025-1.778-3.111-3.158-4.532-3.901c-7.844-4.113-15.712-8.212-23.729-11.973
		c-1.729-0.811-4.374-0.863-6.168-0.167C45.671,9.592,26.211,17.335,6.801,25.208c-1.541,0.626-3.509,2.581-3.52,3.936
		c-0.016,1.411,1.817,3.373,3.332,4.178c7.464,3.967,15.017,7.787,22.708,11.291c1.952,0.888,4.823,1.212,6.752,0.463
		C55.792,37.44,75.412,29.557,95.018,21.64C96.457,21.059,97.578,19.685,99.63,18.062z"/>
	<path fill="#FFFFFF" d="M3.926,47.67c-0.469,0.496-0.937,0.995-1.403,1.493c1.144,1.455,1.987,3.48,3.486,4.272
		c8.021,4.237,16.166,8.26,24.379,12.112c1.449,0.679,3.659,0.769,5.146,0.187c19.906-7.789,39.769-15.691,59.559-23.764
		c1.508-0.615,2.402-2.742,3.578-4.168c-0.467-0.446-0.938-0.892-1.406-1.337c-2.251,0.826-4.524,1.601-6.751,2.487
		c-17.424,6.938-34.889,13.788-52.229,20.938c-3.926,1.62-7.082,1.47-10.798-0.523C19.762,55.224,11.794,51.54,3.926,47.67z"/>
	<path fill="#FFFFFF" d="M4.149,34.154c-0.503,0.569-1.005,1.134-1.506,1.701c1.453,1.518,2.641,3.526,4.4,4.465
		c7.284,3.894,14.67,7.621,22.181,11.045c1.939,0.884,4.782,1.245,6.692,0.507c19.732-7.62,39.381-15.462,58.974-23.434
		c1.584-0.644,2.595-2.703,3.87-4.109c-0.464-0.513-0.93-1.029-1.394-1.546c-2.41,0.909-4.839,1.775-7.232,2.73
		c-17.409,6.943-34.851,13.791-52.169,20.949c-3.751,1.551-6.699,1.288-10.187-0.567C20.014,41.77,12.039,38.045,4.149,34.154z"/>
	<path fill="#FFFFFF" d="M98.703,31.108c-0.45-0.492-0.897-0.986-1.349-1.479c-1.818,0.676-3.655,1.314-5.458,2.031
		C73.748,38.864,55.66,46.213,37.411,53.146c-2.577,0.98-6.288,0.788-8.844-0.321c-8.394-3.649-16.496-7.968-24.713-12.03
		c-0.478,0.53-0.959,1.059-1.437,1.585c1.306,1.495,2.329,3.526,3.966,4.397c7.641,4.062,15.401,7.905,23.237,11.576
		c1.653,0.776,4.078,1.226,5.673,0.605c20.076-7.801,40.082-15.776,60.031-23.894C96.751,34.486,97.588,32.46,98.703,31.108z"/>
	<path fill="#FFFFFF" d="M98.646,44.804c-0.48-0.553-0.957-1.107-1.438-1.661c-16.047,6.394-32.431,12.069-48.024,19.423
		c-11.392,5.375-21.32,6.161-31.816-1.356c-4.059-2.908-9.048-4.517-13.614-6.717c-0.384,0.549-0.767,1.101-1.151,1.651
		c1.066,1.118,1.936,2.616,3.234,3.297c8.014,4.224,16.069,8.375,24.245,12.265c1.603,0.761,4.042,0.91,5.677,0.272
		c19.882-7.743,39.7-15.65,59.47-23.666C96.616,47.752,97.517,46.001,98.646,44.804z"/>
	<path fill-rule="evenodd" clip-rule="evenodd" fill="#FFFFFF" d="M3.926,47.67c7.868,3.87,15.835,7.554,23.561,11.695
		c3.716,1.993,6.872,2.143,10.798,0.523c17.34-7.149,34.805-14,52.229-20.938c2.227-0.886,4.5-1.661,6.751-2.487
		c0.469,0.446,0.939,0.892,1.406,1.337c-1.176,1.426-2.07,3.554-3.578,4.168c-19.79,8.073-39.653,15.975-59.559,23.764
		c-1.487,0.582-3.697,0.492-5.146-0.187c-8.214-3.853-16.358-7.875-24.379-12.112c-1.499-0.792-2.342-2.818-3.486-4.272
		C2.989,48.665,3.458,48.166,3.926,47.67z"/>
	<path fill-rule="evenodd" clip-rule="evenodd" fill="#FFFFFF" d="M4.149,34.154c7.889,3.892,15.864,7.616,23.628,11.742
		c3.488,1.854,6.436,2.118,10.187,0.567c17.319-7.158,34.76-14.005,52.169-20.949c2.394-0.955,4.822-1.822,7.232-2.73
		c0.464,0.517,0.93,1.034,1.394,1.546c-1.275,1.407-2.286,3.465-3.87,4.109C75.297,36.41,55.648,44.252,35.916,51.873
		c-1.91,0.738-4.753,0.376-6.692-0.507c-7.51-3.424-14.897-7.151-22.181-11.045c-1.76-0.939-2.948-2.947-4.4-4.465
		C3.145,35.288,3.646,34.723,4.149,34.154z"/>
	<path fill-rule="evenodd" clip-rule="evenodd" fill="#FFFFFF" d="M98.703,31.108c-1.115,1.353-1.952,3.378-3.379,3.958
		C75.375,43.184,55.37,51.159,35.293,58.96c-1.595,0.621-4.021,0.171-5.673-0.605c-7.836-3.671-15.597-7.514-23.237-11.576
		c-1.638-0.871-2.66-2.902-3.966-4.397c0.478-0.526,0.959-1.055,1.437-1.585c8.217,4.062,16.32,8.38,24.713,12.03
		c2.556,1.109,6.267,1.301,8.844,0.321C55.66,46.213,73.748,38.864,91.896,31.66c1.803-0.717,3.64-1.355,5.458-2.031
		C97.806,30.122,98.253,30.616,98.703,31.108z"/>
	<path fill-rule="evenodd" clip-rule="evenodd" fill="#FFFFFF" d="M98.646,44.804c-1.129,1.197-2.029,2.948-3.417,3.509
		c-19.771,8.016-39.588,15.923-59.47,23.666c-1.635,0.638-4.074,0.488-5.677-0.272c-8.175-3.89-16.231-8.041-24.245-12.265
		c-1.299-0.682-2.168-2.179-3.234-3.297c0.384-0.55,0.767-1.102,1.151-1.651c4.566,2.2,9.555,3.809,13.614,6.717
		c10.497,7.518,20.424,6.731,31.816,1.356c15.593-7.354,31.978-13.029,48.024-19.423C97.688,43.697,98.165,44.251,98.646,44.804z"/>
	<g>
		<path fill="#0E5461" d="M33.781,18.048c-14.953,5.7-14.953,5.7-16.087,11.863c11.219,8.871,27.835,5.887,36.237-0.838
			C45.926,27.58,37.242,27.418,33.781,18.048z"/>
		<path fill="#0E5461" d="M48.031,13.664c7.694,1.32,15.916,1.676,19.34,10.639c14.609-4.089,15.066-4.427,16.055-11.77
			C70.896,5.178,56.114,5.65,48.031,13.664z"/>
	</g>
</g>
</svg>
