<?xml version="1.0" encoding="utf-8"?>
<!-- Generator: Adobe Illustrator 16.0.0, SVG Export Plug-In . SVG Version: 6.00 Build 0)  -->
<!DOCTYPE svg PUBLIC "-//W3C//DTD SVG 1.1//EN" "http://www.w3.org/Graphics/SVG/1.1/DTD/svg11.dtd">
<svg version="1.1" id="Layer_1" xmlns="http://www.w3.org/2000/svg" xmlns:xlink="http://www.w3.org/1999/xlink" x="0px" y="0px"
	 width="800px" height="457.394px" viewBox="0 0 800 457.394" enable-background="new 0 0 800 457.394" xml:space="preserve">
<g>
	<g>
		<path fill="#48C7F4" d="M85.776,276.541l-13.394-0.063c-4.956,0.129-6.781,4.13-6.781,5.517v0.193v0.843v18.713
			c0,1.226,0.978,2.211,2.199,2.211c1.22,0,2.214-0.985,2.214-2.211v-16.186h1.883v15.514c0,0.212,0.016,0.424,0.053,0.617v27.71
			c0,1.784,1.377,3.229,3.075,3.229s3.078-1.445,3.078-3.229v-24.453h1.521v24.453c0,1.784,1.376,3.229,3.08,3.229
			c1.697,0,3.071-1.445,3.071-3.229v-28.327v-0.174v-15.34h1.669v16.186c0,1.226,1.065,2.211,2.376,2.211
			c1.308,0,2.37-0.985,2.37-2.211V283.03v-0.843v-0.446C92.191,280.05,89.977,276.541,85.776,276.541z"/>
		<path fill="#48C7F4" d="M78.892,275.51c2.935,0,5.314-2.37,5.314-5.306c0-2.935-2.38-5.313-5.314-5.313
			c-2.934,0-5.31,2.379-5.31,5.313C73.583,273.14,75.958,275.51,78.892,275.51z"/>
	</g>
	<g>
		<path fill="#48C7F4" d="M124.401,276.541l-13.397-0.063c-4.954,0.129-6.786,4.13-6.786,5.52v0.196v0.842v18.711
			c0,1.224,0.984,2.212,2.202,2.212c1.223,0,2.215-0.988,2.215-2.212v-16.187h1.887v15.514c0,0.213,0.018,0.419,0.049,0.617v0.45
			h-0.017l-5.321,15.76l5.338,0.044V329.4c0,1.779,1.38,3.228,3.078,3.228c1.699,0,3.075-1.448,3.075-3.228v-11.405l1.525,0.013
			V329.4c0,1.779,1.371,3.228,3.078,3.228c1.697,0,3.074-1.448,3.074-3.228v-11.342l6.009,0.05l-6.009-15.429v-1.606V300.9v-15.341
			h1.667v16.187c0,1.224,1.065,2.212,2.373,2.212s2.369-0.988,2.369-2.212v-18.711v-0.842v-0.453
			C130.811,280.052,128.599,276.541,124.401,276.541z"/>
		<path fill="#48C7F4" d="M117.519,275.513c2.931,0,5.31-2.37,5.31-5.313c0-2.927-2.379-5.309-5.31-5.309
			c-2.936,0-5.316,2.382-5.316,5.309C112.202,273.143,114.583,275.513,117.519,275.513z"/>
	</g>
	<g>
		<path fill="#48C7F4" d="M163.013,276.541l-13.395-0.063c-4.956,0.129-6.781,4.13-6.781,5.517v0.193v0.843v18.713
			c0,1.226,0.978,2.211,2.2,2.211c1.22,0,2.213-0.985,2.213-2.211v-16.186h1.884v15.514c0,0.212,0.015,0.424,0.052,0.617v27.71
			c0,1.784,1.377,3.229,3.075,3.229c1.699,0,3.078-1.445,3.078-3.229v-24.453h1.521v24.453c0,1.784,1.377,3.229,3.081,3.229
			c1.697,0,3.071-1.445,3.071-3.229v-28.327v-0.174v-15.34h1.668v16.186c0,1.226,1.065,2.211,2.376,2.211
			c1.308,0,2.371-0.985,2.371-2.211V283.03v-0.843v-0.446C169.428,280.05,167.214,276.541,163.013,276.541z"/>
		<path fill="#48C7F4" d="M156.128,275.51c2.935,0,5.315-2.37,5.315-5.306c0-2.935-2.381-5.313-5.315-5.313
			c-2.934,0-5.31,2.379-5.31,5.313C150.819,273.14,153.195,275.51,156.128,275.51z"/>
	</g>
	<g>
		<path fill="#48C7F4" d="M240.25,276.541l-13.395-0.063c-4.955,0.129-6.78,4.13-6.78,5.517v0.193v0.843v18.713
			c0,1.226,0.978,2.211,2.199,2.211c1.22,0,2.214-0.985,2.214-2.211v-16.186h1.883v15.514c0,0.212,0.016,0.424,0.053,0.617v27.71
			c0,1.784,1.376,3.229,3.075,3.229c1.698,0,3.078-1.445,3.078-3.229v-24.453h1.521v24.453c0,1.784,1.376,3.229,3.08,3.229
			c1.697,0,3.071-1.445,3.071-3.229v-28.327v-0.174v-15.34h1.669v16.186c0,1.226,1.065,2.211,2.376,2.211
			c1.308,0,2.37-0.985,2.37-2.211V283.03v-0.843v-0.446C246.665,280.05,244.451,276.541,240.25,276.541z"/>
		<path fill="#48C7F4" d="M233.366,275.51c2.935,0,5.314-2.37,5.314-5.306c0-2.935-2.38-5.313-5.314-5.313
			c-2.934,0-5.31,2.379-5.31,5.313C228.056,273.14,230.432,275.51,233.366,275.51z"/>
	</g>
	<g>
		<path fill="#666666" d="M162.94,55.559l0.845-0.106l2.491,15.994c0.188,1.209,1.321,2.033,2.529,1.845
			c1.204-0.188,2.025-1.315,1.836-2.524l-2.88-18.488l-0.13-0.832l-0.03-0.193c-0.214-1.373-1.191-4.648-6.146-4.777h-10.835
			c-4.954,0.129-5.932,3.404-6.146,4.777l-0.03,0.193l-0.13,0.832l-2.88,18.488c-0.188,1.209,0.632,2.337,1.836,2.524
			c1.208,0.188,2.34-0.636,2.529-1.845l2.491-15.994l0.845,0.106v11.112c0,0.213,0.018-0.198,0.05,0l0,0h-0.017L145.849,87.9
			l3.339,0.044V99.4c0,1.779,1.379,3.228,3.078,3.228c1.698,0,3.075-1.448,3.075-3.228V87.995l1.525,0.013V99.4
			c0,1.779,1.371,3.228,3.078,3.228c1.697,0,3.073-1.448,3.073-3.228V88.058l4.009,0.05l-4.009-21.437l0,0l0,0V55.559"/>
		<path fill="#666666" d="M156.135,45.513c2.931,0,5.31-2.37,5.31-5.313c0-2.927-2.379-5.309-5.31-5.309
			c-2.935,0-5.316,2.382-5.316,5.309C150.819,43.143,153.201,45.513,156.135,45.513z"/>
	</g>
	<g>
		<path fill="#666666" d="M143.451,110.784l0.845-0.106l2.491,15.994c0.188,1.209,1.321,2.033,2.529,1.845
			c1.204-0.188,2.025-1.315,1.836-2.524l-2.88-18.488l-0.13-0.832l-0.03-0.193c-0.214-1.373-1.191-4.648-6.146-4.777h-10.835
			c-4.954,0.129-5.932,3.404-6.146,4.777l-0.03,0.193l-0.13,0.832l-2.88,18.488c-0.188,1.209,0.632,2.337,1.836,2.524
			c1.208,0.188,2.34-0.636,2.529-1.845l2.491-15.994l0.845,0.106v11.112c0,0.213,0.018-0.198,0.05,0l0,0h-0.017l-3.322,21.229
			l3.339,0.044v11.456c0,1.779,1.379,3.228,3.078,3.228c1.698,0,3.075-1.448,3.075-3.228v-11.405l1.525,0.013v11.393
			c0,1.779,1.371,3.228,3.078,3.228c1.697,0,3.073-1.448,3.073-3.228v-11.342l4.009,0.05l-4.009-21.437l0,0l0,0v-11.112"/>
		<path fill="#666666" d="M136.646,100.738c2.931,0,5.31-2.37,5.31-5.313c0-2.927-2.379-5.309-5.31-5.309
			c-2.935,0-5.316,2.382-5.316,5.309C131.33,98.368,133.711,100.738,136.646,100.738z"/>
	</g>
	<g>
		<path fill="#666666" d="M164.601,167.901l0.845-0.106l2.491,15.994c0.188,1.209,1.321,2.033,2.529,1.845
			c1.204-0.188,2.025-1.315,1.836-2.524l-2.88-18.488l-0.13-0.832l-0.03-0.193c-0.214-1.373-1.191-4.648-6.146-4.777h-10.835
			c-4.954,0.129-5.932,3.404-6.146,4.777l-0.03,0.193l-0.13,0.832l-2.88,18.488c-0.188,1.209,0.632,2.337,1.836,2.524
			c1.208,0.188,2.34-0.636,2.529-1.845l2.491-15.994l0.845,0.106v11.112c0,0.213,0.018-0.198,0.05,0l0,0h-0.017l-3.322,21.229
			l3.339,0.044v11.456c0,1.779,1.379,3.228,3.078,3.228c1.698,0,3.075-1.448,3.075-3.228v-11.405l1.525,0.013v11.393
			c0,1.779,1.371,3.228,3.078,3.228c1.697,0,3.073-1.448,3.073-3.228V200.4l4.009,0.05l-4.009-21.437l0,0l0,0v-11.112"/>
		<path fill="#666666" d="M157.796,157.855c2.931,0,5.31-2.37,5.31-5.313c0-2.927-2.379-5.309-5.31-5.309
			c-2.935,0-5.316,2.382-5.316,5.309C152.48,155.485,154.862,157.855,157.796,157.855z"/>
	</g>
	<g>
		<path fill="#48C7F4" d="M183.774,225.016l0.845-0.106l2.491,15.994c0.188,1.209,1.321,2.033,2.529,1.845
			c1.204-0.188,2.025-1.315,1.836-2.524l-2.88-18.488l-0.13-0.832l-0.03-0.193c-0.214-1.373-1.191-4.648-6.146-4.777h-10.835
			c-4.954,0.129-5.932,3.404-6.146,4.777l-0.03,0.193l-0.13,0.832l-2.88,18.488c-0.188,1.209,0.632,2.337,1.836,2.524
			c1.208,0.188,2.34-0.636,2.529-1.845l2.491-15.994l0.845,0.106v11.112c0,0.213,0.018-0.198,0.05,0l0,0h-0.017l-3.322,21.229
			l3.339,0.044v11.456c0,1.779,1.379,3.228,3.078,3.228c1.698,0,3.075-1.448,3.075-3.228v-11.405l1.525,0.013v11.393
			c0,1.779,1.371,3.228,3.078,3.228c1.697,0,3.073-1.448,3.073-3.228v-11.342l4.009,0.05l-4.009-21.437l0,0l0,0v-11.112"/>
		<path fill="#48C7F4" d="M176.97,214.97c2.931,0,5.31-2.37,5.31-5.313c0-2.927-2.379-5.309-5.31-5.309
			c-2.935,0-5.316,2.382-5.316,5.309C171.653,212.6,174.035,214.97,176.97,214.97z"/>
	</g>
	<g>
		<path fill="#666666" d="M104.786,225.016l0.845-0.106l2.491,15.994c0.188,1.209,1.321,2.033,2.529,1.845
			c1.204-0.188,2.025-1.315,1.836-2.524l-2.88-18.488l-0.13-0.832l-0.03-0.193c-0.214-1.373-1.191-4.648-6.146-4.777H92.468
			c-4.954,0.129-5.932,3.404-6.146,4.777l-0.03,0.193l-0.13,0.832l-2.88,18.488c-0.188,1.209,0.632,2.337,1.836,2.524
			c1.208,0.188,2.34-0.636,2.529-1.845l2.491-15.994l0.845,0.106v11.112c0,0.213,0.018-0.198,0.05,0l0,0h-0.017l-3.322,21.229
			l3.339,0.044v11.456c0,1.779,1.379,3.228,3.078,3.228c1.698,0,3.075-1.448,3.075-3.228v-11.405l1.525,0.013v11.393
			c0,1.779,1.371,3.228,3.078,3.228c1.697,0,3.073-1.448,3.073-3.228v-11.342l4.009,0.05l-4.009-21.437l0,0l0,0v-11.112"/>
		<path fill="#666666" d="M97.981,214.97c2.931,0,5.31-2.37,5.31-5.313c0-2.927-2.379-5.309-5.31-5.309
			c-2.935,0-5.316,2.382-5.316,5.309C92.665,212.6,95.047,214.97,97.981,214.97z"/>
	</g>
	<g>
		<path fill="#48C7F4" d="M201.652,285.559l0.845-0.106l2.491,15.994c0.188,1.209,1.321,2.033,2.529,1.845
			c1.204-0.188,2.025-1.315,1.836-2.524l-2.88-18.488l-0.13-0.832l-0.03-0.193c-0.214-1.373-1.191-4.648-6.146-4.777h-10.835
			c-4.954,0.129-5.932,3.404-6.146,4.777l-0.03,0.193l-0.13,0.832l-2.88,18.488c-0.188,1.209,0.632,2.337,1.836,2.524
			c1.208,0.188,2.34-0.636,2.529-1.845l2.491-15.994l0.845,0.106v11.112c0,0.213,0.018-0.198,0.05,0l0,0h-0.017l-3.322,21.229
			l3.339,0.043V329.4c0,1.779,1.379,3.227,3.078,3.227c1.698,0,3.075-1.447,3.075-3.227v-11.406l1.525,0.014V329.4
			c0,1.779,1.371,3.227,3.078,3.227c1.697,0,3.073-1.447,3.073-3.227v-11.342l4.009,0.049l-4.009-21.436l0,0l0,0v-11.112"/>
		<path fill="#48C7F4" d="M194.848,275.513c2.931,0,5.31-2.37,5.31-5.313c0-2.927-2.379-5.309-5.31-5.309
			c-2.935,0-5.316,2.382-5.316,5.309C189.531,273.143,191.913,275.513,194.848,275.513z"/>
	</g>
	<g>
		<path fill="#48C7F4" d="M144.259,215.997l-13.395-0.063c-4.955,0.13-6.78,4.13-6.78,5.518v0.192v0.843v18.713
			c0,1.226,0.977,2.211,2.199,2.211c1.22,0,2.214-0.985,2.214-2.211v-16.186h1.883v15.514c0,0.213,0.016,0.425,0.053,0.617v27.711
			c0,1.784,1.376,3.229,3.075,3.229c1.698,0,3.078-1.445,3.078-3.229v-24.454h1.521v24.454c0,1.784,1.377,3.229,3.081,3.229
			c1.697,0,3.071-1.445,3.071-3.229v-28.328v-0.173v-15.341h1.668v16.186c0,1.226,1.065,2.211,2.376,2.211
			c1.309,0,2.371-0.985,2.371-2.211v-18.713v-0.843v-0.446C150.674,219.506,148.46,215.997,144.259,215.997z"/>
		<path fill="#48C7F4" d="M137.375,214.967c2.936,0,5.315-2.371,5.315-5.306s-2.38-5.313-5.315-5.313
			c-2.933,0-5.309,2.379-5.309,5.313S134.442,214.967,137.375,214.967z"/>
	</g>
	<g>
		<path fill="#48C7F4" d="M216.365,214.967c2.936,0,5.315-2.371,5.315-5.306s-2.38-5.313-5.315-5.313
			c-2.933,0-5.309,2.379-5.309,5.313S213.432,214.967,216.365,214.967z"/>
		<path fill="#48C7F4" d="M223.249,215.997l-13.395-0.063c-4.956,0.13-6.781,4.13-6.781,5.518v0.192v0.843v18.713
			c0,1.226,0.978,2.211,2.2,2.211c1.22,0,2.213-0.985,2.213-2.211v-16.186h1.884v15.514c0,0.213,0.015,0.425,0.052,0.617v27.711
			c0,1.784,1.377,3.229,3.075,3.229c1.699,0,3.078-1.445,3.078-3.229v-24.454h1.521v24.454c0,1.784,1.377,3.229,3.081,3.229
			c1.697,0,3.071-1.445,3.071-3.229v-28.328v-0.173v-15.341h1.668v16.186c0,1.226,1.065,2.211,2.376,2.211
			c1.308,0,2.37-0.985,2.37-2.211v-18.713v-0.843v-0.446C229.663,219.506,227.45,215.997,223.249,215.997z"/>
	</g>
	<g>
		<path fill="#666666" d="M125.9,158.882l-13.394-0.063c-4.956,0.129-6.781,4.13-6.781,5.518v0.192v0.843v18.713
			c0,1.226,0.978,2.211,2.199,2.211c1.22,0,2.214-0.985,2.214-2.211v-16.186h1.883v15.514c0,0.212,0.016,0.424,0.053,0.617v27.71
			c0,1.784,1.377,3.229,3.075,3.229c1.699,0,3.078-1.445,3.078-3.229v-24.453h1.521v24.453c0,1.784,1.376,3.229,3.08,3.229
			c1.697,0,3.071-1.445,3.071-3.229v-28.327v-0.173v-15.341h1.669v16.186c0,1.226,1.065,2.211,2.376,2.211
			c1.308,0,2.37-0.985,2.37-2.211v-18.713v-0.843v-0.446C132.315,162.392,130.101,158.882,125.9,158.882z"/>
		<path fill="#666666" d="M119.016,157.852c2.935,0,5.314-2.37,5.314-5.305c0-2.936-2.38-5.314-5.314-5.314
			c-2.934,0-5.31,2.379-5.31,5.314C113.707,155.482,116.083,157.852,119.016,157.852z"/>
	</g>
	<g>
		<path fill="#666666" d="M196.377,157.852c2.936,0,5.315-2.37,5.315-5.305c0-2.936-2.38-5.314-5.315-5.314
			c-2.933,0-5.31,2.379-5.31,5.314C191.068,155.482,193.445,157.852,196.377,157.852z"/>
		<path fill="#666666" d="M203.261,158.882l-13.395-0.063c-4.956,0.129-6.781,4.13-6.781,5.518v0.192v0.843v18.713
			c0,1.226,0.978,2.211,2.2,2.211c1.22,0,2.213-0.985,2.213-2.211v-16.186h1.884v15.514c0,0.212,0.015,0.424,0.052,0.617v27.71
			c0,1.784,1.377,3.229,3.075,3.229c1.699,0,3.078-1.445,3.078-3.229v-24.453h1.521v24.453c0,1.784,1.377,3.229,3.081,3.229
			c1.697,0,3.071-1.445,3.071-3.229v-28.327v-0.173v-15.341h1.668v16.186c0,1.226,1.065,2.211,2.376,2.211
			c1.308,0,2.37-0.985,2.37-2.211v-18.713v-0.843v-0.446C209.675,162.392,207.462,158.882,203.261,158.882z"/>
	</g>
	<g>
		<path fill="#666666" d="M174.82,100.735c2.935,0,5.315-2.37,5.315-5.306c0-2.935-2.381-5.313-5.315-5.313
			c-2.934,0-5.31,2.379-5.31,5.313C169.51,98.365,171.886,100.735,174.82,100.735z"/>
		<path fill="#666666" d="M181.703,101.765l-13.395-0.063c-4.955,0.129-6.78,4.13-6.78,5.517v0.193v0.842v18.714
			c0,1.225,0.978,2.211,2.199,2.211c1.22,0,2.214-0.986,2.214-2.211v-16.186h1.883v15.514c0,0.212,0.016,0.424,0.053,0.617v27.71
			c0,1.784,1.376,3.229,3.075,3.229c1.698,0,3.078-1.445,3.078-3.229v-24.453h1.521v24.453c0,1.784,1.376,3.229,3.08,3.229
			c1.697,0,3.071-1.445,3.071-3.229v-28.327v-0.174v-15.34h1.669v16.186c0,1.225,1.065,2.211,2.376,2.211
			c1.308,0,2.37-0.986,2.37-2.211v-18.714v-0.842v-0.446C188.118,105.275,185.904,101.765,181.703,101.765z"/>
	</g>
</g>
<g>
	<g>
		<path fill="#5E7E53" d="M313.374,276.541l-13.394-0.063c-4.956,0.129-6.781,4.13-6.781,5.517v0.193v0.843v18.713
			c0,1.226,0.978,2.211,2.199,2.211c1.22,0,2.214-0.985,2.214-2.211v-16.186h1.883v15.514c0,0.212,0.016,0.424,0.053,0.617v27.71
			c0,1.784,1.377,3.229,3.075,3.229s3.078-1.445,3.078-3.229v-24.453h1.521v24.453c0,1.784,1.376,3.229,3.08,3.229
			c1.697,0,3.071-1.445,3.071-3.229v-28.327v-0.174v-15.34h1.669v16.186c0,1.226,1.065,2.211,2.376,2.211
			c1.308,0,2.37-0.985,2.37-2.211V283.03v-0.843v-0.446C319.789,280.05,317.575,276.541,313.374,276.541z"/>
		<path fill="#5E7E53" d="M306.49,275.51c2.935,0,5.314-2.37,5.314-5.306c0-2.935-2.38-5.313-5.314-5.313
			c-2.934,0-5.31,2.379-5.31,5.313C301.18,273.14,303.556,275.51,306.49,275.51z"/>
	</g>
	<g>
		<path fill="#5E7E53" d="M351.999,276.541l-13.397-0.063c-4.954,0.129-6.786,4.13-6.786,5.52v0.196v0.842v18.711
			c0,1.224,0.984,2.212,2.202,2.212c1.223,0,2.215-0.988,2.215-2.212v-16.187h1.887v15.514c0,0.213,0.018,0.419,0.049,0.617v0.45
			h-0.017l-5.321,15.76l5.338,0.044V329.4c0,1.779,1.38,3.228,3.078,3.228c1.699,0,3.075-1.448,3.075-3.228v-11.405l1.525,0.013
			V329.4c0,1.779,1.371,3.228,3.078,3.228c1.697,0,3.074-1.448,3.074-3.228v-11.342l6.009,0.05l-6.009-15.429v-1.606V300.9v-15.341
			h1.667v16.187c0,1.224,1.065,2.212,2.373,2.212s2.369-0.988,2.369-2.212v-18.711v-0.842v-0.453
			C358.408,280.052,356.196,276.541,351.999,276.541z"/>
		<path fill="#5E7E53" d="M345.116,275.513c2.931,0,5.31-2.37,5.31-5.313c0-2.927-2.379-5.309-5.31-5.309
			c-2.936,0-5.316,2.382-5.316,5.309C339.8,273.143,342.181,275.513,345.116,275.513z"/>
	</g>
	<g>
		<path fill="#5E7E53" d="M390.611,276.541l-13.395-0.063c-4.956,0.129-6.781,4.13-6.781,5.517v0.193v0.843v18.713
			c0,1.226,0.978,2.211,2.2,2.211c1.22,0,2.213-0.985,2.213-2.211v-16.186h1.884v15.514c0,0.212,0.015,0.424,0.052,0.617v27.71
			c0,1.784,1.377,3.229,3.075,3.229c1.699,0,3.078-1.445,3.078-3.229v-24.453h1.521v24.453c0,1.784,1.377,3.229,3.081,3.229
			c1.697,0,3.071-1.445,3.071-3.229v-28.327v-0.174v-15.34h1.668v16.186c0,1.226,1.065,2.211,2.376,2.211
			c1.308,0,2.371-0.985,2.371-2.211V283.03v-0.843v-0.446C397.026,280.05,394.812,276.541,390.611,276.541z"/>
		<path fill="#5E7E53" d="M383.726,275.51c2.935,0,5.315-2.37,5.315-5.306c0-2.935-2.381-5.313-5.315-5.313
			c-2.934,0-5.31,2.379-5.31,5.313C378.417,273.14,380.792,275.51,383.726,275.51z"/>
	</g>
	<g>
		<path fill="#5E7E53" d="M467.847,276.541l-13.395-0.063c-4.955,0.129-6.78,4.13-6.78,5.517v0.193v0.843v18.713
			c0,1.226,0.978,2.211,2.199,2.211c1.22,0,2.214-0.985,2.214-2.211v-16.186h1.883v15.514c0,0.212,0.016,0.424,0.053,0.617v27.71
			c0,1.784,1.376,3.229,3.075,3.229c1.698,0,3.078-1.445,3.078-3.229v-24.453h1.521v24.453c0,1.784,1.376,3.229,3.08,3.229
			c1.697,0,3.071-1.445,3.071-3.229v-28.327v-0.174v-15.34h1.669v16.186c0,1.226,1.065,2.211,2.376,2.211
			c1.308,0,2.37-0.985,2.37-2.211V283.03v-0.843v-0.446C474.262,280.05,472.048,276.541,467.847,276.541z"/>
		<path fill="#5E7E53" d="M460.963,275.51c2.935,0,5.314-2.37,5.314-5.306c0-2.935-2.38-5.313-5.314-5.313
			c-2.934,0-5.31,2.379-5.31,5.313C455.654,273.14,458.03,275.51,460.963,275.51z"/>
	</g>
	<g>
		<path fill="#666666" d="M390.538,55.559l0.845-0.106l2.491,15.994c0.188,1.209,1.321,2.033,2.529,1.845
			c1.204-0.188,2.025-1.315,1.836-2.524l-2.88-18.488l-0.13-0.832l-0.03-0.193c-0.214-1.373-1.191-4.648-6.146-4.777h-10.835
			c-4.954,0.129-5.932,3.404-6.146,4.777l-0.03,0.193l-0.13,0.832l-2.88,18.488c-0.188,1.209,0.632,2.337,1.836,2.524
			c1.208,0.188,2.34-0.636,2.529-1.845l2.491-15.994l0.845,0.106v11.112c0,0.213,0.018-0.198,0.05,0l0,0h-0.017L373.447,87.9
			l3.339,0.044V99.4c0,1.779,1.379,3.228,3.078,3.228c1.698,0,3.075-1.448,3.075-3.228V87.995l1.525,0.013V99.4
			c0,1.779,1.371,3.228,3.078,3.228c1.697,0,3.073-1.448,3.073-3.228V88.058l4.009,0.05l-4.009-21.437l0,0l0,0V55.559"/>
		<path fill="#666666" d="M383.733,45.513c2.931,0,5.31-2.37,5.31-5.313c0-2.927-2.379-5.309-5.31-5.309
			c-2.935,0-5.316,2.382-5.316,5.309C378.417,43.143,380.798,45.513,383.733,45.513z"/>
	</g>
	<g>
		<path fill="#666666" d="M371.048,110.784l0.845-0.106l2.491,15.994c0.188,1.209,1.321,2.033,2.529,1.845
			c1.204-0.188,2.025-1.315,1.836-2.524l-2.88-18.488l-0.13-0.832l-0.03-0.193c-0.214-1.373-1.191-4.648-6.146-4.777H358.73
			c-4.954,0.129-5.932,3.404-6.146,4.777l-0.03,0.193l-0.13,0.832l-2.88,18.488c-0.188,1.209,0.632,2.337,1.836,2.524
			c1.208,0.188,2.34-0.636,2.529-1.845l2.491-15.994l0.845,0.106v11.112c0,0.213,0.018-0.198,0.05,0l0,0h-0.017l-3.322,21.229
			l3.339,0.044v11.456c0,1.779,1.379,3.228,3.078,3.228c1.698,0,3.075-1.448,3.075-3.228v-11.405l1.525,0.013v11.393
			c0,1.779,1.371,3.228,3.078,3.228c1.697,0,3.073-1.448,3.073-3.228v-11.342l4.009,0.05l-4.009-21.437l0,0l0,0v-11.112"/>
		<path fill="#666666" d="M364.244,100.738c2.931,0,5.31-2.37,5.31-5.313c0-2.927-2.379-5.309-5.31-5.309
			c-2.935,0-5.316,2.382-5.316,5.309C358.927,98.368,361.309,100.738,364.244,100.738z"/>
	</g>
	<g>
		<path fill="#666666" d="M392.199,167.901l0.845-0.106l2.491,15.994c0.188,1.209,1.321,2.033,2.529,1.845
			c1.204-0.188,2.025-1.315,1.836-2.524l-2.88-18.488l-0.13-0.832l-0.03-0.193c-0.214-1.373-1.191-4.648-6.146-4.777H379.88
			c-4.954,0.129-5.932,3.404-6.146,4.777l-0.03,0.193l-0.13,0.832l-2.88,18.488c-0.188,1.209,0.632,2.337,1.836,2.524
			c1.208,0.188,2.34-0.636,2.529-1.845l2.491-15.994l0.845,0.106v11.112c0,0.213,0.018-0.198,0.05,0l0,0h-0.017l-3.322,21.229
			l3.339,0.044v11.456c0,1.779,1.379,3.228,3.078,3.228c1.698,0,3.075-1.448,3.075-3.228v-11.405l1.525,0.013v11.393
			c0,1.779,1.371,3.228,3.078,3.228c1.697,0,3.073-1.448,3.073-3.228V200.4l4.009,0.05l-4.009-21.437l0,0l0,0v-11.112"/>
		<path fill="#666666" d="M385.394,157.855c2.931,0,5.31-2.37,5.31-5.313c0-2.927-2.379-5.309-5.31-5.309
			c-2.935,0-5.316,2.382-5.316,5.309C380.078,155.485,382.459,157.855,385.394,157.855z"/>
	</g>
	<g>
		<path fill="#666666" d="M411.372,225.016l0.845-0.106l2.491,15.994c0.188,1.209,1.321,2.033,2.529,1.845
			c1.204-0.188,2.025-1.315,1.836-2.524l-2.88-18.488l-0.13-0.832l-0.03-0.193c-0.214-1.373-1.191-4.648-6.146-4.777h-10.835
			c-4.954,0.129-5.932,3.404-6.146,4.777l-0.03,0.193l-0.13,0.832l-2.88,18.488c-0.188,1.209,0.632,2.337,1.836,2.524
			c1.208,0.188,2.34-0.636,2.529-1.845l2.491-15.994l0.845,0.106v11.112c0,0.213,0.018-0.198,0.05,0l0,0h-0.017l-3.322,21.229
			l3.339,0.044v11.456c0,1.779,1.379,3.228,3.078,3.228c1.698,0,3.075-1.448,3.075-3.228v-11.405l1.525,0.013v11.393
			c0,1.779,1.371,3.228,3.078,3.228c1.697,0,3.073-1.448,3.073-3.228v-11.342l4.009,0.05l-4.009-21.437l0,0l0,0v-11.112"/>
		<path fill="#666666" d="M404.567,214.97c2.931,0,5.31-2.37,5.31-5.313c0-2.927-2.379-5.309-5.31-5.309
			c-2.935,0-5.316,2.382-5.316,5.309C399.251,212.6,401.633,214.97,404.567,214.97z"/>
	</g>
	<g>
		<path fill="#666666" d="M332.384,225.016l0.845-0.106l2.491,15.994c0.188,1.209,1.321,2.033,2.529,1.845
			c1.204-0.188,2.025-1.315,1.836-2.524l-2.88-18.488l-0.13-0.832l-0.03-0.193c-0.214-1.373-1.191-4.648-6.146-4.777h-10.835
			c-4.954,0.129-5.932,3.404-6.146,4.777l-0.03,0.193l-0.13,0.832l-2.88,18.488c-0.188,1.209,0.632,2.337,1.836,2.524
			c1.208,0.188,2.34-0.636,2.529-1.845l2.491-15.994l0.845,0.106v11.112c0,0.213,0.018-0.198,0.05,0l0,0h-0.017l-3.322,21.229
			l3.339,0.044v11.456c0,1.779,1.379,3.228,3.078,3.228c1.698,0,3.075-1.448,3.075-3.228v-11.405l1.525,0.013v11.393
			c0,1.779,1.371,3.228,3.078,3.228c1.697,0,3.073-1.448,3.073-3.228v-11.342l4.009,0.05l-4.009-21.437l0,0l0,0v-11.112"/>
		<path fill="#666666" d="M325.579,214.97c2.931,0,5.31-2.37,5.31-5.313c0-2.927-2.379-5.309-5.31-5.309
			c-2.935,0-5.316,2.382-5.316,5.309C320.263,212.6,322.645,214.97,325.579,214.97z"/>
	</g>
	<g>
		<path fill="#5E7E53" d="M429.25,285.559l0.845-0.106l2.491,15.994c0.188,1.209,1.321,2.033,2.529,1.845
			c1.204-0.188,2.025-1.315,1.836-2.524l-2.88-18.488l-0.13-0.832l-0.03-0.193c-0.214-1.373-1.191-4.648-6.146-4.777h-10.835
			c-4.954,0.129-5.932,3.404-6.146,4.777l-0.03,0.193l-0.13,0.832l-2.88,18.488c-0.188,1.209,0.632,2.337,1.836,2.524
			c1.208,0.188,2.34-0.636,2.529-1.845l2.491-15.994l0.845,0.106v11.112c0,0.213,0.018-0.198,0.05,0l0,0h-0.017l-3.322,21.229
			l3.339,0.043V329.4c0,1.779,1.379,3.227,3.078,3.227c1.698,0,3.075-1.447,3.075-3.227v-11.406l1.525,0.014V329.4
			c0,1.779,1.371,3.227,3.078,3.227c1.697,0,3.073-1.447,3.073-3.227v-11.342l4.009,0.049l-4.009-21.436l0,0l0,0v-11.112"/>
		<path fill="#5E7E53" d="M422.445,275.513c2.931,0,5.31-2.37,5.31-5.313c0-2.927-2.379-5.309-5.31-5.309
			c-2.935,0-5.316,2.382-5.316,5.309C417.129,273.143,419.511,275.513,422.445,275.513z"/>
	</g>
	<g>
		<path fill="#666666" d="M371.857,215.997l-13.395-0.063c-4.955,0.13-6.78,4.13-6.78,5.518v0.192v0.843v18.713
			c0,1.226,0.977,2.211,2.199,2.211c1.22,0,2.214-0.985,2.214-2.211v-16.186h1.883v15.514c0,0.213,0.016,0.425,0.053,0.617v27.711
			c0,1.784,1.376,3.229,3.075,3.229c1.698,0,3.078-1.445,3.078-3.229v-24.454h1.521v24.454c0,1.784,1.377,3.229,3.081,3.229
			c1.697,0,3.071-1.445,3.071-3.229v-28.328v-0.173v-15.341h1.668v16.186c0,1.226,1.065,2.211,2.376,2.211
			c1.309,0,2.371-0.985,2.371-2.211v-18.713v-0.843v-0.446C378.272,219.506,376.058,215.997,371.857,215.997z"/>
		<path fill="#666666" d="M364.972,214.967c2.936,0,5.315-2.371,5.315-5.306s-2.38-5.313-5.315-5.313
			c-2.933,0-5.309,2.379-5.309,5.313S362.04,214.967,364.972,214.967z"/>
	</g>
	<g>
		<path fill="#5E7E53" d="M443.962,214.967c2.936,0,5.315-2.371,5.315-5.306s-2.38-5.313-5.315-5.313
			c-2.933,0-5.309,2.379-5.309,5.313S441.03,214.967,443.962,214.967z"/>
		<path fill="#5E7E53" d="M450.846,215.997l-13.395-0.063c-4.956,0.13-6.781,4.13-6.781,5.518v0.192v0.843v18.713
			c0,1.226,0.978,2.211,2.2,2.211c1.22,0,2.213-0.985,2.213-2.211v-16.186h1.884v15.514c0,0.213,0.015,0.425,0.052,0.617v27.711
			c0,1.784,1.377,3.229,3.075,3.229c1.699,0,3.078-1.445,3.078-3.229v-24.454h1.521v24.454c0,1.784,1.377,3.229,3.081,3.229
			c1.697,0,3.071-1.445,3.071-3.229v-28.328v-0.173v-15.341h1.668v16.186c0,1.226,1.065,2.211,2.376,2.211
			c1.308,0,2.37-0.985,2.37-2.211v-18.713v-0.843v-0.446C457.26,219.506,455.047,215.997,450.846,215.997z"/>
	</g>
	<g>
		<path fill="#666666" d="M353.498,158.882l-13.394-0.063c-4.956,0.129-6.781,4.13-6.781,5.518v0.192v0.843v18.713
			c0,1.226,0.978,2.211,2.199,2.211c1.22,0,2.214-0.985,2.214-2.211v-16.186h1.883v15.514c0,0.212,0.016,0.424,0.053,0.617v27.71
			c0,1.784,1.377,3.229,3.075,3.229c1.699,0,3.078-1.445,3.078-3.229v-24.453h1.521v24.453c0,1.784,1.376,3.229,3.08,3.229
			c1.697,0,3.071-1.445,3.071-3.229v-28.327v-0.173v-15.341h1.669v16.186c0,1.226,1.065,2.211,2.376,2.211
			c1.308,0,2.37-0.985,2.37-2.211v-18.713v-0.843v-0.446C359.913,162.392,357.699,158.882,353.498,158.882z"/>
		<path fill="#666666" d="M346.614,157.852c2.935,0,5.314-2.37,5.314-5.305c0-2.936-2.38-5.314-5.314-5.314
			c-2.934,0-5.31,2.379-5.31,5.314C341.304,155.482,343.68,157.852,346.614,157.852z"/>
	</g>
	<g>
		<path fill="#666666" d="M423.975,157.852c2.936,0,5.315-2.37,5.315-5.305c0-2.936-2.38-5.314-5.315-5.314
			c-2.933,0-5.31,2.379-5.31,5.314C418.666,155.482,421.042,157.852,423.975,157.852z"/>
		<path fill="#666666" d="M430.859,158.882l-13.395-0.063c-4.956,0.129-6.781,4.13-6.781,5.518v0.192v0.843v18.713
			c0,1.226,0.978,2.211,2.2,2.211c1.22,0,2.213-0.985,2.213-2.211v-16.186h1.884v15.514c0,0.212,0.015,0.424,0.052,0.617v27.71
			c0,1.784,1.377,3.229,3.075,3.229c1.699,0,3.078-1.445,3.078-3.229v-24.453h1.521v24.453c0,1.784,1.377,3.229,3.081,3.229
			c1.697,0,3.071-1.445,3.071-3.229v-28.327v-0.173v-15.341h1.668v16.186c0,1.226,1.065,2.211,2.376,2.211
			c1.308,0,2.37-0.985,2.37-2.211v-18.713v-0.843v-0.446C437.273,162.392,435.06,158.882,430.859,158.882z"/>
	</g>
	<g>
		<path fill="#666666" d="M402.417,100.735c2.935,0,5.315-2.37,5.315-5.306c0-2.935-2.381-5.313-5.315-5.313
			c-2.934,0-5.31,2.379-5.31,5.313C397.108,98.365,399.484,100.735,402.417,100.735z"/>
		<path fill="#666666" d="M409.3,101.765l-13.395-0.063c-4.955,0.129-6.78,4.13-6.78,5.517v0.193v0.842v18.714
			c0,1.225,0.978,2.211,2.199,2.211c1.22,0,2.214-0.986,2.214-2.211v-16.186h1.883v15.514c0,0.212,0.016,0.424,0.053,0.617v27.71
			c0,1.784,1.376,3.229,3.075,3.229c1.698,0,3.078-1.445,3.078-3.229v-24.453h1.521v24.453c0,1.784,1.376,3.229,3.08,3.229
			c1.697,0,3.071-1.445,3.071-3.229v-28.327v-0.174v-15.34h1.669v16.186c0,1.225,1.065,2.211,2.376,2.211
			c1.308,0,2.37-0.986,2.37-2.211v-18.714v-0.842v-0.446C415.715,105.275,413.501,101.765,409.3,101.765z"/>
	</g>
</g>
<g>
	<g>
		<path fill="#B75055" d="M541.406,276.541l-13.393-0.063c-4.957,0.129-6.781,4.13-6.781,5.517v0.193v0.843v18.713
			c0,1.226,0.977,2.211,2.199,2.211c1.219,0,2.213-0.985,2.213-2.211v-16.186h1.883v15.514c0,0.212,0.016,0.424,0.053,0.617v27.71
			c0,1.784,1.377,3.229,3.076,3.229c1.697,0,3.078-1.445,3.078-3.229v-24.453h1.521v24.453c0,1.784,1.375,3.229,3.08,3.229
			c1.697,0,3.07-1.445,3.07-3.229v-28.327v-0.174v-15.34h1.67v16.186c0,1.226,1.064,2.211,2.375,2.211
			c1.309,0,2.371-0.985,2.371-2.211V283.03v-0.843v-0.446C547.822,280.05,545.607,276.541,541.406,276.541z"/>
		<path fill="#B75055" d="M534.523,275.51c2.934,0,5.314-2.37,5.314-5.306c0-2.935-2.381-5.313-5.314-5.313
			s-5.311,2.379-5.311,5.313C529.213,273.14,531.59,275.51,534.523,275.51z"/>
	</g>
	<g>
		<path fill="#B75055" d="M580.032,276.541l-13.397-0.063c-4.954,0.129-6.786,4.13-6.786,5.52v0.196v0.842v18.711
			c0,1.224,0.984,2.212,2.202,2.212c1.223,0,2.215-0.988,2.215-2.212v-16.187h1.887v15.514c0,0.213,0.018,0.419,0.049,0.617v0.45
			h-0.017l-5.321,15.76l5.338,0.044V329.4c0,1.779,1.38,3.228,3.078,3.228c1.699,0,3.075-1.448,3.075-3.228v-11.405l1.525,0.013
			V329.4c0,1.779,1.371,3.228,3.078,3.228c1.697,0,3.074-1.448,3.074-3.228v-11.342l6.009,0.05l-6.009-15.429v-1.606V300.9v-15.341
			h1.667v16.187c0,1.224,1.065,2.212,2.373,2.212s2.369-0.988,2.369-2.212v-18.711v-0.842v-0.453
			C586.441,280.052,584.229,276.541,580.032,276.541z"/>
		<path fill="#B75055" d="M573.149,275.513c2.931,0,5.31-2.37,5.31-5.313c0-2.927-2.379-5.309-5.31-5.309
			c-2.936,0-5.316,2.382-5.316,5.309C567.833,273.143,570.214,275.513,573.149,275.513z"/>
	</g>
	<g>
		<path fill="#B75055" d="M618.645,276.541l-13.395-0.063c-4.957,0.129-6.781,4.13-6.781,5.517v0.193v0.843v18.713
			c0,1.226,0.977,2.211,2.199,2.211c1.221,0,2.213-0.985,2.213-2.211v-16.186h1.885v15.514c0,0.212,0.014,0.424,0.051,0.617v27.71
			c0,1.784,1.377,3.229,3.076,3.229s3.078-1.445,3.078-3.229v-24.453h1.521v24.453c0,1.784,1.377,3.229,3.08,3.229
			c1.697,0,3.072-1.445,3.072-3.229v-28.327v-0.174v-15.34h1.668v16.186c0,1.226,1.064,2.211,2.375,2.211
			c1.309,0,2.371-0.985,2.371-2.211V283.03v-0.843v-0.446C625.059,280.05,622.846,276.541,618.645,276.541z"/>
		<path fill="#B75055" d="M611.76,275.51c2.934,0,5.314-2.37,5.314-5.306c0-2.935-2.381-5.313-5.314-5.313s-5.311,2.379-5.311,5.313
			C606.449,273.14,608.826,275.51,611.76,275.51z"/>
	</g>
	<g>
		<path fill="#B75055" d="M695.881,276.541l-13.395-0.063c-4.955,0.129-6.781,4.13-6.781,5.517v0.193v0.843v18.713
			c0,1.226,0.979,2.211,2.199,2.211s2.215-0.985,2.215-2.211v-16.186h1.883v15.514c0,0.212,0.016,0.424,0.053,0.617v27.71
			c0,1.784,1.375,3.229,3.074,3.229s3.078-1.445,3.078-3.229v-24.453h1.521v24.453c0,1.784,1.377,3.229,3.08,3.229
			c1.697,0,3.072-1.445,3.072-3.229v-28.327v-0.174v-15.34h1.668v16.186c0,1.226,1.066,2.211,2.377,2.211
			c1.307,0,2.369-0.985,2.369-2.211V283.03v-0.843v-0.446C702.295,280.05,700.082,276.541,695.881,276.541z"/>
		<path fill="#B75055" d="M688.996,275.51c2.936,0,5.314-2.37,5.314-5.306c0-2.935-2.379-5.313-5.314-5.313
			c-2.934,0-5.309,2.379-5.309,5.313C683.688,273.14,686.062,275.51,688.996,275.51z"/>
	</g>
	<g>
		<path fill="#666666" d="M618.57,55.559l0.846-0.106l2.491,15.994c0.188,1.209,1.321,2.033,2.528,1.845
			c1.205-0.188,2.025-1.315,1.837-2.524l-2.88-18.488l-0.13-0.832l-0.03-0.193c-0.213-1.373-1.191-4.648-6.145-4.777h-10.836
			c-4.953,0.129-5.932,3.404-6.145,4.777l-0.03,0.193l-0.13,0.832l-2.88,18.488c-0.188,1.209,0.632,2.337,1.837,2.524
			c1.207,0.188,2.34-0.636,2.528-1.845l2.491-15.994l0.846,0.106v11.112c0,0.213,0.018-0.198,0.049,0l0,0h-0.016L601.48,87.9
			l3.338,0.044V99.4c0,1.779,1.379,3.228,3.078,3.228s3.076-1.448,3.076-3.228V87.995l1.525,0.013V99.4
			c0,1.779,1.371,3.228,3.078,3.228c1.697,0,3.072-1.448,3.072-3.228V88.058l4.01,0.05l-4.01-21.437l0,0l0,0V55.559"/>
		<path fill="#666666" d="M611.766,45.513c2.932,0,5.311-2.37,5.311-5.313c0-2.927-2.379-5.309-5.311-5.309
			c-2.934,0-5.316,2.382-5.316,5.309C606.449,43.143,608.832,45.513,611.766,45.513z"/>
	</g>
	<g>
		<path fill="#666666" d="M599.082,110.784l0.845-0.106l2.491,15.994c0.188,1.209,1.32,2.033,2.529,1.845
			c1.203-0.188,2.024-1.315,1.836-2.524l-2.88-18.488l-0.13-0.832l-0.029-0.193c-0.215-1.373-1.191-4.648-6.146-4.777h-10.834
			c-4.955,0.129-5.932,3.404-6.146,4.777l-0.029,0.193l-0.13,0.832l-2.88,18.488c-0.188,1.209,0.633,2.337,1.836,2.524
			c1.209,0.188,2.341-0.636,2.529-1.845l2.491-15.994l0.845,0.106v11.112c0,0.213,0.018-0.198,0.051,0l0,0h-0.018l-3.322,21.229
			l3.34,0.044v11.456c0,1.779,1.379,3.228,3.078,3.228c1.697,0,3.074-1.448,3.074-3.228v-11.405l1.525,0.013v11.393
			c0,1.779,1.371,3.228,3.078,3.228c1.697,0,3.074-1.448,3.074-3.228v-11.342l4.008,0.05l-4.008-21.437l0,0l0,0v-11.112"/>
		<path fill="#666666" d="M592.277,100.738c2.93,0,5.309-2.37,5.309-5.313c0-2.927-2.379-5.309-5.309-5.309
			c-2.936,0-5.316,2.382-5.316,5.309C586.961,98.368,589.342,100.738,592.277,100.738z"/>
	</g>
	<g>
		<path fill="#666666" d="M620.232,167.901l0.845-0.106l2.491,15.994c0.188,1.209,1.32,2.033,2.529,1.845
			c1.203-0.188,2.024-1.315,1.836-2.524l-2.88-18.488l-0.13-0.832l-0.029-0.193c-0.215-1.373-1.191-4.648-6.146-4.777h-10.834
			c-4.955,0.129-5.932,3.404-6.146,4.777l-0.029,0.193l-0.13,0.832l-2.88,18.488c-0.188,1.209,0.633,2.337,1.836,2.524
			c1.209,0.188,2.341-0.636,2.529-1.845l2.491-15.994l0.845,0.106v11.112c0,0.213,0.018-0.198,0.051,0l0,0h-0.018l-3.322,21.229
			l3.34,0.044v11.456c0,1.779,1.379,3.228,3.078,3.228c1.697,0,3.074-1.448,3.074-3.228v-11.405l1.525,0.013v11.393
			c0,1.779,1.371,3.228,3.078,3.228c1.697,0,3.074-1.448,3.074-3.228V200.4l4.008,0.05l-4.008-21.437l0,0l0,0v-11.112"/>
		<path fill="#666666" d="M613.428,157.855c2.93,0,5.309-2.37,5.309-5.313c0-2.927-2.379-5.309-5.309-5.309
			c-2.936,0-5.316,2.382-5.316,5.309C608.111,155.485,610.492,157.855,613.428,157.855z"/>
	</g>
	<g>
		<path fill="#666666" d="M639.405,225.016l0.845-0.106l2.492,15.994c0.188,1.209,1.32,2.033,2.528,1.845
			c1.204-0.188,2.024-1.315,1.837-2.524l-2.881-18.488l-0.129-0.832l-0.03-0.193c-0.214-1.373-1.191-4.648-6.146-4.777h-10.835
			c-4.954,0.129-5.932,3.404-6.146,4.777l-0.029,0.193l-0.131,0.832l-2.879,18.488c-0.189,1.209,0.632,2.337,1.836,2.524
			c1.208,0.188,2.34-0.636,2.529-1.845l2.49-15.994l0.846,0.106v11.112c0,0.213,0.018-0.198,0.05,0l0,0h-0.017l-3.322,21.229
			l3.339,0.044v11.456c0,1.779,1.379,3.228,3.078,3.228c1.698,0,3.075-1.448,3.075-3.228v-11.405l1.525,0.013v11.393
			c0,1.779,1.371,3.228,3.078,3.228c1.697,0,3.073-1.448,3.073-3.228v-11.342l4.009,0.05l-4.009-21.437l0,0l0,0v-11.112"/>
		<path fill="#666666" d="M632.601,214.97c2.931,0,5.31-2.37,5.31-5.313c0-2.927-2.379-5.309-5.31-5.309
			c-2.935,0-5.316,2.382-5.316,5.309C627.284,212.6,629.666,214.97,632.601,214.97z"/>
	</g>
	<g>
		<path fill="#666666" d="M560.417,225.016l0.845-0.106l2.492,15.994c0.188,1.209,1.32,2.033,2.528,1.845
			c1.204-0.188,2.024-1.315,1.837-2.524l-2.881-18.488l-0.129-0.832l-0.03-0.193c-0.214-1.373-1.191-4.648-6.146-4.777h-10.835
			c-4.954,0.129-5.932,3.404-6.146,4.777l-0.029,0.193l-0.131,0.832l-2.879,18.488c-0.189,1.209,0.632,2.337,1.836,2.524
			c1.208,0.188,2.34-0.636,2.529-1.845l2.49-15.994l0.846,0.106v11.112c0,0.213,0.018-0.198,0.05,0l0,0h-0.017l-3.322,21.229
			l3.339,0.044v11.456c0,1.779,1.379,3.228,3.078,3.228c1.698,0,3.075-1.448,3.075-3.228v-11.405l1.525,0.013v11.393
			c0,1.779,1.371,3.228,3.078,3.228c1.697,0,3.073-1.448,3.073-3.228v-11.342l4.009,0.05l-4.009-21.437l0,0l0,0v-11.112"/>
		<path fill="#666666" d="M553.612,214.97c2.931,0,5.31-2.37,5.31-5.313c0-2.927-2.379-5.309-5.31-5.309
			c-2.935,0-5.316,2.382-5.316,5.309C548.296,212.6,550.678,214.97,553.612,214.97z"/>
	</g>
	<g>
		<path fill="#B75055" d="M657.283,285.559l0.846-0.106l2.49,15.994c0.189,1.209,1.321,2.033,2.529,1.845
			c1.204-0.188,2.025-1.315,1.836-2.524l-2.879-18.488l-0.131-0.832l-0.029-0.193c-0.214-1.373-1.191-4.648-6.146-4.777h-10.835
			c-4.954,0.129-5.932,3.404-6.146,4.777l-0.03,0.193l-0.129,0.832l-2.881,18.488c-0.188,1.209,0.633,2.337,1.837,2.524
			c1.208,0.188,2.341-0.636,2.528-1.845l2.492-15.994l0.845,0.106v11.112c0,0.213,0.018-0.198,0.05,0l0,0h-0.017l-3.322,21.229
			l3.339,0.043V329.4c0,1.779,1.379,3.227,3.078,3.227c1.698,0,3.075-1.447,3.075-3.227v-11.406l1.525,0.014V329.4
			c0,1.779,1.371,3.227,3.078,3.227c1.697,0,3.073-1.447,3.073-3.227v-11.342l4.009,0.049l-4.009-21.436l0,0l0,0v-11.112"/>
		<path fill="#B75055" d="M650.479,275.513c2.931,0,5.31-2.37,5.31-5.313c0-2.927-2.379-5.309-5.31-5.309
			c-2.935,0-5.316,2.382-5.316,5.309C645.162,273.143,647.544,275.513,650.479,275.513z"/>
	</g>
	<g>
		<path fill="#666666" d="M599.891,215.997l-13.395-0.063c-4.955,0.13-6.781,4.13-6.781,5.518v0.192v0.843v18.713
			c0,1.226,0.977,2.211,2.199,2.211c1.221,0,2.215-0.985,2.215-2.211v-16.186h1.883v15.514c0,0.213,0.016,0.425,0.053,0.617v27.711
			c0,1.784,1.375,3.229,3.074,3.229s3.078-1.445,3.078-3.229v-24.454h1.521v24.454c0,1.784,1.377,3.229,3.08,3.229
			c1.697,0,3.072-1.445,3.072-3.229v-28.328v-0.173v-15.341h1.668v16.186c0,1.226,1.064,2.211,2.375,2.211
			c1.309,0,2.371-0.985,2.371-2.211v-18.713v-0.843v-0.446C606.305,219.506,604.092,215.997,599.891,215.997z"/>
		<path fill="#666666" d="M593.006,214.967c2.936,0,5.314-2.371,5.314-5.306s-2.379-5.313-5.314-5.313
			c-2.934,0-5.309,2.379-5.309,5.313S590.072,214.967,593.006,214.967z"/>
	</g>
	<g>
		<path fill="#666666" d="M671.996,214.967c2.936,0,5.314-2.371,5.314-5.306s-2.379-5.313-5.314-5.313
			c-2.934,0-5.309,2.379-5.309,5.313S669.062,214.967,671.996,214.967z"/>
		<path fill="#666666" d="M678.879,215.997l-13.395-0.063c-4.955,0.13-6.781,4.13-6.781,5.518v0.192v0.843v18.713
			c0,1.226,0.979,2.211,2.201,2.211c1.219,0,2.213-0.985,2.213-2.211v-16.186H665v15.514c0,0.213,0.016,0.425,0.053,0.617v27.711
			c0,1.784,1.377,3.229,3.074,3.229c1.699,0,3.078-1.445,3.078-3.229v-24.454h1.521v24.454c0,1.784,1.377,3.229,3.082,3.229
			c1.697,0,3.07-1.445,3.07-3.229v-28.328v-0.173v-15.341h1.668v16.186c0,1.226,1.066,2.211,2.377,2.211
			c1.307,0,2.369-0.985,2.369-2.211v-18.713v-0.843v-0.446C685.293,219.506,683.08,215.997,678.879,215.997z"/>
	</g>
	<g>
		<path fill="#666666" d="M581.531,158.882l-13.395-0.063c-4.955,0.129-6.781,4.13-6.781,5.518v0.192v0.843v18.713
			c0,1.226,0.979,2.211,2.199,2.211s2.215-0.985,2.215-2.211v-16.186h1.883v15.514c0,0.212,0.016,0.424,0.053,0.617v27.71
			c0,1.784,1.377,3.229,3.074,3.229c1.699,0,3.078-1.445,3.078-3.229v-24.453h1.521v24.453c0,1.784,1.377,3.229,3.08,3.229
			c1.697,0,3.072-1.445,3.072-3.229v-28.327v-0.173v-15.341h1.668v16.186c0,1.226,1.066,2.211,2.377,2.211
			c1.307,0,2.369-0.985,2.369-2.211v-18.713v-0.843v-0.446C587.945,162.392,585.732,158.882,581.531,158.882z"/>
		<path fill="#666666" d="M574.646,157.852c2.936,0,5.314-2.37,5.314-5.305c0-2.936-2.379-5.314-5.314-5.314
			c-2.934,0-5.309,2.379-5.309,5.314C569.338,155.482,571.713,157.852,574.646,157.852z"/>
	</g>
	<g>
		<path fill="#666666" d="M652.008,157.852c2.936,0,5.316-2.37,5.316-5.305c0-2.936-2.381-5.314-5.316-5.314
			c-2.932,0-5.309,2.379-5.309,5.314C646.699,155.482,649.076,157.852,652.008,157.852z"/>
		<path fill="#666666" d="M658.893,158.882l-13.395-0.063c-4.957,0.129-6.781,4.13-6.781,5.518v0.192v0.843v18.713
			c0,1.226,0.977,2.211,2.199,2.211c1.221,0,2.213-0.985,2.213-2.211v-16.186h1.885v15.514c0,0.212,0.014,0.424,0.051,0.617v27.71
			c0,1.784,1.377,3.229,3.076,3.229s3.078-1.445,3.078-3.229v-24.453h1.521v24.453c0,1.784,1.377,3.229,3.08,3.229
			c1.697,0,3.072-1.445,3.072-3.229v-28.327v-0.173v-15.341h1.668v16.186c0,1.226,1.064,2.211,2.375,2.211
			c1.309,0,2.371-0.985,2.371-2.211v-18.713v-0.843v-0.446C665.307,162.392,663.094,158.882,658.893,158.882z"/>
	</g>
	<g>
		<path fill="#666666" d="M630.451,100.735c2.934,0,5.314-2.37,5.314-5.306c0-2.935-2.381-5.313-5.314-5.313
			s-5.311,2.379-5.311,5.313C625.141,98.365,627.518,100.735,630.451,100.735z"/>
		<path fill="#666666" d="M637.334,101.765l-13.395-0.063c-4.955,0.129-6.781,4.13-6.781,5.517v0.193v0.842v18.714
			c0,1.225,0.979,2.211,2.199,2.211s2.215-0.986,2.215-2.211v-16.186h1.883v15.514c0,0.212,0.016,0.424,0.053,0.617v27.71
			c0,1.784,1.375,3.229,3.074,3.229s3.078-1.445,3.078-3.229v-24.453h1.521v24.453c0,1.784,1.377,3.229,3.08,3.229
			c1.697,0,3.072-1.445,3.072-3.229v-28.327v-0.174v-15.34h1.668v16.186c0,1.225,1.066,2.211,2.377,2.211
			c1.307,0,2.369-0.986,2.369-2.211v-18.714v-0.842v-0.446C643.748,105.275,641.535,101.765,637.334,101.765z"/>
	</g>
</g>
<g>
	<g>
		<path fill="#FFFFFF" d="M577.822,394.455c-0.055,0.091-0.112,0.16-0.174,0.205c-0.062,0.046-0.142,0.068-0.239,0.068
			c-0.104-0.001-0.224-0.053-0.361-0.158c-0.137-0.104-0.311-0.219-0.521-0.346c-0.21-0.125-0.463-0.24-0.759-0.346
			s-0.655-0.158-1.077-0.16c-0.396-0.001-0.748,0.051-1.054,0.156c-0.307,0.106-0.562,0.25-0.768,0.433
			c-0.205,0.183-0.36,0.397-0.466,0.645c-0.104,0.247-0.157,0.515-0.158,0.802c-0.001,0.366,0.088,0.671,0.268,0.913
			c0.179,0.242,0.416,0.449,0.712,0.621c0.296,0.173,0.631,0.321,1.007,0.449c0.375,0.126,0.76,0.258,1.153,0.393
			c0.394,0.137,0.778,0.289,1.152,0.459c0.376,0.169,0.711,0.383,1.007,0.64c0.295,0.259,0.532,0.575,0.711,0.947
			c0.18,0.374,0.268,0.832,0.266,1.376c-0.002,0.574-0.102,1.113-0.299,1.617c-0.198,0.503-0.485,0.94-0.862,1.312
			c-0.378,0.37-0.84,0.663-1.388,0.874c-0.548,0.212-1.17,0.316-1.866,0.313c-0.85-0.003-1.624-0.16-2.322-0.472
			c-0.698-0.311-1.294-0.73-1.787-1.258l0.517-0.842c0.049-0.066,0.108-0.122,0.179-0.168c0.071-0.046,0.149-0.068,0.234-0.068
			c0.129,0,0.274,0.07,0.439,0.209c0.164,0.137,0.37,0.289,0.616,0.455c0.248,0.166,0.546,0.318,0.896,0.457
			c0.352,0.14,0.781,0.209,1.288,0.211c0.422,0.002,0.798-0.054,1.127-0.169c0.331-0.115,0.611-0.278,0.841-0.487
			c0.23-0.21,0.407-0.461,0.53-0.755c0.123-0.292,0.187-0.619,0.188-0.979c0.001-0.397-0.088-0.724-0.267-0.978
			c-0.18-0.254-0.415-0.468-0.709-0.64c-0.292-0.172-0.627-0.318-1.001-0.439c-0.376-0.12-0.76-0.244-1.154-0.37
			c-0.394-0.128-0.778-0.273-1.153-0.44c-0.374-0.166-0.709-0.382-1.001-0.646s-0.527-0.594-0.707-0.987
			c-0.178-0.396-0.267-0.884-0.265-1.464c0.002-0.465,0.095-0.913,0.275-1.346c0.183-0.434,0.444-0.817,0.789-1.152
			c0.343-0.335,0.767-0.602,1.272-0.803c0.505-0.199,1.084-0.297,1.737-0.295c0.733,0.003,1.402,0.122,2.007,0.355
			c0.604,0.234,1.13,0.572,1.582,1.015L577.822,394.455z"/>
		<path fill="#FFFFFF" d="M586.631,404.278c0.354,0.001,0.681-0.016,0.977-0.047c0.297-0.032,0.576-0.082,0.839-0.148
			c0.264-0.066,0.512-0.146,0.743-0.24c0.233-0.094,0.466-0.201,0.698-0.323l0.012-2.896l-2.035-0.007
			c-0.116-0.001-0.209-0.034-0.279-0.103c-0.07-0.067-0.104-0.149-0.104-0.248l0.004-1.008l4.033,0.016l-0.02,5.041
			c-0.331,0.236-0.675,0.443-1.033,0.62c-0.358,0.175-0.74,0.322-1.147,0.439c-0.407,0.118-0.843,0.204-1.308,0.261
			c-0.465,0.056-0.969,0.083-1.513,0.081c-0.953-0.003-1.826-0.17-2.619-0.5c-0.794-0.33-1.476-0.791-2.048-1.383
			c-0.573-0.592-1.018-1.301-1.336-2.127c-0.316-0.825-0.474-1.734-0.47-2.724c0.004-1.003,0.164-1.915,0.482-2.739
			c0.317-0.824,0.77-1.529,1.355-2.117c0.585-0.587,1.293-1.041,2.122-1.362c0.829-0.32,1.757-0.479,2.784-0.475
			c0.519,0.002,1.002,0.042,1.448,0.12c0.444,0.078,0.858,0.189,1.239,0.335c0.382,0.145,0.734,0.319,1.057,0.526
			c0.323,0.206,0.626,0.438,0.906,0.695l-0.509,0.804c-0.104,0.165-0.239,0.247-0.404,0.247c-0.098-0.001-0.203-0.034-0.319-0.103
			c-0.153-0.086-0.323-0.19-0.513-0.313c-0.188-0.123-0.419-0.241-0.69-0.355s-0.592-0.211-0.961-0.292s-0.808-0.123-1.315-0.125
			c-0.739-0.003-1.408,0.116-2.008,0.354c-0.601,0.239-1.112,0.583-1.535,1.03c-0.423,0.448-0.749,0.99-0.979,1.628
			c-0.228,0.639-0.344,1.354-0.347,2.148c-0.003,0.831,0.112,1.572,0.345,2.225c0.232,0.65,0.562,1.204,0.988,1.657
			c0.426,0.454,0.932,0.801,1.518,1.042S585.922,404.275,586.631,404.278z"/>
		<path fill="#FFFFFF" d="M594.225,405.598l0.05-13.135l4.189,0.017c0.806,0.003,1.501,0.084,2.085,0.246
			c0.582,0.161,1.062,0.389,1.436,0.683c0.375,0.296,0.651,0.655,0.831,1.08c0.178,0.426,0.266,0.905,0.264,1.437
			c-0.001,0.324-0.052,0.635-0.153,0.935c-0.104,0.299-0.257,0.576-0.463,0.832c-0.205,0.255-0.463,0.483-0.771,0.685
			c-0.31,0.2-0.673,0.364-1.088,0.49c0.958,0.194,1.681,0.542,2.168,1.044c0.487,0.503,0.729,1.164,0.726,1.982
			c-0.002,0.557-0.106,1.063-0.312,1.521c-0.207,0.457-0.508,0.85-0.903,1.179c-0.396,0.328-0.879,0.582-1.45,0.76
			c-0.572,0.179-1.226,0.266-1.959,0.263L594.225,405.598z M596.026,399.62l-0.018,4.574l2.842,0.011
			c0.507,0.002,0.942-0.055,1.307-0.17c0.363-0.114,0.664-0.276,0.9-0.486c0.235-0.21,0.409-0.46,0.52-0.75
			c0.112-0.29,0.168-0.609,0.169-0.957c0.003-0.679-0.234-1.215-0.714-1.611c-0.478-0.396-1.202-0.596-2.174-0.6L596.026,399.62z
			 M596.031,398.355l2.347,0.009c0.501,0.002,0.935-0.052,1.302-0.16s0.671-0.26,0.914-0.455c0.242-0.194,0.422-0.43,0.539-0.708
			c0.116-0.278,0.176-0.581,0.177-0.911c0.003-0.77-0.228-1.336-0.689-1.698c-0.464-0.362-1.184-0.546-2.161-0.549l-2.411-0.01
			L596.031,398.355z"/>
		<path fill="#FFFFFF" d="M609.366,405.656l0.035-9.285l0.972,0.004c0.232,0.001,0.379,0.114,0.439,0.341l0.115,0.953
			c0.344-0.42,0.729-0.764,1.154-1.031c0.427-0.268,0.92-0.399,1.482-0.397c0.629,0.003,1.137,0.179,1.523,0.528
			c0.388,0.35,0.665,0.821,0.834,1.414c0.13-0.335,0.3-0.624,0.512-0.868s0.449-0.444,0.712-0.603
			c0.264-0.158,0.544-0.273,0.841-0.346c0.297-0.071,0.598-0.106,0.903-0.105c0.488,0.002,0.924,0.081,1.305,0.238
			c0.382,0.157,0.705,0.387,0.97,0.687c0.264,0.301,0.466,0.67,0.604,1.106c0.14,0.438,0.208,0.938,0.205,1.5l-0.022,5.912
			l-1.631-0.006l0.022-5.912c0.003-0.728-0.154-1.279-0.471-1.656s-0.776-0.566-1.382-0.569c-0.269-0.001-0.523,0.045-0.767,0.139
			c-0.241,0.094-0.453,0.232-0.638,0.415s-0.33,0.413-0.438,0.69c-0.107,0.278-0.162,0.601-0.164,0.967l-0.022,5.912l-1.632-0.007
			l0.022-5.912c0.003-0.745-0.145-1.302-0.442-1.669c-0.298-0.369-0.734-0.553-1.309-0.556c-0.403-0.001-0.777,0.105-1.124,0.321
			c-0.346,0.216-0.663,0.51-0.952,0.881l-0.026,6.92L609.366,405.656z"/>
		<path fill="#FFFFFF" d="M628.127,396.295c0.556,0.002,1.069,0.097,1.539,0.285s0.875,0.458,1.216,0.811
			c0.341,0.354,0.606,0.788,0.798,1.306c0.19,0.517,0.284,1.105,0.281,1.766c-0.001,0.256-0.029,0.428-0.084,0.512
			c-0.056,0.086-0.16,0.129-0.312,0.128l-6.179-0.023c0.011,0.586,0.088,1.098,0.234,1.531c0.145,0.436,0.344,0.797,0.6,1.088
			c0.256,0.292,0.561,0.511,0.915,0.655c0.353,0.145,0.75,0.218,1.19,0.22c0.409,0.001,0.762-0.044,1.059-0.138
			s0.552-0.195,0.768-0.305c0.214-0.108,0.394-0.211,0.537-0.305c0.144-0.095,0.267-0.141,0.371-0.141
			c0.134,0.001,0.238,0.053,0.312,0.156l0.456,0.598c-0.202,0.244-0.445,0.456-0.727,0.635c-0.282,0.179-0.583,0.326-0.905,0.441
			c-0.32,0.115-0.652,0.2-0.995,0.257c-0.343,0.058-0.682,0.084-1.018,0.083c-0.642-0.002-1.232-0.113-1.772-0.332
			s-1.007-0.538-1.398-0.958c-0.393-0.42-0.697-0.939-0.916-1.558c-0.217-0.618-0.323-1.327-0.32-2.127
			c0.003-0.648,0.104-1.253,0.304-1.814s0.487-1.048,0.862-1.459c0.375-0.41,0.831-0.732,1.37-0.966
			C626.85,396.408,627.455,396.292,628.127,396.295z M628.159,397.496c-0.789-0.003-1.409,0.223-1.863,0.677
			c-0.454,0.453-0.737,1.083-0.851,1.889l5.05,0.02c0.002-0.379-0.049-0.726-0.151-1.042c-0.103-0.314-0.254-0.587-0.454-0.816
			c-0.201-0.23-0.447-0.408-0.736-0.534C628.863,397.562,628.531,397.497,628.159,397.496z"/>
		<path fill="#FFFFFF" d="M634.021,405.75l0.035-9.285l0.972,0.004c0.232,0,0.379,0.114,0.439,0.34l0.115,0.954
			c0.344-0.42,0.729-0.764,1.154-1.031c0.427-0.268,0.92-0.399,1.482-0.397c0.629,0.002,1.137,0.178,1.523,0.528
			c0.388,0.349,0.665,0.82,0.834,1.414c0.13-0.335,0.3-0.625,0.512-0.868c0.212-0.244,0.449-0.444,0.712-0.603
			c0.264-0.158,0.544-0.273,0.841-0.346s0.598-0.107,0.903-0.105c0.488,0.001,0.924,0.081,1.305,0.238
			c0.382,0.157,0.705,0.386,0.97,0.686c0.264,0.301,0.466,0.67,0.604,1.107c0.14,0.438,0.208,0.938,0.205,1.5l-0.022,5.912
			l-1.631-0.007l0.022-5.912c0.003-0.728-0.154-1.278-0.471-1.656c-0.316-0.377-0.776-0.566-1.382-0.568
			c-0.269-0.001-0.523,0.045-0.767,0.139c-0.241,0.094-0.453,0.231-0.638,0.415c-0.185,0.183-0.33,0.412-0.438,0.69
			c-0.107,0.278-0.162,0.6-0.164,0.966l-0.022,5.912l-1.632-0.006l0.022-5.912c0.003-0.745-0.145-1.303-0.442-1.67
			c-0.298-0.368-0.734-0.553-1.309-0.555c-0.403-0.001-0.777,0.105-1.124,0.321c-0.346,0.215-0.663,0.509-0.952,0.881l-0.026,6.92
			L634.021,405.75z"/>
		<path fill="#FFFFFF" d="M649.127,405.806l0.052-13.502l1.641,0.007l-0.021,5.555c0.387-0.444,0.829-0.802,1.328-1.072
			c0.5-0.27,1.069-0.403,1.711-0.4c0.538,0.002,1.023,0.104,1.457,0.308c0.433,0.203,0.802,0.505,1.105,0.906
			c0.304,0.402,0.537,0.898,0.7,1.488c0.162,0.591,0.243,1.271,0.24,2.04c-0.003,0.685-0.097,1.321-0.283,1.91
			c-0.186,0.589-0.451,1.098-0.799,1.527c-0.346,0.431-0.77,0.768-1.269,1.013c-0.499,0.246-1.06,0.367-1.683,0.365
			c-0.6-0.003-1.108-0.121-1.525-0.354c-0.418-0.234-0.782-0.56-1.092-0.977l-0.085,0.843c-0.05,0.232-0.191,0.348-0.424,0.347
			L649.127,405.806z M653.301,397.692c-0.531-0.002-0.997,0.119-1.398,0.361s-0.771,0.587-1.108,1.032l-0.018,4.491
			c0.292,0.404,0.615,0.689,0.973,0.856c0.356,0.166,0.756,0.249,1.195,0.251c0.868,0.004,1.535-0.303,2.001-0.918
			c0.468-0.615,0.703-1.494,0.708-2.637c0.002-0.605-0.05-1.125-0.155-1.56c-0.105-0.434-0.258-0.79-0.459-1.069
			c-0.2-0.279-0.446-0.483-0.74-0.612C654.007,397.758,653.674,397.694,653.301,397.692z"/>
		<path fill="#FFFFFF" d="M663.03,396.427c0.556,0.002,1.069,0.097,1.539,0.285s0.875,0.459,1.216,0.812s0.606,0.787,0.798,1.305
			c0.19,0.518,0.284,1.105,0.281,1.766c-0.001,0.256-0.029,0.428-0.084,0.513c-0.056,0.086-0.16,0.128-0.312,0.128l-6.179-0.023
			c0.011,0.586,0.088,1.097,0.234,1.531c0.145,0.435,0.344,0.797,0.6,1.088c0.256,0.292,0.561,0.51,0.915,0.654
			c0.353,0.146,0.75,0.218,1.19,0.22c0.409,0.002,0.762-0.044,1.059-0.138s0.552-0.195,0.768-0.305
			c0.214-0.108,0.394-0.21,0.537-0.305c0.144-0.094,0.267-0.141,0.371-0.14c0.134,0,0.238,0.053,0.312,0.156l0.456,0.598
			c-0.202,0.244-0.445,0.455-0.727,0.635c-0.282,0.179-0.583,0.326-0.905,0.44c-0.32,0.115-0.652,0.201-0.995,0.258
			s-0.682,0.084-1.018,0.083c-0.642-0.003-1.232-0.113-1.772-0.332s-1.007-0.538-1.398-0.959c-0.393-0.419-0.697-0.938-0.916-1.557
			c-0.218-0.618-0.324-1.328-0.321-2.128c0.003-0.648,0.104-1.252,0.305-1.813c0.2-0.562,0.487-1.049,0.862-1.459
			c0.375-0.411,0.831-0.733,1.37-0.967C661.753,396.54,662.358,396.425,663.03,396.427z M663.062,397.627
			c-0.789-0.003-1.409,0.224-1.863,0.677s-0.737,1.083-0.851,1.89l5.05,0.019c0.002-0.379-0.049-0.726-0.151-1.041
			s-0.254-0.587-0.454-0.817c-0.201-0.23-0.447-0.408-0.736-0.534C663.767,397.694,663.435,397.629,663.062,397.627z"/>
		<path fill="#FFFFFF" d="M668.925,405.881l0.035-9.285l0.936,0.004c0.177,0.001,0.299,0.034,0.366,0.102
			c0.067,0.068,0.112,0.185,0.137,0.35l0.104,1.448c0.32-0.646,0.715-1.15,1.184-1.513c0.468-0.361,1.018-0.541,1.646-0.539
			c0.257,0.001,0.489,0.031,0.697,0.09c0.207,0.06,0.399,0.141,0.576,0.245L674.391,398c-0.043,0.153-0.139,0.229-0.285,0.229
			c-0.085,0-0.217-0.03-0.393-0.088c-0.178-0.06-0.425-0.089-0.743-0.09c-0.568-0.002-1.044,0.16-1.427,0.488
			c-0.383,0.329-0.704,0.809-0.964,1.437l-0.022,5.912L668.925,405.881z"/>
		<path fill="#FFFFFF" d="M681.659,398.175c-0.074,0.134-0.188,0.201-0.34,0.2c-0.092,0-0.195-0.034-0.312-0.102
			s-0.258-0.144-0.426-0.227s-0.367-0.16-0.599-0.231c-0.232-0.071-0.508-0.107-0.825-0.108c-0.275-0.001-0.522,0.033-0.742,0.103
			c-0.221,0.069-0.409,0.165-0.565,0.287c-0.156,0.121-0.275,0.263-0.359,0.424c-0.082,0.162-0.124,0.338-0.125,0.527
			c-0.001,0.238,0.066,0.437,0.204,0.597c0.137,0.159,0.318,0.298,0.543,0.414c0.227,0.117,0.481,0.221,0.77,0.311
			c0.287,0.09,0.581,0.185,0.883,0.287c0.303,0.102,0.597,0.215,0.884,0.338c0.286,0.124,0.543,0.277,0.769,0.462
			c0.225,0.184,0.405,0.408,0.542,0.675s0.204,0.587,0.202,0.959c-0.001,0.428-0.079,0.823-0.232,1.187
			c-0.155,0.362-0.383,0.676-0.683,0.941c-0.301,0.265-0.668,0.472-1.102,0.624c-0.436,0.15-0.937,0.225-1.505,0.223
			c-0.647-0.003-1.234-0.11-1.759-0.323s-0.97-0.484-1.335-0.815l0.388-0.623c0.049-0.078,0.107-0.139,0.174-0.182
			c0.068-0.043,0.157-0.063,0.268-0.063c0.109,0.001,0.225,0.044,0.347,0.129c0.122,0.087,0.27,0.183,0.444,0.286
			c0.174,0.105,0.384,0.201,0.631,0.287c0.248,0.087,0.557,0.131,0.93,0.132c0.317,0.001,0.597-0.038,0.835-0.121
			c0.238-0.081,0.438-0.192,0.597-0.332c0.16-0.14,0.277-0.301,0.354-0.484c0.078-0.184,0.117-0.378,0.117-0.586
			c0.001-0.257-0.067-0.47-0.203-0.638c-0.137-0.169-0.318-0.312-0.544-0.433s-0.484-0.226-0.773-0.314
			c-0.29-0.09-0.587-0.185-0.888-0.284c-0.303-0.099-0.599-0.211-0.889-0.337c-0.289-0.126-0.548-0.285-0.772-0.476
			c-0.226-0.189-0.406-0.425-0.542-0.703c-0.137-0.278-0.205-0.616-0.203-1.014c0.001-0.354,0.075-0.694,0.225-1.021
			c0.147-0.327,0.362-0.613,0.645-0.86c0.281-0.246,0.628-0.441,1.037-0.587c0.41-0.145,0.878-0.216,1.403-0.214
			c0.611,0.002,1.16,0.1,1.645,0.294c0.485,0.195,0.904,0.461,1.258,0.798L681.659,398.175z"/>
	</g>
	<path fill="#B75055" d="M547.969,389.447c0,7.728-6.26,13.991-13.986,13.991s-13.988-6.264-13.988-13.991
		c0-7.721,6.262-13.983,13.988-13.983S547.969,381.726,547.969,389.447z"/>
	<g>
		<path fill="#FFFFFF" d="M578.78,365.137c0.803,0,1.554,0.119,2.251,0.357s1.3,0.585,1.807,1.039
			c0.508,0.455,0.907,1.009,1.198,1.662c0.292,0.653,0.438,1.395,0.438,2.224c0,0.707-0.106,1.359-0.318,1.96
			s-0.498,1.177-0.86,1.728c-0.362,0.552-0.779,1.086-1.251,1.603c-0.473,0.516-0.973,1.044-1.503,1.582l-4.991,5.11
			c0.353-0.097,0.71-0.174,1.072-0.231s0.711-0.086,1.046-0.086h6.355c0.256,0,0.459,0.075,0.608,0.225
			c0.15,0.15,0.226,0.345,0.226,0.583v1.43H572.2v-0.808c0-0.168,0.033-0.34,0.1-0.517c0.065-0.176,0.174-0.34,0.324-0.489
			l6.077-6.104c0.503-0.513,0.962-1.005,1.377-1.477c0.414-0.473,0.77-0.947,1.065-1.424s0.523-0.96,0.682-1.449
			c0.159-0.49,0.238-1.013,0.238-1.569c0-0.556-0.088-1.043-0.265-1.463c-0.177-0.419-0.419-0.766-0.728-1.039
			c-0.31-0.273-0.671-0.479-1.086-0.616c-0.415-0.137-0.86-0.205-1.338-0.205c-0.477,0-0.918,0.071-1.323,0.212
			c-0.406,0.142-0.766,0.338-1.079,0.59c-0.313,0.251-0.578,0.549-0.795,0.894c-0.216,0.344-0.368,0.724-0.456,1.139
			c-0.071,0.256-0.177,0.441-0.318,0.556c-0.141,0.115-0.326,0.172-0.556,0.172c-0.045,0-0.091-0.002-0.14-0.006
			c-0.048-0.005-0.104-0.012-0.165-0.021l-1.231-0.212c0.124-0.864,0.362-1.63,0.715-2.297c0.354-0.666,0.801-1.225,1.344-1.675
			s1.165-0.792,1.867-1.026C577.212,365.254,577.968,365.137,578.78,365.137z"/>
		<path fill="#FFFFFF" d="M594.786,372.697c0.76,0,1.479,0.126,2.158,0.378c0.68,0.251,1.275,0.618,1.788,1.099
			c0.512,0.481,0.917,1.072,1.218,1.774c0.3,0.701,0.45,1.503,0.45,2.402c0,0.874-0.159,1.687-0.477,2.437
			c-0.318,0.75-0.762,1.403-1.331,1.96c-0.569,0.556-1.256,0.992-2.059,1.311c-0.804,0.317-1.686,0.477-2.648,0.477
			c-0.953,0-1.815-0.152-2.588-0.457s-1.433-0.736-1.979-1.297s-0.969-1.24-1.265-2.039s-0.443-1.692-0.443-2.682
			c0-0.829,0.186-1.712,0.557-2.647c0.37-0.936,0.957-1.942,1.761-3.019l4.806-6.475c0.124-0.159,0.296-0.294,0.517-0.404
			s0.472-0.165,0.755-0.165h2.092l-6.58,8.328c0.45-0.31,0.948-0.55,1.496-0.722C593.56,372.784,594.151,372.697,594.786,372.697z
			 M589.888,378.47c0,0.608,0.088,1.165,0.265,1.668s0.435,0.936,0.774,1.297c0.34,0.362,0.755,0.643,1.245,0.841
			c0.489,0.199,1.048,0.298,1.675,0.298c0.636,0,1.209-0.101,1.721-0.304s0.951-0.485,1.317-0.848s0.649-0.79,0.848-1.284
			s0.298-1.033,0.298-1.615c0-0.618-0.098-1.177-0.291-1.675c-0.194-0.499-0.468-0.923-0.821-1.271
			c-0.353-0.349-0.776-0.615-1.271-0.801c-0.495-0.186-1.038-0.278-1.629-0.278c-0.636,0-1.209,0.108-1.721,0.324
			c-0.513,0.217-0.947,0.508-1.305,0.874s-0.631,0.79-0.82,1.271C589.982,377.448,589.888,377.949,589.888,378.47z"/>
		<path fill="#FFFFFF" d="M610.898,369.93c0,0.741-0.114,1.405-0.344,1.992s-0.536,1.082-0.921,1.483
			c-0.384,0.401-0.832,0.708-1.344,0.92s-1.046,0.317-1.602,0.317c-0.601,0-1.154-0.105-1.662-0.317
			c-0.507-0.212-0.951-0.519-1.33-0.92c-0.38-0.401-0.676-0.896-0.887-1.483c-0.212-0.587-0.318-1.251-0.318-1.992
			c0-0.759,0.106-1.435,0.318-2.025c0.211-0.592,0.507-1.091,0.887-1.497c0.379-0.405,0.823-0.715,1.33-0.927
			c0.508-0.211,1.062-0.317,1.662-0.317c0.591,0,1.146,0.106,1.661,0.317c0.517,0.212,0.962,0.521,1.338,0.927
			c0.375,0.406,0.67,0.905,0.887,1.497C610.79,368.496,610.898,369.171,610.898,369.93z M617.531,365.826
			c0.115-0.15,0.236-0.267,0.364-0.351s0.298-0.126,0.51-0.126h1.695l-13.862,18.589c-0.089,0.114-0.194,0.207-0.317,0.278
			c-0.124,0.07-0.27,0.105-0.438,0.105h-1.747L617.531,365.826z M609.059,369.93c0-0.583-0.062-1.077-0.186-1.483
			c-0.124-0.405-0.294-0.739-0.51-0.999c-0.217-0.261-0.468-0.448-0.755-0.562c-0.287-0.115-0.594-0.173-0.92-0.173
			c-0.327,0-0.634,0.058-0.92,0.173c-0.287,0.114-0.536,0.302-0.748,0.562c-0.212,0.26-0.378,0.594-0.497,0.999
			c-0.119,0.406-0.179,0.9-0.179,1.483c0,0.573,0.06,1.062,0.179,1.463s0.285,0.729,0.497,0.979
			c0.212,0.252,0.461,0.433,0.748,0.543c0.286,0.11,0.593,0.166,0.92,0.166c0.326,0,0.633-0.056,0.92-0.166s0.538-0.291,0.755-0.543
			c0.216-0.251,0.386-0.578,0.51-0.979C608.996,370.992,609.059,370.503,609.059,369.93z M621.385,379.847
			c0,0.741-0.115,1.403-0.345,1.985c-0.229,0.583-0.536,1.075-0.92,1.477s-0.83,0.708-1.337,0.92
			c-0.508,0.212-1.04,0.317-1.596,0.317c-0.601,0-1.154-0.105-1.661-0.317c-0.508-0.212-0.952-0.519-1.331-0.92
			c-0.38-0.401-0.675-0.894-0.887-1.477c-0.212-0.582-0.318-1.244-0.318-1.985c0-0.76,0.106-1.437,0.318-2.033
			c0.212-0.596,0.507-1.097,0.887-1.502c0.379-0.406,0.823-0.715,1.331-0.927c0.507-0.212,1.061-0.318,1.661-0.318
			c0.591,0,1.143,0.106,1.655,0.318c0.512,0.212,0.957,0.521,1.337,0.927c0.379,0.405,0.675,0.906,0.887,1.502
			C621.278,378.411,621.385,379.087,621.385,379.847z M619.558,379.847c0-0.583-0.062-1.079-0.186-1.49
			c-0.124-0.41-0.294-0.743-0.51-0.999c-0.217-0.256-0.468-0.441-0.755-0.557c-0.287-0.114-0.594-0.172-0.92-0.172
			c-0.327,0-0.634,0.058-0.92,0.172c-0.287,0.115-0.536,0.301-0.748,0.557s-0.378,0.589-0.497,0.999
			c-0.119,0.411-0.179,0.907-0.179,1.49c0,0.573,0.06,1.059,0.179,1.456s0.285,0.722,0.497,0.973
			c0.212,0.252,0.461,0.433,0.748,0.543c0.286,0.11,0.593,0.166,0.92,0.166c0.326,0,0.633-0.056,0.92-0.166s0.538-0.291,0.755-0.543
			c0.216-0.251,0.386-0.575,0.51-0.973C619.495,380.906,619.558,380.42,619.558,379.847z"/>
	</g>
</g>
<g>
	<g>
		<path fill="#FFFFFF" d="M130.316,392.408l-0.006,1.494l-4.244-0.016l-0.044,11.641l-1.778-0.007l0.044-11.641l-4.262-0.017
			l0.006-1.494L130.316,392.408z"/>
		<path fill="#FFFFFF" d="M133.666,396.124c0.556,0.002,1.069,0.097,1.539,0.285c0.469,0.188,0.875,0.459,1.216,0.812
			s0.606,0.787,0.797,1.305s0.285,1.105,0.282,1.766c-0.001,0.256-0.029,0.428-0.084,0.513c-0.055,0.086-0.159,0.128-0.312,0.128
			l-6.178-0.023c0.01,0.586,0.087,1.097,0.232,1.531c0.145,0.435,0.345,0.797,0.601,1.088c0.256,0.292,0.56,0.51,0.914,0.655
			c0.354,0.145,0.751,0.217,1.191,0.219c0.409,0.002,0.762-0.044,1.059-0.138c0.296-0.094,0.552-0.195,0.766-0.305
			c0.214-0.108,0.394-0.21,0.537-0.305c0.144-0.094,0.269-0.141,0.373-0.14c0.134,0,0.238,0.053,0.311,0.156l0.456,0.598
			c-0.203,0.244-0.445,0.455-0.727,0.635c-0.282,0.179-0.583,0.326-0.905,0.44c-0.321,0.115-0.653,0.201-0.995,0.258
			s-0.682,0.084-1.018,0.083c-0.642-0.003-1.233-0.113-1.772-0.332c-0.54-0.219-1.006-0.538-1.399-0.959
			c-0.393-0.419-0.698-0.938-0.915-1.557c-0.218-0.618-0.325-1.328-0.322-2.128c0.002-0.648,0.104-1.252,0.305-1.813
			c0.201-0.562,0.488-1.049,0.863-1.459c0.375-0.411,0.831-0.733,1.369-0.967S132.994,396.122,133.666,396.124z M133.698,397.324
			c-0.788-0.003-1.409,0.224-1.863,0.677s-0.737,1.083-0.851,1.89l5.05,0.02c0.001-0.379-0.049-0.727-0.151-1.042
			c-0.103-0.315-0.255-0.587-0.456-0.817s-0.446-0.408-0.736-0.534S134.071,397.326,133.698,397.324z"/>
		<path fill="#FFFFFF" d="M146.38,405.604l-0.724-0.003c-0.159-0.001-0.287-0.025-0.385-0.075c-0.098-0.049-0.162-0.152-0.191-0.312
			l-0.18-0.863c-0.245,0.22-0.484,0.416-0.717,0.589c-0.233,0.173-0.478,0.318-0.735,0.437s-0.531,0.208-0.821,0.268
			c-0.291,0.061-0.613,0.09-0.968,0.088c-0.36-0.001-0.697-0.053-1.012-0.155c-0.315-0.103-0.587-0.255-0.819-0.458
			c-0.231-0.204-0.415-0.46-0.552-0.771c-0.136-0.31-0.204-0.677-0.202-1.1c0.001-0.368,0.104-0.722,0.306-1.061
			c0.203-0.341,0.53-0.641,0.98-0.903c0.45-0.262,1.039-0.476,1.767-0.642s1.617-0.247,2.668-0.242l0.003-0.729
			c0.002-0.726-0.15-1.275-0.457-1.648s-0.763-0.561-1.368-0.563c-0.397-0.001-0.732,0.048-1.004,0.146
			c-0.272,0.101-0.508,0.214-0.707,0.338c-0.199,0.124-0.371,0.236-0.515,0.337c-0.144,0.1-0.286,0.15-0.427,0.149
			c-0.11,0-0.206-0.03-0.288-0.088c-0.083-0.059-0.147-0.131-0.196-0.217l-0.292-0.523c0.515-0.493,1.07-0.86,1.664-1.103
			c0.593-0.242,1.251-0.362,1.972-0.359c0.519,0.002,0.98,0.09,1.383,0.263c0.403,0.172,0.741,0.411,1.015,0.718
			c0.274,0.308,0.48,0.677,0.619,1.112c0.139,0.434,0.208,0.911,0.206,1.431L146.38,405.604z M142.148,404.588
			c0.287,0.001,0.551-0.027,0.789-0.084c0.238-0.058,0.463-0.139,0.674-0.245c0.211-0.105,0.414-0.234,0.606-0.388
			c0.193-0.151,0.381-0.324,0.566-0.52l0.007-1.915c-0.751-0.003-1.39,0.042-1.916,0.135c-0.526,0.094-0.955,0.216-1.285,0.368
			c-0.331,0.153-0.572,0.333-0.722,0.541c-0.151,0.21-0.227,0.442-0.228,0.7c-0.001,0.246,0.038,0.459,0.117,0.637
			c0.079,0.179,0.186,0.325,0.319,0.439s0.292,0.197,0.476,0.251C141.737,404.561,141.935,404.587,142.148,404.588z"/>
		<path fill="#FFFFFF" d="M155.217,398.001c-0.049,0.067-0.098,0.119-0.147,0.155c-0.05,0.037-0.12,0.055-0.211,0.055
			c-0.092-0.001-0.19-0.039-0.297-0.116c-0.106-0.076-0.243-0.161-0.407-0.253c-0.165-0.093-0.365-0.178-0.6-0.255
			c-0.235-0.076-0.523-0.117-0.866-0.118c-0.452-0.002-0.853,0.078-1.202,0.238c-0.349,0.161-0.642,0.394-0.878,0.698
			c-0.237,0.305-0.416,0.674-0.536,1.107s-0.182,0.919-0.184,1.456c-0.002,0.562,0.06,1.063,0.187,1.5
			c0.126,0.438,0.305,0.805,0.536,1.102c0.231,0.298,0.513,0.524,0.846,0.682c0.332,0.157,0.706,0.236,1.122,0.238
			c0.397,0.001,0.725-0.044,0.982-0.138c0.256-0.094,0.471-0.199,0.643-0.314c0.171-0.115,0.312-0.221,0.422-0.314
			c0.11-0.095,0.221-0.141,0.331-0.141c0.141,0.001,0.244,0.053,0.311,0.156l0.457,0.598c-0.405,0.493-0.911,0.854-1.517,1.08
			c-0.605,0.228-1.244,0.339-1.917,0.337c-0.581-0.003-1.12-0.111-1.617-0.327s-0.928-0.527-1.293-0.936
			c-0.365-0.407-0.652-0.907-0.86-1.501s-0.312-1.27-0.309-2.027c0.002-0.69,0.101-1.329,0.296-1.914
			c0.195-0.586,0.478-1.091,0.849-1.515c0.372-0.423,0.83-0.753,1.375-0.989c0.545-0.235,1.168-0.353,1.871-0.35
			c0.648,0.002,1.222,0.109,1.722,0.322c0.5,0.212,0.942,0.513,1.326,0.899L155.217,398.001z"/>
		<path fill="#FFFFFF" d="M157.416,405.646l0.051-13.502l1.631,0.006l-0.021,5.463c0.398-0.42,0.84-0.756,1.324-1.008
			c0.484-0.251,1.041-0.376,1.67-0.374c0.507,0.002,0.954,0.088,1.342,0.258c0.387,0.169,0.71,0.408,0.969,0.718
			s0.454,0.682,0.586,1.116s0.198,0.915,0.196,1.44l-0.022,5.912l-1.631-0.007l0.022-5.912c0.003-0.702-0.156-1.248-0.475-1.638
			s-0.809-0.585-1.468-0.587c-0.483-0.002-0.934,0.112-1.354,0.342c-0.42,0.231-0.807,0.544-1.163,0.94l-0.026,6.838
			L157.416,405.646z"/>
		<path fill="#FFFFFF" d="M171.318,396.266c0.556,0.003,1.069,0.098,1.539,0.285c0.469,0.188,0.875,0.459,1.216,0.812
			s0.606,0.787,0.797,1.305s0.285,1.105,0.282,1.766c-0.001,0.256-0.029,0.428-0.084,0.513c-0.055,0.086-0.159,0.128-0.312,0.128
			l-6.178-0.023c0.01,0.586,0.087,1.097,0.232,1.531c0.145,0.435,0.345,0.797,0.601,1.088c0.256,0.292,0.56,0.51,0.914,0.655
			c0.354,0.145,0.751,0.218,1.191,0.219c0.409,0.002,0.762-0.044,1.059-0.138c0.296-0.093,0.552-0.194,0.766-0.305
			c0.214-0.108,0.394-0.21,0.537-0.305c0.144-0.094,0.269-0.141,0.373-0.14c0.134,0,0.238,0.053,0.311,0.156l0.456,0.598
			c-0.203,0.244-0.445,0.455-0.727,0.635c-0.282,0.179-0.583,0.326-0.905,0.441c-0.321,0.114-0.653,0.2-0.995,0.257
			s-0.682,0.084-1.018,0.083c-0.642-0.003-1.233-0.113-1.772-0.332c-0.54-0.219-1.006-0.538-1.399-0.959
			c-0.393-0.419-0.698-0.938-0.915-1.557c-0.218-0.618-0.325-1.327-0.322-2.127c0.002-0.648,0.104-1.253,0.305-1.814
			c0.201-0.562,0.488-1.048,0.863-1.459s0.831-0.733,1.369-0.967S170.646,396.264,171.318,396.266z M171.35,397.467
			c-0.788-0.004-1.409,0.223-1.863,0.676c-0.454,0.454-0.737,1.083-0.851,1.89l5.05,0.02c0.001-0.379-0.049-0.727-0.151-1.042
			c-0.103-0.314-0.255-0.587-0.456-0.817s-0.446-0.407-0.736-0.534C172.055,397.533,171.723,397.468,171.35,397.467z"/>
		<path fill="#FFFFFF" d="M177.213,405.72l0.035-9.285l0.935,0.004c0.177,0.001,0.299,0.034,0.366,0.102
			c0.067,0.068,0.112,0.185,0.136,0.35l0.104,1.448c0.32-0.646,0.715-1.15,1.184-1.513c0.469-0.361,1.018-0.541,1.647-0.539
			c0.257,0.001,0.489,0.031,0.696,0.09c0.208,0.06,0.399,0.142,0.576,0.245l-0.215,1.218c-0.043,0.153-0.138,0.229-0.285,0.229
			c-0.085,0-0.217-0.029-0.394-0.088c-0.177-0.06-0.425-0.089-0.742-0.09c-0.568-0.002-1.044,0.16-1.427,0.488
			c-0.384,0.329-0.705,0.809-0.964,1.437l-0.022,5.912L177.213,405.72z"/>
		<path fill="#FFFFFF" d="M189.946,398.014c-0.074,0.134-0.187,0.201-0.34,0.2c-0.092,0-0.196-0.033-0.311-0.102
			c-0.116-0.067-0.258-0.144-0.425-0.226c-0.168-0.084-0.368-0.161-0.6-0.232c-0.232-0.071-0.507-0.107-0.825-0.108
			c-0.275-0.001-0.522,0.033-0.743,0.103s-0.409,0.166-0.565,0.287s-0.276,0.263-0.359,0.425c-0.083,0.161-0.125,0.337-0.126,0.526
			c-0.001,0.238,0.067,0.437,0.204,0.597c0.137,0.159,0.318,0.298,0.543,0.414c0.226,0.117,0.482,0.221,0.769,0.311
			c0.287,0.09,0.581,0.185,0.883,0.287s0.597,0.215,0.883,0.338c0.287,0.124,0.543,0.277,0.768,0.462
			c0.226,0.184,0.406,0.408,0.543,0.675s0.204,0.587,0.203,0.959c-0.002,0.428-0.08,0.823-0.234,1.187
			c-0.154,0.362-0.381,0.676-0.682,0.941c-0.3,0.265-0.668,0.473-1.103,0.624c-0.434,0.15-0.936,0.225-1.504,0.223
			c-0.648-0.002-1.234-0.11-1.758-0.323c-0.525-0.213-0.97-0.483-1.335-0.815l0.387-0.622c0.049-0.079,0.107-0.14,0.175-0.183
			c0.068-0.042,0.156-0.063,0.266-0.063c0.11,0.001,0.226,0.044,0.348,0.13c0.122,0.086,0.27,0.182,0.443,0.285
			c0.174,0.105,0.384,0.201,0.631,0.287c0.247,0.087,0.557,0.131,0.93,0.132c0.317,0.002,0.596-0.038,0.834-0.12
			c0.238-0.081,0.438-0.193,0.597-0.333c0.159-0.139,0.277-0.301,0.355-0.484c0.077-0.183,0.116-0.378,0.116-0.586
			c0.001-0.257-0.066-0.469-0.204-0.638c-0.136-0.169-0.318-0.312-0.543-0.433s-0.484-0.226-0.773-0.314
			c-0.29-0.09-0.585-0.184-0.888-0.284c-0.302-0.099-0.598-0.211-0.888-0.337s-0.547-0.285-0.772-0.476
			c-0.226-0.189-0.406-0.425-0.543-0.703s-0.204-0.616-0.202-1.014c0.001-0.354,0.076-0.694,0.224-1.021
			c0.148-0.327,0.363-0.613,0.645-0.86c0.282-0.246,0.628-0.441,1.038-0.587c0.41-0.145,0.878-0.216,1.404-0.214
			c0.611,0.002,1.159,0.1,1.644,0.294c0.485,0.195,0.904,0.461,1.257,0.798L189.946,398.014z"/>
	</g>
	<circle fill="#48C7F4" cx="84.025" cy="389.452" r="13.987"/>
	<g>
		<path fill="#FFFFFF" d="M130.458,365.135c0.803,0,1.544,0.115,2.225,0.344c0.679,0.23,1.264,0.557,1.754,0.98
			c0.49,0.424,0.872,0.936,1.146,1.535c0.273,0.601,0.41,1.268,0.41,2c0,0.6-0.077,1.136-0.231,1.608
			c-0.155,0.473-0.375,0.887-0.662,1.244s-0.633,0.66-1.039,0.907c-0.406,0.247-0.861,0.446-1.364,0.596
			c1.235,0.327,2.165,0.874,2.787,1.642c0.623,0.769,0.934,1.73,0.934,2.887c0,0.874-0.166,1.659-0.497,2.356
			s-0.783,1.291-1.357,1.781c-0.574,0.489-1.243,0.864-2.006,1.125c-0.764,0.26-1.582,0.391-2.456,0.391
			c-1.006,0-1.867-0.126-2.582-0.377c-0.715-0.252-1.32-0.599-1.814-1.04c-0.495-0.441-0.9-0.964-1.218-1.568
			c-0.317-0.604-0.587-1.26-0.808-1.967l1.006-0.423c0.186-0.08,0.371-0.12,0.556-0.12c0.176,0,0.333,0.038,0.47,0.113
			c0.137,0.075,0.24,0.191,0.311,0.351c0.018,0.035,0.035,0.073,0.053,0.112c0.018,0.04,0.035,0.082,0.053,0.126
			c0.124,0.256,0.273,0.545,0.45,0.867c0.176,0.322,0.415,0.625,0.715,0.907c0.3,0.282,0.673,0.521,1.119,0.715s1,0.291,1.662,0.291
			s1.242-0.107,1.741-0.324c0.499-0.216,0.914-0.496,1.244-0.841c0.331-0.344,0.581-0.729,0.748-1.151
			c0.168-0.424,0.252-0.843,0.252-1.258c0-0.512-0.069-0.98-0.206-1.404c-0.137-0.423-0.384-0.789-0.741-1.099
			c-0.357-0.309-0.852-0.552-1.483-0.728c-0.631-0.177-1.441-0.266-2.43-0.266v-1.721c0.803,0,1.49-0.084,2.059-0.252
			c0.569-0.167,1.035-0.396,1.396-0.688c0.362-0.291,0.625-0.64,0.788-1.046c0.163-0.405,0.245-0.855,0.245-1.351
			c0-0.547-0.086-1.023-0.258-1.43c-0.172-0.406-0.409-0.741-0.708-1.006c-0.3-0.265-0.655-0.464-1.066-0.596
			c-0.41-0.133-0.854-0.199-1.331-0.199s-0.918,0.071-1.324,0.212c-0.406,0.141-0.766,0.338-1.079,0.589
			c-0.313,0.251-0.576,0.551-0.788,0.899c-0.211,0.348-0.371,0.725-0.477,1.131c-0.071,0.255-0.177,0.44-0.317,0.555
			c-0.142,0.115-0.323,0.172-0.543,0.172c-0.044,0-0.091-0.002-0.139-0.006c-0.048-0.005-0.104-0.011-0.166-0.02l-1.231-0.209
			c0.124-0.864,0.362-1.63,0.715-2.297c0.353-0.666,0.801-1.225,1.344-1.675s1.165-0.792,1.867-1.026
			C128.89,365.252,129.646,365.135,130.458,365.135z"/>
		<path fill="#FFFFFF" d="M146.214,372.695c0.759,0,1.478,0.126,2.158,0.378c0.679,0.251,1.275,0.618,1.787,1.099
			c0.512,0.481,0.918,1.072,1.218,1.774c0.3,0.701,0.45,1.503,0.45,2.402c0,0.874-0.159,1.687-0.477,2.437
			c-0.317,0.75-0.761,1.403-1.331,1.96c-0.569,0.556-1.255,0.992-2.059,1.311c-0.803,0.317-1.686,0.477-2.648,0.477
			c-0.953,0-1.816-0.152-2.588-0.457s-1.432-0.736-1.979-1.297s-0.969-1.24-1.264-2.039c-0.296-0.799-0.444-1.692-0.444-2.682
			c0-0.829,0.186-1.712,0.556-2.647s0.958-1.942,1.761-3.019l4.806-6.475c0.124-0.159,0.296-0.294,0.517-0.404
			c0.22-0.11,0.472-0.165,0.754-0.165h2.092l-6.581,8.328c0.45-0.31,0.949-0.55,1.496-0.722S145.578,372.695,146.214,372.695z
			 M141.315,378.468c0,0.608,0.088,1.165,0.265,1.668c0.176,0.503,0.435,0.936,0.774,1.297c0.339,0.362,0.754,0.643,1.245,0.841
			c0.49,0.199,1.048,0.298,1.675,0.298c0.635,0,1.209-0.101,1.721-0.304c0.512-0.203,0.951-0.485,1.317-0.848
			c0.366-0.362,0.648-0.79,0.847-1.284s0.298-1.033,0.298-1.615c0-0.618-0.097-1.177-0.292-1.675
			c-0.194-0.499-0.468-0.923-0.821-1.271s-0.777-0.615-1.271-0.801s-1.037-0.278-1.628-0.278c-0.635,0-1.209,0.108-1.721,0.324
			c-0.512,0.217-0.947,0.508-1.304,0.874s-0.631,0.79-0.821,1.271C141.41,377.446,141.315,377.947,141.315,378.468z"/>
		<path fill="#FFFFFF" d="M162.326,369.928c0,0.741-0.115,1.405-0.344,1.992s-0.536,1.082-0.92,1.483s-0.832,0.708-1.344,0.92
			c-0.512,0.212-1.046,0.317-1.602,0.317c-0.601,0-1.154-0.105-1.662-0.317c-0.508-0.212-0.951-0.519-1.331-0.92
			c-0.38-0.401-0.675-0.896-0.887-1.483s-0.318-1.251-0.318-1.992c0-0.759,0.106-1.435,0.318-2.025
			c0.212-0.592,0.507-1.091,0.887-1.497c0.379-0.405,0.823-0.715,1.331-0.927c0.507-0.211,1.061-0.317,1.662-0.317
			c0.591,0,1.145,0.106,1.662,0.317c0.516,0.212,0.962,0.521,1.337,0.927c0.375,0.406,0.671,0.905,0.887,1.497
			C162.218,368.494,162.326,369.169,162.326,369.928z M168.959,365.824c0.115-0.15,0.236-0.267,0.364-0.351
			c0.127-0.084,0.298-0.126,0.51-0.126h1.694l-13.862,18.589c-0.088,0.114-0.194,0.207-0.318,0.278
			c-0.124,0.07-0.27,0.105-0.437,0.105h-1.748L168.959,365.824z M160.486,369.928c0-0.583-0.062-1.077-0.185-1.483
			c-0.124-0.405-0.293-0.739-0.51-0.999c-0.216-0.261-0.468-0.448-0.755-0.562c-0.287-0.115-0.594-0.173-0.92-0.173
			c-0.327,0-0.634,0.058-0.92,0.173c-0.287,0.114-0.536,0.302-0.748,0.562c-0.212,0.26-0.377,0.594-0.497,0.999
			c-0.119,0.406-0.179,0.9-0.179,1.483c0,0.573,0.06,1.062,0.179,1.463s0.285,0.729,0.497,0.979
			c0.212,0.252,0.461,0.433,0.748,0.543s0.594,0.166,0.92,0.166c0.326,0,0.633-0.056,0.92-0.166s0.539-0.291,0.755-0.543
			c0.216-0.251,0.386-0.578,0.51-0.979C160.424,370.99,160.486,370.501,160.486,369.928z M172.812,379.845
			c0,0.741-0.115,1.403-0.344,1.985c-0.229,0.583-0.536,1.075-0.92,1.477s-0.83,0.708-1.337,0.92
			c-0.507,0.212-1.039,0.317-1.595,0.317c-0.601,0-1.154-0.105-1.662-0.317c-0.508-0.212-0.951-0.519-1.331-0.92
			s-0.675-0.894-0.887-1.477c-0.212-0.582-0.317-1.244-0.317-1.985c0-0.76,0.105-1.437,0.317-2.033
			c0.212-0.596,0.508-1.097,0.887-1.502c0.379-0.406,0.823-0.715,1.331-0.927c0.507-0.212,1.061-0.318,1.662-0.318
			c0.591,0,1.143,0.106,1.655,0.318c0.512,0.212,0.958,0.521,1.337,0.927c0.379,0.405,0.675,0.906,0.887,1.502
			C172.707,378.409,172.812,379.085,172.812,379.845z M170.985,379.845c0-0.583-0.062-1.079-0.186-1.49
			c-0.124-0.41-0.293-0.743-0.51-0.999s-0.468-0.441-0.755-0.557c-0.287-0.114-0.593-0.172-0.92-0.172s-0.633,0.058-0.92,0.172
			c-0.287,0.115-0.536,0.301-0.748,0.557c-0.211,0.256-0.377,0.589-0.496,0.999c-0.119,0.411-0.179,0.907-0.179,1.49
			c0,0.573,0.06,1.059,0.179,1.456s0.285,0.722,0.496,0.973c0.212,0.252,0.461,0.433,0.748,0.543c0.287,0.11,0.594,0.166,0.92,0.166
			s0.633-0.056,0.92-0.166c0.287-0.11,0.539-0.291,0.755-0.543c0.216-0.251,0.386-0.575,0.51-0.973S170.985,380.418,170.985,379.845
			z"/>
	</g>
</g>
<g>
	<g>
		<path fill="#FFFFFF" d="M364.303,400.606l-0.019,4.913l-1.769-0.007l0.05-13.135l3.877,0.015c0.831,0.004,1.554,0.103,2.167,0.297
			c0.614,0.195,1.121,0.471,1.523,0.827c0.402,0.354,0.702,0.785,0.897,1.286c0.197,0.502,0.293,1.061,0.292,1.678
			c-0.002,0.611-0.111,1.171-0.327,1.677c-0.215,0.506-0.53,0.942-0.944,1.308c-0.413,0.364-0.927,0.648-1.538,0.852
			c-0.612,0.201-1.312,0.302-2.101,0.298L364.303,400.606z M364.308,399.195l2.108,0.008c0.507,0.002,0.955-0.063,1.344-0.196
			s0.714-0.32,0.979-0.561c0.263-0.239,0.463-0.528,0.599-0.863c0.136-0.336,0.205-0.705,0.206-1.108
			c0.003-0.837-0.253-1.491-0.768-1.964c-0.514-0.473-1.294-0.711-2.339-0.716l-2.108-0.008L364.308,399.195z"/>
		<path fill="#FFFFFF" d="M379.637,405.578l-0.724-0.003c-0.159-0.001-0.287-0.025-0.384-0.074c-0.098-0.05-0.162-0.153-0.192-0.312
			l-0.18-0.863c-0.246,0.22-0.484,0.416-0.717,0.589s-0.478,0.318-0.735,0.438c-0.257,0.118-0.531,0.207-0.821,0.267
			c-0.291,0.061-0.613,0.09-0.968,0.089c-0.36-0.002-0.697-0.054-1.012-0.155c-0.314-0.104-0.587-0.256-0.818-0.459
			c-0.232-0.203-0.416-0.46-0.552-0.771c-0.136-0.31-0.204-0.676-0.202-1.1c0.001-0.367,0.104-0.722,0.307-1.061
			c0.203-0.341,0.53-0.641,0.98-0.903c0.45-0.262,1.039-0.476,1.767-0.642c0.728-0.166,1.617-0.246,2.668-0.242l0.002-0.729
			c0.003-0.726-0.149-1.275-0.457-1.648s-0.764-0.561-1.368-0.562c-0.397-0.002-0.732,0.047-1.004,0.146
			c-0.272,0.101-0.508,0.213-0.707,0.337c-0.199,0.124-0.371,0.236-0.515,0.337c-0.144,0.1-0.286,0.15-0.427,0.149
			c-0.11,0-0.206-0.03-0.289-0.088c-0.082-0.059-0.147-0.13-0.196-0.217l-0.292-0.523c0.515-0.493,1.07-0.86,1.664-1.103
			c0.593-0.242,1.251-0.361,1.972-0.359c0.519,0.002,0.98,0.09,1.383,0.263c0.402,0.172,0.741,0.412,1.015,0.719
			c0.274,0.307,0.48,0.677,0.619,1.111c0.139,0.435,0.207,0.911,0.205,1.431L379.637,405.578z M375.406,404.562
			c0.287,0.002,0.55-0.026,0.789-0.083c0.238-0.059,0.463-0.14,0.674-0.246c0.211-0.105,0.414-0.234,0.606-0.388
			c0.193-0.151,0.381-0.324,0.566-0.52l0.007-1.915c-0.751-0.003-1.391,0.042-1.916,0.135c-0.526,0.094-0.955,0.217-1.285,0.368
			c-0.331,0.153-0.572,0.333-0.722,0.541c-0.15,0.21-0.226,0.443-0.227,0.701c-0.001,0.246,0.038,0.458,0.117,0.636
			c0.079,0.179,0.186,0.325,0.319,0.439s0.292,0.197,0.476,0.251C374.994,404.535,375.192,404.562,375.406,404.562z"/>
		<path fill="#FFFFFF" d="M382.111,405.586l0.035-9.285l0.935,0.004c0.177,0.001,0.299,0.034,0.367,0.103
			c0.067,0.067,0.112,0.184,0.136,0.349l0.104,1.449c0.32-0.646,0.715-1.151,1.183-1.514c0.469-0.361,1.019-0.541,1.648-0.539
			c0.257,0.001,0.488,0.031,0.696,0.09c0.208,0.06,0.399,0.142,0.576,0.245l-0.215,1.219c-0.043,0.152-0.138,0.229-0.285,0.228
			c-0.085,0-0.217-0.029-0.394-0.088c-0.177-0.06-0.425-0.089-0.742-0.09c-0.568-0.002-1.044,0.16-1.427,0.489
			c-0.383,0.328-0.704,0.808-0.963,1.436l-0.022,5.912L382.111,405.586z"/>
		<path fill="#FFFFFF" d="M393.21,396.197c0.556,0.003,1.069,0.098,1.539,0.285c0.47,0.188,0.875,0.459,1.216,0.812
			c0.34,0.353,0.606,0.788,0.797,1.305c0.19,0.518,0.284,1.105,0.282,1.766c-0.001,0.256-0.029,0.428-0.084,0.513
			c-0.055,0.086-0.159,0.128-0.312,0.128l-6.178-0.023c0.01,0.586,0.088,1.097,0.232,1.531c0.145,0.435,0.345,0.797,0.601,1.088
			c0.256,0.292,0.56,0.51,0.914,0.655c0.354,0.145,0.75,0.218,1.191,0.219c0.409,0.002,0.763-0.044,1.059-0.138
			c0.297-0.093,0.552-0.194,0.767-0.305c0.214-0.108,0.393-0.21,0.537-0.305c0.144-0.094,0.268-0.14,0.372-0.14
			c0.134,0,0.238,0.053,0.311,0.156l0.456,0.598c-0.202,0.244-0.444,0.455-0.727,0.635c-0.281,0.179-0.583,0.326-0.904,0.441
			c-0.321,0.114-0.653,0.2-0.995,0.257c-0.342,0.057-0.682,0.084-1.018,0.083c-0.642-0.003-1.232-0.113-1.772-0.332
			c-0.54-0.219-1.006-0.538-1.399-0.959c-0.393-0.419-0.697-0.938-0.915-1.557s-0.325-1.327-0.322-2.127
			c0.002-0.648,0.104-1.253,0.305-1.814s0.488-1.048,0.862-1.459c0.375-0.41,0.831-0.733,1.37-0.967S392.538,396.195,393.21,396.197
			z M393.242,397.398c-0.788-0.003-1.409,0.223-1.863,0.676c-0.455,0.454-0.738,1.084-0.851,1.89l5.05,0.02
			c0.001-0.379-0.049-0.727-0.152-1.042c-0.103-0.314-0.254-0.587-0.455-0.817c-0.201-0.229-0.446-0.407-0.736-0.534
			C393.947,397.463,393.615,397.399,393.242,397.398z"/>
		<path fill="#FFFFFF" d="M399.104,405.651l0.035-9.285l0.972,0.004c0.232,0.001,0.378,0.115,0.439,0.341l0.124,1.009
			c0.405-0.444,0.857-0.803,1.356-1.076c0.499-0.272,1.076-0.408,1.73-0.406c0.507,0.002,0.954,0.088,1.342,0.258
			c0.387,0.169,0.71,0.408,0.969,0.718c0.258,0.31,0.454,0.682,0.586,1.116c0.133,0.435,0.198,0.914,0.196,1.439l-0.022,5.912
			l-1.631-0.006l0.022-5.912c0.003-0.702-0.156-1.249-0.475-1.638c-0.319-0.39-0.809-0.585-1.469-0.587
			c-0.483-0.002-0.934,0.112-1.353,0.342c-0.42,0.231-0.808,0.544-1.164,0.94l-0.026,6.838L399.104,405.651z"/>
		<path fill="#FFFFFF" d="M412.11,405.847c-0.733-0.003-1.296-0.209-1.689-0.621c-0.393-0.41-0.587-1.001-0.584-1.771l0.021-5.684
			l-1.118-0.004c-0.098-0.001-0.18-0.029-0.248-0.088c-0.066-0.059-0.1-0.148-0.099-0.271l0.002-0.65l1.522-0.187l0.387-2.867
			c0.013-0.092,0.053-0.166,0.12-0.225c0.067-0.058,0.153-0.086,0.257-0.086l0.825,0.003l-0.012,3.199l2.658,0.011l-0.004,1.182
			l-2.658-0.011l-0.021,5.573c-0.002,0.392,0.092,0.683,0.281,0.872c0.188,0.19,0.433,0.286,0.732,0.287
			c0.171,0.001,0.319-0.021,0.444-0.067c0.125-0.045,0.234-0.095,0.326-0.149c0.092-0.055,0.17-0.104,0.234-0.15
			c0.064-0.046,0.121-0.068,0.17-0.068c0.085,0,0.162,0.054,0.229,0.157l0.474,0.781c-0.282,0.262-0.623,0.466-1.02,0.614
			C412.941,405.775,412.532,405.849,412.11,405.847z"/>
		<path fill="#FFFFFF" d="M421.479,397.981c-0.074,0.135-0.187,0.201-0.34,0.201c-0.092-0.001-0.196-0.034-0.311-0.102
			c-0.116-0.068-0.258-0.144-0.426-0.227c-0.168-0.084-0.367-0.16-0.6-0.231c-0.231-0.071-0.506-0.107-0.824-0.109
			c-0.275-0.001-0.522,0.033-0.743,0.104c-0.22,0.069-0.408,0.165-0.564,0.286c-0.156,0.122-0.276,0.263-0.359,0.425
			c-0.083,0.162-0.125,0.338-0.126,0.527c-0.001,0.238,0.067,0.437,0.204,0.596c0.137,0.16,0.318,0.299,0.543,0.414
			c0.226,0.117,0.482,0.221,0.769,0.311c0.287,0.091,0.582,0.186,0.884,0.288c0.301,0.102,0.596,0.214,0.883,0.337
			c0.287,0.124,0.542,0.277,0.768,0.462c0.226,0.184,0.406,0.409,0.543,0.675c0.137,0.268,0.204,0.587,0.202,0.959
			c-0.001,0.428-0.079,0.824-0.233,1.187c-0.154,0.363-0.381,0.677-0.682,0.942c-0.3,0.265-0.668,0.472-1.103,0.623
			c-0.434,0.151-0.935,0.226-1.503,0.224c-0.648-0.003-1.234-0.11-1.758-0.323c-0.525-0.213-0.97-0.484-1.335-0.815l0.387-0.623
			c0.049-0.079,0.107-0.14,0.175-0.182c0.068-0.043,0.156-0.064,0.266-0.063c0.11,0,0.226,0.044,0.348,0.129
			c0.122,0.087,0.269,0.182,0.443,0.286c0.174,0.104,0.385,0.2,0.631,0.286c0.248,0.087,0.557,0.131,0.93,0.133
			c0.317,0.001,0.596-0.039,0.834-0.121c0.238-0.081,0.438-0.192,0.597-0.333c0.159-0.139,0.277-0.3,0.355-0.483
			c0.077-0.184,0.116-0.379,0.116-0.587c0.001-0.257-0.066-0.469-0.204-0.638c-0.137-0.168-0.318-0.312-0.544-0.433
			c-0.225-0.12-0.483-0.226-0.772-0.314c-0.29-0.09-0.586-0.184-0.888-0.283c-0.302-0.099-0.598-0.211-0.888-0.338
			c-0.29-0.126-0.547-0.285-0.773-0.476c-0.225-0.188-0.406-0.424-0.542-0.703c-0.137-0.277-0.204-0.615-0.202-1.013
			c0.001-0.354,0.076-0.694,0.224-1.021c0.148-0.326,0.362-0.612,0.645-0.859c0.282-0.246,0.628-0.442,1.038-0.587
			c0.41-0.146,0.878-0.217,1.404-0.215c0.611,0.003,1.158,0.101,1.643,0.295c0.485,0.195,0.904,0.46,1.257,0.798L421.479,397.981z"
			/>
	</g>
	<circle fill="#5E7E53" cx="325.06" cy="389.452" r="13.987"/>
	<g>
		<path fill="#FFFFFF" d="M371.109,365.137c0.803,0,1.553,0.119,2.251,0.357c0.697,0.238,1.299,0.585,1.807,1.039
			c0.507,0.455,0.907,1.009,1.198,1.662c0.291,0.653,0.437,1.395,0.437,2.224c0,0.707-0.106,1.359-0.318,1.96
			s-0.499,1.177-0.861,1.728c-0.362,0.552-0.779,1.086-1.251,1.603c-0.472,0.516-0.973,1.044-1.503,1.582l-4.991,5.11
			c0.353-0.097,0.71-0.174,1.072-0.231s0.71-0.086,1.046-0.086h6.355c0.256,0,0.458,0.075,0.609,0.225
			c0.15,0.15,0.225,0.345,0.225,0.583v1.43h-12.657v-0.808c0-0.168,0.033-0.34,0.099-0.517c0.066-0.176,0.174-0.34,0.325-0.489
			l6.077-6.104c0.503-0.513,0.962-1.005,1.377-1.477c0.415-0.473,0.77-0.947,1.066-1.424s0.523-0.96,0.682-1.449
			c0.159-0.49,0.238-1.013,0.238-1.569c0-0.556-0.088-1.043-0.265-1.463c-0.176-0.419-0.419-0.766-0.728-1.039
			s-0.671-0.479-1.085-0.616c-0.415-0.137-0.861-0.205-1.337-0.205s-0.918,0.071-1.324,0.212c-0.406,0.142-0.766,0.338-1.079,0.59
			c-0.313,0.251-0.579,0.549-0.794,0.894c-0.216,0.344-0.369,0.724-0.457,1.139c-0.071,0.256-0.177,0.441-0.318,0.556
			c-0.141,0.115-0.327,0.172-0.556,0.172c-0.044,0-0.091-0.002-0.139-0.006c-0.049-0.005-0.104-0.012-0.166-0.021l-1.231-0.212
			c0.124-0.864,0.362-1.63,0.715-2.297c0.353-0.666,0.801-1.225,1.344-1.675c0.542-0.45,1.165-0.792,1.867-1.026
			C369.541,365.254,370.297,365.137,371.109,365.137z"/>
		<path fill="#FFFFFF" d="M390.466,377.477h2.873v1.351c0,0.141-0.042,0.26-0.126,0.357c-0.084,0.097-0.214,0.146-0.391,0.146
			h-2.356v4.991h-2.079v-4.991h-8.407c-0.177,0-0.329-0.051-0.457-0.152s-0.209-0.228-0.245-0.378l-0.238-1.204l9.228-12.247h2.198
			V377.477z M388.387,369.652c0-0.229,0.006-0.477,0.02-0.741c0.014-0.265,0.042-0.538,0.086-0.821l-6.898,9.388h6.792V369.652z"/>
		<path fill="#FFFFFF" d="M403.229,369.93c0,0.741-0.115,1.405-0.344,1.992s-0.536,1.082-0.92,1.483s-0.832,0.708-1.344,0.92
			c-0.512,0.212-1.046,0.317-1.602,0.317c-0.601,0-1.154-0.105-1.662-0.317c-0.508-0.212-0.951-0.519-1.331-0.92
			c-0.38-0.401-0.675-0.896-0.887-1.483s-0.318-1.251-0.318-1.992c0-0.759,0.106-1.435,0.318-2.025
			c0.212-0.592,0.507-1.091,0.887-1.497c0.379-0.405,0.823-0.715,1.331-0.927c0.507-0.211,1.061-0.317,1.662-0.317
			c0.591,0,1.145,0.106,1.662,0.317c0.516,0.212,0.962,0.521,1.337,0.927c0.375,0.406,0.671,0.905,0.887,1.497
			C403.121,368.496,403.229,369.171,403.229,369.93z M409.862,365.826c0.115-0.15,0.236-0.267,0.364-0.351
			c0.127-0.084,0.298-0.126,0.51-0.126h1.694l-13.862,18.589c-0.088,0.114-0.194,0.207-0.318,0.278
			c-0.124,0.07-0.27,0.105-0.437,0.105h-1.748L409.862,365.826z M401.388,369.93c0-0.583-0.062-1.077-0.185-1.483
			c-0.124-0.405-0.293-0.739-0.51-0.999c-0.216-0.261-0.468-0.448-0.755-0.562c-0.287-0.115-0.594-0.173-0.92-0.173
			c-0.327,0-0.634,0.058-0.92,0.173c-0.287,0.114-0.536,0.302-0.748,0.562c-0.212,0.26-0.377,0.594-0.497,0.999
			c-0.119,0.406-0.179,0.9-0.179,1.483c0,0.573,0.06,1.062,0.179,1.463s0.285,0.729,0.497,0.979
			c0.212,0.252,0.461,0.433,0.748,0.543s0.594,0.166,0.92,0.166c0.326,0,0.633-0.056,0.92-0.166s0.539-0.291,0.755-0.543
			c0.216-0.251,0.386-0.578,0.51-0.979C401.327,370.992,401.388,370.503,401.388,369.93z M413.714,379.847
			c0,0.741-0.115,1.403-0.344,1.985c-0.229,0.583-0.536,1.075-0.92,1.477s-0.83,0.708-1.337,0.92
			c-0.507,0.212-1.039,0.317-1.595,0.317c-0.601,0-1.154-0.105-1.662-0.317c-0.508-0.212-0.951-0.519-1.331-0.92
			s-0.675-0.894-0.887-1.477c-0.212-0.582-0.317-1.244-0.317-1.985c0-0.76,0.105-1.437,0.317-2.033
			c0.212-0.596,0.508-1.097,0.887-1.502c0.379-0.406,0.823-0.715,1.331-0.927c0.507-0.212,1.061-0.318,1.662-0.318
			c0.591,0,1.143,0.106,1.655,0.318c0.512,0.212,0.958,0.521,1.337,0.927c0.379,0.405,0.675,0.906,0.887,1.502
			C413.609,378.411,413.714,379.087,413.714,379.847z M411.888,379.847c0-0.583-0.062-1.079-0.186-1.49
			c-0.124-0.41-0.293-0.743-0.51-0.999s-0.468-0.441-0.755-0.557c-0.287-0.114-0.593-0.172-0.92-0.172s-0.633,0.058-0.92,0.172
			c-0.287,0.115-0.536,0.301-0.748,0.557c-0.211,0.256-0.377,0.589-0.496,0.999c-0.119,0.411-0.179,0.907-0.179,1.49
			c0,0.573,0.06,1.059,0.179,1.456s0.285,0.722,0.496,0.973c0.212,0.252,0.461,0.433,0.748,0.543c0.287,0.11,0.594,0.166,0.92,0.166
			s0.633-0.056,0.92-0.166c0.287-0.11,0.539-0.291,0.755-0.543c0.216-0.251,0.386-0.575,0.51-0.973S411.888,380.42,411.888,379.847z
			"/>
	</g>
</g>
</svg>
