<?xml version="1.0" encoding="utf-8"?>
<!-- Generator: Adobe Illustrator 16.0.0, SVG Export Plug-In . SVG Version: 6.00 Build 0)  -->
<!DOCTYPE svg PUBLIC "-//W3C//DTD SVG 1.1//EN" "http://www.w3.org/Graphics/SVG/1.1/DTD/svg11.dtd">
<svg version="1.1" id="Layer_1" xmlns="http://www.w3.org/2000/svg" xmlns:xlink="http://www.w3.org/1999/xlink" x="0px" y="0px"
	 width="500px" height="408px" viewBox="0 0 500 408" enable-background="new 0 0 500 408" xml:space="preserve">
<path fill="#0E5461" d="M272.704,18.308c-92.443,35.007-139.171,138.7-104.161,231.144
	c27.219,71.879,95.961,116.106,168.651,115.776v-20.484c-64.428,0.339-125.369-38.846-149.492-102.548
	c-31.007-81.877,10.377-173.717,92.26-204.729c50.172-18.999,104.065-10.785,145.435,17.252c4.785-5.201,9.626-10.197,14.897-14.612
	C393.174,6.575,330.729-3.667,272.704,18.308z"/>
<g>
	<g>
		<g>
			<path fill="#FFFFFF" d="M334.877,271.881c47.855-0.271,86.681-39.265,86.681-87.157c0-28.862-14.27-55.762-38.196-72.064
				l27.27-39.218c36.771,25.266,58.708,66.827,58.708,111.282c0,73.997-60.066,134.422-133.996,134.933L334.877,271.881z"/>
			<path fill="#465560" d="M410.756,74.136c36.39,25.199,58.082,66.463,58.082,110.587c0,73.56-59.568,133.658-133.001,134.429
				l-0.455-46.776c47.885-0.526,86.676-39.646,86.676-87.652c0-28.86-14.186-55.77-37.998-72.191L410.756,74.136 M410.503,72.749
				l-27.842,40.041c23.145,15.574,38.396,41.999,38.396,71.934c0,47.78-38.872,86.658-86.658,86.658c-0.01,0-0.01,0-0.027,0
				l0.476,48.777c74.473-0.241,134.991-60.908,134.991-135.436C469.838,138.233,446.294,97.151,410.503,72.749L410.503,72.749z"/>
		</g>
	</g>
	<path fill="#465560" d="M339.853,392.729c0,3.025-2.443,5.469-5.48,5.469c-3.008,0-5.454-2.442-5.454-5.469
		c0-3.008,2.446-5.455,5.454-5.455C337.408,387.271,339.853,389.721,339.853,392.729z"/>
	<path fill="#5DC7C3" d="M247.738,184.724c0-47.796,38.877-86.659,86.661-86.659c17.847,0,35.992,6.45,49.796,15.749l27.521-40.194
		c-21.709-14.804-49.125-24.334-77.316-24.334c-74.691,0-135.452,60.751-135.452,135.438c0,74.683,60.761,135.443,135.452,135.443
		c0.146,0,0.298-0.008,0.447-0.008l-0.476-48.777C286.605,271.37,247.738,232.504,247.738,184.724z"/>
	<path fill="none" stroke="#465560" stroke-width="5.6696" stroke-miterlimit="10" d="M335.391,200.391v192.337V200.391z"/>
</g>
<g>
	<path fill="#E6E7E8" d="M214.933,186.667c0,0.323-0.103,0.586-0.307,0.787c-0.205,0.202-0.545,0.302-1.021,0.302h-3.644
		l-0.477,2.765c0.599-0.122,1.146-0.183,1.64-0.183c0.695,0,1.308,0.104,1.836,0.311c0.527,0.208,0.972,0.495,1.332,0.861
		c0.359,0.366,0.632,0.795,0.814,1.287c0.184,0.491,0.275,1.021,0.275,1.588c0,0.702-0.124,1.343-0.371,1.923
		s-0.59,1.076-1.03,1.488c-0.439,0.412-0.96,0.731-1.561,0.957c-0.603,0.226-1.256,0.339-1.964,0.339
		c-0.416,0-0.81-0.043-1.182-0.128c-0.373-0.085-0.722-0.2-1.048-0.344c-0.327-0.143-0.629-0.308-0.907-0.494
		c-0.277-0.186-0.525-0.383-0.745-0.591l0.695-0.961c0.146-0.207,0.342-0.311,0.586-0.311c0.153,0,0.308,0.049,0.462,0.146
		c0.155,0.097,0.337,0.205,0.545,0.32c0.208,0.116,0.449,0.223,0.724,0.32c0.274,0.098,0.606,0.147,0.998,0.147
		c0.415,0,0.781-0.067,1.099-0.202c0.318-0.135,0.582-0.322,0.792-0.563c0.21-0.241,0.369-0.528,0.477-0.861
		c0.106-0.333,0.159-0.694,0.159-1.085c0-0.72-0.209-1.283-0.627-1.689c-0.418-0.406-1.032-0.609-1.845-0.609
		c-0.641,0-1.285,0.116-1.932,0.348l-1.41-0.403l1.099-6.427h6.537V186.667z"/>
	<path fill="#E6E7E8" d="M221.809,199.091c-0.684,0-1.308-0.091-1.873-0.275c-0.563-0.183-1.048-0.442-1.451-0.778
		c-0.402-0.336-0.716-0.742-0.938-1.218s-0.334-1.007-0.334-1.593c0-0.781,0.191-1.442,0.577-1.982
		c0.384-0.54,0.981-0.941,1.794-1.204c-0.647-0.269-1.131-0.65-1.451-1.145s-0.48-1.09-0.48-1.786c0-0.5,0.103-0.967,0.308-1.401
		c0.204-0.433,0.49-0.81,0.855-1.131c0.366-0.32,0.805-0.57,1.314-0.75c0.509-0.18,1.069-0.27,1.68-0.27s1.17,0.09,1.68,0.27
		c0.511,0.18,0.948,0.43,1.314,0.75c0.366,0.321,0.651,0.698,0.856,1.131c0.204,0.434,0.307,0.9,0.307,1.401
		c0,0.696-0.162,1.291-0.485,1.786c-0.323,0.494-0.806,0.876-1.446,1.145c0.812,0.262,1.409,0.664,1.794,1.204
		c0.385,0.541,0.576,1.201,0.576,1.982c0,0.586-0.111,1.117-0.334,1.593c-0.222,0.476-0.535,0.882-0.938,1.218
		c-0.403,0.335-0.887,0.595-1.451,0.778C223.116,199,222.492,199.091,221.809,199.091z M221.809,197.324
		c0.372,0,0.699-0.053,0.979-0.16c0.279-0.107,0.517-0.255,0.709-0.444c0.191-0.188,0.337-0.415,0.435-0.677
		c0.098-0.262,0.146-0.546,0.146-0.852c0-0.727-0.202-1.276-0.604-1.648c-0.403-0.373-0.958-0.559-1.666-0.559
		s-1.264,0.186-1.667,0.559c-0.403,0.372-0.604,0.921-0.604,1.648c0,0.305,0.049,0.589,0.146,0.852
		c0.097,0.263,0.243,0.488,0.436,0.677c0.191,0.189,0.429,0.337,0.709,0.444C221.107,197.271,221.436,197.324,221.809,197.324z
		 M221.809,191.208c0.366,0,0.674-0.058,0.924-0.174c0.25-0.116,0.452-0.27,0.604-0.462c0.151-0.192,0.261-0.412,0.325-0.659
		c0.063-0.247,0.096-0.502,0.096-0.765c0-0.25-0.04-0.488-0.119-0.714c-0.08-0.226-0.199-0.426-0.356-0.6
		c-0.159-0.174-0.36-0.312-0.604-0.417c-0.244-0.104-0.534-0.156-0.87-0.156s-0.626,0.052-0.87,0.156s-0.446,0.243-0.608,0.417
		s-0.281,0.374-0.357,0.6s-0.114,0.464-0.114,0.714c0,0.263,0.032,0.518,0.097,0.765c0.063,0.247,0.172,0.467,0.324,0.659
		c0.153,0.192,0.354,0.347,0.604,0.462C221.134,191.15,221.442,191.208,221.809,191.208z"/>
	<path fill="#E6E7E8" d="M233.793,188.91c0,0.5-0.084,0.952-0.252,1.355c-0.168,0.403-0.394,0.746-0.673,1.03
		c-0.281,0.284-0.607,0.502-0.98,0.655c-0.372,0.153-0.76,0.229-1.163,0.229c-0.438,0-0.846-0.076-1.218-0.229
		c-0.373-0.152-0.694-0.371-0.966-0.655c-0.272-0.284-0.484-0.627-0.637-1.03c-0.152-0.403-0.229-0.854-0.229-1.355
		c0-0.513,0.076-0.977,0.229-1.392s0.364-0.766,0.637-1.053c0.271-0.287,0.593-0.508,0.966-0.664
		c0.372-0.156,0.778-0.234,1.218-0.234c0.44,0,0.847,0.078,1.222,0.234c0.375,0.155,0.701,0.377,0.976,0.664
		s0.488,0.638,0.641,1.053C233.716,187.934,233.793,188.397,233.793,188.91z M238.197,186.062c0.073-0.091,0.165-0.174,0.274-0.247
		c0.109-0.073,0.263-0.11,0.458-0.11h1.639l-9.833,12.9c-0.072,0.098-0.167,0.179-0.278,0.243c-0.113,0.064-0.249,0.096-0.408,0.096
		h-1.686L238.197,186.062z M232.044,188.91c0-0.354-0.034-0.65-0.102-0.888c-0.066-0.238-0.159-0.431-0.278-0.577
		s-0.261-0.251-0.421-0.315c-0.162-0.064-0.334-0.096-0.518-0.096c-0.183,0-0.354,0.032-0.513,0.096s-0.296,0.169-0.412,0.315
		s-0.206,0.339-0.271,0.577c-0.063,0.238-0.096,0.534-0.096,0.888c0,0.342,0.032,0.627,0.096,0.856
		c0.064,0.229,0.154,0.414,0.271,0.554c0.116,0.141,0.253,0.241,0.412,0.302s0.33,0.092,0.513,0.092
		c0.184,0,0.355-0.031,0.518-0.092c0.161-0.061,0.302-0.162,0.421-0.302c0.119-0.14,0.212-0.325,0.278-0.554
		C232.01,189.537,232.044,189.252,232.044,188.91z M241.264,195.832c0,0.5-0.084,0.952-0.251,1.355
		c-0.168,0.403-0.393,0.746-0.673,1.03c-0.281,0.284-0.608,0.504-0.98,0.659c-0.372,0.156-0.76,0.234-1.163,0.234
		c-0.438,0-0.846-0.078-1.218-0.234c-0.373-0.155-0.693-0.375-0.966-0.659c-0.271-0.284-0.484-0.627-0.637-1.03
		s-0.229-0.854-0.229-1.355c0-0.513,0.076-0.977,0.229-1.392c0.152-0.415,0.365-0.766,0.637-1.053
		c0.271-0.287,0.593-0.508,0.966-0.664c0.372-0.156,0.778-0.234,1.218-0.234c0.44,0,0.848,0.078,1.223,0.234
		c0.375,0.155,0.7,0.377,0.975,0.664c0.275,0.287,0.488,0.638,0.642,1.053C241.188,194.855,241.264,195.319,241.264,195.832z
		 M239.524,195.832c0-0.354-0.035-0.65-0.104-0.888c-0.07-0.238-0.165-0.431-0.284-0.577s-0.26-0.251-0.421-0.316
		c-0.162-0.064-0.334-0.096-0.518-0.096c-0.183,0-0.354,0.032-0.513,0.096c-0.159,0.064-0.295,0.169-0.408,0.316
		c-0.112,0.147-0.203,0.339-0.27,0.577c-0.067,0.238-0.102,0.534-0.102,0.888c0,0.342,0.033,0.628,0.102,0.86
		s0.157,0.418,0.27,0.559c0.113,0.141,0.249,0.241,0.408,0.302c0.159,0.062,0.33,0.091,0.513,0.091c0.184,0,0.355-0.03,0.518-0.091
		c0.162-0.061,0.302-0.162,0.421-0.302s0.213-0.327,0.284-0.559S239.524,196.174,239.524,195.832z"/>
</g>
<path fill="#ED1C24" d="M162.149,106.21c-3.858,8.428-5.616,16.705-5.02,25.496c0.122,1.785-0.929,3.677-1.546,5.482
	c-2.873,8.446,0.635,17.814,8.37,22.228c7.765,4.431,17.668,2.714,23.408-4.05c5.8-6.845,5.938-17.021,0.319-23.725
	c-5.267-6.29-5.333-8.664-0.12-16.284c4.834,1.787,9.929,3.368,14.754,5.541c4.8,2.163,7.004,6.926,5.665,12.167
	c-5.141,20.1-10.233,40.219-15.979,60.154c-0.91,3.162-4.583,6.247-7.742,7.938c-32.883,17.56-65.919,34.829-98.911,52.176
	c-5.454,2.867-10.867,5.812-16.373,8.569c-6.778,3.399-12.39,1.666-15.903-5c-13.93-26.377-27.812-52.779-41.642-79.21
	c-3.428-6.555-1.523-12.39,5.106-15.872c29.273-15.378,58.592-30.677,87.874-46.042c9.458-4.964,18.897-9.946,28.254-15.1
	c4.009-2.205,7.854-2.462,12.095-0.791C150.317,102.084,155.996,103.99,162.149,106.21z M64.354,249.086
	c33.741-17.742,67.032-35.247,100.426-52.805c-13.483-25.643-26.696-50.775-39.951-75.981
	c-33.64,17.688-66.946,35.201-100.427,52.804C37.775,198.54,50.951,223.598,64.354,249.086z"/>
<path fill="#ED1C24" d="M244.456,102.071c-16.338-22.58-49.898-23.094-68.089-1.041c-10.606,12.87-12.906,30.818-5.646,44.095
	c2.217,4.057,5.773,5.622,9.142,3.71c3.652-2.075,4.534-5.223,2.807-9.116c-0.725-1.619-1.354-3.303-1.835-5.012
	c-3.902-13.827,4.465-29.078,18.939-34.599c13.973-5.33,29.608,0.356,35.778,13.013c6.722,13.781-0.225,30.812-15.363,38.047
	c-0.639,0.304-1.316,0.687-1.951,1.131c0.565,1.125,0.868,2.368,0.722,3.673c-0.061,0.526-0.104,1.056-0.119,1.586
	c0.115,0.51,0.202,1.029,0.218,1.564c0.072,2.384-0.88,4.325-2.373,6.102c-0.716,0.852-1.707,1.442-2.607,2.088
	c-0.12,0.086-0.247,0.156-0.373,0.231c0.044,0.063,0.087,0.127,0.131,0.19c5.702-2.431,11.772-4.254,17.047-7.4
	C251.44,148.071,257.714,120.396,244.456,102.071z"/>
<path fill="#FFFFFF" d="M64.852,249.229c-13.401-25.489-26.578-50.546-39.953-75.982c34.173-17.966,68.171-35.842,102.504-53.896
	c13.257,25.207,26.471,50.34,39.954,75.982C133.271,213.253,99.291,231.118,64.852,249.229z"/>
<g>
	<path fill="#ED1C24" d="M68.459,184.485l-10.537,5.54l2.669,7.654c0.593-0.42,1.143-0.818,2.162-1.354
		c2.125-1.117,4.495-1.767,6.73-1.641c2.814,0.093,5.851,1.533,7.683,5.018c2.838,5.396,0.669,11.688-5.322,14.84
		c-3.017,1.586-6.013,2.077-7.777,1.919l-0.562-3.337c1.505,0.076,4.203-0.259,6.71-1.576c3.527-1.854,5.337-5.735,3.394-9.431
		c-1.919-3.549-5.639-4.846-11.163-1.941c-1.571,0.826-2.715,1.645-3.667,2.309l-5.187-14.195l13.214-6.948L68.459,184.485z"/>
	<path fill="#ED1C24" d="M82.611,199.334c-1.832-3.483-1.045-7.043,1.595-10.274l-0.109-0.104c-3.819,0.163-6.387-1.524-7.638-3.902
		c-2.303-4.377-0.168-9.294,4.675-11.841c5.354-2.815,9.795-0.866,11.604,2.575c1.229,2.337,1.4,5.446-1.15,8.849l0.066,0.128
		c4.156-0.45,7.555,0.854,9.319,4.211c2.524,4.802,0.103,10.197-5.167,12.968C90.028,204.98,84.734,203.371,82.611,199.334z
		 M79.85,182.943c1.452,2.761,4.316,3.153,7.95,2.328c1.955-2.059,2.888-4.72,1.57-7.227c-1.162-2.209-3.687-3.81-7.042-2.045
		C79.227,177.631,78.599,180.563,79.85,182.943z M97.394,191.346c-1.765-3.357-4.951-3.743-9.249-2.84
		c-2.736,2.634-3.361,5.674-1.978,8.308c1.348,2.872,4.768,4.22,8.294,2.365C97.818,197.413,98.89,194.192,97.394,191.346z"/>
	<path fill="#ED1C24" d="M110.449,168.317c3.061,5.82,1.521,10.318-2.049,12.195c-3.441,1.811-7.867,0.611-10.837-4.933
		c-2.903-5.522-1.518-10.21,2.137-12.131C103.566,161.416,107.679,163.049,110.449,168.317z M100.471,173.89
		c1.771,3.571,4.495,5.556,6.832,4.327c2.464-1.296,2.184-4.512,0.262-8.166c-1.765-3.356-4.217-5.646-6.809-4.284
		C98.419,166.995,98.639,170.405,100.471,173.89z M114.246,192.246l1.217-37.086l2.38-1.251l-1.218,37.086L114.246,192.246z
		 M134.432,170.297c3.062,5.82,1.521,10.318-2.006,12.173c-3.441,1.811-7.868,0.611-10.814-4.89
		c-2.927-5.566-1.541-10.254,2.113-12.175C127.591,163.372,131.662,165.028,134.432,170.297z M124.454,175.869
		c1.812,3.549,4.58,5.511,6.874,4.304c2.464-1.296,2.184-4.511,0.263-8.164c-1.766-3.357-4.217-5.647-6.809-4.285
		C122.444,168.952,122.622,172.385,124.454,175.869z"/>
</g>
<path fill="none" stroke="#52B9CF" stroke-width="1.2487" stroke-miterlimit="10" d="M216.88,146.193
	c4.879,16.554,2.351,16.598-6.991,25.298"/>
<g>
	<path fill="#333333" d="M431.44,208.857h2.014v0.947c0,0.099-0.029,0.183-0.088,0.25c-0.06,0.068-0.15,0.103-0.274,0.103h-1.651
		v3.499h-1.458v-3.499h-5.894c-0.124,0-0.23-0.036-0.32-0.107c-0.09-0.07-0.146-0.159-0.172-0.264l-0.167-0.845l6.47-8.586h1.541
		V208.857z M429.982,203.372c0-0.16,0.005-0.334,0.015-0.52c0.009-0.186,0.029-0.377,0.06-0.575l-4.835,6.58h4.761V203.372z"/>
	<path fill="#333333" d="M439.403,200.207c0.563,0,1.089,0.084,1.578,0.251c0.488,0.167,0.911,0.41,1.267,0.729
		c0.356,0.318,0.636,0.707,0.84,1.165c0.205,0.458,0.307,0.978,0.307,1.559c0,0.495-0.074,0.953-0.223,1.374
		s-0.35,0.824-0.604,1.211s-0.546,0.762-0.877,1.123c-0.331,0.362-0.683,0.732-1.054,1.109l-3.499,3.583
		c0.247-0.068,0.498-0.122,0.752-0.162c0.254-0.041,0.498-0.061,0.733-0.061h4.455c0.18,0,0.321,0.053,0.427,0.157
		c0.105,0.105,0.158,0.241,0.158,0.409v1.002h-8.874v-0.566c0-0.117,0.023-0.238,0.07-0.361c0.046-0.124,0.122-0.238,0.228-0.344
		l4.26-4.279c0.353-0.358,0.675-0.703,0.966-1.034c0.29-0.331,0.539-0.664,0.747-0.998c0.207-0.334,0.366-0.673,0.478-1.017
		s0.167-0.71,0.167-1.1s-0.062-0.731-0.186-1.025s-0.294-0.537-0.511-0.729c-0.216-0.192-0.47-0.336-0.761-0.432
		s-0.604-0.145-0.938-0.145s-0.644,0.05-0.928,0.148c-0.285,0.1-0.537,0.237-0.757,0.413c-0.22,0.177-0.405,0.386-0.557,0.627
		c-0.152,0.241-0.259,0.508-0.32,0.798c-0.05,0.18-0.124,0.31-0.223,0.391c-0.1,0.08-0.229,0.12-0.39,0.12
		c-0.031,0-0.063-0.001-0.098-0.005c-0.034-0.003-0.073-0.008-0.116-0.014l-0.863-0.148c0.087-0.606,0.254-1.144,0.501-1.61
		c0.248-0.467,0.562-0.858,0.942-1.174c0.381-0.316,0.816-0.556,1.309-0.72S438.833,200.207,439.403,200.207z"/>
	<path fill="#333333" d="M451.154,203.567c0,0.52-0.081,0.985-0.241,1.396c-0.161,0.411-0.376,0.758-0.646,1.039
		c-0.27,0.282-0.583,0.497-0.942,0.646c-0.358,0.148-0.733,0.223-1.123,0.223c-0.421,0-0.809-0.074-1.165-0.223
		c-0.355-0.148-0.666-0.363-0.933-0.646c-0.266-0.281-0.474-0.628-0.622-1.039s-0.223-0.877-0.223-1.396
		c0-0.532,0.074-1.006,0.223-1.42c0.148-0.415,0.356-0.765,0.622-1.049c0.267-0.285,0.577-0.502,0.933-0.65
		c0.356-0.148,0.744-0.223,1.165-0.223c0.415,0,0.803,0.074,1.165,0.223s0.675,0.365,0.938,0.65c0.263,0.284,0.47,0.634,0.622,1.049
		C451.077,202.562,451.154,203.035,451.154,203.567z M455.803,200.689c0.081-0.104,0.166-0.187,0.256-0.245
		c0.09-0.06,0.209-0.089,0.357-0.089h1.188l-9.718,13.031c-0.062,0.081-0.136,0.146-0.223,0.195s-0.188,0.074-0.307,0.074h-1.225
		L455.803,200.689z M449.864,203.567c0-0.408-0.044-0.755-0.131-1.04c-0.086-0.284-0.205-0.518-0.356-0.7
		c-0.152-0.183-0.328-0.314-0.529-0.395c-0.201-0.081-0.416-0.121-0.646-0.121c-0.229,0-0.443,0.04-0.645,0.121
		c-0.201,0.08-0.376,0.212-0.524,0.395s-0.265,0.416-0.349,0.7c-0.083,0.285-0.125,0.632-0.125,1.04
		c0,0.402,0.042,0.744,0.125,1.025c0.084,0.281,0.2,0.511,0.349,0.687c0.148,0.177,0.323,0.304,0.524,0.381s0.416,0.116,0.645,0.116
		c0.229,0,0.444-0.039,0.646-0.116s0.377-0.204,0.529-0.381c0.151-0.176,0.271-0.405,0.356-0.687
		C449.82,204.312,449.864,203.97,449.864,203.567z M458.504,210.519c0,0.521-0.08,0.984-0.241,1.393s-0.376,0.754-0.645,1.035
		c-0.27,0.281-0.582,0.496-0.938,0.645c-0.356,0.149-0.729,0.224-1.119,0.224c-0.421,0-0.809-0.074-1.165-0.224
		c-0.355-0.148-0.666-0.363-0.933-0.645c-0.266-0.281-0.473-0.627-0.622-1.035c-0.148-0.408-0.223-0.872-0.223-1.393
		c0-0.531,0.074-1.007,0.223-1.424c0.149-0.418,0.356-0.77,0.622-1.054c0.267-0.285,0.577-0.501,0.933-0.65
		c0.356-0.148,0.744-0.223,1.165-0.223c0.415,0,0.802,0.074,1.16,0.223c0.359,0.149,0.672,0.365,0.938,0.65
		c0.267,0.284,0.474,0.636,0.622,1.054C458.43,209.512,458.504,209.987,458.504,210.519z M457.224,210.519
		c0-0.408-0.044-0.756-0.131-1.044c-0.086-0.287-0.205-0.521-0.356-0.7c-0.152-0.18-0.328-0.31-0.529-0.391
		c-0.201-0.08-0.416-0.12-0.646-0.12c-0.229,0-0.443,0.04-0.645,0.12c-0.201,0.081-0.376,0.211-0.524,0.391
		c-0.148,0.179-0.265,0.413-0.349,0.7c-0.083,0.288-0.125,0.636-0.125,1.044c0,0.402,0.042,0.743,0.125,1.021
		c0.084,0.278,0.2,0.506,0.349,0.683c0.148,0.176,0.323,0.303,0.524,0.38c0.201,0.078,0.416,0.116,0.645,0.116
		c0.229,0,0.444-0.038,0.646-0.116c0.201-0.077,0.377-0.204,0.529-0.38c0.151-0.177,0.271-0.404,0.356-0.683
		C457.18,211.262,457.224,210.921,457.224,210.519z"/>
</g>
</svg>
