<?xml version="1.0" encoding="utf-8"?>
<!-- Generator: Adobe Illustrator 16.0.0, SVG Export Plug-In . SVG Version: 6.00 Build 0)  -->
<!DOCTYPE svg PUBLIC "-//W3C//DTD SVG 1.1//EN" "http://www.w3.org/Graphics/SVG/1.1/DTD/svg11.dtd">
<svg version="1.1" id="Layer_1" xmlns="http://www.w3.org/2000/svg" xmlns:xlink="http://www.w3.org/1999/xlink" x="0px" y="0px"
	 width="693px" height="457.394px" viewBox="0 0 693 457.394" enable-background="new 0 0 693 457.394" xml:space="preserve">
<text transform="matrix(1 0.0038 -0.0038 1 514.375 192.3579)" fill="#FFFFFF" font-family="'MyriadPro-Regular'" font-size="16.9864">TEACHERS</text>
<text transform="matrix(1 0.0038 -0.0038 1 514.375 331.5698)" fill="#FFFFFF" font-family="'MyriadPro-Regular'" font-size="16.9864">PARENTS</text>
<text transform="matrix(1 0.0038 -0.0038 1 514.375 434.9653)" fill="#FFFFFF" font-family="'MyriadPro-Regular'" font-size="16.9864">SGB MEMBERS</text>
<circle fill="#FFFFFF" stroke="#5DC7C3" stroke-width="1.2133" stroke-miterlimit="10" cx="489.351" cy="184.583" r="9.923"/>
<circle fill="#5DC7C3" cx="489.351" cy="324.115" r="9.923"/>
<path fill="#EEC900" d="M499.273,429.671c0,5.482-4.441,9.926-9.923,9.926s-9.923-4.443-9.923-9.926c0-5.477,4.441-9.92,9.923-9.92
	S499.273,424.195,499.273,429.671z"/>
<g>
	<g>
		<g>
			<g>
				<path fill="#FFFFFF" d="M230.538,356.772c72.32-0.271,131.038-58.912,131.038-130.953c0-43.449-21.611-83.938-57.842-108.418
					l41.512-59.456c55.78,38.068,89.068,100.788,89.068,167.874c0,111.62-91.048,202.754-203.069,203.382L230.538,356.772z"/>
				<path fill="#5DC7C3" d="M345.373,58.637c55.398,38.002,88.442,100.424,88.442,167.182c0,27.286-5.375,53.78-15.974,78.746
					c-10.236,24.11-24.888,45.786-43.547,64.424c-18.658,18.637-40.376,33.292-64.554,43.561
					c-24.728,10.502-50.964,15.933-77.999,16.147l-0.698-71.428c72.341-0.521,131.033-59.289,131.033-131.45
					c0-43.447-21.527-83.946-57.642-108.548L345.373,58.637 M345.119,57.253l-42.086,60.278
					c34.984,23.445,58.043,63.225,58.043,108.288c0,71.926-58.764,130.454-131.003,130.454c-0.013,0-0.013,0-0.04,0l0.717,73.43
					c112.58-0.363,204.064-91.691,204.064-203.884C434.814,155.832,399.225,93.989,345.119,57.253L345.119,57.253z"/>
			</g>
		</g>
		<path fill="#5DC7C3" d="M99.071,225.819c0-71.952,58.77-130.455,131.002-130.455c26.981,0,54.409,9.708,75.276,23.707
			l41.603-60.508c-32.817-22.286-74.262-36.633-116.879-36.633c-112.911,0-204.762,91.454-204.762,203.888
			c0,112.427,91.851,203.892,204.762,203.892c0.223,0,0.45-0.008,0.677-0.008l-0.717-73.43
			C157.825,356.255,99.071,297.745,99.071,225.819z"/>
	</g>
	<path fill="#EEC900" d="M232.216,355.812c-72.185,0.818-132.243-56.677-133.104-128.575c-8.734,0.186-54.729-0.01-73.752,0.525
		c0.003,0.093,0,0.183,0,0.275c1.302,112.418,95.754,204.625,208.119,201.76C233.7,429.791,232.216,355.812,232.216,355.812z"/>
</g>
<g>
	<path fill="#EEC900" d="M577.822,365.302l-9.502-0.045c-3.517,0.092-4.812,2.93-4.812,3.914v0.137v0.598v13.275
		c0,0.869,0.696,1.568,1.559,1.568c0.867,0,1.572-0.699,1.572-1.568v-11.482h1.337v11.006c0,0.15,0.013,0.301,0.036,0.438V402.8
		c0,1.266,0.978,2.291,2.184,2.291c1.208,0,2.182-1.025,2.182-2.291v-17.348h1.084V402.8c0,1.266,0.969,2.291,2.182,2.291
		c1.205,0,2.18-1.025,2.18-2.291v-20.096v-0.123v-10.883h1.186v11.482c0,0.869,0.754,1.568,1.683,1.568
		c0.927,0,1.681-0.699,1.681-1.568v-13.275v-0.598v-0.316C582.371,367.792,580.803,365.302,577.822,365.302z"/>
	<path fill="#EEC900" d="M572.939,364.572c2.08,0,3.768-1.682,3.768-3.764s-1.688-3.77-3.768-3.77c-2.082,0-3.77,1.688-3.77,3.77
		S570.857,364.572,572.939,364.572z"/>
</g>
<path fill="#EEC900" d="M464.537,365.302l-9.502-0.045c-3.516,0.092-4.811,2.93-4.811,3.914v0.137v0.598v13.275
	c0,0.869,0.693,1.568,1.561,1.568c0.865,0,1.57-0.699,1.57-1.568v-11.482h1.336v11.006c0,0.15,0.011,0.301,0.037,0.438V402.8
	c0,1.266,0.977,2.291,2.182,2.291s2.184-1.025,2.184-2.291v-17.348h1.079V402.8c0,1.266,0.977,2.291,2.186,2.291
	c1.204,0,2.179-1.025,2.179-2.291v-20.096v-0.123v-10.883h1.184v11.482c0,0.869,0.756,1.568,1.686,1.568
	c0.928,0,1.682-0.699,1.682-1.568v-13.275v-0.598v-0.316C469.088,367.792,467.518,365.302,464.537,365.302z"/>
<circle fill="#EEC900" cx="459.653" cy="360.805" r="3.767"/>
<path fill="#EEC900" d="M506.756,383.181c0,0.869,0.697,1.568,1.562,1.568c0.868,0,1.569-0.699,1.569-1.568v-2.111h-3.131V383.181z"
	/>
<path fill="#EEC900" d="M511.223,382.705c0,0.15,0.016,0.301,0.039,0.438V402.8c0,1.266,0.979,2.291,2.182,2.291
	c1.209,0,2.183-1.025,2.183-2.291v-17.348h1.083V402.8c0,1.266,0.975,2.291,2.184,2.291c1.206,0,2.178-1.025,2.178-2.291v-20.096
	v-0.123v-1.512h-9.848V382.705z"/>
<path fill="#EEC900" d="M522.256,381.07v2.111c0,0.869,0.752,1.568,1.687,1.568c0.923,0,1.677-0.699,1.677-1.568v-2.111H522.256z"/>
<path fill="#EEC900" d="M525.619,369.906v-0.598v-0.316c0-1.199-1.566-3.689-4.549-3.689l-9.5-0.045
	c-3.52,0.092-4.814,2.93-4.814,3.914v0.137v0.598v11.164h3.131v-9.371h1.336v9.371h9.848v-9.371h1.186v9.371h3.363V369.906z"/>
<path fill="#EEC900" d="M516.188,364.572c2.08,0,3.768-1.682,3.768-3.764s-1.688-3.77-3.768-3.77c-2.084,0-3.769,1.688-3.769,3.77
	S514.104,364.572,516.188,364.572z"/>
<path fill="#EEC900" d="M549.447,365.302l-9.502-0.045c-2.965,0.08-4.348,2.105-4.711,3.332h18.708
	C553.657,367.308,552.125,365.302,549.447,365.302z"/>
<path fill="#EEC900" d="M535.234,368.589c-0.066,0.225-0.105,0.43-0.105,0.582v0.137v0.598v13.275c0,0.869,0.702,1.568,1.562,1.568
	c0.869,0,1.57-0.699,1.57-1.568v-11.482h1.339v11.006c0,0.15,0.011,0.301,0.035,0.438V402.8c0,1.266,0.979,2.291,2.184,2.291
	c1.206,0,2.183-1.025,2.183-2.291v-17.348h1.081V402.8c0,1.266,0.976,2.291,2.187,2.291c1.201,0,2.178-1.025,2.178-2.291v-20.096
	v-0.123v-10.883h1.186v11.482c0,0.869,0.752,1.568,1.683,1.568c0.925,0,1.679-0.699,1.679-1.568v-13.275v-0.598v-0.316
	c0-0.123-0.019-0.262-0.052-0.402H535.234z"/>
<path fill="#EEC900" d="M544.563,364.572c2.081,0,3.767-1.682,3.767-3.764s-1.686-3.77-3.767-3.77c-2.083,0-3.771,1.688-3.771,3.77
	S542.48,364.572,544.563,364.572z"/>
<rect x="487.25" y="385.453" fill="#EEC900" width="1.085" height="7.662"/>
<path fill="#EEC900" d="M482.885,402.8c0,1.266,0.979,2.291,2.184,2.291c1.207,0,2.182-1.025,2.182-2.291v-9.686h-4.365V402.8z"/>
<path fill="#EEC900" d="M488.335,393.115v9.686c0,1.266,0.972,2.291,2.181,2.291c1.207,0,2.182-1.025,2.182-2.291v-9.686H488.335z"
	/>
<path fill="#EEC900" d="M492.697,382.705v-0.123v-10.883h1.184v11.482c0,0.869,0.754,1.568,1.684,1.568
	c0.928,0,1.682-0.699,1.682-1.568v-13.275v-0.598v-0.316c0-1.199-1.568-3.689-4.549-3.689l-9.504-0.045
	c-3.517,0.092-4.812,2.93-4.812,3.914v0.137v0.598v13.275c0,0.869,0.696,1.568,1.563,1.568c0.864,0,1.568-0.699,1.568-1.568v-11.482
	h1.339v11.006c0,0.15,0.01,0.301,0.033,0.438v9.973h4.365v-7.662h1.085v7.662h4.362V382.705z"/>
<circle fill="#EEC900" cx="487.812" cy="360.805" r="3.767"/>
<path fill="#EEC900" d="M602.707,365.302l-9.502-0.045c-3.52,0.092-4.814,2.93-4.814,3.914v0.137v0.598v13.275
	c0,0.869,0.696,1.568,1.563,1.568c0.862,0,1.567-0.699,1.567-1.568v-11.482h1.338v11.006c0,0.15,0.012,0.301,0.038,0.438V402.8
	c0,1.266,0.974,2.291,2.183,2.291c1.203,0,2.182-1.025,2.182-2.291v-17.348h1.083V402.8c0,1.266,0.974,2.291,2.181,2.291
	s2.182-1.025,2.182-2.291v-20.096v-0.123v-10.883h1.183v11.482c0,0.869,0.753,1.568,1.688,1.568c0.925,0,1.677-0.699,1.677-1.568
	v-13.275v-0.598v-0.316C607.254,367.792,605.687,365.302,602.707,365.302z"/>
<circle fill="#EEC900" cx="597.822" cy="360.805" r="3.767"/>
<path fill="#EEC900" d="M644.922,383.181c0,0.869,0.701,1.568,1.564,1.568c0.867,0,1.567-0.699,1.567-1.568v-2.111h-3.132V383.181z"
	/>
<path fill="#EEC900" d="M649.393,382.705c0,0.15,0.012,0.301,0.039,0.438V402.8c0,1.266,0.978,2.291,2.181,2.291
	s2.185-1.025,2.185-2.291v-17.348h1.079V402.8c0,1.266,0.974,2.291,2.185,2.291c1.207,0,2.179-1.025,2.179-2.291v-20.096v-0.123
	v-1.512h-9.847V382.705z"/>
<path fill="#EEC900" d="M663.786,369.906v-0.598v-0.316c0-1.199-1.565-3.689-4.547-3.689l-9.501-0.045
	c-3.518,0.092-4.816,2.93-4.816,3.914v0.137v0.598v11.164h3.132v-9.371h1.339v9.371h9.847v-9.371h1.185v9.371h3.362V369.906z"/>
<path fill="#EEC900" d="M654.356,364.572c2.079,0,3.767-1.682,3.767-3.764s-1.688-3.77-3.767-3.77c-2.083,0-3.769,1.688-3.769,3.77
	S652.273,364.572,654.356,364.572z"/>
<path fill="#EEC900" d="M621.054,402.8c0,1.266,0.977,2.291,2.186,2.291c1.204,0,2.179-1.025,2.179-2.291v-9.686h-4.364V402.8z"/>
<path fill="#EEC900" d="M626.504,393.115v9.686c0,1.266,0.973,2.291,2.18,2.291s2.182-1.025,2.182-2.291v-9.686H626.504z"/>
<path fill="#EEC900" d="M630.865,382.705v-0.123v-10.883h1.187v11.482c0,0.869,0.753,1.568,1.684,1.568
	c0.925,0,1.677-0.699,1.677-1.568v-13.275v-0.598v-0.316c0-1.199-1.568-3.689-4.547-3.689l-9.503-0.045
	c-3.52,0.092-4.813,2.93-4.813,3.914v0.137v0.598v13.275c0,0.869,0.697,1.568,1.562,1.568c0.866,0,1.571-0.699,1.571-1.568v-11.482
	h1.334v11.006c0,0.15,0.016,0.301,0.038,0.438v9.973h4.364v-7.662h1.086v7.662h4.361V382.705z"/>
<path fill="#EEC900" d="M625.979,364.572c2.082,0,3.77-1.682,3.77-3.764s-1.688-3.77-3.77-3.77c-2.077,0-3.768,1.688-3.768,3.77
	S623.901,364.572,625.979,364.572z"/>
<g>
	<g>
		<path fill="#FFFFFF" stroke="#5DC7C3" stroke-width="0.5809" stroke-miterlimit="10" d="M532.701,73.737l-9.504-0.045
			c-3.517,0.091-4.814,2.93-4.814,3.914v0.138v0.596v13.275c0,0.869,0.697,1.57,1.562,1.57c0.867,0,1.571-0.701,1.571-1.57v-11.48
			h1.338l0.035,31.1c0,1.266,0.977,2.291,2.184,2.291s2.182-1.025,2.182-2.291l-0.02-10.728l1.064,0.049l0.039,10.679
			c0,1.266,0.972,2.291,2.183,2.291c1.206,0,2.181-1.025,2.181-2.291v-31.1h1.185v11.48c0,0.869,0.751,1.57,1.683,1.57
			c0.924,0,1.678-0.701,1.678-1.57V78.339v-0.596v-0.317C537.246,76.226,535.68,73.737,532.701,73.737z"/>
		<path fill="#FFFFFF" stroke="#5DC7C3" stroke-width="0.5809" stroke-miterlimit="10" d="M527.818,73.008
			c2.078,0,3.766-1.684,3.766-3.767c0-2.081-1.688-3.768-3.766-3.768c-2.082,0-3.772,1.687-3.772,3.768
			C524.046,71.324,525.736,73.008,527.818,73.008z"/>
	</g>
	<g>
		<path fill="#FFFFFF" stroke="#5DC7C3" stroke-width="0.5809" stroke-miterlimit="10" d="M557.586,73.737l-9.506-0.045
			c-3.514,0.091-4.812,2.93-4.812,3.914v0.138v0.596v13.275c0,0.869,0.697,1.57,1.563,1.57c0.862,0,1.567-0.701,1.567-1.57v-11.48
			h1.338v11.004c0,0.153,0.012,0.302,0.039,0.438v19.657c0,1.266,0.973,2.291,2.18,2.291c1.205,0,2.185-1.025,2.185-2.291V93.888
			h1.083v17.346c0,1.266,0.975,2.291,2.18,2.291c1.207,0,2.184-1.025,2.184-2.291V91.138v-0.122V80.134h1.18v11.48
			c0,0.869,0.758,1.57,1.69,1.57c0.925,0,1.677-0.701,1.677-1.57V78.339v-0.596v-0.317
			C562.133,76.226,560.562,73.737,557.586,73.737z"/>
		<path fill="#FFFFFF" stroke="#5DC7C3" stroke-width="0.5809" stroke-miterlimit="10" d="M552.698,73.008
			c2.083,0,3.771-1.684,3.771-3.767c0-2.081-1.688-3.768-3.771-3.768c-2.082,0-3.767,1.687-3.767,3.768
			C548.932,71.324,550.616,73.008,552.698,73.008z"/>
	</g>
	<g>
		<path fill="#FFFFFF" stroke="#5DC7C3" stroke-width="0.5809" stroke-miterlimit="10" d="M519.436,118.892l-9.503-0.045
			c-3.519,0.093-4.814,2.932-4.814,3.917v0.137v0.597v13.274c0,0.867,0.694,1.571,1.56,1.571c0.867,0,1.571-0.704,1.571-1.571
			V125.29h1.339v11.005c0,0.151,0.012,0.3,0.035,0.439v19.657c0,1.263,0.978,2.289,2.184,2.289c1.205,0,2.182-1.026,2.182-2.289
			v-17.346h1.082v17.346c0,1.263,0.971,2.289,2.186,2.289c1.201,0,2.18-1.026,2.18-2.289v-20.097v-0.123V125.29h1.182v11.482
			c0,0.867,0.754,1.571,1.686,1.571c0.926,0,1.679-0.704,1.679-1.571v-13.274V122.9v-0.318
			C523.981,121.383,522.412,118.892,519.436,118.892z"/>
		<path fill="#FFFFFF" stroke="#5DC7C3" stroke-width="0.5809" stroke-miterlimit="10" d="M514.551,118.165
			c2.078,0,3.767-1.682,3.767-3.771c0-2.077-1.688-3.764-3.767-3.764c-2.084,0-3.771,1.687-3.771,3.764
			C510.779,116.483,512.467,118.165,514.551,118.165z"/>
	</g>
	<g>
		<path fill="#FFFFFF" stroke="#5DC7C3" stroke-width="0.5809" stroke-miterlimit="10" d="M545.51,28.468l-9.503-0.046
			c-3.519,0.093-4.815,2.932-4.815,3.917v0.137v0.598v13.272c0,0.87,0.695,1.572,1.561,1.572c0.867,0,1.572-0.702,1.572-1.572
			V34.865h1.335v11.006c0,0.151,0.017,0.299,0.038,0.44v19.656c0,1.264,0.978,2.289,2.184,2.289s2.183-1.024,2.183-2.289V48.621
			h1.083v17.347c0,1.264,0.971,2.289,2.184,2.289c1.201,0,2.18-1.024,2.18-2.289V45.872v-0.125V34.865h1.184v11.481
			c0,0.87,0.752,1.572,1.684,1.572c0.926,0,1.68-0.702,1.68-1.572V33.074v-0.598v-0.318
			C550.057,30.959,548.488,28.468,545.51,28.468z"/>
		<path fill="#FFFFFF" stroke="#5DC7C3" stroke-width="0.5809" stroke-miterlimit="10" d="M540.628,27.739
			c2.077,0,3.765-1.681,3.765-3.768c0-2.078-1.688-3.767-3.765-3.767c-2.085,0-3.774,1.688-3.774,3.767
			C536.854,26.058,538.543,27.739,540.628,27.739z"/>
	</g>
	<g>
		<path fill="#FFFFFF" stroke="#5DC7C3" stroke-width="0.5809" stroke-miterlimit="10" d="M544.316,118.892l-9.501-0.045
			c-3.517,0.093-4.813,2.932-4.813,3.917v0.137v0.597v13.274c0,0.867,0.695,1.571,1.562,1.571c0.863,0,1.566-0.704,1.566-1.571
			V125.29h1.34v11.005c0,0.151,0.013,0.3,0.037,0.439v19.657c0,1.263,0.975,2.289,2.182,2.289c1.205,0,2.181-1.026,2.181-2.289
			v-17.346h1.083v17.346c0,1.263,0.978,2.289,2.186,2.289c1.204,0,2.178-1.026,2.178-2.289v-20.097v-0.123V125.29h1.184v11.482
			c0,0.867,0.756,1.571,1.688,1.571c0.926,0,1.676-0.704,1.676-1.571v-13.274V122.9v-0.318
			C548.863,121.383,547.296,118.892,544.316,118.892z"/>
		<path fill="#FFFFFF" stroke="#5DC7C3" stroke-width="0.5809" stroke-miterlimit="10" d="M539.434,118.165
			c2.084,0,3.767-1.682,3.767-3.771c0-2.077-1.683-3.764-3.767-3.764c-2.085,0-3.769,1.687-3.769,3.764
			C535.665,116.483,537.349,118.165,539.434,118.165z"/>
	</g>
	<g>
		
			<rect x="567.028" y="139.045" fill="#FFFFFF" stroke="#5DC7C3" stroke-width="0.5809" stroke-miterlimit="10" width="1.085" height="7.66"/>
		<path fill="#FFFFFF" stroke="#5DC7C3" stroke-width="0.5809" stroke-miterlimit="10" d="M562.664,156.391
			c0,1.263,0.979,2.289,2.185,2.289s2.18-1.026,2.18-2.289v-9.687h-4.364V156.391z"/>
		<path fill="#FFFFFF" stroke="#5DC7C3" stroke-width="0.5809" stroke-miterlimit="10" d="M568.113,146.705v9.687
			c0,1.263,0.974,2.289,2.182,2.289c1.209,0,2.182-1.026,2.182-2.289v-9.687H568.113z"/>
		<path fill="#FFFFFF" stroke="#5DC7C3" stroke-width="0.5809" stroke-miterlimit="10" d="M572.477,136.294v-0.123V125.29h1.185
			v11.482c0,0.867,0.753,1.571,1.685,1.571c0.922,0,1.678-0.704,1.678-1.571v-13.274V122.9v-0.318c0-1.199-1.57-3.69-4.547-3.69
			l-9.505-0.045c-3.517,0.093-4.812,2.932-4.812,3.917v0.137v0.597v13.274c0,0.867,0.698,1.571,1.561,1.571
			c0.866,0,1.57-0.704,1.57-1.571V125.29h1.336v11.005c0,0.151,0.015,0.3,0.037,0.439v9.971h4.364v-7.66h1.085v7.66h4.363V136.294z"
			/>
		<path fill="#FFFFFF" stroke="#5DC7C3" stroke-width="0.5809" stroke-miterlimit="10" d="M567.592,118.165
			c2.082,0,3.766-1.682,3.766-3.771c0-2.077-1.684-3.764-3.766-3.764c-2.081,0-3.771,1.687-3.771,3.764
			C563.82,116.483,565.511,118.165,567.592,118.165z"/>
	</g>
	<polygon fill="#5DC7C3" points="522.83,89.327 519.195,100.46 537.057,100.605 532.557,89.47 	"/>
	<polygon fill="#5DC7C3" points="509.611,137.054 505.837,148.233 523.697,148.38 519.344,137.197 	"/>
	<polygon fill="#5DC7C3" points="562.76,137.197 558.984,148.38 576.845,148.525 572.488,137.344 	"/>
</g>
<g>
	<g>
		<path fill="#5DC7C3" d="M511.593,245.227l-9.504-0.045c-3.515,0.092-4.814,2.93-4.814,3.916v0.139v0.598v13.273
			c0,0.868,0.698,1.569,1.562,1.569c0.867,0,1.571-0.701,1.571-1.569v-11.482h1.338v11.005c0,0.151,0.013,0.298,0.035,0.438v19.657
			c0,1.263,0.979,2.29,2.184,2.29s2.182-1.027,2.182-2.29v-17.347h1.082v17.347c0,1.263,0.973,2.29,2.184,2.29
			c1.204,0,2.181-1.027,2.181-2.29V262.63v-0.122v-10.883h1.183v11.482c0,0.868,0.756,1.569,1.684,1.569s1.681-0.701,1.681-1.569
			v-13.273v-0.598v-0.321C516.14,247.718,514.57,245.227,511.593,245.227z"/>
		<path fill="#5DC7C3" d="M506.71,244.498c2.079,0,3.767-1.682,3.767-3.77c0-2.076-1.688-3.766-3.767-3.766
			c-2.082,0-3.771,1.689-3.771,3.766C502.938,242.816,504.628,244.498,506.71,244.498z"/>
	</g>
	<g>
		<path fill="#5DC7C3" d="M536.477,245.227l-9.502-0.045c-3.52,0.092-4.816,2.93-4.816,3.916v0.139v0.598v13.273
			c0,0.868,0.699,1.569,1.564,1.569c0.863,0,1.566-0.701,1.566-1.569v-11.482h1.341v11.005c0,0.151,0.011,0.298,0.038,0.438v19.657
			c0,1.263,0.973,2.29,2.18,2.29c1.205,0,2.184-1.027,2.184-2.29v-17.347h1.08v17.347c0,1.263,0.979,2.29,2.185,2.29
			s2.181-1.027,2.181-2.29V262.63v-0.122v-10.883h1.182v11.482c0,0.868,0.756,1.569,1.689,1.569c0.924,0,1.674-0.701,1.674-1.569
			v-13.273v-0.598v-0.321C541.021,247.718,539.455,245.227,536.477,245.227z"/>
		<path fill="#5DC7C3" d="M531.592,244.498c2.082,0,3.766-1.682,3.766-3.77c0-2.076-1.684-3.766-3.766-3.766
			c-2.084,0-3.77,1.689-3.77,3.766C527.822,242.816,529.508,244.498,531.592,244.498z"/>
	</g>
	<g>
		<path fill="#5DC7C3" d="M586.721,245.227l-9.504-0.045c-3.518,0.092-4.814,2.93-4.814,3.916v0.139v0.598v13.273
			c0,0.868,0.699,1.569,1.562,1.569c0.866,0,1.569-0.701,1.569-1.569v-11.482h1.34v11.005c0,0.151,0.012,0.298,0.037,0.438v19.657
			c0,1.263,0.975,2.29,2.183,2.29c1.202,0,2.181-1.027,2.181-2.29v-17.347h1.082v17.347c0,1.263,0.977,2.29,2.185,2.29
			c1.204,0,2.181-1.027,2.181-2.29V262.63v-0.122v-10.883h1.182v11.482c0,0.868,0.756,1.569,1.687,1.569
			c0.925,0,1.678-0.701,1.678-1.569v-13.273v-0.598v-0.321C591.267,247.718,589.699,245.227,586.721,245.227z"/>
		<path fill="#5DC7C3" d="M581.836,244.498c2.082,0,3.766-1.682,3.766-3.77c0-2.076-1.684-3.766-3.766-3.766
			c-2.084,0-3.771,1.689-3.771,3.766C578.065,242.816,579.752,244.498,581.836,244.498z"/>
	</g>
	<g>
		<rect x="559.189" y="265.379" fill="#5DC7C3" width="1.084" height="7.661"/>
		<path fill="#5DC7C3" d="M554.824,282.726c0,1.263,0.978,2.29,2.186,2.29c1.203,0,2.18-1.027,2.18-2.29v-9.686h-4.365V282.726z"/>
		<path fill="#5DC7C3" d="M560.273,273.04v9.686c0,1.263,0.97,2.29,2.179,2.29c1.208,0,2.183-1.027,2.183-2.29v-9.686H560.273z"/>
		<path fill="#5DC7C3" d="M564.635,262.63v-0.122v-10.883h1.186v11.482c0,0.868,0.751,1.569,1.686,1.569
			c0.92,0,1.678-0.701,1.678-1.569v-13.273v-0.598v-0.321c0-1.197-1.572-3.688-4.549-3.688l-9.506-0.045
			c-3.516,0.092-4.81,2.93-4.81,3.916v0.139v0.598v13.273c0,0.868,0.696,1.569,1.56,1.569c0.867,0,1.572-0.701,1.572-1.569v-11.482
			h1.335v11.005c0,0.151,0.015,0.298,0.038,0.438v9.972h4.365v-7.661h1.084v7.661h4.361V262.63z"/>
		<path fill="#5DC7C3" d="M559.748,244.498c2.083,0,3.77-1.682,3.77-3.77c0-2.076-1.687-3.766-3.77-3.766
			c-2.078,0-3.768,1.689-3.768,3.766C555.98,242.816,557.67,244.498,559.748,244.498z"/>
	</g>
	<polygon fill="#5DC7C3" points="501.77,263.388 497.994,274.567 515.855,274.715 511.5,263.531 	"/>
	<polygon fill="#5DC7C3" points="554.92,263.531 551.143,274.715 569.004,274.859 564.648,263.678 	"/>
</g>
<g>
	<path fill="none" stroke="#ED1C24" stroke-width="2.4906" stroke-miterlimit="10" d="M220.566,256.469
		c-5.911,0-10.715-4.805-10.715-10.719c0-5.905,4.804-10.715,10.715-10.715s10.72,4.81,10.72,10.715
		C231.286,251.664,226.478,256.469,220.566,256.469 M220.566,223.139H182.18v7.111l17.62,6.57c-1.186,2.739-1.846,5.763-1.846,8.93
		c0,12.47,10.145,22.618,22.613,22.618c12.474,0,22.616-10.148,22.616-22.618S233.04,223.139,220.566,223.139z"/>
	<path fill="none" stroke="#ED1C24" stroke-width="2.4906" stroke-miterlimit="10" d="M266.361,245.75h-12.242
		c0-18.584-15.121-33.707-33.711-33.707v-12.24C245.747,199.803,266.361,220.417,266.361,245.75"/>
	<path fill="none" stroke="#ED1C24" stroke-width="2.4906" stroke-miterlimit="10" d="M288.639,245.75h-12.243
		c0-30.871-25.116-55.982-55.989-55.982v-12.241C258.031,177.526,288.639,208.131,288.639,245.75"/>
</g>
</svg>
