<?xml version="1.0" encoding="utf-8"?>
<!-- Generator: Adobe Illustrator 16.0.0, SVG Export Plug-In . SVG Version: 6.00 Build 0)  -->
<!DOCTYPE svg PUBLIC "-//W3C//DTD SVG 1.1//EN" "http://www.w3.org/Graphics/SVG/1.1/DTD/svg11.dtd">
<svg version="1.1" id="Layer_1" xmlns="http://www.w3.org/2000/svg" xmlns:xlink="http://www.w3.org/1999/xlink" x="0px" y="0px"
	 width="500px" height="408px" viewBox="0 0 500 408" enable-background="new 0 0 500 408" xml:space="preserve">
<path fill="#0E5461" d="M272.704,18.308c-92.443,35.007-139.171,138.7-104.161,231.144
	c27.219,71.879,95.961,116.106,168.652,115.777v-20.485c-64.428,0.339-125.37-38.845-149.493-102.548
	c-31.006-81.877,10.377-173.717,92.26-204.728c50.172-18.999,104.066-10.785,145.435,17.252c4.785-5.201,9.626-10.197,14.897-14.612
	C393.174,6.575,330.729-3.667,272.704,18.308z"/>
<g>
	<g>
		<g>
			<path fill="#FFFFFF" d="M334.877,271.881c47.856-0.271,86.681-39.265,86.681-87.157c0-28.862-14.269-55.762-38.196-72.064
				l27.269-39.218c36.772,25.266,58.708,66.827,58.708,111.282c0,73.996-60.066,134.422-133.996,134.933L334.877,271.881z"/>
			<path fill="#465560" d="M410.756,74.136c36.39,25.199,58.082,66.463,58.082,110.587c0,73.56-59.568,133.658-133.001,134.429
				l-0.455-46.776c47.885-0.527,86.676-39.645,86.676-87.652c0-28.86-14.185-55.77-37.998-72.191L410.756,74.136 M410.503,72.749
				l-27.841,40.041c23.144,15.574,38.396,41.999,38.396,71.934c0,47.78-38.872,86.658-86.658,86.658c-0.01,0-0.01,0-0.027,0
				l0.475,48.777c74.473-0.241,134.991-60.908,134.991-135.436C469.838,138.233,446.294,97.151,410.503,72.749L410.503,72.749z"/>
		</g>
	</g>
	<path fill="#465560" d="M339.853,392.729c0,3.025-2.443,5.468-5.48,5.468c-3.008,0-5.455-2.442-5.455-5.468
		c0-3.008,2.447-5.456,5.455-5.456C337.409,387.272,339.853,389.721,339.853,392.729z"/>
	<path fill="#5DC7C3" d="M247.738,184.724c0-47.796,38.877-86.659,86.661-86.659c17.847,0,35.992,6.45,49.796,15.749l27.521-40.194
		c-21.709-14.804-49.125-24.334-77.316-24.334c-74.692,0-135.452,60.751-135.452,135.438c0,74.683,60.76,135.443,135.452,135.443
		c0.146,0,0.298-0.008,0.447-0.008l-0.475-48.777C286.605,271.37,247.738,232.504,247.738,184.724z"/>
	<path fill="none" stroke="#465560" stroke-width="5.6696" stroke-miterlimit="10" d="M335.391,200.391v192.338V200.391z"/>
</g>
<g>
	<path fill="#E6E7E8" d="M214.933,186.667c0,0.323-0.103,0.586-0.307,0.787c-0.205,0.202-0.545,0.302-1.021,0.302h-3.644
		l-0.476,2.765c0.598-0.122,1.145-0.183,1.639-0.183c0.696,0,1.308,0.104,1.836,0.311c0.528,0.208,0.972,0.495,1.332,0.861
		s0.632,0.795,0.815,1.287c0.183,0.491,0.275,1.021,0.275,1.588c0,0.702-0.124,1.343-0.371,1.923c-0.247,0.58-0.59,1.076-1.03,1.488
		s-0.96,0.731-1.561,0.957c-0.602,0.226-1.256,0.339-1.964,0.339c-0.416,0-0.809-0.043-1.181-0.128
		c-0.373-0.085-0.722-0.2-1.048-0.344c-0.327-0.143-0.629-0.308-0.907-0.494s-0.526-0.383-0.746-0.591l0.696-0.961
		c0.146-0.207,0.342-0.311,0.586-0.311c0.153,0,0.307,0.049,0.462,0.146s0.337,0.205,0.545,0.32c0.208,0.116,0.449,0.223,0.723,0.32
		c0.275,0.098,0.607,0.147,0.998,0.147c0.415,0,0.781-0.067,1.099-0.202s0.582-0.322,0.792-0.563s0.369-0.528,0.476-0.861
		c0.107-0.333,0.16-0.694,0.16-1.085c0-0.72-0.209-1.283-0.627-1.689c-0.418-0.406-1.033-0.609-1.845-0.609
		c-0.641,0-1.285,0.116-1.932,0.348l-1.41-0.403l1.099-6.427h6.537V186.667z"/>
	<path fill="#E6E7E8" d="M221.809,199.091c-0.684,0-1.308-0.091-1.873-0.275c-0.564-0.183-1.048-0.442-1.451-0.778
		c-0.403-0.336-0.716-0.742-0.938-1.218s-0.334-1.007-0.334-1.593c0-0.781,0.192-1.442,0.577-1.982
		c0.384-0.54,0.982-0.941,1.794-1.204c-0.647-0.269-1.131-0.65-1.451-1.145c-0.32-0.495-0.48-1.09-0.48-1.786
		c0-0.5,0.102-0.967,0.307-1.401c0.204-0.433,0.49-0.81,0.856-1.131c0.366-0.32,0.804-0.57,1.314-0.75
		c0.509-0.18,1.069-0.27,1.68-0.27c0.61,0,1.17,0.09,1.68,0.27c0.51,0.18,0.948,0.43,1.314,0.75
		c0.366,0.321,0.651,0.698,0.856,1.131c0.205,0.434,0.307,0.9,0.307,1.401c0,0.696-0.162,1.291-0.485,1.786
		c-0.324,0.494-0.806,0.876-1.447,1.145c0.812,0.262,1.41,0.664,1.794,1.204c0.385,0.541,0.577,1.201,0.577,1.982
		c0,0.586-0.112,1.117-0.334,1.593s-0.536,0.882-0.938,1.218c-0.403,0.335-0.887,0.595-1.451,0.778
		C223.116,199,222.492,199.091,221.809,199.091z M221.809,197.324c0.372,0,0.699-0.053,0.979-0.16s0.517-0.255,0.709-0.444
		c0.192-0.189,0.337-0.415,0.435-0.677s0.146-0.546,0.146-0.852c0-0.727-0.202-1.276-0.604-1.648
		c-0.403-0.373-0.958-0.559-1.666-0.559c-0.708,0-1.264,0.186-1.667,0.559c-0.403,0.372-0.604,0.921-0.604,1.648
		c0,0.305,0.049,0.589,0.146,0.852s0.243,0.488,0.435,0.677c0.192,0.189,0.429,0.337,0.709,0.444S221.436,197.324,221.809,197.324z
		 M221.809,191.208c0.366,0,0.674-0.058,0.924-0.174c0.25-0.116,0.452-0.27,0.604-0.462c0.152-0.192,0.261-0.412,0.325-0.659
		c0.064-0.247,0.096-0.502,0.096-0.765c0-0.25-0.04-0.488-0.119-0.714c-0.08-0.226-0.199-0.426-0.357-0.6
		c-0.159-0.174-0.36-0.312-0.604-0.417c-0.244-0.104-0.534-0.156-0.87-0.156c-0.336,0-0.626,0.052-0.87,0.156
		c-0.244,0.104-0.447,0.243-0.609,0.417c-0.162,0.174-0.281,0.374-0.357,0.6c-0.076,0.226-0.114,0.464-0.114,0.714
		c0,0.263,0.032,0.518,0.096,0.765c0.064,0.247,0.172,0.467,0.325,0.659c0.153,0.192,0.354,0.347,0.604,0.462
		C221.134,191.15,221.442,191.208,221.809,191.208z"/>
	<path fill="#E6E7E8" d="M233.793,188.91c0,0.5-0.084,0.952-0.252,1.355s-0.393,0.746-0.673,1.03
		c-0.281,0.284-0.607,0.502-0.98,0.655c-0.372,0.153-0.76,0.229-1.163,0.229c-0.439,0-0.846-0.076-1.218-0.229
		c-0.373-0.152-0.694-0.371-0.966-0.655c-0.272-0.284-0.484-0.627-0.636-1.03c-0.153-0.403-0.229-0.854-0.229-1.355
		c0-0.513,0.076-0.977,0.229-1.392c0.152-0.415,0.364-0.766,0.636-1.053c0.271-0.287,0.593-0.508,0.966-0.664
		c0.372-0.156,0.778-0.234,1.218-0.234s0.847,0.078,1.222,0.234c0.375,0.155,0.701,0.377,0.975,0.664
		c0.275,0.287,0.488,0.638,0.641,1.053C233.716,187.934,233.793,188.397,233.793,188.91z M238.197,186.062
		c0.073-0.091,0.165-0.174,0.274-0.247s0.263-0.11,0.458-0.11h1.639l-9.833,12.9c-0.073,0.098-0.167,0.179-0.279,0.243
		c-0.113,0.064-0.249,0.096-0.408,0.096h-1.685L238.197,186.062z M232.044,188.91c0-0.354-0.034-0.65-0.101-0.888
		c-0.067-0.238-0.16-0.431-0.279-0.577s-0.26-0.251-0.421-0.315c-0.162-0.064-0.334-0.096-0.517-0.096s-0.354,0.032-0.513,0.096
		c-0.159,0.064-0.296,0.169-0.412,0.315c-0.116,0.146-0.206,0.339-0.27,0.577c-0.064,0.238-0.096,0.534-0.096,0.888
		c0,0.342,0.032,0.627,0.096,0.856s0.154,0.414,0.27,0.554c0.116,0.141,0.253,0.241,0.412,0.302s0.33,0.092,0.513,0.092
		s0.355-0.031,0.517-0.092s0.302-0.162,0.421-0.302c0.119-0.14,0.212-0.325,0.279-0.554
		C232.01,189.537,232.044,189.252,232.044,188.91z M241.264,195.832c0,0.5-0.084,0.952-0.251,1.355
		c-0.168,0.403-0.393,0.746-0.673,1.03c-0.281,0.284-0.608,0.504-0.98,0.659c-0.372,0.156-0.76,0.234-1.163,0.234
		c-0.439,0-0.846-0.078-1.218-0.234c-0.373-0.155-0.694-0.375-0.966-0.659c-0.272-0.284-0.484-0.627-0.637-1.03
		c-0.152-0.403-0.229-0.854-0.229-1.355c0-0.513,0.076-0.977,0.229-1.392c0.153-0.415,0.365-0.766,0.637-1.053
		c0.271-0.287,0.593-0.508,0.966-0.664c0.372-0.156,0.778-0.234,1.218-0.234s0.847,0.078,1.222,0.234
		c0.375,0.155,0.7,0.377,0.975,0.664c0.275,0.287,0.488,0.638,0.641,1.053C241.188,194.855,241.264,195.319,241.264,195.832z
		 M239.524,195.832c0-0.354-0.035-0.65-0.105-0.888c-0.07-0.238-0.165-0.431-0.284-0.577s-0.26-0.251-0.421-0.316
		c-0.162-0.064-0.334-0.096-0.517-0.096s-0.354,0.032-0.513,0.096c-0.159,0.064-0.295,0.169-0.408,0.316s-0.203,0.339-0.27,0.577
		c-0.067,0.238-0.101,0.534-0.101,0.888c0,0.342,0.033,0.628,0.101,0.86s0.157,0.418,0.27,0.559
		c0.113,0.141,0.249,0.241,0.408,0.302c0.159,0.061,0.33,0.091,0.513,0.091s0.355-0.03,0.517-0.091s0.302-0.162,0.421-0.302
		c0.119-0.14,0.213-0.327,0.284-0.559S239.524,196.174,239.524,195.832z"/>
</g>
<g>
	<path fill="#333333" d="M429.128,200.389c0.556,0,1.068,0.08,1.538,0.238s0.874,0.385,1.213,0.678s0.603,0.647,0.792,1.062
		s0.284,0.876,0.284,1.382c0,0.415-0.054,0.786-0.16,1.112c-0.107,0.327-0.26,0.614-0.458,0.861s-0.438,0.457-0.719,0.627
		c-0.281,0.171-0.595,0.308-0.943,0.412c0.854,0.226,1.497,0.604,1.928,1.135c0.43,0.531,0.646,1.197,0.646,1.996
		c0,0.604-0.114,1.148-0.344,1.63c-0.229,0.482-0.542,0.893-0.938,1.231s-0.859,0.598-1.387,0.778
		c-0.528,0.18-1.095,0.27-1.698,0.27c-0.696,0-1.291-0.087-1.786-0.261c-0.494-0.174-0.912-0.414-1.254-0.719
		s-0.623-0.667-0.843-1.085s-0.405-0.872-0.558-1.36l0.695-0.293c0.128-0.055,0.257-0.083,0.385-0.083
		c0.122,0,0.23,0.026,0.325,0.078s0.166,0.133,0.215,0.243c0.012,0.024,0.024,0.05,0.037,0.078c0.012,0.027,0.023,0.057,0.036,0.087
		c0.085,0.177,0.189,0.377,0.312,0.6c0.122,0.223,0.287,0.432,0.494,0.627s0.466,0.36,0.773,0.494
		c0.309,0.134,0.691,0.202,1.149,0.202s0.859-0.075,1.204-0.225c0.345-0.149,0.632-0.343,0.86-0.581
		c0.229-0.238,0.401-0.504,0.518-0.797c0.115-0.293,0.174-0.583,0.174-0.87c0-0.354-0.048-0.678-0.142-0.971
		c-0.095-0.293-0.266-0.546-0.513-0.76c-0.248-0.213-0.59-0.381-1.025-0.503c-0.437-0.122-0.997-0.183-1.681-0.183v-1.19
		c0.556,0,1.03-0.058,1.424-0.174c0.394-0.116,0.716-0.275,0.966-0.476c0.25-0.202,0.432-0.443,0.545-0.724s0.169-0.592,0.169-0.934
		c0-0.378-0.059-0.708-0.178-0.989s-0.283-0.513-0.49-0.696c-0.208-0.183-0.453-0.32-0.737-0.412
		c-0.283-0.092-0.59-0.138-0.92-0.138c-0.329,0-0.635,0.049-0.915,0.146c-0.281,0.098-0.53,0.233-0.747,0.407
		s-0.397,0.381-0.544,0.622c-0.146,0.241-0.257,0.501-0.33,0.782c-0.049,0.177-0.122,0.305-0.22,0.384
		c-0.098,0.079-0.223,0.119-0.375,0.119c-0.031,0-0.063-0.001-0.097-0.004s-0.071-0.007-0.114-0.014l-0.852-0.144
		c0.086-0.598,0.25-1.127,0.494-1.588s0.555-0.847,0.93-1.158c0.375-0.312,0.806-0.548,1.291-0.71
		C428.043,200.47,428.566,200.389,429.128,200.389z"/>
	<path fill="#333333" d="M439.574,200.389c0.555,0,1.074,0.083,1.557,0.248c0.481,0.165,0.898,0.404,1.249,0.719
		c0.352,0.314,0.628,0.697,0.829,1.149s0.302,0.964,0.302,1.538c0,0.488-0.073,0.94-0.22,1.355
		c-0.146,0.416-0.345,0.813-0.595,1.195c-0.251,0.382-0.539,0.751-0.865,1.108c-0.327,0.357-0.673,0.722-1.039,1.094l-3.452,3.534
		c0.244-0.067,0.491-0.121,0.741-0.16c0.251-0.04,0.492-0.06,0.724-0.06h4.395c0.178,0,0.317,0.052,0.422,0.156
		c0.104,0.104,0.155,0.238,0.155,0.403v0.989h-8.753v-0.559c0-0.116,0.022-0.235,0.068-0.357s0.121-0.235,0.225-0.339l4.202-4.221
		c0.349-0.354,0.666-0.694,0.952-1.021c0.287-0.327,0.533-0.655,0.737-0.984c0.205-0.33,0.362-0.664,0.472-1.002
		c0.11-0.339,0.165-0.7,0.165-1.085s-0.062-0.722-0.184-1.012s-0.29-0.529-0.503-0.719c-0.214-0.189-0.464-0.331-0.751-0.426
		s-0.596-0.142-0.925-0.142c-0.33,0-0.635,0.049-0.916,0.146c-0.28,0.098-0.529,0.234-0.746,0.408s-0.399,0.38-0.549,0.618
		c-0.149,0.238-0.255,0.5-0.316,0.787c-0.049,0.177-0.122,0.305-0.22,0.385c-0.098,0.079-0.226,0.119-0.384,0.119
		c-0.031,0-0.063-0.001-0.097-0.004c-0.033-0.003-0.071-0.007-0.114-0.014l-0.852-0.146c0.085-0.598,0.25-1.127,0.494-1.588
		s0.554-0.847,0.93-1.158c0.375-0.312,0.806-0.548,1.291-0.71C438.489,200.47,439.013,200.389,439.574,200.389z"/>
	<path fill="#333333" d="M451.165,203.703c0,0.513-0.079,0.972-0.237,1.378c-0.159,0.406-0.371,0.748-0.637,1.026
		s-0.575,0.49-0.929,0.636c-0.354,0.146-0.724,0.22-1.108,0.22c-0.415,0-0.798-0.073-1.149-0.22
		c-0.351-0.146-0.657-0.358-0.92-0.636s-0.467-0.62-0.613-1.026c-0.146-0.406-0.22-0.865-0.22-1.378c0-0.525,0.073-0.992,0.22-1.401
		c0.146-0.409,0.351-0.753,0.613-1.034s0.569-0.495,0.92-0.641c0.352-0.146,0.734-0.22,1.149-0.22c0.409,0,0.792,0.073,1.149,0.22
		c0.356,0.146,0.665,0.36,0.925,0.641c0.259,0.281,0.464,0.625,0.613,1.034C451.091,202.711,451.165,203.178,451.165,203.703z
		 M455.753,200.865c0.079-0.104,0.163-0.185,0.251-0.243c0.089-0.058,0.206-0.087,0.353-0.087h1.172l-9.586,12.855
		c-0.061,0.08-0.134,0.144-0.22,0.192c-0.085,0.049-0.186,0.073-0.302,0.073h-1.209L455.753,200.865z M449.893,203.703
		c0-0.403-0.043-0.745-0.128-1.025c-0.086-0.281-0.203-0.511-0.353-0.691c-0.149-0.18-0.323-0.31-0.521-0.389
		c-0.199-0.08-0.411-0.119-0.637-0.119s-0.438,0.04-0.637,0.119c-0.198,0.079-0.37,0.209-0.517,0.389
		c-0.146,0.18-0.261,0.41-0.344,0.691c-0.082,0.281-0.123,0.623-0.123,1.025c0,0.397,0.041,0.734,0.123,1.012
		c0.083,0.278,0.197,0.504,0.344,0.678s0.318,0.299,0.517,0.375c0.199,0.076,0.411,0.114,0.637,0.114s0.438-0.038,0.637-0.114
		c0.198-0.076,0.372-0.202,0.521-0.375s0.267-0.4,0.353-0.678C449.85,204.438,449.893,204.1,449.893,203.703z M458.417,210.561
		c0,0.513-0.079,0.971-0.238,1.374c-0.158,0.403-0.371,0.743-0.636,1.021c-0.266,0.278-0.574,0.49-0.925,0.636
		c-0.352,0.146-0.719,0.22-1.104,0.22c-0.415,0-0.798-0.073-1.149-0.22c-0.351-0.146-0.657-0.358-0.92-0.636
		s-0.467-0.618-0.613-1.021s-0.22-0.861-0.22-1.374c0-0.525,0.073-0.993,0.22-1.405s0.351-0.758,0.613-1.039s0.569-0.495,0.92-0.641
		c0.352-0.146,0.734-0.22,1.149-0.22c0.409,0,0.79,0.073,1.145,0.22c0.354,0.146,0.662,0.36,0.925,0.641
		c0.262,0.281,0.467,0.627,0.613,1.039S458.417,210.036,458.417,210.561z M457.153,210.561c0-0.403-0.043-0.746-0.128-1.03
		c-0.086-0.284-0.203-0.514-0.353-0.691s-0.323-0.305-0.522-0.385c-0.198-0.079-0.41-0.119-0.636-0.119s-0.438,0.04-0.637,0.119
		c-0.198,0.08-0.37,0.208-0.517,0.385s-0.262,0.407-0.344,0.691c-0.082,0.284-0.124,0.627-0.124,1.03
		c0,0.397,0.042,0.732,0.124,1.007c0.082,0.274,0.197,0.499,0.344,0.673s0.318,0.299,0.517,0.375s0.411,0.114,0.637,0.114
		s0.438-0.038,0.636-0.114c0.199-0.076,0.373-0.202,0.522-0.375s0.267-0.398,0.353-0.673
		C457.11,211.293,457.153,210.958,457.153,210.561z"/>
</g>
<path fill-rule="evenodd" clip-rule="evenodd" fill="#ED1C24" d="M162.149,106.21c-3.859,8.428-5.617,16.705-5.02,25.496
	c0.122,1.785-0.929,3.677-1.546,5.482c-2.873,8.446,0.635,17.814,8.37,22.228c7.765,4.431,17.668,2.714,23.409-4.05
	c5.799-6.845,5.938-17.02,0.319-23.725c-5.267-6.29-5.333-8.664-0.12-16.284c4.834,1.787,9.929,3.368,14.754,5.541
	c4.8,2.163,7.004,6.926,5.665,12.167c-5.141,20.1-10.234,40.219-15.979,60.154c-0.91,3.162-4.583,6.247-7.742,7.938
	c-32.883,17.56-65.919,34.829-98.911,52.176c-5.454,2.867-10.867,5.812-16.373,8.57c-6.778,3.399-12.39,1.666-15.903-5
	c-13.93-26.378-27.812-52.78-41.642-79.211c-3.428-6.555-1.523-12.39,5.106-15.872c29.274-15.378,58.592-30.677,87.874-46.042
	c9.458-4.964,18.898-9.946,28.254-15.1c4.009-2.205,7.854-2.462,12.095-0.791C150.317,102.084,155.996,103.99,162.149,106.21z
	 M64.354,249.086c33.741-17.742,67.032-35.247,100.426-52.805c-13.484-25.643-26.697-50.775-39.952-75.981
	c-33.639,17.688-66.946,35.201-100.426,52.804C37.775,198.54,50.951,223.597,64.354,249.086z"/>
<path fill-rule="evenodd" clip-rule="evenodd" fill="#ED1C24" d="M244.456,102.071c-16.338-22.58-49.898-23.094-68.089-1.041
	c-10.606,12.87-12.906,30.818-5.646,44.095c2.217,4.057,5.773,5.622,9.142,3.71c3.652-2.075,4.534-5.223,2.806-9.116
	c-0.724-1.619-1.354-3.303-1.835-5.012c-3.902-13.827,4.465-29.078,18.94-34.599c13.972-5.33,29.608,0.356,35.778,13.013
	c6.722,13.781-0.225,30.812-15.363,38.047c-0.639,0.304-1.317,0.687-1.951,1.131c0.565,1.125,0.868,2.368,0.721,3.673
	c-0.06,0.526-0.103,1.056-0.119,1.586c0.115,0.51,0.202,1.029,0.218,1.564c0.072,2.384-0.88,4.325-2.373,6.102
	c-0.716,0.852-1.707,1.442-2.608,2.088c-0.12,0.086-0.247,0.156-0.373,0.231c0.044,0.063,0.087,0.127,0.131,0.19
	c5.702-2.431,11.773-4.254,17.047-7.4C251.44,148.071,257.714,120.396,244.456,102.071z"/>
<path fill-rule="evenodd" clip-rule="evenodd" fill="#FFFFFF" d="M64.852,249.228c-13.402-25.489-26.578-50.546-39.953-75.982
	c34.173-17.966,68.171-35.842,102.504-53.896c13.256,25.207,26.47,50.34,39.954,75.982
	C133.271,213.253,99.291,231.118,64.852,249.228z"/>
<g>
	<path fill="#ED1C24" d="M68.459,184.485l-10.537,5.54l2.669,7.654c0.593-0.42,1.143-0.818,2.162-1.354
		c2.125-1.117,4.495-1.767,6.731-1.641c2.814,0.093,5.85,1.533,7.682,5.018c2.838,5.396,0.669,11.689-5.322,14.84
		c-3.017,1.586-6.013,2.077-7.777,1.919l-0.562-3.337c1.505,0.076,4.203-0.259,6.71-1.576c3.527-1.854,5.337-5.735,3.394-9.431
		c-1.919-3.549-5.639-4.846-11.163-1.941c-1.572,0.826-2.715,1.645-3.667,2.309l-5.187-14.195l13.214-6.948L68.459,184.485z"/>
	<path fill="#ED1C24" d="M82.611,199.334c-1.832-3.483-1.045-7.043,1.594-10.274l-0.109-0.104c-3.819,0.163-6.387-1.524-7.638-3.902
		c-2.302-4.377-0.168-9.294,4.675-11.841c5.354-2.815,9.795-0.866,11.605,2.575c1.229,2.337,1.4,5.446-1.151,8.849l0.067,0.128
		c4.156-0.45,7.554,0.854,9.319,4.211c2.524,4.802,0.102,10.197-5.167,12.968C90.028,204.98,84.734,203.371,82.611,199.334z
		 M79.85,182.943c1.452,2.761,4.316,3.153,7.95,2.328c1.955-2.059,2.888-4.72,1.57-7.227c-1.162-2.209-3.686-3.81-7.042-2.045
		C79.227,177.631,78.599,180.563,79.85,182.943z M97.394,191.346c-1.765-3.357-4.951-3.743-9.249-2.84
		c-2.737,2.634-3.362,5.674-1.978,8.308c1.348,2.872,4.768,4.22,8.294,2.365C97.818,197.413,98.89,194.192,97.394,191.346z"/>
	<path fill="#ED1C24" d="M110.449,168.317c3.061,5.82,1.521,10.318-2.048,12.195c-3.442,1.81-7.868,0.611-10.837-4.933
		c-2.904-5.522-1.518-10.21,2.136-12.131C103.566,161.416,107.679,163.049,110.449,168.317z M100.471,173.89
		c1.77,3.571,4.495,5.556,6.832,4.327c2.464-1.296,2.184-4.512,0.262-8.166c-1.765-3.356-4.217-5.646-6.809-4.284
		C98.419,166.995,98.639,170.405,100.471,173.89z M114.246,192.246l1.217-37.086l2.38-1.251l-1.218,37.086L114.246,192.246z
		 M134.432,170.297c3.061,5.82,1.521,10.318-2.006,12.173c-3.441,1.81-7.868,0.611-10.814-4.89
		c-2.927-5.566-1.541-10.254,2.113-12.175C127.591,163.372,131.662,165.028,134.432,170.297z M124.454,175.869
		c1.812,3.549,4.58,5.511,6.874,4.304c2.464-1.296,2.184-4.511,0.263-8.164c-1.766-3.357-4.217-5.647-6.809-4.285
		C122.444,168.952,122.622,172.385,124.454,175.869z"/>
</g>
<path fill="none" stroke="#52B9CF" stroke-width="1.2487" stroke-miterlimit="10" d="M216.88,146.193
	c4.879,16.554,2.351,16.598-6.991,25.298"/>
</svg>
