<?xml version="1.0" encoding="utf-8"?>
<!-- Generator: Adobe Illustrator 16.0.0, SVG Export Plug-In . SVG Version: 6.00 Build 0)  -->
<!DOCTYPE svg PUBLIC "-//W3C//DTD SVG 1.1//EN" "http://www.w3.org/Graphics/SVG/1.1/DTD/svg11.dtd">
<svg version="1.1" id="Layer_1" xmlns="http://www.w3.org/2000/svg" xmlns:xlink="http://www.w3.org/1999/xlink" x="0px" y="0px"
	 width="636.33px" height="601px" viewBox="0 0 636.33 601" enable-background="new 0 0 636.33 601" xml:space="preserve">
<g>
	<path opacity="0.7" fill="#6FB6D1" d="M110.509,150.794l-3.417-2.079c-2.092,3.437-4.133,6.972-6.069,10.507l3.509,1.921
		C106.438,157.662,108.449,154.18,110.509,150.794z"/>
	<path opacity="0.7" fill="#6FB6D1" d="M213.796,54.132l-1.848-3.548c-3.563,1.855-7.13,3.817-10.602,5.83l2.007,3.46
		C206.772,57.892,210.286,55.96,213.796,54.132z"/>
	<path opacity="0.7" fill="#6FB6D1" d="M138.907,112.446l-2.985-2.662c-2.674,3-5.319,6.104-7.86,9.229l3.104,2.524
		C133.668,118.459,136.273,115.401,138.907,112.446z"/>
	<path opacity="0.7" fill="#6FB6D1" d="M193.18,66.087l-2.162-3.365c-3.38,2.171-6.757,4.45-10.035,6.772l2.312,3.264
		C186.524,70.47,189.85,68.226,193.18,66.087z"/>
	<path opacity="0.7" fill="#6FB6D1" d="M173.722,79.871l-2.457-3.156c-3.17,2.468-6.327,5.044-9.386,7.657l2.598,3.041
		C167.49,84.839,170.6,82.302,173.722,79.871z"/>
	<path opacity="0.7" fill="#6FB6D1" d="M123.841,130.971l-3.215-2.381c-2.396,3.235-4.749,6.568-6.995,9.907l3.319,2.232
		C119.163,137.441,121.48,134.158,123.841,130.971z"/>
	<path opacity="0.7" fill="#6FB6D1" d="M85.951,381.964c1.432,3.744,2.971,7.509,4.575,11.189l3.667-1.598
		c-1.58-3.625-3.096-7.332-4.505-11.02L85.951,381.964z"/>
	<path opacity="0.7" fill="#6FB6D1" d="M78.343,358.959c1.086,3.872,2.277,7.771,3.54,11.59l3.798-1.256
		c-1.244-3.761-2.417-7.602-3.486-11.414L78.343,358.959z"/>
	<path opacity="0.7" fill="#6FB6D1" d="M95.608,404.126c1.769,3.601,3.646,7.213,5.58,10.734l3.506-1.926
		c-1.905-3.468-3.754-7.025-5.495-10.572L95.608,404.126z"/>
	<path opacity="0.7" fill="#6FB6D1" d="M73.565,310.989l-3.983,0.363c0.365,4.012,0.827,8.062,1.373,12.039l3.963-0.544
		C74.38,318.931,73.925,314.941,73.565,310.989z"/>
	<path opacity="0.7" fill="#6FB6D1" d="M99.033,171.758l-3.593-1.759c-1.768,3.611-3.479,7.32-5.086,11.024l3.67,1.592
		C95.606,178.967,97.292,175.314,99.033,171.758z"/>
	<path opacity="0.7" fill="#6FB6D1" d="M76.808,334.631l-3.934,0.724c0.728,3.955,1.556,7.947,2.464,11.865l3.896-0.902
		C78.34,342.458,77.524,338.526,76.808,334.631z"/>
	<path opacity="0.7" fill="#6FB6D1" d="M507.164,84.049c-3.064-2.608-6.229-5.18-9.408-7.646l-2.451,3.16
		c3.131,2.429,6.249,4.963,9.268,7.532L507.164,84.049z"/>
	<path opacity="0.7" fill="#6FB6D1" d="M522.081,97.77c-1.934-1.915-3.888-3.815-5.865-5.658l-2.727,2.926
		c1.685,1.571,3.354,3.182,5.01,4.808C519.656,99.098,520.851,98.405,522.081,97.77z"/>
	<path opacity="0.7" fill="#6FB6D1" d="M596.948,286.385l0.001,0.507c0,3.974-0.09,7.989-0.267,11.933l3.996,0.18
		c0.18-4.003,0.271-8.079,0.271-12.124l-0.001-0.495H596.948z"/>
	<path opacity="0.7" fill="#6FB6D1" d="M579.646,193.014c0.688,1.793,1.357,3.606,2.009,5.424c0.98-0.097,1.968-0.16,2.969-0.16
		c0.411,0,0.817,0.021,1.225,0.038c-0.797-2.258-1.614-4.511-2.468-6.735L579.646,193.014z"/>
	<path opacity="0.7" fill="#6FB6D1" d="M570.113,171.196c1.742,3.538,3.43,7.172,5.017,10.803l3.666-1.603
		c-1.611-3.686-3.325-7.375-5.095-10.968L570.113,171.196z"/>
	<path opacity="0.7" fill="#6FB6D1" d="M595.88,310.732c-0.354,3.942-0.806,7.932-1.34,11.86l3.963,0.539
		c0.543-3.987,1-8.038,1.361-12.04L595.88,310.732z"/>
	<path opacity="0.7" fill="#6FB6D1" d="M454.354,520.298c0.499,1.242,0.946,2.511,1.334,3.806c0.518-0.264,1.043-0.519,1.558-0.786
		l-1.844-3.549C455.057,519.948,454.702,520.119,454.354,520.298z"/>
	<path opacity="0.7" fill="#6FB6D1" d="M280.992,30.161l-0.815-3.916c-3.943,0.821-7.914,1.744-11.804,2.741l0.993,3.875
		C273.197,31.878,277.109,30.97,280.992,30.161z"/>
	<path opacity="0.7" fill="#6FB6D1" d="M257.876,36.089l-1.171-3.825c-3.846,1.177-7.716,2.459-11.503,3.811l1.345,3.768
		C250.276,38.511,254.088,37.249,257.876,36.089z"/>
	<path opacity="0.7" fill="#6FB6D1" d="M400.303,28.795c-3.897-0.988-7.872-1.898-11.812-2.707l-0.804,3.919
		c3.881,0.796,7.795,1.692,11.634,2.665L400.303,28.795z"/>
	<path opacity="0.7" fill="#6FB6D1" d="M235.4,44.11l-1.516-3.701c-3.713,1.521-7.442,3.148-11.082,4.836l1.684,3.629
		C228.071,47.211,231.743,45.608,235.4,44.11z"/>
	<path opacity="0.7" fill="#6FB6D1" d="M376.567,23.925c-3.968-0.626-8.008-1.171-12.009-1.617l-0.443,3.976
		c3.94,0.439,7.92,0.976,11.828,1.593L376.567,23.925z"/>
	<path opacity="0.7" fill="#6FB6D1" d="M72.474,287.145l-4,0.003c0.003,4.021,0.098,8.097,0.282,12.116l3.996-0.183
		C72.571,295.122,72.478,291.105,72.474,287.145z"/>
	<path opacity="0.7" fill="#6FB6D1" d="M485.92,501.172l2.309,3.266c3.282-2.319,6.555-4.746,9.728-7.212l-2.455-3.158
		C492.376,496.496,489.152,498.887,485.92,501.172z"/>
	<path opacity="0.7" fill="#6FB6D1" d="M465.85,514.036l2.004,3.461c3.481-2.015,6.958-4.134,10.335-6.298l-2.158-3.367
		C472.704,509.963,469.278,512.051,465.85,514.036z"/>
	<path opacity="0.7" fill="#6FB6D1" d="M479.768,63.622c-0.636,1.177-1.328,2.32-2.074,3.422c2.695,1.757,5.384,3.561,8.011,5.414
		l2.305-3.269C485.308,67.284,482.541,65.428,479.768,63.622z"/>
	<path opacity="0.7" fill="#6FB6D1" d="M352.734,548.521l0.271,3.99c4.016-0.272,8.076-0.64,12.067-1.093l-0.451-3.975
		C360.689,547.89,356.69,548.252,352.734,548.521z"/>
	<path opacity="0.7" fill="#6FB6D1" d="M316.162,21.291l0.274,3.99c3.951-0.271,7.963-0.457,11.925-0.551l-0.095-3.999
		C324.245,20.826,320.172,21.015,316.162,21.291z"/>
	<path opacity="0.7" fill="#6FB6D1" d="M340.302,24.712c3.965,0.083,7.978,0.257,11.924,0.517l0.264-3.991
		c-4.006-0.264-8.079-0.441-12.104-0.525L340.302,24.712z"/>
	<path opacity="0.7" fill="#6FB6D1" d="M328.87,549.065l-0.088,4c1.971,0.043,3.948,0.064,5.929,0.064
		c2.06,0,4.142-0.023,6.189-0.071l-0.092-3.998C336.851,549.15,332.83,549.153,328.87,549.065z"/>
	<path opacity="0.7" fill="#6FB6D1" d="M565.889,410.761c-0.375,0.699-0.741,1.408-1.121,2.101l3.506,1.924
		c0.945-1.722,1.877-3.468,2.79-5.224C569.376,410.103,567.65,410.512,565.889,410.761z"/>
	<path opacity="0.7" fill="#6FB6D1" d="M552.33,433.263l3.316,2.236c2.247-3.334,4.45-6.77,6.55-10.212l-3.416-2.082
		C556.713,426.596,554.543,429.979,552.33,433.263z"/>
	<path opacity="0.7" fill="#6FB6D1" d="M538.098,452.441l3.102,2.527c2.542-3.12,5.047-6.34,7.445-9.57l-3.213-2.385
		C543.07,446.197,540.603,449.369,538.098,452.441z"/>
	<path opacity="0.7" fill="#6FB6D1" d="M504.753,486.535l2.596,3.043c3.067-2.616,6.108-5.33,9.039-8.066l-2.73-2.924
		C510.771,481.284,507.775,483.958,504.753,486.535z"/>
	<path opacity="0.7" fill="#6FB6D1" d="M522.193,470.247l2.859,2.797c2.819-2.884,5.604-5.862,8.276-8.854l-2.982-2.664
		C527.714,464.473,524.971,467.407,522.193,470.247z"/>
	<path opacity="0.7" fill="#6FB6D1" d="M191.266,511.22c3.389,2.173,6.875,4.296,10.362,6.312l2.002-3.463
		c-3.434-1.986-6.868-4.077-10.206-6.217L191.266,511.22z"/>
	<path opacity="0.7" fill="#6FB6D1" d="M153.02,481.496c2.934,2.742,5.977,5.458,9.044,8.073l2.595-3.045
		c-3.021-2.575-6.018-5.25-8.907-7.95L153.02,481.496z"/>
	<path opacity="0.7" fill="#6FB6D1" d="M107.252,425.333c2.092,3.429,4.291,6.856,6.537,10.188l3.316-2.236
		c-2.211-3.28-4.377-6.657-6.438-10.034L107.252,425.333z"/>
	<path opacity="0.7" fill="#6FB6D1" d="M152.848,92.445c-2.936,2.748-5.849,5.6-8.658,8.477l2.862,2.794
		c2.767-2.834,5.637-5.644,8.529-8.35L152.848,92.445z"/>
	<path opacity="0.7" fill="#6FB6D1" d="M171.465,497.224c3.177,2.47,6.454,4.9,9.741,7.223l2.309-3.266
		c-3.237-2.288-6.465-4.683-9.594-7.115L171.465,497.224z"/>
	<path opacity="0.7" fill="#6FB6D1" d="M120.782,445.403c2.391,3.223,4.893,6.439,7.436,9.56l3.101-2.527
		c-2.504-3.073-4.969-6.241-7.324-9.415L120.782,445.403z"/>
	<path opacity="0.7" fill="#6FB6D1" d="M136.081,464.178c2.685,3.005,5.468,5.982,8.272,8.851l2.86-2.797
		c-2.763-2.825-5.505-5.759-8.15-8.72L136.081,464.178z"/>
	<path opacity="0.7" fill="#6FB6D1" d="M234.306,533.547c3.737,1.522,7.557,2.978,11.352,4.324l1.337-3.77
		c-3.737-1.326-7.499-2.759-11.179-4.259L234.306,533.547z"/>
	<path opacity="0.7" fill="#6FB6D1" d="M280.682,547.645c3.93,0.81,7.94,1.541,11.921,2.175l0.628-3.951
		c-3.921-0.623-7.871-1.344-11.742-2.142L280.682,547.645z"/>
	<path opacity="0.7" fill="#6FB6D1" d="M292.093,24.047l0.635,3.949c3.911-0.629,7.889-1.177,11.824-1.627l-0.455-3.974
		C300.102,22.853,296.063,23.408,292.093,24.047z"/>
	<path opacity="0.7" fill="#6FB6D1" d="M304.609,551.446c3.985,0.449,8.045,0.813,12.069,1.082l0.267-3.99
		c-3.963-0.266-7.963-0.624-11.887-1.066L304.609,551.446z"/>
	<path opacity="0.7" fill="#6FB6D1" d="M257.2,541.671c3.853,1.17,7.78,2.266,11.673,3.256l0.986-3.877
		c-3.834-0.975-7.702-2.054-11.497-3.207L257.2,541.671z"/>
	<path opacity="0.7" fill="#6FB6D1" d="M212.27,523.365c3.579,1.856,7.246,3.654,10.9,5.343l1.678-3.631
		c-3.599-1.663-7.211-3.434-10.736-5.263L212.27,523.365z"/>
</g>
<g>
	<path fill="#5DC7C3" d="M398.35,189.523l39.896-61.134c-10.502-6.851-20.516-12.092-32.127-16.816l-27.495,67.612
		C385.576,182.01,392.172,185.483,398.35,189.523z"/>
	<path fill="#0E5461" d="M443.41,245.416l68.203-26.006c-14.886-39.046-38.372-68.181-73.367-91.021l-39.896,61.134
		C418.816,202.906,434.658,222.51,443.41,245.416z"/>
	<path fill="#C8B330" d="M450.981,289.093l73.011,1.438c0.489-25.067-3.443-47.691-12.379-71.121l-68.203,26.006
		C448.608,259.016,451.299,273.779,450.981,289.093z"/>
	<path fill="#7FD8F7" d="M523.992,290.531l-73.011-1.438c-0.052,2.536-0.179,5.085-0.397,7.647
		c-1.701,19.8-8.276,38.008-18.439,53.551l61.133,39.896C513.832,358.691,523.248,328.133,523.992,290.531z"/>
	<path fill="#5E7E53" d="M324.925,402.528c-14.778-1.269-28.667-5.258-41.226-11.422l-32.144,65.531
		c86.293,42.327,189.192,14.04,241.722-66.451l-61.133-39.896C409.501,384.923,369.038,406.315,324.925,402.528z"/>
	<path opacity="0.7" fill="#F26066" d="M219.139,276.869c5.487-63.911,61.746-111.274,125.658-105.787
		c11.932,1.024,23.285,3.821,33.828,8.104l27.495-67.612c-96.778-39.353-207.134,7.198-246.486,103.976
		c-37.779,92.903,1.878,196.919,91.923,241.089l32.144-65.531C241.94,370.61,214.92,326.004,219.139,276.869z"/>
</g>
<g>
	<path fill="#FFFFFF" d="M36.054,252.019h2.41c0.249,0,0.457,0.059,0.624,0.176c0.167,0.118,0.279,0.276,0.335,0.475l2.623,9.223
		c0.064,0.228,0.123,0.475,0.176,0.741c0.054,0.266,0.105,0.549,0.155,0.848c0.057-0.299,0.119-0.582,0.187-0.848
		c0.067-0.267,0.141-0.514,0.219-0.741l3.028-9.223c0.057-0.164,0.169-0.312,0.336-0.448c0.167-0.135,0.372-0.203,0.613-0.203h0.842
		c0.249,0,0.455,0.059,0.619,0.176c0.163,0.118,0.277,0.276,0.341,0.475l3.007,9.223c0.156,0.455,0.292,0.959,0.405,1.514
		c0.05-0.277,0.101-0.544,0.155-0.8c0.053-0.256,0.108-0.494,0.165-0.714l2.623-9.223c0.05-0.178,0.16-0.331,0.331-0.458
		c0.17-0.128,0.376-0.192,0.618-0.192h2.25l-4.788,15.418h-2.591l-3.369-10.535c-0.043-0.135-0.087-0.281-0.133-0.437
		c-0.046-0.156-0.091-0.323-0.133-0.501c-0.043,0.178-0.087,0.345-0.133,0.501c-0.046,0.156-0.091,0.302-0.133,0.437l-3.401,10.535
		h-2.591L36.054,252.019z"/>
	<path fill="#FFFFFF" d="M63.734,256.327c0.689,0,1.324,0.11,1.903,0.331c0.579,0.22,1.079,0.542,1.498,0.965
		c0.419,0.423,0.747,0.942,0.981,1.557c0.234,0.615,0.352,1.317,0.352,2.106c0,0.199-0.009,0.364-0.027,0.496
		c-0.018,0.131-0.05,0.234-0.096,0.309c-0.046,0.075-0.108,0.128-0.187,0.16c-0.078,0.032-0.178,0.048-0.298,0.048H61.1
		c0.079,1.123,0.38,1.948,0.907,2.474c0.526,0.526,1.222,0.789,2.09,0.789c0.426,0,0.794-0.05,1.104-0.149
		c0.309-0.1,0.579-0.209,0.81-0.331c0.231-0.121,0.434-0.231,0.608-0.331c0.174-0.1,0.343-0.149,0.506-0.149
		c0.106,0,0.199,0.021,0.277,0.064c0.078,0.043,0.146,0.104,0.203,0.182l0.768,0.959c-0.292,0.341-0.619,0.627-0.981,0.858
		s-0.741,0.416-1.136,0.554s-0.796,0.236-1.205,0.293c-0.409,0.057-0.805,0.085-1.189,0.085c-0.761,0-1.468-0.126-2.122-0.379
		c-0.654-0.252-1.223-0.625-1.706-1.12c-0.483-0.494-0.864-1.105-1.141-1.833c-0.277-0.729-0.416-1.573-0.416-2.533
		c0-0.746,0.121-1.448,0.362-2.105c0.242-0.658,0.588-1.23,1.04-1.717c0.452-0.487,1.002-0.873,1.653-1.157
		S62.917,256.327,63.734,256.327z M63.787,258.214c-0.768,0-1.368,0.217-1.802,0.65s-0.711,1.049-0.832,1.845h4.947
		c0-0.341-0.046-0.663-0.139-0.965s-0.234-0.567-0.427-0.794c-0.192-0.228-0.434-0.407-0.725-0.539
		C64.52,258.28,64.178,258.214,63.787,258.214z"/>
	<path fill="#FFFFFF" d="M70.643,267.437v-15.844h2.634v6.248c0.433-0.462,0.924-0.83,1.471-1.104s1.187-0.411,1.919-0.411
		c0.597,0,1.142,0.123,1.636,0.368c0.494,0.246,0.921,0.603,1.28,1.072s0.636,1.049,0.832,1.738c0.195,0.69,0.293,1.482,0.293,2.378
		c0,0.817-0.11,1.575-0.331,2.271c-0.221,0.697-0.535,1.301-0.944,1.813c-0.409,0.512-0.903,0.912-1.482,1.199
		c-0.58,0.288-1.228,0.432-1.946,0.432c-0.334,0-0.64-0.034-0.917-0.102s-0.53-0.162-0.757-0.283
		c-0.228-0.121-0.439-0.268-0.634-0.442c-0.195-0.174-0.382-0.368-0.56-0.581l-0.118,0.736c-0.042,0.185-0.115,0.316-0.218,0.395
		s-0.244,0.117-0.421,0.117H70.643z M75.76,258.374c-0.547,0-1.015,0.116-1.402,0.346c-0.388,0.231-0.748,0.557-1.082,0.976v4.904
		c0.298,0.37,0.624,0.627,0.976,0.773c0.352,0.146,0.734,0.218,1.146,0.218c0.398,0,0.757-0.075,1.077-0.224
		c0.32-0.149,0.591-0.377,0.815-0.683s0.396-0.691,0.517-1.157c0.121-0.465,0.181-1.015,0.181-1.647c0-0.64-0.051-1.182-0.154-1.626
		c-0.104-0.444-0.25-0.805-0.443-1.082c-0.192-0.277-0.425-0.48-0.698-0.608S76.109,258.374,75.76,258.374z"/>
</g>
<g opacity="0.7">
	<path fill="#0F789F" d="M218.21,478.752c-52.33-31.303-89.265-81.082-104.064-140.233c-14.886-59.083-5.807-120.399,25.5-172.68
		c31.312-52.323,81.084-89.258,140.244-104.056c59.069-14.881,120.437-5.818,172.668,25.507l-11.23,18.848
		c-47.288-28.293-102.753-36.48-156.139-23.065c-53.385,13.413-98.373,46.81-126.668,94.045
		c-28.263,47.227-36.516,102.655-23.086,156.091c13.42,53.389,46.783,98.432,94.008,126.686
		c47.28,28.291,102.698,36.494,156.146,23.119l5.301,21.289C331.804,519.135,270.476,510.068,218.21,478.752z"/>
</g>
<g>
	<g>
		<path fill="#FFFFFF" d="M400.643,578.361c-0.072,0.113-0.146,0.193-0.225,0.24s-0.178,0.068-0.299,0.068
			c-0.127,0-0.265-0.035-0.41-0.105c-0.146-0.072-0.314-0.152-0.506-0.24c-0.192-0.09-0.411-0.17-0.656-0.24
			s-0.535-0.107-0.869-0.107c-0.519,0-0.927,0.111-1.226,0.332c-0.298,0.221-0.448,0.508-0.448,0.863
			c0,0.234,0.076,0.432,0.229,0.592s0.355,0.301,0.608,0.42c0.252,0.121,0.539,0.23,0.858,0.326s0.647,0.201,0.981,0.314
			s0.661,0.244,0.981,0.389c0.32,0.146,0.606,0.332,0.858,0.555c0.252,0.225,0.455,0.492,0.607,0.805
			c0.152,0.314,0.229,0.689,0.229,1.131c0,0.525-0.097,1.012-0.288,1.455c-0.191,0.445-0.473,0.828-0.842,1.152
			c-0.37,0.322-0.827,0.576-1.371,0.756c-0.543,0.182-1.167,0.273-1.871,0.273c-0.377,0-0.745-0.035-1.104-0.102
			c-0.359-0.068-0.704-0.162-1.034-0.283s-0.636-0.264-0.917-0.426c-0.281-0.164-0.528-0.342-0.741-0.533l0.608-1.002
			c0.078-0.121,0.17-0.215,0.277-0.277c0.106-0.064,0.241-0.096,0.405-0.096s0.318,0.045,0.464,0.137
			c0.146,0.094,0.314,0.193,0.506,0.299c0.192,0.107,0.418,0.207,0.677,0.299c0.259,0.094,0.588,0.139,0.986,0.139
			c0.312,0,0.581-0.037,0.805-0.111c0.224-0.074,0.409-0.172,0.554-0.293s0.252-0.262,0.32-0.422s0.102-0.324,0.102-0.496
			c0-0.256-0.077-0.465-0.229-0.629s-0.355-0.305-0.607-0.426c-0.252-0.121-0.541-0.23-0.864-0.326
			c-0.324-0.096-0.654-0.201-0.992-0.314c-0.338-0.113-0.668-0.246-0.992-0.4c-0.323-0.152-0.611-0.346-0.864-0.58
			s-0.455-0.523-0.607-0.863c-0.153-0.342-0.229-0.754-0.229-1.236c0-0.449,0.089-0.875,0.267-1.281
			c0.178-0.404,0.439-0.758,0.784-1.061c0.345-0.301,0.775-0.543,1.29-0.725c0.516-0.182,1.111-0.271,1.786-0.271
			c0.753,0,1.439,0.123,2.058,0.373c0.619,0.248,1.133,0.576,1.546,0.98L400.643,578.361z"/>
		<path fill="#FFFFFF" d="M403.467,587.168v-10.939h1.611c0.341,0,0.564,0.16,0.671,0.48l0.171,0.811
			c0.191-0.213,0.393-0.41,0.603-0.588c0.21-0.176,0.433-0.33,0.671-0.457c0.238-0.129,0.494-0.23,0.769-0.305
			c0.273-0.074,0.573-0.111,0.901-0.111c0.689,0,1.256,0.186,1.7,0.559s0.776,0.869,0.997,1.488c0.17-0.363,0.383-0.674,0.64-0.934
			c0.256-0.26,0.536-0.471,0.843-0.635c0.305-0.162,0.63-0.283,0.975-0.361c0.346-0.078,0.691-0.117,1.04-0.117
			c0.604,0,1.141,0.092,1.61,0.277c0.469,0.184,0.863,0.455,1.184,0.811c0.319,0.355,0.562,0.789,0.73,1.301
			c0.166,0.512,0.25,1.098,0.25,1.758v6.963h-2.634v-6.963c0-0.695-0.153-1.221-0.458-1.572c-0.307-0.352-0.754-0.527-1.344-0.527
			c-0.271,0-0.521,0.047-0.752,0.139s-0.434,0.225-0.607,0.4c-0.174,0.174-0.311,0.393-0.41,0.654c-0.1,0.264-0.15,0.566-0.15,0.906
			v6.963h-2.644v-6.963c0-0.73-0.147-1.264-0.442-1.598c-0.295-0.336-0.73-0.502-1.307-0.502c-0.377,0-0.73,0.094-1.061,0.283
			c-0.33,0.188-0.639,0.445-0.922,0.771v8.008H403.467z"/>
		<path fill="#FFFFFF" d="M427.916,578.361c-0.071,0.113-0.146,0.193-0.225,0.24s-0.178,0.068-0.298,0.068
			c-0.128,0-0.265-0.035-0.411-0.105c-0.145-0.072-0.314-0.152-0.506-0.24c-0.191-0.09-0.41-0.17-0.656-0.24
			c-0.244-0.07-0.535-0.107-0.869-0.107c-0.519,0-0.927,0.111-1.226,0.332c-0.298,0.221-0.448,0.508-0.448,0.863
			c0,0.234,0.076,0.432,0.229,0.592s0.355,0.301,0.608,0.42c0.252,0.121,0.538,0.23,0.857,0.326c0.32,0.096,0.647,0.201,0.981,0.314
			s0.661,0.244,0.981,0.389c0.319,0.146,0.605,0.332,0.857,0.555c0.252,0.225,0.455,0.492,0.607,0.805
			c0.153,0.314,0.23,0.689,0.23,1.131c0,0.525-0.097,1.012-0.289,1.455c-0.191,0.445-0.473,0.828-0.842,1.152
			c-0.369,0.322-0.826,0.576-1.37,0.756c-0.544,0.182-1.167,0.273-1.871,0.273c-0.377,0-0.745-0.035-1.104-0.102
			c-0.358-0.068-0.704-0.162-1.034-0.283s-0.637-0.264-0.917-0.426c-0.28-0.164-0.528-0.342-0.741-0.533l0.607-1.002
			c0.078-0.121,0.171-0.215,0.277-0.277c0.107-0.064,0.242-0.096,0.405-0.096s0.318,0.045,0.464,0.137
			c0.146,0.094,0.314,0.193,0.506,0.299c0.193,0.107,0.418,0.207,0.678,0.299c0.26,0.094,0.588,0.139,0.986,0.139
			c0.312,0,0.581-0.037,0.805-0.111c0.225-0.074,0.409-0.172,0.555-0.293s0.252-0.262,0.32-0.422
			c0.066-0.16,0.102-0.324,0.102-0.496c0-0.256-0.077-0.465-0.23-0.629c-0.152-0.164-0.355-0.305-0.607-0.426
			s-0.54-0.23-0.863-0.326c-0.324-0.096-0.654-0.201-0.992-0.314s-0.668-0.246-0.991-0.4c-0.323-0.152-0.611-0.346-0.864-0.58
			c-0.252-0.234-0.454-0.523-0.607-0.863c-0.152-0.342-0.229-0.754-0.229-1.236c0-0.449,0.088-0.875,0.266-1.281
			c0.178-0.404,0.439-0.758,0.784-1.061c0.345-0.301,0.774-0.543,1.29-0.725s1.111-0.271,1.786-0.271
			c0.753,0,1.439,0.123,2.058,0.373c0.619,0.248,1.134,0.576,1.547,0.98L427.916,578.361z"/>
	</g>
	<path fill="#5E7E53" d="M421.542,537.326v6.709h-20.43v-23.637h7.576c-0.025-0.369-0.042-0.74-0.042-1.111
		c0-1.303,0.175-2.568,0.5-3.787h-7.74c-2.504,0-4.551,2.051-4.551,4.557v41.213c0,2.506,2.047,4.555,4.551,4.555h19.842
		c2.506,0,4.556-2.049,4.556-4.555v-25.531c-0.375-0.029-0.75-0.059-1.119-0.109C423.726,536.197,422.651,536.773,421.542,537.326z
		 M406.814,561.818c0,0.268-0.22,0.486-0.489,0.486h-4.958c-0.268,0-0.489-0.219-0.489-0.486v-1.518c0-0.27,0.222-0.488,0.489-0.488
		h4.958c0.27,0,0.489,0.219,0.489,0.488V561.818z M406.814,557.588c0,0.271-0.22,0.49-0.489,0.49h-4.958
		c-0.268,0-0.489-0.219-0.489-0.49v-1.518c0-0.268,0.222-0.488,0.489-0.488h4.958c0.27,0,0.489,0.221,0.489,0.488V557.588z
		 M406.814,553.359c0,0.271-0.22,0.488-0.489,0.488h-4.958c-0.268,0-0.489-0.217-0.489-0.488v-1.52c0-0.266,0.222-0.484,0.489-0.484
		h4.958c0.27,0,0.489,0.219,0.489,0.484V553.359z M406.814,549.129c0,0.271-0.22,0.492-0.489,0.492h-4.958
		c-0.268,0-0.489-0.221-0.489-0.492v-1.516c0-0.268,0.222-0.49,0.489-0.49h4.958c0.27,0,0.489,0.223,0.489,0.49V549.129z
		 M414.296,561.818c0,0.268-0.215,0.486-0.489,0.486h-4.96c-0.269,0-0.49-0.219-0.49-0.486v-1.518c0-0.27,0.222-0.488,0.49-0.488
		h4.96c0.274,0,0.489,0.219,0.489,0.488V561.818z M414.296,557.588c0,0.271-0.215,0.49-0.489,0.49h-4.96
		c-0.269,0-0.49-0.219-0.49-0.49v-1.518c0-0.268,0.222-0.488,0.49-0.488h4.96c0.274,0,0.489,0.221,0.489,0.488V557.588z
		 M414.296,553.359c0,0.271-0.215,0.488-0.489,0.488h-4.96c-0.269,0-0.49-0.217-0.49-0.488v-1.52c0-0.266,0.222-0.484,0.49-0.484
		h4.96c0.274,0,0.489,0.219,0.489,0.484V553.359z M414.296,549.129c0,0.271-0.215,0.492-0.489,0.492h-4.96
		c-0.269,0-0.49-0.221-0.49-0.492v-1.516c0-0.268,0.222-0.49,0.49-0.49h4.96c0.274,0,0.489,0.223,0.489,0.49V549.129z
		 M421.779,561.818c0,0.268-0.218,0.486-0.49,0.486h-4.957c-0.273,0-0.492-0.219-0.492-0.486v-1.518c0-0.27,0.219-0.488,0.492-0.488
		h4.957c0.272,0,0.49,0.219,0.49,0.488V561.818z M421.779,557.588c0,0.271-0.218,0.49-0.49,0.49h-4.957
		c-0.273,0-0.492-0.219-0.492-0.49v-1.518c0-0.268,0.219-0.488,0.492-0.488h4.957c0.272,0,0.49,0.221,0.49,0.488V557.588z
		 M421.779,553.359c0,0.271-0.218,0.488-0.49,0.488h-4.957c-0.273,0-0.492-0.217-0.492-0.488v-1.52c0-0.266,0.219-0.484,0.492-0.484
		h4.957c0.272,0,0.49,0.219,0.49,0.484V553.359z M421.779,549.129c0,0.271-0.218,0.492-0.49,0.492h-4.957
		c-0.273,0-0.492-0.221-0.492-0.492v-1.516c0-0.268,0.219-0.49,0.492-0.49h4.957c0.272,0,0.49,0.223,0.49,0.49V549.129z
		 M427.377,504.492c-9.381,0-17.014,6.635-17.014,14.795c0,4.73,2.57,8.949,6.556,11.658c0.09,3.727-2.395,5.5-4.574,8.055
		c1.866-0.197,7.958-2.672,11.975-5.16c0.992,0.16,2.016,0.24,3.058,0.24c9.384,0,17.019-6.637,17.019-14.793
		C444.396,511.127,436.761,504.492,427.377,504.492z M418.435,523.973c-0.97,0-1.928-0.25-2.405-0.516l0.389-1.586
		c0.518,0.264,1.312,0.529,2.131,0.529c0.879,0,1.345-0.365,1.345-0.92c0-0.527-0.401-0.832-1.421-1.195
		c-1.412-0.492-2.33-1.271-2.33-2.508c0-1.447,1.21-2.553,3.21-2.553c0.958,0,1.662,0.199,2.164,0.428l-0.425,1.547
		c-0.341-0.162-0.944-0.398-1.777-0.398c-0.827,0-1.231,0.375-1.231,0.816c0,0.541,0.478,0.781,1.572,1.193
		c1.5,0.553,2.204,1.334,2.204,2.531C421.859,522.766,420.764,523.973,418.435,523.973z M430.456,523.848l-0.124-3.25
		c-0.037-1.018-0.075-2.252-0.075-3.484h-0.039c-0.262,1.078-0.616,2.289-0.943,3.285l-1.032,3.312h-1.499l-0.906-3.287
		c-0.277-0.994-0.567-2.203-0.77-3.311h-0.024c-0.049,1.145-0.085,2.455-0.146,3.512l-0.155,3.223h-1.773l0.539-8.484h2.557
		l0.833,2.828c0.264,0.984,0.527,2.041,0.717,3.035h0.034c0.243-0.98,0.531-2.1,0.809-3.045l0.908-2.818h2.503l0.468,8.484H430.456z
		 M435.886,523.973c-0.97,0-1.925-0.25-2.404-0.516l0.391-1.586c0.516,0.264,1.31,0.529,2.128,0.529c0.88,0,1.345-0.365,1.345-0.92
		c0-0.527-0.399-0.832-1.422-1.195c-1.408-0.492-2.331-1.271-2.331-2.508c0-1.447,1.21-2.553,3.213-2.553
		c0.957,0,1.663,0.199,2.165,0.428l-0.429,1.547c-0.341-0.162-0.942-0.398-1.773-0.398c-0.83,0-1.234,0.375-1.234,0.816
		c0,0.541,0.479,0.777,1.573,1.193c1.5,0.553,2.205,1.334,2.205,2.531C439.312,522.766,438.217,523.973,435.886,523.973z"/>
</g>
<g>
	<g>
		<path fill="#FFFFFF" d="M480.299,45.991v5.427h-2.869V36h5.023c1.029,0,1.922,0.121,2.676,0.363s1.375,0.579,1.865,1.013
			s0.854,0.953,1.088,1.557c0.234,0.604,0.352,1.266,0.352,1.983c0,0.746-0.123,1.431-0.373,2.052
			c-0.248,0.622-0.621,1.157-1.119,1.605s-1.119,0.796-1.865,1.045c-0.748,0.249-1.621,0.373-2.623,0.373H480.299z M480.299,43.752
			h2.154c0.525,0,0.984-0.065,1.375-0.197c0.391-0.131,0.715-0.32,0.971-0.565s0.447-0.544,0.574-0.896
			c0.129-0.352,0.193-0.745,0.193-1.178c0-0.412-0.064-0.786-0.193-1.12c-0.127-0.334-0.318-0.619-0.574-0.853
			s-0.58-0.414-0.971-0.539c-0.391-0.124-0.85-0.187-1.375-0.187h-2.154V43.752z"/>
		<path fill="#FFFFFF" d="M490.514,51.418V35.574h2.633v6.088c0.428-0.405,0.896-0.732,1.408-0.981
			c0.512-0.249,1.111-0.373,1.801-0.373c0.598,0,1.127,0.102,1.59,0.304c0.461,0.203,0.848,0.487,1.156,0.853
			c0.309,0.366,0.545,0.804,0.703,1.312c0.16,0.508,0.24,1.068,0.24,1.68v6.962h-2.633v-6.962c0-0.668-0.154-1.186-0.465-1.552
			c-0.309-0.366-0.771-0.549-1.391-0.549c-0.455,0-0.881,0.103-1.279,0.309s-0.775,0.487-1.131,0.842v7.912H490.514z"/>
		<path fill="#FFFFFF" d="M507.307,40.308c0.816,0,1.559,0.132,2.223,0.395c0.664,0.263,1.232,0.636,1.701,1.12
			s0.832,1.073,1.088,1.77s0.383,1.475,0.383,2.335c0,0.867-0.127,1.649-0.383,2.346c-0.256,0.697-0.619,1.29-1.088,1.781
			c-0.469,0.49-1.037,0.867-1.701,1.13c-0.664,0.263-1.406,0.395-2.223,0.395c-0.818,0-1.561-0.132-2.229-0.395
			c-0.668-0.263-1.238-0.64-1.711-1.13c-0.473-0.491-0.84-1.084-1.098-1.781c-0.26-0.696-0.391-1.479-0.391-2.346
			c0-0.86,0.131-1.638,0.391-2.335c0.258-0.697,0.625-1.287,1.098-1.77s1.043-0.856,1.711-1.12
			C505.746,40.44,506.488,40.308,507.307,40.308z M507.307,49.553c0.91,0,1.584-0.306,2.02-0.917
			c0.438-0.611,0.656-1.507,0.656-2.687c0-1.18-0.219-2.079-0.656-2.698c-0.436-0.618-1.109-0.928-2.02-0.928
			c-0.924,0-1.607,0.311-2.047,0.933c-0.441,0.622-0.662,1.52-0.662,2.692s0.221,2.067,0.662,2.682
			C505.699,49.245,506.383,49.553,507.307,49.553z"/>
		<path fill="#FFFFFF" d="M514.76,51.418V40.479h1.609c0.342,0,0.566,0.16,0.672,0.479l0.182,0.864
			c0.221-0.228,0.453-0.434,0.697-0.619c0.246-0.185,0.506-0.345,0.779-0.479c0.273-0.135,0.566-0.238,0.879-0.31
			c0.312-0.071,0.654-0.106,1.023-0.106c0.598,0,1.127,0.102,1.59,0.304c0.461,0.203,0.848,0.487,1.156,0.853
			c0.309,0.366,0.545,0.804,0.703,1.312c0.16,0.508,0.24,1.068,0.24,1.68v6.962h-2.633v-6.962c0-0.668-0.154-1.186-0.465-1.552
			c-0.309-0.366-0.771-0.549-1.391-0.549c-0.455,0-0.881,0.103-1.279,0.309s-0.775,0.487-1.131,0.842v7.912H514.76z"/>
		<path fill="#FFFFFF" d="M531.404,40.308c0.688,0,1.322,0.11,1.902,0.331s1.078,0.542,1.498,0.965
			c0.42,0.423,0.746,0.942,0.98,1.557c0.234,0.615,0.352,1.317,0.352,2.106c0,0.199-0.008,0.364-0.025,0.496
			c-0.018,0.131-0.051,0.234-0.096,0.309c-0.047,0.075-0.109,0.128-0.188,0.16c-0.078,0.032-0.178,0.048-0.299,0.048h-6.76
			c0.078,1.123,0.381,1.948,0.906,2.474s1.223,0.789,2.09,0.789c0.428,0,0.795-0.05,1.104-0.149s0.58-0.209,0.811-0.331
			c0.23-0.121,0.434-0.231,0.607-0.331s0.344-0.149,0.508-0.149c0.105,0,0.197,0.021,0.275,0.064
			c0.078,0.043,0.146,0.104,0.203,0.182l0.768,0.959c-0.291,0.341-0.617,0.627-0.98,0.858s-0.74,0.416-1.135,0.554
			s-0.797,0.236-1.205,0.293c-0.41,0.057-0.805,0.085-1.189,0.085c-0.76,0-1.469-0.126-2.121-0.379
			c-0.654-0.252-1.223-0.625-1.707-1.12c-0.482-0.494-0.863-1.105-1.141-1.833s-0.416-1.573-0.416-2.533
			c0-0.746,0.121-1.448,0.363-2.105c0.24-0.658,0.588-1.23,1.039-1.717s1.002-0.873,1.652-1.157S530.586,40.308,531.404,40.308z
			 M531.457,42.195c-0.768,0-1.369,0.217-1.803,0.65s-0.711,1.049-0.832,1.845h4.947c0-0.341-0.045-0.663-0.139-0.965
			c-0.092-0.302-0.234-0.567-0.426-0.794s-0.434-0.407-0.725-0.539C532.189,42.261,531.848,42.195,531.457,42.195z"/>
	</g>
	<g>
		<path fill="#5DC7C3" d="M456.443,38.25h-4.355v-4.877c0-0.98-0.793-1.775-1.773-1.775s-1.771,0.795-1.771,1.775v1.329h-11.18
			v-1.329c0-0.98-0.795-1.775-1.771-1.775c-0.98,0-1.773,0.795-1.773,1.775v4.877h-4.355c-2.314,0-4.191,1.878-4.191,4.189v17.691
			h35.361V42.44C460.633,40.128,458.758,38.25,456.443,38.25z M442.953,57.026c-4.654,0-8.426-3.774-8.426-8.426
			c0-1.279,0.293-2.488,0.807-3.575c0.291-0.628,0.652-1.215,1.088-1.747c0.285-0.35,0.605-0.674,0.941-0.973
			c1.492-1.323,3.441-2.131,5.59-2.131c2.146,0,4.098,0.808,5.59,2.131c0.334,0.299,0.654,0.623,0.941,0.973
			c0.434,0.532,0.799,1.119,1.092,1.747c0.51,1.087,0.803,2.296,0.803,3.575C451.379,53.251,447.605,57.026,442.953,57.026z"/>
		<path fill="#5DC7C3" d="M444.455,43.278c-0.479-0.135-0.984-0.211-1.502-0.211c-0.523,0-1.023,0.076-1.5,0.211
			c-2.324,0.654-4.035,2.785-4.035,5.322c0,3.056,2.479,5.533,5.535,5.533s5.533-2.478,5.533-5.533
			C448.486,46.063,446.779,43.932,444.455,43.278z"/>
		<path fill="#5DC7C3" d="M464.117,27.5c-1.533-0.639-3.08-1.213-4.643-1.712c-10.777-3.435-22.268-3.435-33.041,0
			c-1.564,0.499-3.115,1.073-4.641,1.712c-2.545,1.071-3.91,3.662-3.383,5.828c0.066,0.294,0.164,0.583,0.295,0.861
			c0.111,0.232,0.223,0.463,0.332,0.694c1.152,2.317,3.918,3.161,6.266,2.18c1.275-0.536,2.566-1.013,3.871-1.428
			c2.193-0.705,3.719-2.821,3.67-5.156c6.674-1.413,13.545-1.413,20.217,0c-0.049,2.333,1.477,4.451,3.67,5.156
			c1.305,0.415,2.596,0.892,3.869,1.428c2.352,0.981,5.115,0.138,6.266-2.18c0.113-0.231,0.223-0.462,0.334-0.694
			c0.133-0.278,0.229-0.567,0.299-0.861C468.023,31.162,466.658,28.571,464.117,27.5z"/>
	</g>
</g>
<g>
	<g>
		<path fill="#FFFFFF" d="M569.101,267.062c0,1.129-0.188,2.176-0.564,3.139c-0.377,0.965-0.906,1.797-1.59,2.502
			c-0.682,0.703-1.502,1.252-2.463,1.646c-0.959,0.395-2.021,0.592-3.188,0.592s-2.23-0.197-3.193-0.592s-1.787-0.943-2.475-1.646
			c-0.686-0.705-1.217-1.537-1.594-2.502c-0.377-0.963-0.564-2.01-0.564-3.139c0-1.131,0.188-2.178,0.564-3.141
			s0.908-1.797,1.594-2.5c0.688-0.703,1.512-1.254,2.475-1.648s2.027-0.592,3.193-0.592s2.229,0.199,3.188,0.598
			c0.961,0.398,1.781,0.947,2.463,1.648c0.684,0.699,1.213,1.531,1.59,2.494S569.101,265.931,569.101,267.062z M566.157,267.062
			c0-0.846-0.111-1.605-0.336-2.277c-0.223-0.672-0.545-1.242-0.965-1.711c-0.418-0.469-0.93-0.828-1.529-1.076
			c-0.602-0.25-1.277-0.373-2.031-0.373s-1.432,0.123-2.037,0.373c-0.604,0.248-1.117,0.607-1.541,1.076
			c-0.422,0.469-0.748,1.039-0.975,1.711c-0.229,0.672-0.342,1.432-0.342,2.277s0.113,1.604,0.342,2.275
			c0.227,0.672,0.553,1.24,0.975,1.707c0.424,0.465,0.938,0.822,1.541,1.07c0.605,0.25,1.283,0.373,2.037,0.373
			s1.43-0.123,2.031-0.373c0.6-0.248,1.111-0.605,1.529-1.07c0.42-0.467,0.742-1.035,0.965-1.707
			C566.046,268.665,566.157,267.907,566.157,267.062z"/>
		<path fill="#FFFFFF" d="M574.806,274.94c-0.945,0-1.676-0.268-2.188-0.805s-0.768-1.277-0.768-2.223v-6.109h-1.107
			c-0.143,0-0.266-0.047-0.369-0.139c-0.102-0.094-0.154-0.232-0.154-0.416v-1.045l1.76-0.289l0.555-2.984
			c0.027-0.143,0.094-0.252,0.197-0.332c0.102-0.078,0.232-0.117,0.389-0.117h1.365v3.445h2.879v1.877h-2.879v5.928
			c0,0.342,0.084,0.607,0.256,0.799c0.17,0.193,0.398,0.289,0.682,0.289c0.164,0,0.301-0.02,0.41-0.059
			c0.111-0.039,0.207-0.08,0.289-0.123s0.154-0.084,0.219-0.123c0.062-0.039,0.127-0.059,0.191-0.059
			c0.078,0,0.143,0.02,0.191,0.059c0.051,0.039,0.104,0.098,0.16,0.176l0.789,1.279c-0.383,0.32-0.824,0.562-1.322,0.727
			C575.853,274.858,575.339,274.94,574.806,274.94z"/>
		<path fill="#FFFFFF" d="M579.464,274.771v-15.846h2.635v6.09c0.426-0.406,0.895-0.732,1.406-0.982
			c0.512-0.248,1.113-0.373,1.803-0.373c0.598,0,1.127,0.102,1.588,0.305c0.463,0.203,0.848,0.486,1.158,0.854
			c0.309,0.365,0.543,0.803,0.703,1.311s0.24,1.068,0.24,1.68v6.963h-2.635v-6.963c0-0.668-0.154-1.186-0.463-1.551
			c-0.309-0.367-0.773-0.551-1.391-0.551c-0.455,0-0.883,0.104-1.281,0.311c-0.396,0.205-0.773,0.486-1.129,0.842v7.912H579.464z"/>
		<path fill="#FFFFFF" d="M596.108,263.659c0.689,0,1.324,0.111,1.902,0.332c0.58,0.219,1.08,0.541,1.498,0.965
			c0.42,0.422,0.748,0.941,0.982,1.557c0.234,0.613,0.352,1.316,0.352,2.105c0,0.199-0.01,0.363-0.027,0.496
			c-0.018,0.131-0.049,0.234-0.096,0.309s-0.107,0.127-0.186,0.16c-0.08,0.031-0.178,0.047-0.299,0.047h-6.76
			c0.078,1.125,0.379,1.949,0.906,2.475c0.525,0.525,1.223,0.789,2.09,0.789c0.426,0,0.793-0.049,1.104-0.148
			c0.309-0.1,0.578-0.211,0.811-0.332c0.23-0.121,0.432-0.23,0.607-0.33c0.174-0.1,0.342-0.148,0.506-0.148
			c0.107,0,0.199,0.021,0.277,0.062c0.078,0.043,0.146,0.104,0.203,0.182l0.768,0.959c-0.293,0.342-0.619,0.629-0.98,0.859
			c-0.363,0.23-0.742,0.416-1.137,0.555s-0.797,0.236-1.205,0.293s-0.805,0.086-1.188,0.086c-0.762,0-1.469-0.127-2.123-0.379
			s-1.223-0.625-1.705-1.119c-0.484-0.494-0.863-1.105-1.141-1.834s-0.416-1.574-0.416-2.533c0-0.746,0.121-1.447,0.361-2.105
			c0.242-0.658,0.588-1.23,1.041-1.717c0.451-0.486,1.002-0.873,1.652-1.156C594.558,263.802,595.29,263.659,596.108,263.659z
			 M596.161,265.548c-0.768,0-1.367,0.217-1.801,0.65s-0.711,1.047-0.832,1.844h4.947c0-0.342-0.047-0.662-0.139-0.965
			s-0.234-0.566-0.426-0.795c-0.193-0.227-0.434-0.406-0.727-0.537C596.894,265.612,596.552,265.548,596.161,265.548z"/>
		<path fill="#FFFFFF" d="M602.985,274.771v-10.939h1.545c0.271,0,0.459,0.049,0.566,0.148c0.105,0.1,0.178,0.27,0.213,0.512
			l0.16,1.322c0.391-0.676,0.85-1.209,1.375-1.6s1.115-0.586,1.77-0.586c0.541,0,0.988,0.125,1.344,0.373l-0.342,1.973
			c-0.02,0.127-0.066,0.219-0.139,0.271c-0.07,0.053-0.166,0.08-0.287,0.08c-0.107,0-0.252-0.025-0.438-0.074
			c-0.184-0.051-0.43-0.074-0.734-0.074c-0.549,0-1.018,0.15-1.408,0.453c-0.391,0.301-0.721,0.744-0.992,1.326v6.814H602.985z"/>
	</g>
	<g>
		<g>
			<g>
				<g>
					<circle fill="#C8B330" cx="583.635" cy="230.58" r="23.769"/>
				</g>
			</g>
		</g>
		<g>
			<g>
				<path fill="#FFFFFF" d="M592.911,231.347c0,5.121-4.154,9.274-9.277,9.274c-5.125,0-9.281-4.153-9.281-9.274
					c0-5.125,4.156-9.276,9.281-9.276C588.757,222.071,592.911,226.222,592.911,231.347z"/>
			</g>
		</g>
	</g>
</g>
<g>
	<g>
		<path fill="#FFFFFF" d="M525.356,392.933c0.156,0,0.291,0.061,0.404,0.182l1.131,1.227c-0.627,0.775-1.396,1.367-2.309,1.779
			c-0.914,0.414-2.01,0.619-3.289,0.619c-1.145,0-2.174-0.195-3.088-0.586c-0.912-0.391-1.693-0.936-2.34-1.631
			c-0.646-0.697-1.143-1.529-1.488-2.496c-0.344-0.967-0.516-2.021-0.516-3.166c0-1.158,0.191-2.221,0.576-3.184
			c0.383-0.963,0.924-1.793,1.619-2.49c0.697-0.695,1.531-1.238,2.5-1.625c0.971-0.387,2.043-0.582,3.215-0.582
			c1.145,0,2.146,0.184,3.002,0.551c0.857,0.365,1.59,0.85,2.201,1.455l-0.959,1.332c-0.057,0.086-0.129,0.16-0.219,0.225
			c-0.088,0.064-0.211,0.096-0.367,0.096c-0.164,0-0.33-0.064-0.502-0.191c-0.17-0.129-0.387-0.268-0.65-0.416
			c-0.262-0.15-0.596-0.289-0.996-0.416c-0.402-0.129-0.912-0.191-1.531-0.191c-0.725,0-1.391,0.125-1.998,0.377
			c-0.607,0.254-1.131,0.613-1.568,1.082c-0.436,0.471-0.777,1.041-1.023,1.713c-0.244,0.672-0.367,1.426-0.367,2.266
			c0,0.867,0.123,1.639,0.367,2.312c0.246,0.676,0.578,1.244,0.998,1.707c0.418,0.461,0.912,0.814,1.482,1.061
			c0.568,0.246,1.18,0.367,1.834,0.367c0.391,0,0.744-0.021,1.061-0.062c0.316-0.043,0.607-0.111,0.873-0.203
			c0.268-0.092,0.52-0.211,0.758-0.357s0.475-0.324,0.709-0.539c0.07-0.062,0.146-0.115,0.225-0.154
			S525.263,392.933,525.356,392.933z"/>
		<path fill="#FFFFFF" d="M537.478,396.569h-1.182c-0.25,0-0.445-0.037-0.588-0.113c-0.143-0.074-0.248-0.225-0.318-0.453
			l-0.236-0.777c-0.277,0.248-0.549,0.467-0.814,0.656c-0.268,0.188-0.543,0.346-0.826,0.475c-0.285,0.127-0.588,0.223-0.906,0.287
			c-0.32,0.064-0.676,0.096-1.066,0.096c-0.463,0-0.889-0.062-1.279-0.188c-0.393-0.125-0.727-0.311-1.008-0.561
			s-0.5-0.561-0.656-0.932s-0.234-0.803-0.234-1.295c0-0.412,0.107-0.82,0.324-1.225c0.217-0.402,0.578-0.766,1.084-1.09
			c0.504-0.326,1.176-0.594,2.014-0.809c0.84-0.213,1.881-0.32,3.125-0.32v-0.645c0-0.738-0.154-1.285-0.465-1.639
			c-0.309-0.355-0.758-0.533-1.348-0.533c-0.428,0-0.783,0.051-1.066,0.15c-0.285,0.1-0.531,0.211-0.742,0.336
			c-0.209,0.125-0.402,0.236-0.58,0.336s-0.373,0.148-0.586,0.148c-0.178,0-0.332-0.045-0.459-0.139
			c-0.129-0.092-0.23-0.205-0.309-0.34l-0.48-0.844c1.258-1.15,2.775-1.727,4.553-1.727c0.641,0,1.211,0.105,1.711,0.314
			c0.502,0.209,0.926,0.502,1.275,0.875c0.348,0.373,0.611,0.818,0.793,1.338c0.182,0.518,0.271,1.088,0.271,1.705V396.569z
			 M532.36,394.927c0.27,0,0.52-0.025,0.746-0.074c0.229-0.049,0.443-0.121,0.646-0.219c0.201-0.1,0.396-0.219,0.586-0.363
			c0.188-0.143,0.379-0.312,0.57-0.508v-1.832c-0.768,0-1.41,0.049-1.926,0.145c-0.514,0.098-0.928,0.221-1.242,0.371
			c-0.312,0.15-0.533,0.326-0.666,0.525c-0.131,0.201-0.197,0.42-0.197,0.656c0,0.465,0.137,0.797,0.41,0.998
			C531.563,394.827,531.919,394.927,532.36,394.927z"/>
		<path fill="#FFFFFF" d="M542.874,380.724v15.846h-2.635v-15.846H542.874z"/>
		<path fill="#FFFFFF" d="M548.653,380.724v15.846h-2.635v-15.846H548.653z"/>
		<path fill="#FFFFFF" d="M566.491,392.933c0.156,0,0.291,0.061,0.404,0.182l1.131,1.227c-0.627,0.775-1.396,1.367-2.309,1.779
			c-0.914,0.414-2.01,0.619-3.289,0.619c-1.145,0-2.174-0.195-3.088-0.586c-0.912-0.391-1.693-0.936-2.34-1.631
			c-0.646-0.697-1.143-1.529-1.488-2.496c-0.344-0.967-0.516-2.021-0.516-3.166c0-1.158,0.191-2.221,0.576-3.184
			c0.383-0.963,0.924-1.793,1.619-2.49c0.697-0.695,1.531-1.238,2.5-1.625c0.971-0.387,2.043-0.582,3.215-0.582
			c1.145,0,2.146,0.184,3.002,0.551c0.857,0.365,1.59,0.85,2.201,1.455l-0.959,1.332c-0.057,0.086-0.129,0.16-0.219,0.225
			c-0.088,0.064-0.211,0.096-0.367,0.096c-0.164,0-0.33-0.064-0.502-0.191c-0.17-0.129-0.387-0.268-0.65-0.416
			c-0.262-0.15-0.596-0.289-0.996-0.416c-0.402-0.129-0.912-0.191-1.531-0.191c-0.725,0-1.391,0.125-1.998,0.377
			c-0.607,0.254-1.131,0.613-1.568,1.082c-0.436,0.471-0.777,1.041-1.023,1.713c-0.244,0.672-0.367,1.426-0.367,2.266
			c0,0.867,0.123,1.639,0.367,2.312c0.246,0.676,0.578,1.244,0.998,1.707c0.418,0.461,0.912,0.814,1.482,1.061
			c0.568,0.246,1.18,0.367,1.834,0.367c0.391,0,0.744-0.021,1.061-0.062c0.316-0.043,0.607-0.111,0.873-0.203
			c0.268-0.092,0.52-0.211,0.758-0.357s0.475-0.324,0.709-0.539c0.07-0.062,0.146-0.115,0.225-0.154
			S566.397,392.933,566.491,392.933z"/>
		<path fill="#FFFFFF" d="M574.562,385.458c0.689,0,1.324,0.111,1.902,0.332c0.58,0.219,1.08,0.541,1.498,0.965
			c0.42,0.422,0.748,0.941,0.982,1.557c0.234,0.613,0.352,1.316,0.352,2.105c0,0.199-0.01,0.363-0.027,0.496
			c-0.018,0.131-0.049,0.234-0.096,0.309s-0.107,0.127-0.186,0.16c-0.08,0.031-0.178,0.047-0.299,0.047h-6.76
			c0.078,1.125,0.379,1.949,0.906,2.475c0.525,0.525,1.223,0.789,2.09,0.789c0.426,0,0.793-0.049,1.104-0.148
			c0.309-0.1,0.578-0.211,0.811-0.332c0.23-0.121,0.432-0.23,0.607-0.33c0.174-0.1,0.342-0.148,0.506-0.148
			c0.107,0,0.199,0.021,0.277,0.062c0.078,0.043,0.146,0.104,0.203,0.182l0.768,0.959c-0.293,0.342-0.619,0.629-0.98,0.859
			c-0.363,0.23-0.742,0.416-1.137,0.555s-0.797,0.236-1.205,0.293s-0.805,0.086-1.188,0.086c-0.762,0-1.469-0.127-2.123-0.379
			s-1.223-0.625-1.705-1.119c-0.484-0.494-0.863-1.105-1.141-1.834s-0.416-1.574-0.416-2.533c0-0.746,0.121-1.447,0.361-2.105
			c0.242-0.658,0.588-1.23,1.041-1.717c0.451-0.486,1.002-0.873,1.652-1.156C573.011,385.601,573.743,385.458,574.562,385.458z
			 M574.614,387.347c-0.768,0-1.367,0.217-1.801,0.65s-0.711,1.047-0.832,1.844h4.947c0-0.342-0.047-0.662-0.139-0.965
			s-0.234-0.566-0.426-0.795c-0.193-0.227-0.434-0.406-0.727-0.537C575.347,387.411,575.005,387.347,574.614,387.347z"/>
		<path fill="#FFFFFF" d="M581.438,396.569V385.63h1.609c0.342,0,0.566,0.16,0.672,0.479l0.182,0.863
			c0.221-0.227,0.453-0.432,0.697-0.617c0.246-0.186,0.506-0.346,0.779-0.48s0.566-0.238,0.879-0.309s0.654-0.107,1.023-0.107
			c0.598,0,1.127,0.102,1.59,0.305c0.461,0.203,0.848,0.486,1.156,0.854c0.309,0.365,0.545,0.803,0.703,1.311
			c0.16,0.508,0.24,1.068,0.24,1.68v6.963h-2.633v-6.963c0-0.668-0.154-1.186-0.465-1.551c-0.309-0.367-0.771-0.551-1.391-0.551
			c-0.455,0-0.881,0.104-1.279,0.311c-0.398,0.205-0.775,0.486-1.131,0.842v7.912H581.438z"/>
		<path fill="#FFFFFF" d="M597.155,396.739c-0.945,0-1.676-0.268-2.188-0.805s-0.768-1.277-0.768-2.223v-6.109h-1.107
			c-0.143,0-0.266-0.047-0.369-0.139c-0.102-0.094-0.154-0.232-0.154-0.416v-1.045l1.76-0.289l0.555-2.984
			c0.027-0.143,0.094-0.252,0.197-0.332c0.102-0.078,0.232-0.117,0.389-0.117h1.365v3.445h2.879v1.877h-2.879v5.928
			c0,0.342,0.084,0.607,0.256,0.799c0.17,0.193,0.398,0.289,0.682,0.289c0.164,0,0.301-0.02,0.41-0.059
			c0.111-0.039,0.207-0.08,0.289-0.123s0.154-0.084,0.219-0.123c0.062-0.039,0.127-0.059,0.191-0.059
			c0.078,0,0.143,0.02,0.191,0.059c0.051,0.039,0.104,0.098,0.16,0.176l0.789,1.279c-0.383,0.32-0.824,0.562-1.322,0.727
			C598.202,396.657,597.688,396.739,597.155,396.739z"/>
		<path fill="#FFFFFF" d="M601.813,396.569V385.63h1.547c0.27,0,0.459,0.049,0.564,0.148c0.107,0.1,0.178,0.27,0.213,0.512
			l0.16,1.322c0.391-0.676,0.85-1.209,1.377-1.6c0.525-0.391,1.115-0.586,1.77-0.586c0.539,0,0.988,0.125,1.344,0.373l-0.342,1.973
			c-0.021,0.127-0.068,0.219-0.139,0.271s-0.168,0.08-0.287,0.08c-0.107,0-0.254-0.025-0.438-0.074
			c-0.186-0.051-0.43-0.074-0.736-0.074c-0.547,0-1.016,0.15-1.408,0.453c-0.391,0.301-0.721,0.744-0.99,1.326v6.814H601.813z"/>
		<path fill="#FFFFFF" d="M615.046,385.458c0.689,0,1.324,0.111,1.902,0.332c0.58,0.219,1.08,0.541,1.498,0.965
			c0.42,0.422,0.748,0.941,0.982,1.557c0.234,0.613,0.352,1.316,0.352,2.105c0,0.199-0.01,0.363-0.027,0.496
			c-0.018,0.131-0.049,0.234-0.096,0.309s-0.107,0.127-0.186,0.16c-0.08,0.031-0.178,0.047-0.299,0.047h-6.76
			c0.078,1.125,0.379,1.949,0.906,2.475c0.525,0.525,1.223,0.789,2.09,0.789c0.426,0,0.793-0.049,1.104-0.148
			c0.309-0.1,0.578-0.211,0.811-0.332c0.23-0.121,0.432-0.23,0.607-0.33c0.174-0.1,0.342-0.148,0.506-0.148
			c0.107,0,0.199,0.021,0.277,0.062c0.078,0.043,0.146,0.104,0.203,0.182l0.768,0.959c-0.293,0.342-0.619,0.629-0.98,0.859
			c-0.363,0.23-0.742,0.416-1.137,0.555s-0.797,0.236-1.205,0.293s-0.805,0.086-1.188,0.086c-0.762,0-1.469-0.127-2.123-0.379
			s-1.223-0.625-1.705-1.119c-0.484-0.494-0.863-1.105-1.141-1.834s-0.416-1.574-0.416-2.533c0-0.746,0.121-1.447,0.361-2.105
			c0.242-0.658,0.588-1.23,1.041-1.717c0.451-0.486,1.002-0.873,1.652-1.156C613.495,385.601,614.228,385.458,615.046,385.458z
			 M615.099,387.347c-0.768,0-1.367,0.217-1.801,0.65s-0.711,1.047-0.832,1.844h4.947c0-0.342-0.047-0.662-0.139-0.965
			s-0.234-0.566-0.426-0.795c-0.193-0.227-0.434-0.406-0.727-0.537C615.831,387.411,615.489,387.347,615.099,387.347z"/>
	</g>
	<g>
		<g>
			<g>
				<path fill="#48C7F4" d="M572.513,335.635l-17.372-0.081c-6.428,0.174-8.793,5.351-8.793,7.153V368.3
					c0,1.587,1.285,2.863,2.853,2.863c1.59,0,2.876-1.276,2.876-2.863v-20.979h2.434v20.106c0,0.277,0.035,0.55,0.069,0.8v0.546
					c0.174-0.031,15.552,0.049,17.934-0.074v-21.378h2.162V368.3c0,1.587,1.374,2.863,3.065,2.863c1.701,0,3.076-1.276,3.076-2.863
					v-25.926C580.816,340.186,577.945,335.635,572.513,335.635z"/>
				<path fill="#48C7F4" d="M563.324,334.304c3.805,0,6.885-3.074,6.885-6.885c0-3.801-3.08-6.882-6.885-6.882
					c-3.801,0-6.88,3.081-6.88,6.882C556.444,331.23,559.523,334.304,563.324,334.304z"/>
			</g>
			<g>
				<path fill="#48C7F4" d="M586.42,340.688v-1.934c0-1.277-1.674-3.936-4.846-3.936l-10.146-0.046
					c-3.753,0.1-5.134,3.125-5.134,4.177v1.376C573.004,340.345,579.713,340.498,586.42,340.688z"/>
				<path fill="#48C7F4" d="M576.357,334.041c2.221,0,4.02-1.794,4.02-4.02c0-2.221-1.799-4.021-4.02-4.021
					c-2.219,0-4.019,1.8-4.019,4.021C572.339,332.246,574.139,334.041,576.357,334.041z"/>
			</g>
			<g>
				<path fill="#48C7F4" d="M560.639,341.262c0.244,0.004,0.465,0.031,0.691,0.055v-2.463c0-1.053-1.383-4.077-5.138-4.177
					l-10.142,0.044c-3.174,0-4.848,2.66-4.848,3.938v2.584C547.682,341.102,554.158,341.248,560.639,341.262z"/>
				<path fill="#48C7F4" d="M551.011,333.946c-2.221,0-4.022-1.795-4.022-4.021c0-2.22,1.802-4.02,4.022-4.02
					c2.218,0,4.015,1.8,4.015,4.02C555.025,332.151,553.229,333.946,551.011,333.946z"/>
			</g>
			<path fill="#48C7F4" d="M589.588,329.65c0.014-0.438,0.012-0.873-0.012-1.304c-0.156-2.979-1.226-5.813-3.077-8.149
				c-0.267-0.339-0.554-0.668-0.854-0.984c-0.504-0.529-1.268-0.624-1.754-0.293c-0.064,0.045-0.126,0.097-0.185,0.155
				c-0.045,0.048-0.093,0.097-0.14,0.146c-0.46,0.498-0.417,1.26,0.047,1.747c0.252,0.265,0.489,0.538,0.713,0.822
				c0.38,0.476,1.04,0.653,1.612,0.424c0.971,1.516,1.61,3.21,1.883,4.986c-0.579,0.207-0.958,0.777-0.929,1.384
				c0.017,0.362,0.02,0.726,0.01,1.087c-0.025,0.671,0.439,1.276,1.117,1.345c0.068,0.003,0.138,0.01,0.203,0.016
				c0.083,0.007,0.16,0.003,0.243-0.007C589.047,330.953,589.559,330.374,589.588,329.65z"/>
			<path fill="#48C7F4" d="M538.65,330.594c-0.018-0.438-0.014-0.872,0.008-1.305c0.156-2.978,1.229-5.812,3.078-8.149
				c0.27-0.34,0.555-0.667,0.854-0.984c0.502-0.529,1.267-0.624,1.751-0.293c0.064,0.046,0.129,0.096,0.188,0.155
				c0.047,0.05,0.091,0.097,0.139,0.146c0.464,0.499,0.416,1.26-0.048,1.748c-0.249,0.264-0.487,0.538-0.712,0.822
				c-0.376,0.474-1.039,0.654-1.613,0.422c-0.968,1.517-1.609,3.208-1.883,4.987c0.579,0.205,0.96,0.778,0.931,1.384
				c-0.019,0.362-0.022,0.723-0.009,1.088c0.022,0.671-0.441,1.274-1.12,1.341c-0.069,0.007-0.135,0.012-0.202,0.019
				c-0.082,0.007-0.162,0.003-0.241-0.009C539.188,331.896,538.676,331.32,538.65,330.594z"/>
		</g>
	</g>
</g>
<g>
	<g>
		<path opacity="0.7" fill="#ED1C24" d="M97.275,235.51H90.42v-44.127c0-1.339-1.088-2.427-2.427-2.427H22.112
			c-1.338,0-2.429,1.088-2.429,2.427v44.127h-6.849c-1.768,0-3.202,1.437-3.202,3.201v2.967c0,1.76,1.435,3.197,3.202,3.197h84.44
			c1.764,0,3.2-1.438,3.2-3.197v-2.967C100.475,236.947,99.039,235.51,97.275,235.51z M68.858,238.141
			c0,0.669-0.547,1.214-1.223,1.214H42.467c-0.673,0-1.217-0.545-1.217-1.214v-1.128c0-0.104,0.015-0.199,0.037-0.296H68.82
			c0.021,0.097,0.038,0.192,0.038,0.296V238.141z M83.026,241.498c-0.564,0-1.024-0.456-1.024-1.022c0-0.563,0.46-1.021,1.024-1.021
			c0.561,0,1.017,0.458,1.017,1.021C84.042,241.042,83.586,241.498,83.026,241.498z M84.179,233.718h-58.25v-38.973
			c0-0.04,0.051-0.1,0.129-0.1h57.991c0.073,0,0.13,0.06,0.13,0.1V233.718z M87.73,241.498c-0.56,0-1.018-0.456-1.018-1.022
			c0-0.563,0.458-1.021,1.018-1.021c0.562,0,1.023,0.458,1.023,1.021C88.753,241.042,88.292,241.498,87.73,241.498z M92.439,241.498
			c-0.562,0-1.022-0.456-1.022-1.022c0-0.563,0.46-1.021,1.022-1.021s1.017,0.458,1.017,1.021
			C93.456,241.042,93.001,241.498,92.439,241.498z"/>
		
			<rect x="28.944" y="196.151" opacity="0.7" fill-rule="evenodd" clip-rule="evenodd" fill="#ED1C24" width="52.061" height="5.062"/>
	</g>
	
		<rect x="29.403" y="204.219" opacity="0.7" fill-rule="evenodd" clip-rule="evenodd" fill="#ED1C24" width="16.311" height="25.801"/>
	
		<rect x="72.651" y="204.848" opacity="0.7" fill-rule="evenodd" clip-rule="evenodd" fill="#ED1C24" width="6.824" height="8.782"/>
	
		<rect x="72.651" y="214.805" opacity="0.7" fill-rule="evenodd" clip-rule="evenodd" fill="#ED1C24" width="6.901" height="8.314"/>
	<line opacity="0.7" fill="#ED1C24" stroke="#ED1C24" stroke-miterlimit="10" x1="48.262" y1="206.101" x2="71.71" y2="206.101"/>
	<line opacity="0.7" fill="#ED1C24" stroke="#ED1C24" stroke-miterlimit="10" x1="48.262" y1="208.847" x2="71.71" y2="208.847"/>
	<line opacity="0.7" fill="#ED1C24" stroke="#ED1C24" stroke-miterlimit="10" x1="48.262" y1="211.906" x2="71.71" y2="211.906"/>
	<line opacity="0.7" fill="#ED1C24" stroke="#ED1C24" stroke-miterlimit="10" x1="48.262" y1="214.57" x2="71.71" y2="214.57"/>
	<line opacity="0.7" fill="#ED1C24" stroke="#ED1C24" stroke-miterlimit="10" x1="48.262" y1="219.276" x2="71.71" y2="219.276"/>
	<line opacity="0.7" fill="#ED1C24" stroke="#ED1C24" stroke-miterlimit="10" x1="48.262" y1="222.022" x2="71.71" y2="222.022"/>
	<line opacity="0.7" fill="#ED1C24" stroke="#ED1C24" stroke-miterlimit="10" x1="48.262" y1="225.08" x2="79.472" y2="225.08"/>
	<line opacity="0.7" fill="#ED1C24" stroke="#ED1C24" stroke-miterlimit="10" x1="48.262" y1="227.745" x2="79.472" y2="227.745"/>
</g>
<g>
	<g>
		<path fill="#FFFFFF" d="M566.967,81.825v2.282h-6.834v4.276h5.385v2.207h-5.385v4.361h6.834v2.292h-9.725V81.825H566.967z"/>
		<path fill="#FFFFFF" d="M568.961,89.705h5.521v2.197h-5.521V89.705z"/>
		<path fill="#FFFFFF" d="M576.957,97.243V86.304h1.609c0.342,0,0.566,0.16,0.672,0.479l0.17,0.811
			c0.193-0.213,0.395-0.409,0.604-0.586s0.434-0.331,0.672-0.458s0.494-0.229,0.768-0.304c0.273-0.074,0.574-0.112,0.9-0.112
			c0.689,0,1.256,0.187,1.701,0.56c0.443,0.373,0.775,0.869,0.996,1.487c0.172-0.363,0.385-0.673,0.641-0.933
			c0.256-0.259,0.537-0.471,0.842-0.634c0.307-0.164,0.631-0.284,0.977-0.363c0.344-0.078,0.691-0.117,1.039-0.117
			c0.604,0,1.141,0.092,1.609,0.277s0.863,0.455,1.184,0.81c0.32,0.356,0.564,0.789,0.73,1.301c0.168,0.512,0.25,1.098,0.25,1.759
			v6.962h-2.633v-6.962c0-0.697-0.152-1.221-0.459-1.573c-0.305-0.352-0.752-0.528-1.344-0.528c-0.27,0-0.52,0.046-0.75,0.139
			c-0.232,0.092-0.434,0.226-0.609,0.4c-0.174,0.174-0.311,0.393-0.41,0.655c-0.1,0.263-0.148,0.565-0.148,0.907v6.962h-2.645
			v-6.962c0-0.732-0.148-1.265-0.443-1.6c-0.295-0.334-0.73-0.501-1.305-0.501c-0.377,0-0.73,0.094-1.062,0.282
			c-0.33,0.188-0.637,0.446-0.922,0.773v8.007H576.957z"/>
		<path fill="#FFFFFF" d="M603.484,97.243h-1.182c-0.25,0-0.445-0.037-0.588-0.112s-0.248-0.226-0.318-0.453L601.16,95.9
			c-0.277,0.249-0.549,0.467-0.814,0.656c-0.268,0.188-0.543,0.346-0.826,0.474c-0.285,0.128-0.588,0.224-0.906,0.288
			c-0.32,0.064-0.676,0.096-1.066,0.096c-0.463,0-0.889-0.062-1.279-0.187c-0.393-0.125-0.727-0.312-1.008-0.562
			s-0.5-0.56-0.656-0.931c-0.156-0.371-0.234-0.802-0.234-1.294c0-0.414,0.107-0.822,0.324-1.225s0.578-0.767,1.084-1.091
			c0.504-0.324,1.176-0.594,2.014-0.808c0.84-0.214,1.881-0.321,3.125-0.321v-0.645c0-0.738-0.154-1.284-0.465-1.639
			c-0.309-0.354-0.758-0.532-1.348-0.532c-0.428,0-0.783,0.05-1.066,0.149c-0.285,0.1-0.531,0.212-0.742,0.336
			c-0.209,0.125-0.402,0.237-0.58,0.336c-0.178,0.1-0.373,0.149-0.586,0.149c-0.178,0-0.332-0.046-0.459-0.139
			c-0.129-0.092-0.23-0.206-0.309-0.341l-0.48-0.842c1.258-1.151,2.775-1.727,4.553-1.727c0.641,0,1.211,0.105,1.711,0.314
			c0.502,0.209,0.926,0.501,1.275,0.874c0.348,0.374,0.611,0.819,0.793,1.338s0.271,1.087,0.271,1.706V97.243z M598.367,95.601
			c0.27,0,0.52-0.024,0.746-0.073c0.229-0.049,0.443-0.123,0.646-0.221c0.201-0.098,0.396-0.218,0.586-0.362
			c0.188-0.144,0.379-0.313,0.57-0.509v-1.831c-0.768,0-1.41,0.048-1.926,0.145c-0.514,0.097-0.928,0.22-1.242,0.371
			c-0.312,0.15-0.533,0.326-0.666,0.526c-0.131,0.2-0.197,0.418-0.197,0.655c0,0.465,0.137,0.798,0.41,0.999
			C597.57,95.501,597.926,95.601,598.367,95.601z"/>
		<path fill="#FFFFFF" d="M609.275,83.115c0,0.228-0.047,0.441-0.139,0.64c-0.094,0.199-0.215,0.373-0.369,0.522
			c-0.152,0.149-0.332,0.268-0.537,0.357c-0.207,0.089-0.428,0.133-0.662,0.133c-0.227,0-0.441-0.044-0.645-0.133
			s-0.379-0.208-0.527-0.357c-0.15-0.149-0.27-0.324-0.357-0.522c-0.09-0.199-0.133-0.413-0.133-0.64
			c0-0.234,0.043-0.455,0.133-0.661c0.088-0.206,0.207-0.384,0.357-0.533c0.148-0.149,0.324-0.269,0.527-0.357
			s0.418-0.133,0.645-0.133c0.234,0,0.455,0.044,0.662,0.133c0.205,0.089,0.385,0.208,0.537,0.357
			c0.154,0.149,0.275,0.327,0.369,0.533C609.229,82.661,609.275,82.881,609.275,83.115z M608.881,86.304v10.939h-2.635V86.304
			H608.881z"/>
		<path fill="#FFFFFF" d="M614.66,81.399v15.844h-2.635V81.399H614.66z"/>
	</g>
	<g>
		<g>
			<path fill="#0E5461" d="M577.25,136.804c0,19.769-16.02,35.795-35.791,35.795c-19.77,0-35.795-16.026-35.795-35.795
				s16.025-35.794,35.795-35.794C561.23,101.01,577.25,117.036,577.25,136.804z"/>
		</g>
	</g>
	<g>
		<g>
			<path fill-rule="evenodd" clip-rule="evenodd" fill="#FFFFFF" d="M516.92,141.12c-0.248-11.48,4.641-19.099,14.146-23.153
				c9.629-4.088,19.225-3.605,27.592,3.551c6.377,5.44,7.723,13.54,3.826,21.003c-3.887,7.45-9.295,9.954-18.018,7.771
				c-2.02-0.499-3.137,0.634-4.676,0.936c-6.357,1.248-10.564-1.639-11.572-8.142c-1.705-10.999,5.873-18.879,16.338-16.766
				c1.498,0.304,2.295-0.635,3.436-0.749c2.928-0.297,4.326,0.847,3.768,3.983c-0.773,4.315-1.443,8.632-2.064,12.957
				c-0.168,1.156-0.895,2.688,0.479,3.418c1.547,0.834,2.771-0.44,3.861-1.379c7.406-6.345,4.699-19.587-4.73-23.279
				c-7.6-2.979-16.377-0.777-21.652,5.406c-5.078,5.983-6.105,15.902-2.285,22.282c3.672,6.146,13.262,9.816,21.574,8.085
				c4.131-0.873,7.936-2.442,10.936-5.669c1.275-1.367,2.816-4.062,5.014-1.913c2.229,2.181,0.012,4.21-1.475,5.883
				c-4.02,4.479-9.527,5.808-15.121,6.709c-11.027,1.769-22.658-3.315-27.129-11.588C517.42,147.226,516.748,143.837,516.92,141.12z
				"/>
			<path fill-rule="evenodd" clip-rule="evenodd" fill="#0E5461" d="M544.588,134.579c-0.582,3.315-1.66,7.103-3.797,10.49
				c-0.773,1.228-1.832,2.501-3.557,1.895c-1.732-0.611-2.561-1.966-2.623-3.861c-0.125-4.395,1.627-8.104,4.113-11.55
				c0.889-1.227,2.174-2.119,3.77-1.659C544.479,130.463,544.615,132.218,544.588,134.579z"/>
		</g>
	</g>
</g>
<g>
	<path fill="#FFFFFF" d="M171.083,248.31h2.891v1.359c0,0.142-0.042,0.262-0.126,0.36c-0.084,0.098-0.216,0.146-0.393,0.146h-2.371
		v5.021h-2.091v-5.021h-8.458c-0.178,0-0.331-0.051-0.459-0.153c-0.129-0.102-0.211-0.229-0.247-0.38l-0.24-1.212l9.284-12.321
		h2.211V248.31z M168.992,240.438c0-0.23,0.007-0.479,0.02-0.746c0.013-0.267,0.042-0.542,0.087-0.826l-6.94,9.444h6.833V240.438z"
		/>
	<path fill="#FFFFFF" d="M181.818,247.365c-0.719,0-1.401-0.12-2.044-0.36c-0.644-0.24-1.21-0.593-1.698-1.059
		c-0.489-0.466-0.877-1.039-1.166-1.718c-0.289-0.679-0.433-1.458-0.433-2.337c0-0.834,0.155-1.616,0.466-2.344
		c0.311-0.728,0.746-1.363,1.305-1.905c0.56-0.542,1.226-0.968,1.998-1.279c0.773-0.311,1.621-0.466,2.544-0.466
		c0.915,0,1.745,0.151,2.491,0.453c0.746,0.302,1.385,0.724,1.918,1.265c0.533,0.542,0.943,1.19,1.232,1.945s0.433,1.59,0.433,2.504
		c0,0.551-0.051,1.072-0.153,1.565c-0.102,0.493-0.251,0.975-0.446,1.445s-0.428,0.939-0.699,1.405
		c-0.271,0.466-0.579,0.948-0.926,1.445l-4.648,6.713c-0.116,0.169-0.28,0.304-0.493,0.406c-0.213,0.103-0.458,0.153-0.733,0.153
		h-2.185l5.808-7.606c0.195-0.257,0.377-0.501,0.546-0.732c0.168-0.231,0.328-0.461,0.479-0.693
		c-0.489,0.391-1.039,0.688-1.652,0.893C183.15,247.263,182.502,247.365,181.818,247.365z M186.587,241.784
		c0-0.595-0.095-1.134-0.286-1.619c-0.191-0.484-0.455-0.895-0.792-1.232c-0.338-0.337-0.739-0.597-1.206-0.779
		s-0.979-0.273-1.539-0.273c-0.586,0-1.121,0.095-1.605,0.286s-0.897,0.455-1.239,0.792c-0.342,0.338-0.606,0.742-0.792,1.212
		s-0.28,0.985-0.28,1.545c0,0.604,0.086,1.144,0.26,1.619s0.422,0.877,0.746,1.205c0.324,0.329,0.719,0.578,1.185,0.746
		c0.466,0.169,0.988,0.253,1.565,0.253c0.639,0,1.206-0.104,1.698-0.313c0.493-0.208,0.908-0.486,1.245-0.833
		c0.337-0.346,0.595-0.746,0.773-1.199C186.498,242.743,186.587,242.272,186.587,241.784z"/>
	<path fill="#FFFFFF" d="M199.374,240.718c0,0.746-0.115,1.415-0.346,2.005s-0.54,1.088-0.926,1.492
		c-0.386,0.404-0.837,0.713-1.352,0.926s-1.052,0.32-1.611,0.32c-0.604,0-1.161-0.107-1.672-0.32s-0.957-0.521-1.338-0.926
		c-0.382-0.404-0.68-0.901-0.893-1.492c-0.213-0.59-0.32-1.259-0.32-2.005c0-0.764,0.106-1.443,0.32-2.038
		c0.213-0.595,0.51-1.096,0.893-1.505c0.381-0.408,0.828-0.719,1.338-0.933c0.511-0.213,1.068-0.319,1.672-0.319
		c0.595,0,1.152,0.106,1.671,0.319c0.52,0.213,0.968,0.524,1.345,0.933c0.377,0.409,0.675,0.91,0.893,1.505
		C199.265,239.275,199.374,239.954,199.374,240.718z M206.047,236.589c0.115-0.151,0.238-0.269,0.366-0.353
		c0.129-0.084,0.3-0.127,0.513-0.127h1.705l-13.946,18.702c-0.089,0.115-0.195,0.208-0.32,0.28
		c-0.124,0.071-0.271,0.106-0.439,0.106h-1.758L206.047,236.589z M197.522,240.718c0-0.586-0.062-1.083-0.187-1.492
		c-0.125-0.408-0.295-0.744-0.513-1.006c-0.217-0.262-0.471-0.451-0.759-0.566c-0.289-0.115-0.598-0.173-0.926-0.173
		c-0.329,0-0.638,0.058-0.926,0.173c-0.289,0.115-0.54,0.304-0.753,0.566c-0.213,0.262-0.379,0.598-0.5,1.006
		c-0.12,0.409-0.18,0.906-0.18,1.492c0,0.578,0.06,1.068,0.18,1.472c0.12,0.404,0.287,0.732,0.5,0.985
		c0.213,0.253,0.464,0.436,0.753,0.546c0.288,0.111,0.597,0.167,0.926,0.167c0.328,0,0.637-0.056,0.926-0.167
		c0.288-0.111,0.542-0.293,0.759-0.546c0.218-0.253,0.389-0.582,0.513-0.985C197.46,241.786,197.522,241.295,197.522,240.718z
		 M209.923,250.695c0,0.746-0.116,1.412-0.347,1.998c-0.231,0.586-0.54,1.082-0.926,1.485c-0.386,0.404-0.834,0.713-1.345,0.926
		c-0.511,0.213-1.045,0.32-1.605,0.32c-0.604,0-1.161-0.106-1.671-0.32c-0.511-0.213-0.957-0.521-1.339-0.926
		c-0.382-0.404-0.679-0.899-0.893-1.485c-0.213-0.586-0.319-1.252-0.319-1.998c0-0.764,0.106-1.445,0.319-2.045
		c0.213-0.599,0.511-1.103,0.893-1.512c0.382-0.408,0.828-0.719,1.339-0.933c0.51-0.213,1.067-0.319,1.671-0.319
		c0.595,0,1.15,0.106,1.665,0.319c0.515,0.213,0.963,0.524,1.345,0.933c0.382,0.409,0.679,0.913,0.893,1.512
		C209.816,249.25,209.923,249.931,209.923,250.695z M208.085,250.695c0-0.586-0.062-1.086-0.187-1.499
		c-0.125-0.413-0.295-0.748-0.513-1.006c-0.218-0.257-0.471-0.444-0.759-0.56c-0.289-0.115-0.597-0.173-0.926-0.173
		s-0.637,0.058-0.926,0.173c-0.289,0.116-0.54,0.302-0.752,0.56c-0.213,0.258-0.38,0.593-0.5,1.006
		c-0.12,0.413-0.18,0.912-0.18,1.499c0,0.577,0.06,1.065,0.18,1.465c0.12,0.4,0.286,0.726,0.5,0.979
		c0.213,0.253,0.464,0.436,0.752,0.546s0.597,0.167,0.926,0.167s0.637-0.056,0.926-0.167s0.542-0.293,0.759-0.546
		c0.217-0.253,0.388-0.579,0.513-0.979C208.023,251.76,208.085,251.272,208.085,250.695z"/>
</g>
<g>
	<path fill="#FFFFFF" d="M398.445,139.156c0.808,0,1.554,0.116,2.238,0.346c0.684,0.231,1.272,0.56,1.765,0.986
		c0.493,0.426,0.877,0.941,1.152,1.545c0.275,0.604,0.413,1.274,0.413,2.012c0,0.604-0.078,1.143-0.233,1.618
		s-0.377,0.893-0.666,1.252c-0.289,0.36-0.637,0.664-1.045,0.913c-0.409,0.249-0.866,0.449-1.373,0.6
		c1.244,0.329,2.177,0.879,2.804,1.651c0.626,0.772,0.939,1.741,0.939,2.904c0,0.879-0.167,1.669-0.5,2.371
		s-0.788,1.299-1.365,1.792c-0.578,0.493-1.25,0.871-2.018,1.132s-1.592,0.393-2.471,0.393c-1.013,0-1.878-0.126-2.598-0.379
		s-1.328-0.602-1.825-1.045c-0.498-0.444-0.906-0.97-1.226-1.579s-0.59-1.268-0.812-1.978l1.012-0.426
		c0.187-0.08,0.373-0.12,0.56-0.12c0.178,0,0.335,0.038,0.473,0.113c0.137,0.076,0.242,0.193,0.313,0.353
		c0.018,0.036,0.035,0.073,0.053,0.113c0.018,0.04,0.035,0.083,0.053,0.126c0.124,0.258,0.275,0.548,0.453,0.873
		s0.417,0.628,0.719,0.913s0.677,0.524,1.125,0.719c0.449,0.195,1.006,0.293,1.672,0.293s1.25-0.109,1.751-0.326
		c0.501-0.218,0.919-0.5,1.252-0.846c0.332-0.346,0.584-0.732,0.752-1.159c0.169-0.426,0.254-0.848,0.254-1.265
		c0-0.515-0.069-0.986-0.207-1.412s-0.387-0.794-0.746-1.105s-0.857-0.555-1.492-0.733c-0.635-0.177-1.45-0.266-2.444-0.266V147.8
		c0.808,0,1.499-0.084,2.071-0.253c0.573-0.168,1.041-0.399,1.405-0.692c0.364-0.293,0.628-0.644,0.793-1.053
		c0.164-0.408,0.246-0.861,0.246-1.358c0-0.55-0.087-1.03-0.26-1.438c-0.174-0.409-0.411-0.746-0.713-1.012
		c-0.302-0.267-0.659-0.466-1.072-0.6s-0.859-0.2-1.339-0.2s-0.923,0.071-1.332,0.213c-0.408,0.142-0.771,0.339-1.085,0.592
		c-0.315,0.253-0.579,0.555-0.792,0.905c-0.213,0.351-0.373,0.729-0.479,1.138c-0.071,0.257-0.178,0.443-0.32,0.559
		s-0.324,0.173-0.546,0.173c-0.044,0-0.091-0.002-0.14-0.006s-0.104-0.011-0.167-0.02l-1.239-0.21
		c0.125-0.87,0.364-1.641,0.72-2.311c0.355-0.67,0.806-1.232,1.352-1.685c0.546-0.453,1.172-0.797,1.878-1.032
		S397.628,139.156,398.445,139.156z"/>
	<path fill="#FFFFFF" d="M415.055,143.978c0,0.746-0.115,1.415-0.347,2.005s-0.54,1.088-0.926,1.492
		c-0.386,0.404-0.837,0.713-1.353,0.926c-0.515,0.213-1.052,0.32-1.611,0.32c-0.604,0-1.16-0.107-1.672-0.32
		c-0.51-0.213-0.957-0.521-1.338-0.926c-0.383-0.404-0.68-0.901-0.893-1.492s-0.32-1.259-0.32-2.005c0-0.764,0.107-1.443,0.32-2.038
		c0.213-0.595,0.51-1.096,0.893-1.505c0.381-0.408,0.828-0.719,1.338-0.933c0.512-0.213,1.068-0.319,1.672-0.319
		c0.596,0,1.152,0.106,1.672,0.319c0.52,0.213,0.968,0.524,1.346,0.933c0.377,0.409,0.674,0.91,0.893,1.505
		C414.945,142.535,415.055,143.214,415.055,143.978z M421.728,139.849c0.115-0.151,0.237-0.269,0.366-0.353s0.3-0.127,0.514-0.127
		h1.704l-13.946,18.702c-0.088,0.115-0.195,0.208-0.319,0.28s-0.271,0.106-0.439,0.106h-1.759L421.728,139.849z M413.203,143.978
		c0-0.586-0.062-1.083-0.187-1.492c-0.124-0.408-0.296-0.744-0.513-1.006c-0.218-0.262-0.471-0.451-0.76-0.566
		s-0.598-0.173-0.926-0.173s-0.637,0.058-0.926,0.173c-0.288,0.115-0.539,0.304-0.752,0.566c-0.213,0.262-0.38,0.598-0.5,1.006
		c-0.119,0.409-0.18,0.906-0.18,1.492c0,0.578,0.061,1.068,0.18,1.472c0.12,0.404,0.287,0.732,0.5,0.985
		c0.213,0.253,0.464,0.436,0.752,0.546c0.289,0.111,0.598,0.167,0.926,0.167s0.637-0.056,0.926-0.167s0.542-0.293,0.76-0.546
		c0.217-0.253,0.389-0.582,0.513-0.985C413.141,145.045,413.203,144.555,413.203,143.978z M425.604,153.955
		c0,0.746-0.115,1.412-0.346,1.998c-0.231,0.586-0.54,1.082-0.926,1.485c-0.387,0.404-0.835,0.713-1.346,0.926
		c-0.511,0.213-1.045,0.32-1.605,0.32c-0.604,0-1.16-0.106-1.671-0.32c-0.511-0.213-0.957-0.521-1.339-0.926
		c-0.382-0.404-0.68-0.899-0.893-1.485c-0.213-0.586-0.319-1.252-0.319-1.998c0-0.764,0.106-1.445,0.319-2.045
		c0.213-0.599,0.511-1.103,0.893-1.512c0.382-0.408,0.828-0.719,1.339-0.933c0.511-0.213,1.067-0.319,1.671-0.319
		c0.596,0,1.15,0.106,1.666,0.319c0.514,0.213,0.963,0.524,1.345,0.933c0.382,0.409,0.679,0.913,0.893,1.512
		C425.497,152.509,425.604,153.191,425.604,153.955z M423.766,153.955c0-0.586-0.062-1.086-0.187-1.499
		c-0.124-0.413-0.296-0.748-0.513-1.006c-0.218-0.257-0.471-0.444-0.76-0.56c-0.288-0.115-0.597-0.173-0.926-0.173
		c-0.328,0-0.637,0.058-0.926,0.173c-0.288,0.116-0.539,0.302-0.752,0.56c-0.213,0.258-0.38,0.593-0.5,1.006
		c-0.119,0.413-0.18,0.912-0.18,1.499c0,0.577,0.061,1.065,0.18,1.465c0.12,0.4,0.287,0.726,0.5,0.979
		c0.213,0.253,0.464,0.436,0.752,0.546c0.289,0.111,0.598,0.167,0.926,0.167c0.329,0,0.638-0.056,0.926-0.167
		c0.289-0.111,0.542-0.293,0.76-0.546c0.217-0.253,0.389-0.579,0.513-0.979C423.703,155.02,423.766,154.532,423.766,153.955z"/>
</g>
<g>
	<path fill="#FFFFFF" d="M430.933,203.649h4.103v-13.014c0-0.391,0.013-0.786,0.039-1.186l-3.409,2.917
		c-0.089,0.071-0.178,0.122-0.267,0.153s-0.173,0.046-0.253,0.046c-0.134,0-0.253-0.028-0.359-0.086
		c-0.107-0.058-0.187-0.126-0.24-0.207l-0.746-1.025l5.675-4.915h1.931v17.316h3.757v1.812h-10.229V203.649z"/>
	<path fill="#FFFFFF" d="M457.213,195.923c0,1.669-0.181,3.115-0.54,4.335c-0.359,1.221-0.851,2.231-1.472,3.03
		c-0.622,0.799-1.356,1.395-2.204,1.785c-0.849,0.391-1.757,0.586-2.725,0.586c-0.977,0-1.885-0.195-2.724-0.586
		s-1.569-0.986-2.191-1.785c-0.621-0.799-1.109-1.809-1.465-3.03c-0.355-1.221-0.533-2.666-0.533-4.335s0.178-3.117,0.533-4.342
		c0.355-1.226,0.844-2.24,1.465-3.044c0.622-0.803,1.353-1.4,2.191-1.792c0.839-0.391,1.747-0.586,2.724-0.586
		c0.968,0,1.876,0.195,2.725,0.586c0.848,0.391,1.582,0.988,2.204,1.792c0.621,0.804,1.112,1.818,1.472,3.044
		C457.032,192.806,457.213,194.254,457.213,195.923z M454.748,195.923c0-1.457-0.122-2.68-0.366-3.67
		c-0.244-0.99-0.572-1.787-0.985-2.391s-0.891-1.037-1.432-1.299c-0.542-0.262-1.106-0.393-1.692-0.393s-1.149,0.131-1.691,0.393
		c-0.542,0.262-1.017,0.695-1.425,1.299c-0.409,0.604-0.735,1.401-0.979,2.391c-0.244,0.99-0.366,2.213-0.366,3.67
		s0.122,2.677,0.366,3.663c0.244,0.985,0.57,1.78,0.979,2.384c0.408,0.604,0.883,1.037,1.425,1.299
		c0.542,0.262,1.105,0.393,1.691,0.393s1.15-0.131,1.692-0.393c0.541-0.262,1.019-0.695,1.432-1.299s0.741-1.399,0.985-2.384
		C454.626,198.601,454.748,197.38,454.748,195.923z"/>
	<path fill="#FFFFFF" d="M467.429,190.981c0,0.746-0.115,1.415-0.346,2.005c-0.231,0.59-0.54,1.088-0.926,1.492
		c-0.387,0.404-0.838,0.713-1.353,0.926s-1.052,0.32-1.611,0.32c-0.604,0-1.161-0.107-1.672-0.32s-0.957-0.521-1.339-0.926
		c-0.382-0.404-0.679-0.901-0.893-1.492c-0.213-0.59-0.319-1.259-0.319-2.005c0-0.764,0.106-1.443,0.319-2.038
		c0.214-0.595,0.511-1.096,0.893-1.505c0.382-0.408,0.828-0.719,1.339-0.933c0.511-0.213,1.067-0.319,1.672-0.319
		c0.595,0,1.152,0.106,1.672,0.319c0.52,0.213,0.968,0.524,1.345,0.933c0.378,0.409,0.675,0.91,0.893,1.505
		C467.32,189.539,467.429,190.218,467.429,190.981z M474.103,186.853c0.115-0.151,0.237-0.269,0.366-0.353
		c0.128-0.084,0.3-0.127,0.513-0.127h1.705l-13.946,18.702c-0.089,0.115-0.195,0.208-0.319,0.28
		c-0.125,0.071-0.271,0.106-0.439,0.106h-1.759L474.103,186.853z M465.577,190.981c0-0.586-0.062-1.083-0.187-1.492
		c-0.124-0.408-0.295-0.744-0.513-1.006c-0.218-0.262-0.471-0.451-0.759-0.566c-0.289-0.115-0.598-0.173-0.926-0.173
		c-0.329,0-0.638,0.058-0.926,0.173c-0.289,0.115-0.54,0.304-0.753,0.566c-0.213,0.262-0.38,0.598-0.499,1.006
		c-0.12,0.409-0.18,0.906-0.18,1.492c0,0.578,0.06,1.068,0.18,1.472c0.119,0.404,0.286,0.732,0.499,0.985
		c0.213,0.253,0.464,0.436,0.753,0.546c0.288,0.111,0.597,0.167,0.926,0.167c0.328,0,0.637-0.056,0.926-0.167
		c0.288-0.111,0.541-0.293,0.759-0.546c0.218-0.253,0.389-0.582,0.513-0.985C465.516,192.049,465.577,191.559,465.577,190.981z
		 M477.979,200.958c0,0.746-0.115,1.412-0.347,1.998c-0.23,0.586-0.539,1.082-0.926,1.485c-0.386,0.404-0.835,0.713-1.345,0.926
		c-0.511,0.213-1.046,0.32-1.605,0.32c-0.604,0-1.161-0.106-1.672-0.32c-0.511-0.213-0.957-0.521-1.339-0.926
		c-0.382-0.404-0.679-0.899-0.892-1.485c-0.214-0.586-0.32-1.252-0.32-1.998c0-0.764,0.106-1.445,0.32-2.045
		c0.213-0.599,0.51-1.103,0.892-1.512c0.382-0.408,0.828-0.719,1.339-0.933c0.511-0.213,1.068-0.319,1.672-0.319
		c0.595,0,1.15,0.106,1.665,0.319c0.515,0.213,0.964,0.524,1.346,0.933c0.381,0.409,0.679,0.913,0.892,1.512
		C477.872,199.513,477.979,200.195,477.979,200.958z M476.141,200.958c0-0.586-0.062-1.086-0.187-1.499
		c-0.125-0.413-0.296-0.748-0.514-1.006c-0.217-0.257-0.471-0.444-0.759-0.56c-0.289-0.115-0.598-0.173-0.926-0.173
		s-0.638,0.058-0.926,0.173c-0.289,0.116-0.539,0.302-0.753,0.56c-0.213,0.258-0.379,0.593-0.499,1.006
		c-0.12,0.413-0.18,0.912-0.18,1.499c0,0.577,0.06,1.065,0.18,1.465c0.12,0.4,0.286,0.726,0.499,0.979
		c0.214,0.253,0.464,0.436,0.753,0.546c0.288,0.111,0.598,0.167,0.926,0.167s0.637-0.056,0.926-0.167
		c0.288-0.111,0.542-0.293,0.759-0.546c0.218-0.253,0.389-0.579,0.514-0.979C476.078,202.024,476.141,201.536,476.141,200.958z"/>
</g>
<g>
	<path fill="#FFFFFF" d="M472.183,260.355c0.764,0,1.487,0.126,2.171,0.379s1.283,0.622,1.798,1.105
		c0.516,0.484,0.924,1.079,1.226,1.785s0.453,1.512,0.453,2.417c0,0.879-0.16,1.696-0.479,2.451
		c-0.319,0.755-0.766,1.412-1.339,1.972c-0.572,0.559-1.263,0.999-2.071,1.318c-0.808,0.32-1.696,0.479-2.664,0.479
		c-0.959,0-1.827-0.153-2.604-0.459c-0.777-0.306-1.441-0.741-1.991-1.305c-0.551-0.564-0.975-1.248-1.272-2.051
		s-0.446-1.703-0.446-2.697c0-0.834,0.187-1.723,0.56-2.664s0.963-1.954,1.771-3.037l4.835-6.514c0.124-0.16,0.298-0.295,0.52-0.406
		c0.222-0.111,0.475-0.167,0.76-0.167h2.104l-6.62,8.378c0.453-0.311,0.954-0.553,1.505-0.726
		C470.948,260.442,471.543,260.355,472.183,260.355z M467.254,266.163c0,0.613,0.089,1.172,0.267,1.679
		c0.178,0.506,0.438,0.941,0.779,1.305c0.342,0.364,0.759,0.646,1.252,0.846c0.493,0.2,1.055,0.3,1.685,0.3
		c0.64,0,1.217-0.102,1.731-0.306c0.516-0.204,0.957-0.488,1.326-0.853c0.368-0.364,0.652-0.795,0.853-1.292
		c0.199-0.498,0.299-1.039,0.299-1.625c0-0.622-0.098-1.184-0.293-1.685c-0.195-0.502-0.471-0.928-0.825-1.279
		c-0.355-0.351-0.782-0.62-1.279-0.806c-0.497-0.186-1.043-0.279-1.638-0.279c-0.64,0-1.217,0.109-1.731,0.326
		c-0.516,0.218-0.953,0.511-1.312,0.879c-0.359,0.369-0.635,0.795-0.826,1.279C467.35,265.135,467.254,265.639,467.254,266.163z"/>
	<path fill="#FFFFFF" d="M488.393,257.571c0,0.746-0.115,1.415-0.346,2.005c-0.231,0.59-0.54,1.088-0.926,1.492
		c-0.387,0.404-0.838,0.713-1.353,0.926s-1.052,0.32-1.611,0.32c-0.604,0-1.161-0.107-1.672-0.32s-0.957-0.521-1.339-0.926
		c-0.382-0.404-0.679-0.901-0.893-1.492c-0.213-0.59-0.319-1.259-0.319-2.005c0-0.764,0.106-1.443,0.319-2.038
		c0.214-0.595,0.511-1.096,0.893-1.505c0.382-0.408,0.828-0.719,1.339-0.933c0.511-0.213,1.067-0.319,1.672-0.319
		c0.595,0,1.152,0.106,1.672,0.319c0.52,0.213,0.968,0.524,1.345,0.933c0.378,0.409,0.675,0.91,0.893,1.505
		C488.284,256.128,488.393,256.808,488.393,257.571z M495.066,253.442c0.115-0.151,0.237-0.269,0.366-0.353
		c0.128-0.084,0.3-0.127,0.513-0.127h1.705l-13.946,18.702c-0.089,0.115-0.195,0.208-0.319,0.28
		c-0.125,0.071-0.271,0.106-0.439,0.106h-1.759L495.066,253.442z M486.541,257.571c0-0.586-0.062-1.083-0.187-1.492
		c-0.124-0.408-0.295-0.744-0.513-1.006c-0.218-0.262-0.471-0.451-0.759-0.566c-0.289-0.115-0.598-0.173-0.926-0.173
		c-0.329,0-0.638,0.058-0.926,0.173c-0.289,0.115-0.54,0.304-0.753,0.566c-0.213,0.262-0.38,0.598-0.499,1.006
		c-0.12,0.409-0.18,0.906-0.18,1.492c0,0.578,0.06,1.068,0.18,1.472c0.119,0.404,0.286,0.732,0.499,0.985
		c0.213,0.253,0.464,0.436,0.753,0.546c0.288,0.111,0.597,0.167,0.926,0.167c0.328,0,0.637-0.056,0.926-0.167
		c0.288-0.111,0.541-0.293,0.759-0.546c0.218-0.253,0.389-0.582,0.513-0.985C486.479,258.639,486.541,258.149,486.541,257.571z
		 M498.942,267.548c0,0.746-0.115,1.412-0.347,1.998c-0.23,0.586-0.539,1.082-0.926,1.485c-0.386,0.404-0.835,0.713-1.345,0.926
		c-0.511,0.213-1.046,0.32-1.605,0.32c-0.604,0-1.161-0.106-1.672-0.32c-0.511-0.213-0.957-0.521-1.339-0.926
		c-0.382-0.404-0.679-0.899-0.892-1.485c-0.214-0.586-0.32-1.252-0.32-1.998c0-0.764,0.106-1.445,0.32-2.045
		c0.213-0.599,0.51-1.103,0.892-1.512c0.382-0.408,0.828-0.719,1.339-0.933c0.511-0.213,1.068-0.319,1.672-0.319
		c0.595,0,1.15,0.106,1.665,0.319c0.515,0.213,0.964,0.524,1.346,0.933c0.381,0.409,0.679,0.913,0.892,1.512
		C498.836,266.103,498.942,266.785,498.942,267.548z M497.104,267.548c0-0.586-0.062-1.086-0.187-1.499
		c-0.125-0.413-0.296-0.748-0.514-1.006c-0.217-0.257-0.471-0.444-0.759-0.56c-0.289-0.115-0.598-0.173-0.926-0.173
		s-0.638,0.058-0.926,0.173c-0.289,0.116-0.539,0.302-0.753,0.56c-0.213,0.258-0.379,0.593-0.499,1.006
		c-0.12,0.413-0.18,0.912-0.18,1.499c0,0.577,0.06,1.065,0.18,1.465c0.12,0.4,0.286,0.726,0.499,0.979
		c0.214,0.253,0.464,0.436,0.753,0.546c0.288,0.111,0.598,0.167,0.926,0.167s0.637-0.056,0.926-0.167
		c0.288-0.111,0.542-0.293,0.759-0.546c0.218-0.253,0.389-0.579,0.514-0.979C497.042,268.614,497.104,268.125,497.104,267.548z"/>
</g>
<g>
	<path fill="#FFFFFF" d="M463.002,330.396c-0.719,0-1.4-0.12-2.045-0.359c-0.644-0.24-1.21-0.593-1.698-1.06
		c-0.488-0.466-0.877-1.039-1.165-1.718c-0.289-0.68-0.434-1.459-0.434-2.338c0-0.835,0.156-1.616,0.467-2.345
		c0.311-0.728,0.746-1.362,1.306-1.904s1.226-0.968,1.998-1.279c0.772-0.311,1.62-0.466,2.544-0.466c0.914,0,1.745,0.151,2.49,0.453
		c0.746,0.302,1.386,0.724,1.919,1.266c0.532,0.541,0.943,1.189,1.231,1.944c0.289,0.755,0.434,1.59,0.434,2.504
		c0,0.551-0.052,1.072-0.153,1.565c-0.103,0.493-0.251,0.975-0.446,1.445s-0.429,0.938-0.699,1.405
		c-0.271,0.466-0.58,0.948-0.926,1.445l-4.649,6.713c-0.115,0.169-0.279,0.305-0.492,0.406c-0.213,0.103-0.458,0.153-0.732,0.153
		h-2.185l5.808-7.605c0.194-0.258,0.377-0.502,0.546-0.732c0.168-0.231,0.328-0.462,0.479-0.693
		c-0.488,0.391-1.039,0.688-1.651,0.893C464.334,330.293,463.686,330.396,463.002,330.396z M467.771,324.814
		c0-0.595-0.096-1.135-0.286-1.618c-0.191-0.484-0.455-0.895-0.793-1.232c-0.337-0.338-0.739-0.598-1.205-0.779
		s-0.979-0.273-1.538-0.273c-0.587,0-1.122,0.096-1.605,0.287c-0.484,0.19-0.897,0.455-1.238,0.792
		c-0.343,0.338-0.606,0.741-0.793,1.212s-0.279,0.986-0.279,1.546c0,0.604,0.086,1.143,0.259,1.618
		c0.174,0.475,0.422,0.877,0.746,1.205c0.324,0.329,0.72,0.577,1.186,0.746c0.467,0.169,0.988,0.253,1.565,0.253
		c0.64,0,1.205-0.104,1.698-0.312c0.493-0.209,0.908-0.486,1.245-0.833c0.338-0.346,0.595-0.746,0.772-1.198
		C467.682,325.773,467.771,325.303,467.771,324.814z"/>
	<path fill="#FFFFFF" d="M480.558,323.749c0,0.745-0.115,1.414-0.346,2.004c-0.231,0.591-0.54,1.088-0.926,1.492
		c-0.387,0.404-0.838,0.713-1.353,0.926s-1.052,0.319-1.611,0.319c-0.604,0-1.161-0.106-1.672-0.319s-0.957-0.521-1.339-0.926
		s-0.679-0.901-0.893-1.492c-0.213-0.59-0.319-1.259-0.319-2.004c0-0.764,0.106-1.443,0.319-2.038
		c0.214-0.595,0.511-1.097,0.893-1.506c0.382-0.408,0.828-0.719,1.339-0.932c0.511-0.214,1.067-0.32,1.672-0.32
		c0.595,0,1.152,0.106,1.672,0.32c0.52,0.213,0.968,0.523,1.345,0.932c0.378,0.409,0.675,0.911,0.893,1.506
		S480.558,322.985,480.558,323.749z M487.231,319.619c0.115-0.15,0.237-0.269,0.366-0.353c0.128-0.084,0.3-0.127,0.513-0.127h1.705
		l-13.946,18.701c-0.089,0.116-0.195,0.209-0.319,0.28c-0.125,0.071-0.271,0.106-0.439,0.106h-1.759L487.231,319.619z
		 M478.706,323.749c0-0.587-0.062-1.084-0.187-1.492c-0.124-0.408-0.295-0.744-0.513-1.006s-0.471-0.45-0.759-0.566
		c-0.289-0.115-0.598-0.173-0.926-0.173c-0.329,0-0.638,0.058-0.926,0.173c-0.289,0.116-0.54,0.305-0.753,0.566
		s-0.38,0.598-0.499,1.006c-0.12,0.408-0.18,0.905-0.18,1.492c0,0.577,0.06,1.067,0.18,1.472c0.119,0.404,0.286,0.732,0.499,0.985
		s0.464,0.436,0.753,0.546c0.288,0.111,0.597,0.167,0.926,0.167c0.328,0,0.637-0.056,0.926-0.167
		c0.288-0.11,0.541-0.293,0.759-0.546s0.389-0.581,0.513-0.985C478.645,324.816,478.706,324.326,478.706,323.749z M491.107,333.726
		c0,0.746-0.115,1.412-0.347,1.998c-0.23,0.586-0.539,1.081-0.926,1.485c-0.386,0.403-0.835,0.712-1.345,0.926
		c-0.511,0.213-1.046,0.319-1.605,0.319c-0.604,0-1.161-0.106-1.672-0.319c-0.511-0.214-0.957-0.522-1.339-0.926
		c-0.382-0.404-0.679-0.899-0.892-1.485c-0.214-0.586-0.32-1.252-0.32-1.998c0-0.764,0.106-1.445,0.32-2.045
		c0.213-0.6,0.51-1.104,0.892-1.512s0.828-0.72,1.339-0.933s1.068-0.319,1.672-0.319c0.595,0,1.15,0.106,1.665,0.319
		s0.964,0.524,1.346,0.933c0.381,0.408,0.679,0.912,0.892,1.512C491.001,332.28,491.107,332.962,491.107,333.726z M489.27,333.726
		c0-0.586-0.062-1.086-0.187-1.499c-0.125-0.413-0.296-0.748-0.514-1.006c-0.217-0.257-0.471-0.443-0.759-0.559
		c-0.289-0.115-0.598-0.174-0.926-0.174s-0.638,0.059-0.926,0.174c-0.289,0.115-0.539,0.302-0.753,0.559
		c-0.213,0.258-0.379,0.593-0.499,1.006s-0.18,0.913-0.18,1.499c0,0.577,0.06,1.065,0.18,1.465s0.286,0.727,0.499,0.979
		c0.214,0.253,0.464,0.435,0.753,0.546c0.288,0.111,0.598,0.166,0.926,0.166s0.637-0.055,0.926-0.166
		c0.288-0.111,0.542-0.293,0.759-0.546c0.218-0.253,0.389-0.58,0.514-0.979C489.207,334.791,489.27,334.303,489.27,333.726z"/>
</g>
<g>
	<path fill="#FFFFFF" d="M353.293,418.157c0.808,0,1.562,0.12,2.264,0.359c0.702,0.24,1.308,0.589,1.818,1.046
		c0.51,0.457,0.913,1.015,1.206,1.672s0.439,1.403,0.439,2.237c0,0.711-0.106,1.368-0.32,1.972
		c-0.213,0.604-0.501,1.184-0.866,1.738s-0.784,1.092-1.259,1.611s-0.979,1.051-1.512,1.592l-5.021,5.142
		c0.355-0.098,0.714-0.175,1.079-0.232s0.715-0.087,1.052-0.087h6.394c0.258,0,0.462,0.075,0.613,0.227
		c0.151,0.15,0.227,0.346,0.227,0.586v1.438h-12.734v-0.812c0-0.169,0.033-0.342,0.1-0.52c0.066-0.178,0.175-0.342,0.326-0.493
		l6.114-6.141c0.506-0.515,0.968-1.01,1.385-1.484c0.417-0.476,0.775-0.953,1.072-1.433s0.526-0.966,0.686-1.458
		c0.16-0.493,0.24-1.02,0.24-1.579c0-0.559-0.089-1.05-0.267-1.472s-0.422-0.77-0.732-1.045c-0.311-0.275-0.675-0.482-1.092-0.62
		s-0.866-0.206-1.345-0.206s-0.924,0.071-1.332,0.213c-0.409,0.143-0.771,0.34-1.085,0.593c-0.315,0.253-0.582,0.553-0.799,0.899
		c-0.218,0.346-0.371,0.728-0.459,1.146c-0.071,0.258-0.178,0.444-0.32,0.56s-0.329,0.173-0.559,0.173
		c-0.045,0-0.091-0.002-0.14-0.007c-0.049-0.004-0.104-0.011-0.167-0.02l-1.239-0.214c0.125-0.87,0.364-1.64,0.719-2.311
		c0.355-0.67,0.806-1.232,1.352-1.685c0.546-0.453,1.172-0.798,1.878-1.033C351.714,418.275,352.476,418.157,353.293,418.157z"/>
	<path fill="#FFFFFF" d="M368.997,418.157c0.808,0,1.554,0.115,2.238,0.347c0.684,0.23,1.272,0.56,1.765,0.985
		c0.493,0.426,0.876,0.941,1.152,1.545c0.275,0.604,0.413,1.274,0.413,2.012c0,0.604-0.078,1.144-0.233,1.618
		c-0.155,0.476-0.377,0.893-0.666,1.252s-0.637,0.664-1.045,0.912c-0.409,0.249-0.866,0.449-1.372,0.6
		c1.243,0.329,2.178,0.879,2.804,1.652c0.626,0.772,0.939,1.74,0.939,2.903c0,0.879-0.167,1.67-0.5,2.371s-0.788,1.299-1.365,1.791
		c-0.578,0.493-1.25,0.871-2.018,1.133s-1.592,0.393-2.471,0.393c-1.013,0-1.878-0.126-2.598-0.379
		c-0.719-0.254-1.328-0.602-1.825-1.046c-0.498-0.444-0.906-0.971-1.226-1.579c-0.32-0.607-0.59-1.267-0.812-1.978l1.012-0.427
		c0.187-0.079,0.373-0.119,0.56-0.119c0.178,0,0.335,0.038,0.473,0.113c0.137,0.075,0.242,0.192,0.313,0.353
		c0.018,0.036,0.035,0.073,0.053,0.113c0.018,0.04,0.035,0.082,0.053,0.127c0.124,0.257,0.275,0.548,0.453,0.872
		s0.417,0.628,0.719,0.912s0.677,0.524,1.125,0.72c0.449,0.195,1.006,0.293,1.672,0.293s1.25-0.108,1.751-0.326
		s0.919-0.5,1.252-0.846c0.333-0.347,0.584-0.732,0.753-1.159c0.168-0.426,0.253-0.848,0.253-1.266c0-0.515-0.069-0.985-0.207-1.412
		c-0.138-0.426-0.386-0.794-0.746-1.105c-0.36-0.311-0.857-0.555-1.492-0.732s-1.45-0.267-2.444-0.267v-1.731
		c0.808,0,1.499-0.084,2.071-0.253s1.041-0.399,1.405-0.692c0.364-0.293,0.628-0.644,0.793-1.053
		c0.164-0.408,0.246-0.861,0.246-1.358c0-0.551-0.086-1.03-0.26-1.438c-0.173-0.408-0.411-0.746-0.712-1.013
		c-0.302-0.267-0.659-0.466-1.072-0.6c-0.413-0.133-0.859-0.199-1.339-0.199s-0.923,0.071-1.332,0.213
		c-0.408,0.142-0.771,0.34-1.085,0.592c-0.315,0.253-0.579,0.555-0.792,0.905c-0.213,0.351-0.373,0.729-0.479,1.138
		c-0.071,0.257-0.178,0.443-0.32,0.559s-0.324,0.173-0.546,0.173c-0.044,0-0.091-0.002-0.14-0.006
		c-0.049-0.005-0.104-0.012-0.167-0.021l-1.239-0.21c0.125-0.87,0.364-1.64,0.72-2.311c0.355-0.67,0.806-1.232,1.352-1.685
		c0.546-0.453,1.172-0.798,1.878-1.033C367.418,418.275,368.18,418.157,368.997,418.157z"/>
	<path fill="#FFFFFF" d="M385.606,422.979c0,0.745-0.115,1.414-0.346,2.004c-0.231,0.591-0.54,1.088-0.926,1.492
		s-0.837,0.713-1.352,0.926s-1.052,0.319-1.611,0.319c-0.604,0-1.161-0.106-1.672-0.319s-0.957-0.521-1.338-0.926
		c-0.382-0.404-0.68-0.901-0.893-1.492c-0.213-0.59-0.32-1.259-0.32-2.004c0-0.764,0.106-1.443,0.32-2.038
		c0.213-0.595,0.51-1.097,0.893-1.506c0.381-0.408,0.828-0.719,1.338-0.932c0.511-0.214,1.068-0.32,1.672-0.32
		c0.595,0,1.152,0.106,1.671,0.32c0.52,0.213,0.968,0.523,1.345,0.932c0.377,0.409,0.675,0.911,0.893,1.506
		C385.497,421.536,385.606,422.216,385.606,422.979z M392.279,418.85c0.115-0.15,0.238-0.269,0.366-0.353
		c0.129-0.084,0.3-0.127,0.513-0.127h1.705l-13.946,18.701c-0.089,0.116-0.195,0.209-0.32,0.28
		c-0.124,0.071-0.271,0.106-0.439,0.106H378.4L392.279,418.85z M383.755,422.979c0-0.587-0.062-1.084-0.187-1.492
		c-0.125-0.408-0.295-0.744-0.513-1.006c-0.217-0.262-0.471-0.45-0.759-0.566c-0.289-0.115-0.598-0.173-0.926-0.173
		c-0.329,0-0.638,0.058-0.926,0.173c-0.289,0.116-0.54,0.305-0.753,0.566c-0.213,0.262-0.379,0.598-0.5,1.006
		c-0.12,0.408-0.18,0.905-0.18,1.492c0,0.577,0.06,1.067,0.18,1.472c0.12,0.404,0.287,0.732,0.5,0.985
		c0.213,0.253,0.464,0.436,0.753,0.546c0.288,0.111,0.597,0.167,0.926,0.167c0.328,0,0.637-0.056,0.926-0.167
		c0.288-0.11,0.542-0.293,0.759-0.546c0.218-0.253,0.389-0.581,0.513-0.985C383.692,424.047,383.755,423.557,383.755,422.979z
		 M396.156,432.956c0,0.746-0.116,1.412-0.347,1.998s-0.54,1.081-0.926,1.485c-0.386,0.403-0.834,0.712-1.345,0.926
		c-0.511,0.213-1.045,0.319-1.605,0.319c-0.604,0-1.161-0.106-1.671-0.319c-0.511-0.214-0.957-0.522-1.339-0.926
		c-0.382-0.404-0.679-0.899-0.893-1.485c-0.213-0.586-0.319-1.252-0.319-1.998c0-0.764,0.106-1.445,0.319-2.045
		c0.213-0.6,0.511-1.104,0.893-1.512s0.828-0.72,1.339-0.933c0.51-0.213,1.067-0.319,1.671-0.319c0.595,0,1.15,0.106,1.665,0.319
		c0.515,0.213,0.963,0.524,1.345,0.933s0.679,0.912,0.893,1.512C396.049,431.511,396.156,432.192,396.156,432.956z M394.317,432.956
		c0-0.586-0.062-1.086-0.187-1.499s-0.295-0.748-0.513-1.006c-0.218-0.257-0.471-0.443-0.759-0.559s-0.597-0.174-0.926-0.174
		s-0.637,0.059-0.926,0.174s-0.54,0.302-0.752,0.559c-0.213,0.258-0.38,0.593-0.5,1.006c-0.12,0.413-0.18,0.913-0.18,1.499
		c0,0.577,0.06,1.065,0.18,1.465c0.12,0.399,0.286,0.727,0.5,0.979c0.213,0.253,0.464,0.435,0.752,0.546s0.597,0.166,0.926,0.166
		s0.637-0.055,0.926-0.166s0.542-0.293,0.759-0.546c0.217-0.253,0.388-0.58,0.513-0.979S394.317,433.533,394.317,432.956z"/>
</g>
<g>
	<g>
	</g>
	<g>
	</g>
	<g>
	</g>
	<g>
	</g>
	<g>
	</g>
	<g>
	</g>
</g>
</svg>
