<?xml version="1.0" encoding="utf-8"?>
<!-- Generator: Adobe Illustrator 16.0.0, SVG Export Plug-In . SVG Version: 6.00 Build 0)  -->
<!DOCTYPE svg PUBLIC "-//W3C//DTD SVG 1.1//EN" "http://www.w3.org/Graphics/SVG/1.1/DTD/svg11.dtd">
<svg version="1.1" id="Layer_1" xmlns="http://www.w3.org/2000/svg" xmlns:xlink="http://www.w3.org/1999/xlink" x="0px" y="0px"
	 width="618px" height="601px" viewBox="0 0 618 601" enable-background="new 0 0 618 601" xml:space="preserve">
<g opacity="0.5">
	<path fill="#0F789F" d="M162.472,77.858c-1.822,1.422-3.635,2.871-5.433,4.351l1.769,2.135c1.781-1.463,3.547-2.899,5.353-4.31
		L162.472,77.858z"/>
	<path fill="#0F789F" d="M148.521,480.812c1.728,1.561,3.469,3.094,5.216,4.594l1.826-2.107c-1.756-1.473-3.482-3.012-5.19-4.535
		L148.521,480.812z"/>
	<path fill="#0F789F" d="M138.412,471.23c1.638,1.645,3.304,3.266,5.006,4.852l1.896-1.996c-1.666-1.574-3.313-3.188-4.934-4.799
		L138.412,471.23z"/>
	<path fill="#0F789F" d="M151.729,86.705c-1.729,1.524-3.452,3.066-5.181,4.625l1.873,2.06c1.712-1.566,3.405-3.1,5.138-4.604
		L151.729,86.705z"/>
	<path fill="#0F789F" d="M173.649,69.582c-1.896,1.308-3.78,2.678-5.633,4.052l1.643,2.247c1.842-1.377,3.697-2.724,5.573-4.036
		L173.649,69.582z"/>
	<path fill="#0F789F" d="M159.106,489.859c1.803,1.463,3.635,2.889,5.49,4.289l1.679-2.174c-1.832-1.412-3.613-2.832-5.428-4.281
		L159.106,489.859z"/>
	<path fill="#0F789F" d="M124.661,118.267l-2.13-1.784c-1.479,1.784-2.959,3.581-4.409,5.421l2.169,1.7
		C121.722,121.812,123.186,120.015,124.661,118.267z"/>
	<path fill="#0F789F" d="M170.189,498.314c1.872,1.373,3.765,2.707,5.681,4.025l1.576-2.283v-0.014
		c-1.921-1.299-3.787-2.605-5.634-3.965L170.189,498.314z"/>
	<path fill="#0F789F" d="M111.335,439.533c1.367,1.871,2.75,3.736,4.156,5.566l2.207-1.686c-1.385-1.822-2.779-3.645-4.117-5.514
		L111.335,439.533z"/>
	<path fill="#0F789F" d="M116.083,129.057l-2.205-1.652c-1.402,1.858-2.774,3.737-4.114,5.623l2.258,1.594
		C113.355,132.754,114.719,130.893,116.083,129.057z"/>
	<path fill="#0F789F" d="M128.829,461.15c1.575,1.709,3.137,3.428,4.735,5.096l2.029-1.889c-1.596-1.672-3.157-3.365-4.709-5.068
		L128.829,461.15z"/>
	<path fill="#0F789F" d="M143.417,98.114l-1.93-1.998c-1.661,1.6-3.322,3.241-4.939,4.901l1.983,1.944
		C140.136,101.312,141.774,99.709,143.417,98.114z"/>
	<path fill="#0F789F" d="M119.802,450.568c1.443,1.811,2.937,3.576,4.451,5.346l2.117-1.795c-1.501-1.74-2.972-3.508-4.417-5.295
		L119.802,450.568z"/>
	<path fill="#0F789F" d="M133.776,107.94l-2.032-1.896c-1.576,1.698-3.142,3.434-4.677,5.167l2.081,1.833
		C130.655,111.323,132.212,109.621,133.776,107.94z"/>
	<path fill="#0F789F" d="M218.466,526.049c2.127,0.922,4.278,1.834,6.426,2.709l1.043-2.559c-2.136-0.867-4.231-1.744-6.346-2.695
		L218.466,526.049z"/>
	<path fill="#0F789F" d="M238.618,530.992c-2.107-0.729-4.179-1.482-6.244-2.268l-0.981,2.586c1.953,0.75,3.912,1.459,5.876,2.15
		C237.555,532.594,238.003,531.764,238.618,530.992z"/>
	<path fill="#0F789F" d="M103.45,428.064c1.289,1.947,2.563,3.881,3.856,5.791l2.305-1.582c-1.294-1.881-2.551-3.797-3.819-5.707
		L103.45,428.064z"/>
	<path fill="#0F789F" d="M235.12,37.665c-2.188,0.798-4.358,1.62-6.52,2.448l1.021,2.597c2.14-0.857,4.266-1.642,6.443-2.439
		L235.12,37.665z"/>
	<path fill="#0F789F" d="M248.344,33.294c-2.224,0.685-4.458,1.372-6.647,2.11l0.872,2.631c2.167-0.735,4.365-1.411,6.571-2.072
		L248.344,33.294z"/>
	<path fill="#0F789F" d="M261.759,29.644c-2.246,0.539-4.509,1.132-6.723,1.735l0.725,2.671c2.192-0.596,4.427-1.172,6.661-1.723
		L261.759,29.644z"/>
	<path fill="#0F789F" d="M193.581,513.459c2.014,1.174,4.031,2.297,6.085,3.393l1.334-2.447c-2.045-1.09-4.05-2.205-6.033-3.352
		L193.581,513.459z"/>
	<path fill="#0F789F" d="M197.206,54.862c-1.993,1.121-4.042,2.271-6.029,3.448l1.403,2.371c1.98-1.147,3.971-2.28,5.968-3.399
		L197.206,54.862z"/>
	<path fill="#0F789F" d="M181.661,506.195c1.951,1.268,3.932,2.482,5.907,3.707l1.45-2.355v-0.02c-1.964-1.186-3.915-2.4-5.83-3.67
		L181.661,506.195z"/>
	<path fill="#0F789F" d="M209.537,48.45c-2.094,1.017-4.156,2.068-6.19,3.13l1.273,2.471c2.011-1.067,4.052-2.1,6.12-3.088
		L209.537,48.45z"/>
	<path fill="#0F789F" d="M185.245,61.895c-1.961,1.235-3.913,2.505-5.843,3.772l1.509,2.303c1.904-1.273,3.844-2.504,5.788-3.721
		L185.245,61.895z"/>
	<path fill="#0F789F" d="M205.843,520.082c2.067,1.047,4.17,2.074,6.277,3.061l1.182-2.482c-2.081-0.992-4.16-2.016-6.2-3.043
		L205.843,520.082z"/>
	<path fill="#0F789F" d="M222.184,42.733c-2.134,0.907-4.248,1.829-6.361,2.786l1.152,2.521c2.069-0.952,4.171-1.856,6.276-2.756
		L222.184,42.733z"/>
	<path fill="#0F789F" d="M87.84,176.375l-2.497-1.166c-0.973,2.109-1.907,4.241-2.836,6.373l2.556,1.097
		C85.952,180.558,86.892,178.446,87.84,176.375z"/>
	<path fill="#0F789F" d="M100.719,151.977l-2.378-1.445c-1.186,2.008-2.341,4.009-3.491,6.044l2.418,1.355
		C98.377,155.924,99.533,153.929,100.719,151.977z"/>
	<path fill="#0F789F" d="M108.108,140.312l-2.316-1.548c-1.292,1.931-2.541,3.88-3.801,5.835l2.337,1.488
		C105.567,144.127,106.831,142.219,108.108,140.312z"/>
	<path fill="#0F789F" d="M584.074,268.405l2.758-0.161c-0.15-2.312-0.311-4.646-0.516-6.932l-2.768,0.233
		C583.748,263.833,583.928,266.136,584.074,268.405z"/>
	<path fill="#0F789F" d="M582.842,254.704l2.742-0.328c-0.271-2.312-0.559-4.613-0.893-6.893l-2.746,0.383
		C582.291,250.132,582.582,252.42,582.842,254.704z"/>
	<path fill="#0F789F" d="M574.807,214.213l2.666-0.745c-0.629-2.257-1.281-4.467-1.988-6.688l-2.623,0.821
		C573.525,209.802,574.189,211.986,574.807,214.213z"/>
	<path fill="#0F789F" d="M584.582,282.173l2.775-0.02c-0.029-2.355-0.068-4.653-0.162-6.951l-2.76,0.108
		C584.518,277.578,584.551,279.876,584.582,282.173z"/>
	<path fill="#0F789F" d="M578.227,227.557l2.682-0.627c-0.525-2.243-1.068-4.488-1.629-6.756l-2.682,0.681
		C577.17,223.089,577.697,225.313,578.227,227.557z"/>
	<path fill="#0F789F" d="M580.879,241.061l2.734-0.464c-0.385-2.298-0.809-4.58-1.26-6.853l-2.715,0.554
		C580.076,236.535,580.48,238.802,580.879,241.061z"/>
	<path fill="#0F789F" d="M64.339,297.012l-2.757,0.125c0.116,2.323,0.236,4.649,0.395,6.948l2.776-0.178
		C64.586,301.599,64.45,299.332,64.339,297.012z"/>
	<path fill="#0F789F" d="M76.427,364.633l-2.636,0.824c0.696,2.211,1.451,4.42,2.209,6.619l2.604-0.922
		C77.874,368.98,77.125,366.811,76.427,364.633z"/>
	<path fill="#0F789F" d="M78.378,378.602c0.838,2.186,1.705,4.328,2.575,6.484l2.555-1.07c-0.879-2.119-1.722-4.248-2.531-6.398
		L78.378,378.602z"/>
	<path fill="#0F789F" d="M69.449,338l-2.722,0.55c0.476,2.261,0.963,4.54,1.495,6.772l2.709-0.607
		C70.405,342.473,69.908,340.222,69.449,338z"/>
	<path fill="#0F789F" d="M72.571,351.4l-2.663,0.689c0.573,2.246,1.191,4.496,1.853,6.723l2.649-0.764
		C73.784,355.83,73.17,353.617,72.571,351.4z"/>
	<path fill="#0F789F" d="M83.667,391.461c0.949,2.115,1.905,4.227,2.901,6.299l2.478-1.193c-0.966-2.064-1.925-4.129-2.855-6.232
		L83.667,391.461z"/>
	<path fill="#0F789F" d="M89.627,403.984c1.046,2.092,2.107,4.141,3.217,6.164l2.424-1.324c-1.094-2.004-2.142-4.035-3.183-6.092
		L89.627,403.984z"/>
	<path fill="#0F789F" d="M64.101,285.184v-1.947l-2.789-0.016v1.963c0,1.672,0,3.332,0.043,4.989l2.788-0.034
		C64.101,288.493,64.101,286.835,64.101,285.184z"/>
	<path fill="#0F789F" d="M64.554,269.458l-2.771-0.162c-0.144,2.317-0.25,4.646-0.32,6.961l2.762,0.094
		C64.298,274.053,64.424,271.754,64.554,269.458z"/>
	<path fill="#0F789F" d="M65.314,310.75l-2.747,0.268c0.214,2.317,0.473,4.622,0.773,6.919l2.753-0.328
		C65.809,315.318,65.552,313.048,65.314,310.75z"/>
	<path fill="#0F789F" d="M96.224,416.225c1.155,1.988,2.322,4,3.552,5.977l2.347-1.457c-1.165-1.947-2.347-3.936-3.496-5.914
		L96.224,416.225z"/>
	<path fill="#0F789F" d="M67.019,324.427l-2.737,0.421c0.351,2.272,0.723,4.579,1.113,6.855l2.745-0.488
		C67.74,328.974,67.361,326.692,67.019,324.427z"/>
	<path fill="#0F789F" d="M93.969,163.981l-2.468-1.272c-1.065,2.037-2.132,4.129-3.15,6.203l2.478,1.227
		C91.854,168.066,92.887,166.014,93.969,163.981z"/>
	<path fill="#0F789F" d="M516.494,105.534c-1.596-1.68-3.195-3.369-4.816-5.007l-1.988,1.932c1.623,1.661,3.219,3.296,4.768,4.98
		L516.494,105.534z"/>
	<path fill="#0F789F" d="M506.715,95.645c-1.668-1.607-3.361-3.216-5.084-4.767l-1.875,2.038c1.711,1.562,3.395,3.121,5.027,4.717
		L506.715,95.645z"/>
	<path fill="#0F789F" d="M469.396,501.295l1.539,2.311c1.932-1.295,3.824-2.629,5.74-3.955l-1.631-2.258
		C473.189,498.709,471.301,500.021,469.396,501.295z"/>
	<path fill="#0F789F" d="M529.611,445.219l2.191,1.701c1.424-1.82,2.807-3.662,4.211-5.541l-2.236-1.639
		C532.402,441.564,531.023,443.406,529.611,445.219z"/>
	<path fill="#0F789F" d="M485.654,77.418c-1.82-1.425-3.664-2.829-5.543-4.223l-1.643,2.26c1.844,1.351,3.682,2.723,5.5,4.146
		L485.654,77.418z"/>
	<path fill="#0F789F" d="M474.439,69.159c-1.902-1.333-3.834-2.644-5.768-3.914l-1.512,2.326c1.912,1.251,3.814,2.553,5.707,3.852
		L474.439,69.159z"/>
	<path fill="#0F789F" d="M496.434,86.26c-1.75-1.544-3.525-3.022-5.324-4.502l-1.754,2.151c1.77,1.459,3.514,2.932,5.264,4.438
		L496.434,86.26z"/>
	<path fill="#0F789F" d="M564.42,385.885l2.562,1.068c0.871-2.141,1.768-4.293,2.594-6.449l-2.57-1.023
		C566.154,381.619,565.303,383.771,564.42,385.885z"/>
	<path fill="#0F789F" d="M587.309,290.942c0.049-1.915,0.09-3.835,0.09-5.758H584.6c0,1.6-0.029,3.195-0.059,4.793
		C585.525,290.105,586.471,290.42,587.309,290.942z"/>
	<path fill="#0F789F" d="M552.385,410.734l2.439,1.314c1.107-2.016,2.195-4.082,3.273-6.133l-2.473-1.283
		C554.598,406.674,553.504,408.701,552.385,410.734z"/>
	<path fill="#0F789F" d="M569.416,373.014l2.609,0.926c0.797-2.189,1.541-4.402,2.268-6.605l-2.629-0.85
		C570.949,368.672,570.186,370.861,569.416,373.014z"/>
	<path fill="#0F789F" d="M537.818,434.141l2.26,1.578c1.32-1.902,2.643-3.838,3.916-5.762l-2.32-1.539
		C540.406,430.354,539.129,432.25,537.818,434.141z"/>
	<path fill="#0F789F" d="M545.404,422.617l2.346,1.486c1.242-1.984,2.43-3.963,3.605-5.971l-2.381-1.41
		C547.809,418.709,546.619,420.684,545.404,422.617z"/>
	<path fill="#0F789F" d="M558.725,398.471l2.52,1.203c0.99-2.094,1.99-4.193,2.957-6.338l-2.559-1.131
		C560.705,394.312,559.738,396.396,558.725,398.471z"/>
	<path fill="#0F789F" d="M457.801,508.662l1.418,2.391c1.975-1.18,3.965-2.402,5.904-3.635l-1.467-2.354
		C461.703,506.293,459.754,507.502,457.801,508.662z"/>
	<path fill="#0F789F" d="M425.631,42.363c-2.162-0.883-4.322-1.757-6.479-2.611l-1.002,2.585c2.168,0.842,4.301,1.694,6.418,2.572
		L425.631,42.363z"/>
	<path fill="#0F789F" d="M326.83,545.439l0.016,2.787c2.331-0.045,4.638-0.082,6.94-0.16l-0.062-2.777
		C331.398,545.363,329.123,545.412,326.83,545.439z"/>
	<path fill="#0F789F" d="M330.767,22.229c-2.134-0.036-4.264-0.067-6.44-0.067h-0.51v2.757c0.18,0,0.363-0.01,0.51,0
		c2.163-0.01,4.263,0.027,6.39,0.072L330.767,22.229z"/>
	<path fill="#0F789F" d="M344.663,22.916c-2.286-0.167-4.601-0.307-6.932-0.432l-0.152,2.768c2.331,0.116,4.605,0.264,6.881,0.421
		L344.663,22.916z"/>
	<path fill="#0F789F" d="M340.572,544.936l0.205,2.781c2.307-0.158,4.606-0.324,6.931-0.527l-0.246-2.74
		C345.17,544.646,342.893,544.807,340.572,544.936z"/>
	<path fill="#0F789F" d="M354.328,543.734l0.293,2.754c2.321-0.25,4.621-0.557,6.92-0.867l-0.394-2.764
		C358.88,543.182,356.577,543.5,354.328,543.734z"/>
	<path fill="#0F789F" d="M357.796,24.276c-2.058-0.274-4.118-0.503-6.18-0.738l-0.287,2.767c2.248,0.233,4.514,0.509,6.768,0.789
		C357.836,26.182,357.741,25.228,357.796,24.276z"/>
	<path fill="#0F789F" d="M312.935,547.967c2.316,0.115,4.636,0.182,6.953,0.215l0.041-2.77c-2.293-0.039-4.585-0.1-6.87-0.207
		L312.935,547.967z"/>
	<path fill="#0F789F" d="M289.101,24.492c-2.299,0.329-4.582,0.642-6.869,1.009l0.448,2.744c2.251-0.368,4.511-0.697,6.791-1.007
		L289.101,24.492z"/>
	<path fill="#0F789F" d="M285.228,545.332c2.297,0.357,4.592,0.66,6.918,0.932l0.327-2.754c-2.285-0.287-4.558-0.598-6.836-0.939
		L285.228,545.332z"/>
	<path fill="#0F789F" d="M302.948,23.016c-2.316,0.183-4.611,0.389-6.909,0.643l0.302,2.765c2.244-0.241,4.536-0.458,6.836-0.659
		L302.948,23.016z"/>
	<path fill="#0F789F" d="M299.049,547.018c2.306,0.215,4.611,0.395,6.95,0.551l0.174-2.742c-2.308-0.162-4.575-0.33-6.86-0.562
		L299.049,547.018z"/>
	<path fill="#0F789F" d="M316.843,22.257c-2.305,0.063-4.634,0.166-6.937,0.289l0.159,2.768c2.255-0.122,4.553-0.235,6.856-0.3
		L316.843,22.257z"/>
	<path fill="#0F789F" d="M420.889,526.947l1.027,2.572c2.156-0.859,4.275-1.744,6.418-2.66l-1.104-2.537
		C425.143,525.232,423.033,526.1,420.889,526.947z"/>
	<path fill="#0F789F" d="M438.365,48.061c-2.102-1.003-4.211-1.968-6.332-2.919l-1.127,2.524c2.09,0.935,4.186,1.903,6.26,2.902
		L438.365,48.061z"/>
	<path fill="#0F789F" d="M433.531,521.518l1.156,2.512c2.07-0.971,4.166-1.965,6.238-2.988l-1.23-2.494
		C437.65,519.568,435.584,520.557,433.531,521.518z"/>
	<path fill="#0F789F" d="M462.795,61.493c-1.957-1.218-3.963-2.423-5.973-3.601l-1.389,2.407c1.984,1.166,3.945,2.337,5.9,3.541
		L462.795,61.493z"/>
	<path fill="#0F789F" d="M450.764,54.449c-2.033-1.102-4.074-2.198-6.164-3.257l-1.254,2.46c2.041,1.047,4.039,2.135,6.072,3.236
		L450.764,54.449z"/>
	<path fill="#0F789F" d="M275.36,26.714c-2.263,0.426-4.541,0.874-6.799,1.368l0.577,2.727c2.238-0.51,4.473-0.964,6.75-1.375
		L275.36,26.714z"/>
	<path fill="#0F789F" d="M445.812,515.443l1.289,2.43c2.049-1.09,4.096-2.201,6.105-3.326l-1.344-2.418
		C449.861,513.256,447.848,514.355,445.812,515.443z"/>
	<path fill="#0F789F" d="M394.817,535.799l0.765,2.646c2.234-0.623,4.453-1.275,6.659-1.957l-0.797-2.623
		C399.229,534.525,397.034,535.158,394.817,535.799z"/>
	<path fill="#0F789F" d="M381.448,539.164l0.612,2.691c2.28-0.492,4.537-1.033,6.769-1.598l-0.657-2.689
		C385.955,538.117,383.697,538.656,381.448,539.164z"/>
	<path fill="#0F789F" d="M407.967,531.715l0.883,2.623c2.223-0.738,4.395-1.518,6.602-2.309l-0.98-2.607
		C412.324,530.217,410.17,530.979,407.967,531.715z"/>
	<path fill="#0F789F" d="M367.953,541.811l0.458,2.729c2.283-0.387,4.582-0.805,6.841-1.238l-0.522-2.727
		C372.483,541.012,370.204,541.441,367.953,541.811z"/>
	<path fill="#0F789F" d="M412.59,37.321c-2.182-0.77-4.375-1.521-6.59-2.254l-0.879,2.637c2.197,0.715,4.395,1.463,6.537,2.224
		L412.59,37.321z"/>
	<rect x="292.473" y="543.51" fill="#0F789F" width="0" height="0"/>
	<polygon fill="#0F789F" points="541.674,428.418 541.674,428.418 541.674,428.418 541.674,428.418 541.674,428.418 	"/>
	<polygon fill="#0F789F" points="120.291,123.604 120.291,123.604 120.291,123.604 120.291,123.604 120.291,123.604 	"/>
	<polygon fill="#0F789F" points="499.756,92.917 499.756,92.917 499.756,92.917 499.756,92.917 499.756,92.917 	"/>
	<polygon fill="#0F789F" points="158.808,84.343 158.808,84.343 158.808,84.343 158.808,84.343 158.808,84.343 	"/>
	<polygon fill="#0F789F" points="323.817,24.918 323.817,24.918 323.817,24.918 323.817,24.918 323.817,24.918 	"/>
</g>
<g>
	<path fill="#FFFFFF" d="M36.054,250.019h2.41c0.249,0,0.457,0.059,0.624,0.176c0.167,0.118,0.279,0.276,0.335,0.475l2.623,9.223
		c0.064,0.228,0.123,0.475,0.176,0.741c0.054,0.266,0.105,0.549,0.155,0.848c0.057-0.299,0.119-0.582,0.187-0.848
		c0.067-0.267,0.141-0.514,0.219-0.741l3.028-9.223c0.057-0.164,0.169-0.312,0.336-0.448c0.167-0.135,0.372-0.203,0.613-0.203h0.842
		c0.249,0,0.455,0.059,0.619,0.176c0.163,0.118,0.277,0.276,0.341,0.475l3.007,9.223c0.156,0.455,0.292,0.959,0.405,1.514
		c0.05-0.277,0.101-0.544,0.155-0.8c0.053-0.256,0.108-0.494,0.165-0.714l2.623-9.223c0.05-0.178,0.16-0.331,0.331-0.458
		c0.17-0.128,0.376-0.192,0.618-0.192h2.25l-4.788,15.418h-2.591l-3.369-10.535c-0.043-0.135-0.087-0.281-0.133-0.437
		c-0.046-0.156-0.091-0.323-0.133-0.501c-0.043,0.178-0.087,0.345-0.133,0.501c-0.046,0.156-0.091,0.302-0.133,0.437l-3.401,10.535
		h-2.591L36.054,250.019z"/>
	<path fill="#FFFFFF" d="M63.734,254.327c0.689,0,1.324,0.11,1.903,0.331c0.579,0.22,1.079,0.542,1.498,0.965
		c0.419,0.423,0.747,0.942,0.981,1.557c0.234,0.615,0.352,1.317,0.352,2.106c0,0.199-0.009,0.364-0.027,0.496
		c-0.018,0.131-0.05,0.234-0.096,0.309c-0.046,0.075-0.108,0.128-0.187,0.16c-0.078,0.032-0.178,0.048-0.298,0.048H61.1
		c0.079,1.123,0.38,1.948,0.907,2.474c0.526,0.526,1.222,0.789,2.09,0.789c0.426,0,0.794-0.05,1.104-0.149
		c0.309-0.1,0.579-0.209,0.81-0.331c0.231-0.121,0.434-0.231,0.608-0.331c0.174-0.1,0.343-0.149,0.506-0.149
		c0.106,0,0.199,0.021,0.277,0.064c0.078,0.043,0.146,0.104,0.203,0.182l0.768,0.959c-0.292,0.341-0.619,0.627-0.981,0.858
		s-0.741,0.416-1.136,0.554s-0.796,0.236-1.205,0.293c-0.409,0.057-0.805,0.085-1.189,0.085c-0.761,0-1.468-0.126-2.122-0.379
		c-0.654-0.252-1.223-0.625-1.706-1.12c-0.483-0.494-0.864-1.105-1.141-1.833c-0.277-0.729-0.416-1.573-0.416-2.533
		c0-0.746,0.121-1.448,0.362-2.105c0.242-0.658,0.588-1.23,1.04-1.717c0.452-0.487,1.002-0.873,1.653-1.157
		S62.917,254.327,63.734,254.327z M63.787,256.214c-0.768,0-1.368,0.217-1.802,0.65s-0.711,1.049-0.832,1.845h4.947
		c0-0.341-0.046-0.663-0.139-0.965s-0.234-0.567-0.427-0.794c-0.192-0.228-0.434-0.407-0.725-0.539
		C64.52,256.28,64.178,256.214,63.787,256.214z"/>
	<path fill="#FFFFFF" d="M70.643,265.437v-15.844h2.634v6.248c0.433-0.462,0.924-0.83,1.471-1.104s1.187-0.411,1.919-0.411
		c0.597,0,1.142,0.123,1.636,0.368c0.494,0.246,0.921,0.603,1.28,1.072s0.636,1.049,0.832,1.738c0.195,0.69,0.293,1.482,0.293,2.378
		c0,0.817-0.11,1.575-0.331,2.271c-0.221,0.697-0.535,1.301-0.944,1.813c-0.409,0.512-0.903,0.912-1.482,1.199
		c-0.58,0.288-1.228,0.432-1.946,0.432c-0.334,0-0.64-0.034-0.917-0.102s-0.53-0.162-0.757-0.283
		c-0.228-0.121-0.439-0.268-0.634-0.442c-0.195-0.174-0.382-0.368-0.56-0.581l-0.118,0.736c-0.042,0.185-0.115,0.316-0.218,0.395
		s-0.244,0.117-0.421,0.117H70.643z M75.76,256.374c-0.547,0-1.015,0.116-1.402,0.346c-0.388,0.231-0.748,0.557-1.082,0.976v4.904
		c0.298,0.37,0.624,0.627,0.976,0.773c0.352,0.146,0.734,0.218,1.146,0.218c0.398,0,0.757-0.075,1.077-0.224
		c0.32-0.149,0.591-0.377,0.815-0.683s0.396-0.691,0.517-1.157c0.121-0.465,0.181-1.015,0.181-1.647c0-0.64-0.051-1.182-0.154-1.626
		c-0.104-0.444-0.25-0.805-0.443-1.082c-0.192-0.277-0.425-0.48-0.698-0.608S76.109,256.374,75.76,256.374z"/>
</g>
<g>
	<path fill="#FFFFFF" d="M466.586,532.361c0.156,0,0.291,0.061,0.404,0.182l1.131,1.227c-0.627,0.775-1.396,1.367-2.309,1.779
		c-0.914,0.414-2.01,0.619-3.289,0.619c-1.145,0-2.174-0.195-3.088-0.586c-0.912-0.391-1.693-0.936-2.34-1.631
		c-0.646-0.697-1.143-1.529-1.488-2.496c-0.344-0.967-0.516-2.021-0.516-3.166c0-1.158,0.191-2.221,0.576-3.184
		c0.383-0.963,0.924-1.793,1.619-2.49c0.697-0.695,1.531-1.238,2.5-1.625c0.971-0.387,2.043-0.582,3.215-0.582
		c1.145,0,2.146,0.184,3.002,0.551c0.857,0.365,1.59,0.85,2.201,1.455l-0.959,1.332c-0.057,0.086-0.129,0.16-0.219,0.225
		c-0.088,0.064-0.211,0.096-0.367,0.096c-0.164,0-0.33-0.064-0.502-0.191c-0.17-0.129-0.387-0.268-0.65-0.416
		c-0.262-0.15-0.596-0.289-0.996-0.416c-0.402-0.129-0.912-0.191-1.531-0.191c-0.725,0-1.391,0.125-1.998,0.377
		c-0.607,0.254-1.131,0.613-1.568,1.082c-0.436,0.471-0.777,1.041-1.023,1.713c-0.244,0.672-0.367,1.426-0.367,2.266
		c0,0.867,0.123,1.639,0.367,2.312c0.246,0.676,0.578,1.244,0.998,1.707c0.418,0.461,0.912,0.814,1.482,1.061
		c0.568,0.246,1.18,0.367,1.834,0.367c0.391,0,0.744-0.021,1.061-0.062c0.316-0.043,0.607-0.111,0.873-0.203
		c0.268-0.092,0.52-0.211,0.758-0.357s0.475-0.324,0.709-0.539c0.07-0.062,0.146-0.115,0.225-0.154S466.492,532.361,466.586,532.361
		z"/>
	<path fill="#FFFFFF" d="M478.707,535.998h-1.182c-0.25,0-0.445-0.037-0.588-0.113c-0.143-0.074-0.248-0.225-0.318-0.453
		l-0.236-0.777c-0.277,0.248-0.549,0.467-0.814,0.656c-0.268,0.188-0.543,0.346-0.826,0.475c-0.285,0.127-0.588,0.223-0.906,0.287
		c-0.32,0.064-0.676,0.096-1.066,0.096c-0.463,0-0.889-0.062-1.279-0.188c-0.393-0.125-0.727-0.311-1.008-0.561
		s-0.5-0.561-0.656-0.932s-0.234-0.803-0.234-1.295c0-0.412,0.107-0.82,0.324-1.225c0.217-0.402,0.578-0.766,1.084-1.09
		c0.504-0.326,1.176-0.594,2.014-0.809c0.84-0.213,1.881-0.32,3.125-0.32v-0.645c0-0.738-0.154-1.285-0.465-1.639
		c-0.309-0.355-0.758-0.533-1.348-0.533c-0.428,0-0.783,0.051-1.066,0.15c-0.285,0.1-0.531,0.211-0.742,0.336
		c-0.209,0.125-0.402,0.236-0.58,0.336s-0.373,0.148-0.586,0.148c-0.178,0-0.332-0.045-0.459-0.139
		c-0.129-0.092-0.23-0.205-0.309-0.34l-0.48-0.844c1.258-1.15,2.775-1.727,4.553-1.727c0.641,0,1.211,0.105,1.711,0.314
		c0.502,0.209,0.926,0.502,1.275,0.875c0.348,0.373,0.611,0.818,0.793,1.338c0.182,0.518,0.271,1.088,0.271,1.705V535.998z
		 M473.59,534.355c0.27,0,0.52-0.025,0.746-0.074c0.229-0.049,0.443-0.121,0.646-0.219c0.201-0.1,0.396-0.219,0.586-0.363
		c0.188-0.143,0.379-0.312,0.57-0.508v-1.832c-0.768,0-1.41,0.049-1.926,0.145c-0.514,0.098-0.928,0.221-1.242,0.371
		c-0.312,0.15-0.533,0.326-0.666,0.525c-0.131,0.201-0.197,0.42-0.197,0.656c0,0.465,0.137,0.797,0.41,0.998
		C472.793,534.256,473.148,534.355,473.59,534.355z"/>
	<path fill="#FFFFFF" d="M484.104,520.152v15.846h-2.635v-15.846H484.104z"/>
	<path fill="#FFFFFF" d="M489.883,520.152v15.846h-2.635v-15.846H489.883z"/>
	<path fill="#FFFFFF" d="M507.721,532.361c0.156,0,0.291,0.061,0.404,0.182l1.131,1.227c-0.627,0.775-1.396,1.367-2.309,1.779
		c-0.914,0.414-2.01,0.619-3.289,0.619c-1.145,0-2.174-0.195-3.088-0.586c-0.912-0.391-1.693-0.936-2.34-1.631
		c-0.646-0.697-1.143-1.529-1.488-2.496c-0.344-0.967-0.516-2.021-0.516-3.166c0-1.158,0.191-2.221,0.576-3.184
		c0.383-0.963,0.924-1.793,1.619-2.49c0.697-0.695,1.531-1.238,2.5-1.625c0.971-0.387,2.043-0.582,3.215-0.582
		c1.145,0,2.146,0.184,3.002,0.551c0.857,0.365,1.59,0.85,2.201,1.455l-0.959,1.332c-0.057,0.086-0.129,0.16-0.219,0.225
		c-0.088,0.064-0.211,0.096-0.367,0.096c-0.164,0-0.33-0.064-0.502-0.191c-0.17-0.129-0.387-0.268-0.65-0.416
		c-0.262-0.15-0.596-0.289-0.996-0.416c-0.402-0.129-0.912-0.191-1.531-0.191c-0.725,0-1.391,0.125-1.998,0.377
		c-0.607,0.254-1.131,0.613-1.568,1.082c-0.436,0.471-0.777,1.041-1.023,1.713c-0.244,0.672-0.367,1.426-0.367,2.266
		c0,0.867,0.123,1.639,0.367,2.312c0.246,0.676,0.578,1.244,0.998,1.707c0.418,0.461,0.912,0.814,1.482,1.061
		c0.568,0.246,1.18,0.367,1.834,0.367c0.391,0,0.744-0.021,1.061-0.062c0.316-0.043,0.607-0.111,0.873-0.203
		c0.268-0.092,0.52-0.211,0.758-0.357s0.475-0.324,0.709-0.539c0.07-0.062,0.146-0.115,0.225-0.154S507.627,532.361,507.721,532.361
		z"/>
	<path fill="#FFFFFF" d="M515.791,524.887c0.689,0,1.324,0.111,1.902,0.332c0.58,0.219,1.08,0.541,1.498,0.965
		c0.42,0.422,0.748,0.941,0.982,1.557c0.234,0.613,0.352,1.316,0.352,2.105c0,0.199-0.01,0.363-0.027,0.496
		c-0.018,0.131-0.049,0.234-0.096,0.309s-0.107,0.127-0.186,0.16c-0.08,0.031-0.178,0.047-0.299,0.047h-6.76
		c0.078,1.125,0.379,1.949,0.906,2.475c0.525,0.525,1.223,0.789,2.09,0.789c0.426,0,0.793-0.049,1.104-0.148
		c0.309-0.1,0.578-0.211,0.811-0.332c0.23-0.121,0.432-0.23,0.607-0.33c0.174-0.1,0.342-0.148,0.506-0.148
		c0.107,0,0.199,0.021,0.277,0.062c0.078,0.043,0.146,0.104,0.203,0.182l0.768,0.959c-0.293,0.342-0.619,0.629-0.98,0.859
		c-0.363,0.23-0.742,0.416-1.137,0.555s-0.797,0.236-1.205,0.293s-0.805,0.086-1.188,0.086c-0.762,0-1.469-0.127-2.123-0.379
		s-1.223-0.625-1.705-1.119c-0.484-0.494-0.863-1.105-1.141-1.834s-0.416-1.574-0.416-2.533c0-0.746,0.121-1.447,0.361-2.105
		c0.242-0.658,0.588-1.23,1.041-1.717c0.451-0.486,1.002-0.873,1.652-1.156C514.24,525.029,514.973,524.887,515.791,524.887z
		 M515.844,526.775c-0.768,0-1.367,0.217-1.801,0.65s-0.711,1.047-0.832,1.844h4.947c0-0.342-0.047-0.662-0.139-0.965
		s-0.234-0.566-0.426-0.795c-0.193-0.227-0.434-0.406-0.727-0.537C516.576,526.84,516.234,526.775,515.844,526.775z"/>
	<path fill="#FFFFFF" d="M522.668,535.998v-10.939h1.609c0.342,0,0.566,0.16,0.672,0.479l0.182,0.863
		c0.221-0.227,0.453-0.432,0.697-0.617c0.246-0.186,0.506-0.346,0.779-0.48s0.566-0.238,0.879-0.309s0.654-0.107,1.023-0.107
		c0.598,0,1.127,0.102,1.59,0.305c0.461,0.203,0.848,0.486,1.156,0.854c0.309,0.365,0.545,0.803,0.703,1.311
		c0.16,0.508,0.24,1.068,0.24,1.68v6.963h-2.633v-6.963c0-0.668-0.154-1.186-0.465-1.551c-0.309-0.367-0.771-0.551-1.391-0.551
		c-0.455,0-0.881,0.104-1.279,0.311c-0.398,0.205-0.775,0.486-1.131,0.842v7.912H522.668z"/>
	<path fill="#FFFFFF" d="M538.385,536.168c-0.945,0-1.676-0.268-2.188-0.805s-0.768-1.277-0.768-2.223v-6.109h-1.107
		c-0.143,0-0.266-0.047-0.369-0.139c-0.102-0.094-0.154-0.232-0.154-0.416v-1.045l1.76-0.289l0.555-2.984
		c0.027-0.143,0.094-0.252,0.197-0.332c0.102-0.078,0.232-0.117,0.389-0.117h1.365v3.445h2.879v1.877h-2.879v5.928
		c0,0.342,0.084,0.607,0.256,0.799c0.17,0.193,0.398,0.289,0.682,0.289c0.164,0,0.301-0.02,0.41-0.059
		c0.111-0.039,0.207-0.08,0.289-0.123s0.154-0.084,0.219-0.123c0.062-0.039,0.127-0.059,0.191-0.059c0.078,0,0.143,0.02,0.191,0.059
		c0.051,0.039,0.104,0.098,0.16,0.176l0.789,1.279c-0.383,0.32-0.824,0.562-1.322,0.727
		C539.432,536.086,538.918,536.168,538.385,536.168z"/>
	<path fill="#FFFFFF" d="M543.043,535.998v-10.939h1.547c0.27,0,0.459,0.049,0.564,0.148c0.107,0.1,0.178,0.27,0.213,0.512
		l0.16,1.322c0.391-0.676,0.85-1.209,1.377-1.6c0.525-0.391,1.115-0.586,1.77-0.586c0.539,0,0.988,0.125,1.344,0.373l-0.342,1.973
		c-0.021,0.127-0.068,0.219-0.139,0.271s-0.168,0.08-0.287,0.08c-0.107,0-0.254-0.025-0.438-0.074
		c-0.186-0.051-0.43-0.074-0.736-0.074c-0.547,0-1.016,0.15-1.408,0.453c-0.391,0.301-0.721,0.744-0.99,1.326v6.814H543.043z"/>
	<path fill="#FFFFFF" d="M556.275,524.887c0.689,0,1.324,0.111,1.902,0.332c0.58,0.219,1.08,0.541,1.498,0.965
		c0.42,0.422,0.748,0.941,0.982,1.557c0.234,0.613,0.352,1.316,0.352,2.105c0,0.199-0.01,0.363-0.027,0.496
		c-0.018,0.131-0.049,0.234-0.096,0.309s-0.107,0.127-0.186,0.16c-0.08,0.031-0.178,0.047-0.299,0.047h-6.76
		c0.078,1.125,0.379,1.949,0.906,2.475c0.525,0.525,1.223,0.789,2.09,0.789c0.426,0,0.793-0.049,1.104-0.148
		c0.309-0.1,0.578-0.211,0.811-0.332c0.23-0.121,0.432-0.23,0.607-0.33c0.174-0.1,0.342-0.148,0.506-0.148
		c0.107,0,0.199,0.021,0.277,0.062c0.078,0.043,0.146,0.104,0.203,0.182l0.768,0.959c-0.293,0.342-0.619,0.629-0.98,0.859
		c-0.363,0.23-0.742,0.416-1.137,0.555s-0.797,0.236-1.205,0.293s-0.805,0.086-1.188,0.086c-0.762,0-1.469-0.127-2.123-0.379
		s-1.223-0.625-1.705-1.119c-0.484-0.494-0.863-1.105-1.141-1.834s-0.416-1.574-0.416-2.533c0-0.746,0.121-1.447,0.361-2.105
		c0.242-0.658,0.588-1.23,1.041-1.717c0.451-0.486,1.002-0.873,1.652-1.156C554.725,525.029,555.457,524.887,556.275,524.887z
		 M556.328,526.775c-0.768,0-1.367,0.217-1.801,0.65s-0.711,1.047-0.832,1.844h4.947c0-0.342-0.047-0.662-0.139-0.965
		s-0.234-0.566-0.426-0.795c-0.193-0.227-0.434-0.406-0.727-0.537C557.061,526.84,556.719,526.775,556.328,526.775z"/>
</g>
<g>
	<path fill="#FFFFFF" d="M420.299,24.991v5.427h-2.869V15h5.023c1.029,0,1.922,0.121,2.676,0.363s1.375,0.579,1.865,1.013
		s0.854,0.953,1.088,1.557c0.234,0.604,0.352,1.266,0.352,1.983c0,0.746-0.123,1.431-0.373,2.052
		c-0.248,0.622-0.621,1.157-1.119,1.605s-1.119,0.796-1.865,1.045c-0.748,0.249-1.621,0.373-2.623,0.373H420.299z M420.299,22.752
		h2.154c0.525,0,0.984-0.065,1.375-0.197c0.391-0.131,0.715-0.32,0.971-0.565s0.447-0.544,0.574-0.896
		c0.129-0.352,0.193-0.745,0.193-1.178c0-0.412-0.064-0.786-0.193-1.12c-0.127-0.334-0.318-0.619-0.574-0.853
		s-0.58-0.414-0.971-0.539c-0.391-0.124-0.85-0.187-1.375-0.187h-2.154V22.752z"/>
	<path fill="#FFFFFF" d="M430.514,30.418V14.574h2.633v6.088c0.428-0.405,0.896-0.732,1.408-0.981
		c0.512-0.249,1.111-0.373,1.801-0.373c0.598,0,1.127,0.102,1.59,0.304c0.461,0.203,0.848,0.487,1.156,0.853
		c0.309,0.366,0.545,0.804,0.703,1.312c0.16,0.508,0.24,1.068,0.24,1.68v6.962h-2.633v-6.962c0-0.668-0.154-1.186-0.465-1.552
		c-0.309-0.366-0.771-0.549-1.391-0.549c-0.455,0-0.881,0.103-1.279,0.309s-0.775,0.487-1.131,0.842v7.912H430.514z"/>
	<path fill="#FFFFFF" d="M447.307,19.308c0.816,0,1.559,0.132,2.223,0.395c0.664,0.263,1.232,0.636,1.701,1.12
		s0.832,1.073,1.088,1.77s0.383,1.475,0.383,2.335c0,0.867-0.127,1.649-0.383,2.346c-0.256,0.697-0.619,1.29-1.088,1.781
		c-0.469,0.49-1.037,0.867-1.701,1.13c-0.664,0.263-1.406,0.395-2.223,0.395c-0.818,0-1.561-0.132-2.229-0.395
		c-0.668-0.263-1.238-0.64-1.711-1.13c-0.473-0.491-0.84-1.084-1.098-1.781c-0.26-0.696-0.391-1.479-0.391-2.346
		c0-0.86,0.131-1.638,0.391-2.335c0.258-0.697,0.625-1.287,1.098-1.77s1.043-0.856,1.711-1.12
		C445.746,19.44,446.488,19.308,447.307,19.308z M447.307,28.553c0.91,0,1.584-0.306,2.02-0.917
		c0.438-0.611,0.656-1.507,0.656-2.687c0-1.18-0.219-2.079-0.656-2.698c-0.436-0.618-1.109-0.928-2.02-0.928
		c-0.924,0-1.607,0.311-2.047,0.933c-0.441,0.622-0.662,1.52-0.662,2.692s0.221,2.067,0.662,2.682
		C445.699,28.245,446.383,28.553,447.307,28.553z"/>
	<path fill="#FFFFFF" d="M454.76,30.418V19.479h1.609c0.342,0,0.566,0.16,0.672,0.479l0.182,0.864
		c0.221-0.228,0.453-0.434,0.697-0.619c0.246-0.185,0.506-0.345,0.779-0.479c0.273-0.135,0.566-0.238,0.879-0.31
		c0.312-0.071,0.654-0.106,1.023-0.106c0.598,0,1.127,0.102,1.59,0.304c0.461,0.203,0.848,0.487,1.156,0.853
		c0.309,0.366,0.545,0.804,0.703,1.312c0.16,0.508,0.24,1.068,0.24,1.68v6.962h-2.633v-6.962c0-0.668-0.154-1.186-0.465-1.552
		c-0.309-0.366-0.771-0.549-1.391-0.549c-0.455,0-0.881,0.103-1.279,0.309s-0.775,0.487-1.131,0.842v7.912H454.76z"/>
	<path fill="#FFFFFF" d="M471.404,19.308c0.688,0,1.322,0.11,1.902,0.331s1.078,0.542,1.498,0.965
		c0.42,0.423,0.746,0.942,0.98,1.557c0.234,0.615,0.352,1.317,0.352,2.106c0,0.199-0.008,0.364-0.025,0.496
		c-0.018,0.131-0.051,0.234-0.096,0.309c-0.047,0.075-0.109,0.128-0.188,0.16c-0.078,0.032-0.178,0.048-0.299,0.048h-6.76
		c0.078,1.123,0.381,1.948,0.906,2.474s1.223,0.789,2.09,0.789c0.428,0,0.795-0.05,1.104-0.149s0.58-0.209,0.811-0.331
		c0.23-0.121,0.434-0.231,0.607-0.331s0.344-0.149,0.508-0.149c0.105,0,0.197,0.021,0.275,0.064
		c0.078,0.043,0.146,0.104,0.203,0.182l0.768,0.959c-0.291,0.341-0.617,0.627-0.98,0.858s-0.74,0.416-1.135,0.554
		s-0.797,0.236-1.205,0.293c-0.41,0.057-0.805,0.085-1.189,0.085c-0.76,0-1.469-0.126-2.121-0.379
		c-0.654-0.252-1.223-0.625-1.707-1.12c-0.482-0.494-0.863-1.105-1.141-1.833s-0.416-1.573-0.416-2.533
		c0-0.746,0.121-1.448,0.363-2.105c0.24-0.658,0.588-1.23,1.039-1.717s1.002-0.873,1.652-1.157S470.586,19.308,471.404,19.308z
		 M471.457,21.195c-0.768,0-1.369,0.217-1.803,0.65s-0.711,1.049-0.832,1.845h4.947c0-0.341-0.045-0.663-0.139-0.965
		c-0.092-0.302-0.234-0.567-0.426-0.794s-0.434-0.407-0.725-0.539C472.189,21.261,471.848,21.195,471.457,21.195z"/>
</g>
<g>
	<path fill="#FFFFFF" d="M547.012,178.047v2.282h-6.834v4.276h5.385v2.207h-5.385v4.361h6.834v2.292h-9.725v-15.418H547.012z"/>
	<path fill="#FFFFFF" d="M549.006,185.927h5.521v2.197h-5.521V185.927z"/>
	<path fill="#FFFFFF" d="M557.002,193.465v-10.939h1.609c0.342,0,0.566,0.16,0.672,0.479l0.17,0.811
		c0.193-0.213,0.395-0.409,0.604-0.586s0.434-0.331,0.672-0.458s0.494-0.229,0.768-0.304c0.273-0.074,0.574-0.112,0.9-0.112
		c0.689,0,1.256,0.187,1.701,0.56c0.443,0.373,0.775,0.869,0.996,1.487c0.172-0.363,0.385-0.673,0.641-0.933
		c0.256-0.259,0.537-0.471,0.842-0.634c0.307-0.164,0.631-0.284,0.977-0.363c0.344-0.078,0.691-0.117,1.039-0.117
		c0.604,0,1.141,0.092,1.609,0.277s0.863,0.455,1.184,0.81c0.32,0.356,0.564,0.789,0.73,1.301c0.168,0.512,0.25,1.098,0.25,1.759
		v6.962h-2.633v-6.962c0-0.697-0.152-1.221-0.459-1.573c-0.305-0.352-0.752-0.528-1.344-0.528c-0.27,0-0.52,0.046-0.75,0.139
		c-0.232,0.092-0.434,0.226-0.609,0.4c-0.174,0.174-0.311,0.393-0.41,0.655c-0.1,0.263-0.148,0.565-0.148,0.907v6.962h-2.645v-6.962
		c0-0.732-0.148-1.265-0.443-1.6c-0.295-0.334-0.73-0.501-1.305-0.501c-0.377,0-0.73,0.094-1.062,0.282
		c-0.33,0.188-0.637,0.446-0.922,0.773v8.007H557.002z"/>
	<path fill="#FFFFFF" d="M583.529,193.465h-1.182c-0.25,0-0.445-0.037-0.588-0.112s-0.248-0.226-0.318-0.453l-0.236-0.778
		c-0.277,0.249-0.549,0.467-0.814,0.656c-0.268,0.188-0.543,0.346-0.826,0.474c-0.285,0.128-0.588,0.224-0.906,0.288
		c-0.32,0.064-0.676,0.096-1.066,0.096c-0.463,0-0.889-0.062-1.279-0.187c-0.393-0.125-0.727-0.312-1.008-0.562
		s-0.5-0.56-0.656-0.931c-0.156-0.371-0.234-0.802-0.234-1.294c0-0.414,0.107-0.822,0.324-1.225s0.578-0.767,1.084-1.091
		c0.504-0.324,1.176-0.594,2.014-0.808c0.84-0.214,1.881-0.321,3.125-0.321v-0.645c0-0.738-0.154-1.284-0.465-1.639
		c-0.309-0.354-0.758-0.532-1.348-0.532c-0.428,0-0.783,0.05-1.066,0.149c-0.285,0.1-0.531,0.212-0.742,0.336
		c-0.209,0.125-0.402,0.237-0.58,0.336c-0.178,0.1-0.373,0.149-0.586,0.149c-0.178,0-0.332-0.046-0.459-0.139
		c-0.129-0.092-0.23-0.206-0.309-0.341l-0.48-0.842c1.258-1.151,2.775-1.727,4.553-1.727c0.641,0,1.211,0.105,1.711,0.314
		c0.502,0.209,0.926,0.501,1.275,0.874c0.348,0.374,0.611,0.819,0.793,1.338s0.271,1.087,0.271,1.706V193.465z M578.412,191.823
		c0.27,0,0.52-0.024,0.746-0.073c0.229-0.049,0.443-0.123,0.646-0.221c0.201-0.098,0.396-0.218,0.586-0.362
		c0.188-0.144,0.379-0.313,0.57-0.509v-1.831c-0.768,0-1.41,0.048-1.926,0.145c-0.514,0.097-0.928,0.22-1.242,0.371
		c-0.312,0.15-0.533,0.326-0.666,0.526c-0.131,0.2-0.197,0.418-0.197,0.655c0,0.465,0.137,0.798,0.41,0.999
		C577.615,191.723,577.971,191.823,578.412,191.823z"/>
	<path fill="#FFFFFF" d="M589.32,179.337c0,0.228-0.047,0.441-0.139,0.64c-0.094,0.199-0.215,0.373-0.369,0.522
		c-0.152,0.149-0.332,0.268-0.537,0.357c-0.207,0.089-0.428,0.133-0.662,0.133c-0.227,0-0.441-0.044-0.645-0.133
		s-0.379-0.208-0.527-0.357c-0.15-0.149-0.27-0.324-0.357-0.522c-0.09-0.199-0.133-0.413-0.133-0.64
		c0-0.234,0.043-0.455,0.133-0.661c0.088-0.206,0.207-0.384,0.357-0.533c0.148-0.149,0.324-0.269,0.527-0.357
		s0.418-0.133,0.645-0.133c0.234,0,0.455,0.044,0.662,0.133c0.205,0.089,0.385,0.208,0.537,0.357
		c0.154,0.149,0.275,0.327,0.369,0.533C589.273,178.883,589.32,179.103,589.32,179.337z M588.926,182.526v10.939h-2.635v-10.939
		H588.926z"/>
	<path fill="#FFFFFF" d="M594.705,177.621v15.844h-2.635v-15.844H594.705z"/>
</g>
<g>
	<path fill="#FFFFFF" d="M567.18,355.912c0,1.129-0.188,2.176-0.564,3.139c-0.377,0.965-0.906,1.797-1.59,2.502
		c-0.682,0.703-1.502,1.252-2.463,1.646c-0.959,0.395-2.021,0.592-3.188,0.592s-2.23-0.197-3.193-0.592s-1.787-0.943-2.475-1.646
		c-0.686-0.705-1.217-1.537-1.594-2.502c-0.377-0.963-0.564-2.01-0.564-3.139c0-1.131,0.188-2.178,0.564-3.141
		s0.908-1.797,1.594-2.5c0.688-0.703,1.512-1.254,2.475-1.648s2.027-0.592,3.193-0.592s2.229,0.199,3.188,0.598
		c0.961,0.398,1.781,0.947,2.463,1.648c0.684,0.699,1.213,1.531,1.59,2.494S567.18,354.781,567.18,355.912z M564.236,355.912
		c0-0.846-0.111-1.605-0.336-2.277c-0.223-0.672-0.545-1.242-0.965-1.711c-0.418-0.469-0.93-0.828-1.529-1.076
		c-0.602-0.25-1.277-0.373-2.031-0.373s-1.432,0.123-2.037,0.373c-0.604,0.248-1.117,0.607-1.541,1.076
		c-0.422,0.469-0.748,1.039-0.975,1.711c-0.229,0.672-0.342,1.432-0.342,2.277s0.113,1.604,0.342,2.275
		c0.227,0.672,0.553,1.24,0.975,1.707c0.424,0.465,0.938,0.822,1.541,1.07c0.605,0.25,1.283,0.373,2.037,0.373
		s1.43-0.123,2.031-0.373c0.6-0.248,1.111-0.605,1.529-1.07c0.42-0.467,0.742-1.035,0.965-1.707
		C564.125,357.516,564.236,356.758,564.236,355.912z"/>
	<path fill="#FFFFFF" d="M572.885,363.791c-0.945,0-1.676-0.268-2.188-0.805s-0.768-1.277-0.768-2.223v-6.109h-1.107
		c-0.143,0-0.266-0.047-0.369-0.139c-0.102-0.094-0.154-0.232-0.154-0.416v-1.045l1.76-0.289l0.555-2.984
		c0.027-0.143,0.094-0.252,0.197-0.332c0.102-0.078,0.232-0.117,0.389-0.117h1.365v3.445h2.879v1.877h-2.879v5.928
		c0,0.342,0.084,0.607,0.256,0.799c0.17,0.193,0.398,0.289,0.682,0.289c0.164,0,0.301-0.02,0.41-0.059
		c0.111-0.039,0.207-0.08,0.289-0.123s0.154-0.084,0.219-0.123c0.062-0.039,0.127-0.059,0.191-0.059c0.078,0,0.143,0.02,0.191,0.059
		c0.051,0.039,0.104,0.098,0.16,0.176l0.789,1.279c-0.383,0.32-0.824,0.562-1.322,0.727
		C573.932,363.709,573.418,363.791,572.885,363.791z"/>
	<path fill="#FFFFFF" d="M577.543,363.621v-15.846h2.635v6.09c0.426-0.406,0.895-0.732,1.406-0.982
		c0.512-0.248,1.113-0.373,1.803-0.373c0.598,0,1.127,0.102,1.588,0.305c0.463,0.203,0.848,0.486,1.158,0.854
		c0.309,0.365,0.543,0.803,0.703,1.311s0.24,1.068,0.24,1.68v6.963h-2.635v-6.963c0-0.668-0.154-1.186-0.463-1.551
		c-0.309-0.367-0.773-0.551-1.391-0.551c-0.455,0-0.883,0.104-1.281,0.311c-0.396,0.205-0.773,0.486-1.129,0.842v7.912H577.543z"/>
	<path fill="#FFFFFF" d="M594.188,352.51c0.689,0,1.324,0.111,1.902,0.332c0.58,0.219,1.08,0.541,1.498,0.965
		c0.42,0.422,0.748,0.941,0.982,1.557c0.234,0.613,0.352,1.316,0.352,2.105c0,0.199-0.01,0.363-0.027,0.496
		c-0.018,0.131-0.049,0.234-0.096,0.309s-0.107,0.127-0.186,0.16c-0.08,0.031-0.178,0.047-0.299,0.047h-6.76
		c0.078,1.125,0.379,1.949,0.906,2.475c0.525,0.525,1.223,0.789,2.09,0.789c0.426,0,0.793-0.049,1.104-0.148
		c0.309-0.1,0.578-0.211,0.811-0.332c0.23-0.121,0.432-0.23,0.607-0.33c0.174-0.1,0.342-0.148,0.506-0.148
		c0.107,0,0.199,0.021,0.277,0.062c0.078,0.043,0.146,0.104,0.203,0.182l0.768,0.959c-0.293,0.342-0.619,0.629-0.98,0.859
		c-0.363,0.23-0.742,0.416-1.137,0.555s-0.797,0.236-1.205,0.293s-0.805,0.086-1.188,0.086c-0.762,0-1.469-0.127-2.123-0.379
		s-1.223-0.625-1.705-1.119c-0.484-0.494-0.863-1.105-1.141-1.834s-0.416-1.574-0.416-2.533c0-0.746,0.121-1.447,0.361-2.105
		c0.242-0.658,0.588-1.23,1.041-1.717c0.451-0.486,1.002-0.873,1.652-1.156C592.637,352.652,593.369,352.51,594.188,352.51z
		 M594.24,354.398c-0.768,0-1.367,0.217-1.801,0.65s-0.711,1.047-0.832,1.844h4.947c0-0.342-0.047-0.662-0.139-0.965
		s-0.234-0.566-0.426-0.795c-0.193-0.227-0.434-0.406-0.727-0.537C594.973,354.463,594.631,354.398,594.24,354.398z"/>
	<path fill="#FFFFFF" d="M601.064,363.621v-10.939h1.545c0.271,0,0.459,0.049,0.566,0.148c0.105,0.1,0.178,0.27,0.213,0.512
		l0.16,1.322c0.391-0.676,0.85-1.209,1.375-1.6s1.115-0.586,1.77-0.586c0.541,0,0.988,0.125,1.344,0.373l-0.342,1.973
		c-0.02,0.127-0.066,0.219-0.139,0.271c-0.07,0.053-0.166,0.08-0.287,0.08c-0.107,0-0.252-0.025-0.438-0.074
		c-0.184-0.051-0.43-0.074-0.734-0.074c-0.549,0-1.018,0.15-1.408,0.453c-0.391,0.301-0.721,0.744-0.992,1.326v6.814H601.064z"/>
</g>
<g>
	<path fill="#FFFFFF" d="M243.749,586.133c-0.071,0.113-0.146,0.193-0.224,0.24s-0.178,0.068-0.298,0.068
		c-0.128,0-0.265-0.035-0.411-0.105c-0.146-0.072-0.314-0.152-0.506-0.24c-0.192-0.09-0.411-0.17-0.656-0.24
		s-0.535-0.107-0.869-0.107c-0.519,0-0.927,0.111-1.226,0.332c-0.298,0.221-0.448,0.508-0.448,0.863
		c0,0.234,0.076,0.432,0.229,0.592s0.355,0.301,0.608,0.42c0.252,0.121,0.539,0.23,0.858,0.326s0.647,0.201,0.981,0.314
		s0.661,0.244,0.981,0.389c0.32,0.146,0.606,0.332,0.858,0.555c0.252,0.225,0.455,0.492,0.607,0.805
		c0.153,0.314,0.229,0.689,0.229,1.131c0,0.525-0.096,1.012-0.288,1.455c-0.192,0.445-0.473,0.828-0.842,1.152
		c-0.37,0.322-0.826,0.576-1.37,0.756c-0.543,0.182-1.167,0.273-1.871,0.273c-0.377,0-0.745-0.035-1.104-0.102
		c-0.359-0.068-0.704-0.162-1.034-0.283s-0.636-0.264-0.917-0.426c-0.281-0.164-0.528-0.342-0.741-0.533l0.608-1.002
		c0.078-0.121,0.17-0.215,0.277-0.277c0.106-0.064,0.241-0.096,0.405-0.096s0.318,0.045,0.464,0.137
		c0.146,0.094,0.314,0.193,0.506,0.299c0.192,0.107,0.418,0.207,0.677,0.299c0.259,0.094,0.588,0.139,0.986,0.139
		c0.312,0,0.581-0.037,0.805-0.111c0.224-0.074,0.409-0.172,0.554-0.293s0.252-0.262,0.32-0.422s0.102-0.324,0.102-0.496
		c0-0.256-0.077-0.465-0.229-0.629s-0.355-0.305-0.607-0.426c-0.252-0.121-0.541-0.23-0.864-0.326
		c-0.324-0.096-0.654-0.201-0.992-0.314c-0.338-0.113-0.668-0.246-0.992-0.4c-0.323-0.152-0.611-0.346-0.864-0.58
		s-0.455-0.523-0.607-0.863c-0.153-0.342-0.229-0.754-0.229-1.236c0-0.449,0.089-0.875,0.267-1.281
		c0.178-0.404,0.439-0.758,0.784-1.061c0.345-0.301,0.775-0.543,1.29-0.725c0.516-0.182,1.111-0.271,1.786-0.271
		c0.753,0,1.439,0.123,2.058,0.373c0.619,0.248,1.134,0.576,1.546,0.98L243.749,586.133z"/>
	<path fill="#FFFFFF" d="M246.574,594.939V584h1.61c0.341,0,0.565,0.16,0.671,0.48l0.171,0.811c0.192-0.213,0.393-0.41,0.603-0.588
		c0.209-0.176,0.433-0.33,0.671-0.457c0.238-0.129,0.494-0.23,0.768-0.305c0.273-0.074,0.574-0.111,0.901-0.111
		c0.689,0,1.256,0.186,1.701,0.559c0.444,0.373,0.776,0.869,0.997,1.488c0.171-0.363,0.384-0.674,0.64-0.934
		c0.256-0.26,0.537-0.471,0.842-0.635c0.305-0.162,0.63-0.283,0.976-0.361c0.345-0.078,0.691-0.117,1.04-0.117
		c0.604,0,1.141,0.092,1.61,0.277c0.469,0.184,0.864,0.455,1.184,0.811s0.563,0.789,0.73,1.301c0.167,0.512,0.25,1.098,0.25,1.758
		v6.963h-2.634v-6.963c0-0.695-0.153-1.221-0.458-1.572s-0.753-0.527-1.343-0.527c-0.271,0-0.521,0.047-0.752,0.139
		s-0.434,0.225-0.607,0.4c-0.174,0.174-0.311,0.393-0.411,0.654c-0.1,0.264-0.149,0.566-0.149,0.906v6.963h-2.644v-6.963
		c0-0.73-0.147-1.264-0.442-1.598c-0.295-0.336-0.73-0.502-1.306-0.502c-0.377,0-0.73,0.094-1.061,0.283
		c-0.331,0.188-0.638,0.445-0.922,0.771v8.008H246.574z"/>
	<path fill="#FFFFFF" d="M271.023,586.133c-0.071,0.113-0.146,0.193-0.224,0.24s-0.178,0.068-0.298,0.068
		c-0.128,0-0.265-0.035-0.411-0.105c-0.146-0.072-0.314-0.152-0.506-0.24c-0.192-0.09-0.411-0.17-0.656-0.24
		s-0.535-0.107-0.869-0.107c-0.519,0-0.927,0.111-1.226,0.332c-0.298,0.221-0.448,0.508-0.448,0.863
		c0,0.234,0.076,0.432,0.229,0.592s0.355,0.301,0.608,0.42c0.252,0.121,0.539,0.23,0.858,0.326s0.647,0.201,0.981,0.314
		s0.661,0.244,0.981,0.389c0.32,0.146,0.606,0.332,0.858,0.555c0.252,0.225,0.455,0.492,0.607,0.805
		c0.153,0.314,0.229,0.689,0.229,1.131c0,0.525-0.096,1.012-0.288,1.455c-0.192,0.445-0.473,0.828-0.842,1.152
		c-0.37,0.322-0.826,0.576-1.37,0.756c-0.543,0.182-1.167,0.273-1.871,0.273c-0.377,0-0.745-0.035-1.104-0.102
		c-0.359-0.068-0.704-0.162-1.034-0.283s-0.636-0.264-0.917-0.426c-0.281-0.164-0.528-0.342-0.741-0.533l0.608-1.002
		c0.078-0.121,0.17-0.215,0.277-0.277c0.106-0.064,0.241-0.096,0.405-0.096s0.318,0.045,0.464,0.137
		c0.146,0.094,0.314,0.193,0.506,0.299c0.192,0.107,0.418,0.207,0.677,0.299c0.259,0.094,0.588,0.139,0.986,0.139
		c0.312,0,0.581-0.037,0.805-0.111c0.224-0.074,0.409-0.172,0.554-0.293s0.252-0.262,0.32-0.422s0.102-0.324,0.102-0.496
		c0-0.256-0.077-0.465-0.229-0.629s-0.355-0.305-0.607-0.426c-0.252-0.121-0.541-0.23-0.864-0.326
		c-0.324-0.096-0.654-0.201-0.992-0.314c-0.338-0.113-0.668-0.246-0.992-0.4c-0.323-0.152-0.611-0.346-0.864-0.58
		s-0.455-0.523-0.607-0.863c-0.153-0.342-0.229-0.754-0.229-1.236c0-0.449,0.089-0.875,0.267-1.281
		c0.178-0.404,0.439-0.758,0.784-1.061c0.345-0.301,0.775-0.543,1.29-0.725c0.516-0.182,1.111-0.271,1.786-0.271
		c0.753,0,1.439,0.123,2.058,0.373c0.619,0.248,1.134,0.576,1.546,0.98L271.023,586.133z"/>
</g>
<g>
	<g>
		<g>
			<path fill="#5E7E53" d="M365.77,396.879c-27.754,7.537-58.357,4.744-85.446-10.256c-8.817-4.881-19.391-11.699-26.646-18.484
				c-17.666,16.699-51.627,48.402-53.625,50.23c12.611,13.023,27.557,24.105,44.222,33.334c44.7,24.748,95.167,29.369,140.962,16.93
				L365.77,396.879z"/>
			<path opacity="0.7" fill="#ED1C24" d="M235.597,230.889c19.899-35.957,56.435-57.007,94.753-58.884l-3.549-74.29
				c-63.2,3.119-123.463,37.82-156.305,97.138c-24.752,44.699-43.349,149.198,29.556,223.516l53.792-50.252
				C208.544,323.526,220.579,258,235.597,230.889z"/>
			<path opacity="0.7" fill="#48C7F4" d="M501.115,377.934L501.115,377.934l-65.08-36.05l0,0
				c-15.596,28.169-41.393,47.169-70.265,54.996l19.466,71.754C432.852,455.717,475.4,424.389,501.115,377.934z"/>
			<path fill="#C8B330" d="M391.317,186.16c55.257,30.606,75.324,100.468,44.718,155.724l65.08,36.05
				c50.477-91.161,17.396-206.388-73.773-256.864c-2.643-1.457-5.305-2.845-7.996-4.171l-32.892,66.731
				C388.088,184.434,389.71,185.278,391.317,186.16z"/>
			<path fill="#5DC7C3" d="M386.454,183.63l32.892-66.731c-29.616-14.619-61.434-20.714-92.544-19.184l3.549,74.29
				C349.21,171.072,368.497,174.769,386.454,183.63z"/>
		</g>
	</g>
	<path fill="#0E5461" d="M391.317,186.16c46.375,30.843,47.082,49.776,56.99,78.796l72.02-19.022
		c-8.398-38.565-32.305-89.639-92.984-124.863c-2.609-1.517-5.305-2.845-7.996-4.171l-32.892,66.731
		C388.088,184.434,389.792,185.146,391.317,186.16z"/>
</g>
<g>
	<path fill="#FFFFFF" d="M190.731,213.777h2.909v1.367c0,0.143-0.042,0.264-0.127,0.362c-0.085,0.099-0.217,0.147-0.396,0.147
		h-2.386v5.054h-2.104v-5.054h-8.512c-0.179,0-0.333-0.051-0.462-0.154s-0.212-0.23-0.248-0.382l-0.241-1.22l9.343-12.399h2.225
		V213.777z M188.627,205.855c0-0.232,0.007-0.483,0.02-0.751c0.014-0.268,0.042-0.545,0.087-0.831l-6.984,9.504h6.876V205.855z"/>
	<path fill="#FFFFFF" d="M207.286,202.544c0,0.34-0.107,0.619-0.322,0.838c-0.214,0.219-0.576,0.328-1.085,0.328h-6.032l-0.885,5.04
		c1.001-0.214,1.926-0.321,2.775-0.321c1,0,1.883,0.147,2.647,0.442c0.764,0.294,1.405,0.701,1.923,1.22
		c0.518,0.518,0.909,1.13,1.173,1.836s0.396,1.474,0.396,2.305c0,1.019-0.179,1.939-0.536,2.762s-0.847,1.526-1.468,2.111
		c-0.621,0.585-1.352,1.035-2.191,1.347c-0.84,0.313-1.748,0.469-2.721,0.469c-0.563,0-1.104-0.056-1.622-0.167
		c-0.519-0.112-1.001-0.261-1.448-0.449c-0.447-0.188-0.862-0.402-1.247-0.643s-0.724-0.496-1.019-0.764l0.724-1.019
		c0.161-0.232,0.375-0.349,0.644-0.349c0.169,0,0.369,0.069,0.597,0.208c0.228,0.139,0.502,0.293,0.824,0.462
		c0.322,0.17,0.699,0.324,1.133,0.463c0.433,0.138,0.949,0.208,1.548,0.208c0.67,0,1.273-0.107,1.81-0.322s0.994-0.521,1.374-0.918
		s0.672-0.874,0.878-1.428s0.309-1.175,0.309-1.863c0-0.599-0.087-1.139-0.262-1.622c-0.174-0.482-0.438-0.894-0.791-1.233
		c-0.353-0.34-0.793-0.604-1.32-0.791c-0.527-0.188-1.144-0.281-1.85-0.281c-0.482,0-0.983,0.04-1.501,0.121
		c-0.519,0.08-1.055,0.21-1.609,0.389l-1.501-0.442l1.555-8.981h9.102V202.544z"/>
	<path fill="#FFFFFF" d="M219.202,206.136c0,0.751-0.116,1.423-0.349,2.018s-0.543,1.095-0.932,1.501
		c-0.389,0.407-0.842,0.717-1.36,0.932c-0.519,0.215-1.059,0.322-1.622,0.322c-0.608,0-1.168-0.107-1.682-0.322
		c-0.514-0.214-0.963-0.525-1.347-0.932c-0.384-0.406-0.684-0.907-0.898-1.501c-0.214-0.594-0.321-1.267-0.321-2.018
		c0-0.769,0.107-1.452,0.321-2.051c0.215-0.599,0.514-1.104,0.898-1.515c0.384-0.411,0.833-0.724,1.347-0.938
		c0.514-0.214,1.074-0.322,1.682-0.322c0.599,0,1.159,0.107,1.682,0.322s0.974,0.527,1.354,0.938
		c0.379,0.411,0.679,0.916,0.898,1.515C219.092,204.684,219.202,205.368,219.202,206.136z M225.917,201.981
		c0.116-0.152,0.239-0.27,0.369-0.355c0.129-0.084,0.302-0.127,0.516-0.127h1.716l-14.034,18.82c-0.09,0.116-0.197,0.21-0.322,0.281
		c-0.125,0.072-0.273,0.107-0.442,0.107h-1.77L225.917,201.981z M217.339,206.136c0-0.59-0.062-1.09-0.188-1.501
		c-0.125-0.411-0.297-0.749-0.516-1.012c-0.219-0.264-0.474-0.454-0.764-0.57c-0.291-0.116-0.601-0.174-0.932-0.174
		s-0.642,0.059-0.932,0.174c-0.291,0.116-0.543,0.306-0.757,0.57s-0.382,0.601-0.503,1.012c-0.121,0.411-0.181,0.911-0.181,1.501
		c0,0.581,0.06,1.075,0.181,1.481c0.121,0.407,0.289,0.737,0.503,0.992c0.214,0.255,0.467,0.438,0.757,0.55
		c0.29,0.112,0.601,0.167,0.932,0.167s0.641-0.056,0.932-0.167c0.29-0.112,0.545-0.295,0.764-0.55
		c0.219-0.254,0.391-0.585,0.516-0.992C217.276,207.211,217.339,206.717,217.339,206.136z M229.818,216.176
		c0,0.75-0.116,1.421-0.349,2.011s-0.543,1.088-0.932,1.495s-0.84,0.717-1.354,0.932c-0.514,0.214-1.052,0.322-1.615,0.322
		c-0.607,0-1.168-0.107-1.682-0.322s-0.963-0.525-1.347-0.932s-0.684-0.905-0.898-1.495s-0.322-1.26-0.322-2.011
		c0-0.769,0.107-1.455,0.322-2.058s0.514-1.11,0.898-1.521c0.384-0.411,0.833-0.724,1.347-0.938
		c0.514-0.215,1.075-0.322,1.682-0.322c0.599,0,1.157,0.107,1.676,0.322c0.518,0.214,0.97,0.527,1.354,0.938
		c0.384,0.411,0.684,0.918,0.898,1.521S229.818,215.408,229.818,216.176z M227.968,216.176c0-0.59-0.062-1.092-0.188-1.508
		s-0.297-0.753-0.516-1.012c-0.219-0.259-0.474-0.447-0.764-0.563s-0.601-0.174-0.932-0.174s-0.641,0.058-0.931,0.174
		c-0.291,0.116-0.543,0.304-0.758,0.563c-0.214,0.259-0.382,0.597-0.502,1.012s-0.181,0.918-0.181,1.508
		c0,0.581,0.061,1.072,0.181,1.475c0.121,0.402,0.288,0.73,0.502,0.985c0.215,0.254,0.467,0.438,0.758,0.549
		c0.29,0.112,0.601,0.167,0.931,0.167s0.641-0.056,0.932-0.167c0.291-0.111,0.545-0.295,0.764-0.549
		c0.219-0.255,0.391-0.583,0.516-0.985C227.906,217.249,227.968,216.757,227.968,216.176z"/>
</g>
<g>
	<path fill="#FFFFFF" d="M347.859,139.458h2.908v1.367c0,0.143-0.042,0.264-0.127,0.362c-0.085,0.099-0.217,0.147-0.396,0.147
		h-2.386v5.054h-2.104v-5.054h-8.512c-0.18,0-0.333-0.051-0.463-0.154s-0.212-0.23-0.248-0.382l-0.241-1.22l9.343-12.399h2.226
		V139.458z M345.754,131.536c0-0.232,0.007-0.483,0.02-0.751c0.014-0.268,0.043-0.545,0.087-0.831l-6.983,9.504h6.877V131.536z"/>
	<path fill="#FFFFFF" d="M360.78,131.817c0,0.751-0.116,1.423-0.349,2.018s-0.542,1.095-0.932,1.501
		c-0.389,0.407-0.842,0.717-1.36,0.932c-0.519,0.215-1.059,0.322-1.622,0.322c-0.607,0-1.168-0.107-1.682-0.322
		c-0.514-0.214-0.963-0.525-1.348-0.932c-0.384-0.406-0.684-0.907-0.897-1.501c-0.215-0.594-0.322-1.267-0.322-2.018
		c0-0.769,0.107-1.452,0.322-2.051c0.214-0.599,0.514-1.104,0.897-1.515c0.385-0.411,0.834-0.724,1.348-0.938
		s1.074-0.322,1.682-0.322c0.599,0,1.16,0.107,1.683,0.322s0.974,0.527,1.354,0.938s0.68,0.916,0.898,1.515
		S360.78,131.048,360.78,131.817z M367.496,127.662c0.116-0.152,0.239-0.27,0.369-0.355c0.129-0.084,0.301-0.127,0.516-0.127h1.716
		l-14.034,18.82c-0.09,0.116-0.197,0.21-0.322,0.281c-0.125,0.072-0.272,0.107-0.442,0.107h-1.769L367.496,127.662z
		 M358.917,131.817c0-0.59-0.062-1.09-0.188-1.501s-0.297-0.749-0.516-1.012c-0.22-0.264-0.474-0.454-0.765-0.57
		c-0.29-0.116-0.601-0.174-0.932-0.174c-0.33,0-0.641,0.059-0.932,0.174c-0.29,0.116-0.542,0.306-0.757,0.57
		s-0.382,0.601-0.503,1.012c-0.12,0.411-0.181,0.911-0.181,1.501c0,0.581,0.061,1.075,0.181,1.481
		c0.121,0.407,0.288,0.737,0.503,0.992c0.215,0.255,0.467,0.438,0.757,0.55c0.291,0.112,0.602,0.167,0.932,0.167
		c0.331,0,0.642-0.056,0.932-0.167c0.291-0.112,0.545-0.295,0.765-0.55c0.219-0.254,0.391-0.585,0.516-0.992
		S358.917,132.398,358.917,131.817z M371.396,141.857c0,0.75-0.116,1.421-0.348,2.011c-0.233,0.59-0.543,1.088-0.932,1.495
		c-0.39,0.407-0.841,0.717-1.354,0.932s-1.052,0.322-1.615,0.322c-0.607,0-1.168-0.107-1.682-0.322
		c-0.515-0.214-0.964-0.525-1.348-0.932s-0.684-0.905-0.898-1.495c-0.214-0.59-0.321-1.26-0.321-2.011
		c0-0.769,0.107-1.455,0.321-2.058c0.215-0.603,0.515-1.11,0.898-1.521c0.384-0.411,0.833-0.724,1.348-0.938
		c0.514-0.215,1.074-0.322,1.682-0.322c0.599,0,1.157,0.107,1.676,0.322c0.519,0.214,0.97,0.527,1.354,0.938
		c0.385,0.411,0.684,0.918,0.898,1.521S371.396,141.088,371.396,141.857z M369.546,141.857c0-0.59-0.062-1.092-0.188-1.508
		s-0.297-0.753-0.516-1.012c-0.22-0.259-0.475-0.447-0.765-0.563s-0.601-0.174-0.932-0.174c-0.33,0-0.641,0.058-0.932,0.174
		c-0.29,0.116-0.543,0.304-0.757,0.563c-0.215,0.259-0.382,0.597-0.503,1.012s-0.181,0.918-0.181,1.508
		c0,0.581,0.06,1.072,0.181,1.475c0.121,0.402,0.288,0.73,0.503,0.985c0.214,0.254,0.467,0.438,0.757,0.549
		c0.291,0.112,0.602,0.167,0.932,0.167c0.331,0,0.642-0.056,0.932-0.167c0.29-0.111,0.545-0.295,0.765-0.549
		c0.219-0.255,0.391-0.583,0.516-0.985C369.484,142.929,369.546,142.438,369.546,141.857z"/>
</g>
<g>
	<path fill="#FFFFFF" d="M432.324,203.312h4.129v-13.096c0-0.393,0.014-0.791,0.039-1.193l-3.432,2.936
		c-0.088,0.072-0.178,0.123-0.268,0.154s-0.174,0.047-0.254,0.047c-0.135,0-0.256-0.029-0.363-0.087
		c-0.105-0.058-0.188-0.127-0.24-0.208l-0.75-1.032l5.709-4.946h1.943v17.426h3.781v1.823h-10.295V203.312z"/>
	<path fill="#FFFFFF" d="M447.873,203.312h4.129v-13.096c0-0.393,0.014-0.791,0.039-1.193l-3.432,2.936
		c-0.088,0.072-0.178,0.123-0.268,0.154s-0.174,0.047-0.254,0.047c-0.135,0-0.256-0.029-0.363-0.087
		c-0.105-0.058-0.188-0.127-0.24-0.208l-0.75-1.032l5.709-4.946h1.943v17.426h3.781v1.823h-10.295V203.312z"/>
	<path fill="#FFFFFF" d="M469.051,190.565c0,0.751-0.115,1.423-0.348,2.018s-0.543,1.095-0.932,1.501
		c-0.389,0.407-0.842,0.717-1.361,0.932c-0.518,0.215-1.059,0.322-1.621,0.322c-0.607,0-1.168-0.107-1.682-0.322
		c-0.514-0.214-0.963-0.525-1.348-0.932c-0.385-0.406-0.684-0.907-0.898-1.501s-0.322-1.267-0.322-2.018
		c0-0.769,0.107-1.452,0.322-2.051s0.514-1.104,0.898-1.515s0.834-0.724,1.348-0.938s1.074-0.322,1.682-0.322
		c0.598,0,1.16,0.107,1.682,0.322c0.523,0.214,0.975,0.527,1.354,0.938c0.381,0.411,0.68,0.916,0.898,1.515
		S469.051,189.796,469.051,190.565z M475.768,186.41c0.115-0.152,0.238-0.27,0.369-0.355c0.129-0.084,0.301-0.127,0.516-0.127h1.715
		l-14.033,18.82c-0.09,0.116-0.197,0.21-0.322,0.281c-0.125,0.072-0.273,0.107-0.443,0.107h-1.768L475.768,186.41z M467.188,190.565
		c0-0.59-0.062-1.09-0.188-1.501s-0.297-0.749-0.516-1.012s-0.473-0.454-0.764-0.57c-0.291-0.116-0.602-0.174-0.932-0.174
		s-0.641,0.059-0.932,0.174c-0.291,0.116-0.543,0.306-0.758,0.57s-0.381,0.601-0.502,1.012s-0.182,0.911-0.182,1.501
		c0,0.581,0.061,1.075,0.182,1.481s0.287,0.737,0.502,0.992c0.215,0.255,0.467,0.438,0.758,0.55s0.602,0.167,0.932,0.167
		s0.641-0.056,0.932-0.167s0.545-0.295,0.764-0.55c0.219-0.254,0.391-0.585,0.516-0.992S467.188,191.146,467.188,190.565z
		 M479.668,200.605c0,0.75-0.117,1.421-0.348,2.011c-0.234,0.59-0.543,1.088-0.932,1.495c-0.391,0.407-0.842,0.717-1.355,0.932
		s-1.051,0.322-1.615,0.322c-0.607,0-1.168-0.107-1.682-0.322s-0.963-0.525-1.348-0.932c-0.383-0.407-0.684-0.905-0.898-1.495
		c-0.213-0.59-0.32-1.26-0.32-2.011c0-0.769,0.107-1.455,0.32-2.058c0.215-0.603,0.516-1.11,0.898-1.521
		c0.385-0.411,0.834-0.724,1.348-0.938c0.514-0.215,1.074-0.322,1.682-0.322c0.6,0,1.158,0.107,1.676,0.322
		c0.52,0.214,0.971,0.527,1.354,0.938c0.385,0.411,0.684,0.918,0.898,1.521S479.668,199.836,479.668,200.605z M477.818,200.605
		c0-0.59-0.062-1.092-0.188-1.508s-0.297-0.753-0.516-1.012c-0.221-0.259-0.475-0.447-0.766-0.563
		c-0.289-0.116-0.6-0.174-0.932-0.174c-0.33,0-0.641,0.058-0.932,0.174c-0.289,0.116-0.543,0.304-0.756,0.563
		c-0.215,0.259-0.383,0.597-0.504,1.012s-0.18,0.918-0.18,1.508c0,0.581,0.059,1.072,0.18,1.475c0.121,0.402,0.289,0.73,0.504,0.985
		c0.213,0.254,0.467,0.438,0.756,0.549c0.291,0.112,0.602,0.167,0.932,0.167c0.332,0,0.643-0.056,0.932-0.167
		c0.291-0.111,0.545-0.295,0.766-0.549c0.219-0.255,0.391-0.583,0.516-0.985C477.756,201.677,477.818,201.186,477.818,200.605z"/>
</g>
<g>
	<path fill="#FFFFFF" d="M471.312,300.927c0,0.34-0.107,0.619-0.32,0.838c-0.215,0.219-0.578,0.328-1.086,0.328h-6.033l-0.885,5.04
		c1.002-0.214,1.926-0.321,2.775-0.321c1,0,1.883,0.147,2.646,0.442c0.766,0.295,1.406,0.701,1.924,1.22
		c0.52,0.519,0.91,1.131,1.174,1.836c0.264,0.706,0.395,1.475,0.395,2.306c0,1.019-0.178,1.939-0.535,2.762
		s-0.848,1.525-1.469,2.111c-0.621,0.585-1.352,1.034-2.191,1.347s-1.746,0.47-2.721,0.47c-0.562,0-1.104-0.057-1.621-0.168
		c-0.52-0.111-1.002-0.262-1.449-0.449s-0.861-0.402-1.246-0.644s-0.725-0.496-1.02-0.764l0.725-1.019
		c0.16-0.232,0.375-0.349,0.643-0.349c0.17,0,0.369,0.069,0.598,0.208s0.502,0.292,0.824,0.462s0.699,0.324,1.133,0.463
		s0.949,0.208,1.549,0.208c0.67,0,1.273-0.107,1.809-0.322c0.537-0.215,0.994-0.521,1.375-0.918
		c0.379-0.397,0.672-0.874,0.877-1.428s0.309-1.175,0.309-1.863c0-0.599-0.088-1.14-0.262-1.622s-0.438-0.894-0.791-1.233
		c-0.354-0.339-0.793-0.603-1.32-0.79c-0.527-0.188-1.145-0.282-1.85-0.282c-0.482,0-0.982,0.04-1.502,0.121
		c-0.518,0.08-1.055,0.21-1.607,0.389l-1.502-0.442l1.555-8.981h9.102V300.927z"/>
	<path fill="#FFFFFF" d="M483.229,304.52c0,0.75-0.115,1.423-0.348,2.017c-0.232,0.595-0.543,1.095-0.932,1.502
		c-0.389,0.406-0.842,0.717-1.361,0.932c-0.518,0.214-1.059,0.321-1.621,0.321c-0.607,0-1.168-0.107-1.682-0.321
		c-0.514-0.215-0.963-0.525-1.348-0.932c-0.385-0.407-0.684-0.907-0.898-1.502c-0.215-0.594-0.322-1.267-0.322-2.017
		c0-0.769,0.107-1.452,0.322-2.052c0.215-0.598,0.514-1.104,0.898-1.515c0.385-0.41,0.834-0.724,1.348-0.938
		s1.074-0.322,1.682-0.322c0.598,0,1.16,0.107,1.682,0.322c0.523,0.214,0.975,0.528,1.354,0.938c0.381,0.411,0.68,0.917,0.898,1.515
		C483.119,303.068,483.229,303.751,483.229,304.52z M489.945,300.364c0.115-0.151,0.238-0.27,0.369-0.355
		c0.129-0.084,0.301-0.127,0.516-0.127h1.715l-14.033,18.82c-0.09,0.116-0.197,0.21-0.322,0.281
		c-0.125,0.072-0.273,0.107-0.443,0.107h-1.768L489.945,300.364z M481.365,304.52c0-0.59-0.062-1.091-0.188-1.502
		s-0.297-0.748-0.516-1.012s-0.473-0.453-0.764-0.569s-0.602-0.175-0.932-0.175s-0.641,0.059-0.932,0.175s-0.543,0.306-0.758,0.569
		s-0.381,0.601-0.502,1.012s-0.182,0.912-0.182,1.502c0,0.581,0.061,1.074,0.182,1.48c0.121,0.407,0.287,0.737,0.502,0.992
		s0.467,0.438,0.758,0.55s0.602,0.167,0.932,0.167s0.641-0.056,0.932-0.167s0.545-0.295,0.764-0.55s0.391-0.585,0.516-0.992
		C481.303,305.594,481.365,305.101,481.365,304.52z M493.846,314.56c0,0.75-0.117,1.421-0.348,2.01
		c-0.234,0.59-0.543,1.089-0.932,1.495c-0.391,0.406-0.842,0.717-1.355,0.932s-1.051,0.321-1.615,0.321
		c-0.607,0-1.168-0.106-1.682-0.321s-0.963-0.525-1.348-0.932c-0.383-0.406-0.684-0.905-0.898-1.495
		c-0.213-0.589-0.32-1.26-0.32-2.01c0-0.769,0.107-1.455,0.32-2.058c0.215-0.604,0.516-1.11,0.898-1.521
		c0.385-0.411,0.834-0.725,1.348-0.938c0.514-0.215,1.074-0.322,1.682-0.322c0.6,0,1.158,0.107,1.676,0.322
		c0.52,0.214,0.971,0.527,1.354,0.938c0.385,0.411,0.684,0.918,0.898,1.521C493.738,313.105,493.846,313.792,493.846,314.56z
		 M491.996,314.56c0-0.59-0.062-1.093-0.188-1.509c-0.125-0.415-0.297-0.752-0.516-1.012c-0.221-0.259-0.475-0.446-0.766-0.562
		c-0.289-0.116-0.6-0.175-0.932-0.175c-0.33,0-0.641,0.059-0.932,0.175c-0.289,0.116-0.543,0.304-0.756,0.562
		c-0.215,0.26-0.383,0.597-0.504,1.012c-0.121,0.416-0.18,0.919-0.18,1.509c0,0.58,0.059,1.072,0.18,1.474
		c0.121,0.402,0.289,0.731,0.504,0.985c0.213,0.255,0.467,0.438,0.756,0.55c0.291,0.112,0.602,0.168,0.932,0.168
		c0.332,0,0.643-0.056,0.932-0.168c0.291-0.111,0.545-0.295,0.766-0.55c0.219-0.254,0.391-0.583,0.516-0.985
		C491.934,315.632,491.996,315.14,491.996,314.56z"/>
</g>
<g>
	<path fill="#FFFFFF" d="M414.697,391.895v1.072c0,0.305-0.033,0.555-0.102,0.752c-0.066,0.195-0.137,0.361-0.207,0.496
		l-7.949,16.045c-0.115,0.232-0.277,0.432-0.482,0.596c-0.205,0.166-0.482,0.248-0.83,0.248h-1.703l8.07-15.844
		c0.115-0.223,0.234-0.43,0.354-0.617c0.121-0.188,0.258-0.365,0.41-0.535H402.23c-0.152,0-0.287-0.061-0.408-0.182
		s-0.182-0.256-0.182-0.408v-1.623H414.697z"/>
	<path fill="#FFFFFF" d="M425.191,396.533c0,0.75-0.115,1.424-0.348,2.018s-0.543,1.094-0.932,1.502
		c-0.389,0.406-0.842,0.717-1.361,0.932c-0.518,0.213-1.059,0.32-1.621,0.32c-0.607,0-1.168-0.107-1.682-0.32
		c-0.514-0.215-0.963-0.525-1.348-0.932c-0.385-0.408-0.684-0.908-0.898-1.502s-0.322-1.268-0.322-2.018
		c0-0.768,0.107-1.451,0.322-2.051c0.215-0.598,0.514-1.104,0.898-1.516c0.385-0.41,0.834-0.723,1.348-0.938
		s1.074-0.322,1.682-0.322c0.598,0,1.16,0.107,1.682,0.322c0.523,0.215,0.975,0.527,1.354,0.938c0.381,0.412,0.68,0.918,0.898,1.516
		C425.082,395.082,425.191,395.766,425.191,396.533z M431.908,392.377c0.115-0.15,0.238-0.27,0.369-0.354
		c0.129-0.086,0.301-0.129,0.516-0.129h1.715l-14.033,18.82c-0.09,0.117-0.197,0.211-0.322,0.281
		c-0.125,0.072-0.273,0.107-0.443,0.107h-1.768L431.908,392.377z M423.328,396.533c0-0.59-0.062-1.09-0.188-1.502
		c-0.125-0.41-0.297-0.748-0.516-1.012s-0.473-0.453-0.764-0.568c-0.291-0.117-0.602-0.176-0.932-0.176s-0.641,0.059-0.932,0.176
		c-0.291,0.115-0.543,0.305-0.758,0.568s-0.381,0.602-0.502,1.012c-0.121,0.412-0.182,0.912-0.182,1.502
		c0,0.582,0.061,1.074,0.182,1.48c0.121,0.408,0.287,0.738,0.502,0.992c0.215,0.256,0.467,0.439,0.758,0.551
		s0.602,0.166,0.932,0.166s0.641-0.055,0.932-0.166s0.545-0.295,0.764-0.551c0.219-0.254,0.391-0.584,0.516-0.992
		C423.266,397.607,423.328,397.115,423.328,396.533z M435.809,406.574c0,0.75-0.117,1.42-0.348,2.01
		c-0.234,0.59-0.543,1.088-0.932,1.494c-0.391,0.406-0.842,0.717-1.355,0.932s-1.051,0.322-1.615,0.322
		c-0.607,0-1.168-0.107-1.682-0.322s-0.963-0.525-1.348-0.932c-0.383-0.406-0.684-0.904-0.898-1.494
		c-0.213-0.59-0.32-1.26-0.32-2.01c0-0.77,0.107-1.455,0.32-2.059c0.215-0.604,0.516-1.109,0.898-1.521
		c0.385-0.41,0.834-0.725,1.348-0.938c0.514-0.215,1.074-0.322,1.682-0.322c0.6,0,1.158,0.107,1.676,0.322
		c0.52,0.213,0.971,0.527,1.354,0.938c0.385,0.412,0.684,0.918,0.898,1.521S435.809,405.805,435.809,406.574z M433.959,406.574
		c0-0.59-0.062-1.094-0.188-1.51c-0.125-0.414-0.297-0.752-0.516-1.012c-0.221-0.258-0.475-0.445-0.766-0.562
		c-0.289-0.115-0.6-0.174-0.932-0.174c-0.33,0-0.641,0.059-0.932,0.174c-0.289,0.117-0.543,0.305-0.756,0.562
		c-0.215,0.26-0.383,0.598-0.504,1.012c-0.121,0.416-0.18,0.92-0.18,1.51c0,0.58,0.059,1.072,0.18,1.473
		c0.121,0.402,0.289,0.732,0.504,0.986c0.213,0.254,0.467,0.438,0.756,0.549c0.291,0.113,0.602,0.168,0.932,0.168
		c0.332,0,0.643-0.055,0.932-0.168c0.291-0.111,0.545-0.295,0.766-0.549c0.219-0.254,0.391-0.584,0.516-0.986
		C433.896,407.646,433.959,407.154,433.959,406.574z"/>
</g>
<g>
	<path fill="#FFFFFF" d="M269.615,419.18c0.813,0,1.573,0.121,2.279,0.361c0.706,0.242,1.315,0.594,1.83,1.053
		c0.514,0.461,0.918,1.021,1.213,1.682c0.295,0.662,0.442,1.412,0.442,2.252c0,0.717-0.107,1.377-0.322,1.984
		c-0.214,0.607-0.505,1.191-0.871,1.75c-0.367,0.559-0.789,1.1-1.267,1.621c-0.479,0.523-0.985,1.057-1.521,1.602l-5.054,5.176
		c0.357-0.1,0.719-0.178,1.086-0.236c0.366-0.057,0.719-0.086,1.059-0.086h6.434c0.259,0,0.464,0.076,0.617,0.229
		c0.152,0.15,0.228,0.348,0.228,0.59v1.447h-12.814v-0.818c0-0.17,0.034-0.344,0.101-0.523c0.067-0.178,0.176-0.344,0.328-0.494
		l6.153-6.18c0.509-0.52,0.974-1.018,1.394-1.496c0.42-0.477,0.78-0.957,1.079-1.439s0.529-0.973,0.69-1.469
		c0.161-0.496,0.241-1.025,0.241-1.588s-0.089-1.057-0.268-1.482c-0.179-0.424-0.425-0.773-0.737-1.051
		c-0.313-0.277-0.679-0.484-1.099-0.623c-0.42-0.139-0.872-0.209-1.354-0.209s-0.929,0.072-1.34,0.215s-0.775,0.342-1.092,0.596
		c-0.317,0.256-0.585,0.557-0.804,0.906c-0.219,0.348-0.374,0.732-0.463,1.152c-0.071,0.26-0.179,0.447-0.321,0.562
		c-0.143,0.117-0.331,0.174-0.563,0.174c-0.045,0-0.092-0.002-0.141-0.006c-0.049-0.004-0.105-0.012-0.167-0.02l-1.247-0.215
		c0.125-0.877,0.366-1.65,0.724-2.326c0.357-0.674,0.811-1.24,1.36-1.695c0.549-0.455,1.18-0.803,1.89-1.039
		S268.793,419.18,269.615,419.18z"/>
	<path fill="#FFFFFF" d="M284.869,438.818c-0.957,0-1.832-0.129-2.627-0.383s-1.479-0.619-2.051-1.092
		c-0.572-0.475-1.014-1.049-1.327-1.723c-0.313-0.676-0.469-1.432-0.469-2.273c0-1.232,0.322-2.248,0.965-3.049
		c0.644-0.799,1.563-1.369,2.761-1.709c-1.01-0.375-1.771-0.936-2.285-1.682c-0.514-0.746-0.771-1.639-0.771-2.674
		c0-0.707,0.139-1.369,0.416-1.984c0.277-0.617,0.67-1.152,1.18-1.609c0.509-0.455,1.119-0.812,1.83-1.072s1.503-0.389,2.379-0.389
		c0.867,0,1.657,0.129,2.373,0.389c0.715,0.26,1.327,0.617,1.836,1.072c0.509,0.457,0.902,0.992,1.18,1.609
		c0.277,0.615,0.416,1.277,0.416,1.984c0,1.035-0.259,1.928-0.778,2.674c-0.518,0.746-1.278,1.307-2.279,1.682
		c1.198,0.34,2.118,0.91,2.762,1.709c0.643,0.801,0.965,1.816,0.965,3.049c0,0.842-0.159,1.598-0.476,2.273
		c-0.317,0.674-0.76,1.248-1.327,1.723c-0.568,0.473-1.249,0.838-2.044,1.092S285.825,438.818,284.869,438.818z M284.869,436.914
		c0.625,0,1.186-0.088,1.682-0.262s0.916-0.42,1.26-0.736c0.344-0.318,0.607-0.697,0.791-1.141c0.183-0.441,0.275-0.932,0.275-1.467
		c0-0.662-0.109-1.227-0.329-1.695c-0.219-0.471-0.514-0.852-0.884-1.146c-0.371-0.295-0.798-0.512-1.28-0.65
		s-0.988-0.207-1.515-0.207c-0.527,0-1.032,0.068-1.515,0.207c-0.483,0.139-0.91,0.355-1.28,0.65
		c-0.371,0.295-0.666,0.676-0.885,1.146c-0.219,0.469-0.328,1.033-0.328,1.695c0,0.535,0.091,1.025,0.274,1.467
		c0.183,0.443,0.447,0.822,0.791,1.141c0.344,0.316,0.764,0.562,1.26,0.736C283.683,436.826,284.244,436.914,284.869,436.914z
		 M284.869,427.691c0.625,0,1.159-0.096,1.602-0.287c0.442-0.193,0.802-0.447,1.079-0.766c0.277-0.316,0.478-0.68,0.604-1.092
		c0.125-0.41,0.188-0.836,0.188-1.273c0-0.447-0.074-0.867-0.221-1.26s-0.367-0.738-0.657-1.033
		c-0.291-0.293-0.652-0.525-1.086-0.695s-0.936-0.256-1.508-0.256c-0.572,0-1.075,0.086-1.508,0.256
		c-0.433,0.17-0.795,0.402-1.085,0.695c-0.291,0.295-0.509,0.641-0.657,1.033s-0.221,0.812-0.221,1.26
		c0,0.438,0.062,0.863,0.188,1.273c0.125,0.412,0.326,0.775,0.603,1.092c0.277,0.318,0.637,0.572,1.079,0.766
		C283.709,427.596,284.244,427.691,284.869,427.691z"/>
	<path fill="#FFFFFF" d="M302.134,424.033c0,0.75-0.116,1.422-0.349,2.016c-0.232,0.596-0.543,1.096-0.932,1.502
		s-0.842,0.717-1.36,0.932c-0.519,0.215-1.059,0.322-1.622,0.322c-0.608,0-1.168-0.107-1.682-0.322
		c-0.514-0.215-0.963-0.525-1.347-0.932c-0.384-0.406-0.684-0.906-0.898-1.502c-0.214-0.594-0.321-1.266-0.321-2.016
		c0-0.77,0.107-1.453,0.321-2.053c0.215-0.598,0.514-1.104,0.898-1.514c0.384-0.41,0.833-0.725,1.347-0.938
		c0.514-0.215,1.074-0.322,1.682-0.322c0.599,0,1.159,0.107,1.682,0.322c0.523,0.213,0.974,0.527,1.354,0.938
		c0.379,0.41,0.679,0.916,0.898,1.514C302.024,422.58,302.134,423.264,302.134,424.033z M308.849,419.877
		c0.116-0.152,0.239-0.27,0.369-0.355c0.129-0.084,0.302-0.127,0.516-0.127h1.716l-14.034,18.82
		c-0.09,0.115-0.197,0.209-0.322,0.281c-0.125,0.072-0.273,0.107-0.442,0.107h-1.77L308.849,419.877z M300.271,424.033
		c0-0.59-0.062-1.092-0.188-1.502c-0.125-0.412-0.297-0.748-0.516-1.012c-0.219-0.264-0.474-0.453-0.764-0.57
		c-0.291-0.115-0.601-0.174-0.932-0.174s-0.642,0.059-0.932,0.174c-0.291,0.117-0.543,0.307-0.757,0.57s-0.382,0.6-0.503,1.012
		c-0.121,0.41-0.181,0.912-0.181,1.502c0,0.58,0.06,1.074,0.181,1.48c0.121,0.406,0.289,0.736,0.503,0.992
		c0.214,0.254,0.467,0.438,0.757,0.549c0.29,0.111,0.601,0.168,0.932,0.168s0.641-0.057,0.932-0.168
		c0.29-0.111,0.545-0.295,0.764-0.549c0.219-0.256,0.391-0.586,0.516-0.992C300.208,425.107,300.271,424.613,300.271,424.033z
		 M312.75,434.072c0,0.75-0.116,1.422-0.349,2.01c-0.232,0.59-0.542,1.09-0.931,1.496s-0.84,0.717-1.354,0.932
		c-0.514,0.215-1.052,0.32-1.615,0.32c-0.607,0-1.168-0.105-1.682-0.32s-0.963-0.525-1.347-0.932s-0.684-0.906-0.898-1.496
		c-0.214-0.588-0.322-1.26-0.322-2.01c0-0.768,0.107-1.455,0.322-2.057c0.214-0.604,0.514-1.111,0.898-1.521
		c0.384-0.412,0.833-0.725,1.347-0.939s1.075-0.322,1.682-0.322c0.599,0,1.157,0.107,1.676,0.322
		c0.518,0.215,0.97,0.527,1.354,0.939c0.384,0.41,0.684,0.918,0.898,1.521C312.643,432.617,312.75,433.305,312.75,434.072z
		 M310.9,434.072c0-0.59-0.062-1.092-0.188-1.508s-0.297-0.752-0.516-1.012c-0.219-0.26-0.474-0.447-0.764-0.562
		c-0.291-0.117-0.601-0.176-0.932-0.176s-0.641,0.059-0.931,0.176c-0.291,0.115-0.543,0.303-0.758,0.562
		c-0.214,0.26-0.382,0.596-0.502,1.012s-0.181,0.918-0.181,1.508c0,0.58,0.061,1.072,0.181,1.475s0.288,0.73,0.502,0.984
		c0.215,0.256,0.467,0.439,0.758,0.551c0.29,0.111,0.601,0.168,0.931,0.168s0.641-0.057,0.932-0.168s0.545-0.295,0.764-0.551
		c0.219-0.254,0.391-0.582,0.516-0.984S310.9,434.652,310.9,434.072z"/>
</g>
<g opacity="0.7">
	<path fill="#0F789F" d="M218.21,478.752c-52.33-31.303-89.265-81.082-104.064-140.233c-14.886-59.083-5.807-120.399,25.5-172.68
		c31.312-52.323,81.084-89.258,140.244-104.056c59.069-14.881,120.437-5.818,172.668,25.507l-11.23,18.848
		c-47.288-28.293-102.753-36.48-156.139-23.065c-53.385,13.413-98.373,46.81-126.668,94.045
		c-28.263,47.227-36.516,102.655-23.086,156.091c13.42,53.389,46.783,98.432,94.008,126.686
		c47.28,28.291,102.698,36.494,156.146,23.119l5.301,21.289C331.804,519.135,270.476,510.068,218.21,478.752z"/>
</g>
<path fill="#5E7E53" d="M267.649,545.098v6.709h-20.43V528.17h7.576c-0.025-0.369-0.042-0.74-0.042-1.111
	c0-1.303,0.175-2.568,0.5-3.787h-7.74c-2.504,0-4.551,2.051-4.551,4.557v41.213c0,2.506,2.047,4.555,4.551,4.555h19.842
	c2.506,0,4.556-2.049,4.556-4.555V543.51c-0.375-0.029-0.75-0.059-1.119-0.109C269.833,543.969,268.758,544.545,267.649,545.098z
	 M252.921,569.59c0,0.268-0.22,0.486-0.489,0.486h-4.958c-0.268,0-0.489-0.219-0.489-0.486v-1.518c0-0.27,0.222-0.488,0.489-0.488
	h4.958c0.27,0,0.489,0.219,0.489,0.488V569.59z M252.921,565.359c0,0.271-0.22,0.49-0.489,0.49h-4.958
	c-0.268,0-0.489-0.219-0.489-0.49v-1.518c0-0.268,0.222-0.488,0.489-0.488h4.958c0.27,0,0.489,0.221,0.489,0.488V565.359z
	 M252.921,561.131c0,0.271-0.22,0.488-0.489,0.488h-4.958c-0.268,0-0.489-0.217-0.489-0.488v-1.52c0-0.266,0.222-0.484,0.489-0.484
	h4.958c0.27,0,0.489,0.219,0.489,0.484V561.131z M252.921,556.9c0,0.271-0.22,0.492-0.489,0.492h-4.958
	c-0.268,0-0.489-0.221-0.489-0.492v-1.516c0-0.268,0.222-0.49,0.489-0.49h4.958c0.27,0,0.489,0.223,0.489,0.49V556.9z
	 M260.403,569.59c0,0.268-0.215,0.486-0.489,0.486h-4.96c-0.269,0-0.49-0.219-0.49-0.486v-1.518c0-0.27,0.222-0.488,0.49-0.488h4.96
	c0.274,0,0.489,0.219,0.489,0.488V569.59z M260.403,565.359c0,0.271-0.215,0.49-0.489,0.49h-4.96c-0.269,0-0.49-0.219-0.49-0.49
	v-1.518c0-0.268,0.222-0.488,0.49-0.488h4.96c0.274,0,0.489,0.221,0.489,0.488V565.359z M260.403,561.131
	c0,0.271-0.215,0.488-0.489,0.488h-4.96c-0.269,0-0.49-0.217-0.49-0.488v-1.52c0-0.266,0.222-0.484,0.49-0.484h4.96
	c0.274,0,0.489,0.219,0.489,0.484V561.131z M260.403,556.9c0,0.271-0.215,0.492-0.489,0.492h-4.96c-0.269,0-0.49-0.221-0.49-0.492
	v-1.516c0-0.268,0.222-0.49,0.49-0.49h4.96c0.274,0,0.489,0.223,0.489,0.49V556.9z M267.886,569.59c0,0.268-0.218,0.486-0.49,0.486
	h-4.957c-0.273,0-0.492-0.219-0.492-0.486v-1.518c0-0.27,0.219-0.488,0.492-0.488h4.957c0.272,0,0.49,0.219,0.49,0.488V569.59z
	 M267.886,565.359c0,0.271-0.218,0.49-0.49,0.49h-4.957c-0.273,0-0.492-0.219-0.492-0.49v-1.518c0-0.268,0.219-0.488,0.492-0.488
	h4.957c0.272,0,0.49,0.221,0.49,0.488V565.359z M267.886,561.131c0,0.271-0.218,0.488-0.49,0.488h-4.957
	c-0.273,0-0.492-0.217-0.492-0.488v-1.52c0-0.266,0.219-0.484,0.492-0.484h4.957c0.272,0,0.49,0.219,0.49,0.484V561.131z
	 M267.886,556.9c0,0.271-0.218,0.492-0.49,0.492h-4.957c-0.273,0-0.492-0.221-0.492-0.492v-1.516c0-0.268,0.219-0.49,0.492-0.49
	h4.957c0.272,0,0.49,0.223,0.49,0.49V556.9z M273.484,512.264c-9.381,0-17.014,6.635-17.014,14.795c0,4.73,2.57,8.949,6.556,11.658
	c0.09,3.727-2.395,5.5-4.574,8.055c1.866-0.197,7.958-2.672,11.975-5.16c0.992,0.16,2.016,0.24,3.058,0.24
	c9.384,0,17.019-6.637,17.019-14.793C290.502,518.898,282.868,512.264,273.484,512.264z M264.542,531.744
	c-0.97,0-1.928-0.25-2.405-0.516l0.389-1.586c0.518,0.264,1.312,0.529,2.131,0.529c0.879,0,1.345-0.365,1.345-0.92
	c0-0.527-0.401-0.832-1.421-1.195c-1.412-0.492-2.33-1.271-2.33-2.508c0-1.447,1.21-2.553,3.21-2.553
	c0.958,0,1.662,0.199,2.164,0.428l-0.425,1.547c-0.341-0.162-0.944-0.398-1.777-0.398c-0.827,0-1.231,0.375-1.231,0.816
	c0,0.541,0.478,0.781,1.572,1.193c1.5,0.553,2.204,1.334,2.204,2.531C267.966,530.537,266.871,531.744,264.542,531.744z
	 M276.563,531.619l-0.124-3.25c-0.037-1.018-0.075-2.252-0.075-3.484h-0.039c-0.262,1.078-0.616,2.289-0.943,3.285l-1.032,3.312
	h-1.499l-0.906-3.287c-0.277-0.994-0.567-2.203-0.77-3.311h-0.024c-0.049,1.145-0.085,2.455-0.146,3.512l-0.155,3.223h-1.773
	l0.539-8.484h2.557l0.833,2.828c0.264,0.984,0.527,2.041,0.717,3.035h0.034c0.243-0.98,0.531-2.1,0.809-3.045l0.908-2.818h2.503
	l0.468,8.484H276.563z M281.993,531.744c-0.97,0-1.925-0.25-2.404-0.516l0.391-1.586c0.516,0.264,1.31,0.529,2.128,0.529
	c0.88,0,1.345-0.365,1.345-0.92c0-0.527-0.399-0.832-1.422-1.195c-1.408-0.492-2.331-1.271-2.331-2.508
	c0-1.447,1.21-2.553,3.213-2.553c0.957,0,1.663,0.199,2.165,0.428l-0.429,1.547c-0.341-0.162-0.942-0.398-1.773-0.398
	c-0.83,0-1.234,0.375-1.234,0.816c0,0.541,0.479,0.777,1.573,1.193c1.5,0.553,2.205,1.334,2.205,2.531
	C285.418,530.537,284.324,531.744,281.993,531.744z"/>
<g>
	<g>
		<path fill="#0E5461" d="M577.25,136.804c0,19.769-16.02,35.795-35.791,35.795c-19.77,0-35.795-16.026-35.795-35.795
			s16.025-35.794,35.795-35.794C561.23,101.01,577.25,117.036,577.25,136.804z"/>
	</g>
</g>
<g>
	<path fill="#5DC7C3" d="M396.444,17.25h-4.355v-4.877c0-0.98-0.794-1.775-1.773-1.775c-0.981,0-1.772,0.795-1.772,1.775v1.329
		h-11.18v-1.329c0-0.98-0.794-1.775-1.771-1.775c-0.981,0-1.774,0.795-1.774,1.775v4.877h-4.354c-2.314,0-4.192,1.878-4.192,4.189
		v17.691h35.361V21.44C400.632,19.128,398.758,17.25,396.444,17.25z M382.954,36.026c-4.655,0-8.427-3.774-8.427-8.426
		c0-1.279,0.293-2.488,0.807-3.575c0.292-0.628,0.653-1.215,1.089-1.747c0.285-0.35,0.604-0.674,0.94-0.973
		c1.493-1.323,3.442-2.131,5.591-2.131c2.146,0,4.098,0.808,5.589,2.131c0.335,0.299,0.655,0.623,0.942,0.973
		c0.433,0.532,0.799,1.119,1.091,1.747c0.51,1.087,0.804,2.296,0.804,3.575C391.379,32.251,387.606,36.026,382.954,36.026z"/>
	<path fill="#5DC7C3" d="M384.455,22.278c-0.478-0.135-0.984-0.211-1.501-0.211c-0.523,0-1.023,0.076-1.5,0.211
		c-2.325,0.654-4.035,2.785-4.035,5.322c0,3.056,2.478,5.533,5.535,5.533c3.057,0,5.532-2.478,5.532-5.533
		C388.486,25.063,386.779,22.932,384.455,22.278z"/>
	<path fill="#5DC7C3" d="M404.117,6.5c-1.533-0.639-3.08-1.213-4.643-1.712c-10.776-3.435-22.267-3.435-33.041,0
		c-1.564,0.499-3.114,1.073-4.641,1.712c-2.544,1.071-3.91,3.662-3.382,5.828c0.065,0.294,0.163,0.583,0.295,0.861
		c0.111,0.232,0.222,0.463,0.331,0.694c1.152,2.317,3.918,3.161,6.266,2.18c1.276-0.536,2.567-1.013,3.871-1.428
		c2.194-0.705,3.72-2.821,3.671-5.156c6.673-1.413,13.544-1.413,20.216,0c-0.048,2.333,1.477,4.451,3.67,5.156
		c1.306,0.415,2.597,0.892,3.87,1.428c2.351,0.981,5.115,0.138,6.265-2.18c0.113-0.231,0.223-0.462,0.334-0.694
		c0.133-0.278,0.229-0.567,0.299-0.861C408.023,10.162,406.658,7.571,404.117,6.5z"/>
</g>
<g>
	<g>
		<g>
			<g>
				<circle fill="#C8B330" cx="581.714" cy="319.43" r="23.769"/>
			</g>
		</g>
	</g>
	<g>
		<g>
			<path fill="#FFFFFF" d="M590.99,320.198c0,5.121-4.154,9.274-9.277,9.274c-5.125,0-9.281-4.153-9.281-9.274
				c0-5.125,4.156-9.276,9.281-9.276C586.836,310.921,590.99,315.073,590.99,320.198z"/>
		</g>
	</g>
</g>
<g>
	<g>
		<g>
			<path fill="#48C7F4" d="M511.697,470.658l-19.682-0.092c-7.283,0.197-9.963,6.062-9.963,8.104v28.996
				c0,1.799,1.457,3.244,3.232,3.244c1.801,0,3.258-1.445,3.258-3.244v-23.768h2.758v22.779c0,0.314,0.039,0.623,0.078,0.906v0.619
				c0.197-0.035,17.619,0.055,20.318-0.084v-24.221h2.449v23.768c0,1.799,1.557,3.244,3.473,3.244c1.928,0,3.486-1.445,3.486-3.244
				v-29.373C521.105,475.814,517.852,470.658,511.697,470.658z"/>
			<path fill="#48C7F4" d="M501.287,469.15c4.311,0,7.801-3.482,7.801-7.801c0-4.307-3.49-7.797-7.801-7.797
				c-4.307,0-7.795,3.49-7.795,7.797C493.492,465.668,496.98,469.15,501.287,469.15z"/>
		</g>
		<g>
			<path fill="#48C7F4" d="M527.453,476.383v-2.191c0-1.447-1.896-4.459-5.49-4.459l-11.494-0.053
				c-4.252,0.113-5.816,3.541-5.816,4.732v1.559C512.254,475.994,519.855,476.168,527.453,476.383z"/>
			<path fill="#48C7F4" d="M516.053,468.852c2.516,0,4.555-2.033,4.555-4.555c0-2.516-2.039-4.555-4.555-4.555
				c-2.514,0-4.553,2.039-4.553,4.555C511.5,466.818,513.539,468.852,516.053,468.852z"/>
		</g>
		<g>
			<path fill="#48C7F4" d="M498.244,477.033c0.277,0.004,0.527,0.035,0.783,0.062v-2.791c0-1.193-1.566-4.619-5.82-4.732
				l-11.49,0.051c-3.596,0-5.492,3.014-5.492,4.461v2.928C483.564,476.852,490.902,477.018,498.244,477.033z"/>
			<path fill="#48C7F4" d="M487.336,468.744c-2.516,0-4.557-2.033-4.557-4.555c0-2.516,2.041-4.555,4.557-4.555
				c2.514,0,4.549,2.039,4.549,4.555C491.885,466.711,489.85,468.744,487.336,468.744z"/>
		</g>
		<path fill="#48C7F4" d="M531.043,463.877c0.016-0.496,0.014-0.988-0.014-1.477c-0.178-3.375-1.389-6.586-3.486-9.232
			c-0.303-0.385-0.627-0.758-0.969-1.115c-0.57-0.6-1.436-0.707-1.986-0.332c-0.072,0.051-0.143,0.109-0.209,0.176
			c-0.051,0.055-0.105,0.109-0.158,0.166c-0.521,0.564-0.473,1.428,0.053,1.979c0.285,0.301,0.555,0.609,0.809,0.932
			c0.43,0.539,1.178,0.74,1.826,0.48c1.1,1.717,1.824,3.637,2.133,5.648c-0.656,0.234-1.086,0.881-1.053,1.568
			c0.02,0.41,0.023,0.822,0.012,1.232c-0.029,0.76,0.498,1.445,1.266,1.523c0.078,0.004,0.156,0.012,0.23,0.018
			c0.094,0.008,0.182,0.004,0.275-0.008C530.43,465.354,531.01,464.697,531.043,463.877z"/>
		<path fill="#48C7F4" d="M473.332,464.947c-0.02-0.496-0.016-0.988,0.01-1.479c0.176-3.373,1.391-6.584,3.486-9.232
			c0.307-0.385,0.629-0.756,0.969-1.115c0.568-0.6,1.436-0.707,1.984-0.332c0.072,0.053,0.145,0.109,0.211,0.176
			c0.055,0.057,0.104,0.109,0.158,0.166c0.525,0.564,0.471,1.428-0.055,1.98c-0.281,0.299-0.553,0.609-0.807,0.932
			c-0.426,0.537-1.178,0.74-1.828,0.479c-1.096,1.719-1.822,3.635-2.133,5.65c0.656,0.232,1.088,0.881,1.055,1.568
			c-0.021,0.41-0.025,0.818-0.01,1.232c0.025,0.76-0.5,1.443-1.27,1.52c-0.078,0.008-0.152,0.014-0.229,0.021
			c-0.094,0.008-0.184,0.004-0.273-0.01C473.941,466.422,473.361,465.77,473.332,464.947z"/>
	</g>
</g>
<g>
	<g>
		<path opacity="0.7" fill="#ED1C24" d="M97.275,235.51H90.42v-44.127c0-1.339-1.088-2.427-2.427-2.427H22.112
			c-1.338,0-2.429,1.088-2.429,2.427v44.127h-6.849c-1.768,0-3.202,1.437-3.202,3.201v2.967c0,1.76,1.435,3.197,3.202,3.197h84.44
			c1.764,0,3.2-1.438,3.2-3.197v-2.967C100.475,236.947,99.039,235.51,97.275,235.51z M68.858,238.141
			c0,0.669-0.547,1.214-1.223,1.214H42.467c-0.673,0-1.217-0.545-1.217-1.214v-1.128c0-0.104,0.015-0.199,0.037-0.296H68.82
			c0.021,0.097,0.038,0.192,0.038,0.296V238.141z M83.026,241.498c-0.564,0-1.024-0.456-1.024-1.022c0-0.563,0.46-1.021,1.024-1.021
			c0.561,0,1.017,0.458,1.017,1.021C84.042,241.042,83.586,241.498,83.026,241.498z M84.179,233.718h-58.25v-38.973
			c0-0.04,0.051-0.1,0.129-0.1h57.991c0.073,0,0.13,0.06,0.13,0.1V233.718z M87.73,241.498c-0.56,0-1.018-0.456-1.018-1.022
			c0-0.563,0.458-1.021,1.018-1.021c0.562,0,1.023,0.458,1.023,1.021C88.753,241.042,88.292,241.498,87.73,241.498z M92.439,241.498
			c-0.562,0-1.022-0.456-1.022-1.022c0-0.563,0.46-1.021,1.022-1.021s1.017,0.458,1.017,1.021
			C93.456,241.042,93.001,241.498,92.439,241.498z"/>
		
			<rect x="28.944" y="196.151" opacity="0.7" fill-rule="evenodd" clip-rule="evenodd" fill="#ED1C24" width="52.061" height="5.062"/>
	</g>
	
		<rect x="29.403" y="204.219" opacity="0.7" fill-rule="evenodd" clip-rule="evenodd" fill="#ED1C24" width="16.311" height="25.801"/>
	
		<rect x="72.651" y="204.848" opacity="0.7" fill-rule="evenodd" clip-rule="evenodd" fill="#ED1C24" width="6.824" height="8.782"/>
	
		<rect x="72.651" y="214.805" opacity="0.7" fill-rule="evenodd" clip-rule="evenodd" fill="#ED1C24" width="6.901" height="8.314"/>
	<line opacity="0.7" fill="#ED1C24" stroke="#ED1C24" stroke-miterlimit="10" x1="48.262" y1="206.101" x2="71.71" y2="206.101"/>
	<line opacity="0.7" fill="#ED1C24" stroke="#ED1C24" stroke-miterlimit="10" x1="48.262" y1="208.847" x2="71.71" y2="208.847"/>
	<line opacity="0.7" fill="#ED1C24" stroke="#ED1C24" stroke-miterlimit="10" x1="48.262" y1="211.906" x2="71.71" y2="211.906"/>
	<line opacity="0.7" fill="#ED1C24" stroke="#ED1C24" stroke-miterlimit="10" x1="48.262" y1="214.57" x2="71.71" y2="214.57"/>
	<line opacity="0.7" fill="#ED1C24" stroke="#ED1C24" stroke-miterlimit="10" x1="48.262" y1="219.276" x2="71.71" y2="219.276"/>
	<line opacity="0.7" fill="#ED1C24" stroke="#ED1C24" stroke-miterlimit="10" x1="48.262" y1="222.022" x2="71.71" y2="222.022"/>
	<line opacity="0.7" fill="#ED1C24" stroke="#ED1C24" stroke-miterlimit="10" x1="48.262" y1="225.08" x2="79.472" y2="225.08"/>
	<line opacity="0.7" fill="#ED1C24" stroke="#ED1C24" stroke-miterlimit="10" x1="48.262" y1="227.745" x2="79.472" y2="227.745"/>
</g>
<g>
	<g>
		<path fill-rule="evenodd" clip-rule="evenodd" fill="#FFFFFF" d="M516.92,141.12c-0.248-11.48,4.641-19.099,14.146-23.153
			c9.629-4.088,19.225-3.605,27.592,3.551c6.377,5.44,7.723,13.54,3.826,21.003c-3.887,7.45-9.295,9.954-18.018,7.771
			c-2.02-0.499-3.137,0.634-4.676,0.936c-6.357,1.248-10.564-1.639-11.572-8.142c-1.705-10.999,5.873-18.879,16.338-16.766
			c1.498,0.304,2.295-0.635,3.436-0.749c2.928-0.297,4.326,0.847,3.768,3.983c-0.773,4.315-1.443,8.632-2.064,12.957
			c-0.168,1.156-0.895,2.688,0.479,3.418c1.547,0.834,2.771-0.44,3.861-1.379c7.406-6.345,4.699-19.587-4.73-23.279
			c-7.6-2.979-16.377-0.777-21.652,5.406c-5.078,5.983-6.105,15.902-2.285,22.282c3.672,6.146,13.262,9.816,21.574,8.085
			c4.131-0.873,7.936-2.442,10.936-5.669c1.275-1.367,2.816-4.062,5.014-1.913c2.229,2.181,0.012,4.21-1.475,5.883
			c-4.02,4.479-9.527,5.808-15.121,6.709c-11.027,1.769-22.658-3.315-27.129-11.588C517.42,147.226,516.748,143.837,516.92,141.12z"
			/>
		<path fill-rule="evenodd" clip-rule="evenodd" fill="#0E5461" d="M544.588,134.579c-0.582,3.315-1.66,7.103-3.797,10.49
			c-0.773,1.228-1.832,2.501-3.557,1.895c-1.732-0.611-2.561-1.966-2.623-3.861c-0.125-4.395,1.627-8.104,4.113-11.55
			c0.889-1.227,2.174-2.119,3.77-1.659C544.479,130.463,544.615,132.218,544.588,134.579z"/>
	</g>
</g>
</svg>
