<?xml version="1.0" encoding="utf-8"?>
<!-- Generator: Adobe Illustrator 16.0.0, SVG Export Plug-In . SVG Version: 6.00 Build 0)  -->
<!DOCTYPE svg PUBLIC "-//W3C//DTD SVG 1.1//EN" "http://www.w3.org/Graphics/SVG/1.1/DTD/svg11.dtd">
<svg version="1.1" id="Layer_1" xmlns="http://www.w3.org/2000/svg" xmlns:xlink="http://www.w3.org/1999/xlink" x="0px" y="0px"
	 width="636.33px" height="601px" viewBox="0 0 636.33 601" enable-background="new 0 0 636.33 601" xml:space="preserve">
<g>
	<path opacity="0.7" fill="#0F789F" d="M110.639,150.287l-3.417-2.079c-2.093,3.44-4.134,6.975-6.068,10.507l3.509,1.921
		C106.567,157.157,108.578,153.675,110.639,150.287z"/>
	<path opacity="0.7" fill="#0F789F" d="M99.164,171.251l-3.593-1.759c-1.768,3.611-3.479,7.32-5.086,11.024l3.67,1.592
		C95.737,178.461,97.422,174.808,99.164,171.251z"/>
	<path opacity="0.7" fill="#0F789F" d="M72.604,286.638l-4,0.003c0.003,4.021,0.098,8.097,0.282,12.116l3.996-0.183
		C72.701,294.615,72.607,290.599,72.604,286.638z"/>
	<path opacity="0.7" fill="#0F789F" d="M139.038,111.94l-2.985-2.662c-2.674,3-5.319,6.104-7.86,9.229l3.104,2.524
		C133.798,117.953,136.403,114.895,139.038,111.94z"/>
	<path opacity="0.7" fill="#0F789F" d="M73.696,310.483l-3.983,0.363c0.365,4.012,0.827,8.062,1.373,12.039l3.963-0.544
		C74.511,318.424,74.056,314.435,73.696,310.483z"/>
	<path opacity="0.7" fill="#0F789F" d="M123.971,130.465l-3.215-2.381c-2.397,3.237-4.75,6.57-6.995,9.907l3.319,2.232
		C119.291,136.937,121.609,133.653,123.971,130.465z"/>
	<path opacity="0.7" fill="#0F789F" d="M173.853,79.364l-2.458-3.156c-3.17,2.468-6.327,5.044-9.386,7.657l2.598,3.041
		C167.62,84.333,170.73,81.795,173.853,79.364z"/>
	<path opacity="0.7" fill="#0F789F" d="M107.383,424.826c2.092,3.43,4.291,6.857,6.537,10.188l3.316-2.236
		c-2.211-3.28-4.377-6.657-6.438-10.035L107.383,424.826z"/>
	<path opacity="0.7" fill="#0F789F" d="M76.938,334.125l-3.934,0.724c0.727,3.955,1.556,7.947,2.464,11.865l3.896-0.902
		C78.471,341.951,77.654,338.02,76.938,334.125z"/>
	<path opacity="0.7" fill="#0F789F" d="M95.739,403.62c1.769,3.601,3.646,7.213,5.58,10.734l3.506-1.926
		c-1.905-3.468-3.754-7.025-5.495-10.572L95.739,403.62z"/>
	<path opacity="0.7" fill="#0F789F" d="M78.473,358.453c1.086,3.872,2.277,7.771,3.54,11.59l3.798-1.256
		c-1.244-3.761-2.417-7.602-3.486-11.414L78.473,358.453z"/>
	<path opacity="0.7" fill="#0F789F" d="M86.082,381.458c1.432,3.744,2.971,7.509,4.575,11.189l3.667-1.598
		c-1.58-3.625-3.096-7.332-4.505-11.02L86.082,381.458z"/>
	<path opacity="0.7" fill="#0F789F" d="M545.409,130.056c2.359,3.173,4.68,6.446,6.897,9.729l3.314-2.239
		c-2.251-3.332-4.607-6.655-7.003-9.876L545.409,130.056z"/>
	<path opacity="0.7" fill="#0F789F" d="M600.809,298.496c0.18-4.003,0.271-8.078,0.271-12.112v-0.506h-1.535
		c-0.812,0.542-1.636,1.058-2.477,1.536c-0.014,3.638-0.094,7.299-0.255,10.903L600.809,298.496z"/>
	<path opacity="0.7" fill="#0F789F" d="M120.913,444.896c2.391,3.223,4.893,6.439,7.436,9.56l3.101-2.527
		c-2.504-3.073-4.968-6.241-7.324-9.415L120.913,444.896z"/>
	<path opacity="0.7" fill="#0F789F" d="M446.152,44.462c-3.669-1.69-7.418-3.314-11.143-4.828l-1.506,3.706
		c3.669,1.49,7.361,3.09,10.975,4.755L446.152,44.462z"/>
	<path opacity="0.7" fill="#0F789F" d="M599.994,310.584l-3.984-0.359c-0.334,3.714-0.761,7.468-1.255,11.175
		c0.827,0.319,1.641,0.663,2.442,1.029l1.436,0.195C599.176,318.637,599.633,314.586,599.994,310.584z"/>
	<path opacity="0.7" fill="#0F789F" d="M577.08,175.795c-1.058-2.312-2.136-4.614-3.249-6.874l-3.588,1.768
		c0.915,1.858,1.812,3.743,2.689,5.64C574.297,176.072,575.679,175.887,577.08,175.795z"/>
	<path opacity="0.7" fill="#0F789F" d="M213.927,53.625l-1.848-3.548c-3.563,1.855-7.13,3.817-10.602,5.83l2.007,3.46
		C206.903,57.385,210.416,55.453,213.927,53.625z"/>
	<path opacity="0.7" fill="#0F789F" d="M193.311,65.58l-2.162-3.365c-3.381,2.171-6.757,4.45-10.035,6.772l2.312,3.264
		C186.655,69.963,189.98,67.719,193.311,65.58z"/>
	<path opacity="0.7" fill="#0F789F" d="M423.653,35.32c-3.805-1.345-7.689-2.62-11.545-3.787l-1.16,3.828
		c3.799,1.15,7.624,2.405,11.371,3.73L423.653,35.32z"/>
	<path opacity="0.7" fill="#0F789F" d="M235.53,43.604l-1.516-3.701c-3.713,1.521-7.442,3.148-11.082,4.836l1.684,3.629
		C228.201,46.704,231.873,45.102,235.53,43.604z"/>
	<path opacity="0.7" fill="#0F789F" d="M258.006,35.582l-1.171-3.825c-3.846,1.177-7.716,2.459-11.503,3.811l1.345,3.768
		C250.406,38.004,254.218,36.741,258.006,35.582z"/>
	<path opacity="0.7" fill="#0F789F" d="M281.122,29.653l-0.815-3.916c-3.943,0.821-7.914,1.744-11.804,2.741l0.993,3.875
		C273.327,31.37,277.238,30.462,281.122,29.653z"/>
	<path opacity="0.7" fill="#0F789F" d="M568.242,158.193c-1.933-3.512-3.977-7.034-6.075-10.465l-3.412,2.086
		c2.066,3.381,4.079,6.849,5.983,10.308L568.242,158.193z"/>
	<path opacity="0.7" fill="#0F789F" d="M388.62,25.582l-0.804,3.919c3.881,0.796,7.795,1.692,11.634,2.665l0.982-3.877
		C396.536,27.301,392.561,26.39,388.62,25.582z"/>
	<path opacity="0.7" fill="#0F789F" d="M405.166,539.081c-1.741,0.483-3.485,0.954-5.223,1.398l0.99,3.875
		c1.991-0.509,3.99-1.046,5.983-1.605C406.281,541.557,405.693,540.335,405.166,539.081z"/>
	<path opacity="0.7" fill="#0F789F" d="M486.051,500.665l2.309,3.266c3.282-2.319,6.555-4.746,9.728-7.212l-2.455-3.158
		C492.507,495.989,489.283,498.38,486.051,500.665z"/>
	<path opacity="0.7" fill="#0F789F" d="M376.577,545.32l0.632,3.949c3.98-0.637,7.99-1.372,11.918-2.187l-0.812-3.916
		C384.446,543.969,380.497,544.692,376.577,545.32z"/>
	<path opacity="0.7" fill="#0F789F" d="M364.688,21.801l-0.443,3.976c3.94,0.439,7.92,0.976,11.828,1.593l0.624-3.951
		C372.729,22.792,368.689,22.248,364.688,21.801z"/>
	<path opacity="0.7" fill="#0F789F" d="M352.865,548.013l0.271,3.99c4.016-0.272,8.076-0.64,12.067-1.093l-0.451-3.975
		C360.82,547.382,356.821,547.744,352.865,548.013z"/>
	<path opacity="0.7" fill="#0F789F" d="M522.324,469.74l2.859,2.797c2.819-2.884,5.604-5.862,8.276-8.854l-2.982-2.664
		C527.845,463.966,525.102,466.9,522.324,469.74z"/>
	<path opacity="0.7" fill="#0F789F" d="M552.461,432.756l3.316,2.236c2.247-3.334,4.45-6.77,6.55-10.212l-3.416-2.082
		C556.844,426.089,554.674,429.473,552.461,432.756z"/>
	<path opacity="0.7" fill="#0F789F" d="M568.155,406.207c-1.063,2.067-2.146,4.125-3.257,6.147l3.506,1.924
		c1.312-2.39,2.583-4.828,3.829-7.274C570.852,406.803,569.492,406.533,568.155,406.207z"/>
	<path opacity="0.7" fill="#0F789F" d="M504.883,486.027l2.596,3.043c3.067-2.616,6.108-5.33,9.039-8.066l-2.73-2.924
		C510.9,480.776,507.905,483.45,504.883,486.027z"/>
	<path opacity="0.7" fill="#0F789F" d="M538.228,451.935l3.102,2.527c2.542-3.12,5.047-6.34,7.445-9.57l-3.213-2.385
		C543.2,445.69,540.732,448.862,538.228,451.935z"/>
	<path opacity="0.7" fill="#0F789F" d="M340.432,24.206c3.965,0.083,7.977,0.257,11.924,0.517l0.264-3.991
		c-4.007-0.264-8.079-0.441-12.104-0.525L340.432,24.206z"/>
	<path opacity="0.7" fill="#0F789F" d="M136.211,463.671c2.685,3.006,5.469,5.984,8.273,8.852l2.859-2.797
		c-2.763-2.824-5.504-5.758-8.149-8.719L136.211,463.671z"/>
	<path opacity="0.7" fill="#0F789F" d="M191.396,510.713c3.389,2.173,6.875,4.296,10.362,6.312l2.002-3.463
		c-3.434-1.986-6.868-4.077-10.206-6.217L191.396,510.713z"/>
	<path opacity="0.7" fill="#0F789F" d="M171.596,496.718c3.177,2.47,6.454,4.9,9.741,7.223l2.309-3.266
		c-3.237-2.289-6.465-4.683-9.594-7.115L171.596,496.718z"/>
	<path opacity="0.7" fill="#0F789F" d="M212.4,522.858c3.579,1.856,7.246,3.654,10.9,5.343l1.678-3.631
		c-3.599-1.663-7.211-3.434-10.735-5.263L212.4,522.858z"/>
	<path opacity="0.7" fill="#0F789F" d="M234.438,533.039c3.737,1.523,7.557,2.979,11.351,4.325l1.338-3.77
		c-3.737-1.326-7.499-2.759-11.179-4.259L234.438,533.039z"/>
	<path opacity="0.7" fill="#0F789F" d="M152.978,91.939c-2.936,2.748-5.849,5.6-8.658,8.477l2.862,2.794
		c2.767-2.834,5.637-5.644,8.529-8.351L152.978,91.939z"/>
	<path opacity="0.7" fill="#0F789F" d="M153.151,480.99c2.934,2.742,5.977,5.458,9.044,8.072l2.595-3.043
		c-3.021-2.576-6.018-5.251-8.907-7.951L153.151,480.99z"/>
	<path opacity="0.7" fill="#0F789F" d="M316.292,20.783l0.274,3.99c3.951-0.271,7.963-0.457,11.925-0.551l-0.095-3.999
		C324.375,20.319,320.302,20.507,316.292,20.783z"/>
	<path opacity="0.7" fill="#0F789F" d="M257.33,541.164c3.854,1.17,7.781,2.266,11.673,3.256l0.986-3.877
		c-3.834-0.975-7.702-2.054-11.497-3.207L257.33,541.164z"/>
	<path opacity="0.7" fill="#0F789F" d="M329,548.559l-0.088,4c1.971,0.043,3.947,0.064,5.928,0.064c2.06,0,4.143-0.023,6.191-0.071
		l-0.092-3.998C336.982,548.643,332.961,548.646,329,548.559z"/>
	<path opacity="0.7" fill="#0F789F" d="M304.741,550.94c3.985,0.449,8.045,0.813,12.069,1.082l0.267-3.99
		c-3.963-0.266-7.963-0.624-11.887-1.066L304.741,550.94z"/>
	<path opacity="0.7" fill="#0F789F" d="M280.812,547.138c3.93,0.81,7.94,1.541,11.921,2.175l0.628-3.951
		c-3.921-0.623-7.872-1.344-11.742-2.142L280.812,547.138z"/>
	<path opacity="0.7" fill="#0F789F" d="M292.222,23.54l0.635,3.949c3.911-0.629,7.889-1.177,11.824-1.627l-0.455-3.974
		C300.231,22.346,296.193,22.901,292.222,23.54z"/>
</g>
<g>
	<path fill="#5DC7C3" d="M434.606,229.195l62.677-34.426c-23.94-43.588-61.38-74.147-108.878-88.87l-21.168,68.291
		C396.166,183.147,420.252,203.116,434.606,229.195z"/>
	<path fill="#0E5461" d="M497.283,194.77l-62.677,34.426c9.126,16.577,14.322,35.622,14.322,55.883c0,4.941-0.311,9.811-0.91,14.59
		l70.947,8.989C524.174,267.545,517.234,231.09,497.283,194.77z"/>
	<path fill="#C8B330" d="M435.147,339.97l63.008,33.815c11.756-21.909,17.684-40.459,20.811-65.128l-70.947-8.989
		C446.209,314.093,441.75,327.693,435.147,339.97z"/>
	<path fill="#5E7E53" d="M332.865,401.141c-14.82,0-28.989-2.783-42.021-7.847l-25.881,66.652
		c88.85,34.501,188.118-2.177,233.191-86.161l-63.008-33.815C415.563,376.384,377.107,401.141,332.865,401.141z"/>
	<path opacity="0.7" fill="#F26066" d="M216.803,285.078c0-64.1,51.963-116.063,116.062-116.063c11.967,0,23.511,1.812,34.372,5.176
		l21.168-68.291c-98.959-30.674-204.047,24.681-234.719,123.64c-29.447,95,18.562,194.403,111.277,230.407l25.881-66.652
		C247.518,376.458,216.803,334.357,216.803,285.078z"/>
</g>
<g>
	<path fill="#FFFFFF" d="M36.054,252.019h2.41c0.249,0,0.457,0.059,0.624,0.176c0.167,0.118,0.279,0.276,0.335,0.475l2.623,9.223
		c0.064,0.228,0.123,0.475,0.176,0.741c0.054,0.266,0.105,0.549,0.155,0.848c0.057-0.299,0.119-0.582,0.187-0.848
		c0.067-0.267,0.141-0.514,0.219-0.741l3.028-9.223c0.057-0.164,0.169-0.312,0.336-0.448c0.167-0.135,0.372-0.203,0.613-0.203h0.842
		c0.249,0,0.455,0.059,0.619,0.176c0.163,0.118,0.277,0.276,0.341,0.475l3.007,9.223c0.156,0.455,0.292,0.959,0.405,1.514
		c0.05-0.277,0.101-0.544,0.155-0.8c0.053-0.256,0.108-0.494,0.165-0.714l2.623-9.223c0.05-0.178,0.16-0.331,0.331-0.458
		c0.17-0.128,0.376-0.192,0.618-0.192h2.25l-4.788,15.418h-2.591l-3.369-10.535c-0.043-0.135-0.087-0.281-0.133-0.437
		c-0.046-0.156-0.091-0.323-0.133-0.501c-0.043,0.178-0.087,0.345-0.133,0.501c-0.046,0.156-0.091,0.302-0.133,0.437l-3.401,10.535
		h-2.591L36.054,252.019z"/>
	<path fill="#FFFFFF" d="M63.734,256.327c0.689,0,1.324,0.11,1.903,0.331c0.579,0.22,1.079,0.542,1.498,0.965
		c0.419,0.423,0.747,0.942,0.981,1.557c0.234,0.615,0.352,1.317,0.352,2.106c0,0.199-0.009,0.364-0.027,0.496
		c-0.018,0.131-0.05,0.234-0.096,0.309c-0.046,0.075-0.108,0.128-0.187,0.16c-0.078,0.032-0.178,0.048-0.298,0.048H61.1
		c0.079,1.123,0.38,1.948,0.907,2.474c0.526,0.526,1.222,0.789,2.09,0.789c0.426,0,0.794-0.05,1.104-0.149
		c0.309-0.1,0.579-0.209,0.81-0.331c0.231-0.121,0.434-0.231,0.608-0.331c0.174-0.1,0.343-0.149,0.506-0.149
		c0.106,0,0.199,0.021,0.277,0.064c0.078,0.043,0.146,0.104,0.203,0.182l0.768,0.959c-0.292,0.341-0.619,0.627-0.981,0.858
		s-0.741,0.416-1.136,0.554s-0.796,0.236-1.205,0.293c-0.409,0.057-0.805,0.085-1.189,0.085c-0.761,0-1.468-0.126-2.122-0.379
		c-0.654-0.252-1.223-0.625-1.706-1.12c-0.483-0.494-0.864-1.105-1.141-1.833c-0.277-0.729-0.416-1.573-0.416-2.533
		c0-0.746,0.121-1.448,0.362-2.105c0.242-0.658,0.588-1.23,1.04-1.717c0.452-0.487,1.002-0.873,1.653-1.157
		S62.917,256.327,63.734,256.327z M63.787,258.214c-0.768,0-1.368,0.217-1.802,0.65s-0.711,1.049-0.832,1.845h4.947
		c0-0.341-0.046-0.663-0.139-0.965s-0.234-0.567-0.427-0.794c-0.192-0.228-0.434-0.407-0.725-0.539
		C64.52,258.28,64.178,258.214,63.787,258.214z"/>
	<path fill="#FFFFFF" d="M70.643,267.437v-15.844h2.634v6.248c0.433-0.462,0.924-0.83,1.471-1.104s1.187-0.411,1.919-0.411
		c0.597,0,1.142,0.123,1.636,0.368c0.494,0.246,0.921,0.603,1.28,1.072s0.636,1.049,0.832,1.738c0.195,0.69,0.293,1.482,0.293,2.378
		c0,0.817-0.11,1.575-0.331,2.271c-0.221,0.697-0.535,1.301-0.944,1.813c-0.409,0.512-0.903,0.912-1.482,1.199
		c-0.58,0.288-1.228,0.432-1.946,0.432c-0.334,0-0.64-0.034-0.917-0.102s-0.53-0.162-0.757-0.283
		c-0.228-0.121-0.439-0.268-0.634-0.442c-0.195-0.174-0.382-0.368-0.56-0.581l-0.118,0.736c-0.042,0.185-0.115,0.316-0.218,0.395
		s-0.244,0.117-0.421,0.117H70.643z M75.76,258.374c-0.547,0-1.015,0.116-1.402,0.346c-0.388,0.231-0.748,0.557-1.082,0.976v4.904
		c0.298,0.37,0.624,0.627,0.976,0.773c0.352,0.146,0.734,0.218,1.146,0.218c0.398,0,0.757-0.075,1.077-0.224
		c0.32-0.149,0.591-0.377,0.815-0.683s0.396-0.691,0.517-1.157c0.121-0.465,0.181-1.015,0.181-1.647c0-0.64-0.051-1.182-0.154-1.626
		c-0.104-0.444-0.25-0.805-0.443-1.082c-0.192-0.277-0.425-0.48-0.698-0.608S76.109,258.374,75.76,258.374z"/>
</g>
<g>
	<g>
		<path fill="#FFFFFF" d="M426.246,564.564c-0.072,0.113-0.146,0.193-0.225,0.24s-0.178,0.068-0.299,0.068
			c-0.127,0-0.265-0.035-0.41-0.105c-0.146-0.072-0.314-0.152-0.506-0.24c-0.192-0.09-0.411-0.17-0.656-0.24
			s-0.535-0.107-0.869-0.107c-0.52,0-0.928,0.111-1.227,0.332c-0.298,0.221-0.447,0.508-0.447,0.863
			c0,0.234,0.076,0.432,0.229,0.592c0.153,0.16,0.355,0.301,0.608,0.42c0.253,0.121,0.538,0.23,0.858,0.326s0.646,0.201,0.98,0.314
			s0.662,0.244,0.981,0.389c0.319,0.146,0.606,0.332,0.858,0.555c0.252,0.225,0.455,0.492,0.607,0.805
			c0.152,0.314,0.229,0.689,0.229,1.131c0,0.525-0.097,1.012-0.288,1.455c-0.191,0.445-0.473,0.828-0.842,1.152
			c-0.37,0.322-0.826,0.576-1.371,0.756c-0.543,0.182-1.167,0.273-1.871,0.273c-0.377,0-0.744-0.035-1.104-0.102
			c-0.358-0.068-0.703-0.162-1.033-0.283c-0.331-0.121-0.637-0.264-0.918-0.426c-0.28-0.164-0.527-0.342-0.74-0.533l0.607-1.002
			c0.078-0.121,0.17-0.215,0.277-0.277c0.106-0.064,0.241-0.096,0.404-0.096c0.164,0,0.318,0.045,0.465,0.137
			c0.145,0.094,0.314,0.193,0.506,0.299c0.192,0.107,0.418,0.207,0.678,0.299c0.259,0.094,0.588,0.139,0.986,0.139
			c0.312,0,0.58-0.037,0.805-0.111c0.224-0.074,0.408-0.172,0.555-0.293c0.145-0.121,0.252-0.262,0.319-0.422
			s0.102-0.324,0.102-0.496c0-0.256-0.077-0.465-0.229-0.629s-0.355-0.305-0.607-0.426s-0.541-0.23-0.863-0.326
			c-0.324-0.096-0.654-0.201-0.992-0.314s-0.668-0.246-0.992-0.4c-0.322-0.152-0.611-0.346-0.863-0.58s-0.455-0.523-0.607-0.863
			c-0.153-0.342-0.229-0.754-0.229-1.236c0-0.449,0.089-0.875,0.267-1.281c0.178-0.404,0.439-0.758,0.783-1.061
			c0.346-0.301,0.775-0.543,1.291-0.725s1.11-0.271,1.785-0.271c0.754,0,1.439,0.123,2.059,0.373
			c0.618,0.248,1.133,0.576,1.546,0.98L426.246,564.564z"/>
		<path fill="#FFFFFF" d="M429.07,573.371v-10.939h1.611c0.341,0,0.564,0.16,0.671,0.48l0.171,0.811
			c0.191-0.213,0.393-0.41,0.603-0.588c0.21-0.176,0.433-0.33,0.671-0.457c0.238-0.129,0.494-0.23,0.769-0.305
			c0.273-0.074,0.573-0.111,0.901-0.111c0.689,0,1.256,0.186,1.7,0.559s0.776,0.869,0.997,1.488c0.17-0.363,0.383-0.674,0.64-0.934
			c0.256-0.26,0.536-0.471,0.843-0.635c0.305-0.162,0.63-0.283,0.975-0.361c0.346-0.078,0.691-0.117,1.04-0.117
			c0.604,0,1.141,0.092,1.61,0.277c0.469,0.184,0.863,0.455,1.184,0.811c0.319,0.355,0.562,0.789,0.73,1.301
			c0.166,0.512,0.25,1.098,0.25,1.758v6.963h-2.634v-6.963c0-0.695-0.153-1.221-0.458-1.572c-0.307-0.352-0.754-0.527-1.344-0.527
			c-0.271,0-0.521,0.047-0.752,0.139s-0.434,0.225-0.607,0.4c-0.174,0.174-0.311,0.393-0.41,0.654c-0.1,0.264-0.15,0.566-0.15,0.906
			v6.963h-2.644v-6.963c0-0.73-0.147-1.264-0.442-1.598c-0.295-0.336-0.73-0.502-1.307-0.502c-0.377,0-0.73,0.094-1.061,0.283
			c-0.33,0.188-0.639,0.445-0.922,0.771v8.008H429.07z"/>
		<path fill="#FFFFFF" d="M453.52,564.564c-0.071,0.113-0.146,0.193-0.225,0.24s-0.178,0.068-0.298,0.068
			c-0.128,0-0.265-0.035-0.411-0.105c-0.145-0.072-0.314-0.152-0.506-0.24c-0.191-0.09-0.41-0.17-0.656-0.24
			c-0.244-0.07-0.535-0.107-0.869-0.107c-0.519,0-0.927,0.111-1.226,0.332c-0.298,0.221-0.448,0.508-0.448,0.863
			c0,0.234,0.076,0.432,0.229,0.592s0.355,0.301,0.608,0.42c0.252,0.121,0.538,0.23,0.857,0.326c0.32,0.096,0.647,0.201,0.981,0.314
			s0.661,0.244,0.981,0.389c0.319,0.146,0.605,0.332,0.857,0.555c0.252,0.225,0.455,0.492,0.607,0.805
			c0.153,0.314,0.23,0.689,0.23,1.131c0,0.525-0.097,1.012-0.289,1.455c-0.191,0.445-0.473,0.828-0.842,1.152
			c-0.369,0.322-0.826,0.576-1.37,0.756c-0.544,0.182-1.167,0.273-1.871,0.273c-0.377,0-0.745-0.035-1.104-0.102
			c-0.358-0.068-0.704-0.162-1.034-0.283s-0.637-0.264-0.917-0.426c-0.28-0.164-0.528-0.342-0.741-0.533l0.607-1.002
			c0.078-0.121,0.171-0.215,0.277-0.277c0.107-0.064,0.242-0.096,0.405-0.096s0.318,0.045,0.464,0.137
			c0.146,0.094,0.314,0.193,0.506,0.299c0.193,0.107,0.418,0.207,0.678,0.299c0.26,0.094,0.588,0.139,0.986,0.139
			c0.312,0,0.581-0.037,0.805-0.111c0.225-0.074,0.409-0.172,0.555-0.293s0.252-0.262,0.32-0.422
			c0.066-0.16,0.102-0.324,0.102-0.496c0-0.256-0.077-0.465-0.23-0.629c-0.152-0.164-0.355-0.305-0.607-0.426
			s-0.54-0.23-0.863-0.326c-0.324-0.096-0.654-0.201-0.992-0.314s-0.668-0.246-0.991-0.4c-0.323-0.152-0.611-0.346-0.864-0.58
			c-0.252-0.234-0.454-0.523-0.607-0.863c-0.152-0.342-0.229-0.754-0.229-1.236c0-0.449,0.088-0.875,0.266-1.281
			c0.178-0.404,0.439-0.758,0.784-1.061c0.345-0.301,0.774-0.543,1.29-0.725s1.111-0.271,1.786-0.271
			c0.753,0,1.439,0.123,2.058,0.373c0.619,0.248,1.134,0.576,1.547,0.98L453.52,564.564z"/>
	</g>
	<path fill="#5E7E53" d="M447.146,523.529v6.709h-20.43v-23.637h7.576c-0.025-0.369-0.042-0.74-0.042-1.111
		c0-1.303,0.175-2.568,0.5-3.787h-7.74c-2.504,0-4.551,2.051-4.551,4.557v41.213c0,2.506,2.047,4.555,4.551,4.555h19.842
		c2.506,0,4.556-2.049,4.556-4.555v-25.531c-0.375-0.029-0.75-0.059-1.119-0.109C449.329,522.4,448.255,522.977,447.146,523.529z
		 M432.418,548.021c0,0.268-0.22,0.486-0.489,0.486h-4.958c-0.268,0-0.489-0.219-0.489-0.486v-1.518c0-0.27,0.222-0.488,0.489-0.488
		h4.958c0.27,0,0.489,0.219,0.489,0.488V548.021z M432.418,543.791c0,0.271-0.22,0.49-0.489,0.49h-4.958
		c-0.268,0-0.489-0.219-0.489-0.49v-1.518c0-0.268,0.222-0.488,0.489-0.488h4.958c0.27,0,0.489,0.221,0.489,0.488V543.791z
		 M432.418,539.562c0,0.271-0.22,0.488-0.489,0.488h-4.958c-0.268,0-0.489-0.217-0.489-0.488v-1.52c0-0.266,0.222-0.484,0.489-0.484
		h4.958c0.27,0,0.489,0.219,0.489,0.484V539.562z M432.418,535.332c0,0.271-0.22,0.492-0.489,0.492h-4.958
		c-0.268,0-0.489-0.221-0.489-0.492v-1.516c0-0.268,0.222-0.49,0.489-0.49h4.958c0.27,0,0.489,0.223,0.489,0.49V535.332z
		 M439.899,548.021c0,0.268-0.215,0.486-0.489,0.486h-4.96c-0.269,0-0.49-0.219-0.49-0.486v-1.518c0-0.27,0.222-0.488,0.49-0.488
		h4.96c0.274,0,0.489,0.219,0.489,0.488V548.021z M439.899,543.791c0,0.271-0.215,0.49-0.489,0.49h-4.96
		c-0.269,0-0.49-0.219-0.49-0.49v-1.518c0-0.268,0.222-0.488,0.49-0.488h4.96c0.274,0,0.489,0.221,0.489,0.488V543.791z
		 M439.899,539.562c0,0.271-0.215,0.488-0.489,0.488h-4.96c-0.269,0-0.49-0.217-0.49-0.488v-1.52c0-0.266,0.222-0.484,0.49-0.484
		h4.96c0.274,0,0.489,0.219,0.489,0.484V539.562z M439.899,535.332c0,0.271-0.215,0.492-0.489,0.492h-4.96
		c-0.269,0-0.49-0.221-0.49-0.492v-1.516c0-0.268,0.222-0.49,0.49-0.49h4.96c0.274,0,0.489,0.223,0.489,0.49V535.332z
		 M447.383,548.021c0,0.268-0.218,0.486-0.49,0.486h-4.957c-0.273,0-0.492-0.219-0.492-0.486v-1.518c0-0.27,0.219-0.488,0.492-0.488
		h4.957c0.272,0,0.49,0.219,0.49,0.488V548.021z M447.383,543.791c0,0.271-0.218,0.49-0.49,0.49h-4.957
		c-0.273,0-0.492-0.219-0.492-0.49v-1.518c0-0.268,0.219-0.488,0.492-0.488h4.957c0.272,0,0.49,0.221,0.49,0.488V543.791z
		 M447.383,539.562c0,0.271-0.218,0.488-0.49,0.488h-4.957c-0.273,0-0.492-0.217-0.492-0.488v-1.52c0-0.266,0.219-0.484,0.492-0.484
		h4.957c0.272,0,0.49,0.219,0.49,0.484V539.562z M447.383,535.332c0,0.271-0.218,0.492-0.49,0.492h-4.957
		c-0.273,0-0.492-0.221-0.492-0.492v-1.516c0-0.268,0.219-0.49,0.492-0.49h4.957c0.272,0,0.49,0.223,0.49,0.49V535.332z
		 M452.98,490.695c-9.381,0-17.014,6.635-17.014,14.795c0,4.73,2.57,8.949,6.556,11.658c0.09,3.727-2.395,5.5-4.574,8.055
		c1.866-0.197,7.958-2.672,11.975-5.16c0.992,0.16,2.016,0.24,3.058,0.24c9.384,0,17.019-6.637,17.019-14.793
		C469.999,497.33,462.364,490.695,452.98,490.695z M444.038,510.176c-0.97,0-1.928-0.25-2.405-0.516l0.389-1.586
		c0.518,0.264,1.312,0.529,2.131,0.529c0.879,0,1.345-0.365,1.345-0.92c0-0.527-0.401-0.832-1.421-1.195
		c-1.412-0.492-2.33-1.271-2.33-2.508c0-1.447,1.21-2.553,3.21-2.553c0.958,0,1.662,0.199,2.164,0.428l-0.425,1.547
		c-0.341-0.162-0.944-0.398-1.777-0.398c-0.827,0-1.231,0.375-1.231,0.816c0,0.541,0.478,0.781,1.572,1.193
		c1.5,0.553,2.204,1.334,2.204,2.531C447.463,508.969,446.367,510.176,444.038,510.176z M456.06,510.051l-0.124-3.25
		c-0.037-1.018-0.075-2.252-0.075-3.484h-0.039c-0.262,1.078-0.616,2.289-0.943,3.285l-1.032,3.312h-1.499l-0.906-3.287
		c-0.277-0.994-0.567-2.203-0.77-3.311h-0.024c-0.049,1.145-0.085,2.455-0.146,3.512l-0.155,3.223h-1.773l0.539-8.484h2.557
		l0.833,2.828c0.264,0.984,0.527,2.041,0.717,3.035h0.034c0.243-0.98,0.531-2.1,0.809-3.045l0.908-2.818h2.503l0.468,8.484H456.06z
		 M461.489,510.176c-0.97,0-1.925-0.25-2.404-0.516l0.391-1.586c0.516,0.264,1.31,0.529,2.128,0.529c0.88,0,1.345-0.365,1.345-0.92
		c0-0.527-0.399-0.832-1.422-1.195c-1.408-0.492-2.331-1.271-2.331-2.508c0-1.447,1.21-2.553,3.213-2.553
		c0.957,0,1.663,0.199,2.165,0.428l-0.429,1.547c-0.341-0.162-0.942-0.398-1.773-0.398c-0.83,0-1.234,0.375-1.234,0.816
		c0,0.541,0.479,0.777,1.573,1.193c1.5,0.553,2.205,1.334,2.205,2.531C464.915,508.969,463.82,510.176,461.489,510.176z"/>
</g>
<g>
	<g>
		<path fill="#FFFFFF" d="M564.194,391.979c0,1.129-0.188,2.176-0.564,3.139c-0.377,0.965-0.906,1.797-1.59,2.502
			c-0.682,0.703-1.502,1.252-2.463,1.646c-0.959,0.395-2.021,0.592-3.188,0.592s-2.23-0.197-3.193-0.592s-1.787-0.943-2.475-1.646
			c-0.686-0.705-1.217-1.537-1.594-2.502c-0.377-0.963-0.564-2.01-0.564-3.139c0-1.131,0.188-2.178,0.564-3.141
			s0.908-1.797,1.594-2.5c0.688-0.703,1.512-1.254,2.475-1.648s2.027-0.592,3.193-0.592s2.229,0.199,3.188,0.598
			c0.961,0.398,1.781,0.947,2.463,1.648c0.684,0.699,1.213,1.531,1.59,2.494S564.194,390.848,564.194,391.979z M561.251,391.979
			c0-0.846-0.111-1.605-0.336-2.277c-0.223-0.672-0.545-1.242-0.965-1.711c-0.418-0.469-0.93-0.828-1.529-1.076
			c-0.602-0.25-1.277-0.373-2.031-0.373s-1.432,0.123-2.037,0.373c-0.604,0.248-1.117,0.607-1.541,1.076
			c-0.422,0.469-0.748,1.039-0.975,1.711c-0.229,0.672-0.342,1.432-0.342,2.277s0.113,1.604,0.342,2.275
			c0.227,0.672,0.553,1.24,0.975,1.707c0.424,0.465,0.938,0.822,1.541,1.07c0.605,0.25,1.283,0.373,2.037,0.373
			s1.43-0.123,2.031-0.373c0.6-0.248,1.111-0.605,1.529-1.07c0.42-0.467,0.742-1.035,0.965-1.707
			C561.14,393.582,561.251,392.824,561.251,391.979z"/>
		<path fill="#FFFFFF" d="M569.899,399.857c-0.945,0-1.676-0.268-2.188-0.805s-0.768-1.277-0.768-2.223v-6.109h-1.107
			c-0.143,0-0.266-0.047-0.369-0.139c-0.102-0.094-0.154-0.232-0.154-0.416v-1.045l1.76-0.289l0.555-2.984
			c0.027-0.143,0.094-0.252,0.197-0.332c0.102-0.078,0.232-0.117,0.389-0.117h1.365v3.445h2.879v1.877h-2.879v5.928
			c0,0.342,0.084,0.607,0.256,0.799c0.17,0.193,0.398,0.289,0.682,0.289c0.164,0,0.301-0.02,0.41-0.059
			c0.111-0.039,0.207-0.08,0.289-0.123s0.154-0.084,0.219-0.123c0.062-0.039,0.127-0.059,0.191-0.059
			c0.078,0,0.143,0.02,0.191,0.059c0.051,0.039,0.104,0.098,0.16,0.176l0.789,1.279c-0.383,0.32-0.824,0.562-1.322,0.727
			C570.946,399.775,570.433,399.857,569.899,399.857z"/>
		<path fill="#FFFFFF" d="M574.558,399.688v-15.846h2.635v6.09c0.426-0.406,0.895-0.732,1.406-0.982
			c0.512-0.248,1.113-0.373,1.803-0.373c0.598,0,1.127,0.102,1.588,0.305c0.463,0.203,0.848,0.486,1.158,0.854
			c0.309,0.365,0.543,0.803,0.703,1.311s0.24,1.068,0.24,1.68v6.963h-2.635v-6.963c0-0.668-0.154-1.186-0.463-1.551
			c-0.309-0.367-0.773-0.551-1.391-0.551c-0.455,0-0.883,0.104-1.281,0.311c-0.396,0.205-0.773,0.486-1.129,0.842v7.912H574.558z"/>
		<path fill="#FFFFFF" d="M591.202,388.576c0.689,0,1.324,0.111,1.902,0.332c0.58,0.219,1.08,0.541,1.498,0.965
			c0.42,0.422,0.748,0.941,0.982,1.557c0.234,0.613,0.352,1.316,0.352,2.105c0,0.199-0.01,0.363-0.027,0.496
			c-0.018,0.131-0.049,0.234-0.096,0.309s-0.107,0.127-0.186,0.16c-0.08,0.031-0.178,0.047-0.299,0.047h-6.76
			c0.078,1.125,0.379,1.949,0.906,2.475c0.525,0.525,1.223,0.789,2.09,0.789c0.426,0,0.793-0.049,1.104-0.148
			c0.309-0.1,0.578-0.211,0.811-0.332c0.23-0.121,0.432-0.23,0.607-0.33c0.174-0.1,0.342-0.148,0.506-0.148
			c0.107,0,0.199,0.021,0.277,0.062c0.078,0.043,0.146,0.104,0.203,0.182l0.768,0.959c-0.293,0.342-0.619,0.629-0.98,0.859
			c-0.363,0.23-0.742,0.416-1.137,0.555s-0.797,0.236-1.205,0.293s-0.805,0.086-1.188,0.086c-0.762,0-1.469-0.127-2.123-0.379
			s-1.223-0.625-1.705-1.119c-0.484-0.494-0.863-1.105-1.141-1.834s-0.416-1.574-0.416-2.533c0-0.746,0.121-1.447,0.361-2.105
			c0.242-0.658,0.588-1.23,1.041-1.717c0.451-0.486,1.002-0.873,1.652-1.156C589.651,388.719,590.384,388.576,591.202,388.576z
			 M591.255,390.465c-0.768,0-1.367,0.217-1.801,0.65s-0.711,1.047-0.832,1.844h4.947c0-0.342-0.047-0.662-0.139-0.965
			s-0.234-0.566-0.426-0.795c-0.193-0.227-0.434-0.406-0.727-0.537C591.987,390.529,591.646,390.465,591.255,390.465z"/>
		<path fill="#FFFFFF" d="M598.079,399.688v-10.939h1.545c0.271,0,0.459,0.049,0.566,0.148c0.105,0.1,0.178,0.27,0.213,0.512
			l0.16,1.322c0.391-0.676,0.85-1.209,1.375-1.6s1.115-0.586,1.77-0.586c0.541,0,0.988,0.125,1.344,0.373l-0.342,1.973
			c-0.02,0.127-0.066,0.219-0.139,0.271c-0.07,0.053-0.166,0.08-0.287,0.08c-0.107,0-0.252-0.025-0.438-0.074
			c-0.184-0.051-0.43-0.074-0.734-0.074c-0.549,0-1.018,0.15-1.408,0.453c-0.391,0.301-0.721,0.744-0.992,1.326v6.814H598.079z"/>
	</g>
	<g>
		<g>
			<g>
				<g>
					<circle fill="#C8B330" cx="578.729" cy="355.497" r="23.769"/>
				</g>
			</g>
		</g>
		<g>
			<g>
				<path fill="#FFFFFF" d="M588.005,356.265c0,5.121-4.154,9.274-9.277,9.274c-5.125,0-9.281-4.153-9.281-9.274
					c0-5.125,4.156-9.276,9.281-9.276C583.851,346.988,588.005,351.14,588.005,356.265z"/>
			</g>
		</g>
	</g>
</g>
<g>
	<g>
		<path fill="#FFFFFF" d="M448.994,111.526c0.156,0,0.291,0.061,0.404,0.182l1.131,1.227c-0.627,0.775-1.396,1.367-2.309,1.779
			c-0.914,0.414-2.01,0.619-3.289,0.619c-1.145,0-2.174-0.195-3.088-0.586c-0.912-0.391-1.693-0.936-2.34-1.631
			c-0.646-0.697-1.143-1.529-1.488-2.496c-0.344-0.967-0.516-2.021-0.516-3.166c0-1.158,0.191-2.221,0.576-3.184
			c0.383-0.963,0.924-1.793,1.619-2.49c0.697-0.695,1.531-1.238,2.5-1.625c0.971-0.387,2.043-0.582,3.215-0.582
			c1.145,0,2.146,0.184,3.002,0.551c0.857,0.365,1.59,0.85,2.201,1.455l-0.959,1.332c-0.057,0.086-0.129,0.16-0.219,0.225
			c-0.088,0.064-0.211,0.096-0.367,0.096c-0.164,0-0.33-0.064-0.502-0.191c-0.17-0.129-0.387-0.268-0.65-0.416
			c-0.262-0.15-0.596-0.289-0.996-0.416c-0.402-0.129-0.912-0.191-1.531-0.191c-0.725,0-1.391,0.125-1.998,0.377
			c-0.607,0.254-1.131,0.613-1.568,1.082c-0.436,0.471-0.777,1.041-1.023,1.713c-0.244,0.672-0.367,1.426-0.367,2.266
			c0,0.867,0.123,1.639,0.367,2.312c0.246,0.676,0.578,1.244,0.998,1.707c0.418,0.461,0.912,0.814,1.482,1.061
			c0.568,0.246,1.18,0.367,1.834,0.367c0.391,0,0.744-0.021,1.061-0.062c0.316-0.043,0.607-0.111,0.873-0.203
			c0.268-0.092,0.52-0.211,0.758-0.357s0.475-0.324,0.709-0.539c0.07-0.062,0.146-0.115,0.225-0.154S448.9,111.526,448.994,111.526z
			"/>
		<path fill="#FFFFFF" d="M461.115,115.163h-1.182c-0.25,0-0.445-0.037-0.588-0.113c-0.143-0.074-0.248-0.225-0.318-0.453
			l-0.236-0.777c-0.277,0.248-0.549,0.467-0.814,0.656c-0.268,0.188-0.543,0.346-0.826,0.475c-0.285,0.127-0.588,0.223-0.906,0.287
			c-0.32,0.064-0.676,0.096-1.066,0.096c-0.463,0-0.889-0.062-1.279-0.188c-0.393-0.125-0.727-0.311-1.008-0.561
			s-0.5-0.561-0.656-0.932S452,112.851,452,112.358c0-0.412,0.107-0.82,0.324-1.225c0.217-0.402,0.578-0.766,1.084-1.09
			c0.504-0.326,1.176-0.594,2.014-0.809c0.84-0.213,1.881-0.32,3.125-0.32v-0.645c0-0.738-0.154-1.285-0.465-1.639
			c-0.309-0.355-0.758-0.533-1.348-0.533c-0.428,0-0.783,0.051-1.066,0.15c-0.285,0.1-0.531,0.211-0.742,0.336
			c-0.209,0.125-0.402,0.236-0.58,0.336s-0.373,0.148-0.586,0.148c-0.178,0-0.332-0.045-0.459-0.139
			c-0.129-0.092-0.23-0.205-0.309-0.34l-0.48-0.844c1.258-1.15,2.775-1.727,4.553-1.727c0.641,0,1.211,0.105,1.711,0.314
			c0.502,0.209,0.926,0.502,1.275,0.875c0.348,0.373,0.611,0.818,0.793,1.338c0.182,0.518,0.271,1.088,0.271,1.705V115.163z
			 M455.998,113.521c0.27,0,0.52-0.025,0.746-0.074c0.229-0.049,0.443-0.121,0.646-0.219c0.201-0.1,0.396-0.219,0.586-0.363
			c0.188-0.143,0.379-0.312,0.57-0.508v-1.832c-0.768,0-1.41,0.049-1.926,0.145c-0.514,0.098-0.928,0.221-1.242,0.371
			c-0.312,0.15-0.533,0.326-0.666,0.525c-0.131,0.201-0.197,0.42-0.197,0.656c0,0.465,0.137,0.797,0.41,0.998
			C455.201,113.421,455.557,113.521,455.998,113.521z"/>
		<path fill="#FFFFFF" d="M466.512,99.317v15.846h-2.635V99.317H466.512z"/>
		<path fill="#FFFFFF" d="M472.291,99.317v15.846h-2.635V99.317H472.291z"/>
		<path fill="#FFFFFF" d="M490.129,111.526c0.156,0,0.291,0.061,0.404,0.182l1.131,1.227c-0.627,0.775-1.396,1.367-2.309,1.779
			c-0.914,0.414-2.01,0.619-3.289,0.619c-1.145,0-2.174-0.195-3.088-0.586c-0.912-0.391-1.693-0.936-2.34-1.631
			c-0.646-0.697-1.143-1.529-1.488-2.496c-0.344-0.967-0.516-2.021-0.516-3.166c0-1.158,0.191-2.221,0.576-3.184
			c0.383-0.963,0.924-1.793,1.619-2.49c0.697-0.695,1.531-1.238,2.5-1.625c0.971-0.387,2.043-0.582,3.215-0.582
			c1.145,0,2.146,0.184,3.002,0.551c0.857,0.365,1.59,0.85,2.201,1.455l-0.959,1.332c-0.057,0.086-0.129,0.16-0.219,0.225
			c-0.088,0.064-0.211,0.096-0.367,0.096c-0.164,0-0.33-0.064-0.502-0.191c-0.17-0.129-0.387-0.268-0.65-0.416
			c-0.262-0.15-0.596-0.289-0.996-0.416c-0.402-0.129-0.912-0.191-1.531-0.191c-0.725,0-1.391,0.125-1.998,0.377
			c-0.607,0.254-1.131,0.613-1.568,1.082c-0.436,0.471-0.777,1.041-1.023,1.713c-0.244,0.672-0.367,1.426-0.367,2.266
			c0,0.867,0.123,1.639,0.367,2.312c0.246,0.676,0.578,1.244,0.998,1.707c0.418,0.461,0.912,0.814,1.482,1.061
			c0.568,0.246,1.18,0.367,1.834,0.367c0.391,0,0.744-0.021,1.061-0.062c0.316-0.043,0.607-0.111,0.873-0.203
			c0.268-0.092,0.52-0.211,0.758-0.357s0.475-0.324,0.709-0.539c0.07-0.062,0.146-0.115,0.225-0.154
			S490.035,111.526,490.129,111.526z"/>
		<path fill="#FFFFFF" d="M498.199,104.052c0.689,0,1.324,0.111,1.902,0.332c0.58,0.219,1.08,0.541,1.498,0.965
			c0.42,0.422,0.748,0.941,0.982,1.557c0.234,0.613,0.352,1.316,0.352,2.105c0,0.199-0.01,0.363-0.027,0.496
			c-0.018,0.131-0.049,0.234-0.096,0.309s-0.107,0.127-0.186,0.16c-0.08,0.031-0.178,0.047-0.299,0.047h-6.76
			c0.078,1.125,0.379,1.949,0.906,2.475c0.525,0.525,1.223,0.789,2.09,0.789c0.426,0,0.793-0.049,1.104-0.148
			c0.309-0.1,0.578-0.211,0.811-0.332c0.23-0.121,0.432-0.23,0.607-0.33c0.174-0.1,0.342-0.148,0.506-0.148
			c0.107,0,0.199,0.021,0.277,0.062c0.078,0.043,0.146,0.104,0.203,0.182l0.768,0.959c-0.293,0.342-0.619,0.629-0.98,0.859
			c-0.363,0.23-0.742,0.416-1.137,0.555s-0.797,0.236-1.205,0.293s-0.805,0.086-1.188,0.086c-0.762,0-1.469-0.127-2.123-0.379
			s-1.223-0.625-1.705-1.119c-0.484-0.494-0.863-1.105-1.141-1.834s-0.416-1.574-0.416-2.533c0-0.746,0.121-1.447,0.361-2.105
			c0.242-0.658,0.588-1.23,1.041-1.717c0.451-0.486,1.002-0.873,1.652-1.156C496.648,104.194,497.381,104.052,498.199,104.052z
			 M498.252,105.94c-0.768,0-1.367,0.217-1.801,0.65s-0.711,1.047-0.832,1.844h4.947c0-0.342-0.047-0.662-0.139-0.965
			s-0.234-0.566-0.426-0.795c-0.193-0.227-0.434-0.406-0.727-0.537C498.984,106.005,498.643,105.94,498.252,105.94z"/>
		<path fill="#FFFFFF" d="M505.076,115.163v-10.939h1.609c0.342,0,0.566,0.16,0.672,0.479l0.182,0.863
			c0.221-0.227,0.453-0.432,0.697-0.617c0.246-0.186,0.506-0.346,0.779-0.48s0.566-0.238,0.879-0.309s0.654-0.107,1.023-0.107
			c0.598,0,1.127,0.102,1.59,0.305c0.461,0.203,0.848,0.486,1.156,0.854c0.309,0.365,0.545,0.803,0.703,1.311
			c0.16,0.508,0.24,1.068,0.24,1.68v6.963h-2.633V108.2c0-0.668-0.154-1.186-0.465-1.551c-0.309-0.367-0.771-0.551-1.391-0.551
			c-0.455,0-0.881,0.104-1.279,0.311c-0.398,0.205-0.775,0.486-1.131,0.842v7.912H505.076z"/>
		<path fill="#FFFFFF" d="M520.793,115.333c-0.945,0-1.676-0.268-2.188-0.805s-0.768-1.277-0.768-2.223v-6.109h-1.107
			c-0.143,0-0.266-0.047-0.369-0.139c-0.102-0.094-0.154-0.232-0.154-0.416v-1.045l1.76-0.289l0.555-2.984
			c0.027-0.143,0.094-0.252,0.197-0.332c0.102-0.078,0.232-0.117,0.389-0.117h1.365v3.445h2.879v1.877h-2.879v5.928
			c0,0.342,0.084,0.607,0.256,0.799c0.17,0.193,0.398,0.289,0.682,0.289c0.164,0,0.301-0.02,0.41-0.059
			c0.111-0.039,0.207-0.08,0.289-0.123s0.154-0.084,0.219-0.123c0.062-0.039,0.127-0.059,0.191-0.059
			c0.078,0,0.143,0.02,0.191,0.059c0.051,0.039,0.104,0.098,0.16,0.176l0.789,1.279c-0.383,0.32-0.824,0.562-1.322,0.727
			C521.84,115.251,521.326,115.333,520.793,115.333z"/>
		<path fill="#FFFFFF" d="M525.451,115.163v-10.939h1.547c0.27,0,0.459,0.049,0.564,0.148c0.107,0.1,0.178,0.27,0.213,0.512
			l0.16,1.322c0.391-0.676,0.85-1.209,1.377-1.6c0.525-0.391,1.115-0.586,1.77-0.586c0.539,0,0.988,0.125,1.344,0.373l-0.342,1.973
			c-0.021,0.127-0.068,0.219-0.139,0.271s-0.168,0.08-0.287,0.08c-0.107,0-0.254-0.025-0.438-0.074
			c-0.186-0.051-0.43-0.074-0.736-0.074c-0.547,0-1.016,0.15-1.408,0.453c-0.391,0.301-0.721,0.744-0.99,1.326v6.814H525.451z"/>
		<path fill="#FFFFFF" d="M538.684,104.052c0.689,0,1.324,0.111,1.902,0.332c0.58,0.219,1.08,0.541,1.498,0.965
			c0.42,0.422,0.748,0.941,0.982,1.557c0.234,0.613,0.352,1.316,0.352,2.105c0,0.199-0.01,0.363-0.027,0.496
			c-0.018,0.131-0.049,0.234-0.096,0.309s-0.107,0.127-0.186,0.16c-0.08,0.031-0.178,0.047-0.299,0.047h-6.76
			c0.078,1.125,0.379,1.949,0.906,2.475c0.525,0.525,1.223,0.789,2.09,0.789c0.426,0,0.793-0.049,1.104-0.148
			c0.309-0.1,0.578-0.211,0.811-0.332c0.23-0.121,0.432-0.23,0.607-0.33c0.174-0.1,0.342-0.148,0.506-0.148
			c0.107,0,0.199,0.021,0.277,0.062c0.078,0.043,0.146,0.104,0.203,0.182l0.768,0.959c-0.293,0.342-0.619,0.629-0.98,0.859
			c-0.363,0.23-0.742,0.416-1.137,0.555s-0.797,0.236-1.205,0.293s-0.805,0.086-1.188,0.086c-0.762,0-1.469-0.127-2.123-0.379
			s-1.223-0.625-1.705-1.119c-0.484-0.494-0.863-1.105-1.141-1.834s-0.416-1.574-0.416-2.533c0-0.746,0.121-1.447,0.361-2.105
			c0.242-0.658,0.588-1.23,1.041-1.717c0.451-0.486,1.002-0.873,1.652-1.156C537.133,104.194,537.865,104.052,538.684,104.052z
			 M538.736,105.94c-0.768,0-1.367,0.217-1.801,0.65s-0.711,1.047-0.832,1.844h4.947c0-0.342-0.047-0.662-0.139-0.965
			s-0.234-0.566-0.426-0.795c-0.193-0.227-0.434-0.406-0.727-0.537C539.469,106.005,539.127,105.94,538.736,105.94z"/>
	</g>
	<g>
		<g>
			<g>
				<path fill="#48C7F4" d="M496.15,54.229l-17.372-0.08c-6.428,0.174-8.793,5.351-8.793,7.152v25.593
					c0,1.587,1.285,2.863,2.853,2.863c1.59,0,2.876-1.276,2.876-2.863V65.915h2.434v20.106c0,0.277,0.035,0.55,0.069,0.8v0.546
					c0.174-0.031,15.552,0.049,17.934-0.074V65.915h2.162v20.979c0,1.587,1.374,2.863,3.065,2.863c1.701,0,3.076-1.276,3.076-2.863
					V60.968C504.454,58.779,501.583,54.229,496.15,54.229z"/>
				<path fill="#48C7F4" d="M486.962,52.898c3.805,0,6.885-3.074,6.885-6.886c0-3.802-3.08-6.882-6.885-6.882
					c-3.801,0-6.88,3.08-6.88,6.882C480.082,49.824,483.161,52.898,486.962,52.898z"/>
			</g>
			<g>
				<path fill="#48C7F4" d="M510.058,59.281v-1.934c0-1.277-1.674-3.936-4.846-3.936l-10.146-0.047
					c-3.753,0.1-5.134,3.125-5.134,4.177v1.376C496.642,58.938,503.351,59.092,510.058,59.281z"/>
				<path fill="#48C7F4" d="M499.995,52.635c2.221,0,4.02-1.795,4.02-4.021c0-2.221-1.799-4.021-4.02-4.021
					c-2.219,0-4.019,1.8-4.019,4.021C495.977,50.84,497.776,52.635,499.995,52.635z"/>
			</g>
			<g>
				<path fill="#48C7F4" d="M484.276,59.855c0.244,0.004,0.465,0.031,0.691,0.055v-2.463c0-1.053-1.383-4.077-5.138-4.177
					l-10.142,0.044c-3.174,0-4.848,2.66-4.848,3.938v2.585C471.319,59.695,477.796,59.842,484.276,59.855z"/>
				<path fill="#48C7F4" d="M474.648,52.539c-2.221,0-4.022-1.795-4.022-4.02c0-2.221,1.802-4.021,4.022-4.021
					c2.218,0,4.015,1.8,4.015,4.021C478.663,50.744,476.866,52.539,474.648,52.539z"/>
			</g>
			<path fill="#48C7F4" d="M513.226,48.244c0.014-0.438,0.012-0.873-0.012-1.305c-0.156-2.979-1.226-5.812-3.077-8.148
				c-0.267-0.34-0.554-0.668-0.854-0.984c-0.504-0.529-1.268-0.624-1.754-0.293c-0.064,0.045-0.126,0.097-0.185,0.155
				c-0.045,0.048-0.093,0.097-0.14,0.146c-0.46,0.498-0.417,1.261,0.047,1.747c0.252,0.265,0.489,0.537,0.713,0.822
				c0.38,0.475,1.04,0.652,1.612,0.424c0.971,1.516,1.61,3.209,1.883,4.985c-0.579,0.206-0.958,0.777-0.929,1.384
				c0.017,0.362,0.02,0.727,0.01,1.088c-0.025,0.671,0.439,1.275,1.117,1.345c0.068,0.003,0.138,0.011,0.203,0.016
				c0.083,0.007,0.16,0.003,0.243-0.007C512.685,49.547,513.196,48.967,513.226,48.244z"/>
			<path fill="#48C7F4" d="M462.288,49.188c-0.018-0.438-0.014-0.871,0.008-1.305c0.156-2.977,1.229-5.811,3.078-8.148
				c0.27-0.34,0.555-0.668,0.854-0.984c0.502-0.529,1.267-0.624,1.751-0.293c0.064,0.047,0.129,0.096,0.188,0.154
				c0.047,0.051,0.091,0.098,0.139,0.146c0.464,0.499,0.416,1.261-0.048,1.748c-0.249,0.265-0.487,0.539-0.712,0.822
				c-0.376,0.475-1.039,0.654-1.613,0.423c-0.968,1.517-1.609,3.208-1.883,4.987c0.579,0.205,0.96,0.777,0.931,1.385
				c-0.019,0.361-0.022,0.723-0.009,1.088c0.022,0.67-0.441,1.273-1.12,1.341c-0.069,0.007-0.135,0.013-0.202,0.019
				c-0.082,0.008-0.162,0.004-0.241-0.008C462.825,50.49,462.313,49.914,462.288,49.188z"/>
		</g>
	</g>
</g>
<g>
	<g>
		<path opacity="0.7" fill="#ED1C24" d="M97.275,235.51H90.42v-44.127c0-1.339-1.088-2.427-2.427-2.427H22.112
			c-1.338,0-2.429,1.088-2.429,2.427v44.127h-6.849c-1.768,0-3.202,1.437-3.202,3.201v2.967c0,1.76,1.435,3.197,3.202,3.197h84.44
			c1.764,0,3.2-1.438,3.2-3.197v-2.967C100.475,236.947,99.039,235.51,97.275,235.51z M68.858,238.141
			c0,0.669-0.547,1.214-1.223,1.214H42.467c-0.673,0-1.217-0.545-1.217-1.214v-1.128c0-0.104,0.015-0.199,0.037-0.296H68.82
			c0.021,0.097,0.038,0.192,0.038,0.296V238.141z M83.026,241.498c-0.564,0-1.024-0.456-1.024-1.022c0-0.563,0.46-1.021,1.024-1.021
			c0.561,0,1.017,0.458,1.017,1.021C84.042,241.042,83.586,241.498,83.026,241.498z M84.179,233.718h-58.25v-38.973
			c0-0.04,0.051-0.1,0.129-0.1h57.991c0.073,0,0.13,0.06,0.13,0.1V233.718z M87.73,241.498c-0.56,0-1.018-0.456-1.018-1.022
			c0-0.563,0.458-1.021,1.018-1.021c0.562,0,1.023,0.458,1.023,1.021C88.753,241.042,88.292,241.498,87.73,241.498z M92.439,241.498
			c-0.562,0-1.022-0.456-1.022-1.022c0-0.563,0.46-1.021,1.022-1.021s1.017,0.458,1.017,1.021
			C93.456,241.042,93.001,241.498,92.439,241.498z"/>
		
			<rect x="28.944" y="196.151" opacity="0.7" fill-rule="evenodd" clip-rule="evenodd" fill="#ED1C24" width="52.061" height="5.062"/>
	</g>
	
		<rect x="29.403" y="204.219" opacity="0.7" fill-rule="evenodd" clip-rule="evenodd" fill="#ED1C24" width="16.311" height="25.801"/>
	
		<rect x="72.651" y="204.848" opacity="0.7" fill-rule="evenodd" clip-rule="evenodd" fill="#ED1C24" width="6.824" height="8.782"/>
	
		<rect x="72.651" y="214.805" opacity="0.7" fill-rule="evenodd" clip-rule="evenodd" fill="#ED1C24" width="6.901" height="8.314"/>
	<line opacity="0.7" fill="#ED1C24" stroke="#ED1C24" stroke-miterlimit="10" x1="48.262" y1="206.101" x2="71.71" y2="206.101"/>
	<line opacity="0.7" fill="#ED1C24" stroke="#ED1C24" stroke-miterlimit="10" x1="48.262" y1="208.847" x2="71.71" y2="208.847"/>
	<line opacity="0.7" fill="#ED1C24" stroke="#ED1C24" stroke-miterlimit="10" x1="48.262" y1="211.906" x2="71.71" y2="211.906"/>
	<line opacity="0.7" fill="#ED1C24" stroke="#ED1C24" stroke-miterlimit="10" x1="48.262" y1="214.57" x2="71.71" y2="214.57"/>
	<line opacity="0.7" fill="#ED1C24" stroke="#ED1C24" stroke-miterlimit="10" x1="48.262" y1="219.276" x2="71.71" y2="219.276"/>
	<line opacity="0.7" fill="#ED1C24" stroke="#ED1C24" stroke-miterlimit="10" x1="48.262" y1="222.022" x2="71.71" y2="222.022"/>
	<line opacity="0.7" fill="#ED1C24" stroke="#ED1C24" stroke-miterlimit="10" x1="48.262" y1="225.08" x2="79.472" y2="225.08"/>
	<line opacity="0.7" fill="#ED1C24" stroke="#ED1C24" stroke-miterlimit="10" x1="48.262" y1="227.745" x2="79.472" y2="227.745"/>
</g>
<g>
	<g>
		<path fill="#FFFFFF" d="M551.454,185.807v2.282h-6.834v4.276h5.385v2.207h-5.385v4.361h6.834v2.292h-9.725v-15.418H551.454z"/>
		<path fill="#FFFFFF" d="M553.448,193.686h5.521v2.197h-5.521V193.686z"/>
		<path fill="#FFFFFF" d="M561.444,201.225v-10.939h1.609c0.342,0,0.566,0.16,0.672,0.479l0.17,0.811
			c0.193-0.213,0.395-0.409,0.604-0.586s0.434-0.331,0.672-0.458s0.494-0.229,0.768-0.304c0.273-0.074,0.574-0.112,0.9-0.112
			c0.689,0,1.256,0.187,1.701,0.56c0.443,0.373,0.775,0.869,0.996,1.487c0.172-0.363,0.385-0.673,0.641-0.933
			c0.256-0.259,0.537-0.471,0.842-0.634c0.307-0.164,0.631-0.284,0.977-0.363c0.344-0.078,0.691-0.117,1.039-0.117
			c0.604,0,1.141,0.092,1.609,0.277s0.863,0.455,1.184,0.81c0.32,0.356,0.564,0.789,0.73,1.301c0.168,0.512,0.25,1.098,0.25,1.759
			v6.962h-2.633v-6.962c0-0.697-0.152-1.221-0.459-1.573c-0.305-0.352-0.752-0.528-1.344-0.528c-0.27,0-0.52,0.046-0.75,0.139
			c-0.232,0.092-0.434,0.226-0.609,0.4c-0.174,0.174-0.311,0.393-0.41,0.655c-0.1,0.263-0.148,0.565-0.148,0.907v6.962h-2.645
			v-6.962c0-0.732-0.148-1.265-0.443-1.6c-0.295-0.334-0.73-0.501-1.305-0.501c-0.377,0-0.73,0.094-1.062,0.282
			c-0.33,0.188-0.637,0.446-0.922,0.773v8.007H561.444z"/>
		<path fill="#FFFFFF" d="M587.972,201.225h-1.182c-0.25,0-0.445-0.037-0.588-0.112s-0.248-0.226-0.318-0.453l-0.236-0.778
			c-0.277,0.249-0.549,0.467-0.814,0.656c-0.268,0.188-0.543,0.346-0.826,0.474c-0.285,0.128-0.588,0.224-0.906,0.288
			c-0.32,0.064-0.676,0.096-1.066,0.096c-0.463,0-0.889-0.062-1.279-0.187c-0.393-0.125-0.727-0.312-1.008-0.562
			s-0.5-0.56-0.656-0.931c-0.156-0.371-0.234-0.802-0.234-1.294c0-0.414,0.107-0.822,0.324-1.225s0.578-0.767,1.084-1.091
			c0.504-0.324,1.176-0.594,2.014-0.808c0.84-0.214,1.881-0.321,3.125-0.321v-0.645c0-0.738-0.154-1.284-0.465-1.639
			c-0.309-0.354-0.758-0.532-1.348-0.532c-0.428,0-0.783,0.05-1.066,0.149c-0.285,0.1-0.531,0.212-0.742,0.336
			c-0.209,0.125-0.402,0.237-0.58,0.336c-0.178,0.1-0.373,0.149-0.586,0.149c-0.178,0-0.332-0.046-0.459-0.139
			c-0.129-0.092-0.23-0.206-0.309-0.341l-0.48-0.842c1.258-1.151,2.775-1.727,4.553-1.727c0.641,0,1.211,0.105,1.711,0.314
			c0.502,0.209,0.926,0.501,1.275,0.874c0.348,0.374,0.611,0.819,0.793,1.338s0.271,1.087,0.271,1.706V201.225z M582.854,199.583
			c0.27,0,0.52-0.024,0.746-0.073c0.229-0.049,0.443-0.123,0.646-0.221c0.201-0.098,0.396-0.218,0.586-0.362
			c0.188-0.144,0.379-0.313,0.57-0.509v-1.831c-0.768,0-1.41,0.048-1.926,0.145c-0.514,0.097-0.928,0.22-1.242,0.371
			c-0.312,0.15-0.533,0.326-0.666,0.526c-0.131,0.2-0.197,0.418-0.197,0.655c0,0.465,0.137,0.798,0.41,0.999
			C582.058,199.482,582.413,199.583,582.854,199.583z"/>
		<path fill="#FFFFFF" d="M593.763,187.097c0,0.228-0.047,0.441-0.139,0.64c-0.094,0.199-0.215,0.373-0.369,0.522
			c-0.152,0.149-0.332,0.268-0.537,0.357c-0.207,0.089-0.428,0.133-0.662,0.133c-0.227,0-0.441-0.044-0.645-0.133
			s-0.379-0.208-0.527-0.357c-0.15-0.149-0.27-0.324-0.357-0.522c-0.09-0.199-0.133-0.413-0.133-0.64
			c0-0.234,0.043-0.455,0.133-0.661c0.088-0.206,0.207-0.384,0.357-0.533c0.148-0.149,0.324-0.269,0.527-0.357
			s0.418-0.133,0.645-0.133c0.234,0,0.455,0.044,0.662,0.133c0.205,0.089,0.385,0.208,0.537,0.357
			c0.154,0.149,0.275,0.327,0.369,0.533C593.716,186.642,593.763,186.862,593.763,187.097z M593.368,190.285v10.939h-2.635v-10.939
			H593.368z"/>
		<path fill="#FFFFFF" d="M599.147,185.38v15.844h-2.635V185.38H599.147z"/>
	</g>
	<g>
		<g>
			<path fill="#0E5461" d="M606.231,246.602c0,19.769-16.02,35.795-35.791,35.795c-19.77,0-35.795-16.026-35.795-35.795
				s16.025-35.794,35.795-35.794C590.212,210.808,606.231,226.833,606.231,246.602z"/>
		</g>
	</g>
	<g>
		<g>
			<path fill-rule="evenodd" clip-rule="evenodd" fill="#FFFFFF" d="M545.901,250.917c-0.248-11.48,4.641-19.099,14.146-23.153
				c9.629-4.088,19.225-3.605,27.592,3.551c6.377,5.44,7.723,13.54,3.826,21.003c-3.887,7.45-9.295,9.954-18.018,7.771
				c-2.02-0.499-3.137,0.634-4.676,0.936c-6.357,1.248-10.564-1.639-11.572-8.142c-1.705-10.999,5.873-18.879,16.338-16.766
				c1.498,0.304,2.295-0.635,3.436-0.749c2.928-0.297,4.326,0.847,3.768,3.983c-0.773,4.315-1.443,8.632-2.064,12.957
				c-0.168,1.156-0.895,2.688,0.479,3.418c1.547,0.834,2.771-0.44,3.861-1.379c7.406-6.345,4.699-19.587-4.73-23.279
				c-7.6-2.979-16.377-0.777-21.652,5.406c-5.078,5.983-6.105,15.902-2.285,22.282c3.672,6.146,13.262,9.816,21.574,8.085
				c4.131-0.873,7.936-2.442,10.936-5.669c1.275-1.367,2.816-4.062,5.014-1.913c2.229,2.181,0.012,4.21-1.475,5.883
				c-4.02,4.479-9.527,5.808-15.121,6.709c-11.027,1.769-22.658-3.315-27.129-11.588
				C546.401,257.024,545.729,253.635,545.901,250.917z"/>
			<path fill-rule="evenodd" clip-rule="evenodd" fill="#0E5461" d="M573.569,244.376c-0.582,3.315-1.66,7.103-3.797,10.49
				c-0.773,1.228-1.832,2.501-3.557,1.895c-1.732-0.611-2.561-1.966-2.623-3.861c-0.125-4.395,1.627-8.104,4.113-11.55
				c0.889-1.227,2.174-2.119,3.77-1.659C573.46,240.261,573.597,242.016,573.569,244.376z"/>
		</g>
	</g>
</g>
<g>
	<path fill="#FFFFFF" d="M171.083,248.31h2.891v1.359c0,0.142-0.042,0.262-0.126,0.36c-0.084,0.098-0.216,0.146-0.393,0.146h-2.371
		v5.021h-2.091v-5.021h-8.458c-0.178,0-0.331-0.051-0.459-0.153c-0.129-0.102-0.211-0.229-0.247-0.38l-0.24-1.212l9.284-12.321
		h2.211V248.31z M168.992,240.438c0-0.23,0.007-0.479,0.02-0.746c0.014-0.267,0.042-0.542,0.087-0.826l-6.94,9.444h6.833V240.438z"
		/>
	<path fill="#FFFFFF" d="M181.818,247.365c-0.719,0-1.401-0.12-2.044-0.36c-0.644-0.24-1.21-0.593-1.698-1.059
		c-0.489-0.466-0.877-1.039-1.166-1.718c-0.289-0.679-0.433-1.458-0.433-2.337c0-0.834,0.155-1.616,0.466-2.344
		c0.311-0.728,0.746-1.363,1.305-1.905c0.56-0.542,1.226-0.968,1.998-1.279c0.773-0.311,1.621-0.466,2.544-0.466
		c0.915,0,1.745,0.151,2.491,0.453c0.746,0.302,1.385,0.724,1.918,1.265c0.533,0.542,0.943,1.19,1.232,1.945s0.433,1.59,0.433,2.504
		c0,0.551-0.051,1.072-0.153,1.565c-0.102,0.493-0.251,0.975-0.446,1.445s-0.428,0.939-0.699,1.405
		c-0.271,0.466-0.579,0.948-0.926,1.445l-4.648,6.713c-0.116,0.169-0.28,0.304-0.493,0.406c-0.213,0.103-0.458,0.153-0.733,0.153
		h-2.185l5.808-7.606c0.195-0.257,0.377-0.501,0.546-0.732c0.168-0.231,0.328-0.461,0.479-0.693
		c-0.489,0.391-1.039,0.688-1.652,0.893C183.15,247.263,182.502,247.365,181.818,247.365z M186.587,241.784
		c0-0.595-0.095-1.134-0.286-1.619c-0.191-0.484-0.455-0.895-0.792-1.232c-0.338-0.337-0.739-0.597-1.206-0.779
		s-0.979-0.273-1.539-0.273c-0.586,0-1.121,0.095-1.605,0.286s-0.897,0.455-1.239,0.792c-0.342,0.338-0.606,0.742-0.792,1.212
		s-0.28,0.985-0.28,1.545c0,0.604,0.086,1.144,0.26,1.619s0.422,0.877,0.746,1.205c0.324,0.329,0.719,0.578,1.185,0.746
		c0.466,0.169,0.988,0.253,1.565,0.253c0.639,0,1.206-0.104,1.698-0.313c0.493-0.208,0.908-0.486,1.245-0.833
		c0.337-0.346,0.595-0.746,0.773-1.199C186.498,242.743,186.587,242.272,186.587,241.784z"/>
	<path fill="#FFFFFF" d="M199.374,240.718c0,0.746-0.115,1.414-0.346,2.005c-0.231,0.59-0.54,1.088-0.926,1.492
		c-0.386,0.404-0.837,0.713-1.352,0.926s-1.052,0.32-1.611,0.32c-0.604,0-1.161-0.107-1.672-0.32s-0.957-0.521-1.338-0.926
		c-0.382-0.404-0.68-0.901-0.893-1.492c-0.213-0.591-0.32-1.259-0.32-2.005c0-0.764,0.106-1.443,0.32-2.038
		c0.213-0.595,0.51-1.096,0.893-1.505c0.381-0.408,0.828-0.719,1.338-0.933c0.511-0.213,1.068-0.319,1.672-0.319
		c0.595,0,1.152,0.106,1.671,0.319c0.52,0.213,0.968,0.524,1.345,0.933c0.377,0.409,0.675,0.91,0.893,1.505
		C199.265,239.275,199.374,239.954,199.374,240.718z M206.047,236.589c0.115-0.151,0.238-0.269,0.366-0.353
		c0.129-0.084,0.3-0.127,0.513-0.127h1.705l-13.946,18.702c-0.089,0.115-0.195,0.208-0.32,0.28
		c-0.124,0.071-0.271,0.106-0.439,0.106h-1.758L206.047,236.589z M197.522,240.718c0-0.586-0.062-1.083-0.187-1.492
		c-0.125-0.408-0.295-0.744-0.513-1.006c-0.217-0.262-0.471-0.451-0.759-0.566c-0.289-0.115-0.598-0.173-0.926-0.173
		c-0.329,0-0.638,0.058-0.926,0.173c-0.289,0.115-0.54,0.304-0.753,0.566c-0.213,0.262-0.379,0.598-0.5,1.006
		c-0.12,0.409-0.18,0.906-0.18,1.492c0,0.578,0.06,1.068,0.18,1.472c0.12,0.404,0.287,0.732,0.5,0.985
		c0.213,0.253,0.464,0.436,0.753,0.546c0.288,0.111,0.597,0.167,0.926,0.167c0.328,0,0.637-0.056,0.926-0.167
		c0.288-0.111,0.542-0.293,0.759-0.546c0.218-0.253,0.389-0.582,0.513-0.985C197.46,241.786,197.522,241.295,197.522,240.718z
		 M209.923,250.695c0,0.746-0.116,1.412-0.347,1.998c-0.231,0.586-0.54,1.082-0.926,1.485c-0.386,0.404-0.834,0.713-1.345,0.926
		c-0.511,0.213-1.045,0.32-1.605,0.32c-0.604,0-1.161-0.106-1.671-0.32c-0.511-0.213-0.957-0.521-1.339-0.926
		c-0.382-0.404-0.679-0.899-0.893-1.485c-0.213-0.586-0.319-1.252-0.319-1.998c0-0.764,0.106-1.445,0.319-2.045
		c0.213-0.599,0.511-1.103,0.893-1.512c0.382-0.408,0.828-0.719,1.339-0.933c0.51-0.213,1.067-0.319,1.671-0.319
		c0.595,0,1.15,0.106,1.665,0.319c0.515,0.213,0.963,0.524,1.345,0.933c0.382,0.409,0.679,0.913,0.893,1.512
		C209.816,249.25,209.923,249.931,209.923,250.695z M208.085,250.695c0-0.586-0.062-1.086-0.187-1.499
		c-0.125-0.413-0.295-0.748-0.513-1.006c-0.218-0.257-0.471-0.444-0.759-0.56c-0.289-0.115-0.597-0.173-0.926-0.173
		s-0.637,0.058-0.926,0.173c-0.289,0.116-0.54,0.302-0.752,0.56c-0.213,0.258-0.38,0.593-0.5,1.006
		c-0.12,0.413-0.18,0.912-0.18,1.499c0,0.577,0.06,1.065,0.18,1.465c0.12,0.4,0.286,0.726,0.5,0.979
		c0.213,0.253,0.464,0.436,0.752,0.546s0.597,0.167,0.926,0.167s0.637-0.056,0.926-0.167s0.542-0.293,0.759-0.546
		c0.217-0.253,0.388-0.579,0.513-0.979C208.023,251.76,208.085,251.272,208.085,250.695z"/>
</g>
<g>
	<path fill="#FFFFFF" d="M406.119,177.846h4.102v-13.014c0-0.391,0.014-0.786,0.041-1.186l-3.41,2.917
		c-0.09,0.071-0.178,0.122-0.267,0.153s-0.173,0.046-0.253,0.046c-0.133,0-0.254-0.028-0.359-0.086
		c-0.107-0.058-0.188-0.126-0.24-0.207l-0.746-1.025l5.674-4.915h1.932v17.316h3.757v1.812h-10.229V177.846z"/>
	<path fill="#FFFFFF" d="M425.752,160.357c0.808,0,1.562,0.12,2.264,0.36c0.702,0.24,1.309,0.588,1.818,1.045
		c0.511,0.458,0.913,1.015,1.206,1.672s0.439,1.403,0.439,2.238c0,0.71-0.106,1.367-0.319,1.971s-0.502,1.184-0.866,1.738
		c-0.364,0.555-0.784,1.092-1.259,1.612s-0.979,1.05-1.512,1.592l-5.021,5.141c0.355-0.097,0.715-0.175,1.078-0.233
		c0.365-0.058,0.715-0.086,1.053-0.086h6.394c0.258,0,0.462,0.075,0.612,0.227c0.151,0.151,0.227,0.346,0.227,0.586v1.438h-12.733
		v-0.812c0-0.168,0.033-0.342,0.101-0.52c0.066-0.178,0.175-0.342,0.326-0.493l6.113-6.141c0.506-0.515,0.968-1.01,1.385-1.485
		c0.418-0.475,0.775-0.952,1.072-1.432c0.298-0.479,0.527-0.966,0.687-1.458c0.159-0.493,0.239-1.019,0.239-1.579
		s-0.088-1.05-0.266-1.472s-0.422-0.771-0.732-1.046c-0.312-0.275-0.676-0.481-1.093-0.619s-0.866-0.207-1.345-0.207
		c-0.48,0-0.924,0.071-1.332,0.213c-0.409,0.142-0.771,0.34-1.086,0.593c-0.315,0.253-0.582,0.553-0.799,0.899
		c-0.219,0.346-0.371,0.728-0.46,1.146c-0.071,0.257-0.178,0.444-0.319,0.559c-0.143,0.116-0.329,0.173-0.56,0.173
		c-0.045,0-0.091-0.002-0.14-0.007c-0.049-0.004-0.105-0.011-0.167-0.02l-1.239-0.213c0.125-0.87,0.365-1.641,0.72-2.311
		s0.806-1.232,1.353-1.685c0.546-0.453,1.172-0.797,1.877-1.032C424.174,160.475,424.935,160.357,425.752,160.357z"/>
	<path fill="#FFFFFF" d="M442.614,165.179c0,0.746-0.115,1.414-0.347,2.005c-0.23,0.59-0.539,1.088-0.926,1.492
		c-0.386,0.404-0.836,0.713-1.352,0.926s-1.053,0.32-1.611,0.32c-0.604,0-1.161-0.107-1.672-0.32s-0.957-0.521-1.338-0.926
		c-0.383-0.404-0.68-0.901-0.893-1.492c-0.214-0.591-0.32-1.259-0.32-2.005c0-0.764,0.106-1.443,0.32-2.038
		c0.213-0.595,0.51-1.096,0.893-1.505c0.381-0.408,0.827-0.719,1.338-0.933c0.511-0.213,1.068-0.319,1.672-0.319
		c0.595,0,1.152,0.106,1.672,0.319c0.52,0.213,0.967,0.524,1.345,0.933c0.378,0.409,0.675,0.91,0.893,1.505
		C442.506,163.736,442.614,164.415,442.614,165.179z M449.287,161.05c0.115-0.151,0.238-0.269,0.367-0.353s0.299-0.127,0.513-0.127
		h1.704l-13.945,18.702c-0.089,0.115-0.195,0.208-0.32,0.28c-0.123,0.071-0.271,0.106-0.439,0.106h-1.758L449.287,161.05z
		 M440.764,165.179c0-0.586-0.062-1.083-0.188-1.492c-0.124-0.408-0.295-0.744-0.513-1.006c-0.218-0.262-0.471-0.451-0.759-0.566
		c-0.289-0.115-0.598-0.173-0.926-0.173s-0.638,0.058-0.926,0.173c-0.289,0.115-0.539,0.304-0.753,0.566
		c-0.213,0.262-0.38,0.598-0.499,1.006c-0.12,0.409-0.18,0.906-0.18,1.492c0,0.578,0.06,1.068,0.18,1.472
		c0.119,0.404,0.286,0.732,0.499,0.985c0.214,0.253,0.464,0.436,0.753,0.546c0.288,0.111,0.598,0.167,0.926,0.167
		s0.637-0.056,0.926-0.167c0.288-0.111,0.541-0.293,0.759-0.546c0.218-0.253,0.389-0.582,0.513-0.985
		C440.701,166.247,440.764,165.756,440.764,165.179z M453.164,175.156c0,0.746-0.115,1.412-0.347,1.998
		c-0.231,0.586-0.54,1.082-0.926,1.485c-0.386,0.404-0.835,0.713-1.345,0.926c-0.512,0.213-1.046,0.32-1.605,0.32
		c-0.604,0-1.161-0.106-1.672-0.32c-0.51-0.213-0.957-0.521-1.338-0.926c-0.383-0.404-0.68-0.899-0.893-1.485
		c-0.213-0.586-0.32-1.252-0.32-1.998c0-0.764,0.107-1.445,0.32-2.045c0.213-0.599,0.51-1.103,0.893-1.512
		c0.381-0.408,0.828-0.719,1.338-0.933c0.511-0.213,1.068-0.319,1.672-0.319c0.595,0,1.15,0.106,1.665,0.319
		c0.515,0.213,0.964,0.524,1.345,0.933c0.383,0.409,0.68,0.913,0.893,1.512C453.057,173.71,453.164,174.392,453.164,175.156z
		 M451.326,175.156c0-0.586-0.062-1.086-0.188-1.499c-0.124-0.413-0.295-0.748-0.512-1.006c-0.219-0.257-0.471-0.444-0.76-0.56
		c-0.289-0.115-0.598-0.173-0.926-0.173s-0.637,0.058-0.926,0.173c-0.289,0.116-0.539,0.302-0.752,0.56
		c-0.214,0.258-0.381,0.593-0.5,1.006c-0.12,0.413-0.18,0.912-0.18,1.499c0,0.577,0.06,1.065,0.18,1.465
		c0.119,0.4,0.286,0.726,0.5,0.979c0.213,0.253,0.463,0.436,0.752,0.546s0.598,0.167,0.926,0.167s0.637-0.056,0.926-0.167
		s0.541-0.293,0.76-0.546c0.217-0.253,0.388-0.579,0.512-0.979C451.264,176.221,451.326,175.733,451.326,175.156z"/>
</g>
<g>
	<path fill="#FFFFFF" d="M460.896,266.745h4.103v-13.014c0-0.391,0.013-0.786,0.039-1.186l-3.409,2.917
		c-0.089,0.071-0.178,0.122-0.267,0.153s-0.173,0.046-0.253,0.046c-0.134,0-0.253-0.028-0.359-0.086
		c-0.107-0.058-0.187-0.126-0.24-0.207l-0.746-1.025l5.675-4.915h1.931v17.316h3.757v1.812h-10.229V266.745z"/>
	<path fill="#FFFFFF" d="M487.176,259.019c0,1.669-0.181,3.115-0.54,4.335c-0.359,1.221-0.851,2.231-1.472,3.03
		c-0.622,0.799-1.356,1.395-2.204,1.785c-0.849,0.391-1.757,0.586-2.725,0.586c-0.977,0-1.885-0.195-2.724-0.586
		s-1.569-0.986-2.191-1.785c-0.621-0.799-1.109-1.809-1.465-3.03c-0.355-1.221-0.533-2.666-0.533-4.335s0.178-3.117,0.533-4.342
		c0.355-1.226,0.844-2.24,1.465-3.044c0.622-0.803,1.353-1.4,2.191-1.792c0.839-0.391,1.747-0.586,2.724-0.586
		c0.968,0,1.876,0.195,2.725,0.586c0.848,0.391,1.582,0.988,2.204,1.792c0.621,0.804,1.112,1.818,1.472,3.044
		C486.995,255.902,487.176,257.35,487.176,259.019z M484.711,259.019c0-1.457-0.122-2.68-0.366-3.67
		c-0.244-0.99-0.572-1.787-0.985-2.391s-0.891-1.037-1.432-1.299c-0.542-0.262-1.106-0.393-1.692-0.393s-1.149,0.131-1.691,0.393
		c-0.542,0.262-1.017,0.695-1.425,1.299c-0.409,0.604-0.735,1.401-0.979,2.391c-0.244,0.99-0.366,2.213-0.366,3.67
		s0.122,2.677,0.366,3.663c0.244,0.985,0.57,1.78,0.979,2.384c0.408,0.604,0.883,1.037,1.425,1.299
		c0.542,0.262,1.105,0.393,1.691,0.393s1.15-0.131,1.692-0.393c0.541-0.262,1.019-0.695,1.432-1.299s0.741-1.399,0.985-2.384
		C484.589,261.696,484.711,260.476,484.711,259.019z"/>
	<path fill="#FFFFFF" d="M497.392,254.077c0,0.746-0.115,1.414-0.346,2.005c-0.231,0.59-0.54,1.088-0.926,1.492
		c-0.387,0.404-0.838,0.713-1.353,0.926s-1.052,0.32-1.611,0.32c-0.604,0-1.161-0.107-1.672-0.32s-0.957-0.521-1.339-0.926
		c-0.382-0.404-0.679-0.901-0.893-1.492c-0.213-0.591-0.319-1.259-0.319-2.005c0-0.764,0.106-1.443,0.319-2.038
		c0.214-0.595,0.511-1.096,0.893-1.505c0.382-0.408,0.828-0.719,1.339-0.933c0.511-0.213,1.067-0.319,1.672-0.319
		c0.595,0,1.152,0.106,1.672,0.319c0.52,0.213,0.968,0.524,1.345,0.933c0.378,0.409,0.675,0.91,0.893,1.505
		C497.283,252.634,497.392,253.313,497.392,254.077z M504.065,249.948c0.115-0.151,0.237-0.269,0.366-0.353
		c0.128-0.084,0.3-0.127,0.513-0.127h1.705l-13.946,18.702c-0.089,0.115-0.195,0.208-0.319,0.28
		c-0.125,0.071-0.271,0.106-0.439,0.106h-1.759L504.065,249.948z M495.54,254.077c0-0.586-0.062-1.083-0.187-1.492
		c-0.124-0.408-0.295-0.744-0.513-1.006c-0.218-0.262-0.471-0.451-0.759-0.566c-0.289-0.115-0.598-0.173-0.926-0.173
		c-0.329,0-0.638,0.058-0.926,0.173c-0.289,0.115-0.54,0.304-0.753,0.566c-0.213,0.262-0.38,0.598-0.499,1.006
		c-0.12,0.409-0.18,0.906-0.18,1.492c0,0.578,0.06,1.068,0.18,1.472c0.119,0.404,0.286,0.732,0.499,0.985
		c0.213,0.253,0.464,0.436,0.753,0.546c0.288,0.111,0.597,0.167,0.926,0.167c0.328,0,0.637-0.056,0.926-0.167
		c0.288-0.111,0.541-0.293,0.759-0.546c0.218-0.253,0.389-0.582,0.513-0.985C495.479,255.145,495.54,254.655,495.54,254.077z
		 M507.941,264.054c0,0.746-0.115,1.412-0.347,1.998c-0.23,0.586-0.539,1.082-0.926,1.485c-0.386,0.404-0.835,0.713-1.345,0.926
		c-0.511,0.213-1.046,0.32-1.605,0.32c-0.604,0-1.161-0.106-1.672-0.32c-0.511-0.213-0.957-0.521-1.339-0.926
		c-0.382-0.404-0.679-0.899-0.892-1.485c-0.214-0.586-0.32-1.252-0.32-1.998c0-0.764,0.106-1.445,0.32-2.045
		c0.213-0.599,0.51-1.103,0.892-1.512c0.382-0.408,0.828-0.719,1.339-0.933c0.511-0.213,1.068-0.319,1.672-0.319
		c0.595,0,1.15,0.106,1.665,0.319c0.515,0.213,0.964,0.524,1.346,0.933c0.381,0.409,0.679,0.913,0.892,1.512
		C507.835,262.609,507.941,263.291,507.941,264.054z M506.104,264.054c0-0.586-0.062-1.086-0.187-1.499
		c-0.125-0.413-0.296-0.748-0.514-1.006c-0.217-0.257-0.471-0.444-0.759-0.56c-0.289-0.115-0.598-0.173-0.926-0.173
		s-0.638,0.058-0.926,0.173c-0.289,0.116-0.539,0.302-0.753,0.56c-0.213,0.258-0.379,0.593-0.499,1.006
		c-0.12,0.413-0.18,0.912-0.18,1.499c0,0.577,0.06,1.065,0.18,1.465c0.12,0.4,0.286,0.726,0.499,0.979
		c0.214,0.253,0.464,0.436,0.753,0.546c0.288,0.111,0.598,0.167,0.926,0.167s0.637-0.056,0.926-0.167
		c0.288-0.111,0.542-0.293,0.759-0.546c0.218-0.253,0.389-0.579,0.514-0.979C506.041,265.12,506.104,264.631,506.104,264.054z"/>
</g>
<g>
	<path fill="#FFFFFF" d="M465.729,325.258c0.764,0,1.487,0.126,2.171,0.379s1.283,0.622,1.798,1.105
		c0.516,0.484,0.924,1.079,1.226,1.785s0.453,1.512,0.453,2.417c0,0.879-0.16,1.696-0.479,2.451
		c-0.319,0.755-0.766,1.412-1.339,1.972c-0.572,0.559-1.263,0.999-2.071,1.318c-0.808,0.32-1.696,0.479-2.664,0.479
		c-0.959,0-1.827-0.153-2.604-0.459c-0.777-0.306-1.441-0.741-1.991-1.305c-0.551-0.564-0.975-1.248-1.272-2.051
		s-0.446-1.703-0.446-2.697c0-0.834,0.187-1.723,0.56-2.664s0.963-1.954,1.771-3.037l4.835-6.514c0.124-0.16,0.298-0.295,0.52-0.406
		c0.222-0.111,0.475-0.167,0.76-0.167h2.104l-6.62,8.378c0.453-0.311,0.954-0.553,1.505-0.726
		C464.495,325.345,465.09,325.258,465.729,325.258z M460.801,331.065c0,0.613,0.089,1.172,0.267,1.679
		c0.178,0.506,0.438,0.941,0.779,1.305c0.342,0.364,0.759,0.646,1.252,0.846c0.493,0.2,1.055,0.3,1.685,0.3
		c0.64,0,1.217-0.102,1.731-0.306c0.516-0.204,0.957-0.488,1.326-0.853c0.368-0.364,0.652-0.795,0.853-1.292
		c0.199-0.498,0.299-1.039,0.299-1.625c0-0.622-0.098-1.184-0.293-1.685c-0.195-0.502-0.471-0.928-0.825-1.279
		c-0.355-0.351-0.782-0.62-1.279-0.806c-0.497-0.186-1.043-0.279-1.638-0.279c-0.64,0-1.217,0.109-1.731,0.326
		c-0.516,0.218-0.953,0.511-1.312,0.879c-0.359,0.369-0.635,0.795-0.826,1.279C460.896,330.038,460.801,330.542,460.801,331.065z"/>
	<path fill="#FFFFFF" d="M481.939,322.474c0,0.746-0.115,1.414-0.346,2.005c-0.231,0.59-0.54,1.088-0.926,1.492
		c-0.387,0.404-0.838,0.713-1.353,0.926s-1.052,0.32-1.611,0.32c-0.604,0-1.161-0.107-1.672-0.32s-0.957-0.521-1.339-0.926
		c-0.382-0.404-0.679-0.901-0.893-1.492c-0.213-0.591-0.319-1.259-0.319-2.005c0-0.764,0.106-1.443,0.319-2.038
		c0.214-0.595,0.511-1.096,0.893-1.505c0.382-0.408,0.828-0.719,1.339-0.933c0.511-0.213,1.067-0.319,1.672-0.319
		c0.595,0,1.152,0.106,1.672,0.319c0.52,0.213,0.968,0.524,1.345,0.933c0.378,0.409,0.675,0.91,0.893,1.505
		C481.831,321.031,481.939,321.71,481.939,322.474z M488.613,318.345c0.115-0.151,0.237-0.269,0.366-0.353
		c0.128-0.084,0.3-0.127,0.513-0.127h1.705l-13.946,18.702c-0.089,0.115-0.195,0.208-0.319,0.28
		c-0.125,0.071-0.271,0.106-0.439,0.106h-1.759L488.613,318.345z M480.088,322.474c0-0.586-0.062-1.083-0.187-1.492
		c-0.124-0.408-0.295-0.744-0.513-1.006c-0.218-0.262-0.471-0.451-0.759-0.566c-0.289-0.115-0.598-0.173-0.926-0.173
		c-0.329,0-0.638,0.058-0.926,0.173c-0.289,0.115-0.54,0.304-0.753,0.566c-0.213,0.262-0.38,0.598-0.499,1.006
		c-0.12,0.409-0.18,0.906-0.18,1.492c0,0.578,0.06,1.068,0.18,1.472c0.119,0.404,0.286,0.732,0.499,0.985
		c0.213,0.253,0.464,0.436,0.753,0.546c0.288,0.111,0.597,0.167,0.926,0.167c0.328,0,0.637-0.056,0.926-0.167
		c0.288-0.111,0.541-0.293,0.759-0.546c0.218-0.253,0.389-0.582,0.513-0.985C480.026,323.542,480.088,323.052,480.088,322.474z
		 M492.489,332.451c0,0.746-0.115,1.412-0.347,1.998c-0.23,0.586-0.539,1.082-0.926,1.485c-0.386,0.404-0.835,0.713-1.345,0.926
		c-0.511,0.213-1.046,0.32-1.605,0.32c-0.604,0-1.161-0.106-1.672-0.32c-0.511-0.213-0.957-0.521-1.339-0.926
		c-0.382-0.404-0.679-0.899-0.892-1.485c-0.214-0.586-0.32-1.252-0.32-1.998c0-0.764,0.106-1.445,0.32-2.045
		c0.213-0.599,0.51-1.103,0.892-1.512c0.382-0.408,0.828-0.719,1.339-0.933c0.511-0.213,1.068-0.319,1.672-0.319
		c0.595,0,1.15,0.106,1.665,0.319c0.515,0.213,0.964,0.524,1.346,0.933c0.381,0.409,0.679,0.913,0.892,1.512
		C492.383,331.006,492.489,331.688,492.489,332.451z M490.651,332.451c0-0.586-0.062-1.086-0.187-1.499
		c-0.125-0.413-0.296-0.748-0.514-1.006c-0.217-0.257-0.471-0.444-0.759-0.56c-0.289-0.115-0.598-0.173-0.926-0.173
		s-0.638,0.058-0.926,0.173c-0.289,0.116-0.539,0.302-0.753,0.56c-0.213,0.258-0.379,0.593-0.499,1.006
		c-0.12,0.413-0.18,0.912-0.18,1.499c0,0.577,0.06,1.065,0.18,1.465c0.12,0.4,0.286,0.726,0.499,0.979
		c0.214,0.253,0.464,0.436,0.753,0.546c0.288,0.111,0.598,0.167,0.926,0.167s0.637-0.056,0.926-0.167
		c0.288-0.111,0.542-0.293,0.759-0.546c0.218-0.253,0.389-0.579,0.514-0.979C490.589,333.517,490.651,333.028,490.651,332.451z"/>
</g>
<g>
	<path fill="#FFFFFF" d="M374.897,411.889c0.808,0,1.562,0.12,2.264,0.359c0.702,0.24,1.308,0.589,1.818,1.046
		c0.51,0.457,0.913,1.015,1.206,1.672s0.439,1.403,0.439,2.237c0,0.711-0.106,1.368-0.32,1.972
		c-0.213,0.604-0.501,1.184-0.866,1.738s-0.784,1.092-1.259,1.611s-0.979,1.051-1.512,1.592l-5.021,5.142
		c0.355-0.098,0.714-0.175,1.079-0.232s0.715-0.087,1.052-0.087h6.394c0.258,0,0.462,0.075,0.613,0.227
		c0.151,0.15,0.227,0.346,0.227,0.586v1.438h-12.734v-0.812c0-0.169,0.033-0.342,0.1-0.52c0.066-0.178,0.175-0.342,0.326-0.493
		l6.114-6.141c0.506-0.515,0.968-1.01,1.385-1.484c0.417-0.476,0.775-0.953,1.072-1.433s0.526-0.966,0.686-1.458
		c0.16-0.493,0.24-1.02,0.24-1.579c0-0.559-0.089-1.05-0.267-1.472s-0.422-0.77-0.732-1.045c-0.311-0.275-0.675-0.482-1.092-0.62
		s-0.866-0.206-1.345-0.206s-0.924,0.071-1.332,0.213c-0.409,0.143-0.771,0.34-1.085,0.593c-0.315,0.253-0.582,0.553-0.799,0.899
		c-0.218,0.346-0.371,0.728-0.459,1.146c-0.071,0.258-0.178,0.444-0.32,0.56s-0.329,0.173-0.559,0.173
		c-0.045,0-0.091-0.002-0.14-0.007c-0.049-0.004-0.104-0.011-0.167-0.02l-1.239-0.214c0.125-0.87,0.364-1.64,0.719-2.311
		s0.806-1.232,1.352-1.685c0.546-0.453,1.172-0.798,1.878-1.033C373.319,412.007,374.08,411.889,374.897,411.889z"/>
	<path fill="#FFFFFF" d="M390.601,411.889c0.808,0,1.554,0.115,2.238,0.347c0.684,0.23,1.272,0.56,1.765,0.985
		c0.493,0.426,0.876,0.941,1.152,1.545c0.275,0.604,0.413,1.274,0.413,2.012c0,0.604-0.078,1.144-0.233,1.618
		c-0.155,0.476-0.377,0.893-0.666,1.252s-0.637,0.664-1.045,0.912c-0.409,0.249-0.866,0.449-1.372,0.6
		c1.243,0.329,2.178,0.879,2.804,1.652c0.626,0.772,0.939,1.74,0.939,2.903c0,0.879-0.167,1.67-0.5,2.371s-0.788,1.299-1.365,1.791
		c-0.578,0.493-1.25,0.871-2.018,1.133s-1.592,0.393-2.471,0.393c-1.013,0-1.878-0.126-2.598-0.379
		c-0.719-0.254-1.328-0.602-1.825-1.046c-0.498-0.444-0.906-0.971-1.226-1.579c-0.32-0.607-0.59-1.267-0.812-1.978l1.012-0.427
		c0.187-0.079,0.373-0.119,0.56-0.119c0.178,0,0.335,0.038,0.473,0.113c0.137,0.075,0.242,0.192,0.313,0.353
		c0.018,0.036,0.035,0.073,0.053,0.113c0.018,0.04,0.035,0.082,0.053,0.127c0.124,0.257,0.275,0.548,0.453,0.872
		s0.417,0.628,0.719,0.912s0.677,0.524,1.125,0.72c0.449,0.195,1.006,0.293,1.672,0.293s1.25-0.108,1.751-0.326
		s0.919-0.5,1.252-0.846c0.333-0.347,0.584-0.732,0.753-1.159c0.168-0.426,0.253-0.848,0.253-1.266c0-0.515-0.069-0.985-0.207-1.412
		c-0.138-0.426-0.386-0.794-0.746-1.105c-0.36-0.311-0.857-0.555-1.492-0.732s-1.45-0.267-2.444-0.267v-1.731
		c0.808,0,1.499-0.084,2.071-0.253s1.041-0.399,1.405-0.692c0.364-0.293,0.628-0.644,0.793-1.053
		c0.164-0.408,0.246-0.861,0.246-1.358c0-0.551-0.086-1.03-0.26-1.438c-0.173-0.408-0.411-0.746-0.712-1.013
		c-0.302-0.267-0.659-0.466-1.072-0.6c-0.413-0.133-0.859-0.199-1.339-0.199s-0.923,0.071-1.332,0.213
		c-0.408,0.142-0.771,0.34-1.085,0.592c-0.315,0.253-0.579,0.555-0.792,0.905c-0.213,0.351-0.373,0.729-0.479,1.138
		c-0.071,0.257-0.178,0.443-0.32,0.559s-0.324,0.173-0.546,0.173c-0.044,0-0.091-0.002-0.14-0.006
		c-0.049-0.005-0.104-0.012-0.167-0.021l-1.239-0.21c0.125-0.87,0.364-1.64,0.72-2.311c0.355-0.671,0.806-1.232,1.352-1.685
		c0.546-0.453,1.172-0.798,1.878-1.033C389.023,412.007,389.784,411.889,390.601,411.889z"/>
	<path fill="#FFFFFF" d="M407.211,416.711c0,0.745-0.115,1.414-0.347,2.004c-0.231,0.591-0.54,1.088-0.926,1.492
		s-0.837,0.713-1.353,0.926c-0.515,0.213-1.052,0.319-1.611,0.319c-0.604,0-1.16-0.106-1.672-0.319
		c-0.51-0.213-0.957-0.521-1.338-0.926c-0.382-0.404-0.68-0.901-0.893-1.492c-0.213-0.59-0.32-1.259-0.32-2.004
		c0-0.764,0.106-1.443,0.32-2.038c0.213-0.595,0.51-1.097,0.893-1.506c0.381-0.408,0.828-0.719,1.338-0.932
		c0.512-0.214,1.068-0.32,1.672-0.32c0.596,0,1.152,0.106,1.672,0.32c0.52,0.213,0.968,0.523,1.346,0.932
		c0.377,0.409,0.674,0.911,0.893,1.506C407.102,415.268,407.211,415.947,407.211,416.711z M413.884,412.581
		c0.115-0.15,0.237-0.269,0.366-0.353c0.129-0.085,0.3-0.127,0.514-0.127h1.704l-13.946,18.701c-0.088,0.116-0.195,0.209-0.319,0.28
		s-0.271,0.106-0.439,0.106h-1.758L413.884,412.581z M405.359,416.711c0-0.587-0.062-1.084-0.187-1.492s-0.296-0.744-0.513-1.006
		c-0.218-0.262-0.471-0.45-0.76-0.566c-0.289-0.115-0.598-0.173-0.926-0.173s-0.637,0.058-0.926,0.173
		c-0.288,0.116-0.539,0.305-0.752,0.566s-0.38,0.598-0.5,1.006c-0.12,0.408-0.18,0.905-0.18,1.492c0,0.577,0.06,1.067,0.18,1.472
		c0.12,0.404,0.287,0.732,0.5,0.985s0.464,0.436,0.752,0.546c0.289,0.111,0.598,0.167,0.926,0.167s0.637-0.056,0.926-0.167
		c0.289-0.11,0.542-0.293,0.76-0.546c0.217-0.253,0.389-0.581,0.513-0.985S405.359,417.288,405.359,416.711z M417.76,426.688
		c0,0.746-0.115,1.412-0.346,1.998c-0.231,0.586-0.54,1.081-0.926,1.485c-0.387,0.403-0.835,0.712-1.346,0.926
		c-0.511,0.213-1.045,0.319-1.605,0.319c-0.604,0-1.16-0.106-1.671-0.319c-0.511-0.214-0.957-0.522-1.339-0.926
		c-0.382-0.404-0.68-0.899-0.893-1.485s-0.319-1.252-0.319-1.998c0-0.764,0.106-1.445,0.319-2.045s0.511-1.104,0.893-1.512
		s0.828-0.72,1.339-0.933s1.067-0.319,1.671-0.319c0.596,0,1.15,0.106,1.666,0.319c0.514,0.213,0.963,0.524,1.345,0.933
		s0.679,0.912,0.893,1.512C417.653,425.242,417.76,425.924,417.76,426.688z M415.922,426.688c0-0.586-0.062-1.086-0.187-1.499
		s-0.296-0.748-0.513-1.006c-0.218-0.257-0.471-0.443-0.76-0.559c-0.288-0.115-0.597-0.174-0.926-0.174
		c-0.328,0-0.637,0.059-0.926,0.174c-0.288,0.115-0.539,0.302-0.752,0.559c-0.213,0.258-0.38,0.593-0.5,1.006
		c-0.119,0.413-0.18,0.913-0.18,1.499c0,0.577,0.061,1.065,0.18,1.465c0.12,0.399,0.287,0.727,0.5,0.979s0.464,0.435,0.752,0.546
		c0.289,0.111,0.598,0.166,0.926,0.166c0.329,0,0.638-0.055,0.926-0.166c0.289-0.111,0.542-0.293,0.76-0.546
		c0.217-0.253,0.389-0.58,0.513-0.979S415.922,427.265,415.922,426.688z"/>
</g>
<g>
</g>
<g>
	<g>
	</g>
	<g>
	</g>
	<g>
	</g>
	<g>
	</g>
	<g>
	</g>
	<g>
	</g>
</g>
</svg>
