<?xml version="1.0" encoding="utf-8"?>
<!-- Generator: Adobe Illustrator 16.0.0, SVG Export Plug-In . SVG Version: 6.00 Build 0)  -->
<!DOCTYPE svg PUBLIC "-//W3C//DTD SVG 1.1//EN" "http://www.w3.org/Graphics/SVG/1.1/DTD/svg11.dtd">
<svg version="1.1" id="Layer_1" xmlns="http://www.w3.org/2000/svg" xmlns:xlink="http://www.w3.org/1999/xlink" x="0px" y="0px"
	 width="858px" height="519px" viewBox="0 0 858 519" enable-background="new 0 0 858 519" xml:space="preserve">
<g>
	<path fill="#FFFFFF" d="M49.458,485.288h6.2v1.63h-8.14v-14.33h1.94V485.288z"/>
	<path fill="#FFFFFF" d="M61.258,476.628c0.74,0,1.408,0.123,2.005,0.37s1.103,0.597,1.52,1.05c0.417,0.453,0.736,1.002,0.96,1.646
		c0.223,0.643,0.335,1.361,0.335,2.154c0,0.801-0.112,1.521-0.335,2.16c-0.224,0.641-0.543,1.187-0.96,1.641
		c-0.417,0.453-0.923,0.801-1.52,1.045c-0.597,0.243-1.265,0.364-2.005,0.364c-0.74,0-1.409-0.121-2.005-0.364
		c-0.597-0.244-1.105-0.592-1.525-1.045c-0.42-0.454-0.743-1-0.97-1.641c-0.227-0.64-0.34-1.359-0.34-2.16
		c0-0.793,0.113-1.512,0.34-2.154c0.227-0.644,0.55-1.192,0.97-1.646c0.42-0.453,0.928-0.803,1.525-1.05
		C59.849,476.751,60.518,476.628,61.258,476.628z M61.258,485.668c1,0,1.747-0.335,2.24-1.005s0.74-1.605,0.74-2.805
		c0-1.207-0.247-2.147-0.74-2.82c-0.493-0.674-1.24-1.01-2.24-1.01c-0.507,0-0.947,0.086-1.32,0.26
		c-0.373,0.173-0.685,0.423-0.935,0.75c-0.25,0.326-0.437,0.729-0.56,1.205c-0.124,0.477-0.185,1.015-0.185,1.615
		c0,0.6,0.062,1.137,0.185,1.609c0.123,0.474,0.31,0.872,0.56,1.195s0.562,0.571,0.935,0.745
		C60.311,485.581,60.751,485.668,61.258,485.668z"/>
	<path fill="#FFFFFF" d="M75.188,478.588c-0.054,0.073-0.107,0.13-0.16,0.17c-0.054,0.04-0.13,0.061-0.23,0.061
		s-0.208-0.042-0.325-0.125c-0.117-0.084-0.265-0.176-0.445-0.275s-0.398-0.191-0.655-0.275c-0.257-0.083-0.572-0.125-0.945-0.125
		c-0.493,0-0.93,0.089-1.31,0.266c-0.38,0.177-0.698,0.432-0.955,0.765c-0.256,0.334-0.45,0.737-0.58,1.21
		c-0.13,0.474-0.195,1.004-0.195,1.59c0,0.613,0.07,1.159,0.21,1.636c0.14,0.477,0.337,0.876,0.59,1.199
		c0.253,0.324,0.562,0.57,0.925,0.74s0.771,0.255,1.225,0.255c0.433,0,0.79-0.052,1.07-0.154c0.28-0.104,0.513-0.219,0.7-0.346
		c0.187-0.126,0.34-0.241,0.46-0.345s0.24-0.155,0.36-0.155c0.153,0,0.267,0.057,0.34,0.17l0.5,0.65
		c-0.44,0.54-0.99,0.935-1.65,1.185c-0.66,0.25-1.356,0.375-2.09,0.375c-0.633,0-1.222-0.116-1.765-0.35s-1.015-0.571-1.415-1.015
		c-0.4-0.443-0.715-0.988-0.945-1.636c-0.23-0.646-0.345-1.383-0.345-2.21c0-0.753,0.105-1.449,0.315-2.09
		c0.21-0.64,0.517-1.191,0.92-1.655c0.403-0.463,0.901-0.824,1.495-1.085c0.594-0.26,1.273-0.39,2.04-0.39
		c0.707,0,1.333,0.115,1.88,0.345c0.546,0.23,1.03,0.556,1.45,0.976L75.188,478.588z"/>
	<path fill="#FFFFFF" d="M85.057,486.918h-0.79c-0.173,0-0.313-0.026-0.42-0.08c-0.107-0.053-0.177-0.166-0.21-0.34l-0.2-0.94
		c-0.267,0.24-0.526,0.455-0.78,0.646c-0.253,0.189-0.52,0.35-0.8,0.479c-0.28,0.13-0.578,0.229-0.895,0.295
		c-0.317,0.067-0.668,0.101-1.055,0.101c-0.394,0-0.762-0.056-1.105-0.166s-0.642-0.275-0.895-0.496s-0.455-0.5-0.605-0.838
		s-0.225-0.738-0.225-1.199c0-0.401,0.11-0.788,0.33-1.159s0.575-0.7,1.065-0.988c0.49-0.288,1.131-0.523,1.925-0.708
		c0.793-0.184,1.764-0.275,2.91-0.275v-0.795c0-0.792-0.168-1.391-0.505-1.796c-0.337-0.406-0.835-0.609-1.495-0.609
		c-0.434,0-0.798,0.055-1.095,0.165c-0.297,0.11-0.554,0.233-0.77,0.37c-0.217,0.137-0.404,0.26-0.56,0.37
		c-0.157,0.109-0.312,0.165-0.465,0.165c-0.12,0-0.225-0.032-0.315-0.095c-0.09-0.063-0.162-0.142-0.215-0.235l-0.32-0.57
		c0.56-0.54,1.163-0.943,1.81-1.21c0.647-0.267,1.363-0.399,2.15-0.399c0.566,0,1.07,0.093,1.51,0.279s0.81,0.447,1.11,0.78
		c0.3,0.333,0.527,0.736,0.68,1.21s0.23,0.993,0.23,1.56V486.918z M80.437,485.828c0.313,0,0.6-0.031,0.86-0.095
		c0.26-0.063,0.505-0.153,0.735-0.271c0.23-0.116,0.45-0.258,0.66-0.425c0.21-0.167,0.415-0.356,0.615-0.57v-2.09
		c-0.82,0-1.517,0.052-2.09,0.156c-0.574,0.104-1.04,0.239-1.4,0.407c-0.36,0.168-0.622,0.365-0.785,0.594
		c-0.164,0.228-0.245,0.482-0.245,0.764c0,0.269,0.043,0.5,0.13,0.694c0.087,0.194,0.204,0.354,0.35,0.478s0.32,0.215,0.52,0.271
		C79.987,485.8,80.204,485.828,80.437,485.828z"/>
	<path fill="#FFFFFF" d="M89.737,472.188v14.73h-1.78v-14.73H89.737z"/>
	<path fill="#FFFFFF" d="M23.328,509.508c0.387,0,0.742-0.019,1.065-0.055c0.323-0.037,0.628-0.092,0.915-0.165
		s0.557-0.162,0.81-0.265c0.253-0.104,0.506-0.222,0.76-0.355v-3.16h-2.22c-0.127,0-0.229-0.036-0.305-0.109
		c-0.077-0.074-0.115-0.164-0.115-0.271v-1.1h4.4v5.5c-0.36,0.26-0.735,0.486-1.125,0.68s-0.807,0.354-1.25,0.485
		c-0.443,0.13-0.918,0.227-1.425,0.29c-0.507,0.062-1.057,0.095-1.65,0.095c-1.04,0-1.993-0.179-2.86-0.535s-1.613-0.856-2.24-1.5
		c-0.627-0.644-1.115-1.415-1.465-2.315c-0.35-0.899-0.525-1.89-0.525-2.97c0-1.093,0.172-2.09,0.515-2.99
		c0.343-0.899,0.833-1.671,1.47-2.314s1.407-1.142,2.31-1.495s1.915-0.53,3.035-0.53c0.566,0,1.093,0.042,1.58,0.125
		c0.486,0.084,0.938,0.204,1.355,0.36c0.417,0.156,0.801,0.347,1.155,0.57c0.354,0.223,0.683,0.475,0.99,0.755l-0.55,0.88
		c-0.113,0.18-0.26,0.27-0.44,0.27c-0.106,0-0.223-0.036-0.35-0.109c-0.167-0.094-0.354-0.207-0.56-0.341
		c-0.207-0.133-0.458-0.261-0.755-0.385c-0.296-0.123-0.646-0.229-1.05-0.314c-0.403-0.087-0.882-0.13-1.435-0.13
		c-0.807,0-1.537,0.131-2.19,0.395s-1.21,0.64-1.67,1.13s-0.813,1.084-1.06,1.78s-0.37,1.479-0.37,2.345
		c0,0.907,0.128,1.715,0.385,2.425c0.256,0.71,0.618,1.312,1.085,1.806c0.466,0.493,1.02,0.87,1.66,1.13
		C21.848,509.378,22.555,509.508,23.328,509.508z"/>
	<path fill="#FFFFFF" d="M35.438,500.628c0.74,0,1.408,0.123,2.005,0.37s1.103,0.597,1.52,1.05c0.417,0.453,0.736,1.002,0.96,1.646
		c0.223,0.643,0.335,1.361,0.335,2.154c0,0.801-0.112,1.521-0.335,2.16c-0.224,0.641-0.543,1.187-0.96,1.641
		c-0.417,0.453-0.923,0.801-1.52,1.045c-0.597,0.243-1.265,0.364-2.005,0.364c-0.74,0-1.409-0.121-2.005-0.364
		c-0.597-0.244-1.105-0.592-1.525-1.045c-0.42-0.454-0.743-1-0.97-1.641c-0.227-0.64-0.34-1.359-0.34-2.16
		c0-0.793,0.113-1.512,0.34-2.154c0.227-0.644,0.55-1.192,0.97-1.646c0.42-0.453,0.928-0.803,1.525-1.05
		C34.029,500.751,34.698,500.628,35.438,500.628z M35.438,509.668c1,0,1.747-0.335,2.24-1.005s0.74-1.605,0.74-2.805
		c0-1.207-0.247-2.147-0.74-2.82c-0.493-0.674-1.24-1.01-2.24-1.01c-0.507,0-0.947,0.086-1.32,0.26
		c-0.373,0.173-0.685,0.423-0.935,0.75c-0.25,0.326-0.437,0.729-0.56,1.205c-0.124,0.477-0.185,1.015-0.185,1.615
		c0,0.6,0.062,1.137,0.185,1.609c0.123,0.474,0.31,0.872,0.56,1.195s0.562,0.571,0.935,0.745
		C34.491,509.581,34.931,509.668,35.438,509.668z"/>
	<path fill="#FFFFFF" d="M40.918,500.788h1.46c0.14,0,0.256,0.036,0.35,0.11c0.094,0.073,0.16,0.159,0.2,0.26l2.57,6.52
		c0.093,0.24,0.167,0.48,0.22,0.721c0.053,0.239,0.103,0.477,0.15,0.71c0.053-0.233,0.11-0.471,0.17-0.71
		c0.06-0.24,0.137-0.48,0.23-0.721l2.6-6.52c0.04-0.106,0.105-0.195,0.195-0.266c0.09-0.069,0.202-0.104,0.335-0.104h1.39
		l-4.13,10.13h-1.61L40.918,500.788z"/>
	<path fill="#FFFFFF" d="M56.188,500.628c0.607,0,1.167,0.102,1.68,0.305c0.513,0.204,0.957,0.497,1.33,0.88
		c0.373,0.384,0.665,0.857,0.875,1.421s0.315,1.204,0.315,1.925c0,0.279-0.03,0.467-0.09,0.56c-0.06,0.094-0.174,0.141-0.34,0.141
		h-6.74c0.013,0.64,0.1,1.196,0.26,1.67c0.16,0.473,0.38,0.868,0.66,1.185c0.28,0.316,0.613,0.554,1,0.71
		c0.387,0.157,0.82,0.235,1.3,0.235c0.447,0,0.832-0.052,1.155-0.155c0.323-0.104,0.602-0.215,0.835-0.335s0.428-0.231,0.585-0.335
		s0.292-0.155,0.405-0.155c0.147,0,0.26,0.057,0.34,0.17l0.5,0.65c-0.22,0.267-0.483,0.498-0.79,0.695
		c-0.307,0.196-0.635,0.358-0.985,0.484c-0.35,0.127-0.712,0.222-1.085,0.285c-0.374,0.063-0.744,0.095-1.11,0.095
		c-0.7,0-1.345-0.118-1.935-0.354c-0.59-0.236-1.1-0.583-1.53-1.04s-0.765-1.021-1.005-1.695c-0.24-0.673-0.36-1.446-0.36-2.319
		c0-0.707,0.108-1.367,0.325-1.98s0.528-1.145,0.935-1.595s0.903-0.804,1.49-1.061C54.795,500.757,55.455,500.628,56.188,500.628z
		 M56.228,501.938c-0.86,0-1.537,0.249-2.03,0.745c-0.494,0.497-0.8,1.186-0.92,2.065h5.51c0-0.413-0.057-0.792-0.17-1.135
		c-0.113-0.344-0.28-0.641-0.5-0.891s-0.488-0.443-0.805-0.58C56.997,502.007,56.635,501.938,56.228,501.938z"/>
	<path fill="#FFFFFF" d="M62.658,510.918v-10.13h1.02c0.193,0,0.327,0.036,0.4,0.11c0.073,0.073,0.124,0.199,0.15,0.38l0.12,1.58
		c0.347-0.707,0.775-1.259,1.285-1.655c0.51-0.396,1.108-0.595,1.795-0.595c0.28,0,0.533,0.031,0.76,0.095s0.437,0.151,0.63,0.265
		l-0.23,1.33c-0.047,0.167-0.15,0.25-0.31,0.25c-0.094,0-0.237-0.031-0.43-0.095s-0.463-0.095-0.81-0.095
		c-0.62,0-1.138,0.18-1.555,0.54c-0.417,0.359-0.765,0.883-1.045,1.569v6.45H62.658z"/>
	<path fill="#FFFFFF" d="M70.718,510.918v-10.13h1.06c0.253,0,0.413,0.123,0.48,0.37l0.14,1.1c0.44-0.486,0.931-0.88,1.475-1.18
		s1.172-0.45,1.885-0.45c0.553,0,1.042,0.092,1.465,0.275c0.423,0.183,0.777,0.443,1.06,0.779c0.283,0.337,0.498,0.742,0.645,1.216
		c0.146,0.473,0.22,0.996,0.22,1.569v6.45h-1.78v-6.45c0-0.767-0.175-1.361-0.525-1.785c-0.35-0.423-0.885-0.635-1.605-0.635
		c-0.527,0-1.019,0.127-1.475,0.38c-0.457,0.254-0.878,0.597-1.265,1.03v7.46H70.718z"/>
	<path fill="#FFFFFF" d="M81.837,510.918v-10.13h1.06c0.253,0,0.413,0.123,0.48,0.37l0.13,1.04c0.374-0.46,0.792-0.837,1.255-1.13
		c0.463-0.294,1.002-0.44,1.615-0.44c0.687,0,1.242,0.19,1.665,0.57s0.728,0.894,0.915,1.54c0.14-0.367,0.325-0.684,0.555-0.95
		s0.488-0.486,0.775-0.66c0.287-0.173,0.592-0.3,0.915-0.38s0.652-0.12,0.985-0.12c0.533,0,1.008,0.085,1.425,0.255
		s0.77,0.419,1.06,0.745c0.29,0.327,0.512,0.729,0.665,1.205s0.23,1.021,0.23,1.635v6.45h-1.78v-6.45
		c0-0.793-0.173-1.395-0.52-1.805s-0.85-0.615-1.51-0.615c-0.293,0-0.572,0.052-0.835,0.155c-0.264,0.104-0.495,0.255-0.695,0.455
		c-0.2,0.2-0.358,0.451-0.475,0.755s-0.175,0.655-0.175,1.055v6.45h-1.78v-6.45c0-0.813-0.164-1.42-0.49-1.819
		c-0.327-0.4-0.803-0.601-1.43-0.601c-0.44,0-0.849,0.118-1.225,0.355c-0.376,0.236-0.722,0.558-1.035,0.965v7.55H81.837z"/>
	<path fill="#FFFFFF" d="M102.267,500.628c0.607,0,1.167,0.102,1.68,0.305c0.513,0.204,0.957,0.497,1.33,0.88
		c0.373,0.384,0.665,0.857,0.875,1.421s0.315,1.204,0.315,1.925c0,0.279-0.03,0.467-0.09,0.56c-0.06,0.094-0.174,0.141-0.34,0.141
		h-6.74c0.013,0.64,0.1,1.196,0.26,1.67c0.16,0.473,0.38,0.868,0.66,1.185c0.28,0.316,0.613,0.554,1,0.71
		c0.387,0.157,0.82,0.235,1.3,0.235c0.447,0,0.832-0.052,1.155-0.155c0.323-0.104,0.602-0.215,0.835-0.335s0.428-0.231,0.585-0.335
		s0.292-0.155,0.405-0.155c0.147,0,0.26,0.057,0.34,0.17l0.5,0.65c-0.22,0.267-0.483,0.498-0.79,0.695
		c-0.307,0.196-0.635,0.358-0.985,0.484c-0.35,0.127-0.712,0.222-1.085,0.285c-0.374,0.063-0.744,0.095-1.11,0.095
		c-0.7,0-1.345-0.118-1.935-0.354c-0.59-0.236-1.1-0.583-1.53-1.04s-0.765-1.021-1.005-1.695c-0.24-0.673-0.36-1.446-0.36-2.319
		c0-0.707,0.108-1.367,0.325-1.98s0.528-1.145,0.935-1.595s0.903-0.804,1.49-1.061C100.874,500.757,101.534,500.628,102.267,500.628
		z M102.307,501.938c-0.86,0-1.537,0.249-2.03,0.745c-0.494,0.497-0.8,1.186-0.92,2.065h5.51c0-0.413-0.057-0.792-0.17-1.135
		c-0.113-0.344-0.28-0.641-0.5-0.891s-0.488-0.443-0.805-0.58C103.076,502.007,102.714,501.938,102.307,501.938z"/>
	<path fill="#FFFFFF" d="M108.737,510.918v-10.13h1.06c0.253,0,0.413,0.123,0.48,0.37l0.14,1.1c0.44-0.486,0.931-0.88,1.475-1.18
		s1.172-0.45,1.885-0.45c0.553,0,1.042,0.092,1.465,0.275c0.423,0.183,0.777,0.443,1.06,0.779c0.283,0.337,0.498,0.742,0.645,1.216
		c0.146,0.473,0.22,0.996,0.22,1.569v6.45h-1.78v-6.45c0-0.767-0.175-1.361-0.525-1.785c-0.35-0.423-0.885-0.635-1.605-0.635
		c-0.527,0-1.019,0.127-1.475,0.38c-0.457,0.254-0.878,0.597-1.265,1.03v7.46H108.737z"/>
	<path fill="#FFFFFF" d="M122.927,511.078c-0.8,0-1.415-0.224-1.845-0.67c-0.43-0.447-0.645-1.09-0.645-1.931v-6.199h-1.22
		c-0.106,0-0.197-0.032-0.27-0.096c-0.073-0.062-0.11-0.161-0.11-0.295v-0.71l1.66-0.21l0.41-3.13c0.014-0.1,0.057-0.182,0.13-0.245
		c0.073-0.063,0.167-0.095,0.28-0.095h0.9v3.49h2.9v1.29h-2.9v6.08c0,0.427,0.104,0.743,0.31,0.949
		c0.207,0.207,0.473,0.311,0.8,0.311c0.187,0,0.348-0.025,0.485-0.075c0.136-0.05,0.255-0.105,0.355-0.165s0.185-0.115,0.255-0.165
		s0.132-0.075,0.185-0.075c0.093,0,0.177,0.057,0.25,0.17l0.52,0.851c-0.307,0.286-0.677,0.512-1.11,0.675
		C123.833,510.996,123.387,511.078,122.927,511.078z"/>
</g>
<g>
	<path fill="#FFFFFF" d="M198.375,481.558v5.36h-1.93v-14.33h4.23c0.907,0,1.695,0.105,2.365,0.315
		c0.67,0.21,1.225,0.508,1.665,0.895c0.44,0.387,0.769,0.854,0.985,1.4c0.216,0.547,0.325,1.156,0.325,1.83
		c0,0.666-0.117,1.276-0.35,1.83c-0.233,0.553-0.575,1.029-1.025,1.43c-0.45,0.399-1.008,0.712-1.675,0.935
		c-0.667,0.224-1.43,0.335-2.29,0.335H198.375z M198.375,480.018h2.3c0.553,0,1.042-0.073,1.465-0.22s0.778-0.352,1.065-0.615
		c0.287-0.263,0.503-0.578,0.65-0.944c0.146-0.367,0.22-0.771,0.22-1.21c0-0.914-0.282-1.627-0.845-2.141
		c-0.563-0.513-1.415-0.77-2.555-0.77h-2.3V480.018z"/>
	<path fill="#FFFFFF" d="M208.184,486.918v-10.13h1.02c0.193,0,0.327,0.036,0.4,0.11c0.073,0.073,0.124,0.199,0.15,0.38l0.12,1.58
		c0.347-0.707,0.775-1.259,1.285-1.655c0.51-0.396,1.108-0.595,1.795-0.595c0.28,0,0.533,0.031,0.76,0.095s0.437,0.151,0.63,0.265
		l-0.23,1.33c-0.047,0.167-0.15,0.25-0.31,0.25c-0.094,0-0.237-0.031-0.43-0.095s-0.463-0.095-0.81-0.095
		c-0.62,0-1.138,0.18-1.555,0.54c-0.417,0.359-0.765,0.883-1.045,1.569v6.45H208.184z"/>
	<path fill="#FFFFFF" d="M220.344,476.628c0.74,0,1.408,0.123,2.005,0.37s1.103,0.597,1.52,1.05c0.417,0.453,0.736,1.002,0.96,1.646
		c0.223,0.643,0.335,1.361,0.335,2.154c0,0.801-0.112,1.521-0.335,2.16c-0.224,0.641-0.543,1.187-0.96,1.641
		c-0.417,0.453-0.923,0.801-1.52,1.045c-0.597,0.243-1.265,0.364-2.005,0.364c-0.74,0-1.409-0.121-2.005-0.364
		c-0.597-0.244-1.105-0.592-1.525-1.045c-0.42-0.454-0.743-1-0.97-1.641c-0.227-0.64-0.34-1.359-0.34-2.16
		c0-0.793,0.113-1.512,0.34-2.154c0.227-0.644,0.55-1.192,0.97-1.646c0.42-0.453,0.928-0.803,1.525-1.05
		C218.936,476.751,219.604,476.628,220.344,476.628z M220.344,485.668c1,0,1.747-0.335,2.24-1.005s0.74-1.605,0.74-2.805
		c0-1.207-0.247-2.147-0.74-2.82c-0.493-0.674-1.24-1.01-2.24-1.01c-0.507,0-0.947,0.086-1.32,0.26
		c-0.373,0.173-0.685,0.423-0.935,0.75c-0.25,0.326-0.437,0.729-0.56,1.205c-0.124,0.477-0.185,1.015-0.185,1.615
		c0,0.6,0.062,1.137,0.185,1.609c0.123,0.474,0.31,0.872,0.56,1.195s0.562,0.571,0.935,0.745
		C219.397,485.581,219.837,485.668,220.344,485.668z"/>
	<path fill="#FFFFFF" d="M225.824,476.788h1.46c0.14,0,0.256,0.036,0.35,0.11c0.094,0.073,0.16,0.159,0.2,0.26l2.57,6.52
		c0.093,0.24,0.167,0.48,0.22,0.721c0.053,0.239,0.103,0.477,0.15,0.71c0.053-0.233,0.11-0.471,0.17-0.71
		c0.06-0.24,0.137-0.48,0.23-0.721l2.6-6.52c0.04-0.106,0.105-0.195,0.195-0.266c0.09-0.069,0.202-0.104,0.335-0.104h1.39
		l-4.13,10.13h-1.61L225.824,476.788z"/>
	<path fill="#FFFFFF" d="M239.724,473.608c0,0.173-0.035,0.335-0.105,0.484c-0.07,0.15-0.164,0.283-0.28,0.4
		c-0.117,0.116-0.252,0.208-0.405,0.274c-0.153,0.067-0.316,0.101-0.49,0.101s-0.335-0.033-0.485-0.101
		c-0.15-0.066-0.284-0.158-0.4-0.274c-0.117-0.117-0.208-0.25-0.275-0.4c-0.066-0.149-0.1-0.312-0.1-0.484
		c0-0.174,0.034-0.339,0.1-0.495c0.066-0.157,0.158-0.294,0.275-0.41c0.117-0.117,0.25-0.208,0.4-0.275
		c0.15-0.066,0.312-0.1,0.485-0.1s0.336,0.033,0.49,0.1c0.153,0.067,0.289,0.158,0.405,0.275c0.116,0.116,0.21,0.253,0.28,0.41
		C239.689,473.27,239.724,473.435,239.724,473.608z M239.324,476.788v10.13h-1.78v-10.13H239.324z"/>
	<path fill="#FFFFFF" d="M242.464,486.918v-10.13h1.06c0.253,0,0.413,0.123,0.48,0.37l0.14,1.1c0.44-0.486,0.931-0.88,1.475-1.18
		s1.172-0.45,1.885-0.45c0.553,0,1.042,0.092,1.465,0.275c0.423,0.183,0.777,0.443,1.06,0.779c0.283,0.337,0.498,0.742,0.645,1.216
		c0.146,0.473,0.22,0.996,0.22,1.569v6.45h-1.78v-6.45c0-0.767-0.175-1.361-0.525-1.785c-0.35-0.423-0.885-0.635-1.605-0.635
		c-0.527,0-1.019,0.127-1.475,0.38c-0.457,0.254-0.878,0.597-1.265,1.03v7.46H242.464z"/>
	<path fill="#FFFFFF" d="M260.494,478.588c-0.054,0.073-0.107,0.13-0.16,0.17c-0.054,0.04-0.13,0.061-0.23,0.061
		s-0.208-0.042-0.325-0.125c-0.117-0.084-0.265-0.176-0.445-0.275s-0.398-0.191-0.655-0.275c-0.257-0.083-0.572-0.125-0.945-0.125
		c-0.493,0-0.93,0.089-1.31,0.266c-0.38,0.177-0.698,0.432-0.955,0.765c-0.256,0.334-0.45,0.737-0.58,1.21
		c-0.13,0.474-0.195,1.004-0.195,1.59c0,0.613,0.07,1.159,0.21,1.636c0.14,0.477,0.337,0.876,0.59,1.199
		c0.253,0.324,0.562,0.57,0.925,0.74s0.771,0.255,1.225,0.255c0.433,0,0.79-0.052,1.07-0.154c0.28-0.104,0.513-0.219,0.7-0.346
		c0.187-0.126,0.34-0.241,0.46-0.345s0.24-0.155,0.36-0.155c0.153,0,0.267,0.057,0.34,0.17l0.5,0.65
		c-0.44,0.54-0.99,0.935-1.65,1.185c-0.66,0.25-1.356,0.375-2.09,0.375c-0.633,0-1.222-0.116-1.765-0.35s-1.015-0.571-1.415-1.015
		c-0.4-0.443-0.715-0.988-0.945-1.636c-0.23-0.646-0.345-1.383-0.345-2.21c0-0.753,0.105-1.449,0.315-2.09
		c0.21-0.64,0.517-1.191,0.92-1.655c0.403-0.463,0.901-0.824,1.495-1.085c0.594-0.26,1.273-0.39,2.04-0.39
		c0.707,0,1.333,0.115,1.88,0.345c0.546,0.23,1.03,0.556,1.45,0.976L260.494,478.588z"/>
	<path fill="#FFFFFF" d="M265.303,473.608c0,0.173-0.035,0.335-0.105,0.484c-0.07,0.15-0.164,0.283-0.28,0.4
		c-0.117,0.116-0.252,0.208-0.405,0.274c-0.153,0.067-0.316,0.101-0.49,0.101s-0.335-0.033-0.485-0.101
		c-0.15-0.066-0.284-0.158-0.4-0.274c-0.117-0.117-0.208-0.25-0.275-0.4c-0.066-0.149-0.1-0.312-0.1-0.484
		c0-0.174,0.034-0.339,0.1-0.495c0.066-0.157,0.158-0.294,0.275-0.41c0.117-0.117,0.25-0.208,0.4-0.275
		c0.15-0.066,0.312-0.1,0.485-0.1s0.336,0.033,0.49,0.1c0.153,0.067,0.289,0.158,0.405,0.275c0.116,0.116,0.21,0.253,0.28,0.41
		C265.269,473.27,265.303,473.435,265.303,473.608z M264.903,476.788v10.13h-1.78v-10.13H264.903z"/>
	<path fill="#FFFFFF" d="M275.483,486.918h-0.79c-0.173,0-0.313-0.026-0.42-0.08c-0.107-0.053-0.177-0.166-0.21-0.34l-0.2-0.94
		c-0.267,0.24-0.526,0.455-0.78,0.646c-0.253,0.189-0.52,0.35-0.8,0.479c-0.28,0.13-0.578,0.229-0.895,0.295
		c-0.317,0.067-0.668,0.101-1.055,0.101c-0.394,0-0.762-0.056-1.105-0.166s-0.642-0.275-0.895-0.496s-0.455-0.5-0.605-0.838
		s-0.225-0.738-0.225-1.199c0-0.401,0.11-0.788,0.33-1.159s0.575-0.7,1.065-0.988c0.49-0.288,1.131-0.523,1.925-0.708
		c0.793-0.184,1.764-0.275,2.91-0.275v-0.795c0-0.792-0.168-1.391-0.505-1.796c-0.337-0.406-0.835-0.609-1.495-0.609
		c-0.434,0-0.798,0.055-1.095,0.165c-0.297,0.11-0.554,0.233-0.77,0.37c-0.217,0.137-0.404,0.26-0.56,0.37
		c-0.157,0.109-0.312,0.165-0.465,0.165c-0.12,0-0.225-0.032-0.315-0.095c-0.09-0.063-0.162-0.142-0.215-0.235l-0.32-0.57
		c0.56-0.54,1.163-0.943,1.81-1.21c0.647-0.267,1.363-0.399,2.15-0.399c0.566,0,1.07,0.093,1.51,0.279s0.81,0.447,1.11,0.78
		c0.3,0.333,0.527,0.736,0.68,1.21s0.23,0.993,0.23,1.56V486.918z M270.863,485.828c0.313,0,0.6-0.031,0.86-0.095
		c0.26-0.063,0.505-0.153,0.735-0.271c0.23-0.116,0.45-0.258,0.66-0.425c0.21-0.167,0.415-0.356,0.615-0.57v-2.09
		c-0.82,0-1.517,0.052-2.09,0.156c-0.574,0.104-1.04,0.239-1.4,0.407c-0.36,0.168-0.622,0.365-0.785,0.594
		c-0.164,0.228-0.245,0.482-0.245,0.764c0,0.269,0.043,0.5,0.13,0.694c0.087,0.194,0.204,0.354,0.35,0.478s0.32,0.215,0.52,0.271
		C270.414,485.8,270.63,485.828,270.863,485.828z"/>
	<path fill="#FFFFFF" d="M280.163,472.188v14.73h-1.78v-14.73H280.163z"/>
	<path fill="#FFFFFF" d="M192.904,509.508c0.387,0,0.742-0.019,1.065-0.055c0.323-0.037,0.628-0.092,0.915-0.165
		s0.557-0.162,0.81-0.265c0.253-0.104,0.506-0.222,0.76-0.355v-3.16h-2.22c-0.127,0-0.229-0.036-0.305-0.109
		c-0.077-0.074-0.115-0.164-0.115-0.271v-1.1h4.4v5.5c-0.36,0.26-0.735,0.486-1.125,0.68s-0.807,0.354-1.25,0.485
		c-0.443,0.13-0.918,0.227-1.425,0.29c-0.507,0.062-1.057,0.095-1.65,0.095c-1.04,0-1.993-0.179-2.86-0.535s-1.613-0.856-2.24-1.5
		c-0.627-0.644-1.115-1.415-1.465-2.315c-0.35-0.899-0.525-1.89-0.525-2.97c0-1.093,0.172-2.09,0.515-2.99
		c0.343-0.899,0.833-1.671,1.47-2.314s1.407-1.142,2.31-1.495s1.915-0.53,3.035-0.53c0.566,0,1.093,0.042,1.58,0.125
		c0.486,0.084,0.938,0.204,1.355,0.36c0.417,0.156,0.801,0.347,1.155,0.57c0.354,0.223,0.683,0.475,0.99,0.755l-0.55,0.88
		c-0.113,0.18-0.26,0.27-0.44,0.27c-0.106,0-0.223-0.036-0.35-0.109c-0.167-0.094-0.354-0.207-0.56-0.341
		c-0.207-0.133-0.458-0.261-0.755-0.385c-0.296-0.123-0.646-0.229-1.05-0.314c-0.403-0.087-0.882-0.13-1.435-0.13
		c-0.807,0-1.537,0.131-2.19,0.395s-1.21,0.64-1.67,1.13s-0.813,1.084-1.06,1.78s-0.37,1.479-0.37,2.345
		c0,0.907,0.128,1.715,0.385,2.425c0.256,0.71,0.618,1.312,1.085,1.806c0.466,0.493,1.02,0.87,1.66,1.13
		C191.424,509.378,192.131,509.508,192.904,509.508z"/>
	<path fill="#FFFFFF" d="M205.014,500.628c0.74,0,1.408,0.123,2.005,0.37s1.103,0.597,1.52,1.05c0.417,0.453,0.736,1.002,0.96,1.646
		c0.223,0.643,0.335,1.361,0.335,2.154c0,0.801-0.112,1.521-0.335,2.16c-0.224,0.641-0.543,1.187-0.96,1.641
		c-0.417,0.453-0.923,0.801-1.52,1.045c-0.597,0.243-1.265,0.364-2.005,0.364c-0.74,0-1.409-0.121-2.005-0.364
		c-0.597-0.244-1.105-0.592-1.525-1.045c-0.42-0.454-0.743-1-0.97-1.641c-0.227-0.64-0.34-1.359-0.34-2.16
		c0-0.793,0.113-1.512,0.34-2.154c0.227-0.644,0.55-1.192,0.97-1.646c0.42-0.453,0.928-0.803,1.525-1.05
		C203.605,500.751,204.274,500.628,205.014,500.628z M205.014,509.668c1,0,1.747-0.335,2.24-1.005s0.74-1.605,0.74-2.805
		c0-1.207-0.247-2.147-0.74-2.82c-0.493-0.674-1.24-1.01-2.24-1.01c-0.507,0-0.947,0.086-1.32,0.26
		c-0.373,0.173-0.685,0.423-0.935,0.75c-0.25,0.326-0.437,0.729-0.56,1.205c-0.124,0.477-0.185,1.015-0.185,1.615
		c0,0.6,0.062,1.137,0.185,1.609c0.123,0.474,0.31,0.872,0.56,1.195s0.562,0.571,0.935,0.745
		C204.067,509.581,204.507,509.668,205.014,509.668z"/>
	<path fill="#FFFFFF" d="M210.495,500.788h1.46c0.14,0,0.256,0.036,0.35,0.11c0.094,0.073,0.16,0.159,0.2,0.26l2.57,6.52
		c0.093,0.24,0.167,0.48,0.22,0.721c0.053,0.239,0.103,0.477,0.15,0.71c0.053-0.233,0.11-0.471,0.17-0.71
		c0.06-0.24,0.137-0.48,0.23-0.721l2.6-6.52c0.04-0.106,0.105-0.195,0.195-0.266c0.09-0.069,0.202-0.104,0.335-0.104h1.39
		l-4.13,10.13h-1.61L210.495,500.788z"/>
	<path fill="#FFFFFF" d="M225.764,500.628c0.607,0,1.167,0.102,1.68,0.305c0.513,0.204,0.957,0.497,1.33,0.88
		c0.373,0.384,0.665,0.857,0.875,1.421s0.315,1.204,0.315,1.925c0,0.279-0.03,0.467-0.09,0.56c-0.06,0.094-0.174,0.141-0.34,0.141
		h-6.74c0.013,0.64,0.1,1.196,0.26,1.67c0.16,0.473,0.38,0.868,0.66,1.185c0.28,0.316,0.613,0.554,1,0.71
		c0.387,0.157,0.82,0.235,1.3,0.235c0.447,0,0.832-0.052,1.155-0.155c0.323-0.104,0.602-0.215,0.835-0.335s0.428-0.231,0.585-0.335
		s0.292-0.155,0.405-0.155c0.147,0,0.26,0.057,0.34,0.17l0.5,0.65c-0.22,0.267-0.483,0.498-0.79,0.695
		c-0.307,0.196-0.635,0.358-0.985,0.484c-0.35,0.127-0.712,0.222-1.085,0.285c-0.374,0.063-0.744,0.095-1.11,0.095
		c-0.7,0-1.345-0.118-1.935-0.354c-0.59-0.236-1.1-0.583-1.53-1.04s-0.765-1.021-1.005-1.695c-0.24-0.673-0.36-1.446-0.36-2.319
		c0-0.707,0.108-1.367,0.325-1.98s0.528-1.145,0.935-1.595s0.903-0.804,1.49-1.061C224.371,500.757,225.031,500.628,225.764,500.628
		z M225.804,501.938c-0.86,0-1.537,0.249-2.03,0.745c-0.494,0.497-0.8,1.186-0.92,2.065h5.51c0-0.413-0.057-0.792-0.17-1.135
		c-0.113-0.344-0.28-0.641-0.5-0.891s-0.488-0.443-0.805-0.58C226.573,502.007,226.211,501.938,225.804,501.938z"/>
	<path fill="#FFFFFF" d="M232.234,510.918v-10.13h1.02c0.193,0,0.327,0.036,0.4,0.11c0.073,0.073,0.124,0.199,0.15,0.38l0.12,1.58
		c0.347-0.707,0.775-1.259,1.285-1.655c0.51-0.396,1.108-0.595,1.795-0.595c0.28,0,0.533,0.031,0.76,0.095s0.437,0.151,0.63,0.265
		l-0.23,1.33c-0.047,0.167-0.15,0.25-0.31,0.25c-0.094,0-0.237-0.031-0.43-0.095s-0.463-0.095-0.81-0.095
		c-0.62,0-1.138,0.18-1.555,0.54c-0.417,0.359-0.765,0.883-1.045,1.569v6.45H232.234z"/>
	<path fill="#FFFFFF" d="M240.294,510.918v-10.13h1.06c0.253,0,0.413,0.123,0.48,0.37l0.14,1.1c0.44-0.486,0.931-0.88,1.475-1.18
		s1.172-0.45,1.885-0.45c0.553,0,1.042,0.092,1.465,0.275c0.423,0.183,0.777,0.443,1.06,0.779c0.283,0.337,0.498,0.742,0.645,1.216
		c0.146,0.473,0.22,0.996,0.22,1.569v6.45h-1.78v-6.45c0-0.767-0.175-1.361-0.525-1.785c-0.35-0.423-0.885-0.635-1.605-0.635
		c-0.527,0-1.019,0.127-1.475,0.38c-0.457,0.254-0.878,0.597-1.265,1.03v7.46H240.294z"/>
	<path fill="#FFFFFF" d="M251.414,510.918v-10.13h1.06c0.253,0,0.413,0.123,0.48,0.37l0.13,1.04c0.374-0.46,0.792-0.837,1.255-1.13
		c0.463-0.294,1.002-0.44,1.615-0.44c0.687,0,1.242,0.19,1.665,0.57s0.728,0.894,0.915,1.54c0.14-0.367,0.325-0.684,0.555-0.95
		s0.488-0.486,0.775-0.66c0.287-0.173,0.592-0.3,0.915-0.38s0.652-0.12,0.985-0.12c0.533,0,1.008,0.085,1.425,0.255
		s0.77,0.419,1.06,0.745c0.29,0.327,0.512,0.729,0.665,1.205s0.23,1.021,0.23,1.635v6.45h-1.78v-6.45
		c0-0.793-0.173-1.395-0.52-1.805s-0.85-0.615-1.51-0.615c-0.293,0-0.572,0.052-0.835,0.155c-0.264,0.104-0.495,0.255-0.695,0.455
		c-0.2,0.2-0.358,0.451-0.475,0.755s-0.175,0.655-0.175,1.055v6.45h-1.78v-6.45c0-0.813-0.164-1.42-0.49-1.819
		c-0.327-0.4-0.803-0.601-1.43-0.601c-0.44,0-0.849,0.118-1.225,0.355c-0.376,0.236-0.722,0.558-1.035,0.965v7.55H251.414z"/>
	<path fill="#FFFFFF" d="M271.843,500.628c0.607,0,1.167,0.102,1.68,0.305c0.513,0.204,0.957,0.497,1.33,0.88
		c0.373,0.384,0.665,0.857,0.875,1.421s0.315,1.204,0.315,1.925c0,0.279-0.03,0.467-0.09,0.56c-0.06,0.094-0.174,0.141-0.34,0.141
		h-6.74c0.013,0.64,0.1,1.196,0.26,1.67c0.16,0.473,0.38,0.868,0.66,1.185c0.28,0.316,0.613,0.554,1,0.71
		c0.387,0.157,0.82,0.235,1.3,0.235c0.447,0,0.832-0.052,1.155-0.155c0.323-0.104,0.602-0.215,0.835-0.335s0.428-0.231,0.585-0.335
		s0.292-0.155,0.405-0.155c0.147,0,0.26,0.057,0.34,0.17l0.5,0.65c-0.22,0.267-0.483,0.498-0.79,0.695
		c-0.307,0.196-0.635,0.358-0.985,0.484c-0.35,0.127-0.712,0.222-1.085,0.285c-0.374,0.063-0.744,0.095-1.11,0.095
		c-0.7,0-1.345-0.118-1.935-0.354c-0.59-0.236-1.1-0.583-1.53-1.04s-0.765-1.021-1.005-1.695c-0.24-0.673-0.36-1.446-0.36-2.319
		c0-0.707,0.108-1.367,0.325-1.98s0.528-1.145,0.935-1.595s0.903-0.804,1.49-1.061C270.45,500.757,271.11,500.628,271.843,500.628z
		 M271.883,501.938c-0.86,0-1.537,0.249-2.03,0.745c-0.494,0.497-0.8,1.186-0.92,2.065h5.51c0-0.413-0.057-0.792-0.17-1.135
		c-0.113-0.344-0.28-0.641-0.5-0.891s-0.488-0.443-0.805-0.58C272.652,502.007,272.29,501.938,271.883,501.938z"/>
	<path fill="#FFFFFF" d="M278.313,510.918v-10.13h1.06c0.253,0,0.413,0.123,0.48,0.37l0.14,1.1c0.44-0.486,0.931-0.88,1.475-1.18
		s1.172-0.45,1.885-0.45c0.553,0,1.042,0.092,1.465,0.275c0.423,0.183,0.777,0.443,1.06,0.779c0.283,0.337,0.498,0.742,0.645,1.216
		c0.146,0.473,0.22,0.996,0.22,1.569v6.45h-1.78v-6.45c0-0.767-0.175-1.361-0.525-1.785c-0.35-0.423-0.885-0.635-1.605-0.635
		c-0.527,0-1.019,0.127-1.475,0.38c-0.457,0.254-0.878,0.597-1.265,1.03v7.46H278.313z"/>
	<path fill="#FFFFFF" d="M292.503,511.078c-0.8,0-1.415-0.224-1.845-0.67c-0.43-0.447-0.645-1.09-0.645-1.931v-6.199h-1.22
		c-0.106,0-0.197-0.032-0.27-0.096c-0.073-0.062-0.11-0.161-0.11-0.295v-0.71l1.66-0.21l0.41-3.13c0.014-0.1,0.057-0.182,0.13-0.245
		c0.073-0.063,0.167-0.095,0.28-0.095h0.9v3.49h2.9v1.29h-2.9v6.08c0,0.427,0.104,0.743,0.31,0.949
		c0.207,0.207,0.473,0.311,0.8,0.311c0.187,0,0.348-0.025,0.485-0.075c0.136-0.05,0.255-0.105,0.355-0.165s0.185-0.115,0.255-0.165
		s0.132-0.075,0.185-0.075c0.093,0,0.177,0.057,0.25,0.17l0.52,0.851c-0.307,0.286-0.677,0.512-1.11,0.675
		C293.41,510.996,292.963,511.078,292.503,511.078z"/>
</g>
<g>
	<path fill="#FFFFFF" d="M371.811,472.653c0.083,0.043,0.178,0.132,0.285,0.265l8.3,10.8c-0.02-0.173-0.034-0.342-0.04-0.505
		c-0.007-0.163-0.01-0.321-0.01-0.475v-10.15h1.7v14.33h-0.98c-0.153,0-0.282-0.026-0.385-0.08c-0.104-0.053-0.205-0.144-0.305-0.27
		l-8.29-10.79c0.013,0.166,0.023,0.33,0.03,0.489c0.006,0.16,0.01,0.307,0.01,0.44v10.21h-1.7v-14.33h1
		C371.599,472.588,371.727,472.609,371.811,472.653z"/>
	<path fill="#FFFFFF" d="M392.705,486.918h-0.79c-0.173,0-0.313-0.026-0.42-0.08c-0.107-0.053-0.177-0.166-0.21-0.34l-0.2-0.94
		c-0.267,0.24-0.526,0.455-0.78,0.646c-0.253,0.189-0.52,0.35-0.8,0.479c-0.28,0.13-0.578,0.229-0.895,0.295
		c-0.317,0.067-0.668,0.101-1.055,0.101c-0.394,0-0.762-0.056-1.105-0.166s-0.642-0.275-0.895-0.496s-0.455-0.5-0.605-0.838
		s-0.225-0.738-0.225-1.199c0-0.401,0.11-0.788,0.33-1.159s0.575-0.7,1.065-0.988c0.49-0.288,1.131-0.523,1.925-0.708
		c0.793-0.184,1.764-0.275,2.91-0.275v-0.795c0-0.792-0.168-1.391-0.505-1.796c-0.337-0.406-0.835-0.609-1.495-0.609
		c-0.434,0-0.798,0.055-1.095,0.165c-0.297,0.11-0.554,0.233-0.77,0.37c-0.217,0.137-0.404,0.26-0.56,0.37
		c-0.157,0.109-0.312,0.165-0.465,0.165c-0.12,0-0.225-0.032-0.315-0.095c-0.09-0.063-0.162-0.142-0.215-0.235l-0.32-0.57
		c0.56-0.54,1.163-0.943,1.81-1.21c0.647-0.267,1.363-0.399,2.15-0.399c0.566,0,1.07,0.093,1.51,0.279s0.81,0.447,1.11,0.78
		c0.3,0.333,0.527,0.736,0.68,1.21s0.23,0.993,0.23,1.56V486.918z M388.085,485.828c0.313,0,0.6-0.031,0.86-0.095
		c0.26-0.063,0.505-0.153,0.735-0.271c0.23-0.116,0.45-0.258,0.66-0.425c0.21-0.167,0.415-0.356,0.615-0.57v-2.09
		c-0.82,0-1.517,0.052-2.09,0.156c-0.574,0.104-1.04,0.239-1.4,0.407c-0.36,0.168-0.622,0.365-0.785,0.594
		c-0.164,0.228-0.245,0.482-0.245,0.764c0,0.269,0.043,0.5,0.13,0.694c0.087,0.194,0.204,0.354,0.35,0.478s0.32,0.215,0.52,0.271
		C387.635,485.8,387.852,485.828,388.085,485.828z"/>
	<path fill="#FFFFFF" d="M398.475,487.078c-0.8,0-1.415-0.224-1.845-0.67c-0.43-0.447-0.645-1.09-0.645-1.931v-6.199h-1.22
		c-0.106,0-0.197-0.032-0.27-0.096c-0.073-0.062-0.11-0.161-0.11-0.295v-0.71l1.66-0.21l0.41-3.13c0.014-0.1,0.057-0.182,0.13-0.245
		c0.073-0.063,0.167-0.095,0.28-0.095h0.9v3.49h2.9v1.29h-2.9v6.08c0,0.427,0.104,0.743,0.31,0.949
		c0.207,0.207,0.473,0.311,0.8,0.311c0.187,0,0.348-0.025,0.485-0.075c0.136-0.05,0.255-0.105,0.355-0.165s0.185-0.115,0.255-0.165
		s0.132-0.075,0.185-0.075c0.093,0,0.177,0.057,0.25,0.17l0.52,0.851c-0.307,0.286-0.677,0.512-1.11,0.675
		C399.381,486.996,398.935,487.078,398.475,487.078z"/>
	<path fill="#FFFFFF" d="M405.245,473.608c0,0.173-0.035,0.335-0.105,0.484c-0.07,0.15-0.164,0.283-0.28,0.4
		c-0.117,0.116-0.252,0.208-0.405,0.274c-0.153,0.067-0.316,0.101-0.49,0.101s-0.335-0.033-0.485-0.101
		c-0.15-0.066-0.284-0.158-0.4-0.274c-0.117-0.117-0.208-0.25-0.275-0.4c-0.066-0.149-0.1-0.312-0.1-0.484
		c0-0.174,0.034-0.339,0.1-0.495c0.066-0.157,0.158-0.294,0.275-0.41c0.117-0.117,0.25-0.208,0.4-0.275
		c0.15-0.066,0.312-0.1,0.485-0.1s0.336,0.033,0.49,0.1c0.153,0.067,0.289,0.158,0.405,0.275c0.116,0.116,0.21,0.253,0.28,0.41
		C405.21,473.27,405.245,473.435,405.245,473.608z M404.845,476.788v10.13h-1.78v-10.13H404.845z"/>
	<path fill="#FFFFFF" d="M412.084,476.628c0.74,0,1.408,0.123,2.005,0.37s1.103,0.597,1.52,1.05c0.417,0.453,0.736,1.002,0.96,1.646
		c0.223,0.643,0.335,1.361,0.335,2.154c0,0.801-0.112,1.521-0.335,2.16c-0.224,0.641-0.543,1.187-0.96,1.641
		c-0.417,0.453-0.923,0.801-1.52,1.045c-0.597,0.243-1.265,0.364-2.005,0.364c-0.74,0-1.409-0.121-2.005-0.364
		c-0.597-0.244-1.105-0.592-1.525-1.045c-0.42-0.454-0.743-1-0.97-1.641c-0.227-0.64-0.34-1.359-0.34-2.16
		c0-0.793,0.113-1.512,0.34-2.154c0.227-0.644,0.55-1.192,0.97-1.646c0.42-0.453,0.928-0.803,1.525-1.05
		C410.676,476.751,411.344,476.628,412.084,476.628z M412.084,485.668c1,0,1.747-0.335,2.24-1.005s0.74-1.605,0.74-2.805
		c0-1.207-0.247-2.147-0.74-2.82c-0.493-0.674-1.24-1.01-2.24-1.01c-0.507,0-0.947,0.086-1.32,0.26
		c-0.373,0.173-0.685,0.423-0.935,0.75c-0.25,0.326-0.437,0.729-0.56,1.205c-0.124,0.477-0.185,1.015-0.185,1.615
		c0,0.6,0.062,1.137,0.185,1.609c0.123,0.474,0.31,0.872,0.56,1.195s0.562,0.571,0.935,0.745
		C411.138,485.581,411.578,485.668,412.084,485.668z"/>
	<path fill="#FFFFFF" d="M419.104,486.918v-10.13h1.06c0.253,0,0.413,0.123,0.48,0.37l0.14,1.1c0.44-0.486,0.931-0.88,1.475-1.18
		s1.172-0.45,1.885-0.45c0.553,0,1.042,0.092,1.465,0.275c0.423,0.183,0.777,0.443,1.06,0.779c0.283,0.337,0.498,0.742,0.645,1.216
		c0.146,0.473,0.22,0.996,0.22,1.569v6.45h-1.78v-6.45c0-0.767-0.175-1.361-0.525-1.785c-0.35-0.423-0.885-0.635-1.605-0.635
		c-0.527,0-1.019,0.127-1.475,0.38c-0.457,0.254-0.878,0.597-1.265,1.03v7.46H419.104z"/>
	<path fill="#FFFFFF" d="M437.664,486.918h-0.79c-0.173,0-0.313-0.026-0.42-0.08c-0.107-0.053-0.177-0.166-0.21-0.34l-0.2-0.94
		c-0.267,0.24-0.526,0.455-0.78,0.646c-0.253,0.189-0.52,0.35-0.8,0.479c-0.28,0.13-0.578,0.229-0.895,0.295
		c-0.317,0.067-0.668,0.101-1.055,0.101c-0.394,0-0.762-0.056-1.105-0.166s-0.642-0.275-0.895-0.496s-0.455-0.5-0.605-0.838
		s-0.225-0.738-0.225-1.199c0-0.401,0.11-0.788,0.33-1.159s0.575-0.7,1.065-0.988c0.49-0.288,1.131-0.523,1.925-0.708
		c0.793-0.184,1.764-0.275,2.91-0.275v-0.795c0-0.792-0.168-1.391-0.505-1.796c-0.337-0.406-0.835-0.609-1.495-0.609
		c-0.434,0-0.798,0.055-1.095,0.165c-0.297,0.11-0.554,0.233-0.77,0.37c-0.217,0.137-0.404,0.26-0.56,0.37
		c-0.157,0.109-0.312,0.165-0.465,0.165c-0.12,0-0.225-0.032-0.315-0.095c-0.09-0.063-0.162-0.142-0.215-0.235l-0.32-0.57
		c0.56-0.54,1.163-0.943,1.81-1.21c0.647-0.267,1.363-0.399,2.15-0.399c0.566,0,1.07,0.093,1.51,0.279s0.81,0.447,1.11,0.78
		c0.3,0.333,0.527,0.736,0.68,1.21s0.23,0.993,0.23,1.56V486.918z M433.044,485.828c0.313,0,0.6-0.031,0.86-0.095
		c0.26-0.063,0.505-0.153,0.735-0.271c0.23-0.116,0.45-0.258,0.66-0.425c0.21-0.167,0.415-0.356,0.615-0.57v-2.09
		c-0.82,0-1.517,0.052-2.09,0.156c-0.574,0.104-1.04,0.239-1.4,0.407c-0.36,0.168-0.622,0.365-0.785,0.594
		c-0.164,0.228-0.245,0.482-0.245,0.764c0,0.269,0.043,0.5,0.13,0.694c0.087,0.194,0.204,0.354,0.35,0.478s0.32,0.215,0.52,0.271
		C432.594,485.8,432.811,485.828,433.044,485.828z"/>
	<path fill="#FFFFFF" d="M442.345,472.188v14.73h-1.78v-14.73H442.345z"/>
	<path fill="#FFFFFF" d="M359.155,509.508c0.387,0,0.742-0.019,1.065-0.055c0.323-0.037,0.628-0.092,0.915-0.165
		s0.557-0.162,0.81-0.265c0.253-0.104,0.506-0.222,0.76-0.355v-3.16h-2.22c-0.127,0-0.229-0.036-0.305-0.109
		c-0.077-0.074-0.115-0.164-0.115-0.271v-1.1h4.4v5.5c-0.36,0.26-0.735,0.486-1.125,0.68s-0.807,0.354-1.25,0.485
		c-0.443,0.13-0.918,0.227-1.425,0.29c-0.507,0.062-1.057,0.095-1.65,0.095c-1.04,0-1.993-0.179-2.86-0.535s-1.613-0.856-2.24-1.5
		c-0.627-0.644-1.115-1.415-1.465-2.315c-0.35-0.899-0.525-1.89-0.525-2.97c0-1.093,0.172-2.09,0.515-2.99
		c0.343-0.899,0.833-1.671,1.47-2.314s1.407-1.142,2.31-1.495s1.915-0.53,3.035-0.53c0.566,0,1.093,0.042,1.58,0.125
		c0.486,0.084,0.938,0.204,1.355,0.36c0.417,0.156,0.801,0.347,1.155,0.57c0.354,0.223,0.683,0.475,0.99,0.755l-0.55,0.88
		c-0.113,0.18-0.26,0.27-0.44,0.27c-0.106,0-0.223-0.036-0.35-0.109c-0.167-0.094-0.354-0.207-0.56-0.341
		c-0.207-0.133-0.458-0.261-0.755-0.385c-0.296-0.123-0.646-0.229-1.05-0.314c-0.403-0.087-0.882-0.13-1.435-0.13
		c-0.807,0-1.537,0.131-2.19,0.395s-1.21,0.64-1.67,1.13s-0.813,1.084-1.06,1.78s-0.37,1.479-0.37,2.345
		c0,0.907,0.128,1.715,0.385,2.425c0.256,0.71,0.618,1.312,1.085,1.806c0.466,0.493,1.02,0.87,1.66,1.13
		C357.675,509.378,358.382,509.508,359.155,509.508z"/>
	<path fill="#FFFFFF" d="M371.265,500.628c0.74,0,1.408,0.123,2.005,0.37s1.103,0.597,1.52,1.05c0.417,0.453,0.736,1.002,0.96,1.646
		c0.223,0.643,0.335,1.361,0.335,2.154c0,0.801-0.112,1.521-0.335,2.16c-0.224,0.641-0.543,1.187-0.96,1.641
		c-0.417,0.453-0.923,0.801-1.52,1.045c-0.597,0.243-1.265,0.364-2.005,0.364c-0.74,0-1.409-0.121-2.005-0.364
		c-0.597-0.244-1.105-0.592-1.525-1.045c-0.42-0.454-0.743-1-0.97-1.641c-0.227-0.64-0.34-1.359-0.34-2.16
		c0-0.793,0.113-1.512,0.34-2.154c0.227-0.644,0.55-1.192,0.97-1.646c0.42-0.453,0.928-0.803,1.525-1.05
		C369.856,500.751,370.525,500.628,371.265,500.628z M371.265,509.668c1,0,1.747-0.335,2.24-1.005s0.74-1.605,0.74-2.805
		c0-1.207-0.247-2.147-0.74-2.82c-0.493-0.674-1.24-1.01-2.24-1.01c-0.507,0-0.947,0.086-1.32,0.26
		c-0.373,0.173-0.685,0.423-0.935,0.75c-0.25,0.326-0.437,0.729-0.56,1.205c-0.124,0.477-0.185,1.015-0.185,1.615
		c0,0.6,0.062,1.137,0.185,1.609c0.123,0.474,0.31,0.872,0.56,1.195s0.562,0.571,0.935,0.745
		C370.318,509.581,370.758,509.668,371.265,509.668z"/>
	<path fill="#FFFFFF" d="M376.746,500.788h1.46c0.14,0,0.256,0.036,0.35,0.11c0.094,0.073,0.16,0.159,0.2,0.26l2.57,6.52
		c0.093,0.24,0.167,0.48,0.22,0.721c0.053,0.239,0.103,0.477,0.15,0.71c0.053-0.233,0.11-0.471,0.17-0.71
		c0.06-0.24,0.137-0.48,0.23-0.721l2.6-6.52c0.04-0.106,0.105-0.195,0.195-0.266c0.09-0.069,0.202-0.104,0.335-0.104h1.39
		l-4.13,10.13h-1.61L376.746,500.788z"/>
	<path fill="#FFFFFF" d="M392.015,500.628c0.607,0,1.167,0.102,1.68,0.305c0.513,0.204,0.957,0.497,1.33,0.88
		c0.373,0.384,0.665,0.857,0.875,1.421s0.315,1.204,0.315,1.925c0,0.279-0.03,0.467-0.09,0.56c-0.06,0.094-0.174,0.141-0.34,0.141
		h-6.74c0.013,0.64,0.1,1.196,0.26,1.67c0.16,0.473,0.38,0.868,0.66,1.185c0.28,0.316,0.613,0.554,1,0.71
		c0.387,0.157,0.82,0.235,1.3,0.235c0.447,0,0.832-0.052,1.155-0.155c0.323-0.104,0.602-0.215,0.835-0.335s0.428-0.231,0.585-0.335
		s0.292-0.155,0.405-0.155c0.147,0,0.26,0.057,0.34,0.17l0.5,0.65c-0.22,0.267-0.483,0.498-0.79,0.695
		c-0.307,0.196-0.635,0.358-0.985,0.484c-0.35,0.127-0.712,0.222-1.085,0.285c-0.374,0.063-0.744,0.095-1.11,0.095
		c-0.7,0-1.345-0.118-1.935-0.354c-0.59-0.236-1.1-0.583-1.53-1.04s-0.765-1.021-1.005-1.695c-0.24-0.673-0.36-1.446-0.36-2.319
		c0-0.707,0.108-1.367,0.325-1.98s0.528-1.145,0.935-1.595s0.903-0.804,1.49-1.061C390.622,500.757,391.282,500.628,392.015,500.628
		z M392.055,501.938c-0.86,0-1.537,0.249-2.03,0.745c-0.494,0.497-0.8,1.186-0.92,2.065h5.51c0-0.413-0.057-0.792-0.17-1.135
		c-0.113-0.344-0.28-0.641-0.5-0.891s-0.488-0.443-0.805-0.58C392.824,502.007,392.462,501.938,392.055,501.938z"/>
	<path fill="#FFFFFF" d="M398.485,510.918v-10.13h1.02c0.193,0,0.327,0.036,0.4,0.11c0.073,0.073,0.124,0.199,0.15,0.38l0.12,1.58
		c0.347-0.707,0.775-1.259,1.285-1.655c0.51-0.396,1.108-0.595,1.795-0.595c0.28,0,0.533,0.031,0.76,0.095s0.437,0.151,0.63,0.265
		l-0.23,1.33c-0.047,0.167-0.15,0.25-0.31,0.25c-0.094,0-0.237-0.031-0.43-0.095s-0.463-0.095-0.81-0.095
		c-0.62,0-1.138,0.18-1.555,0.54c-0.417,0.359-0.765,0.883-1.045,1.569v6.45H398.485z"/>
	<path fill="#FFFFFF" d="M406.545,510.918v-10.13h1.06c0.253,0,0.413,0.123,0.48,0.37l0.14,1.1c0.44-0.486,0.931-0.88,1.475-1.18
		s1.172-0.45,1.885-0.45c0.553,0,1.042,0.092,1.465,0.275c0.423,0.183,0.777,0.443,1.06,0.779c0.283,0.337,0.498,0.742,0.645,1.216
		c0.146,0.473,0.22,0.996,0.22,1.569v6.45h-1.78v-6.45c0-0.767-0.175-1.361-0.525-1.785c-0.35-0.423-0.885-0.635-1.605-0.635
		c-0.527,0-1.019,0.127-1.475,0.38c-0.457,0.254-0.878,0.597-1.265,1.03v7.46H406.545z"/>
	<path fill="#FFFFFF" d="M417.665,510.918v-10.13h1.06c0.253,0,0.413,0.123,0.48,0.37l0.13,1.04c0.374-0.46,0.792-0.837,1.255-1.13
		c0.463-0.294,1.002-0.44,1.615-0.44c0.687,0,1.242,0.19,1.665,0.57s0.728,0.894,0.915,1.54c0.14-0.367,0.325-0.684,0.555-0.95
		s0.488-0.486,0.775-0.66c0.287-0.173,0.592-0.3,0.915-0.38s0.652-0.12,0.985-0.12c0.533,0,1.008,0.085,1.425,0.255
		s0.77,0.419,1.06,0.745c0.29,0.327,0.512,0.729,0.665,1.205s0.23,1.021,0.23,1.635v6.45h-1.78v-6.45
		c0-0.793-0.173-1.395-0.52-1.805s-0.85-0.615-1.51-0.615c-0.293,0-0.572,0.052-0.835,0.155c-0.264,0.104-0.495,0.255-0.695,0.455
		c-0.2,0.2-0.358,0.451-0.475,0.755s-0.175,0.655-0.175,1.055v6.45h-1.78v-6.45c0-0.813-0.164-1.42-0.49-1.819
		c-0.327-0.4-0.803-0.601-1.43-0.601c-0.44,0-0.849,0.118-1.225,0.355c-0.376,0.236-0.722,0.558-1.035,0.965v7.55H417.665z"/>
	<path fill="#FFFFFF" d="M438.094,500.628c0.607,0,1.168,0.102,1.682,0.305c0.512,0.204,0.955,0.497,1.328,0.88
		c0.375,0.384,0.666,0.857,0.875,1.421c0.211,0.563,0.316,1.204,0.316,1.925c0,0.279-0.031,0.467-0.09,0.56
		c-0.061,0.094-0.174,0.141-0.34,0.141h-6.741c0.013,0.64,0.1,1.196,0.26,1.67c0.16,0.473,0.38,0.868,0.66,1.185
		c0.28,0.316,0.613,0.554,1,0.71c0.387,0.157,0.82,0.235,1.299,0.235c0.447,0,0.832-0.052,1.156-0.155
		c0.322-0.104,0.602-0.215,0.834-0.335c0.234-0.12,0.43-0.231,0.586-0.335s0.291-0.155,0.404-0.155c0.146,0,0.26,0.057,0.34,0.17
		l0.5,0.65c-0.219,0.267-0.482,0.498-0.789,0.695c-0.307,0.196-0.635,0.358-0.986,0.484c-0.35,0.127-0.711,0.222-1.084,0.285
		s-0.744,0.095-1.11,0.095c-0.7,0-1.345-0.118-1.935-0.354c-0.59-0.236-1.1-0.583-1.53-1.04s-0.765-1.021-1.005-1.695
		c-0.24-0.673-0.36-1.446-0.36-2.319c0-0.707,0.108-1.367,0.325-1.98s0.528-1.145,0.935-1.595s0.903-0.804,1.49-1.061
		C436.701,500.757,437.361,500.628,438.094,500.628z M438.135,501.938c-0.86,0-1.537,0.249-2.03,0.745
		c-0.494,0.497-0.8,1.186-0.92,2.065h5.511c0-0.413-0.057-0.792-0.17-1.135c-0.115-0.344-0.281-0.641-0.5-0.891
		c-0.221-0.25-0.49-0.443-0.807-0.58C438.902,502.007,438.541,501.938,438.135,501.938z"/>
	<path fill="#FFFFFF" d="M444.564,510.918v-10.13h1.06c0.254,0,0.414,0.123,0.48,0.37l0.14,1.1c0.44-0.486,0.932-0.88,1.476-1.18
		c0.543-0.3,1.171-0.45,1.885-0.45c0.553,0,1.041,0.092,1.465,0.275c0.424,0.183,0.776,0.443,1.061,0.779
		c0.283,0.337,0.498,0.742,0.645,1.216c0.146,0.473,0.22,0.996,0.22,1.569v6.45h-1.779v-6.45c0-0.767-0.176-1.361-0.525-1.785
		c-0.35-0.423-0.885-0.635-1.605-0.635c-0.526,0-1.018,0.127-1.475,0.38c-0.457,0.254-0.878,0.597-1.265,1.03v7.46H444.564z"/>
	<path fill="#FFFFFF" d="M458.754,511.078c-0.801,0-1.415-0.224-1.846-0.67c-0.43-0.447-0.645-1.09-0.645-1.931v-6.199h-1.22
		c-0.107,0-0.197-0.032-0.271-0.096c-0.073-0.062-0.109-0.161-0.109-0.295v-0.71l1.659-0.21l0.41-3.13
		c0.014-0.1,0.057-0.182,0.13-0.245s0.167-0.095,0.28-0.095h0.9v3.49h2.899v1.29h-2.899v6.08c0,0.427,0.103,0.743,0.31,0.949
		c0.207,0.207,0.474,0.311,0.8,0.311c0.187,0,0.349-0.025,0.485-0.075s0.255-0.105,0.354-0.165c0.101-0.06,0.186-0.115,0.256-0.165
		c0.069-0.05,0.131-0.075,0.185-0.075c0.093,0,0.177,0.057,0.25,0.17l0.52,0.851c-0.307,0.286-0.677,0.512-1.109,0.675
		C459.66,510.996,459.214,511.078,458.754,511.078z"/>
</g>
<g>
	<path fill="#FFFFFF" d="M560.966,474.828c-0.061,0.1-0.124,0.175-0.19,0.225s-0.153,0.075-0.26,0.075
		c-0.113,0-0.245-0.057-0.395-0.17c-0.15-0.113-0.341-0.238-0.57-0.375c-0.23-0.137-0.507-0.262-0.83-0.375s-0.715-0.17-1.175-0.17
		c-0.434,0-0.817,0.059-1.15,0.175c-0.333,0.117-0.611,0.275-0.835,0.475c-0.224,0.2-0.392,0.436-0.505,0.705
		c-0.113,0.271-0.17,0.562-0.17,0.875c0,0.4,0.099,0.732,0.295,0.995c0.196,0.264,0.457,0.488,0.78,0.675
		c0.323,0.188,0.689,0.349,1.1,0.485s0.83,0.278,1.26,0.425c0.431,0.147,0.851,0.312,1.261,0.495c0.409,0.184,0.776,0.415,1.1,0.695
		s0.583,0.623,0.78,1.03c0.196,0.406,0.295,0.906,0.295,1.5c0,0.626-0.106,1.215-0.32,1.765c-0.213,0.55-0.524,1.028-0.935,1.435
		c-0.41,0.407-0.914,0.728-1.511,0.96c-0.597,0.233-1.274,0.351-2.034,0.351c-0.927,0-1.772-0.168-2.535-0.505
		c-0.764-0.337-1.415-0.792-1.955-1.365l0.56-0.92c0.054-0.073,0.118-0.135,0.195-0.186c0.076-0.05,0.161-0.074,0.255-0.074
		c0.141,0,0.3,0.074,0.48,0.225c0.18,0.15,0.404,0.315,0.675,0.495c0.27,0.18,0.597,0.345,0.979,0.495
		c0.384,0.149,0.852,0.225,1.405,0.225c0.46,0,0.87-0.063,1.23-0.189c0.359-0.127,0.665-0.306,0.915-0.535
		c0.25-0.23,0.441-0.505,0.574-0.825c0.134-0.32,0.2-0.677,0.2-1.07c0-0.433-0.099-0.788-0.295-1.064s-0.455-0.509-0.775-0.695
		c-0.319-0.187-0.685-0.345-1.095-0.475s-0.83-0.264-1.26-0.4s-0.85-0.295-1.26-0.475c-0.41-0.181-0.775-0.414-1.096-0.7
		c-0.319-0.287-0.578-0.646-0.774-1.075c-0.197-0.43-0.295-0.962-0.295-1.595c0-0.507,0.098-0.997,0.295-1.47
		c0.196-0.474,0.481-0.894,0.854-1.261c0.374-0.366,0.835-0.66,1.386-0.88c0.55-0.22,1.182-0.33,1.895-0.33
		c0.8,0,1.53,0.127,2.19,0.38c0.659,0.254,1.236,0.62,1.729,1.101L560.966,474.828z"/>
	<path fill="#FFFFFF" d="M567.016,487.078c-0.801,0-1.415-0.224-1.846-0.67c-0.43-0.447-0.645-1.09-0.645-1.931v-6.199h-1.22
		c-0.107,0-0.197-0.032-0.271-0.096c-0.073-0.062-0.109-0.161-0.109-0.295v-0.71l1.659-0.21l0.41-3.13
		c0.014-0.1,0.057-0.182,0.13-0.245s0.167-0.095,0.28-0.095h0.9v3.49h2.899v1.29h-2.899v6.08c0,0.427,0.103,0.743,0.31,0.949
		c0.207,0.207,0.474,0.311,0.8,0.311c0.187,0,0.349-0.025,0.485-0.075s0.255-0.105,0.354-0.165c0.101-0.06,0.186-0.115,0.256-0.165
		c0.069-0.05,0.131-0.075,0.185-0.075c0.093,0,0.177,0.057,0.25,0.17l0.52,0.851c-0.307,0.286-0.677,0.512-1.109,0.675
		C567.922,486.996,567.476,487.078,567.016,487.078z"/>
	<path fill="#FFFFFF" d="M578.846,486.918h-0.79c-0.174,0-0.313-0.026-0.421-0.08c-0.106-0.053-0.176-0.166-0.21-0.34l-0.199-0.94
		c-0.267,0.24-0.527,0.455-0.78,0.646c-0.254,0.189-0.521,0.35-0.8,0.479c-0.28,0.13-0.579,0.229-0.896,0.295
		c-0.316,0.067-0.668,0.101-1.055,0.101c-0.394,0-0.762-0.056-1.105-0.166c-0.343-0.11-0.642-0.275-0.895-0.496
		c-0.254-0.221-0.455-0.5-0.605-0.838c-0.149-0.338-0.225-0.738-0.225-1.199c0-0.401,0.11-0.788,0.33-1.159s0.575-0.7,1.065-0.988
		c0.489-0.288,1.131-0.523,1.925-0.708c0.793-0.184,1.763-0.275,2.91-0.275v-0.795c0-0.792-0.169-1.391-0.506-1.796
		c-0.336-0.406-0.835-0.609-1.494-0.609c-0.434,0-0.799,0.055-1.096,0.165s-0.553,0.233-0.77,0.37s-0.403,0.26-0.561,0.37
		c-0.156,0.109-0.312,0.165-0.465,0.165c-0.12,0-0.225-0.032-0.314-0.095c-0.09-0.063-0.162-0.142-0.215-0.235l-0.32-0.57
		c0.56-0.54,1.163-0.943,1.81-1.21s1.363-0.399,2.15-0.399c0.566,0,1.069,0.093,1.51,0.279s0.81,0.447,1.11,0.78
		c0.3,0.333,0.526,0.736,0.68,1.21s0.23,0.993,0.23,1.56V486.918z M574.226,485.828c0.312,0,0.6-0.031,0.859-0.095
		c0.261-0.063,0.505-0.153,0.735-0.271c0.229-0.116,0.45-0.258,0.66-0.425s0.415-0.356,0.615-0.57v-2.09
		c-0.82,0-1.518,0.052-2.091,0.156c-0.573,0.104-1.04,0.239-1.399,0.407c-0.36,0.168-0.622,0.365-0.785,0.594
		c-0.163,0.228-0.245,0.482-0.245,0.764c0,0.269,0.043,0.5,0.13,0.694s0.203,0.354,0.351,0.478c0.146,0.124,0.319,0.215,0.52,0.271
		C573.775,485.8,573.992,485.828,574.226,485.828z"/>
	<path fill="#FFFFFF" d="M584.615,487.078c-0.801,0-1.415-0.224-1.846-0.67c-0.43-0.447-0.645-1.09-0.645-1.931v-6.199h-1.22
		c-0.107,0-0.197-0.032-0.271-0.096c-0.073-0.062-0.109-0.161-0.109-0.295v-0.71l1.659-0.21l0.41-3.13
		c0.014-0.1,0.057-0.182,0.13-0.245s0.167-0.095,0.28-0.095h0.9v3.49h2.899v1.29h-2.899v6.08c0,0.427,0.103,0.743,0.31,0.949
		c0.207,0.207,0.474,0.311,0.8,0.311c0.187,0,0.349-0.025,0.485-0.075s0.255-0.105,0.354-0.165c0.101-0.06,0.186-0.115,0.256-0.165
		c0.069-0.05,0.131-0.075,0.185-0.075c0.093,0,0.177,0.057,0.25,0.17l0.52,0.851c-0.307,0.286-0.677,0.512-1.109,0.675
		C585.521,486.996,585.075,487.078,584.615,487.078z"/>
	<path fill="#FFFFFF" d="M593.015,476.628c0.606,0,1.167,0.102,1.681,0.305c0.513,0.204,0.956,0.497,1.329,0.88
		c0.374,0.384,0.665,0.857,0.875,1.421s0.315,1.204,0.315,1.925c0,0.279-0.03,0.467-0.09,0.56c-0.061,0.094-0.174,0.141-0.34,0.141
		h-6.74c0.014,0.64,0.1,1.196,0.26,1.67c0.16,0.473,0.38,0.868,0.66,1.185s0.613,0.554,1,0.71c0.387,0.157,0.82,0.235,1.3,0.235
		c0.446,0,0.832-0.052,1.155-0.155s0.602-0.215,0.835-0.335s0.429-0.231,0.585-0.335s0.292-0.155,0.405-0.155
		c0.146,0,0.26,0.057,0.34,0.17l0.5,0.65c-0.22,0.267-0.483,0.498-0.79,0.695c-0.307,0.196-0.635,0.358-0.985,0.484
		c-0.35,0.127-0.712,0.222-1.085,0.285s-0.743,0.095-1.109,0.095c-0.7,0-1.346-0.118-1.936-0.354s-1.1-0.583-1.53-1.04
		c-0.43-0.457-0.765-1.021-1.005-1.695c-0.239-0.673-0.359-1.446-0.359-2.319c0-0.707,0.108-1.367,0.325-1.98
		c0.216-0.613,0.528-1.145,0.935-1.595s0.903-0.804,1.49-1.061C591.621,476.757,592.281,476.628,593.015,476.628z M593.055,477.938
		c-0.859,0-1.536,0.249-2.03,0.745c-0.493,0.497-0.8,1.186-0.92,2.065h5.511c0-0.413-0.057-0.792-0.17-1.135
		c-0.114-0.344-0.28-0.641-0.5-0.891c-0.221-0.25-0.489-0.443-0.806-0.58C593.823,478.007,593.461,477.938,593.055,477.938z"/>
	<path fill="#FFFFFF" d="M616.934,479.758c0,1.073-0.17,2.059-0.51,2.955s-0.82,1.669-1.44,2.315s-1.364,1.148-2.234,1.505
		s-1.832,0.535-2.886,0.535c-1.053,0-2.013-0.179-2.88-0.535c-0.866-0.356-1.609-0.858-2.229-1.505s-1.101-1.419-1.44-2.315
		s-0.51-1.882-0.51-2.955s0.17-2.059,0.51-2.955s0.82-1.67,1.44-2.319c0.62-0.65,1.363-1.155,2.229-1.516
		c0.867-0.359,1.827-0.54,2.88-0.54c1.054,0,2.016,0.181,2.886,0.54c0.87,0.36,1.614,0.865,2.234,1.516
		c0.62,0.649,1.101,1.423,1.44,2.319S616.934,478.685,616.934,479.758z M614.943,479.758c0-0.88-0.12-1.67-0.359-2.37
		c-0.24-0.7-0.58-1.291-1.021-1.774c-0.439-0.483-0.974-0.855-1.6-1.115c-0.627-0.26-1.327-0.39-2.101-0.39
		c-0.767,0-1.463,0.13-2.09,0.39c-0.626,0.26-1.161,0.632-1.604,1.115s-0.785,1.074-1.025,1.774s-0.359,1.49-0.359,2.37
		s0.119,1.669,0.359,2.365s0.582,1.287,1.025,1.77c0.443,0.483,0.979,0.854,1.604,1.11c0.627,0.257,1.323,0.385,2.09,0.385
		c0.773,0,1.474-0.128,2.101-0.385c0.626-0.257,1.16-0.627,1.6-1.11c0.44-0.482,0.78-1.073,1.021-1.77
		C614.823,481.427,614.943,480.638,614.943,479.758z"/>
	<path fill="#FFFFFF" d="M617.983,476.788h1.4c0.146,0,0.267,0.036,0.36,0.11c0.093,0.073,0.156,0.159,0.189,0.26l1.94,6.52
		c0.053,0.24,0.103,0.472,0.149,0.695s0.087,0.448,0.12,0.675c0.054-0.227,0.113-0.451,0.18-0.675
		c0.067-0.224,0.137-0.455,0.211-0.695l2.14-6.56c0.033-0.101,0.092-0.184,0.175-0.25s0.188-0.101,0.315-0.101h0.77
		c0.134,0,0.243,0.034,0.33,0.101s0.146,0.149,0.18,0.25l2.09,6.56c0.073,0.233,0.139,0.464,0.195,0.69s0.111,0.45,0.165,0.67
		c0.033-0.22,0.076-0.45,0.13-0.69c0.054-0.239,0.11-0.463,0.17-0.67l1.98-6.52c0.033-0.106,0.097-0.195,0.189-0.266
		c0.094-0.069,0.203-0.104,0.33-0.104h1.34l-3.279,10.13h-1.41c-0.174,0-0.294-0.113-0.36-0.34l-2.239-6.87
		c-0.054-0.153-0.098-0.309-0.131-0.465c-0.033-0.157-0.066-0.312-0.1-0.465c-0.033,0.153-0.066,0.31-0.1,0.47
		c-0.034,0.16-0.077,0.316-0.131,0.47l-2.27,6.86c-0.073,0.227-0.21,0.34-0.41,0.34h-1.34L617.983,476.788z"/>
	<path fill="#FFFFFF" d="M634.623,486.918v-10.13h1.06c0.254,0,0.414,0.123,0.48,0.37l0.14,1.1c0.44-0.486,0.932-0.88,1.476-1.18
		c0.543-0.3,1.171-0.45,1.885-0.45c0.553,0,1.041,0.092,1.465,0.275c0.424,0.183,0.776,0.443,1.061,0.779
		c0.283,0.337,0.498,0.742,0.645,1.216c0.146,0.473,0.22,0.996,0.22,1.569v6.45h-1.779v-6.45c0-0.767-0.176-1.361-0.525-1.785
		c-0.35-0.423-0.885-0.635-1.605-0.635c-0.526,0-1.018,0.127-1.475,0.38c-0.457,0.254-0.878,0.597-1.265,1.03v7.46H634.623z"/>
	<path fill="#FFFFFF" d="M649.753,476.628c0.606,0,1.167,0.102,1.681,0.305c0.513,0.204,0.956,0.497,1.329,0.88
		c0.374,0.384,0.665,0.857,0.875,1.421s0.315,1.204,0.315,1.925c0,0.279-0.03,0.467-0.09,0.56c-0.061,0.094-0.174,0.141-0.34,0.141
		h-6.74c0.014,0.64,0.1,1.196,0.26,1.67c0.16,0.473,0.38,0.868,0.66,1.185s0.613,0.554,1,0.71c0.387,0.157,0.82,0.235,1.3,0.235
		c0.446,0,0.832-0.052,1.155-0.155s0.602-0.215,0.835-0.335s0.429-0.231,0.585-0.335s0.292-0.155,0.405-0.155
		c0.146,0,0.26,0.057,0.34,0.17l0.5,0.65c-0.22,0.267-0.483,0.498-0.79,0.695c-0.307,0.196-0.635,0.358-0.985,0.484
		c-0.35,0.127-0.712,0.222-1.085,0.285s-0.743,0.095-1.109,0.095c-0.7,0-1.346-0.118-1.936-0.354s-1.1-0.583-1.53-1.04
		c-0.43-0.457-0.765-1.021-1.005-1.695c-0.239-0.673-0.359-1.446-0.359-2.319c0-0.707,0.108-1.367,0.325-1.98
		c0.216-0.613,0.528-1.145,0.935-1.595s0.903-0.804,1.49-1.061C648.359,476.757,649.02,476.628,649.753,476.628z M649.793,477.938
		c-0.859,0-1.536,0.249-2.03,0.745c-0.493,0.497-0.8,1.186-0.92,2.065h5.511c0-0.413-0.057-0.792-0.17-1.135
		c-0.114-0.344-0.28-0.641-0.5-0.891c-0.221-0.25-0.489-0.443-0.806-0.58C650.562,478.007,650.199,477.938,649.793,477.938z"/>
	<path fill="#FFFFFF" d="M663.353,486.918c-0.253,0-0.413-0.123-0.479-0.37l-0.16-1.229c-0.434,0.526-0.929,0.948-1.485,1.265
		s-1.195,0.475-1.915,0.475c-0.58,0-1.106-0.111-1.58-0.335c-0.474-0.223-0.877-0.551-1.21-0.984s-0.59-0.974-0.77-1.62
		c-0.181-0.646-0.271-1.391-0.271-2.23c0-0.746,0.101-1.441,0.3-2.085c0.2-0.643,0.488-1.201,0.865-1.675s0.835-0.845,1.375-1.115
		c0.54-0.27,1.153-0.404,1.84-0.404c0.62,0,1.15,0.104,1.59,0.314c0.44,0.21,0.834,0.505,1.181,0.885v-5.62h1.78v14.73H663.353z
		 M659.902,485.618c0.58,0,1.089-0.134,1.525-0.4s0.838-0.644,1.205-1.13v-4.9c-0.327-0.439-0.686-0.748-1.075-0.925
		s-0.821-0.265-1.295-0.265c-0.946,0-1.674,0.337-2.18,1.01c-0.507,0.674-0.761,1.634-0.761,2.88c0,0.66,0.057,1.226,0.17,1.695
		s0.28,0.856,0.5,1.16c0.221,0.304,0.49,0.524,0.811,0.665C659.123,485.548,659.489,485.618,659.902,485.618z"/>
	<path fill="#FFFFFF" d="M594.905,496.588v1.58h-6.88v4.76h5.569v1.521h-5.569v4.89h6.88v1.58h-8.83v-14.33H594.905z"/>
	<path fill="#FFFFFF" d="M597.415,510.918v-10.13h1.06c0.254,0,0.414,0.123,0.48,0.37l0.14,1.1c0.44-0.486,0.932-0.88,1.476-1.18
		c0.543-0.3,1.171-0.45,1.885-0.45c0.553,0,1.041,0.092,1.465,0.275c0.424,0.183,0.776,0.443,1.061,0.779
		c0.283,0.337,0.498,0.742,0.645,1.216c0.146,0.473,0.22,0.996,0.22,1.569v6.45h-1.779v-6.45c0-0.767-0.176-1.361-0.525-1.785
		c-0.35-0.423-0.885-0.635-1.605-0.635c-0.526,0-1.018,0.127-1.475,0.38c-0.457,0.254-0.878,0.597-1.265,1.03v7.46H597.415z"/>
	<path fill="#FFFFFF" d="M611.604,511.078c-0.801,0-1.415-0.224-1.846-0.67c-0.43-0.447-0.645-1.09-0.645-1.931v-6.199h-1.22
		c-0.107,0-0.197-0.032-0.271-0.096c-0.073-0.062-0.109-0.161-0.109-0.295v-0.71l1.659-0.21l0.41-3.13
		c0.014-0.1,0.057-0.182,0.13-0.245s0.167-0.095,0.28-0.095h0.9v3.49h2.899v1.29h-2.899v6.08c0,0.427,0.103,0.743,0.31,0.949
		c0.207,0.207,0.474,0.311,0.8,0.311c0.187,0,0.349-0.025,0.485-0.075s0.255-0.105,0.354-0.165c0.101-0.06,0.186-0.115,0.256-0.165
		c0.069-0.05,0.131-0.075,0.185-0.075c0.093,0,0.177,0.057,0.25,0.17l0.52,0.851c-0.307,0.286-0.677,0.512-1.109,0.675
		C612.511,510.996,612.064,511.078,611.604,511.078z"/>
	<path fill="#FFFFFF" d="M618.374,497.608c0,0.173-0.035,0.335-0.104,0.484c-0.07,0.15-0.164,0.283-0.28,0.4
		c-0.117,0.116-0.252,0.208-0.405,0.274c-0.153,0.067-0.316,0.101-0.49,0.101c-0.173,0-0.335-0.033-0.484-0.101
		c-0.15-0.066-0.283-0.158-0.4-0.274c-0.116-0.117-0.208-0.25-0.274-0.4c-0.067-0.149-0.101-0.312-0.101-0.484
		c0-0.174,0.033-0.339,0.101-0.495c0.066-0.157,0.158-0.294,0.274-0.41c0.117-0.117,0.25-0.208,0.4-0.275
		c0.149-0.066,0.312-0.1,0.484-0.1c0.174,0,0.337,0.033,0.49,0.1c0.153,0.067,0.288,0.158,0.405,0.275
		c0.116,0.116,0.21,0.253,0.28,0.41C618.339,497.27,618.374,497.435,618.374,497.608z M617.975,500.788v10.13h-1.78v-10.13H617.975z
		"/>
	<path fill="#FFFFFF" d="M624.185,511.078c-0.801,0-1.415-0.224-1.846-0.67c-0.43-0.447-0.645-1.09-0.645-1.931v-6.199h-1.22
		c-0.107,0-0.197-0.032-0.271-0.096c-0.073-0.062-0.109-0.161-0.109-0.295v-0.71l1.659-0.21l0.41-3.13
		c0.014-0.1,0.057-0.182,0.13-0.245s0.167-0.095,0.28-0.095h0.9v3.49h2.899v1.29h-2.899v6.08c0,0.427,0.103,0.743,0.31,0.949
		c0.207,0.207,0.474,0.311,0.8,0.311c0.187,0,0.349-0.025,0.485-0.075s0.255-0.105,0.354-0.165c0.101-0.06,0.186-0.115,0.256-0.165
		c0.069-0.05,0.131-0.075,0.185-0.075c0.093,0,0.177,0.057,0.25,0.17l0.52,0.851c-0.307,0.286-0.677,0.512-1.109,0.675
		C625.091,510.996,624.645,511.078,624.185,511.078z"/>
	<path fill="#FFFFFF" d="M631.543,513.908c-0.06,0.133-0.135,0.24-0.225,0.319c-0.09,0.08-0.229,0.12-0.415,0.12h-1.32l1.851-4.02
		l-4.181-9.54h1.54c0.153,0,0.273,0.038,0.36,0.115c0.087,0.076,0.15,0.161,0.189,0.255l2.711,6.38
		c0.06,0.146,0.111,0.293,0.154,0.439c0.044,0.147,0.082,0.297,0.115,0.45c0.047-0.153,0.094-0.303,0.14-0.45
		c0.047-0.146,0.101-0.296,0.16-0.449l2.63-6.37c0.04-0.106,0.108-0.195,0.205-0.266c0.097-0.069,0.202-0.104,0.315-0.104h1.42
		L631.543,513.908z"/>
</g>
<g>
	<path fill="#FFFFFF" d="M763.943,479.758c0,1.073-0.17,2.059-0.51,2.955s-0.82,1.669-1.44,2.315s-1.364,1.148-2.234,1.505
		s-1.832,0.535-2.886,0.535c-1.053,0-2.013-0.179-2.88-0.535c-0.866-0.356-1.609-0.858-2.229-1.505s-1.101-1.419-1.44-2.315
		s-0.51-1.882-0.51-2.955s0.17-2.059,0.51-2.955s0.82-1.67,1.44-2.319c0.62-0.65,1.363-1.155,2.229-1.516
		c0.867-0.359,1.827-0.54,2.88-0.54c1.054,0,2.016,0.181,2.886,0.54c0.87,0.36,1.614,0.865,2.234,1.516
		c0.62,0.649,1.101,1.423,1.44,2.319S763.943,478.685,763.943,479.758z M761.953,479.758c0-0.88-0.12-1.67-0.359-2.37
		c-0.24-0.7-0.58-1.291-1.021-1.774c-0.439-0.483-0.974-0.855-1.6-1.115c-0.627-0.26-1.327-0.39-2.101-0.39
		c-0.767,0-1.463,0.13-2.09,0.39c-0.626,0.26-1.161,0.632-1.604,1.115s-0.785,1.074-1.025,1.774s-0.359,1.49-0.359,2.37
		s0.119,1.669,0.359,2.365s0.582,1.287,1.025,1.77c0.443,0.483,0.979,0.854,1.604,1.11c0.627,0.257,1.323,0.385,2.09,0.385
		c0.773,0,1.474-0.128,2.101-0.385c0.626-0.257,1.16-0.627,1.6-1.11c0.44-0.482,0.78-1.073,1.021-1.77
		C761.833,481.427,761.953,480.638,761.953,479.758z"/>
	<path fill="#FFFFFF" d="M769.384,487.078c-0.801,0-1.415-0.224-1.846-0.67c-0.43-0.447-0.645-1.09-0.645-1.931v-6.199h-1.22
		c-0.107,0-0.197-0.032-0.271-0.096c-0.073-0.062-0.109-0.161-0.109-0.295v-0.71l1.659-0.21l0.41-3.13
		c0.014-0.1,0.057-0.182,0.13-0.245s0.167-0.095,0.28-0.095h0.9v3.49h2.899v1.29h-2.899v6.08c0,0.427,0.103,0.743,0.31,0.949
		c0.207,0.207,0.474,0.311,0.8,0.311c0.187,0,0.349-0.025,0.485-0.075s0.255-0.105,0.354-0.165c0.101-0.06,0.186-0.115,0.256-0.165
		c0.069-0.05,0.131-0.075,0.185-0.075c0.093,0,0.177,0.057,0.25,0.17l0.52,0.851c-0.307,0.286-0.677,0.512-1.109,0.675
		C770.29,486.996,769.844,487.078,769.384,487.078z"/>
	<path fill="#FFFFFF" d="M773.772,486.918v-14.73h1.78v5.961c0.433-0.461,0.913-0.829,1.439-1.105s1.134-0.415,1.82-0.415
		c0.553,0,1.041,0.092,1.465,0.275c0.424,0.183,0.776,0.443,1.061,0.779c0.283,0.337,0.498,0.742,0.645,1.216
		c0.146,0.473,0.22,0.996,0.22,1.569v6.45h-1.779v-6.45c0-0.767-0.176-1.361-0.525-1.785c-0.35-0.423-0.885-0.635-1.605-0.635
		c-0.526,0-1.018,0.127-1.475,0.38c-0.457,0.254-0.878,0.597-1.265,1.03v7.46H773.772z"/>
	<path fill="#FFFFFF" d="M788.902,476.628c0.606,0,1.167,0.102,1.681,0.305c0.513,0.204,0.956,0.497,1.329,0.88
		c0.374,0.384,0.665,0.857,0.875,1.421s0.315,1.204,0.315,1.925c0,0.279-0.03,0.467-0.09,0.56c-0.061,0.094-0.174,0.141-0.34,0.141
		h-6.74c0.014,0.64,0.1,1.196,0.26,1.67c0.16,0.473,0.38,0.868,0.66,1.185s0.613,0.554,1,0.71c0.387,0.157,0.82,0.235,1.3,0.235
		c0.446,0,0.832-0.052,1.155-0.155s0.602-0.215,0.835-0.335s0.429-0.231,0.585-0.335s0.292-0.155,0.405-0.155
		c0.146,0,0.26,0.057,0.34,0.17l0.5,0.65c-0.22,0.267-0.483,0.498-0.79,0.695c-0.307,0.196-0.635,0.358-0.985,0.484
		c-0.35,0.127-0.712,0.222-1.085,0.285s-0.743,0.095-1.109,0.095c-0.7,0-1.346-0.118-1.936-0.354s-1.1-0.583-1.53-1.04
		c-0.43-0.457-0.765-1.021-1.005-1.695c-0.239-0.673-0.359-1.446-0.359-2.319c0-0.707,0.108-1.367,0.325-1.98
		c0.216-0.613,0.528-1.145,0.935-1.595s0.903-0.804,1.49-1.061C787.509,476.757,788.169,476.628,788.902,476.628z M788.942,477.938
		c-0.859,0-1.536,0.249-2.03,0.745c-0.493,0.497-0.8,1.186-0.92,2.065h5.511c0-0.413-0.057-0.792-0.17-1.135
		c-0.114-0.344-0.28-0.641-0.5-0.891c-0.221-0.25-0.489-0.443-0.806-0.58C789.711,478.007,789.349,477.938,788.942,477.938z"/>
	<path fill="#FFFFFF" d="M795.372,486.918v-10.13h1.02c0.193,0,0.327,0.036,0.4,0.11c0.073,0.073,0.123,0.199,0.15,0.38l0.12,1.58
		c0.346-0.707,0.774-1.259,1.284-1.655c0.511-0.396,1.108-0.595,1.795-0.595c0.28,0,0.534,0.031,0.761,0.095s0.437,0.151,0.63,0.265
		l-0.23,1.33c-0.047,0.167-0.149,0.25-0.31,0.25c-0.094,0-0.237-0.031-0.43-0.095c-0.194-0.063-0.464-0.095-0.811-0.095
		c-0.62,0-1.139,0.18-1.555,0.54c-0.417,0.359-0.766,0.883-1.045,1.569v6.45H795.372z"/>
</g>
<g>
	<g>
		<polygon fill="#EEC900" points="275.407,421.447 275.407,446.969 205.026,446.969 205.026,440.56 		"/>
		<polygon fill="#EEC900" points="275.407,408.246 275.407,414.76 205.026,433.87 205.026,427.354 		"/>
		<polygon fill="#EEC900" points="275.407,395.043 275.407,401.558 205.026,420.667 205.026,414.155 		"/>
		<polygon fill="#EEC900" points="275.407,381.835 275.407,388.354 205.026,407.463 205.026,400.953 		"/>
		<polygon fill="#EEC900" points="275.407,368.633 275.407,375.146 205.026,394.26 205.026,387.745 		"/>
		<polygon fill="#EEC900" points="275.407,355.431 275.407,361.944 205.026,381.059 205.026,374.54 		"/>
		<polygon fill="#EEC900" points="275.407,342.228 275.407,348.738 205.026,367.854 205.026,361.339 		"/>
		<polygon fill="#EEC900" points="275.407,329.025 275.407,335.539 205.026,354.647 205.026,348.135 		"/>
		<polygon fill="#EEC900" points="275.407,315.821 275.407,322.335 205.026,341.446 205.026,334.933 		"/>
		<polygon fill="#EEC900" points="275.407,302.616 275.407,309.131 205.026,328.243 205.026,321.729 		"/>
		<polygon fill="#EEC900" points="275.407,289.414 275.407,295.928 205.026,315.041 205.026,308.522 		"/>
		<polygon fill="#EEC900" points="275.407,276.212 275.407,282.726 205.026,301.833 205.026,295.32 		"/>
		<polygon fill="#EEC900" points="275.407,263.006 275.407,269.521 205.026,288.631 205.026,282.117 		"/>
		<polygon fill="#EEC900" points="275.407,249.803 275.407,256.319 205.026,275.426 205.026,268.916 		"/>
		<polygon fill="#EEC900" points="275.407,236.599 275.407,243.117 205.026,262.227 205.026,255.71 		"/>
		<polygon fill="#EEC900" points="275.407,223.394 275.407,229.909 205.026,249.023 205.026,242.506 		"/>
		<polygon fill="#EEC900" points="275.407,210.193 275.407,216.705 205.026,235.819 205.026,229.3 		"/>
		<polygon fill="#EEC900" points="275.407,196.99 275.407,203.502 205.026,222.61 205.026,216.098 		"/>
		<polygon fill="#EEC900" points="275.407,183.786 275.407,190.299 205.026,209.408 205.026,202.896 		"/>
		<polygon fill="#EEC900" points="275.407,170.583 275.407,177.095 205.026,196.204 205.026,189.692 		"/>
		<polygon fill="#EEC900" points="275.407,157.376 275.407,163.891 205.026,183.003 205.026,176.49 		"/>
		<polygon fill="#EEC900" points="275.407,144.175 275.407,150.688 205.026,169.799 205.026,163.283 		"/>
		<polygon fill="#EEC900" points="275.407,130.972 275.407,137.485 205.026,156.595 205.026,150.08 		"/>
		<polygon fill="#EEC900" points="275.407,117.768 275.407,124.28 205.026,143.392 205.026,136.875 		"/>
		<polygon fill="#EEC900" points="275.407,104.562 275.407,111.077 205.026,130.185 205.026,123.674 		"/>
		<polygon fill="#EEC900" points="275.407,91.357 275.407,97.874 205.026,116.984 205.026,110.469 		"/>
		<polygon fill="#EEC900" points="275.407,78.154 275.407,84.67 205.026,103.78 205.026,97.268 		"/>
		<polygon fill="#EEC900" points="275.407,64.954 275.407,71.463 205.026,90.578 205.026,84.064 		"/>
		<polygon fill="#EEC900" points="275.407,51.212 275.407,58.263 205.026,77.376 205.023,51.212 		"/>
	</g>
</g>
<g>
	<g>
		<polygon fill="#EEC900" points="449.569,418.708 449.569,446.969 379.188,446.969 379.188,439.872 		"/>
		<polygon fill="#EEC900" points="449.569,404.087 449.569,411.302 379.188,432.461 379.188,425.249 		"/>
		<polygon fill="#EEC900" points="449.569,389.464 449.569,396.678 379.188,417.842 379.188,410.63 		"/>
		<polygon fill="#EEC900" points="449.569,374.838 449.569,382.057 379.188,403.22 379.188,396.01 		"/>
		<polygon fill="#EEC900" points="449.569,360.215 449.569,367.432 379.188,388.6 379.188,381.382 		"/>
		<polygon fill="#EEC900" points="449.569,345.597 449.569,352.811 379.188,373.978 379.188,366.76 		"/>
		<polygon fill="#EEC900" points="449.569,330.975 449.569,338.187 379.188,359.354 379.188,352.14 		"/>
		<polygon fill="#EEC900" points="449.569,316.353 449.569,323.567 379.188,344.729 379.188,337.517 		"/>
		<polygon fill="#EEC900" points="449.569,301.732 449.569,308.943 379.188,330.11 379.188,322.896 		"/>
		<polygon fill="#EEC900" points="449.569,287.108 449.569,294.319 379.188,315.488 379.188,308.273 		"/>
		<polygon fill="#EEC900" points="449.569,272.486 449.569,279.7 379.188,300.866 379.188,293.652 		"/>
		<polygon fill="#EEC900" points="449.569,257.201 449.569,265.082 379.188,286.241 379.188,257.201 		"/>
	</g>
</g>
<g>
	<g>
		<polygon fill="#EEC900" points="644.325,418.708 644.325,446.969 573.941,446.969 573.941,439.872 		"/>
		<polygon fill="#EEC900" points="644.325,403.201 644.325,411.082 573.941,432.241 573.941,403.201 		"/>
	</g>
</g>
<g>
	<g>
		<polygon fill="#EEC900" points="809.682,418.708 809.682,446.969 739.3,446.969 739.3,439.872 		"/>
		<polygon fill="#EEC900" points="809.682,404.087 809.682,411.302 739.3,432.461 739.3,425.249 		"/>
		<polygon fill="#EEC900" points="809.682,389.464 809.682,396.678 739.3,417.842 739.3,410.63 		"/>
		<polygon fill="#EEC900" points="809.682,374.838 809.682,382.057 739.3,403.22 739.3,396.01 		"/>
		<polygon fill="#EEC900" points="809.682,360.215 809.682,367.432 739.3,388.6 739.3,381.382 		"/>
		<polygon fill="#EEC900" points="809.682,345.597 809.682,352.811 739.3,373.978 739.3,366.76 		"/>
		<polygon fill="#EEC900" points="809.682,330.975 809.682,338.187 739.3,359.354 739.3,352.14 		"/>
		<polygon fill="#EEC900" points="809.682,316.353 809.682,323.567 739.3,344.729 739.3,337.517 		"/>
		<polygon fill="#EEC900" points="809.682,301.732 809.682,308.943 739.3,330.11 739.3,322.896 		"/>
		<polygon fill="#EEC900" points="809.682,287.108 809.682,294.319 739.3,315.488 739.3,308.273 		"/>
		<polygon fill="#EEC900" points="809.682,272.201 809.682,280.082 739.3,301.241 739.3,272.201 		"/>
	</g>
</g>
<g>
	<g>
		<polygon fill="#EEC900" points="109.666,412.687 109.666,446.969 39.284,446.969 39.284,438.36 		"/>
		<polygon fill="#EEC900" points="109.666,394.953 109.666,403.704 39.284,429.372 39.284,420.621 		"/>
		<polygon fill="#EEC900" points="109.666,377.216 109.666,385.967 39.284,411.638 39.284,402.891 		"/>
		<polygon fill="#EEC900" points="109.666,359.473 109.666,368.23 39.284,393.902 39.284,385.154 		"/>
		<polygon fill="#EEC900" points="109.666,341.738 109.666,350.489 39.284,376.167 39.284,367.412 		"/>
		<polygon fill="#EEC900" points="109.666,324.005 109.666,332.753 39.284,358.431 39.284,349.677 		"/>
		<polygon fill="#EEC900" points="109.666,306.27 109.666,315.018 39.284,340.692 39.284,331.942 		"/>
		<polygon fill="#EEC900" points="109.666,288.531 109.666,297.282 39.284,322.952 39.284,314.202 		"/>
		<polygon fill="#EEC900" points="109.666,270.797 109.666,279.546 39.284,305.219 39.284,296.467 		"/>
		<polygon fill="#EEC900" points="109.666,253.06 109.666,261.808 39.284,287.483 39.284,278.73 		"/>
		<polygon fill="#EEC900" points="109.666,235.323 109.666,244.071 39.284,269.748 39.284,260.996 		"/>
		<polygon fill="#EEC900" points="109.666,216.779 109.666,226.339 39.284,252.008 39.284,216.779 		"/>
	</g>
</g>
<rect x="10.229" y="443.807" fill="#EEC900" width="833.287" height="10.467"/>
<g>
	<path fill="#FFFFFF" d="M48.816,192.662h4.102v-13.013c0-0.391,0.013-0.786,0.04-1.186l-3.41,2.917
		c-0.089,0.071-0.178,0.122-0.267,0.153s-0.173,0.046-0.253,0.046c-0.133,0-0.253-0.029-0.359-0.086
		c-0.107-0.058-0.187-0.126-0.24-0.207l-0.746-1.025l5.674-4.915h1.931v17.315h3.756v1.812H48.816V192.662z"/>
	<path fill="#FFFFFF" d="M68.155,194.686c-0.95,0-1.82-0.126-2.611-0.379s-1.47-0.615-2.038-1.085
		c-0.568-0.471-1.008-1.041-1.319-1.711c-0.311-0.67-0.466-1.423-0.466-2.258c0-1.225,0.319-2.235,0.959-3.03
		c0.639-0.795,1.554-1.361,2.744-1.698c-1.003-0.373-1.761-0.93-2.271-1.672c-0.511-0.741-0.766-1.627-0.766-2.657
		c0-0.701,0.138-1.358,0.413-1.971c0.275-0.612,0.666-1.146,1.172-1.598c0.506-0.453,1.112-0.808,1.818-1.065
		s1.494-0.386,2.364-0.386c0.861,0,1.647,0.129,2.357,0.386c0.71,0.257,1.318,0.613,1.825,1.065
		c0.506,0.453,0.896,0.986,1.172,1.598c0.275,0.613,0.413,1.27,0.413,1.971c0,1.03-0.258,1.916-0.772,2.657
		c-0.515,0.742-1.27,1.299-2.265,1.672c1.19,0.337,2.104,0.903,2.744,1.698c0.639,0.794,0.959,1.805,0.959,3.03
		c0,0.835-0.158,1.587-0.473,2.258s-0.755,1.241-1.318,1.711c-0.564,0.471-1.241,0.833-2.031,1.085
		C69.975,194.56,69.104,194.686,68.155,194.686z M68.155,192.795c0.621,0,1.179-0.086,1.671-0.26s0.91-0.417,1.252-0.732
		c0.342-0.315,0.604-0.693,0.786-1.132s0.273-0.926,0.273-1.458c0-0.657-0.109-1.219-0.327-1.685
		c-0.218-0.466-0.511-0.846-0.879-1.139c-0.369-0.293-0.792-0.508-1.272-0.646s-0.981-0.207-1.505-0.207
		c-0.524,0-1.026,0.069-1.505,0.207s-0.903,0.353-1.272,0.646c-0.369,0.293-0.662,0.673-0.879,1.139
		c-0.218,0.466-0.326,1.028-0.326,1.685c0,0.533,0.091,1.019,0.273,1.458c0.182,0.439,0.444,0.817,0.786,1.132
		c0.342,0.315,0.759,0.559,1.252,0.732C66.976,192.708,67.533,192.795,68.155,192.795z M68.155,183.631
		c0.621,0,1.152-0.095,1.591-0.286s0.797-0.444,1.072-0.759c0.275-0.315,0.475-0.677,0.6-1.085c0.124-0.409,0.186-0.831,0.186-1.266
		c0-0.444-0.073-0.861-0.22-1.252c-0.146-0.391-0.364-0.732-0.652-1.025c-0.289-0.293-0.648-0.524-1.079-0.693
		c-0.431-0.168-0.93-0.253-1.498-0.253c-0.568,0-1.068,0.084-1.499,0.253c-0.431,0.169-0.791,0.4-1.079,0.693
		s-0.506,0.635-0.652,1.025c-0.146,0.391-0.22,0.808-0.22,1.252c0,0.435,0.062,0.857,0.187,1.266
		c0.124,0.408,0.324,0.77,0.599,1.085c0.275,0.315,0.633,0.568,1.072,0.759S67.533,183.631,68.155,183.631z"/>
	<path fill="#FFFFFF" d="M85.309,179.995c0,0.746-0.115,1.414-0.346,2.004c-0.231,0.591-0.54,1.088-0.926,1.492
		c-0.386,0.404-0.837,0.712-1.352,0.925c-0.515,0.213-1.052,0.32-1.611,0.32c-0.604,0-1.161-0.106-1.671-0.32
		c-0.511-0.213-0.957-0.521-1.339-0.925c-0.382-0.404-0.679-0.901-0.892-1.492c-0.213-0.59-0.32-1.258-0.32-2.004
		c0-0.764,0.106-1.443,0.32-2.038c0.213-0.595,0.51-1.097,0.892-1.505c0.382-0.408,0.828-0.719,1.339-0.932
		c0.51-0.213,1.067-0.32,1.671-0.32c0.595,0,1.152,0.106,1.671,0.32c0.52,0.213,0.968,0.524,1.345,0.932
		c0.377,0.409,0.675,0.911,0.893,1.505C85.2,178.552,85.309,179.231,85.309,179.995z M91.982,175.866
		c0.115-0.151,0.237-0.269,0.366-0.353c0.129-0.084,0.3-0.126,0.513-0.126h1.705l-13.945,18.7c-0.089,0.115-0.195,0.208-0.319,0.28
		c-0.125,0.071-0.271,0.106-0.439,0.106h-1.758L91.982,175.866z M83.458,179.995c0-0.586-0.062-1.083-0.187-1.492
		c-0.125-0.408-0.295-0.744-0.513-1.005c-0.217-0.262-0.471-0.451-0.759-0.566c-0.289-0.115-0.598-0.173-0.926-0.173
		c-0.329,0-0.637,0.058-0.926,0.173c-0.289,0.116-0.54,0.304-0.752,0.566c-0.213,0.262-0.379,0.597-0.5,1.005
		c-0.12,0.409-0.18,0.906-0.18,1.492c0,0.578,0.06,1.068,0.18,1.472c0.12,0.404,0.287,0.733,0.5,0.986s0.464,0.435,0.752,0.546
		c0.289,0.111,0.597,0.167,0.926,0.167c0.328,0,0.637-0.055,0.926-0.167c0.288-0.111,0.542-0.293,0.759-0.546
		c0.218-0.253,0.389-0.582,0.513-0.986C83.396,181.063,83.458,180.573,83.458,179.995z M95.858,189.971
		c0,0.746-0.116,1.412-0.346,1.998c-0.231,0.586-0.54,1.081-0.926,1.485c-0.386,0.404-0.835,0.713-1.345,0.926
		c-0.511,0.213-1.046,0.32-1.605,0.32c-0.604,0-1.161-0.107-1.671-0.32c-0.511-0.213-0.957-0.521-1.339-0.926
		c-0.382-0.404-0.679-0.899-0.892-1.485c-0.213-0.586-0.32-1.252-0.32-1.998c0-0.764,0.106-1.445,0.32-2.044
		c0.213-0.599,0.51-1.103,0.892-1.512c0.382-0.408,0.828-0.719,1.339-0.932c0.51-0.213,1.067-0.32,1.671-0.32
		c0.595,0,1.15,0.106,1.665,0.32c0.515,0.213,0.963,0.524,1.345,0.932c0.381,0.409,0.679,0.913,0.892,1.512
		C95.751,188.526,95.858,189.208,95.858,189.971z M94.02,189.971c0-0.586-0.062-1.085-0.186-1.499
		c-0.125-0.413-0.295-0.748-0.513-1.005c-0.217-0.257-0.471-0.444-0.759-0.56c-0.289-0.115-0.598-0.173-0.926-0.173
		c-0.329,0-0.637,0.058-0.926,0.173c-0.289,0.116-0.54,0.302-0.752,0.56c-0.213,0.258-0.38,0.593-0.5,1.005
		c-0.12,0.413-0.18,0.913-0.18,1.499c0,0.577,0.06,1.065,0.18,1.465c0.12,0.399,0.286,0.726,0.5,0.979
		c0.213,0.253,0.464,0.435,0.752,0.546c0.289,0.111,0.597,0.167,0.926,0.167c0.328,0,0.637-0.055,0.926-0.167
		c0.288-0.111,0.542-0.293,0.759-0.546c0.218-0.253,0.389-0.58,0.513-0.979C93.958,191.037,94.02,190.548,94.02,189.971z"/>
</g>
<g>
	<path fill="#FFFFFF" d="M221.542,24.065h2.891v1.359c0,0.142-0.042,0.262-0.126,0.359c-0.085,0.098-0.216,0.146-0.393,0.146h-2.371
		v5.021h-2.091V25.93h-8.458c-0.178,0-0.331-0.051-0.459-0.153c-0.129-0.102-0.211-0.229-0.247-0.38l-0.24-1.212l9.283-12.32h2.211
		V24.065z M219.451,16.194c0-0.23,0.007-0.479,0.02-0.746c0.013-0.267,0.042-0.542,0.086-0.826l-6.939,9.443h6.833V16.194z"/>
	<path fill="#FFFFFF" d="M232.676,31.165c-0.95,0-1.82-0.126-2.611-0.379s-1.47-0.615-2.038-1.085
		c-0.568-0.471-1.008-1.041-1.319-1.711c-0.311-0.67-0.466-1.423-0.466-2.258c0-1.225,0.319-2.235,0.959-3.03
		c0.639-0.795,1.554-1.361,2.744-1.698c-1.003-0.373-1.761-0.93-2.271-1.672c-0.511-0.741-0.766-1.627-0.766-2.657
		c0-0.701,0.138-1.358,0.413-1.971c0.275-0.612,0.666-1.146,1.172-1.598c0.506-0.453,1.112-0.808,1.818-1.065
		s1.494-0.386,2.364-0.386c0.861,0,1.647,0.129,2.357,0.386c0.71,0.257,1.318,0.613,1.825,1.065
		c0.506,0.453,0.896,0.986,1.172,1.598c0.275,0.613,0.413,1.27,0.413,1.971c0,1.03-0.258,1.916-0.772,2.657
		c-0.515,0.742-1.27,1.299-2.265,1.672c1.19,0.337,2.104,0.903,2.744,1.698c0.639,0.794,0.959,1.805,0.959,3.03
		c0,0.835-0.158,1.587-0.473,2.258s-0.755,1.241-1.318,1.711c-0.564,0.471-1.241,0.833-2.031,1.085
		C234.496,31.038,233.626,31.165,232.676,31.165z M232.676,29.273c0.621,0,1.179-0.086,1.671-0.26s0.91-0.417,1.252-0.732
		c0.342-0.315,0.604-0.693,0.786-1.132s0.273-0.926,0.273-1.458c0-0.657-0.109-1.219-0.327-1.685
		c-0.218-0.466-0.511-0.846-0.879-1.139c-0.369-0.293-0.792-0.508-1.272-0.646s-0.981-0.207-1.505-0.207
		c-0.524,0-1.026,0.069-1.505,0.207s-0.903,0.353-1.272,0.646c-0.369,0.293-0.662,0.673-0.879,1.139
		c-0.218,0.466-0.326,1.028-0.326,1.685c0,0.533,0.091,1.019,0.273,1.458c0.182,0.439,0.444,0.817,0.786,1.132
		c0.342,0.315,0.759,0.559,1.252,0.732C231.498,29.187,232.055,29.273,232.676,29.273z M232.676,20.11
		c0.621,0,1.152-0.095,1.591-0.286s0.797-0.444,1.072-0.759c0.275-0.315,0.475-0.677,0.6-1.085c0.124-0.409,0.186-0.831,0.186-1.266
		c0-0.444-0.073-0.861-0.22-1.252c-0.146-0.391-0.364-0.732-0.652-1.025c-0.289-0.293-0.648-0.524-1.079-0.693
		c-0.431-0.168-0.93-0.253-1.498-0.253c-0.568,0-1.068,0.084-1.499,0.253c-0.431,0.169-0.791,0.4-1.079,0.693
		s-0.506,0.635-0.652,1.025c-0.146,0.391-0.22,0.808-0.22,1.252c0,0.435,0.062,0.857,0.187,1.266
		c0.124,0.408,0.324,0.77,0.599,1.085c0.275,0.315,0.633,0.568,1.072,0.759S232.055,20.11,232.676,20.11z"/>
	<path fill="#FFFFFF" d="M249.831,16.474c0,0.746-0.115,1.414-0.346,2.004c-0.231,0.591-0.54,1.088-0.926,1.492
		c-0.386,0.404-0.837,0.712-1.352,0.925c-0.515,0.213-1.052,0.32-1.611,0.32c-0.604,0-1.161-0.106-1.671-0.32
		c-0.511-0.213-0.957-0.521-1.339-0.925c-0.382-0.404-0.679-0.901-0.892-1.492c-0.213-0.59-0.32-1.258-0.32-2.004
		c0-0.764,0.106-1.443,0.32-2.038c0.213-0.595,0.51-1.097,0.892-1.505c0.382-0.408,0.828-0.719,1.339-0.932
		c0.51-0.213,1.067-0.32,1.671-0.32c0.595,0,1.152,0.106,1.671,0.32c0.52,0.213,0.968,0.524,1.345,0.932
		c0.377,0.409,0.675,0.911,0.893,1.505C249.722,15.031,249.831,15.71,249.831,16.474z M256.503,12.345
		c0.115-0.151,0.237-0.269,0.366-0.353c0.129-0.084,0.3-0.126,0.513-0.126h1.705l-13.945,18.7c-0.089,0.115-0.195,0.208-0.319,0.28
		c-0.125,0.071-0.271,0.106-0.439,0.106h-1.758L256.503,12.345z M247.979,16.474c0-0.586-0.062-1.083-0.187-1.492
		c-0.125-0.408-0.295-0.744-0.513-1.005c-0.217-0.262-0.471-0.451-0.759-0.566c-0.289-0.115-0.598-0.173-0.926-0.173
		c-0.329,0-0.637,0.058-0.926,0.173c-0.289,0.116-0.54,0.304-0.752,0.566c-0.213,0.262-0.379,0.597-0.5,1.005
		c-0.12,0.409-0.18,0.906-0.18,1.492c0,0.578,0.06,1.068,0.18,1.472c0.12,0.404,0.287,0.733,0.5,0.986s0.464,0.435,0.752,0.546
		c0.289,0.111,0.597,0.167,0.926,0.167c0.328,0,0.637-0.055,0.926-0.167c0.288-0.111,0.542-0.293,0.759-0.546
		c0.218-0.253,0.389-0.582,0.513-0.986C247.917,17.542,247.979,17.051,247.979,16.474z M260.379,26.45
		c0,0.746-0.116,1.412-0.346,1.998c-0.231,0.586-0.54,1.081-0.926,1.485c-0.386,0.404-0.835,0.713-1.345,0.926
		c-0.511,0.213-1.046,0.32-1.605,0.32c-0.604,0-1.161-0.107-1.671-0.32c-0.511-0.213-0.957-0.521-1.339-0.926
		c-0.382-0.404-0.679-0.899-0.892-1.485c-0.213-0.586-0.32-1.252-0.32-1.998c0-0.764,0.106-1.445,0.32-2.044
		c0.213-0.599,0.51-1.103,0.892-1.512c0.382-0.408,0.828-0.719,1.339-0.932c0.51-0.213,1.067-0.32,1.671-0.32
		c0.595,0,1.15,0.106,1.665,0.32c0.515,0.213,0.963,0.524,1.345,0.932c0.381,0.409,0.679,0.913,0.892,1.512
		C260.273,25.005,260.379,25.686,260.379,26.45z M258.541,26.45c0-0.586-0.062-1.085-0.186-1.499
		c-0.125-0.413-0.295-0.748-0.513-1.005c-0.217-0.257-0.471-0.444-0.759-0.56c-0.289-0.115-0.598-0.173-0.926-0.173
		c-0.329,0-0.637,0.058-0.926,0.173c-0.289,0.116-0.54,0.302-0.752,0.56c-0.213,0.258-0.38,0.593-0.5,1.005
		c-0.12,0.413-0.18,0.913-0.18,1.499c0,0.577,0.06,1.065,0.18,1.465c0.12,0.399,0.286,0.726,0.5,0.979
		c0.213,0.253,0.464,0.435,0.752,0.546c0.289,0.111,0.597,0.167,0.926,0.167c0.328,0,0.637-0.055,0.926-0.167
		c0.288-0.111,0.542-0.293,0.759-0.546c0.218-0.253,0.389-0.58,0.513-0.979C258.479,27.515,258.541,27.027,258.541,26.45z"/>
</g>
<g>
	<path fill="#FFFFFF" d="M388.72,234.083h4.102V221.07c0-0.391,0.013-0.786,0.04-1.186l-3.41,2.917
		c-0.089,0.071-0.178,0.122-0.267,0.153s-0.173,0.047-0.253,0.047c-0.133,0-0.253-0.029-0.359-0.087
		c-0.107-0.058-0.187-0.127-0.24-0.206l-0.746-1.026l5.674-4.914h1.931v17.314h3.756v1.812H388.72V234.083z"/>
	<path fill="#FFFFFF" d="M409.004,224.2c0.764,0,1.487,0.127,2.171,0.38c0.684,0.253,1.283,0.621,1.798,1.105
		c0.515,0.484,0.923,1.079,1.225,1.784c0.302,0.706,0.453,1.512,0.453,2.418c0,0.879-0.16,1.696-0.479,2.45
		c-0.32,0.755-0.766,1.412-1.338,1.972c-0.573,0.56-1.264,0.999-2.071,1.318c-0.808,0.32-1.696,0.479-2.664,0.479
		c-0.959,0-1.827-0.153-2.604-0.459c-0.777-0.307-1.441-0.741-1.991-1.306c-0.551-0.563-0.975-1.247-1.272-2.051
		c-0.298-0.804-0.446-1.703-0.446-2.697c0-0.835,0.187-1.723,0.56-2.664c0.373-0.941,0.963-1.953,1.771-3.037l4.835-6.513
		c0.125-0.16,0.297-0.295,0.52-0.406c0.222-0.111,0.475-0.166,0.759-0.166h2.104l-6.62,8.377c0.453-0.311,0.954-0.553,1.505-0.726
		C407.77,224.287,408.365,224.2,409.004,224.2z M404.077,230.008c0,0.612,0.088,1.172,0.266,1.678s0.438,0.941,0.779,1.306
		s0.759,0.646,1.252,0.846c0.493,0.199,1.054,0.3,1.685,0.3c0.639,0,1.216-0.103,1.731-0.307c0.515-0.204,0.957-0.488,1.325-0.853
		c0.368-0.364,0.652-0.795,0.853-1.292c0.2-0.497,0.299-1.039,0.299-1.625c0-0.621-0.098-1.183-0.293-1.685
		s-0.471-0.928-0.826-1.278c-0.355-0.352-0.781-0.62-1.279-0.807c-0.497-0.187-1.043-0.279-1.638-0.279
		c-0.639,0-1.216,0.108-1.731,0.326s-0.952,0.511-1.312,0.879c-0.359,0.369-0.635,0.795-0.826,1.279
		C404.172,228.979,404.077,229.483,404.077,230.008z"/>
	<path fill="#FFFFFF" d="M425.213,221.417c0,0.745-0.115,1.414-0.346,2.004c-0.231,0.591-0.54,1.088-0.926,1.492
		s-0.837,0.712-1.352,0.926c-0.515,0.213-1.052,0.319-1.611,0.319c-0.604,0-1.161-0.106-1.671-0.319
		c-0.511-0.214-0.957-0.521-1.339-0.926s-0.679-0.901-0.892-1.492c-0.213-0.59-0.32-1.259-0.32-2.004
		c0-0.764,0.106-1.443,0.32-2.038c0.213-0.595,0.51-1.097,0.892-1.505s0.828-0.72,1.339-0.933c0.51-0.213,1.067-0.319,1.671-0.319
		c0.595,0,1.152,0.106,1.671,0.319s0.968,0.524,1.345,0.933s0.675,0.91,0.893,1.505
		C425.104,219.974,425.213,220.653,425.213,221.417z M431.886,217.288c0.115-0.151,0.237-0.269,0.366-0.354
		c0.129-0.084,0.3-0.126,0.513-0.126h1.705l-13.945,18.699c-0.089,0.116-0.195,0.209-0.319,0.28
		c-0.125,0.071-0.271,0.106-0.439,0.106h-1.758L431.886,217.288z M423.362,221.417c0-0.587-0.062-1.084-0.187-1.492
		c-0.125-0.408-0.295-0.743-0.513-1.006c-0.217-0.262-0.471-0.45-0.759-0.565c-0.289-0.115-0.598-0.174-0.926-0.174
		c-0.329,0-0.637,0.059-0.926,0.174s-0.54,0.304-0.752,0.565c-0.213,0.263-0.379,0.598-0.5,1.006c-0.12,0.408-0.18,0.905-0.18,1.492
		c0,0.577,0.06,1.067,0.18,1.472c0.12,0.404,0.287,0.732,0.5,0.985s0.464,0.436,0.752,0.546c0.289,0.111,0.597,0.167,0.926,0.167
		c0.328,0,0.637-0.056,0.926-0.167c0.288-0.11,0.542-0.293,0.759-0.546c0.218-0.253,0.389-0.581,0.513-0.985
		C423.3,222.484,423.362,221.994,423.362,221.417z M435.762,231.393c0,0.746-0.116,1.412-0.346,1.998
		c-0.231,0.586-0.54,1.081-0.926,1.485c-0.386,0.403-0.835,0.712-1.345,0.926c-0.511,0.213-1.046,0.319-1.605,0.319
		c-0.604,0-1.161-0.106-1.671-0.319c-0.511-0.214-0.957-0.522-1.339-0.926c-0.382-0.404-0.679-0.899-0.892-1.485
		c-0.213-0.586-0.32-1.252-0.32-1.998c0-0.764,0.106-1.445,0.32-2.044c0.213-0.6,0.51-1.104,0.892-1.512
		c0.382-0.409,0.828-0.72,1.339-0.933c0.51-0.213,1.067-0.32,1.671-0.32c0.595,0,1.15,0.107,1.665,0.32
		c0.515,0.213,0.963,0.523,1.345,0.933c0.381,0.408,0.679,0.912,0.892,1.512C435.656,229.947,435.762,230.629,435.762,231.393z
		 M433.924,231.393c0-0.586-0.062-1.085-0.186-1.498c-0.125-0.413-0.295-0.748-0.513-1.006c-0.217-0.258-0.471-0.444-0.759-0.56
		c-0.289-0.115-0.598-0.173-0.926-0.173c-0.329,0-0.637,0.058-0.926,0.173s-0.54,0.302-0.752,0.56
		c-0.213,0.258-0.38,0.593-0.5,1.006s-0.18,0.912-0.18,1.498c0,0.577,0.06,1.065,0.18,1.465c0.12,0.4,0.286,0.727,0.5,0.979
		c0.213,0.253,0.464,0.435,0.752,0.546s0.597,0.166,0.926,0.166c0.328,0,0.637-0.055,0.926-0.166
		c0.288-0.111,0.542-0.293,0.759-0.546c0.218-0.253,0.389-0.579,0.513-0.979C433.862,232.458,433.924,231.97,433.924,231.393z"/>
</g>
<g>
	<path fill="#FFFFFF" d="M593.42,359.432c0.808,0,1.554,0.116,2.237,0.347c0.684,0.231,1.272,0.56,1.765,0.985
		c0.493,0.427,0.877,0.941,1.152,1.545c0.275,0.604,0.413,1.274,0.413,2.012c0,0.604-0.078,1.144-0.233,1.618
		s-0.377,0.893-0.666,1.252c-0.288,0.359-0.637,0.664-1.045,0.912c-0.409,0.249-0.866,0.448-1.372,0.6
		c1.243,0.328,2.178,0.879,2.804,1.651s0.938,1.74,0.938,2.903c0,0.88-0.166,1.67-0.499,2.371c-0.333,0.702-0.788,1.299-1.365,1.792
		c-0.577,0.492-1.25,0.87-2.018,1.132c-0.769,0.262-1.592,0.393-2.471,0.393c-1.013,0-1.878-0.126-2.598-0.379
		c-0.719-0.254-1.327-0.602-1.824-1.046c-0.498-0.444-0.906-0.97-1.226-1.578s-0.591-1.268-0.812-1.979l1.013-0.426
		c0.186-0.08,0.372-0.12,0.559-0.12c0.178,0,0.335,0.038,0.474,0.113c0.137,0.075,0.241,0.193,0.312,0.353
		c0.018,0.036,0.035,0.073,0.054,0.113c0.018,0.04,0.035,0.083,0.053,0.127c0.124,0.258,0.275,0.549,0.453,0.872
		c0.178,0.324,0.417,0.629,0.719,0.913s0.678,0.523,1.126,0.719s1.006,0.293,1.671,0.293c0.666,0,1.25-0.108,1.752-0.326
		s0.919-0.499,1.252-0.846s0.584-0.732,0.753-1.159c0.168-0.426,0.253-0.848,0.253-1.265c0-0.516-0.069-0.986-0.207-1.412
		c-0.138-0.427-0.386-0.795-0.745-1.105c-0.36-0.311-0.857-0.555-1.492-0.732s-1.449-0.267-2.444-0.267v-1.731
		c0.809,0,1.499-0.084,2.071-0.253c0.573-0.169,1.041-0.399,1.405-0.692s0.628-0.645,0.793-1.053
		c0.164-0.408,0.246-0.861,0.246-1.358c0-0.551-0.087-1.03-0.26-1.438s-0.411-0.746-0.713-1.013
		c-0.302-0.266-0.659-0.466-1.072-0.599c-0.413-0.134-0.858-0.2-1.338-0.2s-0.924,0.071-1.332,0.213
		c-0.409,0.142-0.771,0.34-1.086,0.592c-0.315,0.253-0.579,0.555-0.792,0.905c-0.214,0.351-0.373,0.729-0.479,1.138
		c-0.071,0.257-0.178,0.443-0.32,0.559c-0.142,0.115-0.324,0.173-0.546,0.173c-0.044,0-0.091-0.002-0.14-0.007
		c-0.049-0.004-0.104-0.011-0.167-0.02l-1.238-0.21c0.124-0.87,0.364-1.64,0.72-2.311c0.354-0.67,0.806-1.231,1.352-1.685
		s1.172-0.797,1.878-1.032S592.603,359.432,593.42,359.432z"/>
	<path fill="#FFFFFF" d="M610.028,364.254c0,0.745-0.116,1.414-0.347,2.004c-0.231,0.591-0.539,1.088-0.926,1.492
		c-0.386,0.404-0.837,0.712-1.352,0.926c-0.516,0.213-1.053,0.319-1.612,0.319c-0.604,0-1.16-0.106-1.671-0.319
		c-0.511-0.214-0.957-0.521-1.339-0.926s-0.679-0.901-0.893-1.492c-0.213-0.59-0.319-1.259-0.319-2.004
		c0-0.764,0.106-1.443,0.319-2.038c0.214-0.595,0.511-1.097,0.893-1.505s0.828-0.72,1.339-0.933s1.067-0.319,1.671-0.319
		c0.596,0,1.152,0.106,1.672,0.319s0.968,0.524,1.346,0.933c0.377,0.408,0.674,0.91,0.892,1.505S610.028,363.49,610.028,364.254z
		 M616.701,360.125c0.115-0.151,0.237-0.269,0.366-0.354c0.128-0.084,0.299-0.126,0.513-0.126h1.704l-13.944,18.699
		c-0.089,0.116-0.195,0.209-0.32,0.28c-0.124,0.071-0.271,0.106-0.439,0.106h-1.758L616.701,360.125z M608.177,364.254
		c0-0.587-0.062-1.084-0.187-1.492c-0.125-0.408-0.296-0.743-0.513-1.006c-0.218-0.262-0.471-0.45-0.76-0.565
		c-0.288-0.115-0.597-0.174-0.926-0.174c-0.328,0-0.637,0.059-0.925,0.174c-0.289,0.115-0.54,0.304-0.753,0.565
		c-0.213,0.263-0.38,0.598-0.499,1.006c-0.12,0.408-0.181,0.905-0.181,1.492c0,0.577,0.061,1.067,0.181,1.472
		c0.119,0.404,0.286,0.732,0.499,0.985s0.464,0.436,0.753,0.546c0.288,0.111,0.597,0.167,0.925,0.167
		c0.329,0,0.638-0.056,0.926-0.167c0.289-0.11,0.542-0.293,0.76-0.546c0.217-0.253,0.388-0.581,0.513-0.985
		C608.114,365.321,608.177,364.831,608.177,364.254z M620.576,374.229c0,0.746-0.115,1.412-0.346,1.998
		c-0.231,0.586-0.54,1.081-0.926,1.485c-0.387,0.403-0.835,0.712-1.346,0.926c-0.511,0.213-1.045,0.319-1.604,0.319
		c-0.604,0-1.161-0.106-1.672-0.319c-0.511-0.214-0.957-0.522-1.338-0.926c-0.382-0.404-0.68-0.899-0.893-1.485
		s-0.32-1.252-0.32-1.998c0-0.764,0.107-1.445,0.32-2.044c0.213-0.6,0.511-1.104,0.893-1.512c0.381-0.409,0.827-0.72,1.338-0.933
		s1.067-0.32,1.672-0.32c0.595,0,1.149,0.107,1.665,0.32c0.515,0.213,0.963,0.523,1.345,0.933c0.382,0.408,0.68,0.912,0.893,1.512
		C620.47,372.784,620.576,373.466,620.576,374.229z M618.738,374.229c0-0.586-0.062-1.085-0.187-1.498
		c-0.124-0.413-0.295-0.748-0.513-1.006s-0.471-0.444-0.759-0.56c-0.289-0.115-0.598-0.173-0.926-0.173
		c-0.329,0-0.638,0.058-0.926,0.173c-0.289,0.115-0.539,0.302-0.753,0.56c-0.213,0.258-0.379,0.593-0.499,1.006
		s-0.18,0.912-0.18,1.498c0,0.577,0.06,1.065,0.18,1.465c0.12,0.4,0.286,0.727,0.499,0.979c0.214,0.253,0.464,0.435,0.753,0.546
		c0.288,0.111,0.597,0.166,0.926,0.166c0.328,0,0.637-0.055,0.926-0.166c0.288-0.111,0.541-0.293,0.759-0.546
		s0.389-0.579,0.513-0.979C618.677,375.295,618.738,374.807,618.738,374.229z"/>
</g>
<g>
	<path fill="#FFFFFF" d="M752.185,249.593h4.103V236.58c0-0.391,0.014-0.786,0.04-1.186l-3.41,2.917
		c-0.089,0.071-0.178,0.122-0.266,0.153c-0.089,0.031-0.174,0.047-0.253,0.047c-0.134,0-0.254-0.029-0.36-0.087
		s-0.187-0.127-0.239-0.206l-0.746-1.026l5.674-4.914h1.932v17.314h3.756v1.812h-10.229V249.593z"/>
	<path fill="#FFFFFF" d="M776.839,233.356c0,0.338-0.106,0.615-0.32,0.833c-0.213,0.218-0.572,0.326-1.078,0.326h-5.994
		l-0.879,5.008c0.994-0.213,1.913-0.319,2.757-0.319c0.994,0,1.871,0.146,2.631,0.439c0.759,0.293,1.396,0.697,1.911,1.212
		s0.903,1.123,1.165,1.825c0.262,0.701,0.394,1.465,0.394,2.29c0,1.013-0.178,1.928-0.533,2.744
		c-0.355,0.817-0.841,1.517-1.458,2.098c-0.617,0.582-1.344,1.028-2.178,1.339c-0.835,0.311-1.736,0.466-2.704,0.466
		c-0.56,0-1.097-0.056-1.611-0.166c-0.516-0.111-0.995-0.26-1.438-0.446c-0.444-0.187-0.857-0.399-1.238-0.64
		c-0.383-0.239-0.72-0.492-1.013-0.759l0.719-1.013c0.16-0.23,0.373-0.346,0.64-0.346c0.169,0,0.366,0.068,0.593,0.206
		s0.499,0.291,0.819,0.46c0.319,0.168,0.694,0.321,1.125,0.459s0.943,0.206,1.539,0.206c0.665,0,1.265-0.106,1.798-0.319
		c0.532-0.213,0.987-0.517,1.365-0.912c0.377-0.396,0.668-0.868,0.872-1.419c0.204-0.55,0.307-1.167,0.307-1.851
		c0-0.595-0.087-1.133-0.26-1.612s-0.436-0.888-0.786-1.226c-0.351-0.337-0.788-0.599-1.312-0.785
		c-0.524-0.187-1.137-0.28-1.838-0.28c-0.479,0-0.978,0.04-1.492,0.12s-1.048,0.209-1.599,0.387l-1.491-0.439l1.545-8.924h9.044
		V233.356z"/>
	<path fill="#FFFFFF" d="M788.679,236.927c0,0.745-0.116,1.414-0.347,2.004c-0.231,0.591-0.539,1.088-0.926,1.492
		c-0.386,0.404-0.837,0.712-1.352,0.926c-0.516,0.213-1.053,0.319-1.612,0.319c-0.604,0-1.16-0.106-1.671-0.319
		c-0.511-0.214-0.957-0.521-1.339-0.926s-0.679-0.901-0.893-1.492c-0.213-0.59-0.319-1.259-0.319-2.004
		c0-0.764,0.106-1.443,0.319-2.038c0.214-0.595,0.511-1.097,0.893-1.505s0.828-0.72,1.339-0.933s1.067-0.319,1.671-0.319
		c0.596,0,1.152,0.106,1.672,0.319s0.968,0.524,1.346,0.933c0.377,0.408,0.674,0.91,0.892,1.505S788.679,236.163,788.679,236.927z
		 M795.352,232.798c0.115-0.151,0.237-0.269,0.366-0.354c0.128-0.084,0.299-0.126,0.513-0.126h1.704l-13.944,18.699
		c-0.089,0.116-0.195,0.209-0.32,0.28c-0.124,0.071-0.271,0.106-0.439,0.106h-1.758L795.352,232.798z M786.827,236.927
		c0-0.587-0.062-1.084-0.187-1.492c-0.125-0.408-0.296-0.743-0.513-1.006c-0.218-0.262-0.471-0.45-0.76-0.565
		c-0.288-0.115-0.597-0.174-0.926-0.174c-0.328,0-0.637,0.059-0.925,0.174c-0.289,0.115-0.54,0.304-0.753,0.565
		c-0.213,0.263-0.38,0.598-0.499,1.006c-0.12,0.408-0.181,0.905-0.181,1.492c0,0.577,0.061,1.067,0.181,1.472
		c0.119,0.404,0.286,0.732,0.499,0.985s0.464,0.436,0.753,0.546c0.288,0.111,0.597,0.167,0.925,0.167
		c0.329,0,0.638-0.056,0.926-0.167c0.289-0.11,0.542-0.293,0.76-0.546c0.217-0.253,0.388-0.581,0.513-0.985
		C786.765,237.994,786.827,237.504,786.827,236.927z M799.227,246.902c0,0.746-0.115,1.412-0.346,1.998
		c-0.231,0.586-0.54,1.081-0.926,1.485c-0.387,0.403-0.835,0.712-1.346,0.926c-0.511,0.213-1.045,0.319-1.604,0.319
		c-0.604,0-1.161-0.106-1.672-0.319c-0.511-0.214-0.957-0.522-1.338-0.926c-0.382-0.404-0.68-0.899-0.893-1.485
		s-0.32-1.252-0.32-1.998c0-0.764,0.107-1.445,0.32-2.044c0.213-0.6,0.511-1.104,0.893-1.512c0.381-0.409,0.827-0.72,1.338-0.933
		s1.067-0.32,1.672-0.32c0.595,0,1.149,0.107,1.665,0.32c0.515,0.213,0.963,0.523,1.345,0.933c0.382,0.408,0.68,0.912,0.893,1.512
		C799.12,245.457,799.227,246.139,799.227,246.902z M797.389,246.902c0-0.586-0.062-1.085-0.187-1.498
		c-0.124-0.413-0.295-0.748-0.513-1.006s-0.471-0.444-0.759-0.56c-0.289-0.115-0.598-0.173-0.926-0.173
		c-0.329,0-0.638,0.058-0.926,0.173c-0.289,0.115-0.539,0.302-0.753,0.56c-0.213,0.258-0.379,0.593-0.499,1.006
		s-0.18,0.912-0.18,1.498c0,0.577,0.06,1.065,0.18,1.465c0.12,0.4,0.286,0.727,0.499,0.979c0.214,0.253,0.464,0.435,0.753,0.546
		c0.288,0.111,0.597,0.166,0.926,0.166c0.328,0,0.637-0.055,0.926-0.166c0.288-0.111,0.541-0.293,0.759-0.546
		s0.389-0.579,0.513-0.979C797.327,247.968,797.389,247.479,797.389,246.902z"/>
</g>
</svg>
