<?xml version="1.0" encoding="utf-8"?>
<!-- Generator: Adobe Illustrator 16.0.0, SVG Export Plug-In . SVG Version: 6.00 Build 0)  -->
<!DOCTYPE svg PUBLIC "-//W3C//DTD SVG 1.1//EN" "http://www.w3.org/Graphics/SVG/1.1/DTD/svg11.dtd">
<svg version="1.1" id="Layer_1" xmlns="http://www.w3.org/2000/svg" xmlns:xlink="http://www.w3.org/1999/xlink" x="0px" y="0px"
	 width="800px" height="599.97px" viewBox="0 0 800 599.97" enable-background="new 0 0 800 599.97" xml:space="preserve">
<text transform="matrix(1 0 0 1 85.3882 533.1855)"><tspan x="0" y="0" fill="#FFFFFF" font-family="'Lato-Regular'" font-size="14.7943">Abuse of </tspan><tspan x="-9.646" y="17.754" fill="#FFFFFF" font-family="'Lato-Regular'" font-size="14.7943">government</tspan><tspan x="-16.518" y="35.508" fill="#FFFFFF" font-family="'Lato-Regular'" font-size="14.7943">resources by a</tspan><tspan x="-12.989" y="53.26" fill="#FFFFFF" font-family="'Lato-Regular'" font-size="14.7943">public official</tspan></text>
<text transform="matrix(1 0 0 1 205.2603 533.1855)"><tspan x="0" y="0" fill="#FFFFFF" font-family="'Lato-Regular'" font-size="14.7943">Corruption in </tspan><tspan x="4.431" y="17.754" fill="#FFFFFF" font-family="'Lato-Regular'" font-size="14.7943">employment</tspan></text>
<text transform="matrix(1 0 0 1 333.3643 533.1855)"><tspan x="0" y="0" fill="#FFFFFF" font-family="'Lato-Regular'" font-size="14.7943">Construction in</tspan><tspan x="7.7" y="17.754" fill="#FFFFFF" font-family="'Lato-Regular'" font-size="14.7943">procurement</tspan><tspan x="18.108" y="35.508" fill="#FFFFFF" font-family="'Lato-Regular'" font-size="14.7943">processes</tspan></text>
<text transform="matrix(1 0 0 1 494.6621 533.1855)" fill="#FFFFFF" font-family="'Lato-Regular'" font-size="14.7943">Bribery</text>
<text transform="matrix(1 0 0 1 642.9736 533.1855)" fill="#FFFFFF" font-family="'Lato-Regular'" font-size="14.7943">Other</text>
<g>
	<g>
		<polygon fill="#5DC7C3" points="166.187,419.401 166.187,444.758 69.204,444.758 69.204,438.387 		"/>
		<polygon fill="#5DC7C3" points="166.187,406.284 166.187,412.755 69.204,431.738 69.204,425.27 		"/>
		<polygon fill="#5DC7C3" points="166.187,393.166 166.187,399.638 69.204,418.625 69.204,412.154 		"/>
		<polygon fill="#5DC7C3" points="166.187,380.043 166.187,386.52 69.204,405.506 69.204,399.035 		"/>
		<polygon fill="#5DC7C3" points="166.187,366.926 166.187,373.398 69.204,392.389 69.204,385.915 		"/>
		<polygon fill="#5DC7C3" points="166.187,353.811 166.187,360.281 69.204,379.271 69.204,372.798 		"/>
		<polygon fill="#5DC7C3" points="166.187,340.693 166.187,347.164 69.204,366.153 69.204,359.681 		"/>
		<polygon fill="#5DC7C3" points="166.187,327.575 166.187,334.047 69.204,353.032 69.204,346.563 		"/>
		<polygon fill="#5DC7C3" points="166.187,314.458 166.187,320.93 69.204,339.917 69.204,333.446 		"/>
		<polygon fill="#5DC7C3" points="166.187,301.34 166.187,307.81 69.204,326.8 69.204,320.326 		"/>
		<polygon fill="#5DC7C3" points="166.187,288.222 166.187,294.693 69.204,313.681 69.204,307.209 		"/>
		<polygon fill="#5DC7C3" points="166.187,275.104 166.187,281.579 69.204,300.562 69.204,294.092 		"/>
		<polygon fill="#5DC7C3" points="166.187,261.986 166.187,268.46 69.204,287.443 69.204,280.975 		"/>
		<polygon fill="#5DC7C3" points="166.187,248.868 166.187,255.343 69.204,274.326 69.204,267.857 		"/>
		<polygon fill="#5DC7C3" points="166.187,235.748 166.187,242.226 69.204,261.211 69.204,254.737 		"/>
		<polygon fill="#5DC7C3" points="166.187,222.63 166.187,229.104 69.204,248.093 69.204,241.619 		"/>
		<polygon fill="#5DC7C3" points="166.187,209.515 166.187,215.985 69.204,234.976 69.204,228.5 		"/>
		<polygon fill="#5DC7C3" points="166.187,196.397 166.187,202.868 69.204,221.854 69.204,215.382 		"/>
		<polygon fill="#5DC7C3" points="166.187,183.279 166.187,189.75 69.204,208.735 69.204,202.266 		"/>
		<polygon fill="#5DC7C3" points="166.187,170.162 166.187,176.634 69.204,195.619 69.204,189.147 		"/>
		<polygon fill="#5DC7C3" points="166.187,157.042 166.187,163.516 69.204,182.505 69.204,176.029 		"/>
		<polygon fill="#5DC7C3" points="166.187,143.926 166.187,150.397 69.204,169.384 69.204,162.908 		"/>
		<polygon fill="#5DC7C3" points="166.187,130.808 166.187,137.28 69.204,156.266 69.204,149.791 		"/>
		<polygon fill="#5DC7C3" points="166.187,117.691 166.187,124.161 69.204,143.147 69.204,136.674 		"/>
		<polygon fill="#5DC7C3" points="166.187,104.569 166.187,111.045 69.204,130.026 69.204,123.558 		"/>
		<polygon fill="#5DC7C3" points="166.187,91.451 166.187,97.924 69.204,116.911 69.204,110.438 		"/>
		<polygon fill="#5DC7C3" points="166.187,78.333 166.187,84.808 69.204,103.794 69.204,97.323 		"/>
		<polygon fill="#5DC7C3" points="166.187,65.219 166.187,71.686 69.204,90.677 69.204,84.206 		"/>
		<polygon fill="#5DC7C3" points="166.187,51.565 166.187,58.572 69.204,77.559 69.197,51.565 		"/>
	</g>
</g>
<g>
	<polygon fill="#5E7E53" points="296.812,419.401 296.812,444.758 199.836,444.758 199.836,438.387 	"/>
	<polygon fill="#5E7E53" points="296.812,406.284 296.812,412.755 199.836,431.738 199.836,425.27 	"/>
	<polygon fill="#5E7E53" points="296.812,393.166 296.812,399.638 199.836,418.625 199.836,412.154 	"/>
	<polygon fill="#5E7E53" points="296.812,380.043 296.812,386.52 199.836,405.506 199.836,399.035 	"/>
	<polygon fill="#5E7E53" points="296.812,365.977 296.812,372.984 199.836,391.972 199.825,365.977 	"/>
</g>
<g>
	<polygon fill="#EEC900" points="434.226,419.401 434.226,444.758 337.247,444.758 337.247,438.387 	"/>
	<polygon fill="#EEC900" points="434.226,406.284 434.226,412.755 337.247,431.738 337.247,425.27 	"/>
	<polygon fill="#EEC900" points="434.226,393.166 434.226,399.638 337.247,418.625 337.247,412.154 	"/>
	<polygon fill="#EEC900" points="434.226,380.043 434.226,386.52 337.247,405.506 337.247,399.035 	"/>
	<polygon fill="#EEC900" points="434.226,366.926 434.226,373.398 337.247,392.389 337.247,385.915 	"/>
	<polygon fill="#EEC900" points="434.226,353.811 434.226,360.281 337.247,379.271 337.247,372.798 	"/>
	<polygon fill="#EEC900" points="434.226,340.693 434.226,347.164 337.247,366.153 337.247,359.681 	"/>
	<polygon fill="#EEC900" points="434.226,327.575 434.226,334.047 337.247,353.032 337.247,346.563 	"/>
	<polygon fill="#EEC900" points="434.226,314.458 434.226,320.93 337.247,339.917 337.247,333.446 	"/>
	<polygon fill="#EEC900" points="434.226,301.34 434.226,307.81 337.247,326.8 337.247,320.326 	"/>
	<polygon fill="#EEC900" points="434.226,285.677 434.226,292.683 337.247,311.672 337.238,285.677 	"/>
</g>
<g>
	<polygon fill="#0E5461" points="570.791,419.401 570.791,444.758 473.813,444.758 473.813,438.387 	"/>
	<polygon fill="#0E5461" points="570.791,406.284 570.791,412.755 473.813,431.738 473.813,425.27 	"/>
	<polygon fill="#0E5461" points="570.791,393.166 570.791,399.638 473.813,418.625 473.813,412.154 	"/>
	<polygon fill="#0E5461" points="570.791,380.043 570.791,386.52 473.813,405.506 473.813,399.035 	"/>
	<polygon fill="#0E5461" points="570.791,366.926 570.791,373.398 473.813,392.389 473.813,385.915 	"/>
	<polygon fill="#0E5461" points="570.791,353.811 570.791,360.281 473.813,379.271 473.813,372.798 	"/>
	<polygon fill="#0E5461" points="570.791,340.693 570.791,347.164 473.813,366.153 473.813,359.681 	"/>
	<polygon fill="#0E5461" points="570.791,327.575 570.791,334.047 473.813,353.032 473.813,346.563 	"/>
	<polygon fill="#0E5461" points="570.791,314.706 570.791,321.182 473.813,340.167 473.813,333.696 	"/>
	<polygon fill="#0E5461" points="570.791,301.511 570.791,308.517 473.813,327.502 473.805,301.511 	"/>
</g>
<g>
	<polygon fill="#2AC4F3" points="708.203,419.401 708.203,444.758 611.227,444.758 611.227,438.387 	"/>
	<polygon fill="#2AC4F3" points="708.203,406.284 708.203,412.755 611.227,431.738 611.227,425.27 	"/>
	<polygon fill="#2AC4F3" points="708.203,393.166 708.203,399.638 611.227,418.625 611.227,412.154 	"/>
	<polygon fill="#2AC4F3" points="708.203,381.244 708.203,388.25 611.227,407.237 611.219,381.244 	"/>
</g>
<rect x="17.581" y="495.439" fill="#0E5461" width="765.98" height="7.743"/>
<text transform="matrix(1.0516 0 0 1 94.2749 41.29)" fill="#FFFFFF" font-family="'Lato-Bold'" font-size="28.1092">421</text>
<text transform="matrix(1.0516 0 0 1 226.9385 484.7227)" fill="#DA1C5C" font-family="'Lato-Bold'" font-size="31.0681">7%</text>
<text transform="matrix(1.0516 0 0 1 352.8452 484.7227)" fill="#DA1C5C" font-family="'Lato-Bold'" font-size="31.0681">12%</text>
<text transform="matrix(1.0516 0 0 1 489.7168 484.7227)" fill="#DA1C5C" font-family="'Lato-Bold'" font-size="31.0681">11%</text>
<text transform="matrix(1.0516 0 0 1 642.3193 484.7227)" fill="#DA1C5C" font-family="'Lato-Bold'" font-size="31.0681">4%</text>
<text transform="matrix(1.0516 0 0 1 227.8174 354.2646)" fill="#FFFFFF" font-family="'Lato-Bold'" font-size="28.1092">82</text>
<text transform="matrix(1.0516 0 0 1 357.8745 274.8066)" fill="#FFFFFF" font-family="'Lato-Bold'" font-size="28.1092">148</text>
<text transform="matrix(1.0516 0 0 1 495.6582 290.8672)" fill="#FFFFFF" font-family="'Lato-Bold'" font-size="28.1092">132</text>
<text transform="matrix(1.0516 0 0 1 639.4775 372.0156)" fill="#FFFFFF" font-family="'Lato-Bold'" font-size="28.1092">49</text>
<text transform="matrix(1.0516 0 0 1 86.3706 484.7236)" fill="#DA1C5C" font-family="'Lato-Bold'" font-size="31.0681">37%</text>
</svg>
