<?xml version="1.0" encoding="utf-8"?>
<!-- Generator: Adobe Illustrator 16.0.0, SVG Export Plug-In . SVG Version: 6.00 Build 0)  -->
<!DOCTYPE svg PUBLIC "-//W3C//DTD SVG 1.1//EN" "http://www.w3.org/Graphics/SVG/1.1/DTD/svg11.dtd">
<svg version="1.1" id="Layer_1" xmlns="http://www.w3.org/2000/svg" xmlns:xlink="http://www.w3.org/1999/xlink" x="0px" y="0px"
	 width="858px" height="519px" viewBox="0 0 858 519" enable-background="new 0 0 858 519" xml:space="preserve">
<g>
	<path fill="#FFFFFF" d="M51.988,485.483h5.456v1.435h-7.163v-12.609h1.707V485.483z"/>
	<path fill="#FFFFFF" d="M62.371,477.864c0.651,0,1.239,0.108,1.764,0.325s0.971,0.525,1.337,0.924
		c0.367,0.399,0.648,0.882,0.845,1.447c0.197,0.566,0.295,1.198,0.295,1.896c0,0.704-0.098,1.337-0.295,1.9
		c-0.196,0.563-0.478,1.044-0.845,1.443c-0.367,0.398-0.812,0.705-1.337,0.919s-1.113,0.321-1.764,0.321
		c-0.651,0-1.239-0.107-1.764-0.321s-0.972-0.521-1.342-0.919c-0.37-0.399-0.654-0.88-0.854-1.443s-0.299-1.196-0.299-1.9
		c0-0.698,0.1-1.33,0.299-1.896c0.199-0.565,0.484-1.048,0.854-1.447c0.37-0.398,0.817-0.707,1.342-0.924
		S61.72,477.864,62.371,477.864z M62.371,485.818c0.88,0,1.537-0.295,1.971-0.885c0.434-0.589,0.651-1.412,0.651-2.468
		c0-1.062-0.217-1.889-0.651-2.481c-0.435-0.593-1.091-0.889-1.971-0.889c-0.446,0-0.833,0.076-1.161,0.229
		c-0.329,0.153-0.603,0.373-0.823,0.66c-0.22,0.287-0.384,0.641-0.493,1.061c-0.109,0.419-0.163,0.893-0.163,1.421
		c0,0.527,0.054,1,0.163,1.417c0.108,0.416,0.272,0.767,0.493,1.051c0.22,0.285,0.494,0.503,0.823,0.655
		C61.538,485.742,61.925,485.818,62.371,485.818z"/>
	<path fill="#FFFFFF" d="M74.628,479.589c-0.047,0.064-0.094,0.114-0.141,0.149s-0.114,0.053-0.202,0.053s-0.184-0.037-0.286-0.11
		s-0.233-0.154-0.392-0.242c-0.158-0.088-0.351-0.168-0.576-0.241s-0.503-0.11-0.832-0.11c-0.434,0-0.818,0.078-1.152,0.233
		c-0.334,0.155-0.615,0.38-0.84,0.673c-0.226,0.293-0.396,0.648-0.51,1.064c-0.115,0.417-0.172,0.883-0.172,1.399
		c0,0.54,0.062,1.02,0.185,1.438c0.123,0.42,0.296,0.771,0.519,1.056c0.223,0.285,0.494,0.502,0.814,0.651
		c0.319,0.149,0.679,0.225,1.078,0.225c0.381,0,0.695-0.046,0.941-0.137c0.247-0.091,0.452-0.192,0.616-0.304
		c0.164-0.111,0.299-0.212,0.405-0.304c0.105-0.091,0.211-0.136,0.316-0.136c0.135,0,0.235,0.05,0.299,0.149l0.44,0.572
		c-0.387,0.475-0.871,0.822-1.452,1.042c-0.581,0.221-1.194,0.33-1.839,0.33c-0.557,0-1.075-0.103-1.553-0.308
		s-0.893-0.503-1.245-0.894c-0.352-0.39-0.629-0.869-0.832-1.438c-0.202-0.568-0.304-1.217-0.304-1.944
		c0-0.663,0.093-1.276,0.277-1.839c0.185-0.563,0.455-1.049,0.81-1.456c0.355-0.408,0.793-0.727,1.315-0.955s1.12-0.343,1.795-0.343
		c0.622,0,1.173,0.101,1.654,0.303c0.481,0.203,0.906,0.488,1.276,0.858L74.628,479.589z"/>
	<path fill="#FFFFFF" d="M83.312,486.918h-0.695c-0.152,0-0.276-0.023-0.37-0.07s-0.155-0.146-0.185-0.299l-0.176-0.827
		c-0.235,0.211-0.464,0.4-0.687,0.567c-0.223,0.167-0.458,0.308-0.704,0.422c-0.246,0.114-0.509,0.201-0.787,0.26
		c-0.279,0.059-0.588,0.088-0.928,0.088c-0.346,0-0.67-0.049-0.973-0.146s-0.564-0.243-0.787-0.437
		c-0.223-0.194-0.4-0.44-0.533-0.737c-0.132-0.298-0.198-0.649-0.198-1.056c0-0.353,0.097-0.693,0.291-1.02
		c0.193-0.327,0.506-0.616,0.937-0.87c0.431-0.253,0.996-0.46,1.694-0.622c0.698-0.162,1.551-0.243,2.56-0.243v-0.699
		c0-0.696-0.148-1.224-0.444-1.58c-0.296-0.357-0.734-0.536-1.315-0.536c-0.381,0-0.702,0.049-0.963,0.146s-0.487,0.205-0.677,0.325
		c-0.191,0.12-0.355,0.229-0.493,0.325c-0.138,0.098-0.274,0.146-0.409,0.146c-0.106,0-0.198-0.027-0.277-0.083
		c-0.079-0.057-0.143-0.125-0.189-0.207l-0.281-0.502c0.493-0.475,1.023-0.83,1.592-1.064c0.569-0.234,1.2-0.352,1.892-0.352
		c0.499,0,0.941,0.082,1.329,0.246s0.712,0.393,0.977,0.687c0.264,0.293,0.463,0.647,0.598,1.064
		c0.135,0.416,0.203,0.874,0.203,1.372V486.918z M79.248,485.959c0.275,0,0.528-0.028,0.756-0.084
		c0.229-0.056,0.444-0.135,0.647-0.237c0.202-0.103,0.396-0.228,0.581-0.374c0.185-0.146,0.365-0.313,0.541-0.501v-1.84
		c-0.721,0-1.334,0.046-1.839,0.138s-0.915,0.211-1.232,0.358c-0.316,0.147-0.547,0.321-0.69,0.522
		c-0.144,0.2-0.216,0.425-0.216,0.672c0,0.236,0.038,0.44,0.115,0.611c0.076,0.171,0.179,0.311,0.308,0.42s0.282,0.189,0.458,0.239
		C78.852,485.934,79.042,485.959,79.248,485.959z"/>
	<path fill="#FFFFFF" d="M87.43,473.957v12.961h-1.566v-12.961H87.43z"/>
	<path fill="#FFFFFF" d="M28.091,498.973c0.387,0,0.749,0.042,1.086,0.127s0.644,0.21,0.919,0.374h2.42v0.581
		c0,0.193-0.123,0.316-0.37,0.369l-1.012,0.141c0.199,0.382,0.299,0.807,0.299,1.276c0,0.434-0.083,0.828-0.25,1.184
		c-0.167,0.354-0.399,0.658-0.695,0.91c-0.296,0.253-0.648,0.446-1.056,0.581s-0.855,0.202-1.342,0.202
		c-0.417,0-0.81-0.05-1.179-0.149c-0.188,0.121-0.33,0.252-0.427,0.392c-0.097,0.139-0.145,0.275-0.145,0.409
		c0,0.218,0.085,0.384,0.255,0.495c0.17,0.112,0.396,0.193,0.678,0.241c0.282,0.049,0.601,0.073,0.959,0.073s0.723,0,1.096,0
		c0.372,0,0.737,0.032,1.095,0.098s0.678,0.173,0.959,0.321c0.282,0.148,0.507,0.354,0.678,0.614c0.17,0.261,0.255,0.6,0.255,1.016
		c0,0.386-0.095,0.76-0.286,1.122c-0.191,0.362-0.465,0.685-0.823,0.967c-0.358,0.281-0.795,0.507-1.311,0.677
		c-0.516,0.169-1.1,0.254-1.751,0.254c-0.651,0-1.222-0.064-1.711-0.194c-0.49-0.129-0.896-0.303-1.219-0.52
		s-0.564-0.468-0.726-0.753c-0.162-0.285-0.242-0.583-0.242-0.895c0-0.44,0.139-0.814,0.418-1.122
		c0.278-0.309,0.661-0.554,1.148-0.736c-0.252-0.117-0.453-0.273-0.603-0.47c-0.149-0.196-0.224-0.458-0.224-0.786
		c0-0.129,0.023-0.262,0.07-0.399s0.119-0.274,0.215-0.409c0.097-0.135,0.216-0.264,0.356-0.387c0.141-0.122,0.305-0.23,0.493-0.324
		c-0.44-0.247-0.785-0.573-1.034-0.981c-0.25-0.407-0.374-0.885-0.374-1.43c0-0.435,0.083-0.828,0.251-1.184
		c0.167-0.354,0.4-0.657,0.699-0.906c0.299-0.249,0.656-0.441,1.069-0.576S27.598,498.973,28.091,498.973z M30.871,508.487
		c0-0.228-0.062-0.409-0.185-0.547c-0.124-0.138-0.291-0.244-0.501-0.319c-0.211-0.074-0.455-0.13-0.73-0.166
		c-0.276-0.035-0.566-0.054-0.871-0.054c-0.305,0-0.616,0-0.933,0c-0.317,0-0.619-0.039-0.906-0.118
		c-0.334,0.158-0.606,0.353-0.814,0.581c-0.208,0.229-0.312,0.503-0.312,0.819c0,0.2,0.051,0.387,0.154,0.56
		c0.103,0.174,0.26,0.323,0.471,0.45c0.211,0.126,0.476,0.226,0.796,0.3c0.32,0.073,0.697,0.109,1.131,0.109
		c0.422,0,0.801-0.038,1.135-0.116c0.334-0.078,0.617-0.188,0.849-0.332c0.232-0.144,0.409-0.314,0.533-0.512
		C30.81,508.945,30.871,508.727,30.871,508.487z M28.091,503.68c0.316,0,0.597-0.044,0.84-0.132c0.243-0.088,0.447-0.211,0.611-0.37
		c0.164-0.158,0.288-0.347,0.37-0.567c0.082-0.22,0.123-0.462,0.123-0.726c0-0.546-0.166-0.979-0.497-1.303
		c-0.332-0.322-0.814-0.483-1.447-0.483c-0.628,0-1.107,0.161-1.439,0.483c-0.331,0.323-0.497,0.757-0.497,1.303
		c0,0.264,0.042,0.506,0.128,0.726c0.085,0.221,0.209,0.409,0.374,0.567c0.164,0.159,0.366,0.282,0.607,0.37
		C27.504,503.636,27.78,503.68,28.091,503.68z"/>
	<path fill="#FFFFFF" d="M37.69,498.981c0.651,0,1.239,0.108,1.764,0.325s0.971,0.525,1.337,0.924
		c0.367,0.399,0.648,0.882,0.845,1.447c0.197,0.566,0.295,1.198,0.295,1.896c0,0.704-0.098,1.337-0.295,1.9
		c-0.196,0.563-0.478,1.044-0.845,1.443c-0.367,0.398-0.812,0.705-1.337,0.919s-1.113,0.321-1.764,0.321
		c-0.651,0-1.239-0.107-1.764-0.321s-0.972-0.521-1.342-0.919c-0.37-0.399-0.654-0.88-0.854-1.443s-0.299-1.196-0.299-1.9
		c0-0.698,0.1-1.33,0.299-1.896c0.199-0.565,0.484-1.048,0.854-1.447c0.37-0.398,0.817-0.707,1.342-0.924
		S37.039,498.981,37.69,498.981z M37.69,506.936c0.88,0,1.537-0.295,1.971-0.885c0.434-0.589,0.651-1.412,0.651-2.468
		c0-1.062-0.217-1.889-0.651-2.481c-0.435-0.593-1.091-0.889-1.971-0.889c-0.446,0-0.833,0.076-1.161,0.229
		c-0.329,0.153-0.603,0.373-0.823,0.66c-0.22,0.287-0.384,0.641-0.493,1.061c-0.109,0.419-0.163,0.893-0.163,1.421
		c0,0.527,0.054,1,0.163,1.417c0.108,0.416,0.272,0.767,0.493,1.051c0.22,0.285,0.494,0.503,0.823,0.655
		C36.857,506.859,37.244,506.936,37.69,506.936z"/>
	<path fill="#FFFFFF" d="M42.512,499.122h1.285c0.124,0,0.226,0.032,0.308,0.097s0.141,0.141,0.176,0.229l2.262,5.737
		c0.082,0.211,0.146,0.422,0.193,0.633c0.047,0.212,0.091,0.42,0.132,0.625c0.047-0.205,0.097-0.413,0.15-0.625
		c0.053-0.211,0.12-0.422,0.202-0.633l2.288-5.737c0.035-0.094,0.093-0.172,0.172-0.233s0.177-0.092,0.294-0.092h1.223l-3.634,8.913
		h-1.417L42.512,499.122z"/>
	<path fill="#FFFFFF" d="M55.948,498.981c0.534,0,1.026,0.089,1.478,0.268c0.452,0.18,0.842,0.438,1.17,0.774
		c0.329,0.338,0.585,0.754,0.77,1.25c0.185,0.495,0.277,1.06,0.277,1.693c0,0.246-0.026,0.411-0.079,0.493s-0.152,0.123-0.299,0.123
		h-5.931c0.012,0.563,0.088,1.053,0.229,1.47c0.141,0.416,0.334,0.764,0.581,1.042c0.246,0.279,0.54,0.487,0.88,0.625
		c0.34,0.138,0.722,0.207,1.144,0.207c0.393,0,0.732-0.046,1.017-0.137c0.284-0.091,0.529-0.189,0.734-0.295
		c0.206-0.105,0.377-0.203,0.515-0.295c0.138-0.091,0.256-0.136,0.356-0.136c0.129,0,0.229,0.05,0.299,0.149l0.44,0.572
		c-0.193,0.234-0.425,0.438-0.695,0.611c-0.27,0.173-0.559,0.315-0.867,0.427c-0.308,0.111-0.626,0.195-0.955,0.251
		s-0.654,0.083-0.977,0.083c-0.616,0-1.184-0.104-1.703-0.312s-0.968-0.513-1.346-0.915c-0.378-0.401-0.673-0.898-0.884-1.491
		c-0.211-0.593-0.317-1.272-0.317-2.041c0-0.622,0.096-1.203,0.286-1.742c0.19-0.54,0.465-1.008,0.823-1.403
		c0.358-0.396,0.795-0.707,1.311-0.934C54.722,499.094,55.303,498.981,55.948,498.981z M55.983,500.134
		c-0.757,0-1.352,0.219-1.786,0.655c-0.434,0.438-0.704,1.043-0.81,1.817h4.848c0-0.364-0.05-0.696-0.149-0.999
		c-0.1-0.302-0.247-0.563-0.44-0.783c-0.194-0.22-0.43-0.39-0.708-0.51C56.66,500.194,56.341,500.134,55.983,500.134z"/>
	<path fill="#FFFFFF" d="M61.641,508.035v-8.913h0.897c0.17,0,0.287,0.032,0.352,0.097c0.064,0.064,0.108,0.176,0.132,0.334
		l0.105,1.391c0.305-0.622,0.682-1.107,1.131-1.456c0.449-0.35,0.975-0.523,1.58-0.523c0.246,0,0.469,0.027,0.668,0.083
		c0.199,0.056,0.384,0.134,0.554,0.233l-0.202,1.17c-0.041,0.146-0.132,0.221-0.273,0.221c-0.082,0-0.208-0.028-0.378-0.084
		c-0.17-0.056-0.408-0.084-0.712-0.084c-0.546,0-1.002,0.159-1.368,0.476c-0.367,0.316-0.673,0.777-0.919,1.381v5.676H61.641z"/>
	<path fill="#FFFFFF" d="M68.732,508.035v-8.913h0.933c0.223,0,0.364,0.108,0.422,0.325l0.123,0.968
		c0.387-0.428,0.82-0.774,1.298-1.038s1.031-0.396,1.659-0.396c0.487,0,0.917,0.08,1.289,0.241c0.373,0.162,0.683,0.391,0.933,0.687
		c0.25,0.297,0.438,0.652,0.567,1.069c0.129,0.416,0.194,0.877,0.194,1.381v5.676h-1.566v-5.676c0-0.674-0.154-1.197-0.462-1.57
		c-0.308-0.372-0.779-0.559-1.412-0.559c-0.463,0-0.896,0.111-1.298,0.334c-0.402,0.224-0.773,0.525-1.113,0.906v6.564H68.732z"/>
	<path fill="#FFFFFF" d="M78.517,508.035v-8.913h0.933c0.223,0,0.364,0.108,0.422,0.325l0.114,0.915
		c0.329-0.404,0.697-0.736,1.104-0.994s0.881-0.387,1.421-0.387c0.604,0,1.092,0.167,1.465,0.501
		c0.373,0.335,0.641,0.786,0.805,1.355c0.124-0.323,0.286-0.602,0.488-0.836c0.203-0.234,0.43-0.429,0.682-0.581
		c0.252-0.152,0.521-0.264,0.805-0.334c0.284-0.07,0.573-0.105,0.867-0.105c0.469,0,0.887,0.074,1.254,0.224
		c0.366,0.15,0.677,0.368,0.933,0.656c0.255,0.287,0.45,0.641,0.585,1.06c0.135,0.42,0.202,0.899,0.202,1.438v5.676h-1.566v-5.676
		c0-0.697-0.153-1.227-0.458-1.588c-0.305-0.36-0.748-0.541-1.329-0.541c-0.258,0-0.503,0.046-0.735,0.137s-0.436,0.224-0.611,0.4
		c-0.176,0.176-0.315,0.397-0.418,0.664c-0.103,0.267-0.154,0.576-0.154,0.928v5.676h-1.566v-5.676c0-0.715-0.144-1.249-0.431-1.601
		c-0.288-0.353-0.707-0.528-1.258-0.528c-0.387,0-0.747,0.104-1.078,0.312c-0.332,0.208-0.635,0.491-0.911,0.849v6.644H78.517z"/>
	<path fill="#FFFFFF" d="M96.493,498.981c0.534,0,1.026,0.089,1.478,0.268c0.452,0.18,0.842,0.438,1.17,0.774
		c0.329,0.338,0.585,0.754,0.77,1.25c0.185,0.495,0.277,1.06,0.277,1.693c0,0.246-0.026,0.411-0.079,0.493s-0.152,0.123-0.299,0.123
		H93.88c0.012,0.563,0.088,1.053,0.229,1.47c0.141,0.416,0.334,0.764,0.581,1.042c0.246,0.279,0.54,0.487,0.88,0.625
		c0.34,0.138,0.722,0.207,1.144,0.207c0.393,0,0.732-0.046,1.017-0.137c0.284-0.091,0.529-0.189,0.734-0.295
		c0.206-0.105,0.377-0.203,0.515-0.295c0.138-0.091,0.256-0.136,0.356-0.136c0.129,0,0.229,0.05,0.299,0.149l0.44,0.572
		c-0.193,0.234-0.425,0.438-0.695,0.611c-0.27,0.173-0.559,0.315-0.867,0.427c-0.308,0.111-0.626,0.195-0.955,0.251
		s-0.654,0.083-0.977,0.083c-0.616,0-1.184-0.104-1.703-0.312s-0.968-0.513-1.346-0.915c-0.378-0.401-0.673-0.898-0.884-1.491
		c-0.211-0.593-0.317-1.272-0.317-2.041c0-0.622,0.096-1.203,0.286-1.742c0.19-0.54,0.465-1.008,0.823-1.403
		c0.358-0.396,0.795-0.707,1.311-0.934C95.267,499.094,95.848,498.981,96.493,498.981z M96.528,500.134
		c-0.757,0-1.352,0.219-1.786,0.655c-0.434,0.438-0.704,1.043-0.81,1.817h4.848c0-0.364-0.05-0.696-0.149-0.999
		c-0.1-0.302-0.247-0.563-0.44-0.783c-0.194-0.22-0.43-0.39-0.708-0.51C97.205,500.194,96.886,500.134,96.528,500.134z"/>
	<path fill="#FFFFFF" d="M102.186,508.035v-8.913h0.933c0.223,0,0.364,0.108,0.422,0.325l0.123,0.968
		c0.387-0.428,0.82-0.774,1.298-1.038s1.031-0.396,1.659-0.396c0.487,0,0.917,0.08,1.289,0.241c0.373,0.162,0.683,0.391,0.933,0.687
		c0.25,0.297,0.438,0.652,0.567,1.069c0.129,0.416,0.194,0.877,0.194,1.381v5.676h-1.566v-5.676c0-0.674-0.154-1.197-0.462-1.57
		c-0.308-0.372-0.779-0.559-1.412-0.559c-0.463,0-0.896,0.111-1.298,0.334c-0.402,0.224-0.773,0.525-1.113,0.906v6.564H102.186z"/>
	<path fill="#FFFFFF" d="M114.671,508.176c-0.704,0-1.245-0.196-1.624-0.59c-0.378-0.393-0.567-0.959-0.567-1.697v-5.456h-1.073
		c-0.094,0-0.173-0.027-0.238-0.083s-0.097-0.143-0.097-0.26v-0.625l1.46-0.185l0.361-2.754c0.012-0.088,0.05-0.16,0.114-0.216
		s0.146-0.084,0.247-0.084h0.792v3.071h2.551v1.135h-2.551v5.35c0,0.376,0.091,0.654,0.272,0.836
		c0.182,0.183,0.417,0.273,0.704,0.273c0.164,0,0.307-0.022,0.427-0.066s0.224-0.092,0.312-0.146
		c0.088-0.053,0.163-0.101,0.224-0.145s0.116-0.066,0.163-0.066c0.083,0,0.156,0.05,0.22,0.149l0.458,0.748
		c-0.27,0.253-0.595,0.45-0.977,0.594C115.469,508.104,115.076,508.176,114.671,508.176z"/>
</g>
<g>
	<path fill="#FFFFFF" d="M203.386,482.202v4.716h-1.698v-12.609h3.722c0.798,0,1.492,0.093,2.081,0.277
		c0.589,0.186,1.078,0.447,1.465,0.788c0.387,0.34,0.676,0.751,0.867,1.231c0.191,0.481,0.286,1.018,0.286,1.61
		c0,0.587-0.103,1.123-0.308,1.61c-0.205,0.486-0.506,0.906-0.902,1.258c-0.396,0.353-0.887,0.627-1.474,0.823
		s-1.258,0.295-2.015,0.295H203.386z M203.386,480.847h2.023c0.487,0,0.917-0.064,1.289-0.193s0.685-0.31,0.937-0.541
		c0.252-0.232,0.443-0.509,0.572-0.832c0.129-0.322,0.193-0.678,0.193-1.064c0-0.804-0.248-1.432-0.743-1.883
		c-0.496-0.452-1.245-0.678-2.249-0.678h-2.023V480.847z"/>
	<path fill="#FFFFFF" d="M212.018,486.918v-8.913h0.897c0.17,0,0.287,0.032,0.352,0.097c0.064,0.064,0.108,0.176,0.132,0.334
		l0.105,1.391c0.305-0.622,0.682-1.107,1.131-1.456c0.449-0.35,0.975-0.523,1.58-0.523c0.246,0,0.469,0.027,0.668,0.083
		c0.199,0.056,0.384,0.134,0.554,0.233l-0.202,1.17c-0.041,0.146-0.132,0.221-0.273,0.221c-0.082,0-0.208-0.028-0.378-0.084
		c-0.17-0.056-0.408-0.084-0.712-0.084c-0.546,0-1.002,0.159-1.368,0.476c-0.367,0.316-0.673,0.777-0.919,1.381v5.676H212.018z"/>
	<path fill="#FFFFFF" d="M222.717,477.864c0.651,0,1.239,0.108,1.764,0.325s0.971,0.525,1.337,0.924
		c0.367,0.399,0.648,0.882,0.845,1.447c0.197,0.566,0.295,1.198,0.295,1.896c0,0.704-0.098,1.337-0.295,1.9
		c-0.196,0.563-0.478,1.044-0.845,1.443c-0.367,0.398-0.812,0.705-1.337,0.919s-1.113,0.321-1.764,0.321
		c-0.651,0-1.239-0.107-1.764-0.321s-0.972-0.521-1.342-0.919c-0.37-0.399-0.654-0.88-0.854-1.443s-0.299-1.196-0.299-1.9
		c0-0.698,0.1-1.33,0.299-1.896c0.199-0.565,0.484-1.048,0.854-1.447c0.37-0.398,0.817-0.707,1.342-0.924
		S222.066,477.864,222.717,477.864z M222.717,485.818c0.88,0,1.537-0.295,1.971-0.885c0.434-0.589,0.651-1.412,0.651-2.468
		c0-1.062-0.217-1.889-0.651-2.481c-0.435-0.593-1.091-0.889-1.971-0.889c-0.446,0-0.833,0.076-1.161,0.229
		c-0.329,0.153-0.603,0.373-0.823,0.66c-0.22,0.287-0.384,0.641-0.493,1.061c-0.109,0.419-0.163,0.893-0.163,1.421
		c0,0.527,0.054,1,0.163,1.417c0.108,0.416,0.272,0.767,0.493,1.051c0.22,0.285,0.494,0.503,0.823,0.655
		C221.884,485.742,222.271,485.818,222.717,485.818z"/>
	<path fill="#FFFFFF" d="M227.539,478.005h1.285c0.124,0,0.226,0.032,0.308,0.097s0.141,0.141,0.176,0.229l2.262,5.737
		c0.082,0.211,0.146,0.422,0.193,0.633c0.047,0.212,0.091,0.42,0.132,0.625c0.047-0.205,0.097-0.413,0.15-0.625
		c0.053-0.211,0.12-0.422,0.202-0.633l2.288-5.737c0.035-0.094,0.093-0.172,0.172-0.233s0.177-0.092,0.294-0.092h1.223l-3.634,8.913
		h-1.417L227.539,478.005z"/>
	<path fill="#FFFFFF" d="M239.77,475.207c0,0.152-0.031,0.294-0.093,0.427c-0.062,0.132-0.144,0.249-0.246,0.352
		s-0.222,0.184-0.356,0.242s-0.279,0.088-0.431,0.088s-0.295-0.029-0.427-0.088s-0.25-0.14-0.352-0.242s-0.183-0.22-0.242-0.352
		c-0.059-0.133-0.088-0.274-0.088-0.427c0-0.153,0.029-0.298,0.088-0.436c0.059-0.139,0.139-0.259,0.242-0.361
		s0.22-0.184,0.352-0.242s0.274-0.088,0.427-0.088s0.296,0.029,0.431,0.088s0.254,0.14,0.356,0.242s0.185,0.223,0.246,0.361
		C239.739,474.909,239.77,475.054,239.77,475.207z M239.417,478.005v8.913h-1.566v-8.913H239.417z"/>
	<path fill="#FFFFFF" d="M242.18,486.918v-8.913h0.933c0.223,0,0.364,0.108,0.422,0.325l0.123,0.968
		c0.387-0.428,0.82-0.774,1.298-1.038s1.031-0.396,1.659-0.396c0.487,0,0.917,0.08,1.289,0.241c0.373,0.162,0.683,0.391,0.933,0.687
		c0.25,0.297,0.438,0.652,0.567,1.069c0.129,0.416,0.194,0.877,0.194,1.381v5.676h-1.566v-5.676c0-0.674-0.154-1.197-0.462-1.57
		c-0.308-0.372-0.779-0.559-1.412-0.559c-0.463,0-0.896,0.111-1.298,0.334c-0.402,0.224-0.773,0.525-1.113,0.906v6.564H242.18z"/>
	<path fill="#FFFFFF" d="M258.045,479.589c-0.047,0.064-0.094,0.114-0.141,0.149s-0.114,0.053-0.202,0.053s-0.184-0.037-0.286-0.11
		s-0.233-0.154-0.392-0.242c-0.158-0.088-0.351-0.168-0.576-0.241s-0.503-0.11-0.832-0.11c-0.434,0-0.818,0.078-1.152,0.233
		c-0.334,0.155-0.615,0.38-0.84,0.673c-0.226,0.293-0.396,0.648-0.51,1.064c-0.115,0.417-0.172,0.883-0.172,1.399
		c0,0.54,0.062,1.02,0.185,1.438c0.123,0.42,0.296,0.771,0.519,1.056c0.223,0.285,0.494,0.502,0.814,0.651
		c0.319,0.149,0.679,0.225,1.078,0.225c0.381,0,0.695-0.046,0.941-0.137c0.247-0.091,0.452-0.192,0.616-0.304
		c0.164-0.111,0.299-0.212,0.405-0.304c0.105-0.091,0.211-0.136,0.316-0.136c0.135,0,0.235,0.05,0.299,0.149l0.44,0.572
		c-0.387,0.475-0.871,0.822-1.452,1.042c-0.581,0.221-1.194,0.33-1.839,0.33c-0.557,0-1.075-0.103-1.553-0.308
		s-0.893-0.503-1.245-0.894c-0.352-0.39-0.629-0.869-0.832-1.438c-0.202-0.568-0.304-1.217-0.304-1.944
		c0-0.663,0.093-1.276,0.277-1.839c0.185-0.563,0.455-1.049,0.81-1.456c0.355-0.408,0.793-0.727,1.315-0.955s1.12-0.343,1.795-0.343
		c0.622,0,1.173,0.101,1.654,0.303c0.481,0.203,0.906,0.488,1.276,0.858L258.045,479.589z"/>
	<path fill="#FFFFFF" d="M262.277,475.207c0,0.152-0.031,0.294-0.093,0.427c-0.062,0.132-0.144,0.249-0.246,0.352
		s-0.222,0.184-0.356,0.242s-0.279,0.088-0.431,0.088s-0.295-0.029-0.427-0.088s-0.25-0.14-0.352-0.242s-0.183-0.22-0.242-0.352
		c-0.059-0.133-0.088-0.274-0.088-0.427c0-0.153,0.029-0.298,0.088-0.436c0.059-0.139,0.139-0.259,0.242-0.361
		s0.22-0.184,0.352-0.242s0.274-0.088,0.427-0.088s0.296,0.029,0.431,0.088s0.254,0.14,0.356,0.242s0.185,0.223,0.246,0.361
		C262.246,474.909,262.277,475.054,262.277,475.207z M261.925,478.005v8.913h-1.566v-8.913H261.925z"/>
	<path fill="#FFFFFF" d="M271.234,486.918h-0.695c-0.152,0-0.276-0.023-0.37-0.07s-0.155-0.146-0.185-0.299l-0.176-0.827
		c-0.235,0.211-0.464,0.4-0.687,0.567c-0.223,0.167-0.458,0.308-0.704,0.422c-0.246,0.114-0.509,0.201-0.787,0.26
		c-0.279,0.059-0.588,0.088-0.928,0.088c-0.346,0-0.67-0.049-0.973-0.146s-0.564-0.243-0.787-0.437
		c-0.223-0.194-0.4-0.44-0.533-0.737c-0.132-0.298-0.198-0.649-0.198-1.056c0-0.353,0.097-0.693,0.291-1.02
		c0.193-0.327,0.506-0.616,0.937-0.87c0.431-0.253,0.996-0.46,1.694-0.622c0.698-0.162,1.551-0.243,2.56-0.243v-0.699
		c0-0.696-0.148-1.224-0.444-1.58c-0.296-0.357-0.734-0.536-1.315-0.536c-0.381,0-0.702,0.049-0.963,0.146s-0.487,0.205-0.677,0.325
		c-0.191,0.12-0.355,0.229-0.493,0.325c-0.138,0.098-0.274,0.146-0.409,0.146c-0.106,0-0.198-0.027-0.277-0.083
		c-0.079-0.057-0.143-0.125-0.189-0.207l-0.281-0.502c0.493-0.475,1.023-0.83,1.592-1.064c0.569-0.234,1.2-0.352,1.892-0.352
		c0.499,0,0.941,0.082,1.329,0.246s0.712,0.393,0.977,0.687c0.264,0.293,0.463,0.647,0.598,1.064
		c0.135,0.416,0.203,0.874,0.203,1.372V486.918z M267.169,485.959c0.275,0,0.528-0.028,0.756-0.084
		c0.229-0.056,0.444-0.135,0.647-0.237c0.202-0.103,0.396-0.228,0.581-0.374c0.185-0.146,0.365-0.313,0.541-0.501v-1.84
		c-0.721,0-1.334,0.046-1.839,0.138s-0.915,0.211-1.232,0.358c-0.316,0.147-0.547,0.321-0.69,0.522
		c-0.144,0.2-0.216,0.425-0.216,0.672c0,0.236,0.038,0.44,0.115,0.611c0.076,0.171,0.179,0.311,0.308,0.42s0.282,0.189,0.458,0.239
		C266.773,485.934,266.963,485.959,267.169,485.959z"/>
	<path fill="#FFFFFF" d="M275.352,473.957v12.961h-1.566v-12.961H275.352z"/>
	<path fill="#FFFFFF" d="M197.667,498.973c0.387,0,0.749,0.042,1.086,0.127s0.644,0.21,0.919,0.374h2.42v0.581
		c0,0.193-0.123,0.316-0.37,0.369l-1.012,0.141c0.199,0.382,0.299,0.807,0.299,1.276c0,0.434-0.083,0.828-0.25,1.184
		c-0.167,0.354-0.399,0.658-0.695,0.91c-0.296,0.253-0.648,0.446-1.056,0.581s-0.855,0.202-1.342,0.202
		c-0.417,0-0.81-0.05-1.179-0.149c-0.188,0.121-0.33,0.252-0.427,0.392c-0.097,0.139-0.145,0.275-0.145,0.409
		c0,0.218,0.085,0.384,0.255,0.495c0.17,0.112,0.396,0.193,0.678,0.241c0.282,0.049,0.601,0.073,0.959,0.073s0.723,0,1.096,0
		c0.372,0,0.737,0.032,1.095,0.098s0.678,0.173,0.959,0.321c0.282,0.148,0.507,0.354,0.678,0.614c0.17,0.261,0.255,0.6,0.255,1.016
		c0,0.386-0.095,0.76-0.286,1.122c-0.191,0.362-0.465,0.685-0.823,0.967c-0.358,0.281-0.795,0.507-1.311,0.677
		c-0.516,0.169-1.1,0.254-1.751,0.254c-0.651,0-1.222-0.064-1.711-0.194c-0.49-0.129-0.896-0.303-1.219-0.52
		s-0.564-0.468-0.726-0.753c-0.162-0.285-0.242-0.583-0.242-0.895c0-0.44,0.139-0.814,0.418-1.122
		c0.278-0.309,0.661-0.554,1.148-0.736c-0.252-0.117-0.453-0.273-0.603-0.47c-0.149-0.196-0.224-0.458-0.224-0.786
		c0-0.129,0.023-0.262,0.07-0.399s0.119-0.274,0.215-0.409c0.097-0.135,0.216-0.264,0.356-0.387c0.141-0.122,0.305-0.23,0.493-0.324
		c-0.44-0.247-0.785-0.573-1.034-0.981c-0.25-0.407-0.374-0.885-0.374-1.43c0-0.435,0.083-0.828,0.251-1.184
		c0.167-0.354,0.4-0.657,0.699-0.906c0.299-0.249,0.656-0.441,1.069-0.576S197.174,498.973,197.667,498.973z M200.447,508.487
		c0-0.228-0.062-0.409-0.185-0.547c-0.124-0.138-0.291-0.244-0.501-0.319c-0.211-0.074-0.455-0.13-0.73-0.166
		c-0.276-0.035-0.566-0.054-0.871-0.054c-0.305,0-0.616,0-0.933,0c-0.317,0-0.619-0.039-0.906-0.118
		c-0.334,0.158-0.606,0.353-0.814,0.581c-0.208,0.229-0.312,0.503-0.312,0.819c0,0.2,0.051,0.387,0.154,0.56
		c0.103,0.174,0.26,0.323,0.471,0.45c0.211,0.126,0.476,0.226,0.796,0.3c0.32,0.073,0.697,0.109,1.131,0.109
		c0.422,0,0.801-0.038,1.135-0.116c0.334-0.078,0.617-0.188,0.849-0.332c0.232-0.144,0.409-0.314,0.533-0.512
		C200.386,508.945,200.447,508.727,200.447,508.487z M197.667,503.68c0.316,0,0.597-0.044,0.84-0.132
		c0.243-0.088,0.447-0.211,0.611-0.37c0.164-0.158,0.288-0.347,0.37-0.567c0.082-0.22,0.123-0.462,0.123-0.726
		c0-0.546-0.166-0.979-0.497-1.303c-0.332-0.322-0.814-0.483-1.447-0.483c-0.628,0-1.107,0.161-1.439,0.483
		c-0.331,0.323-0.497,0.757-0.497,1.303c0,0.264,0.042,0.506,0.128,0.726c0.085,0.221,0.209,0.409,0.374,0.567
		c0.164,0.159,0.366,0.282,0.607,0.37C197.08,503.636,197.356,503.68,197.667,503.68z"/>
	<path fill="#FFFFFF" d="M207.266,498.981c0.651,0,1.239,0.108,1.764,0.325s0.971,0.525,1.337,0.924
		c0.367,0.399,0.648,0.882,0.845,1.447c0.197,0.566,0.295,1.198,0.295,1.896c0,0.704-0.098,1.337-0.295,1.9
		c-0.196,0.563-0.478,1.044-0.845,1.443c-0.367,0.398-0.812,0.705-1.337,0.919s-1.113,0.321-1.764,0.321
		c-0.651,0-1.239-0.107-1.764-0.321s-0.972-0.521-1.342-0.919c-0.37-0.399-0.654-0.88-0.854-1.443s-0.299-1.196-0.299-1.9
		c0-0.698,0.1-1.33,0.299-1.896c0.199-0.565,0.484-1.048,0.854-1.447c0.37-0.398,0.817-0.707,1.342-0.924
		S206.615,498.981,207.266,498.981z M207.266,506.936c0.88,0,1.537-0.295,1.971-0.885c0.434-0.589,0.651-1.412,0.651-2.468
		c0-1.062-0.217-1.889-0.651-2.481c-0.435-0.593-1.091-0.889-1.971-0.889c-0.446,0-0.833,0.076-1.161,0.229
		c-0.329,0.153-0.603,0.373-0.823,0.66c-0.22,0.287-0.384,0.641-0.493,1.061c-0.109,0.419-0.163,0.893-0.163,1.421
		c0,0.527,0.054,1,0.163,1.417c0.108,0.416,0.272,0.767,0.493,1.051c0.22,0.285,0.494,0.503,0.823,0.655
		C206.433,506.859,206.82,506.936,207.266,506.936z"/>
	<path fill="#FFFFFF" d="M212.088,499.122h1.285c0.124,0,0.226,0.032,0.308,0.097s0.141,0.141,0.176,0.229l2.262,5.737
		c0.082,0.211,0.146,0.422,0.193,0.633c0.047,0.212,0.091,0.42,0.132,0.625c0.047-0.205,0.097-0.413,0.15-0.625
		c0.053-0.211,0.12-0.422,0.202-0.633l2.288-5.737c0.035-0.094,0.093-0.172,0.172-0.233s0.177-0.092,0.294-0.092h1.223l-3.634,8.913
		h-1.417L212.088,499.122z"/>
	<path fill="#FFFFFF" d="M225.524,498.981c0.534,0,1.026,0.089,1.478,0.268c0.452,0.18,0.842,0.438,1.17,0.774
		c0.329,0.338,0.585,0.754,0.77,1.25c0.185,0.495,0.277,1.06,0.277,1.693c0,0.246-0.026,0.411-0.079,0.493s-0.152,0.123-0.299,0.123
		h-5.931c0.012,0.563,0.088,1.053,0.229,1.47c0.141,0.416,0.334,0.764,0.581,1.042c0.246,0.279,0.54,0.487,0.88,0.625
		c0.34,0.138,0.722,0.207,1.144,0.207c0.393,0,0.732-0.046,1.017-0.137c0.284-0.091,0.529-0.189,0.734-0.295
		c0.206-0.105,0.377-0.203,0.515-0.295c0.138-0.091,0.256-0.136,0.356-0.136c0.129,0,0.229,0.05,0.299,0.149l0.44,0.572
		c-0.193,0.234-0.425,0.438-0.695,0.611c-0.27,0.173-0.559,0.315-0.867,0.427c-0.308,0.111-0.626,0.195-0.955,0.251
		s-0.654,0.083-0.977,0.083c-0.616,0-1.184-0.104-1.703-0.312s-0.968-0.513-1.346-0.915c-0.378-0.401-0.673-0.898-0.884-1.491
		c-0.211-0.593-0.317-1.272-0.317-2.041c0-0.622,0.096-1.203,0.286-1.742c0.19-0.54,0.465-1.008,0.823-1.403
		c0.358-0.396,0.795-0.707,1.311-0.934C224.298,499.094,224.879,498.981,225.524,498.981z M225.56,500.134
		c-0.757,0-1.352,0.219-1.786,0.655c-0.434,0.438-0.704,1.043-0.81,1.817h4.848c0-0.364-0.05-0.696-0.149-0.999
		c-0.1-0.302-0.247-0.563-0.44-0.783c-0.194-0.22-0.43-0.39-0.708-0.51C226.236,500.194,225.917,500.134,225.56,500.134z"/>
	<path fill="#FFFFFF" d="M231.217,508.035v-8.913h0.897c0.17,0,0.287,0.032,0.352,0.097c0.064,0.064,0.108,0.176,0.132,0.334
		l0.105,1.391c0.305-0.622,0.682-1.107,1.131-1.456c0.449-0.35,0.975-0.523,1.58-0.523c0.246,0,0.469,0.027,0.668,0.083
		c0.199,0.056,0.384,0.134,0.554,0.233l-0.202,1.17c-0.041,0.146-0.132,0.221-0.273,0.221c-0.082,0-0.208-0.028-0.378-0.084
		c-0.17-0.056-0.408-0.084-0.712-0.084c-0.546,0-1.002,0.159-1.368,0.476c-0.367,0.316-0.673,0.777-0.919,1.381v5.676H231.217z"/>
	<path fill="#FFFFFF" d="M238.309,508.035v-8.913h0.933c0.223,0,0.364,0.108,0.422,0.325l0.123,0.968
		c0.387-0.428,0.82-0.774,1.298-1.038s1.031-0.396,1.659-0.396c0.487,0,0.917,0.08,1.289,0.241c0.373,0.162,0.683,0.391,0.933,0.687
		c0.25,0.297,0.438,0.652,0.567,1.069c0.129,0.416,0.194,0.877,0.194,1.381v5.676h-1.566v-5.676c0-0.674-0.154-1.197-0.462-1.57
		c-0.308-0.372-0.779-0.559-1.412-0.559c-0.463,0-0.896,0.111-1.298,0.334c-0.402,0.224-0.773,0.525-1.113,0.906v6.564H238.309z"/>
	<path fill="#FFFFFF" d="M248.093,508.035v-8.913h0.933c0.223,0,0.364,0.108,0.422,0.325l0.114,0.915
		c0.329-0.404,0.697-0.736,1.104-0.994s0.881-0.387,1.421-0.387c0.604,0,1.092,0.167,1.465,0.501
		c0.373,0.335,0.641,0.786,0.805,1.355c0.124-0.323,0.286-0.602,0.488-0.836c0.203-0.234,0.43-0.429,0.682-0.581
		c0.252-0.152,0.521-0.264,0.805-0.334c0.284-0.07,0.573-0.105,0.867-0.105c0.469,0,0.887,0.074,1.254,0.224
		c0.366,0.15,0.677,0.368,0.933,0.656c0.255,0.287,0.45,0.641,0.585,1.06c0.135,0.42,0.202,0.899,0.202,1.438v5.676h-1.566v-5.676
		c0-0.697-0.153-1.227-0.458-1.588c-0.305-0.36-0.748-0.541-1.329-0.541c-0.258,0-0.503,0.046-0.735,0.137s-0.436,0.224-0.611,0.4
		c-0.176,0.176-0.315,0.397-0.418,0.664c-0.103,0.267-0.154,0.576-0.154,0.928v5.676h-1.566v-5.676c0-0.715-0.144-1.249-0.431-1.601
		c-0.288-0.353-0.707-0.528-1.258-0.528c-0.387,0-0.747,0.104-1.078,0.312c-0.332,0.208-0.635,0.491-0.911,0.849v6.644H248.093z"/>
	<path fill="#FFFFFF" d="M266.069,498.981c0.534,0,1.026,0.089,1.478,0.268c0.452,0.18,0.842,0.438,1.17,0.774
		c0.329,0.338,0.585,0.754,0.77,1.25c0.185,0.495,0.277,1.06,0.277,1.693c0,0.246-0.026,0.411-0.079,0.493s-0.152,0.123-0.299,0.123
		h-5.931c0.012,0.563,0.088,1.053,0.229,1.47c0.141,0.416,0.334,0.764,0.581,1.042c0.246,0.279,0.54,0.487,0.88,0.625
		c0.34,0.138,0.722,0.207,1.144,0.207c0.393,0,0.732-0.046,1.017-0.137c0.284-0.091,0.529-0.189,0.734-0.295
		c0.206-0.105,0.377-0.203,0.515-0.295c0.138-0.091,0.256-0.136,0.356-0.136c0.129,0,0.229,0.05,0.299,0.149l0.44,0.572
		c-0.193,0.234-0.425,0.438-0.695,0.611c-0.27,0.173-0.559,0.315-0.867,0.427c-0.308,0.111-0.626,0.195-0.955,0.251
		s-0.654,0.083-0.977,0.083c-0.616,0-1.184-0.104-1.703-0.312s-0.968-0.513-1.346-0.915c-0.378-0.401-0.673-0.898-0.884-1.491
		c-0.211-0.593-0.317-1.272-0.317-2.041c0-0.622,0.096-1.203,0.286-1.742c0.19-0.54,0.465-1.008,0.823-1.403
		c0.358-0.396,0.795-0.707,1.311-0.934C264.843,499.094,265.424,498.981,266.069,498.981z M266.104,500.134
		c-0.757,0-1.352,0.219-1.786,0.655c-0.434,0.438-0.704,1.043-0.81,1.817h4.848c0-0.364-0.05-0.696-0.149-0.999
		c-0.1-0.302-0.247-0.563-0.44-0.783c-0.194-0.22-0.43-0.39-0.708-0.51C266.781,500.194,266.462,500.134,266.104,500.134z"/>
	<path fill="#FFFFFF" d="M271.762,508.035v-8.913h0.933c0.223,0,0.364,0.108,0.422,0.325l0.123,0.968
		c0.387-0.428,0.82-0.774,1.298-1.038s1.031-0.396,1.659-0.396c0.487,0,0.917,0.08,1.289,0.241c0.373,0.162,0.683,0.391,0.933,0.687
		c0.25,0.297,0.438,0.652,0.567,1.069c0.129,0.416,0.194,0.877,0.194,1.381v5.676h-1.566v-5.676c0-0.674-0.154-1.197-0.462-1.57
		c-0.308-0.372-0.779-0.559-1.412-0.559c-0.463,0-0.896,0.111-1.298,0.334c-0.402,0.224-0.773,0.525-1.113,0.906v6.564H271.762z"/>
	<path fill="#FFFFFF" d="M284.248,508.176c-0.704,0-1.245-0.196-1.624-0.59c-0.378-0.393-0.567-0.959-0.567-1.697v-5.456h-1.073
		c-0.094,0-0.173-0.027-0.238-0.083s-0.097-0.143-0.097-0.26v-0.625l1.46-0.185l0.361-2.754c0.012-0.088,0.05-0.16,0.114-0.216
		s0.146-0.084,0.247-0.084h0.792v3.071h2.551v1.135h-2.551v5.35c0,0.376,0.091,0.654,0.272,0.836
		c0.182,0.183,0.417,0.273,0.704,0.273c0.164,0,0.307-0.022,0.427-0.066s0.224-0.092,0.312-0.146
		c0.088-0.053,0.163-0.101,0.224-0.145s0.116-0.066,0.163-0.066c0.083,0,0.156,0.05,0.22,0.149l0.458,0.748
		c-0.27,0.253-0.595,0.45-0.977,0.594C285.045,508.104,284.652,508.176,284.248,508.176z"/>
</g>
<g>
	<path fill="#FFFFFF" d="M375.959,474.366c0.073,0.038,0.157,0.116,0.251,0.233l7.303,9.503c-0.018-0.152-0.03-0.301-0.036-0.444
		s-0.009-0.283-0.009-0.418v-8.932h1.496v12.609h-0.862c-0.135,0-0.248-0.023-0.339-0.07s-0.18-0.126-0.269-0.237l-7.294-9.494
		c0.012,0.146,0.021,0.29,0.026,0.431s0.009,0.271,0.009,0.388v8.983h-1.496v-12.609h0.88
		C375.773,474.309,375.886,474.328,375.959,474.366z"/>
	<path fill="#FFFFFF" d="M394.344,486.918h-0.695c-0.152,0-0.276-0.023-0.37-0.07s-0.155-0.146-0.185-0.299l-0.176-0.827
		c-0.235,0.211-0.464,0.4-0.687,0.567c-0.223,0.167-0.458,0.308-0.704,0.422c-0.246,0.114-0.509,0.201-0.787,0.26
		c-0.279,0.059-0.588,0.088-0.928,0.088c-0.346,0-0.67-0.049-0.973-0.146s-0.564-0.243-0.787-0.437
		c-0.223-0.194-0.4-0.44-0.533-0.737c-0.132-0.298-0.198-0.649-0.198-1.056c0-0.353,0.097-0.693,0.291-1.02
		c0.193-0.327,0.506-0.616,0.937-0.87c0.431-0.253,0.996-0.46,1.694-0.622c0.698-0.162,1.551-0.243,2.56-0.243v-0.699
		c0-0.696-0.148-1.224-0.444-1.58c-0.296-0.357-0.734-0.536-1.315-0.536c-0.381,0-0.702,0.049-0.963,0.146s-0.487,0.205-0.677,0.325
		c-0.191,0.12-0.355,0.229-0.493,0.325c-0.138,0.098-0.274,0.146-0.409,0.146c-0.106,0-0.198-0.027-0.277-0.083
		c-0.079-0.057-0.143-0.125-0.189-0.207l-0.281-0.502c0.493-0.475,1.023-0.83,1.592-1.064c0.569-0.234,1.2-0.352,1.892-0.352
		c0.499,0,0.941,0.082,1.329,0.246s0.712,0.393,0.977,0.687c0.264,0.293,0.463,0.647,0.598,1.064
		c0.135,0.416,0.203,0.874,0.203,1.372V486.918z M390.279,485.959c0.275,0,0.528-0.028,0.756-0.084
		c0.229-0.056,0.444-0.135,0.647-0.237c0.202-0.103,0.396-0.228,0.581-0.374c0.185-0.146,0.365-0.313,0.541-0.501v-1.84
		c-0.721,0-1.334,0.046-1.839,0.138s-0.915,0.211-1.232,0.358c-0.316,0.147-0.547,0.321-0.69,0.522
		c-0.144,0.2-0.216,0.425-0.216,0.672c0,0.236,0.038,0.44,0.115,0.611c0.076,0.171,0.179,0.311,0.308,0.42s0.282,0.189,0.458,0.239
		C389.883,485.934,390.074,485.959,390.279,485.959z"/>
	<path fill="#FFFFFF" d="M399.421,487.059c-0.704,0-1.245-0.196-1.624-0.59c-0.378-0.393-0.567-0.959-0.567-1.697v-5.456h-1.073
		c-0.094,0-0.173-0.027-0.238-0.083s-0.097-0.143-0.097-0.26v-0.625l1.46-0.185l0.361-2.754c0.012-0.088,0.05-0.16,0.114-0.216
		s0.146-0.084,0.247-0.084h0.792v3.071h2.551v1.135h-2.551v5.35c0,0.376,0.091,0.654,0.272,0.836
		c0.182,0.183,0.417,0.273,0.704,0.273c0.164,0,0.307-0.022,0.427-0.066s0.224-0.092,0.312-0.146
		c0.088-0.053,0.163-0.101,0.224-0.145s0.116-0.066,0.163-0.066c0.083,0,0.156,0.05,0.22,0.149l0.458,0.748
		c-0.27,0.253-0.595,0.45-0.977,0.594C400.219,486.987,399.826,487.059,399.421,487.059z"/>
	<path fill="#FFFFFF" d="M405.378,475.207c0,0.152-0.031,0.294-0.093,0.427c-0.062,0.132-0.144,0.249-0.246,0.352
		s-0.222,0.184-0.356,0.242s-0.279,0.088-0.431,0.088s-0.295-0.029-0.427-0.088s-0.25-0.14-0.352-0.242s-0.183-0.22-0.242-0.352
		c-0.059-0.133-0.088-0.274-0.088-0.427c0-0.153,0.029-0.298,0.088-0.436c0.059-0.139,0.139-0.259,0.242-0.361
		s0.22-0.184,0.352-0.242s0.274-0.088,0.427-0.088s0.296,0.029,0.431,0.088s0.254,0.14,0.356,0.242s0.185,0.223,0.246,0.361
		C405.347,474.909,405.378,475.054,405.378,475.207z M405.026,478.005v8.913h-1.566v-8.913H405.026z"/>
	<path fill="#FFFFFF" d="M411.396,477.864c0.651,0,1.239,0.108,1.764,0.325s0.971,0.525,1.337,0.924
		c0.367,0.399,0.648,0.882,0.845,1.447c0.197,0.566,0.295,1.198,0.295,1.896c0,0.704-0.098,1.337-0.295,1.9
		c-0.196,0.563-0.478,1.044-0.845,1.443c-0.367,0.398-0.812,0.705-1.337,0.919s-1.113,0.321-1.764,0.321
		c-0.651,0-1.239-0.107-1.764-0.321s-0.972-0.521-1.342-0.919c-0.37-0.399-0.654-0.88-0.854-1.443s-0.299-1.196-0.299-1.9
		c0-0.698,0.1-1.33,0.299-1.896c0.199-0.565,0.484-1.048,0.854-1.447c0.37-0.398,0.817-0.707,1.342-0.924
		S410.745,477.864,411.396,477.864z M411.396,485.818c0.88,0,1.537-0.295,1.971-0.885c0.434-0.589,0.651-1.412,0.651-2.468
		c0-1.062-0.217-1.889-0.651-2.481c-0.435-0.593-1.091-0.889-1.971-0.889c-0.446,0-0.833,0.076-1.161,0.229
		c-0.329,0.153-0.603,0.373-0.823,0.66c-0.22,0.287-0.384,0.641-0.493,1.061c-0.109,0.419-0.163,0.893-0.163,1.421
		c0,0.527,0.054,1,0.163,1.417c0.108,0.416,0.272,0.767,0.493,1.051c0.22,0.285,0.494,0.503,0.823,0.655
		C410.563,485.742,410.95,485.818,411.396,485.818z"/>
	<path fill="#FFFFFF" d="M417.573,486.918v-8.913h0.933c0.223,0,0.364,0.108,0.422,0.325l0.123,0.968
		c0.387-0.428,0.82-0.774,1.298-1.038s1.031-0.396,1.659-0.396c0.487,0,0.917,0.08,1.289,0.241c0.373,0.162,0.683,0.391,0.933,0.687
		c0.25,0.297,0.438,0.652,0.567,1.069c0.129,0.416,0.194,0.877,0.194,1.381v5.676h-1.566v-5.676c0-0.674-0.154-1.197-0.462-1.57
		c-0.308-0.372-0.779-0.559-1.412-0.559c-0.463,0-0.896,0.111-1.298,0.334c-0.402,0.224-0.773,0.525-1.113,0.906v6.564H417.573z"/>
	<path fill="#FFFFFF" d="M433.903,486.918h-0.695c-0.152,0-0.276-0.023-0.37-0.07s-0.155-0.146-0.185-0.299l-0.176-0.827
		c-0.235,0.211-0.464,0.4-0.687,0.567c-0.223,0.167-0.458,0.308-0.704,0.422c-0.246,0.114-0.509,0.201-0.787,0.26
		c-0.279,0.059-0.588,0.088-0.928,0.088c-0.346,0-0.67-0.049-0.973-0.146s-0.564-0.243-0.787-0.437
		c-0.223-0.194-0.4-0.44-0.533-0.737c-0.132-0.298-0.198-0.649-0.198-1.056c0-0.353,0.097-0.693,0.291-1.02
		c0.193-0.327,0.506-0.616,0.937-0.87c0.431-0.253,0.996-0.46,1.694-0.622c0.698-0.162,1.551-0.243,2.56-0.243v-0.699
		c0-0.696-0.148-1.224-0.444-1.58c-0.296-0.357-0.734-0.536-1.315-0.536c-0.381,0-0.702,0.049-0.963,0.146s-0.487,0.205-0.677,0.325
		c-0.191,0.12-0.355,0.229-0.493,0.325c-0.138,0.098-0.274,0.146-0.409,0.146c-0.106,0-0.198-0.027-0.277-0.083
		c-0.079-0.057-0.143-0.125-0.189-0.207l-0.281-0.502c0.493-0.475,1.023-0.83,1.592-1.064c0.569-0.234,1.2-0.352,1.892-0.352
		c0.499,0,0.941,0.082,1.329,0.246s0.712,0.393,0.977,0.687c0.264,0.293,0.463,0.647,0.598,1.064
		c0.135,0.416,0.203,0.874,0.203,1.372V486.918z M429.838,485.959c0.275,0,0.528-0.028,0.756-0.084
		c0.229-0.056,0.444-0.135,0.647-0.237c0.202-0.103,0.396-0.228,0.581-0.374c0.185-0.146,0.365-0.313,0.541-0.501v-1.84
		c-0.721,0-1.334,0.046-1.839,0.138s-0.915,0.211-1.232,0.358c-0.316,0.147-0.547,0.321-0.69,0.522
		c-0.144,0.2-0.216,0.425-0.216,0.672c0,0.236,0.038,0.44,0.115,0.611c0.076,0.171,0.179,0.311,0.308,0.42s0.282,0.189,0.458,0.239
		C429.442,485.934,429.633,485.959,429.838,485.959z"/>
	<path fill="#FFFFFF" d="M438.021,473.957v12.961h-1.567v-12.961H438.021z"/>
	<path fill="#FFFFFF" d="M363.918,498.973c0.387,0,0.749,0.042,1.086,0.127s0.644,0.21,0.919,0.374h2.42v0.581
		c0,0.193-0.123,0.316-0.37,0.369l-1.012,0.141c0.199,0.382,0.299,0.807,0.299,1.276c0,0.434-0.083,0.828-0.25,1.184
		c-0.167,0.354-0.399,0.658-0.695,0.91c-0.296,0.253-0.648,0.446-1.056,0.581s-0.855,0.202-1.342,0.202
		c-0.417,0-0.81-0.05-1.179-0.149c-0.188,0.121-0.33,0.252-0.427,0.392c-0.097,0.139-0.145,0.275-0.145,0.409
		c0,0.218,0.085,0.384,0.255,0.495c0.17,0.112,0.396,0.193,0.678,0.241c0.282,0.049,0.601,0.073,0.959,0.073s0.723,0,1.096,0
		c0.372,0,0.737,0.032,1.095,0.098s0.678,0.173,0.959,0.321c0.282,0.148,0.507,0.354,0.678,0.614c0.17,0.261,0.255,0.6,0.255,1.016
		c0,0.386-0.095,0.76-0.286,1.122c-0.191,0.362-0.465,0.685-0.823,0.967c-0.358,0.281-0.795,0.507-1.311,0.677
		c-0.516,0.169-1.1,0.254-1.751,0.254c-0.651,0-1.222-0.064-1.711-0.194c-0.49-0.129-0.896-0.303-1.219-0.52
		s-0.564-0.468-0.726-0.753c-0.162-0.285-0.242-0.583-0.242-0.895c0-0.44,0.139-0.814,0.418-1.122
		c0.278-0.309,0.661-0.554,1.148-0.736c-0.252-0.117-0.453-0.273-0.603-0.47c-0.149-0.196-0.224-0.458-0.224-0.786
		c0-0.129,0.023-0.262,0.07-0.399s0.119-0.274,0.215-0.409c0.097-0.135,0.216-0.264,0.356-0.387c0.141-0.122,0.305-0.23,0.493-0.324
		c-0.44-0.247-0.785-0.573-1.034-0.981c-0.25-0.407-0.374-0.885-0.374-1.43c0-0.435,0.083-0.828,0.251-1.184
		c0.167-0.354,0.4-0.657,0.699-0.906c0.299-0.249,0.656-0.441,1.069-0.576S363.425,498.973,363.918,498.973z M366.698,508.487
		c0-0.228-0.062-0.409-0.185-0.547c-0.124-0.138-0.291-0.244-0.501-0.319c-0.211-0.074-0.455-0.13-0.73-0.166
		c-0.276-0.035-0.566-0.054-0.871-0.054c-0.305,0-0.616,0-0.933,0c-0.317,0-0.619-0.039-0.906-0.118
		c-0.334,0.158-0.606,0.353-0.814,0.581c-0.208,0.229-0.312,0.503-0.312,0.819c0,0.2,0.051,0.387,0.154,0.56
		c0.103,0.174,0.26,0.323,0.471,0.45c0.211,0.126,0.476,0.226,0.796,0.3c0.32,0.073,0.697,0.109,1.131,0.109
		c0.422,0,0.801-0.038,1.135-0.116c0.334-0.078,0.617-0.188,0.849-0.332c0.232-0.144,0.409-0.314,0.533-0.512
		C366.637,508.945,366.698,508.727,366.698,508.487z M363.918,503.68c0.316,0,0.597-0.044,0.84-0.132
		c0.243-0.088,0.447-0.211,0.611-0.37c0.164-0.158,0.288-0.347,0.37-0.567c0.082-0.22,0.123-0.462,0.123-0.726
		c0-0.546-0.166-0.979-0.497-1.303c-0.332-0.322-0.814-0.483-1.447-0.483c-0.628,0-1.107,0.161-1.439,0.483
		c-0.331,0.323-0.497,0.757-0.497,1.303c0,0.264,0.042,0.506,0.128,0.726c0.085,0.221,0.209,0.409,0.374,0.567
		c0.164,0.159,0.366,0.282,0.607,0.37C363.331,503.636,363.607,503.68,363.918,503.68z"/>
	<path fill="#FFFFFF" d="M373.517,498.981c0.651,0,1.239,0.108,1.764,0.325s0.971,0.525,1.337,0.924
		c0.367,0.399,0.648,0.882,0.845,1.447c0.197,0.566,0.295,1.198,0.295,1.896c0,0.704-0.098,1.337-0.295,1.9
		c-0.196,0.563-0.478,1.044-0.845,1.443c-0.367,0.398-0.812,0.705-1.337,0.919s-1.113,0.321-1.764,0.321
		c-0.651,0-1.239-0.107-1.764-0.321s-0.972-0.521-1.342-0.919c-0.37-0.399-0.654-0.88-0.854-1.443s-0.299-1.196-0.299-1.9
		c0-0.698,0.1-1.33,0.299-1.896c0.199-0.565,0.484-1.048,0.854-1.447c0.37-0.398,0.817-0.707,1.342-0.924
		S372.866,498.981,373.517,498.981z M373.517,506.936c0.88,0,1.537-0.295,1.971-0.885c0.434-0.589,0.651-1.412,0.651-2.468
		c0-1.062-0.217-1.889-0.651-2.481c-0.435-0.593-1.091-0.889-1.971-0.889c-0.446,0-0.833,0.076-1.161,0.229
		c-0.329,0.153-0.603,0.373-0.823,0.66c-0.22,0.287-0.384,0.641-0.493,1.061c-0.109,0.419-0.163,0.893-0.163,1.421
		c0,0.527,0.054,1,0.163,1.417c0.108,0.416,0.272,0.767,0.493,1.051c0.22,0.285,0.494,0.503,0.823,0.655
		C372.684,506.859,373.071,506.936,373.517,506.936z"/>
	<path fill="#FFFFFF" d="M378.339,499.122h1.285c0.124,0,0.226,0.032,0.308,0.097s0.141,0.141,0.176,0.229l2.262,5.737
		c0.082,0.211,0.146,0.422,0.193,0.633c0.047,0.212,0.091,0.42,0.132,0.625c0.047-0.205,0.097-0.413,0.15-0.625
		c0.053-0.211,0.12-0.422,0.202-0.633l2.288-5.737c0.035-0.094,0.093-0.172,0.172-0.233s0.177-0.092,0.294-0.092h1.223l-3.634,8.913
		h-1.417L378.339,499.122z"/>
	<path fill="#FFFFFF" d="M391.775,498.981c0.534,0,1.026,0.089,1.478,0.268c0.452,0.18,0.842,0.438,1.17,0.774
		c0.329,0.338,0.585,0.754,0.77,1.25c0.185,0.495,0.277,1.06,0.277,1.693c0,0.246-0.026,0.411-0.079,0.493s-0.152,0.123-0.299,0.123
		h-5.931c0.012,0.563,0.088,1.053,0.229,1.47c0.141,0.416,0.334,0.764,0.581,1.042c0.246,0.279,0.54,0.487,0.88,0.625
		c0.34,0.138,0.722,0.207,1.144,0.207c0.393,0,0.732-0.046,1.017-0.137c0.284-0.091,0.529-0.189,0.734-0.295
		c0.206-0.105,0.377-0.203,0.515-0.295c0.138-0.091,0.256-0.136,0.356-0.136c0.129,0,0.229,0.05,0.299,0.149l0.44,0.572
		c-0.193,0.234-0.425,0.438-0.695,0.611c-0.27,0.173-0.559,0.315-0.867,0.427c-0.308,0.111-0.626,0.195-0.955,0.251
		s-0.654,0.083-0.977,0.083c-0.616,0-1.184-0.104-1.703-0.312s-0.968-0.513-1.346-0.915c-0.378-0.401-0.673-0.898-0.884-1.491
		c-0.211-0.593-0.317-1.272-0.317-2.041c0-0.622,0.096-1.203,0.286-1.742c0.19-0.54,0.465-1.008,0.823-1.403
		c0.358-0.396,0.795-0.707,1.311-0.934C390.549,499.094,391.13,498.981,391.775,498.981z M391.811,500.134
		c-0.757,0-1.352,0.219-1.786,0.655c-0.434,0.438-0.704,1.043-0.81,1.817h4.848c0-0.364-0.05-0.696-0.149-0.999
		c-0.1-0.302-0.247-0.563-0.44-0.783c-0.194-0.22-0.43-0.39-0.708-0.51C392.487,500.194,392.168,500.134,391.811,500.134z"/>
	<path fill="#FFFFFF" d="M397.468,508.035v-8.913h0.897c0.17,0,0.287,0.032,0.352,0.097c0.064,0.064,0.108,0.176,0.132,0.334
		l0.105,1.391c0.305-0.622,0.682-1.107,1.131-1.456c0.449-0.35,0.975-0.523,1.58-0.523c0.246,0,0.469,0.027,0.668,0.083
		c0.199,0.056,0.384,0.134,0.554,0.233l-0.202,1.17c-0.041,0.146-0.132,0.221-0.273,0.221c-0.082,0-0.208-0.028-0.378-0.084
		c-0.17-0.056-0.408-0.084-0.712-0.084c-0.546,0-1.002,0.159-1.368,0.476c-0.367,0.316-0.673,0.777-0.919,1.381v5.676H397.468z"/>
	<path fill="#FFFFFF" d="M404.56,508.035v-8.913h0.933c0.223,0,0.364,0.108,0.422,0.325l0.123,0.968
		c0.387-0.428,0.82-0.774,1.298-1.038s1.031-0.396,1.659-0.396c0.487,0,0.917,0.08,1.289,0.241c0.373,0.162,0.683,0.391,0.933,0.687
		c0.25,0.297,0.438,0.652,0.567,1.069c0.129,0.416,0.194,0.877,0.194,1.381v5.676h-1.566v-5.676c0-0.674-0.154-1.197-0.462-1.57
		c-0.308-0.372-0.779-0.559-1.412-0.559c-0.463,0-0.896,0.111-1.298,0.334c-0.402,0.224-0.773,0.525-1.113,0.906v6.564H404.56z"/>
	<path fill="#FFFFFF" d="M414.344,508.035v-8.913h0.933c0.223,0,0.364,0.108,0.422,0.325l0.114,0.915
		c0.329-0.404,0.697-0.736,1.104-0.994s0.881-0.387,1.421-0.387c0.604,0,1.092,0.167,1.465,0.501
		c0.373,0.335,0.641,0.786,0.805,1.355c0.124-0.323,0.286-0.602,0.488-0.836c0.203-0.234,0.43-0.429,0.682-0.581
		c0.252-0.152,0.521-0.264,0.805-0.334c0.284-0.07,0.573-0.105,0.867-0.105c0.469,0,0.887,0.074,1.254,0.224
		c0.366,0.15,0.677,0.368,0.933,0.656c0.255,0.287,0.45,0.641,0.585,1.06c0.135,0.42,0.202,0.899,0.202,1.438v5.676h-1.566v-5.676
		c0-0.697-0.153-1.227-0.458-1.588c-0.305-0.36-0.748-0.541-1.329-0.541c-0.258,0-0.503,0.046-0.735,0.137s-0.436,0.224-0.611,0.4
		c-0.176,0.176-0.315,0.397-0.418,0.664c-0.103,0.267-0.154,0.576-0.154,0.928v5.676h-1.566v-5.676c0-0.715-0.144-1.249-0.431-1.601
		c-0.288-0.353-0.707-0.528-1.258-0.528c-0.387,0-0.747,0.104-1.078,0.312c-0.332,0.208-0.635,0.491-0.911,0.849v6.644H414.344z"/>
	<path fill="#FFFFFF" d="M432.32,498.981c0.534,0,1.026,0.089,1.478,0.268c0.452,0.18,0.842,0.438,1.17,0.774
		c0.329,0.338,0.585,0.754,0.77,1.25c0.185,0.495,0.277,1.06,0.277,1.693c0,0.246-0.026,0.411-0.079,0.493s-0.152,0.123-0.299,0.123
		h-5.931c0.012,0.563,0.088,1.053,0.229,1.47c0.141,0.416,0.334,0.764,0.581,1.042c0.246,0.279,0.54,0.487,0.88,0.625
		c0.34,0.138,0.722,0.207,1.144,0.207c0.393,0,0.732-0.046,1.017-0.137c0.284-0.091,0.529-0.189,0.734-0.295
		c0.206-0.105,0.377-0.203,0.515-0.295c0.138-0.091,0.256-0.136,0.356-0.136c0.129,0,0.229,0.05,0.299,0.149l0.44,0.572
		c-0.193,0.234-0.425,0.438-0.695,0.611c-0.27,0.173-0.559,0.315-0.867,0.427c-0.308,0.111-0.626,0.195-0.955,0.251
		s-0.654,0.083-0.977,0.083c-0.616,0-1.184-0.104-1.703-0.312s-0.968-0.513-1.346-0.915c-0.378-0.401-0.673-0.898-0.884-1.491
		c-0.211-0.593-0.317-1.272-0.317-2.041c0-0.622,0.096-1.203,0.286-1.742c0.19-0.54,0.465-1.008,0.823-1.403
		c0.358-0.396,0.795-0.707,1.311-0.934C431.094,499.094,431.675,498.981,432.32,498.981z M432.355,500.134
		c-0.757,0-1.352,0.219-1.786,0.655c-0.434,0.438-0.704,1.043-0.81,1.817h4.848c0-0.364-0.05-0.696-0.149-0.999
		c-0.1-0.302-0.247-0.563-0.44-0.783c-0.194-0.22-0.43-0.39-0.708-0.51C433.032,500.194,432.713,500.134,432.355,500.134z"/>
	<path fill="#FFFFFF" d="M438.013,508.035v-8.913h0.933c0.223,0,0.363,0.108,0.422,0.325l0.123,0.968
		c0.389-0.428,0.82-0.774,1.299-1.038s1.031-0.396,1.658-0.396c0.486,0,0.916,0.08,1.289,0.241c0.373,0.162,0.684,0.391,0.934,0.687
		c0.248,0.297,0.438,0.652,0.566,1.069c0.129,0.416,0.193,0.877,0.193,1.381v5.676h-1.566v-5.676c0-0.674-0.154-1.197-0.461-1.57
		c-0.309-0.372-0.779-0.559-1.412-0.559c-0.465,0-0.896,0.111-1.299,0.334c-0.4,0.224-0.771,0.525-1.113,0.906v6.564H438.013z"/>
	<path fill="#FFFFFF" d="M450.499,508.176c-0.704,0-1.245-0.196-1.624-0.59c-0.378-0.393-0.567-0.959-0.567-1.697v-5.456h-1.073
		c-0.094,0-0.173-0.027-0.237-0.083c-0.065-0.056-0.098-0.143-0.098-0.26v-0.625l1.461-0.185l0.361-2.754
		c0.011-0.088,0.049-0.16,0.114-0.216c0.064-0.056,0.146-0.084,0.246-0.084h0.792v3.071h2.552v1.135h-2.552v5.35
		c0,0.376,0.091,0.654,0.272,0.836c0.182,0.183,0.417,0.273,0.704,0.273c0.164,0,0.307-0.022,0.427-0.066s0.225-0.092,0.312-0.146
		c0.088-0.053,0.162-0.101,0.225-0.145c0.062-0.044,0.115-0.066,0.162-0.066c0.082,0,0.155,0.05,0.22,0.149l0.458,0.748
		c-0.27,0.253-0.596,0.45-0.977,0.594C451.296,508.104,450.903,508.176,450.499,508.176z"/>
</g>
<g>
	<path fill="#FFFFFF" d="M566.956,476.28c-0.053,0.088-0.108,0.153-0.167,0.197c-0.059,0.045-0.135,0.066-0.229,0.066
		c-0.101,0-0.216-0.05-0.348-0.149s-0.3-0.21-0.502-0.33s-0.445-0.23-0.73-0.33c-0.284-0.1-0.629-0.149-1.033-0.149
		c-0.382,0-0.719,0.052-1.012,0.154c-0.294,0.103-0.539,0.241-0.735,0.418c-0.196,0.176-0.345,0.383-0.444,0.62
		s-0.149,0.494-0.149,0.77c0,0.353,0.087,0.645,0.26,0.876s0.401,0.43,0.687,0.594c0.284,0.164,0.606,0.307,0.968,0.427
		c0.36,0.12,0.73,0.245,1.108,0.374s0.748,0.274,1.108,0.436c0.361,0.161,0.684,0.365,0.968,0.611
		c0.285,0.246,0.514,0.549,0.687,0.906c0.173,0.358,0.26,0.798,0.26,1.32c0,0.551-0.094,1.068-0.281,1.553
		c-0.188,0.483-0.462,0.905-0.823,1.263c-0.36,0.357-0.804,0.64-1.328,0.845c-0.525,0.205-1.122,0.308-1.791,0.308
		c-0.815,0-1.559-0.147-2.23-0.444c-0.672-0.296-1.245-0.696-1.72-1.201l0.492-0.81c0.047-0.064,0.104-0.118,0.172-0.162
		s0.142-0.066,0.225-0.066c0.123,0,0.264,0.066,0.422,0.198s0.356,0.277,0.594,0.436c0.238,0.158,0.525,0.304,0.862,0.436
		c0.338,0.132,0.749,0.198,1.236,0.198c0.405,0,0.766-0.056,1.082-0.168c0.317-0.111,0.586-0.268,0.806-0.471
		c0.22-0.202,0.389-0.444,0.506-0.726s0.176-0.596,0.176-0.941c0-0.382-0.087-0.693-0.26-0.938c-0.173-0.243-0.4-0.447-0.682-0.611
		s-0.603-0.304-0.964-0.418c-0.36-0.114-0.729-0.231-1.108-0.352c-0.378-0.12-0.748-0.26-1.108-0.418
		c-0.361-0.158-0.682-0.364-0.964-0.616c-0.281-0.252-0.509-0.567-0.682-0.946c-0.173-0.378-0.26-0.846-0.26-1.403
		c0-0.445,0.087-0.877,0.26-1.293c0.173-0.417,0.424-0.786,0.752-1.108c0.329-0.323,0.735-0.581,1.219-0.774
		c0.484-0.194,1.04-0.291,1.668-0.291c0.703,0,1.346,0.112,1.927,0.335s1.088,0.545,1.522,0.968L566.956,476.28z"/>
	<path fill="#FFFFFF" d="M572.28,487.059c-0.704,0-1.245-0.196-1.624-0.59c-0.378-0.393-0.567-0.959-0.567-1.697v-5.456h-1.073
		c-0.094,0-0.173-0.027-0.237-0.083c-0.065-0.056-0.098-0.143-0.098-0.26v-0.625l1.461-0.185l0.361-2.754
		c0.011-0.088,0.049-0.16,0.114-0.216c0.064-0.056,0.146-0.084,0.246-0.084h0.792v3.071h2.552v1.135h-2.552v5.35
		c0,0.376,0.091,0.654,0.272,0.836c0.182,0.183,0.417,0.273,0.704,0.273c0.164,0,0.307-0.022,0.427-0.066s0.225-0.092,0.312-0.146
		c0.088-0.053,0.162-0.101,0.225-0.145c0.062-0.044,0.115-0.066,0.162-0.066c0.082,0,0.155,0.05,0.22,0.149l0.458,0.748
		c-0.27,0.253-0.596,0.45-0.977,0.594C573.077,486.987,572.685,487.059,572.28,487.059z"/>
	<path fill="#FFFFFF" d="M582.688,486.918h-0.695c-0.152,0-0.275-0.023-0.369-0.07s-0.156-0.146-0.185-0.299l-0.177-0.827
		c-0.234,0.211-0.463,0.4-0.686,0.567c-0.224,0.167-0.458,0.308-0.704,0.422c-0.247,0.114-0.509,0.201-0.788,0.26
		c-0.278,0.059-0.588,0.088-0.928,0.088c-0.347,0-0.671-0.049-0.973-0.146s-0.564-0.243-0.787-0.437
		c-0.224-0.194-0.4-0.44-0.532-0.737c-0.133-0.298-0.198-0.649-0.198-1.056c0-0.353,0.097-0.693,0.29-1.02
		c0.193-0.327,0.506-0.616,0.938-0.87c0.431-0.253,0.995-0.46,1.693-0.622s1.552-0.243,2.561-0.243v-0.699
		c0-0.696-0.148-1.224-0.444-1.58c-0.296-0.357-0.734-0.536-1.315-0.536c-0.381,0-0.702,0.049-0.963,0.146
		c-0.262,0.097-0.487,0.205-0.678,0.325s-0.355,0.229-0.493,0.325c-0.138,0.098-0.274,0.146-0.409,0.146
		c-0.105,0-0.197-0.027-0.277-0.083c-0.079-0.057-0.142-0.125-0.188-0.207l-0.282-0.502c0.493-0.475,1.024-0.83,1.593-1.064
		c0.569-0.234,1.2-0.352,1.892-0.352c0.499,0,0.941,0.082,1.329,0.246c0.387,0.164,0.713,0.393,0.977,0.687
		c0.264,0.293,0.463,0.647,0.599,1.064c0.135,0.416,0.202,0.874,0.202,1.372V486.918z M578.623,485.959
		c0.276,0,0.528-0.028,0.757-0.084s0.444-0.135,0.646-0.237c0.203-0.103,0.396-0.228,0.581-0.374s0.365-0.313,0.541-0.501v-1.84
		c-0.722,0-1.334,0.046-1.839,0.138s-0.915,0.211-1.231,0.358c-0.317,0.147-0.547,0.321-0.691,0.522
		c-0.144,0.2-0.215,0.425-0.215,0.672c0,0.236,0.038,0.44,0.114,0.611s0.179,0.311,0.308,0.42s0.281,0.189,0.458,0.239
		C578.228,485.934,578.418,485.959,578.623,485.959z"/>
	<path fill="#FFFFFF" d="M587.766,487.059c-0.704,0-1.245-0.196-1.624-0.59c-0.378-0.393-0.567-0.959-0.567-1.697v-5.456h-1.073
		c-0.094,0-0.173-0.027-0.237-0.083c-0.065-0.056-0.098-0.143-0.098-0.26v-0.625l1.461-0.185l0.361-2.754
		c0.011-0.088,0.049-0.16,0.114-0.216c0.064-0.056,0.146-0.084,0.246-0.084h0.792v3.071h2.552v1.135h-2.552v5.35
		c0,0.376,0.091,0.654,0.272,0.836c0.182,0.183,0.417,0.273,0.704,0.273c0.164,0,0.307-0.022,0.427-0.066s0.225-0.092,0.312-0.146
		c0.088-0.053,0.162-0.101,0.225-0.145c0.062-0.044,0.115-0.066,0.162-0.066c0.082,0,0.155,0.05,0.22,0.149l0.458,0.748
		c-0.27,0.253-0.596,0.45-0.977,0.594C588.562,486.987,588.17,487.059,587.766,487.059z"/>
	<path fill="#FFFFFF" d="M595.155,477.864c0.534,0,1.027,0.089,1.479,0.268c0.452,0.18,0.842,0.438,1.171,0.774
		c0.328,0.338,0.585,0.754,0.77,1.25c0.185,0.495,0.277,1.06,0.277,1.693c0,0.246-0.026,0.411-0.079,0.493s-0.153,0.123-0.3,0.123
		h-5.93c0.011,0.563,0.088,1.053,0.229,1.47c0.141,0.416,0.334,0.764,0.58,1.042c0.247,0.279,0.54,0.487,0.88,0.625
		c0.341,0.138,0.722,0.207,1.145,0.207c0.393,0,0.731-0.046,1.016-0.137c0.285-0.091,0.529-0.189,0.735-0.295
		c0.205-0.105,0.377-0.203,0.515-0.295c0.138-0.091,0.257-0.136,0.356-0.136c0.129,0,0.229,0.05,0.299,0.149l0.44,0.572
		c-0.194,0.234-0.426,0.438-0.695,0.611c-0.271,0.173-0.559,0.315-0.867,0.427c-0.308,0.111-0.626,0.195-0.954,0.251
		c-0.329,0.056-0.654,0.083-0.977,0.083c-0.616,0-1.184-0.104-1.703-0.312c-0.519-0.208-0.968-0.513-1.346-0.915
		c-0.379-0.401-0.674-0.898-0.885-1.491s-0.316-1.272-0.316-2.041c0-0.622,0.095-1.203,0.286-1.742
		c0.19-0.54,0.465-1.008,0.822-1.403c0.357-0.396,0.795-0.707,1.312-0.934C593.93,477.977,594.511,477.864,595.155,477.864z
		 M595.191,479.017c-0.757,0-1.353,0.219-1.787,0.655c-0.434,0.438-0.703,1.043-0.809,1.817h4.848c0-0.364-0.05-0.696-0.149-0.999
		c-0.1-0.302-0.246-0.563-0.44-0.783c-0.193-0.22-0.43-0.39-0.708-0.51S595.549,479.017,595.191,479.017z"/>
	<path fill="#FFFFFF" d="M616.202,480.618c0,0.944-0.149,1.811-0.448,2.6c-0.3,0.789-0.722,1.469-1.268,2.037
		c-0.545,0.569-1.201,1.011-1.967,1.324c-0.765,0.314-1.611,0.471-2.538,0.471s-1.771-0.156-2.534-0.471
		c-0.763-0.313-1.416-0.755-1.962-1.324c-0.546-0.568-0.968-1.248-1.268-2.037c-0.299-0.789-0.448-1.655-0.448-2.6
		s0.149-1.812,0.448-2.601c0.3-0.789,0.722-1.469,1.268-2.041s1.199-1.017,1.962-1.333s1.607-0.476,2.534-0.476
		s1.773,0.159,2.538,0.476c0.766,0.316,1.422,0.761,1.967,1.333c0.546,0.572,0.968,1.252,1.268,2.041
		C616.053,478.807,616.202,479.674,616.202,480.618z M614.451,480.618c0-0.774-0.105-1.47-0.316-2.086
		c-0.211-0.615-0.511-1.136-0.897-1.562c-0.388-0.425-0.856-0.752-1.408-0.981c-0.552-0.229-1.167-0.343-1.848-0.343
		c-0.675,0-1.288,0.114-1.839,0.343c-0.552,0.229-1.022,0.557-1.412,0.981c-0.391,0.426-0.69,0.946-0.902,1.562
		c-0.211,0.616-0.316,1.312-0.316,2.086s0.105,1.468,0.316,2.081c0.212,0.612,0.512,1.132,0.902,1.557
		c0.39,0.426,0.86,0.751,1.412,0.978c0.551,0.226,1.164,0.338,1.839,0.338c0.681,0,1.296-0.112,1.848-0.338
		c0.552-0.227,1.021-0.552,1.408-0.978c0.387-0.425,0.687-0.944,0.897-1.557C614.346,482.086,614.451,481.393,614.451,480.618z"/>
	<path fill="#FFFFFF" d="M617.126,478.005h1.232c0.129,0,0.234,0.032,0.316,0.097s0.138,0.141,0.167,0.229l1.707,5.737
		c0.047,0.211,0.091,0.415,0.132,0.611s0.076,0.395,0.105,0.594c0.047-0.199,0.1-0.397,0.158-0.594s0.121-0.4,0.186-0.611
		l1.883-5.772c0.029-0.088,0.08-0.161,0.154-0.22c0.073-0.059,0.165-0.088,0.276-0.088h0.678c0.117,0,0.214,0.029,0.29,0.088
		s0.13,0.132,0.159,0.22l1.839,5.772c0.064,0.205,0.121,0.407,0.171,0.606c0.05,0.2,0.099,0.396,0.146,0.59
		c0.029-0.193,0.067-0.396,0.114-0.607c0.047-0.211,0.097-0.407,0.149-0.589l1.742-5.737c0.029-0.094,0.085-0.172,0.168-0.233
		c0.082-0.062,0.179-0.092,0.29-0.092h1.179l-2.886,8.913h-1.24c-0.153,0-0.259-0.1-0.317-0.299l-1.971-6.045
		c-0.047-0.135-0.085-0.271-0.114-0.409s-0.059-0.274-0.088-0.409c-0.029,0.135-0.059,0.272-0.088,0.413
		c-0.03,0.141-0.068,0.279-0.115,0.414l-1.997,6.036c-0.064,0.199-0.185,0.299-0.36,0.299h-1.18L617.126,478.005z"/>
	<path fill="#FFFFFF" d="M631.767,486.918v-8.913h0.934c0.223,0,0.363,0.108,0.422,0.325l0.123,0.968
		c0.388-0.428,0.819-0.774,1.298-1.038s1.031-0.396,1.659-0.396c0.486,0,0.916,0.08,1.288,0.241
		c0.373,0.162,0.684,0.391,0.934,0.687c0.249,0.297,0.438,0.652,0.567,1.069c0.129,0.416,0.193,0.877,0.193,1.381v5.676h-1.566
		v-5.676c0-0.674-0.154-1.197-0.462-1.57c-0.308-0.372-0.778-0.559-1.412-0.559c-0.464,0-0.896,0.111-1.298,0.334
		c-0.401,0.224-0.772,0.525-1.113,0.906v6.564H631.767z"/>
	<path fill="#FFFFFF" d="M645.079,477.864c0.534,0,1.027,0.089,1.479,0.268c0.452,0.18,0.842,0.438,1.171,0.774
		c0.328,0.338,0.585,0.754,0.77,1.25c0.185,0.495,0.277,1.06,0.277,1.693c0,0.246-0.026,0.411-0.079,0.493s-0.153,0.123-0.3,0.123
		h-5.93c0.011,0.563,0.088,1.053,0.229,1.47c0.141,0.416,0.334,0.764,0.58,1.042c0.247,0.279,0.54,0.487,0.88,0.625
		c0.341,0.138,0.722,0.207,1.145,0.207c0.393,0,0.731-0.046,1.016-0.137c0.285-0.091,0.529-0.189,0.735-0.295
		c0.205-0.105,0.377-0.203,0.515-0.295c0.138-0.091,0.257-0.136,0.356-0.136c0.129,0,0.229,0.05,0.299,0.149l0.44,0.572
		c-0.194,0.234-0.426,0.438-0.695,0.611c-0.271,0.173-0.559,0.315-0.867,0.427c-0.308,0.111-0.626,0.195-0.954,0.251
		c-0.329,0.056-0.654,0.083-0.977,0.083c-0.616,0-1.184-0.104-1.703-0.312c-0.519-0.208-0.968-0.513-1.346-0.915
		c-0.379-0.401-0.674-0.898-0.885-1.491s-0.316-1.272-0.316-2.041c0-0.622,0.095-1.203,0.286-1.742
		c0.19-0.54,0.465-1.008,0.822-1.403c0.357-0.396,0.795-0.707,1.312-0.934C643.854,477.977,644.435,477.864,645.079,477.864z
		 M645.115,479.017c-0.757,0-1.353,0.219-1.787,0.655c-0.434,0.438-0.703,1.043-0.809,1.817h4.848c0-0.364-0.05-0.696-0.149-0.999
		c-0.1-0.302-0.246-0.563-0.44-0.783c-0.193-0.22-0.43-0.39-0.708-0.51S645.473,479.017,645.115,479.017z"/>
	<path fill="#FFFFFF" d="M657.047,486.918c-0.224,0-0.364-0.108-0.423-0.325l-0.141-1.083c-0.382,0.464-0.817,0.835-1.307,1.113
		c-0.49,0.279-1.052,0.418-1.685,0.418c-0.511,0-0.975-0.099-1.391-0.295c-0.417-0.196-0.771-0.485-1.064-0.866
		c-0.294-0.382-0.52-0.856-0.678-1.426c-0.158-0.568-0.237-1.223-0.237-1.962c0-0.657,0.088-1.269,0.264-1.835
		c0.176-0.565,0.43-1.057,0.761-1.474c0.332-0.416,0.735-0.743,1.21-0.981c0.476-0.237,1.015-0.355,1.619-0.355
		c0.546,0,1.012,0.092,1.399,0.276c0.387,0.186,0.733,0.444,1.038,0.779v-4.945h1.566v12.961H657.047z M654.011,485.774
		c0.511,0,0.958-0.117,1.342-0.353c0.385-0.234,0.737-0.565,1.061-0.994v-4.312c-0.287-0.387-0.603-0.658-0.946-0.813
		c-0.343-0.155-0.723-0.233-1.139-0.233c-0.833,0-1.473,0.296-1.919,0.889c-0.445,0.593-0.668,1.438-0.668,2.534
		c0,0.581,0.05,1.078,0.149,1.491c0.1,0.414,0.246,0.754,0.439,1.021c0.193,0.268,0.432,0.462,0.713,0.585
		C653.324,485.713,653.647,485.774,654.011,485.774z"/>
	<path fill="#FFFFFF" d="M596.819,495.426v1.391h-6.054v4.188h4.9v1.337h-4.9v4.303h6.054v1.391h-7.77v-12.609H596.819z"/>
	<path fill="#FFFFFF" d="M599.027,508.035v-8.913h0.934c0.223,0,0.363,0.108,0.422,0.325l0.123,0.968
		c0.388-0.428,0.819-0.774,1.298-1.038s1.031-0.396,1.659-0.396c0.486,0,0.916,0.08,1.288,0.241
		c0.373,0.162,0.684,0.391,0.934,0.687c0.249,0.297,0.438,0.652,0.567,1.069c0.129,0.416,0.193,0.877,0.193,1.381v5.676h-1.566
		v-5.676c0-0.674-0.154-1.197-0.462-1.57c-0.308-0.372-0.778-0.559-1.412-0.559c-0.464,0-0.896,0.111-1.298,0.334
		c-0.401,0.224-0.772,0.525-1.113,0.906v6.564H599.027z"/>
	<path fill="#FFFFFF" d="M611.514,508.176c-0.704,0-1.245-0.196-1.624-0.59c-0.378-0.393-0.567-0.959-0.567-1.697v-5.456h-1.073
		c-0.094,0-0.173-0.027-0.237-0.083c-0.065-0.056-0.098-0.143-0.098-0.26v-0.625l1.461-0.185l0.361-2.754
		c0.011-0.088,0.049-0.16,0.114-0.216c0.064-0.056,0.146-0.084,0.246-0.084h0.792v3.071h2.552v1.135h-2.552v5.35
		c0,0.376,0.091,0.654,0.272,0.836c0.182,0.183,0.417,0.273,0.704,0.273c0.164,0,0.307-0.022,0.427-0.066s0.225-0.092,0.312-0.146
		c0.088-0.053,0.162-0.101,0.225-0.145c0.062-0.044,0.115-0.066,0.162-0.066c0.082,0,0.155,0.05,0.22,0.149l0.458,0.748
		c-0.27,0.253-0.596,0.45-0.977,0.594C612.311,508.104,611.918,508.176,611.514,508.176z"/>
	<path fill="#FFFFFF" d="M617.47,496.324c0,0.152-0.031,0.294-0.093,0.427c-0.062,0.132-0.144,0.249-0.246,0.352
		s-0.222,0.184-0.356,0.242s-0.278,0.088-0.431,0.088c-0.153,0-0.295-0.029-0.427-0.088c-0.133-0.059-0.25-0.14-0.353-0.242
		s-0.184-0.22-0.242-0.352c-0.059-0.133-0.088-0.274-0.088-0.427c0-0.153,0.029-0.298,0.088-0.436
		c0.059-0.139,0.14-0.259,0.242-0.361s0.22-0.184,0.353-0.242c0.132-0.059,0.273-0.088,0.427-0.088c0.152,0,0.296,0.029,0.431,0.088
		s0.254,0.14,0.356,0.242s0.185,0.223,0.246,0.361C617.438,496.026,617.47,496.171,617.47,496.324z M617.117,499.122v8.913h-1.565
		v-8.913H617.117z"/>
	<path fill="#FFFFFF" d="M622.582,508.176c-0.704,0-1.245-0.196-1.624-0.59c-0.378-0.393-0.567-0.959-0.567-1.697v-5.456h-1.073
		c-0.094,0-0.173-0.027-0.237-0.083c-0.065-0.056-0.098-0.143-0.098-0.26v-0.625l1.461-0.185l0.361-2.754
		c0.011-0.088,0.049-0.16,0.114-0.216c0.064-0.056,0.146-0.084,0.246-0.084h0.792v3.071h2.552v1.135h-2.552v5.35
		c0,0.376,0.091,0.654,0.272,0.836c0.182,0.183,0.417,0.273,0.704,0.273c0.164,0,0.307-0.022,0.427-0.066s0.225-0.092,0.312-0.146
		c0.088-0.053,0.162-0.101,0.225-0.145c0.062-0.044,0.115-0.066,0.162-0.066c0.082,0,0.155,0.05,0.22,0.149l0.458,0.748
		c-0.27,0.253-0.596,0.45-0.977,0.594C623.379,508.104,622.986,508.176,622.582,508.176z"/>
	<path fill="#FFFFFF" d="M629.057,510.666c-0.053,0.117-0.118,0.211-0.197,0.281s-0.201,0.105-0.365,0.105h-1.162l1.628-3.537
		l-3.678-8.394h1.355c0.135,0,0.24,0.033,0.316,0.101s0.132,0.143,0.167,0.225l2.385,5.614c0.053,0.129,0.098,0.258,0.137,0.387
		c0.038,0.129,0.071,0.261,0.101,0.396c0.041-0.135,0.082-0.267,0.123-0.396s0.088-0.261,0.142-0.396l2.313-5.605
		c0.035-0.094,0.096-0.172,0.181-0.233s0.177-0.092,0.277-0.092h1.249L629.057,510.666z"/>
</g>
<g>
	<path fill="#FFFFFF" d="M765.323,480.618c0,0.944-0.149,1.811-0.448,2.6c-0.3,0.789-0.722,1.469-1.268,2.037
		c-0.545,0.569-1.201,1.011-1.967,1.324c-0.765,0.314-1.611,0.471-2.538,0.471s-1.771-0.156-2.534-0.471
		c-0.763-0.313-1.416-0.755-1.962-1.324c-0.546-0.568-0.968-1.248-1.268-2.037c-0.299-0.789-0.448-1.655-0.448-2.6
		s0.149-1.812,0.448-2.601c0.3-0.789,0.722-1.469,1.268-2.041s1.199-1.017,1.962-1.333s1.607-0.476,2.534-0.476
		s1.773,0.159,2.538,0.476c0.766,0.316,1.422,0.761,1.967,1.333c0.546,0.572,0.968,1.252,1.268,2.041
		C765.174,478.807,765.323,479.674,765.323,480.618z M763.572,480.618c0-0.774-0.105-1.47-0.316-2.086
		c-0.211-0.615-0.511-1.136-0.897-1.562c-0.388-0.425-0.856-0.752-1.408-0.981c-0.552-0.229-1.167-0.343-1.848-0.343
		c-0.675,0-1.288,0.114-1.839,0.343c-0.552,0.229-1.022,0.557-1.412,0.981c-0.391,0.426-0.69,0.946-0.902,1.562
		c-0.211,0.616-0.316,1.312-0.316,2.086s0.105,1.468,0.316,2.081c0.212,0.612,0.512,1.132,0.902,1.557
		c0.39,0.426,0.86,0.751,1.412,0.978c0.551,0.226,1.164,0.338,1.839,0.338c0.681,0,1.296-0.112,1.848-0.338
		c0.552-0.227,1.021-0.552,1.408-0.978c0.387-0.425,0.687-0.944,0.897-1.557C763.467,482.086,763.572,481.393,763.572,480.618z"/>
	<path fill="#FFFFFF" d="M770.11,487.059c-0.704,0-1.245-0.196-1.624-0.59c-0.378-0.393-0.567-0.959-0.567-1.697v-5.456h-1.073
		c-0.094,0-0.173-0.027-0.237-0.083c-0.065-0.056-0.098-0.143-0.098-0.26v-0.625l1.461-0.185l0.361-2.754
		c0.011-0.088,0.049-0.16,0.114-0.216c0.064-0.056,0.146-0.084,0.246-0.084h0.792v3.071h2.552v1.135h-2.552v5.35
		c0,0.376,0.091,0.654,0.272,0.836c0.182,0.183,0.417,0.273,0.704,0.273c0.164,0,0.307-0.022,0.427-0.066s0.225-0.092,0.312-0.146
		c0.088-0.053,0.162-0.101,0.225-0.145c0.062-0.044,0.115-0.066,0.162-0.066c0.082,0,0.155,0.05,0.22,0.149l0.458,0.748
		c-0.27,0.253-0.596,0.45-0.977,0.594C770.907,486.987,770.515,487.059,770.11,487.059z"/>
	<path fill="#FFFFFF" d="M773.972,486.918v-12.961h1.566v5.244c0.382-0.404,0.804-0.729,1.268-0.972
		c0.463-0.244,0.997-0.365,1.602-0.365c0.486,0,0.916,0.08,1.288,0.241c0.373,0.162,0.684,0.391,0.934,0.687
		c0.249,0.297,0.438,0.652,0.567,1.069c0.129,0.416,0.193,0.877,0.193,1.381v5.676h-1.566v-5.676c0-0.674-0.154-1.197-0.462-1.57
		c-0.308-0.372-0.778-0.559-1.412-0.559c-0.464,0-0.896,0.111-1.298,0.334c-0.401,0.224-0.772,0.525-1.113,0.906v6.564H773.972z"/>
	<path fill="#FFFFFF" d="M787.284,477.864c0.534,0,1.027,0.089,1.479,0.268c0.452,0.18,0.842,0.438,1.171,0.774
		c0.328,0.338,0.585,0.754,0.77,1.25c0.185,0.495,0.277,1.06,0.277,1.693c0,0.246-0.026,0.411-0.079,0.493s-0.153,0.123-0.3,0.123
		h-5.93c0.011,0.563,0.088,1.053,0.229,1.47c0.141,0.416,0.334,0.764,0.58,1.042c0.247,0.279,0.54,0.487,0.88,0.625
		c0.341,0.138,0.722,0.207,1.145,0.207c0.393,0,0.731-0.046,1.016-0.137c0.285-0.091,0.529-0.189,0.735-0.295
		c0.205-0.105,0.377-0.203,0.515-0.295c0.138-0.091,0.257-0.136,0.356-0.136c0.129,0,0.229,0.05,0.299,0.149l0.44,0.572
		c-0.194,0.234-0.426,0.438-0.695,0.611c-0.271,0.173-0.559,0.315-0.867,0.427c-0.308,0.111-0.626,0.195-0.954,0.251
		c-0.329,0.056-0.654,0.083-0.977,0.083c-0.616,0-1.184-0.104-1.703-0.312c-0.519-0.208-0.968-0.513-1.346-0.915
		c-0.379-0.401-0.674-0.898-0.885-1.491s-0.316-1.272-0.316-2.041c0-0.622,0.095-1.203,0.286-1.742
		c0.19-0.54,0.465-1.008,0.822-1.403c0.357-0.396,0.795-0.707,1.312-0.934C786.059,477.977,786.64,477.864,787.284,477.864z
		 M787.32,479.017c-0.757,0-1.353,0.219-1.787,0.655c-0.434,0.438-0.703,1.043-0.809,1.817h4.848c0-0.364-0.05-0.696-0.149-0.999
		c-0.1-0.302-0.246-0.563-0.44-0.783c-0.193-0.22-0.43-0.39-0.708-0.51S787.678,479.017,787.32,479.017z"/>
	<path fill="#FFFFFF" d="M792.977,486.918v-8.913h0.897c0.171,0,0.288,0.032,0.353,0.097s0.108,0.176,0.132,0.334l0.105,1.391
		c0.305-0.622,0.682-1.107,1.131-1.456c0.448-0.35,0.976-0.523,1.579-0.523c0.247,0,0.47,0.027,0.669,0.083s0.384,0.134,0.555,0.233
		l-0.203,1.17c-0.041,0.146-0.132,0.221-0.272,0.221c-0.082,0-0.208-0.028-0.378-0.084c-0.171-0.056-0.408-0.084-0.713-0.084
		c-0.546,0-1.002,0.159-1.368,0.476c-0.367,0.316-0.673,0.777-0.92,1.381v5.676H792.977z"/>
</g>
<g>
	<g>
		<polygon fill="#ED1C24" points="275.407,421.447 275.407,446.969 205.026,446.969 205.026,440.56 		"/>
		<polygon fill="#ED1C24" points="275.407,408.246 275.407,414.76 205.026,433.87 205.026,427.354 		"/>
		<polygon fill="#ED1C24" points="275.407,395.043 275.407,401.558 205.026,420.667 205.026,414.155 		"/>
		<polygon fill="#ED1C24" points="275.407,381.835 275.407,388.354 205.026,407.463 205.026,400.953 		"/>
		<polygon fill="#ED1C24" points="275.407,368.633 275.407,375.146 205.026,394.26 205.026,387.745 		"/>
		<polygon fill="#ED1C24" points="275.407,355.431 275.407,361.944 205.026,381.059 205.026,374.54 		"/>
		<polygon fill="#ED1C24" points="275.407,342.228 275.407,348.738 205.026,367.854 205.026,361.339 		"/>
		<polygon fill="#ED1C24" points="275.407,329.025 275.407,335.539 205.026,354.647 205.026,348.135 		"/>
		<polygon fill="#ED1C24" points="275.407,315.821 275.407,322.335 205.026,341.446 205.026,334.933 		"/>
		<polygon fill="#ED1C24" points="275.407,302.616 275.407,309.131 205.026,328.243 205.026,321.729 		"/>
		<polygon fill="#ED1C24" points="275.407,289.414 275.407,295.928 205.026,315.041 205.026,308.522 		"/>
		<polygon fill="#ED1C24" points="275.407,276.212 275.407,282.726 205.026,301.833 205.026,295.32 		"/>
		<polygon fill="#ED1C24" points="275.407,263.006 275.407,269.521 205.026,288.631 205.026,282.117 		"/>
		<polygon fill="#ED1C24" points="275.407,249.803 275.407,256.319 205.026,275.426 205.026,268.916 		"/>
		<polygon fill="#ED1C24" points="275.407,236.599 275.407,243.117 205.026,262.227 205.026,255.71 		"/>
		<polygon fill="#ED1C24" points="275.407,223.394 275.407,229.909 205.026,249.023 205.026,242.506 		"/>
		<polygon fill="#ED1C24" points="275.407,210.193 275.407,216.705 205.026,235.819 205.026,229.3 		"/>
		<polygon fill="#ED1C24" points="275.407,196.99 275.407,203.502 205.026,222.61 205.026,216.098 		"/>
		<polygon fill="#ED1C24" points="275.407,183.786 275.407,190.299 205.026,209.408 205.026,202.896 		"/>
		<polygon fill="#ED1C24" points="275.407,170.583 275.407,177.095 205.026,196.204 205.026,189.692 		"/>
		<polygon fill="#ED1C24" points="275.407,157.376 275.407,163.891 205.026,183.003 205.026,176.49 		"/>
		<polygon fill="#ED1C24" points="275.407,144.175 275.407,150.688 205.026,169.799 205.026,163.283 		"/>
		<polygon fill="#ED1C24" points="275.407,130.972 275.407,137.485 205.026,156.595 205.026,150.08 		"/>
		<polygon fill="#EEC900" points="275.407,117.768 275.407,124.28 205.026,143.392 205.026,136.875 		"/>
		<polygon fill="#EEC900" points="275.407,104.562 275.407,111.077 205.026,130.185 205.026,123.674 		"/>
		<polygon fill="#EEC900" points="275.407,91.357 275.407,97.874 205.026,116.984 205.026,110.469 		"/>
		<polygon fill="#EEC900" points="275.407,78.154 275.407,84.67 205.026,103.78 205.026,97.268 		"/>
		<polygon fill="#EEC900" points="275.407,64.954 275.407,71.463 205.026,90.578 205.026,84.064 		"/>
		<polygon fill="#EEC900" points="275.407,51.212 275.407,58.263 205.026,77.376 205.023,51.212 		"/>
	</g>
</g>
<g>
	<g>
		<polygon fill="#ED1C24" points="449.569,418.708 449.569,446.969 379.188,446.969 379.188,439.872 		"/>
		<polygon fill="#ED1C24" points="449.569,404.087 449.569,411.302 379.188,432.461 379.188,425.249 		"/>
		<polygon fill="#ED1C24" points="449.569,389.464 449.569,396.678 379.188,417.842 379.188,410.63 		"/>
		<polygon fill="#ED1C24" points="449.569,374.838 449.569,382.057 379.188,403.22 379.188,396.01 		"/>
		<polygon fill="#ED1C24" points="449.569,360.215 449.569,367.432 379.188,388.6 379.188,381.382 		"/>
		<polygon fill="#EEC900" points="449.569,345.597 449.569,352.811 379.188,373.978 379.188,366.76 		"/>
		<polygon fill="#EEC900" points="449.569,330.975 449.569,338.187 379.188,359.354 379.188,352.14 		"/>
		<polygon fill="#EEC900" points="449.569,316.353 449.569,323.567 379.188,344.729 379.188,337.517 		"/>
		<polygon fill="#EEC900" points="449.569,301.732 449.569,308.943 379.188,330.11 379.188,322.896 		"/>
		<polygon fill="#EEC900" points="449.569,287.108 449.569,294.319 379.188,315.488 379.188,308.273 		"/>
		<polygon fill="#EEC900" points="449.569,272.486 449.569,279.7 379.188,300.866 379.188,293.652 		"/>
		<polygon fill="#EEC900" points="449.569,257.201 449.569,265.082 379.188,286.241 379.188,257.201 		"/>
	</g>
</g>
<g>
	<g>
		<polygon fill="#ED1C24" points="644.325,418.708 644.325,446.969 573.941,446.969 573.941,439.872 		"/>
		<polygon fill="#EEC900" points="644.325,403.201 644.325,411.082 573.941,432.241 573.941,403.201 		"/>
	</g>
</g>
<g>
	<g>
		<polygon fill="#ED1C24" points="809.682,418.708 809.682,446.969 739.3,446.969 739.3,439.872 		"/>
		<polygon fill="#ED1C24" points="809.682,404.087 809.682,411.302 739.3,432.461 739.3,425.249 		"/>
		<polygon fill="#ED1C24" points="809.682,389.464 809.682,396.678 739.3,417.842 739.3,410.63 		"/>
		<polygon fill="#ED1C24" points="809.682,374.838 809.682,382.057 739.3,403.22 739.3,396.01 		"/>
		<polygon fill="#ED1C24" points="809.682,360.215 809.682,367.432 739.3,388.6 739.3,381.382 		"/>
		<polygon fill="#EEC900" points="809.682,345.597 809.682,352.811 739.3,373.978 739.3,366.76 		"/>
		<polygon fill="#EEC900" points="809.682,330.975 809.682,338.187 739.3,359.354 739.3,352.14 		"/>
		<polygon fill="#EEC900" points="809.682,316.353 809.682,323.567 739.3,344.729 739.3,337.517 		"/>
		<polygon fill="#EEC900" points="809.682,301.732 809.682,308.943 739.3,330.11 739.3,322.896 		"/>
		<polygon fill="#EEC900" points="809.682,287.108 809.682,294.319 739.3,315.488 739.3,308.273 		"/>
		<polygon fill="#EEC900" points="809.682,272.201 809.682,280.082 739.3,301.241 739.3,272.201 		"/>
	</g>
</g>
<g>
	<g>
		<polygon fill="#ED1C24" points="109.666,412.687 109.666,446.969 39.284,446.969 39.284,438.36 		"/>
		<polygon fill="#ED1C24" points="109.666,394.953 109.666,403.704 39.284,429.372 39.284,420.621 		"/>
		<polygon fill="#ED1C24" points="109.666,377.216 109.666,385.967 39.284,411.638 39.284,402.891 		"/>
		<polygon fill="#ED1C24" points="109.666,359.473 109.666,368.23 39.284,393.902 39.284,385.154 		"/>
		<polygon fill="#ED1C24" points="109.666,341.738 109.666,350.489 39.284,376.167 39.284,367.412 		"/>
		<polygon fill="#EEC900" points="109.666,324.005 109.666,332.753 39.284,358.431 39.284,349.677 		"/>
		<polygon fill="#EEC900" points="109.666,306.27 109.666,315.018 39.284,340.692 39.284,331.942 		"/>
		<polygon fill="#EEC900" points="109.666,288.531 109.666,297.282 39.284,322.952 39.284,314.202 		"/>
		<polygon fill="#EEC900" points="109.666,270.797 109.666,279.546 39.284,305.219 39.284,296.467 		"/>
		<polygon fill="#EEC900" points="109.666,253.06 109.666,261.808 39.284,287.483 39.284,278.73 		"/>
		<polygon fill="#EEC900" points="109.666,235.323 109.666,244.071 39.284,269.748 39.284,260.996 		"/>
		<polygon fill="#EEC900" points="109.666,216.779 109.666,226.339 39.284,252.008 39.284,216.779 		"/>
	</g>
</g>
<rect x="10.229" y="443.807" fill="#ED1C24" width="833.287" height="10.467"/>
<g>
	<path fill="#FFFFFF" d="M48.816,192.662h4.102v-13.013c0-0.391,0.013-0.786,0.04-1.186l-3.41,2.917
		c-0.089,0.071-0.178,0.122-0.267,0.153s-0.173,0.046-0.253,0.046c-0.133,0-0.253-0.029-0.359-0.086
		c-0.107-0.058-0.187-0.126-0.24-0.207l-0.746-1.025l5.674-4.915h1.931v17.315h3.756v1.812H48.816V192.662z"/>
	<path fill="#FFFFFF" d="M68.155,194.686c-0.95,0-1.82-0.126-2.611-0.379s-1.47-0.615-2.038-1.085
		c-0.568-0.471-1.008-1.041-1.319-1.711c-0.311-0.67-0.466-1.423-0.466-2.258c0-1.225,0.319-2.235,0.959-3.03
		c0.639-0.794,1.554-1.36,2.744-1.698c-1.003-0.373-1.761-0.93-2.271-1.672c-0.511-0.741-0.766-1.627-0.766-2.657
		c0-0.701,0.138-1.358,0.413-1.971s0.666-1.146,1.172-1.598c0.506-0.453,1.112-0.808,1.818-1.065s1.494-0.386,2.364-0.386
		c0.861,0,1.647,0.129,2.357,0.386c0.71,0.257,1.318,0.613,1.825,1.065c0.506,0.453,0.896,0.985,1.172,1.598s0.413,1.27,0.413,1.971
		c0,1.03-0.258,1.916-0.772,2.657c-0.515,0.742-1.27,1.299-2.265,1.672c1.19,0.337,2.104,0.903,2.744,1.698
		c0.639,0.795,0.959,1.805,0.959,3.03c0,0.835-0.158,1.587-0.473,2.258c-0.315,0.67-0.755,1.241-1.318,1.711
		c-0.564,0.471-1.241,0.833-2.031,1.085C69.975,194.56,69.104,194.686,68.155,194.686z M68.155,192.795
		c0.621,0,1.179-0.086,1.671-0.26s0.91-0.417,1.252-0.732c0.342-0.315,0.604-0.693,0.786-1.132s0.273-0.926,0.273-1.458
		c0-0.657-0.109-1.219-0.327-1.685c-0.218-0.466-0.511-0.846-0.879-1.139c-0.369-0.293-0.792-0.508-1.272-0.646
		s-0.981-0.207-1.505-0.207c-0.524,0-1.026,0.069-1.505,0.207s-0.903,0.353-1.272,0.646c-0.369,0.293-0.662,0.673-0.879,1.139
		c-0.218,0.466-0.326,1.028-0.326,1.685c0,0.533,0.091,1.019,0.273,1.458c0.182,0.439,0.444,0.817,0.786,1.132
		c0.342,0.315,0.759,0.559,1.252,0.732C66.976,192.708,67.533,192.795,68.155,192.795z M68.155,183.631
		c0.621,0,1.152-0.095,1.591-0.286s0.797-0.444,1.072-0.759c0.275-0.315,0.475-0.677,0.6-1.085c0.124-0.409,0.186-0.831,0.186-1.266
		c0-0.444-0.073-0.861-0.22-1.252c-0.146-0.391-0.364-0.732-0.652-1.025c-0.289-0.293-0.648-0.524-1.079-0.693
		c-0.431-0.168-0.93-0.253-1.498-0.253c-0.568,0-1.068,0.084-1.499,0.253c-0.431,0.169-0.791,0.4-1.079,0.693
		s-0.506,0.635-0.652,1.025c-0.146,0.391-0.22,0.808-0.22,1.252c0,0.435,0.062,0.857,0.187,1.266
		c0.124,0.408,0.324,0.77,0.599,1.085c0.275,0.315,0.633,0.568,1.072,0.759S67.533,183.631,68.155,183.631z"/>
	<path fill="#FFFFFF" d="M85.309,179.995c0,0.746-0.115,1.414-0.346,2.004c-0.231,0.591-0.54,1.088-0.926,1.492
		c-0.386,0.404-0.837,0.712-1.352,0.925c-0.515,0.213-1.052,0.32-1.611,0.32c-0.604,0-1.161-0.106-1.671-0.32
		c-0.511-0.213-0.957-0.521-1.339-0.925c-0.382-0.404-0.679-0.901-0.892-1.492c-0.213-0.59-0.32-1.258-0.32-2.004
		c0-0.764,0.106-1.443,0.32-2.038c0.213-0.595,0.51-1.097,0.892-1.505c0.382-0.408,0.828-0.719,1.339-0.932
		c0.51-0.213,1.067-0.32,1.671-0.32c0.595,0,1.152,0.106,1.671,0.32c0.52,0.213,0.968,0.524,1.345,0.932
		c0.377,0.409,0.675,0.911,0.893,1.505C85.2,178.552,85.309,179.231,85.309,179.995z M91.982,175.866
		c0.115-0.151,0.237-0.269,0.366-0.353c0.129-0.084,0.3-0.126,0.513-0.126h1.705l-13.945,18.7c-0.089,0.115-0.195,0.208-0.319,0.28
		c-0.125,0.071-0.271,0.106-0.439,0.106h-1.758L91.982,175.866z M83.458,179.995c0-0.586-0.062-1.083-0.187-1.492
		c-0.125-0.408-0.295-0.744-0.513-1.005c-0.217-0.262-0.471-0.451-0.759-0.566c-0.289-0.115-0.598-0.173-0.926-0.173
		c-0.329,0-0.637,0.058-0.926,0.173c-0.289,0.116-0.54,0.304-0.752,0.566c-0.213,0.262-0.379,0.597-0.5,1.005
		c-0.12,0.409-0.18,0.906-0.18,1.492c0,0.578,0.06,1.068,0.18,1.472c0.12,0.404,0.287,0.733,0.5,0.986s0.464,0.435,0.752,0.546
		c0.289,0.111,0.597,0.167,0.926,0.167c0.328,0,0.637-0.055,0.926-0.167c0.288-0.111,0.542-0.293,0.759-0.546
		c0.218-0.253,0.389-0.582,0.513-0.986C83.396,181.063,83.458,180.573,83.458,179.995z M95.858,189.971
		c0,0.746-0.116,1.412-0.346,1.998c-0.231,0.586-0.54,1.081-0.926,1.485c-0.386,0.404-0.835,0.713-1.345,0.926
		c-0.511,0.213-1.045,0.32-1.605,0.32c-0.604,0-1.161-0.107-1.671-0.32c-0.511-0.213-0.957-0.521-1.339-0.926
		c-0.382-0.404-0.679-0.899-0.892-1.485c-0.213-0.586-0.32-1.252-0.32-1.998c0-0.764,0.106-1.445,0.32-2.044
		c0.213-0.599,0.51-1.103,0.892-1.512c0.382-0.408,0.828-0.719,1.339-0.932c0.51-0.213,1.067-0.32,1.671-0.32
		c0.595,0,1.15,0.106,1.665,0.32c0.515,0.213,0.963,0.524,1.345,0.932c0.381,0.409,0.679,0.913,0.892,1.512
		C95.751,188.526,95.858,189.208,95.858,189.971z M94.02,189.971c0-0.586-0.062-1.085-0.186-1.499
		c-0.125-0.413-0.295-0.748-0.513-1.005c-0.217-0.257-0.471-0.444-0.759-0.56c-0.289-0.115-0.598-0.173-0.926-0.173
		c-0.329,0-0.637,0.058-0.926,0.173c-0.289,0.116-0.54,0.302-0.752,0.56c-0.213,0.258-0.38,0.593-0.5,1.005
		c-0.12,0.413-0.18,0.913-0.18,1.499c0,0.577,0.06,1.065,0.18,1.465c0.12,0.399,0.286,0.726,0.5,0.979
		c0.213,0.253,0.464,0.435,0.752,0.546c0.289,0.111,0.597,0.167,0.926,0.167c0.328,0,0.637-0.055,0.926-0.167
		c0.288-0.111,0.542-0.293,0.759-0.546c0.218-0.253,0.389-0.58,0.513-0.979C93.958,191.037,94.02,190.548,94.02,189.971z"/>
</g>
<g>
	<path fill="#FFFFFF" d="M221.542,24.065h2.891v1.359c0,0.142-0.042,0.262-0.126,0.359c-0.085,0.098-0.216,0.146-0.393,0.146h-2.371
		v5.021h-2.091V25.93h-8.458c-0.178,0-0.331-0.051-0.459-0.153c-0.129-0.102-0.211-0.229-0.247-0.38l-0.24-1.212l9.283-12.32h2.211
		V24.065z M219.451,16.194c0-0.23,0.007-0.479,0.02-0.746c0.013-0.267,0.042-0.542,0.086-0.826l-6.939,9.443h6.833V16.194z"/>
	<path fill="#FFFFFF" d="M232.676,31.165c-0.95,0-1.82-0.126-2.611-0.379s-1.47-0.615-2.038-1.085
		c-0.568-0.471-1.008-1.041-1.319-1.711c-0.311-0.67-0.466-1.423-0.466-2.258c0-1.225,0.319-2.235,0.959-3.03
		c0.639-0.794,1.554-1.36,2.744-1.698c-1.003-0.373-1.761-0.93-2.271-1.672c-0.511-0.741-0.766-1.627-0.766-2.657
		c0-0.701,0.138-1.358,0.413-1.971s0.666-1.146,1.172-1.598c0.506-0.453,1.112-0.808,1.818-1.065s1.494-0.386,2.364-0.386
		c0.861,0,1.647,0.129,2.357,0.386c0.71,0.257,1.318,0.613,1.825,1.065c0.506,0.453,0.896,0.985,1.172,1.598s0.413,1.27,0.413,1.971
		c0,1.03-0.258,1.916-0.772,2.657c-0.515,0.742-1.27,1.299-2.265,1.672c1.19,0.337,2.104,0.903,2.744,1.698
		c0.639,0.795,0.959,1.805,0.959,3.03c0,0.835-0.158,1.587-0.473,2.258c-0.315,0.67-0.755,1.241-1.318,1.711
		c-0.564,0.471-1.241,0.833-2.031,1.085C234.496,31.038,233.626,31.165,232.676,31.165z M232.676,29.273
		c0.621,0,1.179-0.086,1.671-0.26s0.91-0.417,1.252-0.732c0.342-0.315,0.604-0.693,0.786-1.132s0.273-0.926,0.273-1.458
		c0-0.657-0.109-1.219-0.327-1.685c-0.218-0.466-0.511-0.846-0.879-1.139c-0.369-0.293-0.792-0.508-1.272-0.646
		s-0.981-0.207-1.505-0.207c-0.524,0-1.026,0.069-1.505,0.207s-0.903,0.353-1.272,0.646c-0.369,0.293-0.662,0.673-0.879,1.139
		c-0.218,0.466-0.326,1.028-0.326,1.685c0,0.533,0.091,1.019,0.273,1.458c0.182,0.439,0.444,0.817,0.786,1.132
		c0.342,0.315,0.759,0.559,1.252,0.732C231.498,29.187,232.055,29.273,232.676,29.273z M232.676,20.11
		c0.621,0,1.152-0.095,1.591-0.286s0.797-0.444,1.072-0.759c0.275-0.315,0.475-0.677,0.6-1.085c0.124-0.409,0.186-0.831,0.186-1.266
		c0-0.444-0.073-0.861-0.22-1.252c-0.146-0.391-0.364-0.732-0.652-1.025c-0.289-0.293-0.648-0.524-1.079-0.693
		c-0.431-0.168-0.93-0.253-1.498-0.253c-0.568,0-1.068,0.084-1.499,0.253c-0.431,0.169-0.791,0.4-1.079,0.693
		s-0.506,0.635-0.652,1.025c-0.146,0.391-0.22,0.808-0.22,1.252c0,0.435,0.062,0.857,0.187,1.266
		c0.124,0.408,0.324,0.77,0.599,1.085c0.275,0.315,0.633,0.568,1.072,0.759S232.055,20.11,232.676,20.11z"/>
	<path fill="#FFFFFF" d="M249.831,16.474c0,0.746-0.115,1.414-0.346,2.004c-0.231,0.591-0.54,1.088-0.926,1.492
		c-0.386,0.404-0.837,0.712-1.352,0.925c-0.515,0.213-1.052,0.32-1.611,0.32c-0.604,0-1.161-0.106-1.671-0.32
		c-0.511-0.213-0.957-0.521-1.339-0.925c-0.382-0.404-0.679-0.901-0.892-1.492c-0.213-0.59-0.32-1.258-0.32-2.004
		c0-0.764,0.106-1.443,0.32-2.038c0.213-0.595,0.51-1.097,0.892-1.505c0.382-0.408,0.828-0.719,1.339-0.932
		c0.51-0.213,1.067-0.32,1.671-0.32c0.595,0,1.152,0.106,1.671,0.32c0.52,0.213,0.968,0.524,1.345,0.932
		c0.377,0.409,0.675,0.911,0.893,1.505C249.722,15.031,249.831,15.71,249.831,16.474z M256.503,12.345
		c0.115-0.151,0.237-0.269,0.366-0.353c0.129-0.084,0.3-0.126,0.513-0.126h1.705l-13.945,18.7c-0.089,0.115-0.195,0.208-0.319,0.28
		c-0.125,0.071-0.271,0.106-0.439,0.106h-1.758L256.503,12.345z M247.979,16.474c0-0.586-0.062-1.083-0.187-1.492
		c-0.125-0.408-0.295-0.744-0.513-1.005c-0.217-0.262-0.471-0.451-0.759-0.566c-0.289-0.115-0.598-0.173-0.926-0.173
		c-0.329,0-0.637,0.058-0.926,0.173c-0.289,0.116-0.54,0.304-0.752,0.566c-0.213,0.262-0.379,0.597-0.5,1.005
		c-0.12,0.409-0.18,0.906-0.18,1.492c0,0.578,0.06,1.068,0.18,1.472c0.12,0.404,0.287,0.733,0.5,0.986s0.464,0.435,0.752,0.546
		c0.289,0.111,0.597,0.167,0.926,0.167c0.328,0,0.637-0.055,0.926-0.167c0.288-0.111,0.542-0.293,0.759-0.546
		c0.218-0.253,0.389-0.582,0.513-0.986C247.917,17.542,247.979,17.051,247.979,16.474z M260.379,26.45
		c0,0.746-0.116,1.412-0.346,1.998c-0.231,0.586-0.54,1.081-0.926,1.485c-0.386,0.404-0.835,0.713-1.345,0.926
		c-0.511,0.213-1.045,0.32-1.605,0.32c-0.604,0-1.161-0.107-1.671-0.32c-0.511-0.213-0.957-0.521-1.339-0.926
		c-0.382-0.404-0.679-0.899-0.892-1.485c-0.213-0.586-0.32-1.252-0.32-1.998c0-0.764,0.106-1.445,0.32-2.044
		c0.213-0.599,0.51-1.103,0.892-1.512c0.382-0.408,0.828-0.719,1.339-0.932c0.51-0.213,1.067-0.32,1.671-0.32
		c0.595,0,1.15,0.106,1.665,0.32c0.515,0.213,0.963,0.524,1.345,0.932c0.381,0.409,0.679,0.913,0.892,1.512
		C260.273,25.005,260.379,25.686,260.379,26.45z M258.541,26.45c0-0.586-0.062-1.085-0.186-1.499
		c-0.125-0.413-0.295-0.748-0.513-1.005c-0.217-0.257-0.471-0.444-0.759-0.56c-0.289-0.115-0.598-0.173-0.926-0.173
		c-0.329,0-0.637,0.058-0.926,0.173c-0.289,0.116-0.54,0.302-0.752,0.56c-0.213,0.258-0.38,0.593-0.5,1.005
		c-0.12,0.413-0.18,0.913-0.18,1.499c0,0.577,0.06,1.065,0.18,1.465c0.12,0.399,0.286,0.726,0.5,0.979
		c0.213,0.253,0.464,0.435,0.752,0.546c0.289,0.111,0.597,0.167,0.926,0.167c0.328,0,0.637-0.055,0.926-0.167
		c0.288-0.111,0.542-0.293,0.759-0.546c0.218-0.253,0.389-0.58,0.513-0.979C258.479,27.515,258.541,27.027,258.541,26.45z"/>
</g>
<g>
	<path fill="#FFFFFF" d="M388.72,234.083h4.102V221.07c0-0.391,0.013-0.786,0.04-1.186l-3.41,2.917
		c-0.089,0.071-0.178,0.122-0.267,0.153s-0.173,0.047-0.253,0.047c-0.133,0-0.253-0.029-0.359-0.087
		c-0.107-0.058-0.187-0.127-0.24-0.206l-0.746-1.026l5.674-4.914h1.931v17.314h3.756v1.812H388.72V234.083z"/>
	<path fill="#FFFFFF" d="M409.004,224.2c0.764,0,1.487,0.127,2.171,0.38c0.684,0.253,1.283,0.621,1.798,1.105
		c0.515,0.484,0.923,1.079,1.225,1.784c0.302,0.706,0.453,1.512,0.453,2.418c0,0.879-0.16,1.696-0.479,2.45
		c-0.32,0.755-0.766,1.412-1.338,1.972c-0.573,0.56-1.264,0.999-2.071,1.318c-0.808,0.32-1.696,0.479-2.664,0.479
		c-0.959,0-1.827-0.153-2.604-0.459c-0.777-0.307-1.441-0.741-1.991-1.306c-0.551-0.563-0.975-1.247-1.272-2.051
		c-0.298-0.804-0.446-1.703-0.446-2.697c0-0.835,0.187-1.723,0.56-2.664c0.373-0.941,0.963-1.953,1.771-3.037l4.835-6.513
		c0.125-0.16,0.297-0.295,0.52-0.406c0.222-0.111,0.475-0.166,0.759-0.166h2.104l-6.62,8.377c0.453-0.311,0.954-0.553,1.505-0.726
		C407.77,224.287,408.365,224.2,409.004,224.2z M404.077,230.008c0,0.612,0.088,1.172,0.266,1.678s0.438,0.941,0.779,1.306
		s0.759,0.646,1.252,0.846c0.493,0.199,1.054,0.3,1.685,0.3c0.639,0,1.216-0.103,1.731-0.307c0.515-0.204,0.957-0.488,1.325-0.853
		c0.368-0.364,0.652-0.795,0.853-1.292c0.2-0.497,0.299-1.039,0.299-1.625c0-0.621-0.098-1.183-0.293-1.685
		s-0.471-0.928-0.826-1.278c-0.355-0.352-0.781-0.62-1.279-0.807c-0.497-0.187-1.043-0.279-1.638-0.279
		c-0.639,0-1.216,0.108-1.731,0.326s-0.952,0.511-1.312,0.879c-0.359,0.369-0.635,0.795-0.826,1.279
		C404.172,228.979,404.077,229.483,404.077,230.008z"/>
	<path fill="#FFFFFF" d="M425.213,221.417c0,0.745-0.115,1.414-0.346,2.004c-0.231,0.591-0.54,1.088-0.926,1.492
		s-0.837,0.712-1.352,0.926c-0.515,0.213-1.052,0.319-1.611,0.319c-0.604,0-1.161-0.106-1.671-0.319
		c-0.511-0.214-0.957-0.521-1.339-0.926s-0.679-0.901-0.892-1.492c-0.213-0.59-0.32-1.259-0.32-2.004
		c0-0.764,0.106-1.443,0.32-2.038c0.213-0.595,0.51-1.097,0.892-1.505s0.828-0.72,1.339-0.933c0.51-0.213,1.067-0.319,1.671-0.319
		c0.595,0,1.152,0.106,1.671,0.319s0.968,0.524,1.345,0.933s0.675,0.91,0.893,1.505
		C425.104,219.974,425.213,220.653,425.213,221.417z M431.886,217.288c0.115-0.151,0.237-0.269,0.366-0.354
		c0.129-0.084,0.3-0.126,0.513-0.126h1.705l-13.945,18.699c-0.089,0.116-0.195,0.209-0.319,0.28
		c-0.125,0.071-0.271,0.106-0.439,0.106h-1.758L431.886,217.288z M423.362,221.417c0-0.587-0.062-1.084-0.187-1.492
		c-0.125-0.408-0.295-0.743-0.513-1.006c-0.217-0.262-0.471-0.45-0.759-0.565c-0.289-0.115-0.598-0.174-0.926-0.174
		c-0.329,0-0.637,0.059-0.926,0.174s-0.54,0.304-0.752,0.565c-0.213,0.263-0.379,0.598-0.5,1.006c-0.12,0.408-0.18,0.905-0.18,1.492
		c0,0.577,0.06,1.067,0.18,1.472c0.12,0.404,0.287,0.732,0.5,0.985s0.464,0.436,0.752,0.546c0.289,0.111,0.597,0.167,0.926,0.167
		c0.328,0,0.637-0.056,0.926-0.167c0.288-0.11,0.542-0.293,0.759-0.546c0.218-0.253,0.389-0.581,0.513-0.985
		C423.3,222.484,423.362,221.994,423.362,221.417z M435.762,231.393c0,0.746-0.116,1.412-0.346,1.998
		c-0.231,0.586-0.54,1.081-0.926,1.485c-0.386,0.403-0.835,0.712-1.345,0.926c-0.511,0.213-1.045,0.319-1.605,0.319
		c-0.604,0-1.161-0.106-1.671-0.319c-0.511-0.214-0.957-0.522-1.339-0.926c-0.382-0.404-0.679-0.899-0.892-1.485
		c-0.213-0.586-0.32-1.252-0.32-1.998c0-0.764,0.106-1.445,0.32-2.044c0.213-0.6,0.51-1.104,0.892-1.512
		c0.382-0.409,0.828-0.72,1.339-0.933c0.51-0.213,1.067-0.32,1.671-0.32c0.595,0,1.15,0.107,1.665,0.32
		c0.515,0.213,0.963,0.523,1.345,0.933c0.381,0.408,0.679,0.912,0.892,1.512C435.656,229.947,435.762,230.629,435.762,231.393z
		 M433.924,231.393c0-0.586-0.062-1.085-0.186-1.498c-0.125-0.413-0.295-0.748-0.513-1.006c-0.217-0.258-0.471-0.444-0.759-0.56
		c-0.289-0.115-0.598-0.173-0.926-0.173c-0.329,0-0.637,0.058-0.926,0.173s-0.54,0.302-0.752,0.56
		c-0.213,0.258-0.38,0.593-0.5,1.006s-0.18,0.912-0.18,1.498c0,0.577,0.06,1.065,0.18,1.465c0.12,0.4,0.286,0.727,0.5,0.979
		c0.213,0.253,0.464,0.435,0.752,0.546s0.597,0.166,0.926,0.166c0.328,0,0.637-0.055,0.926-0.166
		c0.288-0.111,0.542-0.293,0.759-0.546c0.218-0.253,0.389-0.579,0.513-0.979C433.862,232.458,433.924,231.97,433.924,231.393z"/>
</g>
<g>
	<path fill="#FFFFFF" d="M593.42,359.432c0.808,0,1.554,0.116,2.237,0.347c0.684,0.231,1.272,0.56,1.765,0.985
		c0.493,0.427,0.877,0.941,1.152,1.545c0.275,0.604,0.413,1.274,0.413,2.012c0,0.604-0.078,1.144-0.233,1.618
		s-0.377,0.893-0.666,1.252c-0.288,0.359-0.637,0.664-1.045,0.912c-0.409,0.249-0.866,0.448-1.372,0.6
		c1.243,0.328,2.178,0.879,2.804,1.651s0.938,1.74,0.938,2.903c0,0.88-0.166,1.67-0.499,2.371c-0.333,0.702-0.788,1.299-1.365,1.792
		c-0.577,0.492-1.25,0.87-2.018,1.132c-0.769,0.262-1.592,0.393-2.471,0.393c-1.013,0-1.878-0.126-2.598-0.379
		c-0.719-0.254-1.327-0.602-1.824-1.046c-0.498-0.444-0.906-0.97-1.226-1.578s-0.591-1.268-0.812-1.979l1.013-0.426
		c0.186-0.08,0.372-0.12,0.559-0.12c0.178,0,0.335,0.038,0.474,0.113c0.137,0.075,0.241,0.193,0.312,0.353
		c0.018,0.036,0.035,0.073,0.054,0.113c0.018,0.04,0.035,0.083,0.053,0.127c0.124,0.258,0.275,0.549,0.453,0.872
		c0.178,0.324,0.417,0.629,0.719,0.913s0.678,0.523,1.126,0.719s1.006,0.293,1.671,0.293c0.666,0,1.25-0.108,1.752-0.326
		s0.919-0.499,1.252-0.846s0.584-0.732,0.753-1.159c0.168-0.426,0.253-0.848,0.253-1.265c0-0.516-0.069-0.986-0.207-1.412
		c-0.138-0.427-0.386-0.795-0.745-1.105c-0.36-0.311-0.857-0.555-1.492-0.732s-1.449-0.267-2.444-0.267v-1.731
		c0.809,0,1.499-0.084,2.071-0.253c0.573-0.169,1.041-0.399,1.405-0.692s0.628-0.645,0.793-1.053
		c0.164-0.408,0.246-0.861,0.246-1.358c0-0.551-0.087-1.03-0.26-1.438s-0.411-0.746-0.713-1.013
		c-0.302-0.266-0.659-0.466-1.072-0.599c-0.413-0.134-0.858-0.2-1.338-0.2s-0.924,0.071-1.332,0.213
		c-0.409,0.142-0.771,0.34-1.086,0.592c-0.315,0.253-0.579,0.555-0.792,0.905c-0.214,0.351-0.373,0.729-0.479,1.138
		c-0.071,0.257-0.178,0.443-0.32,0.559c-0.142,0.115-0.324,0.173-0.546,0.173c-0.044,0-0.091-0.002-0.14-0.007
		c-0.049-0.004-0.104-0.011-0.167-0.02l-1.238-0.21c0.124-0.87,0.364-1.64,0.72-2.311c0.354-0.67,0.806-1.231,1.352-1.685
		s1.172-0.797,1.878-1.032S592.603,359.432,593.42,359.432z"/>
	<path fill="#FFFFFF" d="M610.028,364.254c0,0.745-0.116,1.414-0.347,2.004c-0.231,0.591-0.539,1.088-0.926,1.492
		c-0.386,0.404-0.837,0.712-1.352,0.926c-0.516,0.213-1.053,0.319-1.612,0.319c-0.604,0-1.16-0.106-1.671-0.319
		c-0.511-0.214-0.957-0.521-1.339-0.926s-0.679-0.901-0.893-1.492c-0.213-0.59-0.319-1.259-0.319-2.004
		c0-0.764,0.106-1.443,0.319-2.038c0.214-0.595,0.511-1.097,0.893-1.505s0.828-0.72,1.339-0.933s1.067-0.319,1.671-0.319
		c0.596,0,1.152,0.106,1.672,0.319s0.968,0.524,1.346,0.933c0.377,0.408,0.674,0.91,0.892,1.505S610.028,363.49,610.028,364.254z
		 M616.701,360.125c0.115-0.151,0.237-0.269,0.366-0.354c0.128-0.084,0.299-0.126,0.513-0.126h1.704l-13.944,18.699
		c-0.089,0.116-0.195,0.209-0.32,0.28c-0.124,0.071-0.271,0.106-0.439,0.106h-1.758L616.701,360.125z M608.177,364.254
		c0-0.587-0.062-1.084-0.187-1.492c-0.125-0.408-0.296-0.743-0.513-1.006c-0.218-0.262-0.471-0.45-0.76-0.565
		c-0.288-0.115-0.597-0.174-0.926-0.174c-0.328,0-0.637,0.059-0.925,0.174c-0.289,0.115-0.54,0.304-0.753,0.565
		c-0.213,0.263-0.38,0.598-0.499,1.006c-0.12,0.408-0.181,0.905-0.181,1.492c0,0.577,0.061,1.067,0.181,1.472
		c0.119,0.404,0.286,0.732,0.499,0.985s0.464,0.436,0.753,0.546c0.288,0.111,0.597,0.167,0.925,0.167
		c0.329,0,0.638-0.056,0.926-0.167c0.289-0.11,0.542-0.293,0.76-0.546c0.217-0.253,0.388-0.581,0.513-0.985
		C608.114,365.321,608.177,364.831,608.177,364.254z M620.576,374.229c0,0.746-0.115,1.412-0.346,1.998
		c-0.231,0.586-0.54,1.081-0.926,1.485c-0.387,0.403-0.835,0.712-1.346,0.926c-0.511,0.213-1.045,0.319-1.604,0.319
		c-0.604,0-1.161-0.106-1.672-0.319c-0.511-0.214-0.957-0.522-1.338-0.926c-0.382-0.404-0.68-0.899-0.893-1.485
		s-0.32-1.252-0.32-1.998c0-0.764,0.107-1.445,0.32-2.044c0.213-0.6,0.511-1.104,0.893-1.512c0.381-0.409,0.827-0.72,1.338-0.933
		s1.067-0.32,1.672-0.32c0.595,0,1.149,0.107,1.665,0.32c0.515,0.213,0.963,0.523,1.345,0.933c0.382,0.408,0.68,0.912,0.893,1.512
		C620.47,372.784,620.576,373.466,620.576,374.229z M618.738,374.229c0-0.586-0.062-1.085-0.187-1.498
		c-0.124-0.413-0.295-0.748-0.513-1.006s-0.471-0.444-0.759-0.56c-0.289-0.115-0.598-0.173-0.926-0.173
		c-0.329,0-0.638,0.058-0.926,0.173c-0.289,0.115-0.539,0.302-0.753,0.56c-0.213,0.258-0.379,0.593-0.499,1.006
		s-0.18,0.912-0.18,1.498c0,0.577,0.06,1.065,0.18,1.465c0.12,0.4,0.286,0.727,0.499,0.979c0.214,0.253,0.464,0.435,0.753,0.546
		c0.288,0.111,0.597,0.166,0.926,0.166c0.328,0,0.637-0.055,0.926-0.166c0.288-0.111,0.541-0.293,0.759-0.546
		s0.389-0.579,0.513-0.979C618.677,375.295,618.738,374.807,618.738,374.229z"/>
</g>
<g>
	<path fill="#FFFFFF" d="M752.185,249.593h4.103V236.58c0-0.391,0.014-0.786,0.04-1.186l-3.41,2.917
		c-0.089,0.071-0.178,0.122-0.266,0.153c-0.089,0.031-0.174,0.047-0.253,0.047c-0.134,0-0.254-0.029-0.36-0.087
		s-0.187-0.127-0.239-0.206l-0.746-1.026l5.674-4.914h1.932v17.314h3.756v1.812h-10.229V249.593z"/>
	<path fill="#FFFFFF" d="M776.839,233.356c0,0.338-0.106,0.615-0.32,0.833c-0.213,0.218-0.572,0.326-1.078,0.326h-5.994
		l-0.879,5.008c0.994-0.213,1.913-0.319,2.757-0.319c0.994,0,1.871,0.146,2.631,0.439c0.759,0.293,1.396,0.697,1.911,1.212
		s0.903,1.123,1.165,1.825c0.262,0.701,0.394,1.465,0.394,2.29c0,1.013-0.178,1.928-0.533,2.744
		c-0.355,0.817-0.841,1.517-1.458,2.098c-0.617,0.582-1.344,1.028-2.178,1.339c-0.835,0.311-1.736,0.466-2.704,0.466
		c-0.56,0-1.097-0.056-1.611-0.166c-0.516-0.111-0.995-0.26-1.438-0.446c-0.444-0.187-0.857-0.399-1.238-0.64
		c-0.383-0.239-0.72-0.492-1.013-0.759l0.719-1.013c0.16-0.23,0.373-0.346,0.64-0.346c0.169,0,0.366,0.068,0.593,0.206
		s0.499,0.291,0.819,0.46c0.319,0.168,0.694,0.321,1.125,0.459s0.943,0.206,1.539,0.206c0.665,0,1.265-0.106,1.798-0.319
		c0.532-0.213,0.987-0.517,1.365-0.912c0.377-0.396,0.668-0.868,0.872-1.419c0.204-0.55,0.307-1.167,0.307-1.851
		c0-0.595-0.087-1.133-0.26-1.612s-0.436-0.888-0.786-1.226c-0.351-0.337-0.788-0.599-1.312-0.785
		c-0.524-0.187-1.137-0.28-1.838-0.28c-0.479,0-0.978,0.04-1.492,0.12s-1.048,0.209-1.599,0.387l-1.491-0.439l1.545-8.924h9.044
		V233.356z"/>
	<path fill="#FFFFFF" d="M788.679,236.927c0,0.745-0.116,1.414-0.347,2.004c-0.231,0.591-0.539,1.088-0.926,1.492
		c-0.386,0.404-0.837,0.712-1.352,0.926c-0.516,0.213-1.053,0.319-1.612,0.319c-0.604,0-1.16-0.106-1.671-0.319
		c-0.511-0.214-0.957-0.521-1.339-0.926s-0.679-0.901-0.893-1.492c-0.213-0.59-0.319-1.259-0.319-2.004
		c0-0.764,0.106-1.443,0.319-2.038c0.214-0.595,0.511-1.097,0.893-1.505s0.828-0.72,1.339-0.933s1.067-0.319,1.671-0.319
		c0.596,0,1.152,0.106,1.672,0.319s0.968,0.524,1.346,0.933c0.377,0.408,0.674,0.91,0.892,1.505S788.679,236.163,788.679,236.927z
		 M795.352,232.798c0.115-0.151,0.237-0.269,0.366-0.354c0.128-0.084,0.299-0.126,0.513-0.126h1.704l-13.944,18.699
		c-0.089,0.116-0.195,0.209-0.32,0.28c-0.124,0.071-0.271,0.106-0.439,0.106h-1.758L795.352,232.798z M786.827,236.927
		c0-0.587-0.062-1.084-0.187-1.492c-0.125-0.408-0.296-0.743-0.513-1.006c-0.218-0.262-0.471-0.45-0.76-0.565
		c-0.288-0.115-0.597-0.174-0.926-0.174c-0.328,0-0.637,0.059-0.925,0.174c-0.289,0.115-0.54,0.304-0.753,0.565
		c-0.213,0.263-0.38,0.598-0.499,1.006c-0.12,0.408-0.181,0.905-0.181,1.492c0,0.577,0.061,1.067,0.181,1.472
		c0.119,0.404,0.286,0.732,0.499,0.985s0.464,0.436,0.753,0.546c0.288,0.111,0.597,0.167,0.925,0.167
		c0.329,0,0.638-0.056,0.926-0.167c0.289-0.11,0.542-0.293,0.76-0.546c0.217-0.253,0.388-0.581,0.513-0.985
		C786.765,237.994,786.827,237.504,786.827,236.927z M799.227,246.902c0,0.746-0.115,1.412-0.346,1.998
		c-0.231,0.586-0.54,1.081-0.926,1.485c-0.387,0.403-0.835,0.712-1.346,0.926c-0.511,0.213-1.045,0.319-1.604,0.319
		c-0.604,0-1.161-0.106-1.672-0.319c-0.511-0.214-0.957-0.522-1.338-0.926c-0.382-0.404-0.68-0.899-0.893-1.485
		s-0.32-1.252-0.32-1.998c0-0.764,0.107-1.445,0.32-2.044c0.213-0.6,0.511-1.104,0.893-1.512c0.381-0.409,0.827-0.72,1.338-0.933
		s1.067-0.32,1.672-0.32c0.595,0,1.149,0.107,1.665,0.32c0.515,0.213,0.963,0.523,1.345,0.933c0.382,0.408,0.68,0.912,0.893,1.512
		C799.12,245.457,799.227,246.139,799.227,246.902z M797.389,246.902c0-0.586-0.062-1.085-0.187-1.498
		c-0.124-0.413-0.295-0.748-0.513-1.006s-0.471-0.444-0.759-0.56c-0.289-0.115-0.598-0.173-0.926-0.173
		c-0.329,0-0.638,0.058-0.926,0.173c-0.289,0.115-0.539,0.302-0.753,0.56c-0.213,0.258-0.379,0.593-0.499,1.006
		s-0.18,0.912-0.18,1.498c0,0.577,0.06,1.065,0.18,1.465c0.12,0.4,0.286,0.727,0.499,0.979c0.214,0.253,0.464,0.435,0.753,0.546
		c0.288,0.111,0.597,0.166,0.926,0.166c0.328,0,0.637-0.055,0.926-0.166c0.288-0.111,0.541-0.293,0.759-0.546
		s0.389-0.579,0.513-0.979C797.327,247.968,797.389,247.479,797.389,246.902z"/>
</g>
</svg>
