<?xml version="1.0" encoding="utf-8"?>
<!-- Generator: Adobe Illustrator 16.0.0, SVG Export Plug-In . SVG Version: 6.00 Build 0)  -->
<!DOCTYPE svg PUBLIC "-//W3C//DTD SVG 1.1//EN" "http://www.w3.org/Graphics/SVG/1.1/DTD/svg11.dtd">
<svg version="1.1" id="Layer_1" xmlns="http://www.w3.org/2000/svg" xmlns:xlink="http://www.w3.org/1999/xlink" x="0px" y="0px"
	 width="141.732px" height="76.536px" viewBox="0 0 141.732 76.536" enable-background="new 0 0 141.732 76.536"
	 xml:space="preserve">
<g>
	<path fill="#FFFFFF" d="M94.896,3.956c-16.943,3.99-30.854,22.577-25.135,43.689c5.354,19.759,25.289,29.983,43.604,25.12
		c17.96-4.771,30.657-23.548,25.241-43.718C132.986,8.111,111.682-1.174,94.896,3.956z"/>
	<path fill="#FFFFFF" d="M53.033,40.918c-5.916,1.189-9.267,7.648-7.85,12.948c1.577,5.89,7.393,9.409,13.159,7.896
		c5.743-1.507,9.297-7.606,7.707-13.312C64.257,42.024,57.311,39.385,53.033,40.918z"/>
	<path fill="#FFFFFF" d="M38.076,56.092c-1.036-3.959-5.034-6.372-8.93-5.388c-4.077,1.029-6.559,5.042-5.577,9.022
		c0.982,3.983,5.129,6.485,9.09,5.486C36.672,64.201,39.119,60.081,38.076,56.092z"/>
	<path fill="#FFFFFF" d="M10.075,63.621c-0.577-2.288-2.713-3.623-4.934-3.085c-2.166,0.527-3.653,2.846-3.192,4.98
		c0.466,2.157,3.046,3.733,5.17,3.159C9.289,68.088,10.625,65.802,10.075,63.621z"/>
	<path fill-rule="evenodd" clip-rule="evenodd" fill="#ED1C24" d="M94.896,3.956c16.786-5.13,38.09,4.156,43.71,25.091
		c5.416,20.17-7.281,38.947-25.241,43.718c-18.314,4.863-38.25-5.361-43.604-25.12C64.042,26.532,77.953,7.945,94.896,3.956z"/>
	<path fill-rule="evenodd" clip-rule="evenodd" fill="#ED1C24" d="M53.033,40.918c4.278-1.533,11.225,1.105,13.017,7.533
		c1.59,5.706-1.964,11.805-7.707,13.312c-5.767,1.513-11.582-2.007-13.159-7.896C43.766,48.566,47.117,42.107,53.033,40.918z"/>
	<path fill-rule="evenodd" clip-rule="evenodd" fill="#ED1C24" d="M38.076,56.092c1.043,3.988-1.403,8.108-5.417,9.12
		c-3.961,0.999-8.107-1.503-9.09-5.486c-0.981-3.979,1.5-7.993,5.577-9.022C33.042,49.721,37.04,52.133,38.076,56.092z"/>
	<path fill-rule="evenodd" clip-rule="evenodd" fill="#ED1C24" d="M10.075,63.621c0.55,2.182-0.786,4.468-2.956,5.055
		c-2.124,0.574-4.704-1.002-5.17-3.159c-0.461-2.135,1.026-4.453,3.192-4.98C7.362,59.998,9.498,61.333,10.075,63.621z"/>
</g>
<g>
	<path fill="#FFFFFF" d="M101.306,38.305c-0.712,1.176-1.042,2.506-2.998,2.578c-1.013,0.029-2.314,1.039-2.918,1.973
		c-2.964,4.561-5.747,9.226-8.565,13.883c-1.288,2.145-0.663,4.707,1.366,5.963c2.021,1.247,4.625,0.67,5.951-1.452
		c2.896-4.647,5.73-9.334,8.578-14.016c0.768-1.259,0.921-2.641,0.242-3.93c-0.47-0.869-0.35-1.489,0.188-2.189
		c0.304-0.397,0.545-0.843,0.813-1.257c9.542,3.893,17.943-1.248,20.855-7.849c3.205-7.252,0.543-15.739-6.265-19.823
		c-6.684-4.002-15.364-2.348-20.246,3.747C93.9,21.437,92.942,31.451,101.306,38.305z"/>
	<path fill-rule="evenodd" clip-rule="evenodd" fill="none" stroke="#FFFFFF" stroke-width="2.7392" stroke-miterlimit="10" d="
		M101.306,38.305c-8.364-6.854-7.406-16.868-2.998-22.372c4.882-6.095,13.562-7.749,20.246-3.747
		c6.808,4.084,9.47,12.571,6.265,19.823c-2.912,6.601-11.313,11.741-20.855,7.849c-0.269,0.414-0.51,0.859-0.813,1.257
		c-0.537,0.7-0.657,1.32-0.188,2.189c0.679,1.289,0.525,2.671-0.242,3.93c-2.848,4.682-5.682,9.368-8.578,14.016
		c-1.326,2.122-3.93,2.699-5.951,1.452c-2.029-1.256-2.654-3.818-1.366-5.963c2.818-4.657,5.602-9.322,8.565-13.883
		c0.604-0.934,1.905-1.943,2.918-1.973C100.264,40.811,100.594,39.48,101.306,38.305z M116.893,37.276
		c6.479-3.519,8.854-11.568,5.312-18.046c-3.489-6.404-11.536-8.783-17.96-5.307c-6.458,3.497-8.841,11.608-5.316,18.065
		C102.419,38.386,110.48,40.758,116.893,37.276z"/>
	<path fill-rule="evenodd" clip-rule="evenodd" fill="#ED1C24" d="M116.893,37.276c-6.413,3.481-14.474,1.109-17.965-5.287
		c-3.524-6.457-1.142-14.568,5.316-18.065c6.424-3.477,14.471-1.098,17.96,5.307C125.748,25.708,123.373,33.758,116.893,37.276z
		 M121.515,23.914c-0.824-4.303-3.068-7.429-7.204-8.873c-3.842-1.343-7.336-0.52-10.429,2.254
		C111.622,14.572,117.088,17.808,121.515,23.914z"/>
	<path fill-rule="evenodd" clip-rule="evenodd" fill="#F9F7F7" d="M121.515,23.914c-4.427-6.106-9.894-9.342-17.633-6.619
		c3.093-2.773,6.587-3.597,10.429-2.254C118.447,16.485,120.691,19.611,121.515,23.914z"/>
	<g>
		<path fill-rule="evenodd" clip-rule="evenodd" fill="#F9F9F9" d="M113.082,26.222c-1.022,0.502-2.153,0.522-3.296,0.26
			c-1.05-0.244-2.094-0.493-3.182-0.226c-0.395,0.098-0.619-0.047-0.596-0.487c0.006-0.036,0.006-0.07-0.005-0.106
			c-0.454-2.681-0.459-2.693,2.066-3.593c1.481-0.521,2.987-0.796,4.504-0.103c1.05,0.489,1.549,1.357,1.616,2.475
			C114.238,25.235,113.817,25.799,113.082,26.222z"/>
		<path fill-rule="evenodd" clip-rule="evenodd" fill="#F9F9F9" d="M117.73,32.224c-1.495,0.682-2.949,0.676-4.423,0.465
			c-1.941-0.281-1.879-0.285-2.177-2.197c-0.159-1.028-0.057-1.6,1.156-1.555c0.658,0.022,1.24-0.314,1.81-0.625
			c0.858-0.473,1.747-0.85,2.743-0.86c1.009-0.007,1.951,0.17,2.402,1.25c0.397,0.953,0.08,2.199-0.744,2.935
			C118.232,31.872,117.929,32.073,117.73,32.224z"/>
		<path fill-rule="evenodd" clip-rule="evenodd" fill="#F9F9F9" d="M107.16,31.7c-0.238-0.64-0.375-1.368,0.181-2.031
			c0.402-0.477,2.281-1.008,2.59-0.622c0.688,0.865,0.365,2.026,0.588,3.039c0.046,0.205,0.177,0.468-0.14,0.642
			C109.543,33.182,107.649,32.636,107.16,31.7z"/>
		<path fill-rule="evenodd" clip-rule="evenodd" fill="#F9F9F9" d="M102.823,23.393c0.097-0.036,0.255-0.111,0.421-0.17
			c1.415-0.518,1.576-0.427,1.764,1.058c0.038,0.248,0.126,0.511,0.072,0.742c-0.147,0.599,0.846,1.504-0.504,1.787
			c-1.388,0.29-2.373,0.025-2.733-0.814C101.426,25.01,101.8,23.948,102.823,23.393z"/>
	</g>
</g>
</svg>
