<?xml version="1.0" encoding="utf-8"?>
<!-- Generator: Adobe Illustrator 16.0.0, SVG Export Plug-In . SVG Version: 6.00 Build 0)  -->
<!DOCTYPE svg PUBLIC "-//W3C//DTD SVG 1.1//EN" "http://www.w3.org/Graphics/SVG/1.1/DTD/svg11.dtd">
<svg version="1.1" id="Layer_1" xmlns="http://www.w3.org/2000/svg" xmlns:xlink="http://www.w3.org/1999/xlink" x="0px" y="0px"
	 width="109.966px" height="185.388px" viewBox="0 0 109.966 185.388" enable-background="new 0 0 109.966 185.388"
	 xml:space="preserve">
<g>
	<path fill="#FFFFFF" d="M51.433,100.874c0.065,3.992,1.313,7.775-3.393,10.98c-2.441,1.635-4.084,6.132-4.127,9.366
		c-0.246,15.806,0.121,31.587,0.385,47.405c0.146,7.271,5.643,12.609,12.579,12.565c6.901-0.057,12.42-5.505,12.402-12.775
		c-0.06-15.914-0.332-31.832-0.556-47.757c-0.058-4.285-1.822-7.922-5.485-10.041c-2.497-1.416-3.159-3.131-2.921-5.684
		c0.133-1.445,0.035-2.915,0.061-4.348c29.495-5.174,42.229-30.815,39.19-51.561C96.237,26.222,76.563,9.452,53.5,9.926
		C30.862,10.41,12.055,27.903,9.464,50.451C7.126,70.811,20.252,96.938,51.433,100.874z"/>
	<path fill-rule="evenodd" clip-rule="evenodd" fill="none" stroke="#FFFFFF" stroke-width="7.9611" stroke-miterlimit="10" d="
		M51.433,100.874C20.252,96.938,7.126,70.811,9.464,50.451C12.055,27.903,30.862,10.41,53.5,9.926
		c23.062-0.475,42.737,16.295,46.067,39.098c3.039,20.746-9.695,46.387-39.19,51.561c-0.025,1.433,0.072,2.902-0.061,4.348
		c-0.238,2.553,0.424,4.268,2.921,5.684c3.663,2.119,5.427,5.756,5.485,10.041c0.224,15.925,0.497,31.843,0.556,47.757
		c0.018,7.271-5.501,12.719-12.402,12.775c-6.936,0.044-12.433-5.293-12.579-12.565c-0.264-15.818-0.63-31.599-0.385-47.405
		c0.043-3.234,1.686-7.731,4.127-9.366C52.746,108.648,51.498,104.865,51.433,100.874z M88.203,74.239
		c10.508-18.675,3.903-42.156-14.826-52.621c-18.493-10.365-41.975-3.776-52.404,14.708c-10.491,18.593-3.815,42.241,14.841,52.682
		C54.3,99.348,77.804,92.727,88.203,74.239z"/>
	<path fill-rule="evenodd" clip-rule="evenodd" fill="#ED1C24" d="M88.203,74.239C77.804,92.727,54.3,99.348,35.814,89.008
		C17.158,78.566,10.482,54.919,20.973,36.326c10.429-18.484,33.911-25.073,52.404-14.708C92.106,32.083,98.71,55.563,88.203,74.239z
		 M78.917,34.213c-8.678-9.317-19.034-13.541-31.445-10.7c-11.533,2.637-18.86,10.064-22.183,21.672
		C40.128,26.517,58.585,26.024,78.917,34.213z"/>
	<path fill-rule="evenodd" clip-rule="evenodd" fill="#F9F7F7" d="M78.917,34.213c-20.332-8.188-38.789-7.696-53.627,10.972
		c3.322-11.607,10.649-19.035,22.183-21.672C59.883,20.672,70.239,24.896,78.917,34.213z"/>
	<g>
		<path fill-rule="evenodd" clip-rule="evenodd" fill="#F9F9F9" d="M61.733,52.93c-1.741,2.813-4.494,4.615-7.712,5.736
			c-2.96,1.022-5.917,2.021-8.174,4.362c-0.82,0.85-1.599,0.842-2.221-0.279c-0.044-0.095-0.098-0.178-0.179-0.25
			c-5.263-5.899-5.295-5.921-0.466-12.04c2.836-3.573,6.121-6.578,10.925-7.216c3.333-0.419,5.906,0.945,7.799,3.594
			C63.052,48.714,62.888,50.75,61.733,52.93z"/>
		<path fill-rule="evenodd" clip-rule="evenodd" fill="#F9F9F9" d="M82.451,60.515c-2.624,3.985-6.211,6.222-10.165,7.979
			c-5.215,2.311-5.068,2.208-8.754-2.041c-1.984-2.285-2.616-3.847,0.439-5.612c1.655-0.96,2.569-2.695,3.489-4.34
			c1.38-2.487,2.986-4.791,5.418-6.353c2.471-1.58,5.068-2.603,7.846-0.639c2.45,1.732,3.597,5.284,2.705,8.37
			C83.141,58.873,82.708,59.834,82.451,60.515z"/>
		<path fill-rule="evenodd" clip-rule="evenodd" fill="#F9F9F9" d="M55.63,75.567c-1.58-1.204-3.043-2.785-2.697-5.278
			c0.253-1.794,4.052-6.006,5.412-5.538c3.027,1.071,4.031,4.424,6.142,6.576c0.431,0.433,1.163,0.874,0.653,1.792
			C63.783,75.529,58.277,77.116,55.63,75.567z"/>
		<path fill-rule="evenodd" clip-rule="evenodd" fill="#F9F9F9" d="M32.109,61.832c0.18-0.24,0.458-0.672,0.772-1.073
			c2.682-3.459,3.22-3.486,5.977-0.122c0.476,0.552,1.103,1.06,1.328,1.711c0.56,1.704,4.408,2.394,1.523,5.178
			c-2.971,2.861-5.8,3.731-7.987,2.222C31.174,67.968,30.454,64.778,32.109,61.832z"/>
	</g>
</g>
</svg>
