<?xml version="1.0" encoding="utf-8"?>
<!-- Generator: Adobe Illustrator 16.0.0, SVG Export Plug-In . SVG Version: 6.00 Build 0)  -->
<!DOCTYPE svg PUBLIC "-//W3C//DTD SVG 1.1//EN" "http://www.w3.org/Graphics/SVG/1.1/DTD/svg11.dtd">
<svg version="1.1" id="Layer_1" xmlns="http://www.w3.org/2000/svg" xmlns:xlink="http://www.w3.org/1999/xlink" x="0px" y="0px"
	 width="720px" height="458.984px" viewBox="0 0 720 458.984" enable-background="new 0 0 720 458.984" xml:space="preserve">
<g>
	<g>
		<g>
			<path fill-rule="evenodd" clip-rule="evenodd" fill="#ED1C24" d="M3,249.855c7.582-3.456,11.468-10.115,14.871-17.183
				c0.521-1.073,0.231-2.926,2.033-2.699c1.514,0.192,1.772,1.639,1.635,3.021c-0.128,1.368,0.093,3.023,1.454,3.182
				c5.669,0.664,4.979,5.403,4.942,8.656c-0.053,5.219,3.58,6.58,6.832,8.739c1.414,0.931,2.672,0.645,3.247-0.604
				c1.949-4.289,4.88-2.592,7.724-1.466c3.502,1.379,6.408,4.105,10.536,4.1c3.852,0,7.685,1.318,10.884-2.537
				c1.721-2.063,4.51-2.516,6.282,0.757c0.919,1.71,2.768,2.314,4.331,3.221c1.677,0.962,2.784-0.149,3.697-1.331
				c0.917-1.182,0.844-2.387-0.487-3.297c-1.365-0.943-3.037-1.777-1.91-3.853c1.345-2.463,3.548-1.035,5.42-1.018
				c1.691,0.021,5.056,2.555,4.74-0.104c-0.753-6.341,4.742-5.168,7.099-7.628c2.369-2.478,4.197-4.367,8.597-0.509
				c-5.979-27.892-3.619-54.721-5.883-81.304c1.812-0.063,2.029,1.428,2.778,2.368c1.241,1.562,2.304,3.989,3.89,4.426
				c10.271,2.808,11.598,12.57,15.86,19.957c1.212,2.1,2.634,3.087,4.141,1.745c4.209-3.75,8.954-2.223,13.552-1.954
				c3.643,0.209,7.365,1.719,9.868-2.688c0.562-0.996,2.562-1.236,3.94-1.701c10.774-3.63,16.302-13.198,23.515-20.905
				c1.781,1.341,0.893,3.108,0.972,4.614c0.248,4.218,2.476,8.621,5.761,9.222c5.815,1.077,3.97,3.901,3.243,7.081
				c-1.869,8.183,0.438,12.719,8.512,14.421c4.693,0.986,6.283,6.591,11.473,6.435c1.524-0.044,3.067,1.434,3.49-1.32
				c0.127-0.79,1.093-1.219,1.73-0.73c4.511,3.444,4.938-0.899,6.305-3.3c0.404-0.716,0.146-2.048,1.442-1.825
				c1.26,0.207,1.672,1.338,1.556,2.511c-0.109,1.078-0.565,2.137-0.602,3.208c-0.128,3.272,0.602,5.776,4.771,5.596
				c3.572-0.156,5.811,0.726,3.671,5.153c-1.831,3.804,2.658,3.82,4.324,6.209c-1.155-4.355-0.679-6.954,4.333-6.052
				c1.422,0.255,1.781-0.868,1.343-2.173c-0.871-2.589,1.156-3.521,2.729-4.707c0.215,0.156,0.422,0.312,0.617,0.48
				c4.507,1.786,9.594,3.398,2.095,8.293c-0.378,0.251-0.989,2.019,0.154,2.312c4.645,1.186,3.352,4.445,2.776,7.432
				c-0.919,4.739,0.466,9.389,0.444,14.109c-0.038,8.311-5.062,14.295-8.982,20.807c-1.202,1.99-3.033,3.6-4.271,5.571
				c-1.573,2.512-4.148,5.446,1.645,6.325c1.986,0.303,2.546,2.818,3.051,4.226c1.507,4.227,4.561,5.188,8.393,5.33
				c0.293,0.303,0.59,0.597,0.879,0.892c0.905,8.206,5.511,13.834,12.696,17.296c3.438,1.658,4.844,3.373,3.067,7.154
				c-0.906,1.917-0.999,4.215-1.487,6.328c-0.949,4.088-3.192,6.821-7.575,7.542c-7.646,1.256-13.761,4.605-18.088,11.516
				c-2.838,4.527-6.619,9.055-13.303,5.817c-1.084-0.53-1.598,0.445-2.246,1.016c-2.626,2.312-5.018,1.868-7.895,0.051
				c-5.232-3.294-13.171-1.457-16.936,3.539c-0.529,0.703-1.108,2.212-1.767,1.745c-4.06-2.841-9.394-0.056-13.378-3.429
				c-5.168-4.368-7.863-3.583-10.536,2.493c-0.507,1.157-1.107,2.292-1.766,3.384c-2.106,3.518-1.186,5.047,2.946,4.703
				c1.063-0.089,2.674-0.213,3.161,0.388c3.355,4.117,8.255,3.045,12.454,4.361c3.639,1.133,5.65-0.419,7.562-2.156
				c3.697-3.364,10.454-4.562,14.804-2.271c2.649,1.408,5.519,5.279,8.039-0.66c0.833-1.974,2.208,0.694,3.222,1.323
				c2.049,1.271,4.665,3.267,2.511,5.538c-2.343,2.476-3.659,5.959-6.949,7.52l-0.333,0.396c-4.184,2.034-7.962,4.675-12.783,5.592
				c-4.565,0.863-5.414,3.853-2.514,7.613c2.96,3.834,2.116,5.865-2.34,6.643c-4.479,0.779-7.151,3.005-7.673,7.688
				c-0.276,2.461-1.437,4.419-3.87,5.57c-1.477,0.692-2.887,1.75-2.131,3.841c0.758,2.107,2.097,3.417,4.499,3.166
				c1.088-0.111,2.388,0.027,3.202-0.521c5.677-3.841,10.97-1.379,16.345,0.745c1.652,0.657,2.972,1.59,2.927,3.498
				c-0.044,2.289-1.775,2.398-3.518,2.398c-1.351,0-2.719,0.383-3.201,1.693c-0.68,1.801,1.071,1.875,2.105,2.493
				c2.289,1.369,3.241,3.853,2.844,6.086c-0.476,2.653-3.33,3.336-5.671,3.415c-9.449,0.318-18.893,0.397-28.203,2.557
				c-2.603,0.598-5.104,0.822-6.221,3.602c-2.147,5.343-6.114,7.812-11.793,8.15c-3.441,0.201-6.863,1.456-10.266,1.361
				c-10.832-0.313-19.676,3.996-27.601,10.887c-6.626,5.769-12.87,5.877-19.762,0.56c-1.275-0.984-2.846-1.623-4.347-2.242
				c-5.441-2.257-8.851-8.664-15.988-7.715c-0.707,0.095-1.794-2.509-2.653-3.894c-0.74-1.183-0.993-3.099-2.991-2.496
				c-1.757,0.542-3.417,1.476-3.372,3.758c0.023,0.722,0.339,1.507,0.148,2.158c-0.477,1.659-1.566,3.146-3.342,3.16
				c-1.921,0.014-1.943-1.837-2.075-3.284c-0.147-1.631-0.406-3.279-0.316-4.907c0.701-11.979-5.624-20.607-13.528-28.449
				c-2.001-1.991-0.963-4.714-2.392-7.03c-2.489-4.047,2.475-3.382,4.075-4.565c3.335-2.456,5.882-4.865,4.687-9.482
				c-1.345-5.209-0.432-10.443,0.148-15.669c1.069-9.508-5.554-15.227-11.263-20.843c-8.109-7.953-7.308-13.006,2.84-17.998
				c3.479-1.713,6.189-5.91,8.545-9.307c2.535-3.657,3.878-2.76,6.117-0.4c1.375,1.447,2.872,2.774,4.253,4.212
				c1.69,1.736,4.856,2.208,2.33,6.442c-1.798,3.012,3.029,6.411,3.115,10.479c0.142,6.882,2.032,13.421,5.57,19.473
				c1.729,2.954,4.272,4.609,7.324,5.135c4.157,0.719,4.813,2.975,4.162,6.593c-0.736,4.134-1.491,8.416,3.393,11.768
				c-0.403-7.074,6.264-6.949,9.795-9.911c1.57-1.315,4.32-4.495,6.164-3.361c3.237,1.996-1.121,4.13-1.22,6.553
				c-0.326,8.281,5.84,14.365,13.865,13.255c3.142-0.428,7.681,0.914,6.291-5.17c-0.121-0.518,1.179-1.982,1.625-1.91
				c4.646,0.763,4.935-6.446,9.852-5.259c0.955,0.232,0.809-1.36,0.693-2.229c-0.346-2.542,1.377-3.832,3.256-4.464
				c3.147-1.047,6.643-0.881,7.624-5.466c0.359-1.688,2.827-0.658,4.013,0.713c1.267,1.466,2.868,2.685,4.735,2.016
				c2.634-0.938,1.069-3.51,1.444-5.324c0.209-1.018-0.699-2.574-0.214-3.173c4.108-5.132-2.753-5.049-3.624-7.768
				c-0.092-0.291-1.375-0.557-1.415-0.479c-2.357,4.657-9.325,4.228-10.796,9.533c-0.678,2.418-2.11,2.935-4.001,3.743
				c-4.072,1.734-8.398,3.241-8.929,8.828c-0.214,2.295-8.74,4.606-11.978,3.506c-7.867-2.678-10.246-9.059-6.066-16.479
				c0.538-0.96,0.415-1.707-0.194-2.475c-0.451-0.564-1.006-1.35-1.784-0.872c-4.889,2.998-11.282,3.915-14.211,9.641
				c-2.029,3.963-3.55,1.999-4.827-0.258c-1.507-2.673-1.264-5.8-0.336-8.5c1.224-3.556-0.18-5.059-3.228-6.164
				c-6.642-2.403-12.146-11.153-12.861-18.057c-0.447-4.29,1.261-9.438-3.331-12.898c-0.736-0.55-1.129-3.07-0.624-3.52
				c4.856-4.388-1.12-5.094-2.377-7.337c-0.249-0.453-0.812-1.095-1.173-1.06c-3.281,0.296-2.995-8.026-7.733-3.391
				c-2.361,2.314-6.532,2.917-7.003,7.17c-0.179,1.509-1.223,2.953-2.779,3.029c-4.003,0.186-5.802,2.072-6.27,6.044
				c-0.253,2.191-1.96,2.725-4.134,1.483c-2.247-1.285-4.194-2.378-5.076-5.241c-2.219-7.251-5.02-13.951-10.573-19.861
				c-4.591-4.895-3.85-13.087-6.661-19.334c-3.135-6.966-5.294-14.756-13.054-18.687C5.035,260.072,5.2,255.773,3,253.149
				C3,252.049,3,250.955,3,249.855z"/>
			<path fill-rule="evenodd" clip-rule="evenodd" fill="#ED1C24" d="M415.221,5.374c7.479,4.436,15.74,5.469,24.238,6.197
				c7.756,0.666,15.336,3.106,23.254,2.454c2.205-0.183,3.324,1.241,3.998,3.068c1.203,3.254,2.236,6.557,2.42,10.072
				c0.064,1.264-0.18,3.006,0.533,3.711c5.594,5.553,4.439,11.491,1.602,17.772c-1.193,2.647-0.414,4.762,2.344,6.383
				c4.299,2.527,3.287,8.29,6.588,11.627c0.928,0.94-0.453,2.094-1.623,2.016c-5.055-0.336-7.607,1.936-8.783,6.876
				c-0.428,1.816-2.926,3.124-4.414,4.725c-0.936,0.997-2.701,1.697-1.963,3.505c0.576,1.447,2.061,1.25,3.336,1.261
				c1.045,0.018,2.385-0.466,2.834,0.918c0.48,1.508-0.678,2.229-1.797,2.972c-1.729,1.162-3.873,2.287-0.25,4.032
				c1.297,0.628-0.041,1.542-0.646,1.986c-2.354,1.7-4.686,3.463-7.201,4.892c-2.283,1.279-3.584-0.343-3.84-2.313
				c-0.23-1.751,0.182-3.623,0.494-5.403c0.32-1.824-0.086-3.215-1.658-4.268c-6.912-4.608-23.076-4.586-30.127,0.134
				c-1.188,0.794-2.879,1.82-3.068,2.945c-0.994,5.88-5.834,7.443-10.1,9.8c-2.045,1.138-4.09,2.066-6.131,0.633
				c-2.057-1.439-2.666-3.827-2.717-6.281c-0.031-1.355,1.771-3.065,0.125-3.972c-1.705-0.936-3.602,0.176-4.838,1.613
				c-2.254,2.63-5.562,2.406-8.42,3.446c-5.561,2.021-11.648,2.474-16.547,6.547c-2.617,2.171-5.021-0.004-6.863-2.364
				c-2.405-3.066-4.518-5.929-8.854-7.444c-3.85-1.35-7.057-1.138-9.588,0.737c-4.255,3.158-7.599,0.597-11.288-0.462
				c-2.239-0.642-0.937-2.35-0.888-3.654c0.253-6.521-1.777-8.262-7.858-6.717c-3.928,0.997-7.987-1.613-9.005-5.744
				c-0.279-1.134,0.18-1.982,1.148-2.029c3.542-0.162,4.65-2.756,5.042-5.437c0.718-4.993,4.75-8.271,6.193-13.07
				c0.86-2.853,3.053-6.312,5.257-9.235c2.767-3.674,5.662-3.765,9.404-3.271c2.931,0.384,4.743-1.768,6.344-3.708
				c5.347-6.516,9.088-14.27,15.983-19.694c1.648-1.301,2.807-2.949,5.066-3.117c5.16-0.385,10.326-0.729,15.439-1.089
				c-0.955-5.005,6.324-6.052,5.992-11.049C401.34,5.374,408.275,5.374,415.221,5.374z"/>
			<path fill-rule="evenodd" clip-rule="evenodd" fill="#ED1C24" d="M216.979,362.563c8.815,0.864,15.853-2.422,21.678-8.953
				c1.278-1.425,2.101-2.72,1.08-4.276c-2.657-4.071,0.402-4.843,3.159-5.831c3.19-1.136,4.783-3.099,6.482-6.372
				c1.994-3.851,6.764-6.406,10.638-9.067c1.856-1.281,4.649-2.504,6.643-2.059c6.318,1.402,6.577-2.552,6.56-6.698
				c-0.013-3.905,3.148-6.45,3.805-10.016c0.073-0.402,0.694-0.979,1.089-1.004c9.533-0.521,17.876-8.157,28.407-3.999
				c4.021,1.587,8.761,0.694,13.552-1.595c3.194-1.524,5.972-2.532,8.192-5.448c1.935-2.534,2.981,0.362,4.181,1.362
				c1.663,1.396,1.396,3.802,3.315,5.418c5.889,4.942,12.234,3.148,14.947-3.94c1.565-4.081,5.229-7.384,9.164-9.3
				c2.755-1.345,6.202-0.81,8.405-4.021c0.887-1.296,3.168-0.227,4.137,1.29c1.105,1.715,2.088,3.658,0.104,5.41
				c-0.787,0.704-1.904,1.05-2.895,1.516c-2.57,1.203-5.267,2.403-3.518,6.032c1.859,3.877,6.824,6.033,9.816,4.486
				c2.115-1.1,1.199-2.722,0.252-3.58c-4.436-4.049-0.939-6.623,1.871-8.613c2.49-1.761,2.654-3.757,3.559-6.322
				c1.928-5.501,1.891-12.23,7.588-16.123c5.422-3.699,4.951-11.205-0.736-14.299c-0.324-0.173-0.65-0.36-1.004-0.443
				c-3.123-0.707-5.807-3.186-7.102-5.207c-2.465-3.844,3.154-3.917,4.797-6.008c4.064-5.187,8.553-9.984,14.742-13.304
				c3.543-1.897,1.766-7.516,1.105-10.996c-0.959-5.118,1.82-9.407,1.596-14.221c-0.041-0.832,1.773-2.581,2.576-2.496
				c9.602,1.02,18.238-5.819,27.99-3.334c1.615,0.411,3.137,0.827,4.584,1.675c3.23,1.876,5.838,2.55,7.662-2.14
				c1.752-4.526,5.951-1.552,7.152-0.23c4.689,5.126,9.238-1.049,13.771,0.438c1.082,0.351,1.363-1.849,1.383-3.136
				c0.018-1.825-0.1-3.652-0.004-5.478c0.309-6.488,1.559-7.426,7.383-4.955c2.898,1.223,5.502,1.616,8.373,0.19
				c1.125-0.565,2.441-0.76,3.684-1.017c2.859-0.588,7.023-1.9,8.121,0.669c1.492,3.472,2.578,7.814-0.066,11.91
				c-5.758,8.89-8.43,18.946-10.574,29.203c-1.539,7.347-7.639,11.639-12.064,17.043c-4.277,5.216-10.047,7.706-16.029,10.57
				c-6.51,3.122-9.559,10.521-13.369,16.643c-9.094,14.643-16.742,30.188-27.324,43.914c-1.469,1.901-3.785,2.226-4.67,0.995
				c-2.83-3.923-7.51-4.866-11.076-7.566c-4.957-3.749-10.906-5.871-17.59-3.326c7.02,0.418,10.85,6.904,17.357,8.481
				c3.703,0.897,4.908,6.739,2.551,10.024c-5.154,7.173-12.293,12.363-18.809,18.123c-7.506,6.627-15.277,12.825-21.635,20.76
				c-5.718,7.136-14.38,11.124-21.247,17.078c-7.3,6.318-14.881,12.165-22.913,17.521c-2.78,1.854-5.692,2.113-8.708,2.744
				c-5.924,1.239-11.487,4.042-17.912,3.1c-2.688-0.392-4.946,0.924-3.612,4.756c1.041,2.961-0.799,5.737-3.625,5.384
				c-10.95-1.382-20.655,3.816-31.062,5.178c-4.142,0.533-8,0.043-11.757-1.572c-2.91-1.248-5.964-1.766-9.064-1.829
				c-3.666-0.078-7.071-0.269-7.948-4.84c-0.09-0.468-0.54-0.962-0.96-1.252c-1.147-0.784-4.042,0.366-3.306-2.331
				c0.519-1.858,2.4-3.255,4.501-3.596c2.561-0.405,3.809-2.255,1.394-3.274c-4.522-1.905-8.812-6.487-14.61-2.811
				c-1.811,1.155-4.023,1.604-6.295,1.604c-2.543,0.001-4.223-1.129-5.062-3.406c-1.201-3.263,2.019-2.243,3.229-3.025
				c1.722-1.1,3.332-1.794,3.295-4.424c-0.082-5.782,2.728-9.586,8.585-10.812c2.828-0.591,4.022-1.958,1.726-4.412
				c-2.661-2.849-4.716-5.393,0.538-7.716c0.678-0.306,0.014-1.676-0.505-2.449L216.979,362.563z"/>
			<path fill-rule="evenodd" clip-rule="evenodd" fill="#ED1C24" d="M382.639,135.116c0.02,6.179-4.146,9.675-8.562,12.812
				c-2.059,1.462-4.158,2.281-5.002,5.235c-0.865,3.031-1.389,4.791,2.605,4.919c1.244,0.043,2.664,0.615,2.564,2.27
				c-0.088,1.254-1.229,1.796-2.338,1.916c-3.324,0.363-5.061,2.068-5.982,5.375c-1.001,3.612-3.562,5.116-7.051,2.6
				c-3.39-2.441-7.157-2.432-11.007-2.059c-2.574,0.257-4.266-0.313-4.252-3.364c0.019-3.068-1.901-5.203-4.336-6.469
				c-1.429-0.742-3.828-1.979-4.733,1.32c-1.593,5.742-6.145,7.436-11.392,7.233c-3.974-0.157-7.59,0.784-11.144,2.181
				c-3.158,1.239-5.468,3.125-5.54,7.149c-0.082,4.421-2.619,7.74-6.942,8.691c-4.895,1.072-9.187,3.38-13.696,5.269
				c-0.83,0.356-1.81,0.963-2.572,0.788c-9.439-2.21-13.719,5.901-20.032,9.907c-1.068,0.682-1.926,1.703-3.018,2.315
				c-2.804,1.555-4.666-1.007-5.907-2.383c-1.008-1.123,0.333-3.339,2.7-3.627c1.25-0.151,2.733-0.427,2.454-2.235
				c-0.256-1.597-1.646-1.662-2.933-1.912c-1.051-0.206-2.028-0.715-3.054-1.07c-0.665-0.225-1.352-0.422-2.03-0.634
				c1.277,5.784-7.773,4.225-6.883,9.654c0.333,1.994-0.839,2.572-2.299,3.071c-0.195-0.168-0.402-0.324-0.617-0.48
				c-1.256-2.563-3.91-4.424-1.655-8.229c1.405-2.36-2.027-2.879-3.842-3.147c-4.619-0.679-7.539-2.118-4.474-7.38
				c0.838-1.428-0.018-2.479-1.163-3.187c-1.204-0.755-1.87,0.176-2.715,0.965c-6.818,6.334-11.364,6.455-19.054,0.649
				c-1.641-1.246-3.547-1.72-5.55-2.107c-5.555-1.072-8.382-6.951-6.948-12.474c0.716-2.796,5.475-7.474-2.954-8.371
				c-4.847-0.514-7.289-9.218-4.99-14.458c1.552-3.538,2.508-6.982,2.52-10.954c0.023-6.228,3.057-11.659,7.337-15.884
				c5.373-5.303,13.842-4.584,19.412,0.895c3.775,3.714,7.38,7.728,13.149,2.741c1.475-1.288,3.541,0.206,5.106,1.032
				c4.578,2.436,9.582,3.45,14.56,4.508c4.053,0.864,8.031,2.062,11.292-2.485c1.478-2.06,4.785-1.186,7.296-0.645
				c5.312,1.135,8.52-1.503,8.203-6.897c-0.282-4.877,2.116-9.725,1.442-14.273c-1.016-6.762,5.597-7.973,7.614-12.462
				c0.85-1.884,5.783-2.354,8.937-2.641c2.91-0.259,4.736-1.346,5.983-4.951c2.562,5.906,5.891,6.753,11.144,4.858
				c3.732-1.35,5.536,1.846,5.849,5.742c0.137,1.722-1.951,4.507,1.812,5.241c3.479,0.683,6.453,4.26,10.513,0.558
				c3.721-3.394,12.195-1.626,15.263,2.597c0.109,0.142,0.231,0.297,0.268,0.47c0.823,4.044,8.085,6.222,6.021,9.213
				c-4.013,5.793-6.151,14.028-14.519,15.91c-5.014,1.126-5.147,5.082-6.99,8.864c-2.834,5.813-0.161,8.554,2.942,12.055
				c0.705,0.79,1.129,1.88,1.53,2.891c0.47,1.188,0.645,2.642,2.495,2.056c1.251-0.397,2.642-1.021,2.428-2.546
				c-1.052-7.615,4.542-9.878,9.822-12.339c2.678-1.254,4.986-2.522,6.222-5.597c1.579-3.951,6.101-5.965,7.191-10.549
				c0.433-1.853,11.092-2.23,12.08-0.609c1.133,1.859-0.264,3.407-0.934,5.077c-0.773,1.913-5.012,2.496-2.475,5.59
				c2.475,3.017,5.422,2.241,8.242,0.276C380.914,134.106,381.779,134.607,382.639,135.116z"/>
			<path fill-rule="evenodd" clip-rule="evenodd" fill="#ED1C24" d="M248.441,279.366c-0.289-0.295-0.586-0.589-0.879-0.892
				c-1.251-3.397-1.055-7.822-6.243-8.378c-1.302-0.138-1.927-2.149-1.367-2.455c4.009-2.185,2.774-8.757,8.219-9.626
				c0.614-0.097,1.511-0.725,1.635-1.254c1.928-8.14,7.441-15.496,4.976-24.602c-1.661-6.146-0.423-11.027,5.69-14.864
				c5.132-3.214,9.258-8.054,13.782-12.224c0.768-0.708,1.557-0.998,2.466-0.727c6.366,1.887,11.176-1.801,16.261-4.509
				c0.477-0.247,1.007-0.891,1.373-0.793c8.266,2.181,8.329-3.39,9.258-9.057c0.8-4.947,10.023-9.648,16.902-9.104
				c2.427,0.189,4.689-0.164,7.037-0.406c2.625-0.283,3.784-1.701,4.226-4.188c1.082-6.048,5.773-9.006,11.461-6.634
				c3.242,1.35,7.476,2.662,6.578,7.957c-0.435,2.566,1.226,4.032,3.539,4.818c4.39,1.491,8.909,2.278,13.474,1.311
				c3.488-0.737,5.848,0.388,8.201,2.9c2.846,3.042,6.346,5.335,9.977,7.441c3.902,2.254,7.062,6.028,5.527,10.236
				c-1.883,5.197-0.561,10.153-0.736,15.149c-0.111,3.101-1.023,5.021-3.346,6.179c-6.699,3.342-12.07,8.137-16.387,14.153
				c-1.262,1.75-2.543,2.676-4.451,0.979c-2.436-2.181-6.311-2.011-8.2-5.108c-0.766-1.257-1.816-1.025-2.701-0.082
				c-2.088,2.239-5.48,2.398-7.51,3.943c-4.281,3.262-10.272,4.055-13.071,9.712c-2.153,4.337-5.431,8.14-9.324,11.343
				c-3.806,3.126-5.149,7.101-3.34,12.142c1.453,4.052,1.583,8.441,3.888,12.378c1.649,2.809-3.05,7.403-7.343,9.275
				c-7.998,3.48-16.072,2.928-24.356,2.04c-4.567-0.484-8.971,0.428-13.125,2.822c-4.7,2.696-11.218,1.515-15.643-2.666
				c-3.448-3.265-6.981-6.727-8.483-11.279C255.025,281.104,252.28,279.754,248.441,279.366z"/>
			<path fill-rule="evenodd" clip-rule="evenodd" fill="#ED1C24" d="M382.639,135.116c-0.859-0.509-1.725-1.01-2.586-1.525
				c1.029-2.974,6.188-1.873,5.965-6.312c-0.131-2.573,0.311-4.859-3.512-4.151c-1.357,0.248-3.289,0.549-3.689-1.331
				c-0.367-1.752,1.627-2.581,2.738-2.941c5.141-1.645,10.34-3.17,15.617-4.225c2.246-0.45,4.266-0.415,5.248-2.934
				c0.504-1.284,1.637-2.112,3.072-1.631c1.918,0.638,1.34,2.114,1.119,3.632c-0.564,3.817,0.457,6.912,4.729,7.84
				c3.418,0.74,11.375-4.771,11.691-8.384c0.312-3.625,3.762-4.952,5.619-6.08c5.867-3.557,12.545-6.144,19.469-2.004
				c2.006,1.2,4.188,1.321,6.32,1.389c4.592,0.147,7.055,1.594,5.412,6.729c-0.424,1.324-0.699,3.191-0.08,4.243
				c1.01,1.696,2.426,5.066,4.924,1.165c0.836-1.297,1.803-1.636,3.162-1.621c1.371,0.008,2.699-0.473,3.105-1.81
				c0.574-1.882-1.562-1.545-2.236-2.342c-3.432-4.078,2.105-3.999,3.068-6.326c-2.135-1.769-6.064,0.172-7.572-3.751
				c3.947-0.593,7.029-2.924,8.762-6.182c1.021-1.925-0.617-4.769,2.699-6.377c2.092-1.016,3.73-3.241,6.266-1.99
				c2.441,1.207,3.633,3.718,3.738,6.305c0.486,12.571,1.936,25.083-0.354,37.747c-0.854,4.719-0.104,9.661-3.166,13.91
				c-1.348,1.87,1.123,3.183,1.105,4.591c-7.334,4.756-10.486-2.865-15.008-5.326c-4.15-2.248-7.607-0.993-8.822,1.292
				c-4.324,8.129-10.934,14.97-13.545,24.063c-1.174,4.083-1.068,7.287,2.695,10.123c2.416,1.828,3.801,4.853,6.383,6.706
				c2.186,1.58,2.234,3.752,0.75,5.779c-1.471,1.994-3.615,3.809-6.047,2.14c-6.02-4.146-13.027-2.907-19.158-2.369
				c-4.82,0.432-9.682,3.369-15.049,3.629c-1.973,0.097-3.439,0.164-4.891-1.327c-4.148-4.273-9.801-6.685-13.836-11.171
				c-1.719-1.917-4.254-1.641-6.693-1.34c-4.76,0.592-9.482,0.508-13.971-1.544c-4.805-2.198-5.238-5.721-1.002-8.852
				c0.898-0.666,1.994-1.16,1.953-2.402c-0.195-5.839,2.982-8.162,8.416-8.053c-0.012-1.562-1.021-2.021-2.066-2.395
				c-1.828-0.651-5.697,0.491-5.039-2.171c0.75-3.042,0.971-8.027,5.467-8.404c5.066-0.422,5.617-5.595,9.229-7.392
				c1.203-0.6,0.857-2.244,0.199-3.482c-0.875-1.652-2.238-2.562-4.029-2.028C386.762,136.957,384.568,137.042,382.639,135.116z"/>
		</g>
	</g>
	<g>
		<path fill="#FFFFFF" d="M392.385,54.128h2.809v1.32c0,0.138-0.041,0.254-0.123,0.349c-0.082,0.095-0.209,0.143-0.381,0.143h-2.305
			v4.879h-2.031V55.94h-8.219c-0.174,0-0.322-0.05-0.447-0.149s-0.205-0.222-0.238-0.369l-0.234-1.178l9.021-11.972h2.148V54.128z
			 M390.354,46.479c0-0.224,0.006-0.466,0.02-0.725c0.012-0.259,0.041-0.526,0.084-0.803l-6.744,9.177h6.641V46.479z"/>
		<path fill="#FFFFFF" d="M404.861,46.751c0,0.725-0.111,1.374-0.336,1.948c-0.225,0.574-0.523,1.057-0.898,1.45
			c-0.377,0.393-0.814,0.692-1.314,0.899s-1.023,0.311-1.566,0.311c-0.586,0-1.129-0.104-1.625-0.311s-0.93-0.507-1.301-0.899
			s-0.66-0.875-0.867-1.45c-0.207-0.574-0.311-1.223-0.311-1.948c0-0.742,0.104-1.402,0.311-1.98
			c0.207-0.578,0.496-1.065,0.867-1.462s0.805-0.699,1.301-0.906c0.496-0.207,1.039-0.311,1.625-0.311
			c0.578,0,1.119,0.104,1.625,0.311c0.504,0.208,0.939,0.509,1.307,0.906s0.656,0.885,0.867,1.462
			C404.756,45.349,404.861,46.009,404.861,46.751z M411.346,42.739c0.113-0.147,0.232-0.261,0.357-0.343s0.291-0.123,0.498-0.123
			h1.656l-13.551,18.172c-0.086,0.112-0.189,0.203-0.311,0.272c-0.121,0.069-0.264,0.104-0.428,0.104h-1.709L411.346,42.739z
			 M403.062,46.751c0-0.57-0.061-1.053-0.182-1.45c-0.119-0.397-0.285-0.723-0.498-0.977c-0.211-0.254-0.457-0.438-0.736-0.55
			c-0.281-0.112-0.582-0.168-0.9-0.168s-0.619,0.056-0.898,0.168c-0.281,0.112-0.525,0.296-0.732,0.55s-0.369,0.58-0.484,0.977
			c-0.117,0.397-0.176,0.88-0.176,1.45c0,0.561,0.059,1.038,0.176,1.43c0.115,0.393,0.277,0.712,0.484,0.958
			c0.207,0.246,0.451,0.423,0.732,0.531c0.279,0.108,0.58,0.162,0.898,0.162s0.619-0.054,0.9-0.162
			c0.279-0.108,0.525-0.285,0.736-0.531c0.213-0.246,0.379-0.565,0.498-0.958C403.002,47.789,403.062,47.312,403.062,46.751z
			 M415.113,56.445c0,0.725-0.113,1.372-0.338,1.941c-0.223,0.569-0.523,1.05-0.898,1.443c-0.375,0.393-0.811,0.692-1.307,0.899
			c-0.496,0.208-1.018,0.311-1.561,0.311c-0.586,0-1.129-0.104-1.625-0.311c-0.496-0.207-0.93-0.506-1.301-0.899
			c-0.371-0.393-0.66-0.874-0.867-1.443c-0.207-0.57-0.311-1.217-0.311-1.941c0-0.742,0.104-1.404,0.311-1.987
			s0.496-1.072,0.867-1.469c0.371-0.396,0.805-0.699,1.301-0.906s1.039-0.311,1.625-0.311c0.578,0,1.117,0.104,1.617,0.311
			c0.502,0.207,0.938,0.509,1.309,0.906c0.371,0.397,0.66,0.887,0.867,1.469S415.113,55.703,415.113,56.445z M413.326,56.445
			c0-0.57-0.061-1.055-0.18-1.456c-0.121-0.401-0.287-0.727-0.5-0.978c-0.211-0.25-0.457-0.431-0.736-0.543
			c-0.281-0.112-0.582-0.168-0.9-0.168s-0.619,0.057-0.898,0.168c-0.281,0.112-0.525,0.293-0.732,0.543
			c-0.207,0.25-0.369,0.576-0.484,0.978c-0.117,0.401-0.176,0.886-0.176,1.456c0,0.561,0.059,1.035,0.176,1.423
			c0.115,0.389,0.277,0.706,0.484,0.952c0.207,0.246,0.451,0.423,0.732,0.53c0.279,0.108,0.58,0.162,0.898,0.162
			s0.619-0.054,0.9-0.162c0.279-0.107,0.525-0.285,0.736-0.53c0.213-0.246,0.379-0.563,0.5-0.952
			C413.266,57.48,413.326,57.006,413.326,56.445z"/>
	</g>
	<g>
		<path fill="#FFFFFF" d="M257.336,148.011c0,0.328-0.104,0.598-0.311,0.809s-0.557,0.317-1.048,0.317h-5.825l-0.854,4.867
			c0.966-0.207,1.859-0.311,2.679-0.311c0.966,0,1.818,0.142,2.556,0.427s1.357,0.678,1.857,1.178c0.5,0.5,0.878,1.092,1.132,1.773
			s0.382,1.424,0.382,2.226c0,0.984-0.172,1.873-0.518,2.667s-0.818,1.473-1.417,2.038c-0.6,0.565-1.305,0.999-2.116,1.301
			c-0.812,0.302-1.688,0.453-2.627,0.453c-0.544,0-1.066-0.054-1.566-0.162s-0.966-0.252-1.398-0.434
			c-0.431-0.181-0.833-0.388-1.204-0.622c-0.371-0.233-0.699-0.479-0.983-0.737l0.699-0.984c0.155-0.224,0.362-0.336,0.621-0.336
			c0.164,0,0.356,0.067,0.576,0.201s0.485,0.283,0.796,0.446c0.311,0.164,0.675,0.313,1.094,0.447s0.917,0.201,1.495,0.201
			c0.647,0,1.229-0.104,1.747-0.311s0.96-0.502,1.327-0.886s0.649-0.843,0.848-1.378c0.199-0.535,0.298-1.135,0.298-1.799
			c0-0.578-0.084-1.1-0.252-1.566s-0.423-0.863-0.764-1.191c-0.341-0.328-0.766-0.583-1.275-0.764s-1.104-0.271-1.786-0.271
			c-0.466,0-0.949,0.039-1.45,0.116s-1.018,0.203-1.553,0.375l-1.45-0.427l1.501-8.672h8.788V148.011z"/>
		<path fill="#FFFFFF" d="M268.842,151.479c0,0.725-0.112,1.374-0.337,1.948c-0.224,0.574-0.524,1.057-0.899,1.45
			s-0.813,0.692-1.313,0.899c-0.5,0.207-1.022,0.311-1.566,0.311c-0.587,0-1.128-0.104-1.624-0.311
			c-0.497-0.207-0.93-0.507-1.301-0.899c-0.371-0.393-0.66-0.875-0.867-1.45c-0.207-0.574-0.311-1.223-0.311-1.948
			c0-0.742,0.104-1.402,0.311-1.98c0.207-0.578,0.496-1.065,0.867-1.462c0.371-0.397,0.804-0.699,1.301-0.906
			c0.496-0.207,1.037-0.311,1.624-0.311c0.578,0,1.12,0.104,1.625,0.311c0.505,0.208,0.94,0.509,1.307,0.906
			s0.656,0.885,0.867,1.462C268.736,150.077,268.842,150.737,268.842,151.479z M275.327,147.467c0.112-0.147,0.23-0.261,0.356-0.343
			c0.125-0.082,0.291-0.123,0.498-0.123h1.657l-13.551,18.172c-0.086,0.112-0.19,0.203-0.311,0.272
			c-0.121,0.069-0.263,0.104-0.427,0.104h-1.708L275.327,147.467z M267.043,151.479c0-0.57-0.061-1.053-0.181-1.45
			c-0.121-0.397-0.287-0.723-0.499-0.977s-0.457-0.438-0.738-0.55c-0.28-0.112-0.58-0.168-0.899-0.168s-0.619,0.056-0.899,0.168
			c-0.28,0.112-0.524,0.296-0.731,0.55s-0.369,0.58-0.485,0.977c-0.116,0.397-0.174,0.88-0.174,1.45c0,0.561,0.058,1.038,0.174,1.43
			c0.117,0.393,0.278,0.712,0.485,0.958c0.207,0.246,0.451,0.423,0.731,0.531s0.58,0.162,0.899,0.162s0.619-0.054,0.899-0.162
			c0.281-0.108,0.526-0.285,0.738-0.531c0.211-0.246,0.377-0.565,0.499-0.958C266.982,152.517,267.043,152.041,267.043,151.479z
			 M279.093,161.174c0,0.725-0.112,1.372-0.336,1.941c-0.225,0.569-0.524,1.05-0.899,1.443c-0.375,0.393-0.812,0.692-1.308,0.899
			c-0.496,0.208-1.016,0.311-1.56,0.311c-0.587,0-1.128-0.104-1.624-0.311c-0.497-0.207-0.93-0.506-1.301-0.899
			c-0.371-0.393-0.66-0.874-0.867-1.443c-0.207-0.57-0.311-1.217-0.311-1.941c0-0.742,0.104-1.404,0.311-1.987
			s0.496-1.072,0.867-1.469c0.371-0.396,0.804-0.699,1.301-0.906c0.496-0.207,1.037-0.311,1.624-0.311
			c0.578,0,1.118,0.104,1.618,0.311c0.5,0.207,0.936,0.509,1.307,0.906c0.371,0.397,0.66,0.887,0.867,1.469
			S279.093,160.432,279.093,161.174z M277.307,161.174c0-0.57-0.061-1.055-0.181-1.456c-0.121-0.401-0.287-0.727-0.498-0.978
			c-0.212-0.25-0.458-0.431-0.738-0.543c-0.281-0.112-0.581-0.168-0.9-0.168s-0.619,0.057-0.899,0.168
			c-0.28,0.112-0.524,0.293-0.731,0.543c-0.207,0.25-0.369,0.576-0.485,0.978c-0.116,0.401-0.174,0.886-0.174,1.456
			c0,0.561,0.058,1.035,0.174,1.423c0.117,0.389,0.278,0.706,0.485,0.952c0.208,0.246,0.451,0.423,0.731,0.53
			c0.28,0.108,0.58,0.162,0.899,0.162s0.619-0.054,0.9-0.162c0.28-0.107,0.526-0.285,0.738-0.53
			c0.211-0.246,0.377-0.563,0.498-0.952C277.246,162.209,277.307,161.735,277.307,161.174z"/>
	</g>
	<g>
		<path fill="#FFFFFF" d="M128.31,285.31h3.986v-12.646c0-0.38,0.013-0.764,0.039-1.152l-3.313,2.835
			c-0.086,0.069-0.172,0.118-0.259,0.148s-0.168,0.046-0.246,0.046c-0.129,0-0.246-0.028-0.35-0.085
			c-0.104-0.056-0.181-0.122-0.233-0.2l-0.725-0.997l5.514-4.775h1.877v16.826h3.65v1.76h-9.94V285.31z"/>
		<path fill="#FFFFFF" d="M148.759,273c0,0.726-0.112,1.375-0.337,1.948c-0.224,0.574-0.524,1.057-0.899,1.449
			c-0.375,0.394-0.813,0.693-1.313,0.9c-0.5,0.207-1.022,0.311-1.566,0.311c-0.587,0-1.128-0.104-1.624-0.311
			c-0.497-0.207-0.93-0.507-1.301-0.9c-0.371-0.393-0.66-0.875-0.867-1.449c-0.207-0.573-0.311-1.223-0.311-1.948
			c0-0.741,0.104-1.401,0.311-1.979s0.496-1.066,0.867-1.463c0.371-0.396,0.804-0.699,1.301-0.906
			c0.496-0.207,1.037-0.311,1.624-0.311c0.578,0,1.12,0.104,1.625,0.311s0.94,0.51,1.307,0.906s0.656,0.885,0.867,1.463
			S148.759,272.259,148.759,273z M155.244,268.988c0.112-0.146,0.23-0.261,0.356-0.343c0.125-0.082,0.291-0.123,0.498-0.123h1.657
			l-13.551,18.172c-0.086,0.112-0.19,0.202-0.311,0.271c-0.121,0.069-0.263,0.104-0.427,0.104h-1.708L155.244,268.988z M146.96,273
			c0-0.569-0.061-1.052-0.181-1.449c-0.121-0.396-0.287-0.723-0.499-0.978c-0.211-0.254-0.457-0.438-0.738-0.55
			c-0.28-0.112-0.58-0.168-0.899-0.168s-0.619,0.056-0.899,0.168s-0.524,0.296-0.731,0.55c-0.207,0.255-0.369,0.581-0.485,0.978
			c-0.116,0.397-0.174,0.88-0.174,1.449c0,0.562,0.058,1.038,0.174,1.431c0.117,0.393,0.278,0.712,0.485,0.958
			c0.207,0.245,0.451,0.423,0.731,0.53c0.28,0.108,0.58,0.162,0.899,0.162s0.619-0.054,0.899-0.162
			c0.281-0.107,0.526-0.285,0.738-0.53c0.211-0.246,0.377-0.565,0.499-0.958C146.899,274.038,146.96,273.562,146.96,273z
			 M159.01,282.694c0,0.726-0.112,1.372-0.336,1.941c-0.225,0.569-0.524,1.051-0.899,1.443c-0.375,0.393-0.812,0.692-1.308,0.899
			s-1.016,0.311-1.56,0.311c-0.587,0-1.128-0.104-1.624-0.311c-0.497-0.207-0.93-0.507-1.301-0.899
			c-0.371-0.393-0.66-0.874-0.867-1.443s-0.311-1.216-0.311-1.941c0-0.741,0.104-1.404,0.311-1.986
			c0.207-0.583,0.496-1.072,0.867-1.469c0.371-0.397,0.804-0.699,1.301-0.906c0.496-0.207,1.037-0.311,1.624-0.311
			c0.578,0,1.118,0.104,1.618,0.311c0.5,0.207,0.936,0.509,1.307,0.906c0.371,0.396,0.66,0.886,0.867,1.469
			C158.906,281.29,159.01,281.953,159.01,282.694z M157.224,282.694c0-0.569-0.061-1.055-0.181-1.456
			c-0.121-0.401-0.287-0.727-0.498-0.977c-0.212-0.251-0.458-0.432-0.738-0.544c-0.281-0.112-0.581-0.168-0.9-0.168
			s-0.619,0.056-0.899,0.168s-0.524,0.293-0.731,0.544c-0.207,0.25-0.369,0.575-0.485,0.977c-0.116,0.401-0.174,0.887-0.174,1.456
			c0,0.562,0.058,1.036,0.174,1.424c0.117,0.389,0.278,0.706,0.485,0.951c0.208,0.246,0.451,0.423,0.731,0.531
			c0.28,0.107,0.58,0.161,0.899,0.161s0.619-0.054,0.9-0.161c0.28-0.108,0.526-0.285,0.738-0.531
			c0.211-0.245,0.377-0.562,0.498-0.951C157.163,283.73,157.224,283.256,157.224,282.694z"/>
	</g>
	<g>
		<path fill="#FFFFFF" d="M108.494,407.587c0,0.328-0.104,0.598-0.311,0.81c-0.207,0.211-0.557,0.317-1.048,0.317h-5.825
			l-0.854,4.866c0.966-0.207,1.859-0.311,2.679-0.311c0.966,0,1.818,0.143,2.556,0.427c0.738,0.285,1.357,0.678,1.857,1.178
			c0.5,0.501,0.878,1.092,1.132,1.773s0.382,1.424,0.382,2.227c0,0.983-0.172,1.872-0.518,2.666s-0.818,1.474-1.417,2.038
			c-0.6,0.565-1.305,0.999-2.116,1.301c-0.812,0.302-1.688,0.453-2.627,0.453c-0.544,0-1.066-0.054-1.566-0.162
			c-0.5-0.107-0.966-0.252-1.398-0.434c-0.431-0.181-0.833-0.388-1.204-0.621c-0.371-0.232-0.699-0.479-0.983-0.737l0.699-0.983
			c0.155-0.225,0.362-0.337,0.621-0.337c0.164,0,0.356,0.066,0.576,0.2s0.485,0.283,0.796,0.447s0.675,0.312,1.094,0.446
			s0.917,0.2,1.495,0.2c0.647,0,1.229-0.104,1.747-0.311s0.96-0.502,1.327-0.887c0.367-0.384,0.649-0.843,0.848-1.378
			c0.199-0.535,0.298-1.135,0.298-1.799c0-0.578-0.084-1.101-0.252-1.566s-0.423-0.863-0.764-1.19
			c-0.341-0.328-0.766-0.583-1.275-0.764c-0.509-0.182-1.104-0.272-1.786-0.272c-0.466,0-0.949,0.039-1.45,0.117
			c-0.5,0.077-1.018,0.202-1.553,0.375l-1.45-0.427l1.501-8.672h8.788V407.587z"/>
		<path fill="#FFFFFF" d="M120,411.056c0,0.726-0.112,1.375-0.337,1.948c-0.224,0.574-0.524,1.057-0.899,1.449
			c-0.375,0.394-0.813,0.693-1.313,0.9c-0.5,0.207-1.022,0.311-1.566,0.311c-0.587,0-1.128-0.104-1.624-0.311
			c-0.497-0.207-0.93-0.507-1.301-0.9c-0.371-0.393-0.66-0.875-0.867-1.449c-0.207-0.573-0.311-1.223-0.311-1.948
			c0-0.741,0.104-1.401,0.311-1.979s0.496-1.066,0.867-1.463c0.371-0.396,0.804-0.699,1.301-0.906
			c0.496-0.207,1.037-0.311,1.624-0.311c0.578,0,1.12,0.104,1.625,0.311s0.94,0.51,1.307,0.906s0.656,0.885,0.867,1.463
			S120,410.314,120,411.056z M126.484,407.044c0.112-0.146,0.23-0.261,0.356-0.343c0.125-0.082,0.291-0.123,0.498-0.123h1.657
			l-13.551,18.172c-0.086,0.112-0.19,0.202-0.311,0.271c-0.121,0.069-0.263,0.104-0.427,0.104h-1.708L126.484,407.044z
			 M118.2,411.056c0-0.569-0.061-1.052-0.181-1.449c-0.121-0.396-0.287-0.723-0.499-0.978c-0.211-0.254-0.457-0.438-0.738-0.55
			c-0.28-0.112-0.58-0.168-0.899-0.168s-0.619,0.056-0.899,0.168s-0.524,0.296-0.731,0.55c-0.207,0.255-0.369,0.581-0.485,0.978
			c-0.116,0.397-0.174,0.88-0.174,1.449c0,0.562,0.058,1.038,0.174,1.431c0.117,0.393,0.278,0.712,0.485,0.958
			c0.207,0.245,0.451,0.423,0.731,0.53c0.28,0.108,0.58,0.162,0.899,0.162s0.619-0.054,0.899-0.162
			c0.281-0.107,0.526-0.285,0.738-0.53c0.211-0.246,0.377-0.565,0.499-0.958C118.14,412.094,118.2,411.617,118.2,411.056z
			 M130.25,420.75c0,0.726-0.112,1.372-0.336,1.941c-0.225,0.569-0.524,1.051-0.899,1.443c-0.375,0.393-0.812,0.692-1.308,0.899
			s-1.016,0.311-1.56,0.311c-0.587,0-1.128-0.104-1.624-0.311c-0.497-0.207-0.93-0.507-1.301-0.899
			c-0.371-0.393-0.66-0.874-0.867-1.443s-0.311-1.216-0.311-1.941c0-0.741,0.104-1.404,0.311-1.986
			c0.207-0.583,0.496-1.072,0.867-1.469c0.371-0.397,0.804-0.699,1.301-0.906c0.496-0.207,1.037-0.311,1.624-0.311
			c0.578,0,1.118,0.104,1.618,0.311c0.5,0.207,0.936,0.509,1.307,0.906c0.371,0.396,0.66,0.886,0.867,1.469
			C130.146,419.346,130.25,420.009,130.25,420.75z M128.464,420.75c0-0.569-0.061-1.055-0.181-1.456
			c-0.121-0.401-0.287-0.727-0.498-0.977c-0.212-0.251-0.458-0.432-0.738-0.544c-0.281-0.112-0.581-0.168-0.9-0.168
			s-0.619,0.056-0.899,0.168s-0.524,0.293-0.731,0.544c-0.207,0.25-0.369,0.575-0.485,0.977c-0.116,0.401-0.174,0.887-0.174,1.456
			c0,0.562,0.058,1.036,0.174,1.424c0.117,0.389,0.278,0.706,0.485,0.951c0.208,0.246,0.451,0.423,0.731,0.531
			c0.28,0.107,0.58,0.161,0.899,0.161s0.619-0.054,0.9-0.161c0.28-0.108,0.526-0.285,0.738-0.531
			c0.211-0.245,0.377-0.562,0.498-0.951C128.403,421.786,128.464,421.312,128.464,420.75z"/>
	</g>
	<g>
		<path fill="#FFFFFF" d="M281.472,363.687h3.986v-12.646c0-0.38,0.013-0.764,0.039-1.152l-3.313,2.835
			c-0.086,0.069-0.172,0.118-0.259,0.148s-0.168,0.046-0.246,0.046c-0.129,0-0.246-0.028-0.35-0.085
			c-0.104-0.056-0.181-0.122-0.233-0.2l-0.725-0.997l5.514-4.775h1.877v16.826h3.65v1.76h-9.94V363.687z"/>
		<path fill="#FFFFFF" d="M300.795,346.692c0.785,0,1.51,0.112,2.175,0.336c0.664,0.225,1.236,0.544,1.715,0.958
			s0.852,0.915,1.12,1.501c0.267,0.587,0.401,1.238,0.401,1.955c0,0.587-0.076,1.11-0.227,1.572s-0.367,0.867-0.647,1.217
			s-0.619,0.645-1.016,0.887c-0.397,0.241-0.841,0.436-1.333,0.582c1.208,0.319,2.116,0.854,2.725,1.605
			c0.608,0.75,0.913,1.69,0.913,2.821c0,0.854-0.162,1.622-0.485,2.304c-0.324,0.682-0.766,1.262-1.327,1.741
			c-0.561,0.479-1.215,0.846-1.961,1.1c-0.747,0.255-1.547,0.382-2.401,0.382c-0.984,0-1.825-0.123-2.524-0.369
			c-0.699-0.245-1.29-0.584-1.773-1.016s-0.88-0.942-1.19-1.534c-0.311-0.591-0.574-1.231-0.79-1.922l0.983-0.414
			c0.181-0.077,0.363-0.116,0.544-0.116c0.172,0,0.325,0.037,0.459,0.109c0.133,0.074,0.235,0.188,0.304,0.344
			c0.017,0.034,0.034,0.071,0.052,0.109c0.017,0.039,0.034,0.08,0.052,0.123c0.121,0.251,0.267,0.533,0.44,0.848
			c0.172,0.315,0.405,0.611,0.699,0.887c0.293,0.276,0.658,0.51,1.094,0.699s0.977,0.285,1.625,0.285
			c0.647,0,1.214-0.106,1.702-0.317c0.488-0.212,0.893-0.485,1.217-0.822c0.324-0.336,0.567-0.712,0.731-1.126
			c0.164-0.414,0.246-0.824,0.246-1.229c0-0.5-0.067-0.958-0.201-1.372s-0.375-0.771-0.725-1.074
			c-0.35-0.302-0.833-0.539-1.45-0.712c-0.617-0.172-1.409-0.259-2.375-0.259v-1.683c0.785,0,1.456-0.082,2.013-0.246
			c0.557-0.163,1.012-0.388,1.366-0.673c0.354-0.284,0.61-0.625,0.77-1.022c0.16-0.396,0.239-0.837,0.239-1.32
			c0-0.534-0.084-1.001-0.252-1.397c-0.168-0.396-0.399-0.725-0.692-0.983s-0.641-0.453-1.042-0.583
			c-0.401-0.129-0.834-0.194-1.301-0.194c-0.466,0-0.897,0.069-1.294,0.207c-0.397,0.138-0.749,0.33-1.055,0.575
			c-0.306,0.246-0.563,0.539-0.77,0.88s-0.362,0.709-0.466,1.105c-0.069,0.25-0.173,0.431-0.311,0.543
			c-0.138,0.112-0.315,0.168-0.531,0.168c-0.043,0-0.089-0.002-0.136-0.007c-0.048-0.004-0.102-0.011-0.162-0.019l-1.204-0.204
			c0.121-0.846,0.354-1.594,0.699-2.245s0.783-1.197,1.314-1.638s1.139-0.774,1.825-1.003
			C299.261,346.807,300.001,346.692,300.795,346.692z"/>
		<path fill="#FFFFFF" d="M316.935,351.377c0,0.726-0.112,1.375-0.337,1.948c-0.224,0.574-0.524,1.057-0.899,1.449
			c-0.375,0.394-0.813,0.693-1.313,0.9c-0.5,0.207-1.022,0.311-1.566,0.311c-0.587,0-1.128-0.104-1.624-0.311
			c-0.497-0.207-0.93-0.507-1.301-0.9c-0.371-0.393-0.66-0.875-0.867-1.449c-0.207-0.573-0.311-1.223-0.311-1.948
			c0-0.741,0.104-1.401,0.311-1.979s0.496-1.066,0.867-1.463c0.371-0.396,0.804-0.699,1.301-0.906
			c0.496-0.207,1.037-0.311,1.624-0.311c0.578,0,1.12,0.104,1.625,0.311s0.94,0.51,1.307,0.906s0.656,0.885,0.867,1.463
			S316.935,350.636,316.935,351.377z M323.419,347.365c0.112-0.146,0.23-0.261,0.356-0.343c0.125-0.082,0.291-0.123,0.498-0.123
			h1.657l-13.551,18.172c-0.086,0.112-0.19,0.202-0.311,0.271c-0.121,0.069-0.263,0.104-0.427,0.104h-1.708L323.419,347.365z
			 M315.135,351.377c0-0.569-0.061-1.052-0.181-1.449c-0.121-0.396-0.287-0.723-0.499-0.978c-0.211-0.254-0.457-0.438-0.738-0.55
			c-0.28-0.112-0.58-0.168-0.899-0.168s-0.619,0.056-0.899,0.168s-0.524,0.296-0.731,0.55c-0.207,0.255-0.369,0.581-0.485,0.978
			c-0.116,0.397-0.174,0.88-0.174,1.449c0,0.562,0.058,1.038,0.174,1.431c0.117,0.393,0.278,0.712,0.485,0.958
			c0.207,0.245,0.451,0.423,0.731,0.53c0.28,0.108,0.58,0.162,0.899,0.162s0.619-0.054,0.899-0.162
			c0.281-0.107,0.526-0.285,0.738-0.53c0.211-0.246,0.377-0.565,0.499-0.958C315.075,352.415,315.135,351.938,315.135,351.377z
			 M327.185,361.071c0,0.726-0.112,1.372-0.336,1.941c-0.225,0.569-0.524,1.051-0.899,1.443c-0.375,0.393-0.812,0.692-1.308,0.899
			s-1.016,0.311-1.56,0.311c-0.587,0-1.128-0.104-1.624-0.311c-0.497-0.207-0.93-0.507-1.301-0.899
			c-0.371-0.393-0.66-0.874-0.867-1.443s-0.311-1.216-0.311-1.941c0-0.741,0.104-1.404,0.311-1.986
			c0.207-0.583,0.496-1.072,0.867-1.469c0.371-0.397,0.804-0.699,1.301-0.906c0.496-0.207,1.037-0.311,1.624-0.311
			c0.578,0,1.118,0.104,1.618,0.311c0.5,0.207,0.936,0.509,1.307,0.906c0.371,0.396,0.66,0.886,0.867,1.469
			C327.082,359.667,327.185,360.33,327.185,361.071z M325.399,361.071c0-0.569-0.061-1.055-0.181-1.456
			c-0.121-0.401-0.287-0.727-0.498-0.977c-0.212-0.251-0.458-0.432-0.738-0.544c-0.281-0.112-0.581-0.168-0.9-0.168
			s-0.619,0.056-0.899,0.168s-0.524,0.293-0.731,0.544c-0.207,0.25-0.369,0.575-0.485,0.977c-0.116,0.401-0.174,0.887-0.174,1.456
			c0,0.562,0.058,1.036,0.174,1.424c0.117,0.389,0.278,0.706,0.485,0.951c0.208,0.246,0.451,0.423,0.731,0.531
			c0.28,0.107,0.58,0.161,0.899,0.161s0.619-0.054,0.9-0.161c0.28-0.108,0.526-0.285,0.738-0.531
			c0.211-0.245,0.377-0.562,0.498-0.951C325.338,362.107,325.399,361.633,325.399,361.071z"/>
	</g>
	<g>
		<path fill="#FFFFFF" d="M411.617,242.165h3.986V229.52c0-0.38,0.014-0.764,0.039-1.152l-3.312,2.835
			c-0.088,0.069-0.174,0.118-0.26,0.148s-0.168,0.046-0.246,0.046c-0.129,0-0.246-0.028-0.35-0.084
			c-0.104-0.057-0.182-0.123-0.232-0.201l-0.725-0.997l5.514-4.776h1.877v16.826h3.648v1.76h-9.939V242.165z"/>
		<path fill="#FFFFFF" d="M430.941,225.17c0.785,0,1.51,0.112,2.174,0.336c0.664,0.225,1.236,0.544,1.715,0.958
			s0.852,0.915,1.119,1.501s0.402,1.238,0.402,1.954c0,0.587-0.076,1.111-0.227,1.573s-0.367,0.867-0.646,1.217
			c-0.281,0.35-0.621,0.645-1.018,0.887c-0.396,0.241-0.84,0.436-1.332,0.582c1.207,0.319,2.115,0.854,2.725,1.605
			c0.607,0.75,0.912,1.69,0.912,2.821c0,0.854-0.162,1.622-0.486,2.304c-0.322,0.682-0.766,1.262-1.326,1.741
			c-0.561,0.479-1.215,0.846-1.961,1.1c-0.746,0.255-1.547,0.382-2.4,0.382c-0.984,0-1.824-0.123-2.523-0.369
			c-0.699-0.245-1.291-0.584-1.773-1.016c-0.484-0.432-0.881-0.942-1.191-1.534c-0.311-0.591-0.574-1.231-0.789-1.922l0.984-0.414
			c0.18-0.077,0.361-0.116,0.543-0.116c0.172,0,0.326,0.037,0.459,0.109c0.135,0.074,0.234,0.188,0.305,0.344
			c0.018,0.034,0.033,0.071,0.051,0.109c0.018,0.039,0.035,0.08,0.053,0.123c0.121,0.251,0.268,0.533,0.439,0.848
			c0.174,0.315,0.406,0.611,0.699,0.887c0.293,0.276,0.658,0.51,1.094,0.699s0.977,0.285,1.625,0.285
			c0.646,0,1.213-0.106,1.701-0.317c0.488-0.212,0.893-0.485,1.217-0.822c0.324-0.336,0.566-0.712,0.73-1.126
			s0.246-0.824,0.246-1.229c0-0.5-0.066-0.958-0.199-1.372c-0.135-0.414-0.377-0.771-0.725-1.074
			c-0.35-0.302-0.834-0.539-1.451-0.712c-0.617-0.172-1.408-0.259-2.375-0.259v-1.683c0.785,0,1.457-0.082,2.014-0.246
			c0.557-0.163,1.012-0.388,1.365-0.673c0.354-0.284,0.609-0.625,0.77-1.022c0.16-0.396,0.24-0.837,0.24-1.32
			c0-0.535-0.084-1.001-0.252-1.398c-0.17-0.397-0.4-0.725-0.693-0.984s-0.641-0.453-1.041-0.583
			c-0.402-0.129-0.836-0.194-1.301-0.194c-0.467,0-0.898,0.069-1.295,0.207c-0.396,0.138-0.748,0.33-1.055,0.575
			s-0.562,0.539-0.77,0.879c-0.207,0.34-0.363,0.709-0.467,1.105c-0.068,0.25-0.172,0.431-0.311,0.543
			c-0.139,0.112-0.314,0.168-0.531,0.168c-0.043,0-0.088-0.002-0.135-0.006c-0.049-0.004-0.102-0.011-0.162-0.019l-1.203-0.204
			c0.119-0.846,0.354-1.594,0.697-2.246c0.346-0.651,0.783-1.197,1.314-1.637s1.139-0.774,1.824-1.003
			C429.408,225.285,430.146,225.17,430.941,225.17z"/>
		<path fill="#FFFFFF" d="M447.08,229.856c0,0.725-0.111,1.375-0.336,1.948c-0.225,0.574-0.523,1.057-0.898,1.449
			c-0.377,0.394-0.814,0.693-1.314,0.9s-1.023,0.311-1.566,0.311c-0.586,0-1.129-0.104-1.625-0.311s-0.93-0.507-1.301-0.9
			c-0.371-0.393-0.66-0.875-0.867-1.449c-0.207-0.573-0.311-1.223-0.311-1.948c0-0.742,0.104-1.402,0.311-1.98
			c0.207-0.578,0.496-1.065,0.867-1.462s0.805-0.699,1.301-0.906c0.496-0.207,1.039-0.311,1.625-0.311
			c0.578,0,1.119,0.104,1.625,0.311c0.504,0.208,0.939,0.509,1.307,0.906s0.656,0.885,0.867,1.462
			C446.975,228.454,447.08,229.114,447.08,229.856z M453.564,225.844c0.113-0.147,0.232-0.261,0.357-0.343s0.291-0.123,0.498-0.123
			h1.656l-13.551,18.172c-0.086,0.112-0.189,0.202-0.311,0.271s-0.264,0.104-0.428,0.104h-1.709L453.564,225.844z M445.281,229.856
			c0-0.57-0.061-1.053-0.182-1.45c-0.119-0.397-0.285-0.723-0.498-0.977c-0.211-0.254-0.457-0.438-0.736-0.55
			c-0.281-0.112-0.582-0.168-0.9-0.168s-0.619,0.056-0.898,0.168c-0.281,0.112-0.525,0.296-0.732,0.55s-0.369,0.58-0.484,0.977
			c-0.117,0.397-0.176,0.88-0.176,1.45c0,0.561,0.059,1.038,0.176,1.43c0.115,0.393,0.277,0.712,0.484,0.958
			c0.207,0.245,0.451,0.423,0.732,0.53c0.279,0.108,0.58,0.162,0.898,0.162s0.619-0.054,0.9-0.162
			c0.279-0.107,0.525-0.285,0.736-0.53c0.213-0.246,0.379-0.565,0.498-0.958C445.221,230.894,445.281,230.417,445.281,229.856z
			 M457.332,239.55c0,0.726-0.113,1.372-0.338,1.941c-0.223,0.569-0.523,1.051-0.898,1.443s-0.811,0.692-1.307,0.899
			s-1.018,0.311-1.561,0.311c-0.586,0-1.129-0.104-1.625-0.311s-0.93-0.507-1.301-0.899s-0.66-0.874-0.867-1.443
			s-0.311-1.216-0.311-1.941c0-0.741,0.104-1.404,0.311-1.986c0.207-0.583,0.496-1.072,0.867-1.469
			c0.371-0.397,0.805-0.699,1.301-0.906s1.039-0.311,1.625-0.311c0.578,0,1.117,0.104,1.617,0.311
			c0.502,0.207,0.938,0.509,1.309,0.906c0.371,0.396,0.66,0.886,0.867,1.469C457.229,238.146,457.332,238.809,457.332,239.55z
			 M455.545,239.55c0-0.569-0.061-1.055-0.18-1.456c-0.121-0.401-0.287-0.727-0.5-0.977c-0.211-0.251-0.457-0.432-0.736-0.544
			c-0.281-0.112-0.582-0.168-0.9-0.168s-0.619,0.056-0.898,0.168c-0.281,0.112-0.525,0.293-0.732,0.544
			c-0.207,0.25-0.369,0.575-0.484,0.977c-0.117,0.401-0.176,0.887-0.176,1.456c0,0.562,0.059,1.036,0.176,1.424
			c0.115,0.389,0.277,0.706,0.484,0.951c0.207,0.246,0.451,0.423,0.732,0.531c0.279,0.107,0.58,0.161,0.898,0.161
			s0.619-0.054,0.9-0.161c0.279-0.108,0.525-0.285,0.736-0.531c0.213-0.245,0.379-0.562,0.5-0.951
			C455.484,240.586,455.545,240.111,455.545,239.55z"/>
	</g>
	<g>
		<path fill="#FFFFFF" d="M282.224,239.479h3.986v-12.646c0-0.38,0.013-0.764,0.039-1.152l-3.313,2.835
			c-0.086,0.069-0.172,0.119-0.259,0.148c-0.086,0.03-0.168,0.045-0.246,0.045c-0.129,0-0.246-0.028-0.35-0.084
			s-0.181-0.123-0.233-0.201l-0.725-0.997l5.514-4.776h1.877v16.826h3.65v1.76h-9.94V239.479z"/>
		<path fill="#FFFFFF" d="M305.21,234.548h2.809v1.32c0,0.138-0.041,0.255-0.123,0.35s-0.209,0.142-0.382,0.142h-2.304v4.88h-2.032
			v-4.88h-8.219c-0.172,0-0.321-0.049-0.446-0.148c-0.125-0.099-0.205-0.222-0.24-0.369l-0.233-1.178l9.021-11.972h2.148V234.548z
			 M303.178,226.898c0-0.224,0.007-0.466,0.02-0.725c0.013-0.259,0.041-0.526,0.084-0.803l-6.743,9.177h6.64V226.898z"/>
		<path fill="#FFFFFF" d="M317.687,227.17c0,0.725-0.112,1.374-0.337,1.948c-0.224,0.574-0.524,1.057-0.899,1.45
			s-0.813,0.693-1.313,0.9c-0.5,0.207-1.022,0.311-1.566,0.311c-0.587,0-1.128-0.104-1.624-0.311c-0.497-0.207-0.93-0.507-1.301-0.9
			c-0.371-0.393-0.66-0.875-0.867-1.45c-0.207-0.574-0.311-1.223-0.311-1.948c0-0.742,0.104-1.402,0.311-1.98
			c0.207-0.578,0.496-1.065,0.867-1.462c0.371-0.397,0.804-0.699,1.301-0.906c0.496-0.207,1.037-0.311,1.624-0.311
			c0.578,0,1.12,0.104,1.625,0.311c0.505,0.208,0.94,0.509,1.307,0.906s0.656,0.885,0.867,1.462
			C317.581,225.768,317.687,226.428,317.687,227.17z M324.171,223.158c0.112-0.147,0.23-0.261,0.356-0.343
			c0.125-0.082,0.291-0.123,0.498-0.123h1.657l-13.551,18.172c-0.086,0.112-0.19,0.202-0.311,0.271
			c-0.121,0.069-0.263,0.104-0.427,0.104h-1.708L324.171,223.158z M315.887,227.17c0-0.57-0.061-1.053-0.181-1.45
			c-0.121-0.397-0.287-0.723-0.499-0.977s-0.457-0.438-0.738-0.55c-0.28-0.112-0.58-0.168-0.899-0.168s-0.619,0.056-0.899,0.168
			c-0.28,0.112-0.524,0.296-0.731,0.55s-0.369,0.58-0.485,0.977c-0.116,0.397-0.174,0.88-0.174,1.45c0,0.561,0.058,1.038,0.174,1.43
			c0.117,0.393,0.278,0.712,0.485,0.958c0.207,0.246,0.451,0.423,0.731,0.531s0.58,0.162,0.899,0.162s0.619-0.054,0.899-0.162
			c0.281-0.108,0.526-0.285,0.738-0.531c0.211-0.246,0.377-0.565,0.499-0.958C315.827,228.208,315.887,227.731,315.887,227.17z
			 M327.937,236.864c0,0.726-0.112,1.372-0.336,1.941c-0.225,0.569-0.524,1.051-0.899,1.443c-0.375,0.393-0.812,0.692-1.308,0.899
			s-1.016,0.311-1.56,0.311c-0.587,0-1.128-0.104-1.624-0.311c-0.497-0.207-0.93-0.507-1.301-0.899
			c-0.371-0.393-0.66-0.874-0.867-1.443s-0.311-1.216-0.311-1.941c0-0.741,0.104-1.404,0.311-1.986
			c0.207-0.583,0.496-1.072,0.867-1.469c0.371-0.397,0.804-0.699,1.301-0.906c0.496-0.207,1.037-0.311,1.624-0.311
			c0.578,0,1.118,0.104,1.618,0.311c0.5,0.207,0.936,0.509,1.307,0.906c0.371,0.396,0.66,0.886,0.867,1.469
			C327.833,235.46,327.937,236.123,327.937,236.864z M326.151,236.864c0-0.569-0.061-1.055-0.181-1.456
			c-0.121-0.401-0.287-0.727-0.498-0.977c-0.212-0.251-0.458-0.432-0.738-0.544c-0.281-0.112-0.581-0.168-0.9-0.168
			s-0.619,0.056-0.899,0.168s-0.524,0.293-0.731,0.544c-0.207,0.25-0.369,0.575-0.485,0.977c-0.116,0.401-0.174,0.887-0.174,1.456
			c0,0.562,0.058,1.036,0.174,1.424c0.117,0.389,0.278,0.706,0.485,0.951c0.208,0.246,0.451,0.423,0.731,0.531
			c0.28,0.107,0.58,0.161,0.899,0.161s0.619-0.054,0.9-0.161c0.28-0.108,0.526-0.285,0.738-0.531
			c0.211-0.245,0.377-0.562,0.498-0.951C326.09,237.9,326.151,237.426,326.151,236.864z"/>
	</g>
	<g>
		<path fill="#FFFFFF" d="M412.584,144.844v1.036c0,0.293-0.031,0.535-0.098,0.725c-0.064,0.19-0.131,0.35-0.199,0.479
			l-7.676,15.493c-0.111,0.225-0.268,0.417-0.465,0.576c-0.199,0.16-0.467,0.239-0.803,0.239h-1.645l7.791-15.298
			c0.113-0.216,0.227-0.415,0.344-0.596s0.248-0.354,0.395-0.518h-9.682c-0.146,0-0.277-0.058-0.395-0.175
			c-0.115-0.116-0.174-0.248-0.174-0.395v-1.566H412.584z"/>
		<path fill="#FFFFFF" d="M422.719,149.322c0,0.725-0.113,1.374-0.336,1.948c-0.225,0.574-0.525,1.057-0.9,1.45
			s-0.812,0.692-1.314,0.899c-0.5,0.207-1.021,0.311-1.564,0.311c-0.588,0-1.129-0.104-1.625-0.311s-0.93-0.507-1.301-0.899
			s-0.66-0.875-0.867-1.45c-0.207-0.574-0.311-1.223-0.311-1.948c0-0.742,0.104-1.402,0.311-1.98
			c0.207-0.578,0.496-1.065,0.867-1.462s0.805-0.699,1.301-0.906c0.496-0.207,1.037-0.311,1.625-0.311
			c0.576,0,1.119,0.104,1.623,0.311c0.506,0.208,0.941,0.509,1.309,0.906c0.365,0.397,0.654,0.885,0.867,1.462
			C422.613,147.92,422.719,148.58,422.719,149.322z M429.203,145.31c0.111-0.147,0.23-0.261,0.355-0.343s0.291-0.123,0.498-0.123
			h1.656l-13.551,18.172c-0.086,0.112-0.189,0.203-0.311,0.272c-0.121,0.069-0.264,0.104-0.426,0.104h-1.709L429.203,145.31z
			 M420.92,149.322c0-0.57-0.061-1.053-0.182-1.45s-0.287-0.723-0.498-0.977s-0.457-0.438-0.738-0.55
			c-0.279-0.112-0.58-0.168-0.898-0.168c-0.32,0-0.619,0.056-0.9,0.168c-0.281,0.112-0.523,0.296-0.73,0.55s-0.369,0.58-0.486,0.977
			s-0.174,0.88-0.174,1.45c0,0.561,0.057,1.038,0.174,1.43s0.279,0.712,0.486,0.958c0.207,0.246,0.449,0.423,0.73,0.531
			s0.58,0.162,0.9,0.162c0.318,0,0.619-0.054,0.898-0.162c0.281-0.108,0.527-0.285,0.738-0.531c0.211-0.246,0.377-0.565,0.498-0.958
			S420.92,149.883,420.92,149.322z M432.969,159.017c0,0.725-0.111,1.372-0.336,1.941c-0.225,0.569-0.523,1.05-0.9,1.443
			c-0.375,0.393-0.811,0.692-1.307,0.899c-0.496,0.208-1.016,0.311-1.559,0.311c-0.588,0-1.129-0.104-1.625-0.311
			c-0.496-0.207-0.93-0.506-1.301-0.899c-0.371-0.393-0.66-0.874-0.867-1.443c-0.207-0.57-0.311-1.217-0.311-1.941
			c0-0.742,0.104-1.404,0.311-1.987s0.496-1.072,0.867-1.469c0.371-0.396,0.805-0.699,1.301-0.906s1.037-0.311,1.625-0.311
			c0.578,0,1.117,0.104,1.617,0.311s0.936,0.509,1.307,0.906c0.371,0.397,0.66,0.887,0.867,1.469S432.969,158.274,432.969,159.017z
			 M431.184,159.017c0-0.57-0.061-1.055-0.182-1.456c-0.121-0.401-0.287-0.727-0.498-0.978c-0.211-0.25-0.457-0.431-0.738-0.543
			c-0.279-0.112-0.58-0.168-0.898-0.168c-0.32,0-0.619,0.057-0.9,0.168c-0.281,0.112-0.523,0.293-0.73,0.543
			c-0.207,0.25-0.369,0.576-0.486,0.978c-0.117,0.401-0.174,0.886-0.174,1.456c0,0.561,0.057,1.035,0.174,1.423
			c0.117,0.389,0.279,0.706,0.486,0.952c0.207,0.246,0.449,0.423,0.73,0.53c0.281,0.108,0.58,0.162,0.9,0.162
			c0.318,0,0.619-0.054,0.898-0.162c0.281-0.107,0.527-0.285,0.738-0.53c0.211-0.246,0.377-0.563,0.498-0.952
			C431.123,160.052,431.184,159.578,431.184,159.017z"/>
	</g>
	<g>
		<path fill="#FFFFFF" d="M345.428,146.648c0.431,0,0.828,0.062,1.192,0.185s0.678,0.298,0.94,0.525
			c0.262,0.227,0.467,0.501,0.614,0.823c0.146,0.322,0.22,0.679,0.22,1.071c0,0.322-0.042,0.609-0.124,0.862
			c-0.083,0.253-0.201,0.475-0.355,0.667c-0.154,0.191-0.339,0.354-0.557,0.486c-0.218,0.132-0.461,0.239-0.731,0.319
			c0.662,0.175,1.16,0.468,1.494,0.88s0.5,0.927,0.5,1.547c0,0.468-0.089,0.889-0.266,1.263c-0.177,0.374-0.42,0.692-0.727,0.955
			c-0.308,0.262-0.666,0.463-1.075,0.603c-0.409,0.139-0.848,0.209-1.316,0.209c-0.539,0-1-0.067-1.384-0.202
			c-0.383-0.135-0.707-0.32-0.972-0.557c-0.265-0.237-0.483-0.517-0.653-0.841c-0.17-0.324-0.315-0.675-0.433-1.054l0.54-0.227
			c0.099-0.042,0.199-0.064,0.298-0.064c0.095,0,0.179,0.02,0.252,0.061c0.073,0.04,0.129,0.103,0.167,0.188
			c0.01,0.019,0.019,0.039,0.028,0.06c0.01,0.021,0.019,0.044,0.029,0.067c0.066,0.137,0.146,0.292,0.241,0.465
			c0.094,0.173,0.222,0.334,0.383,0.486c0.161,0.152,0.361,0.279,0.6,0.383s0.536,0.156,0.891,0.156
			c0.354,0,0.666-0.058,0.933-0.174c0.267-0.116,0.489-0.266,0.667-0.451c0.177-0.185,0.311-0.39,0.401-0.617
			c0.089-0.227,0.135-0.452,0.135-0.674c0-0.274-0.037-0.525-0.11-0.752s-0.206-0.423-0.397-0.589
			c-0.192-0.166-0.457-0.295-0.795-0.39s-0.772-0.142-1.302-0.142v-0.922c0.43,0,0.798-0.045,1.103-0.135s0.555-0.213,0.749-0.369
			c0.194-0.156,0.335-0.343,0.422-0.561c0.087-0.217,0.131-0.458,0.131-0.724c0-0.293-0.046-0.549-0.139-0.766
			c-0.092-0.218-0.219-0.397-0.379-0.54c-0.161-0.142-0.351-0.248-0.571-0.319c-0.22-0.071-0.458-0.106-0.713-0.106
			s-0.492,0.038-0.709,0.113c-0.218,0.076-0.411,0.181-0.578,0.315c-0.168,0.135-0.309,0.295-0.422,0.482
			c-0.114,0.187-0.199,0.389-0.255,0.606c-0.038,0.137-0.095,0.236-0.17,0.298c-0.076,0.061-0.173,0.092-0.291,0.092
			c-0.023,0-0.048-0.001-0.074-0.003c-0.026-0.002-0.056-0.006-0.089-0.01l-0.66-0.112c0.066-0.463,0.194-0.874,0.383-1.231
			c0.189-0.357,0.43-0.656,0.72-0.898c0.291-0.241,0.625-0.424,1-0.55C344.587,146.711,344.993,146.648,345.428,146.648z"/>
		<path fill="#FFFFFF" d="M353.367,157.042c-0.506,0-0.97-0.067-1.391-0.202s-0.783-0.327-1.085-0.578
			c-0.303-0.25-0.537-0.555-0.702-0.912c-0.166-0.357-0.249-0.758-0.249-1.203c0-0.653,0.17-1.191,0.511-1.614
			c0.341-0.423,0.828-0.725,1.462-0.905c-0.535-0.199-0.938-0.496-1.21-0.891c-0.272-0.395-0.408-0.867-0.408-1.416
			c0-0.374,0.073-0.724,0.22-1.05c0.146-0.327,0.355-0.61,0.625-0.852s0.592-0.43,0.968-0.567s0.796-0.206,1.259-0.206
			c0.459,0,0.877,0.069,1.256,0.206s0.703,0.326,0.972,0.567s0.478,0.525,0.625,0.852c0.146,0.326,0.22,0.676,0.22,1.05
			c0,0.549-0.137,1.021-0.411,1.416c-0.274,0.395-0.677,0.692-1.207,0.891c0.634,0.18,1.121,0.481,1.462,0.905
			c0.34,0.423,0.511,0.961,0.511,1.614c0,0.444-0.084,0.845-0.252,1.203c-0.168,0.357-0.402,0.661-0.703,0.912
			c-0.3,0.251-0.661,0.443-1.082,0.578C354.337,156.975,353.874,157.042,353.367,157.042z M353.367,156.035
			c0.331,0,0.628-0.046,0.891-0.138s0.485-0.223,0.667-0.391c0.182-0.167,0.322-0.369,0.418-0.603
			c0.097-0.234,0.146-0.493,0.146-0.777c0-0.35-0.058-0.649-0.174-0.897s-0.272-0.451-0.468-0.606
			c-0.196-0.156-0.422-0.271-0.678-0.344c-0.255-0.073-0.522-0.11-0.802-0.11c-0.279,0-0.546,0.037-0.802,0.11
			c-0.255,0.073-0.481,0.188-0.677,0.344c-0.196,0.156-0.353,0.358-0.468,0.606c-0.116,0.249-0.174,0.547-0.174,0.897
			c0,0.284,0.048,0.543,0.146,0.777c0.097,0.234,0.236,0.436,0.418,0.603c0.182,0.168,0.404,0.298,0.667,0.391
			C352.739,155.989,353.036,156.035,353.367,156.035z M353.367,151.154c0.331,0,0.614-0.051,0.848-0.153
			c0.234-0.102,0.424-0.236,0.571-0.404c0.146-0.168,0.253-0.361,0.319-0.578c0.066-0.218,0.099-0.442,0.099-0.674
			c0-0.236-0.039-0.458-0.117-0.667c-0.078-0.208-0.194-0.39-0.348-0.546c-0.154-0.156-0.345-0.279-0.575-0.369
			s-0.496-0.135-0.798-0.135s-0.569,0.045-0.798,0.135c-0.229,0.09-0.421,0.213-0.575,0.369c-0.154,0.156-0.27,0.338-0.348,0.546
			c-0.078,0.208-0.117,0.431-0.117,0.667c0,0.232,0.033,0.457,0.099,0.674c0.066,0.217,0.173,0.41,0.319,0.578
			s0.337,0.303,0.571,0.404C352.753,151.103,353.036,151.154,353.367,151.154z"/>
		<path fill="#FFFFFF" d="M362.506,149.217c0,0.397-0.062,0.753-0.184,1.067c-0.123,0.315-0.288,0.58-0.494,0.795
			c-0.205,0.215-0.445,0.379-0.72,0.493c-0.274,0.113-0.561,0.17-0.858,0.17c-0.322,0-0.619-0.057-0.891-0.17
			c-0.272-0.114-0.51-0.278-0.713-0.493c-0.204-0.215-0.362-0.48-0.476-0.795c-0.114-0.314-0.17-0.67-0.17-1.067
			c0-0.407,0.057-0.769,0.17-1.086c0.113-0.317,0.272-0.584,0.476-0.802c0.203-0.217,0.441-0.383,0.713-0.497
			c0.272-0.113,0.569-0.17,0.891-0.17c0.316,0,0.613,0.057,0.891,0.17c0.276,0.114,0.516,0.279,0.717,0.497
			c0.2,0.218,0.359,0.485,0.475,0.802C362.448,148.448,362.506,148.81,362.506,149.217z M366.061,147.017
			c0.062-0.081,0.127-0.143,0.195-0.188s0.16-0.067,0.273-0.067h0.908l-7.429,9.962c-0.047,0.062-0.104,0.111-0.17,0.149
			c-0.066,0.038-0.145,0.057-0.234,0.057h-0.937L366.061,147.017z M361.52,149.217c0-0.312-0.033-0.577-0.1-0.795
			c-0.066-0.217-0.156-0.396-0.272-0.536s-0.251-0.24-0.405-0.302c-0.153-0.061-0.318-0.092-0.493-0.092
			c-0.175,0-0.34,0.031-0.493,0.092c-0.154,0.062-0.288,0.162-0.401,0.302c-0.114,0.14-0.202,0.318-0.266,0.536
			c-0.064,0.218-0.096,0.482-0.096,0.795c0,0.307,0.032,0.569,0.096,0.784c0.064,0.215,0.152,0.39,0.266,0.525
			c0.113,0.135,0.247,0.231,0.401,0.291c0.153,0.06,0.318,0.089,0.493,0.089c0.175,0,0.339-0.029,0.493-0.089
			c0.154-0.059,0.289-0.156,0.405-0.291c0.116-0.135,0.206-0.31,0.272-0.525C361.486,149.786,361.52,149.524,361.52,149.217z
			 M368.125,154.531c0,0.397-0.061,0.752-0.184,1.064c-0.123,0.312-0.287,0.576-0.494,0.791c-0.205,0.215-0.443,0.38-0.717,0.493
			c-0.271,0.114-0.557,0.17-0.854,0.17c-0.322,0-0.619-0.057-0.891-0.17c-0.272-0.113-0.51-0.278-0.713-0.493
			c-0.204-0.215-0.362-0.479-0.477-0.791c-0.113-0.312-0.17-0.667-0.17-1.064c0-0.407,0.057-0.77,0.17-1.089
			c0.114-0.319,0.272-0.588,0.477-0.805c0.203-0.218,0.44-0.383,0.713-0.497c0.271-0.113,0.568-0.17,0.891-0.17
			c0.316,0,0.611,0.057,0.887,0.17c0.273,0.114,0.512,0.279,0.717,0.497c0.203,0.217,0.361,0.486,0.475,0.805
			S368.125,154.124,368.125,154.531z M367.146,154.531c0-0.312-0.033-0.578-0.1-0.798c-0.066-0.22-0.156-0.398-0.273-0.536
			c-0.115-0.137-0.25-0.237-0.404-0.298s-0.318-0.092-0.492-0.092c-0.176,0-0.34,0.031-0.494,0.092s-0.287,0.161-0.4,0.298
			s-0.202,0.315-0.266,0.536c-0.064,0.22-0.096,0.486-0.096,0.798c0,0.308,0.031,0.568,0.096,0.781
			c0.063,0.213,0.152,0.387,0.266,0.521s0.246,0.232,0.4,0.291s0.318,0.088,0.494,0.088c0.174,0,0.338-0.029,0.492-0.088
			s0.289-0.156,0.404-0.291c0.117-0.135,0.207-0.309,0.273-0.521S367.146,154.838,367.146,154.531z"/>
	</g>
	<g>
		<path fill="#FFFFFF" d="M582.438,32.729c2.062,0,3.924,0.294,5.584,0.881c1.658,0.588,3.076,1.403,4.252,2.444
			c1.176,1.042,2.078,2.263,2.707,3.665c0.629,1.403,0.943,2.918,0.943,4.547c0,1.423-0.16,2.676-0.48,3.758
			s-0.783,2.026-1.391,2.83c-0.609,0.804-1.352,1.485-2.229,2.042c-0.875,0.557-1.871,1.021-2.984,1.392
			c2.68,0.846,4.682,2.134,6,3.866c1.32,1.732,1.98,3.908,1.98,6.527c0,2.227-0.412,4.196-1.236,5.908
			c-0.826,1.712-1.939,3.15-3.342,4.315c-1.402,1.166-3.025,2.047-4.871,2.645c-1.846,0.598-3.799,0.897-5.861,0.897
			c-2.248,0-4.207-0.258-5.877-0.773s-3.123-1.278-4.361-2.289c-1.236-1.01-2.289-2.247-3.154-3.712
			c-0.867-1.464-1.609-3.155-2.227-5.073l3.371-1.392c0.576-0.248,1.164-0.371,1.762-0.371c0.537,0,1.016,0.113,1.439,0.34
			c0.422,0.228,0.746,0.557,0.975,0.99c0.371,0.722,0.777,1.433,1.221,2.134s0.975,1.325,1.594,1.871
			c0.617,0.547,1.346,0.99,2.18,1.33c0.836,0.34,1.83,0.51,2.984,0.51c1.301,0,2.434-0.211,3.402-0.634
			c0.971-0.422,1.779-0.975,2.43-1.655c0.648-0.681,1.133-1.438,1.453-2.274c0.318-0.835,0.479-1.675,0.479-2.521
			c0-1.072-0.113-2.046-0.34-2.923c-0.227-0.876-0.701-1.624-1.422-2.242c-0.723-0.619-1.76-1.103-3.109-1.454
			c-1.35-0.35-3.16-0.526-5.428-0.526v-5.475c1.875,0,3.434-0.165,4.67-0.495c1.238-0.33,2.223-0.789,2.955-1.376
			c0.73-0.587,1.24-1.293,1.529-2.119c0.289-0.825,0.434-1.732,0.434-2.722c0-2.124-0.578-3.727-1.732-4.81
			s-2.732-1.624-4.732-1.624c-1.814,0-3.32,0.479-4.516,1.437s-2.031,2.188-2.506,3.691c-0.246,0.783-0.586,1.345-1.02,1.684
			c-0.434,0.34-1,0.51-1.701,0.51c-0.33,0-0.682-0.031-1.053-0.091l-4.02-0.701c0.309-2.145,0.906-4.027,1.793-5.646
			c0.887-1.619,1.996-2.97,3.326-4.053c1.33-1.083,2.855-1.897,4.576-2.444C578.607,33.002,580.457,32.729,582.438,32.729z"/>
		<path fill="#FFFFFF" d="M616.924,78.445c-2.309,0-4.418-0.31-6.324-0.928c-1.908-0.619-3.541-1.495-4.902-2.629
			s-2.418-2.506-3.17-4.114c-0.754-1.608-1.131-3.402-1.131-5.382c0-2.639,0.65-4.872,1.949-6.697
			c1.299-1.825,3.32-3.181,6.062-4.067c-2.186-0.907-3.82-2.196-4.902-3.867c-1.082-1.67-1.623-3.681-1.623-6.031
			c0-1.691,0.344-3.268,1.035-4.733c0.691-1.464,1.654-2.737,2.893-3.82c1.236-1.083,2.717-1.928,4.438-2.537
			c1.723-0.608,3.615-0.912,5.676-0.912c2.062,0,3.955,0.304,5.676,0.912c1.723,0.609,3.201,1.454,4.439,2.537
			c1.236,1.083,2.201,2.356,2.893,3.82c0.689,1.465,1.035,3.042,1.035,4.733c0,2.351-0.547,4.361-1.639,6.031
			c-1.094,1.67-2.723,2.959-4.887,3.867c2.742,0.887,4.762,2.243,6.062,4.067c1.299,1.825,1.947,4.058,1.947,6.697
			c0,1.979-0.375,3.773-1.129,5.382c-0.752,1.608-1.809,2.98-3.17,4.114s-2.996,2.01-4.902,2.629
			C621.342,78.136,619.234,78.445,616.924,78.445z M616.924,72.475c1.258,0,2.361-0.18,3.311-0.541
			c0.947-0.361,1.748-0.861,2.396-1.5c0.65-0.639,1.139-1.402,1.469-2.289s0.496-1.845,0.496-2.877c0-2.454-0.682-4.31-2.041-5.567
			c-1.361-1.258-3.238-1.887-5.631-1.887c-2.391,0-4.268,0.629-5.629,1.887s-2.041,3.114-2.041,5.567
			c0,1.032,0.164,1.99,0.494,2.877s0.82,1.65,1.471,2.289c0.648,0.639,1.447,1.139,2.396,1.5
			C614.562,72.295,615.666,72.475,616.924,72.475z M616.924,51.813c1.238,0,2.279-0.196,3.125-0.587s1.525-0.913,2.041-1.562
			c0.516-0.65,0.881-1.392,1.098-2.227c0.217-0.835,0.326-1.696,0.326-2.583c0-0.845-0.135-1.649-0.402-2.413
			c-0.27-0.763-0.672-1.438-1.207-2.026c-0.537-0.588-1.217-1.057-2.041-1.408c-0.826-0.35-1.805-0.526-2.939-0.526
			c-1.133,0-2.113,0.176-2.938,0.526c-0.824,0.351-1.512,0.82-2.057,1.408c-0.547,0.587-0.949,1.263-1.207,2.026
			c-0.258,0.763-0.387,1.567-0.387,2.413c0,0.887,0.109,1.748,0.326,2.583c0.215,0.835,0.582,1.577,1.098,2.227
			c0.514,0.649,1.195,1.17,2.041,1.562S615.688,51.813,616.924,51.813z"/>
		<path fill="#FFFFFF" d="M656.203,44.049c0,1.691-0.283,3.217-0.85,4.578c-0.568,1.361-1.326,2.521-2.273,3.48
			c-0.949,0.959-2.053,1.696-3.311,2.211c-1.258,0.516-2.566,0.773-3.928,0.773c-1.484,0-2.857-0.257-4.113-0.773
			c-1.26-0.515-2.348-1.252-3.264-2.211c-0.918-0.959-1.635-2.119-2.15-3.48c-0.516-1.361-0.773-2.887-0.773-4.578
			c0-1.732,0.258-3.299,0.773-4.702c0.516-1.402,1.232-2.587,2.15-3.557c0.916-0.969,2.004-1.717,3.264-2.243
			c1.256-0.525,2.629-0.789,4.113-0.789s2.861,0.263,4.129,0.789c1.268,0.526,2.365,1.274,3.295,2.243
			c0.928,0.97,1.648,2.155,2.164,3.557C655.945,40.75,656.203,42.317,656.203,44.049z M671.08,34.43
			c0.248-0.31,0.557-0.588,0.928-0.835c0.371-0.247,0.887-0.371,1.547-0.371h5.537l-33.219,43.583
			c-0.248,0.33-0.562,0.603-0.943,0.82c-0.383,0.216-0.842,0.325-1.377,0.325h-5.691L671.08,34.43z M650.295,44.049
			c0-1.196-0.113-2.196-0.34-3s-0.541-1.454-0.943-1.949c-0.402-0.495-0.877-0.851-1.422-1.067
			c-0.547-0.217-1.129-0.325-1.748-0.325s-1.197,0.108-1.732,0.325c-0.537,0.216-1,0.572-1.393,1.067
			c-0.391,0.495-0.695,1.145-0.912,1.949s-0.324,1.805-0.324,3c0,1.155,0.107,2.119,0.324,2.892s0.521,1.397,0.912,1.871
			c0.393,0.475,0.855,0.815,1.393,1.021c0.535,0.207,1.113,0.309,1.732,0.309s1.201-0.103,1.748-0.309
			c0.545-0.206,1.02-0.546,1.422-1.021c0.402-0.474,0.717-1.098,0.943-1.871S650.295,45.205,650.295,44.049z M681.443,67.434
			c0,1.691-0.285,3.217-0.852,4.578c-0.566,1.361-1.324,2.521-2.273,3.48s-2.053,1.701-3.309,2.227
			c-1.26,0.526-2.568,0.789-3.93,0.789c-1.484,0-2.855-0.263-4.113-0.789s-2.346-1.268-3.264-2.227s-1.635-2.119-2.148-3.48
			c-0.516-1.361-0.773-2.887-0.773-4.578c0-1.732,0.258-3.299,0.773-4.702c0.514-1.402,1.23-2.587,2.148-3.557
			c0.918-0.969,2.006-1.717,3.264-2.243s2.629-0.789,4.113-0.789s2.861,0.263,4.131,0.789c1.268,0.526,2.365,1.273,3.293,2.243
			c0.928,0.97,1.65,2.155,2.166,3.557C681.184,64.134,681.443,65.701,681.443,67.434z M675.566,67.434c0-1.196-0.119-2.196-0.355-3
			c-0.238-0.804-0.559-1.454-0.959-1.949c-0.402-0.495-0.877-0.851-1.424-1.067c-0.547-0.217-1.129-0.325-1.748-0.325
			c-0.617,0-1.195,0.108-1.73,0.325c-0.537,0.216-0.996,0.572-1.377,1.067c-0.383,0.495-0.686,1.145-0.912,1.949
			c-0.229,0.804-0.342,1.805-0.342,3c0,1.155,0.113,2.124,0.342,2.907c0.227,0.784,0.529,1.413,0.912,1.887
			c0.381,0.475,0.84,0.814,1.377,1.021c0.535,0.207,1.113,0.31,1.73,0.31c0.619,0,1.201-0.103,1.748-0.31
			c0.547-0.206,1.021-0.546,1.424-1.021c0.4-0.474,0.721-1.103,0.959-1.887C675.447,69.558,675.566,68.588,675.566,67.434z"/>
	</g>
	<path fill="#FFFFFF" d="M551.936,108.296l-18.139-9.91l1.119,5.221c-57.895,13.99-111.51,31.516-169.494,35.488
		c58.248-2.262,115.148-9.205,173.305-17.731l1.217,5.679L551.936,108.296z"/>
	<g>
		<g>
			<g>
				<path fill="#CECECE" d="M574.365,87.53h110.916c11.42,0,20.676,10.199,20.676,22.797c0,0.531-0.025,1.068-0.07,1.58
					c-0.74,11.872-9.674,21.231-20.605,21.231H574.365c-10.939,0-19.889-9.359-20.607-21.231c-0.027-0.512-0.078-1.049-0.078-1.58
					C553.68,97.729,562.938,87.53,574.365,87.53z"/>
				<path fill="#ED1C24" d="M577.17,90.699h105.307c10.842,0,19.629,8.782,19.629,19.628c0,0.458-0.023,0.919-0.068,1.36
					c-0.705,10.225-9.18,18.283-19.561,18.283H577.17c-10.387,0-18.879-8.059-19.562-18.283c-0.023-0.441-0.076-0.902-0.076-1.36
					C557.531,99.481,566.32,90.699,577.17,90.699z"/>
				<path fill="#CECECE" d="M667.145,110.327c0,8.563,6.951,15.495,15.506,15.495c8.557,0,15.498-6.932,15.498-15.495
					c0-8.559-6.941-15.497-15.498-15.497C674.096,94.83,667.145,101.769,667.145,110.327z"/>
			</g>
		</g>
		<path fill-rule="evenodd" clip-rule="evenodd" fill="#AE1F24" d="M682.262,122.989c-0.988-1.981-1.912-3.998-2.99-5.929
			c-0.49-0.881-1.152-1.771-1.953-2.354c-3.305-2.403-4.77-6.523-3.551-10.403c1.217-3.883,4.834-6.553,8.838-6.523
			c4.127,0.029,7.617,2.684,8.852,6.728c1.143,3.763-0.381,7.884-3.648,10.227c-0.764,0.547-1.4,1.381-1.861,2.214
			c-1.094,1.978-2.047,4.033-3.059,6.058C682.68,123,682.471,122.994,682.262,122.989z M682.504,99.856
			c-3.898,0.031-7.139,3.295-7.139,7.189c0,3.985,3.301,7.249,7.285,7.204c3.924-0.043,7.127-3.27,7.137-7.187
			C689.803,103.103,686.486,99.824,682.504,99.856z"/>
		<path fill="#FFFFFF" d="M675.426,107.104c0,4.002,3.246,7.249,7.252,7.249c3.996,0,7.238-3.247,7.238-7.249
			c0-4.005-3.242-7.25-7.238-7.25C678.672,99.854,675.426,103.1,675.426,107.104z"/>
		<path fill="#AE1F24" d="M678.975,106.899c0,1.998,1.611,3.641,3.631,3.641c2,0,3.643-1.643,3.643-3.641
			c0-2.001-1.643-3.639-3.643-3.639C680.586,103.261,678.975,104.898,678.975,106.899z"/>
		<g>
			<path fill="#FFFFFF" d="M585.205,116.542c-0.979,0.351-2.91,0.928-5.191,0.928c-2.561,0-4.666-0.652-6.322-2.233
				c-1.455-1.405-2.357-3.663-2.357-6.296c0.023-5.042,3.486-8.729,9.156-8.729c1.955,0,3.486,0.426,4.213,0.777l-0.525,1.781
				c-0.904-0.401-2.033-0.728-3.738-0.728c-4.113,0-6.799,2.559-6.799,6.798c0,4.29,2.584,6.823,6.523,6.823
				c1.43,0,2.408-0.201,2.908-0.452v-5.042h-3.436v-1.756h5.568V116.542z"/>
			<path fill="#FFFFFF" d="M595.393,117.295l-0.176-1.53h-0.074c-0.678,0.953-1.982,1.806-3.713,1.806
				c-2.459,0-3.713-1.731-3.713-3.487c0-2.935,2.609-4.541,7.299-4.516v-0.25c0-1.003-0.275-2.81-2.76-2.81
				c-1.127,0-2.307,0.351-3.16,0.903l-0.502-1.455c1.004-0.652,2.459-1.079,3.988-1.079c3.713,0,4.617,2.534,4.617,4.967v4.54
				c0,1.054,0.049,2.083,0.199,2.91H595.393z M595.066,111.099c-2.408-0.05-5.143,0.376-5.143,2.734c0,1.43,0.953,2.107,2.082,2.107
				c1.58,0,2.584-1.003,2.936-2.032c0.074-0.226,0.125-0.477,0.125-0.702V111.099z"/>
			<path fill="#FFFFFF" d="M610.922,113.983c0,1.254,0.025,2.358,0.1,3.312h-1.955l-0.127-1.982h-0.049
				c-0.578,0.979-1.857,2.258-4.014,2.258c-1.906,0-4.189-1.054-4.189-5.318v-7.1h2.207v6.723c0,2.308,0.703,3.863,2.709,3.863
				c1.48,0,2.51-1.029,2.91-2.007c0.125-0.326,0.201-0.728,0.201-1.129v-7.451h2.207V113.983z"/>
			<path fill="#FFFFFF" d="M617.244,101.667v3.487h3.162v1.681h-3.162v6.547c0,1.505,0.428,2.358,1.656,2.358
				c0.576,0,1.004-0.075,1.279-0.151l0.1,1.656c-0.426,0.176-1.104,0.301-1.955,0.301c-1.029,0-1.857-0.326-2.385-0.928
				c-0.627-0.652-0.852-1.731-0.852-3.161v-6.623h-1.883v-1.681h1.883v-2.91L617.244,101.667z"/>
			<path fill="#FFFFFF" d="M623.969,111.625c0.051,2.985,1.957,4.214,4.164,4.214c1.58,0,2.533-0.276,3.361-0.627l0.377,1.58
				c-0.777,0.352-2.107,0.753-4.039,0.753c-3.738,0-5.971-2.458-5.971-6.121c0-3.662,2.158-6.547,5.695-6.547
				c3.963,0,5.018,3.487,5.018,5.72c0,0.452-0.051,0.803-0.076,1.028H623.969z M630.441,110.045
				c0.025-1.405-0.578-3.587-3.061-3.587c-2.232,0-3.211,2.057-3.387,3.587H630.441z"/>
			<path fill="#FFFFFF" d="M635.309,108.44c0-1.254-0.025-2.283-0.1-3.287h1.957l0.125,2.007h0.051
				c0.602-1.154,2.006-2.283,4.014-2.283c1.68,0,4.289,1.003,4.289,5.168v7.25h-2.207v-6.999c0-1.957-0.729-3.587-2.811-3.587
				c-1.455,0-2.584,1.028-2.959,2.258c-0.102,0.276-0.15,0.652-0.15,1.028v7.3h-2.209V108.44z"/>
			<path fill="#FFFFFF" d="M659.693,105.153c-0.051,0.878-0.1,1.856-0.1,3.336v7.049c0,2.784-0.553,4.49-1.73,5.544
				c-1.18,1.104-2.885,1.455-4.416,1.455c-1.455,0-3.061-0.351-4.039-1.003l0.553-1.681c0.803,0.502,2.057,0.953,3.562,0.953
				c2.258,0,3.912-1.179,3.912-4.239v-1.354h-0.049c-0.678,1.129-1.982,2.032-3.863,2.032c-3.012,0-5.168-2.559-5.168-5.92
				c0-4.114,2.684-6.447,5.469-6.447c2.107,0,3.26,1.104,3.787,2.107h0.051l0.1-1.832H659.693z M657.41,109.945
				c0-0.376-0.023-0.702-0.125-1.003c-0.4-1.279-1.48-2.333-3.086-2.333c-2.105,0-3.611,1.781-3.611,4.591
				c0,2.383,1.203,4.365,3.588,4.365c1.354,0,2.582-0.853,3.059-2.258c0.127-0.376,0.176-0.803,0.176-1.179V109.945z"/>
		</g>
	</g>
	<g>
		<path fill-rule="evenodd" clip-rule="evenodd" fill="#465560" d="M366.809,146.391c-1.029-2.065-1.99-4.169-3.116-6.183
			c-0.511-0.918-1.2-1.846-2.036-2.453c-3.443-2.508-4.971-6.801-3.702-10.848c1.271-4.049,5.039-6.832,9.214-6.801
			c4.301,0.031,7.943,2.798,9.229,7.014c1.189,3.924-0.396,8.22-3.803,10.662c-0.797,0.57-1.461,1.44-1.941,2.309
			c-1.141,2.062-2.133,4.205-3.189,6.315C367.244,146.401,367.027,146.396,366.809,146.391z M367.062,122.272
			c-4.062,0.032-7.442,3.436-7.442,7.496c0,4.154,3.442,7.557,7.595,7.509c4.094-0.043,7.43-3.408,7.439-7.491
			C374.672,125.656,371.217,122.238,367.062,122.272z"/>
		<path fill="#D9D9D9" d="M359.686,129.829c0,4.172,3.382,7.558,7.559,7.558c4.164,0,7.547-3.386,7.547-7.558
			c0-4.176-3.383-7.559-7.547-7.559C363.067,122.271,359.686,125.653,359.686,129.829z"/>
		<path fill="#465560" d="M363.382,129.614c0,2.084,1.683,3.797,3.786,3.797c2.086,0,3.795-1.713,3.795-3.797
			c0-2.086-1.709-3.794-3.795-3.794C365.064,125.82,363.382,127.528,363.382,129.614z"/>
	</g>
</g>
</svg>
