<?xml version="1.0" encoding="utf-8"?>
<!-- Generator: Adobe Illustrator 16.0.0, SVG Export Plug-In . SVG Version: 6.00 Build 0)  -->
<!DOCTYPE svg PUBLIC "-//W3C//DTD SVG 1.1//EN" "http://www.w3.org/Graphics/SVG/1.1/DTD/svg11.dtd">
<svg version="1.1" id="Layer_1" xmlns="http://www.w3.org/2000/svg" xmlns:xlink="http://www.w3.org/1999/xlink" x="0px" y="0px"
	 width="126.506px" height="106.814px" viewBox="0 0 126.506 106.814" enable-background="new 0 0 126.506 106.814"
	 xml:space="preserve">
<path fill="#FFFFFF" d="M114.471,47.587l-0.835-5.58c-1.887-11.125-6.235-28.044-7.693-31.705c-1.458-3.661-3.556-2.435-4.349-1.632
	C100.8,9.473,94.089,15.721,87.67,20.1c-6.42,4.379-11.931,9.318-26.125,12.804c-14.196,3.486-33.769,6.861-37.976,7.716
	l5.559,37.273c1.798-0.172,6.332-0.712,12.062-1.339c1.581,1.425,3.797-0.091,5.178,6.492c1.579,7.521,0.986,18.351,2.038,20.816
	c1.053,2.467,10.874-1.278,13.464-3.032c2.59-1.757,3.837-4.122,2.687-12.854c-0.94-7.126,1.064-11.51,2.735-13.761
	c0.137-0.007,0.275-0.016,0.411-0.023c14.594-0.808,20.906-0.391,28.323,1.925c7.417,2.317,15.84,4.483,16.832,5.019
	c0.992,0.538,3.265,2.037,3.685-2.829C116.882,74.381,116.197,59.695,114.471,47.587z"/>
<path fill="#333333" stroke="#333333" stroke-width="0.1128" stroke-miterlimit="10" d="M119.902,46.211
	c-2.747-22.623-10.132-40.812-12.806-42.697c-2.802-1.978-5.914,3.164-6.285,5.273c0,0-0.097,0.34-0.242,0.854
	c0.521-0.482,0.875-0.822,1.024-0.972c0.793-0.803,2.891-2.028,4.349,1.632c1.458,3.661,5.807,20.58,7.693,31.705l0.835,5.58
	c2.483,17.426,2.042,28.08,1.808,32.015c-0.13,2.186-1.268,1.952-2.4,2.008c1.364,1.506,3.902,3.47,6.342,0.711
	C122.408,79.848,122.61,68.504,119.902,46.211z"/>
<path fill="#0E5461" d="M27.443,59.231l2.81,19.432c0,0,0,0-1.955,0.204c-1.952,0.201-16.857-0.443-18.7-0.608
	c-1.296-0.114-5.632-12.037-5.907-13.583l-0.555-3.72c-0.189-1.558,0.479-14.227,1.685-14.715
	c1.714-0.697,15.781-5.662,17.709-6.037s1.928-0.375,1.928-0.375L27.443,59.231z"/>
<g>
	<path fill="#0E5461" d="M69.184,51.985c-1.983,0.326-3.965,0.663-5.948,0.997c-2.179,0.364-4.357,0.728-6.534,1.1
		c-0.292,0.049-0.645,0.022-0.779,0.396c-0.265,0.735,0.304,1.771,1.083,1.963c1.622,0.398,3.237,0.83,4.872,1.169
		c0.685,0.143,0.804,0.411,0.741,1.083c-0.545,5.703,4.624,9.861,10.083,8.144c3.616-1.136,5.932-5.15,5.081-8.806
		C76.81,53.869,73.193,51.324,69.184,51.985z M70.797,63.146c-2.048,0.326-3.822-0.983-4.142-3.055
		c-0.316-2.059,0.986-3.825,3.059-4.154c2.019-0.319,3.823,1.016,4.147,3.069C74.186,61.043,72.873,62.814,70.797,63.146z"/>
	<path fill="#0E5461" d="M92.384,53.882c-1.92-7.271-6.403-12.374-13.244-15.405c-3.627-1.606-7.451-2.05-11.388-1.688
		c-1.283,0.117-1.387,0.191-1.171,1.494c0.04,0.224,0.075,0.446,0.113,0.669c0.048,0.279,0.093,0.56,0.14,0.838
		c0.203,1.187,0.204,1.191,1.416,1.03c2.901-0.378,5.724-0.022,8.435,1.013c6.012,2.292,9.956,6.552,11.749,12.736
		c0.561,1.935,0.472,1.96,2.426,1.632C92.856,55.866,92.907,55.854,92.384,53.882z"/>
	<path fill="#0E5461" d="M77.156,45.913c-2.682-1.391-5.557-1.856-8.565-1.575c-0.735,0.069-0.99,0.377-0.817,1.107
		c0.154,0.661,0.269,1.334,0.333,2.01c0.072,0.719,0.379,0.903,1.112,0.864c5.678-0.302,10.004,2.648,11.817,7.995
		c0.494,1.45,0.494,1.45,2.285,1.15c0.222-0.039,0.444-0.076,0.667-0.114c1.39-0.233,1.452-0.337,1.065-1.707
		C83.806,51.278,81.19,48.006,77.156,45.913z"/>
</g>
</svg>
