<?xml version="1.0" encoding="utf-8"?>
<!-- Generator: Adobe Illustrator 16.0.0, SVG Export Plug-In . SVG Version: 6.00 Build 0)  -->
<!DOCTYPE svg PUBLIC "-//W3C//DTD SVG 1.1//EN" "http://www.w3.org/Graphics/SVG/1.1/DTD/svg11.dtd">
<svg version="1.1" id="Layer_1" xmlns="http://www.w3.org/2000/svg" xmlns:xlink="http://www.w3.org/1999/xlink" x="0px" y="0px"
	 width="431px" height="363.912px" viewBox="0 0 431 363.912" enable-background="new 0 0 431 363.912" xml:space="preserve">
<g>
	<path fill="#FFFFFF" d="M389.035,160.96l-2.787-18.631c-6.301-37.15-20.82-93.643-25.689-105.869
		c-4.868-12.223-11.873-8.131-14.521-5.449c-2.65,2.678-25.062,23.543-46.494,38.166c-21.438,14.623-39.838,31.113-87.238,42.754
		c-47.404,11.64-112.761,22.912-126.81,25.767l18.562,124.46c6.002-0.573,21.143-2.377,40.277-4.471
		c5.277,4.758,12.68-0.305,17.291,21.678c5.271,25.115,3.293,61.275,6.805,69.511c3.516,8.237,36.311-4.269,44.959-10.125
		c8.646-5.867,12.814-13.765,8.972-42.92c-3.142-23.795,3.555-38.435,9.133-45.949c0.457-0.023,0.92-0.053,1.373-0.078
		c48.734-2.697,69.811-1.305,94.576,6.426c24.768,7.738,52.893,14.974,56.205,16.758c3.313,1.797,10.901,6.804,12.305-9.444
		C397.088,250.429,394.801,201.392,389.035,160.96z"/>
	<path d="M407.174,156.366C398,80.825,373.342,20.087,364.412,13.794c-9.355-6.604-19.748,10.566-20.986,17.607
		c0,0-0.322,1.137-0.809,2.854c1.74-1.609,2.922-2.746,3.42-3.244c2.647-2.682,9.652-6.773,14.521,5.449
		c4.869,12.227,19.39,68.719,25.689,105.869l2.787,18.631c8.293,58.188,6.819,93.764,6.037,106.905
		c-0.435,7.298-4.232,6.519-8.017,6.703c4.556,5.029,13.031,11.586,21.177,2.375C415.541,268.685,416.215,230.806,407.174,156.366z"
		/>
	<path d="M98.436,199.843l9.383,64.885c0,0,0,0-6.529,0.682c-6.518,0.673-56.289-1.479-62.443-2.03
		c-4.326-0.381-18.805-40.191-19.723-45.355l-1.852-12.422c-0.633-5.203,1.598-47.506,5.625-49.137
		c5.723-2.328,52.697-18.904,59.133-20.158c6.438-1.254,6.438-1.254,6.438-1.254L98.436,199.843z"/>
	<g>
		<path fill="#ED1C24" d="M237.814,175.646c-6.623,1.088-13.24,2.215-19.863,3.328c-7.273,1.215-14.548,2.43-21.819,3.674
			c-0.975,0.164-2.152,0.076-2.602,1.32c-0.885,2.455,1.014,5.916,3.615,6.555c5.418,1.33,10.811,2.771,16.27,3.906
			c2.285,0.475,2.684,1.371,2.473,3.613c-1.82,19.043,15.439,32.93,33.672,27.194c12.074-3.793,19.808-17.196,16.967-29.405
			C263.279,181.935,251.203,173.437,237.814,175.646z M243.201,212.913c-6.838,1.086-12.764-3.285-13.832-10.203
			c-1.057-6.875,3.293-12.773,10.215-13.871c6.74-1.064,12.768,3.393,13.85,10.248C254.516,205.892,250.135,211.808,243.201,212.913
			z"/>
		<path fill="#ED1C24" d="M315.283,181.982c-6.41-24.279-21.381-41.318-44.225-51.439c-12.111-5.363-24.882-6.846-38.025-5.635
			c-4.285,0.391-4.631,0.637-3.91,4.986c0.131,0.748,0.248,1.49,0.375,2.236c0.16,0.932,0.311,1.867,0.467,2.799
			c0.678,3.965,0.682,3.977,4.729,3.441c9.688-1.264,19.115-0.076,28.168,3.381c20.074,7.654,33.244,21.877,39.232,42.526
			c1.871,6.461,1.574,6.547,8.101,5.449C316.861,188.604,317.031,188.563,315.283,181.982z"/>
		<path fill="#ED1C24" d="M264.436,155.368c-8.953-4.643-18.555-6.199-28.602-5.258c-2.455,0.23-3.303,1.258-2.729,3.697
			c0.516,2.209,0.896,4.457,1.115,6.711c0.239,2.402,1.266,3.016,3.711,2.885c18.963-1.01,33.407,8.844,39.461,26.697
			c1.647,4.842,1.647,4.842,7.631,3.84c0.738-0.131,1.481-0.254,2.227-0.381c4.641-0.777,4.85-1.125,3.557-5.697
			C286.641,173.286,277.906,162.36,264.436,155.368z"/>
	</g>
</g>
</svg>
