<?xml version="1.0" encoding="utf-8"?>
<!-- Generator: Adobe Illustrator 16.0.0, SVG Export Plug-In . SVG Version: 6.00 Build 0)  -->
<!DOCTYPE svg PUBLIC "-//W3C//DTD SVG 1.1//EN" "http://www.w3.org/Graphics/SVG/1.1/DTD/svg11.dtd">
<svg version="1.1" id="Layer_1" xmlns="http://www.w3.org/2000/svg" xmlns:xlink="http://www.w3.org/1999/xlink" x="0px" y="0px"
	 width="126px" height="135px" viewBox="0 0 126 135" enable-background="new 0 0 126 135" xml:space="preserve">
<g>
	<path fill-rule="evenodd" clip-rule="evenodd" fill="#115D6B" d="M0.71,107.553l0.435-33.645l12.641,3.912l34.107-11.444
		l1.55,5.512l2.741-4.092l-6.475-4.98l-3.479-2.679l2.687-3.49l24.088-30.776l2.677-3.479l3.49,2.686l3.545,2.727
		c-0.67-3.037-0.045-6.339,1.986-8.98L91.186,5.202c3.646-4.742,10.513-5.636,15.254-1.986l14.615,11.246
		c4.744,3.646,5.64,10.512,1.99,15.254l-10.479,13.623c-2.033,2.643-5.065,4.089-8.172,4.224l3.106,2.39l3.479,2.676l-2.687,3.492
		L84.207,86.895l-2.678,3.48l-3.491-2.688l-7.049-5.424l-3.979,4.613l6.107,3.711l-3.566,8.479l-4.627-0.717l2.024,5.146
		l-5.425,6.336l-5.888-2.814l2.054,5.883l-5.778,7.6l-6.978-3.863l2.656,6.197l-5.024,6.545l-10.228-2.299l-5.994,6.949
		c-5.121-2.031-9.231-5.137-12.236-9.416l1.215-1.816L0.71,107.553l0.399,1.355L0.71,107.553z M98.646,54.235L73.289,34.727
		L54.562,58.531l25.358,19.51L98.646,54.235z"/>
	<g>
		<path fill="#FFFFFF" d="M72.476,63.894c-1.391,0-2.522-1.132-2.522-2.523c0-1.391,1.132-2.523,2.522-2.523
			c1.392,0,2.523,1.133,2.523,2.523C74.999,62.762,73.867,63.894,72.476,63.894 M72.476,56.047h-9.037v1.674l4.147,1.546
			c-0.278,0.646-0.435,1.356-0.435,2.104c0,2.936,2.389,5.324,5.324,5.324c2.937,0,5.323-2.389,5.323-5.324
			S75.412,56.047,72.476,56.047z"/>
		<path fill="#FFFFFF" d="M83.256,61.37h-2.882c0-4.375-3.56-7.935-7.937-7.935v-2.882C78.402,50.554,83.256,55.407,83.256,61.37"/>
		<path fill="#FFFFFF" d="M88.5,61.37h-2.882c0-7.268-5.913-13.179-13.181-13.179v-2.881C81.294,45.311,88.5,52.515,88.5,61.37"/>
	</g>
</g>
</svg>
