<?xml version="1.0" encoding="utf-8"?>
<!-- Generator: Adobe Illustrator 16.0.0, SVG Export Plug-In . SVG Version: 6.00 Build 0)  -->
<!DOCTYPE svg PUBLIC "-//W3C//DTD SVG 1.1//EN" "http://www.w3.org/Graphics/SVG/1.1/DTD/svg11.dtd">
<svg version="1.1" id="Layer_1" xmlns="http://www.w3.org/2000/svg" xmlns:xlink="http://www.w3.org/1999/xlink" x="0px" y="0px"
	 width="250px" height="267.857px" viewBox="0 0 250 267.857" enable-background="new 0 0 250 267.857" xml:space="preserve">
<g>
	<path fill-rule="evenodd" clip-rule="evenodd" fill="#115D6B" d="M3.7,211.926l0.847-65.518l24.615,7.618l66.419-22.285
		l3.018,10.734l5.339-7.968l-12.608-9.698l-6.774-5.216l5.231-6.797l46.908-59.932l5.212-6.774l6.797,5.229l6.903,5.31
		c-1.305-5.914-0.088-12.344,3.868-17.487l20.412-26.529c7.102-9.234,20.473-10.975,29.705-3.868l28.461,21.9
		c9.238,7.101,10.982,20.47,3.876,29.704l-20.407,26.529c-3.96,5.146-9.864,7.962-15.914,8.225l6.05,4.653l6.775,5.211l-5.231,6.8
		l-46.903,59.93l-5.215,6.777l-6.799-5.233l-13.726-10.562l-7.75,8.983l11.894,7.227l-6.945,16.511l-9.01-1.396l3.941,10.022
		l-10.563,12.338l-11.466-5.48l4,11.456l-11.253,14.799l-13.587-7.523l5.172,12.068l-9.784,12.745l-19.916-4.477l-11.673,13.532
		c-9.973-3.955-17.977-10.003-23.828-18.336l2.365-3.537L3.7,211.926l0.778,2.64L3.7,211.926z M194.416,108.098l-49.379-37.99
		l-36.468,46.355l49.382,37.993L194.416,108.098z"/>
	<g>
		<path fill="#FFFFFF" d="M143.452,126.905c-2.708,0-4.912-2.204-4.912-4.914c0-2.708,2.204-4.914,4.912-4.914
			c2.71,0,4.914,2.206,4.914,4.914C148.366,124.701,146.162,126.905,143.452,126.905 M143.452,111.625h-17.598v3.26l8.076,3.011
			c-0.542,1.259-0.847,2.642-0.847,4.096c0,5.717,4.652,10.368,10.368,10.368c5.719,0,10.366-4.651,10.366-10.368
			C153.818,116.275,149.171,111.625,143.452,111.625z"/>
		<path fill="#FFFFFF" d="M164.445,121.991h-5.612c0-8.52-6.932-15.451-15.455-15.451v-5.611
			C154.994,100.929,164.445,110.38,164.445,121.991"/>
		<path fill="#FFFFFF" d="M174.657,121.991h-5.611c0-14.152-11.515-25.663-25.668-25.663v-5.61
			C160.625,90.718,174.657,104.747,174.657,121.991"/>
	</g>
</g>
</svg>
