<?xml version="1.0" encoding="utf-8"?>
<!-- Generator: Adobe Illustrator 16.0.0, SVG Export Plug-In . SVG Version: 6.00 Build 0)  -->
<!DOCTYPE svg PUBLIC "-//W3C//DTD SVG 1.1//EN" "http://www.w3.org/Graphics/SVG/1.1/DTD/svg11.dtd">
<svg version="1.1" id="Layer_1" xmlns="http://www.w3.org/2000/svg" xmlns:xlink="http://www.w3.org/1999/xlink" x="0px" y="0px"
	 width="141.732px" height="76.536px" viewBox="0 0 141.732 76.536" enable-background="new 0 0 141.732 76.536"
	 xml:space="preserve">
<g>
	<path fill="#FFFFFF" d="M94.896,3.956c-16.943,3.99-30.854,22.577-25.135,43.689c5.354,19.759,25.289,29.983,43.604,25.12
		c17.96-4.771,30.657-23.548,25.241-43.718C132.986,8.111,111.682-1.174,94.896,3.956z"/>
	<path fill="#FFFFFF" d="M53.033,40.918c-5.916,1.189-9.267,7.648-7.85,12.948c1.577,5.89,7.393,9.409,13.159,7.896
		c5.743-1.507,9.297-7.606,7.707-13.312C64.257,42.024,57.311,39.385,53.033,40.918z"/>
	<path fill="#FFFFFF" d="M38.076,56.092c-1.036-3.959-5.034-6.372-8.93-5.388c-4.077,1.029-6.559,5.042-5.577,9.022
		c0.982,3.983,5.129,6.485,9.09,5.486C36.672,64.201,39.119,60.081,38.076,56.092z"/>
	<path fill="#FFFFFF" d="M10.075,63.621c-0.577-2.288-2.713-3.623-4.934-3.085c-2.166,0.527-3.653,2.846-3.192,4.98
		c0.466,2.157,3.046,3.733,5.17,3.159C9.289,68.088,10.625,65.802,10.075,63.621z"/>
	<path fill-rule="evenodd" clip-rule="evenodd" fill="#ED1C24" d="M94.896,3.956c16.786-5.13,38.09,4.156,43.71,25.091
		c5.416,20.17-7.281,38.947-25.241,43.718c-18.314,4.863-38.25-5.361-43.604-25.12C64.042,26.532,77.953,7.945,94.896,3.956z"/>
	<path fill-rule="evenodd" clip-rule="evenodd" fill="#ED1C24" d="M53.033,40.918c4.278-1.533,11.225,1.105,13.017,7.533
		c1.59,5.706-1.964,11.805-7.707,13.312c-5.767,1.513-11.582-2.007-13.159-7.896C43.766,48.566,47.117,42.107,53.033,40.918z"/>
	<path fill-rule="evenodd" clip-rule="evenodd" fill="#ED1C24" d="M38.076,56.092c1.043,3.988-1.403,8.108-5.417,9.12
		c-3.961,0.999-8.107-1.503-9.09-5.486c-0.981-3.979,1.5-7.993,5.577-9.022C33.042,49.721,37.04,52.133,38.076,56.092z"/>
	<path fill-rule="evenodd" clip-rule="evenodd" fill="#ED1C24" d="M10.075,63.621c0.55,2.182-0.786,4.468-2.956,5.055
		c-2.124,0.574-4.704-1.002-5.17-3.159c-0.461-2.135,1.026-4.453,3.192-4.98C7.362,59.998,9.498,61.333,10.075,63.621z"/>
</g>
<g>
	<path fill-rule="evenodd" clip-rule="evenodd" fill="#FFFFFF" d="M80.123,23.762c2.544,1.69,5.079,3.375,7.711,5.126
		c7.822-8.612,17.267-10.543,28.275-5.527c0.857-1.404,1.68-2.702,2.455-4.027c0.76-1.303,1.887-2.404,2.269-3.905
		C106.722,6.42,87.233,12.14,80.123,23.762z M117.342,24.308c4.453,3.171,7.537,7.485,9.042,12.925
		c3.114-0.642,6.044-1.247,8.956-1.848c0.143-6.084-7.88-17-12.908-18.854C120.777,19.059,119.139,21.562,117.342,24.308z
		 M83.144,46.158c0.233-2.92,0.184-5.622,0.73-8.197c0.545-2.571,1.688-5.018,2.646-7.749c-2.416-1.588-4.951-3.256-7.457-4.902
		c-4.572,5.349-6.986,18.023-4.413,22.603C77.502,47.323,80.372,46.731,83.144,46.158z M114.975,33.258
		c-2.543,0.857-4.895,1.34-7.136,2.598c0.656,0.713,1.177,1.276,1.78,1.932c-1.527,1.725-2.974,3.359-4.395,4.963
		c-0.665-0.167-1.172-0.385-1.688-0.41c-1.429-0.068-2.641,0.396-3.343,1.733c-0.637,1.211-0.665,2.432,0.174,3.576
		c0.873,1.19,2.236,1.635,3.73,1.246c1.373-0.357,2.242-1.506,2.428-3.067c0.084-0.696,0.121-1.532,0.52-2.036
		c1.268-1.611,2.694-3.095,4.141-4.719c0.696,0.619,1.284,1.143,2.099,1.87C114.219,38.259,114.482,35.908,114.975,33.258z
		 M139.039,38.584c-0.256-0.873-0.432-1.474-0.619-2.111c-0.756,0.155-1.31,0.27-1.973,0.405c0.161,0.78,0.299,1.443,0.464,2.245
		C137.641,38.938,138.191,38.799,139.039,38.584z M131.068,40.346c0.662-0.079,0.975-0.492,0.839-1.219
		c-0.126-0.68-0.282-1.33-1.228-1.177c-0.727,0.117-1.048,0.507-0.91,1.236C129.896,39.865,130.053,40.528,131.068,40.346z
		 M122.753,39.996c0.815,1.887,0.815,1.887,2.472,1.337c-0.135-0.651-0.271-1.318-0.462-2.237
		C124.001,39.438,123.434,39.69,122.753,39.996z M83.614,48.459c0.486,0.769,0.701,1.506,1.143,1.687
		c0.419,0.173,1.316-0.074,1.564-0.438c0.266-0.385,0.015-1.125-0.015-1.804C85.378,48.096,84.749,48.226,83.614,48.459z
		 M135.281,38.69c-0.142-1.268-0.59-1.587-1.424-1.386c-0.773,0.185-0.871,0.686-0.742,1.367c0.153,0.812,0.6,1.269,1.381,0.915
		C134.909,39.399,135.156,38.842,135.281,38.69z M126.384,38.963c0.253,2.379,0.454,2.497,2.326,1.44
		c-0.165-0.567-0.339-1.166-0.524-1.812C127.49,38.734,126.997,38.837,126.384,38.963z M89.731,43.963
		c-0.83,0.008-1.392,0.013-2.133,0.018c-0.01,0.748-0.018,1.353-0.027,2.097c0.809,0.016,1.418,0.025,2.143,0.041
		C89.721,45.33,89.726,44.762,89.731,43.963z M100.171,28.162c0.747-0.179,1.521-0.206,1.658-1.085
		c0.06-0.387-0.129-1.009-0.422-1.217c-0.721-0.509-1.328-0.079-1.904,0.621C99.698,26.973,99.909,27.5,100.171,28.162z
		 M82.791,50.517c-0.139-0.674-0.251-1.216-0.392-1.896c-0.75,0.198-1.353,0.359-1.932,0.516
		C80.702,51.202,80.729,51.219,82.791,50.517z M76.662,49.928c0.341,0.687,0.485,1.376,0.907,1.683
		c0.277,0.2,1.234-0.006,1.392-0.298c0.25-0.464,0.088-1.15,0.103-1.88C78.176,49.616,77.567,49.742,76.662,49.928z M73.356,50.573
		c0.281,2.097,0.322,2.12,2.332,1.387c-0.117-0.567-0.238-1.155-0.37-1.791C74.604,50.316,74.041,50.433,73.356,50.573z
		 M96.17,27.685c0.464,0.721,0.798,1.24,1.11,1.726c2.031-0.813,2.031-0.813,0.773-2.613C97.51,27.055,96.944,27.32,96.17,27.685z
		 M94.804,31.489c0.624-0.523,1.068-0.896,1.645-1.38c-0.49-0.566-0.898-1.04-1.412-1.637c-0.625,0.514-1.107,0.907-1.693,1.386
		C93.86,30.437,94.247,30.867,94.804,31.489z M106.295,26.826c2.249,0.457,2.414,0.288,1.958-1.842
		c-0.53-0.021-1.09-0.043-1.818-0.073C106.385,25.601,106.344,26.164,106.295,26.826z M93.097,34.061
		c0.414-0.676,0.711-1.162,1.102-1.8c-0.737-0.556-1.234-0.931-1.862-1.404c-0.471,0.666-0.835,1.183-1.263,1.791
		C91.685,33.075,92.157,33.404,93.097,34.061z M120.746,31.773c-0.668-0.616-1.122-1.033-1.701-1.568
		c-0.54,0.638-0.939,1.11-1.416,1.672c0.573,0.509,0.995,0.883,1.492,1.322C119.655,32.731,120.079,32.359,120.746,31.773z
		 M90.39,39.736c0.229-0.789,0.387-1.334,0.59-2.035c-0.717-0.217-1.309-0.396-2.08-0.629c-0.221,0.764-0.393,1.355-0.596,2.055
		C89.032,39.339,89.579,39.5,90.39,39.736z M121.511,32.981c-0.659,0.438-1.174,0.78-1.822,1.212
		c0.445,0.629,0.774,1.096,1.189,1.683c0.647-0.392,1.177-0.711,1.813-1.096C122.289,34.166,122.004,33.734,121.511,32.981z
		 M87.663,42.567c0.867,0.108,1.473,0.186,2.279,0.285c0.022-0.841,0.039-1.453,0.058-2.141c-0.731-0.085-1.288-0.149-1.946-0.228
		C87.927,41.162,87.822,41.719,87.663,42.567z M121.998,38.766c0.861-0.298,1.443-0.498,2.307-0.798
		c-0.429-0.703-0.639-1.367-1.092-1.667c-0.258-0.169-1.211,0.148-1.32,0.443C121.705,37.256,121.928,37.919,121.998,38.766z
		 M87.448,47.58c0.406,0.794,0.585,1.418,0.989,1.807c0.173,0.166,1.112-0.056,1.185-0.275c0.179-0.534,0.057-1.17,0.055-1.891
		C88.91,47.346,88.409,47.426,87.448,47.58z M116.54,27.894c-0.501,0.682-0.874,1.189-1.324,1.803
		c0.618,0.459,1.12,0.834,1.718,1.278c0.504-0.656,0.889-1.156,1.309-1.702C117.656,28.797,117.202,28.432,116.54,27.894z
		 M90.317,33.714c-0.33,0.751-0.58,1.313-0.812,1.843c1.777,1.397,2.035,1.307,2.61-1.076c-0.155-0.04-0.426-0.083-0.671-0.184
		C91.147,34.175,90.869,34.004,90.317,33.714z M112.538,28.012c1.935,1.23,2.133,1.146,2.599-1.006
		c-0.547-0.25-1.121-0.513-1.792-0.82C113.041,26.875,112.807,27.4,112.538,28.012z M112.177,25.687
		c-0.936-0.193-1.552-0.321-2.15-0.445c-0.626,2.075-0.624,2.078,1.506,2.337C111.709,27.062,111.893,26.521,112.177,25.687z
		 M103.26,27.277c0.715-0.147,1.321-0.272,2.114-0.436c-0.188-0.698-0.343-1.278-0.488-1.821
		C102.948,25.193,102.948,25.193,103.26,27.277z"/>
</g>
</svg>
