<?xml version="1.0" encoding="utf-8"?>
<!-- Generator: Adobe Illustrator 16.0.0, SVG Export Plug-In . SVG Version: 6.00 Build 0)  -->
<!DOCTYPE svg PUBLIC "-//W3C//DTD SVG 1.1//EN" "http://www.w3.org/Graphics/SVG/1.1/DTD/svg11.dtd">
<svg version="1.1" id="Layer_1" xmlns="http://www.w3.org/2000/svg" xmlns:xlink="http://www.w3.org/1999/xlink" x="0px" y="0px"
	 width="97.211px" height="140px" viewBox="0 0 97.211 140" enable-background="new 0 0 97.211 140" xml:space="preserve">
<g>
	<path fill="#115D6B" d="M31.101,137.677c-2.846,0-5.162-2.71-5.162-6.042V83.708H22.75v47.927c0,3.332-2.312,6.042-5.154,6.042
		c-2.851,0-5.171-2.71-5.171-6.042V77.59c-0.05-0.427-0.098-0.817-0.098-1.199V45.89H8.525v28.627c0,2.238-1.639,4.06-3.653,4.06
		c-1.997,0-3.622-1.821-3.622-4.06V39.199c0-2.24,2.801-10.244,11.694-10.515l23.567,0.127c7.133,0,11.023,6.532,11.023,9.888v2.515
		l1.146,33.312c0,2.286-2.056,4.539-4.15,4.539c-2.258,0-3.832-2.396-3.832-4.548L39.689,45.89h-3.427v85.745
		C36.263,134.967,33.947,137.677,31.101,137.677z"/>
	<path fill="#FFFFFF" d="M12.943,28.935l23.57,0.127c6.97,0,10.771,6.367,10.771,9.638v0.88l0,1.652l1.146,33.286
		c0,2.169-1.932,4.298-3.9,4.298c-2.05,0-3.582-2.27-3.583-4.315l-1-28.377l-0.017-0.482h-0.483h-2.936h-0.5v0.5v29.915v0.336
		v55.244c0,3.193-2.204,5.792-4.912,5.792s-4.912-2.599-4.912-5.792V83.958v-0.5h-0.5H23h-0.5v0.5v47.677
		c0,3.193-2.2,5.792-4.904,5.792c-2.713,0-4.921-2.599-4.921-5.792V77.59v-0.03l-0.003-0.03l-0.006-0.052
		c-0.043-0.354-0.088-0.721-0.088-1.087V46.14v-0.5h-0.5H8.775h-0.5v0.5v28.377c0,2.101-1.527,3.81-3.403,3.81
		c-1.859,0-3.372-1.709-3.372-3.81V41.214v-1.635v-0.38C1.5,37.013,4.241,29.205,12.943,28.935 M12.937,28.435
		C4.215,28.7,1,36.489,1,39.199v0.38v1.635v33.303c0,2.389,1.746,4.31,3.872,4.31c2.154,0,3.903-1.921,3.903-4.31V46.14h3.302
		v30.251c0,0.416,0.053,0.829,0.098,1.199v54.045c0,3.475,2.425,6.292,5.421,6.292c2.985,0,5.404-2.817,5.404-6.292V83.958h2.688
		v47.677c0,3.475,2.426,6.292,5.412,6.292c2.98,0,5.412-2.817,5.412-6.292V76.391v-0.336V46.14h2.936l1,28.377
		c0,2.389,1.786,4.798,4.082,4.798c2.311,0,4.4-2.409,4.4-4.798l-1.146-33.303v-1.635v-0.88c0-3.296-3.895-10.138-11.271-10.138
		L12.937,28.435L12.937,28.435z"/>
</g>
<g>
	<path fill="#115D6B" d="M27.428,26.436c-0.598,0-1.176-0.009-1.714-0.017c-0.469-0.007-0.909-0.013-1.304-0.013
		c-0.396,0-0.834,0.006-1.304,0.013c-0.538,0.008-1.116,0.017-1.713,0.017c0,0-0.001,0-0.001,0c-2.905,0-6.401-0.198-7.814-1.719
		c1.462-1.676,1.098-5.018,0.804-7.712c-0.101-0.925-0.196-1.8-0.196-2.46c0-5.643,4.587-10.233,10.225-10.233
		c5.637,0,10.224,4.591,10.224,10.233c0,0.66-0.095,1.534-0.196,2.459c-0.294,2.694-0.659,6.036,0.805,7.712
		C33.829,26.238,30.333,26.436,27.428,26.436z"/>
	<path fill="#E6E7E8" d="M24.41,4.437c5.568,0,10.099,4.535,10.099,10.108c0,0.653-0.095,1.524-0.196,2.446
		c-0.292,2.672-0.652,5.977,0.761,7.72c-1.427,1.414-4.818,1.6-7.646,1.6c-0.597,0-1.175-0.009-1.712-0.017
		c-0.47-0.007-0.91-0.013-1.306-0.013c-0.396,0-0.836,0.006-1.306,0.013c-0.538,0.008-1.115,0.017-1.712,0.017
		c-2.828,0-6.219-0.187-7.646-1.6c1.412-1.743,1.051-5.047,0.76-7.719c-0.101-0.922-0.196-1.793-0.196-2.447
		C14.311,8.971,18.841,4.437,24.41,4.437 M24.41,4.187c-5.717,0-10.35,4.637-10.35,10.358c0,2.569,1.393,8.005-0.65,10.171
		c1.388,1.626,4.94,1.845,7.982,1.845c1.119,0,2.169-0.03,3.018-0.03c0.848,0,1.898,0.03,3.018,0.03
		c3.042,0,6.595-0.219,7.982-1.845c-2.044-2.166-0.651-7.602-0.651-10.171C34.759,8.823,30.126,4.187,24.41,4.187L24.41,4.187z"/>
</g>
<g>
	<path fill="#115D6B" d="M67.832,22.306c-5.835,0-10.582-4.751-10.582-10.591c0-5.839,4.747-10.59,10.582-10.59
		c5.842,0,10.595,4.75,10.595,10.59C78.427,17.555,73.674,22.306,67.832,22.306z"/>
	<path fill="#E6E7E8" d="M67.832,1.25c5.773,0,10.47,4.694,10.47,10.465c0,5.771-4.696,10.466-10.47,10.466
		c-5.766,0-10.457-4.695-10.457-10.466C57.375,5.944,62.066,1.25,67.832,1.25 M67.832,1c-5.915,0-10.707,4.797-10.707,10.715
		c0,5.93,4.792,10.716,10.707,10.716c5.922,0,10.72-4.786,10.72-10.716C78.552,5.797,73.754,1,67.832,1L67.832,1z"/>
</g>
<g>
	<path fill-rule="evenodd" clip-rule="evenodd" fill="#115D6B" d="M75.528,137.396c-3.285,0-5.958-2.808-5.958-6.259V81.563h-3.582
		v49.574c0,3.451-2.668,6.259-5.946,6.259c-3.288,0-5.964-2.808-5.964-6.259V75.229c-0.054-0.405-0.112-0.826-0.112-1.242V42.438
		h-4.277l-1.008,32.898c0,2.233-1.668,3.729-4.15,3.729c-2.364,0-3.832-1.426-3.832-3.721l0.564-37.747v-2.088
		c0-2.319,3.22-10.605,13.443-10.886l27.026,0.129c8.204,0,12.679,6.764,12.679,10.239v40.353c0,2.321-2.036,4.21-4.539,4.21
		c-2.492,0-4.52-1.889-4.52-4.21V42.438h-3.869v88.7C81.483,134.589,78.812,137.396,75.528,137.396z M68.302,36.185
		c-2.362,0.085-2.588,1.77-2.788,3.255c0,0-0.387,2.754-0.569,4.039c-0.497,3.483-1.011,7.084-1.427,10.636
		c-0.229,1.941,0.351,3.915,1.59,5.415c0.94,1.139,2.152,1.841,3.326,1.927c0.05,0.003,0.1,0.005,0.149,0.005
		c2.226,0,4.603-3.555,4.687-6.11l-0.594-4.429c-0.548-4.054-1.05-7.762-1.514-11.479l-0.018-0.14
		c-0.188-1.535-0.385-3.122-2.647-3.122L68.302,36.185z M68.443,29.698c-0.109,0-0.222,0.004-0.338,0.012
		c-1.701,0.114-2.669,1.261-2.588,3.067c0.09,2.048,1.848,2.048,2.599,2.048c0.217,0,0.436-0.007,0.65-0.014
		c0.939-0.031,1.569-0.279,1.952-0.738c0.365-0.439,0.491-1.058,0.374-1.839C70.979,30.582,70.062,29.698,68.443,29.698z"/>
	<path fill="#FFFFFF" d="M54.705,24.873l27.028,0.129c8.041,0,12.428,6.599,12.428,9.989v0.911v1.69v37.751
		c0,2.184-1.924,3.96-4.289,3.96c-2.354,0-4.27-1.776-4.27-3.96V42.688v-0.5h-0.5h-3.369h-0.5v0.5v30.95v0.349v57.151
		c0,3.313-2.56,6.009-5.705,6.009c-3.147,0-5.708-2.695-5.708-6.009V81.813v-0.5h-0.5h-3.082h-0.5v0.5v49.324
		c0,3.313-2.556,6.009-5.696,6.009c-3.15,0-5.714-2.695-5.714-6.009V75.229v-0.034l-0.005-0.034
		c-0.051-0.363-0.107-0.774-0.107-1.174V42.688v-0.5h-0.5h-3.785h-0.485l-0.015,0.485l-1,32.671c0,2.076-1.567,3.471-3.9,3.471
		c-2.209,0-3.582-1.33-3.582-3.463l0.564-37.759v-1.69v-0.394C41.513,33.244,44.672,25.152,54.705,24.873 M68.116,35.075
		c0.22,0,0.441-0.007,0.658-0.014l0.08-0.003c0.935-0.031,1.626-0.309,2.057-0.825c0.413-0.497,0.558-1.182,0.434-1.996
		c-0.125-1.798-1.155-2.789-2.901-2.789c-0.114,0-0.233,0.004-0.354,0.012c-1.854,0.125-2.908,1.369-2.82,3.328
		C65.368,35.075,67.364,35.075,68.116,35.075 M68.583,61.711c2.391,0,4.848-3.637,4.937-6.352l0.001-0.042l-0.006-0.041
		l-0.591-4.388c-0.54-3.991-1.05-7.761-1.514-11.476l-0.018-0.14c-0.192-1.566-0.411-3.341-2.896-3.341
		c-0.066,0-0.135,0.001-0.204,0.004c-2.573,0.093-2.824,1.966-3.026,3.471l-0.025,0.185c-0.179,1.284-0.362,2.568-0.545,3.852
		c-0.496,3.484-1.01,7.087-1.428,10.642c-0.236,2.008,0.363,4.051,1.646,5.604c0.984,1.191,2.26,1.926,3.503,2.017
		C68.472,61.71,68.527,61.711,68.583,61.711 M54.699,24.373c-10,0.274-13.687,8.333-13.687,11.136v0.394v1.69l-0.564,37.751
		c0,2.472,1.645,3.971,4.082,3.971c2.473,0,4.4-1.499,4.4-3.971l1-32.656h3.785v31.299c0,0.431,0.059,0.855,0.112,1.242v55.909
		c0,3.595,2.78,6.509,6.214,6.509c3.425,0,6.196-2.914,6.196-6.509V81.813h3.082v49.324c0,3.595,2.783,6.509,6.208,6.509
		c3.419,0,6.205-2.914,6.205-6.509V73.986v-0.349v-30.95h3.369v32.656c0,2.472,2.136,4.46,4.77,4.46c2.649,0,4.789-1.988,4.789-4.46
		V37.593v-1.69v-0.911c0-3.407-4.468-10.489-12.928-10.489L54.699,24.373L54.699,24.373z M68.116,34.575
		c-1.166,0-2.279-0.211-2.349-1.81c-0.065-1.459,0.595-2.688,2.354-2.807c0.11-0.007,0.218-0.011,0.321-0.011
		c1.458,0,2.292,0.738,2.402,2.324c0.233,1.553-0.572,2.239-2.008,2.287C68.601,34.566,68.357,34.575,68.116,34.575L68.116,34.575z
		 M68.583,61.212c-0.044,0-0.087-0.002-0.131-0.005c-2.535-0.186-5.116-3.416-4.687-7.063c0.567-4.836,1.299-9.657,1.971-14.483
		c0.215-1.57,0.334-3.145,2.575-3.226c0.063-0.002,0.125-0.003,0.186-0.003c2.104,0,2.218,1.441,2.417,3.042
		c0.626,5.016,1.32,10.016,2.105,15.869C72.94,57.766,70.654,61.212,68.583,61.212L68.583,61.212z"/>
</g>
</svg>
