<?xml version="1.0" encoding="utf-8"?>
<!-- Generator: Adobe Illustrator 16.0.0, SVG Export Plug-In . SVG Version: 6.00 Build 0)  -->
<!DOCTYPE svg PUBLIC "-//W3C//DTD SVG 1.1//EN" "http://www.w3.org/Graphics/SVG/1.1/DTD/svg11.dtd">
<svg version="1.1" id="Layer_1" xmlns="http://www.w3.org/2000/svg" xmlns:xlink="http://www.w3.org/1999/xlink" x="0px" y="0px"
	 width="376px" height="188px" viewBox="0 0 376 188" enable-background="new 0 0 376 188" xml:space="preserve">
<g>
	<g>
		<path fill-rule="evenodd" clip-rule="evenodd" fill="#EC2227" d="M252.707,41.292c-7.742,11.049-14.738,21.121-21.842,31.106
			c-1.316,1.855-2.911,3.564-4.616,5.07c-10.606,9.415-12.765,24.249-5.073,35.558c7.549,11.113,22.412,15.141,34.21,9.266
			c12.348-6.158,18.181-20.054,13.318-33.254c-1.484-4.01-0.892-6.704,1.865-9.322c2.851-2.697,5.848-5.244,9.526-8.516
			c5.812,6.564,11.709,12.24,16.375,18.794c4.188,5.883,3.628,12.75-1.295,18.202c-20.257,22.422-40.567,44.777-61.346,66.714
			c-2.793,2.943-8.334,4.603-12.611,4.627c-53.643,0.307-107.275,0.196-160.925,0.178c-10.05,0-20.101,0.05-30.14-0.153
			c-10.695-0.218-16.714-5.969-16.739-16.582c-0.128-43.329-0.118-86.668,0.061-130.011c0.043-10.806,6.443-16.757,17.353-16.761
			c63.439-0.021,126.875-0.071,190.312,0.286c4.445,0.018,9.821,2.144,13.129,5.116C241.376,27.967,247.42,35.519,252.707,41.292z"
			/>
		<path fill-rule="evenodd" clip-rule="evenodd" fill="#EC2227" d="M274.494,152.309c4.367-4.759,8.373-9.604,12.947-13.803
			c1.295-1.188,4.32-0.849,6.514-0.67c20.143,1.58,40.735-12.397,45.062-30.728c6.379-27.018-18.326-52.455-47.135-48.523
			c-21.541,2.946-35.381,17.289-37.539,38.912c-0.663,6.6-4.455,10.328-10.229,10.042c-5.658-0.271-9.047-4.435-9.082-11.149
			c-0.111-23.172,17.185-45.662,41.405-53.846c31.163-10.535,66.65,4.955,78.359,34.21c12.237,30.557-3.589,65.009-34.781,75.715
			C302.482,158.487,287.791,158.541,274.494,152.309z"/>
		<g>
			<path fill="#FFFFFF" d="M98.198,112.053l-0.025,42.283H78.036L78.1,46.121l33.012,0c7.385,0,13.71,0.762,18.975,2.283
				c5.264,1.522,9.58,3.655,12.947,6.398c3.367,2.745,5.835,6.025,7.405,9.842s2.353,8.021,2.351,12.61
				c-0.002,3.642-0.541,7.085-1.616,10.328c-1.076,3.244-2.623,6.187-4.646,8.83c-2.022,2.645-4.52,4.965-7.489,6.96
				c-2.971,1.996-6.353,3.592-10.146,4.79c2.544,1.448,4.738,3.518,6.584,6.211l27.074,39.964l-18.115,0
				c-1.747,0-3.231-0.349-4.453-1.048c-1.223-0.698-2.258-1.695-3.105-2.993l-22.736-34.65c-0.848-1.297-1.784-2.22-2.805-2.769
				c-1.023-0.548-2.533-0.823-4.528-0.823L98.198,112.053z M98.206,97.609l12.576,0c3.792,0,7.099-0.474,9.919-1.422
				c2.819-0.946,5.14-2.256,6.963-3.928c1.822-1.671,3.184-3.654,4.083-5.95c0.899-2.294,1.35-4.814,1.352-7.559
				c0.003-5.488-1.804-9.703-5.42-12.647c-3.617-2.943-9.143-4.416-16.578-4.416l-12.875,0L98.206,97.609z"/>
		</g>
	</g>
</g>
</svg>
