<?xml version="1.0" encoding="utf-8"?>
<!-- Generator: Adobe Illustrator 16.0.0, SVG Export Plug-In . SVG Version: 6.00 Build 0)  -->
<!DOCTYPE svg PUBLIC "-//W3C//DTD SVG 1.1//EN" "http://www.w3.org/Graphics/SVG/1.1/DTD/svg11.dtd">
<svg version="1.1" id="Layer_1" xmlns="http://www.w3.org/2000/svg" xmlns:xlink="http://www.w3.org/1999/xlink" x="0px" y="0px"
	 width="376px" height="188px" viewBox="0 0 376 188" enable-background="new 0 0 376 188" xml:space="preserve">
<g>
	<g>
		<path fill-rule="evenodd" clip-rule="evenodd" fill="#EC2227" d="M252.707,41.292c-7.742,11.049-14.738,21.121-21.842,31.106
			c-1.316,1.855-2.911,3.564-4.616,5.07c-10.606,9.415-12.765,24.249-5.073,35.558c7.549,11.113,22.412,15.141,34.21,9.266
			c12.348-6.158,18.181-20.054,13.318-33.254c-1.484-4.01-0.892-6.704,1.865-9.322c2.851-2.697,5.848-5.244,9.526-8.516
			c5.812,6.564,11.709,12.24,16.375,18.794c4.188,5.883,3.628,12.75-1.295,18.202c-20.257,22.422-40.567,44.777-61.346,66.714
			c-2.793,2.943-8.334,4.603-12.611,4.627c-53.643,0.307-107.275,0.196-160.925,0.178c-10.05,0-20.101,0.05-30.14-0.153
			c-10.695-0.218-16.714-5.969-16.739-16.582c-0.128-43.329-0.118-86.668,0.061-130.011c0.043-10.806,6.443-16.757,17.353-16.761
			c63.439-0.021,126.875-0.071,190.312,0.286c4.445,0.018,9.821,2.144,13.129,5.116C241.376,27.967,247.42,35.519,252.707,41.292z"
			/>
		<path fill-rule="evenodd" clip-rule="evenodd" fill="#EC2227" d="M274.494,152.309c4.367-4.759,8.373-9.604,12.947-13.803
			c1.295-1.188,4.32-0.849,6.514-0.67c20.143,1.58,40.735-12.397,45.062-30.728c6.379-27.018-18.326-52.455-47.135-48.523
			c-21.541,2.946-35.381,17.289-37.539,38.912c-0.663,6.6-4.455,10.328-10.229,10.042c-5.658-0.271-9.047-4.435-9.082-11.149
			c-0.111-23.172,17.185-45.662,41.405-53.846c31.163-10.535,66.65,4.955,78.359,34.21c12.237,30.557-3.589,65.009-34.781,75.715
			C302.482,158.487,287.791,158.541,274.494,152.309z"/>
		<g>
			<path fill="#FFFFFF" d="M32.082,101.364l-0.007,11.968h-5.699l0.018-30.629h9.343c2.09,0,3.88,0.216,5.371,0.646
				c1.49,0.431,2.711,1.034,3.665,1.812c0.953,0.776,1.651,1.705,2.096,2.785c0.444,1.081,0.667,2.27,0.666,3.569
				c0,1.031-0.153,2.005-0.458,2.923c-0.305,0.918-0.743,1.751-1.315,2.5c-0.572,0.749-1.279,1.405-2.12,1.97
				c-0.841,0.565-1.798,1.017-2.872,1.355c0.72,0.41,1.341,0.996,1.863,1.758l7.664,11.312h-5.127c-0.495,0-0.915-0.099-1.261-0.297
				c-0.346-0.198-0.639-0.48-0.878-0.848l-6.436-9.807c-0.24-0.367-0.504-0.628-0.794-0.784c-0.29-0.155-0.717-0.233-1.282-0.233
				H32.082z M32.084,97.276h3.56c1.073,0,2.009-0.134,2.808-0.402c0.798-0.268,1.455-0.639,1.971-1.112
				c0.515-0.473,0.901-1.035,1.155-1.684c0.255-0.649,0.383-1.363,0.383-2.14c0-1.553-0.511-2.746-1.534-3.58
				c-1.024-0.833-2.588-1.25-4.693-1.25H32.09L32.084,97.276z"/>
			<path fill="#FFFFFF" d="M56.548,109.414h6.208l0.011-17.856c0-0.692,0.022-1.419,0.065-2.182l-4.409,3.686
				c-0.184,0.155-0.371,0.261-0.562,0.317c-0.191,0.057-0.378,0.085-0.562,0.085c-0.283,0-0.54-0.06-0.773-0.18
				c-0.233-0.12-0.406-0.257-0.519-0.413l-1.651-2.267l9.348-7.943h4.301l-0.016,26.753l5.509,0l-0.002,3.918l-16.95,0
				L56.548,109.414z"/>
			<path fill="#FFFFFF" d="M98.95,98.019c-0.001,2.669-0.289,4.988-0.862,6.958c-0.573,1.97-1.366,3.598-2.376,4.883
				c-1.011,1.285-2.205,2.242-3.583,2.87c-1.377,0.628-2.864,0.942-4.46,0.942s-3.075-0.314-4.438-0.942
				c-1.363-0.628-2.545-1.585-3.547-2.87c-1.003-1.285-1.786-2.913-2.349-4.883c-0.564-1.97-0.845-4.289-0.843-6.958
				c0.001-2.683,0.285-5.006,0.852-6.969c0.566-1.962,1.351-3.586,2.354-4.872c1.003-1.285,2.187-2.242,3.551-2.87
				c1.363-0.628,2.843-0.943,4.439-0.943s3.083,0.314,4.459,0.943c1.377,0.629,2.57,1.586,3.579,2.871
				c1.009,1.285,1.8,2.909,2.371,4.872C98.667,93.013,98.952,95.336,98.95,98.019z M93.547,98.019
				c0.001-2.217-0.16-4.053-0.484-5.508c-0.324-1.455-0.758-2.612-1.301-3.474c-0.543-0.861-1.168-1.465-1.874-1.811
				c-0.706-0.346-1.44-0.519-2.203-0.519c-0.749,0-1.472,0.173-2.172,0.519c-0.699,0.346-1.318,0.95-1.855,1.811
				c-0.538,0.862-0.965,2.02-1.284,3.474s-0.479,3.291-0.48,5.507s0.157,4.053,0.474,5.507c0.317,1.455,0.743,2.612,1.279,3.474
				c0.536,0.862,1.154,1.465,1.853,1.811c0.699,0.346,1.422,0.519,2.171,0.519c0.763,0,1.498-0.173,2.204-0.519
				c0.707-0.346,1.332-0.949,1.876-1.811c0.544-0.861,0.979-2.019,1.306-3.474C93.382,102.072,93.546,100.236,93.547,98.019z"/>
			<path fill="#FFFFFF" d="M123.527,98.02c-0.001,2.669-0.289,4.988-0.862,6.958c-0.573,1.97-1.366,3.598-2.376,4.883
				c-1.011,1.285-2.205,2.242-3.583,2.87c-1.377,0.628-2.864,0.942-4.46,0.942s-3.075-0.314-4.438-0.942
				c-1.363-0.628-2.545-1.585-3.547-2.87c-1.003-1.285-1.786-2.913-2.349-4.883c-0.564-1.97-0.845-4.289-0.843-6.958
				c0.001-2.683,0.285-5.006,0.852-6.969c0.566-1.962,1.351-3.586,2.354-4.872c1.003-1.285,2.187-2.242,3.551-2.87
				c1.363-0.628,2.843-0.943,4.439-0.943s3.083,0.314,4.459,0.943c1.377,0.629,2.57,1.586,3.579,2.871
				c1.009,1.285,1.8,2.909,2.371,4.872C123.244,93.014,123.528,95.336,123.527,98.02z M118.124,98.02
				c0.001-2.217-0.16-4.053-0.484-5.507c-0.324-1.455-0.758-2.613-1.301-3.475c-0.543-0.861-1.168-1.465-1.874-1.811
				c-0.706-0.346-1.44-0.519-2.203-0.519c-0.749,0-1.472,0.173-2.172,0.519c-0.699,0.346-1.318,0.95-1.855,1.811
				c-0.538,0.862-0.965,2.02-1.284,3.474s-0.479,3.291-0.48,5.507s0.157,4.053,0.474,5.507c0.317,1.455,0.743,2.612,1.279,3.474
				c0.536,0.862,1.154,1.465,1.853,1.811c0.699,0.346,1.422,0.519,2.171,0.519c0.763,0,1.498-0.173,2.204-0.519
				c0.707-0.346,1.332-0.949,1.876-1.811c0.544-0.861,0.979-2.019,1.306-3.473C117.959,102.072,118.123,100.236,118.124,98.02z"/>
			<path fill="#FFFFFF" d="M126.273,110.114c0-0.395,0.074-0.766,0.223-1.112c0.148-0.346,0.357-0.649,0.625-0.911
				c0.268-0.261,0.594-0.466,0.975-0.614c0.381-0.148,0.798-0.222,1.25-0.222c0.537,0,1.003,0.095,1.398,0.286
				c0.395,0.191,0.727,0.452,0.995,0.784c0.268,0.332,0.466,0.713,0.592,1.144c0.127,0.431,0.19,0.886,0.19,1.366
				c0,0.678-0.104,1.391-0.309,2.14c-0.206,0.748-0.506,1.497-0.902,2.245c-0.396,0.748-0.884,1.476-1.463,2.182
				c-0.58,0.706-1.244,1.355-1.993,1.949l-0.911-0.826c-0.254-0.212-0.381-0.473-0.381-0.784c0-0.113,0.039-0.24,0.117-0.381
				s0.173-0.268,0.286-0.381c0.155-0.169,0.347-0.378,0.573-0.625c0.226-0.248,0.452-0.53,0.678-0.847
				c0.226-0.318,0.435-0.664,0.625-1.038c0.191-0.375,0.329-0.773,0.415-1.197c-0.438,0-0.841-0.081-1.208-0.244
				c-0.367-0.162-0.682-0.385-0.942-0.667c-0.261-0.282-0.465-0.614-0.614-0.995C126.347,110.983,126.273,110.566,126.273,110.114z"
				/>
			<path fill="#FFFFFF" d="M157.638,98.02c-0.001,2.669-0.289,4.988-0.862,6.958c-0.573,1.97-1.366,3.598-2.376,4.883
				c-1.011,1.285-2.205,2.242-3.583,2.87c-1.377,0.628-2.864,0.942-4.46,0.942s-3.075-0.314-4.438-0.942
				c-1.363-0.629-2.545-1.585-3.547-2.871c-1.003-1.285-1.786-2.913-2.349-4.883c-0.564-1.97-0.845-4.289-0.843-6.958
				c0.001-2.683,0.285-5.006,0.852-6.969c0.566-1.962,1.351-3.586,2.354-4.872c1.003-1.285,2.187-2.242,3.551-2.87
				c1.363-0.628,2.843-0.943,4.439-0.943s3.083,0.314,4.459,0.943c1.377,0.628,2.57,1.585,3.579,2.87
				c1.009,1.285,1.8,2.909,2.371,4.872C157.354,93.014,157.639,95.337,157.638,98.02z M152.235,98.02
				c0.001-2.217-0.16-4.053-0.484-5.507c-0.324-1.455-0.758-2.612-1.301-3.474c-0.543-0.861-1.168-1.465-1.874-1.811
				c-0.706-0.346-1.44-0.519-2.203-0.519c-0.749,0-1.472,0.173-2.172,0.519c-0.699,0.346-1.318,0.95-1.855,1.811
				c-0.538,0.861-0.965,2.019-1.284,3.474s-0.479,3.291-0.48,5.507s0.157,4.053,0.474,5.507c0.317,1.455,0.743,2.612,1.279,3.474
				c0.536,0.862,1.154,1.465,1.853,1.811c0.699,0.346,1.422,0.519,2.171,0.519c0.763,0,1.498-0.173,2.204-0.519
				c0.707-0.346,1.332-0.949,1.876-1.811c0.544-0.861,0.979-2.019,1.306-3.474C152.07,102.073,152.233,100.237,152.235,98.02z"/>
			<path fill="#FFFFFF" d="M182.214,98.021c-0.001,2.669-0.289,4.988-0.862,6.958c-0.573,1.97-1.366,3.598-2.376,4.883
				c-1.011,1.285-2.205,2.242-3.583,2.87c-1.377,0.628-2.864,0.942-4.46,0.942s-3.075-0.314-4.438-0.942
				c-1.363-0.629-2.545-1.585-3.547-2.871c-1.003-1.285-1.786-2.913-2.349-4.883c-0.564-1.97-0.845-4.289-0.843-6.958
				c0.001-2.683,0.285-5.006,0.852-6.969c0.566-1.962,1.351-3.586,2.354-4.872c1.003-1.285,2.187-2.242,3.551-2.87
				c1.363-0.628,2.843-0.943,4.439-0.943s3.083,0.314,4.459,0.943c1.377,0.628,2.57,1.585,3.579,2.87
				c1.009,1.285,1.8,2.909,2.371,4.872C181.931,93.015,182.216,95.337,182.214,98.021z M176.812,98.021
				c0.001-2.217-0.16-4.053-0.484-5.507c-0.324-1.455-0.758-2.612-1.301-3.474c-0.543-0.861-1.168-1.465-1.874-1.811
				c-0.706-0.346-1.44-0.519-2.203-0.519c-0.749,0-1.472,0.173-2.172,0.519c-0.699,0.346-1.318,0.95-1.855,1.811
				c-0.538,0.862-0.965,2.019-1.284,3.474s-0.479,3.291-0.48,5.507s0.157,4.053,0.474,5.507c0.317,1.455,0.743,2.613,1.279,3.474
				c0.536,0.862,1.154,1.465,1.853,1.811c0.699,0.346,1.422,0.519,2.171,0.519c0.763,0,1.498-0.173,2.204-0.519
				c0.707-0.346,1.332-0.949,1.876-1.811c0.544-0.861,0.979-2.019,1.306-3.474C176.646,102.073,176.81,100.237,176.812,98.021z"/>
			<path fill="#FFFFFF" d="M206.791,98.021c-0.001,2.669-0.289,4.988-0.862,6.958c-0.573,1.97-1.366,3.598-2.376,4.883
				c-1.011,1.285-2.205,2.242-3.583,2.87c-1.377,0.628-2.864,0.942-4.46,0.942s-3.075-0.314-4.438-0.942
				c-1.363-0.629-2.545-1.585-3.547-2.871c-1.003-1.285-1.786-2.913-2.349-4.883c-0.564-1.97-0.845-4.289-0.843-6.958
				c0.001-2.683,0.285-5.006,0.852-6.969c0.566-1.962,1.351-3.586,2.354-4.872c1.003-1.285,2.187-2.242,3.551-2.87
				c1.363-0.628,2.843-0.943,4.439-0.943s3.083,0.314,4.459,0.943c1.377,0.628,2.57,1.585,3.579,2.87
				c1.009,1.285,1.8,2.909,2.371,4.872C206.508,93.015,206.792,95.338,206.791,98.021z M201.388,98.021
				c0.001-2.217-0.16-4.053-0.484-5.507c-0.324-1.455-0.758-2.612-1.301-3.474c-0.543-0.861-1.168-1.465-1.874-1.811
				c-0.706-0.346-1.44-0.519-2.203-0.519c-0.749,0-1.472,0.173-2.172,0.519c-0.699,0.346-1.318,0.95-1.855,1.811
				c-0.538,0.862-0.965,2.019-1.284,3.474s-0.479,3.291-0.48,5.507s0.157,4.053,0.474,5.507c0.317,1.455,0.743,2.613,1.279,3.474
				c0.536,0.862,1.154,1.465,1.853,1.811c0.699,0.346,1.422,0.519,2.171,0.519c0.763,0,1.498-0.173,2.204-0.519
				c0.707-0.346,1.332-0.949,1.876-1.811c0.544-0.861,0.979-2.019,1.306-3.474C201.223,102.074,201.387,100.238,201.388,98.021z"/>
		</g>
	</g>
</g>
</svg>
