<?xml version="1.0" encoding="utf-8"?>
<!-- Generator: Adobe Illustrator 16.0.0, SVG Export Plug-In . SVG Version: 6.00 Build 0)  -->
<!DOCTYPE svg PUBLIC "-//W3C//DTD SVG 1.1//EN" "http://www.w3.org/Graphics/SVG/1.1/DTD/svg11.dtd">
<svg version="1.1" id="Layer_1" xmlns="http://www.w3.org/2000/svg" xmlns:xlink="http://www.w3.org/1999/xlink" x="0px" y="0px"
	 width="1000px" height="252.191px" viewBox="0 0 1000 252.191" enable-background="new 0 0 1000 252.191" xml:space="preserve">
<g>
	<g>
		<path fill="#0E5461" d="M785.742,193.907c1.297,0,2.484,0.182,3.562,0.546s1.998,0.879,2.765,1.545
			c0.765,0.667,1.362,1.469,1.79,2.407c0.429,0.938,0.643,1.98,0.643,3.128c0,0.987-0.152,1.9-0.457,2.739
			c-0.306,0.84-0.714,1.642-1.227,2.406c-0.513,0.766-1.113,1.506-1.801,2.222s-1.408,1.443-2.16,2.184l-6.346,6.164
			c0.623-0.173,1.232-0.306,1.83-0.397c0.597-0.093,1.168-0.14,1.713-0.14h7.221c0.52,0,0.932,0.14,1.236,0.417
			s0.457,0.645,0.457,1.102v2.739h-19.309v-1.518c0-0.309,0.068-0.63,0.205-0.963c0.136-0.333,0.353-0.642,0.651-0.926l8.545-8.145
			c0.714-0.69,1.353-1.351,1.917-1.98c0.564-0.629,1.038-1.252,1.421-1.869s0.675-1.243,0.876-1.879s0.302-1.305,0.302-2.009
			c0-0.641-0.097-1.206-0.292-1.693c-0.194-0.487-0.474-0.897-0.837-1.23s-0.795-0.583-1.294-0.75c-0.5-0.167-1.061-0.25-1.684-0.25
			c-1.155,0-2.105,0.277-2.852,0.833s-1.269,1.302-1.567,2.24c-0.143,0.469-0.356,0.805-0.642,1.009
			c-0.286,0.203-0.649,0.305-1.091,0.305c-0.194,0-0.408-0.019-0.642-0.056l-2.53-0.425c0.194-1.284,0.57-2.409,1.129-3.379
			c0.558-0.968,1.255-1.776,2.092-2.425c0.837-0.647,1.797-1.135,2.881-1.462C783.331,194.07,784.496,193.907,785.742,193.907z"/>
		<path fill="#0E5461" d="M814.938,210.881h3.543v2.646c0,0.247-0.085,0.46-0.253,0.639c-0.169,0.18-0.415,0.269-0.739,0.269h-2.551
			v6.534h-4.204v-6.534H798.86c-0.324,0-0.61-0.096-0.856-0.287c-0.246-0.19-0.402-0.429-0.467-0.712l-0.487-2.314l13.334-16.937
			h4.554V210.881z M810.733,202.125c0-0.395,0.013-0.82,0.039-1.276c0.026-0.457,0.071-0.932,0.137-1.426l-8.74,11.458h8.564
			V202.125z"/>
		<path fill="#FFFFFF" d="M837.352,220.54c-0.623,0.312-1.87,0.624-3.468,0.624c-3.702,0-6.489-2.339-6.489-6.645
			c0-4.112,2.787-6.898,6.859-6.898c1.637,0,2.669,0.351,3.117,0.585l-0.409,1.383c-0.643-0.312-1.559-0.545-2.649-0.545
			c-3.079,0-5.125,1.968-5.125,5.417c0,3.215,1.852,5.28,5.047,5.28c1.032,0,2.085-0.215,2.767-0.546L837.352,220.54z"/>
		<path fill="#FFFFFF" d="M847.737,216.176c0,3.487-2.416,5.007-4.696,5.007c-2.553,0-4.521-1.87-4.521-4.852
			c0-3.156,2.065-5.008,4.677-5.008C845.905,211.323,847.737,213.291,847.737,216.176z M840.255,216.272
			c0,2.065,1.188,3.625,2.864,3.625c1.637,0,2.864-1.54,2.864-3.664c0-1.598-0.799-3.624-2.825-3.624
			S840.255,214.48,840.255,216.272z"/>
		<path fill="#FFFFFF" d="M849.899,214.091c0-0.975-0.02-1.773-0.078-2.553h1.52l0.098,1.559h0.039
			c0.468-0.896,1.559-1.773,3.117-1.773c1.306,0,3.332,0.779,3.332,4.015v5.631h-1.715v-5.437c0-1.52-0.564-2.786-2.182-2.786
			c-1.131,0-2.008,0.799-2.3,1.754c-0.078,0.214-0.117,0.506-0.117,0.799v5.67h-1.714V214.091z"/>
		<path fill="#FFFFFF" d="M860.479,219.215c0.507,0.331,1.403,0.683,2.261,0.683c1.247,0,1.831-0.624,1.831-1.403
			c0-0.818-0.487-1.267-1.753-1.734c-1.695-0.604-2.494-1.539-2.494-2.669c0-1.521,1.228-2.768,3.254-2.768
			c0.954,0,1.792,0.273,2.318,0.585l-0.429,1.247c-0.37-0.234-1.052-0.546-1.929-0.546c-1.014,0-1.578,0.585-1.578,1.286
			c0,0.779,0.564,1.13,1.792,1.598c1.637,0.624,2.475,1.442,2.475,2.845c0,1.656-1.286,2.826-3.526,2.826
			c-1.033,0-1.987-0.254-2.65-0.644L860.479,219.215z"/>
		<path fill="#FFFFFF" d="M870.494,208.829v2.709h2.455v1.306h-2.455v5.085c0,1.17,0.331,1.832,1.286,1.832
			c0.447,0,0.779-0.059,0.993-0.117l0.078,1.286c-0.331,0.137-0.857,0.234-1.52,0.234c-0.799,0-1.442-0.254-1.852-0.722
			c-0.487-0.507-0.662-1.344-0.662-2.455v-5.144h-1.462v-1.306h1.462v-2.261L870.494,208.829z"/>
		<path fill="#FFFFFF" d="M874.878,214.48c0-1.111-0.02-2.065-0.078-2.942h1.5l0.059,1.851h0.078
			c0.429-1.267,1.461-2.065,2.611-2.065c0.194,0,0.331,0.02,0.486,0.059v1.617c-0.175-0.039-0.351-0.059-0.584-0.059
			c-1.208,0-2.065,0.916-2.3,2.202c-0.039,0.233-0.078,0.507-0.078,0.799v5.027h-1.694V214.48z"/>
		<path fill="#FFFFFF" d="M889.141,218.396c0,0.975,0.02,1.832,0.077,2.572h-1.52l-0.098-1.539h-0.039
			c-0.448,0.76-1.441,1.753-3.117,1.753c-1.481,0-3.254-0.818-3.254-4.131v-5.514h1.715v5.222c0,1.793,0.545,3.001,2.104,3.001
			c1.149,0,1.948-0.799,2.26-1.559c0.098-0.254,0.156-0.565,0.156-0.877v-5.787h1.715V218.396z"/>
		<path fill="#FFFFFF" d="M898.707,220.618c-0.448,0.233-1.441,0.546-2.708,0.546c-2.845,0-4.696-1.93-4.696-4.813
			c0-2.903,1.987-5.008,5.066-5.008c1.014,0,1.909,0.254,2.377,0.487l-0.39,1.325c-0.409-0.234-1.052-0.448-1.987-0.448
			c-2.163,0-3.332,1.598-3.332,3.565c0,2.183,1.403,3.527,3.273,3.527c0.975,0,1.617-0.254,2.104-0.468L898.707,220.618z"/>
		<path fill="#FFFFFF" d="M903.032,208.829v2.709h2.455v1.306h-2.455v5.085c0,1.17,0.331,1.832,1.286,1.832
			c0.447,0,0.779-0.059,0.993-0.117l0.078,1.286c-0.331,0.137-0.857,0.234-1.52,0.234c-0.799,0-1.442-0.254-1.852-0.722
			c-0.487-0.507-0.662-1.344-0.662-2.455v-5.144h-1.462v-1.306h1.462v-2.261L903.032,208.829z"/>
		<path fill="#FFFFFF" d="M909.325,208.888c0.02,0.585-0.409,1.053-1.091,1.053c-0.604,0-1.033-0.468-1.033-1.053
			c0-0.604,0.448-1.071,1.072-1.071C908.916,207.816,909.325,208.284,909.325,208.888z M907.416,220.969v-9.431h1.714v9.431H907.416
			z"/>
		<path fill="#FFFFFF" d="M920.51,216.176c0,3.487-2.416,5.007-4.696,5.007c-2.553,0-4.521-1.87-4.521-4.852
			c0-3.156,2.065-5.008,4.677-5.008C918.678,211.323,920.51,213.291,920.51,216.176z M913.027,216.272
			c0,2.065,1.188,3.625,2.864,3.625c1.637,0,2.864-1.54,2.864-3.664c0-1.598-0.799-3.624-2.825-3.624
			S913.027,214.48,913.027,216.272z"/>
		<path fill="#FFFFFF" d="M922.672,214.091c0-0.975-0.02-1.773-0.078-2.553h1.52l0.098,1.559h0.039
			c0.468-0.896,1.559-1.773,3.117-1.773c1.306,0,3.332,0.779,3.332,4.015v5.631h-1.715v-5.437c0-1.52-0.564-2.786-2.182-2.786
			c-1.131,0-2.008,0.799-2.3,1.754c-0.078,0.214-0.117,0.506-0.117,0.799v5.67h-1.714V214.091z"/>
		<path fill="#FFFFFF" d="M937.674,208.011c1.033-0.155,2.261-0.272,3.605-0.272c2.436,0,4.17,0.564,5.319,1.637
			c1.169,1.071,1.852,2.592,1.852,4.716c0,2.143-0.663,3.896-1.891,5.104c-1.228,1.228-3.254,1.891-5.807,1.891
			c-1.208,0-2.222-0.059-3.079-0.156V208.011z M939.369,219.624c0.429,0.078,1.053,0.098,1.715,0.098
			c3.625,0,5.593-2.026,5.593-5.573c0.02-3.098-1.734-5.065-5.319-5.065c-0.877,0-1.54,0.077-1.988,0.175V219.624z"/>
		<path fill="#FFFFFF" d="M951.624,216.565c0.039,2.318,1.521,3.273,3.235,3.273c1.228,0,1.968-0.215,2.61-0.487l0.293,1.228
			c-0.604,0.272-1.638,0.585-3.138,0.585c-2.903,0-4.638-1.91-4.638-4.755s1.676-5.086,4.424-5.086c3.078,0,3.896,2.709,3.896,4.443
			c0,0.351-0.039,0.623-0.059,0.799H951.624z M956.651,215.338c0.02-1.092-0.448-2.787-2.377-2.787
			c-1.734,0-2.494,1.598-2.631,2.787H956.651z"/>
		<path fill="#FFFFFF" d="M960.432,214.616c0-1.208-0.039-2.182-0.078-3.078h1.539l0.078,1.617h0.039
			c0.701-1.149,1.812-1.832,3.352-1.832c2.279,0,3.994,1.93,3.994,4.794c0,3.391-2.065,5.065-4.287,5.065
			c-1.247,0-2.338-0.545-2.903-1.48h-0.038v5.125h-1.695V214.616z M962.127,217.13c0,0.254,0.038,0.487,0.077,0.702
			c0.312,1.188,1.345,2.007,2.572,2.007c1.812,0,2.864-1.481,2.864-3.645c0-1.89-0.993-3.507-2.806-3.507
			c-1.169,0-2.261,0.838-2.592,2.124c-0.059,0.214-0.116,0.468-0.116,0.701V217.13z"/>
		<path fill="#FFFFFF" d="M973.583,208.829v2.709h2.455v1.306h-2.455v5.085c0,1.17,0.331,1.832,1.286,1.832
			c0.447,0,0.779-0.059,0.993-0.117l0.078,1.286c-0.331,0.137-0.857,0.234-1.52,0.234c-0.799,0-1.442-0.254-1.852-0.722
			c-0.487-0.507-0.662-1.344-0.662-2.455v-5.144h-1.462v-1.306h1.462v-2.261L973.583,208.829z"/>
		<path fill="#FFFFFF" d="M977.5,219.955c0-0.721,0.486-1.228,1.169-1.228c0.682,0,1.149,0.507,1.149,1.228
			c0,0.702-0.448,1.228-1.169,1.228C977.967,221.183,977.5,220.657,977.5,219.955z"/>
	</g>
	<g>
		<path fill-rule="evenodd" clip-rule="evenodd" fill="#969696" d="M868.06,43.416c-14.061,11.684-27.959,23.227-41.846,34.779
			c-11.693,9.729-23.389,19.461-35.064,29.221c-2.773,2.324-6,3.404-8.664,0.73c-1.617-1.619-2.268-4.564-2.539-7.008
			c-0.133-1.176,1.379-2.838,2.535-3.812c26.928-22.545,53.908-45.02,80.883-67.516c3.242-2.701,6.455-2.674,9.686,0.02
			c26.848,22.371,53.711,44.715,80.521,67.125c3.74,3.123,4.357,7.43,1.617,10.295c-3.443,3.6-6.945,2.756-10.436-0.156
			c-23.928-19.975-47.885-39.922-71.836-59.867C871.429,45.984,869.868,44.832,868.06,43.416z"/>
		<path fill-rule="evenodd" clip-rule="evenodd" fill="#969696" d="M931.214,173.213c-3.061,0-5.348,0-8.389,0
			c0-2.082,0-3.984,0-5.887c0-17.754,0.115-35.516-0.133-53.268c-0.033-2.318-1.316-5.324-3.051-6.801
			c-16.92-14.379-34.053-28.5-51.447-42.961c-12.689,10.584-25.322,21.109-37.953,31.643c-2.885,2.402-5.525,5.199-8.695,7.129
			c-6.283,3.82-7.699,9.113-7.463,16.189c0.529,16.125,0.166,32.281,0.166,48.424c0,1.746,0,3.492,0,5.475c-2.975,0-5.418,0-8.596,0
			c0-1.846,0-3.57,0-5.297c0-19.551-0.107-39.1,0.141-58.648c0.027-2.311,1.381-5.309,3.133-6.789
			c18.061-15.254,36.393-30.193,54.494-45.404c3.627-3.043,6.254-2.84,9.785,0.133c18.244,15.332,36.678,30.439,54.955,45.73
			c1.373,1.154,2.908,3.137,2.924,4.746C931.278,129.297,931.214,150.971,931.214,173.213z"/>
		<g>
			<path fill-rule="evenodd" clip-rule="evenodd" fill="#ED1C24" d="M888.374,141.189c-1.199-2.068-2.295-4.166-3.604-6.117
				c-0.586-0.871-1.609-1.445-2.408-2.184c-0.229-0.211-0.441-0.514-0.488-0.807c-0.021-0.137,0.336-0.416,0.564-0.494
				c0.266-0.096,0.586-0.051,0.879-0.051c9.182,0.004,18.357,0.006,27.533,0.02c0.354,0,0.707,0.096,0.887,0.119
				c-0.232,1.674-0.453,3.264-0.67,4.855c0.186,0.129,0.373,0.256,0.559,0.383c1.195-0.895,2.387-1.787,3.84-2.875
				c0.818-0.371,1.986-1.025,3.242-1.418c0.621-0.197,1.393,0.074,2.098,0.139c-0.373,0.604-0.625,1.373-1.154,1.791
				c-1.023,0.807-2.207,1.42-3.584,2.273c-1.332-0.648-3.703,0.734-4.045,3.002c-0.484,3.215-0.887,6.447-1.207,9.682
				c-0.16,1.6-0.457,2.938-2.324,3.258c-2.916,0.494-4.488-0.111-5.375-2.232c-1.076-2.582-2.066-5.205-3.123-7.893
				c-0.586,0.195-1.1,0.281-1.523,0.525c-1.145,0.664-1.982,0.656-3.014-0.451C893.569,140.686,891.069,140.514,888.374,141.189z
				 M901.446,141.93c1.08,2.832,2.082,5.439,3.074,8.041c0.682,1.773,2.238,1.199,3.426,1.055c0.521-0.061,1.236-1.096,1.336-1.762
				c0.506-3.627,0.848-7.275,1.271-11.119C907.493,139.416,904.589,140.625,901.446,141.93z"/>
			<path fill-rule="evenodd" clip-rule="evenodd" fill="#ED1C24" d="M827.534,139.742c0.301-0.5,0.77-1.264,1.227-2.031
				c0.494-0.846,1.127-1.107,1.986-0.502c3.49,2.465,6.99,4.918,10.453,7.408c0.305,0.221,0.412,0.711,0.605,1.076
				c-0.342,0.16-0.686,0.451-1.031,0.453c-5.129,0.031-10.26,0.035-15.385,0.014c-0.998-0.002-1.18-0.553-0.797-1.418
				c0.861-1.955,1.107-2.115,3.238-1.818c0.637,0.088,1.268,0.205,1.973,0.041c-0.77-0.234-1.527-0.555-2.314-0.682
				c-1.625-0.262-2.215-1.215-2.039-2.752c0.129-1.129-0.217-1.371-1.447-1.553c-1.834-0.266-3.615-1.107-5.316-1.91
				c-0.398-0.189-0.68-1.297-0.514-1.82c0.172-0.527,1.104-1.305,1.469-1.193c1.896,0.572,3.996,1.047,5.473,2.244
				C826.321,136.283,826.759,138.223,827.534,139.742z M819.323,133.893c1.742,0.609,3.475,1.211,5.578,1.943
				C823.243,134.207,820.411,133.354,819.323,133.893z"/>
			<path fill-rule="evenodd" clip-rule="evenodd" fill="#ED1C24" d="M825.804,147.109c0.559,0.217,1.176,0.346,1.662,0.666
				c1.801,1.195,3.543,2.479,5.348,3.668c0.354,0.232,0.959,0.416,1.312,0.279c2.604-1.02,5.172-2.127,7.912-3.27
				c-0.441-0.404-0.746-0.689-1.08-0.998c1.377-0.371,2.412,0.32,2.457,1.58c0.004,0.1-0.014,0.205,0,0.301
				c0.598,3.025-0.547,4.822-3.568,5.727c-1.949,0.588-3.723,1.752-5.621,2.551c-0.434,0.186-1.191,0.123-1.564-0.148
				c-3.984-2.902-7.934-5.846-11.84-8.848c-0.406-0.312-0.619-1.092-0.631-1.668c-0.092-4.082-0.068-4.088,3.783-5.164
				c0.213-0.057,0.453-0.008,0.68-0.008c0.066,0.16,0.131,0.322,0.195,0.48c-1.016,0.451-2.041,0.898-3.068,1.354
				c0.545,0.557,1.074,1.105,1.604,1.648c-0.111,0.123-0.229,0.248-0.344,0.373c-0.57-0.338-1.145-0.678-1.727-1.023
				c-0.666,2.271-0.43,3.002,1.312,4.303c3.387,2.514,6.766,5.037,10.172,7.57c0.822-2.33,0.426-3.627-1.465-4.951
				c-1.883-1.324-3.775-2.645-5.666-3.969C825.712,147.412,825.759,147.258,825.804,147.109z"/>
			<path fill-rule="evenodd" clip-rule="evenodd" fill="#ED1C24" d="M886.437,130.021c-0.145-3.992,2.76-6.578,6.836-6.547
				c1.209,0.006,2.52-0.359,3.619-0.891c2.77-1.328,5.449-1.355,7.973,0.367c2.404,1.641,3.568,3.979,3.283,7.07
				C900.845,130.021,893.71,130.021,886.437,130.021z M902.489,123.227c-3.061-0.938-5.111-0.219-6.488,2.182
				C898.021,124.725,900.306,123.961,902.489,123.227z M893.983,124.932c-2.238-0.945-3.938-0.389-5.088,1.59
				C890.487,126.025,892.257,125.471,893.983,124.932z"/>
			<path fill-rule="evenodd" clip-rule="evenodd" fill="#ED1C24" d="M862.862,141.941c0-2.287,0-4.35,0-6.613
				c6.02,0,11.965,0,18.092,0c0,2.15,0,4.311,0,6.613C874.964,141.941,869.013,141.941,862.862,141.941z"/>
			<path fill-rule="evenodd" clip-rule="evenodd" fill="#ED1C24" d="M860.808,135.34c0,2.203,0,4.32,0,6.588
				c-6.018,0-11.953,0-18.035,0c0-2.145,0-4.252,0-6.588C848.724,135.34,854.71,135.34,860.808,135.34z"/>
			<path fill-rule="evenodd" clip-rule="evenodd" fill="#ED1C24" d="M851.556,149.99c0-2.248,0-4.293,0-6.504
				c6.016,0,11.941,0,18.016,0c0,2.135,0,4.236,0,6.504C863.624,149.99,857.694,149.99,851.556,149.99z"/>
			<path fill-rule="evenodd" clip-rule="evenodd" fill="#ED1C24" d="M851.56,133.52c0-2.229,0-4.273,0-6.492
				c6.01,0,11.93,0,18.008,0c0,2.123,0,4.221,0,6.492C863.626,133.52,857.698,133.52,851.56,133.52z"/>
			<path fill-rule="evenodd" clip-rule="evenodd" fill="#ED1C24" d="M896.595,147.654c-0.004,3.258-2.482,5.709-5.75,5.689
				c-3.209-0.018-5.793-2.594-5.777-5.754c0.023-3.086,2.748-5.777,5.842-5.766C894.083,141.832,896.603,144.414,896.595,147.654z
				 M888.317,148.256c0.609,0.477,1.445,1.602,2.469,1.812c1.455,0.303,2.506-0.766,2.592-2.312
				c0.092-1.559-0.811-2.508-2.363-2.586C889.462,145.09,888.558,145.92,888.317,148.256z"/>
			<path fill-rule="evenodd" clip-rule="evenodd" fill="#ED1C24" d="M832.14,149.559c1.287-0.264,2.271-1.65,3.646-0.105
				C834.499,149.617,833.552,151.156,832.14,149.559z"/>
			<path fill-rule="evenodd" clip-rule="evenodd" fill="#ED1C24" d="M835.774,148.055c1.213-0.492,2.176-1.326,3.604-0.248
				C838.106,148.104,837.247,149.496,835.774,148.055z"/>
			<path fill-rule="evenodd" clip-rule="evenodd" fill="#ED1C24" d="M829.308,147.379c1.363-0.074,2.363-0.125,3.369-0.178
				C831.722,147.787,830.853,149.053,829.308,147.379z"/>
		</g>
	</g>
</g>
<g>
	<g>
		<path fill="#0E5461" d="M69.404,206.538c0,0.654-0.218,1.185-0.652,1.592c-0.435,0.407-1.158,0.611-2.17,0.611h-7.747l-1.012,5.59
			c1.271-0.247,2.433-0.37,3.484-0.37c1.479,0,2.78,0.21,3.902,0.629c1.122,0.42,2.066,1,2.832,1.74s1.343,1.607,1.732,2.601
			s0.584,2.064,0.584,3.212c0,1.419-0.263,2.715-0.789,3.887c-0.525,1.173-1.255,2.175-2.189,3.008
			c-0.935,0.833-2.041,1.479-3.319,1.935c-1.278,0.456-2.67,0.685-4.175,0.685c-0.883,0-1.72-0.086-2.511-0.259
			s-1.535-0.404-2.229-0.694c-0.694-0.29-1.337-0.623-1.927-0.999c-0.59-0.377-1.119-0.774-1.586-1.194l1.479-1.943
			c0.312-0.42,0.727-0.63,1.246-0.63c0.324,0,0.652,0.1,0.983,0.297c0.331,0.197,0.717,0.413,1.158,0.647
			c0.441,0.234,0.954,0.45,1.538,0.647c0.583,0.198,1.291,0.297,2.122,0.297c0.882,0,1.661-0.136,2.335-0.407
			s1.236-0.651,1.684-1.139s0.785-1.067,1.012-1.74c0.227-0.672,0.341-1.403,0.341-2.193c0-1.456-0.445-2.594-1.333-3.415
			c-0.889-0.82-2.196-1.23-3.922-1.23c-1.363,0-2.732,0.234-4.107,0.703l-2.998-0.814l2.335-12.994h13.898V206.538z"/>
		<path fill="#0E5461" d="M94.064,204.595v1.98c0,0.593-0.068,1.07-0.205,1.435s-0.27,0.67-0.399,0.916l-10.647,20.88
			c-0.221,0.432-0.532,0.799-0.934,1.102c-0.402,0.302-0.948,0.453-1.635,0.453h-3.484l10.9-20.454
			c0.454-0.839,0.96-1.561,1.518-2.165H75.709c-0.299,0-0.558-0.105-0.778-0.315c-0.221-0.209-0.331-0.456-0.331-0.74v-3.091H94.064
			z"/>
		<path fill="#FFFFFF" d="M106.447,231.36l-3.332-13.133h1.792l1.559,6.645c0.39,1.637,0.741,3.273,0.975,4.54h0.039
			c0.214-1.306,0.624-2.864,1.071-4.56l1.754-6.625h1.773l1.598,6.664c0.37,1.559,0.721,3.117,0.916,4.501h0.039
			c0.273-1.442,0.643-2.903,1.052-4.54l1.734-6.625h1.734l-3.722,13.133h-1.773l-1.656-6.84c-0.409-1.676-0.682-2.961-0.857-4.286
			h-0.039c-0.234,1.306-0.526,2.592-1.013,4.286l-1.871,6.84H106.447z"/>
		<path fill="#FFFFFF" d="M125.308,231.36l-0.136-1.188h-0.059c-0.526,0.74-1.54,1.402-2.884,1.402c-1.91,0-2.884-1.344-2.884-2.708
			c0-2.28,2.026-3.527,5.67-3.508v-0.194c0-0.779-0.214-2.183-2.143-2.183c-0.877,0-1.793,0.272-2.455,0.701l-0.39-1.13
			c0.78-0.507,1.91-0.838,3.099-0.838c2.884,0,3.585,1.968,3.585,3.858v3.526c0,0.818,0.039,1.618,0.156,2.261H125.308z
			 M125.054,226.548c-1.871-0.039-3.995,0.292-3.995,2.123c0,1.111,0.741,1.638,1.618,1.638c1.228,0,2.007-0.78,2.28-1.579
			c0.058-0.175,0.097-0.37,0.097-0.545V226.548z"/>
		<path fill="#FFFFFF" d="M131.464,219.221v2.709h2.455v1.306h-2.455v5.085c0,1.17,0.332,1.832,1.286,1.832
			c0.448,0,0.779-0.059,0.994-0.117l0.078,1.286c-0.332,0.137-0.857,0.234-1.52,0.234c-0.799,0-1.442-0.254-1.851-0.722
			c-0.487-0.507-0.663-1.344-0.663-2.455v-5.144h-1.461v-1.306h1.461v-2.261L131.464,219.221z"/>
		<path fill="#FFFFFF" d="M136.687,226.957c0.039,2.318,1.52,3.273,3.234,3.273c1.228,0,1.968-0.215,2.611-0.487l0.292,1.228
			c-0.604,0.272-1.637,0.585-3.137,0.585c-2.903,0-4.638-1.91-4.638-4.755s1.676-5.086,4.423-5.086c3.079,0,3.897,2.709,3.897,4.443
			c0,0.351-0.039,0.623-0.058,0.799H136.687z M141.713,225.729c0.02-1.092-0.448-2.787-2.377-2.787
			c-1.734,0-2.494,1.598-2.631,2.787H141.713z"/>
		<path fill="#FFFFFF" d="M145.493,224.872c0-1.111-0.02-2.065-0.078-2.942h1.5l0.059,1.851h0.078
			c0.429-1.267,1.461-2.065,2.611-2.065c0.195,0,0.332,0.02,0.487,0.059v1.617c-0.175-0.039-0.351-0.059-0.584-0.059
			c-1.208,0-2.065,0.916-2.299,2.202c-0.039,0.233-0.078,0.507-0.078,0.799v5.027h-1.695V224.872z"/>
		<path fill="#FFFFFF" d="M156.053,218.402c1.033-0.155,2.26-0.272,3.605-0.272c2.436,0,4.169,0.564,5.319,1.637
			c1.169,1.071,1.851,2.592,1.851,4.716c0,2.143-0.663,3.896-1.89,5.104c-1.228,1.228-3.254,1.891-5.807,1.891
			c-1.208,0-2.221-0.059-3.079-0.156V218.402z M157.749,230.016c0.429,0.078,1.052,0.098,1.714,0.098
			c3.625,0,5.593-2.026,5.593-5.573c0.019-3.098-1.734-5.065-5.32-5.065c-0.877,0-1.539,0.077-1.987,0.175V230.016z"/>
		<path fill="#FFFFFF" d="M170.004,226.957c0.039,2.318,1.52,3.273,3.234,3.273c1.228,0,1.968-0.215,2.611-0.487l0.292,1.228
			c-0.604,0.272-1.637,0.585-3.137,0.585c-2.903,0-4.638-1.91-4.638-4.755s1.676-5.086,4.423-5.086c3.079,0,3.897,2.709,3.897,4.443
			c0,0.351-0.039,0.623-0.058,0.799H170.004z M175.031,225.729c0.02-1.092-0.448-2.787-2.377-2.787
			c-1.734,0-2.494,1.598-2.631,2.787H175.031z"/>
		<path fill="#FFFFFF" d="M178.81,225.008c0-1.208-0.039-2.182-0.078-3.078h1.539l0.078,1.617h0.039
			c0.701-1.149,1.812-1.832,3.351-1.832c2.28,0,3.995,1.93,3.995,4.794c0,3.391-2.065,5.065-4.287,5.065
			c-1.247,0-2.338-0.545-2.903-1.48h-0.039v5.125h-1.695V225.008z M180.505,227.521c0,0.254,0.039,0.487,0.078,0.702
			c0.312,1.188,1.344,2.007,2.572,2.007c1.812,0,2.864-1.481,2.864-3.645c0-1.89-0.994-3.507-2.806-3.507
			c-1.169,0-2.26,0.838-2.592,2.124c-0.058,0.214-0.117,0.468-0.117,0.701V227.521z"/>
		<path fill="#FFFFFF" d="M191.961,219.221v2.709h2.455v1.306h-2.455v5.085c0,1.17,0.332,1.832,1.286,1.832
			c0.448,0,0.779-0.059,0.994-0.117l0.078,1.286c-0.332,0.137-0.857,0.234-1.52,0.234c-0.799,0-1.442-0.254-1.851-0.722
			c-0.487-0.507-0.663-1.344-0.663-2.455v-5.144h-1.461v-1.306h1.461v-2.261L191.961,219.221z"/>
		<path fill="#FFFFFF" d="M195.878,230.347c0-0.721,0.487-1.228,1.169-1.228c0.682,0,1.15,0.507,1.15,1.228
			c0,0.702-0.448,1.228-1.169,1.228C196.346,231.574,195.878,231.049,195.878,230.347z"/>
	</g>
	<g>
		<path fill-rule="evenodd" clip-rule="evenodd" fill="#969696" d="M114.823,33.023C100.762,44.707,86.865,56.25,72.981,67.803
			c-11.698,9.729-23.393,19.461-35.064,29.221c-2.778,2.322-6.005,3.404-8.669,0.73c-1.615-1.619-2.265-4.564-2.538-7.008
			c-0.13-1.176,1.377-2.84,2.538-3.812c26.926-22.545,53.909-45.021,80.879-67.516c3.242-2.701,6.454-2.674,9.689,0.02
			c26.844,22.371,53.711,44.715,80.521,67.125c3.738,3.123,4.357,7.43,1.613,10.295c-3.442,3.6-6.941,2.756-10.431-0.156
			c-23.934-19.975-47.886-39.922-71.842-59.869C118.191,35.592,116.633,34.439,114.823,33.023z"/>
		<path fill-rule="evenodd" clip-rule="evenodd" fill="#969696" d="M177.977,162.818c-3.06,0-5.344,0-8.384,0
			c0-2.08,0-3.984,0-5.885c0-17.754,0.11-35.518-0.137-53.268c-0.035-2.318-1.317-5.324-3.053-6.801
			c-16.915-14.379-34.052-28.5-51.443-42.961c-12.691,10.584-25.324,21.109-37.952,31.641c-2.885,2.404-5.526,5.201-8.7,7.131
			c-6.28,3.82-7.696,9.113-7.462,16.188c0.528,16.127,0.169,32.283,0.171,48.426c0,1.746,0,3.492,0,5.475c-2.978,0-5.423,0-8.601,0
			c0-1.846,0-3.57,0-5.297c0-19.551-0.104-39.1,0.143-58.648c0.03-2.311,1.382-5.311,3.134-6.789
			c18.062-15.254,36.393-30.193,54.496-45.404c3.622-3.043,6.248-2.84,9.78,0.133c18.243,15.332,36.678,30.438,54.959,45.73
			c1.374,1.154,2.906,3.137,2.919,4.746C178.043,118.902,177.977,140.578,177.977,162.818z"/>
		<g>
			<g>
				<path fill-rule="evenodd" clip-rule="evenodd" fill="#ED1C24" d="M87.164,112.365c0.662,0,1.231,0,1.801,0
					c5.012,0,10.02-0.004,15.031,0c5.276,0,10.553-0.049,15.829,0.016c4.668,0.053,7.91,3.324,8.043,7.969
					c0.016,0.514,0.054,1.033,0.088,1.623c3.228,0,6.34,0,9.419,0c0.082-0.182,0.156-0.273,0.163-0.369
					c0.931-9.109-6.271-17.998-15.396-18.771c-3.547-0.301-7.136-0.141-10.705-0.182c-0.62-0.008-1.235-0.004-2.024-0.004
					c0-1.568,0.167-2.92-0.054-4.203c-0.167-0.965-0.62-2.381-1.32-2.658c-1.941-0.77-1.595-2.025-1.304-3.611
					c2.426,0,4.816,0.053,7.206-0.021c1.366-0.041,2.241-1.023,2.169-2.264c-0.074-1.334-0.864-1.998-2.159-2.115
					c-0.105-0.008-0.212-0.012-0.318-0.012c-6.077,0-12.154-0.012-18.232,0.014c-1.455,0.006-2.428,0.957-2.424,2.203
					c0.004,1.242,0.971,2.129,2.443,2.217c0.532,0.035,1.065,0.008,1.598,0.008c1.797,0,3.597,0,5.49,0c0,1.078,0,1.957,0,2.904
					c-2.278,0.49-2.977,2.025-2.788,4.166c0.062,0.688-0.034,1.389,0.02,2.076c0.076,0.959-0.278,1.334-1.268,1.307
					c-2.026-0.057-4.053-0.01-6.075-0.01c-1.735,0.004-3.473,0-5.231,0C87.164,105.998,87.164,109.07,87.164,112.365z
					 M149.728,122.963c-0.014,0.189-0.05,0.445-0.046,0.699c0.092,4.15,0.407,8.309,0.229,12.447
					c-0.299,6.92-0.997,13.816-3.208,20.457c-0.259,0.779-0.574,1.104-1.437,1.104c-8.252-0.006-16.501,0.027-24.753,0.074
					c-1.127,0.008-1.773-0.416-2.01-1.555c-0.52-2.496-1.194-4.963-1.629-7.475c-1.395-8.064-1.977-16.18-1.214-24.359
					c0.05-0.502,0.008-1.01,0.008-1.578c-0.529-0.027-0.895-0.053-1.262-0.061c-2.357-0.035-2.436-0.035-2.528,2.26
					c-0.13,3.299-0.263,6.607-0.164,9.902c0.274,8.99,1.621,17.818,4.464,26.375c0.672,2.025,1.561,2.6,3.677,2.6
					c8.529,0.004,17.062,0.004,25.592,0c2.333,0,3.248-0.525,3.855-2.783c1.114-4.154,2.235-8.32,3.016-12.547
					c1.383-7.52,1.828-15.131,1.33-22.771c-0.217-3.303-0.419-3.398-3.714-2.945C149.888,122.814,149.848,122.873,149.728,122.963z
					 M141.949,129.908c-0.134-0.959-0.225-2.18-0.495-3.363c-0.257-1.111-1.056-1.744-2.233-1.547
					c-1.153,0.191-1.764,0.977-1.683,2.146c0.09,1.211,0.254,2.422,0.477,3.619c0.233,1.223,1.076,1.859,2.294,1.691
					C141.561,132.283,142.056,131.389,141.949,129.908z M123.066,153.008c0.556-0.652,1.345-1.223,1.605-1.979
					c0.373-1.08,0.407-2.287,0.491-3.443c0.089-1.217-0.449-2.098-1.717-2.271c-1.248-0.176-2.039,0.463-2.279,1.689
					c-0.229,1.139-0.43,2.291-0.552,3.445C120.482,151.68,121.518,152.742,123.066,153.008z M127.906,127.273
					c0.065-1.27-0.528-2.172-1.838-2.285c-1.218-0.111-1.988,0.602-2.169,1.844c-0.171,1.152-0.369,2.307-0.457,3.469
					c-0.083,1.162,0.521,1.969,1.675,2.154c1.248,0.201,2.055-0.484,2.306-1.672C127.667,129.646,127.751,128.479,127.906,127.273z
					 M140.136,147.775c0.225,1.027,0.459,2.273,0.778,3.502c0.301,1.154,1.085,1.65,2.281,1.41c1.277-0.26,1.768-1.105,1.619-2.328
					c-0.135-1.102-0.357-2.191-0.552-3.283c-0.221-1.238-0.949-1.906-2.223-1.758C140.775,145.465,140.324,146.389,140.136,147.775z
					 M126.56,137.193c-0.058-0.926-0.434-1.832-1.651-2.016c-1.241-0.189-2.092,0.371-2.321,1.631
					c-0.225,1.201-0.404,2.416-0.503,3.637c-0.095,1.18,0.512,1.965,1.691,2.129c1.26,0.17,2.05-0.477,2.278-1.709
					C126.259,139.715,126.377,138.545,126.56,137.193z M134.687,129.936c0.006,0,0.009,0,0.009,0
					c0.002-0.639,0.05-1.281-0.003-1.914c-0.107-1.186-0.792-1.855-1.979-1.865c-1.119-0.01-1.87,0.639-1.962,1.713
					c-0.116,1.369-0.112,2.77,0.023,4.141c0.108,1.092,0.894,1.658,2.019,1.615c1.13-0.043,1.775-0.664,1.884-1.775
					C134.737,131.219,134.687,130.574,134.687,129.936z M143.392,140.393c-0.168-1.168-0.301-2.389-0.521-3.592
					c-0.221-1.176-1.027-1.762-2.183-1.645c-1.178,0.123-1.824,0.906-1.75,2.086c0.077,1.271,0.226,2.549,0.49,3.797
					c0.238,1.139,1.062,1.709,2.247,1.541C142.882,142.408,143.368,141.596,143.392,140.393z M134.677,140.121h-0.012
					c0-0.641,0.03-1.281-0.008-1.916c-0.072-1.143-0.753-1.754-1.846-1.818c-1.114-0.066-1.929,0.551-2.037,1.621
					c-0.14,1.422-0.134,2.881,0.017,4.303c0.116,1.082,1.009,1.82,2.04,1.533c0.714-0.195,1.416-0.977,1.787-1.678
					C134.907,141.629,134.677,140.816,134.677,140.121z M134.81,149.529c-0.021,0-0.042,0-0.061,0
					c-0.021-0.422,0.114-0.979-0.106-1.244c-0.529-0.635-1.146-1.447-1.863-1.617c-1.029-0.242-1.9,0.51-2.011,1.596
					c-0.134,1.369-0.13,2.773-0.008,4.146c0.108,1.199,0.969,1.707,2.154,1.641c1.146-0.061,1.746-0.615,1.742-1.818
					C134.657,151.33,134.757,150.43,134.81,149.529z"/>
			</g>
		</g>
	</g>
</g>
<g>
	<g>
		<path fill="#0E5461" d="M389.314,218.756h5.703v-15.604c0-0.604,0.02-1.24,0.059-1.906l-4.049,3.221
			c-0.169,0.136-0.34,0.229-0.516,0.277c-0.175,0.05-0.348,0.074-0.516,0.074c-0.26,0-0.496-0.053-0.71-0.157
			c-0.214-0.105-0.373-0.226-0.477-0.361l-1.519-1.98l8.584-6.941h3.951v23.378h5.061v3.425h-15.572V218.756z"/>
		<path fill="#0E5461" d="M428.262,208.798c0,2.332-0.263,4.359-0.788,6.08c-0.526,1.722-1.252,3.145-2.18,4.267
			c-0.928,1.123-2.024,1.96-3.29,2.509s-2.631,0.823-4.097,0.823c-1.467,0-2.826-0.274-4.078-0.823
			c-1.252-0.549-2.339-1.386-3.261-2.509c-0.921-1.122-1.642-2.545-2.16-4.267c-0.52-1.721-0.779-3.748-0.779-6.08
			c0-2.345,0.259-4.375,0.779-6.09c0.519-1.715,1.239-3.135,2.16-4.258c0.921-1.122,2.008-1.958,3.261-2.508
			c1.252-0.549,2.611-0.823,4.078-0.823c1.466,0,2.832,0.274,4.097,0.823c1.265,0.55,2.362,1.386,3.29,2.508
			c0.928,1.123,1.654,2.543,2.18,4.258C428,204.423,428.262,206.453,428.262,208.798z M423.299,208.798
			c0-1.938-0.149-3.542-0.448-4.812c-0.299-1.271-0.698-2.283-1.197-3.036c-0.5-0.752-1.074-1.28-1.722-1.582
			c-0.649-0.303-1.324-0.454-2.024-0.454c-0.688,0-1.353,0.151-1.995,0.454c-0.643,0.302-1.21,0.83-1.703,1.582
			c-0.493,0.753-0.886,1.765-1.178,3.036c-0.292,1.271-0.438,2.875-0.438,4.812s0.146,3.542,0.438,4.812
			c0.292,1.271,0.685,2.283,1.178,3.036s1.061,1.28,1.703,1.582c0.642,0.303,1.307,0.454,1.995,0.454
			c0.701,0,1.375-0.151,2.024-0.454c0.648-0.302,1.223-0.829,1.722-1.582s0.898-1.765,1.197-3.036
			C423.149,212.34,423.299,210.735,423.299,208.798z"/>
		<path fill="#0E5461" d="M439.551,211.5c-0.973,0-1.927-0.16-2.861-0.481c-0.935-0.32-1.769-0.805-2.501-1.452
			c-0.733-0.648-1.32-1.45-1.761-2.407c-0.441-0.956-0.662-2.075-0.662-3.359c0-1.196,0.234-2.319,0.701-3.368
			c0.467-1.049,1.123-1.969,1.966-2.759c0.844-0.789,1.856-1.412,3.037-1.869c1.181-0.456,2.485-0.685,3.913-0.685
			c1.44,0,2.734,0.216,3.883,0.647c1.148,0.433,2.128,1.036,2.939,1.814c0.811,0.777,1.434,1.709,1.868,2.795
			s0.652,2.276,0.652,3.572c0,0.827-0.075,1.61-0.224,2.351c-0.149,0.74-0.363,1.453-0.642,2.138
			c-0.279,0.686-0.613,1.352-1.002,1.999c-0.389,0.648-0.824,1.299-1.304,1.953l-6.443,8.737c-0.221,0.296-0.548,0.546-0.983,0.749
			c-0.435,0.204-0.931,0.306-1.489,0.306h-4.418l8.739-10.384c0.221-0.26,0.428-0.513,0.623-0.76
			c0.195-0.246,0.383-0.493,0.564-0.74c-0.649,0.396-1.362,0.694-2.141,0.898C441.225,211.398,440.407,211.5,439.551,211.5z
			 M446.11,203.485c0-0.728-0.117-1.379-0.35-1.953c-0.234-0.573-0.564-1.058-0.993-1.453c-0.428-0.395-0.938-0.696-1.528-0.906
			s-1.236-0.315-1.937-0.315c-0.727,0-1.382,0.114-1.966,0.343s-1.08,0.546-1.489,0.953c-0.409,0.407-0.723,0.892-0.944,1.453
			s-0.331,1.176-0.331,1.842c0,1.493,0.406,2.632,1.217,3.415c0.811,0.784,1.962,1.176,3.455,1.176c0.778,0,1.469-0.117,2.073-0.352
			s1.112-0.556,1.528-0.963c0.415-0.407,0.73-0.889,0.944-1.443C446.003,204.726,446.11,204.127,446.11,203.485z"/>
		<path fill="#FFFFFF" d="M463.301,210.489h-3.995v-1.441h9.723v1.441h-4.014v11.691h-1.715V210.489z"/>
		<path fill="#FFFFFF" d="M469.555,215.692c0-1.111-0.02-2.065-0.078-2.942h1.5l0.059,1.851h0.078
			c0.429-1.267,1.461-2.065,2.611-2.065c0.195,0,0.332,0.02,0.487,0.059v1.617c-0.175-0.039-0.351-0.059-0.584-0.059
			c-1.208,0-2.065,0.916-2.299,2.202c-0.039,0.233-0.078,0.507-0.078,0.799v5.027h-1.695V215.692z"/>
		<path fill="#FFFFFF" d="M481.051,222.181l-0.136-1.188h-0.059c-0.526,0.74-1.54,1.402-2.884,1.402
			c-1.91,0-2.884-1.344-2.884-2.708c0-2.28,2.026-3.527,5.67-3.508v-0.194c0-0.779-0.214-2.183-2.143-2.183
			c-0.877,0-1.793,0.273-2.455,0.701l-0.39-1.13c0.78-0.507,1.91-0.838,3.099-0.838c2.884,0,3.585,1.968,3.585,3.858v3.526
			c0,0.818,0.039,1.618,0.156,2.261H481.051z M480.798,217.368c-1.871-0.039-3.995,0.292-3.995,2.123
			c0,1.111,0.741,1.638,1.618,1.638c1.228,0,2.007-0.78,2.28-1.579c0.058-0.175,0.097-0.37,0.097-0.545V217.368z"/>
		<path fill="#FFFFFF" d="M497.029,210.021c-0.429-0.272-1.13-0.507-1.909-0.507c-1.812,0-2.358,1.267-2.358,2.768v0.468h5.495
			v9.431h-1.714v-8.125h-3.761v8.125h-1.715v-8.125h-3.975v8.125h-1.695v-8.125h-1.325v-1.306h1.325v-0.351
			c0-1.189,0.312-2.339,1.13-3.138c0.545-0.565,1.364-0.916,2.416-0.916c0.643,0,1.306,0.234,1.656,0.409l-0.467,1.267
			c-0.292-0.155-0.741-0.331-1.189-0.331c-0.545,0-0.935,0.195-1.228,0.507c-0.468,0.507-0.624,1.364-0.624,2.183v0.37h3.975v-0.507
			c0-2.494,1.481-4.111,4.131-4.111c0.857,0,1.832,0.253,2.338,0.604L497.029,210.021z"/>
		<path fill="#FFFFFF" d="M507.823,221.83c-0.448,0.233-1.442,0.546-2.708,0.546c-2.845,0-4.696-1.93-4.696-4.813
			c0-2.903,1.988-5.008,5.066-5.008c1.013,0,1.91,0.254,2.377,0.487l-0.39,1.325c-0.409-0.234-1.052-0.448-1.987-0.448
			c-2.163,0-3.332,1.598-3.332,3.565c0,2.183,1.403,3.527,3.273,3.527c0.975,0,1.618-0.254,2.104-0.468L507.823,221.83z"/>
		<path fill="#FFFFFF" d="M514.018,209.223c1.033-0.155,2.26-0.272,3.605-0.272c2.436,0,4.169,0.564,5.319,1.637
			c1.169,1.071,1.851,2.592,1.851,4.716c0,2.143-0.663,3.896-1.89,5.104c-1.228,1.228-3.254,1.891-5.807,1.891
			c-1.208,0-2.221-0.059-3.079-0.156V209.223z M515.713,220.836c0.429,0.078,1.052,0.098,1.714,0.098
			c3.625,0,5.593-2.026,5.593-5.573c0.019-3.098-1.734-5.065-5.32-5.065c-0.877,0-1.539,0.077-1.987,0.175V220.836z"/>
		<path fill="#FFFFFF" d="M527.968,217.777c0.039,2.318,1.52,3.273,3.234,3.273c1.228,0,1.968-0.215,2.611-0.487l0.292,1.228
			c-0.604,0.272-1.637,0.585-3.137,0.585c-2.903,0-4.638-1.91-4.638-4.755s1.676-5.086,4.423-5.086c3.079,0,3.897,2.709,3.897,4.443
			c0,0.351-0.039,0.623-0.058,0.799H527.968z M532.995,216.55c0.02-1.092-0.448-2.787-2.377-2.787c-1.734,0-2.494,1.598-2.631,2.787
			H532.995z"/>
		<path fill="#FFFFFF" d="M536.775,215.828c0-1.208-0.039-2.182-0.078-3.078h1.539l0.078,1.617h0.039
			c0.701-1.149,1.812-1.832,3.351-1.832c2.28,0,3.995,1.93,3.995,4.794c0,3.391-2.065,5.065-4.287,5.065
			c-1.247,0-2.338-0.545-2.903-1.48h-0.039v5.125h-1.695V215.828z M538.47,218.342c0,0.254,0.039,0.487,0.078,0.702
			c0.312,1.188,1.344,2.007,2.572,2.007c1.812,0,2.864-1.481,2.864-3.645c0-1.89-0.994-3.507-2.806-3.507
			c-1.169,0-2.26,0.838-2.592,2.124c-0.058,0.214-0.117,0.468-0.117,0.701V218.342z"/>
		<path fill="#FFFFFF" d="M549.926,210.041v2.709h2.455v1.306h-2.455v5.085c0,1.169,0.332,1.832,1.286,1.832
			c0.448,0,0.779-0.059,0.994-0.117l0.078,1.286c-0.332,0.137-0.857,0.234-1.52,0.234c-0.799,0-1.442-0.254-1.851-0.722
			c-0.487-0.507-0.663-1.345-0.663-2.455v-5.144h-1.461v-1.306h1.461v-2.261L549.926,210.041z"/>
		<path fill="#FFFFFF" d="M553.843,221.167c0-0.721,0.487-1.228,1.169-1.228c0.682,0,1.15,0.507,1.15,1.228
			c0,0.702-0.448,1.228-1.169,1.228C554.311,222.395,553.843,221.869,553.843,221.167z"/>
	</g>
	<path fill-rule="evenodd" clip-rule="evenodd" fill="#969696" d="M466.06,42.203c-14.065,11.682-27.957,23.225-41.846,34.777
		c-11.694,9.729-23.391,19.463-35.061,29.219c-2.777,2.326-6.007,3.406-8.671,0.732c-1.613-1.617-2.264-4.564-2.538-7.006
		c-0.131-1.178,1.378-2.84,2.538-3.814c26.927-22.543,53.911-45.02,80.88-67.514c3.242-2.701,6.454-2.676,9.688,0.02
		c26.845,22.369,53.712,44.715,80.523,67.121c3.739,3.125,4.355,7.434,1.613,10.299c-3.441,3.6-6.944,2.754-10.433-0.156
		c-23.933-19.977-47.885-39.924-71.841-59.869C469.424,44.771,467.865,43.617,466.06,42.203z"/>
	<path fill-rule="evenodd" clip-rule="evenodd" fill="#969696" d="M529.213,171.998c-3.058,0-5.345,0-8.386,0
		c0-2.082,0-3.984,0-5.887c0-17.754,0.112-35.518-0.135-53.268c-0.034-2.316-1.316-5.322-3.052-6.799
		c-16.918-14.383-34.055-28.5-51.445-42.961c-12.691,10.582-25.322,21.109-37.955,31.639c-2.883,2.404-5.523,5.203-8.697,7.131
		c-6.279,3.822-7.695,9.115-7.463,16.189c0.531,16.125,0.171,32.283,0.171,48.426c0,1.742,0,3.49,0,5.473c-2.976,0-5.423,0-8.601,0
		c0-1.846,0-3.57,0-5.297c0-19.551-0.103-39.1,0.142-58.648c0.03-2.311,1.381-5.309,3.136-6.789
		c18.062-15.252,36.393-30.193,54.495-45.404c3.621-3.043,6.249-2.838,9.782,0.133c18.244,15.334,36.678,30.438,54.956,45.732
		c1.375,1.152,2.909,3.135,2.923,4.746C529.277,128.082,529.213,149.754,529.213,171.998z"/>
	<g>
		<path fill="none" d="M428.419,155.555c0,5.518-0.007,11.039,0,16.561c0.006,1.492-0.344,1.988,1.737,1.648
			c1.336-0.213,1.352-0.129,1.352-1.506c0.002-7.688,0.002-15.375,0.002-23.062c0-3.623,0.017-7.25-0.012-10.873
			c-0.008-0.814,0.229-1.188,1.094-1.125c0.845,0.053,1.693,0.029,2.542,0c1.105-0.047,1.709-0.633,1.711-1.713
			c0.008-10.295,0.008-20.592,0.004-30.887c-0.002-1.092-0.533-1.641-1.617-1.646c-3.486-0.023-6.976-0.02-10.464-0.004
			c-1.146,0.006-1.667,0.547-1.667,1.701c-0.009,10.26-0.009,20.521,0.002,30.781c0,1.146,0.596,1.725,1.765,1.768
			c0.709,0.025,1.421,0.006,2.131,0.01c1.414,0,1.421,0.004,1.421,1.379C428.419,144.244,428.419,149.898,428.419,155.555z"/>
		<path fill-rule="evenodd" clip-rule="evenodd" d="M436.849,104.598c-0.002-1.092-0.533-1.641-1.617-1.646
			c-3.486-0.023-6.976-0.02-10.464-0.004c-1.146,0.006-1.667,0.547-1.667,1.701c-0.009,10.26-0.009,20.521,0.002,30.781
			c0,1.146,0.596,1.725,1.765,1.768c0.709,0.025,1.421,0.006,2.131,0.01c0.909,0,1.236,0.004,1.353,0.369
			c1.062,0.119,2.126,0.168,3.189,0.24c0.101-0.461,0.394-0.666,1.052-0.619c0.845,0.053,1.693,0.029,2.542,0
			c1.105-0.047,1.709-0.633,1.711-1.713C436.853,125.189,436.853,114.893,436.849,104.598z"/>
		<g>
			<path fill="#FDFDFD" d="M431.165,137.363c-0.788,0.012-1.649,0.051-2.487,0.195c0.01,0.129,0.014,0.258,0.014,0.387
				c0.004,11.635,0.012,23.271-0.022,34.904c0,0.959,0.245,1.314,1.185,1.062c1.854,0.045,1.854,0.045,1.854-1.742
				c-0.002-11.604-0.006-23.203-0.006-34.807C431.522,137.363,431.342,137.359,431.165,137.363z"/>
			<path fill-rule="evenodd" clip-rule="evenodd" fill="#BFC3C4" d="M429.859,137.342c0.615,0.004,1.229,0.006,1.842,0.01
				c0,11.607,0.004,23.211,0.006,34.818c0,1.787,0,1.787-1.854,1.742C429.855,161.723,429.859,149.529,429.859,137.342z"/>
			<path fill-rule="evenodd" clip-rule="evenodd" fill="#626A6B" d="M429.859,137.342c0,12.188-0.004,24.381-0.006,36.57
				c-0.939,0.252-1.185-0.104-1.185-1.062c0.034-11.633,0.026-23.27,0.022-34.904c0-0.201-0.014-0.402-0.022-0.604
				C429.066,137.342,429.464,137.342,429.859,137.342z"/>
		</g>
		<path fill="#D2161C" d="M434.427,109.15c0,2.377-1.93,4.307-4.309,4.307c-2.38,0-4.308-1.93-4.308-4.307
			c0-2.383,1.928-4.312,4.308-4.312C432.497,104.838,434.427,106.768,434.427,109.15z"/>
		<path fill="#FEB81B" d="M434.427,118.953c0,2.377-1.93,4.307-4.309,4.307c-2.38,0-4.308-1.93-4.308-4.307
			c0-2.383,1.928-4.312,4.308-4.312C432.497,114.641,434.427,116.57,434.427,118.953z"/>
		<path fill="#7DBA3F" d="M434.427,129.258c0,2.383-1.93,4.312-4.309,4.312c-2.38,0-4.308-1.93-4.308-4.312
			c0-2.379,1.928-4.309,4.308-4.309C432.497,124.949,434.427,126.879,434.427,129.258z"/>
	</g>
	<g>
		<path fill-rule="evenodd" clip-rule="evenodd" fill="#ED1C24" d="M448.493,140.453c0-0.852,0-1.541,0-2.377
			c2.08,0.098,4.11,0.197,6.152,0.297c0-2.078,0.257-4.08-0.068-5.982c-0.32-1.881-1.226-3.654-1.915-5.58c1.697,0,3.27,0,5.104,0
			c-1.499,3.691-2.907,7.357-2.004,11.555c1.943-0.096,3.979-0.191,6.118-0.293c0,0.768,0,1.48,0,2.375
			c-2.018,0.117-4.088,0.238-6.241,0.369c0,0.691,0,1.369,0,2.096c2.077,0,4.144,0,6.277,0c0,0.662,0,1.348,0,2.23
			c-2.05,0.117-4.12,0.24-6.275,0.365c0,0.771,0,1.529,0,2.516c1.975-0.164,3.923-0.328,6.043-0.502c0,0.65,0,1.293,0,1.936
			c0,6.018,0,12.033-0.002,18.055c0,0.346,0.008,0.699-0.03,1.047c-0.177,1.689-1.396,2.797-3.025,2.762
			c-1.61-0.033-2.854-1.217-2.877-2.91c-0.048-3.459-0.016-6.924-0.016-10.383c0-2.717,0-5.434,0-8.182
			c-1.05-0.475-1.092,0.145-1.092,0.887c0.008,5.754,0.01,11.504,0.002,17.262c-0.002,1.934-1.051,3.201-2.7,3.318
			c-1.912,0.137-3.22-1.16-3.229-3.268c-0.013-5.211-0.002-10.424-0.002-15.635c0-1.625,0-3.25,0-4.896
			c2.04,0.182,3.96,0.35,5.992,0.529c0-0.914,0-1.693,0-2.543c-2.059-0.113-4.097-0.225-6.193-0.338c0-0.834,0-1.549,0-2.383
			c2.087,0.1,4.121,0.189,6.226,0.289c0-0.818,0-1.5,0-2.252C452.676,140.693,450.636,140.58,448.493,140.453z"/>
		<path fill-rule="evenodd" clip-rule="evenodd" fill="#ED1C24" d="M493.397,137.342c-7.45,0-14.705,0-22.088,0
			c0-1.336-0.004-2.611,0.002-3.883c0-0.113,0.004-0.293,0.074-0.33c1.665-0.895,1.745-2.719,2.15-4.176
			c0.732-2.637,2.024-3.824,4.899-4.105c3.669-0.357,7.206-0.027,10.77,0.578c0.314,0.053,0.678,0.48,0.811,0.818
			c0.752,1.873,1.416,3.779,2.164,5.654c0.155,0.393,0.542,0.686,0.811,1.035c0.148,0.195,0.38,0.408,0.388,0.617
			C493.414,134.783,493.397,136.023,493.397,137.342z M490.364,132.033c-0.586-1.568-1.121-3.061-1.719-4.525
			c-0.101-0.252-0.47-0.492-0.751-0.553c-3.688-0.807-7.385-0.818-11.074-0.016c-0.276,0.059-0.664,0.211-0.746,0.42
			c-0.612,1.525-1.168,3.078-1.758,4.67c2.771-0.232,5.389-0.629,8.005-0.629C484.943,131.4,487.563,131.797,490.364,132.033z
			 M490.149,133.588c-0.876,0.084-1.418,0.564-1.424,1.408c-0.008,0.854,0.531,1.408,1.388,1.408c0.847,0,1.391-0.521,1.398-1.393
			C491.524,134.133,490.969,133.699,490.149,133.588z M473.147,134.916c0.03,0.914,0.507,1.451,1.354,1.48
			c0.843,0.035,1.409-0.482,1.443-1.338c0.033-0.861-0.49-1.408-1.343-1.443C473.751,133.584,473.247,134.084,473.147,134.916z"/>
		<path fill-rule="evenodd" clip-rule="evenodd" fill="#ED1C24" d="M449.831,119.764c0.375-1.055-0.521-1.609-1.157-2.246
			c-0.555-0.551-0.654-1.016-0.416-1.822c0.534-1.781,1.699-2.645,3.314-3.494c2.546-1.336,4.841-1.488,7.232,0.088
			c0.867,0.57,2.07,0.518,2.634,1.705c0.789,1.682,1.312,3.182-0.587,4.502c-0.257,0.178-0.264,0.83-0.257,1.26
			c0.069,3.139-2.304,5.633-5.405,5.643C452.143,125.406,449.774,122.963,449.831,119.764z M460.323,117.697
			c-0.287-1.219-1.751-1.752-4.896-1.789c-3.316-0.039-5.048,0.533-5.371,1.789C453.462,116.281,456.858,116.262,460.323,117.697z
			 M453.432,113.652c1.788,1.236,2.057,1.229,3.518-0.039C455.834,112.316,454.571,112.254,453.432,113.652z"/>
		<path fill-rule="evenodd" clip-rule="evenodd" fill="#ED1C24" d="M460.692,126.879c1.729,0.369,2.857,1.443,3.742,2.801
			c1.528,2.342,2.188,5.006,2.377,7.719c0.238,3.33,0.23,6.678,0.196,10.012c-0.01,0.666-0.465,1.541-0.995,1.934
			c-1.237,0.91-2.822-0.16-2.828-1.809c-0.008-2.645,0.134-5.293-0.046-7.922c-0.139-1.994-0.338-4.111-1.118-5.91
			c-0.895-2.062-0.977-4.18-1.364-6.279C460.63,127.279,460.673,127.123,460.692,126.879z"/>
		<path fill-rule="evenodd" clip-rule="evenodd" fill="#ED1C24" d="M449.778,127.016c-0.447,2.143-0.28,4.352-1.35,6.451
			c-0.698,1.371-0.949,3.053-1.052,4.619c-0.196,2.98-0.19,5.973-0.176,8.959c0.012,1.588-0.559,2.535-1.824,2.584
			c-1.229,0.049-1.976-0.775-2.028-2.299c-0.166-4.586-0.358-9.197,0.957-13.654c0.502-1.709,1.374-3.375,2.378-4.855
			c0.615-0.906,1.805-1.424,2.736-2.119C449.538,126.807,449.658,126.91,449.778,127.016z"/>
		<path fill-rule="evenodd" clip-rule="evenodd" fill="#ED1C24" d="M495.517,144.826c1.719-0.449,2.873,0.115,4.021,1.279
			c4.717,4.783,9.527,9.473,14.311,14.191c0.188,0.186,0.403,0.342,0.514,0.787c-1.716,0-3.436,0.02-5.15-0.027
			c-0.245-0.004-0.538-0.273-0.725-0.498c-4.245-5.1-8.484-10.215-12.721-15.324C495.677,145.123,495.614,144.99,495.517,144.826z"
			/>
		<path fill-rule="evenodd" clip-rule="evenodd" fill="#ED1C24" d="M490.102,144.801c1.607-0.369,2.709-0.02,3.676,1.566
			c2.979,4.895,6.163,9.666,9.419,14.709c-1.942,0-3.693,0.02-5.438-0.023c-0.185-0.004-0.426-0.309-0.526-0.525
			c-2.396-5.164-4.771-10.336-7.144-15.506C490.06,144.963,490.094,144.875,490.102,144.801z"/>
		<path fill-rule="evenodd" clip-rule="evenodd" fill="#ED1C24" d="M463.15,161.096c2.782-4.342,5.421-8.453,8.059-12.566
			c0.418-0.654,0.845-1.301,1.266-1.957c1.288-2.004,1.288-2.004,3.76-1.811c-0.054,0.221-0.068,0.445-0.156,0.639
			c-2.281,4.971-4.552,9.941-6.885,14.889c-0.175,0.369-0.767,0.746-1.182,0.768C466.469,161.148,464.914,161.096,463.15,161.096z"
			/>
		<path fill-rule="evenodd" clip-rule="evenodd" fill="#ED1C24" d="M474.571,161.096c1.545-5.602,3.027-10.973,4.508-16.338
			c0.945,0,1.784,0,2.729,0c-0.318,3.43-0.626,6.785-0.935,10.139c-0.16,1.738-0.343,3.479-0.463,5.221
			c-0.043,0.727-0.293,1.02-1.052,0.994C477.812,161.057,476.261,161.096,474.571,161.096z"/>
		<path fill-rule="evenodd" clip-rule="evenodd" fill="#ED1C24" d="M491.673,161.035c-1.929,0-3.733,0-5.636,0
			c-0.51-5.436-1.013-10.816-1.53-16.338c0.84,0,1.538-0.068,2.212,0.033c0.266,0.043,0.606,0.424,0.692,0.713
			c0.712,2.416,1.376,4.848,2.043,7.275c0.695,2.531,1.394,5.066,2.084,7.6C491.59,160.502,491.61,160.691,491.673,161.035z"/>
		<path fill-rule="evenodd" clip-rule="evenodd" fill="#ED1C24" d="M493.39,137.938c-0.096,0.717,0.428,1.484-0.7,1.756
			c-0.164,0.041-0.056,1.012-0.152,1.537c-0.096,0.537-0.188,1.441-0.465,1.514c-0.785,0.207-1.661,0.139-2.488,0.035
			c-0.192-0.027-0.411-0.609-0.445-0.951c-0.072-0.693-0.021-1.396-0.021-2.186c-4.508,0-8.949,0-13.563,0
			c0,0.637-0.036,1.283,0.006,1.922c0.064,0.986-0.329,1.408-1.348,1.412c-1.988,0.012-2.085-0.061-2.119-2.062
			c-0.012-0.541,0.315-1.236-0.628-1.502c-0.181-0.051-0.134-0.902-0.202-1.475C478.676,137.938,485.957,137.938,493.39,137.938z"/>
		<path fill-rule="evenodd" clip-rule="evenodd" fill="#ED1C24" d="M448.435,136.83c1.547-0.234,2.949-0.662,3.252-2.457
			c-0.72-0.502-1.308-2.816-0.748-3.459c0.251-0.293,0.893-0.332,1.362-0.328c0.259,0,0.668,0.266,0.758,0.506
			c0.681,1.83-1.559,5.922-3.482,6.029c-0.354,0.018-0.71,0.053-1.062,0.078C448.488,137.078,448.461,136.953,448.435,136.83z"/>
		<path fill-rule="evenodd" clip-rule="evenodd" fill="#ED1C24" d="M485.942,127.234c1.082,0.01,1.979,0.955,1.952,2.051
			c-0.032,1.068-0.87,1.887-1.952,1.898c-1.133,0.008-2.016-0.85-2.01-1.959C483.937,128.121,484.85,127.219,485.942,127.234z"/>
	</g>
</g>
</svg>
