<?xml version="1.0" encoding="utf-8"?>
<!-- Generator: Adobe Illustrator 16.0.0, SVG Export Plug-In . SVG Version: 6.00 Build 0)  -->
<!DOCTYPE svg PUBLIC "-//W3C//DTD SVG 1.1//EN" "http://www.w3.org/Graphics/SVG/1.1/DTD/svg11.dtd">
<svg version="1.1" id="Layer_1" xmlns="http://www.w3.org/2000/svg" xmlns:xlink="http://www.w3.org/1999/xlink" x="0px" y="0px"
	 width="721px" height="250.601px" viewBox="0 0 721 250.601" enable-background="new 0 0 721 250.601" xml:space="preserve">
<g>
	<path fill="#FFFFFF" d="M236.91,199.245h5.05v-13.816c0-0.535,0.017-1.098,0.052-1.688l-3.585,2.852
		c-0.149,0.121-0.302,0.202-0.457,0.246c-0.155,0.043-0.308,0.065-0.457,0.065c-0.23,0-0.439-0.046-0.629-0.139
		s-0.331-0.2-0.422-0.32l-1.344-1.754l7.601-6.146h3.499v20.7h4.481v3.032H236.91V199.245z"/>
	<path fill="#FFFFFF" d="M271.396,190.428c0,2.065-0.232,3.859-0.698,5.384s-1.109,2.784-1.93,3.778
		c-0.822,0.995-1.792,1.735-2.913,2.221c-1.12,0.486-2.33,0.729-3.628,0.729s-2.502-0.243-3.61-0.729
		c-1.109-0.486-2.071-1.226-2.887-2.221c-0.816-0.994-1.454-2.253-1.913-3.778c-0.46-1.524-0.689-3.319-0.689-5.384
		c0-2.076,0.229-3.874,0.689-5.393c0.459-1.519,1.097-2.775,1.913-3.77c0.815-0.994,1.778-1.734,2.887-2.221
		c1.108-0.486,2.312-0.729,3.61-0.729s2.508,0.243,3.628,0.729c1.121,0.486,2.091,1.227,2.913,2.221
		c0.821,0.995,1.465,2.251,1.93,3.77C271.163,186.554,271.396,188.352,271.396,190.428z M267.001,190.428
		c0-1.715-0.132-3.136-0.396-4.262c-0.265-1.125-0.618-2.021-1.06-2.688c-0.442-0.666-0.951-1.133-1.525-1.401
		s-1.172-0.402-1.792-0.402c-0.609,0-1.198,0.134-1.766,0.402c-0.569,0.268-1.072,0.735-1.508,1.401
		c-0.437,0.667-0.784,1.563-1.042,2.688c-0.259,1.125-0.388,2.546-0.388,4.262s0.129,3.136,0.388,4.261
		c0.258,1.125,0.606,2.021,1.042,2.688s0.939,1.134,1.508,1.401c0.568,0.268,1.157,0.401,1.766,0.401
		c0.621,0,1.218-0.134,1.792-0.401s1.083-0.735,1.525-1.401s0.795-1.562,1.06-2.688
		C266.869,193.563,267.001,192.143,267.001,190.428z"/>
	<path fill="#FFFFFF" d="M284.821,184.314c0,0.896-0.158,1.705-0.474,2.426c-0.316,0.721-0.739,1.336-1.267,1.844
		c-0.528,0.508-1.143,0.899-1.844,1.172c-0.701,0.273-1.431,0.41-2.189,0.41c-0.827,0-1.592-0.137-2.292-0.41
		c-0.701-0.273-1.307-0.664-1.818-1.172c-0.512-0.508-0.911-1.123-1.198-1.844c-0.288-0.721-0.431-1.53-0.431-2.426
		c0-0.917,0.144-1.748,0.431-2.491c0.287-0.743,0.686-1.371,1.198-1.885c0.511-0.513,1.117-0.91,1.818-1.188
		c0.701-0.279,1.465-0.418,2.292-0.418s1.594,0.139,2.301,0.418c0.707,0.278,1.318,0.675,1.835,1.188
		c0.517,0.514,0.919,1.142,1.207,1.885C284.677,182.566,284.821,183.396,284.821,184.314z M293.111,179.217
		c0.138-0.164,0.31-0.312,0.517-0.442c0.207-0.131,0.494-0.197,0.862-0.197h3.085l-18.51,23.093
		c-0.138,0.175-0.313,0.32-0.525,0.435c-0.213,0.115-0.468,0.172-0.767,0.172h-3.171L293.111,179.217z M281.529,184.314
		c0-0.633-0.063-1.164-0.19-1.59c-0.126-0.426-0.301-0.77-0.525-1.032s-0.489-0.451-0.793-0.565
		c-0.305-0.115-0.629-0.172-0.974-0.172s-0.667,0.058-0.965,0.172s-0.557,0.303-0.775,0.565s-0.388,0.606-0.508,1.032
		c-0.121,0.426-0.181,0.957-0.181,1.59c0,0.612,0.061,1.123,0.181,1.533s0.29,0.74,0.508,0.992s0.477,0.432,0.775,0.541
		c0.299,0.109,0.621,0.164,0.965,0.164s0.669-0.055,0.974-0.164c0.304-0.109,0.569-0.289,0.793-0.541s0.399-0.582,0.525-0.992
		S281.529,184.926,281.529,184.314z M298.884,196.705c0,0.896-0.158,1.705-0.474,2.426c-0.316,0.721-0.739,1.336-1.267,1.844
		c-0.528,0.508-1.143,0.902-1.844,1.18c-0.701,0.279-1.431,0.418-2.189,0.418c-0.827,0-1.592-0.139-2.292-0.418
		c-0.701-0.278-1.307-0.672-1.818-1.18c-0.512-0.508-0.911-1.123-1.198-1.844c-0.288-0.721-0.431-1.529-0.431-2.426
		c0-0.917,0.144-1.748,0.431-2.491c0.287-0.743,0.686-1.371,1.198-1.885c0.511-0.513,1.117-0.91,1.818-1.188
		c0.701-0.279,1.465-0.418,2.292-0.418s1.594,0.139,2.301,0.418c0.707,0.278,1.318,0.675,1.835,1.188
		c0.517,0.514,0.919,1.142,1.207,1.885C298.741,194.957,298.884,195.787,298.884,196.705z M295.61,196.705
		c0-0.633-0.066-1.164-0.198-1.589c-0.132-0.426-0.31-0.771-0.534-1.033s-0.489-0.451-0.793-0.565
		c-0.305-0.115-0.629-0.172-0.974-0.172s-0.667,0.058-0.965,0.172s-0.554,0.303-0.767,0.565c-0.213,0.262-0.382,0.606-0.509,1.033
		c-0.126,0.426-0.189,0.956-0.189,1.589c0,0.612,0.063,1.126,0.189,1.541s0.296,0.749,0.509,1c0.212,0.251,0.468,0.432,0.767,0.541
		c0.299,0.109,0.621,0.164,0.965,0.164s0.669-0.055,0.974-0.164c0.304-0.109,0.569-0.29,0.793-0.541
		c0.224-0.251,0.402-0.584,0.534-1C295.543,197.831,295.61,197.317,295.61,196.705z"/>
	<path fill="#FFFFFF" d="M197.907,210.507v1.907h-3.752v10.567h-2.32v-10.567h-3.77v-1.907H197.907z"/>
	<path fill="#FFFFFF" d="M197.881,222.98v-8.851h1.251c0.218,0,0.371,0.041,0.457,0.121s0.144,0.218,0.172,0.414l0.129,1.069
		c0.316-0.546,0.687-0.978,1.113-1.294c0.426-0.316,0.903-0.474,1.432-0.474c0.437,0,0.799,0.101,1.087,0.302l-0.276,1.596
		c-0.017,0.104-0.055,0.177-0.112,0.22c-0.058,0.043-0.135,0.064-0.233,0.064c-0.086,0-0.204-0.02-0.354-0.06
		c-0.149-0.041-0.348-0.061-0.595-0.061c-0.443,0-0.822,0.122-1.139,0.367c-0.316,0.244-0.583,0.603-0.802,1.074v5.512H197.881z"/>
	<path fill="#FFFFFF" d="M211.614,222.98h-0.958c-0.202,0-0.36-0.03-0.475-0.09c-0.115-0.061-0.201-0.183-0.259-0.367l-0.19-0.63
		c-0.224,0.201-0.444,0.378-0.66,0.531s-0.438,0.28-0.668,0.384s-0.475,0.181-0.733,0.233s-0.546,0.078-0.862,0.078
		c-0.374,0-0.719-0.051-1.035-0.151c-0.316-0.101-0.588-0.252-0.815-0.455c-0.227-0.202-0.404-0.453-0.53-0.753
		c-0.127-0.3-0.19-0.649-0.19-1.047c0-0.334,0.087-0.665,0.263-0.991c0.175-0.326,0.467-0.62,0.875-0.882
		c0.408-0.263,0.952-0.48,1.63-0.654c0.678-0.173,1.521-0.26,2.527-0.26v-0.521c0-0.597-0.125-1.039-0.375-1.325
		c-0.25-0.287-0.614-0.43-1.091-0.43c-0.345,0-0.633,0.04-0.863,0.121s-0.43,0.171-0.6,0.271c-0.169,0.101-0.326,0.191-0.47,0.272
		c-0.144,0.081-0.302,0.121-0.475,0.121c-0.144,0-0.268-0.037-0.371-0.112c-0.104-0.074-0.187-0.167-0.25-0.276l-0.388-0.681
		c1.018-0.932,2.246-1.397,3.683-1.397c0.518,0,0.979,0.084,1.385,0.254c0.405,0.169,0.749,0.405,1.031,0.707
		c0.282,0.302,0.496,0.663,0.643,1.083c0.146,0.419,0.22,0.879,0.22,1.38V222.98z M207.474,221.652c0.218,0,0.419-0.02,0.604-0.059
		c0.184-0.04,0.358-0.099,0.522-0.179c0.164-0.079,0.322-0.177,0.475-0.292c0.152-0.116,0.306-0.253,0.461-0.412v-1.481
		c-0.621,0-1.14,0.039-1.557,0.117s-0.752,0.178-1.005,0.3s-0.433,0.264-0.539,0.426s-0.16,0.339-0.16,0.53
		c0,0.377,0.111,0.646,0.332,0.808C206.828,221.571,207.117,221.652,207.474,221.652z"/>
	<path fill="#FFFFFF" d="M214.09,222.98v-7.246l-0.768-0.121c-0.167-0.029-0.301-0.086-0.401-0.172
		c-0.101-0.086-0.151-0.207-0.151-0.362v-0.872h1.32v-0.655c0-0.506,0.076-0.96,0.229-1.363c0.152-0.402,0.371-0.745,0.656-1.026
		s0.631-0.498,1.04-0.647c0.408-0.149,0.868-0.224,1.38-0.224c0.409,0,0.788,0.055,1.139,0.164l-0.043,1.07
		c-0.012,0.167-0.089,0.271-0.233,0.311s-0.311,0.061-0.5,0.061c-0.253,0-0.479,0.027-0.677,0.082
		c-0.199,0.055-0.367,0.15-0.505,0.285c-0.138,0.135-0.243,0.313-0.315,0.535c-0.072,0.221-0.107,0.496-0.107,0.824v0.586h2.303
		v1.519h-2.234v7.254H214.09z"/>
	<path fill="#FFFFFF" d="M220.137,222.98v-7.246l-0.768-0.121c-0.167-0.029-0.301-0.086-0.401-0.172
		c-0.101-0.086-0.151-0.207-0.151-0.362v-0.872h1.32v-0.285c0-0.541,0.089-1.042,0.268-1.505c0.178-0.462,0.449-0.864,0.811-1.203
		s0.819-0.605,1.371-0.798c0.552-0.193,1.205-0.289,1.958-0.289c0.241,0,0.489,0.013,0.742,0.039s0.472,0.068,0.656,0.125
		l-0.069,1.104c-0.011,0.132-0.083,0.211-0.215,0.237c-0.132,0.026-0.296,0.039-0.492,0.039c-0.558,0-1.025,0.049-1.402,0.147
		c-0.377,0.098-0.682,0.243-0.915,0.436c-0.233,0.192-0.399,0.434-0.5,0.725c-0.101,0.291-0.151,0.628-0.151,1.014v0.215h5.486
		v8.773h-2.13v-7.254h-3.287v7.254H220.137z"/>
	<path fill="#FFFFFF" d="M236.345,216.002c-0.063,0.081-0.125,0.144-0.185,0.189c-0.061,0.046-0.148,0.069-0.263,0.069
		c-0.109,0-0.216-0.033-0.319-0.099c-0.104-0.066-0.227-0.141-0.371-0.225c-0.144-0.083-0.314-0.158-0.513-0.224
		c-0.198-0.066-0.444-0.099-0.737-0.099c-0.374,0-0.702,0.067-0.983,0.203s-0.516,0.329-0.703,0.582
		c-0.187,0.253-0.327,0.56-0.418,0.919s-0.138,0.767-0.138,1.221c0,0.472,0.05,0.891,0.151,1.259s0.246,0.677,0.436,0.927
		c0.19,0.25,0.419,0.44,0.69,0.569s0.575,0.194,0.915,0.194s0.614-0.042,0.824-0.125c0.21-0.083,0.387-0.176,0.53-0.276
		c0.144-0.101,0.269-0.192,0.375-0.276s0.226-0.125,0.358-0.125c0.172,0,0.302,0.066,0.388,0.198l0.612,0.776
		c-0.236,0.276-0.492,0.508-0.768,0.694c-0.276,0.187-0.562,0.336-0.858,0.449s-0.603,0.191-0.918,0.237
		c-0.316,0.046-0.63,0.069-0.94,0.069c-0.546,0-1.061-0.102-1.544-0.306s-0.904-0.502-1.264-0.893
		c-0.359-0.391-0.644-0.87-0.854-1.436s-0.315-1.212-0.315-1.937c0-0.65,0.093-1.252,0.28-1.807
		c0.187-0.555,0.461-1.035,0.824-1.441c0.362-0.405,0.811-0.723,1.346-0.953c0.535-0.23,1.15-0.345,1.846-0.345
		c0.661,0,1.241,0.106,1.738,0.319c0.497,0.213,0.944,0.518,1.341,0.915L236.345,216.002z"/>
	<path fill="#FFFFFF" d="M248.62,222.98h-0.958c-0.202,0-0.36-0.03-0.475-0.09c-0.115-0.061-0.201-0.183-0.259-0.367l-0.19-0.63
		c-0.224,0.201-0.444,0.378-0.66,0.531s-0.438,0.28-0.668,0.384s-0.475,0.181-0.733,0.233s-0.546,0.078-0.862,0.078
		c-0.374,0-0.719-0.051-1.035-0.151c-0.316-0.101-0.588-0.252-0.815-0.455c-0.227-0.202-0.404-0.453-0.53-0.753
		c-0.127-0.3-0.19-0.649-0.19-1.047c0-0.334,0.087-0.665,0.263-0.991c0.175-0.326,0.467-0.62,0.875-0.882
		c0.408-0.263,0.952-0.48,1.63-0.654c0.678-0.173,1.521-0.26,2.527-0.26v-0.521c0-0.597-0.125-1.039-0.375-1.325
		c-0.25-0.287-0.614-0.43-1.091-0.43c-0.345,0-0.633,0.04-0.863,0.121s-0.43,0.171-0.6,0.271c-0.169,0.101-0.326,0.191-0.47,0.272
		c-0.144,0.081-0.302,0.121-0.475,0.121c-0.144,0-0.268-0.037-0.371-0.112c-0.104-0.074-0.187-0.167-0.25-0.276l-0.388-0.681
		c1.018-0.932,2.246-1.397,3.683-1.397c0.518,0,0.979,0.084,1.385,0.254c0.405,0.169,0.749,0.405,1.031,0.707
		c0.282,0.302,0.496,0.663,0.643,1.083c0.146,0.419,0.22,0.879,0.22,1.38V222.98z M244.479,221.652c0.218,0,0.419-0.02,0.604-0.059
		c0.184-0.04,0.358-0.099,0.522-0.179c0.164-0.079,0.322-0.177,0.475-0.292c0.152-0.116,0.306-0.253,0.461-0.412v-1.481
		c-0.621,0-1.14,0.039-1.557,0.117s-0.752,0.178-1.005,0.3s-0.433,0.264-0.539,0.426s-0.16,0.339-0.16,0.53
		c0,0.377,0.111,0.646,0.332,0.808C243.834,221.571,244.123,221.652,244.479,221.652z"/>
	<path fill="#FFFFFF" d="M250.716,222.98v-8.851h1.303c0.276,0,0.457,0.129,0.543,0.388l0.146,0.699
		c0.178-0.184,0.367-0.351,0.565-0.5c0.198-0.15,0.408-0.279,0.63-0.388c0.221-0.109,0.458-0.193,0.711-0.25
		c0.253-0.057,0.529-0.086,0.828-0.086c0.483,0,0.912,0.082,1.285,0.246c0.374,0.164,0.686,0.394,0.936,0.69
		c0.25,0.296,0.44,0.65,0.569,1.061c0.129,0.412,0.194,0.864,0.194,1.359v5.633h-2.131v-5.633c0-0.541-0.125-0.959-0.375-1.255
		c-0.25-0.296-0.625-0.444-1.126-0.444c-0.368,0-0.713,0.083-1.035,0.25s-0.627,0.394-0.914,0.681v6.401H250.716z"/>
	<path fill="#FFFFFF" d="M266.751,222.98c-0.276,0-0.457-0.129-0.543-0.388l-0.172-0.854c-0.184,0.207-0.377,0.394-0.578,0.561
		c-0.201,0.167-0.418,0.311-0.651,0.432c-0.233,0.121-0.483,0.214-0.75,0.28c-0.267,0.066-0.556,0.099-0.867,0.099
		c-0.483,0-0.926-0.101-1.329-0.302s-0.749-0.493-1.04-0.875c-0.29-0.383-0.515-0.855-0.673-1.419
		c-0.158-0.563-0.237-1.208-0.237-1.932c0-0.656,0.089-1.265,0.267-1.829s0.434-1.052,0.768-1.466
		c0.333-0.414,0.733-0.738,1.199-0.971s0.989-0.349,1.57-0.349c0.495,0,0.917,0.079,1.268,0.237c0.351,0.158,0.665,0.37,0.94,0.634
		v-4.675h2.131v12.818H266.751z M263.914,221.419c0.443,0,0.819-0.092,1.13-0.276s0.604-0.446,0.88-0.785v-3.968
		c-0.242-0.293-0.504-0.5-0.789-0.621s-0.591-0.181-0.919-0.181c-0.322,0-0.614,0.061-0.875,0.181s-0.483,0.303-0.664,0.548
		c-0.181,0.244-0.321,0.555-0.418,0.932c-0.098,0.376-0.146,0.821-0.146,1.333c0,0.518,0.042,0.956,0.125,1.315
		c0.083,0.359,0.203,0.653,0.358,0.88c0.155,0.228,0.345,0.391,0.569,0.492S263.637,221.419,263.914,221.419z"/>
	<path fill="#FFFFFF" d="M276.128,221.065h4.994v1.915h-7.315v-12.474h2.321V221.065z"/>
	<path fill="#FFFFFF" d="M285.194,211.551c0,0.184-0.038,0.356-0.112,0.518s-0.174,0.302-0.297,0.423
		c-0.124,0.121-0.269,0.217-0.436,0.289c-0.167,0.072-0.345,0.108-0.535,0.108c-0.184,0-0.358-0.036-0.522-0.108
		c-0.164-0.072-0.306-0.168-0.427-0.289c-0.121-0.121-0.217-0.262-0.289-0.423s-0.108-0.333-0.108-0.518
		c0-0.19,0.036-0.368,0.108-0.535c0.072-0.167,0.168-0.311,0.289-0.432c0.121-0.121,0.263-0.217,0.427-0.289
		c0.164-0.072,0.338-0.107,0.522-0.107c0.19,0,0.368,0.036,0.535,0.107c0.167,0.072,0.312,0.168,0.436,0.289
		c0.124,0.121,0.223,0.265,0.297,0.432C285.157,211.183,285.194,211.361,285.194,211.551z M284.875,214.13v8.851h-2.13v-8.851
		H284.875z"/>
	<path fill="#FFFFFF" d="M293.501,216.002c-0.063,0.081-0.125,0.144-0.185,0.189c-0.061,0.046-0.148,0.069-0.263,0.069
		c-0.109,0-0.216-0.033-0.319-0.099c-0.104-0.066-0.227-0.141-0.371-0.225c-0.144-0.083-0.314-0.158-0.513-0.224
		c-0.198-0.066-0.444-0.099-0.737-0.099c-0.374,0-0.702,0.067-0.983,0.203s-0.516,0.329-0.703,0.582
		c-0.187,0.253-0.327,0.56-0.418,0.919s-0.138,0.767-0.138,1.221c0,0.472,0.05,0.891,0.151,1.259s0.246,0.677,0.436,0.927
		c0.19,0.25,0.419,0.44,0.69,0.569s0.575,0.194,0.915,0.194s0.614-0.042,0.824-0.125c0.21-0.083,0.387-0.176,0.53-0.276
		c0.144-0.101,0.269-0.192,0.375-0.276s0.226-0.125,0.358-0.125c0.172,0,0.302,0.066,0.388,0.198l0.612,0.776
		c-0.236,0.276-0.492,0.508-0.768,0.694c-0.276,0.187-0.562,0.336-0.858,0.449s-0.603,0.191-0.918,0.237
		c-0.316,0.046-0.63,0.069-0.94,0.069c-0.546,0-1.061-0.102-1.544-0.306s-0.904-0.502-1.264-0.893
		c-0.359-0.391-0.644-0.87-0.854-1.436s-0.315-1.212-0.315-1.937c0-0.65,0.093-1.252,0.28-1.807
		c0.187-0.555,0.461-1.035,0.824-1.441c0.362-0.405,0.811-0.723,1.346-0.953c0.535-0.23,1.15-0.345,1.846-0.345
		c0.661,0,1.241,0.106,1.738,0.319c0.497,0.213,0.944,0.518,1.341,0.915L293.501,216.002z"/>
	<path fill="#FFFFFF" d="M299.168,213.992c0.558,0,1.071,0.089,1.54,0.267s0.873,0.438,1.212,0.781s0.604,0.762,0.793,1.259
		c0.19,0.498,0.285,1.065,0.285,1.704c0,0.161-0.007,0.295-0.021,0.401s-0.04,0.19-0.078,0.25c-0.038,0.061-0.088,0.104-0.151,0.129
		c-0.063,0.026-0.144,0.039-0.242,0.039h-5.469c0.063,0.909,0.308,1.576,0.733,2.001c0.425,0.426,0.989,0.639,1.69,0.639
		c0.345,0,0.643-0.041,0.893-0.121c0.25-0.08,0.468-0.169,0.655-0.267s0.351-0.187,0.492-0.268s0.277-0.121,0.41-0.121
		c0.086,0,0.161,0.017,0.225,0.052c0.063,0.034,0.118,0.083,0.164,0.146l0.621,0.776c-0.236,0.276-0.5,0.508-0.793,0.694
		c-0.293,0.187-0.6,0.336-0.918,0.449c-0.319,0.112-0.645,0.191-0.975,0.237c-0.331,0.046-0.651,0.069-0.962,0.069
		c-0.615,0-1.188-0.102-1.716-0.306c-0.529-0.204-0.989-0.506-1.38-0.906s-0.699-0.894-0.923-1.484
		c-0.224-0.589-0.336-1.272-0.336-2.049c0-0.604,0.098-1.171,0.293-1.704c0.195-0.532,0.476-0.995,0.841-1.389
		s0.811-0.706,1.337-0.936C297.913,214.107,298.507,213.992,299.168,213.992z M299.211,215.519c-0.621,0-1.107,0.175-1.458,0.526
		c-0.351,0.351-0.575,0.849-0.673,1.492h4.002c0-0.276-0.037-0.536-0.112-0.78c-0.075-0.245-0.19-0.458-0.345-0.643
		s-0.351-0.33-0.586-0.436C299.804,215.572,299.527,215.519,299.211,215.519z"/>
	<path fill="#FFFFFF" d="M304.732,222.98v-8.851h1.303c0.276,0,0.457,0.129,0.543,0.388l0.146,0.699
		c0.178-0.184,0.367-0.351,0.565-0.5c0.198-0.15,0.408-0.279,0.63-0.388c0.221-0.109,0.458-0.193,0.711-0.25
		c0.253-0.057,0.529-0.086,0.828-0.086c0.483,0,0.912,0.082,1.285,0.246c0.374,0.164,0.686,0.394,0.936,0.69
		c0.25,0.296,0.44,0.65,0.569,1.061c0.129,0.412,0.194,0.864,0.194,1.359v5.633h-2.131v-5.633c0-0.541-0.125-0.959-0.375-1.255
		c-0.25-0.296-0.625-0.444-1.126-0.444c-0.368,0-0.713,0.083-1.035,0.25s-0.627,0.394-0.914,0.681v6.401H304.732z"/>
	<path fill="#FFFFFF" d="M319.793,215.855c-0.058,0.092-0.118,0.157-0.181,0.194c-0.063,0.038-0.144,0.056-0.242,0.056
		c-0.104,0-0.214-0.029-0.332-0.086c-0.118-0.057-0.254-0.122-0.41-0.194s-0.332-0.137-0.531-0.194
		c-0.198-0.057-0.433-0.086-0.703-0.086c-0.419,0-0.75,0.089-0.992,0.267s-0.362,0.411-0.362,0.699c0,0.19,0.062,0.35,0.186,0.479
		c0.124,0.129,0.287,0.243,0.492,0.34c0.204,0.098,0.436,0.186,0.694,0.263s0.523,0.163,0.793,0.254
		c0.271,0.092,0.535,0.197,0.793,0.315c0.259,0.118,0.49,0.268,0.695,0.449c0.204,0.181,0.368,0.398,0.492,0.651
		c0.124,0.253,0.185,0.558,0.185,0.914c0,0.426-0.078,0.818-0.233,1.178s-0.382,0.67-0.681,0.932
		c-0.299,0.262-0.668,0.466-1.108,0.612s-0.945,0.22-1.514,0.22c-0.305,0-0.603-0.027-0.893-0.082
		c-0.291-0.055-0.569-0.131-0.837-0.229s-0.515-0.213-0.742-0.345c-0.228-0.132-0.427-0.276-0.6-0.431l0.492-0.811
		c0.063-0.098,0.138-0.172,0.224-0.224c0.086-0.052,0.196-0.078,0.328-0.078c0.132,0,0.257,0.037,0.375,0.112
		c0.118,0.075,0.254,0.155,0.41,0.242s0.338,0.167,0.548,0.242s0.476,0.112,0.798,0.112c0.253,0,0.47-0.03,0.651-0.09
		s0.331-0.14,0.449-0.237c0.118-0.098,0.204-0.211,0.259-0.341c0.054-0.129,0.082-0.263,0.082-0.401
		c0-0.207-0.062-0.377-0.185-0.509c-0.124-0.132-0.288-0.247-0.492-0.345c-0.205-0.098-0.438-0.186-0.699-0.263
		c-0.262-0.078-0.529-0.163-0.802-0.254c-0.273-0.092-0.541-0.2-0.802-0.324c-0.262-0.124-0.495-0.28-0.699-0.47
		c-0.204-0.189-0.368-0.422-0.492-0.699c-0.124-0.276-0.186-0.609-0.186-1c0-0.362,0.072-0.707,0.216-1.035
		c0.144-0.328,0.355-0.614,0.634-0.858c0.279-0.244,0.627-0.44,1.044-0.586c0.417-0.146,0.898-0.22,1.445-0.22
		c0.609,0,1.165,0.101,1.665,0.302c0.5,0.201,0.917,0.466,1.251,0.793L319.793,215.855z"/>
	<path fill="#FFFFFF" d="M324.667,211.551c0,0.184-0.038,0.356-0.112,0.518s-0.174,0.302-0.297,0.423
		c-0.124,0.121-0.269,0.217-0.436,0.289c-0.167,0.072-0.345,0.108-0.535,0.108c-0.184,0-0.358-0.036-0.522-0.108
		c-0.164-0.072-0.306-0.168-0.427-0.289c-0.121-0.121-0.217-0.262-0.289-0.423s-0.108-0.333-0.108-0.518
		c0-0.19,0.036-0.368,0.108-0.535c0.072-0.167,0.168-0.311,0.289-0.432c0.121-0.121,0.263-0.217,0.427-0.289
		c0.164-0.072,0.338-0.107,0.522-0.107c0.19,0,0.368,0.036,0.535,0.107c0.167,0.072,0.312,0.168,0.436,0.289
		c0.124,0.121,0.223,0.265,0.297,0.432C324.629,211.183,324.667,211.361,324.667,211.551z M324.347,214.13v8.851h-2.13v-8.851
		H324.347z"/>
	<path fill="#FFFFFF" d="M326.754,222.98v-8.851h1.303c0.276,0,0.457,0.129,0.543,0.388l0.146,0.699
		c0.178-0.184,0.367-0.351,0.565-0.5c0.198-0.15,0.408-0.279,0.63-0.388c0.221-0.109,0.458-0.193,0.711-0.25
		c0.253-0.057,0.529-0.086,0.828-0.086c0.483,0,0.912,0.082,1.285,0.246c0.374,0.164,0.686,0.394,0.936,0.69
		c0.25,0.296,0.44,0.65,0.569,1.061c0.129,0.412,0.194,0.864,0.194,1.359v5.633h-2.131v-5.633c0-0.541-0.125-0.959-0.375-1.255
		c-0.25-0.296-0.625-0.444-1.126-0.444c-0.368,0-0.713,0.083-1.035,0.25s-0.627,0.394-0.914,0.681v6.401H326.754z"/>
	<path fill="#FFFFFF" d="M339.624,213.975c0.38,0,0.736,0.039,1.07,0.117s0.638,0.191,0.915,0.341h2.544v0.793
		c0,0.132-0.034,0.236-0.104,0.311c-0.069,0.075-0.187,0.126-0.354,0.155l-0.793,0.146c0.057,0.15,0.102,0.308,0.133,0.475
		c0.032,0.167,0.048,0.342,0.048,0.526c0,0.438-0.088,0.833-0.263,1.187c-0.176,0.354-0.417,0.654-0.725,0.901
		s-0.673,0.438-1.096,0.574c-0.422,0.135-0.881,0.203-1.376,0.203c-0.333,0-0.658-0.032-0.975-0.095
		c-0.276,0.168-0.414,0.356-0.414,0.565c0,0.18,0.082,0.312,0.246,0.396c0.164,0.084,0.379,0.143,0.647,0.178
		c0.267,0.035,0.57,0.052,0.91,0.052s0.688,0.015,1.044,0.043s0.705,0.08,1.044,0.151c0.339,0.072,0.643,0.186,0.91,0.342
		c0.268,0.156,0.483,0.368,0.647,0.636c0.164,0.269,0.246,0.613,0.246,1.034c0,0.393-0.096,0.773-0.289,1.143
		c-0.193,0.369-0.472,0.698-0.836,0.986c-0.366,0.289-0.812,0.521-1.342,0.697c-0.529,0.176-1.133,0.264-1.812,0.264
		c-0.672,0-1.256-0.065-1.751-0.194s-0.904-0.302-1.229-0.518c-0.325-0.216-0.568-0.464-0.729-0.746s-0.242-0.575-0.242-0.88
		c0-0.414,0.126-0.762,0.38-1.044c0.253-0.282,0.604-0.506,1.052-0.673c-0.219-0.121-0.394-0.282-0.526-0.483
		s-0.198-0.463-0.198-0.785c0-0.132,0.023-0.269,0.069-0.41c0.046-0.141,0.117-0.28,0.211-0.418
		c0.095-0.138,0.214-0.269,0.358-0.392c0.144-0.124,0.313-0.234,0.509-0.333c-0.449-0.241-0.801-0.563-1.057-0.966
		s-0.384-0.874-0.384-1.415c0-0.437,0.088-0.832,0.263-1.186c0.175-0.354,0.42-0.655,0.733-0.906
		c0.313-0.25,0.684-0.441,1.113-0.573C338.651,214.041,339.118,213.975,339.624,213.975z M341.962,223.352
		c0-0.176-0.052-0.32-0.155-0.432c-0.104-0.111-0.245-0.198-0.423-0.26c-0.178-0.062-0.387-0.107-0.625-0.136
		c-0.239-0.03-0.492-0.044-0.759-0.044s-0.543,0-0.828,0s-0.56-0.031-0.824-0.095c-0.242,0.132-0.436,0.289-0.583,0.47
		c-0.146,0.181-0.22,0.39-0.22,0.625c0,0.155,0.039,0.3,0.116,0.436c0.078,0.135,0.202,0.251,0.371,0.349s0.39,0.174,0.66,0.229
		c0.27,0.055,0.601,0.082,0.992,0.082c0.397,0,0.739-0.031,1.026-0.092s0.525-0.147,0.712-0.255c0.187-0.109,0.323-0.238,0.41-0.388
		S341.962,223.528,341.962,223.352z M339.624,218.339c0.265,0,0.495-0.036,0.69-0.107c0.195-0.072,0.358-0.171,0.487-0.298
		s0.227-0.279,0.293-0.457c0.066-0.178,0.099-0.374,0.099-0.587c0-0.437-0.131-0.783-0.393-1.039s-0.654-0.384-1.178-0.384
		c-0.523,0-0.916,0.128-1.177,0.384s-0.393,0.603-0.393,1.039c0,0.207,0.033,0.4,0.099,0.578c0.066,0.178,0.164,0.332,0.293,0.461
		s0.293,0.23,0.492,0.302C339.137,218.304,339.365,218.339,339.624,218.339z"/>
</g>
<g>
	<g>
		<path fill-rule="evenodd" clip-rule="evenodd" fill="#ED1C24" d="M222.507,71.897c0-1.422,0-2.572,0-3.967
			c3.472,0.162,6.859,0.329,10.268,0.495c0-3.469,0.429-6.81-0.114-9.984c-0.535-3.139-2.046-6.098-3.195-9.312
			c2.832,0,5.456,0,8.517,0c-2.502,6.16-4.852,12.279-3.344,19.284c3.243-0.16,6.642-0.32,10.211-0.489c0,1.281,0,2.471,0,3.964
			c-3.368,0.195-6.823,0.397-10.417,0.615c0,1.154,0,2.285,0,3.498c3.467,0,6.916,0,10.476,0c0,1.104,0,2.249,0,3.723
			c-3.42,0.195-6.875,0.4-10.472,0.609c0,1.288,0,2.552,0,4.198c3.295-0.273,6.546-0.548,10.085-0.838c0,1.085,0,2.158,0,3.23
			c0,10.043,0,20.082-0.003,30.131c0,0.577,0.013,1.167-0.052,1.747c-0.294,2.819-2.33,4.668-5.049,4.609
			c-2.688-0.056-4.764-2.03-4.801-4.856c-0.08-5.772-0.026-11.556-0.026-17.328c0-4.534,0-9.068,0-13.654
			c-1.752-0.792-1.822,0.241-1.822,1.479c0.014,9.603,0.017,19.199,0.003,28.809c-0.003,3.227-1.753,5.342-4.506,5.538
			c-3.191,0.228-5.373-1.937-5.39-5.454c-0.021-8.696-0.003-17.396-0.003-26.093c0-2.712,0-5.423,0-8.172
			c3.403,0.304,6.608,0.584,10.001,0.884c0-1.526,0-2.826,0-4.244c-3.437-0.188-6.838-0.374-10.337-0.563c0-1.392,0-2.585,0-3.977
			c3.482,0.166,6.877,0.316,10.39,0.482c0-1.365,0-2.504,0-3.759C229.487,72.297,226.082,72.108,222.507,71.897z"/>
		<path fill-rule="evenodd" clip-rule="evenodd" fill="#ED1C24" d="M297.447,66.705c-12.434,0-24.541,0-36.862,0
			c0-2.23-0.006-4.358,0.003-6.48c0-0.189,0.007-0.488,0.124-0.551c2.778-1.493,2.912-4.537,3.589-6.969
			c1.223-4.401,3.379-6.383,8.177-6.852c6.123-0.596,12.026-0.045,17.974,0.965c0.524,0.087,1.131,0.802,1.353,1.366
			c1.255,3.126,2.363,6.307,3.611,9.436c0.26,0.655,0.904,1.145,1.353,1.728c0.248,0.326,0.635,0.681,0.647,1.03
			C297.476,62.434,297.447,64.504,297.447,66.705z M292.386,57.844c-0.979-2.617-1.872-5.107-2.869-7.552
			c-0.167-0.421-0.784-0.821-1.253-0.923c-6.154-1.346-12.325-1.366-18.482-0.026c-0.46,0.098-1.107,0.353-1.245,0.701
			c-1.021,2.546-1.948,5.137-2.934,7.794c4.624-0.389,8.993-1.05,13.359-1.05C283.339,56.789,287.711,57.45,292.386,57.844z
			 M292.026,60.44c-1.462,0.14-2.365,0.941-2.376,2.349c-0.013,1.425,0.887,2.351,2.315,2.351c1.413,0,2.321-0.869,2.334-2.324
			C294.321,61.349,293.394,60.625,292.026,60.44z M263.652,62.656c0.051,1.525,0.846,2.422,2.259,2.471
			c1.407,0.059,2.352-0.805,2.409-2.233c0.055-1.438-0.818-2.35-2.241-2.408C264.659,60.433,263.818,61.267,263.652,62.656z"/>
		<path fill-rule="evenodd" clip-rule="evenodd" fill="#ED1C24" d="M224.74,37.369c0.625-1.76-0.871-2.686-1.932-3.748
			c-0.926-0.92-1.092-1.695-0.695-3.041c0.893-2.973,2.837-4.414,5.532-5.832c4.248-2.229,8.079-2.483,12.07,0.146
			c1.447,0.951,3.455,0.864,4.396,2.846c1.316,2.807,2.19,5.31-0.979,7.514c-0.429,0.297-0.439,1.386-0.429,2.102
			c0.115,5.238-3.845,9.4-9.021,9.417C228.598,46.786,224.646,42.708,224.74,37.369z M242.25,33.92
			c-0.479-2.034-2.922-2.924-8.172-2.986c-5.534-0.065-8.424,0.891-8.964,2.986C230.8,31.557,236.468,31.525,242.25,33.92z
			 M230.749,27.169c2.983,2.063,3.432,2.051,5.87-0.065C234.758,24.94,232.65,24.835,230.749,27.169z"/>
		<path fill-rule="evenodd" clip-rule="evenodd" fill="#ED1C24" d="M242.865,49.243c2.887,0.616,4.77,2.409,6.246,4.675
			c2.552,3.907,3.652,8.354,3.967,12.881c0.397,5.558,0.385,11.146,0.327,16.709c-0.016,1.111-0.775,2.571-1.66,3.227
			c-2.065,1.52-4.71-0.267-4.721-3.018c-0.013-4.414,0.225-8.834-0.076-13.221c-0.231-3.329-0.563-6.862-1.865-9.864
			c-1.493-3.441-1.63-6.976-2.276-10.479C242.762,49.912,242.833,49.65,242.865,49.243z"/>
		<path fill-rule="evenodd" clip-rule="evenodd" fill="#ED1C24" d="M224.651,49.471c-0.746,3.575-0.468,7.262-2.253,10.767
			c-1.165,2.288-1.583,5.094-1.754,7.708c-0.328,4.975-0.318,9.968-0.294,14.952c0.02,2.649-0.932,4.23-3.045,4.312
			c-2.052,0.082-3.296-1.293-3.385-3.836c-0.276-7.653-0.599-15.35,1.598-22.787c0.837-2.853,2.293-5.633,3.968-8.104
			c1.027-1.513,3.013-2.376,4.567-3.537C224.251,49.122,224.451,49.294,224.651,49.471z"/>
		<path fill-rule="evenodd" clip-rule="evenodd" fill="#ED1C24" d="M300.984,79.194c2.868-0.749,4.794,0.193,6.71,2.136
			c7.872,7.982,15.899,15.809,23.882,23.685c0.314,0.31,0.674,0.57,0.858,1.313c-2.864,0-5.734,0.032-8.597-0.046
			c-0.408-0.007-0.897-0.457-1.209-0.831c-7.085-8.511-14.159-17.048-21.229-25.574C301.251,79.69,301.146,79.468,300.984,79.194z"
			/>
		<path fill-rule="evenodd" clip-rule="evenodd" fill="#ED1C24" d="M291.947,79.152c2.683-0.615,4.521-0.032,6.135,2.614
			c4.97,8.169,10.285,16.132,15.718,24.548c-3.241,0-6.163,0.033-9.075-0.039c-0.309-0.007-0.711-0.515-0.878-0.876
			c-3.998-8.619-7.962-17.25-11.923-25.879C291.877,79.423,291.934,79.276,291.947,79.152z"/>
		<path fill-rule="evenodd" clip-rule="evenodd" fill="#ED1C24" d="M246.969,106.347c4.644-7.246,9.046-14.107,13.449-20.973
			c0.697-1.092,1.409-2.171,2.111-3.266c2.15-3.345,2.15-3.345,6.275-3.021c-0.09,0.368-0.115,0.743-0.262,1.066
			c-3.807,8.294-7.596,16.591-11.489,24.847c-0.292,0.617-1.279,1.246-1.973,1.281C252.507,106.435,249.911,106.347,246.969,106.347
			z"/>
		<path fill-rule="evenodd" clip-rule="evenodd" fill="#ED1C24" d="M266.029,106.347c2.577-9.349,5.052-18.312,7.521-27.267
			c1.579,0,2.979,0,4.554,0c-0.53,5.724-1.044,11.324-1.559,16.921c-0.268,2.9-0.571,5.805-0.772,8.712
			c-0.072,1.214-0.489,1.702-1.756,1.66C271.437,106.282,268.848,106.347,266.029,106.347z"/>
		<path fill-rule="evenodd" clip-rule="evenodd" fill="#ED1C24" d="M294.568,106.247c-3.218,0-6.229,0-9.404,0
			c-0.852-9.072-1.69-18.052-2.554-27.267c1.401,0,2.566-0.114,3.691,0.055c0.443,0.072,1.012,0.707,1.155,1.19
			c1.188,4.032,2.296,8.091,3.409,12.142c1.16,4.225,2.326,8.455,3.479,12.683C294.431,105.356,294.465,105.671,294.568,106.247z"/>
		<path fill-rule="evenodd" clip-rule="evenodd" fill="#ED1C24" d="M297.435,67.698c-0.159,1.196,0.714,2.479-1.169,2.931
			c-0.273,0.069-0.093,1.688-0.254,2.565c-0.16,0.896-0.314,2.405-0.775,2.526c-1.312,0.345-2.772,0.231-4.153,0.059
			c-0.32-0.045-0.687-1.018-0.742-1.588c-0.121-1.157-0.035-2.331-0.035-3.647c-7.522,0-14.935,0-22.636,0
			c0,1.063-0.061,2.142,0.01,3.208c0.107,1.646-0.55,2.351-2.249,2.356c-3.318,0.02-3.48-0.102-3.537-3.442
			c-0.02-0.902,0.526-2.062-1.048-2.506c-0.301-0.086-0.223-1.506-0.337-2.462C272.879,67.698,285.03,67.698,297.435,67.698z"/>
		<path fill-rule="evenodd" clip-rule="evenodd" fill="#ED1C24" d="M222.409,65.85c2.582-0.392,4.922-1.104,5.428-4.101
			c-1.201-0.838-2.183-4.7-1.249-5.773c0.419-0.488,1.489-0.553,2.273-0.547c0.433,0,1.115,0.443,1.265,0.845
			c1.136,3.054-2.602,9.883-5.812,10.062c-0.589,0.029-1.184,0.089-1.771,0.131C222.499,66.264,222.453,66.055,222.409,65.85z"/>
		<path fill-rule="evenodd" clip-rule="evenodd" fill="#ED1C24" d="M285.006,49.835c1.806,0.017,3.302,1.595,3.258,3.423
			c-0.054,1.783-1.452,3.148-3.258,3.169c-1.891,0.013-3.363-1.419-3.354-3.271C281.658,51.315,283.183,49.809,285.006,49.835z"/>
	</g>
</g>
<g>
	<path fill="#FFFFFF" d="M58.663,182.581c1.149,0,2.186,0.155,3.111,0.467s1.715,0.743,2.37,1.295
		c0.655,0.552,1.158,1.199,1.508,1.942c0.35,0.744,0.525,1.546,0.525,2.41c0,0.754-0.089,1.417-0.267,1.991s-0.437,1.074-0.775,1.5
		c-0.339,0.426-0.753,0.787-1.241,1.082c-0.489,0.295-1.043,0.541-1.664,0.737c1.494,0.448,2.608,1.131,3.344,2.049
		c0.735,0.917,1.103,2.071,1.103,3.458c0,1.18-0.23,2.224-0.689,3.13c-0.459,0.907-1.08,1.669-1.861,2.287s-1.686,1.084-2.714,1.401
		c-1.028,0.316-2.117,0.475-3.266,0.475c-1.252,0-2.344-0.137-3.274-0.41s-1.741-0.677-2.43-1.213
		c-0.689-0.535-1.275-1.191-1.758-1.967c-0.482-0.775-0.896-1.672-1.241-2.688l1.878-0.737c0.321-0.131,0.649-0.197,0.982-0.197
		c0.298,0,0.566,0.06,0.801,0.18c0.235,0.121,0.417,0.295,0.543,0.524c0.207,0.383,0.434,0.76,0.681,1.131
		c0.247,0.372,0.543,0.703,0.888,0.992c0.345,0.29,0.75,0.524,1.215,0.705c0.465,0.18,1.02,0.27,1.663,0.27
		c0.724,0,1.356-0.112,1.896-0.336c0.54-0.224,0.991-0.516,1.353-0.877c0.362-0.36,0.632-0.762,0.81-1.205
		c0.178-0.442,0.267-0.887,0.267-1.335c0-0.568-0.063-1.084-0.19-1.549s-0.391-0.86-0.792-1.188c-0.402-0.328-0.98-0.584-1.732-0.77
		c-0.753-0.186-1.761-0.279-3.025-0.279v-2.901c1.045,0,1.913-0.087,2.603-0.262s1.238-0.418,1.646-0.729
		c0.408-0.312,0.692-0.686,0.853-1.123c0.161-0.437,0.241-0.918,0.241-1.442c0-1.125-0.322-1.975-0.965-2.548
		c-0.644-0.574-1.522-0.861-2.637-0.861c-1.011,0-1.85,0.254-2.516,0.762c-0.667,0.507-1.132,1.159-1.396,1.956
		c-0.138,0.415-0.328,0.713-0.569,0.893c-0.241,0.18-0.558,0.27-0.948,0.27c-0.184,0-0.379-0.016-0.586-0.048l-2.241-0.371
		c0.172-1.137,0.505-2.134,1-2.992s1.112-1.574,1.853-2.148c0.741-0.574,1.591-1.005,2.55-1.295
		C56.528,182.725,57.56,182.581,58.663,182.581z"/>
	<path fill="#FFFFFF" d="M77.879,206.804c-1.287,0-2.462-0.164-3.524-0.492c-1.063-0.328-1.974-0.792-2.732-1.393
		c-0.758-0.601-1.347-1.328-1.767-2.18c-0.419-0.853-0.629-1.803-0.629-2.852c0-1.398,0.362-2.581,1.086-3.548
		c0.724-0.967,1.85-1.685,3.378-2.155c-1.218-0.48-2.128-1.164-2.732-2.048c-0.603-0.885-0.905-1.951-0.905-3.196
		c0-0.896,0.192-1.731,0.578-2.507c0.385-0.776,0.922-1.451,1.611-2.024s1.514-1.021,2.473-1.344
		c0.959-0.322,2.014-0.483,3.163-0.483s2.203,0.161,3.163,0.483c0.959,0.322,1.784,0.77,2.473,1.344s1.226,1.249,1.611,2.024
		c0.385,0.776,0.577,1.612,0.577,2.507c0,1.246-0.304,2.311-0.913,3.196c-0.609,0.885-1.517,1.568-2.723,2.048
		c1.528,0.47,2.654,1.188,3.378,2.155c0.724,0.967,1.086,2.15,1.086,3.548c0,1.049-0.21,2-0.629,2.852
		c-0.419,0.852-1.008,1.579-1.767,2.18c-0.758,0.601-1.669,1.065-2.731,1.393C80.34,206.64,79.166,206.804,77.879,206.804z
		 M77.879,203.641c0.701,0,1.315-0.096,1.844-0.287c0.528-0.191,0.974-0.456,1.335-0.795c0.362-0.338,0.635-0.743,0.819-1.212
		c0.184-0.47,0.275-0.978,0.275-1.524c0-1.3-0.379-2.284-1.137-2.95s-1.804-1-3.137-1c-1.333,0-2.378,0.333-3.137,1
		s-1.138,1.65-1.138,2.95c0,0.546,0.092,1.055,0.276,1.524c0.184,0.47,0.457,0.874,0.819,1.212c0.362,0.339,0.807,0.604,1.335,0.795
		C76.563,203.545,77.178,203.641,77.879,203.641z M77.879,192.693c0.689,0,1.27-0.104,1.741-0.312
		c0.471-0.208,0.85-0.483,1.137-0.828s0.491-0.738,0.612-1.18s0.181-0.898,0.181-1.369c0-0.448-0.075-0.874-0.224-1.278
		c-0.149-0.404-0.374-0.762-0.672-1.073c-0.299-0.312-0.678-0.56-1.138-0.746c-0.459-0.186-1.005-0.278-1.637-0.278
		c-0.632,0-1.178,0.093-1.637,0.278c-0.46,0.186-0.842,0.435-1.146,0.746c-0.304,0.311-0.528,0.669-0.672,1.073
		c-0.144,0.404-0.215,0.831-0.215,1.278c0,0.47,0.06,0.926,0.181,1.369s0.325,0.836,0.612,1.18s0.667,0.62,1.138,0.828
		C76.609,192.589,77.189,192.693,77.879,192.693z"/>
	<path fill="#FFFFFF" d="M100.438,188.579c0,0.896-0.158,1.705-0.474,2.425c-0.316,0.721-0.738,1.336-1.267,1.844
		c-0.529,0.508-1.144,0.899-1.844,1.172s-1.43,0.41-2.188,0.41c-0.827,0-1.592-0.137-2.292-0.41s-1.307-0.664-1.818-1.172
		c-0.512-0.508-0.911-1.123-1.198-1.844c-0.287-0.721-0.431-1.529-0.431-2.425c0-0.918,0.144-1.748,0.431-2.491
		s0.687-1.371,1.198-1.885c0.511-0.514,1.117-0.91,1.818-1.188s1.465-0.418,2.292-0.418s1.594,0.139,2.301,0.418
		s1.318,0.675,1.835,1.188s0.919,1.142,1.207,1.885C100.294,186.831,100.438,187.661,100.438,188.579z M108.728,183.482
		c0.138-0.164,0.311-0.312,0.517-0.443c0.207-0.131,0.494-0.196,0.862-0.196h3.085l-18.51,23.093
		c-0.138,0.175-0.313,0.32-0.526,0.435c-0.212,0.115-0.468,0.172-0.767,0.172h-3.171L108.728,183.482z M97.146,188.579
		c0-0.634-0.063-1.164-0.189-1.59s-0.302-0.771-0.525-1.033c-0.224-0.262-0.489-0.451-0.793-0.565
		c-0.305-0.115-0.629-0.172-0.974-0.172s-0.667,0.057-0.965,0.172s-0.557,0.303-0.775,0.565s-0.388,0.606-0.508,1.033
		c-0.121,0.426-0.181,0.956-0.181,1.59c0,0.612,0.06,1.123,0.181,1.532c0.121,0.41,0.29,0.74,0.508,0.992s0.477,0.432,0.775,0.541
		s0.621,0.164,0.965,0.164s0.669-0.054,0.974-0.164c0.304-0.109,0.569-0.29,0.793-0.541c0.224-0.251,0.399-0.582,0.525-0.992
		S97.146,189.191,97.146,188.579z M114.501,200.97c0,0.896-0.158,1.704-0.474,2.425s-0.738,1.336-1.267,1.844
		c-0.529,0.508-1.144,0.901-1.844,1.18c-0.701,0.279-1.43,0.418-2.189,0.418c-0.827,0-1.591-0.139-2.292-0.418
		c-0.701-0.278-1.307-0.672-1.818-1.18c-0.511-0.508-0.911-1.123-1.198-1.844s-0.431-1.529-0.431-2.425
		c0-0.918,0.144-1.748,0.431-2.491s0.687-1.371,1.198-1.885c0.511-0.513,1.118-0.909,1.818-1.188s1.465-0.418,2.292-0.418
		c0.828,0,1.594,0.139,2.301,0.418c0.707,0.279,1.318,0.675,1.835,1.188c0.517,0.514,0.919,1.142,1.206,1.885
		S114.501,200.052,114.501,200.97z M111.227,200.97c0-0.634-0.066-1.164-0.198-1.59c-0.132-0.426-0.311-0.771-0.535-1.033
		s-0.488-0.451-0.792-0.565c-0.305-0.115-0.629-0.172-0.974-0.172c-0.344,0-0.666,0.057-0.965,0.172s-0.555,0.303-0.767,0.565
		s-0.382,0.606-0.508,1.033c-0.126,0.426-0.189,0.956-0.189,1.59c0,0.612,0.063,1.125,0.189,1.541s0.296,0.749,0.508,1
		c0.212,0.251,0.468,0.432,0.767,0.541c0.299,0.109,0.621,0.164,0.965,0.164c0.345,0,0.669-0.055,0.974-0.164
		c0.304-0.109,0.568-0.29,0.792-0.541c0.224-0.251,0.402-0.584,0.535-1C111.161,202.095,111.227,201.582,111.227,200.97z"/>
	<path fill="#FFFFFF" d="M62.037,217.038c-0.063,0.126-0.137,0.216-0.22,0.268c-0.083,0.052-0.183,0.078-0.298,0.078
		c-0.115,0-0.244-0.044-0.388-0.134c-0.144-0.089-0.313-0.188-0.509-0.297c-0.195-0.109-0.424-0.208-0.686-0.298
		c-0.262-0.089-0.571-0.133-0.927-0.133c-0.322,0-0.603,0.039-0.841,0.116c-0.238,0.078-0.439,0.186-0.604,0.323
		c-0.164,0.138-0.286,0.304-0.367,0.496c-0.081,0.193-0.121,0.404-0.121,0.634c0,0.293,0.082,0.538,0.246,0.733
		c0.164,0.196,0.38,0.362,0.651,0.5c0.27,0.138,0.578,0.262,0.923,0.371c0.345,0.109,0.697,0.226,1.057,0.35
		c0.359,0.124,0.711,0.267,1.056,0.431c0.345,0.164,0.652,0.371,0.923,0.621c0.27,0.25,0.487,0.557,0.651,0.919
		c0.164,0.362,0.246,0.802,0.246,1.319c0,0.563-0.096,1.091-0.289,1.583c-0.192,0.492-0.474,0.92-0.845,1.285
		c-0.371,0.365-0.823,0.652-1.358,0.862c-0.535,0.21-1.147,0.315-1.837,0.315c-0.396,0-0.788-0.039-1.173-0.117
		s-0.754-0.188-1.108-0.332c-0.354-0.144-0.685-0.316-0.992-0.518c-0.308-0.201-0.583-0.425-0.824-0.672l0.673-1.113
		c0.063-0.08,0.139-0.148,0.229-0.203c0.089-0.055,0.188-0.082,0.297-0.082c0.144,0,0.299,0.059,0.466,0.177
		c0.167,0.118,0.363,0.249,0.591,0.393c0.227,0.144,0.494,0.275,0.802,0.393s0.677,0.177,1.108,0.177
		c0.661,0,1.173-0.157,1.535-0.47c0.362-0.313,0.543-0.763,0.543-1.35c0-0.328-0.082-0.595-0.246-0.802
		c-0.164-0.207-0.381-0.38-0.651-0.521c-0.27-0.141-0.578-0.26-0.922-0.358c-0.345-0.098-0.696-0.204-1.052-0.319
		c-0.356-0.115-0.708-0.253-1.052-0.414c-0.345-0.161-0.653-0.371-0.923-0.63s-0.487-0.582-0.651-0.97
		c-0.164-0.388-0.246-0.867-0.246-1.436c0-0.454,0.091-0.896,0.272-1.328c0.181-0.431,0.445-0.813,0.793-1.147
		c0.348-0.333,0.774-0.601,1.28-0.802s1.084-0.302,1.734-0.302c0.736,0,1.414,0.115,2.035,0.345s1.15,0.552,1.587,0.966
		L62.037,217.038z"/>
	<path fill="#FFFFFF" d="M70.705,220.263c-0.063,0.081-0.125,0.144-0.186,0.19c-0.06,0.046-0.148,0.069-0.263,0.069
		c-0.109,0-0.215-0.033-0.319-0.099s-0.227-0.141-0.371-0.224c-0.144-0.083-0.315-0.158-0.513-0.225
		c-0.199-0.066-0.444-0.099-0.738-0.099c-0.374,0-0.701,0.068-0.983,0.203c-0.282,0.135-0.516,0.33-0.703,0.583
		c-0.187,0.253-0.326,0.559-0.418,0.918c-0.092,0.359-0.138,0.766-0.138,1.22c0,0.471,0.05,0.891,0.151,1.259
		c0.101,0.368,0.246,0.677,0.436,0.927c0.19,0.25,0.42,0.44,0.69,0.569c0.271,0.129,0.575,0.194,0.915,0.194
		c0.339,0,0.613-0.042,0.823-0.125c0.21-0.083,0.387-0.175,0.53-0.276c0.144-0.101,0.269-0.192,0.375-0.276s0.226-0.125,0.358-0.125
		c0.172,0,0.302,0.066,0.388,0.198l0.612,0.776c-0.236,0.276-0.492,0.507-0.768,0.694c-0.276,0.187-0.562,0.336-0.858,0.449
		c-0.296,0.112-0.602,0.191-0.918,0.237c-0.316,0.046-0.629,0.069-0.94,0.069c-0.546,0-1.061-0.102-1.544-0.306
		c-0.483-0.204-0.904-0.501-1.263-0.893s-0.644-0.87-0.854-1.436s-0.314-1.212-0.314-1.936c0-0.65,0.093-1.252,0.28-1.807
		c0.187-0.555,0.461-1.035,0.823-1.44c0.362-0.405,0.811-0.723,1.346-0.953s1.15-0.345,1.846-0.345c0.661,0,1.24,0.106,1.737,0.319
		c0.498,0.213,0.945,0.518,1.341,0.914L70.705,220.263z"/>
	<path fill="#FFFFFF" d="M72.713,227.24v-12.815h2.13v4.924c0.345-0.328,0.725-0.592,1.138-0.793c0.414-0.201,0.9-0.302,1.458-0.302
		c0.483,0,0.911,0.082,1.285,0.246c0.374,0.164,0.686,0.394,0.936,0.69c0.25,0.296,0.44,0.65,0.569,1.061s0.194,0.864,0.194,1.358
		v5.632h-2.13v-5.632c0-0.54-0.125-0.958-0.375-1.254c-0.25-0.296-0.625-0.444-1.125-0.444c-0.368,0-0.713,0.083-1.035,0.25
		c-0.322,0.167-0.626,0.394-0.914,0.681v6.399H72.713z"/>
	<path fill="#FFFFFF" d="M86.297,218.254c0.661,0,1.26,0.106,1.798,0.319c0.538,0.213,0.996,0.515,1.375,0.906
		s0.673,0.868,0.88,1.432s0.311,1.193,0.311,1.889c0,0.702-0.104,1.334-0.311,1.897s-0.5,1.043-0.88,1.44
		c-0.379,0.397-0.838,0.702-1.375,0.914c-0.538,0.213-1.137,0.319-1.798,0.319c-0.662,0-1.262-0.106-1.803-0.319
		c-0.541-0.212-1.002-0.517-1.384-0.914c-0.382-0.396-0.678-0.876-0.888-1.44s-0.315-1.196-0.315-1.897
		c0-0.696,0.105-1.325,0.315-1.889s0.506-1.041,0.888-1.432s0.844-0.693,1.384-0.906C85.035,218.36,85.635,218.254,86.297,218.254z
		 M86.297,225.731c0.736,0,1.28-0.247,1.634-0.742c0.354-0.494,0.53-1.219,0.53-2.173c0-0.954-0.177-1.682-0.53-2.182
		c-0.354-0.5-0.898-0.75-1.634-0.75c-0.748,0-1.3,0.251-1.656,0.754c-0.356,0.503-0.535,1.229-0.535,2.178s0.178,1.672,0.535,2.169
		C84.997,225.482,85.549,225.731,86.297,225.731z"/>
	<path fill="#FFFFFF" d="M96.103,218.254c0.661,0,1.26,0.106,1.798,0.319c0.538,0.213,0.996,0.515,1.375,0.906
		s0.673,0.868,0.88,1.432s0.311,1.193,0.311,1.889c0,0.702-0.104,1.334-0.311,1.897s-0.5,1.043-0.88,1.44
		c-0.379,0.397-0.838,0.702-1.375,0.914c-0.538,0.213-1.137,0.319-1.798,0.319c-0.662,0-1.262-0.106-1.803-0.319
		c-0.541-0.212-1.002-0.517-1.384-0.914c-0.382-0.396-0.678-0.876-0.888-1.44s-0.315-1.196-0.315-1.897
		c0-0.696,0.105-1.325,0.315-1.889s0.506-1.041,0.888-1.432s0.844-0.693,1.384-0.906C94.84,218.36,95.441,218.254,96.103,218.254z
		 M96.103,225.731c0.736,0,1.28-0.247,1.634-0.742c0.354-0.494,0.53-1.219,0.53-2.173c0-0.954-0.177-1.682-0.53-2.182
		c-0.354-0.5-0.898-0.75-1.634-0.75c-0.748,0-1.3,0.251-1.656,0.754c-0.356,0.503-0.535,1.229-0.535,2.178s0.178,1.672,0.535,2.169
		C94.803,225.482,95.355,225.731,96.103,225.731z"/>
	<path fill="#FFFFFF" d="M104.399,214.425v12.815h-2.13v-12.815H104.399z"/>
	<path fill="#FFFFFF" d="M112.057,220.117c-0.058,0.092-0.118,0.157-0.181,0.194c-0.063,0.038-0.144,0.056-0.242,0.056
		c-0.104,0-0.214-0.029-0.332-0.086c-0.118-0.057-0.254-0.122-0.41-0.194s-0.332-0.137-0.53-0.194
		c-0.198-0.058-0.433-0.086-0.703-0.086c-0.42,0-0.75,0.089-0.992,0.267c-0.241,0.179-0.362,0.411-0.362,0.699
		c0,0.19,0.062,0.349,0.185,0.479s0.288,0.243,0.492,0.341s0.436,0.186,0.694,0.263s0.523,0.163,0.793,0.254
		c0.27,0.092,0.535,0.197,0.793,0.315c0.259,0.118,0.49,0.267,0.694,0.448c0.204,0.181,0.368,0.398,0.491,0.651
		c0.124,0.253,0.186,0.558,0.186,0.915c0,0.425-0.078,0.818-0.233,1.177s-0.382,0.67-0.681,0.931
		c-0.299,0.262-0.668,0.466-1.108,0.612c-0.439,0.146-0.944,0.22-1.513,0.22c-0.305,0-0.603-0.027-0.893-0.082
		c-0.291-0.055-0.569-0.131-0.837-0.229c-0.267-0.098-0.515-0.213-0.742-0.345c-0.227-0.132-0.427-0.276-0.599-0.431l0.492-0.811
		c0.063-0.098,0.138-0.172,0.224-0.224c0.086-0.052,0.195-0.078,0.328-0.078s0.257,0.037,0.375,0.112s0.254,0.155,0.41,0.242
		c0.155,0.086,0.338,0.167,0.548,0.241c0.209,0.075,0.476,0.112,0.798,0.112c0.253,0,0.47-0.03,0.651-0.09
		c0.181-0.061,0.331-0.14,0.448-0.237c0.118-0.098,0.204-0.211,0.259-0.341s0.082-0.263,0.082-0.401
		c0-0.207-0.062-0.376-0.186-0.509s-0.288-0.247-0.491-0.345c-0.204-0.098-0.437-0.185-0.699-0.263s-0.529-0.163-0.802-0.254
		c-0.273-0.092-0.541-0.2-0.802-0.324c-0.262-0.124-0.495-0.28-0.699-0.47c-0.204-0.19-0.368-0.423-0.492-0.699
		s-0.185-0.609-0.185-1c0-0.362,0.072-0.707,0.215-1.035c0.144-0.328,0.355-0.614,0.634-0.858c0.279-0.244,0.627-0.44,1.044-0.586
		c0.417-0.146,0.898-0.22,1.444-0.22c0.609,0,1.164,0.101,1.665,0.302c0.5,0.201,0.917,0.466,1.25,0.793L112.057,220.117z"/>
</g>
<g>
	<path fill-rule="evenodd" clip-rule="evenodd" fill="#ED1C24" d="M117.441,35.225c-0.896,0.688-5.846,4.5-7.92,6.337
		c-3.572,3.167-7.287,5.767-12.47,4.771c-0.772-0.148-1.659,0.277-2.608,0.462c0-1.812,0-3.559,0-4.715
		c4.554,5.571,8.79,2.482,9.835,1.652c2.334-1.857,2.125-6.247,0.148-8.179c-2.749-2.686-7.058-2.058-9.944,2.246
		c0-6.231,0-12.252,0-18.446c18.987,0,37.796,0,56.854,0c0,14.04,0,28.059,0,42.248c-15.121,0-30.151,0-45.591,0
		c0-3.011-0.12-5.791,0.078-8.548c0.052-0.799,0.841-1.714,1.532-2.271c3.508-2.805,10.173-7.679,13.737-10.408 M120.836,35.741
		c0.31-0.295,0.617-0.586,0.928-0.878"/>
	<path fill-rule="evenodd" clip-rule="evenodd" fill="#ED1C24" d="M111.327,88.961c-3.622,2.257-3.812,2.188-5.072-1.294
		c-1.674-4.636-3.385-9.263-5.089-13.889c-0.207-0.553-0.464-6.204-0.944-7.183c-0.481,1.002-0.865,6.709-1.088,7.324
		c-1.728,4.711-3.433,9.431-5.155,14.148c-0.513,1.396-0.657,2.947-3.049,2.125c-2.334-0.81-1.665-2.034-1.113-3.51
		c0.941-2.518,1.6-5.176,2.808-7.553c3.112-6.115,3.444-23.022,3.174-24.165c-1.824,2.961-3.819,6.481-5.451,9.106
		c-2.262,3.655-5.155,2.229-2.32-2.426c2.157-4.03,4.614-8.53,6.706-12.599c0.7-1.375,1.575-2.129,3.14-1.853
		c4.151,0.731,7.246-1.082,10.416-3.628c1.872-1.496,3.806-2.989,5.719-4.469c2.87-2.215,5.856-0.252,3.694,2.439
		c-0.492,0.615-7.61,6.083-11.308,9.009c-0.826,0.661-1.476,2.039-1.497,3.106c-0.12,5.367-0.093,10.579-0.018,15.865
		c0.018,1.134,0.297,2.307,0.675,3.382C107.448,78.291,109.409,83.651,111.327,88.961z"/>
	<path fill-rule="evenodd" clip-rule="evenodd" fill="#ED1C24" d="M104.942,39.614c-0.024,2.679-2.111,4.696-4.807,4.641
		c-2.592-0.057-4.537-2.02-4.589-4.601c-0.052-2.651,2.043-4.809,4.669-4.817C102.824,34.823,104.952,36.977,104.942,39.614z"/>
	<g>
		<path fill-rule="evenodd" clip-rule="evenodd" fill="#ED1C24" d="M68.555,76.122c0.147-0.154,0.442-0.4,0.407-0.461
			c-0.572-1.022-1.501-1.547-2.565-1.043c-0.836,0.394-1.848,1.052-2.14,1.83c-0.947,2.513-1.804,5.095-2.295,7.725
			c-0.435,2.316,1.019,3.645,3.417,3.661c1.493,0.015,2.985,0.034,4.479,0.063c0.08,0,0.153,0.086,0.308,0.172
			c-0.218,2.648-0.432,5.327-0.651,8.021c1.148,0.452,1.562,0.108,1.613-1.056c0.071-1.888,0.28-3.773,0.728-5.655
			c0.325,1.761,0.64,3.514,0.955,5.272c0.19,1.082,0.628,1.948,1.904,1.69c1.217-0.246,1.271-1.178,1.076-2.196
			c-0.459-2.432-0.907-4.86-1.328-7.295c-0.205-1.193-0.578-2.168-2.081-2.369c0.456-0.113,0.903-0.326,1.367-0.333
			c2.38-0.027,4.771,0.019,7.148-0.016c1.327-0.023,1.942,0.52,2.039,1.88c0.259,3.351,0.604,6.688,0.933,10.177
			c0.412,0.026,0.835,0.055,1.441,0.09c-0.273-3.342-0.526-6.533-0.791-9.732c-0.087-1.002-0.536-1.99,0.317-2.953
			c0.246-0.279,0.042-0.972,0.042-1.555c-5.003,0-9.884,0-15.047,0c0.18,0.927,0.346,1.714,0.535,2.622c-0.823,0-1.831,0-3.244,0
			c0.596-1.964,1.161-3.849,1.722-5.734c-0.703-0.322-1.511-0.527-2.088-1.011c-0.331-0.289-0.434-1.041-0.354-1.53
			c0.045-0.231,0.777-0.399,1.225-0.469C67.913,75.871,68.244,76.047,68.555,76.122z"/>
		<path fill-rule="evenodd" clip-rule="evenodd" fill="#ED1C24" d="M67.123,88.714c-2.54,0-4.944,0-7.475,0
			c-0.413,2.409-0.827,4.772-1.247,7.254c3.349,0,6.57,0,9.951,0C67.946,93.576,67.55,91.215,67.123,88.714z"/>
		<path fill-rule="evenodd" clip-rule="evenodd" fill="#ED1C24" d="M67.43,71.691c0.012,1.695,1.312,3.021,2.995,3.035
			c1.671,0.009,3.01-1.313,3.025-3.002c0.03-1.729-1.378-3.154-3.065-3.119C68.73,68.641,67.42,70.005,67.43,71.691z"/>
		<path fill-rule="evenodd" clip-rule="evenodd" fill="#ED1C24" d="M68.555,76.122c-0.311-0.074-0.642-0.251-0.928-0.205
			c-0.447,0.069-1.18,0.237-1.225,0.469c-0.079,0.489,0.023,1.241,0.354,1.53c0.577,0.483,1.385,0.688,2.088,1.011
			c2.146,0.372,4.279,0.771,6.429,1.107c0.81,0.125,1.604-0.124,1.613-1.08c0.015-0.961-0.758-1.101-1.582-1.127
			C72.938,77.747,70.585,77.57,68.555,76.122z"/>
		<path fill-rule="evenodd" clip-rule="evenodd" fill="#ED1C24" d="M36.785,83.294c0.154-0.175,0.478-0.443,0.443-0.507
			c-0.627-1.127-1.653-1.701-2.814-1.149c-0.927,0.435-2.031,1.155-2.354,2.013c-1.038,2.759-1.979,5.594-2.52,8.48
			c-0.474,2.546,1.12,4.003,3.75,4.023c1.642,0.016,3.283,0.037,4.916,0.067c0.094,0.002,0.178,0.096,0.344,0.19
			c-0.233,2.907-0.474,5.851-0.715,8.812c1.259,0.495,1.717,0.118,1.765-1.164c0.083-2.072,0.312-4.141,0.811-6.209
			c0.348,1.93,0.709,3.857,1.041,5.79c0.211,1.188,0.693,2.142,2.1,1.855c1.333-0.269,1.39-1.297,1.179-2.412
			c-0.498-2.67-0.999-5.338-1.454-8.012c-0.229-1.312-0.639-2.379-2.296-2.6c0.499-0.125,1.003-0.359,1.496-0.365
			c2.625-0.034,5.246,0.021,7.861-0.024c1.459-0.021,2.131,0.579,2.241,2.07c0.278,3.676,0.66,7.346,1.02,11.177
			c0.458,0.028,0.927,0.057,1.591,0.097c-0.297-3.668-0.583-7.175-0.882-10.683c-0.091-1.104-0.58-2.193,0.355-3.249
			c0.28-0.309,0.045-1.064,0.045-1.705c-5.492,0-10.855,0-16.528,0c0.205,1.014,0.383,1.88,0.595,2.879c-0.909,0-2.014,0-3.56,0
			c0.647-2.157,1.269-4.229,1.889-6.298c-0.778-0.351-1.671-0.577-2.294-1.113c-0.372-0.313-0.479-1.141-0.389-1.681
			c0.045-0.253,0.852-0.438,1.339-0.516C36.079,83.01,36.444,83.21,36.785,83.294z"/>
		<path fill-rule="evenodd" clip-rule="evenodd" fill="#ED1C24" d="M35.21,97.12c-2.799,0-5.431,0-8.212,0
			c-0.454,2.646-0.902,5.246-1.373,7.97c3.683,0,7.227,0,10.934,0C36.113,102.457,35.672,99.869,35.21,97.12z"/>
		<path fill-rule="evenodd" clip-rule="evenodd" fill="#ED1C24" d="M35.546,78.428c0.006,1.859,1.442,3.315,3.285,3.33
			c1.836,0.011,3.302-1.437,3.323-3.296c0.029-1.9-1.51-3.468-3.363-3.427C36.972,75.075,35.542,76.572,35.546,78.428z"/>
		<path fill-rule="evenodd" clip-rule="evenodd" fill="#ED1C24" d="M36.785,83.294c-0.341-0.084-0.706-0.284-1.026-0.232
			c-0.487,0.078-1.294,0.263-1.339,0.516c-0.09,0.54,0.017,1.367,0.389,1.681c0.623,0.536,1.516,0.763,2.294,1.113
			c2.352,0.409,4.698,0.847,7.06,1.215c0.885,0.139,1.757-0.136,1.769-1.186c0.019-1.05-0.836-1.206-1.738-1.239
			C41.594,85.076,39.014,84.881,36.785,83.294z"/>
	</g>
	<g>
		<path fill-rule="evenodd" clip-rule="evenodd" fill="#ED1C24" d="M107.647,100.847c0.14-0.165,0.417-0.427,0.39-0.481
			c-0.624-0.998-1.586-1.478-2.615-0.923c-0.817,0.435-1.803,1.139-2.054,1.934c-0.826,2.546-1.557,5.167-1.93,7.815
			c-0.323,2.334,1.185,3.592,3.577,3.5c1.493-0.056,2.987-0.105,4.485-0.146c0.078-0.003,0.161,0.076,0.317,0.159
			c-0.094,2.65-0.183,5.337-0.276,8.042c1.17,0.396,1.572,0.032,1.562-1.131c-0.011-1.894,0.104-3.781,0.468-5.682
			c0.399,1.738,0.802,3.477,1.197,5.218c0.239,1.068,0.715,1.92,1.982,1.604c1.198-0.309,1.21-1.242,0.969-2.249
			c-0.568-2.402-1.132-4.813-1.67-7.224c-0.257-1.184-0.681-2.137-2.196-2.266c0.451-0.137,0.901-0.368,1.355-0.397
			c2.374-0.144,4.767-0.206,7.143-0.354c1.321-0.084,1.96,0.432,2.132,1.785c0.406,3.329,0.909,6.652,1.401,10.12
			c0.412,0.007,0.844,0.016,1.448,0.023c-0.426-3.323-0.83-6.504-1.253-9.681c-0.136-1.002-0.63-1.968,0.182-2.969
			c0.241-0.292-0.004-0.971-0.033-1.556c-4.995,0.233-9.876,0.463-15.036,0.703c0.234,0.919,0.435,1.697,0.663,2.597
			c-0.82,0.041-1.825,0.087-3.238,0.156c0.498-1.997,0.974-3.902,1.454-5.812c-0.722-0.288-1.545-0.455-2.128-0.912
			c-0.355-0.268-0.494-1.019-0.43-1.514c0.029-0.231,0.756-0.435,1.192-0.525C106.999,100.622,107.333,100.785,107.647,100.847z"/>
		<path fill-rule="evenodd" clip-rule="evenodd" fill="#ED1C24" d="M106.807,113.491c-2.54,0.117-4.938,0.231-7.466,0.35
			c-0.301,2.426-0.6,4.807-0.91,7.306c3.348-0.159,6.572-0.309,9.938-0.466C107.859,118.306,107.35,115.969,106.807,113.491z"/>
		<path fill-rule="evenodd" clip-rule="evenodd" fill="#ED1C24" d="M106.318,96.469c0.075,1.697,1.45,2.959,3.127,2.894
			c1.669-0.068,2.94-1.452,2.885-3.139c-0.057-1.73-1.524-3.089-3.213-2.973C107.471,93.366,106.228,94.786,106.318,96.469z"/>
		<path fill-rule="evenodd" clip-rule="evenodd" fill="#ED1C24" d="M107.647,100.847c-0.314-0.062-0.648-0.226-0.941-0.165
			c-0.437,0.091-1.163,0.294-1.192,0.525c-0.064,0.495,0.074,1.246,0.43,1.514c0.583,0.457,1.406,0.624,2.128,0.912
			c2.15,0.271,4.309,0.569,6.474,0.802c0.81,0.088,1.593-0.199,1.559-1.149c-0.028-0.962-0.814-1.067-1.636-1.056
			C112.105,102.26,109.741,102.195,107.647,100.847z"/>
		<path fill-rule="evenodd" clip-rule="evenodd" fill="#ED1C24" d="M76.243,109.499c0.154-0.184,0.467-0.467,0.423-0.529
			c-0.677-1.097-1.728-1.62-2.866-1.017c-0.897,0.476-1.973,1.251-2.259,2.123c-0.904,2.802-1.714,5.682-2.112,8.589
			c-0.36,2.563,1.298,3.944,3.928,3.844c1.639-0.064,3.281-0.117,4.923-0.168c0.087-0.002,0.172,0.089,0.35,0.18
			c-0.103,2.907-0.206,5.864-0.31,8.829c1.287,0.438,1.729,0.039,1.718-1.241c-0.019-2.076,0.108-4.149,0.511-6.24
			c0.44,1.909,0.884,3.82,1.32,5.735c0.266,1.175,0.782,2.108,2.179,1.756c1.316-0.332,1.326-1.363,1.063-2.464
			c-0.623-2.643-1.246-5.286-1.83-7.937c-0.292-1.301-0.749-2.35-2.414-2.487c0.498-0.152,0.984-0.406,1.487-0.438
			c2.609-0.154,5.23-0.226,7.844-0.387c1.453-0.092,2.152,0.473,2.334,1.958c0.452,3.659,1.004,7.306,1.54,11.117
			c0.457,0.006,0.933,0.018,1.593,0.024c-0.473-3.653-0.912-7.142-1.375-10.634c-0.145-1.098-0.69-2.164,0.199-3.259
			c0.264-0.32-0.006-1.065-0.033-1.709c-5.487,0.256-10.844,0.508-16.508,0.772c0.253,1.004,0.474,1.861,0.721,2.851
			c-0.904,0.044-2.011,0.098-3.553,0.167c0.55-2.187,1.07-4.284,1.595-6.38c-0.793-0.314-1.697-0.496-2.344-0.998
			c-0.383-0.301-0.538-1.122-0.473-1.666c0.039-0.253,0.839-0.476,1.319-0.575C75.533,109.25,75.899,109.427,76.243,109.499z"/>
		<path fill-rule="evenodd" clip-rule="evenodd" fill="#ED1C24" d="M75.322,123.38c-2.793,0.133-5.427,0.259-8.199,0.385
			c-0.332,2.663-0.658,5.282-1.005,8.025c3.677-0.171,7.218-0.339,10.925-0.512C76.472,128.671,75.917,126.103,75.322,123.38z"/>
		<path fill-rule="evenodd" clip-rule="evenodd" fill="#ED1C24" d="M74.784,104.692c0.093,1.862,1.592,3.248,3.427,3.173
			c1.842-0.075,3.235-1.59,3.175-3.45c-0.06-1.894-1.673-3.388-3.523-3.262C76.051,101.283,74.692,102.841,74.784,104.692z"/>
		<path fill-rule="evenodd" clip-rule="evenodd" fill="#ED1C24" d="M76.243,109.499c-0.344-0.071-0.71-0.249-1.03-0.184
			c-0.48,0.1-1.28,0.322-1.319,0.575c-0.065,0.544,0.09,1.365,0.473,1.666c0.646,0.502,1.551,0.684,2.344,0.998
			c2.368,0.303,4.73,0.629,7.107,0.884c0.887,0.097,1.755-0.218,1.716-1.266c-0.039-1.055-0.891-1.169-1.801-1.157
			C81.13,111.05,78.542,110.977,76.243,109.499z"/>
	</g>
</g>
<g>
	<path fill="#FFFFFF" d="M438.74,178.316c1.149,0,2.186,0.156,3.111,0.467s1.715,0.743,2.37,1.295
		c0.655,0.552,1.157,1.199,1.508,1.942c0.351,0.743,0.526,1.546,0.526,2.409c0,0.754-0.089,1.418-0.267,1.992
		c-0.179,0.573-0.437,1.073-0.776,1.5s-0.752,0.787-1.241,1.082c-0.489,0.295-1.043,0.541-1.663,0.738
		c1.493,0.448,2.608,1.131,3.343,2.049c0.735,0.917,1.103,2.07,1.103,3.458c0,1.18-0.23,2.224-0.689,3.13
		c-0.459,0.907-1.08,1.669-1.861,2.287s-1.686,1.084-2.714,1.401c-1.028,0.316-2.117,0.475-3.266,0.475
		c-1.252,0-2.344-0.137-3.274-0.41s-1.741-0.677-2.43-1.213c-0.689-0.535-1.275-1.191-1.758-1.967s-0.896-1.672-1.241-2.688
		l1.878-0.737c0.322-0.131,0.649-0.197,0.982-0.197c0.299,0,0.566,0.06,0.801,0.18c0.235,0.121,0.417,0.295,0.543,0.524
		c0.207,0.383,0.434,0.76,0.681,1.131c0.247,0.372,0.543,0.702,0.888,0.992s0.75,0.524,1.215,0.705
		c0.465,0.181,1.02,0.271,1.664,0.271c0.724,0,1.355-0.112,1.896-0.336c0.54-0.224,0.991-0.516,1.353-0.877
		c0.362-0.36,0.632-0.762,0.81-1.205c0.178-0.442,0.267-0.888,0.267-1.335c0-0.568-0.063-1.084-0.189-1.549
		c-0.126-0.464-0.391-0.861-0.793-1.188s-0.979-0.584-1.732-0.771c-0.753-0.186-1.761-0.278-3.025-0.278v-2.901
		c1.045,0,1.913-0.087,2.603-0.262s1.238-0.418,1.646-0.729c0.408-0.312,0.692-0.686,0.853-1.123
		c0.161-0.437,0.241-0.918,0.241-1.442c0-1.125-0.322-1.975-0.965-2.549c-0.644-0.574-1.523-0.86-2.637-0.86
		c-1.011,0-1.85,0.254-2.516,0.761c-0.667,0.508-1.132,1.16-1.396,1.956c-0.138,0.415-0.328,0.712-0.569,0.893
		s-0.558,0.27-0.948,0.27c-0.184,0-0.379-0.016-0.586-0.048l-2.241-0.371c0.172-1.137,0.505-2.134,1-2.992s1.112-1.574,1.853-2.148
		c0.741-0.573,1.591-1.005,2.551-1.295C436.606,178.461,437.637,178.316,438.74,178.316z"/>
	<path fill="#FFFFFF" d="M460.524,184.315c0,0.896-0.158,1.705-0.474,2.426c-0.316,0.721-0.739,1.336-1.267,1.844
		c-0.528,0.508-1.143,0.899-1.844,1.172c-0.701,0.273-1.431,0.41-2.189,0.41c-0.827,0-1.592-0.137-2.292-0.41
		c-0.701-0.273-1.307-0.664-1.818-1.172c-0.512-0.508-0.911-1.123-1.198-1.844c-0.288-0.721-0.431-1.529-0.431-2.426
		c0-0.917,0.144-1.748,0.431-2.491c0.287-0.743,0.686-1.371,1.198-1.885c0.511-0.513,1.117-0.91,1.818-1.188
		c0.701-0.279,1.465-0.418,2.292-0.418s1.594,0.139,2.301,0.418c0.707,0.278,1.318,0.675,1.835,1.188
		c0.517,0.514,0.919,1.142,1.207,1.885C460.381,182.567,460.524,183.397,460.524,184.315z M468.814,179.218
		c0.138-0.164,0.31-0.311,0.517-0.442c0.207-0.131,0.494-0.197,0.862-0.197h3.085l-18.51,23.093
		c-0.138,0.175-0.313,0.32-0.525,0.435c-0.213,0.115-0.468,0.172-0.767,0.172h-3.171L468.814,179.218z M457.233,184.315
		c0-0.633-0.063-1.164-0.19-1.59c-0.126-0.426-0.301-0.77-0.525-1.032s-0.489-0.451-0.793-0.565
		c-0.305-0.115-0.629-0.172-0.974-0.172s-0.667,0.058-0.965,0.172s-0.557,0.303-0.775,0.565s-0.388,0.606-0.508,1.032
		c-0.121,0.426-0.181,0.957-0.181,1.59c0,0.612,0.061,1.123,0.181,1.533s0.29,0.74,0.508,0.992s0.477,0.432,0.775,0.541
		c0.299,0.109,0.621,0.164,0.965,0.164s0.669-0.055,0.974-0.164c0.304-0.109,0.569-0.289,0.793-0.541s0.399-0.582,0.525-0.992
		S457.233,184.927,457.233,184.315z M474.588,196.706c0,0.896-0.158,1.705-0.474,2.426c-0.316,0.721-0.739,1.336-1.267,1.844
		c-0.528,0.508-1.143,0.902-1.844,1.18c-0.701,0.279-1.431,0.418-2.189,0.418c-0.827,0-1.592-0.139-2.292-0.418
		c-0.701-0.278-1.307-0.672-1.818-1.18c-0.512-0.508-0.911-1.123-1.198-1.844c-0.288-0.721-0.431-1.529-0.431-2.426
		c0-0.917,0.144-1.748,0.431-2.491c0.287-0.743,0.686-1.371,1.198-1.885c0.511-0.513,1.117-0.91,1.818-1.188
		c0.701-0.279,1.465-0.418,2.292-0.418s1.594,0.139,2.301,0.418c0.707,0.278,1.318,0.675,1.835,1.188
		c0.517,0.514,0.919,1.142,1.207,1.885C474.444,194.958,474.588,195.788,474.588,196.706z M471.313,196.706
		c0-0.633-0.066-1.164-0.198-1.589c-0.132-0.426-0.31-0.771-0.534-1.033s-0.489-0.451-0.793-0.565
		c-0.305-0.115-0.629-0.172-0.974-0.172s-0.667,0.058-0.965,0.172s-0.554,0.303-0.767,0.565c-0.213,0.262-0.382,0.606-0.509,1.033
		c-0.126,0.426-0.189,0.956-0.189,1.589c0,0.612,0.063,1.126,0.189,1.541s0.296,0.749,0.509,1c0.212,0.251,0.468,0.432,0.767,0.541
		c0.299,0.109,0.621,0.164,0.965,0.164s0.669-0.055,0.974-0.164c0.304-0.109,0.569-0.29,0.793-0.541
		c0.224-0.251,0.402-0.584,0.534-1C471.247,197.832,471.313,197.318,471.313,196.706z"/>
	<path fill="#FFFFFF" d="M420.595,222.981h-2.337v-5.452h-5.849v5.452h-2.338v-12.474h2.338v5.366h5.849v-5.366h2.337V222.981z"/>
	<path fill="#FFFFFF" d="M426.65,213.993c0.558,0,1.071,0.089,1.54,0.267s0.873,0.438,1.212,0.781s0.604,0.762,0.793,1.259
		c0.19,0.498,0.285,1.065,0.285,1.704c0,0.161-0.007,0.295-0.021,0.401s-0.04,0.19-0.078,0.25c-0.038,0.061-0.088,0.104-0.151,0.129
		c-0.063,0.026-0.144,0.039-0.242,0.039h-5.469c0.063,0.909,0.308,1.576,0.733,2.001c0.425,0.426,0.989,0.639,1.69,0.639
		c0.345,0,0.643-0.041,0.893-0.121c0.25-0.08,0.468-0.169,0.655-0.267s0.351-0.187,0.492-0.268s0.277-0.121,0.41-0.121
		c0.086,0,0.161,0.017,0.225,0.052c0.063,0.034,0.118,0.083,0.164,0.146l0.621,0.776c-0.236,0.276-0.5,0.508-0.793,0.694
		c-0.293,0.187-0.6,0.336-0.918,0.449c-0.319,0.112-0.645,0.191-0.975,0.237c-0.331,0.046-0.651,0.069-0.962,0.069
		c-0.615,0-1.188-0.102-1.716-0.306c-0.529-0.204-0.989-0.506-1.38-0.906s-0.699-0.894-0.923-1.484
		c-0.224-0.589-0.336-1.272-0.336-2.049c0-0.604,0.098-1.171,0.293-1.704c0.195-0.532,0.476-0.995,0.841-1.389
		s0.811-0.706,1.337-0.936C425.396,214.107,425.989,213.993,426.65,213.993z M426.694,215.52c-0.621,0-1.107,0.175-1.458,0.526
		c-0.351,0.351-0.575,0.849-0.673,1.492h4.002c0-0.276-0.037-0.536-0.112-0.78c-0.075-0.245-0.19-0.458-0.345-0.643
		s-0.351-0.33-0.586-0.436C427.286,215.573,427.01,215.52,426.694,215.52z"/>
	<path fill="#FFFFFF" d="M439.15,222.981h-0.958c-0.202,0-0.36-0.03-0.475-0.09c-0.115-0.061-0.201-0.183-0.259-0.367l-0.19-0.63
		c-0.224,0.201-0.444,0.378-0.66,0.531s-0.438,0.28-0.668,0.384s-0.475,0.181-0.733,0.233s-0.546,0.078-0.862,0.078
		c-0.374,0-0.719-0.051-1.035-0.151c-0.316-0.101-0.588-0.252-0.815-0.455c-0.227-0.202-0.404-0.453-0.53-0.753
		c-0.127-0.3-0.19-0.649-0.19-1.047c0-0.334,0.087-0.665,0.263-0.991c0.175-0.326,0.467-0.62,0.875-0.882
		c0.408-0.263,0.952-0.48,1.63-0.654c0.678-0.173,1.521-0.26,2.527-0.26v-0.521c0-0.597-0.125-1.039-0.375-1.325
		c-0.25-0.287-0.614-0.43-1.091-0.43c-0.345,0-0.633,0.04-0.863,0.121s-0.43,0.171-0.6,0.271c-0.169,0.101-0.326,0.191-0.47,0.272
		c-0.144,0.081-0.302,0.121-0.475,0.121c-0.144,0-0.268-0.037-0.371-0.112s-0.187-0.167-0.25-0.276l-0.388-0.681
		c1.018-0.932,2.246-1.397,3.683-1.397c0.518,0,0.979,0.084,1.385,0.254c0.405,0.169,0.749,0.405,1.031,0.707
		c0.282,0.302,0.496,0.663,0.643,1.083c0.146,0.419,0.22,0.88,0.22,1.38V222.981z M435.009,221.652c0.218,0,0.419-0.02,0.604-0.059
		c0.184-0.04,0.358-0.099,0.522-0.179c0.164-0.079,0.322-0.177,0.475-0.292c0.152-0.116,0.306-0.253,0.461-0.412v-1.481
		c-0.621,0-1.14,0.039-1.557,0.117s-0.752,0.178-1.005,0.3s-0.433,0.264-0.539,0.426s-0.16,0.339-0.16,0.53
		c0,0.377,0.111,0.646,0.332,0.808C434.364,221.571,434.652,221.652,435.009,221.652z"/>
	<path fill="#FFFFFF" d="M443.514,210.163v12.818h-2.13v-12.818H443.514z"/>
	<path fill="#FFFFFF" d="M448.828,223.119c-0.765,0-1.354-0.217-1.768-0.651s-0.621-1.034-0.621-1.799v-4.942h-0.897
		c-0.115,0-0.214-0.038-0.298-0.112s-0.125-0.187-0.125-0.336v-0.845l1.423-0.233l0.449-2.416c0.022-0.115,0.076-0.204,0.159-0.268
		c0.083-0.063,0.188-0.095,0.315-0.095h1.104v2.786h2.329v1.519h-2.329v4.796c0,0.276,0.069,0.492,0.207,0.647
		c0.138,0.155,0.322,0.233,0.552,0.233c0.132,0,0.243-0.016,0.332-0.047c0.089-0.032,0.167-0.065,0.233-0.099
		c0.066-0.035,0.125-0.068,0.177-0.099c0.052-0.032,0.104-0.048,0.155-0.048c0.063,0,0.115,0.016,0.155,0.048
		c0.041,0.031,0.083,0.079,0.129,0.142l0.639,1.035c-0.311,0.259-0.667,0.455-1.07,0.586
		C449.676,223.053,449.259,223.119,448.828,223.119z"/>
	<path fill="#FFFFFF" d="M452.598,222.981v-12.818h2.131v4.925c0.345-0.328,0.724-0.592,1.138-0.793s0.9-0.302,1.458-0.302
		c0.483,0,0.912,0.082,1.285,0.246c0.374,0.164,0.686,0.394,0.936,0.69c0.25,0.296,0.44,0.65,0.569,1.061
		c0.129,0.412,0.194,0.864,0.194,1.359v5.633h-2.131v-5.633c0-0.541-0.125-0.959-0.375-1.255c-0.25-0.296-0.625-0.444-1.126-0.444
		c-0.368,0-0.713,0.083-1.035,0.25s-0.627,0.394-0.914,0.682v6.4H452.598z"/>
	<path fill="#FFFFFF" d="M468.625,216.002c-0.063,0.081-0.125,0.144-0.186,0.19c-0.06,0.046-0.148,0.069-0.263,0.069
		c-0.109,0-0.216-0.033-0.319-0.099c-0.104-0.066-0.227-0.141-0.371-0.225c-0.144-0.083-0.314-0.158-0.513-0.224
		c-0.198-0.066-0.444-0.099-0.737-0.099c-0.374,0-0.702,0.067-0.983,0.203s-0.516,0.329-0.703,0.583
		c-0.187,0.253-0.327,0.559-0.418,0.918s-0.138,0.767-0.138,1.221c0,0.472,0.05,0.892,0.151,1.259
		c0.101,0.368,0.246,0.677,0.436,0.927c0.189,0.25,0.419,0.44,0.69,0.569s0.575,0.194,0.915,0.194s0.614-0.042,0.824-0.125
		c0.21-0.083,0.387-0.176,0.53-0.276c0.144-0.101,0.269-0.192,0.375-0.276s0.226-0.125,0.358-0.125c0.172,0,0.302,0.066,0.388,0.198
		l0.612,0.776c-0.236,0.276-0.492,0.508-0.768,0.694c-0.276,0.187-0.562,0.336-0.858,0.449s-0.603,0.191-0.918,0.237
		c-0.316,0.046-0.63,0.069-0.94,0.069c-0.546,0-1.061-0.102-1.544-0.306s-0.904-0.502-1.264-0.893
		c-0.359-0.391-0.644-0.87-0.854-1.436s-0.315-1.212-0.315-1.937c0-0.65,0.093-1.252,0.28-1.807
		c0.187-0.555,0.461-1.035,0.824-1.441c0.362-0.405,0.811-0.723,1.346-0.953s1.15-0.345,1.846-0.345
		c0.661,0,1.241,0.106,1.738,0.319c0.497,0.213,0.944,0.518,1.341,0.915L468.625,216.002z"/>
	<path fill="#FFFFFF" d="M477.57,222.981h-0.958c-0.202,0-0.36-0.03-0.475-0.09c-0.115-0.061-0.201-0.183-0.259-0.367l-0.19-0.63
		c-0.224,0.201-0.444,0.378-0.66,0.531s-0.438,0.28-0.668,0.384s-0.475,0.181-0.733,0.233s-0.546,0.078-0.862,0.078
		c-0.374,0-0.719-0.051-1.035-0.151c-0.316-0.101-0.588-0.252-0.815-0.455c-0.227-0.202-0.404-0.453-0.53-0.753
		c-0.127-0.3-0.19-0.649-0.19-1.047c0-0.334,0.087-0.665,0.263-0.991c0.175-0.326,0.467-0.62,0.875-0.882
		c0.408-0.263,0.952-0.48,1.63-0.654c0.678-0.173,1.521-0.26,2.527-0.26v-0.521c0-0.597-0.125-1.039-0.375-1.325
		c-0.25-0.287-0.614-0.43-1.091-0.43c-0.345,0-0.633,0.04-0.863,0.121s-0.43,0.171-0.6,0.271c-0.169,0.101-0.326,0.191-0.47,0.272
		c-0.144,0.081-0.302,0.121-0.475,0.121c-0.144,0-0.268-0.037-0.371-0.112s-0.187-0.167-0.25-0.276l-0.388-0.681
		c1.018-0.932,2.246-1.397,3.683-1.397c0.518,0,0.979,0.084,1.385,0.254c0.405,0.169,0.749,0.405,1.031,0.707
		c0.282,0.302,0.496,0.663,0.643,1.083c0.146,0.419,0.22,0.88,0.22,1.38V222.981z M473.429,221.652c0.218,0,0.419-0.02,0.604-0.059
		c0.184-0.04,0.358-0.099,0.522-0.179c0.164-0.079,0.322-0.177,0.475-0.292c0.152-0.116,0.306-0.253,0.461-0.412v-1.481
		c-0.621,0-1.14,0.039-1.557,0.117s-0.752,0.178-1.005,0.3s-0.433,0.264-0.539,0.426s-0.16,0.339-0.16,0.53
		c0,0.377,0.111,0.646,0.332,0.808C472.784,221.571,473.072,221.652,473.429,221.652z"/>
	<path fill="#FFFFFF" d="M479.666,222.981v-8.851h1.251c0.218,0,0.371,0.041,0.457,0.121s0.144,0.218,0.172,0.414l0.129,1.069
		c0.316-0.546,0.687-0.978,1.113-1.294c0.426-0.316,0.903-0.474,1.432-0.474c0.437,0,0.799,0.101,1.087,0.302l-0.276,1.596
		c-0.017,0.104-0.055,0.177-0.112,0.22c-0.058,0.043-0.135,0.064-0.233,0.064c-0.086,0-0.204-0.02-0.354-0.06
		c-0.149-0.041-0.348-0.061-0.595-0.061c-0.443,0-0.822,0.122-1.139,0.367c-0.316,0.244-0.583,0.603-0.802,1.074v5.512H479.666z"/>
	<path fill="#FFFFFF" d="M490.371,213.993c0.558,0,1.071,0.089,1.54,0.267s0.873,0.438,1.212,0.781s0.604,0.762,0.793,1.259
		c0.19,0.498,0.285,1.065,0.285,1.704c0,0.161-0.007,0.295-0.021,0.401s-0.04,0.19-0.078,0.25c-0.038,0.061-0.088,0.104-0.151,0.129
		c-0.063,0.026-0.144,0.039-0.242,0.039h-5.469c0.063,0.909,0.308,1.576,0.733,2.001c0.425,0.426,0.989,0.639,1.69,0.639
		c0.345,0,0.643-0.041,0.893-0.121c0.25-0.08,0.468-0.169,0.655-0.267s0.351-0.187,0.492-0.268s0.277-0.121,0.41-0.121
		c0.086,0,0.161,0.017,0.225,0.052c0.063,0.034,0.118,0.083,0.164,0.146l0.621,0.776c-0.236,0.276-0.5,0.508-0.793,0.694
		c-0.293,0.187-0.6,0.336-0.918,0.449c-0.319,0.112-0.645,0.191-0.975,0.237c-0.331,0.046-0.651,0.069-0.962,0.069
		c-0.615,0-1.188-0.102-1.716-0.306c-0.529-0.204-0.989-0.506-1.38-0.906s-0.699-0.894-0.923-1.484
		c-0.224-0.589-0.336-1.272-0.336-2.049c0-0.604,0.098-1.171,0.293-1.704c0.195-0.532,0.476-0.995,0.841-1.389
		s0.811-0.706,1.337-0.936C489.116,214.107,489.709,213.993,490.371,213.993z M490.414,215.52c-0.621,0-1.107,0.175-1.458,0.526
		c-0.351,0.351-0.575,0.849-0.673,1.492h4.002c0-0.276-0.037-0.536-0.112-0.78c-0.075-0.245-0.19-0.458-0.345-0.643
		s-0.351-0.33-0.586-0.436C491.006,215.573,490.73,215.52,490.414,215.52z"/>
</g>
<g>
	<path fill-rule="evenodd" clip-rule="evenodd" fill="#ED1C24" d="M411.071,93.497c-2.007-1.605-2.623-3.655-2.611-6.244
		c0.105-15.468,0.184-30.94-0.015-46.408c-0.071-5.249,2.084-6.94,7.114-6.874c5.23,0.068,9.405-0.033,14.271-0.041
		c3.976-0.006,5.886,1.11,6.341,4.916c0.562,4.687,3.405,5.627,7.781,5.55c2.752-0.049,5.462-0.021,8.316-0.006
		c6.688-0.015,11.461,0.109,12.133-7.793c0.159-1.843,1.246-2.648,3.215-2.614c6.146,0.1,12.292,0.018,18.444,0.067
		c3.699,0.032,5.237,2.002,5.219,5.667c-0.063,16.063-0.063,32.129,0.019,48.196c0.014,2.43-0.857,4.18-2.677,5.608
		c-2.244,2.195-5.133,1.856-7.86,1.864c-20.612,0.064-41.227,0.066-61.839-0.002C416.199,95.376,413.305,95.714,411.071,93.497z"/>
	<path fill-rule="evenodd" clip-rule="evenodd" fill="#E0E0E0" d="M411.071,93.497c25.853,0.01,51.697,0.017,77.551,0.024"/>
	<g>
		<path fill-rule="evenodd" clip-rule="evenodd" fill="#FCFCFC" d="M467.604,70.913c0,3.02-2.446,5.468-5.467,5.468h-23.261
			c-3.018,0-5.465-2.448-5.465-5.468l0,0c0-3.019,2.447-5.467,5.465-5.467h23.261C465.158,65.446,467.604,67.894,467.604,70.913
			L467.604,70.913z"/>
		<path fill-rule="evenodd" clip-rule="evenodd" fill="#FCFCFC" d="M450.21,53.916c3.02,0,5.467,2.447,5.467,5.467v23.262
			c0,3.018-2.447,5.466-5.467,5.466l0,0c-3.021,0-5.465-2.448-5.465-5.466V59.382C444.745,56.363,447.189,53.916,450.21,53.916
			L450.21,53.916z"/>
	</g>
</g>
<g>
	<path fill="#FFFFFF" d="M623.35,178.315c1.148,0,2.2,0.162,3.154,0.483c0.954,0.323,1.769,0.779,2.447,1.369
		c0.678,0.59,1.207,1.3,1.585,2.131c0.379,0.831,0.569,1.753,0.569,2.77c0,0.875-0.135,1.683-0.405,2.426
		c-0.271,0.743-0.632,1.454-1.086,2.131c-0.454,0.678-0.985,1.333-1.594,1.967c-0.609,0.634-1.247,1.278-1.913,1.934l-5.619,5.458
		c0.552-0.153,1.092-0.271,1.62-0.352c0.528-0.082,1.034-0.123,1.517-0.123h6.394c0.459,0,0.825,0.123,1.095,0.369
		c0.27,0.246,0.405,0.571,0.405,0.975v2.426h-17.097v-1.344c0-0.273,0.06-0.558,0.181-0.853c0.121-0.295,0.312-0.568,0.577-0.819
		l7.566-7.211c0.632-0.612,1.198-1.197,1.698-1.754c0.5-0.557,0.919-1.109,1.258-1.655c0.338-0.546,0.597-1.101,0.775-1.664
		c0.178-0.562,0.267-1.156,0.267-1.778c0-0.568-0.086-1.068-0.258-1.5s-0.42-0.795-0.741-1.09c-0.322-0.295-0.704-0.516-1.146-0.664
		c-0.443-0.147-0.939-0.221-1.491-0.221c-1.022,0-1.864,0.246-2.525,0.737s-1.123,1.153-1.387,1.983
		c-0.126,0.416-0.316,0.713-0.569,0.893s-0.575,0.271-0.965,0.271c-0.172,0-0.362-0.016-0.569-0.049l-2.241-0.377
		c0.172-1.136,0.506-2.133,1-2.991c0.494-0.858,1.111-1.574,1.853-2.147c0.741-0.573,1.591-1.005,2.551-1.294
		C621.215,178.46,622.247,178.315,623.35,178.315z"/>
	<path fill="#FFFFFF" d="M645.53,184.314c0,0.896-0.158,1.705-0.474,2.426c-0.316,0.721-0.739,1.336-1.267,1.844
		c-0.528,0.508-1.143,0.899-1.844,1.172c-0.701,0.273-1.431,0.41-2.189,0.41c-0.827,0-1.592-0.137-2.292-0.41
		c-0.701-0.273-1.307-0.664-1.818-1.172c-0.512-0.508-0.911-1.123-1.198-1.844c-0.288-0.721-0.431-1.53-0.431-2.426
		c0-0.917,0.144-1.748,0.431-2.491c0.287-0.743,0.686-1.371,1.198-1.885c0.511-0.513,1.117-0.91,1.818-1.188
		c0.701-0.279,1.465-0.418,2.292-0.418s1.594,0.139,2.301,0.418c0.707,0.278,1.318,0.675,1.835,1.188
		c0.517,0.514,0.919,1.142,1.207,1.885C645.387,182.566,645.53,183.396,645.53,184.314z M653.82,179.217
		c0.138-0.164,0.31-0.312,0.517-0.442c0.207-0.131,0.494-0.197,0.862-0.197h3.085l-18.51,23.093
		c-0.138,0.175-0.313,0.32-0.525,0.435c-0.213,0.115-0.468,0.172-0.767,0.172h-3.171L653.82,179.217z M642.239,184.314
		c0-0.633-0.063-1.164-0.19-1.59c-0.126-0.426-0.301-0.77-0.525-1.032s-0.489-0.451-0.793-0.565
		c-0.305-0.115-0.629-0.172-0.974-0.172s-0.667,0.058-0.965,0.172s-0.557,0.303-0.775,0.565s-0.388,0.606-0.508,1.032
		c-0.121,0.426-0.181,0.957-0.181,1.59c0,0.612,0.061,1.123,0.181,1.533s0.29,0.74,0.508,0.992s0.477,0.432,0.775,0.541
		c0.299,0.109,0.621,0.164,0.965,0.164s0.669-0.055,0.974-0.164c0.304-0.109,0.569-0.289,0.793-0.541s0.399-0.582,0.525-0.992
		S642.239,184.926,642.239,184.314z M659.594,196.705c0,0.896-0.158,1.705-0.474,2.426c-0.316,0.721-0.739,1.336-1.267,1.844
		c-0.528,0.508-1.143,0.902-1.844,1.18c-0.701,0.279-1.431,0.418-2.189,0.418c-0.827,0-1.592-0.139-2.292-0.418
		c-0.701-0.278-1.307-0.672-1.818-1.18c-0.512-0.508-0.911-1.123-1.198-1.844c-0.288-0.721-0.431-1.529-0.431-2.426
		c0-0.917,0.144-1.748,0.431-2.491c0.287-0.743,0.686-1.371,1.198-1.885c0.511-0.513,1.117-0.91,1.818-1.188
		c0.701-0.279,1.465-0.418,2.292-0.418s1.594,0.139,2.301,0.418c0.707,0.278,1.318,0.675,1.835,1.188
		c0.517,0.514,0.919,1.142,1.207,1.885C659.45,194.957,659.594,195.787,659.594,196.705z M656.319,196.705
		c0-0.633-0.066-1.164-0.198-1.589c-0.132-0.426-0.31-0.771-0.534-1.033s-0.489-0.451-0.793-0.565
		c-0.305-0.115-0.629-0.172-0.974-0.172s-0.667,0.058-0.965,0.172s-0.554,0.303-0.767,0.565c-0.213,0.262-0.382,0.606-0.509,1.033
		c-0.126,0.426-0.189,0.956-0.189,1.589c0,0.612,0.063,1.126,0.189,1.541s0.296,0.749,0.509,1c0.212,0.251,0.468,0.432,0.767,0.541
		c0.299,0.109,0.621,0.164,0.965,0.164s0.669-0.055,0.974-0.164c0.304-0.109,0.569-0.29,0.793-0.541
		c0.224-0.251,0.402-0.584,0.534-1C656.253,197.831,656.319,197.317,656.319,196.705z"/>
	<path fill="#FFFFFF" d="M612.325,210.507h1.95c0.201,0,0.369,0.047,0.504,0.143c0.135,0.095,0.226,0.223,0.272,0.384l2.122,7.461
		c0.052,0.185,0.1,0.384,0.143,0.6c0.043,0.216,0.085,0.444,0.125,0.686c0.046-0.242,0.096-0.47,0.151-0.686
		c0.055-0.215,0.114-0.415,0.177-0.6l2.45-7.461c0.046-0.132,0.136-0.253,0.271-0.362s0.3-0.164,0.496-0.164h0.682
		c0.201,0,0.368,0.047,0.5,0.143c0.132,0.095,0.225,0.223,0.276,0.384l2.432,7.461c0.126,0.368,0.236,0.776,0.328,1.225
		c0.04-0.224,0.082-0.44,0.125-0.647s0.087-0.399,0.134-0.578l2.122-7.461c0.04-0.144,0.129-0.268,0.267-0.371
		c0.138-0.104,0.305-0.155,0.5-0.155h1.82l-3.874,12.474h-2.096l-2.726-8.522c-0.035-0.109-0.07-0.228-0.108-0.354
		s-0.073-0.262-0.108-0.405c-0.034,0.144-0.07,0.279-0.108,0.405c-0.037,0.126-0.073,0.245-0.107,0.354l-2.752,8.522h-2.096
		L612.325,210.507z"/>
	<path fill="#FFFFFF" d="M637.496,222.98h-0.958c-0.202,0-0.36-0.03-0.475-0.09c-0.115-0.061-0.201-0.183-0.259-0.367l-0.19-0.63
		c-0.224,0.201-0.444,0.378-0.66,0.531s-0.438,0.28-0.668,0.384s-0.475,0.181-0.733,0.233s-0.546,0.078-0.862,0.078
		c-0.374,0-0.719-0.051-1.035-0.151c-0.316-0.101-0.588-0.252-0.815-0.455c-0.227-0.202-0.404-0.453-0.53-0.753
		c-0.127-0.3-0.19-0.649-0.19-1.047c0-0.334,0.087-0.665,0.263-0.991c0.175-0.326,0.467-0.62,0.875-0.882
		c0.408-0.263,0.952-0.48,1.63-0.654c0.678-0.173,1.521-0.26,2.527-0.26v-0.521c0-0.597-0.125-1.039-0.375-1.325
		c-0.25-0.287-0.614-0.43-1.091-0.43c-0.345,0-0.633,0.04-0.863,0.121s-0.43,0.171-0.6,0.271c-0.169,0.101-0.326,0.191-0.47,0.272
		c-0.144,0.081-0.302,0.121-0.475,0.121c-0.144,0-0.268-0.037-0.371-0.112c-0.104-0.074-0.187-0.167-0.25-0.276l-0.388-0.681
		c1.018-0.932,2.246-1.397,3.683-1.397c0.518,0,0.979,0.084,1.385,0.254c0.405,0.169,0.749,0.405,1.031,0.707
		c0.282,0.302,0.496,0.663,0.643,1.083c0.146,0.419,0.22,0.879,0.22,1.38V222.98z M633.355,221.652c0.218,0,0.419-0.02,0.604-0.059
		c0.184-0.04,0.358-0.099,0.522-0.179c0.164-0.079,0.322-0.177,0.475-0.292c0.152-0.116,0.306-0.253,0.461-0.412v-1.481
		c-0.621,0-1.14,0.039-1.557,0.117s-0.752,0.178-1.005,0.3s-0.433,0.264-0.539,0.426s-0.16,0.339-0.16,0.53
		c0,0.377,0.111,0.646,0.332,0.808C632.709,221.571,632.998,221.652,633.355,221.652z"/>
	<path fill="#FFFFFF" d="M642.499,223.119c-0.765,0-1.354-0.217-1.768-0.651s-0.621-1.034-0.621-1.799v-4.942h-0.897
		c-0.115,0-0.214-0.038-0.298-0.112s-0.125-0.187-0.125-0.336v-0.845l1.423-0.233l0.449-2.416c0.022-0.115,0.076-0.204,0.159-0.268
		c0.083-0.063,0.188-0.095,0.315-0.095h1.104v2.786h2.329v1.519h-2.329v4.796c0,0.276,0.069,0.492,0.207,0.647
		c0.138,0.155,0.322,0.233,0.552,0.233c0.132,0,0.243-0.016,0.332-0.047c0.089-0.032,0.167-0.065,0.233-0.099
		c0.066-0.035,0.125-0.068,0.177-0.099c0.052-0.032,0.104-0.048,0.155-0.048c0.063,0,0.115,0.016,0.155,0.048
		c0.041,0.031,0.083,0.079,0.129,0.142l0.639,1.035c-0.311,0.259-0.667,0.455-1.07,0.586
		C643.347,223.052,642.93,223.119,642.499,223.119z"/>
	<path fill="#FFFFFF" d="M649.925,213.992c0.558,0,1.071,0.089,1.54,0.267s0.873,0.438,1.212,0.781s0.604,0.762,0.793,1.259
		c0.19,0.498,0.285,1.065,0.285,1.704c0,0.161-0.007,0.295-0.021,0.401s-0.04,0.19-0.078,0.25c-0.038,0.061-0.088,0.104-0.151,0.129
		c-0.063,0.026-0.144,0.039-0.242,0.039h-5.469c0.063,0.909,0.308,1.576,0.733,2.001c0.425,0.426,0.989,0.639,1.69,0.639
		c0.345,0,0.643-0.041,0.893-0.121c0.25-0.08,0.468-0.169,0.655-0.267s0.351-0.187,0.492-0.268s0.277-0.121,0.41-0.121
		c0.086,0,0.161,0.017,0.225,0.052c0.063,0.034,0.118,0.083,0.164,0.146l0.621,0.776c-0.236,0.276-0.5,0.508-0.793,0.694
		c-0.293,0.187-0.6,0.336-0.918,0.449c-0.319,0.112-0.645,0.191-0.975,0.237c-0.331,0.046-0.651,0.069-0.962,0.069
		c-0.615,0-1.188-0.102-1.716-0.306c-0.529-0.204-0.989-0.506-1.38-0.906s-0.699-0.894-0.923-1.484
		c-0.224-0.589-0.336-1.272-0.336-2.049c0-0.604,0.098-1.171,0.293-1.704c0.195-0.532,0.476-0.995,0.841-1.389
		s0.811-0.706,1.337-0.936C648.67,214.107,649.264,213.992,649.925,213.992z M649.969,215.519c-0.621,0-1.107,0.175-1.458,0.526
		c-0.351,0.351-0.575,0.849-0.673,1.492h4.002c0-0.276-0.037-0.536-0.112-0.78c-0.075-0.245-0.19-0.458-0.345-0.643
		s-0.351-0.33-0.586-0.436C650.561,215.572,650.285,215.519,649.969,215.519z"/>
	<path fill="#FFFFFF" d="M655.489,222.98v-8.851h1.251c0.218,0,0.371,0.041,0.457,0.121s0.144,0.218,0.172,0.414l0.129,1.069
		c0.316-0.546,0.687-0.978,1.113-1.294c0.426-0.316,0.903-0.474,1.432-0.474c0.437,0,0.799,0.101,1.087,0.302l-0.276,1.596
		c-0.017,0.104-0.055,0.177-0.112,0.22c-0.058,0.043-0.135,0.064-0.233,0.064c-0.086,0-0.204-0.02-0.354-0.06
		c-0.149-0.041-0.348-0.061-0.595-0.061c-0.443,0-0.822,0.122-1.139,0.367c-0.316,0.244-0.583,0.603-0.802,1.074v5.512H655.489z"/>
</g>
<g>
	<g>
		<path fill-rule="evenodd" clip-rule="evenodd" fill="#ED1C24" d="M583.359,53.376c0.918,0,1.707,0,2.496,0
			c6.944,0,13.885-0.005,20.83,0c7.312,0,14.623-0.067,21.936,0.022c6.469,0.073,10.962,4.606,11.146,11.042
			c0.021,0.713,0.073,1.433,0.121,2.25c4.473,0,8.786,0,13.052,0c0.114-0.252,0.217-0.379,0.227-0.512
			c1.29-12.624-8.69-24.941-21.337-26.013c-4.914-0.417-9.888-0.195-14.834-0.252c-0.859-0.012-1.712-0.005-2.806-0.005
			c0-2.174,0.231-4.047-0.074-5.825c-0.231-1.338-0.858-3.3-1.83-3.684c-2.69-1.066-2.21-2.808-1.807-5.005
			c3.362,0,6.675,0.073,9.987-0.029c1.893-0.058,3.105-1.419,3.005-3.138c-0.103-1.849-1.197-2.77-2.992-2.931
			c-0.146-0.012-0.294-0.017-0.441-0.017c-8.422,0-16.843-0.017-25.266,0.019c-2.017,0.009-3.364,1.327-3.359,3.053
			c0.005,1.722,1.345,2.951,3.387,3.072c0.737,0.049,1.477,0.012,2.213,0.012c2.49,0,4.984,0,7.608,0c0,1.494,0,2.712,0,4.024
			c-3.157,0.68-4.125,2.807-3.863,5.772c0.085,0.953-0.047,1.925,0.027,2.877c0.105,1.33-0.387,1.85-1.757,1.812
			c-2.808-0.078-5.617-0.013-8.419-0.013c-2.404,0.005-4.812,0-7.25,0C583.359,44.553,583.359,48.811,583.359,53.376z
			 M670.06,68.063c-0.019,0.263-0.069,0.617-0.063,0.969c0.127,5.751,0.564,11.514,0.317,17.249
			c-0.415,9.59-1.383,19.146-4.446,28.35c-0.359,1.079-0.796,1.529-1.991,1.529c-11.435-0.009-22.867,0.037-34.303,0.103
			c-1.561,0.011-2.457-0.577-2.784-2.154c-0.72-3.459-1.655-6.878-2.258-10.358c-1.933-11.176-2.739-22.422-1.683-33.756
			c0.07-0.696,0.012-1.4,0.012-2.188c-0.733-0.038-1.24-0.073-1.749-0.084c-3.268-0.049-3.375-0.049-3.504,3.131
			c-0.18,4.571-0.363,9.156-0.228,13.722c0.381,12.46,2.247,24.694,6.187,36.551c0.931,2.808,2.162,3.603,5.096,3.603
			c11.819,0.006,23.644,0.006,35.465,0c3.232,0,4.501-0.728,5.343-3.856c1.544-5.758,3.098-11.53,4.179-17.388
			c1.916-10.421,2.533-20.969,1.844-31.557c-0.301-4.576-0.581-4.708-5.146-4.08C670.281,67.858,670.226,67.939,670.06,68.063z
			 M659.28,77.687c-0.186-1.329-0.312-3.021-0.687-4.66c-0.355-1.541-1.462-2.417-3.095-2.145c-1.598,0.266-2.444,1.354-2.332,2.975
			c0.125,1.679,0.353,3.356,0.661,5.016c0.323,1.694,1.49,2.576,3.179,2.345C658.741,80.979,659.428,79.739,659.28,77.687z
			 M633.112,109.699c0.771-0.903,1.864-1.694,2.226-2.742c0.517-1.497,0.564-3.169,0.681-4.772c0.123-1.686-0.623-2.906-2.38-3.147
			c-1.729-0.243-2.825,0.642-3.158,2.342c-0.316,1.578-0.596,3.175-0.764,4.773C629.531,107.858,630.967,109.331,633.112,109.699z
			 M639.819,74.037c0.092-1.76-0.731-3.011-2.546-3.168c-1.688-0.153-2.756,0.834-3.006,2.556c-0.237,1.597-0.513,3.196-0.634,4.807
			c-0.115,1.61,0.723,2.729,2.32,2.986c1.73,0.278,2.848-0.672,3.196-2.317C639.488,77.325,639.604,75.707,639.819,74.037z
			 M656.767,102.447c0.312,1.425,0.637,3.151,1.079,4.854c0.417,1.6,1.504,2.287,3.161,1.954c1.771-0.359,2.45-1.531,2.244-3.227
			c-0.188-1.526-0.495-3.037-0.765-4.549c-0.307-1.716-1.315-2.642-3.08-2.436C657.653,99.246,657.028,100.526,656.767,102.447z
			 M637.954,87.783c-0.081-1.282-0.602-2.539-2.289-2.793c-1.72-0.262-2.898,0.515-3.217,2.261
			c-0.311,1.663-0.561,3.348-0.697,5.039c-0.131,1.635,0.709,2.723,2.345,2.95c1.746,0.235,2.84-0.661,3.157-2.368
			C637.536,91.278,637.7,89.656,637.954,87.783z M649.216,77.725c0.008,0,0.013,0,0.013,0c0.002-0.885,0.068-1.776-0.005-2.652
			c-0.148-1.643-1.097-2.571-2.743-2.585c-1.551-0.014-2.592,0.885-2.719,2.374c-0.161,1.897-0.155,3.838,0.033,5.737
			c0.149,1.514,1.237,2.298,2.797,2.238c1.566-0.06,2.46-0.92,2.61-2.46C649.285,79.503,649.216,78.611,649.216,77.725z
			 M661.279,92.216c-0.233-1.618-0.417-3.31-0.723-4.978c-0.306-1.629-1.424-2.441-3.024-2.279
			c-1.633,0.171-2.528,1.256-2.426,2.891c0.107,1.763,0.312,3.532,0.679,5.262c0.331,1.578,1.472,2.368,3.115,2.136
			C660.573,95.009,661.247,93.883,661.279,92.216z M649.202,91.84h-0.017c0-0.888,0.043-1.775-0.011-2.655
			c-0.1-1.583-1.043-2.431-2.558-2.521c-1.544-0.092-2.673,0.764-2.822,2.247c-0.194,1.97-0.186,3.992,0.022,5.963
			c0.161,1.499,1.398,2.522,2.827,2.124c0.989-0.271,1.962-1.354,2.477-2.324C649.521,93.93,649.202,92.804,649.202,91.84z
			 M649.387,104.878c-0.029,0-0.059,0-0.084,0c-0.029-0.585,0.158-1.356-0.148-1.725c-0.733-0.879-1.587-2.006-2.581-2.241
			c-1.427-0.335-2.634,0.706-2.787,2.211c-0.186,1.897-0.18,3.844-0.011,5.747c0.15,1.662,1.343,2.365,2.985,2.273
			c1.587-0.084,2.42-0.853,2.414-2.52C649.175,107.374,649.313,106.126,649.387,104.878z"/>
	</g>
</g>
</svg>
