<?xml version="1.0" encoding="utf-8"?>
<!-- Generator: Adobe Illustrator 16.0.0, SVG Export Plug-In . SVG Version: 6.00 Build 0)  -->
<!DOCTYPE svg PUBLIC "-//W3C//DTD SVG 1.1//EN" "http://www.w3.org/Graphics/SVG/1.1/DTD/svg11.dtd">
<svg version="1.1" id="Layer_1" xmlns="http://www.w3.org/2000/svg" xmlns:xlink="http://www.w3.org/1999/xlink" x="0px" y="0px"
	 width="234.939px" height="254.188px" viewBox="0 0 234.939 254.188" enable-background="new 0 0 234.939 254.188"
	 xml:space="preserve">
<g>
	<g>
		<path fill="#0E5461" d="M70.768,215.956c0,0.723-0.241,1.309-0.721,1.76c-0.481,0.449-1.28,0.676-2.399,0.676h-8.565l-1.119,6.18
			c1.406-0.271,2.69-0.408,3.852-0.408c1.636,0,3.074,0.232,4.315,0.695c1.241,0.465,2.284,1.105,3.131,1.924
			c0.846,0.818,1.485,1.777,1.915,2.875c0.431,1.1,0.646,2.283,0.646,3.551c0,1.57-0.291,3.002-0.872,4.299
			c-0.581,1.297-1.388,2.404-2.421,3.326c-1.033,0.92-2.256,1.633-3.669,2.139c-1.413,0.504-2.952,0.756-4.616,0.756
			c-0.976,0-1.901-0.096-2.776-0.285c-0.875-0.191-1.697-0.447-2.464-0.768s-1.478-0.689-2.13-1.105
			c-0.653-0.416-1.237-0.855-1.754-1.32l1.636-2.148c0.344-0.465,0.803-0.697,1.377-0.697c0.358,0,0.721,0.109,1.087,0.328
			s0.792,0.457,1.281,0.717c0.487,0.26,1.054,0.498,1.7,0.717c0.646,0.217,1.427,0.326,2.346,0.326c0.976,0,1.836-0.148,2.583-0.449
			c0.746-0.301,1.367-0.721,1.862-1.26c0.495-0.539,0.868-1.18,1.119-1.924c0.251-0.742,0.377-1.551,0.377-2.424
			c0-1.611-0.492-2.869-1.474-3.777c-0.983-0.906-2.429-1.361-4.337-1.361c-1.506,0-3.02,0.26-4.541,0.779l-3.314-0.9l2.583-14.369
			h15.366V215.956z"/>
		<path fill="#0E5461" d="M88.867,224.919c1.176,0,2.32,0.186,3.433,0.553c1.112,0.369,2.091,0.926,2.938,1.668
			c0.847,0.744,1.528,1.668,2.044,2.773s0.775,2.395,0.775,3.869c0,1.377-0.266,2.67-0.796,3.877
			c-0.531,1.209-1.277,2.262-2.238,3.162s-2.12,1.611-3.476,2.129c-1.356,0.52-2.852,0.777-4.487,0.777
			c-1.665,0-3.156-0.252-4.476-0.756c-1.32-0.506-2.447-1.211-3.379-2.119c-0.933-0.906-1.646-1.998-2.142-3.273
			c-0.495-1.277-0.742-2.691-0.742-4.248c0-1.391,0.297-2.82,0.893-4.287c0.595-1.467,1.517-2.992,2.765-4.574l7.425-9.477
			c0.258-0.326,0.635-0.605,1.13-0.838c0.495-0.232,1.065-0.35,1.711-0.35h4.734l-9.232,10.746c-0.201,0.232-0.391,0.449-0.57,0.654
			c-0.18,0.205-0.355,0.416-0.527,0.635c0.603-0.287,1.251-0.512,1.948-0.676C87.292,225.001,88.049,224.919,88.867,224.919z
			 M81.421,234.108c0,0.82,0.118,1.566,0.355,2.242s0.588,1.252,1.054,1.729c0.466,0.479,1.044,0.85,1.733,1.115
			c0.688,0.268,1.485,0.4,2.389,0.4c0.846,0,1.625-0.137,2.335-0.41c0.71-0.273,1.32-0.654,1.83-1.146
			c0.509-0.49,0.907-1.066,1.194-1.729c0.287-0.662,0.43-1.381,0.43-2.16c0-0.846-0.136-1.605-0.409-2.281
			c-0.273-0.676-0.66-1.248-1.162-1.719c-0.502-0.471-1.105-0.83-1.808-1.074c-0.703-0.246-1.478-0.369-2.324-0.369
			s-1.614,0.137-2.303,0.41c-0.688,0.271-1.28,0.65-1.775,1.135s-0.875,1.059-1.141,1.719
			C81.553,232.632,81.421,233.345,81.421,234.108z"/>
		<path fill="#0E5461" d="M110.818,231.593c-1.076,0-2.13-0.178-3.164-0.533s-1.955-0.891-2.766-1.607
			c-0.811-0.715-1.46-1.602-1.948-2.66c-0.488-1.057-0.731-2.295-0.731-3.715c0-1.322,0.258-2.564,0.775-3.725
			c0.516-1.158,1.241-2.176,2.173-3.049s2.052-1.562,3.357-2.066c1.305-0.506,2.748-0.758,4.326-0.758
			c1.593,0,3.024,0.238,4.293,0.717c1.27,0.477,2.353,1.145,3.25,2.006c0.896,0.859,1.585,1.889,2.066,3.09
			c0.48,1.201,0.721,2.518,0.721,3.949c0,0.914-0.083,1.781-0.248,2.6c-0.165,0.818-0.402,1.607-0.71,2.363
			c-0.309,0.758-0.678,1.494-1.108,2.211c-0.43,0.717-0.911,1.436-1.442,2.158l-7.124,9.66c-0.244,0.328-0.606,0.605-1.087,0.83
			s-1.029,0.338-1.646,0.338h-4.886l9.663-11.482c0.244-0.287,0.474-0.566,0.689-0.838c0.215-0.273,0.423-0.547,0.624-0.82
			c-0.718,0.438-1.506,0.768-2.367,0.994C112.669,231.479,111.765,231.593,110.818,231.593z M118.071,222.729
			c0-0.805-0.129-1.523-0.388-2.158s-0.624-1.17-1.098-1.607c-0.473-0.436-1.037-0.77-1.689-1.002s-1.366-0.348-2.141-0.348
			c-0.804,0-1.528,0.125-2.174,0.377c-0.646,0.254-1.194,0.605-1.646,1.055c-0.452,0.451-0.8,0.986-1.043,1.607
			c-0.244,0.621-0.366,1.299-0.366,2.035c0,1.652,0.448,2.91,1.345,3.777c0.896,0.865,2.17,1.299,3.82,1.299
			c0.861,0,1.625-0.129,2.292-0.389c0.667-0.26,1.23-0.613,1.689-1.064c0.459-0.451,0.807-0.982,1.043-1.596
			C117.953,224.101,118.071,223.44,118.071,222.729z"/>
		<path fill="#FFFFFF" d="M134.062,241.116c0.84,0.518,2.068,0.949,3.361,0.949c1.918,0,3.038-1.014,3.038-2.479
			c0-1.357-0.775-2.133-2.736-2.887c-2.37-0.84-3.835-2.068-3.835-4.115c0-2.262,1.875-3.943,4.697-3.943
			c1.487,0,2.564,0.346,3.21,0.711l-0.517,1.531c-0.474-0.26-1.444-0.689-2.758-0.689c-1.982,0-2.736,1.184-2.736,2.176
			c0,1.357,0.883,2.025,2.887,2.801c2.456,0.947,3.706,2.133,3.706,4.266c0,2.24-1.659,4.18-5.084,4.18
			c-1.4,0-2.93-0.41-3.706-0.926L134.062,241.116z"/>
		<path fill="#FFFFFF" d="M152.438,243.013c-0.496,0.26-1.594,0.604-2.995,0.604c-3.146,0-5.192-2.133-5.192-5.322
			c0-3.209,2.197-5.537,5.602-5.537c1.121,0,2.111,0.281,2.629,0.539l-0.431,1.465c-0.453-0.258-1.164-0.494-2.198-0.494
			c-2.392,0-3.684,1.766-3.684,3.941c0,2.414,1.551,3.9,3.62,3.9c1.077,0,1.788-0.281,2.327-0.518L152.438,243.013z"/>
		<path fill="#FFFFFF" d="M154.657,228.104h1.896v6.506h0.043c0.302-0.539,0.776-1.012,1.357-1.336
			c0.56-0.322,1.228-0.539,1.939-0.539c1.401,0,3.642,0.863,3.642,4.461v6.205h-1.896v-5.99c0-1.68-0.625-3.102-2.413-3.102
			c-1.228,0-2.198,0.861-2.542,1.895c-0.108,0.26-0.129,0.539-0.129,0.906v6.291h-1.896V228.104z"/>
		<path fill="#FFFFFF" d="M176.05,238.101c0,3.857-2.672,5.537-5.192,5.537c-2.823,0-4.999-2.068-4.999-5.365
			c0-3.49,2.284-5.537,5.171-5.537C174.025,232.735,176.05,234.911,176.05,238.101z M167.777,238.208
			c0,2.285,1.314,4.008,3.167,4.008c1.81,0,3.167-1.701,3.167-4.051c0-1.766-0.883-4.008-3.125-4.008
			C168.747,234.157,167.777,236.226,167.777,238.208z"/>
		<path fill="#FFFFFF" d="M187.877,238.101c0,3.857-2.672,5.537-5.192,5.537c-2.823,0-4.999-2.068-4.999-5.365
			c0-3.49,2.284-5.537,5.171-5.537C185.852,232.735,187.877,234.911,187.877,238.101z M179.604,238.208
			c0,2.285,1.314,4.008,3.167,4.008c1.81,0,3.167-1.701,3.167-4.051c0-1.766-0.883-4.008-3.125-4.008
			C180.574,234.157,179.604,236.226,179.604,238.208z"/>
		<path fill="#FFFFFF" d="M190.268,228.104h1.896v15.297h-1.896V228.104z"/>
		<path fill="#FFFFFF" d="M195.093,241.462c0.56,0.365,1.551,0.754,2.499,0.754c1.379,0,2.025-0.689,2.025-1.551
			c0-0.906-0.539-1.4-1.939-1.918c-1.875-0.668-2.758-1.701-2.758-2.951c0-1.682,1.357-3.061,3.598-3.061
			c1.056,0,1.982,0.303,2.563,0.646l-0.474,1.379c-0.41-0.258-1.164-0.604-2.133-0.604c-1.12,0-1.745,0.646-1.745,1.422
			c0,0.863,0.625,1.25,1.982,1.768c1.81,0.689,2.736,1.594,2.736,3.146c0,1.83-1.422,3.123-3.899,3.123
			c-1.142,0-2.198-0.279-2.93-0.711L195.093,241.462z"/>
	</g>
	<g>
		<path fill-rule="evenodd" clip-rule="evenodd" fill="#969696" d="M117.044,22.293c-17.007,14.134-33.818,28.101-50.618,42.074
			c-14.148,11.769-28.296,23.545-42.42,35.35c-3.353,2.812-7.261,4.117-10.482,0.885c-1.954-1.962-2.742-5.523-3.073-8.479
			c-0.156-1.422,1.667-3.437,3.067-4.614C46.097,60.239,78.74,33.048,111.367,5.836c3.923-3.271,7.805-3.236,11.721,0.022
			c32.473,27.062,64.975,54.091,97.407,81.201c4.521,3.781,5.271,8.988,1.952,12.457c-4.161,4.355-8.399,3.332-12.615-0.188
			c-28.953-24.165-57.933-48.296-86.913-72.428C121.12,25.401,119.233,24.005,117.044,22.293z"/>
		<path fill-rule="evenodd" clip-rule="evenodd" fill="#969696" d="M193.449,179.313c-3.707,0-6.47,0-10.146,0
			c0-2.521,0-4.82,0-7.119c0-21.482,0.138-42.969-0.167-64.443c-0.038-2.801-1.591-6.438-3.691-8.224
			c-20.463-17.396-41.195-34.48-62.232-51.973c-15.354,12.803-30.635,25.537-45.914,38.276c-3.487,2.907-6.686,6.291-10.518,8.626
			c-7.604,4.621-9.314,11.026-9.035,19.585c0.64,19.507,0.21,39.053,0.21,58.58c0,2.109,0,4.227,0,6.623c-3.604,0-6.56,0-10.401,0
			c0-2.232,0-4.318,0-6.408c0-23.65-0.129-47.299,0.168-70.948c0.034-2.797,1.675-6.424,3.792-8.214
			c21.85-18.453,44.024-36.526,65.924-54.926c4.386-3.682,7.56-3.435,11.829,0.16c22.08,18.55,44.377,36.822,66.487,55.321
			c1.666,1.396,3.52,3.794,3.539,5.742C193.528,126.187,193.449,152.407,193.449,179.313z"/>
		<g>
			<path fill-rule="evenodd" clip-rule="evenodd" fill="#ED1C24" d="M143.043,102.917c-0.597,0.457-3.889,2.993-5.269,4.215
				c-2.376,2.106-4.847,3.836-8.294,3.174c-0.514-0.099-1.104,0.185-1.735,0.307c0-1.205,0-2.367,0-3.136
				c3.029,3.706,5.847,1.651,6.542,1.1c1.553-1.235,1.413-4.155,0.099-5.44c-1.828-1.786-4.694-1.368-6.614,1.494
				c0-4.145,0-8.149,0-12.27c12.629,0,25.14,0,37.815,0c0,9.339,0,18.663,0,28.101c-10.058,0-20.055,0-30.324,0
				c0-2.002-0.08-3.852,0.052-5.686c0.034-0.531,0.56-1.14,1.02-1.511c2.333-1.865,6.767-5.107,9.138-6.923 M145.3,103.26
				c0.206-0.196,0.411-0.39,0.617-0.584"/>
			<path fill-rule="evenodd" clip-rule="evenodd" fill="#ED1C24" d="M138.976,138.66c-2.409,1.501-2.535,1.455-3.374-0.86
				c-1.113-3.084-2.251-6.161-3.385-9.238c-0.138-0.367-0.309-4.127-0.628-4.777c-0.32,0.666-0.575,4.462-0.724,4.871
				c-1.149,3.134-2.283,6.273-3.429,9.411c-0.342,0.929-0.438,1.96-2.028,1.414c-1.553-0.539-1.107-1.354-0.74-2.335
				c0.626-1.675,1.063-3.442,1.867-5.023c2.07-4.068,2.291-15.313,2.111-16.073c-1.214,1.97-2.54,4.311-3.626,6.057
				c-1.505,2.432-3.429,1.482-1.543-1.613c1.435-2.681,3.068-5.674,4.46-8.38c0.466-0.915,1.048-1.416,2.089-1.232
				c2.761,0.486,4.819-0.72,6.928-2.413c1.245-0.995,2.531-1.988,3.804-2.973c1.909-1.473,3.896-0.167,2.457,1.623
				c-0.327,0.409-5.062,4.046-7.521,5.992c-0.55,0.439-0.981,1.356-0.996,2.066c-0.08,3.569-0.062,7.036-0.012,10.553
				c0.012,0.754,0.197,1.534,0.449,2.249C136.396,131.562,137.701,135.127,138.976,138.66z"/>
			<path fill-rule="evenodd" clip-rule="evenodd" fill="#ED1C24" d="M134.729,105.836c-0.016,1.781-1.404,3.124-3.197,3.087
				c-1.724-0.038-3.018-1.344-3.052-3.061c-0.034-1.764,1.358-3.198,3.105-3.204C133.321,102.65,134.736,104.083,134.729,105.836z"
				/>
			<g>
				<path fill-rule="evenodd" clip-rule="evenodd" fill="#ED1C24" d="M110.526,130.12c0.099-0.103,0.295-0.267,0.271-0.307
					c-0.381-0.681-0.999-1.029-1.707-0.694c-0.556,0.263-1.229,0.7-1.423,1.218c-0.63,1.671-1.199,3.389-1.526,5.138
					c-0.289,1.541,0.678,2.424,2.272,2.436c0.993,0.01,1.986,0.022,2.979,0.042c0.054,0,0.103,0.057,0.205,0.114
					c-0.145,1.762-0.287,3.543-0.434,5.335c0.764,0.301,1.039,0.072,1.073-0.702c0.048-1.256,0.187-2.51,0.483-3.762
					c0.217,1.171,0.426,2.337,0.636,3.507c0.127,0.72,0.418,1.296,1.267,1.125c0.81-0.164,0.846-0.784,0.716-1.462
					c-0.305-1.617-0.604-3.232-0.883-4.852c-0.137-0.794-0.385-1.442-1.385-1.576c0.304-0.075,0.601-0.217,0.909-0.221
					c1.583-0.019,3.174,0.012,4.755-0.011c0.883-0.016,1.292,0.346,1.356,1.25c0.172,2.229,0.401,4.448,0.62,6.77
					c0.274,0.018,0.556,0.036,0.959,0.06c-0.183-2.223-0.35-4.346-0.526-6.474c-0.058-0.666-0.356-1.324,0.211-1.964
					c0.164-0.186,0.028-0.646,0.028-1.034c-3.328,0-6.574,0-10.009,0c0.12,0.616,0.23,1.14,0.356,1.744c-0.548,0-1.218,0-2.158,0
					c0.396-1.307,0.772-2.561,1.146-3.814c-0.468-0.214-1.005-0.351-1.389-0.672c-0.221-0.192-0.289-0.692-0.236-1.019
					c0.03-0.153,0.518-0.266,0.814-0.312C110.099,129.953,110.32,130.07,110.526,130.12z"/>
				<path fill-rule="evenodd" clip-rule="evenodd" fill="#ED1C24" d="M109.574,138.496c-1.689,0-3.288,0-4.972,0
					c-0.274,1.603-0.55,3.174-0.829,4.825c2.228,0,4.37,0,6.619,0C110.122,141.729,109.858,140.159,109.574,138.496z"/>
				<path fill-rule="evenodd" clip-rule="evenodd" fill="#ED1C24" d="M109.778,127.172c0.008,1.128,0.873,2.01,1.992,2.019
					c1.111,0.006,2.002-0.873,2.013-1.996c0.02-1.15-0.917-2.099-2.039-2.075C110.643,125.144,109.772,126.051,109.778,127.172z"/>
				<path fill-rule="evenodd" clip-rule="evenodd" fill="#ED1C24" d="M110.526,130.12c-0.206-0.05-0.427-0.167-0.617-0.137
					c-0.297,0.046-0.784,0.158-0.814,0.312c-0.053,0.326,0.016,0.826,0.236,1.019c0.384,0.321,0.921,0.458,1.389,0.672
					c1.428,0.247,2.847,0.514,4.275,0.736c0.539,0.083,1.067-0.082,1.073-0.718c0.01-0.64-0.504-0.732-1.052-0.75
					C113.442,131.201,111.876,131.083,110.526,130.12z"/>
				<path fill-rule="evenodd" clip-rule="evenodd" fill="#ED1C24" d="M89.395,134.89c0.103-0.116,0.317-0.295,0.295-0.337
					c-0.417-0.75-1.1-1.132-1.872-0.765c-0.616,0.289-1.352,0.769-1.566,1.339c-0.69,1.835-1.316,3.721-1.676,5.641
					c-0.314,1.693,0.745,2.663,2.494,2.677c1.093,0.01,2.185,0.024,3.271,0.044c0.062,0.002,0.118,0.064,0.229,0.127
					c-0.155,1.934-0.315,3.892-0.476,5.861c0.837,0.329,1.142,0.078,1.174-0.774c0.056-1.378,0.208-2.754,0.539-4.13
					c0.231,1.283,0.472,2.565,0.692,3.852c0.141,0.79,0.461,1.424,1.396,1.233c0.887-0.179,0.925-0.862,0.784-1.604
					c-0.331-1.775-0.664-3.551-0.967-5.329c-0.152-0.872-0.426-1.582-1.527-1.729c0.332-0.083,0.667-0.239,0.995-0.243
					c1.746-0.022,3.489,0.014,5.229-0.016c0.971-0.015,1.417,0.385,1.491,1.376c0.185,2.445,0.438,4.887,0.678,7.435
					c0.305,0.019,0.616,0.038,1.058,0.064c-0.197-2.439-0.388-4.772-0.586-7.105c-0.061-0.734-0.386-1.459,0.236-2.161
					c0.187-0.205,0.03-0.708,0.03-1.134c-3.653,0-7.221,0-10.994,0c0.137,0.674,0.255,1.25,0.396,1.914c-0.604,0-1.339,0-2.367,0
					c0.431-1.435,0.844-2.812,1.256-4.188c-0.518-0.233-1.111-0.384-1.525-0.74c-0.248-0.209-0.318-0.759-0.259-1.118
					c0.03-0.168,0.566-0.291,0.891-0.343C88.925,134.702,89.168,134.834,89.395,134.89z"/>
				<path fill-rule="evenodd" clip-rule="evenodd" fill="#ED1C24" d="M88.347,144.086c-1.861,0-3.612,0-5.462,0
					c-0.302,1.76-0.601,3.489-0.913,5.301c2.449,0,4.807,0,7.272,0C88.948,147.636,88.655,145.915,88.347,144.086z"/>
				<path fill-rule="evenodd" clip-rule="evenodd" fill="#ED1C24" d="M88.571,131.654c0.004,1.236,0.959,2.205,2.185,2.215
					c1.222,0.007,2.196-0.956,2.211-2.192c0.02-1.264-1.004-2.307-2.237-2.279C89.519,129.423,88.568,130.418,88.571,131.654z"/>
				<path fill-rule="evenodd" clip-rule="evenodd" fill="#ED1C24" d="M89.395,134.89c-0.227-0.056-0.47-0.188-0.683-0.154
					c-0.324,0.052-0.86,0.175-0.891,0.343c-0.06,0.359,0.011,0.909,0.259,1.118c0.414,0.356,1.008,0.507,1.525,0.74
					c1.564,0.272,3.125,0.563,4.696,0.808c0.588,0.093,1.168-0.09,1.176-0.788c0.012-0.698-0.556-0.803-1.156-0.824
					C92.593,136.076,90.877,135.946,89.395,134.89z"/>
				<path fill-rule="evenodd" clip-rule="evenodd" fill="#ED1C24" d="M64.608,139.888c0.125-0.145,0.396-0.369,0.369-0.424
					c-0.525-0.935-1.382-1.414-2.349-0.955c-0.761,0.363-1.689,0.965-1.956,1.68c-0.863,2.291-1.647,4.65-2.095,7.054
					c-0.396,2.118,0.933,3.328,3.119,3.347c1.362,0.012,2.73,0.033,4.095,0.056c0.072,0.002,0.145,0.078,0.285,0.162
					c-0.198,2.414-0.396,4.863-0.598,7.328c1.051,0.412,1.431,0.098,1.473-0.967c0.068-1.725,0.259-3.447,0.67-5.167
					c0.289,1.606,0.586,3.208,0.873,4.817c0.174,0.986,0.565,1.781,1.741,1.545c1.104-0.227,1.157-1.08,0.982-2.01
					c-0.417-2.221-0.834-4.439-1.214-6.664c-0.187-1.093-0.533-1.98-1.907-2.164c0.415-0.106,0.834-0.298,1.25-0.304
					c2.179-0.028,4.357,0.015,6.536-0.018c1.212-0.019,1.773,0.478,1.865,1.721c0.229,3.058,0.548,6.112,0.845,9.302
					c0.384,0.023,0.776,0.045,1.326,0.08c-0.249-3.055-0.485-5.973-0.732-8.892c-0.076-0.917-0.483-1.824,0.295-2.703
					c0.229-0.256,0.036-0.885,0.036-1.42c-4.572,0-9.032,0-13.752,0c0.176,0.845,0.322,1.568,0.491,2.397c-0.752,0-1.677,0-2.961,0
					c0.543-1.798,1.061-3.521,1.578-5.24c-0.655-0.293-1.39-0.481-1.911-0.925c-0.308-0.261-0.407-0.951-0.325-1.4
					c0.038-0.209,0.712-0.365,1.111-0.426C64.018,139.655,64.323,139.816,64.608,139.888z"/>
				<path fill-rule="evenodd" clip-rule="evenodd" fill="#ED1C24" d="M63.296,151.393c-2.323,0-4.521,0-6.835,0
					c-0.376,2.203-0.753,4.361-1.144,6.633c3.063,0,6.017,0,9.096,0C64.048,155.833,63.683,153.68,63.296,151.393z"/>
				<path fill-rule="evenodd" clip-rule="evenodd" fill="#ED1C24" d="M63.575,135.837c0.006,1.551,1.196,2.761,2.734,2.771
					c1.525,0.01,2.747-1.196,2.767-2.742c0.022-1.579-1.264-2.88-2.801-2.85C64.764,133.05,63.573,134.294,63.575,135.837z"/>
				<path fill-rule="evenodd" clip-rule="evenodd" fill="#ED1C24" d="M64.608,139.888c-0.285-0.072-0.59-0.233-0.858-0.189
					c-0.399,0.061-1.073,0.217-1.111,0.426c-0.082,0.449,0.018,1.14,0.325,1.4c0.521,0.443,1.256,0.632,1.911,0.925
					c1.952,0.339,3.904,0.704,5.871,1.009c0.738,0.118,1.464-0.11,1.474-0.982c0.011-0.879-0.7-1.008-1.45-1.033
					C68.609,141.369,66.458,141.209,64.608,139.888z"/>
			</g>
			<g>
				<path fill-rule="evenodd" clip-rule="evenodd" fill="#ED1C24" d="M136.529,146.566c0.093-0.11,0.277-0.284,0.259-0.32
					c-0.415-0.664-1.055-0.983-1.739-0.614c-0.544,0.289-1.199,0.757-1.366,1.286c-0.55,1.693-1.035,3.437-1.284,5.198
					c-0.215,1.553,0.789,2.389,2.38,2.328c0.993-0.037,1.987-0.07,2.983-0.098c0.052-0.002,0.107,0.051,0.212,0.105
					c-0.063,1.764-0.122,3.551-0.185,5.35c0.778,0.264,1.046,0.021,1.039-0.752c-0.008-1.26,0.068-2.516,0.312-3.779
					c0.265,1.156,0.533,2.312,0.796,3.471c0.159,0.711,0.476,1.277,1.318,1.066c0.797-0.205,0.805-0.826,0.645-1.496
					c-0.378-1.598-0.753-3.201-1.11-4.805c-0.172-0.787-0.453-1.421-1.462-1.507c0.301-0.091,0.6-0.245,0.902-0.265
					c1.579-0.095,3.17-0.137,4.751-0.235c0.879-0.056,1.304,0.287,1.418,1.188c0.27,2.214,0.604,4.425,0.932,6.731
					c0.274,0.004,0.562,0.01,0.963,0.016c-0.283-2.211-0.552-4.326-0.833-6.439c-0.09-0.666-0.419-1.309,0.121-1.975
					c0.16-0.194-0.003-0.646-0.022-1.035c-3.322,0.156-6.568,0.309-10.001,0.468c0.156,0.611,0.289,1.129,0.441,1.728
					c-0.546,0.027-1.214,0.058-2.154,0.104c0.331-1.328,0.647-2.596,0.967-3.865c-0.479-0.191-1.027-0.303-1.415-0.606
					c-0.236-0.179-0.329-0.678-0.286-1.007c0.02-0.154,0.503-0.289,0.794-0.35C136.097,146.416,136.32,146.524,136.529,146.566z"/>
				<path fill-rule="evenodd" clip-rule="evenodd" fill="#ED1C24" d="M135.969,154.975c-1.689,0.078-3.284,0.154-4.966,0.232
					c-0.2,1.613-0.398,3.197-0.605,4.859c2.227-0.105,4.371-0.205,6.61-0.311C136.669,158.178,136.331,156.624,135.969,154.975z"/>
				<path fill-rule="evenodd" clip-rule="evenodd" fill="#ED1C24" d="M135.644,143.654c0.051,1.129,0.965,1.968,2.08,1.924
					c1.11-0.045,1.956-0.965,1.919-2.087c-0.037-1.151-1.014-2.055-2.137-1.978C136.411,141.589,135.584,142.534,135.644,143.654z"
					/>
				<path fill-rule="evenodd" clip-rule="evenodd" fill="#ED1C24" d="M136.529,146.566c-0.209-0.042-0.432-0.15-0.626-0.11
					c-0.291,0.061-0.774,0.195-0.794,0.35c-0.043,0.329,0.05,0.828,0.286,1.007c0.388,0.304,0.936,0.415,1.415,0.606
					c1.431,0.181,2.866,0.379,4.307,0.533c0.538,0.059,1.06-0.132,1.036-0.765c-0.019-0.64-0.542-0.71-1.088-0.702
					C139.494,147.505,137.921,147.461,136.529,146.566z"/>
				<path fill-rule="evenodd" clip-rule="evenodd" fill="#ED1C24" d="M115.64,152.32c0.103-0.122,0.311-0.311,0.281-0.353
					c-0.45-0.729-1.149-1.077-1.906-0.676c-0.598,0.316-1.312,0.832-1.503,1.412c-0.602,1.863-1.14,3.779-1.404,5.713
					c-0.24,1.705,0.863,2.623,2.612,2.557c1.09-0.043,2.183-0.078,3.274-0.111c0.058-0.002,0.114,0.059,0.232,0.119
					c-0.068,1.934-0.137,3.9-0.206,5.873c0.856,0.291,1.149,0.025,1.143-0.826c-0.012-1.381,0.072-2.76,0.34-4.15
					c0.293,1.27,0.588,2.541,0.878,3.814c0.177,0.781,0.521,1.402,1.449,1.168c0.876-0.221,0.883-0.906,0.708-1.639
					c-0.415-1.758-0.829-3.516-1.218-5.279c-0.194-0.865-0.498-1.562-1.605-1.654c0.331-0.102,0.654-0.27,0.989-0.291
					c1.735-0.104,3.479-0.15,5.217-0.258c0.967-0.061,1.432,0.314,1.553,1.303c0.301,2.434,0.668,4.859,1.024,7.395
					c0.304,0.004,0.62,0.012,1.06,0.016c-0.314-2.43-0.607-4.75-0.915-7.072c-0.096-0.73-0.459-1.439,0.133-2.168
					c0.175-0.213-0.004-0.709-0.022-1.137c-3.649,0.17-7.212,0.338-10.979,0.514c0.168,0.668,0.314,1.238,0.479,1.896
					c-0.602,0.029-1.338,0.064-2.363,0.111c0.365-1.455,0.712-2.85,1.061-4.244c-0.527-0.209-1.129-0.33-1.559-0.664
					c-0.255-0.199-0.358-0.746-0.314-1.107c0.025-0.168,0.558-0.316,0.877-0.383C115.168,152.154,115.412,152.272,115.64,152.32z"/>
				<path fill-rule="evenodd" clip-rule="evenodd" fill="#ED1C24" d="M115.028,161.553c-1.857,0.088-3.61,0.172-5.454,0.256
					c-0.221,1.771-0.438,3.514-0.668,5.338c2.445-0.113,4.801-0.225,7.267-0.34C115.792,165.073,115.423,163.364,115.028,161.553z"
					/>
				<path fill-rule="evenodd" clip-rule="evenodd" fill="#ED1C24" d="M114.669,149.123c0.062,1.239,1.059,2.16,2.279,2.11
					c1.226-0.05,2.152-1.058,2.112-2.295c-0.04-1.26-1.113-2.253-2.344-2.169C115.512,146.855,114.609,147.892,114.669,149.123z"/>
				<path fill-rule="evenodd" clip-rule="evenodd" fill="#ED1C24" d="M115.64,152.32c-0.229-0.048-0.472-0.166-0.686-0.122
					c-0.319,0.066-0.852,0.215-0.877,0.383c-0.044,0.361,0.06,0.908,0.314,1.107c0.43,0.334,1.031,0.455,1.559,0.664
					c1.575,0.201,3.146,0.418,4.728,0.588c0.59,0.064,1.167-0.145,1.142-0.842c-0.026-0.701-0.593-0.777-1.198-0.77
					C118.89,153.352,117.169,153.303,115.64,152.32z"/>
				<path fill-rule="evenodd" clip-rule="evenodd" fill="#ED1C24" d="M91.117,158.473c0.122-0.15,0.381-0.387,0.349-0.439
					c-0.569-0.912-1.44-1.35-2.388-0.846c-0.746,0.396-1.645,1.041-1.876,1.766c-0.756,2.334-1.424,4.727-1.765,7.146
					c-0.295,2.131,1.083,3.281,3.275,3.199c1.366-0.051,2.729-0.098,4.095-0.139c0.072,0,0.148,0.072,0.289,0.148
					c-0.08,2.422-0.168,4.879-0.253,7.35c1.067,0.363,1.433,0.029,1.427-1.037c-0.016-1.725,0.093-3.451,0.428-5.189
					c0.365,1.59,0.734,3.18,1.093,4.77c0.221,0.98,0.652,1.752,1.819,1.459c1.088-0.273,1.102-1.129,0.883-2.047
					c-0.521-2.199-1.039-4.398-1.522-6.604c-0.24-1.084-0.624-1.953-2.01-2.07c0.415-0.129,0.818-0.338,1.237-0.365
					c2.173-0.129,4.354-0.186,6.522-0.322c1.212-0.076,1.796,0.393,1.944,1.633c0.375,3.043,0.838,6.076,1.283,9.248
					c0.384,0.006,0.776,0.01,1.328,0.02c-0.393-3.039-0.764-5.941-1.146-8.848c-0.122-0.912-0.573-1.801,0.165-2.713
					c0.217-0.266-0.006-0.885-0.032-1.422c-4.564,0.215-9.021,0.422-13.734,0.645c0.211,0.838,0.395,1.551,0.602,2.373
					c-0.75,0.037-1.675,0.078-2.957,0.139c0.459-1.82,0.891-3.562,1.324-5.309c-0.658-0.264-1.404-0.416-1.946-0.834
					c-0.319-0.246-0.447-0.932-0.393-1.383c0.029-0.211,0.695-0.396,1.095-0.479C90.52,158.264,90.83,158.413,91.117,158.473z"/>
				<path fill-rule="evenodd" clip-rule="evenodd" fill="#ED1C24" d="M90.346,170.028c-2.323,0.107-4.515,0.209-6.825,0.32
					c-0.277,2.217-0.548,4.391-0.833,6.676c3.06-0.145,6.009-0.283,9.088-0.428C91.305,174.428,90.839,172.292,90.346,170.028z"/>
				<path fill-rule="evenodd" clip-rule="evenodd" fill="#ED1C24" d="M89.896,154.475c0.079,1.549,1.324,2.699,2.857,2.641
					c1.53-0.062,2.692-1.326,2.642-2.869c-0.054-1.579-1.397-2.821-2.937-2.717C90.952,151.636,89.82,152.934,89.896,154.475z"/>
				<path fill-rule="evenodd" clip-rule="evenodd" fill="#ED1C24" d="M91.117,158.473c-0.287-0.061-0.597-0.209-0.863-0.15
					c-0.399,0.082-1.065,0.268-1.095,0.479c-0.055,0.451,0.073,1.137,0.393,1.383c0.542,0.418,1.288,0.57,1.946,0.834
					c1.976,0.248,3.942,0.52,5.918,0.732c0.742,0.082,1.459-0.178,1.427-1.051c-0.03-0.877-0.746-0.973-1.499-0.961
					C95.181,159.764,93.028,159.706,91.117,158.473z"/>
			</g>
		</g>
	</g>
</g>
</svg>
