<?xml version="1.0" encoding="utf-8"?>
<!-- Generator: Adobe Illustrator 16.0.0, SVG Export Plug-In . SVG Version: 6.00 Build 0)  -->
<!DOCTYPE svg PUBLIC "-//W3C//DTD SVG 1.1//EN" "http://www.w3.org/Graphics/SVG/1.1/DTD/svg11.dtd">
<svg version="1.1" xmlns="http://www.w3.org/2000/svg" xmlns:xlink="http://www.w3.org/1999/xlink" x="0px" y="0px"
	 width="571.433px" height="250.601px" viewBox="0 0 571.433 250.601" enable-background="new 0 0 571.433 250.601"
	 xml:space="preserve">
<g id="Layer_1">
	<g>
		<path fill="#FFFFFF" d="M340.308,166.496c1.298,0,2.469,0.176,3.514,0.527c1.044,0.352,1.937,0.839,2.676,1.462
			s1.307,1.354,1.703,2.193c0.396,0.84,0.594,1.747,0.594,2.722c0,0.852-0.101,1.601-0.302,2.249
			c-0.202,0.647-0.493,1.212-0.876,1.693s-0.85,0.889-1.401,1.222c-0.552,0.333-1.178,0.61-1.878,0.833
			c1.687,0.506,2.945,1.277,3.776,2.313c0.831,1.037,1.246,2.339,1.246,3.906c0,1.332-0.26,2.511-0.779,3.535
			s-1.22,1.885-2.102,2.582c-0.883,0.697-1.904,1.225-3.065,1.583c-1.162,0.357-2.391,0.536-3.688,0.536
			c-1.415,0-2.647-0.154-3.698-0.463c-1.051-0.308-1.966-0.765-2.745-1.369c-0.779-0.604-1.44-1.345-1.985-2.222
			c-0.545-0.876-1.012-1.888-1.401-3.035l2.122-0.833c0.363-0.148,0.733-0.223,1.109-0.223c0.337,0,0.639,0.068,0.905,0.204
			c0.266,0.136,0.47,0.333,0.613,0.592c0.234,0.433,0.49,0.858,0.769,1.277c0.279,0.42,0.613,0.793,1.002,1.12
			s0.847,0.593,1.372,0.796c0.525,0.204,1.151,0.306,1.878,0.306c0.817,0,1.531-0.127,2.141-0.38c0.61-0.253,1.119-0.583,1.528-0.99
			s0.713-0.86,0.915-1.36c0.201-0.5,0.302-1.003,0.302-1.509c0-0.642-0.072-1.225-0.214-1.749c-0.143-0.524-0.441-0.972-0.896-1.342
			s-1.106-0.66-1.956-0.87c-0.85-0.21-1.989-0.314-3.416-0.314v-3.276c1.181,0,2.161-0.099,2.939-0.296
			c0.779-0.197,1.398-0.473,1.859-0.824s0.782-0.774,0.964-1.268c0.181-0.494,0.272-1.037,0.272-1.629
			c0-1.271-0.364-2.23-1.09-2.879c-0.727-0.647-1.719-0.972-2.978-0.972c-1.142,0-2.089,0.287-2.842,0.86s-1.278,1.31-1.577,2.209
			c-0.155,0.469-0.37,0.805-0.642,1.008s-0.629,0.305-1.071,0.305c-0.208,0-0.428-0.019-0.662-0.055l-2.53-0.419
			c0.195-1.283,0.571-2.41,1.129-3.379c0.558-0.969,1.255-1.777,2.092-2.426c0.837-0.647,1.797-1.136,2.881-1.463
			S339.062,166.496,340.308,166.496z"/>
		<path fill="#FFFFFF" d="M364.91,173.271c0,1.012-0.178,1.925-0.535,2.739s-0.834,1.509-1.431,2.083
			c-0.597,0.573-1.292,1.015-2.083,1.323c-0.792,0.309-1.616,0.463-2.472,0.463c-0.934,0-1.797-0.154-2.589-0.463
			s-1.476-0.75-2.053-1.323c-0.578-0.574-1.029-1.269-1.353-2.083s-0.486-1.728-0.486-2.739c0-1.036,0.162-1.975,0.486-2.813
			s0.775-1.549,1.353-2.129c0.577-0.58,1.262-1.027,2.053-1.342s1.655-0.472,2.589-0.472s1.8,0.157,2.599,0.472
			c0.798,0.314,1.489,0.762,2.073,1.342s1.038,1.29,1.363,2.129C364.748,171.296,364.91,172.234,364.91,173.271z M374.272,167.514
			c0.156-0.185,0.351-0.352,0.584-0.5c0.234-0.147,0.558-0.222,0.973-0.222h3.484l-20.905,26.081
			c-0.156,0.197-0.354,0.36-0.594,0.49s-0.529,0.194-0.866,0.194h-3.582L374.272,167.514z M361.192,173.271
			c0-0.716-0.071-1.314-0.214-1.796c-0.143-0.48-0.341-0.869-0.594-1.166c-0.253-0.296-0.552-0.509-0.896-0.639
			c-0.344-0.129-0.71-0.194-1.1-0.194s-0.753,0.065-1.09,0.194c-0.338,0.13-0.63,0.343-0.876,0.639
			c-0.247,0.297-0.438,0.686-0.574,1.166c-0.136,0.481-0.205,1.08-0.205,1.796c0,0.691,0.068,1.268,0.205,1.73
			s0.328,0.836,0.574,1.12c0.246,0.284,0.538,0.487,0.876,0.61c0.337,0.124,0.701,0.186,1.09,0.186s0.756-0.062,1.1-0.186
			c0.344-0.123,0.643-0.326,0.896-0.61s0.451-0.657,0.594-1.12C361.121,174.538,361.192,173.962,361.192,173.271z M380.793,187.264
			c0,1.013-0.178,1.926-0.535,2.74s-0.834,1.509-1.431,2.082c-0.597,0.574-1.291,1.019-2.083,1.333s-1.616,0.472-2.472,0.472
			c-0.934,0-1.797-0.157-2.588-0.472c-0.792-0.314-1.477-0.759-2.054-1.333c-0.578-0.573-1.029-1.268-1.353-2.082
			s-0.486-1.728-0.486-2.74c0-1.036,0.162-1.974,0.486-2.813c0.324-0.839,0.775-1.548,1.353-2.128
			c0.577-0.58,1.262-1.027,2.054-1.343c0.791-0.314,1.654-0.472,2.588-0.472c0.935,0,1.801,0.157,2.599,0.472
			c0.798,0.315,1.489,0.763,2.073,1.343c0.584,0.58,1.038,1.289,1.363,2.128C380.631,185.29,380.793,186.228,380.793,187.264z
			 M377.095,187.264c0-0.715-0.075-1.313-0.224-1.795c-0.149-0.481-0.351-0.87-0.604-1.166s-0.552-0.509-0.895-0.639
			c-0.344-0.13-0.71-0.194-1.1-0.194c-0.389,0-0.752,0.064-1.09,0.194s-0.626,0.343-0.866,0.639
			c-0.24,0.296-0.432,0.685-0.574,1.166c-0.143,0.481-0.214,1.08-0.214,1.795c0,0.691,0.071,1.271,0.214,1.74
			c0.143,0.47,0.334,0.846,0.574,1.129c0.24,0.284,0.529,0.488,0.866,0.611s0.701,0.185,1.09,0.185c0.39,0,0.756-0.062,1.1-0.185
			c0.343-0.123,0.642-0.327,0.895-0.611c0.253-0.283,0.454-0.659,0.604-1.129C377.02,188.535,377.095,187.955,377.095,187.264z"/>
		<path fill="#FFFFFF" d="M294.072,202.852h2.202c0.227,0,0.417,0.054,0.57,0.16c0.152,0.107,0.255,0.252,0.307,0.434l2.396,8.427
			c0.059,0.208,0.112,0.434,0.161,0.678c0.048,0.243,0.096,0.502,0.141,0.774c0.052-0.272,0.108-0.531,0.17-0.774
			c0.062-0.244,0.128-0.47,0.2-0.678l2.767-8.427c0.052-0.149,0.154-0.285,0.307-0.409c0.152-0.123,0.339-0.185,0.56-0.185h0.77
			c0.228,0,0.416,0.054,0.565,0.16c0.149,0.107,0.253,0.252,0.312,0.434l2.747,8.427c0.143,0.416,0.267,0.877,0.37,1.384
			c0.045-0.253,0.093-0.497,0.142-0.73c0.049-0.234,0.099-0.451,0.151-0.653l2.396-8.427c0.045-0.162,0.146-0.302,0.302-0.419
			c0.156-0.116,0.344-0.175,0.565-0.175h2.056l-4.375,14.087h-2.367l-3.079-9.625c-0.039-0.124-0.08-0.257-0.122-0.399
			c-0.042-0.144-0.083-0.296-0.122-0.458c-0.039,0.162-0.08,0.314-0.122,0.458c-0.042,0.143-0.083,0.275-0.122,0.399l-3.108,9.625
			h-2.367L294.072,202.852z"/>
		<path fill="#FFFFFF" d="M322.5,216.938h-1.082c-0.227,0-0.406-0.034-0.536-0.103s-0.228-0.206-0.292-0.414l-0.214-0.711
			c-0.253,0.228-0.501,0.427-0.745,0.6c-0.244,0.172-0.495,0.316-0.755,0.433c-0.26,0.117-0.536,0.205-0.828,0.264
			c-0.292,0.059-0.617,0.088-0.974,0.088c-0.422,0-0.812-0.058-1.169-0.171c-0.357-0.114-0.665-0.285-0.921-0.514
			c-0.257-0.228-0.457-0.512-0.599-0.851c-0.143-0.339-0.214-0.732-0.214-1.183c0-0.378,0.099-0.751,0.297-1.119
			c0.198-0.368,0.527-0.7,0.989-0.997c0.461-0.297,1.075-0.542,1.841-0.738c0.766-0.195,1.718-0.293,2.854-0.293v-0.589
			c0-0.674-0.142-1.173-0.424-1.497c-0.283-0.324-0.693-0.486-1.232-0.486c-0.39,0-0.715,0.046-0.974,0.137
			c-0.26,0.091-0.486,0.193-0.677,0.307c-0.192,0.114-0.369,0.216-0.531,0.308c-0.162,0.091-0.341,0.136-0.536,0.136
			c-0.162,0-0.302-0.042-0.419-0.126c-0.117-0.085-0.211-0.188-0.282-0.312l-0.438-0.77c1.149-1.052,2.536-1.578,4.16-1.578
			c0.584,0,1.106,0.096,1.563,0.287c0.458,0.192,0.846,0.458,1.165,0.799c0.318,0.342,0.56,0.749,0.726,1.223
			c0.166,0.475,0.249,0.994,0.249,1.56V216.938z M317.823,215.438c0.247,0,0.474-0.022,0.682-0.067
			c0.208-0.045,0.404-0.112,0.589-0.201c0.185-0.09,0.364-0.2,0.536-0.331s0.346-0.286,0.521-0.465V212.7
			c-0.702,0-1.288,0.045-1.759,0.133s-0.849,0.201-1.135,0.339c-0.286,0.137-0.489,0.298-0.609,0.48
			c-0.12,0.184-0.18,0.383-0.18,0.599c0,0.425,0.125,0.729,0.375,0.912C317.094,215.347,317.42,215.438,317.823,215.438z"/>
		<path fill="#FFFFFF" d="M328.149,217.095c-0.864,0-1.529-0.245-1.997-0.736c-0.467-0.49-0.701-1.167-0.701-2.031v-5.582h-1.013
			c-0.13,0-0.242-0.042-0.336-0.127c-0.094-0.084-0.141-0.211-0.141-0.38v-0.954l1.607-0.264l0.507-2.728
			c0.026-0.13,0.086-0.23,0.18-0.302c0.094-0.071,0.212-0.107,0.355-0.107h1.247v3.146h2.63v1.715h-2.63v5.417
			c0,0.312,0.078,0.555,0.234,0.73c0.156,0.176,0.363,0.263,0.624,0.263c0.149,0,0.274-0.018,0.375-0.053
			c0.101-0.036,0.188-0.073,0.263-0.112s0.142-0.076,0.2-0.112c0.059-0.035,0.117-0.054,0.176-0.054c0.071,0,0.13,0.019,0.175,0.054
			c0.045,0.036,0.094,0.09,0.146,0.161l0.721,1.169c-0.351,0.292-0.753,0.513-1.208,0.662S328.637,217.095,328.149,217.095z"/>
		<path fill="#FFFFFF" d="M336.538,206.787c0.63,0,1.209,0.101,1.739,0.302c0.529,0.201,0.985,0.495,1.369,0.882
			s0.682,0.86,0.896,1.423c0.214,0.562,0.322,1.203,0.322,1.924c0,0.182-0.008,0.333-0.024,0.453s-0.045,0.214-0.088,0.282
			c-0.042,0.068-0.099,0.117-0.17,0.146s-0.162,0.044-0.272,0.044h-6.177c0.071,1.025,0.348,1.779,0.828,2.26
			s1.117,0.721,1.91,0.721c0.39,0,0.726-0.045,1.008-0.136c0.282-0.091,0.529-0.192,0.74-0.303s0.396-0.211,0.555-0.302
			s0.313-0.137,0.463-0.137c0.097,0,0.182,0.02,0.253,0.059c0.071,0.039,0.133,0.095,0.185,0.166l0.701,0.877
			c-0.266,0.312-0.565,0.573-0.896,0.784c-0.332,0.211-0.677,0.38-1.038,0.506c-0.36,0.127-0.728,0.217-1.101,0.269
			s-0.735,0.078-1.086,0.078c-0.695,0-1.341-0.116-1.939-0.347s-1.117-0.571-1.559-1.022c-0.442-0.451-0.789-1.01-1.042-1.676
			s-0.38-1.437-0.38-2.313c0-0.682,0.11-1.323,0.331-1.924c0.221-0.602,0.538-1.124,0.95-1.569c0.412-0.444,0.916-0.797,1.51-1.057
			S335.791,206.787,336.538,206.787z M336.586,208.512c-0.702,0-1.25,0.198-1.646,0.594c-0.396,0.396-0.649,0.958-0.76,1.686h4.521
			c0-0.312-0.042-0.605-0.127-0.882c-0.084-0.275-0.214-0.518-0.39-0.726s-0.396-0.372-0.663-0.492
			C337.255,208.571,336.943,208.512,336.586,208.512z"/>
		<path fill="#FFFFFF" d="M342.821,216.938v-9.995h1.413c0.247,0,0.419,0.045,0.516,0.136c0.098,0.091,0.162,0.247,0.195,0.468
			l0.146,1.208c0.357-0.617,0.776-1.104,1.257-1.461s1.02-0.536,1.617-0.536c0.494,0,0.903,0.114,1.228,0.341l-0.312,1.803
			c-0.02,0.117-0.062,0.199-0.127,0.248s-0.152,0.073-0.263,0.073c-0.098,0-0.231-0.022-0.399-0.068
			c-0.169-0.045-0.393-0.068-0.672-0.068c-0.5,0-0.929,0.139-1.286,0.414c-0.357,0.276-0.659,0.681-0.906,1.213v6.226H342.821z"/>
		<path fill="#FFFFFF" d="M354.541,216.938v-9.995h1.413c0.247,0,0.419,0.045,0.516,0.136c0.098,0.091,0.162,0.247,0.195,0.468
			l0.146,1.208c0.357-0.617,0.776-1.104,1.257-1.461s1.02-0.536,1.617-0.536c0.494,0,0.903,0.114,1.228,0.341l-0.312,1.803
			c-0.02,0.117-0.062,0.199-0.127,0.248s-0.152,0.073-0.263,0.073c-0.098,0-0.231-0.022-0.399-0.068
			c-0.169-0.045-0.393-0.068-0.672-0.068c-0.5,0-0.929,0.139-1.286,0.414c-0.357,0.276-0.659,0.681-0.906,1.213v6.226H354.541z"/>
		<path fill="#FFFFFF" d="M366.63,206.787c0.63,0,1.209,0.101,1.739,0.302c0.529,0.201,0.985,0.495,1.369,0.882
			s0.682,0.86,0.896,1.423c0.214,0.562,0.322,1.203,0.322,1.924c0,0.182-0.008,0.333-0.024,0.453s-0.045,0.214-0.088,0.282
			c-0.042,0.068-0.099,0.117-0.17,0.146s-0.162,0.044-0.272,0.044h-6.177c0.071,1.025,0.348,1.779,0.828,2.26
			s1.117,0.721,1.91,0.721c0.39,0,0.726-0.045,1.008-0.136c0.282-0.091,0.529-0.192,0.74-0.303s0.396-0.211,0.555-0.302
			s0.313-0.137,0.463-0.137c0.097,0,0.182,0.02,0.253,0.059c0.071,0.039,0.133,0.095,0.185,0.166l0.701,0.877
			c-0.266,0.312-0.565,0.573-0.896,0.784c-0.332,0.211-0.677,0.38-1.038,0.506c-0.36,0.127-0.728,0.217-1.101,0.269
			s-0.735,0.078-1.086,0.078c-0.695,0-1.341-0.116-1.939-0.347s-1.117-0.571-1.559-1.022c-0.442-0.451-0.789-1.01-1.042-1.676
			s-0.38-1.437-0.38-2.313c0-0.682,0.11-1.323,0.331-1.924c0.221-0.602,0.538-1.124,0.95-1.569c0.412-0.444,0.916-0.797,1.51-1.057
			S365.883,206.787,366.63,206.787z M366.679,208.512c-0.702,0-1.25,0.198-1.646,0.594c-0.396,0.396-0.649,0.958-0.76,1.686h4.521
			c0-0.312-0.042-0.605-0.127-0.882c-0.084-0.275-0.214-0.518-0.39-0.726s-0.396-0.372-0.663-0.492
			C367.348,208.571,367.036,208.512,366.679,208.512z"/>
		<path fill="#FFFFFF" d="M375.476,202.462v14.477h-2.406v-14.477H375.476z"/>
		<path fill="#FFFFFF" d="M386.026,216.938h-1.082c-0.227,0-0.406-0.034-0.536-0.103s-0.228-0.206-0.292-0.414l-0.214-0.711
			c-0.253,0.228-0.501,0.427-0.745,0.6c-0.244,0.172-0.495,0.316-0.755,0.433c-0.26,0.117-0.536,0.205-0.828,0.264
			c-0.292,0.059-0.617,0.088-0.974,0.088c-0.422,0-0.812-0.058-1.169-0.171c-0.357-0.114-0.665-0.285-0.921-0.514
			c-0.257-0.228-0.457-0.512-0.599-0.851c-0.143-0.339-0.214-0.732-0.214-1.183c0-0.378,0.099-0.751,0.297-1.119
			c0.198-0.368,0.527-0.7,0.989-0.997c0.461-0.297,1.075-0.542,1.841-0.738c0.766-0.195,1.718-0.293,2.854-0.293v-0.589
			c0-0.674-0.142-1.173-0.424-1.497c-0.283-0.324-0.693-0.486-1.232-0.486c-0.39,0-0.715,0.046-0.974,0.137
			c-0.26,0.091-0.486,0.193-0.677,0.307c-0.192,0.114-0.369,0.216-0.531,0.308c-0.162,0.091-0.341,0.136-0.536,0.136
			c-0.162,0-0.302-0.042-0.419-0.126c-0.117-0.085-0.211-0.188-0.282-0.312l-0.438-0.77c1.149-1.052,2.536-1.578,4.16-1.578
			c0.584,0,1.106,0.096,1.563,0.287c0.458,0.192,0.846,0.458,1.165,0.799c0.318,0.342,0.56,0.749,0.726,1.223
			c0.166,0.475,0.249,0.994,0.249,1.56V216.938z M381.35,215.438c0.247,0,0.474-0.022,0.682-0.067
			c0.208-0.045,0.404-0.112,0.589-0.201c0.185-0.09,0.364-0.2,0.536-0.331s0.346-0.286,0.521-0.465V212.7
			c-0.702,0-1.288,0.045-1.759,0.133s-0.849,0.201-1.135,0.339c-0.286,0.137-0.489,0.298-0.609,0.48
			c-0.12,0.184-0.18,0.383-0.18,0.599c0,0.425,0.125,0.729,0.375,0.912C380.621,215.347,380.947,215.438,381.35,215.438z"/>
		<path fill="#FFFFFF" d="M391.676,217.095c-0.864,0-1.529-0.245-1.997-0.736c-0.467-0.49-0.701-1.167-0.701-2.031v-5.582h-1.013
			c-0.13,0-0.242-0.042-0.336-0.127c-0.094-0.084-0.141-0.211-0.141-0.38v-0.954l1.607-0.264l0.507-2.728
			c0.026-0.13,0.086-0.23,0.18-0.302c0.094-0.071,0.212-0.107,0.355-0.107h1.247v3.146h2.63v1.715h-2.63v5.417
			c0,0.312,0.078,0.555,0.234,0.73c0.156,0.176,0.363,0.263,0.624,0.263c0.149,0,0.274-0.018,0.375-0.053
			c0.101-0.036,0.188-0.073,0.263-0.112s0.142-0.076,0.2-0.112c0.059-0.035,0.117-0.054,0.176-0.054c0.071,0,0.13,0.019,0.175,0.054
			c0.045,0.036,0.094,0.09,0.146,0.161l0.721,1.169c-0.351,0.292-0.753,0.513-1.208,0.662S392.164,217.095,391.676,217.095z"/>
		<path fill="#FFFFFF" d="M400.064,206.787c0.63,0,1.209,0.101,1.739,0.302c0.529,0.201,0.985,0.495,1.369,0.882
			s0.682,0.86,0.896,1.423c0.214,0.562,0.322,1.203,0.322,1.924c0,0.182-0.008,0.333-0.024,0.453s-0.045,0.214-0.088,0.282
			c-0.042,0.068-0.099,0.117-0.17,0.146s-0.162,0.044-0.272,0.044h-6.177c0.071,1.025,0.348,1.779,0.828,2.26
			s1.117,0.721,1.91,0.721c0.39,0,0.726-0.045,1.008-0.136c0.282-0.091,0.529-0.192,0.74-0.303s0.396-0.211,0.555-0.302
			s0.313-0.137,0.463-0.137c0.097,0,0.182,0.02,0.253,0.059c0.071,0.039,0.133,0.095,0.185,0.166l0.701,0.877
			c-0.266,0.312-0.565,0.573-0.896,0.784c-0.332,0.211-0.677,0.38-1.038,0.506c-0.36,0.127-0.728,0.217-1.101,0.269
			s-0.735,0.078-1.086,0.078c-0.695,0-1.341-0.116-1.939-0.347s-1.117-0.571-1.559-1.022c-0.442-0.451-0.789-1.01-1.042-1.676
			s-0.38-1.437-0.38-2.313c0-0.682,0.11-1.323,0.331-1.924c0.221-0.602,0.538-1.124,0.95-1.569c0.412-0.444,0.916-0.797,1.51-1.057
			S399.317,206.787,400.064,206.787z M400.113,208.512c-0.702,0-1.25,0.198-1.646,0.594c-0.396,0.396-0.649,0.958-0.76,1.686h4.521
			c0-0.312-0.042-0.605-0.127-0.882c-0.084-0.275-0.214-0.518-0.39-0.726s-0.396-0.372-0.663-0.492
			C400.782,208.571,400.47,208.512,400.113,208.512z"/>
		<path fill="#FFFFFF" d="M413.382,216.938c-0.312,0-0.517-0.146-0.614-0.438l-0.195-0.965c-0.208,0.234-0.425,0.445-0.653,0.634
			s-0.473,0.351-0.735,0.487c-0.263,0.136-0.546,0.242-0.848,0.316c-0.302,0.074-0.628,0.112-0.979,0.112
			c-0.546,0-1.046-0.114-1.5-0.342c-0.455-0.227-0.846-0.557-1.174-0.988c-0.328-0.432-0.582-0.966-0.76-1.603
			c-0.179-0.637-0.268-1.364-0.268-2.183c0-0.74,0.101-1.429,0.302-2.065c0.201-0.636,0.49-1.188,0.867-1.656
			c0.377-0.467,0.828-0.833,1.354-1.096c0.526-0.263,1.117-0.395,1.773-0.395c0.559,0,1.036,0.09,1.432,0.268
			c0.396,0.179,0.75,0.418,1.062,0.717v-5.28h2.407v14.477H413.382z M410.177,215.175c0.5,0,0.925-0.104,1.276-0.312
			c0.351-0.208,0.682-0.503,0.994-0.887v-4.481c-0.272-0.331-0.57-0.564-0.891-0.701c-0.322-0.137-0.667-0.204-1.038-0.204
			c-0.364,0-0.693,0.067-0.989,0.204c-0.296,0.137-0.545,0.343-0.75,0.619c-0.205,0.275-0.362,0.626-0.473,1.052
			s-0.166,0.927-0.166,1.505c0,0.585,0.047,1.08,0.141,1.486c0.094,0.405,0.229,0.736,0.404,0.993s0.39,0.441,0.643,0.556
			C409.583,215.118,409.865,215.175,410.177,215.175z"/>
	</g>
	<g>
		<g>
			<path fill-rule="evenodd" clip-rule="evenodd" fill="#ED1C24" d="M312.806,75.843c0.726,0,1.349,0,1.973,0
				c5.49,0,10.977-0.004,16.467,0c5.781,0,11.561-0.054,17.342,0.018c5.114,0.058,8.666,3.642,8.812,8.729
				c0.017,0.563,0.058,1.132,0.096,1.778c3.536,0,6.946,0,10.318,0c0.09-0.199,0.171-0.299,0.179-0.404
				c1.02-9.98-6.87-19.718-16.868-20.565c-3.885-0.33-7.817-0.154-11.728-0.199c-0.679-0.009-1.354-0.004-2.218-0.004
				c0-1.718,0.183-3.199-0.059-4.605c-0.183-1.058-0.679-2.608-1.446-2.912c-2.127-0.843-1.747-2.219-1.428-3.957
				c2.658,0,5.276,0.058,7.895-0.023c1.497-0.045,2.455-1.121,2.376-2.48c-0.082-1.461-0.947-2.189-2.366-2.317
				c-0.115-0.009-0.232-0.013-0.349-0.013c-6.658,0-13.316-0.013-19.975,0.015c-1.594,0.007-2.66,1.049-2.656,2.414
				c0.004,1.361,1.063,2.333,2.677,2.429c0.583,0.039,1.167,0.009,1.75,0.009c1.968,0,3.94,0,6.015,0c0,1.181,0,2.144,0,3.182
				c-2.496,0.537-3.261,2.219-3.054,4.564c0.067,0.753-0.037,1.521,0.021,2.274c0.083,1.051-0.305,1.462-1.389,1.432
				c-2.22-0.062-4.44-0.01-6.656-0.01c-1.901,0.004-3.805,0-5.731,0C312.806,68.868,312.806,72.233,312.806,75.843z M381.348,87.454
				c-0.015,0.208-0.054,0.488-0.05,0.766c0.101,4.546,0.446,9.102,0.251,13.636c-0.328,7.582-1.093,15.137-3.515,22.412
				c-0.284,0.854-0.629,1.209-1.574,1.209c-9.04-0.007-18.078,0.03-27.118,0.081c-1.234,0.009-1.943-0.456-2.202-1.703
				c-0.569-2.734-1.308-5.437-1.785-8.188c-1.528-8.835-2.166-17.726-1.33-26.687c0.055-0.55,0.009-1.106,0.009-1.729
				c-0.58-0.03-0.98-0.058-1.382-0.066c-2.583-0.039-2.668-0.039-2.77,2.475c-0.142,3.614-0.287,7.239-0.18,10.848
				c0.301,9.85,1.776,19.522,4.891,28.896c0.736,2.219,1.709,2.848,4.028,2.848c9.344,0.004,18.692,0.004,28.037,0
				c2.556,0,3.558-0.576,4.224-3.049c1.221-4.552,2.449-9.116,3.304-13.747c1.515-8.238,2.003-16.577,1.458-24.947
				c-0.238-3.618-0.459-3.723-4.069-3.226C381.523,87.292,381.479,87.355,381.348,87.454z M372.826,95.062
				c-0.146-1.051-0.246-2.388-0.542-3.685c-0.281-1.218-1.156-1.911-2.447-1.695c-1.263,0.209-1.932,1.07-1.844,2.352
				c0.099,1.327,0.279,2.653,0.522,3.965c0.256,1.339,1.179,2.037,2.514,1.853C372.4,97.665,372.943,96.684,372.826,95.062z
				 M352.139,120.369c0.609-0.714,1.474-1.34,1.759-2.167c0.408-1.184,0.446-2.506,0.538-3.773c0.097-1.333-0.493-2.298-1.881-2.488
				c-1.367-0.192-2.234,0.507-2.497,1.851c-0.25,1.248-0.471,2.51-0.604,3.774C349.308,118.914,350.442,120.078,352.139,120.369z
				 M357.441,92.176c0.072-1.391-0.579-2.38-2.013-2.504c-1.334-0.122-2.179,0.659-2.376,2.02c-0.188,1.263-0.405,2.527-0.501,3.8
				c-0.091,1.273,0.572,2.157,1.835,2.36c1.368,0.22,2.251-0.531,2.526-1.832C357.18,94.775,357.271,93.496,357.441,92.176z
				 M370.839,114.636c0.247,1.126,0.503,2.491,0.853,3.837c0.33,1.265,1.189,1.808,2.5,1.545c1.399-0.285,1.937-1.211,1.774-2.551
				c-0.148-1.207-0.392-2.401-0.604-3.597c-0.242-1.356-1.04-2.088-2.435-1.925C371.54,112.105,371.046,113.118,370.839,114.636z
				 M355.966,103.043c-0.063-1.014-0.475-2.007-1.809-2.208c-1.36-0.207-2.292,0.407-2.543,1.787
				c-0.246,1.315-0.443,2.647-0.551,3.984c-0.104,1.292,0.56,2.153,1.853,2.333c1.38,0.186,2.246-0.522,2.496-1.873
				C355.636,105.806,355.766,104.524,355.966,103.043z M364.87,95.092c0.006,0,0.01,0,0.01,0c0.002-0.7,0.054-1.404-0.003-2.097
				c-0.118-1.299-0.867-2.033-2.168-2.043c-1.226-0.011-2.049,0.699-2.149,1.877c-0.127,1.5-0.123,3.034,0.026,4.536
				c0.118,1.196,0.979,1.816,2.211,1.77c1.238-0.047,1.945-0.728,2.063-1.945C364.925,96.498,364.87,95.792,364.87,95.092z
				 M374.406,106.548c-0.184-1.279-0.33-2.616-0.571-3.935c-0.242-1.288-1.125-1.93-2.391-1.802
				c-1.291,0.135-1.999,0.993-1.917,2.285c0.084,1.393,0.247,2.792,0.537,4.16c0.262,1.248,1.163,1.872,2.462,1.688
				C373.848,108.756,374.381,107.866,374.406,106.548z M364.859,106.251h-0.013c0-0.702,0.034-1.404-0.008-2.099
				c-0.079-1.251-0.825-1.922-2.022-1.993c-1.22-0.073-2.113,0.604-2.231,1.776c-0.153,1.558-0.146,3.156,0.018,4.714
				c0.127,1.186,1.105,1.994,2.235,1.68c0.782-0.214,1.551-1.07,1.958-1.838C365.111,107.903,364.859,107.013,364.859,106.251z
				 M365.005,116.558c-0.023,0-0.046,0-0.067,0c-0.022-0.462,0.125-1.072-0.117-1.363c-0.58-0.695-1.255-1.585-2.041-1.771
				c-1.128-0.265-2.082,0.558-2.203,1.748c-0.146,1.5-0.142,3.039-0.009,4.543c0.119,1.314,1.062,1.87,2.36,1.797
				c1.255-0.066,1.913-0.674,1.909-1.992C364.837,118.531,364.947,117.545,365.005,116.558z"/>
		</g>
	</g>
	<g>
		<path fill="#FFFFFF" d="M206.617,166.792v1.98c0,0.593-0.068,1.07-0.205,1.435s-0.27,0.67-0.399,0.916l-10.647,20.88
			c-0.221,0.432-0.532,0.799-0.934,1.102c-0.402,0.302-0.948,0.453-1.635,0.453h-3.484l10.9-20.454
			c0.454-0.839,0.96-1.561,1.518-2.165h-13.469c-0.299,0-0.558-0.105-0.778-0.315c-0.221-0.209-0.331-0.456-0.331-0.74v-3.091
			H206.617z"/>
		<path fill="#FFFFFF" d="M222.051,173.271c0,1.012-0.178,1.925-0.535,2.739s-0.834,1.509-1.431,2.083
			c-0.597,0.573-1.292,1.015-2.083,1.323c-0.792,0.309-1.616,0.463-2.472,0.463c-0.934,0-1.797-0.154-2.589-0.463
			s-1.476-0.75-2.053-1.323c-0.578-0.574-1.029-1.269-1.353-2.083s-0.486-1.728-0.486-2.739c0-1.036,0.162-1.975,0.486-2.813
			s0.775-1.549,1.353-2.129c0.577-0.58,1.262-1.027,2.053-1.342s1.655-0.472,2.589-0.472s1.8,0.157,2.599,0.472
			c0.798,0.314,1.489,0.762,2.073,1.342s1.038,1.29,1.363,2.129C221.889,171.296,222.051,172.234,222.051,173.271z M231.414,167.514
			c0.156-0.185,0.351-0.352,0.584-0.5c0.234-0.147,0.558-0.222,0.973-0.222h3.484l-20.905,26.081
			c-0.156,0.197-0.354,0.36-0.594,0.49s-0.529,0.194-0.866,0.194h-3.582L231.414,167.514z M218.333,173.271
			c0-0.716-0.071-1.314-0.214-1.796c-0.143-0.48-0.341-0.869-0.594-1.166c-0.253-0.296-0.552-0.509-0.896-0.639
			c-0.344-0.129-0.71-0.194-1.1-0.194s-0.753,0.065-1.09,0.194c-0.338,0.13-0.63,0.343-0.876,0.639
			c-0.247,0.297-0.438,0.686-0.574,1.166c-0.136,0.481-0.205,1.08-0.205,1.796c0,0.691,0.068,1.268,0.205,1.73
			s0.328,0.836,0.574,1.12c0.246,0.284,0.538,0.487,0.876,0.61c0.337,0.124,0.701,0.186,1.09,0.186s0.756-0.062,1.1-0.186
			c0.344-0.123,0.643-0.326,0.896-0.61s0.451-0.657,0.594-1.12C218.262,174.538,218.333,173.962,218.333,173.271z M237.934,187.264
			c0,1.013-0.178,1.926-0.535,2.74s-0.834,1.509-1.431,2.082c-0.597,0.574-1.291,1.019-2.083,1.333s-1.616,0.472-2.472,0.472
			c-0.934,0-1.797-0.157-2.588-0.472c-0.792-0.314-1.477-0.759-2.054-1.333c-0.578-0.573-1.029-1.268-1.353-2.082
			s-0.486-1.728-0.486-2.74c0-1.036,0.162-1.974,0.486-2.813c0.324-0.839,0.775-1.548,1.353-2.128
			c0.577-0.58,1.262-1.027,2.054-1.343c0.791-0.314,1.654-0.472,2.588-0.472c0.935,0,1.801,0.157,2.599,0.472
			c0.798,0.315,1.489,0.763,2.073,1.343c0.584,0.58,1.038,1.289,1.363,2.128C237.772,185.29,237.934,186.228,237.934,187.264z
			 M234.236,187.264c0-0.715-0.075-1.313-0.224-1.795c-0.149-0.481-0.351-0.87-0.604-1.166s-0.552-0.509-0.895-0.639
			c-0.344-0.13-0.71-0.194-1.1-0.194c-0.389,0-0.752,0.064-1.09,0.194s-0.626,0.343-0.866,0.639
			c-0.24,0.296-0.432,0.685-0.574,1.166c-0.143,0.481-0.214,1.08-0.214,1.795c0,0.691,0.071,1.271,0.214,1.74
			c0.143,0.47,0.334,0.846,0.574,1.129c0.24,0.284,0.529,0.488,0.866,0.611s0.701,0.185,1.09,0.185c0.39,0,0.756-0.062,1.1-0.185
			c0.343-0.123,0.642-0.327,0.895-0.611c0.253-0.283,0.454-0.659,0.604-1.129C234.161,188.535,234.236,187.955,234.236,187.264z"/>
		<path fill="#FFFFFF" d="M162.343,202.852v2.152h-4.238v11.935h-2.621v-11.935h-4.257v-2.152H162.343z"/>
		<path fill="#FFFFFF" d="M162.314,216.938v-9.995h1.413c0.247,0,0.419,0.045,0.516,0.136c0.098,0.091,0.162,0.247,0.195,0.468
			l0.146,1.208c0.357-0.617,0.776-1.104,1.257-1.461s1.02-0.536,1.617-0.536c0.494,0,0.903,0.114,1.228,0.341l-0.312,1.803
			c-0.02,0.117-0.062,0.199-0.127,0.248s-0.152,0.073-0.263,0.073c-0.098,0-0.231-0.022-0.399-0.068
			c-0.169-0.045-0.393-0.068-0.672-0.068c-0.5,0-0.929,0.139-1.286,0.414c-0.357,0.276-0.659,0.681-0.906,1.213v6.226H162.314z"/>
		<path fill="#FFFFFF" d="M177.823,216.938h-1.082c-0.227,0-0.406-0.034-0.536-0.103s-0.228-0.206-0.292-0.414l-0.214-0.711
			c-0.253,0.228-0.501,0.427-0.745,0.6c-0.244,0.172-0.495,0.316-0.755,0.433c-0.26,0.117-0.536,0.205-0.828,0.264
			c-0.292,0.059-0.617,0.088-0.974,0.088c-0.422,0-0.812-0.058-1.169-0.171c-0.357-0.114-0.665-0.285-0.921-0.514
			c-0.257-0.228-0.457-0.512-0.599-0.851c-0.143-0.339-0.214-0.732-0.214-1.183c0-0.378,0.099-0.751,0.297-1.119
			c0.198-0.368,0.527-0.7,0.989-0.997c0.461-0.297,1.075-0.542,1.841-0.738c0.766-0.195,1.718-0.293,2.854-0.293v-0.589
			c0-0.674-0.142-1.173-0.424-1.497c-0.283-0.324-0.693-0.486-1.232-0.486c-0.39,0-0.715,0.046-0.974,0.137
			c-0.26,0.091-0.486,0.193-0.677,0.307c-0.192,0.114-0.369,0.216-0.531,0.308c-0.162,0.091-0.341,0.136-0.536,0.136
			c-0.162,0-0.302-0.042-0.419-0.126c-0.117-0.085-0.211-0.188-0.282-0.312l-0.438-0.77c1.149-1.052,2.536-1.578,4.16-1.578
			c0.584,0,1.106,0.096,1.563,0.287c0.458,0.192,0.846,0.458,1.165,0.799c0.318,0.342,0.56,0.749,0.726,1.223
			c0.166,0.475,0.249,0.994,0.249,1.56V216.938z M173.147,215.438c0.247,0,0.474-0.022,0.682-0.067
			c0.208-0.045,0.404-0.112,0.589-0.201c0.185-0.09,0.364-0.2,0.536-0.331s0.346-0.286,0.521-0.465V212.7
			c-0.702,0-1.288,0.045-1.759,0.133s-0.849,0.201-1.135,0.339c-0.286,0.137-0.489,0.298-0.609,0.48
			c-0.12,0.184-0.18,0.383-0.18,0.599c0,0.425,0.125,0.729,0.375,0.912C172.418,215.347,172.744,215.438,173.147,215.438z"/>
		<path fill="#FFFFFF" d="M180.62,216.938v-8.184l-0.867-0.137c-0.188-0.032-0.339-0.097-0.453-0.194s-0.17-0.233-0.17-0.409v-0.984
			h1.491v-0.74c0-0.571,0.086-1.084,0.258-1.539c0.172-0.454,0.419-0.841,0.741-1.159c0.321-0.318,0.712-0.562,1.174-0.73
			c0.461-0.169,0.98-0.254,1.559-0.254c0.461,0,0.89,0.062,1.286,0.186l-0.049,1.208c-0.013,0.188-0.101,0.306-0.263,0.351
			c-0.162,0.046-0.351,0.068-0.565,0.068c-0.286,0-0.541,0.03-0.765,0.093c-0.224,0.062-0.414,0.169-0.57,0.321
			c-0.156,0.152-0.274,0.354-0.356,0.604c-0.081,0.25-0.122,0.561-0.122,0.931v0.662h2.601v1.715h-2.523v8.193H180.62z"/>
		<path fill="#FFFFFF" d="M187.449,216.938v-8.184l-0.867-0.137c-0.188-0.032-0.339-0.097-0.453-0.194s-0.17-0.233-0.17-0.409
			v-0.984h1.491v-0.321c0-0.61,0.101-1.177,0.302-1.7c0.201-0.522,0.507-0.976,0.916-1.358c0.409-0.384,0.926-0.684,1.549-0.901
			s1.36-0.326,2.211-0.326c0.273,0,0.552,0.015,0.838,0.044c0.286,0.029,0.532,0.076,0.74,0.141l-0.078,1.247
			c-0.013,0.149-0.094,0.239-0.243,0.269c-0.149,0.028-0.335,0.043-0.556,0.043c-0.63,0-1.158,0.056-1.583,0.166
			s-0.77,0.274-1.033,0.492c-0.263,0.218-0.451,0.49-0.565,0.818s-0.17,0.71-0.17,1.145v0.243h6.196v9.908h-2.406v-8.193h-3.711
			v8.193H187.449z"/>
		<path fill="#FFFFFF" d="M205.754,209.057c-0.072,0.092-0.141,0.163-0.209,0.215s-0.167,0.078-0.297,0.078
			c-0.123,0-0.243-0.038-0.36-0.112c-0.117-0.074-0.256-0.159-0.419-0.253c-0.162-0.095-0.355-0.179-0.58-0.254
			c-0.224-0.074-0.501-0.112-0.833-0.112c-0.422,0-0.792,0.077-1.11,0.229c-0.318,0.152-0.583,0.372-0.794,0.657
			c-0.211,0.286-0.369,0.632-0.473,1.038c-0.104,0.405-0.156,0.865-0.156,1.378c0,0.533,0.057,1.007,0.17,1.423
			c0.113,0.416,0.278,0.765,0.492,1.047c0.214,0.283,0.474,0.497,0.779,0.644c0.305,0.146,0.649,0.219,1.033,0.219
			c0.383,0,0.693-0.047,0.93-0.142c0.237-0.094,0.437-0.197,0.599-0.312c0.162-0.113,0.304-0.217,0.424-0.312
			c0.12-0.094,0.255-0.142,0.404-0.142c0.195,0,0.341,0.075,0.438,0.225l0.691,0.877c-0.266,0.312-0.555,0.573-0.867,0.784
			c-0.312,0.211-0.635,0.38-0.97,0.506c-0.334,0.127-0.68,0.217-1.037,0.269c-0.357,0.052-0.711,0.078-1.062,0.078
			c-0.617,0-1.198-0.116-1.744-0.347c-0.545-0.23-1.021-0.566-1.427-1.008c-0.406-0.441-0.727-0.982-0.964-1.622
			c-0.237-0.64-0.355-1.369-0.355-2.188c0-0.733,0.105-1.414,0.316-2.041c0.211-0.626,0.521-1.169,0.931-1.627
			c0.409-0.457,0.916-0.816,1.52-1.076s1.299-0.39,2.085-0.39c0.747,0,1.401,0.12,1.963,0.36c0.562,0.24,1.067,0.585,1.515,1.033
			L205.754,209.057z"/>
		<path fill="#FFFFFF" d="M211.784,216.938v-9.995h1.413c0.247,0,0.419,0.045,0.516,0.136c0.098,0.091,0.162,0.247,0.195,0.468
			l0.146,1.208c0.357-0.617,0.776-1.104,1.257-1.461s1.02-0.536,1.617-0.536c0.494,0,0.903,0.114,1.228,0.341l-0.312,1.803
			c-0.02,0.117-0.062,0.199-0.127,0.248s-0.152,0.073-0.263,0.073c-0.098,0-0.231-0.022-0.399-0.068
			c-0.169-0.045-0.393-0.068-0.672-0.068c-0.5,0-0.929,0.139-1.286,0.414c-0.357,0.276-0.659,0.681-0.906,1.213v6.226H211.784z"/>
		<path fill="#FFFFFF" d="M223.874,206.787c0.63,0,1.209,0.101,1.739,0.302c0.529,0.201,0.985,0.495,1.369,0.882
			s0.682,0.86,0.896,1.423c0.214,0.562,0.322,1.203,0.322,1.924c0,0.182-0.008,0.333-0.024,0.453s-0.045,0.214-0.088,0.282
			c-0.042,0.068-0.099,0.117-0.17,0.146s-0.162,0.044-0.272,0.044h-6.177c0.071,1.025,0.348,1.779,0.828,2.26
			s1.117,0.721,1.91,0.721c0.39,0,0.726-0.045,1.008-0.136c0.282-0.091,0.529-0.192,0.74-0.303s0.396-0.211,0.555-0.302
			s0.313-0.137,0.463-0.137c0.097,0,0.182,0.02,0.253,0.059c0.071,0.039,0.133,0.095,0.185,0.166l0.701,0.877
			c-0.266,0.312-0.565,0.573-0.896,0.784c-0.332,0.211-0.677,0.38-1.038,0.506c-0.36,0.127-0.728,0.217-1.101,0.269
			s-0.735,0.078-1.086,0.078c-0.695,0-1.341-0.116-1.939-0.347s-1.117-0.571-1.559-1.022c-0.442-0.451-0.789-1.01-1.042-1.676
			s-0.38-1.437-0.38-2.313c0-0.682,0.11-1.323,0.331-1.924c0.221-0.602,0.538-1.124,0.95-1.569c0.412-0.444,0.916-0.797,1.51-1.057
			S223.126,206.787,223.874,206.787z M223.922,208.512c-0.702,0-1.25,0.198-1.646,0.594c-0.396,0.396-0.649,0.958-0.76,1.686h4.521
			c0-0.312-0.042-0.605-0.127-0.882c-0.084-0.275-0.214-0.518-0.39-0.726s-0.396-0.372-0.663-0.492
			C224.591,208.571,224.279,208.512,223.922,208.512z"/>
		<path fill="#FFFFFF" d="M232.719,202.462v14.477h-2.406v-14.477H232.719z"/>
		<path fill="#FFFFFF" d="M243.27,216.938h-1.082c-0.227,0-0.406-0.034-0.536-0.103s-0.228-0.206-0.292-0.414l-0.214-0.711
			c-0.253,0.228-0.501,0.427-0.745,0.6c-0.244,0.172-0.495,0.316-0.755,0.433c-0.26,0.117-0.536,0.205-0.828,0.264
			c-0.292,0.059-0.617,0.088-0.974,0.088c-0.422,0-0.812-0.058-1.169-0.171c-0.357-0.114-0.665-0.285-0.921-0.514
			c-0.257-0.228-0.457-0.512-0.599-0.851c-0.143-0.339-0.214-0.732-0.214-1.183c0-0.378,0.099-0.751,0.297-1.119
			c0.198-0.368,0.527-0.7,0.989-0.997c0.461-0.297,1.075-0.542,1.841-0.738c0.766-0.195,1.718-0.293,2.854-0.293v-0.589
			c0-0.674-0.142-1.173-0.424-1.497c-0.283-0.324-0.693-0.486-1.232-0.486c-0.39,0-0.715,0.046-0.974,0.137
			c-0.26,0.091-0.486,0.193-0.677,0.307c-0.192,0.114-0.369,0.216-0.531,0.308c-0.162,0.091-0.341,0.136-0.536,0.136
			c-0.162,0-0.302-0.042-0.419-0.126c-0.117-0.085-0.211-0.188-0.282-0.312l-0.438-0.77c1.149-1.052,2.536-1.578,4.16-1.578
			c0.584,0,1.106,0.096,1.563,0.287c0.458,0.192,0.846,0.458,1.165,0.799c0.318,0.342,0.56,0.749,0.726,1.223
			c0.166,0.475,0.249,0.994,0.249,1.56V216.938z M238.593,215.438c0.247,0,0.474-0.022,0.682-0.067
			c0.208-0.045,0.404-0.112,0.589-0.201c0.185-0.09,0.364-0.2,0.536-0.331s0.346-0.286,0.521-0.465V212.7
			c-0.702,0-1.288,0.045-1.759,0.133s-0.849,0.201-1.135,0.339c-0.286,0.137-0.489,0.298-0.609,0.48
			c-0.12,0.184-0.18,0.383-0.18,0.599c0,0.425,0.125,0.729,0.375,0.912C237.864,215.347,238.19,215.438,238.593,215.438z"/>
		<path fill="#FFFFFF" d="M248.92,217.095c-0.864,0-1.529-0.245-1.997-0.736c-0.467-0.49-0.701-1.167-0.701-2.031v-5.582h-1.013
			c-0.13,0-0.242-0.042-0.336-0.127c-0.094-0.084-0.141-0.211-0.141-0.38v-0.954l1.607-0.264l0.507-2.728
			c0.026-0.13,0.086-0.23,0.18-0.302c0.094-0.071,0.212-0.107,0.355-0.107h1.247v3.146h2.63v1.715h-2.63v5.417
			c0,0.312,0.078,0.555,0.234,0.73c0.156,0.176,0.363,0.263,0.624,0.263c0.149,0,0.274-0.018,0.375-0.053
			c0.101-0.036,0.188-0.073,0.263-0.112s0.142-0.076,0.2-0.112c0.059-0.035,0.117-0.054,0.176-0.054c0.071,0,0.13,0.019,0.175,0.054
			c0.045,0.036,0.094,0.09,0.146,0.161l0.721,1.169c-0.351,0.292-0.753,0.513-1.208,0.662S249.407,217.095,248.92,217.095z"/>
		<path fill="#FFFFFF" d="M257.308,206.787c0.63,0,1.209,0.101,1.739,0.302c0.529,0.201,0.985,0.495,1.369,0.882
			s0.682,0.86,0.896,1.423c0.214,0.562,0.322,1.203,0.322,1.924c0,0.182-0.008,0.333-0.024,0.453s-0.045,0.214-0.088,0.282
			c-0.042,0.068-0.099,0.117-0.17,0.146s-0.162,0.044-0.272,0.044h-6.177c0.071,1.025,0.348,1.779,0.828,2.26
			s1.117,0.721,1.91,0.721c0.39,0,0.726-0.045,1.008-0.136c0.282-0.091,0.529-0.192,0.74-0.303s0.396-0.211,0.555-0.302
			s0.313-0.137,0.463-0.137c0.097,0,0.182,0.02,0.253,0.059c0.071,0.039,0.133,0.095,0.185,0.166l0.701,0.877
			c-0.266,0.312-0.565,0.573-0.896,0.784c-0.332,0.211-0.677,0.38-1.038,0.506c-0.36,0.127-0.728,0.217-1.101,0.269
			s-0.735,0.078-1.086,0.078c-0.695,0-1.341-0.116-1.939-0.347s-1.117-0.571-1.559-1.022c-0.442-0.451-0.789-1.01-1.042-1.676
			s-0.38-1.437-0.38-2.313c0-0.682,0.11-1.323,0.331-1.924c0.221-0.602,0.538-1.124,0.95-1.569c0.412-0.444,0.916-0.797,1.51-1.057
			S256.561,206.787,257.308,206.787z M257.356,208.512c-0.702,0-1.25,0.198-1.646,0.594c-0.396,0.396-0.649,0.958-0.76,1.686h4.521
			c0-0.312-0.042-0.605-0.127-0.882c-0.084-0.275-0.214-0.518-0.39-0.726s-0.396-0.372-0.663-0.492
			C258.025,208.571,257.713,208.512,257.356,208.512z"/>
		<path fill="#FFFFFF" d="M270.625,216.938c-0.312,0-0.517-0.146-0.614-0.438l-0.195-0.965c-0.208,0.234-0.425,0.445-0.653,0.634
			s-0.473,0.351-0.735,0.487c-0.263,0.136-0.546,0.242-0.848,0.316c-0.302,0.074-0.628,0.112-0.979,0.112
			c-0.546,0-1.046-0.114-1.5-0.342c-0.455-0.227-0.846-0.557-1.174-0.988c-0.328-0.432-0.582-0.966-0.76-1.603
			c-0.179-0.637-0.268-1.364-0.268-2.183c0-0.74,0.101-1.429,0.302-2.065c0.201-0.636,0.49-1.188,0.867-1.656
			c0.377-0.467,0.828-0.833,1.354-1.096c0.526-0.263,1.117-0.395,1.773-0.395c0.559,0,1.036,0.09,1.432,0.268
			c0.396,0.179,0.75,0.418,1.062,0.717v-5.28h2.407v14.477H270.625z M267.42,215.175c0.5,0,0.925-0.104,1.276-0.312
			c0.351-0.208,0.682-0.503,0.994-0.887v-4.481c-0.272-0.331-0.57-0.564-0.891-0.701c-0.322-0.137-0.667-0.204-1.038-0.204
			c-0.364,0-0.693,0.067-0.989,0.204c-0.296,0.137-0.545,0.343-0.75,0.619c-0.205,0.275-0.362,0.626-0.473,1.052
			s-0.166,0.927-0.166,1.505c0,0.585,0.047,1.08,0.141,1.486c0.094,0.405,0.229,0.736,0.404,0.993s0.39,0.441,0.643,0.556
			C266.826,215.118,267.108,215.175,267.42,215.175z"/>
	</g>
	<g>
		<g>
			<path fill-rule="evenodd" clip-rule="evenodd" fill="#ED1C24" d="M177.737,90.484c0-1.124,0-2.033,0-3.136
				c2.744,0.128,5.423,0.26,8.117,0.391c0-2.742,0.339-5.383-0.09-7.893c-0.423-2.481-1.617-4.821-2.526-7.362
				c2.239,0,4.313,0,6.733,0c-1.978,4.87-3.835,9.707-2.644,15.245c2.564-0.126,5.25-0.253,8.072-0.387c0,1.013,0,1.954,0,3.134
				c-2.662,0.154-5.394,0.314-8.235,0.487c0,0.913,0,1.807,0,2.765c2.741,0,5.467,0,8.282,0c0,0.874,0,1.778,0,2.943
				c-2.704,0.155-5.436,0.317-8.279,0.482c0,1.018,0,2.018,0,3.319c2.605-0.216,5.175-0.433,7.973-0.662c0,0.858,0,1.706,0,2.554
				c0,7.939,0,15.876-0.002,23.82c0,0.457,0.01,0.923-0.041,1.381c-0.232,2.229-1.842,3.69-3.991,3.644
				c-2.125-0.043-3.766-1.605-3.796-3.839c-0.063-4.564-0.021-9.135-0.021-13.699c0-3.584,0-7.169,0-10.794
				c-1.385-0.626-1.44,0.191-1.44,1.169c0.01,7.592,0.013,15.179,0.002,22.775c-0.002,2.551-1.386,4.223-3.562,4.378
				c-2.523,0.18-4.248-1.531-4.261-4.312c-0.017-6.875-0.002-13.752-0.002-20.628c0-2.144,0-4.288,0-6.46
				c2.691,0.24,5.225,0.461,7.906,0.699c0-1.207,0-2.234,0-3.355c-2.716-0.149-5.406-0.296-8.172-0.446c0-1.1,0-2.043,0-3.143
				c2.753,0.131,5.437,0.25,8.214,0.381c0-1.08,0-1.979,0-2.972C183.255,90.801,180.563,90.651,177.737,90.484z"/>
			<path fill-rule="evenodd" clip-rule="evenodd" fill="#ED1C24" d="M236.982,86.379c-9.83,0-19.401,0-29.142,0
				c0-1.763-0.005-3.445,0.002-5.123c0-0.149,0.005-0.386,0.098-0.435c2.196-1.181,2.302-3.587,2.837-5.51
				c0.966-3.479,2.671-5.046,6.464-5.416c4.841-0.471,9.507-0.036,14.209,0.762c0.415,0.069,0.894,0.634,1.069,1.08
				c0.992,2.471,1.868,4.986,2.855,7.459c0.205,0.519,0.715,0.905,1.069,1.366c0.196,0.258,0.501,0.538,0.512,0.814
				C237.004,83.004,236.982,84.64,236.982,86.379z M232.98,79.375c-0.773-2.069-1.479-4.038-2.268-5.97
				c-0.132-0.333-0.62-0.649-0.99-0.729c-4.866-1.064-9.744-1.08-14.611-0.021c-0.364,0.077-0.875,0.278-0.984,0.554
				c-0.808,2.013-1.541,4.062-2.319,6.162c3.655-0.307,7.11-0.83,10.562-0.83C225.828,78.541,229.284,79.063,232.98,79.375z
				 M232.696,81.427c-1.156,0.111-1.87,0.745-1.878,1.857c-0.01,1.126,0.701,1.858,1.831,1.858c1.117,0,1.835-0.688,1.845-1.837
				C234.51,82.146,233.777,81.573,232.696,81.427z M210.265,83.179c0.04,1.206,0.668,1.915,1.786,1.954
				c1.112,0.046,1.859-0.637,1.904-1.766c0.043-1.137-0.647-1.858-1.772-1.904C211.061,81.421,210.396,82.081,210.265,83.179z"/>
			<path fill-rule="evenodd" clip-rule="evenodd" fill="#ED1C24" d="M179.502,63.188c0.494-1.392-0.688-2.124-1.527-2.963
				c-0.732-0.727-0.863-1.34-0.549-2.404c0.705-2.35,2.243-3.489,4.374-4.61c3.358-1.763,6.387-1.963,9.542,0.116
				c1.145,0.752,2.732,0.683,3.475,2.25c1.041,2.219,1.731,4.198-0.774,5.94c-0.339,0.234-0.348,1.095-0.339,1.662
				c0.091,4.141-3.04,7.431-7.131,7.444C182.552,70.632,179.427,67.409,179.502,63.188z M193.345,60.462
				c-0.379-1.608-2.311-2.312-6.46-2.361c-4.375-0.051-6.66,0.704-7.087,2.361C184.292,58.593,188.773,58.568,193.345,60.462z
				 M184.252,55.125c2.359,1.631,2.713,1.621,4.641-0.052C187.422,53.362,185.756,53.28,184.252,55.125z"/>
			<path fill-rule="evenodd" clip-rule="evenodd" fill="#ED1C24" d="M193.832,72.575c2.282,0.487,3.77,1.905,4.938,3.696
				c2.017,3.089,2.888,6.604,3.136,10.184c0.314,4.394,0.304,8.811,0.259,13.209c-0.013,0.879-0.613,2.033-1.312,2.551
				c-1.633,1.201-3.724-0.211-3.732-2.386c-0.01-3.489,0.177-6.983-0.061-10.452c-0.183-2.631-0.445-5.425-1.475-7.798
				c-1.181-2.721-1.289-5.515-1.8-8.285C193.75,73.104,193.806,72.897,193.832,72.575z"/>
			<path fill-rule="evenodd" clip-rule="evenodd" fill="#ED1C24" d="M179.432,72.755c-0.59,2.827-0.37,5.741-1.781,8.512
				c-0.921,1.809-1.252,4.027-1.387,6.094c-0.259,3.933-0.251,7.88-0.232,11.82c0.016,2.095-0.736,3.345-2.407,3.409
				c-1.622,0.064-2.606-1.022-2.676-3.033c-0.219-6.051-0.473-12.135,1.263-18.015c0.662-2.255,1.813-4.453,3.137-6.406
				c0.812-1.196,2.381-1.878,3.61-2.796C179.115,72.479,179.274,72.616,179.432,72.755z"/>
			<path fill-rule="evenodd" clip-rule="evenodd" fill="#ED1C24" d="M239.778,96.253c2.268-0.592,3.79,0.153,5.305,1.688
				c6.223,6.311,12.569,12.498,18.88,18.724c0.249,0.245,0.532,0.451,0.678,1.039c-2.264,0-4.533,0.025-6.796-0.036
				c-0.323-0.005-0.709-0.361-0.956-0.657c-5.601-6.729-11.194-13.478-16.783-20.218C239.989,96.646,239.906,96.47,239.778,96.253z"
				/>
			<path fill-rule="evenodd" clip-rule="evenodd" fill="#ED1C24" d="M232.633,96.22c2.121-0.487,3.574-0.025,4.85,2.066
				c3.929,6.458,8.131,12.753,12.426,19.407c-2.562,0-4.873,0.026-7.175-0.031c-0.244-0.005-0.562-0.407-0.694-0.693
				c-3.161-6.813-6.294-13.637-9.425-20.458C232.578,96.435,232.623,96.318,232.633,96.22z"/>
			<path fill-rule="evenodd" clip-rule="evenodd" fill="#ED1C24" d="M197.075,117.719c3.671-5.729,7.152-11.152,10.632-16.58
				c0.551-0.863,1.114-1.716,1.669-2.582c1.7-2.644,1.7-2.644,4.961-2.389c-0.071,0.291-0.091,0.587-0.207,0.843
				c-3.01,6.558-6.005,13.116-9.083,19.644c-0.23,0.487-1.011,0.984-1.559,1.013C201.454,117.789,199.401,117.719,197.075,117.719z"
				/>
			<path fill-rule="evenodd" clip-rule="evenodd" fill="#ED1C24" d="M212.144,117.719c2.038-7.39,3.994-14.477,5.947-21.556
				c1.248,0,2.354,0,3.6,0c-0.419,4.525-0.826,8.952-1.233,13.377c-0.211,2.293-0.452,4.589-0.61,6.888
				c-0.057,0.959-0.387,1.346-1.388,1.312C216.418,117.668,214.372,117.719,212.144,117.719z"/>
			<path fill-rule="evenodd" clip-rule="evenodd" fill="#ED1C24" d="M234.706,117.64c-2.544,0-4.925,0-7.435,0
				c-0.673-7.172-1.336-14.271-2.019-21.556c1.108,0,2.029-0.09,2.918,0.043c0.351,0.057,0.8,0.559,0.913,0.941
				c0.939,3.188,1.815,6.396,2.696,9.599c0.917,3.34,1.839,6.684,2.75,10.027C234.597,116.936,234.624,117.186,234.706,117.64z"/>
			<path fill-rule="evenodd" clip-rule="evenodd" fill="#ED1C24" d="M236.972,87.165c-0.126,0.946,0.564,1.959-0.924,2.317
				c-0.216,0.054-0.074,1.334-0.201,2.028c-0.126,0.708-0.249,1.901-0.613,1.997c-1.037,0.273-2.192,0.183-3.284,0.047
				c-0.253-0.036-0.542-0.805-0.587-1.255c-0.096-0.915-0.027-1.843-0.027-2.884c-5.947,0-11.807,0-17.895,0
				c0,0.84-0.048,1.693,0.008,2.536c0.085,1.301-0.435,1.858-1.778,1.863c-2.624,0.016-2.751-0.08-2.796-2.721
				c-0.016-0.714,0.416-1.631-0.829-1.981c-0.238-0.067-0.176-1.19-0.267-1.946C217.559,87.165,227.165,87.165,236.972,87.165z"/>
			<path fill-rule="evenodd" clip-rule="evenodd" fill="#ED1C24" d="M177.659,85.704c2.042-0.31,3.892-0.874,4.291-3.242
				c-0.95-0.662-1.726-3.716-0.987-4.564c0.331-0.386,1.177-0.438,1.797-0.433c0.342,0,0.881,0.351,1,0.667
				c0.898,2.415-2.057,7.813-4.595,7.955c-0.466,0.023-0.936,0.07-1.4,0.104C177.73,86.031,177.694,85.866,177.659,85.704z"/>
			<path fill-rule="evenodd" clip-rule="evenodd" fill="#ED1C24" d="M227.146,73.043c1.427,0.013,2.61,1.261,2.576,2.706
				c-0.043,1.41-1.148,2.489-2.576,2.505c-1.495,0.011-2.659-1.121-2.652-2.585C224.5,74.213,225.705,73.023,227.146,73.043z"/>
		</g>
	</g>
	<g>
		<path fill="#FFFFFF" d="M23.48,169.867c1.297,0,2.469,0.176,3.513,0.527s1.937,0.84,2.676,1.462
			c0.74,0.624,1.308,1.354,1.703,2.194c0.396,0.839,0.594,1.746,0.594,2.721c0,0.852-0.101,1.601-0.302,2.249
			c-0.201,0.647-0.493,1.212-0.875,1.693c-0.383,0.481-0.85,0.889-1.402,1.222c-0.551,0.333-1.177,0.611-1.878,0.833
			c1.687,0.506,2.945,1.277,3.776,2.313c0.83,1.037,1.246,2.339,1.246,3.906c0,1.332-0.26,2.511-0.778,3.535
			c-0.519,1.024-1.22,1.885-2.102,2.582c-0.883,0.697-1.905,1.225-3.066,1.583c-1.161,0.357-2.391,0.536-3.688,0.536
			c-1.415,0-2.647-0.154-3.698-0.463c-1.051-0.308-1.966-0.765-2.744-1.369c-0.779-0.604-1.44-1.345-1.985-2.222
			c-0.545-0.876-1.012-1.888-1.401-3.035l2.122-0.833c0.363-0.148,0.733-0.223,1.109-0.223c0.337,0,0.639,0.068,0.905,0.204
			s0.47,0.333,0.613,0.592c0.233,0.433,0.49,0.858,0.769,1.277c0.279,0.42,0.613,0.793,1.002,1.12
			c0.389,0.327,0.847,0.593,1.372,0.796c0.525,0.204,1.151,0.306,1.878,0.306c0.817,0,1.531-0.127,2.141-0.38
			c0.609-0.253,1.119-0.583,1.528-0.99s0.713-0.86,0.915-1.36s0.302-1.002,0.302-1.509c0-0.642-0.071-1.225-0.214-1.749
			c-0.143-0.524-0.441-0.972-0.896-1.342s-1.106-0.66-1.956-0.87c-0.85-0.21-1.989-0.314-3.416-0.314v-3.276
			c1.181,0,2.161-0.099,2.939-0.296c0.779-0.197,1.398-0.473,1.859-0.824c0.46-0.352,0.782-0.774,0.963-1.268
			s0.272-1.037,0.272-1.629c0-1.271-0.363-2.23-1.09-2.879c-0.727-0.647-1.72-0.972-2.978-0.972c-1.142,0-2.089,0.287-2.842,0.86
			s-1.278,1.31-1.577,2.209c-0.156,0.469-0.37,0.805-0.642,1.008s-0.63,0.305-1.071,0.305c-0.208,0-0.428-0.018-0.662-0.055
			l-2.53-0.419c0.194-1.283,0.571-2.41,1.129-3.379c0.558-0.969,1.255-1.777,2.092-2.426c0.837-0.647,1.797-1.136,2.881-1.463
			C21.07,170.031,22.235,169.867,23.48,169.867z"/>
		<path fill="#FFFFFF" d="M55.226,170.163v1.98c0,0.593-0.068,1.071-0.204,1.435c-0.136,0.364-0.27,0.67-0.399,0.916l-10.647,20.88
			c-0.221,0.432-0.532,0.799-0.935,1.102c-0.402,0.302-0.947,0.453-1.635,0.453h-3.484l10.9-20.453
			c0.454-0.84,0.96-1.562,1.518-2.166H36.872c-0.299,0-0.558-0.104-0.779-0.314s-0.331-0.457-0.331-0.74v-3.092H55.226z"/>
		<path fill="#FFFFFF" d="M57.892,194.411c0-0.382,0.075-0.746,0.224-1.092c0.149-0.346,0.357-0.642,0.623-0.889
			c0.266-0.247,0.581-0.444,0.944-0.592c0.363-0.148,0.752-0.223,1.168-0.223c0.402,0,0.785,0.074,1.148,0.223
			c0.363,0.147,0.674,0.345,0.934,0.592s0.467,0.543,0.623,0.889s0.233,0.71,0.233,1.092c0,0.396-0.078,0.763-0.233,1.102
			c-0.156,0.34-0.363,0.633-0.623,0.879c-0.26,0.247-0.571,0.441-0.934,0.583c-0.363,0.143-0.746,0.213-1.148,0.213
			c-0.416,0-0.805-0.07-1.168-0.213c-0.363-0.142-0.678-0.336-0.944-0.583c-0.266-0.246-0.474-0.539-0.623-0.879
			C57.967,195.174,57.892,194.807,57.892,194.411z"/>
		<path fill="#FFFFFF" d="M84.48,172.106c0,0.654-0.217,1.185-0.652,1.592c-0.435,0.407-1.158,0.611-2.17,0.611h-7.747l-1.012,5.59
			c1.271-0.247,2.433-0.37,3.484-0.37c1.479,0,2.78,0.21,3.903,0.629c1.122,0.42,2.066,1,2.832,1.74
			c0.766,0.74,1.343,1.607,1.732,2.601c0.389,0.994,0.583,2.064,0.583,3.212c0,1.419-0.263,2.715-0.788,3.887
			c-0.525,1.173-1.255,2.175-2.19,3.008c-0.934,0.833-2.041,1.479-3.318,1.935c-1.278,0.456-2.67,0.685-4.175,0.685
			c-0.882,0-1.719-0.086-2.511-0.259s-1.535-0.404-2.229-0.694c-0.694-0.29-1.337-0.623-1.927-0.999
			c-0.59-0.377-1.119-0.774-1.586-1.194l1.479-1.943c0.312-0.42,0.727-0.63,1.246-0.63c0.324,0,0.652,0.1,0.983,0.297
			c0.331,0.197,0.717,0.413,1.158,0.647c0.441,0.234,0.954,0.45,1.538,0.647c0.584,0.198,1.291,0.297,2.122,0.297
			c0.882,0,1.661-0.136,2.336-0.407c0.674-0.271,1.236-0.651,1.684-1.139s0.785-1.067,1.012-1.74
			c0.227-0.672,0.341-1.403,0.341-2.193c0-1.456-0.445-2.594-1.333-3.415c-0.889-0.82-2.196-1.23-3.922-1.23
			c-1.363,0-2.732,0.234-4.107,0.703l-2.998-0.814l2.335-12.994H84.48V172.106z"/>
		<path fill="#FFFFFF" d="M101.997,176.642c0,1.012-0.179,1.925-0.535,2.739c-0.357,0.814-0.834,1.509-1.431,2.083
			c-0.597,0.573-1.292,1.015-2.083,1.323s-1.615,0.463-2.472,0.463c-0.935,0-1.797-0.154-2.589-0.463s-1.476-0.75-2.053-1.323
			c-0.578-0.574-1.029-1.269-1.353-2.083s-0.486-1.728-0.486-2.739c0-1.036,0.162-1.974,0.486-2.813
			c0.324-0.839,0.775-1.549,1.353-2.129c0.577-0.579,1.262-1.027,2.053-1.342s1.654-0.472,2.589-0.472
			c0.934,0,1.8,0.157,2.599,0.472c0.798,0.314,1.489,0.763,2.073,1.342c0.584,0.58,1.038,1.29,1.362,2.129
			C101.834,174.668,101.997,175.605,101.997,176.642z M111.359,170.885c0.156-0.185,0.35-0.352,0.584-0.499
			c0.233-0.148,0.558-0.223,0.973-0.223h3.484l-20.904,26.081c-0.156,0.197-0.354,0.36-0.594,0.49
			c-0.24,0.13-0.529,0.194-0.866,0.194h-3.582L111.359,170.885z M98.279,176.642c0-0.716-0.071-1.314-0.214-1.795
			c-0.143-0.481-0.341-0.87-0.594-1.167c-0.253-0.296-0.552-0.509-0.896-0.638c-0.344-0.13-0.71-0.194-1.1-0.194
			s-0.753,0.064-1.09,0.194c-0.338,0.129-0.63,0.342-0.876,0.638c-0.247,0.297-0.438,0.686-0.574,1.167
			c-0.136,0.48-0.205,1.079-0.205,1.795c0,0.691,0.068,1.269,0.205,1.73c0.136,0.463,0.328,0.837,0.574,1.12
			c0.246,0.284,0.538,0.487,0.876,0.611c0.337,0.123,0.701,0.185,1.09,0.185s0.756-0.062,1.1-0.185
			c0.344-0.124,0.643-0.327,0.896-0.611c0.253-0.283,0.451-0.657,0.594-1.12C98.208,177.91,98.279,177.333,98.279,176.642z
			 M117.88,190.636c0,1.012-0.179,1.925-0.535,2.739c-0.357,0.814-0.834,1.509-1.431,2.082c-0.597,0.574-1.292,1.019-2.083,1.333
			s-1.615,0.472-2.472,0.472c-0.935,0-1.797-0.157-2.589-0.472s-1.476-0.759-2.053-1.333c-0.578-0.573-1.029-1.268-1.353-2.082
			s-0.486-1.728-0.486-2.739c0-1.037,0.162-1.975,0.486-2.813c0.324-0.84,0.775-1.549,1.353-2.129
			c0.577-0.58,1.262-1.027,2.053-1.342c0.792-0.315,1.654-0.473,2.589-0.473c0.934,0,1.8,0.157,2.598,0.473
			c0.798,0.314,1.489,0.762,2.073,1.342s1.038,1.289,1.362,2.129C117.717,188.661,117.88,189.599,117.88,190.636z M114.182,190.636
			c0-0.716-0.075-1.314-0.224-1.796c-0.149-0.481-0.35-0.87-0.603-1.166s-0.552-0.509-0.896-0.639s-0.71-0.194-1.1-0.194
			s-0.753,0.064-1.09,0.194c-0.338,0.13-0.626,0.343-0.866,0.639c-0.24,0.296-0.432,0.685-0.574,1.166
			c-0.143,0.481-0.214,1.08-0.214,1.796c0,0.69,0.071,1.271,0.214,1.739c0.143,0.47,0.334,0.846,0.574,1.129
			c0.24,0.284,0.528,0.488,0.866,0.611c0.337,0.123,0.701,0.185,1.09,0.185s0.756-0.062,1.1-0.185s0.643-0.327,0.896-0.611
			c0.253-0.283,0.454-0.659,0.603-1.129C114.107,191.906,114.182,191.326,114.182,190.636z"/>
		<path fill="#FFFFFF" d="M42.96,208.782c-0.071,0.143-0.154,0.243-0.248,0.302c-0.094,0.059-0.206,0.088-0.336,0.088
			c-0.13,0-0.276-0.05-0.438-0.151c-0.163-0.101-0.354-0.212-0.575-0.336c-0.221-0.123-0.479-0.235-0.774-0.336
			s-0.645-0.15-1.047-0.15c-0.364,0-0.68,0.043-0.95,0.131s-0.497,0.21-0.682,0.365c-0.185,0.156-0.323,0.343-0.414,0.561
			s-0.136,0.456-0.136,0.716c0,0.331,0.092,0.607,0.277,0.828s0.43,0.409,0.735,0.564c0.305,0.156,0.653,0.296,1.042,0.419
			s0.787,0.255,1.193,0.395s0.804,0.302,1.193,0.487c0.39,0.185,0.737,0.418,1.042,0.701c0.305,0.282,0.55,0.628,0.735,1.037
			s0.278,0.905,0.278,1.49c0,0.637-0.109,1.232-0.327,1.787c-0.217,0.556-0.536,1.039-0.954,1.451
			c-0.419,0.412-0.93,0.737-1.534,0.975c-0.604,0.236-1.295,0.355-2.075,0.355c-0.448,0-0.89-0.044-1.325-0.132
			s-0.852-0.213-1.251-0.375s-0.773-0.357-1.12-0.584c-0.347-0.228-0.657-0.48-0.93-0.76l0.76-1.257
			c0.071-0.091,0.157-0.167,0.258-0.229c0.101-0.062,0.212-0.093,0.336-0.093c0.162,0,0.337,0.066,0.526,0.199
			c0.188,0.134,0.411,0.281,0.667,0.443c0.257,0.162,0.559,0.311,0.906,0.443c0.348,0.133,0.765,0.199,1.252,0.199
			c0.747,0,1.324-0.177,1.733-0.53c0.409-0.354,0.614-0.862,0.614-1.524c0-0.37-0.093-0.672-0.278-0.906
			c-0.185-0.233-0.43-0.43-0.735-0.589s-0.652-0.294-1.042-0.404s-0.786-0.23-1.188-0.36c-0.403-0.13-0.799-0.286-1.188-0.468
			s-0.737-0.419-1.042-0.711c-0.306-0.292-0.55-0.657-0.735-1.096s-0.278-0.979-0.278-1.622c0-0.513,0.102-1.013,0.307-1.499
			c0.205-0.487,0.503-0.919,0.896-1.296c0.393-0.377,0.875-0.679,1.446-0.906c0.571-0.227,1.224-0.341,1.958-0.341
			c0.831,0,1.597,0.13,2.299,0.39c0.701,0.26,1.298,0.624,1.792,1.091L42.96,208.782z"/>
		<path fill="#FFFFFF" d="M52.749,212.425c-0.071,0.091-0.141,0.163-0.209,0.215c-0.068,0.052-0.167,0.077-0.297,0.077
			c-0.124,0-0.244-0.037-0.36-0.111c-0.117-0.075-0.257-0.159-0.419-0.254c-0.163-0.094-0.355-0.178-0.58-0.253
			c-0.224-0.074-0.501-0.112-0.833-0.112c-0.422,0-0.792,0.077-1.11,0.229c-0.318,0.152-0.583,0.372-0.794,0.657
			c-0.211,0.286-0.369,0.632-0.472,1.037c-0.104,0.406-0.156,0.865-0.156,1.379c0,0.532,0.057,1.006,0.17,1.422
			c0.114,0.415,0.278,0.765,0.492,1.047s0.474,0.497,0.779,0.643c0.305,0.146,0.649,0.22,1.032,0.22c0.383,0,0.693-0.048,0.93-0.142
			c0.237-0.094,0.437-0.198,0.599-0.312c0.162-0.113,0.303-0.218,0.423-0.312c0.12-0.095,0.255-0.142,0.404-0.142
			c0.195,0,0.341,0.074,0.438,0.224l0.691,0.877c-0.266,0.312-0.555,0.573-0.867,0.784c-0.312,0.211-0.635,0.38-0.969,0.507
			c-0.334,0.126-0.68,0.216-1.037,0.268c-0.357,0.052-0.711,0.078-1.062,0.078c-0.617,0-1.198-0.116-1.743-0.346
			c-0.545-0.23-1.021-0.566-1.427-1.009c-0.406-0.441-0.728-0.981-0.964-1.621c-0.237-0.64-0.355-1.369-0.355-2.187
			c0-0.734,0.105-1.414,0.316-2.041s0.521-1.169,0.93-1.627c0.409-0.457,0.916-0.816,1.52-1.076c0.604-0.26,1.298-0.39,2.084-0.39
			c0.747,0,1.401,0.12,1.963,0.36c0.562,0.24,1.066,0.585,1.515,1.033L52.749,212.425z"/>
		<path fill="#FFFFFF" d="M55.018,220.305v-14.474h2.406v5.562c0.39-0.37,0.818-0.669,1.286-0.896
			c0.468-0.227,1.016-0.341,1.646-0.341c0.545,0,1.029,0.093,1.451,0.278c0.422,0.185,0.774,0.444,1.057,0.778
			c0.282,0.335,0.497,0.734,0.643,1.198c0.146,0.465,0.219,0.976,0.219,1.534v6.36H61.32v-6.36c0-0.61-0.141-1.083-0.424-1.417
			c-0.282-0.334-0.706-0.502-1.271-0.502c-0.416,0-0.805,0.095-1.169,0.283c-0.363,0.188-0.708,0.444-1.032,0.769v7.228H55.018z"/>
		<path fill="#FFFFFF" d="M70.358,210.155c0.747,0,1.423,0.12,2.031,0.36c0.607,0.24,1.125,0.582,1.554,1.023
			c0.428,0.441,0.759,0.98,0.993,1.616c0.234,0.637,0.351,1.348,0.351,2.134c0,0.792-0.117,1.506-0.351,2.143
			c-0.234,0.636-0.565,1.179-0.993,1.626c-0.429,0.448-0.947,0.793-1.554,1.033c-0.607,0.239-1.284,0.36-2.031,0.36
			s-1.425-0.121-2.036-0.36c-0.61-0.24-1.131-0.585-1.563-1.033c-0.432-0.447-0.766-0.99-1.003-1.626
			c-0.237-0.637-0.355-1.351-0.355-2.143c0-0.786,0.118-1.497,0.355-2.134c0.237-0.636,0.571-1.175,1.003-1.616
			c0.432-0.441,0.953-0.783,1.563-1.023S69.612,210.155,70.358,210.155z M70.358,218.601c0.831,0,1.446-0.279,1.846-0.838
			s0.599-1.377,0.599-2.455c0-1.077-0.2-1.898-0.599-2.464c-0.399-0.564-1.015-0.848-1.846-0.848c-0.844,0-1.468,0.284-1.87,0.853
			c-0.403,0.568-0.604,1.388-0.604,2.459c0,1.072,0.201,1.889,0.604,2.45C68.891,218.319,69.514,218.601,70.358,218.601z"/>
		<path fill="#FFFFFF" d="M81.433,210.155c0.747,0,1.423,0.12,2.031,0.36c0.607,0.24,1.125,0.582,1.554,1.023
			c0.428,0.441,0.759,0.98,0.993,1.616c0.234,0.637,0.351,1.348,0.351,2.134c0,0.792-0.117,1.506-0.351,2.143
			c-0.234,0.636-0.565,1.179-0.993,1.626c-0.429,0.448-0.947,0.793-1.554,1.033c-0.607,0.239-1.284,0.36-2.031,0.36
			s-1.425-0.121-2.036-0.36c-0.61-0.24-1.131-0.585-1.563-1.033c-0.432-0.447-0.766-0.99-1.003-1.626
			c-0.237-0.637-0.355-1.351-0.355-2.143c0-0.786,0.118-1.497,0.355-2.134c0.237-0.636,0.571-1.175,1.003-1.616
			c0.432-0.441,0.953-0.783,1.563-1.023S80.686,210.155,81.433,210.155z M81.433,218.601c0.831,0,1.446-0.279,1.846-0.838
			s0.599-1.377,0.599-2.455c0-1.077-0.2-1.898-0.599-2.464c-0.399-0.564-1.015-0.848-1.846-0.848c-0.844,0-1.468,0.284-1.87,0.853
			c-0.403,0.568-0.604,1.388-0.604,2.459c0,1.072,0.201,1.889,0.604,2.45C79.965,218.319,80.588,218.601,81.433,218.601z"/>
		<path fill="#FFFFFF" d="M90.802,205.831v14.474h-2.406v-14.474H90.802z"/>
		<path fill="#FFFFFF" d="M99.451,212.26c-0.065,0.104-0.133,0.177-0.205,0.219s-0.162,0.063-0.272,0.063
			c-0.117,0-0.242-0.032-0.375-0.098c-0.133-0.064-0.288-0.138-0.463-0.219s-0.375-0.154-0.599-0.22
			c-0.224-0.064-0.488-0.097-0.793-0.097c-0.474,0-0.848,0.101-1.12,0.302c-0.273,0.201-0.409,0.464-0.409,0.789
			c0,0.214,0.07,0.395,0.209,0.54c0.14,0.146,0.325,0.274,0.555,0.385s0.492,0.21,0.784,0.297c0.292,0.088,0.59,0.184,0.896,0.288
			c0.305,0.104,0.604,0.222,0.896,0.355c0.292,0.133,0.553,0.302,0.784,0.506c0.23,0.205,0.415,0.45,0.555,0.735
			c0.139,0.286,0.209,0.63,0.209,1.033c0,0.48-0.087,0.923-0.263,1.329s-0.432,0.757-0.77,1.052
			c-0.338,0.296-0.755,0.526-1.251,0.691c-0.497,0.166-1.066,0.249-1.709,0.249c-0.344,0-0.68-0.031-1.008-0.093
			c-0.328-0.062-0.643-0.147-0.944-0.258c-0.302-0.11-0.582-0.24-0.838-0.39s-0.482-0.312-0.677-0.487l0.555-0.916
			c0.071-0.11,0.156-0.194,0.253-0.253c0.098-0.059,0.221-0.088,0.37-0.088s0.291,0.043,0.424,0.127s0.288,0.175,0.463,0.272
			s0.381,0.188,0.618,0.272c0.237,0.085,0.537,0.127,0.901,0.127c0.286,0,0.531-0.034,0.735-0.103
			c0.205-0.067,0.374-0.157,0.507-0.268c0.133-0.11,0.23-0.238,0.292-0.385c0.062-0.146,0.093-0.297,0.093-0.453
			c0-0.233-0.07-0.425-0.209-0.574s-0.325-0.279-0.555-0.39s-0.494-0.209-0.789-0.297s-0.598-0.184-0.906-0.287
			c-0.309-0.104-0.61-0.226-0.906-0.365s-0.559-0.317-0.789-0.531s-0.416-0.478-0.555-0.789s-0.209-0.688-0.209-1.13
			c0-0.409,0.081-0.799,0.244-1.169c0.162-0.37,0.401-0.692,0.716-0.969s0.708-0.497,1.179-0.662
			c0.471-0.166,1.014-0.249,1.631-0.249c0.688,0,1.315,0.114,1.88,0.341c0.565,0.228,1.036,0.526,1.412,0.896L99.451,212.26z"/>
	</g>
	<g>
		<path fill-rule="evenodd" clip-rule="evenodd" fill="#ED1C24" d="M94.676,61.493c-0.709,0.544-4.622,3.558-6.262,5.01
			c-2.824,2.503-5.76,4.559-9.857,3.772c-0.611-0.118-1.312,0.219-2.062,0.365c0-1.433,0-2.813,0-3.728
			c3.6,4.405,6.949,1.963,7.775,1.307c1.846-1.468,1.68-4.938,0.118-6.466c-2.173-2.123-5.58-1.626-7.862,1.776
			c0-4.926,0-9.686,0-14.583c15.011,0,29.88,0,44.946,0c0,11.1,0,22.183,0,33.4c-11.954,0-23.836,0-36.042,0
			c0-2.38-0.095-4.578,0.062-6.758c0.041-0.631,0.665-1.354,1.211-1.795c2.773-2.217,8.042-6.071,10.86-8.229 M97.359,61.901
			c0.245-0.233,0.488-0.463,0.733-0.694"/>
		<path fill-rule="evenodd" clip-rule="evenodd" fill="#ED1C24" d="M89.842,103.975c-2.863,1.784-3.013,1.729-4.01-1.023
			c-1.323-3.665-2.675-7.323-4.023-10.98c-0.164-0.437-0.367-4.905-0.747-5.678c-0.38,0.792-0.684,5.304-0.86,5.79
			c-1.366,3.724-2.714,7.456-4.075,11.186c-0.406,1.104-0.52,2.33-2.411,1.68c-1.845-0.64-1.316-1.609-0.88-2.775
			c0.744-1.991,1.264-4.092,2.22-5.971c2.46-4.835,2.723-18.201,2.509-19.104c-1.442,2.341-3.019,5.124-4.31,7.199
			c-1.788,2.89-4.075,1.762-1.834-1.917c1.705-3.186,3.647-6.744,5.301-9.96c0.554-1.087,1.245-1.683,2.482-1.465
			c3.281,0.578,5.728-0.855,8.234-2.868c1.479-1.183,3.008-2.363,4.521-3.533c2.27-1.75,4.63-0.199,2.921,1.929
			c-0.389,0.486-6.016,4.809-8.939,7.122c-0.653,0.522-1.167,1.612-1.184,2.456c-0.095,4.243-0.073,8.363-0.014,12.542
			c0.014,0.896,0.235,1.823,0.534,2.673C86.776,95.539,88.326,99.777,89.842,103.975z"/>
		<path fill-rule="evenodd" clip-rule="evenodd" fill="#ED1C24" d="M84.794,64.963c-0.019,2.117-1.669,3.713-3.8,3.668
			c-2.049-0.044-3.587-1.597-3.627-3.637c-0.041-2.096,1.615-3.801,3.691-3.809C83.121,61.175,84.803,62.878,84.794,64.963z"/>
		<g>
			<path fill-rule="evenodd" clip-rule="evenodd" fill="#ED1C24" d="M56.028,93.825c0.117-0.122,0.35-0.317,0.322-0.365
				c-0.453-0.809-1.187-1.223-2.028-0.825c-0.661,0.312-1.461,0.832-1.691,1.447c-0.749,1.986-1.426,4.027-1.814,6.106
				c-0.344,1.832,0.806,2.881,2.701,2.895c1.181,0.012,2.361,0.027,3.542,0.05c0.063,0,0.122,0.068,0.244,0.136
				c-0.172,2.094-0.341,4.211-0.516,6.341c0.908,0.357,1.235,0.085,1.276-0.835c0.057-1.492,0.222-2.983,0.575-4.471
				c0.257,1.392,0.506,2.778,0.755,4.168c0.151,0.855,0.497,1.54,1.505,1.336c0.962-0.195,1.005-0.932,0.851-1.737
				c-0.362-1.922-0.717-3.842-1.049-5.767c-0.162-0.943-0.457-1.714-1.646-1.873c0.361-0.089,0.714-0.257,1.081-0.263
				c1.881-0.021,3.772,0.014,5.651-0.013c1.049-0.019,1.536,0.411,1.612,1.486c0.205,2.648,0.478,5.287,0.738,8.045
				c0.326,0.021,0.66,0.043,1.139,0.071c-0.216-2.642-0.416-5.165-0.625-7.694c-0.068-0.792-0.424-1.574,0.251-2.334
				c0.195-0.221,0.033-0.769,0.033-1.229c-3.955,0-7.813,0-11.896,0c0.143,0.732,0.273,1.354,0.423,2.073c-0.651,0-1.447,0-2.565,0
				c0.471-1.553,0.918-3.043,1.361-4.533c-0.556-0.255-1.194-0.417-1.65-0.799c-0.262-0.229-0.343-0.823-0.281-1.21
				c0.036-0.183,0.615-0.316,0.968-0.37C55.521,93.626,55.783,93.766,56.028,93.825z"/>
			<path fill-rule="evenodd" clip-rule="evenodd" fill="#ED1C24" d="M54.896,103.78c-2.008,0-3.908,0-5.909,0
				c-0.326,1.905-0.653,3.773-0.986,5.735c2.648,0,5.195,0,7.868,0C55.547,107.623,55.234,105.757,54.896,103.78z"/>
			<path fill-rule="evenodd" clip-rule="evenodd" fill="#ED1C24" d="M55.139,90.322c0.009,1.34,1.038,2.388,2.368,2.399
				c1.321,0.007,2.379-1.038,2.392-2.373c0.024-1.367-1.09-2.494-2.423-2.466C56.167,87.911,55.131,88.989,55.139,90.322z"/>
			<path fill-rule="evenodd" clip-rule="evenodd" fill="#ED1C24" d="M56.028,93.825c-0.245-0.059-0.507-0.199-0.733-0.162
				c-0.354,0.054-0.933,0.188-0.968,0.37c-0.062,0.387,0.019,0.981,0.281,1.21c0.456,0.382,1.095,0.544,1.65,0.799
				c1.697,0.293,3.383,0.61,5.082,0.875c0.641,0.099,1.269-0.098,1.275-0.854c0.012-0.76-0.599-0.87-1.25-0.891
				C59.493,95.109,57.633,94.969,56.028,93.825z"/>
			<path fill-rule="evenodd" clip-rule="evenodd" fill="#ED1C24" d="M30.913,99.495c0.122-0.138,0.377-0.35,0.35-0.4
				c-0.496-0.891-1.307-1.345-2.225-0.909c-0.733,0.344-1.606,0.913-1.862,1.591c-0.82,2.181-1.565,4.422-1.992,6.704
				c-0.374,2.013,0.885,3.165,2.964,3.181c1.298,0.012,2.596,0.029,3.887,0.053c0.074,0.002,0.141,0.076,0.271,0.151
				c-0.184,2.298-0.375,4.625-0.565,6.966c0.995,0.391,1.357,0.093,1.395-0.92c0.066-1.638,0.247-3.273,0.641-4.909
				c0.275,1.525,0.561,3.049,0.823,4.578c0.167,0.939,0.548,1.693,1.66,1.466c1.054-0.212,1.099-1.025,0.932-1.907
				c-0.394-2.11-0.79-4.22-1.149-6.334c-0.181-1.037-0.505-1.88-1.815-2.055c0.395-0.099,0.792-0.284,1.183-0.289
				c2.075-0.027,4.147,0.016,6.214-0.019c1.154-0.017,1.685,0.458,1.772,1.636c0.22,2.906,0.521,5.808,0.806,8.836
				c0.362,0.022,0.732,0.045,1.257,0.076c-0.234-2.899-0.461-5.672-0.697-8.445c-0.072-0.873-0.458-1.734,0.281-2.568
				c0.222-0.244,0.036-0.842,0.036-1.348c-4.342,0-8.582,0-13.067,0c0.162,0.801,0.303,1.486,0.47,2.275c-0.718,0-1.591,0-2.813,0
				c0.512-1.706,1.003-3.343,1.493-4.979c-0.615-0.277-1.321-0.456-1.813-0.879c-0.294-0.249-0.378-0.902-0.308-1.329
				c0.036-0.2,0.673-0.346,1.058-0.407C30.354,99.271,30.643,99.429,30.913,99.495z"/>
			<path fill-rule="evenodd" clip-rule="evenodd" fill="#ED1C24" d="M29.667,110.425c-2.212,0-4.293,0-6.492,0
				c-0.358,2.092-0.713,4.147-1.085,6.3c2.911,0,5.713,0,8.644,0C30.381,114.644,30.032,112.598,29.667,110.425z"/>
			<path fill-rule="evenodd" clip-rule="evenodd" fill="#ED1C24" d="M29.933,95.648c0.005,1.47,1.14,2.621,2.597,2.633
				c1.452,0.008,2.61-1.136,2.627-2.606c0.023-1.502-1.193-2.742-2.659-2.709C31.06,92.997,29.93,94.18,29.933,95.648z"/>
			<path fill-rule="evenodd" clip-rule="evenodd" fill="#ED1C24" d="M30.913,99.495c-0.27-0.066-0.559-0.224-0.812-0.183
				c-0.385,0.062-1.022,0.208-1.058,0.407c-0.071,0.427,0.013,1.081,0.308,1.329c0.492,0.423,1.198,0.603,1.813,0.879
				c1.859,0.324,3.714,0.67,5.582,0.96c0.699,0.11,1.388-0.107,1.398-0.937c0.014-0.83-0.661-0.954-1.374-0.979
				C34.714,100.903,32.674,100.75,30.913,99.495z"/>
		</g>
		<g>
			<path fill-rule="evenodd" clip-rule="evenodd" fill="#ED1C24" d="M86.934,113.372c0.11-0.131,0.33-0.337,0.308-0.38
				c-0.493-0.789-1.253-1.168-2.067-0.73c-0.646,0.343-1.425,0.9-1.624,1.528c-0.653,2.013-1.23,4.085-1.526,6.179
				c-0.255,1.845,0.937,2.839,2.828,2.767c1.181-0.044,2.362-0.083,3.546-0.116c0.062-0.002,0.128,0.06,0.251,0.125
				c-0.075,2.096-0.145,4.22-0.219,6.358c0.925,0.313,1.243,0.026,1.234-0.894c-0.009-1.497,0.082-2.989,0.37-4.491
				c0.315,1.374,0.634,2.748,0.946,4.125c0.189,0.844,0.565,1.518,1.567,1.268c0.948-0.244,0.957-0.982,0.766-1.778
				c-0.449-1.899-0.895-3.805-1.32-5.711c-0.204-0.935-0.539-1.689-1.737-1.791c0.357-0.108,0.712-0.291,1.072-0.314
				c1.877-0.113,3.768-0.163,5.647-0.28c1.044-0.066,1.549,0.341,1.685,1.412c0.321,2.631,0.719,5.259,1.108,8
				c0.326,0.005,0.667,0.012,1.145,0.019c-0.336-2.627-0.656-5.142-0.99-7.654c-0.107-0.792-0.498-1.555,0.144-2.347
				c0.19-0.231-0.003-0.767-0.026-1.23c-3.949,0.185-7.807,0.366-11.887,0.556c0.186,0.727,0.343,1.342,0.524,2.053
				c-0.649,0.032-1.443,0.068-2.561,0.124c0.394-1.579,0.77-3.085,1.149-4.595c-0.57-0.228-1.221-0.359-1.682-0.721
				c-0.281-0.212-0.391-0.806-0.34-1.197c0.023-0.183,0.598-0.343,0.943-0.416C86.421,113.193,86.685,113.322,86.934,113.372z"/>
			<path fill-rule="evenodd" clip-rule="evenodd" fill="#ED1C24" d="M86.269,123.367c-2.008,0.093-3.903,0.183-5.902,0.276
				c-0.238,1.917-0.474,3.8-0.72,5.775c2.646-0.125,5.195-0.244,7.857-0.369C87.101,127.174,86.698,125.326,86.269,123.367z"/>
			<path fill-rule="evenodd" clip-rule="evenodd" fill="#ED1C24" d="M85.882,109.911c0.06,1.342,1.146,2.339,2.472,2.287
				c1.319-0.054,2.325-1.147,2.281-2.481c-0.044-1.368-1.205-2.442-2.54-2.351C86.793,107.457,85.811,108.58,85.882,109.911z"/>
			<path fill-rule="evenodd" clip-rule="evenodd" fill="#ED1C24" d="M86.934,113.372c-0.249-0.049-0.513-0.178-0.744-0.131
				c-0.346,0.072-0.92,0.232-0.943,0.416c-0.051,0.391,0.059,0.985,0.34,1.197c0.461,0.361,1.112,0.493,1.682,0.721
				c1.7,0.215,3.406,0.451,5.118,0.634c0.64,0.07,1.259-0.157,1.232-0.909c-0.022-0.76-0.644-0.844-1.293-0.834
				C90.458,114.489,88.589,114.437,86.934,113.372z"/>
			<path fill-rule="evenodd" clip-rule="evenodd" fill="#ED1C24" d="M62.106,120.211c0.122-0.145,0.369-0.369,0.334-0.418
				c-0.536-0.867-1.366-1.281-2.266-0.804c-0.71,0.376-1.56,0.989-1.786,1.679c-0.715,2.214-1.354,4.492-1.669,6.79
				c-0.285,2.027,1.026,3.118,3.105,3.039c1.295-0.051,2.594-0.093,3.892-0.133c0.068-0.002,0.136,0.07,0.276,0.142
				c-0.081,2.298-0.163,4.636-0.245,6.98c1.018,0.346,1.366,0.031,1.358-0.981c-0.014-1.642,0.086-3.28,0.404-4.933
				c0.348,1.509,0.699,3.02,1.044,4.534c0.21,0.928,0.618,1.667,1.722,1.388c1.041-0.263,1.049-1.078,0.841-1.948
				c-0.493-2.089-0.985-4.179-1.447-6.274c-0.231-1.028-0.592-1.857-1.908-1.966c0.394-0.121,0.778-0.321,1.176-0.346
				c2.062-0.123,4.135-0.179,6.201-0.306c1.149-0.072,1.702,0.374,1.845,1.548c0.357,2.893,0.794,5.775,1.218,8.789
				c0.361,0.005,0.737,0.014,1.259,0.019c-0.374-2.888-0.722-5.646-1.087-8.406c-0.114-0.868-0.546-1.711,0.158-2.577
				c0.208-0.253-0.005-0.842-0.026-1.351c-4.338,0.202-8.572,0.401-13.05,0.61c0.2,0.794,0.374,1.471,0.57,2.253
				c-0.715,0.035-1.59,0.077-2.809,0.132c0.434-1.729,0.846-3.387,1.26-5.043c-0.626-0.249-1.341-0.393-1.853-0.79
				c-0.303-0.237-0.426-0.887-0.374-1.317c0.031-0.2,0.663-0.376,1.042-0.455C61.545,120.014,61.834,120.154,62.106,120.211z"/>
			<path fill-rule="evenodd" clip-rule="evenodd" fill="#ED1C24" d="M61.378,131.185c-2.208,0.105-4.291,0.205-6.482,0.305
				c-0.262,2.105-0.52,4.176-0.794,6.344c2.906-0.135,5.706-0.268,8.637-0.404C62.287,135.368,61.849,133.337,61.378,131.185z"/>
			<path fill-rule="evenodd" clip-rule="evenodd" fill="#ED1C24" d="M60.953,116.411c0.073,1.472,1.258,2.567,2.709,2.508
				c1.457-0.059,2.558-1.257,2.51-2.727c-0.047-1.498-1.323-2.678-2.785-2.579C61.955,113.716,60.88,114.948,60.953,116.411z"/>
			<path fill-rule="evenodd" clip-rule="evenodd" fill="#ED1C24" d="M62.106,120.211c-0.272-0.057-0.561-0.197-0.815-0.145
				c-0.379,0.079-1.012,0.255-1.042,0.455c-0.052,0.43,0.071,1.08,0.374,1.317c0.511,0.397,1.226,0.541,1.853,0.79
				c1.872,0.239,3.74,0.497,5.619,0.698c0.701,0.077,1.387-0.172,1.356-1c-0.031-0.834-0.704-0.924-1.423-0.915
				C65.969,121.438,63.924,121.38,62.106,120.211z"/>
		</g>
	</g>
	<g>
		<path fill="#FFFFFF" d="M483.166,166.496c1.298,0,2.469,0.176,3.514,0.528c1.044,0.352,1.937,0.839,2.676,1.462
			c0.74,0.623,1.308,1.354,1.703,2.193c0.396,0.839,0.594,1.746,0.594,2.721c0,0.852-0.101,1.601-0.302,2.249
			s-0.493,1.212-0.876,1.694s-0.85,0.889-1.401,1.222s-1.177,0.611-1.878,0.833c1.687,0.506,2.945,1.277,3.776,2.313
			c0.83,1.037,1.245,2.339,1.245,3.906c0,1.333-0.26,2.511-0.778,3.536c-0.52,1.024-1.22,1.885-2.103,2.582
			c-0.882,0.697-1.904,1.225-3.065,1.583s-2.391,0.537-3.688,0.537c-1.414,0-2.646-0.155-3.698-0.463
			c-1.051-0.309-1.966-0.765-2.744-1.37s-1.44-1.345-1.985-2.221c-0.545-0.876-1.013-1.888-1.401-3.036l2.121-0.833
			c0.363-0.148,0.733-0.222,1.109-0.222c0.338,0,0.64,0.068,0.905,0.204s0.471,0.333,0.613,0.592
			c0.233,0.432,0.49,0.858,0.769,1.277c0.279,0.42,0.613,0.793,1.003,1.12c0.39,0.327,0.847,0.592,1.372,0.796
			s1.151,0.306,1.878,0.306c0.818,0,1.531-0.126,2.142-0.38c0.609-0.252,1.119-0.583,1.528-0.99c0.408-0.407,0.713-0.86,0.914-1.36
			s0.302-1.002,0.302-1.509c0-0.641-0.071-1.225-0.214-1.749s-0.441-0.972-0.896-1.342c-0.454-0.371-1.106-0.66-1.956-0.87
			s-1.988-0.315-3.416-0.315v-3.276c1.181,0,2.16-0.099,2.939-0.296c0.778-0.197,1.397-0.472,1.858-0.824s0.782-0.774,0.964-1.268
			c0.182-0.493,0.272-1.037,0.272-1.629c0-1.271-0.363-2.23-1.09-2.878c-0.728-0.648-1.72-0.972-2.979-0.972
			c-1.142,0-2.089,0.287-2.842,0.86s-1.278,1.31-1.576,2.209c-0.156,0.468-0.37,0.804-0.643,1.008
			c-0.272,0.203-0.63,0.305-1.07,0.305c-0.208,0-0.429-0.018-0.662-0.055l-2.53-0.419c0.194-1.284,0.571-2.41,1.129-3.379
			c0.558-0.969,1.256-1.778,2.093-2.426s1.797-1.136,2.88-1.462C480.755,166.66,481.92,166.496,483.166,166.496z"/>
		<path fill="#FFFFFF" d="M507.768,173.271c0,1.012-0.179,1.925-0.535,2.739c-0.357,0.814-0.834,1.509-1.431,2.083
			s-1.291,1.015-2.083,1.324c-0.791,0.309-1.615,0.462-2.472,0.462c-0.935,0-1.798-0.154-2.589-0.462
			c-0.792-0.309-1.477-0.75-2.054-1.324s-1.028-1.268-1.353-2.083s-0.486-1.727-0.486-2.739c0-1.037,0.162-1.974,0.486-2.813
			s0.775-1.548,1.353-2.129c0.577-0.58,1.262-1.027,2.054-1.342c0.791-0.315,1.654-0.472,2.589-0.472s1.801,0.157,2.599,0.472
			c0.798,0.314,1.489,0.762,2.073,1.342c0.584,0.581,1.037,1.29,1.362,2.129C507.606,171.297,507.768,172.234,507.768,173.271z
			 M517.13,167.514c0.156-0.185,0.351-0.352,0.584-0.5s0.558-0.222,0.974-0.222h3.483l-20.904,26.081
			c-0.156,0.198-0.354,0.361-0.594,0.491s-0.529,0.194-0.866,0.194h-3.581L517.13,167.514z M504.05,173.271
			c0-0.715-0.071-1.314-0.214-1.795c-0.143-0.481-0.341-0.87-0.594-1.166c-0.253-0.296-0.552-0.509-0.896-0.639
			c-0.344-0.13-0.71-0.194-1.1-0.194s-0.753,0.064-1.09,0.194c-0.338,0.129-0.63,0.342-0.876,0.639
			c-0.247,0.296-0.438,0.685-0.574,1.166c-0.137,0.481-0.204,1.08-0.204,1.795c0,0.691,0.067,1.268,0.204,1.73
			c0.136,0.463,0.327,0.836,0.574,1.12c0.246,0.284,0.538,0.488,0.876,0.611c0.337,0.124,0.7,0.185,1.09,0.185
			s0.756-0.062,1.1-0.185c0.344-0.123,0.643-0.327,0.896-0.611c0.253-0.284,0.451-0.657,0.594-1.12
			C503.979,174.539,504.05,173.962,504.05,173.271z M523.651,187.265c0,1.012-0.179,1.925-0.535,2.74
			c-0.357,0.814-0.834,1.508-1.431,2.082s-1.291,1.018-2.083,1.333c-0.791,0.314-1.615,0.472-2.472,0.472
			c-0.935,0-1.797-0.157-2.589-0.472c-0.791-0.315-1.476-0.759-2.054-1.333c-0.577-0.574-1.028-1.268-1.353-2.082
			c-0.324-0.814-0.486-1.728-0.486-2.74c0-1.037,0.162-1.974,0.486-2.813c0.324-0.839,0.775-1.548,1.353-2.129
			c0.578-0.58,1.263-1.027,2.054-1.342c0.792-0.314,1.654-0.472,2.589-0.472s1.801,0.158,2.599,0.472s1.489,0.762,2.073,1.342
			c0.584,0.581,1.038,1.29,1.362,2.129C523.489,185.291,523.651,186.228,523.651,187.265z M519.953,187.265
			c0-0.715-0.074-1.314-0.224-1.795c-0.149-0.481-0.351-0.87-0.604-1.166c-0.253-0.296-0.552-0.509-0.896-0.639
			c-0.344-0.13-0.71-0.194-1.1-0.194s-0.753,0.064-1.09,0.194c-0.338,0.129-0.626,0.342-0.866,0.639
			c-0.24,0.296-0.432,0.685-0.574,1.166c-0.143,0.481-0.214,1.08-0.214,1.795c0,0.691,0.071,1.271,0.214,1.74
			c0.143,0.469,0.334,0.846,0.574,1.129c0.24,0.284,0.528,0.488,0.866,0.611c0.337,0.124,0.7,0.185,1.09,0.185
			s0.756-0.062,1.1-0.185c0.344-0.123,0.643-0.327,0.896-0.611c0.253-0.284,0.454-0.66,0.604-1.129
			C519.878,188.536,519.953,187.956,519.953,187.265z"/>
		<path fill="#FFFFFF" d="M462.673,216.939h-2.64v-6.157h-6.605v6.157h-2.641v-14.087h2.641v6.06h6.605v-6.06h2.64V216.939z"/>
		<path fill="#FFFFFF" d="M469.512,206.788c0.63,0,1.209,0.101,1.738,0.302c0.529,0.201,0.985,0.495,1.369,0.881
			c0.383,0.387,0.682,0.861,0.896,1.422c0.214,0.562,0.321,1.203,0.321,1.924c0,0.182-0.009,0.333-0.024,0.453
			c-0.017,0.121-0.046,0.214-0.088,0.283s-0.099,0.117-0.17,0.146c-0.072,0.029-0.163,0.044-0.273,0.044h-6.176
			c0.071,1.026,0.347,1.78,0.828,2.26c0.48,0.481,1.116,0.721,1.909,0.721c0.39,0,0.726-0.045,1.008-0.136
			c0.283-0.091,0.529-0.191,0.74-0.302s0.396-0.211,0.556-0.302c0.159-0.091,0.313-0.136,0.463-0.136
			c0.098,0,0.182,0.02,0.253,0.058c0.071,0.039,0.134,0.094,0.186,0.166l0.701,0.876c-0.267,0.312-0.564,0.573-0.896,0.784
			c-0.331,0.211-0.677,0.38-1.037,0.507s-0.728,0.216-1.101,0.268c-0.374,0.052-0.736,0.078-1.087,0.078
			c-0.694,0-1.341-0.115-1.938-0.346s-1.117-0.571-1.559-1.023c-0.441-0.451-0.789-1.01-1.042-1.676
			c-0.254-0.666-0.381-1.437-0.381-2.313c0-0.682,0.11-1.323,0.332-1.924c0.221-0.601,0.537-1.124,0.949-1.568
			c0.413-0.445,0.916-0.797,1.511-1.057C468.094,206.918,468.765,206.788,469.512,206.788z M469.56,208.513
			c-0.701,0-1.25,0.198-1.646,0.594c-0.396,0.396-0.65,0.958-0.761,1.685h4.521c0-0.312-0.042-0.605-0.126-0.881
			c-0.085-0.276-0.215-0.518-0.39-0.726c-0.176-0.208-0.396-0.372-0.663-0.492S469.917,208.513,469.56,208.513z"/>
		<path fill="#FFFFFF" d="M483.627,216.939h-1.081c-0.228,0-0.406-0.034-0.536-0.102c-0.13-0.068-0.227-0.207-0.292-0.414
			l-0.214-0.711c-0.254,0.228-0.502,0.427-0.745,0.599c-0.244,0.172-0.496,0.317-0.756,0.434s-0.535,0.205-0.828,0.263
			c-0.292,0.058-0.616,0.087-0.974,0.087c-0.423,0-0.812-0.057-1.169-0.171c-0.357-0.114-0.664-0.285-0.921-0.513
			s-0.456-0.512-0.599-0.851c-0.144-0.338-0.215-0.733-0.215-1.183c0-0.378,0.099-0.751,0.297-1.119s0.528-0.7,0.989-0.997
			c0.461-0.296,1.074-0.542,1.841-0.738s1.718-0.293,2.854-0.293v-0.589c0-0.674-0.141-1.173-0.424-1.497
			c-0.282-0.324-0.693-0.486-1.232-0.486c-0.39,0-0.714,0.045-0.974,0.136c-0.26,0.091-0.485,0.193-0.678,0.307
			c-0.191,0.113-0.368,0.216-0.53,0.307c-0.163,0.091-0.341,0.136-0.536,0.136c-0.162,0-0.302-0.042-0.419-0.126
			s-0.211-0.188-0.282-0.312l-0.438-0.77c1.149-1.052,2.536-1.578,4.16-1.578c0.584,0,1.105,0.096,1.563,0.288
			s0.846,0.458,1.164,0.799c0.318,0.341,0.56,0.749,0.726,1.223s0.248,0.994,0.248,1.559V216.939z M478.952,215.439
			c0.247,0,0.474-0.022,0.682-0.067s0.404-0.112,0.59-0.202c0.185-0.089,0.363-0.2,0.536-0.331c0.172-0.131,0.346-0.286,0.521-0.465
			v-1.673c-0.701,0-1.287,0.044-1.758,0.132c-0.472,0.088-0.85,0.201-1.136,0.338c-0.285,0.138-0.488,0.298-0.608,0.481
			s-0.181,0.383-0.181,0.599c0,0.425,0.125,0.729,0.375,0.913S478.549,215.439,478.952,215.439z"/>
		<path fill="#FFFFFF" d="M488.557,202.462v14.477h-2.406v-14.477H488.557z"/>
		<path fill="#FFFFFF" d="M494.559,217.095c-0.864,0-1.53-0.245-1.997-0.735c-0.468-0.49-0.702-1.167-0.702-2.031v-5.583h-1.013
			c-0.13,0-0.242-0.042-0.336-0.126c-0.095-0.084-0.142-0.211-0.142-0.38v-0.955l1.607-0.263l0.507-2.728
			c0.025-0.13,0.086-0.23,0.18-0.302c0.095-0.071,0.213-0.107,0.356-0.107h1.246v3.147h2.631v1.714h-2.631v5.417
			c0,0.312,0.078,0.555,0.234,0.73c0.155,0.175,0.363,0.263,0.623,0.263c0.149,0,0.274-0.018,0.375-0.054s0.188-0.073,0.264-0.112
			c0.074-0.039,0.141-0.077,0.199-0.112s0.117-0.054,0.176-0.054c0.071,0,0.13,0.018,0.175,0.054
			c0.046,0.036,0.095,0.089,0.146,0.161l0.721,1.169c-0.351,0.292-0.753,0.513-1.208,0.662
			C495.517,217.021,495.045,217.095,494.559,217.095z"/>
		<path fill="#FFFFFF" d="M498.816,216.939v-14.477h2.406v5.563c0.39-0.37,0.818-0.669,1.286-0.896
			c0.468-0.227,1.016-0.341,1.646-0.341c0.545,0,1.029,0.093,1.451,0.278s0.774,0.445,1.057,0.779
			c0.283,0.334,0.497,0.734,0.644,1.198c0.146,0.464,0.219,0.976,0.219,1.534v6.362h-2.406v-6.362c0-0.61-0.141-1.083-0.424-1.417
			c-0.282-0.334-0.706-0.501-1.271-0.501c-0.415,0-0.805,0.094-1.169,0.282c-0.363,0.188-0.708,0.445-1.032,0.77v7.229H498.816z"/>
		<path fill="#FFFFFF" d="M516.917,209.058c-0.071,0.091-0.141,0.162-0.209,0.214c-0.068,0.052-0.167,0.078-0.297,0.078
			c-0.124,0-0.244-0.037-0.36-0.112c-0.117-0.075-0.257-0.159-0.419-0.253c-0.163-0.094-0.355-0.178-0.58-0.253
			c-0.224-0.074-0.502-0.112-0.833-0.112c-0.422,0-0.792,0.076-1.11,0.229s-0.583,0.372-0.794,0.658
			c-0.211,0.286-0.369,0.631-0.473,1.038c-0.104,0.406-0.156,0.865-0.156,1.378c0,0.533,0.058,1.007,0.171,1.422
			s0.277,0.765,0.492,1.047c0.214,0.282,0.474,0.497,0.779,0.643c0.305,0.146,0.649,0.219,1.032,0.219
			c0.384,0,0.693-0.047,0.931-0.141s0.437-0.198,0.599-0.312c0.163-0.114,0.304-0.218,0.424-0.312s0.255-0.141,0.404-0.141
			c0.195,0,0.342,0.075,0.438,0.224l0.692,0.876c-0.267,0.312-0.556,0.573-0.867,0.784c-0.312,0.211-0.635,0.38-0.97,0.507
			c-0.334,0.126-0.681,0.216-1.037,0.268c-0.357,0.052-0.711,0.078-1.062,0.078c-0.617,0-1.198-0.115-1.743-0.346
			c-0.546-0.23-1.021-0.566-1.428-1.008c-0.405-0.441-0.728-0.982-0.964-1.622c-0.237-0.64-0.356-1.369-0.356-2.187
			c0-0.734,0.106-1.414,0.317-2.041s0.521-1.169,0.93-1.627s0.916-0.817,1.521-1.077c0.604-0.26,1.299-0.39,2.084-0.39
			c0.747,0,1.401,0.12,1.964,0.36c0.562,0.24,1.066,0.584,1.515,1.033L516.917,209.058z"/>
		<path fill="#FFFFFF" d="M527.019,216.939h-1.081c-0.228,0-0.406-0.034-0.536-0.102c-0.13-0.068-0.227-0.207-0.292-0.414
			l-0.214-0.711c-0.254,0.228-0.502,0.427-0.745,0.599c-0.244,0.172-0.496,0.317-0.756,0.434s-0.535,0.205-0.828,0.263
			c-0.292,0.058-0.616,0.087-0.974,0.087c-0.423,0-0.812-0.057-1.169-0.171c-0.357-0.114-0.664-0.285-0.921-0.513
			s-0.456-0.512-0.599-0.851c-0.144-0.338-0.215-0.733-0.215-1.183c0-0.378,0.099-0.751,0.297-1.119s0.528-0.7,0.989-0.997
			c0.461-0.296,1.074-0.542,1.841-0.738s1.718-0.293,2.854-0.293v-0.589c0-0.674-0.141-1.173-0.424-1.497
			c-0.282-0.324-0.693-0.486-1.232-0.486c-0.39,0-0.714,0.045-0.974,0.136c-0.26,0.091-0.485,0.193-0.678,0.307
			c-0.191,0.113-0.368,0.216-0.53,0.307c-0.163,0.091-0.341,0.136-0.536,0.136c-0.162,0-0.302-0.042-0.419-0.126
			s-0.211-0.188-0.282-0.312l-0.438-0.77c1.149-1.052,2.536-1.578,4.16-1.578c0.584,0,1.105,0.096,1.563,0.288
			s0.846,0.458,1.164,0.799c0.318,0.341,0.56,0.749,0.726,1.223s0.248,0.994,0.248,1.559V216.939z M522.343,215.439
			c0.247,0,0.474-0.022,0.682-0.067s0.404-0.112,0.59-0.202c0.185-0.089,0.363-0.2,0.536-0.331c0.172-0.131,0.346-0.286,0.521-0.465
			v-1.673c-0.701,0-1.287,0.044-1.758,0.132c-0.472,0.088-0.85,0.201-1.136,0.338c-0.285,0.138-0.488,0.298-0.608,0.481
			s-0.181,0.383-0.181,0.599c0,0.425,0.125,0.729,0.375,0.913S521.941,215.439,522.343,215.439z"/>
		<path fill="#FFFFFF" d="M529.386,216.939v-9.996h1.412c0.247,0,0.419,0.045,0.517,0.137c0.098,0.091,0.162,0.247,0.195,0.467
			l0.146,1.208c0.357-0.617,0.776-1.104,1.257-1.461c0.48-0.357,1.02-0.536,1.617-0.536c0.493,0,0.902,0.114,1.228,0.341
			l-0.312,1.803c-0.02,0.117-0.062,0.2-0.127,0.248c-0.064,0.049-0.152,0.073-0.263,0.073c-0.098,0-0.23-0.022-0.399-0.068
			c-0.169-0.045-0.394-0.068-0.673-0.068c-0.5,0-0.929,0.138-1.285,0.414c-0.357,0.276-0.659,0.68-0.906,1.213v6.225H529.386z"/>
		<path fill="#FFFFFF" d="M541.476,206.788c0.63,0,1.209,0.101,1.738,0.302c0.529,0.201,0.985,0.495,1.369,0.881
			c0.383,0.387,0.682,0.861,0.896,1.422c0.214,0.562,0.321,1.203,0.321,1.924c0,0.182-0.009,0.333-0.024,0.453
			c-0.017,0.121-0.046,0.214-0.088,0.283s-0.099,0.117-0.17,0.146c-0.072,0.029-0.163,0.044-0.273,0.044h-6.176
			c0.071,1.026,0.347,1.78,0.828,2.26c0.48,0.481,1.116,0.721,1.909,0.721c0.39,0,0.726-0.045,1.008-0.136
			c0.283-0.091,0.529-0.191,0.74-0.302s0.396-0.211,0.556-0.302c0.159-0.091,0.313-0.136,0.463-0.136
			c0.098,0,0.182,0.02,0.253,0.058c0.071,0.039,0.134,0.094,0.186,0.166l0.701,0.876c-0.267,0.312-0.564,0.573-0.896,0.784
			c-0.331,0.211-0.677,0.38-1.037,0.507s-0.728,0.216-1.101,0.268c-0.374,0.052-0.736,0.078-1.087,0.078
			c-0.694,0-1.341-0.115-1.938-0.346s-1.117-0.571-1.559-1.023c-0.441-0.451-0.789-1.01-1.042-1.676
			c-0.254-0.666-0.381-1.437-0.381-2.313c0-0.682,0.11-1.323,0.332-1.924c0.221-0.601,0.537-1.124,0.949-1.568
			c0.413-0.445,0.916-0.797,1.511-1.057C540.058,206.918,540.729,206.788,541.476,206.788z M541.524,208.513
			c-0.701,0-1.25,0.198-1.646,0.594c-0.396,0.396-0.65,0.958-0.761,1.685h4.521c0-0.312-0.042-0.605-0.126-0.881
			c-0.085-0.276-0.215-0.518-0.39-0.726c-0.176-0.208-0.396-0.372-0.663-0.492S541.881,208.513,541.524,208.513z"/>
	</g>
	<g>
		<path fill-rule="evenodd" clip-rule="evenodd" fill="#ED1C24" d="M465.718,107.561c-1.587-1.269-2.074-2.89-2.065-4.937
			c0.083-12.229,0.145-24.46-0.012-36.688c-0.056-4.149,1.648-5.487,5.625-5.435c4.135,0.054,7.436-0.026,11.282-0.032
			c3.143-0.004,4.653,0.878,5.013,3.886c0.444,3.705,2.692,4.449,6.151,4.388c2.176-0.039,4.318-0.016,6.575-0.005
			c5.288-0.011,9.061,0.086,9.592-6.161c0.125-1.457,0.985-2.094,2.542-2.067c4.859,0.079,9.718,0.014,14.581,0.054
			c2.925,0.025,4.141,1.582,4.126,4.479c-0.05,12.7-0.05,25.4,0.015,38.102c0.011,1.921-0.678,3.305-2.116,4.434
			c-1.774,1.736-4.058,1.468-6.214,1.474c-16.295,0.051-32.592,0.052-48.887-0.001C469.771,109.046,467.483,109.314,465.718,107.561
			z"/>
		<path fill-rule="evenodd" clip-rule="evenodd" fill="#E0E0E0" d="M465.718,107.561c20.438,0.007,40.87,0.013,61.309,0.019"/>
		<g>
			<path fill-rule="evenodd" clip-rule="evenodd" fill="#FCFCFC" d="M510.411,89.706c0,2.387-1.934,4.323-4.322,4.323H487.7
				c-2.385,0-4.32-1.936-4.32-4.323l0,0c0-2.386,1.935-4.321,4.32-4.321h18.389C508.477,85.385,510.411,87.32,510.411,89.706
				L510.411,89.706z"/>
			<path fill-rule="evenodd" clip-rule="evenodd" fill="#FCFCFC" d="M496.659,76.269c2.387,0,4.322,1.935,4.322,4.322v18.39
				c0,2.386-1.935,4.321-4.322,4.321l0,0c-2.388,0-4.32-1.935-4.32-4.321v-18.39C492.339,78.204,494.271,76.269,496.659,76.269
				L496.659,76.269z"/>
		</g>
	</g>
</g>
<g id="Layer_2">
</g>
</svg>
