<?xml version="1.0" encoding="utf-8"?>
<!-- Generator: Adobe Illustrator 16.0.0, SVG Export Plug-In . SVG Version: 6.00 Build 0)  -->
<!DOCTYPE svg PUBLIC "-//W3C//DTD SVG 1.1//EN" "http://www.w3.org/Graphics/SVG/1.1/DTD/svg11.dtd">
<svg version="1.1" id="Layer_1" xmlns="http://www.w3.org/2000/svg" xmlns:xlink="http://www.w3.org/1999/xlink" x="0px" y="0px"
	 width="1000px" height="252.19px" viewBox="0 0 1000 252.19" enable-background="new 0 0 1000 252.19" xml:space="preserve">
<g>
	<g>
		<path fill="#0E5461" d="M412.153,221.464h3.542v2.647c0,0.247-0.084,0.459-0.253,0.639c-0.169,0.179-0.416,0.268-0.74,0.268h-2.55
			v6.534h-4.204v-6.534h-11.874c-0.324,0-0.61-0.095-0.856-0.287s-0.402-0.429-0.467-0.713l-0.486-2.313l13.333-16.937h4.555
			V221.464z M407.949,212.708c0-0.395,0.013-0.821,0.039-1.277s0.071-0.932,0.136-1.425l-8.739,11.458h8.564V212.708z"/>
		<path fill="#0E5461" d="M428.113,204.49c1.297,0,2.484,0.182,3.562,0.546c1.077,0.364,1.999,0.879,2.764,1.545
			s1.362,1.469,1.791,2.406c0.428,0.938,0.643,1.98,0.643,3.128c0,0.987-0.153,1.9-0.458,2.739
			c-0.305,0.839-0.714,1.642-1.226,2.406c-0.513,0.766-1.113,1.506-1.801,2.221c-0.688,0.716-1.408,1.444-2.16,2.185l-6.346,6.164
			c0.623-0.172,1.233-0.305,1.83-0.398c0.597-0.092,1.168-0.139,1.713-0.139h7.222c0.519,0,0.931,0.139,1.236,0.417
			c0.305,0.278,0.458,0.645,0.458,1.101v2.74H418.03v-1.518c0-0.308,0.068-0.629,0.205-0.962c0.136-0.333,0.354-0.642,0.652-0.925
			l8.545-8.145c0.714-0.691,1.353-1.351,1.917-1.98s1.038-1.252,1.421-1.87c0.382-0.617,0.674-1.243,0.876-1.879
			c0.201-0.635,0.302-1.305,0.302-2.008c0-0.642-0.098-1.206-0.292-1.694c-0.195-0.487-0.474-0.897-0.837-1.231
			c-0.363-0.333-0.795-0.583-1.294-0.75c-0.5-0.167-1.061-0.25-1.684-0.25c-1.155,0-2.105,0.278-2.851,0.833
			c-0.747,0.556-1.269,1.302-1.567,2.24c-0.143,0.469-0.357,0.805-0.643,1.009c-0.286,0.204-0.649,0.306-1.09,0.306
			c-0.195,0-0.409-0.019-0.643-0.056l-2.53-0.426c0.195-1.283,0.571-2.409,1.129-3.378c0.558-0.969,1.255-1.777,2.092-2.425
			c0.837-0.648,1.797-1.135,2.881-1.462C425.703,204.654,426.867,204.49,428.113,204.49z"/>
		<path fill="#FFFFFF" d="M447.967,218.418h1.695v11.711h5.612v1.422h-7.307V218.418z"/>
		<path fill="#FFFFFF" d="M459.015,219.471c0.02,0.584-0.409,1.052-1.091,1.052c-0.604,0-1.033-0.468-1.033-1.052
			c0-0.604,0.448-1.072,1.072-1.072C458.605,218.399,459.015,218.867,459.015,219.471z M457.105,231.552v-9.431h1.715v9.431H457.105
			z"/>
		<path fill="#FFFFFF" d="M468.387,231.201c-0.448,0.234-1.442,0.545-2.708,0.545c-2.845,0-4.696-1.929-4.696-4.813
			c0-2.903,1.988-5.008,5.066-5.008c1.013,0,1.91,0.253,2.377,0.487l-0.39,1.325c-0.41-0.234-1.052-0.448-1.988-0.448
			c-2.163,0-3.332,1.598-3.332,3.566c0,2.182,1.403,3.527,3.273,3.527c0.975,0,1.618-0.253,2.104-0.468L468.387,231.201z"/>
		<path fill="#FFFFFF" d="M471.231,227.148c0.039,2.319,1.52,3.273,3.234,3.273c1.228,0,1.968-0.214,2.611-0.487l0.292,1.228
			c-0.604,0.273-1.637,0.584-3.137,0.584c-2.903,0-4.638-1.91-4.638-4.754s1.676-5.086,4.423-5.086c3.079,0,3.897,2.708,3.897,4.443
			c0,0.351-0.039,0.624-0.058,0.799H471.231z M476.258,225.92c0.02-1.091-0.448-2.786-2.377-2.786c-1.734,0-2.494,1.598-2.631,2.786
			H476.258z"/>
		<path fill="#FFFFFF" d="M480.038,224.673c0-0.974-0.02-1.773-0.078-2.553h1.52l0.098,1.559h0.039
			c0.467-0.896,1.559-1.773,3.118-1.773c1.305,0,3.332,0.78,3.332,4.014v5.631h-1.715v-5.437c0-1.52-0.565-2.786-2.183-2.786
			c-1.13,0-2.007,0.799-2.299,1.753c-0.078,0.214-0.117,0.507-0.117,0.799v5.67h-1.715V224.673z"/>
		<path fill="#FFFFFF" d="M490.617,229.798c0.507,0.332,1.403,0.682,2.26,0.682c1.247,0,1.832-0.624,1.832-1.403
			c0-0.818-0.487-1.267-1.754-1.734c-1.695-0.604-2.494-1.539-2.494-2.669c0-1.52,1.228-2.767,3.254-2.767
			c0.955,0,1.793,0.273,2.319,0.585l-0.429,1.247c-0.37-0.234-1.052-0.546-1.929-0.546c-1.014,0-1.579,0.584-1.579,1.286
			c0,0.779,0.565,1.13,1.793,1.598c1.637,0.624,2.475,1.442,2.475,2.845c0,1.656-1.286,2.825-3.527,2.825
			c-1.033,0-1.988-0.253-2.65-0.643L490.617,229.798z"/>
		<path fill="#FFFFFF" d="M500.477,219.471c0.02,0.584-0.409,1.052-1.091,1.052c-0.604,0-1.033-0.468-1.033-1.052
			c0-0.604,0.448-1.072,1.072-1.072C500.067,218.399,500.477,218.867,500.477,219.471z M498.567,231.552v-9.431h1.715v9.431H498.567
			z"/>
		<path fill="#FFFFFF" d="M503.126,224.673c0-0.974-0.02-1.773-0.078-2.553h1.52l0.098,1.559h0.039
			c0.467-0.896,1.559-1.773,3.118-1.773c1.305,0,3.332,0.78,3.332,4.014v5.631h-1.715v-5.437c0-1.52-0.565-2.786-2.183-2.786
			c-1.13,0-2.007,0.799-2.299,1.753c-0.078,0.214-0.117,0.507-0.117,0.799v5.67h-1.715V224.673z"/>
		<path fill="#FFFFFF" d="M522.065,222.121c-0.039,0.682-0.078,1.442-0.078,2.592v5.476c0,2.163-0.428,3.488-1.344,4.306
			c-0.916,0.857-2.241,1.13-3.43,1.13c-1.13,0-2.377-0.272-3.137-0.779l0.428-1.306c0.624,0.39,1.598,0.741,2.767,0.741
			c1.754,0,3.04-0.916,3.04-3.293v-1.052h-0.039c-0.526,0.877-1.54,1.578-3.001,1.578c-2.338,0-4.014-1.987-4.014-4.599
			c0-3.195,2.085-5.008,4.248-5.008c1.637,0,2.533,0.857,2.942,1.637h0.039l0.078-1.423H522.065z M520.292,225.842
			c0-0.292-0.02-0.545-0.098-0.779c-0.312-0.994-1.149-1.812-2.396-1.812c-1.637,0-2.806,1.383-2.806,3.566
			c0,1.851,0.936,3.39,2.787,3.39c1.052,0,2.007-0.662,2.377-1.753c0.098-0.292,0.137-0.624,0.137-0.916V225.842z"/>
		<path fill="#FFFFFF" d="M529.02,218.594c1.033-0.156,2.26-0.272,3.605-0.272c2.436,0,4.169,0.565,5.319,1.637
			c1.169,1.072,1.851,2.591,1.851,4.715c0,2.144-0.663,3.897-1.89,5.105c-1.228,1.228-3.254,1.89-5.807,1.89
			c-1.208,0-2.221-0.058-3.079-0.156V218.594z M530.715,230.207c0.429,0.078,1.052,0.098,1.714,0.098
			c3.625,0,5.593-2.026,5.593-5.573c0.019-3.098-1.734-5.066-5.32-5.066c-0.877,0-1.539,0.078-1.987,0.175V230.207z"/>
		<path fill="#FFFFFF" d="M542.97,227.148c0.039,2.319,1.52,3.273,3.234,3.273c1.228,0,1.968-0.214,2.611-0.487l0.292,1.228
			c-0.604,0.273-1.637,0.584-3.137,0.584c-2.903,0-4.638-1.91-4.638-4.754s1.676-5.086,4.423-5.086c3.079,0,3.897,2.708,3.897,4.443
			c0,0.351-0.039,0.624-0.058,0.799H542.97z M547.997,225.92c0.02-1.091-0.448-2.786-2.377-2.786c-1.734,0-2.494,1.598-2.631,2.786
			H547.997z"/>
		<path fill="#FFFFFF" d="M551.776,225.2c0-1.208-0.039-2.183-0.078-3.079h1.539l0.078,1.618h0.039
			c0.701-1.15,1.812-1.832,3.351-1.832c2.28,0,3.995,1.929,3.995,4.793c0,3.391-2.065,5.066-4.287,5.066
			c-1.247,0-2.338-0.545-2.903-1.481h-0.039v5.125h-1.695V225.2z M553.472,227.713c0,0.253,0.039,0.487,0.078,0.702
			c0.312,1.188,1.344,2.007,2.572,2.007c1.812,0,2.864-1.48,2.864-3.644c0-1.89-0.994-3.507-2.806-3.507
			c-1.169,0-2.26,0.838-2.592,2.124c-0.058,0.214-0.117,0.467-0.117,0.701V227.713z"/>
		<path fill="#FFFFFF" d="M564.928,219.412v2.708h2.455v1.306h-2.455v5.086c0,1.169,0.332,1.832,1.286,1.832
			c0.448,0,0.779-0.059,0.994-0.117l0.078,1.286c-0.332,0.137-0.857,0.234-1.52,0.234c-0.799,0-1.442-0.253-1.851-0.721
			c-0.487-0.507-0.663-1.345-0.663-2.456v-5.144h-1.461v-1.306h1.461v-2.26L564.928,219.412z"/>
		<path fill="#FFFFFF" d="M568.845,230.539c0-0.721,0.487-1.228,1.169-1.228c0.682,0,1.15,0.506,1.15,1.228
			c0,0.701-0.448,1.228-1.169,1.228C569.312,231.766,568.845,231.24,568.845,230.539z"/>
	</g>
	<path fill-rule="evenodd" clip-rule="evenodd" fill="#969696" d="M479.533,34.3c-15.382,12.782-30.589,25.413-45.78,38.052
		c-12.795,10.645-25.593,21.294-38.364,31.971c-3.036,2.543-6.568,3.725-9.483,0.801c-1.768-1.774-2.48-4.995-2.779-7.668
		c-0.143-1.286,1.509-3.108,2.775-4.173c29.463-24.664,58.986-49.257,88.494-73.867c3.547-2.958,7.06-2.928,10.599,0.021
		c29.371,24.476,58.768,48.922,88.101,73.44c4.089,3.419,4.767,8.13,1.764,11.267c-3.764,3.938-7.592,3.012-11.409-0.171
		c-26.186-21.855-52.395-43.681-78.604-65.505C483.216,37.109,481.51,35.848,479.533,34.3z"/>
	<path fill-rule="evenodd" clip-rule="evenodd" fill="#969696" d="M548.632,176.312c-3.352,0-5.852,0-9.178,0
		c0-2.279,0-4.36,0-6.439c0-19.428,0.126-38.86-0.148-58.283c-0.034-2.534-1.442-5.823-3.341-7.438
		c-18.505-15.734-37.253-31.185-56.284-47.007c-13.887,11.58-27.704,23.099-41.524,34.62c-3.156,2.628-6.049,5.689-9.514,7.8
		c-6.874,4.182-8.424,9.974-8.168,17.714c0.578,17.644,0.187,35.319,0.187,52.981c0,1.909,0,3.821,0,5.99c-3.258,0-5.934,0-9.406,0
		c0-2.019,0-3.907,0-5.796c0-21.39-0.115-42.779,0.15-64.167c0.032-2.53,1.515-5.811,3.429-7.429
		c19.765-16.69,39.817-33.036,59.626-49.677c3.969-3.33,6.836-3.106,10.701,0.145c19.964,16.777,40.133,33.304,60.129,50.033
		c1.509,1.263,3.184,3.432,3.2,5.193C548.703,128.263,548.632,151.977,548.632,176.312z"/>
	<path fill-rule="evenodd" clip-rule="evenodd" fill="#ED1C24" d="M489.88,113.372c1.377,9.051,1.724,36.046,1.701,37.539
		c-0.092,5.892-0.067,11.783-0.025,17.674c0.029,3.958-0.143,7.967-5.493,7.812c-5.293-0.154-5.253-4.235-5.232-8.133
		c0.044-7.213,0.012-14.426-1.382-21.85c-0.319,1.064-0.901,2.123-0.917,3.187c-0.087,6.87-0.064,13.746-0.049,20.615
		c0.011,3.686-1.473,6.23-5.396,6.232c-3.964,0.007-5.366-2.582-5.339-6.263c0.047-5.693,0.271-11.403-0.088-17.074
		c-0.166-2.604-0.24-25.983,0.86-33.159c0.331-2.181,0.52-4.384,0.772-6.577c-0.529-0.075-1.055-0.153-1.585-0.23
		c-1.087,6.446-2.247,12.879-3.229,19.338c-0.476,3.121-1.134,6.224-5.062,5.797c-4.105-0.447-3.858-3.849-3.431-6.831
		c1.144-7.952,2.175-15.938,3.854-23.778c0.381-1.771,3.018-3.867,4.962-4.313c3.121-0.719,6.536-0.191,9.868-0.191
		c0.525,5.838,0.75,11.277,1.633,16.613c0.396,2.423,2.097,4.631,3.208,6.936c1.222-2.387,3.112-4.665,3.527-7.183
		c0.875-5.328,0.975-10.783,1.398-16.255c0.212-0.054,0.584-0.25,0.946-0.229c15.892,0.896,12.92-2.763,15.693,14.08
		c0.766,4.636,1.606,9.264,2.242,13.918c0.43,3.143,0.938,6.832-3.575,7.23c-3.894,0.342-4.51-2.799-4.911-5.946
		c-0.628-4.859-1.464-9.695-2.311-14.523c-0.281-1.61-0.859-3.168-1.305-4.748C490.767,113.164,490.326,113.268,489.88,113.372z"/>
	<path fill-rule="evenodd" clip-rule="evenodd" fill="#ED1C24" d="M479.858,85.52c1.954,0.01,3.912-0.014,5.866,0.013
		c5.3,0.075,5.442,1.241,5.18,7.346c-0.221,5.234-6.53,8.395-12.2,8.017c-5.583-0.371-9.613-3.539-10.207-8.886
		c-0.428-3.871-0.578-6.601,4.835-6.487C475.737,85.571,477.703,85.512,479.858,85.52z"/>
	<path fill-rule="evenodd" clip-rule="evenodd" fill="#ED1C24" d="M493.454,79.17c-3.933,5.305-4.658,5.117-4.658,5.117
		l-18.409-0.051c0,0-4.308-2.785-6.057-4.978C472.288,72.584,485.264,72.257,493.454,79.17z"/>
	<path fill-rule="evenodd" clip-rule="evenodd" fill="#ED1C24" d="M478.545,123.607c-0.47-5.702-1.058-11.399-1.308-17.112
		c-0.042-0.993,1.321-2.045,2.032-3.072c0.951,0.77,2.75,1.571,2.722,2.306c-0.212,5.994-0.762,11.979-1.215,17.966
		C480.036,123.665,479.29,123.636,478.545,123.607z"/>
</g>
<g>
	<g>
		<path fill="#0E5461" d="M69.486,201.956c1.297,0,2.469,0.176,3.514,0.528c1.044,0.352,1.937,0.839,2.676,1.462
			s1.307,1.354,1.703,2.193c0.396,0.839,0.594,1.746,0.594,2.721c0,0.852-0.101,1.601-0.302,2.249
			c-0.202,0.648-0.494,1.212-0.876,1.694c-0.383,0.481-0.85,0.889-1.401,1.222c-0.552,0.333-1.178,0.611-1.878,0.833
			c1.687,0.506,2.945,1.277,3.776,2.313s1.246,2.339,1.246,3.906c0,1.333-0.26,2.511-0.779,3.536s-1.22,1.885-2.102,2.582
			c-0.883,0.697-1.904,1.225-3.065,1.583c-1.162,0.358-2.391,0.537-3.689,0.537c-1.414,0-2.647-0.155-3.698-0.463
			c-1.051-0.309-1.966-0.765-2.745-1.37c-0.779-0.604-1.44-1.345-1.985-2.221c-0.545-0.876-1.012-1.888-1.401-3.036l2.122-0.833
			c0.363-0.148,0.733-0.222,1.109-0.222c0.337,0,0.639,0.068,0.905,0.204c0.266,0.136,0.47,0.333,0.613,0.592
			c0.234,0.432,0.49,0.858,0.769,1.277c0.279,0.42,0.613,0.793,1.002,1.12c0.389,0.327,0.847,0.592,1.372,0.796
			s1.151,0.306,1.878,0.306c0.817,0,1.531-0.126,2.141-0.38c0.61-0.252,1.119-0.583,1.528-0.99s0.713-0.86,0.915-1.36
			c0.201-0.5,0.302-1.002,0.302-1.509c0-0.641-0.072-1.225-0.214-1.749c-0.143-0.524-0.441-0.972-0.896-1.342
			c-0.454-0.371-1.106-0.66-1.956-0.87c-0.85-0.21-1.989-0.315-3.416-0.315v-3.276c1.181,0,2.161-0.099,2.939-0.296
			c0.779-0.197,1.398-0.472,1.859-0.824s0.782-0.774,0.964-1.268c0.181-0.493,0.272-1.037,0.272-1.629
			c0-1.271-0.364-2.23-1.09-2.878c-0.727-0.648-1.719-0.972-2.978-0.972c-1.142,0-2.089,0.287-2.842,0.86s-1.278,1.31-1.577,2.209
			c-0.156,0.468-0.37,0.804-0.642,1.008c-0.272,0.203-0.629,0.305-1.071,0.305c-0.208,0-0.428-0.018-0.662-0.055l-2.53-0.419
			c0.195-1.284,0.571-2.41,1.129-3.379c0.558-0.969,1.255-1.778,2.092-2.426s1.797-1.136,2.881-1.462
			C67.076,202.12,68.24,201.956,69.486,201.956z"/>
		<path fill="#0E5461" d="M101.232,202.252v1.98c0,0.592-0.068,1.071-0.205,1.435c-0.136,0.364-0.27,0.669-0.399,0.917
			l-10.647,20.879c-0.221,0.432-0.532,0.799-0.934,1.101c-0.402,0.303-0.948,0.454-1.635,0.454h-3.484l10.9-20.454
			c0.454-0.839,0.96-1.561,1.518-2.166H82.877c-0.299,0-0.558-0.104-0.778-0.314c-0.221-0.209-0.331-0.457-0.331-0.74v-3.091
			H101.232z"/>
		<path fill="#FFFFFF" d="M105.653,215.884v5.495h6.352v-5.495h1.715v13.133h-1.715v-6.157h-6.352v6.157h-1.695v-13.133H105.653z"/>
		<path fill="#FFFFFF" d="M125.138,224.224c0,3.488-2.416,5.008-4.696,5.008c-2.553,0-4.521-1.871-4.521-4.852
			c0-3.156,2.065-5.008,4.677-5.008C123.306,219.372,125.138,221.34,125.138,224.224z M117.655,224.322
			c0,2.065,1.188,3.624,2.864,3.624c1.637,0,2.865-1.539,2.865-3.663c0-1.598-0.799-3.625-2.826-3.625
			S117.655,222.529,117.655,224.322z"/>
		<path fill="#FFFFFF" d="M135.191,226.445c0,0.975,0.02,1.832,0.078,2.572h-1.52l-0.097-1.54h-0.039
			c-0.448,0.76-1.442,1.754-3.118,1.754c-1.481,0-3.254-0.818-3.254-4.131v-5.515h1.715v5.222c0,1.793,0.546,3.001,2.104,3.001
			c1.15,0,1.949-0.799,2.26-1.559c0.098-0.253,0.156-0.565,0.156-0.876v-5.788h1.715V226.445z"/>
		<path fill="#FFFFFF" d="M137.802,227.264c0.507,0.332,1.403,0.682,2.26,0.682c1.247,0,1.832-0.624,1.832-1.403
			c0-0.818-0.487-1.267-1.754-1.734c-1.695-0.604-2.494-1.539-2.494-2.669c0-1.52,1.228-2.767,3.254-2.767
			c0.955,0,1.793,0.273,2.319,0.585l-0.429,1.247c-0.37-0.234-1.052-0.546-1.929-0.546c-1.014,0-1.579,0.584-1.579,1.286
			c0,0.779,0.565,1.13,1.793,1.598c1.637,0.624,2.475,1.442,2.475,2.845c0,1.656-1.286,2.825-3.527,2.825
			c-1.033,0-1.988-0.253-2.65-0.643L137.802,227.264z"/>
		<path fill="#FFFFFF" d="M147.661,216.937c0.02,0.584-0.409,1.052-1.091,1.052c-0.604,0-1.033-0.468-1.033-1.052
			c0-0.604,0.448-1.072,1.072-1.072C147.252,215.865,147.661,216.333,147.661,216.937z M145.751,229.018v-9.431h1.715v9.431H145.751
			z"/>
		<path fill="#FFFFFF" d="M150.311,222.139c0-0.974-0.02-1.773-0.078-2.553h1.52l0.098,1.559h0.039
			c0.467-0.896,1.559-1.773,3.118-1.773c1.305,0,3.332,0.78,3.332,4.014v5.631h-1.715v-5.437c0-1.52-0.565-2.786-2.183-2.786
			c-1.13,0-2.007,0.799-2.299,1.753c-0.078,0.214-0.117,0.507-0.117,0.799v5.67h-1.715V222.139z"/>
		<path fill="#FFFFFF" d="M169.25,219.586c-0.039,0.682-0.078,1.442-0.078,2.592v5.476c0,2.163-0.428,3.488-1.344,4.306
			c-0.916,0.857-2.241,1.13-3.43,1.13c-1.13,0-2.377-0.272-3.137-0.779l0.428-1.306c0.624,0.39,1.598,0.741,2.767,0.741
			c1.754,0,3.04-0.916,3.04-3.293V227.4h-0.039c-0.526,0.877-1.54,1.578-3.001,1.578c-2.338,0-4.014-1.987-4.014-4.599
			c0-3.195,2.085-5.008,4.248-5.008c1.637,0,2.533,0.857,2.942,1.637h0.039l0.078-1.423H169.25z M167.477,223.308
			c0-0.292-0.02-0.545-0.098-0.779c-0.312-0.994-1.149-1.812-2.396-1.812c-1.637,0-2.806,1.383-2.806,3.566
			c0,1.851,0.936,3.39,2.787,3.39c1.052,0,2.007-0.662,2.377-1.753c0.098-0.292,0.137-0.624,0.137-0.916V223.308z"/>
		<path fill="#FFFFFF" d="M176.205,216.06c1.033-0.156,2.26-0.272,3.605-0.272c2.436,0,4.169,0.565,5.319,1.637
			c1.169,1.072,1.851,2.591,1.851,4.715c0,2.144-0.663,3.897-1.89,5.105c-1.228,1.228-3.254,1.89-5.807,1.89
			c-1.208,0-2.221-0.058-3.079-0.156V216.06z M177.9,227.673c0.429,0.078,1.052,0.098,1.714,0.098c3.625,0,5.593-2.026,5.593-5.573
			c0.019-3.098-1.734-5.066-5.32-5.066c-0.877,0-1.539,0.078-1.987,0.175V227.673z"/>
		<path fill="#FFFFFF" d="M190.155,224.614c0.039,2.319,1.52,3.273,3.234,3.273c1.228,0,1.968-0.214,2.611-0.487l0.292,1.228
			c-0.604,0.273-1.637,0.584-3.137,0.584c-2.903,0-4.638-1.91-4.638-4.754s1.676-5.086,4.423-5.086c3.079,0,3.897,2.708,3.897,4.443
			c0,0.351-0.039,0.624-0.058,0.799H190.155z M195.182,223.386c0.02-1.091-0.448-2.787-2.377-2.787
			c-1.734,0-2.494,1.598-2.631,2.787H195.182z"/>
		<path fill="#FFFFFF" d="M198.961,222.666c0-1.208-0.039-2.183-0.078-3.079h1.539l0.078,1.618h0.039
			c0.701-1.15,1.812-1.832,3.351-1.832c2.28,0,3.995,1.929,3.995,4.793c0,3.391-2.065,5.066-4.287,5.066
			c-1.247,0-2.338-0.545-2.903-1.481h-0.039v5.125h-1.695V222.666z M200.657,225.179c0,0.253,0.039,0.487,0.078,0.702
			c0.312,1.188,1.344,2.007,2.572,2.007c1.812,0,2.864-1.48,2.864-3.644c0-1.89-0.994-3.507-2.806-3.507
			c-1.169,0-2.26,0.838-2.592,2.124c-0.058,0.214-0.117,0.467-0.117,0.701V225.179z"/>
		<path fill="#FFFFFF" d="M212.113,216.878v2.708h2.455v1.306h-2.455v5.086c0,1.169,0.332,1.832,1.286,1.832
			c0.448,0,0.779-0.059,0.994-0.117l0.078,1.286c-0.332,0.137-0.857,0.234-1.52,0.234c-0.799,0-1.442-0.253-1.851-0.721
			c-0.487-0.507-0.663-1.345-0.663-2.456v-5.144h-1.461v-1.306h1.461v-2.26L212.113,216.878z"/>
		<path fill="#FFFFFF" d="M216.029,228.004c0-0.721,0.487-1.228,1.169-1.228c0.682,0,1.15,0.506,1.15,1.228
			c0,0.702-0.448,1.228-1.169,1.228C216.497,229.232,216.029,228.706,216.029,228.004z"/>
	</g>
	<g>
		<path fill-rule="evenodd" clip-rule="evenodd" fill="#969696" d="M128.491,36.831c-15.38,12.783-30.583,25.413-45.777,38.053
			c-12.796,10.644-25.592,21.293-38.365,31.97c-3.037,2.543-6.57,3.725-9.481,0.8c-1.77-1.772-2.479-4.994-2.778-7.667
			c-0.141-1.286,1.504-3.107,2.776-4.172c29.457-24.665,58.982-49.258,88.492-73.868c3.543-2.958,7.062-2.927,10.601,0.021
			c29.369,24.475,58.763,48.921,88.1,73.44c4.09,3.418,4.763,8.129,1.767,11.266c-3.77,3.939-7.6,3.013-11.413-0.171
			c-26.187-21.855-52.395-43.68-78.607-65.505C132.18,39.642,130.473,38.379,128.491,36.831z"/>
		<path fill-rule="evenodd" clip-rule="evenodd" fill="#969696" d="M197.591,178.844c-3.349,0-5.845,0-9.173,0c0-2.28,0-4.36,0-6.44
			c0-19.427,0.122-38.86-0.15-58.283c-0.034-2.534-1.44-5.823-3.339-7.438c-18.509-15.734-37.257-31.185-56.286-47.006
			c-13.883,11.579-27.706,23.098-41.526,34.62c-3.152,2.627-6.045,5.689-9.514,7.799c-6.873,4.182-8.426,9.974-8.169,17.714
			c0.583,17.644,0.187,35.319,0.187,52.982c0,1.909,0,3.82,0,5.989c-3.257,0-5.929,0-9.409,0c0-2.019,0-3.907,0-5.796
			c0-21.39-0.112-42.778,0.16-64.167c0.03-2.529,1.507-5.811,3.421-7.429c19.767-16.689,39.825-33.035,59.631-49.676
			c3.964-3.33,6.839-3.106,10.699,0.145c19.962,16.776,40.132,33.303,60.128,50.033c1.507,1.263,3.186,3.432,3.196,5.192
			C197.661,130.795,197.591,154.508,197.591,178.844z"/>
		<g>
			<g>
				<polygon fill="#ED1C24" points="128.284,111.431 112.846,123.648 97.407,135.873 97.407,169.511 119.582,169.511 
					119.582,141.015 136.977,141.015 136.977,169.511 159.144,169.511 159.144,135.873 143.712,123.648 				"/>
				<polygon fill="#ED1C24" points="153.843,118.048 153.843,102.066 142.332,102.066 142.332,109.03 134.134,102.608 
					128.93,98.523 123.724,102.608 86.928,131.432 90.888,136.496 128.93,106.691 166.972,136.496 170.938,131.432 				"/>
			</g>
		</g>
	</g>
</g>
<g>
	<g>
		<path fill="#0E5461" d="M826.86,222.827h3.543v2.647c0,0.247-0.085,0.459-0.253,0.639c-0.169,0.179-0.416,0.268-0.74,0.268h-2.55
			v6.534h-4.204v-6.534h-11.873c-0.324,0-0.61-0.095-0.856-0.287c-0.247-0.191-0.402-0.429-0.467-0.713l-0.487-2.313l13.334-16.937
			h4.554V222.827z M822.656,214.072c0-0.395,0.013-0.821,0.039-1.277s0.071-0.932,0.137-1.425l-8.74,11.458h8.564V214.072z"/>
		<path fill="#0E5461" d="M852.437,206.149v1.98c0,0.592-0.068,1.071-0.204,1.435c-0.137,0.364-0.27,0.669-0.399,0.917
			l-10.646,20.879c-0.222,0.432-0.532,0.799-0.935,1.101c-0.402,0.303-0.947,0.454-1.635,0.454h-3.484l10.899-20.454
			c0.454-0.839,0.961-1.561,1.519-2.166h-13.469c-0.299,0-0.559-0.104-0.779-0.314c-0.221-0.209-0.331-0.457-0.331-0.74v-3.091
			H852.437z"/>
		<path fill="#FFFFFF" d="M856.857,219.782v5.495h6.353v-5.495h1.715v13.133h-1.715v-6.157h-6.353v6.157h-1.695v-13.133H856.857z"/>
		<path fill="#FFFFFF" d="M868.762,228.511c0.039,2.319,1.521,3.273,3.235,3.273c1.228,0,1.968-0.214,2.61-0.487l0.293,1.228
			c-0.604,0.273-1.638,0.584-3.138,0.584c-2.903,0-4.638-1.91-4.638-4.754s1.676-5.086,4.424-5.086c3.078,0,3.896,2.708,3.896,4.443
			c0,0.351-0.039,0.624-0.059,0.799H868.762z M873.789,227.284c0.02-1.091-0.448-2.787-2.377-2.787
			c-1.734,0-2.494,1.598-2.631,2.787H873.789z"/>
		<path fill="#FFFFFF" d="M882.791,232.915l-0.137-1.188h-0.059c-0.525,0.74-1.539,1.403-2.884,1.403
			c-1.909,0-2.884-1.345-2.884-2.708c0-2.28,2.026-3.527,5.671-3.507v-0.195c0-0.779-0.215-2.183-2.144-2.183
			c-0.877,0-1.793,0.273-2.455,0.702l-0.39-1.13c0.779-0.506,1.909-0.838,3.098-0.838c2.884,0,3.586,1.968,3.586,3.858v3.527
			c0,0.818,0.039,1.617,0.155,2.26H882.791z M882.538,228.102c-1.871-0.039-3.995,0.292-3.995,2.124c0,1.111,0.74,1.637,1.617,1.637
			c1.228,0,2.008-0.779,2.28-1.578c0.059-0.175,0.098-0.371,0.098-0.546V228.102z"/>
		<path fill="#FFFFFF" d="M886.961,219.081h1.714v13.834h-1.714V219.081z"/>
		<path fill="#FFFFFF" d="M893.624,220.775v2.708h2.455v1.306h-2.455v5.086c0,1.169,0.331,1.832,1.286,1.832
			c0.447,0,0.779-0.059,0.993-0.117l0.078,1.286c-0.331,0.137-0.857,0.234-1.52,0.234c-0.799,0-1.442-0.253-1.852-0.721
			c-0.487-0.507-0.662-1.345-0.662-2.456v-5.144h-1.462v-1.306h1.462v-2.26L893.624,220.775z"/>
		<path fill="#FFFFFF" d="M898.008,219.081h1.714v5.884h0.039c0.273-0.487,0.702-0.916,1.228-1.208
			c0.507-0.292,1.111-0.487,1.754-0.487c1.267,0,3.293,0.78,3.293,4.034v5.612h-1.715v-5.417c0-1.52-0.564-2.806-2.182-2.806
			c-1.111,0-1.988,0.779-2.3,1.714c-0.098,0.234-0.117,0.487-0.117,0.818v5.69h-1.714V219.081z"/>
		<path fill="#FFFFFF" d="M915.543,232.564c-0.448,0.234-1.441,0.545-2.708,0.545c-2.845,0-4.696-1.929-4.696-4.813
			c0-2.903,1.987-5.008,5.066-5.008c1.014,0,1.909,0.253,2.377,0.487l-0.39,1.325c-0.409-0.234-1.052-0.448-1.987-0.448
			c-2.163,0-3.332,1.598-3.332,3.566c0,2.182,1.403,3.527,3.273,3.527c0.975,0,1.617-0.253,2.104-0.468L915.543,232.564z"/>
		<path fill="#FFFFFF" d="M922.771,232.915l-0.137-1.188h-0.059c-0.525,0.74-1.539,1.403-2.884,1.403
			c-1.909,0-2.884-1.345-2.884-2.708c0-2.28,2.026-3.527,5.671-3.507v-0.195c0-0.779-0.215-2.183-2.144-2.183
			c-0.877,0-1.793,0.273-2.455,0.702l-0.39-1.13c0.779-0.506,1.909-0.838,3.098-0.838c2.884,0,3.586,1.968,3.586,3.858v3.527
			c0,0.818,0.039,1.617,0.155,2.26H922.771z M922.519,228.102c-1.871-0.039-3.995,0.292-3.995,2.124c0,1.111,0.74,1.637,1.617,1.637
			c1.228,0,2.008-0.779,2.28-1.578c0.059-0.175,0.098-0.371,0.098-0.546V228.102z"/>
		<path fill="#FFFFFF" d="M926.941,226.426c0-1.11-0.02-2.065-0.078-2.942h1.5l0.059,1.851h0.078
			c0.429-1.266,1.461-2.065,2.611-2.065c0.194,0,0.331,0.02,0.486,0.059v1.617c-0.175-0.039-0.351-0.058-0.584-0.058
			c-1.208,0-2.065,0.916-2.3,2.202c-0.039,0.234-0.078,0.507-0.078,0.799v5.027h-1.694V226.426z"/>
		<path fill="#FFFFFF" d="M934.072,228.511c0.039,2.319,1.521,3.273,3.235,3.273c1.228,0,1.968-0.214,2.61-0.487l0.293,1.228
			c-0.604,0.273-1.638,0.584-3.138,0.584c-2.903,0-4.638-1.91-4.638-4.754s1.676-5.086,4.424-5.086c3.078,0,3.896,2.708,3.896,4.443
			c0,0.351-0.039,0.624-0.059,0.799H934.072z M939.1,227.284c0.02-1.091-0.448-2.787-2.377-2.787c-1.734,0-2.494,1.598-2.631,2.787
			H939.1z"/>
	</g>
	<g>
		<path fill-rule="evenodd" clip-rule="evenodd" fill="#969696" d="M865.296,32.936c-15.383,12.782-30.586,25.413-45.777,38.052
			c-12.799,10.645-25.592,21.293-38.367,31.971c-3.037,2.543-6.568,3.725-9.48,0.799c-1.771-1.772-2.479-4.993-2.779-7.667
			c-0.141-1.285,1.502-3.107,2.777-4.172c29.457-24.664,58.98-49.257,88.492-73.867c3.543-2.958,7.059-2.928,10.598,0.021
			c29.371,24.476,58.766,48.922,88.102,73.44c4.088,3.419,4.762,8.13,1.762,11.267c-3.768,3.938-7.596,3.012-11.408-0.172
			c-26.186-21.854-52.395-43.68-78.605-65.504C868.983,35.745,867.278,34.483,865.296,32.936z"/>
		<path fill-rule="evenodd" clip-rule="evenodd" fill="#969696" d="M934.396,174.947c-3.35,0-5.846,0-9.176,0
			c0-2.279,0-4.36,0-6.439c0-19.428,0.121-38.86-0.148-58.283c-0.037-2.534-1.441-5.823-3.342-7.438
			c-18.506-15.734-37.254-31.185-56.287-47.007c-13.881,11.58-27.703,23.099-41.521,34.62c-3.154,2.628-6.047,5.689-9.514,7.8
			c-6.873,4.182-8.426,9.974-8.17,17.714c0.582,17.644,0.186,35.319,0.186,52.981c0,1.909,0,3.821,0,5.99c-3.258,0-5.928,0-9.406,0
			c0-2.019,0-3.907,0-5.796c0-21.39-0.115-42.779,0.158-64.167c0.031-2.53,1.508-5.812,3.422-7.429
			c19.762-16.69,39.826-33.036,59.629-49.677c3.965-3.33,6.84-3.106,10.701,0.145c19.959,16.777,40.129,33.304,60.127,50.033
			c1.504,1.263,3.186,3.432,3.197,5.193C934.464,126.898,934.396,150.612,934.396,174.947z"/>
	</g>
	<g>
		<path fill-rule="evenodd" clip-rule="evenodd" fill="#ED1C24" d="M827.151,167.133c-2.066-1.653-2.701-3.764-2.689-6.43
			c0.109-15.926,0.189-31.856-0.016-47.782c-0.072-5.404,2.146-7.146,7.326-7.078c5.385,0.07,9.684-0.034,14.693-0.042
			c4.094-0.006,6.061,1.144,6.529,5.062c0.578,4.825,3.506,5.794,8.012,5.714c2.834-0.05,5.623-0.021,8.562-0.006
			c6.887-0.015,11.801,0.112,12.492-8.023c0.164-1.897,1.283-2.728,3.311-2.692c6.328,0.103,12.656,0.019,18.99,0.07
			c3.809,0.032,5.393,2.061,5.373,5.834c-0.064,16.54-0.064,33.081,0.02,49.624c0.014,2.502-0.883,4.304-2.756,5.774
			c-2.311,2.261-5.285,1.912-8.094,1.92c-21.223,0.066-42.447,0.068-63.67-0.002C832.431,169.067,829.45,169.416,827.151,167.133z"
			/>
		<path fill-rule="evenodd" clip-rule="evenodd" fill="#E0E0E0" d="M827.151,167.133c26.617,0.01,53.229,0.017,79.848,0.024"/>
		<g>
			<path fill-rule="evenodd" clip-rule="evenodd" fill="#FCFCFC" d="M885.358,143.879c0,3.109-2.52,5.631-5.629,5.631H855.78
				c-3.107,0-5.627-2.521-5.627-5.631l0,0c0-3.107,2.52-5.628,5.627-5.628h23.949C882.839,138.251,885.358,140.771,885.358,143.879
				L885.358,143.879z"/>
			<path fill-rule="evenodd" clip-rule="evenodd" fill="#FCFCFC" d="M867.448,126.379c3.109,0,5.629,2.52,5.629,5.629v23.95
				c0,3.107-2.52,5.628-5.629,5.628l0,0c-3.109,0-5.627-2.521-5.627-5.628v-23.95C861.821,128.898,864.339,126.379,867.448,126.379
				L867.448,126.379z"/>
		</g>
	</g>
</g>
</svg>
