<?xml version="1.0" encoding="utf-8"?>
<!-- Generator: Adobe Illustrator 16.0.0, SVG Export Plug-In . SVG Version: 6.00 Build 0)  -->
<!DOCTYPE svg PUBLIC "-//W3C//DTD SVG 1.1//EN" "http://www.w3.org/Graphics/SVG/1.1/DTD/svg11.dtd">
<svg version="1.1" id="Layer_1" xmlns="http://www.w3.org/2000/svg" xmlns:xlink="http://www.w3.org/1999/xlink" x="0px" y="0px"
	 width="550px" height="450px" viewBox="0 0 550 450" enable-background="new 0 0 550 450" xml:space="preserve">
<g>
	<g>
		<polygon fill="#5C8392" points="78.624,239.41 78.624,239.41 78.624,424.254 78.624,424.254 53.608,424.254 53.608,424.254 
			53.608,239.41 53.608,239.41 		"/>
	</g>
</g>
<g>
	<g>
		<polygon fill="#5C8392" points="122.935,295.838 122.935,295.838 122.935,424.254 122.935,424.254 97.927,424.254 97.927,424.254 
			97.927,295.838 97.927,295.838 		"/>
	</g>
</g>
<g>
	<polygon fill="#5C8392" points="163.748,421.193 163.748,421.193 163.748,425.553 163.748,425.553 138.734,425.553 
		138.734,425.553 138.734,421.193 138.734,421.193 	"/>
</g>
<g>
	<g>
		<polygon fill="#5C8392" points="209.23,378.678 209.23,378.678 209.23,424.254 209.23,424.254 184.217,424.254 184.217,424.254 
			184.217,378.678 184.217,378.678 		"/>
	</g>
</g>
<g>
	<polygon fill="#5C8392" points="253.519,411.615 253.519,411.615 253.519,425.553 253.519,425.553 228.534,425.553 
		228.534,425.553 228.534,411.615 228.534,411.615 	"/>
</g>
<g>
	<g>
		<polygon fill="#5C8392" points="300.161,357 300.161,357 300.161,424.254 300.161,424.254 275.155,424.254 275.155,424.254 
			275.155,357 275.155,357 		"/>
	</g>
</g>
<g>
	<polygon fill="#5C8392" points="347.979,394.41 347.979,394.41 347.979,424.254 347.979,424.254 322.965,424.254 322.965,424.254 
		322.965,394.41 322.965,394.41 	"/>
</g>
<g>
	<g>
		<polygon fill="#5C8392" points="393.494,48.876 393.494,48.876 393.494,424.254 393.494,424.254 368.449,424.254 368.449,424.254 
			368.449,48.876 368.449,48.876 		"/>
	</g>
</g>
<g>
	<polygon fill="#5C8392" points="441.281,399.348 441.281,399.348 441.281,424.254 441.281,424.254 416.297,424.254 
		416.297,424.254 416.297,399.348 416.297,399.348 	"/>
</g>
<g>
	<g>
		<polygon fill="#5C8392" points="490.29,156.781 490.29,156.781 490.29,424.254 490.29,424.254 465.251,424.254 465.251,424.254 
			465.251,156.781 465.251,156.781 		"/>
	</g>
</g>
<g>
	<path fill="#FFFFFF" d="M61.075,266.523c-0.368,0-0.729-0.061-1.082-0.182c-0.354-0.122-0.669-0.305-0.946-0.55
		c-0.277-0.245-0.5-0.548-0.667-0.91c-0.167-0.361-0.25-0.785-0.25-1.271c0-0.452,0.088-0.877,0.265-1.273
		c0.177-0.397,0.425-0.745,0.744-1.043c0.319-0.299,0.702-0.535,1.148-0.707c0.446-0.173,0.939-0.26,1.479-0.26
		c0.544,0,1.034,0.082,1.468,0.245c0.435,0.164,0.805,0.393,1.112,0.687s0.542,0.646,0.707,1.057
		c0.165,0.411,0.247,0.861,0.247,1.352c0,0.312-0.028,0.608-0.084,0.889c-0.057,0.28-0.138,0.55-0.243,0.809
		s-0.232,0.511-0.379,0.756c-0.147,0.245-0.312,0.491-0.493,0.738l-2.437,3.304c-0.083,0.112-0.208,0.207-0.372,0.284
		c-0.165,0.077-0.353,0.115-0.563,0.115h-1.671l3.305-3.927c0.083-0.099,0.162-0.193,0.235-0.287
		c0.074-0.094,0.145-0.187,0.214-0.28c-0.246,0.149-0.516,0.263-0.81,0.34S61.398,266.523,61.075,266.523z M63.555,263.492
		c0-0.275-0.044-0.521-0.132-0.738s-0.213-0.4-0.375-0.55c-0.162-0.148-0.354-0.264-0.578-0.343
		c-0.224-0.079-0.468-0.119-0.732-0.119c-0.275,0-0.523,0.044-0.744,0.13s-0.409,0.206-0.563,0.36
		c-0.155,0.154-0.274,0.337-0.357,0.55c-0.083,0.212-0.125,0.444-0.125,0.696c0,0.564,0.153,0.995,0.46,1.291
		c0.307,0.297,0.742,0.445,1.306,0.445c0.294,0,0.556-0.045,0.784-0.134c0.228-0.088,0.421-0.21,0.578-0.363
		c0.157-0.154,0.276-0.336,0.357-0.546C63.515,263.962,63.555,263.735,63.555,263.492z"/>
	<path fill="#FFFFFF" d="M73.882,265.502c0,0.882-0.099,1.648-0.298,2.299c-0.199,0.651-0.474,1.189-0.825,1.613
		c-0.351,0.425-0.765,0.741-1.244,0.949c-0.479,0.207-0.995,0.312-1.55,0.312c-0.554,0-1.068-0.104-1.542-0.312
		c-0.474-0.208-0.884-0.524-1.233-0.949c-0.349-0.424-0.621-0.962-0.817-1.613c-0.196-0.65-0.294-1.417-0.294-2.299
		c0-0.887,0.098-1.654,0.294-2.304c0.196-0.648,0.468-1.185,0.817-1.609s0.759-0.741,1.233-0.949
		c0.474-0.207,0.988-0.312,1.542-0.312c0.555,0,1.071,0.104,1.55,0.312c0.479,0.208,0.893,0.524,1.244,0.949
		c0.351,0.425,0.626,0.961,0.825,1.609C73.783,263.848,73.882,264.615,73.882,265.502z M72.005,265.502
		c0-0.733-0.056-1.34-0.169-1.82c-0.113-0.48-0.264-0.863-0.453-1.148c-0.189-0.284-0.406-0.483-0.651-0.599
		c-0.245-0.114-0.5-0.171-0.766-0.171c-0.26,0-0.511,0.057-0.754,0.171c-0.243,0.115-0.458,0.314-0.644,0.599
		c-0.187,0.285-0.335,0.668-0.445,1.148s-0.166,1.087-0.166,1.82c0,0.732,0.055,1.339,0.166,1.819s0.259,0.863,0.445,1.148
		c0.187,0.284,0.401,0.484,0.644,0.599c0.243,0.114,0.495,0.171,0.754,0.171c0.265,0,0.521-0.057,0.766-0.171
		c0.246-0.114,0.462-0.314,0.651-0.599c0.189-0.285,0.34-0.668,0.453-1.148C71.949,266.841,72.005,266.234,72.005,265.502z"/>
</g>
<g>
	<path fill="#FFFFFF" d="M106.757,349.989c0.391,0,0.772,0.063,1.142,0.189c0.37,0.126,0.696,0.316,0.978,0.57
		c0.281,0.255,0.508,0.57,0.68,0.948s0.258,0.819,0.258,1.323c0,0.472-0.088,0.913-0.265,1.326s-0.425,0.773-0.745,1.082
		c-0.32,0.308-0.705,0.551-1.156,0.728c-0.451,0.178-0.949,0.267-1.493,0.267c-0.554,0-1.05-0.087-1.489-0.26
		c-0.439-0.172-0.813-0.414-1.124-0.724c-0.31-0.311-0.547-0.684-0.712-1.12c-0.165-0.437-0.247-0.921-0.247-1.453
		c0-0.476,0.099-0.965,0.297-1.466c0.198-0.502,0.505-1.023,0.92-1.564l2.47-3.241c0.086-0.112,0.211-0.208,0.375-0.287
		c0.165-0.079,0.354-0.119,0.569-0.119h1.575l-3.071,3.675c-0.067,0.08-0.13,0.154-0.19,0.225c-0.06,0.069-0.118,0.142-0.175,0.217
		c0.2-0.098,0.417-0.175,0.648-0.231C106.233,350.018,106.485,349.989,106.757,349.989z M104.28,353.133
		c0,0.279,0.039,0.535,0.118,0.767c0.079,0.23,0.195,0.428,0.351,0.591c0.155,0.164,0.347,0.291,0.576,0.382
		s0.494,0.137,0.795,0.137c0.281,0,0.541-0.047,0.777-0.141c0.236-0.093,0.439-0.224,0.608-0.392s0.302-0.365,0.397-0.592
		c0.095-0.226,0.143-0.473,0.143-0.738c0-0.289-0.045-0.55-0.136-0.78c-0.09-0.231-0.219-0.427-0.386-0.588
		c-0.167-0.161-0.368-0.284-0.602-0.368s-0.492-0.126-0.773-0.126c-0.281,0-0.537,0.047-0.766,0.141
		c-0.229,0.093-0.426,0.223-0.591,0.389c-0.165,0.165-0.291,0.361-0.379,0.588S104.28,352.871,104.28,353.133z"/>
	<path fill="#FFFFFF" d="M114.575,346.076c0.477,0,0.914,0.069,1.31,0.207c0.396,0.138,0.735,0.332,1.017,0.584
		s0.501,0.556,0.659,0.91c0.157,0.354,0.236,0.749,0.236,1.184c0,0.373-0.056,0.719-0.168,1.035
		c-0.112,0.317-0.263,0.621-0.451,0.91c-0.188,0.29-0.409,0.569-0.662,0.84c-0.253,0.271-0.518,0.547-0.794,0.826l-2.334,2.331
		c0.229-0.065,0.453-0.115,0.673-0.15s0.43-0.053,0.63-0.053h2.656c0.191,0,0.342,0.053,0.455,0.158
		c0.112,0.104,0.168,0.243,0.168,0.416v1.036h-7.102v-0.574c0-0.116,0.025-0.237,0.075-0.364c0.05-0.126,0.13-0.242,0.24-0.35
		l3.143-3.08c0.262-0.261,0.498-0.511,0.705-0.749s0.382-0.474,0.522-0.707s0.248-0.47,0.322-0.71
		c0.074-0.24,0.111-0.494,0.111-0.76c0-0.242-0.036-0.456-0.107-0.641c-0.071-0.185-0.174-0.34-0.308-0.466
		c-0.134-0.126-0.292-0.22-0.476-0.283c-0.184-0.062-0.39-0.095-0.62-0.095c-0.425,0-0.774,0.105-1.049,0.315
		s-0.466,0.492-0.576,0.847c-0.053,0.178-0.131,0.305-0.236,0.382s-0.239,0.115-0.401,0.115c-0.071,0-0.15-0.007-0.236-0.021
		l-0.931-0.161c0.072-0.485,0.21-0.911,0.416-1.277c0.205-0.366,0.461-0.673,0.77-0.917c0.308-0.245,0.661-0.43,1.06-0.554
		C113.688,346.139,114.116,346.076,114.575,346.076z"/>
</g>
<g>
	<path fill="#FFFFFF" d="M152.003,402.482c0.491,0,0.94,0.069,1.347,0.207s0.756,0.332,1.045,0.584s0.515,0.556,0.677,0.91
		c0.162,0.354,0.243,0.749,0.243,1.184c0,0.373-0.058,0.719-0.173,1.035c-0.115,0.317-0.27,0.621-0.464,0.91
		c-0.194,0.29-0.421,0.569-0.681,0.84c-0.26,0.271-0.533,0.547-0.817,0.826l-2.399,2.331c0.235-0.065,0.466-0.115,0.692-0.15
		c0.226-0.035,0.441-0.053,0.647-0.053h2.731c0.196,0,0.352,0.053,0.468,0.158c0.115,0.104,0.173,0.243,0.173,0.416v1.036h-7.302
		v-0.574c0-0.116,0.026-0.237,0.078-0.364c0.051-0.126,0.133-0.242,0.247-0.35l3.231-3.08c0.27-0.261,0.511-0.511,0.725-0.749
		c0.213-0.238,0.392-0.474,0.537-0.707c0.145-0.233,0.255-0.47,0.331-0.71s0.114-0.494,0.114-0.76c0-0.242-0.037-0.456-0.11-0.641
		s-0.179-0.34-0.316-0.466c-0.138-0.126-0.301-0.22-0.49-0.283c-0.189-0.062-0.401-0.095-0.637-0.095
		c-0.437,0-0.796,0.105-1.078,0.315c-0.282,0.21-0.48,0.492-0.593,0.847c-0.054,0.178-0.135,0.305-0.243,0.382
		c-0.108,0.077-0.246,0.115-0.413,0.115c-0.073,0-0.154-0.007-0.243-0.021l-0.957-0.161c0.074-0.485,0.216-0.911,0.427-1.277
		c0.211-0.366,0.475-0.673,0.791-0.917c0.316-0.245,0.68-0.43,1.089-0.554C151.091,402.545,151.532,402.482,152.003,402.482z"/>
</g>
<g>
	<path fill="#FFFFFF" d="M192.624,386.338c0.491,0,0.94,0.069,1.347,0.207s0.756,0.332,1.045,0.584s0.515,0.556,0.677,0.91
		c0.162,0.354,0.243,0.749,0.243,1.184c0,0.373-0.058,0.719-0.173,1.035c-0.115,0.317-0.27,0.621-0.464,0.91
		c-0.194,0.29-0.421,0.569-0.681,0.84c-0.26,0.271-0.533,0.547-0.817,0.826l-2.399,2.331c0.235-0.065,0.466-0.115,0.692-0.15
		c0.226-0.035,0.441-0.053,0.647-0.053h2.731c0.196,0,0.352,0.053,0.468,0.158c0.115,0.104,0.173,0.243,0.173,0.416v1.036h-7.302
		v-0.574c0-0.116,0.026-0.237,0.078-0.364c0.051-0.126,0.133-0.242,0.247-0.35l3.231-3.08c0.27-0.261,0.511-0.511,0.725-0.749
		c0.213-0.238,0.392-0.474,0.537-0.707c0.145-0.233,0.255-0.47,0.331-0.71s0.114-0.494,0.114-0.76c0-0.242-0.037-0.456-0.11-0.641
		s-0.179-0.34-0.316-0.466c-0.138-0.126-0.301-0.22-0.49-0.283c-0.189-0.062-0.401-0.095-0.637-0.095
		c-0.437,0-0.796,0.105-1.078,0.315c-0.282,0.21-0.48,0.492-0.593,0.847c-0.054,0.178-0.135,0.305-0.243,0.382
		c-0.108,0.077-0.246,0.115-0.413,0.115c-0.073,0-0.154-0.007-0.243-0.021l-0.957-0.161c0.074-0.485,0.216-0.911,0.427-1.277
		c0.211-0.366,0.475-0.673,0.791-0.917c0.316-0.245,0.68-0.43,1.089-0.554C191.712,386.4,192.153,386.338,192.624,386.338z"/>
	<path fill="#FFFFFF" d="M201.163,386.338c0.491,0,0.94,0.069,1.347,0.207s0.756,0.332,1.045,0.584s0.515,0.556,0.677,0.91
		c0.162,0.354,0.243,0.749,0.243,1.184c0,0.373-0.058,0.719-0.173,1.035c-0.115,0.317-0.27,0.621-0.464,0.91
		c-0.194,0.29-0.421,0.569-0.681,0.84c-0.26,0.271-0.533,0.547-0.817,0.826l-2.399,2.331c0.235-0.065,0.466-0.115,0.692-0.15
		c0.226-0.035,0.441-0.053,0.647-0.053h2.731c0.196,0,0.352,0.053,0.468,0.158c0.115,0.104,0.173,0.243,0.173,0.416v1.036h-7.302
		v-0.574c0-0.116,0.026-0.237,0.078-0.364c0.051-0.126,0.133-0.242,0.247-0.35l3.231-3.08c0.27-0.261,0.511-0.511,0.725-0.749
		c0.213-0.238,0.392-0.474,0.537-0.707c0.145-0.233,0.255-0.47,0.331-0.71s0.114-0.494,0.114-0.76c0-0.242-0.037-0.456-0.11-0.641
		s-0.179-0.34-0.316-0.466c-0.138-0.126-0.301-0.22-0.49-0.283c-0.189-0.062-0.401-0.095-0.637-0.095
		c-0.437,0-0.796,0.105-1.078,0.315c-0.282,0.21-0.48,0.492-0.593,0.847c-0.054,0.178-0.135,0.305-0.243,0.382
		c-0.108,0.077-0.246,0.115-0.413,0.115c-0.073,0-0.154-0.007-0.243-0.021l-0.957-0.161c0.074-0.485,0.216-0.911,0.427-1.277
		c0.211-0.366,0.475-0.673,0.791-0.917c0.316-0.245,0.68-0.43,1.089-0.554C200.251,386.4,200.691,386.338,201.163,386.338z"/>
</g>
<g>
	<path fill="#FFFFFF" d="M243.267,415.505c0,0.178-0.059,0.323-0.177,0.438c-0.118,0.115-0.317,0.172-0.596,0.172h-3.312
		l-0.486,2.632c0.549-0.112,1.057-0.168,1.523-0.168c0.55,0,1.034,0.077,1.454,0.231c0.419,0.153,0.771,0.366,1.056,0.637
		s0.5,0.591,0.644,0.959c0.145,0.369,0.217,0.77,0.217,1.204c0,0.532-0.098,1.013-0.294,1.441c-0.196,0.43-0.465,0.797-0.806,1.103
		c-0.341,0.306-0.742,0.541-1.204,0.704c-0.461,0.163-0.959,0.245-1.494,0.245c-0.309,0-0.606-0.029-0.891-0.088
		s-0.55-0.137-0.795-0.234c-0.246-0.098-0.474-0.21-0.685-0.336s-0.397-0.259-0.56-0.399l0.397-0.531
		c0.088-0.122,0.206-0.183,0.354-0.183c0.093,0,0.202,0.036,0.328,0.108c0.125,0.072,0.276,0.153,0.453,0.242
		c0.177,0.088,0.384,0.169,0.622,0.241c0.238,0.072,0.521,0.108,0.85,0.108c0.368,0,0.699-0.056,0.994-0.168
		s0.546-0.271,0.754-0.479s0.369-0.456,0.482-0.745c0.113-0.29,0.169-0.614,0.169-0.974c0-0.312-0.048-0.595-0.144-0.847
		s-0.24-0.467-0.434-0.645c-0.194-0.177-0.436-0.314-0.725-0.412c-0.29-0.099-0.628-0.147-1.016-0.147
		c-0.265,0-0.54,0.021-0.825,0.062s-0.579,0.11-0.883,0.203l-0.824-0.23l0.854-4.69h4.999V415.505z"/>
</g>
<g>
	<path fill="#FFFFFF" d="M284.204,365.59c0.49,0,0.934,0.066,1.329,0.2c0.395,0.133,0.732,0.317,1.012,0.553
		s0.494,0.512,0.644,0.829c0.15,0.317,0.225,0.661,0.225,1.029c0,0.322-0.038,0.605-0.113,0.851
		c-0.076,0.245-0.187,0.458-0.332,0.641c-0.145,0.182-0.321,0.336-0.529,0.462c-0.209,0.126-0.445,0.23-0.711,0.314
		c0.638,0.191,1.114,0.483,1.429,0.875c0.313,0.393,0.471,0.885,0.471,1.478c0,0.504-0.099,0.949-0.295,1.337
		s-0.461,0.713-0.795,0.977c-0.333,0.264-0.72,0.463-1.159,0.599c-0.439,0.135-0.904,0.203-1.395,0.203
		c-0.535,0-1.001-0.059-1.398-0.176c-0.397-0.116-0.744-0.289-1.038-0.518c-0.295-0.229-0.545-0.509-0.751-0.84
		s-0.383-0.714-0.53-1.148l0.803-0.314c0.138-0.057,0.277-0.084,0.42-0.084c0.127,0,0.241,0.025,0.342,0.077
		c0.101,0.051,0.178,0.126,0.232,0.224c0.088,0.163,0.185,0.324,0.29,0.483c0.105,0.158,0.232,0.3,0.379,0.423
		c0.147,0.124,0.32,0.225,0.52,0.301c0.198,0.077,0.436,0.116,0.71,0.116c0.31,0,0.579-0.048,0.81-0.144
		c0.231-0.096,0.424-0.221,0.578-0.375c0.154-0.153,0.27-0.325,0.346-0.515c0.076-0.188,0.114-0.379,0.114-0.57
		c0-0.242-0.026-0.463-0.081-0.661c-0.054-0.198-0.167-0.367-0.338-0.508c-0.172-0.14-0.419-0.249-0.74-0.329
		c-0.321-0.079-0.752-0.119-1.292-0.119v-1.238c0.446,0,0.817-0.037,1.111-0.112c0.295-0.074,0.529-0.179,0.703-0.312
		s0.296-0.293,0.364-0.479c0.069-0.187,0.104-0.392,0.104-0.616c0-0.48-0.138-0.843-0.412-1.088
		c-0.275-0.245-0.65-0.368-1.127-0.368c-0.432,0-0.79,0.108-1.074,0.325c-0.285,0.217-0.483,0.495-0.597,0.836
		c-0.059,0.177-0.14,0.304-0.242,0.381c-0.104,0.077-0.238,0.115-0.405,0.115c-0.078,0-0.162-0.007-0.25-0.021l-0.957-0.158
		c0.073-0.485,0.216-0.912,0.427-1.278s0.475-0.672,0.791-0.917c0.317-0.245,0.68-0.43,1.09-0.554
		C283.293,365.652,283.733,365.59,284.204,365.59z"/>
	<path fill="#FFFFFF" d="M295.422,366.438c0,0.247-0.083,0.447-0.247,0.602s-0.438,0.231-0.82,0.231h-2.93l-0.383,2.113
		c0.48-0.093,0.92-0.14,1.317-0.14c0.56,0,1.052,0.079,1.476,0.238c0.425,0.158,0.781,0.378,1.071,0.658
		c0.289,0.279,0.508,0.607,0.655,0.983c0.147,0.375,0.221,0.78,0.221,1.214c0,0.537-0.1,1.027-0.298,1.471
		c-0.199,0.443-0.475,0.822-0.828,1.137c-0.354,0.315-0.772,0.56-1.255,0.731c-0.483,0.173-1.01,0.26-1.579,0.26
		c-0.334,0-0.65-0.033-0.95-0.099c-0.299-0.065-0.58-0.152-0.843-0.262c-0.262-0.11-0.505-0.236-0.729-0.379
		c-0.224-0.142-0.423-0.292-0.6-0.451l0.56-0.735c0.117-0.158,0.274-0.237,0.471-0.237c0.123,0,0.247,0.037,0.372,0.111
		c0.125,0.075,0.271,0.157,0.438,0.245c0.167,0.089,0.361,0.171,0.582,0.245c0.221,0.075,0.488,0.112,0.802,0.112
		c0.334,0,0.628-0.052,0.884-0.154c0.255-0.103,0.467-0.246,0.637-0.431c0.169-0.184,0.297-0.403,0.383-0.657
		c0.086-0.255,0.129-0.531,0.129-0.83c0-0.551-0.168-0.98-0.505-1.291c-0.336-0.311-0.83-0.466-1.482-0.466
		c-0.516,0-1.033,0.089-1.554,0.266l-1.134-0.308l0.884-4.914h5.256V366.438z"/>
</g>
<g>
	<path fill="#FFFFFF" d="M328.412,411.107h2.156v-5.901c0-0.229,0.008-0.469,0.022-0.721l-1.531,1.218
		c-0.063,0.052-0.129,0.087-0.195,0.105s-0.131,0.027-0.195,0.027c-0.098,0-0.188-0.02-0.269-0.06
		c-0.081-0.039-0.141-0.085-0.18-0.136l-0.574-0.749l3.246-2.625h1.494v8.841h1.914v1.295h-5.889V411.107z"/>
	<path fill="#FFFFFF" d="M343.141,407.342c0,0.882-0.1,1.648-0.299,2.299c-0.198,0.651-0.474,1.189-0.824,1.613
		c-0.351,0.425-0.766,0.741-1.244,0.949c-0.479,0.207-0.994,0.312-1.549,0.312s-1.069-0.104-1.542-0.312
		c-0.474-0.208-0.885-0.524-1.233-0.949c-0.349-0.424-0.621-0.962-0.817-1.613c-0.196-0.65-0.294-1.417-0.294-2.299
		c0-0.887,0.098-1.654,0.294-2.304c0.196-0.648,0.469-1.185,0.817-1.609s0.76-0.741,1.233-0.949
		c0.473-0.207,0.987-0.312,1.542-0.312s1.07,0.104,1.549,0.312c0.479,0.208,0.894,0.524,1.244,0.949s0.626,0.961,0.824,1.609
		C343.041,405.688,343.141,406.455,343.141,407.342z M341.264,407.342c0-0.733-0.057-1.34-0.17-1.82
		c-0.112-0.48-0.264-0.863-0.452-1.148c-0.189-0.284-0.406-0.483-0.651-0.599c-0.246-0.114-0.501-0.171-0.766-0.171
		c-0.261,0-0.512,0.057-0.755,0.171c-0.243,0.115-0.458,0.314-0.644,0.599c-0.187,0.285-0.335,0.668-0.445,1.148
		c-0.111,0.48-0.166,1.087-0.166,1.82c0,0.732,0.055,1.339,0.166,1.819c0.11,0.48,0.259,0.863,0.445,1.148
		c0.186,0.284,0.4,0.484,0.644,0.599s0.494,0.171,0.755,0.171c0.265,0,0.52-0.057,0.766-0.171c0.245-0.114,0.462-0.314,0.651-0.599
		c0.188-0.285,0.34-0.668,0.452-1.148C341.207,408.681,341.264,408.074,341.264,407.342z"/>
</g>
<g>
	<path fill="#FFFFFF" d="M370.135,77.919h2.156v-5.901c0-0.229,0.008-0.469,0.022-0.721l-1.531,1.218
		c-0.063,0.052-0.129,0.086-0.195,0.105c-0.066,0.019-0.131,0.028-0.195,0.028c-0.098,0-0.188-0.02-0.269-0.06
		s-0.141-0.085-0.18-0.137l-0.574-0.749l3.246-2.625h1.494v8.841h1.914v1.295h-5.889V77.919z"/>
	<path fill="#FFFFFF" d="M380.962,79.326c-0.55,0-1.052-0.07-1.506-0.21c-0.453-0.14-0.843-0.338-1.166-0.595
		c-0.324-0.257-0.576-0.567-0.755-0.931c-0.179-0.364-0.269-0.77-0.269-1.218c0-0.598,0.154-1.103,0.464-1.516
		c0.309-0.413,0.79-0.72,1.442-0.92c-0.521-0.206-0.909-0.497-1.167-0.875c-0.257-0.378-0.386-0.833-0.386-1.365
		c0-0.382,0.082-0.74,0.246-1.071c0.165-0.332,0.395-0.62,0.688-0.865c0.295-0.245,0.646-0.436,1.057-0.574
		c0.409-0.138,0.859-0.207,1.351-0.207c0.49,0,0.94,0.069,1.351,0.207c0.409,0.138,0.762,0.329,1.057,0.574
		c0.294,0.245,0.523,0.533,0.688,0.865c0.165,0.331,0.247,0.688,0.247,1.071c0,0.532-0.13,0.987-0.391,1.365
		c-0.26,0.378-0.647,0.669-1.163,0.875c0.653,0.201,1.134,0.507,1.443,0.92c0.309,0.413,0.464,0.918,0.464,1.516
		c0,0.448-0.09,0.854-0.269,1.218c-0.18,0.364-0.431,0.674-0.755,0.931c-0.324,0.256-0.713,0.455-1.167,0.595
		C382.013,79.256,381.512,79.326,380.962,79.326z M380.962,77.976c0.299,0,0.562-0.041,0.787-0.123s0.416-0.195,0.57-0.34
		c0.155-0.145,0.271-0.317,0.351-0.518c0.078-0.2,0.117-0.417,0.117-0.651c0-0.555-0.162-0.975-0.485-1.26
		c-0.324-0.285-0.771-0.427-1.34-0.427s-1.016,0.143-1.34,0.427s-0.486,0.705-0.486,1.26c0,0.233,0.04,0.451,0.118,0.651
		c0.078,0.201,0.195,0.374,0.35,0.518c0.154,0.145,0.345,0.258,0.57,0.34S380.662,77.976,380.962,77.976z M380.962,73.299
		c0.294,0,0.542-0.044,0.743-0.133c0.201-0.089,0.363-0.207,0.486-0.354c0.122-0.147,0.209-0.315,0.261-0.504
		c0.052-0.189,0.077-0.384,0.077-0.585c0-0.191-0.031-0.373-0.096-0.546c-0.063-0.172-0.159-0.325-0.287-0.458
		c-0.127-0.133-0.289-0.239-0.485-0.318c-0.196-0.079-0.43-0.119-0.699-0.119c-0.271,0-0.503,0.04-0.699,0.119
		c-0.196,0.08-0.359,0.186-0.49,0.318c-0.13,0.133-0.226,0.286-0.286,0.458c-0.062,0.173-0.093,0.355-0.093,0.546
		c0,0.201,0.026,0.396,0.077,0.585c0.052,0.189,0.139,0.357,0.262,0.504s0.284,0.265,0.486,0.354
		C380.419,73.255,380.667,73.299,380.962,73.299z"/>
	<path fill="#FFFFFF" d="M390.163,72.894c0.402,0,0.794,0.063,1.174,0.189c0.381,0.126,0.716,0.316,1.005,0.57
		c0.29,0.254,0.522,0.57,0.699,0.949c0.177,0.378,0.266,0.819,0.266,1.323c0,0.472-0.091,0.914-0.272,1.327
		s-0.437,0.773-0.766,1.082c-0.329,0.308-0.726,0.551-1.188,0.728c-0.464,0.177-0.976,0.266-1.535,0.266
		c-0.569,0-1.08-0.086-1.531-0.259c-0.451-0.173-0.837-0.414-1.155-0.725c-0.319-0.31-0.563-0.684-0.732-1.12
		c-0.17-0.436-0.254-0.92-0.254-1.452c0-0.476,0.102-0.965,0.306-1.467c0.203-0.501,0.519-1.023,0.945-1.564l2.54-3.241
		c0.088-0.112,0.217-0.208,0.386-0.287c0.17-0.08,0.364-0.119,0.586-0.119h1.619l-3.158,3.675c-0.068,0.079-0.134,0.154-0.195,0.224
		c-0.061,0.07-0.121,0.143-0.18,0.217c0.206-0.098,0.428-0.175,0.666-0.231C389.625,72.921,389.884,72.894,390.163,72.894z
		 M387.616,76.036c0,0.28,0.041,0.536,0.122,0.767c0.08,0.231,0.201,0.428,0.36,0.592c0.159,0.163,0.356,0.291,0.593,0.381
		c0.235,0.091,0.508,0.137,0.816,0.137c0.29,0,0.556-0.047,0.799-0.14s0.451-0.224,0.626-0.392c0.174-0.168,0.311-0.365,0.408-0.591
		c0.099-0.227,0.147-0.473,0.147-0.739c0-0.289-0.047-0.549-0.14-0.78c-0.094-0.231-0.226-0.427-0.397-0.588
		c-0.172-0.161-0.378-0.283-0.618-0.367c-0.241-0.084-0.506-0.126-0.796-0.126c-0.289,0-0.552,0.046-0.787,0.14
		c-0.235,0.094-0.438,0.223-0.607,0.389s-0.299,0.362-0.39,0.588C387.662,75.531,387.616,75.775,387.616,76.036z"/>
</g>
<g>
	<path fill="#FFFFFF" d="M433.984,406.597v0.749c0,0.224-0.025,0.405-0.077,0.543s-0.102,0.253-0.15,0.346l-4.027,7.896
		c-0.083,0.163-0.201,0.302-0.353,0.416c-0.152,0.115-0.358,0.172-0.618,0.172h-1.318l4.122-7.735
		c0.172-0.317,0.363-0.59,0.574-0.818h-5.094c-0.112,0-0.211-0.04-0.294-0.119c-0.084-0.079-0.125-0.173-0.125-0.28v-1.169H433.984z
		"/>
</g>
<g>
	<path fill="#FFFFFF" d="M467.395,203.657h2.156v-5.901c0-0.229,0.008-0.469,0.022-0.721l-1.531,1.218
		c-0.063,0.052-0.129,0.086-0.195,0.105c-0.066,0.019-0.131,0.028-0.195,0.028c-0.098,0-0.188-0.02-0.269-0.06
		s-0.141-0.085-0.18-0.137l-0.574-0.749l3.246-2.625h1.494v8.841h1.914v1.295h-5.889V203.657z"/>
	<path fill="#FFFFFF" d="M478.553,194.718c0.49,0,0.934,0.066,1.329,0.199c0.395,0.133,0.732,0.317,1.012,0.553
		s0.494,0.512,0.644,0.83c0.15,0.317,0.225,0.66,0.225,1.029c0,0.322-0.038,0.605-0.113,0.851c-0.076,0.245-0.187,0.458-0.332,0.641
		c-0.145,0.182-0.321,0.336-0.529,0.462c-0.209,0.126-0.445,0.231-0.711,0.315c0.638,0.191,1.114,0.483,1.429,0.875
		c0.313,0.392,0.471,0.884,0.471,1.477c0,0.504-0.099,0.95-0.295,1.337s-0.461,0.713-0.795,0.977
		c-0.333,0.264-0.72,0.463-1.159,0.599s-0.904,0.203-1.395,0.203c-0.535,0-1.001-0.058-1.398-0.175s-0.744-0.29-1.038-0.518
		c-0.295-0.229-0.545-0.508-0.751-0.84s-0.383-0.714-0.53-1.148l0.803-0.315c0.138-0.056,0.277-0.084,0.42-0.084
		c0.127,0,0.241,0.025,0.342,0.077c0.101,0.052,0.178,0.126,0.232,0.224c0.088,0.164,0.185,0.324,0.29,0.483s0.232,0.3,0.379,0.423
		c0.147,0.124,0.32,0.224,0.52,0.301c0.198,0.077,0.436,0.115,0.71,0.115c0.31,0,0.579-0.047,0.81-0.143
		c0.231-0.096,0.424-0.221,0.578-0.375c0.154-0.154,0.27-0.326,0.346-0.515s0.114-0.379,0.114-0.57c0-0.243-0.026-0.463-0.081-0.662
		c-0.054-0.198-0.167-0.368-0.338-0.508c-0.172-0.14-0.419-0.25-0.74-0.329c-0.321-0.08-0.752-0.119-1.292-0.119v-1.239
		c0.446,0,0.817-0.037,1.111-0.112c0.295-0.075,0.529-0.178,0.703-0.312c0.174-0.133,0.296-0.293,0.364-0.479
		c0.069-0.187,0.104-0.392,0.104-0.616c0-0.481-0.138-0.844-0.412-1.089c-0.275-0.245-0.65-0.367-1.127-0.367
		c-0.432,0-0.79,0.108-1.074,0.325c-0.285,0.217-0.483,0.495-0.597,0.835c-0.059,0.177-0.14,0.304-0.242,0.381
		c-0.104,0.077-0.238,0.115-0.405,0.115c-0.078,0-0.162-0.007-0.25-0.021l-0.957-0.159c0.073-0.485,0.216-0.911,0.427-1.278
		c0.211-0.366,0.475-0.672,0.791-0.917c0.317-0.245,0.68-0.43,1.09-0.553S478.082,194.718,478.553,194.718z"/>
	<path fill="#FFFFFF" d="M486.923,194.718c0.49,0,0.939,0.069,1.347,0.207s0.756,0.333,1.045,0.584
		c0.29,0.252,0.516,0.555,0.678,0.91c0.162,0.355,0.243,0.749,0.243,1.183c0,0.374-0.059,0.719-0.174,1.036s-0.27,0.621-0.463,0.91
		c-0.194,0.289-0.421,0.569-0.682,0.84c-0.26,0.271-0.532,0.546-0.816,0.826l-2.4,2.331c0.236-0.065,0.467-0.115,0.692-0.15
		c0.226-0.035,0.441-0.052,0.647-0.052h2.731c0.196,0,0.352,0.052,0.467,0.157s0.173,0.244,0.173,0.417v1.036h-7.302v-0.574
		c0-0.116,0.026-0.238,0.077-0.364c0.052-0.126,0.134-0.243,0.247-0.35l3.231-3.08c0.27-0.261,0.512-0.511,0.725-0.749
		c0.214-0.238,0.393-0.474,0.538-0.707c0.145-0.233,0.255-0.47,0.331-0.71c0.076-0.24,0.114-0.493,0.114-0.759
		c0-0.243-0.037-0.456-0.111-0.641c-0.073-0.184-0.179-0.339-0.316-0.465c-0.137-0.126-0.301-0.221-0.489-0.284
		s-0.401-0.094-0.637-0.094c-0.437,0-0.796,0.105-1.078,0.315s-0.479,0.492-0.593,0.847c-0.054,0.178-0.135,0.305-0.243,0.382
		c-0.107,0.077-0.245,0.115-0.412,0.115c-0.073,0-0.154-0.007-0.243-0.021l-0.956-0.161c0.073-0.485,0.216-0.911,0.427-1.278
		c0.211-0.366,0.475-0.672,0.791-0.917s0.68-0.429,1.09-0.553C486.011,194.78,486.451,194.718,486.923,194.718z"/>
</g>
<g>
	<g>
		<path fill="#ED1C24" d="M68.416,219.116l-7.877-0.036c-2.914,0.081-3.986,2.428-3.986,3.243v11.605
			c0,0.719,0.582,1.299,1.295,1.299c0.719,0,1.302-0.58,1.302-1.299v-9.513h1.104v9.117c0,0.127,0.018,0.25,0.032,0.363v0.25
			c0.082-0.018,7.051,0.02,8.131-0.035v-9.695h0.981v9.513c0,0.719,0.621,1.299,1.39,1.299c0.771,0,1.395-0.58,1.395-1.299v-11.756
			C72.182,221.18,70.88,219.116,68.416,219.116z"/>
		<path fill="#ED1C24" d="M64.252,218.514c1.725,0,3.119-1.396,3.119-3.122c0-1.724-1.395-3.12-3.119-3.12s-3.122,1.396-3.122,3.12
			C61.13,217.119,62.527,218.514,64.252,218.514z"/>
	</g>
	<g>
		<path fill="#ED1C24" d="M74.723,221.408v-0.875c0-0.58-0.76-1.786-2.198-1.786l-4.6-0.02c-1.7,0.045-2.326,1.416-2.326,1.893
			v0.625C68.639,221.252,71.682,221.323,74.723,221.408z"/>
		<path fill="#ED1C24" d="M70.16,218.395c1.007,0,1.822-0.814,1.822-1.824c0-1.006-0.815-1.821-1.822-1.821
			s-1.823,0.815-1.823,1.821C68.337,217.581,69.153,218.395,70.16,218.395z"/>
	</g>
	<g>
		<path fill="#ED1C24" d="M63.034,221.668c0.109,0.003,0.21,0.014,0.312,0.025v-1.116c0-0.478-0.627-1.849-2.331-1.894l-4.598,0.02
			c-1.438,0-2.198,1.206-2.198,1.785v1.171C57.159,221.596,60.096,221.663,63.034,221.668z"/>
		<path fill="#ED1C24" d="M58.665,218.353c-1.004,0-1.822-0.814-1.822-1.825c0-1.007,0.818-1.821,1.822-1.821
			c1.007,0,1.823,0.814,1.823,1.821C60.488,217.539,59.672,218.353,58.665,218.353z"/>
	</g>
	<path fill="#ED1C24" d="M76.158,216.404c0.008-0.197,0.005-0.396-0.005-0.591c-0.071-1.352-0.557-2.638-1.396-3.695
		c-0.121-0.154-0.253-0.304-0.388-0.447c-0.229-0.239-0.574-0.282-0.794-0.132c-0.03,0.021-0.058,0.045-0.085,0.07
		c-0.021,0.022-0.042,0.044-0.064,0.068c-0.208,0.224-0.188,0.571,0.022,0.788c0.114,0.122,0.223,0.246,0.322,0.376
		c0.173,0.214,0.475,0.295,0.733,0.192c0.439,0.685,0.73,1.453,0.852,2.26c-0.264,0.091-0.434,0.353-0.421,0.627
		c0.009,0.164,0.011,0.329,0.005,0.492c-0.011,0.305,0.2,0.58,0.508,0.61c0.03,0.004,0.063,0.005,0.091,0.007
		c0.038,0.003,0.071,0.003,0.111-0.003C75.914,216.995,76.146,216.732,76.158,216.404z"/>
	<path fill="#ED1C24" d="M53.063,216.833c-0.008-0.198-0.007-0.396,0.002-0.594c0.071-1.349,0.556-2.635,1.397-3.692
		c0.122-0.155,0.25-0.304,0.386-0.447c0.229-0.239,0.574-0.283,0.796-0.132c0.028,0.021,0.056,0.042,0.084,0.069
		c0.022,0.023,0.041,0.045,0.063,0.066c0.21,0.226,0.188,0.571-0.022,0.791c-0.112,0.12-0.221,0.246-0.322,0.375
		c-0.173,0.215-0.471,0.295-0.73,0.191c-0.44,0.687-0.73,1.455-0.854,2.262c0.264,0.091,0.435,0.352,0.421,0.626
		c-0.008,0.165-0.011,0.328-0.005,0.493c0.013,0.306-0.2,0.579-0.505,0.61c-0.033,0.001-0.062,0.003-0.094,0.007
		c-0.037,0.003-0.071,0.002-0.109-0.004C53.307,217.42,53.076,217.161,53.063,216.833z"/>
</g>
<g>
	<path fill="#ED1C24" d="M292.767,341.91h-2.092v-2.344c0-0.473-0.383-0.855-0.854-0.855s-0.851,0.383-0.851,0.855v0.637
		l-5.378,0.002v-0.639c0-0.473-0.383-0.855-0.852-0.855c-0.472,0-0.853,0.383-0.853,0.855v2.344h-2.095
		c-1.113,0-2.016,0.904-2.016,2.016v8.51h17.006v-8.51C294.783,342.814,293.882,341.91,292.767,341.91z M286.28,350.939
		c-2.239,0-4.053-1.812-4.053-4.053c0-0.613,0.141-1.195,0.388-1.717c0.14-0.303,0.314-0.586,0.522-0.842
		c0.137-0.166,0.293-0.324,0.454-0.467c0.717-0.635,1.656-1.025,2.688-1.025s1.97,0.391,2.689,1.025
		c0.159,0.143,0.314,0.301,0.449,0.467c0.208,0.256,0.386,0.539,0.525,0.842c0.246,0.521,0.388,1.104,0.388,1.717
		C290.332,349.127,288.517,350.939,286.28,350.939z"/>
	<path fill="#ED1C24" d="M287.003,344.328c-0.229-0.064-0.475-0.102-0.723-0.102c-0.251,0-0.492,0.037-0.723,0.102
		c-1.119,0.314-1.94,1.34-1.94,2.559c0,1.471,1.191,2.664,2.663,2.664c1.471,0,2.662-1.193,2.662-2.664
		C288.942,345.668,288.118,344.643,287.003,344.328z"/>
	<path fill="#ED1C24" d="M296.459,336.74c-0.738-0.307-1.48-0.582-2.234-0.822c-5.183-1.652-10.708-1.652-15.89,0
		c-0.752,0.24-1.499,0.516-2.231,0.822c-1.223,0.516-1.882,1.762-1.626,2.805c0.032,0.139,0.077,0.279,0.143,0.412
		c0.053,0.111,0.106,0.223,0.158,0.334c0.554,1.117,1.886,1.521,3.014,1.049c0.612-0.258,1.235-0.486,1.861-0.686
		c1.055-0.342,1.788-1.357,1.766-2.48c3.21-0.68,6.512-0.68,9.723,0c-0.024,1.121,0.707,2.139,1.765,2.48
		c0.626,0.199,1.248,0.428,1.86,0.686c1.13,0.473,2.46,0.068,3.014-1.049c0.054-0.109,0.106-0.223,0.16-0.334
		c0.064-0.133,0.108-0.273,0.145-0.412C298.336,338.502,297.682,337.256,296.459,336.74z"/>
</g>
<g>
	<g>
		<path fill="#ED1C24" d="M494.797,144.551h-2.583v-16.634c0-0.505-0.412-0.914-0.917-0.914l-24.837-0.001
			c-0.505,0-0.918,0.408-0.918,0.915v16.634h-2.581c-0.665,0-1.205,0.545-1.205,1.209v1.118c0,0.665,0.54,1.206,1.205,1.206h31.836
			c0.667,0,1.207-0.541,1.207-1.206v-1.118C496.004,145.096,495.464,144.551,494.797,144.551z M484.082,145.546
			c0,0.252-0.205,0.458-0.459,0.458h-9.489c-0.254,0-0.459-0.206-0.459-0.458v-0.425c0-0.038,0.005-0.076,0.013-0.111h10.382
			c0.011,0.035,0.013,0.073,0.013,0.111V145.546z M489.423,146.812c-0.213,0-0.383-0.173-0.383-0.387s0.17-0.386,0.383-0.386
			s0.388,0.172,0.388,0.386S489.636,146.812,489.423,146.812z M489.859,143.878h-21.961v-14.694c0-0.014,0.02-0.036,0.049-0.036
			l21.863,0.001c0.029,0,0.049,0.021,0.049,0.035V143.878z M491.198,146.812c-0.211,0-0.383-0.173-0.383-0.387
			s0.172-0.386,0.383-0.386c0.213,0,0.386,0.172,0.386,0.386S491.411,146.812,491.198,146.812z M492.974,146.812
			c-0.211,0-0.386-0.173-0.386-0.387s0.175-0.386,0.386-0.386c0.213,0,0.383,0.172,0.383,0.386S493.187,146.812,492.974,146.812z"/>
		<rect x="469.034" y="129.715" fill-rule="evenodd" clip-rule="evenodd" fill="#ED1C24" width="19.631" height="1.907"/>
		
			<rect x="469.034" y="132.188" opacity="0.7" fill-rule="evenodd" clip-rule="evenodd" fill="none" stroke="#ED1C24" stroke-width="0.1774" stroke-miterlimit="10" width="19.631" height="10.806"/>
	</g>
	<rect x="469.962" y="132.756" fill-rule="evenodd" clip-rule="evenodd" fill="#ED1C24" width="6.15" height="9.727"/>
	<rect x="485.515" y="132.995" fill-rule="evenodd" clip-rule="evenodd" fill="#ED1C24" width="2.572" height="3.311"/>
	<rect x="485.515" y="136.748" fill-rule="evenodd" clip-rule="evenodd" fill="#ED1C24" width="2.603" height="3.134"/>
	
		<line fill="none" stroke="#ED1C24" stroke-width="0.6293" stroke-miterlimit="10" x1="476.317" y1="133.465" x2="485.16" y2="133.465"/>
	
		<line fill="none" stroke="#ED1C24" stroke-width="0.6293" stroke-miterlimit="10" x1="476.317" y1="134.501" x2="485.16" y2="134.501"/>
	
		<line fill="none" stroke="#ED1C24" stroke-width="0.6293" stroke-miterlimit="10" x1="476.317" y1="135.655" x2="485.16" y2="135.655"/>
	
		<line fill="none" stroke="#ED1C24" stroke-width="0.6293" stroke-miterlimit="10" x1="476.317" y1="136.659" x2="485.16" y2="136.659"/>
	
		<line fill="none" stroke="#ED1C24" stroke-width="0.6293" stroke-miterlimit="10" x1="476.317" y1="138.434" x2="485.16" y2="138.434"/>
	
		<line fill="none" stroke="#ED1C24" stroke-width="0.6293" stroke-miterlimit="10" x1="476.317" y1="139.469" x2="485.16" y2="139.469"/>
	
		<line fill="none" stroke="#ED1C24" stroke-width="0.6293" stroke-miterlimit="10" x1="476.317" y1="140.621" x2="488.084" y2="140.621"/>
	
		<line fill="none" stroke="#ED1C24" stroke-width="0.6293" stroke-miterlimit="10" x1="476.317" y1="141.626" x2="488.084" y2="141.626"/>
</g>
<path fill="#ED1C24" d="M387.936,24.549l-0.019,4.465l-13.59-0.059l0.062-15.723l5.046,0.021c-0.021-0.245-0.03-0.492-0.03-0.737
	c0.005-0.868,0.124-1.706,0.343-2.521l-5.148-0.021c-1.666-0.007-3.03,1.354-3.038,3.019l-0.114,27.417
	c-0.006,1.665,1.35,3.034,3.016,3.043l13.202,0.053c1.668,0.007,3.035-1.352,3.044-3.018l0.067-16.98
	c-0.249-0.025-0.497-0.044-0.743-0.081C389.391,23.806,388.673,24.187,387.936,24.549z M378.07,40.802
	c0,0.178-0.147,0.322-0.327,0.321l-3.299-0.013c-0.176-0.003-0.322-0.148-0.32-0.326l0.006-1.008c0-0.179,0.145-0.323,0.321-0.321
	l3.3,0.012c0.18,0,0.327,0.146,0.324,0.325L378.07,40.802z M378.083,37.989c-0.001,0.18-0.149,0.327-0.327,0.324l-3.299-0.013
	c-0.178-0.002-0.322-0.148-0.322-0.327l0.002-1.012c0-0.178,0.152-0.323,0.327-0.323l3.3,0.014c0.178,0.003,0.324,0.147,0.324,0.327
	L378.083,37.989z M378.096,35.173c-0.003,0.182-0.149,0.327-0.33,0.325l-3.296-0.012c-0.178-0.002-0.325-0.146-0.325-0.329
	l0.005-1.01c0-0.175,0.151-0.32,0.327-0.32l3.3,0.013c0.178,0.002,0.324,0.147,0.324,0.325L378.096,35.173z M378.105,32.363
	c0,0.179-0.146,0.327-0.327,0.324l-3.299-0.013c-0.178-0.002-0.323-0.149-0.322-0.328l0.005-1.008c0-0.182,0.147-0.327,0.325-0.327
	l3.299,0.013c0.181,0.002,0.323,0.148,0.323,0.331L378.105,32.363z M383.049,40.824c0,0.177-0.145,0.319-0.325,0.319l-3.302-0.013
	c-0.179,0-0.324-0.146-0.324-0.324l0.005-1.008c0-0.183,0.147-0.323,0.324-0.323l3.302,0.014c0.181,0,0.325,0.144,0.325,0.323
	L383.049,40.824z M383.062,38.009c0,0.18-0.148,0.325-0.328,0.325l-3.302-0.015c-0.18,0-0.322-0.148-0.322-0.327l0.005-1.01
	c0-0.179,0.147-0.323,0.324-0.323l3.302,0.016c0.181,0,0.322,0.146,0.322,0.322L383.062,38.009z M383.071,35.196
	c0,0.179-0.145,0.325-0.323,0.325l-3.303-0.015c-0.181,0-0.325-0.148-0.325-0.329l0.003-1.008c0.005-0.178,0.146-0.32,0.329-0.32
	l3.302,0.014c0.181,0,0.322,0.146,0.321,0.32L383.071,35.196z M383.081,32.383c0,0.177-0.142,0.325-0.323,0.325l-3.303-0.015
	c-0.179,0-0.323-0.149-0.322-0.327l0.003-1.01c0.005-0.183,0.146-0.324,0.327-0.324l3.304,0.015c0.181,0,0.322,0.146,0.32,0.327
	L383.081,32.383z M388.029,40.844c-0.003,0.178-0.15,0.32-0.333,0.32l-3.294-0.014c-0.183,0-0.327-0.145-0.324-0.323l0.002-1.012
	c0-0.178,0.145-0.322,0.327-0.322l3.297,0.014c0.179,0,0.327,0.147,0.327,0.326L388.029,40.844z M388.039,38.031
	c0,0.179-0.149,0.324-0.33,0.324l-3.296-0.014c-0.183,0-0.325-0.146-0.325-0.328l0.003-1.009c0-0.179,0.146-0.324,0.329-0.324
	l3.297,0.013c0.178,0,0.327,0.148,0.327,0.328L388.039,38.031z M388.051,35.218c0,0.179-0.148,0.323-0.329,0.323l-3.299-0.016
	c-0.178,0-0.322-0.146-0.322-0.324l0.003-1.013c0.002-0.177,0.146-0.322,0.327-0.322l3.299,0.015c0.178,0,0.327,0.148,0.325,0.323
	L388.051,35.218z M388.062,32.405c-0.001,0.178-0.149,0.324-0.327,0.324l-3.299-0.014c-0.183,0-0.327-0.148-0.322-0.327l0.003-1.008
	c0.002-0.183,0.145-0.33,0.327-0.33l3.297,0.016c0.183,0,0.329,0.148,0.327,0.329L388.062,32.405z M391.906,2.724
	c-6.243-0.025-11.333,4.368-11.358,9.798c-0.01,3.145,1.687,5.958,4.33,7.77c0.05,2.479-1.609,3.653-3.067,5.345
	c1.243-0.124,5.303-1.754,7.98-3.396c0.66,0.106,1.345,0.163,2.037,0.166c6.243,0.025,11.338-4.367,11.36-9.793
	C403.212,7.185,398.149,2.749,391.906,2.724z M385.906,15.658c-0.649-0.004-1.283-0.172-1.6-0.351l0.264-1.054
	c0.341,0.178,0.867,0.357,1.412,0.359c0.591,0.002,0.9-0.238,0.9-0.607c0.005-0.349-0.264-0.556-0.946-0.801
	c-0.933-0.332-1.544-0.852-1.542-1.672c0.003-0.965,0.812-1.696,2.146-1.69c0.64,0.001,1.107,0.137,1.438,0.289l-0.289,1.029
	c-0.226-0.11-0.627-0.27-1.18-0.271c-0.552-0.003-0.821,0.245-0.821,0.537c0,0.362,0.314,0.523,1.045,0.8
	c0.996,0.374,1.463,0.896,1.458,1.691C388.188,14.866,387.453,15.663,385.906,15.658z M393.899,15.609l-0.069-2.162
	c-0.023-0.677-0.045-1.5-0.039-2.317h-0.031c-0.175,0.717-0.413,1.519-0.634,2.181l-0.694,2.199l-0.999-0.003l-0.592-2.188
	c-0.182-0.663-0.375-1.468-0.504-2.203h-0.016c-0.04,0.759-0.065,1.632-0.109,2.334l-0.112,2.143l-1.182-0.005l0.389-5.644
	l1.697,0.008l0.549,1.884c0.169,0.658,0.346,1.36,0.463,2.021h0.022c0.168-0.649,0.363-1.395,0.553-2.021l0.606-1.875l1.67,0.008
	l0.285,5.645L393.899,15.609z M397.514,15.705c-0.646-0.003-1.278-0.172-1.596-0.351l0.262-1.054
	c0.342,0.179,0.869,0.359,1.415,0.359c0.586,0.004,0.895-0.238,0.895-0.606c0.006-0.35-0.261-0.556-0.938-0.8
	c-0.937-0.331-1.547-0.854-1.545-1.673c0.005-0.964,0.811-1.696,2.146-1.692c0.637,0.005,1.105,0.14,1.438,0.291l-0.289,1.028
	c-0.226-0.107-0.626-0.269-1.179-0.272c-0.553-0.001-0.819,0.248-0.823,0.54c0,0.363,0.316,0.519,1.044,0.802
	c0.996,0.371,1.463,0.892,1.458,1.688C399.798,14.912,399.065,15.71,397.514,15.705z"/>
<path fill="#ED1C24" d="M325.503,387.924c-0.061,0-0.123-0.014-0.179-0.041l7.026-5.238l2.358,1.834
	c0.126,0.094,0.291,0.146,0.466,0.146c0.176,0,0.343-0.053,0.467-0.146l2.362-1.834l7.025,5.238
	c-0.058,0.027-0.119,0.041-0.182,0.041H325.503z M338.489,382.271c0,0,6.748-5.227,6.771-5.246v10.295L338.489,382.271z
	 M325.09,377.025c0.025,0.02,6.773,5.246,6.773,5.246l-6.773,5.049V377.025z M335.175,383.643c-0.137,0-0.261-0.035-0.354-0.105
	l-9.505-7.01c0.055-0.031,0.123-0.043,0.187-0.043h19.345c0.068,0,0.132,0.014,0.189,0.043l-9.506,7.01
	C335.437,383.607,335.312,383.643,335.175,383.643z"/>
<g>
	<g>
		<g>
			<circle fill="none" stroke="#ED1C24" stroke-width="0.7821" stroke-miterlimit="10" cx="151.009" cy="386.344" r="11.34"/>
		</g>
	</g>
	<g>
		<g>
			<path fill-rule="evenodd" clip-rule="evenodd" fill="#ED1C24" d="M149.208,380.357c0.732-0.992,1.746-1.309,2.927-1.236
				c0.221,0.014,1.616,0.152,2.095,0.201c0.309,0.029,0.321,0.154,0.294,0.438c-0.051,0.529-0.097,0.77-0.149,1.195
				c-0.054,0.289-0.089,0.943-0.737,0.844c-1.854-0.277-1.723,0.434-1.652,1.881c0.016,0.266,0.244,0.295,0.454,0.303
				c0.446,0.018,0.891,0.002,1.334,0.014c0.438,0.008,0.659,0.225,0.63,0.656c-0.028,0.439-0.265,1.549-0.274,1.68
				c-0.445,0.072-1.831,0.178-2.052,0.359c-0.157,0.148-0.124,0.34-0.124,0.525c0,0.943-0.008,1.887,0.005,2.83
				c0.025,0.178-0.021,0.35,0.01,0.521c0.008,1.002,0.008,2.002,0,3.004c0,0.258,0.021,0.525-0.188,0.729l0.013,0.004
				c-1.144,0.012-1.448,0.029-3.031-0.025c-0.166-0.205-0.157-0.381-0.157-0.621c0-1.074-0.02-2.146,0.007-3.221
				c-0.04-0.707,0.032-1.412,0.002-2.117c-0.023-0.406-0.003-0.814-0.003-1.221c-0.003-0.373-0.172-0.518-0.54-0.543
				c-1.024-0.066-1.033-0.076-1.02-1.113c0.005-0.438-0.19-0.908,0.129-1.309c0.178-0.223,0.492-0.145,0.751-0.15
				c0.657-0.021,0.769-0.014,0.791-0.689c0.019-0.414,0-0.426,0.051-1.264C148.847,381.455,148.931,380.881,149.208,380.357z"/>
		</g>
	</g>
</g>
<g>
	<g>
		<g>
			<g>
				<path fill="#ED1C24" d="M110.783,291.808c-6.347,0-11.511-5.164-11.511-11.511c0-6.348,5.164-11.513,11.511-11.513
					c6.349,0,11.515,5.165,11.515,11.513C122.298,286.644,117.132,291.808,110.783,291.808z M110.783,269.552
					c-5.924,0-10.743,4.82-10.743,10.745c0,5.924,4.819,10.743,10.743,10.743c5.926,0,10.747-4.819,10.747-10.743
					C121.53,274.372,116.709,269.552,110.783,269.552z"/>
			</g>
		</g>
	</g>
	<path fill-rule="evenodd" clip-rule="evenodd" fill="#ED1C24" d="M115.341,284.346c-0.857,0.922-1.948,1.371-3.127,1.619
		c-2.376,0.496-5.117-0.553-6.162-2.309c-1.092-1.822-0.799-4.66,0.651-6.369c1.507-1.766,4.015-2.395,6.188-1.543
		c2.693,1.055,3.466,4.84,1.351,6.652c-0.311,0.27-0.66,0.631-1.104,0.393c-0.392-0.207-0.186-0.645-0.137-0.977
		c0.178-1.236,0.369-2.469,0.59-3.703c0.16-0.895-0.238-1.221-1.075-1.137c-0.328,0.033-0.553,0.301-0.984,0.213
		c-2.988-0.602-5.154,1.648-4.666,4.793c0.287,1.855,1.491,2.682,3.306,2.324c0.44-0.086,0.76-0.41,1.338-0.266
		c2.49,0.623,4.035-0.092,5.148-2.221c1.115-2.133,0.729-4.449-1.094-6.004c-2.391-2.043-5.133-2.18-7.887-1.012
		c-2.716,1.158-4.113,3.336-4.039,6.613c-0.051,0.779,0.142,1.746,0.642,2.672c1.276,2.363,4.6,3.816,7.749,3.311
		c1.601-0.258,3.176-0.637,4.324-1.914c0.424-0.482,1.058-1.061,0.418-1.684C116.145,283.186,115.703,283.955,115.341,284.346z
		 M110.458,282.543c-0.223,0.352-0.524,0.715-1.018,0.541c-0.494-0.174-0.731-0.561-0.749-1.102
		c-0.038-1.258,0.464-2.316,1.174-3.301c0.257-0.35,0.622-0.605,1.078-0.473L110.458,282.543z"/>
</g>
<g>
	<path fill-rule="evenodd" clip-rule="evenodd" fill="#ED1C24" d="M247.536,388.039l8.219,3.342l-4.958,12.191l-8.219-3.34
		L247.536,388.039L247.536,388.039z M245.462,401.938l1.985,0.807l-0.294,0.721l-1.986-0.807L245.462,401.938L245.462,401.938z
		 M250.663,388.35l2.822,1.148l-0.135,0.328l-2.821-1.148L250.663,388.35L250.663,388.35z M248.094,386.537
		c-0.512-0.205-1.098,0.041-1.306,0.553l-5.441,13.379c-0.206,0.512,0.04,1.1,0.552,1.307l8.354,3.395
		c0.51,0.209,1.097-0.039,1.305-0.549l5.44-13.381c0.206-0.51-0.04-1.098-0.553-1.305L248.094,386.537z"/>
	<g>
		<path fill="#ED1C24" d="M241.858,379.074h-0.36c-0.022-0.051-0.066-0.102-0.143-0.102h-1.633c-0.065,0-0.116,0.051-0.142,0.102
			h-0.434c-0.024-0.051-0.051-0.102-0.1-0.102h-1.026c-0.041,0-0.074,0.051-0.084,0.102h-6.769c-0.273,0-0.541,0.057-0.791,0.166
			l0,0c0,0.018-0.008,0.018-0.008,0.018h-0.01c-0.233,0.115-0.45,0.283-0.616,0.48c-0.284,0.336-0.434,0.752-0.434,1.18V401.6
			c0,0.285,0.048,0.535,0.157,0.768c0.094,0.184,0.193,0.35,0.325,0.5c0.017,0.018,0.032,0.033,0.05,0.033v0.016l0.018,0.01
			c0.008,0.008,0.018,0.025,0.023,0.025l0.01,0.016h0.008c0.009,0.01,0.009,0.01,0.025,0.018c0,0.016,0.008,0.016,0.008,0.016h0.019
			v0.018h0.007l0,0l0.015,0.018c0.021,0.016,0.028,0.023,0.028,0.023l0.017,0.01h0.006v0.006l0.018,0.01
			c0.018,0.018,0.033,0.033,0.051,0.033v0.018h0.017c0.017,0.018,0.034,0.025,0.05,0.031l0.015,0.016h0.011
			c0.017,0.02,0.032,0.025,0.058,0.037l0,0l0.019,0.016c0.015,0,0.032,0.016,0.049,0.025l0,0h0.017
			c0.018,0.023,0.043,0.033,0.066,0.033l0.009,0.008c0.025,0.008,0.042,0.016,0.058,0.033h0.017
			c0.018,0.008,0.051,0.018,0.066,0.025h0.017c0.019,0.008,0.049,0.025,0.068,0.025l0,0c0.031,0.008,0.049,0.018,0.082,0.018
			c0.084,0.016,0.16,0.041,0.251,0.047l0,0h0.049l0,0l0.026,0.018c0.024,0,0.042,0,0.06,0h0.065h10.687
			c1.027,0.008,1.852-0.824,1.852-1.85l0.017-20.693C243.716,379.908,242.883,379.074,241.858,379.074z M236.513,402.275
			c-0.325,0-0.591-0.256-0.591-0.592c0-0.316,0.266-0.584,0.591-0.584c0.316,0,0.583,0.268,0.583,0.584
			C237.096,402.02,236.829,402.275,236.513,402.275z M242.608,399.398l-12.206-0.016l0.009-17.814l12.205,0.008L242.608,399.398z"/>
		<path fill="#ED1C24" d="M238.28,397.049c0,0.016,0,0.016,0,0.033h1.836c0.464,0,0.842-0.377,0.842-0.832l-0.594-2.553
			c0-0.449-0.375-0.826-0.834-0.826h-0.056c-0.193,0.176-0.442,0.283-0.71,0.283c-0.284,0-0.518-0.107-0.718-0.283h-0.051
			c-0.249,0-0.467,0.109-0.616,0.275c0.068,0.133,0.102,0.293,0.102,0.451L238.28,397.049z"/>
		<path fill="#ED1C24" d="M238.765,391.131c-0.508,0-0.926,0.416-0.926,0.916c0,0.365,0.226,0.684,0.524,0.824
			c0.125,0.061,0.251,0.1,0.401,0.1c0.142,0,0.268-0.039,0.39-0.1c0.31-0.141,0.526-0.459,0.526-0.824
			C239.681,391.547,239.271,391.131,238.765,391.131z"/>
		<path fill="#ED1C24" d="M237.23,393.598c0-0.051-0.016-0.084-0.024-0.135c-0.067-0.566-0.526-1.002-1.109-1.002h-0.068
			c-0.257,0.236-0.599,0.377-0.983,0.377c-0.358,0-0.683-0.133-0.949-0.34c0-0.018-0.018-0.018-0.033-0.037h-0.065
			c-0.618,0-1.137,0.51-1.137,1.137l-0.801,3.451c0,0.633,0.52,1.133,1.139,1.133h3.699c0.616,0,1.106-0.49,1.124-1.1
			c0-0.018,0.008-0.018,0.008-0.033L237.23,393.598z"/>
		<path fill="#ED1C24" d="M236.305,391.348c0-0.703-0.568-1.254-1.26-1.254c-0.683,0-1.249,0.551-1.249,1.254
			c0,0.482,0.292,0.916,0.7,1.113h1.101C236.013,392.264,236.305,391.83,236.305,391.348z"/>
		<path fill="#ED1C24" d="M235.597,392.461h-1.101c0.165,0.084,0.348,0.135,0.549,0.135S235.439,392.545,235.597,392.461z"/>
	</g>
</g>
<rect x="35.788" y="443.146" fill="#5C8392" width="485.479" height="1.555"/>
<g>
	<path fill="#FFFFFF" d="M43.206,436.801c0.055,0,0.105,0.022,0.15,0.067l0.395,0.431c-0.305,0.354-0.674,0.629-1.108,0.826
		c-0.435,0.197-0.958,0.296-1.571,0.296c-0.537,0-1.023-0.093-1.459-0.277c-0.436-0.186-0.809-0.445-1.117-0.779
		s-0.547-0.735-0.717-1.202c-0.169-0.468-0.254-0.981-0.254-1.543c0-0.561,0.091-1.075,0.273-1.542
		c0.182-0.468,0.437-0.869,0.766-1.205c0.329-0.336,0.723-0.597,1.181-0.782c0.459-0.185,0.965-0.277,1.52-0.277
		c0.547,0,1.019,0.085,1.415,0.254c0.396,0.17,0.749,0.4,1.057,0.691l-0.327,0.462c-0.024,0.035-0.052,0.063-0.083,0.086
		s-0.076,0.033-0.135,0.033c-0.045,0-0.093-0.016-0.143-0.049s-0.11-0.073-0.179-0.122s-0.15-0.101-0.244-0.156
		c-0.093-0.055-0.204-0.106-0.332-0.155c-0.128-0.049-0.277-0.089-0.447-0.122c-0.17-0.033-0.365-0.05-0.587-0.05
		c-0.398,0-0.763,0.068-1.093,0.205c-0.331,0.138-0.616,0.332-0.854,0.585s-0.425,0.561-0.558,0.924
		c-0.133,0.364-0.2,0.771-0.2,1.221c0,0.464,0.067,0.878,0.2,1.241s0.315,0.671,0.545,0.922c0.23,0.251,0.503,0.442,0.818,0.574
		s0.654,0.197,1.018,0.197c0.221,0,0.42-0.013,0.597-0.039c0.176-0.026,0.34-0.066,0.491-0.122c0.15-0.056,0.291-0.125,0.421-0.21
		c0.129-0.085,0.26-0.187,0.392-0.304C43.093,436.826,43.15,436.801,43.206,436.801z"/>
	<path fill="#FFFFFF" d="M48.794,438.338h-0.41c-0.09,0-0.163-0.014-0.218-0.042c-0.055-0.027-0.092-0.086-0.109-0.176l-0.104-0.488
		c-0.138,0.124-0.273,0.236-0.405,0.335c-0.132,0.099-0.27,0.182-0.416,0.249s-0.3,0.119-0.465,0.153s-0.347,0.052-0.548,0.052
		c-0.205,0-0.396-0.028-0.574-0.086s-0.333-0.144-0.465-0.258c-0.131-0.114-0.236-0.26-0.314-0.436
		c-0.078-0.175-0.117-0.383-0.117-0.622c0-0.209,0.057-0.409,0.171-0.603c0.114-0.192,0.298-0.363,0.553-0.513
		c0.255-0.149,0.588-0.272,1-0.368c0.412-0.095,0.916-0.143,1.511-0.143v-0.413c0-0.411-0.087-0.723-0.262-0.933
		c-0.175-0.211-0.434-0.316-0.776-0.316c-0.225,0-0.415,0.028-0.569,0.085c-0.154,0.058-0.288,0.122-0.4,0.192
		c-0.112,0.071-0.209,0.136-0.291,0.192c-0.081,0.058-0.162,0.086-0.241,0.086c-0.062,0-0.117-0.017-0.164-0.05
		c-0.047-0.032-0.084-0.073-0.112-0.122l-0.166-0.296c0.291-0.28,0.604-0.49,0.94-0.628c0.336-0.139,0.708-0.208,1.117-0.208
		c0.294,0,0.556,0.049,0.784,0.146s0.42,0.231,0.577,0.405c0.156,0.173,0.273,0.382,0.353,0.628s0.119,0.516,0.119,0.811V438.338z
		 M46.395,437.771c0.163,0,0.312-0.016,0.447-0.049c0.135-0.033,0.262-0.08,0.382-0.141s0.234-0.134,0.343-0.221
		c0.109-0.086,0.215-0.185,0.319-0.296v-1.085c-0.426,0-0.788,0.026-1.085,0.08c-0.298,0.055-0.54,0.125-0.727,0.212
		s-0.323,0.189-0.408,0.309c-0.085,0.118-0.127,0.25-0.127,0.396c0,0.14,0.022,0.26,0.068,0.36c0.045,0.102,0.105,0.184,0.182,0.248
		s0.166,0.112,0.27,0.142S46.273,437.771,46.395,437.771z"/>
	<path fill="#FFFFFF" d="M51.225,430.688v7.65H50.3v-7.65H51.225z"/>
	<path fill="#FFFFFF" d="M53.884,430.688v7.65h-0.924v-7.65H53.884z"/>
	<path fill="#FFFFFF" d="M62.91,436.801c0.055,0,0.105,0.022,0.15,0.067l0.395,0.431c-0.305,0.354-0.674,0.629-1.108,0.826
		c-0.435,0.197-0.958,0.296-1.571,0.296c-0.537,0-1.023-0.093-1.459-0.277c-0.436-0.186-0.809-0.445-1.117-0.779
		s-0.547-0.735-0.717-1.202c-0.169-0.468-0.254-0.981-0.254-1.543c0-0.561,0.091-1.075,0.273-1.542
		c0.182-0.468,0.437-0.869,0.766-1.205c0.329-0.336,0.723-0.597,1.181-0.782c0.459-0.185,0.965-0.277,1.52-0.277
		c0.547,0,1.019,0.085,1.415,0.254c0.396,0.17,0.749,0.4,1.057,0.691l-0.327,0.462c-0.024,0.035-0.052,0.063-0.083,0.086
		s-0.076,0.033-0.135,0.033c-0.045,0-0.093-0.016-0.143-0.049s-0.11-0.073-0.179-0.122s-0.15-0.101-0.244-0.156
		c-0.093-0.055-0.204-0.106-0.332-0.155c-0.128-0.049-0.277-0.089-0.447-0.122c-0.17-0.033-0.365-0.05-0.587-0.05
		c-0.398,0-0.763,0.068-1.093,0.205c-0.331,0.138-0.616,0.332-0.854,0.585s-0.425,0.561-0.558,0.924
		c-0.133,0.364-0.2,0.771-0.2,1.221c0,0.464,0.067,0.878,0.2,1.241s0.315,0.671,0.545,0.922c0.23,0.251,0.503,0.442,0.818,0.574
		s0.654,0.197,1.018,0.197c0.221,0,0.42-0.013,0.597-0.039c0.176-0.026,0.34-0.066,0.491-0.122c0.15-0.056,0.291-0.125,0.421-0.21
		c0.129-0.085,0.26-0.187,0.392-0.304C62.797,436.826,62.854,436.801,62.91,436.801z"/>
	<path fill="#FFFFFF" d="M66.717,432.994c0.315,0,0.606,0.053,0.873,0.158s0.497,0.258,0.691,0.457s0.345,0.444,0.454,0.737
		c0.109,0.293,0.164,0.626,0.164,1c0,0.146-0.015,0.242-0.046,0.291c-0.031,0.048-0.09,0.072-0.177,0.072h-3.5
		c0.007,0.332,0.052,0.621,0.135,0.867c0.083,0.246,0.197,0.451,0.343,0.615c0.145,0.165,0.318,0.288,0.519,0.369
		s0.426,0.122,0.675,0.122c0.232,0,0.432-0.027,0.6-0.081c0.167-0.053,0.312-0.111,0.434-0.174c0.121-0.062,0.222-0.12,0.304-0.174
		c0.081-0.054,0.151-0.08,0.21-0.08c0.076,0,0.135,0.029,0.176,0.088l0.26,0.338c-0.114,0.139-0.251,0.259-0.41,0.36
		c-0.159,0.103-0.33,0.187-0.512,0.252c-0.182,0.066-0.37,0.115-0.563,0.148s-0.386,0.049-0.576,0.049
		c-0.364,0-0.699-0.062-1.005-0.184c-0.306-0.123-0.571-0.304-0.794-0.54c-0.223-0.237-0.397-0.531-0.522-0.881
		s-0.187-0.751-0.187-1.205c0-0.366,0.056-0.709,0.169-1.028c0.112-0.318,0.274-0.595,0.485-0.828
		c0.211-0.233,0.469-0.417,0.774-0.551C65.993,433.061,66.336,432.994,66.717,432.994z M66.738,433.674
		c-0.447,0-0.798,0.129-1.055,0.387c-0.256,0.259-0.415,0.616-0.478,1.073h2.862c0-0.215-0.03-0.411-0.088-0.59
		c-0.059-0.179-0.146-0.332-0.26-0.462s-0.254-0.23-0.418-0.302C67.137,433.71,66.949,433.674,66.738,433.674z"/>
	<path fill="#FFFFFF" d="M70.077,438.338v-5.261h0.55c0.132,0,0.215,0.063,0.25,0.191l0.073,0.571
		c0.229-0.252,0.484-0.457,0.766-0.612c0.282-0.156,0.608-0.233,0.979-0.233c0.287,0,0.541,0.047,0.761,0.143
		c0.22,0.095,0.403,0.23,0.55,0.405c0.147,0.175,0.259,0.385,0.335,0.631s0.114,0.518,0.114,0.815v3.35h-0.924v-3.35
		c0-0.398-0.091-0.707-0.272-0.928c-0.182-0.22-0.46-0.329-0.833-0.329c-0.274,0-0.529,0.065-0.766,0.197
		c-0.237,0.132-0.457,0.31-0.657,0.535v3.874H70.077z"/>
	<path fill="#FFFFFF" d="M77.447,438.421c-0.416,0-0.735-0.116-0.958-0.348c-0.223-0.232-0.335-0.566-0.335-1.003v-3.22H75.52
		c-0.055,0-0.102-0.017-0.14-0.049c-0.038-0.033-0.057-0.084-0.057-0.153v-0.369l0.862-0.109l0.213-1.625
		c0.007-0.052,0.029-0.095,0.067-0.128c0.038-0.032,0.086-0.049,0.146-0.049h0.467v1.812h1.506v0.67h-1.506v3.158
		c0,0.221,0.054,0.386,0.161,0.493s0.246,0.161,0.416,0.161c0.097,0,0.181-0.014,0.252-0.039c0.071-0.026,0.132-0.055,0.184-0.086
		c0.052-0.031,0.096-0.06,0.132-0.086c0.037-0.025,0.068-0.039,0.096-0.039c0.048,0,0.092,0.03,0.13,0.089l0.27,0.441
		c-0.159,0.148-0.352,0.266-0.576,0.351C77.918,438.379,77.686,438.421,77.447,438.421z"/>
	<path fill="#FFFFFF" d="M79.727,438.338v-5.261h0.53c0.1,0,0.169,0.019,0.208,0.057s0.064,0.104,0.078,0.197l0.062,0.821
		c0.18-0.367,0.403-0.654,0.667-0.86c0.265-0.206,0.576-0.309,0.933-0.309c0.145,0,0.277,0.017,0.395,0.049
		c0.118,0.033,0.227,0.079,0.327,0.138l-0.12,0.691c-0.024,0.086-0.078,0.13-0.161,0.13c-0.049,0-0.123-0.017-0.224-0.05
		s-0.241-0.049-0.42-0.049c-0.322,0-0.591,0.093-0.808,0.28c-0.217,0.187-0.397,0.459-0.543,0.815v3.35H79.727z"/>
	<path fill="#FFFFFF" d="M85.995,432.994c0.315,0,0.606,0.053,0.873,0.158s0.497,0.258,0.691,0.457s0.345,0.444,0.454,0.737
		c0.109,0.293,0.164,0.626,0.164,1c0,0.146-0.015,0.242-0.046,0.291c-0.031,0.048-0.09,0.072-0.177,0.072h-3.5
		c0.007,0.332,0.052,0.621,0.135,0.867c0.083,0.246,0.197,0.451,0.343,0.615c0.145,0.165,0.318,0.288,0.519,0.369
		s0.426,0.122,0.675,0.122c0.232,0,0.432-0.027,0.6-0.081c0.167-0.053,0.312-0.111,0.434-0.174c0.121-0.062,0.222-0.12,0.304-0.174
		c0.081-0.054,0.151-0.08,0.21-0.08c0.076,0,0.135,0.029,0.176,0.088l0.26,0.338c-0.114,0.139-0.251,0.259-0.41,0.36
		c-0.159,0.103-0.33,0.187-0.512,0.252c-0.182,0.066-0.37,0.115-0.563,0.148s-0.386,0.049-0.576,0.049
		c-0.364,0-0.699-0.062-1.005-0.184c-0.306-0.123-0.571-0.304-0.794-0.54c-0.223-0.237-0.397-0.531-0.522-0.881
		s-0.187-0.751-0.187-1.205c0-0.366,0.056-0.709,0.169-1.028c0.112-0.318,0.274-0.595,0.485-0.828
		c0.211-0.233,0.469-0.417,0.774-0.551C85.271,433.061,85.614,432.994,85.995,432.994z M86.016,433.674
		c-0.447,0-0.798,0.129-1.055,0.387c-0.256,0.259-0.415,0.616-0.478,1.073h2.862c0-0.215-0.03-0.411-0.088-0.59
		c-0.059-0.179-0.146-0.332-0.26-0.462s-0.254-0.23-0.418-0.302C86.415,433.71,86.227,433.674,86.016,433.674z"/>
</g>
<g>
	<path fill="#FFFFFF" d="M138.497,430.897v0.82h-3.573v2.603h3.054v0.82h-3.054v3.199h-1.013v-7.442H138.497z"/>
	<path fill="#FFFFFF" d="M143.508,438.34h-0.41c-0.09,0-0.163-0.014-0.218-0.042c-0.055-0.027-0.092-0.086-0.109-0.176l-0.104-0.488
		c-0.138,0.124-0.273,0.236-0.405,0.335c-0.132,0.099-0.27,0.182-0.416,0.249s-0.3,0.119-0.465,0.153s-0.347,0.052-0.548,0.052
		c-0.205,0-0.396-0.028-0.574-0.086s-0.333-0.144-0.465-0.258c-0.131-0.114-0.236-0.26-0.314-0.436
		c-0.078-0.175-0.117-0.383-0.117-0.622c0-0.209,0.057-0.409,0.171-0.603c0.114-0.192,0.298-0.363,0.553-0.513
		c0.255-0.149,0.588-0.272,1-0.368c0.412-0.095,0.916-0.143,1.511-0.143v-0.413c0-0.411-0.087-0.723-0.262-0.933
		c-0.175-0.211-0.434-0.316-0.776-0.316c-0.225,0-0.415,0.028-0.569,0.085c-0.154,0.058-0.288,0.122-0.4,0.192
		c-0.112,0.071-0.209,0.136-0.291,0.192c-0.081,0.058-0.162,0.086-0.241,0.086c-0.062,0-0.117-0.017-0.164-0.05
		c-0.047-0.032-0.084-0.073-0.112-0.122l-0.166-0.296c0.291-0.28,0.604-0.49,0.94-0.628c0.336-0.139,0.708-0.208,1.117-0.208
		c0.294,0,0.556,0.049,0.784,0.146s0.42,0.231,0.577,0.405c0.156,0.173,0.273,0.382,0.353,0.628s0.119,0.516,0.119,0.811V438.34z
		 M141.108,437.773c0.163,0,0.312-0.016,0.447-0.049c0.135-0.033,0.262-0.08,0.382-0.141s0.234-0.134,0.343-0.221
		c0.109-0.086,0.215-0.185,0.319-0.296v-1.085c-0.426,0-0.788,0.026-1.085,0.08c-0.298,0.055-0.54,0.125-0.727,0.212
		s-0.323,0.189-0.408,0.309c-0.085,0.118-0.127,0.25-0.127,0.396c0,0.14,0.022,0.26,0.068,0.36c0.045,0.102,0.105,0.184,0.182,0.248
		s0.166,0.112,0.27,0.142S140.987,437.773,141.108,437.773z"/>
	<path fill="#FFFFFF" d="M148.499,434.014c-0.028,0.038-0.056,0.067-0.083,0.088c-0.028,0.021-0.068,0.031-0.12,0.031
		s-0.108-0.021-0.169-0.064c-0.061-0.044-0.138-0.091-0.231-0.143c-0.094-0.053-0.207-0.1-0.34-0.144
		c-0.133-0.043-0.297-0.064-0.491-0.064c-0.256,0-0.483,0.046-0.68,0.138c-0.198,0.092-0.363,0.224-0.496,0.397
		c-0.133,0.173-0.234,0.382-0.301,0.628s-0.101,0.521-0.101,0.826c0,0.318,0.036,0.602,0.109,0.849
		c0.073,0.248,0.175,0.455,0.306,0.623c0.132,0.168,0.292,0.297,0.48,0.385c0.189,0.088,0.401,0.133,0.636,0.133
		c0.225,0,0.411-0.027,0.556-0.081c0.146-0.054,0.267-0.113,0.364-0.179c0.097-0.066,0.177-0.126,0.239-0.18
		c0.062-0.054,0.125-0.08,0.187-0.08c0.08,0,0.139,0.029,0.177,0.088l0.26,0.338c-0.229,0.28-0.514,0.485-0.857,0.615
		s-0.705,0.194-1.085,0.194c-0.329,0-0.635-0.061-0.917-0.182s-0.527-0.297-0.735-0.526c-0.208-0.23-0.371-0.514-0.491-0.85
		s-0.179-0.719-0.179-1.147c0-0.392,0.055-0.753,0.164-1.086c0.109-0.332,0.269-0.619,0.478-0.859s0.468-0.429,0.776-0.563
		s0.661-0.202,1.06-0.202c0.367,0,0.692,0.06,0.976,0.179c0.284,0.119,0.535,0.288,0.753,0.507L148.499,434.014z"/>
	<path fill="#FFFFFF" d="M151.843,432.996c0.315,0,0.606,0.053,0.873,0.158s0.497,0.258,0.691,0.457s0.345,0.444,0.454,0.737
		c0.109,0.293,0.164,0.626,0.164,1c0,0.146-0.015,0.242-0.046,0.291c-0.031,0.048-0.09,0.072-0.177,0.072h-3.5
		c0.007,0.332,0.052,0.621,0.135,0.867c0.083,0.246,0.197,0.451,0.343,0.615c0.145,0.165,0.318,0.288,0.519,0.369
		s0.426,0.122,0.675,0.122c0.232,0,0.432-0.027,0.6-0.081c0.167-0.053,0.312-0.111,0.434-0.174c0.121-0.062,0.222-0.12,0.304-0.174
		c0.081-0.054,0.151-0.08,0.21-0.08c0.076,0,0.135,0.029,0.176,0.088l0.26,0.338c-0.114,0.139-0.251,0.259-0.41,0.36
		c-0.159,0.103-0.33,0.187-0.512,0.252c-0.182,0.066-0.37,0.115-0.563,0.148s-0.386,0.049-0.576,0.049
		c-0.364,0-0.699-0.062-1.005-0.184c-0.306-0.123-0.571-0.304-0.794-0.54c-0.223-0.237-0.397-0.531-0.522-0.881
		s-0.187-0.751-0.187-1.205c0-0.366,0.056-0.709,0.169-1.028c0.112-0.318,0.274-0.595,0.485-0.828
		c0.211-0.233,0.469-0.417,0.774-0.551C151.12,433.062,151.462,432.996,151.843,432.996z M151.864,433.676
		c-0.447,0-0.798,0.129-1.055,0.387c-0.256,0.259-0.415,0.616-0.478,1.073h2.862c0-0.215-0.03-0.411-0.088-0.59
		c-0.059-0.179-0.146-0.332-0.26-0.462s-0.254-0.23-0.418-0.302C152.263,433.712,152.075,433.676,151.864,433.676z"/>
	<path fill="#FFFFFF" d="M155.235,438.34v-7.65h0.93v3.147c0.218-0.253,0.468-0.456,0.75-0.61c0.282-0.154,0.605-0.23,0.968-0.23
		c0.305,0,0.58,0.057,0.826,0.171c0.246,0.114,0.455,0.285,0.628,0.512c0.173,0.227,0.306,0.507,0.4,0.841
		c0.093,0.335,0.14,0.72,0.14,1.156c0,0.388-0.052,0.748-0.156,1.083c-0.104,0.334-0.254,0.623-0.449,0.867
		c-0.196,0.244-0.435,0.436-0.717,0.576s-0.6,0.21-0.953,0.21c-0.339,0-0.627-0.065-0.865-0.197
		c-0.237-0.131-0.444-0.314-0.621-0.55l-0.047,0.478c-0.028,0.132-0.107,0.197-0.239,0.197H155.235z M157.582,433.733
		c-0.301,0-0.565,0.069-0.792,0.207c-0.227,0.139-0.435,0.335-0.625,0.587v2.545c0.166,0.229,0.351,0.39,0.553,0.483
		c0.203,0.094,0.429,0.141,0.678,0.141c0.491,0,0.869-0.175,1.132-0.525c0.263-0.35,0.395-0.848,0.395-1.495
		c0-0.343-0.031-0.638-0.091-0.883c-0.061-0.246-0.148-0.448-0.262-0.605s-0.254-0.272-0.42-0.346
		C157.982,433.77,157.793,433.733,157.582,433.733z"/>
	<path fill="#FFFFFF" d="M163.139,432.996c0.384,0,0.731,0.063,1.041,0.191c0.31,0.129,0.573,0.311,0.79,0.546
		s0.383,0.52,0.499,0.854c0.116,0.334,0.174,0.707,0.174,1.119c0,0.415-0.058,0.789-0.174,1.121
		c-0.116,0.333-0.282,0.617-0.499,0.853s-0.479,0.416-0.79,0.542c-0.31,0.127-0.657,0.189-1.041,0.189s-0.731-0.062-1.042-0.189
		c-0.31-0.126-0.574-0.307-0.792-0.542s-0.386-0.52-0.504-0.853c-0.118-0.332-0.176-0.706-0.176-1.121
		c0-0.412,0.059-0.785,0.176-1.119c0.118-0.335,0.286-0.619,0.504-0.854s0.482-0.417,0.792-0.546
		C162.408,433.06,162.755,432.996,163.139,432.996z M163.139,437.69c0.52,0,0.907-0.174,1.163-0.521
		c0.256-0.349,0.385-0.834,0.385-1.457c0-0.627-0.128-1.115-0.385-1.465c-0.256-0.35-0.644-0.524-1.163-0.524
		c-0.263,0-0.492,0.045-0.686,0.135c-0.194,0.091-0.356,0.221-0.486,0.39c-0.13,0.17-0.227,0.379-0.291,0.626
		c-0.064,0.248-0.096,0.527-0.096,0.839s0.032,0.591,0.096,0.836c0.064,0.246,0.161,0.453,0.291,0.621s0.292,0.297,0.486,0.387
		S162.876,437.69,163.139,437.69z"/>
	<path fill="#FFFFFF" d="M168.915,432.996c0.384,0,0.731,0.063,1.041,0.191c0.31,0.129,0.573,0.311,0.79,0.546
		s0.383,0.52,0.499,0.854c0.116,0.334,0.174,0.707,0.174,1.119c0,0.415-0.058,0.789-0.174,1.121
		c-0.116,0.333-0.282,0.617-0.499,0.853s-0.479,0.416-0.79,0.542c-0.31,0.127-0.657,0.189-1.041,0.189s-0.731-0.062-1.042-0.189
		c-0.31-0.126-0.574-0.307-0.792-0.542s-0.386-0.52-0.504-0.853c-0.118-0.332-0.176-0.706-0.176-1.121
		c0-0.412,0.059-0.785,0.176-1.119c0.118-0.335,0.286-0.619,0.504-0.854s0.482-0.417,0.792-0.546
		C168.183,433.06,168.53,432.996,168.915,432.996z M168.915,437.69c0.52,0,0.907-0.174,1.163-0.521
		c0.256-0.349,0.385-0.834,0.385-1.457c0-0.627-0.128-1.115-0.385-1.465c-0.256-0.35-0.644-0.524-1.163-0.524
		c-0.263,0-0.492,0.045-0.686,0.135c-0.194,0.091-0.356,0.221-0.486,0.39c-0.13,0.17-0.227,0.379-0.291,0.626
		c-0.064,0.248-0.096,0.527-0.096,0.839s0.032,0.591,0.096,0.836c0.064,0.246,0.161,0.453,0.291,0.621s0.292,0.297,0.486,0.387
		S168.651,437.69,168.915,437.69z"/>
	<path fill="#FFFFFF" d="M173.521,430.689v4.503h0.239c0.069,0,0.126-0.01,0.171-0.028c0.045-0.02,0.095-0.058,0.15-0.117
		l1.662-1.781c0.052-0.056,0.104-0.101,0.156-0.135c0.052-0.035,0.121-0.052,0.208-0.052h0.841l-1.938,2.062
		c-0.048,0.059-0.096,0.11-0.143,0.156c-0.047,0.045-0.1,0.084-0.159,0.119c0.062,0.041,0.119,0.089,0.169,0.143
		s0.098,0.115,0.143,0.185l2.057,2.597h-0.831c-0.076,0-0.141-0.015-0.195-0.044s-0.105-0.075-0.153-0.138l-1.729-2.155
		c-0.052-0.073-0.104-0.12-0.156-0.143s-0.13-0.034-0.234-0.034h-0.259v2.514h-0.93v-7.65H173.521z"/>
</g>
<g>
	<path fill="#FFFFFF" d="M411.803,430.896h0.837c0.09,0,0.164,0.022,0.223,0.067c0.06,0.045,0.099,0.103,0.12,0.172l1.537,5.173
		c0.027,0.093,0.053,0.193,0.075,0.301s0.044,0.22,0.064,0.338c0.024-0.118,0.049-0.231,0.073-0.341
		c0.024-0.108,0.052-0.208,0.083-0.298l1.75-5.173c0.021-0.06,0.062-0.113,0.122-0.164c0.061-0.05,0.135-0.075,0.221-0.075h0.291
		c0.09,0,0.164,0.022,0.221,0.067c0.058,0.045,0.098,0.103,0.122,0.172l1.74,5.173c0.062,0.18,0.117,0.386,0.166,0.617
		c0.021-0.114,0.04-0.223,0.057-0.327c0.018-0.104,0.04-0.2,0.068-0.29l1.542-5.173c0.018-0.062,0.057-0.118,0.117-0.167
		c0.061-0.048,0.134-0.072,0.221-0.072h0.784l-2.321,7.442h-0.904l-1.885-5.677c-0.038-0.107-0.073-0.231-0.104-0.374
		c-0.018,0.069-0.033,0.136-0.049,0.2s-0.032,0.122-0.05,0.174l-1.896,5.677h-0.903L411.803,430.896z"/>
	<path fill="#FFFFFF" d="M426.48,438.338h-0.41c-0.09,0-0.163-0.014-0.218-0.042c-0.056-0.027-0.092-0.086-0.109-0.176l-0.104-0.488
		c-0.139,0.124-0.273,0.236-0.405,0.335s-0.271,0.182-0.416,0.249s-0.3,0.119-0.465,0.153c-0.164,0.034-0.347,0.052-0.548,0.052
		c-0.204,0-0.396-0.028-0.573-0.086c-0.179-0.058-0.334-0.144-0.465-0.258c-0.132-0.114-0.236-0.26-0.314-0.436
		c-0.078-0.175-0.117-0.383-0.117-0.622c0-0.209,0.058-0.409,0.172-0.603c0.114-0.192,0.299-0.363,0.553-0.513
		c0.255-0.149,0.588-0.272,1-0.368c0.412-0.095,0.916-0.143,1.512-0.143v-0.413c0-0.411-0.088-0.723-0.263-0.933
		c-0.175-0.211-0.434-0.316-0.776-0.316c-0.226,0-0.415,0.028-0.568,0.085c-0.154,0.058-0.288,0.122-0.4,0.192
		c-0.112,0.071-0.21,0.136-0.291,0.192c-0.081,0.058-0.162,0.086-0.241,0.086c-0.062,0-0.117-0.017-0.164-0.05
		c-0.046-0.032-0.084-0.073-0.111-0.122l-0.166-0.296c0.291-0.28,0.604-0.49,0.939-0.628c0.336-0.139,0.708-0.208,1.117-0.208
		c0.294,0,0.556,0.049,0.784,0.146s0.421,0.231,0.576,0.405c0.156,0.173,0.273,0.382,0.354,0.628
		c0.079,0.246,0.119,0.516,0.119,0.811V438.338z M424.081,437.771c0.163,0,0.312-0.016,0.447-0.049
		c0.135-0.033,0.262-0.08,0.381-0.141c0.12-0.061,0.234-0.134,0.343-0.221c0.109-0.086,0.216-0.185,0.32-0.296v-1.085
		c-0.427,0-0.788,0.026-1.086,0.08c-0.298,0.055-0.54,0.125-0.728,0.212c-0.187,0.087-0.322,0.189-0.407,0.309
		c-0.085,0.118-0.127,0.25-0.127,0.396c0,0.14,0.022,0.26,0.067,0.36c0.045,0.102,0.105,0.184,0.182,0.248s0.166,0.112,0.271,0.142
		C423.848,437.757,423.96,437.771,424.081,437.771z"/>
	<path fill="#FFFFFF" d="M428.911,430.688v7.65h-0.924v-7.65H428.911z"/>
	<path fill="#FFFFFF" d="M431.503,430.688v4.503h0.239c0.069,0,0.126-0.01,0.171-0.028c0.046-0.02,0.096-0.058,0.151-0.117
		l1.662-1.781c0.052-0.056,0.104-0.101,0.155-0.135c0.052-0.035,0.121-0.052,0.208-0.052h0.841l-1.937,2.062
		c-0.049,0.059-0.097,0.11-0.144,0.156c-0.046,0.045-0.1,0.084-0.158,0.119c0.062,0.041,0.119,0.089,0.169,0.143
		s0.098,0.115,0.143,0.185l2.057,2.597h-0.831c-0.076,0-0.141-0.015-0.194-0.044s-0.104-0.075-0.153-0.138l-1.729-2.155
		c-0.052-0.073-0.104-0.12-0.155-0.143c-0.053-0.022-0.13-0.034-0.234-0.034h-0.26v2.514h-0.93v-7.65H431.503z"/>
	<path fill="#FFFFFF" d="M435.746,434.832h2.565v0.784h-2.565V434.832z"/>
	<path fill="#FFFFFF" d="M440.825,431.425c0,0.091-0.018,0.175-0.055,0.252c-0.036,0.078-0.085,0.147-0.146,0.208
		s-0.13,0.108-0.21,0.143c-0.08,0.035-0.164,0.053-0.255,0.053c-0.09,0-0.174-0.018-0.251-0.053
		c-0.078-0.034-0.147-0.082-0.208-0.143s-0.108-0.13-0.143-0.208c-0.035-0.077-0.053-0.161-0.053-0.252
		c0-0.09,0.018-0.175,0.053-0.257c0.034-0.081,0.082-0.152,0.143-0.213s0.13-0.108,0.208-0.143c0.077-0.035,0.161-0.052,0.251-0.052
		c0.091,0,0.175,0.017,0.255,0.052c0.08,0.034,0.149,0.082,0.21,0.143s0.109,0.132,0.146,0.213
		C440.808,431.25,440.825,431.335,440.825,431.425z M440.617,433.077v5.261h-0.924v-5.261H440.617z"/>
	<path fill="#FFFFFF" d="M442.248,438.338v-5.261h0.551c0.132,0,0.215,0.063,0.249,0.191l0.073,0.571
		c0.229-0.252,0.483-0.457,0.766-0.612c0.282-0.156,0.608-0.233,0.979-0.233c0.287,0,0.541,0.047,0.761,0.143
		c0.22,0.095,0.403,0.23,0.551,0.405c0.146,0.175,0.259,0.385,0.335,0.631s0.114,0.518,0.114,0.815v3.35h-0.925v-3.35
		c0-0.398-0.091-0.707-0.272-0.928c-0.182-0.22-0.46-0.329-0.834-0.329c-0.273,0-0.528,0.065-0.766,0.197s-0.456,0.31-0.657,0.535
		v3.874H442.248z"/>
</g>
<g>
	<path fill="#FFFFFF" d="M468.067,430.896h0.837c0.09,0,0.164,0.022,0.223,0.067c0.06,0.045,0.099,0.103,0.12,0.172l1.537,5.173
		c0.027,0.093,0.053,0.193,0.075,0.301s0.044,0.22,0.064,0.338c0.024-0.118,0.049-0.231,0.073-0.341
		c0.024-0.108,0.052-0.208,0.083-0.298l1.75-5.173c0.021-0.06,0.062-0.113,0.122-0.164c0.061-0.05,0.135-0.075,0.221-0.075h0.291
		c0.09,0,0.164,0.022,0.221,0.067c0.058,0.045,0.098,0.103,0.122,0.172l1.74,5.173c0.062,0.18,0.117,0.386,0.166,0.617
		c0.021-0.114,0.04-0.223,0.057-0.327c0.018-0.104,0.04-0.2,0.068-0.29l1.542-5.173c0.018-0.062,0.057-0.118,0.117-0.167
		c0.061-0.048,0.134-0.072,0.221-0.072h0.784l-2.321,7.442h-0.904l-1.885-5.677c-0.038-0.107-0.073-0.231-0.104-0.374
		c-0.018,0.069-0.033,0.136-0.049,0.2s-0.032,0.122-0.05,0.174l-1.896,5.677h-0.903L468.067,430.896z"/>
	<path fill="#FFFFFF" d="M481.255,432.994c0.315,0,0.605,0.053,0.873,0.158c0.267,0.105,0.496,0.258,0.69,0.457
		c0.193,0.199,0.346,0.444,0.454,0.737c0.109,0.293,0.164,0.626,0.164,1c0,0.146-0.016,0.242-0.047,0.291
		c-0.031,0.048-0.09,0.072-0.177,0.072h-3.5c0.007,0.332,0.052,0.621,0.135,0.867s0.197,0.451,0.343,0.615
		c0.146,0.165,0.318,0.288,0.52,0.369c0.2,0.081,0.426,0.122,0.675,0.122c0.232,0,0.432-0.027,0.6-0.081
		c0.168-0.053,0.312-0.111,0.434-0.174s0.223-0.12,0.304-0.174c0.082-0.054,0.152-0.08,0.211-0.08c0.076,0,0.135,0.029,0.177,0.088
		l0.26,0.338c-0.114,0.139-0.252,0.259-0.411,0.36c-0.159,0.103-0.329,0.187-0.511,0.252c-0.183,0.066-0.37,0.115-0.563,0.148
		c-0.194,0.033-0.387,0.049-0.577,0.049c-0.363,0-0.698-0.062-1.005-0.184c-0.307-0.123-0.571-0.304-0.795-0.54
		c-0.223-0.237-0.396-0.531-0.521-0.881s-0.187-0.751-0.187-1.205c0-0.366,0.056-0.709,0.168-1.028
		c0.113-0.318,0.274-0.595,0.486-0.828c0.211-0.233,0.469-0.417,0.773-0.551C480.531,433.061,480.874,432.994,481.255,432.994z
		 M481.275,433.674c-0.446,0-0.798,0.129-1.054,0.387c-0.257,0.259-0.416,0.616-0.479,1.073h2.862c0-0.215-0.029-0.411-0.089-0.59
		c-0.059-0.179-0.146-0.332-0.26-0.462s-0.253-0.23-0.418-0.302C481.675,433.71,481.487,433.674,481.275,433.674z"/>
	<path fill="#FFFFFF" d="M484.646,438.338v-7.65h0.93v3.147c0.219-0.253,0.469-0.456,0.751-0.61s0.604-0.23,0.969-0.23
		c0.305,0,0.579,0.057,0.825,0.171s0.455,0.285,0.629,0.512c0.173,0.227,0.307,0.507,0.399,0.841
		c0.094,0.335,0.141,0.72,0.141,1.156c0,0.388-0.052,0.748-0.156,1.083c-0.104,0.334-0.253,0.623-0.449,0.867
		c-0.195,0.244-0.435,0.436-0.717,0.576s-0.6,0.21-0.953,0.21c-0.339,0-0.627-0.065-0.864-0.197
		c-0.237-0.131-0.444-0.314-0.621-0.55l-0.046,0.478c-0.028,0.132-0.107,0.197-0.239,0.197H484.646z M486.993,433.731
		c-0.301,0-0.565,0.069-0.792,0.207c-0.227,0.139-0.436,0.335-0.626,0.587v2.545c0.167,0.229,0.351,0.39,0.554,0.483
		c0.202,0.094,0.428,0.141,0.678,0.141c0.491,0,0.869-0.175,1.132-0.525c0.264-0.35,0.395-0.848,0.395-1.495
		c0-0.343-0.03-0.638-0.091-0.883c-0.061-0.246-0.147-0.448-0.262-0.605s-0.255-0.272-0.421-0.346
		C487.394,433.768,487.204,433.731,486.993,433.731z"/>
</g>
<g>
	<path fill="#FFFFFF" d="M234.863,435.91c0.036,0.092,0.072,0.185,0.106,0.277c0.035-0.097,0.071-0.189,0.109-0.277
		c0.038-0.089,0.082-0.178,0.13-0.268l2.519-4.576c0.045-0.079,0.092-0.128,0.14-0.145c0.048-0.018,0.118-0.026,0.208-0.026h0.743
		v7.442h-0.883v-5.469c0-0.073,0.002-0.15,0.005-0.233c0.003-0.084,0.009-0.168,0.016-0.255l-2.55,4.653
		c-0.087,0.156-0.208,0.233-0.364,0.233h-0.146c-0.156,0-0.277-0.077-0.363-0.233l-2.607-4.669c0.01,0.09,0.018,0.179,0.023,0.265
		c0.005,0.087,0.008,0.166,0.008,0.239v5.469h-0.883v-7.442h0.743c0.09,0,0.159,0.009,0.208,0.026
		c0.048,0.017,0.095,0.065,0.14,0.145l2.571,4.581C234.785,435.73,234.827,435.818,234.863,435.91z"/>
	<path fill="#FFFFFF" d="M242.615,432.994c0.384,0,0.731,0.063,1.041,0.191c0.31,0.129,0.573,0.311,0.79,0.546
		s0.383,0.52,0.499,0.854c0.116,0.334,0.174,0.707,0.174,1.119c0,0.415-0.058,0.789-0.174,1.121
		c-0.116,0.333-0.282,0.617-0.499,0.853s-0.479,0.416-0.79,0.542c-0.31,0.127-0.657,0.189-1.041,0.189s-0.731-0.062-1.042-0.189
		c-0.31-0.126-0.574-0.307-0.792-0.542s-0.386-0.52-0.504-0.853c-0.118-0.332-0.176-0.706-0.176-1.121
		c0-0.412,0.059-0.785,0.176-1.119c0.118-0.335,0.286-0.619,0.504-0.854s0.482-0.417,0.792-0.546
		C241.883,433.058,242.23,432.994,242.615,432.994z M242.615,437.688c0.52,0,0.907-0.174,1.163-0.521
		c0.256-0.349,0.385-0.834,0.385-1.457c0-0.627-0.128-1.115-0.385-1.465c-0.256-0.35-0.644-0.524-1.163-0.524
		c-0.263,0-0.492,0.045-0.686,0.135c-0.194,0.091-0.356,0.221-0.486,0.39c-0.13,0.17-0.227,0.379-0.291,0.626
		c-0.064,0.248-0.096,0.527-0.096,0.839s0.032,0.591,0.096,0.836c0.064,0.246,0.161,0.453,0.291,0.621s0.292,0.297,0.486,0.387
		S242.352,437.688,242.615,437.688z"/>
	<path fill="#FFFFFF" d="M246.292,438.338v-7.65h0.93v3.147c0.218-0.253,0.468-0.456,0.75-0.61c0.282-0.154,0.605-0.23,0.968-0.23
		c0.305,0,0.58,0.057,0.826,0.171c0.246,0.114,0.455,0.285,0.628,0.512c0.173,0.227,0.306,0.507,0.4,0.841
		c0.093,0.335,0.14,0.72,0.14,1.156c0,0.388-0.052,0.748-0.156,1.083c-0.104,0.334-0.254,0.623-0.449,0.867
		c-0.196,0.244-0.435,0.436-0.717,0.576s-0.6,0.21-0.953,0.21c-0.339,0-0.627-0.065-0.865-0.197
		c-0.237-0.131-0.444-0.314-0.621-0.55l-0.047,0.478c-0.028,0.132-0.107,0.197-0.239,0.197H246.292z M248.639,433.731
		c-0.301,0-0.565,0.069-0.792,0.207c-0.227,0.139-0.435,0.335-0.625,0.587v2.545c0.166,0.229,0.351,0.39,0.553,0.483
		c0.203,0.094,0.429,0.141,0.678,0.141c0.491,0,0.869-0.175,1.132-0.525c0.263-0.35,0.395-0.848,0.395-1.495
		c0-0.343-0.031-0.638-0.091-0.883c-0.061-0.246-0.148-0.448-0.262-0.605s-0.254-0.272-0.42-0.346
		C249.039,433.768,248.851,433.731,248.639,433.731z"/>
	<path fill="#FFFFFF" d="M253.303,431.425c0,0.091-0.018,0.175-0.054,0.252c-0.037,0.078-0.085,0.147-0.146,0.208
		s-0.131,0.108-0.21,0.143c-0.08,0.035-0.165,0.053-0.254,0.053c-0.09,0-0.174-0.018-0.252-0.053
		c-0.078-0.034-0.147-0.082-0.208-0.143c-0.061-0.061-0.108-0.13-0.143-0.208c-0.035-0.077-0.052-0.161-0.052-0.252
		c0-0.09,0.017-0.175,0.052-0.257c0.035-0.081,0.082-0.152,0.143-0.213c0.061-0.061,0.13-0.108,0.208-0.143
		c0.078-0.035,0.162-0.052,0.252-0.052c0.09,0,0.175,0.017,0.254,0.052c0.08,0.034,0.15,0.082,0.21,0.143s0.109,0.132,0.146,0.213
		C253.285,431.25,253.303,431.335,253.303,431.425z M253.095,433.077v5.261h-0.924v-5.261H253.095z"/>
</g>
<g>
	<path fill="#FFFFFF" d="M276.845,435.556v2.784h-1.002v-7.442h2.197c0.471,0,0.881,0.055,1.229,0.164
		c0.348,0.108,0.637,0.264,0.865,0.464c0.229,0.201,0.398,0.443,0.511,0.728c0.113,0.284,0.169,0.601,0.169,0.95
		c0,0.347-0.061,0.663-0.182,0.951c-0.121,0.287-0.299,0.534-0.532,0.742s-0.523,0.37-0.87,0.485
		c-0.346,0.116-0.742,0.174-1.189,0.174H276.845z M276.845,434.756h1.194c0.288,0,0.541-0.038,0.761-0.114
		c0.221-0.076,0.404-0.183,0.554-0.319c0.148-0.137,0.262-0.3,0.338-0.49c0.075-0.19,0.114-0.4,0.114-0.629
		c0-0.474-0.146-0.845-0.439-1.111c-0.292-0.267-0.734-0.399-1.327-0.399h-1.194V434.756z"/>
	<path fill="#FFFFFF" d="M281.939,438.34v-7.65h0.925v3.096c0.226-0.239,0.475-0.431,0.748-0.574s0.589-0.215,0.945-0.215
		c0.287,0,0.541,0.047,0.761,0.143c0.22,0.095,0.403,0.23,0.551,0.405c0.146,0.175,0.259,0.385,0.335,0.631s0.114,0.518,0.114,0.815
		v3.35h-0.925v-3.35c0-0.398-0.091-0.707-0.272-0.928c-0.182-0.22-0.46-0.329-0.834-0.329c-0.273,0-0.528,0.065-0.766,0.197
		s-0.456,0.31-0.657,0.535v3.874H281.939z"/>
	<path fill="#FFFFFF" d="M289.845,432.996c0.384,0,0.731,0.063,1.041,0.191c0.311,0.129,0.573,0.311,0.79,0.546
		c0.216,0.235,0.382,0.52,0.498,0.854c0.116,0.334,0.174,0.707,0.174,1.119c0,0.415-0.058,0.789-0.174,1.121
		c-0.116,0.333-0.282,0.617-0.498,0.853c-0.217,0.235-0.479,0.416-0.79,0.542c-0.31,0.127-0.657,0.189-1.041,0.189
		c-0.385,0-0.731-0.062-1.041-0.189c-0.311-0.126-0.574-0.307-0.792-0.542c-0.219-0.235-0.387-0.52-0.504-0.853
		c-0.118-0.332-0.177-0.706-0.177-1.121c0-0.412,0.059-0.785,0.177-1.119c0.117-0.335,0.285-0.619,0.504-0.854
		c0.218-0.235,0.481-0.417,0.792-0.546C289.113,433.06,289.46,432.996,289.845,432.996z M289.845,437.69
		c0.52,0,0.907-0.174,1.163-0.521c0.257-0.349,0.385-0.834,0.385-1.457c0-0.627-0.128-1.115-0.385-1.465
		c-0.256-0.35-0.644-0.524-1.163-0.524c-0.264,0-0.492,0.045-0.686,0.135c-0.194,0.091-0.355,0.221-0.485,0.39
		c-0.13,0.17-0.228,0.379-0.291,0.626c-0.064,0.248-0.097,0.527-0.097,0.839s0.032,0.591,0.097,0.836
		c0.063,0.246,0.161,0.453,0.291,0.621s0.291,0.297,0.485,0.387C289.353,437.646,289.581,437.69,289.845,437.69z"/>
	<path fill="#FFFFFF" d="M293.49,438.34v-5.261h0.551c0.132,0,0.215,0.063,0.249,0.191l0.073,0.571
		c0.229-0.252,0.483-0.457,0.766-0.612c0.282-0.156,0.608-0.233,0.979-0.233c0.287,0,0.541,0.047,0.761,0.143
		c0.22,0.095,0.403,0.23,0.551,0.405c0.146,0.175,0.259,0.385,0.335,0.631s0.114,0.518,0.114,0.815v3.35h-0.925v-3.35
		c0-0.398-0.091-0.707-0.272-0.928c-0.182-0.22-0.46-0.329-0.834-0.329c-0.273,0-0.528,0.065-0.766,0.197s-0.456,0.31-0.657,0.535
		v3.874H293.49z"/>
	<path fill="#FFFFFF" d="M301.349,432.996c0.315,0,0.605,0.053,0.873,0.158c0.267,0.105,0.496,0.258,0.69,0.457
		c0.193,0.199,0.346,0.444,0.454,0.737c0.109,0.293,0.164,0.626,0.164,1c0,0.146-0.016,0.242-0.047,0.291
		c-0.031,0.048-0.09,0.072-0.177,0.072h-3.5c0.007,0.332,0.052,0.621,0.135,0.867s0.197,0.451,0.343,0.615
		c0.146,0.165,0.318,0.288,0.52,0.369c0.2,0.081,0.426,0.122,0.675,0.122c0.232,0,0.432-0.027,0.6-0.081
		c0.168-0.053,0.312-0.111,0.434-0.174s0.223-0.12,0.304-0.174c0.082-0.054,0.152-0.08,0.211-0.08c0.076,0,0.135,0.029,0.177,0.088
		l0.26,0.338c-0.114,0.139-0.252,0.259-0.411,0.36c-0.159,0.103-0.329,0.187-0.511,0.252c-0.183,0.066-0.37,0.115-0.563,0.148
		c-0.194,0.033-0.387,0.049-0.577,0.049c-0.363,0-0.698-0.062-1.005-0.184c-0.307-0.123-0.571-0.304-0.795-0.54
		c-0.223-0.237-0.396-0.531-0.521-0.881s-0.187-0.751-0.187-1.205c0-0.366,0.056-0.709,0.168-1.028
		c0.113-0.318,0.274-0.595,0.486-0.828c0.211-0.233,0.469-0.417,0.773-0.551C300.625,433.062,300.968,432.996,301.349,432.996z
		 M301.369,433.676c-0.446,0-0.798,0.129-1.054,0.387c-0.257,0.259-0.416,0.616-0.479,1.073h2.862c0-0.215-0.029-0.411-0.089-0.59
		c-0.059-0.179-0.146-0.332-0.26-0.462s-0.253-0.23-0.418-0.302C301.769,433.712,301.581,433.676,301.369,433.676z"/>
</g>
<g>
	<path fill="#FFFFFF" d="M326.833,435.556v2.784h-1.002v-7.442h2.196c0.471,0,0.881,0.055,1.229,0.164
		c0.348,0.108,0.637,0.264,0.865,0.464c0.229,0.201,0.398,0.443,0.511,0.728c0.113,0.284,0.169,0.601,0.169,0.95
		c0,0.347-0.061,0.663-0.182,0.951c-0.121,0.287-0.299,0.534-0.532,0.742s-0.523,0.37-0.87,0.485
		c-0.346,0.116-0.742,0.174-1.189,0.174H326.833z M326.833,434.756h1.194c0.288,0,0.541-0.038,0.761-0.114
		c0.221-0.076,0.404-0.183,0.554-0.319c0.148-0.137,0.262-0.3,0.338-0.49c0.075-0.19,0.114-0.4,0.114-0.629
		c0-0.474-0.146-0.845-0.439-1.111c-0.292-0.267-0.734-0.399-1.327-0.399h-1.194V434.756z"/>
	<path fill="#FFFFFF" d="M333.901,432.996c0.384,0,0.731,0.063,1.041,0.191c0.311,0.129,0.573,0.311,0.79,0.546
		c0.216,0.235,0.382,0.52,0.498,0.854c0.116,0.334,0.174,0.707,0.174,1.119c0,0.415-0.058,0.789-0.174,1.121
		c-0.116,0.333-0.282,0.617-0.498,0.853c-0.217,0.235-0.479,0.416-0.79,0.542c-0.31,0.127-0.657,0.189-1.041,0.189
		c-0.385,0-0.731-0.062-1.041-0.189c-0.311-0.126-0.574-0.307-0.792-0.542c-0.219-0.235-0.387-0.52-0.504-0.853
		c-0.118-0.332-0.177-0.706-0.177-1.121c0-0.412,0.059-0.785,0.177-1.119c0.117-0.335,0.285-0.619,0.504-0.854
		c0.218-0.235,0.481-0.417,0.792-0.546C333.17,433.06,333.517,432.996,333.901,432.996z M333.901,437.69
		c0.52,0,0.907-0.174,1.163-0.521c0.257-0.349,0.385-0.834,0.385-1.457c0-0.627-0.128-1.115-0.385-1.465
		c-0.256-0.35-0.644-0.524-1.163-0.524c-0.264,0-0.492,0.045-0.686,0.135c-0.194,0.091-0.355,0.221-0.485,0.39
		c-0.13,0.17-0.228,0.379-0.291,0.626c-0.064,0.248-0.097,0.527-0.097,0.839s0.032,0.591,0.097,0.836
		c0.063,0.246,0.161,0.453,0.291,0.621s0.291,0.297,0.485,0.387C333.409,437.646,333.638,437.69,333.901,437.69z"/>
	<path fill="#FFFFFF" d="M340.56,433.946c-0.042,0.076-0.105,0.114-0.192,0.114c-0.052,0-0.11-0.02-0.177-0.058
		c-0.065-0.038-0.146-0.08-0.241-0.127c-0.095-0.047-0.209-0.09-0.34-0.13c-0.132-0.04-0.288-0.06-0.468-0.06
		c-0.155,0-0.296,0.02-0.421,0.06c-0.124,0.04-0.23,0.095-0.319,0.164c-0.088,0.069-0.155,0.149-0.202,0.241s-0.07,0.191-0.07,0.299
		c0,0.135,0.039,0.247,0.117,0.337c0.078,0.091,0.181,0.168,0.309,0.234c0.128,0.065,0.273,0.123,0.437,0.174
		c0.163,0.05,0.33,0.104,0.501,0.161c0.172,0.057,0.339,0.12,0.501,0.189c0.163,0.069,0.309,0.155,0.437,0.26
		c0.128,0.104,0.231,0.23,0.31,0.382c0.077,0.15,0.116,0.331,0.116,0.542c0,0.243-0.043,0.467-0.13,0.673
		c-0.086,0.206-0.215,0.385-0.384,0.535c-0.17,0.15-0.378,0.27-0.624,0.355c-0.245,0.087-0.529,0.13-0.852,0.13
		c-0.367,0-0.699-0.06-0.997-0.179c-0.298-0.12-0.551-0.273-0.758-0.46l0.218-0.354c0.027-0.045,0.061-0.079,0.099-0.104
		s0.089-0.036,0.15-0.036c0.062,0,0.128,0.024,0.197,0.072c0.069,0.049,0.153,0.103,0.252,0.161s0.219,0.112,0.358,0.161
		c0.141,0.049,0.316,0.072,0.527,0.072c0.18,0,0.338-0.023,0.473-0.069c0.135-0.047,0.248-0.11,0.338-0.19
		c0.09-0.079,0.156-0.171,0.2-0.274c0.043-0.104,0.064-0.215,0.064-0.333c0-0.146-0.039-0.266-0.117-0.36
		c-0.077-0.096-0.181-0.177-0.309-0.244s-0.274-0.127-0.438-0.177c-0.165-0.051-0.333-0.104-0.504-0.158
		c-0.172-0.056-0.34-0.119-0.504-0.189c-0.165-0.071-0.311-0.16-0.439-0.268c-0.128-0.107-0.23-0.24-0.309-0.397
		c-0.078-0.158-0.117-0.349-0.117-0.574c0-0.2,0.042-0.394,0.125-0.579s0.204-0.348,0.363-0.488c0.159-0.14,0.355-0.252,0.587-0.335
		c0.232-0.083,0.497-0.124,0.795-0.124c0.346,0,0.657,0.054,0.933,0.163c0.274,0.109,0.513,0.259,0.714,0.449L340.56,433.946z"/>
	<path fill="#FFFFFF" d="M343.649,438.423c-0.415,0-0.734-0.116-0.958-0.348c-0.224-0.232-0.335-0.566-0.335-1.003v-3.22h-0.634
		c-0.056,0-0.103-0.017-0.14-0.049c-0.039-0.033-0.058-0.084-0.058-0.153v-0.369l0.862-0.109l0.213-1.625
		c0.007-0.052,0.029-0.095,0.067-0.128c0.038-0.032,0.087-0.049,0.146-0.049h0.468v1.812h1.506v0.67h-1.506v3.158
		c0,0.221,0.053,0.386,0.16,0.493s0.246,0.161,0.416,0.161c0.097,0,0.181-0.014,0.252-0.039c0.07-0.026,0.132-0.055,0.185-0.086
		c0.052-0.031,0.096-0.06,0.132-0.086c0.036-0.025,0.068-0.039,0.097-0.039c0.048,0,0.092,0.03,0.13,0.089l0.27,0.441
		c-0.159,0.148-0.352,0.266-0.576,0.351C344.12,438.381,343.889,438.423,343.649,438.423z"/>
</g>
<g>
	<path fill="#FFFFFF" d="M375.416,432.061c-0.031,0.052-0.064,0.091-0.099,0.117c-0.035,0.026-0.08,0.039-0.135,0.039
		c-0.06,0-0.128-0.029-0.205-0.089c-0.078-0.059-0.177-0.123-0.297-0.194c-0.119-0.071-0.263-0.136-0.431-0.194
		c-0.168-0.06-0.371-0.089-0.61-0.089c-0.225,0-0.424,0.03-0.597,0.091c-0.174,0.061-0.318,0.143-0.435,0.247
		c-0.115,0.104-0.203,0.226-0.262,0.366c-0.059,0.14-0.089,0.291-0.089,0.454c0,0.208,0.052,0.38,0.153,0.517
		c0.103,0.137,0.237,0.254,0.405,0.351c0.168,0.098,0.358,0.182,0.571,0.252c0.213,0.071,0.432,0.145,0.654,0.221
		c0.224,0.076,0.441,0.162,0.654,0.257c0.213,0.096,0.403,0.216,0.571,0.361s0.304,0.324,0.405,0.535
		c0.103,0.211,0.153,0.471,0.153,0.779c0,0.325-0.056,0.631-0.166,0.916c-0.111,0.286-0.272,0.534-0.485,0.745
		c-0.213,0.212-0.475,0.378-0.784,0.499c-0.311,0.121-0.662,0.182-1.058,0.182c-0.481,0-0.92-0.087-1.316-0.262
		s-0.734-0.411-1.016-0.709l0.291-0.479c0.028-0.038,0.062-0.069,0.102-0.096s0.084-0.039,0.133-0.039
		c0.072,0,0.155,0.039,0.249,0.117c0.094,0.077,0.21,0.163,0.351,0.257c0.14,0.094,0.31,0.179,0.509,0.257s0.442,0.117,0.729,0.117
		c0.239,0,0.452-0.033,0.639-0.099c0.188-0.065,0.346-0.158,0.476-0.278c0.13-0.119,0.229-0.262,0.299-0.428
		c0.069-0.167,0.104-0.352,0.104-0.557c0-0.225-0.051-0.409-0.153-0.553c-0.102-0.144-0.236-0.264-0.402-0.361
		c-0.166-0.097-0.355-0.179-0.568-0.246s-0.432-0.137-0.654-0.208c-0.224-0.07-0.441-0.153-0.654-0.246
		c-0.213-0.094-0.403-0.215-0.569-0.364c-0.166-0.148-0.3-0.335-0.402-0.558c-0.103-0.224-0.153-0.5-0.153-0.829
		c0-0.263,0.051-0.518,0.153-0.764c0.103-0.245,0.25-0.464,0.444-0.654c0.193-0.19,0.434-0.343,0.719-0.457
		c0.286-0.114,0.614-0.171,0.984-0.171c0.416,0,0.795,0.065,1.138,0.197s0.642,0.322,0.898,0.571L375.416,432.061z"/>
	<path fill="#FFFFFF" d="M380.897,435.912c0.036,0.092,0.072,0.185,0.106,0.277c0.034-0.097,0.071-0.189,0.109-0.277
		c0.038-0.089,0.081-0.178,0.13-0.268l2.519-4.576c0.045-0.079,0.092-0.128,0.141-0.145c0.048-0.018,0.117-0.026,0.207-0.026h0.743
		v7.442h-0.883v-5.469c0-0.073,0.001-0.15,0.005-0.233c0.004-0.084,0.009-0.168,0.016-0.255l-2.55,4.653
		c-0.087,0.156-0.208,0.233-0.364,0.233h-0.145c-0.156,0-0.277-0.077-0.364-0.233l-2.606-4.669c0.01,0.09,0.018,0.179,0.022,0.265
		c0.006,0.087,0.008,0.166,0.008,0.239v5.469h-0.883v-7.442h0.743c0.09,0,0.159,0.009,0.208,0.026
		c0.048,0.017,0.095,0.065,0.14,0.145l2.571,4.581C380.818,435.732,380.861,435.82,380.897,435.912z"/>
	<path fill="#FFFFFF" d="M390.478,432.061c-0.031,0.052-0.064,0.091-0.099,0.117c-0.035,0.026-0.08,0.039-0.135,0.039
		c-0.06,0-0.128-0.029-0.205-0.089c-0.078-0.059-0.177-0.123-0.297-0.194c-0.119-0.071-0.263-0.136-0.431-0.194
		c-0.168-0.06-0.371-0.089-0.61-0.089c-0.225,0-0.424,0.03-0.597,0.091c-0.174,0.061-0.318,0.143-0.435,0.247
		c-0.115,0.104-0.203,0.226-0.262,0.366c-0.059,0.14-0.089,0.291-0.089,0.454c0,0.208,0.052,0.38,0.153,0.517
		c0.103,0.137,0.237,0.254,0.405,0.351c0.168,0.098,0.358,0.182,0.571,0.252c0.213,0.071,0.432,0.145,0.654,0.221
		c0.224,0.076,0.441,0.162,0.654,0.257c0.213,0.096,0.403,0.216,0.571,0.361s0.304,0.324,0.405,0.535
		c0.103,0.211,0.153,0.471,0.153,0.779c0,0.325-0.056,0.631-0.166,0.916c-0.111,0.286-0.272,0.534-0.485,0.745
		c-0.213,0.212-0.475,0.378-0.784,0.499c-0.311,0.121-0.662,0.182-1.058,0.182c-0.481,0-0.92-0.087-1.316-0.262
		s-0.734-0.411-1.016-0.709l0.291-0.479c0.028-0.038,0.062-0.069,0.102-0.096s0.084-0.039,0.133-0.039
		c0.072,0,0.155,0.039,0.249,0.117c0.094,0.077,0.21,0.163,0.351,0.257c0.14,0.094,0.31,0.179,0.509,0.257s0.442,0.117,0.729,0.117
		c0.239,0,0.452-0.033,0.639-0.099c0.188-0.065,0.346-0.158,0.476-0.278c0.13-0.119,0.229-0.262,0.299-0.428
		c0.069-0.167,0.104-0.352,0.104-0.557c0-0.225-0.051-0.409-0.153-0.553c-0.102-0.144-0.236-0.264-0.402-0.361
		c-0.166-0.097-0.355-0.179-0.568-0.246s-0.432-0.137-0.654-0.208c-0.224-0.07-0.441-0.153-0.654-0.246
		c-0.213-0.094-0.403-0.215-0.569-0.364c-0.166-0.148-0.3-0.335-0.402-0.558c-0.103-0.224-0.153-0.5-0.153-0.829
		c0-0.263,0.051-0.518,0.153-0.764c0.103-0.245,0.25-0.464,0.444-0.654c0.193-0.19,0.434-0.343,0.719-0.457
		c0.286-0.114,0.614-0.171,0.984-0.171c0.416,0,0.795,0.065,1.138,0.197s0.642,0.322,0.898,0.571L390.478,432.061z"/>
</g>
<g>
	<path fill="#FFFFFF" d="M193.86,430.896v0.82h-3.573v2.603h3.054v0.82h-3.054v3.199h-1.013v-7.442H193.86z"/>
	<path fill="#FFFFFF" d="M198.871,438.338h-0.41c-0.09,0-0.163-0.014-0.218-0.042c-0.055-0.027-0.092-0.086-0.109-0.176
		l-0.104-0.488c-0.138,0.124-0.273,0.236-0.405,0.335c-0.132,0.099-0.27,0.182-0.416,0.249s-0.3,0.119-0.465,0.153
		s-0.347,0.052-0.548,0.052c-0.205,0-0.396-0.028-0.574-0.086s-0.333-0.144-0.465-0.258c-0.131-0.114-0.236-0.26-0.314-0.436
		c-0.078-0.175-0.117-0.383-0.117-0.622c0-0.209,0.057-0.409,0.171-0.603c0.114-0.192,0.298-0.363,0.553-0.513
		c0.255-0.149,0.588-0.272,1-0.368c0.412-0.095,0.916-0.143,1.511-0.143v-0.413c0-0.411-0.087-0.723-0.262-0.933
		c-0.175-0.211-0.434-0.316-0.776-0.316c-0.225,0-0.415,0.028-0.569,0.085c-0.154,0.058-0.288,0.122-0.4,0.192
		c-0.112,0.071-0.209,0.136-0.291,0.192c-0.081,0.058-0.162,0.086-0.241,0.086c-0.062,0-0.117-0.017-0.164-0.05
		c-0.047-0.032-0.084-0.073-0.112-0.122l-0.166-0.296c0.291-0.28,0.604-0.49,0.94-0.628c0.336-0.139,0.708-0.208,1.117-0.208
		c0.294,0,0.556,0.049,0.784,0.146s0.42,0.231,0.577,0.405c0.156,0.173,0.273,0.382,0.353,0.628s0.119,0.516,0.119,0.811V438.338z
		 M196.472,437.771c0.163,0,0.312-0.016,0.447-0.049c0.135-0.033,0.262-0.08,0.382-0.141s0.234-0.134,0.343-0.221
		c0.109-0.086,0.215-0.185,0.319-0.296v-1.085c-0.426,0-0.788,0.026-1.085,0.08c-0.298,0.055-0.54,0.125-0.727,0.212
		s-0.323,0.189-0.408,0.309c-0.085,0.118-0.127,0.25-0.127,0.396c0,0.14,0.022,0.26,0.068,0.36c0.045,0.102,0.105,0.184,0.182,0.248
		s0.166,0.112,0.27,0.142S196.351,437.771,196.472,437.771z"/>
	<path fill="#FFFFFF" d="M201.504,435.643l-1.771-2.565h0.888c0.076,0,0.131,0.012,0.166,0.036s0.066,0.059,0.093,0.104l1.288,1.974
		c0.031-0.097,0.076-0.193,0.135-0.291l1.132-1.661c0.034-0.049,0.069-0.088,0.104-0.117s0.078-0.044,0.13-0.044h0.852l-1.771,2.514
		l1.843,2.747h-0.888c-0.076,0-0.136-0.02-0.179-0.06c-0.043-0.04-0.079-0.084-0.106-0.133l-1.325-2.062
		c-0.024,0.101-0.061,0.19-0.109,0.27l-1.226,1.792c-0.035,0.049-0.072,0.093-0.112,0.133s-0.094,0.06-0.164,0.06h-0.826
		L201.504,435.643z"/>
</g>
<g>
	<path fill="#FFFFFF" d="M101.662,430.896v0.82h-3.573v2.473h2.893v0.789h-2.893v2.54h3.573v0.82h-4.586v-7.442H101.662z"/>
	<path fill="#FFFFFF" d="M102.726,434.833h2.565v0.784h-2.565V434.833z"/>
	<path fill="#FFFFFF" d="M106.569,438.339v-5.261h0.55c0.132,0,0.215,0.063,0.25,0.191l0.067,0.541
		c0.194-0.239,0.411-0.435,0.652-0.587s0.52-0.229,0.839-0.229c0.356,0,0.645,0.099,0.865,0.296c0.22,0.197,0.378,0.464,0.475,0.8
		c0.073-0.19,0.169-0.355,0.288-0.494c0.12-0.138,0.254-0.252,0.403-0.343c0.149-0.09,0.307-0.155,0.475-0.197
		c0.168-0.041,0.338-0.062,0.512-0.062c0.277,0,0.523,0.044,0.74,0.132c0.216,0.089,0.4,0.218,0.551,0.387
		c0.15,0.17,0.266,0.379,0.345,0.626c0.08,0.248,0.12,0.531,0.12,0.85v3.35h-0.925v-3.35c0-0.412-0.09-0.725-0.27-0.938
		c-0.18-0.213-0.441-0.319-0.784-0.319c-0.152,0-0.297,0.026-0.434,0.08s-0.257,0.133-0.361,0.236
		c-0.104,0.104-0.186,0.234-0.247,0.393c-0.061,0.157-0.091,0.34-0.091,0.548v3.35h-0.925v-3.35c0-0.423-0.085-0.737-0.254-0.945
		s-0.417-0.312-0.743-0.312c-0.229,0-0.44,0.062-0.636,0.185c-0.196,0.122-0.375,0.29-0.538,0.501v3.921H106.569z"/>
	<path fill="#FFFFFF" d="M118.96,438.339h-0.41c-0.09,0-0.163-0.014-0.218-0.042c-0.055-0.027-0.092-0.086-0.109-0.176l-0.104-0.488
		c-0.138,0.124-0.273,0.236-0.405,0.335c-0.132,0.099-0.27,0.182-0.416,0.249s-0.3,0.119-0.465,0.153s-0.347,0.052-0.548,0.052
		c-0.205,0-0.396-0.028-0.574-0.086s-0.333-0.144-0.465-0.258c-0.131-0.114-0.236-0.26-0.314-0.436
		c-0.078-0.175-0.117-0.383-0.117-0.622c0-0.209,0.057-0.409,0.171-0.603c0.114-0.192,0.298-0.363,0.553-0.513
		c0.255-0.149,0.588-0.272,1-0.368c0.412-0.095,0.916-0.143,1.511-0.143v-0.413c0-0.411-0.087-0.723-0.262-0.933
		c-0.175-0.211-0.434-0.316-0.776-0.316c-0.225,0-0.415,0.028-0.569,0.085c-0.154,0.058-0.288,0.122-0.4,0.192
		c-0.112,0.071-0.209,0.136-0.291,0.192c-0.081,0.058-0.162,0.086-0.241,0.086c-0.062,0-0.117-0.017-0.164-0.05
		c-0.047-0.032-0.084-0.073-0.112-0.122l-0.166-0.296c0.291-0.28,0.604-0.49,0.94-0.628c0.336-0.139,0.708-0.208,1.117-0.208
		c0.294,0,0.556,0.049,0.784,0.146s0.42,0.231,0.577,0.405c0.156,0.173,0.273,0.382,0.353,0.628s0.119,0.516,0.119,0.811V438.339z
		 M116.561,437.772c0.163,0,0.312-0.016,0.447-0.049c0.135-0.033,0.262-0.08,0.382-0.141s0.234-0.134,0.343-0.221
		c0.109-0.086,0.215-0.185,0.319-0.296v-1.085c-0.426,0-0.788,0.026-1.085,0.08c-0.298,0.055-0.54,0.125-0.727,0.212
		s-0.323,0.189-0.408,0.309c-0.085,0.118-0.127,0.25-0.127,0.396c0,0.14,0.022,0.26,0.068,0.36c0.045,0.102,0.105,0.184,0.182,0.248
		s0.166,0.112,0.27,0.142S116.44,437.772,116.561,437.772z"/>
	<path fill="#FFFFFF" d="M121.599,431.426c0,0.091-0.018,0.175-0.054,0.252c-0.037,0.078-0.085,0.147-0.146,0.208
		s-0.131,0.108-0.21,0.143c-0.08,0.035-0.165,0.053-0.254,0.053c-0.09,0-0.174-0.018-0.252-0.053
		c-0.078-0.034-0.147-0.082-0.208-0.143c-0.061-0.061-0.108-0.13-0.143-0.208c-0.035-0.077-0.052-0.161-0.052-0.252
		c0-0.09,0.017-0.175,0.052-0.257c0.035-0.081,0.082-0.152,0.143-0.213c0.061-0.061,0.13-0.108,0.208-0.143
		c0.078-0.035,0.162-0.052,0.252-0.052c0.09,0,0.175,0.017,0.254,0.052c0.08,0.034,0.15,0.082,0.21,0.143s0.109,0.132,0.146,0.213
		C121.581,431.251,121.599,431.336,121.599,431.426z M121.391,433.078v5.261h-0.924v-5.261H121.391z"/>
	<path fill="#FFFFFF" d="M124.05,430.688v7.65h-0.924v-7.65H124.05z"/>
</g>
<g>
	<circle fill="#ED1C24" cx="435.98" cy="365.736" r="3.144"/>
	<path fill-rule="evenodd" clip-rule="evenodd" fill="#ED1C24" d="M434.903,376.199c-1.685,2.277-2.031,4.463,0.07,6.781
		c2.506,2.758,2.919,6.291,3.241,9.818c0.076,0.852-0.14,1.572-1.041,1.801c-0.962,0.248-1.646-0.229-1.916-1.137
		c-0.31-1.037-0.649-2.102-0.699-3.168c-0.122-2.432-1.508-4.09-3.028-5.771c-1.148-1.27-1.79-0.893-2.242,0.467
		c-0.867,2.605-1.776,5.182-3.34,7.479c-0.72,1.059-1.424,2.135-2.424,2.949c-0.642,0.523-1.428,0.703-2.123,0.166
		c-0.661-0.506-0.562-1.27-0.23-1.928c0.52-1.025,1.032-2.072,1.702-2.998c2.033-2.828,2.521-6.08,2.764-9.414
		c0.147-2.012,0.927-3.838,1.664-5.674c0.35-0.865,0.844-1.686,0.88-2.678c-2.237,0.27-2.965,1.035-3.602,3.723
		c-0.281,1.189-0.216,3.047-1.993,2.58c-1.631-0.426-0.715-2.119-0.616-3.283c0.381-4.375,3.759-5.902,7.127-7.422
		c2.795-0.787,5.078,0.455,7.321,1.848c1.303,0.859,1.986,2.219,2.445,3.58c0.607,1.805,1.802,2.783,3.435,3.551
		c0.949,0.449,2.606,0.928,1.98,2.301c-0.621,1.359-2,0.424-3.04,0.043c-1.799-0.654-3.092-1.553-4.494-3.229
		C436.315,376.068,435.801,374.971,434.903,376.199z"/>
</g>
<g>
	<g>
		<path fill="#ED1C24" d="M190.899,362.488c0.001-0.662,0.006-1.322,0.011-1.983c0.011-1.54,0.023-3.133-0.011-4.698
			c-0.019-0.928-0.665-1.665-1.644-1.879c-0.299-0.064-0.605-0.098-0.908-0.098c-0.303,0-0.605,0.033-0.9,0.098
			c-0.975,0.211-1.624,0.946-1.652,1.875c-0.032,1.115-0.019,2.255-0.005,3.355c0.005,0.464,0.011,0.928,0.013,1.392
			c-0.003,0.487-0.009,0.973-0.016,1.459c-0.015,1.144-0.031,2.327,0.003,3.486c0.026,0.941,0.81,1.796,1.747,1.905
			c0.347,0.042,0.697,0.032,1.047,0.024l0.206-0.005c1.188-0.02,2.061-0.838,2.123-1.99c0.036-0.667,0.02-1.353,0.004-2.016
			C190.909,363.105,190.902,362.797,190.899,362.488z"/>
		<path fill="#ED1C24" d="M209.17,353.852c-0.005-1.488-0.997-2.562-2.406-2.564c-6.751-0.01-13.504-0.006-20.257,0
			c-1.073,0-1.961,0.668-2.283,1.672c-0.139,0.436-0.133,0.891-0.137,1.342c-0.013,1.742-0.029,3.48-0.043,5.221
			c0.016,0.256,0.043,0.512,0.043,0.768c0.004,2.084-0.013,4.168,0.008,6.252c0.018,1.799,0.973,2.729,2.774,2.73
			c6.51,0.004,13.017,0.004,19.526-0.002c1.821,0,2.774-0.967,2.779-2.785v-6.699C209.174,357.807,209.183,355.83,209.17,353.852z
			 M207.035,363.482c0.002,0.465-0.231,0.461-0.559,0.451c-0.472-0.012-0.943-0.004-1.413-0.004c-0.428,0-0.856-0.01-1.287,0.004
			c-0.347,0.01-0.604,0.016-0.599-0.48c0.006-0.469,0.248-0.449,0.565-0.447c0.922,0.01,1.844,0.018,2.767-0.004
			C206.872,362.994,207.032,363.055,207.035,363.482z M206.573,361.139c-0.489-0.025-0.984-0.008-1.476-0.008
			c-0.492,0-0.984-0.014-1.474,0.008c-0.351,0.016-0.438-0.133-0.437-0.455c0-0.332,0.066-0.508,0.459-0.498
			c0.981,0.023,1.966,0.021,2.949,0c0.351-0.006,0.429,0.137,0.432,0.455C207.029,360.977,206.963,361.16,206.573,361.139z
			 M206.67,359.27c-0.516-0.025-1.03-0.006-1.545-0.006s-1.029-0.016-1.542,0.006c-0.329,0.014-0.399-0.139-0.393-0.424
			c0.01-0.277,0.008-0.496,0.397-0.488c1.03,0.021,2.06,0.02,3.087,0c0.37-0.004,0.345,0.215,0.345,0.461
			C207.022,359.066,207.035,359.285,206.67,359.27z M194.525,353.172c0.321-0.152,0.661-0.16,1.006-0.16c1.591,0,3.178,0,4.768,0
			c1.655,0.002,3.309-0.01,4.963,0.006c0.9,0.008,1.542,0.506,1.723,1.27c0.177,0.762-0.19,1.535-0.893,1.887
			c-0.278,0.137-0.573,0.18-0.875,0.18c-3.267,0.004-6.53,0.012-9.794,0c-0.974-0.004-1.653-0.514-1.828-1.312
			C193.428,354.289,193.82,353.504,194.525,353.172z M199.1,358.29v1.354h-1.615v-1.354H199.1z M197.035,358.29v1.354h-1.581v-1.354
			H197.035z M193.549,358.29h1.486v1.354h-1.486V358.29z M191.412,365.457c-0.077,1.426-1.151,2.438-2.614,2.463l-0.202,0.004
			c-0.149,0.004-0.298,0.007-0.447,0.007c-0.225,0-0.449-0.008-0.671-0.034c-1.173-0.137-2.155-1.207-2.188-2.388
			c-0.034-1.169-0.018-2.357-0.003-3.507c0.006-0.484,0.013-0.969,0.016-1.453c-0.002-0.459-0.008-0.922-0.013-1.385
			c-0.013-1.105-0.026-2.25,0.005-3.376c0.036-1.149,0.858-2.093,2.046-2.349c0.658-0.145,1.352-0.145,2.021,0
			c1.195,0.261,2.014,1.208,2.038,2.356c0.034,1.573,0.022,3.169,0.011,4.713c-0.005,0.66-0.01,1.319-0.011,1.979
			c0.002,0.303,0.01,0.609,0.017,0.915C191.433,364.075,191.449,364.771,191.412,365.457z M193.519,360.13h1.483v1.354h-1.483
			V360.13z M195.066,365.259h-1.483v-1.355h1.483V365.259z M195.066,363.354h-1.483v-1.355h1.483V363.354z M195.42,360.13h1.582
			v1.354h-1.582V360.13z M197.067,365.259h-1.581v-1.355h1.581V365.259z M197.067,363.354h-1.581v-1.355h1.581V363.354z
			 M197.455,360.13h1.61v1.354h-1.61V360.13z M199.132,365.259h-1.614v-1.355h1.614V365.259z M199.132,363.354h-1.614v-1.355h1.614
			V363.354z M199.519,358.29h1.483v1.354h-1.483V358.29z M201.036,365.259h-1.483v-1.355h1.483V365.259z M201.036,363.354h-1.483
			v-1.355h1.483V363.354z M201.101,361.483h-1.485v-1.354h1.485V361.483z M206.525,365.801c-0.943-0.023-1.89-0.021-2.83,0
			c-0.389,0.01-0.525-0.104-0.53-0.506c-0.004-0.438,0.209-0.486,0.558-0.471c0.471,0.02,0.942,0.006,1.415,0.006
			c0.449,0,0.9,0.012,1.352-0.006c0.343-0.014,0.561,0.02,0.551,0.469C207.035,365.693,206.915,365.809,206.525,365.801z"/>
		<path fill="#ED1C24" d="M202.095,369.686c-3.591-0.006-7.185-0.006-10.775-0.002c-1.014,0.002-1.615,0.529-1.59,1.363
			c0.028,0.801,0.637,1.307,1.59,1.309c1.766,0,3.527,0,5.293,0c1.825,0,3.654,0.004,5.482-0.002
			c0.928-0.002,1.552-0.57,1.531-1.369C203.606,370.197,203.016,369.686,202.095,369.686z"/>
		<path fill="#ED1C24" d="M190.27,350.807c2.067-0.018,4.129-0.01,6.193-0.01c2.063,0,4.125-0.008,6.189,0.01
			c0.414,0.006,0.561-0.102,0.556-0.531c-0.024-1.504-0.022-3.01-0.005-4.512c0.005-0.4-0.135-0.504-0.521-0.504
			c-4.148,0.012-8.297,0.012-12.446,0c-0.385,0-0.524,0.1-0.52,0.504c0.022,1.506,0.025,3.01-0.003,4.516
			C189.707,350.719,189.864,350.812,190.27,350.807z"/>
		<path fill="#ED1C24" d="M195.846,355.412c1.502,0.012,3.003,0.004,4.507,0.004c1.499,0.002,3.003-0.008,4.504,0.006
			c0.53,0.002,0.913-0.182,0.908-0.75c-0.006-0.521-0.351-0.725-0.862-0.725c-3.025,0.008-6.051,0.006-9.076,0
			c-0.353,0-0.645,0.09-0.794,0.426C194.791,354.91,195.169,355.406,195.846,355.412z"/>
	</g>
</g>
</svg>
