<?xml version="1.0" encoding="utf-8"?>
<!-- Generator: Adobe Illustrator 16.0.0, SVG Export Plug-In . SVG Version: 6.00 Build 0)  -->
<!DOCTYPE svg PUBLIC "-//W3C//DTD SVG 1.1//EN" "http://www.w3.org/Graphics/SVG/1.1/DTD/svg11.dtd">
<svg version="1.1" id="Layer_1" xmlns="http://www.w3.org/2000/svg" xmlns:xlink="http://www.w3.org/1999/xlink" x="0px" y="0px"
	 width="141.732px" height="76.536px" viewBox="0 0 141.732 76.536" enable-background="new 0 0 141.732 76.536"
	 xml:space="preserve">
<g>
	<path fill="#FFFFFF" d="M94.896,3.956c-16.943,3.99-30.854,22.577-25.135,43.689c5.354,19.759,25.289,29.983,43.604,25.12
		c17.96-4.771,30.657-23.548,25.241-43.718C132.986,8.111,111.682-1.174,94.896,3.956z"/>
	<path fill="#FFFFFF" d="M53.033,40.918c-5.916,1.189-9.267,7.648-7.85,12.948c1.577,5.89,7.393,9.409,13.159,7.896
		c5.743-1.507,9.297-7.606,7.707-13.312C64.257,42.024,57.311,39.385,53.033,40.918z"/>
	<path fill="#FFFFFF" d="M38.076,56.092c-1.036-3.959-5.034-6.372-8.93-5.388c-4.077,1.029-6.559,5.042-5.577,9.022
		c0.982,3.983,5.129,6.485,9.09,5.486C36.672,64.201,39.119,60.081,38.076,56.092z"/>
	<path fill="#FFFFFF" d="M10.075,63.621c-0.577-2.288-2.713-3.623-4.934-3.085c-2.166,0.527-3.653,2.846-3.192,4.98
		c0.466,2.157,3.046,3.733,5.17,3.159C9.289,68.088,10.625,65.802,10.075,63.621z"/>
	<path fill-rule="evenodd" clip-rule="evenodd" fill="#ED1C24" d="M94.896,3.956c16.786-5.13,38.09,4.156,43.71,25.091
		c5.416,20.17-7.281,38.947-25.241,43.718c-18.314,4.863-38.25-5.361-43.604-25.12C64.042,26.532,77.953,7.945,94.896,3.956z
		 M103.17,19.633c-1.364,0.518-2.54,1.051-3.767,1.406c-1.222,0.353-2.492,0.537-3.746,0.78c-9.377,1.821-14.462,11.869-9.28,20.775
		c0.637,1.094,0.522,1.801-0.04,2.749c-1.761,2.98-3.479,5.988-5.196,8.994c-0.335,0.585-0.666,1.19-0.872,1.829
		c-0.586,1.812,0.155,3.776,1.738,4.793c1.577,1.013,3.688,0.86,5.063-0.492c0.666-0.655,1.215-1.458,1.694-2.267
		c1.562-2.625,3.062-5.287,4.6-7.927c0.299-0.513,0.656-0.991,0.755-1.136c3.029-0.119,5.697-0.225,8.559-0.336
		c-0.103-0.094,0.051-0.021,0.085,0.088c0.413,1.289,0.795,2.588,1.21,3.875c0.97,3.016,2.872,4.069,5.947,3.253
		c6.429-1.709,12.856-3.433,19.277-5.173c3.228-0.875,4.29-2.73,3.438-5.917c-1.86-6.952-3.728-13.901-5.594-20.851
		c-0.527-1.967-1.025-3.943-1.595-5.897c-0.528-1.816-1.853-2.886-3.702-2.926c-0.933-0.02-1.883,0.149-2.807,0.327
		c-0.92,0.177-1.818,0.472-2.692,0.707c-1.375-1.744-2.947-1.998-4.838-1.346c-1.602,0.551-3.253,0.998-4.914,1.316
		C104.57,16.626,103.488,17.687,103.17,19.633z"/>
	<path fill-rule="evenodd" clip-rule="evenodd" fill="#ED1C24" d="M53.033,40.918c4.278-1.533,11.225,1.105,13.017,7.533
		c1.59,5.706-1.964,11.805-7.707,13.312c-5.767,1.513-11.582-2.007-13.159-7.896C43.766,48.566,47.117,42.107,53.033,40.918z"/>
	<path fill-rule="evenodd" clip-rule="evenodd" fill="#ED1C24" d="M38.076,56.092c1.043,3.988-1.403,8.108-5.417,9.12
		c-3.961,0.999-8.107-1.503-9.09-5.486c-0.981-3.979,1.5-7.993,5.577-9.022C33.042,49.721,37.04,52.133,38.076,56.092z"/>
	<path fill-rule="evenodd" clip-rule="evenodd" fill="#ED1C24" d="M10.075,63.621c0.55,2.182-0.786,4.468-2.956,5.055
		c-2.124,0.574-4.704-1.002-5.17-3.159c-0.461-2.135,1.026-4.453,3.192-4.98C7.362,59.998,9.498,61.333,10.075,63.621z"/>
	<path fill-rule="evenodd" clip-rule="evenodd" fill="#FFFFFF" d="M103.17,19.633c0.317-1.946,1.399-3.007,3.324-3.375
		c1.661-0.318,3.312-0.766,4.914-1.316c1.891-0.652,3.463-0.398,4.838,1.346c0.874-0.234,1.772-0.529,2.692-0.707
		c0.924-0.178,1.874-0.347,2.807-0.327c1.85,0.04,3.174,1.11,3.702,2.926c0.569,1.955,1.067,3.93,1.595,5.897
		c1.866,6.949,3.733,13.899,5.594,20.851c0.852,3.187-0.211,5.042-3.438,5.917c-6.421,1.741-12.849,3.464-19.277,5.173
		c-3.075,0.816-4.978-0.237-5.947-3.253c-0.415-1.288-0.797-2.587-1.21-3.875c-0.034-0.11-0.188-0.182-0.085-0.088
		c-2.861,0.111-5.529,0.217-8.559,0.336c-0.099,0.145-0.456,0.623-0.755,1.136c-1.538,2.64-3.038,5.302-4.6,7.927
		c-0.479,0.809-1.028,1.611-1.694,2.267c-1.376,1.353-3.486,1.505-5.063,0.492c-1.583-1.017-2.324-2.98-1.738-4.793
		c0.206-0.639,0.537-1.244,0.872-1.829c1.718-3.006,3.436-6.014,5.196-8.994c0.562-0.947,0.677-1.654,0.04-2.749
		c-5.182-8.906-0.097-18.954,9.28-20.775c1.254-0.243,2.524-0.427,3.746-0.78C100.63,20.684,101.806,20.151,103.17,19.633z
		 M109.305,27.219c1.256-0.139,2.395-0.39,3.523-0.356c1.383,0.042,2.468,1.2,2.5,2.475c0.027,1.037-0.475,2.489-1.988,2.667
		c-0.522,0.06-1.028,0.263-1.607,0.418c0.026,0.611,0.021,1.076,0.076,1.534c0.038,0.32,0.16,0.632,0.27,1.04
		c0.803-0.142,1.521-0.343,2.248-0.382c1.589-0.086,2.865,0.93,3.082,2.361c0.217,1.437-0.509,2.445-2.162,2.935
		c-1.039,0.309-2.079,0.654-3.146,0.83c-1.407,0.231-2.014,1.058-2.28,2.5c2.064-0.554,3.949-1.12,5.863-1.556
		c1.771-0.403,3.102,0.378,3.508,1.909c0.407,1.533-0.354,2.865-2.1,3.397c-2.074,0.63-4.175,1.19-6.285,1.687
		c-1.535,0.36-2.547-0.206-3.308-1.643c-0.152-0.287-0.294-0.578-0.442-0.87c-1.804,0.975-1.814,0.978-1.411,2.634
		c0.239,0.987,0.497,1.974,0.793,2.946c0.567,1.864,1.119,2.202,2.986,1.707c6.357-1.685,12.709-3.391,19.057-5.111
		c1.684-0.457,2.059-1.096,1.766-2.815c-0.067-0.399-0.188-0.792-0.293-1.184c-2.09-7.794-4.18-15.588-6.273-23.38
		c-0.141-0.522-0.273-1.053-0.477-1.553c-0.553-1.357-1.25-1.799-2.697-1.535c-1.188,0.215-2.344,0.606-3.452,0.904
		c-0.312,3.044-0.745,3.553-3.544,4.311c-0.785,0.213-1.571,0.423-2.357,0.634c-1.266,0.339-2.531,0.679-4.023,1.079
		C108.038,25.808,108.705,26.549,109.305,27.219z M100.6,44.949c4.438-0.98,8.502-5.784,7.094-11.978
		c-1.194-5.251-6.951-8.564-12.135-7.174c-5.264,1.412-8.255,6.712-7.054,12C89.59,42.574,95.243,46.58,100.6,44.949z"/>
	<path fill-rule="evenodd" clip-rule="evenodd" fill="#ED1C24" d="M109.305,27.219c-0.601-0.67-1.268-1.411-2.175-2.417
		c1.492-0.4,2.758-0.74,4.023-1.079c0.786-0.211,1.572-0.421,2.357-0.634c2.799-0.758,3.231-1.266,3.544-4.311
		c1.108-0.297,2.264-0.688,3.452-0.904c1.447-0.264,2.145,0.178,2.697,1.535c0.203,0.5,0.336,1.03,0.477,1.553
		c2.094,7.792,4.184,15.586,6.273,23.38c0.105,0.392,0.226,0.784,0.293,1.184c0.293,1.719-0.082,2.358-1.766,2.815
		c-6.348,1.72-12.699,3.427-19.057,5.111c-1.867,0.495-2.419,0.157-2.986-1.707c-0.296-0.972-0.554-1.958-0.793-2.946
		c-0.403-1.656-0.393-1.659,1.411-2.634c0.148,0.292,0.29,0.583,0.442,0.87c0.761,1.437,1.772,2.002,3.308,1.643
		c2.11-0.497,4.211-1.056,6.285-1.687c1.745-0.532,2.507-1.865,2.1-3.397c-0.406-1.531-1.736-2.312-3.508-1.909
		c-1.914,0.437-3.799,1.002-5.863,1.556c0.267-1.442,0.873-2.269,2.28-2.5c1.066-0.176,2.106-0.521,3.146-0.83
		c1.653-0.49,2.379-1.499,2.162-2.935c-0.217-1.431-1.493-2.447-3.082-2.361c-0.727,0.039-1.445,0.24-2.248,0.382
		c-0.109-0.408-0.231-0.72-0.27-1.04c-0.056-0.458-0.05-0.923-0.076-1.534c0.579-0.155,1.085-0.358,1.607-0.418
		c1.514-0.178,2.016-1.63,1.988-2.667c-0.032-1.275-1.117-2.433-2.5-2.475C111.7,26.829,110.561,27.08,109.305,27.219z
		 M122.282,42.711c-0.654,0.079-1.608-0.145-1.575,0.967c0.023,0.846,0.44,1.628,1.332,1.844c0.974,0.237,1.225-0.535,1.484-1.278
		c0.605-1.723,1.27-3.424,1.89-5.144c0.12-0.334,0.142-0.705,0.261-1.329C122.997,38.609,123.246,41.051,122.282,42.711z
		 M118.262,27.15c-0.68,0.352-1.342,0.486-1.609,0.886c-0.392,0.584,0.381,1.863,1.131,2.123c0.704,0.245,1.244-0.137,1.596-1.115
		c0.616-1.718,1.244-3.431,1.848-5.153c0.119-0.338,0.15-0.708,0.276-1.338C118.767,23.247,119.288,25.767,118.262,27.15z
		 M120.241,35.065c-0.193-0.002-0.459-0.058-0.696,0.001c-0.557,0.14-1.063,0.406-0.924,1.1c0.168,0.833,0.572,1.618,1.487,1.694
		c0.371,0.031,1.006-0.436,1.155-0.817c0.823-2.122,1.535-4.288,2.374-6.694C120.867,30.839,121.251,33.262,120.241,35.065z"/>
	<path fill-rule="evenodd" clip-rule="evenodd" fill="#ED1C24" d="M100.6,44.949c-5.357,1.631-11.01-2.375-12.095-7.152
		c-1.201-5.287,1.79-10.587,7.054-12c5.184-1.391,10.94,1.923,12.135,7.174C109.102,39.165,105.038,43.968,100.6,44.949z"/>
	<path fill-rule="evenodd" clip-rule="evenodd" fill="#FFFFFF" d="M122.282,42.711c0.964-1.661,0.715-4.103,3.392-4.94
		c-0.119,0.624-0.141,0.994-0.261,1.329c-0.62,1.72-1.284,3.421-1.89,5.144c-0.26,0.743-0.511,1.515-1.484,1.278
		c-0.892-0.216-1.309-0.998-1.332-1.844C120.673,42.567,121.627,42.79,122.282,42.711z"/>
	<path fill-rule="evenodd" clip-rule="evenodd" fill="#FFFFFF" d="M118.262,27.15c1.025-1.383,0.505-3.904,3.241-4.598
		c-0.126,0.63-0.157,1-0.276,1.338c-0.604,1.722-1.231,3.435-1.848,5.153c-0.352,0.978-0.892,1.36-1.596,1.115
		c-0.75-0.26-1.522-1.539-1.131-2.123C116.92,27.637,117.583,27.502,118.262,27.15z"/>
	<path fill-rule="evenodd" clip-rule="evenodd" fill="#FFFFFF" d="M120.241,35.065c1.011-1.803,0.626-4.227,3.396-4.716
		c-0.839,2.406-1.551,4.572-2.374,6.694c-0.149,0.382-0.784,0.848-1.155,0.817c-0.915-0.076-1.319-0.86-1.487-1.694
		c-0.14-0.694,0.367-0.96,0.924-1.1C119.782,35.007,120.047,35.063,120.241,35.065z"/>
</g>
</svg>
