<?xml version="1.0" encoding="utf-8"?>
<!-- Generator: Adobe Illustrator 16.0.0, SVG Export Plug-In . SVG Version: 6.00 Build 0)  -->
<!DOCTYPE svg PUBLIC "-//W3C//DTD SVG 1.1//EN" "http://www.w3.org/Graphics/SVG/1.1/DTD/svg11.dtd">
<svg version="1.1" id="Layer_1" xmlns="http://www.w3.org/2000/svg" xmlns:xlink="http://www.w3.org/1999/xlink" x="0px" y="0px"
	 width="313.827px" height="259.339px" viewBox="0 0 313.827 259.339" enable-background="new 0 0 313.827 259.339"
	 xml:space="preserve">
<g>
	<g>
		<path fill-rule="evenodd" clip-rule="evenodd" fill="#FFFFFF" d="M34.505,228.508c8.458-0.224,15.202-7.078,15.104-15.35
			c-0.095-8.161-7.108-14.985-15.474-15.058c-8.324-0.072-15.483,6.703-15.688,14.852C18.227,221.665,25.54,228.739,34.505,228.508z
			"/>
		<path fill-rule="evenodd" clip-rule="evenodd" fill="#FFFFFF" d="M56.901,237.662c0-4.277-3.462-7.742-7.741-7.742H18.942
			c-4.276,0-7.742,3.465-7.742,7.742c0,0.523,0.053,1.033,0.152,1.527v9.934H88.46V239H56.777
			C56.854,238.564,56.901,238.119,56.901,237.662z"/>
		<path fill-rule="evenodd" clip-rule="evenodd" fill="#FFFFFF" d="M74.581,209.543c6.993-0.185,12.567-5.848,12.486-12.688
			c-0.082-6.749-5.875-12.391-12.787-12.449c-6.886-0.059-12.811,5.545-12.972,12.28C61.125,203.886,67.166,209.737,74.581,209.543z
			"/>
		<path fill-rule="evenodd" clip-rule="evenodd" fill="#FFFFFF" d="M93.099,217.111c0-3.535-2.867-6.4-6.4-6.4H61.718
			c-3.54,0-6.404,2.865-6.404,6.4c0,0.429,0.044,0.848,0.125,1.254v8.223h63.753v-8.37H92.997
			C93.06,217.857,93.099,217.489,93.099,217.111z"/>
		<path fill-rule="evenodd" clip-rule="evenodd" fill="#FFFFFF" d="M108.294,192.934c5.95-0.155,10.685-4.972,10.617-10.785
			c-0.067-5.738-4.997-10.532-10.872-10.583c-5.853-0.051-10.885,4.709-11.029,10.438
			C96.855,188.128,101.992,193.098,108.294,192.934z"/>
		<path fill-rule="evenodd" clip-rule="evenodd" fill="#FFFFFF" d="M124.036,199.369c0-3.007-2.438-5.439-5.442-5.439H97.361
			c-3.006,0-5.441,2.433-5.441,5.439c0,0.362,0.037,0.715,0.104,1.057v6.998h54.192v-7.116h-22.268
			C124.002,200.002,124.036,199.69,124.036,199.369z"/>
		<path fill-rule="evenodd" clip-rule="evenodd" fill="#FFFFFF" d="M265.421,213.705c-0.102,8.271,6.646,15.125,15.103,15.348
			c8.968,0.232,16.275-6.842,16.061-15.554c-0.204-8.148-7.365-14.925-15.692-14.853C272.529,198.72,265.52,205.543,265.421,213.705
			z"/>
		<path fill-rule="evenodd" clip-rule="evenodd" fill="#FFFFFF" d="M303.827,238.207c0-4.275-3.467-7.742-7.741-7.742h-30.218
			c-4.274,0-7.737,3.467-7.737,7.742c0,0.458,0.047,0.904,0.124,1.34h-31.686v10.121h77.109v-9.952
			C303.774,239.228,303.827,238.724,303.827,238.207z"/>
		<path fill-rule="evenodd" clip-rule="evenodd" fill="#FFFFFF" d="M227.963,197.398c-0.083,6.841,5.495,12.508,12.483,12.69
			c7.415,0.192,13.46-5.657,13.277-12.859c-0.169-6.738-6.085-12.336-12.972-12.277
			C233.844,185.009,228.041,190.651,227.963,197.398z"/>
		<path fill-rule="evenodd" clip-rule="evenodd" fill="#FFFFFF" d="M259.589,218.91c0.08-0.405,0.124-0.823,0.124-1.251
			c0-3.538-2.861-6.399-6.398-6.399H228.33c-3.532,0-6.4,2.861-6.4,6.399c0,0.379,0.039,0.748,0.103,1.108h-26.19v8.365h63.748
			V218.91z"/>
		<path fill-rule="evenodd" clip-rule="evenodd" fill="#FFFFFF" d="M196.118,182.696c-0.071,5.81,4.669,10.629,10.614,10.783
			c6.304,0.162,11.436-4.808,11.288-10.931c-0.144-5.724-5.176-10.488-11.028-10.436
			C201.113,172.162,196.188,176.957,196.118,182.696z"/>
		<path fill-rule="evenodd" clip-rule="evenodd" fill="#FFFFFF" d="M223.005,200.952c0.065-0.336,0.102-0.683,0.102-1.039
			c0-3.004-2.432-5.439-5.439-5.439h-21.232c-3.008,0-5.446,2.436-5.446,5.439c0,0.321,0.033,0.634,0.087,0.94H168.81v7.116h54.195
			V200.952z"/>
		<path fill-rule="evenodd" clip-rule="evenodd" fill="#FFFFFF" d="M150.36,89.943c12.279,2.361,21.088-3.815,29.571-11.322
			c4.918-4.354,16.649-13.4,18.766-15.026l8.667,12.216c-8.45,6.468-24.262,18.03-32.569,24.682
			c-1.651,1.32-3.517,3.488-3.646,5.379c-0.452,6.545-0.175,13.139-0.175,20.273c36.613,0,72.256,0,108.101,0
			c0-33.65,0-66.889,0-100.187c-45.188,0-89.796,0-134.816,0c0,14.686,0,28.965,0,43.738c6.838-10.198,17.068-11.688,23.583-5.324
			c4.694,4.585,5.184,14.997-0.352,19.397c-2.476,1.968-12.535,9.298-23.32-3.918c0,2.737,0,6.879,0,11.173
			C146.421,90.595,148.522,89.59,150.36,89.943z"/>
		<path fill-rule="evenodd" clip-rule="evenodd" fill="#FFFFFF" d="M184.202,191.026c-4.543-12.586-9.202-25.301-13.686-38.079
			c-0.899-2.556-1.565-5.33-1.602-8.017c-0.18-12.546-0.241-24.907,0.046-37.632c0.059-2.53,1.58-5.795,3.561-7.363
			c8.759-6.941,25.636-19.913,26.806-21.363c5.121-6.385-1.965-11.041-8.756-5.793c-4.551,3.511-9.134,7.054-13.565,10.604
			c-7.521,6.033-14.857,10.329-24.703,8.597c-3.707-0.651-5.777,1.137-7.451,4.397c-4.957,9.643-10.789,20.316-15.904,29.875
			c-6.706,11.045,0.14,14.425,5.516,5.753c3.861-6.225,8.59-14.58,12.927-21.594c0.63,2.719-0.155,42.799-7.531,57.306
			c-2.876,5.641-4.423,11.948-6.658,17.915c-1.312,3.501-2.909,6.398,2.637,8.316c5.656,1.959,6.016-1.727,7.226-5.038
			c4.083-11.182,8.125-22.378,12.228-33.553c0.533-1.454,1.445-14.994,2.581-17.364c1.134,2.322,1.748,15.72,2.235,17.032
			c4.05,10.968,8.089,21.941,12.071,32.933C175.167,196.215,175.626,196.384,184.202,191.026z"/>
		<path fill-rule="evenodd" clip-rule="evenodd" fill="#FFFFFF" d="M169.056,73.999c0.039-6.249-5.01-11.357-11.198-11.329
			c-6.235,0.025-11.186,5.142-11.069,11.43c0.112,6.123,4.746,10.773,10.868,10.908C164.052,85.147,169.011,80.355,169.056,73.999z"
			/>
	</g>
	<g>
		<g>
			<path fill-rule="evenodd" clip-rule="evenodd" fill="#ED1C24" d="M211.472,54.808c4.783,0.968,9.129,1.831,13.467,2.74
				c0.802,0.167,1.6,0.45,2.345,0.797c4.654,2.153,9.877,0.723,12.514-3.46c2.592-4.107,1.777-9.614-1.875-12.674
				c-3.823-3.201-9.273-3.124-12.943,0.396c-1.113,1.071-2.092,1.265-3.36,0.73c-1.303-0.555-2.58-1.179-4.198-1.924
				c1.337-2.876,2.365-5.651,3.86-8.145c1.347-2.238,3.701-3.045,6.219-2.202c10.355,3.47,20.699,6.967,30.972,10.679
				c1.379,0.501,2.729,2.095,3.357,3.51c7.854,17.729,15.572,35.515,23.324,53.29c1.451,3.33,2.923,6.652,4.307,10.008
				c1.472,3.576,0.438,6.4-3.074,7.944c-14.34,6.306-28.697,12.567-43.083,18.775c-3.588,1.549-6.484,0.289-8.063-3.326
				c-9.178-21.015-18.366-42.024-27.418-63.093c-0.636-1.477-0.708-3.563-0.203-5.09C208.696,60.489,210.325,57.396,211.472,54.808z
				"/>
			<path fill-rule="evenodd" clip-rule="evenodd" fill="#ED1C24" d="M245.104,31.541c-2.209-0.76-4.393-1.385-6.446-2.294
				c-0.582-0.257-0.905-1.309-1.163-2.061c-2.389-6.904-9.996-11.705-16.696-10.488c-9.873,1.793-14.728,13.656-9.262,22.63
				c4.094,6.713,10.844,9.224,18.319,6.812c2.282-0.735,4.066-0.019,4.806,1.937c0.728,1.915-0.161,3.64-2.377,4.62
				c-7.664,3.388-17.617,0.909-23.829-5.932c-7.995-8.801-7.994-22.8,0.004-30.908c8.357-8.472,22.06-8.209,30.117,0.577
				C243.104,21.375,245.247,26.233,245.104,31.541z"/>
			<g>
				<path fill="#FFFFFF" d="M257.158,122.06c-0.432-0.615-0.928-1.544-1.329-2.462c-0.621-1.423-0.761-2.453-0.46-3.348
					c0.23-0.722,0.809-1.318,1.604-1.665c1.362-0.593,2.638-0.13,3.48,0.795l0.046-0.019c-0.072-0.917,0.455-1.71,1.42-2.422
					c1.291-0.963,2.18-1.641,2.483-2.029l0.6,1.378c-0.218,0.294-1.004,0.91-2.162,1.761c-1.29,0.927-1.585,1.71-1.104,2.938
					l0.549,1.254l4.466-1.947l0.581,1.333L257.158,122.06z M261.274,118.682l-0.594-1.361c-0.62-1.422-1.795-1.984-2.972-1.471
					c-1.331,0.58-1.494,1.797-0.895,3.21c0.279,0.643,0.541,1.075,0.697,1.263L261.274,118.682z"/>
				<path fill="#FFFFFF" d="M253.983,110.735l0.014,0.03l1.688,1.323l-0.911,0.707l-2.112-1.666l-0.499-1.148l9.945-4.333l0.567,1.3
					L253.983,110.735z"/>
				<path fill="#FFFFFF" d="M252.562,97.627c3.383-1.473,5.796-1.031,6.758,1.171c0.846,1.941-0.399,4.052-3.677,5.516
					c-3.335,1.453-5.799,0.814-6.679-1.203C248.048,101.015,249.394,99.007,252.562,97.627z M255.071,102.96
					c2.585-1.126,3.707-2.56,3.172-3.785c-0.599-1.375-2.492-1.333-5.033-0.226c-2.448,1.066-3.78,2.392-3.174,3.784
					C250.55,103.91,252.361,104.14,255.071,102.96z"/>
				<path fill="#FFFFFF" d="M249.137,89.78c3.383-1.473,5.796-1.031,6.759,1.169c0.847,1.943-0.4,4.052-3.677,5.518
					c-3.335,1.453-5.799,0.815-6.68-1.205C244.623,93.167,245.97,91.16,249.137,89.78z M251.647,95.112
					c2.585-1.126,3.707-2.562,3.172-3.785c-0.6-1.375-2.493-1.335-5.033-0.228c-2.448,1.066-3.781,2.393-3.174,3.785
					C247.125,96.062,248.938,96.292,251.647,95.112z"/>
				<path fill="#FFFFFF" d="M255.754,85.953c-1.052,0.056-2.868,0.357-4.058,0.676l-0.809-1.432
					c1.454-0.215,3.446-0.282,4.353-0.167L255.754,85.953z"/>
				<path fill="#FFFFFF" d="M244.331,78.768c3.383-1.473,5.798-1.033,6.757,1.169c0.848,1.943-0.4,4.052-3.674,5.516
					c-3.337,1.453-5.8,0.815-6.681-1.203C239.818,82.153,241.165,80.148,244.331,78.768z M246.841,84.1
					c2.585-1.126,3.709-2.562,3.174-3.786c-0.6-1.376-2.493-1.333-5.035-0.226c-2.446,1.066-3.78,2.393-3.172,3.784
					C242.321,85.051,244.132,85.28,246.841,84.1z"/>
				<path fill="#FFFFFF" d="M240.907,70.92c3.383-1.473,5.797-1.033,6.758,1.17c0.847,1.942-0.399,4.052-3.675,5.516
					c-3.337,1.454-5.801,0.815-6.682-1.203C236.395,74.306,237.741,72.3,240.907,70.92z M243.418,76.252
					c2.585-1.126,3.707-2.562,3.173-3.786c-0.6-1.375-2.493-1.333-5.035-0.226c-2.447,1.066-3.781,2.393-3.173,3.784
					C238.896,77.202,240.709,77.433,243.418,76.252z"/>
				<path fill="#FFFFFF" d="M237.484,63.072c3.383-1.473,5.796-1.031,6.756,1.171c0.847,1.942-0.399,4.052-3.675,5.516
					c-3.335,1.453-5.8,0.814-6.68-1.204C232.97,66.46,234.316,64.453,237.484,63.072z M239.994,68.406
					c2.585-1.125,3.707-2.561,3.172-3.786c-0.6-1.375-2.493-1.333-5.033-0.226c-2.448,1.067-3.781,2.392-3.174,3.784
					C235.473,69.355,237.284,69.587,239.994,68.406z"/>
			</g>
		</g>
	</g>
</g>
</svg>
