<?xml version="1.0" encoding="utf-8"?>
<!-- Generator: Adobe Illustrator 16.0.0, SVG Export Plug-In . SVG Version: 6.00 Build 0)  -->
<!DOCTYPE svg PUBLIC "-//W3C//DTD SVG 1.1//EN" "http://www.w3.org/Graphics/SVG/1.1/DTD/svg11.dtd">
<svg version="1.1" id="Layer_1" xmlns="http://www.w3.org/2000/svg" xmlns:xlink="http://www.w3.org/1999/xlink" x="0px" y="0px"
	 width="250px" height="158.128px" viewBox="0 0 250 158.128" enable-background="new 0 0 250 158.128" xml:space="preserve">
<g>
	<path fill-rule="evenodd" clip-rule="evenodd" fill="#FFFFFF" d="M70.742,16.243v10.984h7.872v-3.114h69.171
		c0,30.953,0,61.906,0,92.859h-9.367l-2.541,7.871h19.778v-4.51v-3.361c0-33.575,0-67.154,0-100.729H70.742L70.742,16.243z
		 M69.031,48.73h54.676v27.9H69.031V48.73L69.031,48.73z M68.916,123.911h23.858v3.25H68.916V123.911L68.916,123.911z
		 M68.916,113.89h23.858v3.252H68.916V113.89L68.916,113.89z M68.916,102.96h34.402v3.252H68.916V102.96L68.916,102.96z
		 M68.916,93.067h45.205v3.256H68.916V93.067L68.916,93.067z M68.916,83.956h54.791v3.256H68.916V83.956L68.916,83.956z
		 M138.484,33.288V96.46v0.574l-0.2,0.623l-13.393,41.492l-0.885,2.736h-2.85h-18.922h-8.161H53.568v-4.508v-3.363
		c0-33.574,0-67.149,0-100.727H138.484L138.484,33.288z M91.9,134.015H61.438c0-30.951,0-61.905,0-92.856h69.174v51.858
		l-24.767,28.021l-2.275,2.572l2.243,2.592l6.755,7.812h-10.332H91.9L91.9,134.015z M126.048,110.015l-6.484,20.098l-5.578-6.451
		L126.048,110.015z"/>
	<g>
		<path fill-rule="evenodd" clip-rule="evenodd" fill="#ED1C24" d="M146.81,71.827c1.812,0.929,3.703,1.896,5.724,2.933
			c-2.338,3.632-4.459,6.933-6.775,10.536c-1.484-1.143-3.08-2.365-4.755-3.65c-7.106,8.032-15.672,12.096-25.785,12.465
			c-9.019,0.33-17.026-2.682-23.854-8.615c-12.536-10.888-15.414-30.416-6.559-44.25c9.234-14.432,27.509-20.278,42.844-13.729
			C143.184,34.153,153.223,51.725,146.81,71.827z M143.538,52.674C139.7,36.33,123.676,26.35,107.412,30.179
			c-16.234,3.817-26.3,20.012-22.518,36.224c3.801,16.263,20.144,26.28,36.559,22.411C137.413,85.053,147.332,68.821,143.538,52.674
			z"/>
		<path fill-rule="evenodd" clip-rule="evenodd" fill="#ED1C24" d="M157.918,78.813c10.778,6.606,21.664,13.276,32.501,19.918
			c-1.989,3.174-4.027,6.412-6.041,9.621c-10.697-6.605-21.597-13.334-32.667-20.17C153.689,85.194,155.808,81.999,157.918,78.813z"
			/>
		<path fill-rule="evenodd" clip-rule="evenodd" fill="#ED1C24" d="M186.409,109.829c2.072-3.352,4.083-6.605,6.166-9.975
			c2.229,0.799,3.782,2.092,3.853,4.57c0.083,3.031-1.352,5.34-3.943,6.736C190.234,112.372,188.199,111.591,186.409,109.829z"/>
		<path fill-rule="evenodd" clip-rule="evenodd" fill="#ED1C24" d="M154.393,76.13c2.927,2.419-0.054,4.128-0.985,5.354
			c-1.432,1.884-1.355,5.836-5.678,5.309C150.042,83.09,152.101,79.795,154.393,76.13z"/>
		<path fill-rule="evenodd" clip-rule="evenodd" fill="#FFFFFF" d="M143.538,52.674c3.794,16.146-6.125,32.379-22.085,36.139
			c-16.415,3.869-32.758-6.148-36.559-22.411c-3.782-16.212,6.283-32.406,22.518-36.224C123.676,26.35,139.7,36.33,143.538,52.674z
			 M121.07,87.681c15.436-3.548,25.015-19.019,21.423-34.6c-3.664-15.916-19.016-25.515-34.894-21.821
			C92.156,34.853,82.4,50.414,85.952,65.791C89.665,81.861,104.952,91.392,121.07,87.681z"/>
		<path fill-rule="evenodd" clip-rule="evenodd" fill="#ED1C24" d="M121.07,87.681c-16.118,3.711-31.405-5.82-35.118-21.89
			C82.4,50.414,92.156,34.853,107.6,31.259c15.878-3.693,31.229,5.905,34.894,21.821C146.085,68.662,136.506,84.132,121.07,87.681z
			 M141.431,53.072c-3.608-14.931-18.629-24.229-33.521-20.761C92.935,35.802,83.533,51.115,87.163,66.1
			c3.602,14.872,18.771,24.139,33.636,20.551C135.652,83.066,145.002,67.844,141.431,53.072z"/>
		<path fill-rule="evenodd" clip-rule="evenodd" fill="#ED1C24" d="M140.027,60.131c0.707,9.551-7.531,23.846-23.771,25.362
			c-12.705,1.189-25.76-8.198-27.689-20.689c5.8,12.751,15.154,19.229,28.662,17.537C129.797,80.769,136.973,72.71,140.027,60.131z"
			/>
	</g>
</g>
</svg>
