<?xml version="1.0" encoding="utf-8"?>
<!-- Generator: Adobe Illustrator 16.0.0, SVG Export Plug-In . SVG Version: 6.00 Build 0)  -->
<!DOCTYPE svg PUBLIC "-//W3C//DTD SVG 1.1//EN" "http://www.w3.org/Graphics/SVG/1.1/DTD/svg11.dtd">
<svg version="1.1" id="Layer_1" xmlns="http://www.w3.org/2000/svg" xmlns:xlink="http://www.w3.org/1999/xlink" x="0px" y="0px"
	 width="250px" height="158.128px" viewBox="0 0 250 158.128" enable-background="new 0 0 250 158.128" xml:space="preserve">
<g>
	<g>
		<path fill="#FFFFFF" stroke="#D1D3D4" stroke-width="0.421" stroke-miterlimit="10" d="M92.628,132.223
			c0.947,0.077,1.898,0.15,3.155,0.251c-0.165,0.68-0.4,1.341-0.474,2.021c-0.073,0.667-0.125,1.407,0.108,1.996
			c0.092,0.225,1.369,0.32,1.487,0.115c0.317-0.555,0.413-1.303,0.4-1.971c-0.01-0.732-0.236-1.464-0.369-2.168
			c1.265-0.1,2.191-0.171,3.121-0.244c0.648,0.433,1.293,0.857,1.969,1.307c0.327-0.349,0.604-0.638,0.878-0.929
			c-0.395,0.657-0.859,1.286-1.167,1.98c-0.217,0.488-0.46,1.425-0.286,1.542c0.571,0.378,1.365,0.683,2.003,0.58
			c0.366-0.06,0.773-0.941,0.833-1.488c0.045-0.421-0.422-0.896-0.868-1.736c1.578-0.489,3.003-0.932,4.428-1.378
			c0.143,0.157,0.289,0.314,0.431,0.471c-0.193,0.665-0.471,1.316-0.562,1.992c-0.088,0.627-0.188,1.418,0.114,1.876
			c0.191,0.291,1.394,0.351,1.631,0.075c0.355-0.413,0.365-1.22,0.334-1.85c-0.035-0.74-0.265-1.474-0.526-2.794
			c1.979,0.688,3.385,1.174,4.79,1.665c-0.191,0.155-0.387,0.311-0.578,0.464c0,0.785-0.278,1.776,0.093,2.29
			c0.274,0.381,1.401,0.145,2.147,0.185c0.521-0.068,1.41-0.016,1.481-0.233c0.173-0.516,0.06-1.204-0.161-1.729
			c-0.07-0.169-0.844-0.038-1.296-0.046c-0.241-0.501-0.482-1.003-0.724-1.501c0.362,0.087,0.724,0.174,1.087,0.262
			c1.385,1.121,1.371-0.731,2.106-0.993c0.972,0.076,1.943,0.151,3.246,0.254c-0.233,0.758-0.525,1.404-0.62,2.076
			c-0.087,0.622-0.178,1.425,0.133,1.858c0.216,0.304,1.403,0.368,1.637,0.095c0.353-0.413,0.355-1.218,0.324-1.849
			c-0.036-0.743-0.27-1.477-0.418-2.212c1.271-0.094,2.208-0.162,3.139-0.229c0.387,0.613,0.773,1.226,1.16,1.839
			c0.194-0.163,0.39-0.327,0.588-0.491c-0.048-0.233-0.101-0.467-0.09-0.423c0.509-0.061,1.021-0.125,1.532-0.187
			c-0.052,0.442-0.104,0.882-0.153,1.324c-0.125-0.12-0.251-0.241-0.372-0.361c-0.617,0.302-1.431,0.466-1.78,0.958
			c-0.233,0.326,0.129,1.603,0.341,1.632c1.073,0.15,2.269,0.258,3.236-0.107c0.352-0.133,0.187-1.623,0.258-2.492
			c-0.185-0.151-0.367-0.302-0.554-0.455c1.421-0.46,2.843-0.918,4.266-1.383c0.145,0.153,0.291,0.303,0.434,0.453
			c-0.182,0.665-0.425,1.323-0.522,2.003c-0.089,0.622-0.24,1.414,0.052,1.853c0.206,0.314,1.488,0.397,1.624,0.178
			c0.323-0.529,0.338-1.301,0.323-1.975c-0.01-0.735-0.188-1.47-0.365-2.703c1.909,0.662,3.293,1.138,4.877,1.686
			c-0.42,0.578-0.742,0.822-0.722,1.028c0.073,0.717,0.267,1.421,0.415,2.132c0.94-0.258,1.892-0.488,2.804-0.829
			c0.055-0.021-0.066-1.047-0.362-1.358c-0.658-0.693-1.479-1.229-2.236-1.829c0.195-0.209,0.394-0.418,0.585-0.627
			c0.241,0.527,0.478,1.061,0.669,1.483c0.927-0.578,1.536-0.958,2.153-1.341c0.961,0.076,1.93,0.157,3.212,0.26
			c-0.199,0.71-0.467,1.358-0.544,2.029c-0.073,0.66-0.089,1.407,0.164,1.985c0.096,0.223,1.365,0.289,1.483,0.082
			c0.311-0.556,0.384-1.302,0.369-1.971c-0.014-0.731-0.223-1.461-0.341-2.128c1.25-0.113,2.167-0.198,3.083-0.282
			c0.39,0.422,0.714,0.949,1.185,1.233c0.505,0.307,1.268,0.686,1.323-0.491c0.313,0.505,0.623,1.014,0.934,1.523
			c-0.275-0.089-0.596-0.308-0.818-0.238c-0.631,0.195-1.474,0.362-1.744,0.825c-0.193,0.328,0.406,1.118,0.653,1.704
			c0.606-0.291,1.24-0.537,1.801-0.9c0.182-0.115,0.16-0.538,0.233-0.817c0.439,0.484,0.847,1.358,1.313,1.392
			c2.212,0.148,4.439,0.064,6.713,0.064c-0.066-1.394-0.122-2.521-0.175-3.65c0.066-0.004,0.135-0.007,0.202-0.011
			c0.088,0.62,0.171,1.237,0.255,1.856c0.139,0.004,0.271,0.008,0.407,0.011c0.575-3.323,1.149-6.645,1.742-10.074
			c1.905,0,3.619,0.033,5.329-0.009c3.047-0.074,4.703-1.656,4.31-4.711c-0.391-3.074-1.182-6.122-2.083-9.096
			c-0.326-1.069-1.328-2.132-2.3-2.771c-1.9-1.245-4.229,0.019-4.446,2.256c-0.016,0.165,0.373,0.369,0.571,0.557
			c-1.872,1.93-4.117,1.885-6.544,1.402c-0.603-0.12-1.717,0.284-1.947,0.761c-0.477,0.989,0.265,1.716,1.278,1.812
			c1.913,0.178,3.839,0.22,5.759,0.317c0.163,1.149,0.327,2.303,0.487,3.45c1.324-1.852,1.233-2.987,0.193-3.799
			c0.469-0.233,0.94-0.469,1.409-0.702c0.06,0.673,0.089,1.351,0.185,2.019c0.195,1.359,0.425,2.711,0.647,4.097
			c-3.104,0.589-7.196-1.372-7.523,3.828c-0.362-1.221-0.729-2.441-1.136-3.811c0.847,0,1.492,0.014,2.139,0
			c0.681-0.021,1.362-0.062,2.069-0.096c0.038-0.625,0.078-1.033,0.087-1.44c0.035-2.477,0.035-2.485-2.467-2.485
			c-6.147-0.002-12.296,0.005-18.444,0.009c-0.62,0-1.24,0-2.296,0c0.391,2.147,0.718,3.948,1.042,5.751
			c-0.312,0.867-0.624,1.734-0.982,2.731c0-3.104-0.033-6.14,0.018-9.176c0.018-1.034-0.282-1.516-1.389-1.496
			c-3.234,0.064-6.474,0.064-9.713,0.089c0.545-0.122,1.088-0.343,1.637-0.352c2.483-0.037,4.975,0.065,7.458-0.042
			c1.429-0.062,2.418,0.202,2.47,1.919c0.882-0.183,1.627-0.334,2.369-0.487c-0.142,0.174-0.286,0.349-0.831,1.018
			c1.559-0.344,2.689-0.478,3.694-0.901c0.216-0.092-0.011-1.232-0.035-1.893c0.513-0.436,1.021-0.871,1.533-1.307
			c0.205,0.711,0.307,1.47,0.638,2.118c0.32,0.627,0.87,1.62,1.319,1.616c1.805-0.002,3.672-0.115,5.399-0.594
			c2.153-0.594,2.467-2.479,0.896-4.105c-2.639-2.73-9.832-4.051-13.258-2.403c-0.387,0.185-0.683,0.554-1.021,0.836
			c-1.728-0.439-3.435-1.083-5.188-1.278c-3.046-0.336-6.074-0.122-8.795,1.574c-0.753-0.516-1.472-1.414-2.26-1.48
			c-2.401-0.193-4.836-0.191-7.24,0.004c-0.787,0.062-1.508,0.954-2.261,1.468c-0.223-0.059-0.467-0.082-0.668-0.185
			c-4.403-2.232-8.813-2.121-13.23-0.031c-0.962-0.462-1.888-1.172-2.898-1.327c-1.505-0.229-3.076,0.016-4.61-0.085
			c-2.785-0.185-4.902,1.215-6.829,2.895c-1.678,1.459-1.275,3.528,0.84,4.108c1.738,0.476,3.606,0.594,5.418,0.604
			c0.451,0,1.005-0.989,1.325-1.623c0.328-0.643,0.42-1.407,0.613-2.116c0.529,0.434,1.056,0.869,1.585,1.305
			c-0.038,0.656-0.285,1.801-0.08,1.888c0.998,0.425,2.118,0.571,3.57,0.898c-0.428-0.645-0.548-0.827-0.668-1.01
			c0.771,0.149,1.539,0.3,2.261,0.438c0.243-0.627,0.425-1.079,0.605-1.536c-0.018,3.094,0,6.187-0.076,9.276
			c-0.015,0.497-0.429,0.982-0.658,1.474c0.358-0.951,1.052-1.95-0.397-2.626c1.516-1.849,0.463-3.905,0.791-5.806
			c-7.786,0-15.258,0-22.744,0c0,1.318,0,2.475,0,3.879c1.422,0,2.731,0,4.219,0c-0.46,1.445-0.829,2.603-1.314,4.14
			c-0.218-0.747-0.393-1.078-0.396-1.412c-0.035-1.9-1.122-2.583-2.86-2.574c-1.285,0.011-2.567,0-4.281,0
			c0.481-2.281,0.889-4.208,1.296-6.138c0.146,0.362,0.384,0.718,0.411,1.087c0.08,1.061,0.071,2.128,0.098,3.192
			c0.258,0.011,0.514,0.02,0.77,0.031c0.258-1.103,0.513-2.205,0.751-3.224c1.705-0.133,3.461-0.222,5.199-0.429
			c0.996-0.118,1.975-0.558,1.668-1.805c-0.292-1.188-1.208-1.149-2.274-0.874c-2.264,0.591-4.459,0.531-6.211-1.362
			c0.047-0.558,0.349-1.345,0.087-1.627c-0.625-0.689-1.459-1.487-2.303-1.616c-1.601-0.243-2.821,0.746-3.573,2.136
			c-1.798,3.337-2.585,6.967-2.596,10.719c-0.007,2.721,1.505,4.082,4.219,4.138c1.814,0.042,3.63,0.011,5.399,0.011
			c0.798,4.1,1.554,7.965,2.314,11.864c1.827,0,3.248-0.09,4.646,0.023c1.683,0.137,3.107-0.035,3.783-1.855
			c0.052,0.505-0.068,1.195,0.212,1.467c0.384,0.371,1.293,0.742,1.582,0.54c0.442-0.307,0.805-1.14,0.717-1.672
			c-0.062-0.384-0.877-0.798-1.412-0.902c-0.326-0.066-0.765,0.434-1.149,0.676c0.305-0.611,0.614-1.223,0.921-1.836
			c0.387,0.198,0.913,0.658,1.133,0.542C91.785,133.212,92.179,132.662,92.628,132.223z M76.935,125.465
			c-3.011,0-5.842-0.049-8.667,0.021c-1.457,0.034-2.07-0.575-2.004-1.984c0.071-1.592,0.085-3.188,0.228-4.773
			c0.133-1.498,0.404-2.982,0.62-4.519c-1.217,0-2.179,0-3.284,0c0,4.353-0.032,8.55,0.056,12.742
			c0.007,0.354,0.759,0.951,1.201,0.989c1.442,0.129,2.902,0.049,4.365,0.049c0.122,1.176,0.216,2.1,0.32,3.149
			c-2.668,0.229-5.008,0.916-6.04,3.574c-0.192,0.491-0.119,1.379,0.209,1.696c0.32,0.313,1.299,0.365,1.659,0.1
			c0.357-0.267,0.397-1.082,0.399-1.658c0-0.342-0.342-0.685-0.722-1.389c1.568-0.491,2.951-0.927,4.336-1.36
			c0.146,0.142,0.294,0.282,0.44,0.424c-0.216,0.721-0.54,1.432-0.615,2.168c-0.064,0.613,0.002,1.373,0.329,1.841
			c0.182,0.258,1.317,0.262,1.507,0c0.336-0.456,0.383-1.21,0.354-1.828c-0.038-0.76-0.275-1.509-0.536-2.81
			c1.94,0.649,3.361,1.127,4.929,1.652c-0.474,0.729-0.867,1.062-0.88,1.411c-0.022,0.526,0.051,1.263,0.391,1.538
			c0.336,0.276,1.198,0.307,1.549,0.052c0.365-0.261,0.686-1.127,0.512-1.494c-0.702-1.538-1.502-3.079-3.441-3.428
			c-0.86-0.155-1.711-0.364-2.638-0.564c0.062-1.019,0.115-1.945,0.182-3.081c1.781,0,3.47,0,5.242,0
			C76.935,126.972,76.935,126.169,76.935,125.465z M172.806,131.906c-0.305,1.33-0.573,2.072-0.616,2.828
			c-0.031,0.615,0.043,1.371,0.39,1.822c0.199,0.258,1.331,0.229,1.514-0.035c0.324-0.467,0.364-1.228,0.302-1.839
			c-0.08-0.76-0.387-1.496-0.593-2.24c0.175-0.125,0.349-0.247,0.521-0.371c1.37,0.48,2.743,0.963,4.224,1.48
			c-0.434,0.777-0.852,1.187-0.84,1.583c0.018,0.514,0.251,1.178,0.627,1.478c0.3,0.235,1.125,0.211,1.411-0.046
			c0.362-0.32,0.718-1.149,0.543-1.485c-0.825-1.601-1.708-3.228-3.791-3.53c-0.804-0.115-1.591-0.32-2.493-0.507
			c0.153-1.071,0.289-2.032,0.449-3.152c1.9,0,3.641,0,5.552,0c0-4.439,0.016-8.689-0.037-12.936
			c-0.007-0.302-0.505-0.793-0.836-0.853c-0.725-0.13-1.491-0.04-2.474-0.04c0.153,1.022,0.304,1.818,0.38,2.62
			c0.209,2.112,0.509,4.227,0.54,6.345c0.028,2.282-0.198,2.419-2.425,2.447c-2.699,0.031-5.4,0.007-8.25,0.007
			c0,0.631,0,1.474,0,2.536c1.785,0,3.468,0,5.241,0c0.059,1.139,0.105,2.063,0.158,3.062c-2.341,0.544-4.921,0.62-5.729,3.419
			c-0.178,0.624-0.14,1.425,0.116,2.002c0.098,0.216,1.527,0.2,1.611-0.007c0.24-0.6,0.129-1.349,0.094-2.038
			c-0.009-0.191-0.24-0.373-0.627-0.934C169.389,133.002,170.825,132.54,172.806,131.906z M151.578,103.307
			c0.007-2.161-1.907-4.096-4.048-4.096c-2.163,0-4.062,1.898-4.068,4.07c-0.011,2.201,1.818,4.037,4.04,4.062
			C149.688,107.365,151.574,105.494,151.578,103.307z M134.989,99.229c-2.208,0.047-4.013,1.911-3.981,4.119
			c0.028,2.216,1.889,4.03,4.094,3.994c2.196-0.037,4.048-1.932,4.013-4.102C139.081,101.079,137.129,99.187,134.989,99.229z
			 M122.007,99.218c-2.152-0.053-4.074,1.797-4.142,3.984c-0.066,2.189,1.733,4.069,3.961,4.137
			c2.181,0.068,4.093-1.754,4.155-3.953C126.041,101.248,124.154,99.27,122.007,99.218z M96.278,107.341
			c2.185,0.035,4.086-1.825,4.102-4.011c0.018-2.162-1.883-4.104-4.032-4.116c-2.17-0.011-4.048,1.848-4.082,4.044
			C92.228,105.449,94.056,107.306,96.278,107.341z M112.839,103.235c-0.031-2.186-1.989-4.068-4.163-4.002
			c-2.194,0.065-4.034,2.028-3.953,4.213c0.083,2.136,1.93,3.905,4.075,3.896C111.008,107.336,112.873,105.438,112.839,103.235z
			 M78.422,100.238c-2.119,0.038-3.807,1.763-3.797,3.882c0.015,2.071,1.815,3.877,3.856,3.872c2.174-0.004,3.899-1.806,3.85-4.02
			C82.278,101.844,80.564,100.2,78.422,100.238z M169.169,104.004c-0.034-2.132-1.748-3.797-3.88-3.772
			c-2.155,0.025-3.776,1.684-3.776,3.861c0,2.198,1.814,3.986,3.953,3.896C167.57,107.901,169.204,106.141,169.169,104.004z"/>
		<path fill-rule="evenodd" clip-rule="evenodd" fill="#FFFFFF" stroke="#D1D3D4" stroke-width="0.421" stroke-miterlimit="10" d="
			M76.926,114.183c-0.405,1.928-0.813,3.857-1.294,6.141c1.714,0,2.996,0.006,4.281-0.001c1.736-0.011,2.825,0.674,2.86,2.574
			c0.003,0.332,0.178,0.667,0.392,1.412c0.489-1.536,0.856-2.696,1.318-4.139c-1.491,0-2.801,0-4.219,0c0-1.403,0-2.562,0-3.884
			c7.486,0,14.958,0,22.74,0c0.021,1.86,0.638,4.025-0.787,5.809c-1.174,0.615-2.35,1.229-3.525,1.845
			c-1.38,1.071-2.759,2.143-4.139,3.215c-0.752,0.892-1.508,1.784-2.259,2.678c-0.705,1.012-1.405,2.021-2.109,3.032
			c-0.387,0.519-0.683,1.194-0.923,1.839l0.053-0.109c-0.676,1.819-2.103,1.994-3.783,1.856c-1.4-0.117-2.82-0.026-4.647-0.026
			c-0.759-3.897-1.515-7.765-2.316-11.864c-1.766,0-3.582,0.031-5.397-0.007c-2.715-0.056-4.226-1.422-4.217-4.139
			c0.011-3.755,0.794-7.385,2.599-10.722c0.749-1.387,1.969-2.378,3.57-2.134c0.844,0.127,1.676,0.929,2.305,1.616
			c0.256,0.28-0.044,1.067-0.091,1.629c-0.147-0.185-0.276-0.384-0.444-0.544c-0.703-0.678-1.281-2.07-2.494-0.885
			c-1.03,1.012-0.603,2.178,0.328,3.076C75.398,113.098,76.189,113.611,76.926,114.183z"/>
		<path fill-rule="evenodd" clip-rule="evenodd" fill="#FFFFFF" stroke="#D1D3D4" stroke-width="0.421" stroke-miterlimit="10" d="
			M154.775,134.369c-0.308-0.506-0.62-1.014-0.93-1.522c-0.689-1.061-1.38-2.122-2.073-3.183c-0.748-0.841-1.501-1.681-2.252-2.52
			c-1.392-1.07-2.781-2.14-4.175-3.207c-1.221-0.691-2.443-1.381-3.668-2.069c-0.327-1.799-0.651-3.6-1.038-5.749
			c1.054,0,1.672,0,2.292,0c6.148-0.004,12.297-0.009,18.445-0.007c2.501,0,2.504,0.007,2.466,2.483
			c-0.007,0.407-0.049,0.815-0.085,1.438c-0.709,0.037-1.392,0.079-2.071,0.096c-0.645,0.018-1.29,0.006-2.135,0.006
			c0.407,1.365,0.773,2.586,1.136,3.807c0.323-5.2,4.422-3.237,7.521-3.826c-0.224-1.387-0.451-2.739-0.648-4.097
			c-0.096-0.67-0.123-1.346-0.181-2.019c0.832-0.801,1.71-1.561,2.49-2.412c0.687-0.761,0.782-1.773-0.163-2.256
			c-0.54-0.274-1.48,0.046-2.156,0.309c-0.361,0.14-0.547,0.731-0.812,1.116c-0.196-0.187-0.585-0.39-0.567-0.557
			c0.218-2.237,2.547-3.5,4.445-2.254c0.975,0.637,1.975,1.699,2.302,2.769c0.9,2.976,1.688,6.023,2.083,9.098
			c0.391,3.053-1.264,4.636-4.309,4.711c-1.714,0.042-3.428,0.007-5.335,0.007c-0.59,3.428-1.167,6.751-1.74,10.074
			c-0.132-0.003-0.268-0.007-0.403-0.011c-0.086-0.618-0.171-1.236-0.258-1.856c-0.066,0.006-0.133,0.007-0.202,0.011
			c0.056,1.129,0.107,2.257,0.174,3.654c-2.271,0-4.499,0.082-6.713-0.068c-0.463-0.029-0.874-0.907-1.31-1.394
			C154.862,134.752,154.817,134.561,154.775,134.369z"/>
		<path fill-rule="evenodd" clip-rule="evenodd" fill="#FFFFFF" stroke="#D1D3D4" stroke-width="0.421" stroke-miterlimit="10" d="
			M141.657,121.888c1.683,0.947,2.901,1.637,3.668,2.065c-0.367,1.007-0.735,2.016-1.101,3.022
			c-0.122,1.738-0.248,3.479-0.369,5.222c0,0-1.198,0.716-2.122,1.294c-0.191-0.425-0.432-0.956-0.669-1.489
			c-0.194,0.211-0.388,0.42-0.585,0.629c0.756,0.599,1.578,1.137,2.236,1.828c0.296,0.313,0.415,1.342,0.359,1.362
			c-0.909,0.338-1.86,0.571-2.801,0.825c-0.146-0.707-0.342-1.414-0.415-2.128c-0.021-0.207,0.302-0.451,0.722-1.027
			c-1.585-0.551-2.969-1.029-4.879-1.688c0.18,1.233,0.357,1.967,0.371,2.705c0.009,0.673-0.006,1.442-0.329,1.974
			c-0.135,0.222-1.416,0.136-1.622-0.18c-0.292-0.438-0.143-1.229-0.052-1.853c0.096-0.68,0.345-1.335,0.522-2.003
			c-0.143-0.15-0.289-0.3-0.436-0.45c-1.42,0.464-2.839,0.924-4.264,1.384c0.185,0.149,0.369,0.303,0.554,0.452
			c-0.073,0.871,0.093,2.362-0.258,2.493c-0.969,0.365-2.163,0.259-3.236,0.107c-0.214-0.029-0.574-1.305-0.345-1.632
			c0.352-0.493,1.165-0.655,1.78-0.958c0.127,0.118,0.249,0.24,0.373,0.36c0.052-0.44,0.104-0.883,0.156-1.322
			c0.833-0.412,1.665-0.825,2.498-1.234c0.947-0.238,1.896-0.479,2.915-0.736c-0.136-1.166-0.265-2.211-0.405-3.39
			c-1.754,0-3.403,0-5.05,0c0.011-0.92,0.024-1.836,0.04-2.756c0.225-0.519,0.633-1.031,0.648-1.554
			c0.089-3.074,0.103-6.465,0.109-9.224c0-0.117,0.347,0.075,0.465,0.073c3.371-0.026,5.928-0.047,9.163-0.111
			c1.108-0.021,1.404,0.459,1.391,1.496c-0.049,3.035-0.018,6.073-0.018,9.175C141.03,123.626,141.346,122.755,141.657,121.888z
			 M138.884,131.537c0-1.309,0-2.413,0-3.607c0.715-0.054,1.338-0.098,1.962-0.145c-0.004-0.051-0.007-0.104-0.011-0.157
			c-1.48,0-2.965,0-4.584,0c-0.08,1.2-0.15,2.293-0.22,3.403C137.018,131.206,137.823,131.349,138.884,131.537z"/>
		<path fill-rule="evenodd" clip-rule="evenodd" fill="#FFFFFF" stroke="#D1D3D4" stroke-width="0.421" stroke-miterlimit="10" d="
			M115.093,132.881c0.24,0.499,0.48,0.997,0.725,1.498c-0.008,0.669-0.015,1.34-0.021,2.01c-0.749-0.038-1.876,0.199-2.152-0.185
			c-0.371-0.515-0.093-1.503-0.093-2.288c0.193-0.155,0.387-0.311,0.58-0.464c-1.407-0.489-2.814-0.979-4.79-1.663
			c0.262,1.318,0.493,2.05,0.526,2.792c0.028,0.631,0.021,1.432-0.334,1.847c-0.241,0.275-1.439,0.216-1.631-0.073
			c-0.301-0.456-0.202-1.247-0.118-1.876c0.094-0.678,0.373-1.329,0.566-1.991c-0.145-0.156-0.286-0.313-0.431-0.47
			c-1.427,0.442-2.853,0.885-4.426,1.374c0.444,0.841,0.911,1.316,0.866,1.736c-0.06,0.549-0.467,1.43-0.833,1.489
			c-0.638,0.103-1.432-0.204-2.003-0.578c-0.174-0.116,0.069-1.054,0.285-1.541c0.307-0.697,0.772-1.324,1.167-1.982
			c0.708-0.293,1.416-0.587,2.124-0.88c0.949-0.229,1.899-0.458,2.95-0.712c-0.131-1.193-0.249-2.27-0.375-3.409
			c-1.877,0-3.524,0-5.173,0c0.039-0.932,0.073-1.863,0.111-2.795c0.23-0.491,0.646-0.976,0.659-1.474
			c0.074-3.09,0.059-6.183,0.074-9.274l-0.05,0.078c3.699,0,11.042-0.066,11.042-0.066c0.014,3.107,0,6.211,0.078,9.315
			c0.013,0.477,0.462,0.938,0.706,1.407c0.839,0.954,0.669,1.895-0.053,2.826c-1.63,0-3.264,0-5.015,0
			c-0.123,1.209-0.231,2.291-0.356,3.507c1.129,0.158,2.097,0.292,3.065,0.425C113.542,131.936,114.315,132.407,115.093,132.881z"/>
		<path fill-rule="evenodd" clip-rule="evenodd" fill="#FFFFFF" stroke="#D1D3D4" stroke-width="0.421" stroke-miterlimit="10" d="
			M77.008,125.378c0,0.705,0,1.509,0,2.522c-1.772,0-3.462,0-5.246,0c-0.062,1.132-0.118,2.059-0.178,3.077
			c0.927,0.202,1.776,0.409,2.636,0.566c1.941,0.348,2.739,1.888,3.443,3.428c0.171,0.369-0.146,1.232-0.513,1.496
			c-0.35,0.252-1.212,0.221-1.55-0.055c-0.338-0.274-0.413-1.014-0.39-1.537c0.014-0.351,0.403-0.684,0.881-1.413
			c-1.567-0.522-2.988-1.001-4.933-1.652c0.263,1.304,0.502,2.053,0.54,2.809c0.028,0.62-0.018,1.373-0.352,1.831
			c-0.19,0.26-1.327,0.256-1.509,0c-0.331-0.469-0.394-1.228-0.331-1.841c0.077-0.735,0.399-1.446,0.617-2.167
			c-0.146-0.143-0.296-0.282-0.442-0.425c-1.383,0.436-2.767,0.871-4.337,1.362c0.383,0.7,0.725,1.045,0.725,1.386
			c-0.004,0.575-0.042,1.39-0.401,1.656c-0.358,0.271-1.339,0.215-1.657-0.097c-0.328-0.319-0.401-1.204-0.209-1.695
			c1.03-2.658,3.371-3.348,6.04-3.577c-0.106-1.049-0.2-1.97-0.32-3.149c-1.467,0-2.925,0.08-4.365-0.049
			c-0.445-0.038-1.194-0.634-1.205-0.985c-0.084-4.194-0.053-8.392-0.053-12.744c1.108,0,2.066,0,3.282,0
			c-0.213,1.532-0.484,3.019-0.62,4.516c-0.142,1.587-0.153,3.186-0.227,4.778c-0.066,1.407,0.547,2.017,2.006,1.979
			C71.166,125.329,73.995,125.378,77.008,125.378z"/>
		<path fill-rule="evenodd" clip-rule="evenodd" fill="#FFFFFF" stroke="#D1D3D4" stroke-width="0.421" stroke-miterlimit="10" d="
			M172.879,131.82c-1.981,0.635-3.417,1.096-5.037,1.615c0.387,0.561,0.617,0.741,0.627,0.937c0.037,0.687,0.146,1.438-0.094,2.034
			c-0.084,0.208-1.516,0.227-1.613,0.007c-0.258-0.574-0.292-1.376-0.114-1.999c0.81-2.801,3.386-2.874,5.727-3.417
			c-0.053-1-0.1-1.925-0.158-3.063c-1.775,0-3.454,0-5.237,0c0-1.064,0-1.906,0-2.538c2.846,0,5.549,0.022,8.248-0.007
			c2.227-0.024,2.453-0.164,2.421-2.445c-0.027-2.118-0.33-4.232-0.536-6.347c-0.08-0.802-0.229-1.596-0.38-2.618
			c0.98,0,1.745-0.089,2.474,0.04c0.331,0.06,0.829,0.549,0.832,0.85c0.055,4.25,0.039,8.5,0.039,12.938c-1.909,0-3.651,0-5.55,0
			c-0.16,1.122-0.296,2.08-0.452,3.152c0.905,0.187,1.692,0.395,2.494,0.506c2.086,0.303,2.968,1.933,3.793,3.53
			c0.174,0.336-0.183,1.165-0.543,1.487c-0.286,0.253-1.111,0.277-1.411,0.044c-0.38-0.3-0.613-0.962-0.629-1.478
			c-0.012-0.396,0.406-0.808,0.842-1.585c-1.48-0.516-2.854-0.996-4.223-1.479c-0.176,0.124-0.35,0.249-0.525,0.371
			c0.209,0.745,0.516,1.482,0.592,2.239c0.066,0.613,0.024,1.373-0.3,1.84c-0.185,0.267-1.314,0.292-1.512,0.035
			c-0.348-0.446-0.421-1.204-0.39-1.822C172.303,133.895,172.574,133.153,172.879,131.82z"/>
		<path fill-rule="evenodd" clip-rule="evenodd" fill="#FFFFFF" stroke="#D1D3D4" stroke-width="0.421" stroke-miterlimit="10" d="
			M143.524,115.074c-0.746,0.153-1.487,0.307-2.371,0.487c-0.05-1.716-1.039-1.979-2.473-1.916c-2.479,0.106-4.97,0.004-7.456,0.04
			c-0.349,0.006-1.14-0.019-1.551,0.302l0,0c-0.22,0.479-0.442,0.958-0.71,1.541c-0.715-0.145-1.436-0.287-2.149-0.434
			c-0.49-0.731-0.976-1.463-1.467-2.194c0.843-1.049,1.686-2.097,2.529-3.146c2.72-1.694,5.747-1.909,8.795-1.573
			c1.756,0.193,3.459,0.838,5.188,1.28c1.038,1.167,2.076,2.331,3.117,3.498C144.491,113.663,144.009,114.37,143.524,115.074z"/>
		<path fill-rule="evenodd" clip-rule="evenodd" fill="#FFFFFF" stroke="#D1D3D4" stroke-width="0.421" stroke-miterlimit="10" d="
			M102.22,109.532c4.415-2.091,8.819-2.202,13.228,0.033c0.202,0.101,0.446,0.123,0.669,0.183c0.854,1.069,1.709,2.139,2.564,3.208
			c-0.704,0.822-1.407,1.641-2.111,2.461c-0.566,0-1.134,0-1.667,0c-0.322-0.409-0.214-1.057-0.396-1.516
			c0,0-0.943-0.203-1.361-0.209c-2.871-0.032-5.736-0.032-8.604-0.005c-0.413,0.005-1.193,0.436-1.193,0.436
			c-0.179,0.456-0.358,0.76-0.604,1.383c-0.717-0.138-1.49-0.289-2.264-0.438c-0.478-0.719-0.955-1.437-1.436-2.156
			C100.104,111.786,101.162,110.657,102.22,109.532z"/>
		<path fill-rule="evenodd" clip-rule="evenodd" fill="#FFFFFF" stroke="#D1D3D4" stroke-width="0.421" stroke-miterlimit="10" d="
			M128.916,124.765c-0.016,0.92-0.029,1.836-0.04,2.756c0.807,0.176,1.611,0.354,2.54,0.554c0,1.172,0,2.374,0,3.572
			c-0.833,0.409-1.665,0.822-2.498,1.234c-0.514,0.062-1.025,0.122-1.532,0.186c-0.009-0.046,0.04,0.188,0.089,0.421
			c-0.197,0.164-0.393,0.327-0.587,0.491c-0.387-0.613-0.773-1.225-1.16-1.839l0.027,0.052c-0.247-2.189-0.501-4.375-0.752-6.562
			c-0.279-1.427-1.101-2.383-2.581-2.414c-1.655-0.035-2.992,0.558-3.338,2.438c-0.083,0.453-0.303,0.881-0.459,1.322
			c-0.122,1.741-0.244,3.481-0.366,5.222l0.024-0.048c-0.731,0.26-0.718,2.115-2.104,0.989c0.34-0.794,1.035-1.63,0.953-2.379
			c-0.273-2.505-0.824-4.978-1.267-7.465c-0.094-1.918,0.737-2.85,2.599-2.867c2.146-0.021,4.299,0.108,6.441-0.038
			c1.954-0.132,3.034,0.713,3.479,2.489c0.304-0.244,0.53-0.425,1.136-0.915C129.253,123.21,129.085,123.988,128.916,124.765z"/>
		<path fill-rule="evenodd" clip-rule="evenodd" fill="#FFFFFF" stroke="#D1D3D4" stroke-width="0.421" stroke-miterlimit="10" d="
			M102.22,109.532c-1.058,1.125-2.116,2.254-3.172,3.38c-0.465,0.128-0.927,0.253-1.387,0.38c-0.527-0.434-1.056-0.869-1.581-1.306
			c-0.195,0.712-0.293,1.473-0.62,2.119c-0.317,0.631-0.871,1.622-1.322,1.622c-1.813-0.009-3.681-0.128-5.418-0.604
			c-2.115-0.58-2.519-2.651-0.844-4.109c1.93-1.677,4.045-3.079,6.835-2.896c1.532,0.104,3.104-0.139,4.608,0.089
			C100.329,108.361,101.253,109.072,102.22,109.532z"/>
		<path fill-rule="evenodd" clip-rule="evenodd" fill="#FFFFFF" stroke="#D1D3D4" stroke-width="0.421" stroke-miterlimit="10" d="
			M144.977,112.96c-1.041-1.167-2.079-2.331-3.117-3.498c0.336-0.282,0.634-0.654,1.019-0.838
			c3.426-1.647,10.619-0.327,13.256,2.405c1.571,1.624,1.262,3.508-0.892,4.104c-1.728,0.478-3.595,0.589-5.402,0.595
			c-0.446,0.001-1-0.991-1.318-1.618c-0.333-0.645-0.433-1.406-0.636-2.114c-0.511,0.434-1.024,0.87-1.533,1.306
			C145.892,113.186,145.433,113.071,144.977,112.96z"/>
		<path fill-rule="evenodd" clip-rule="evenodd" fill="#FFFFFF" stroke="#D1D3D4" stroke-width="0.421" stroke-miterlimit="10" d="
			M151.651,103.222c-0.004,2.189-1.892,4.057-4.072,4.035c-2.227-0.022-4.055-1.859-4.045-4.063
			c0.008-2.168,1.906-4.066,4.069-4.068C149.742,99.125,151.652,101.061,151.651,103.222z"/>
		<path fill-rule="evenodd" clip-rule="evenodd" fill="#FFFFFF" stroke="#D1D3D4" stroke-width="0.421" stroke-miterlimit="10" d="
			M135.066,99.145c2.136-0.047,4.086,1.852,4.121,4.011c0.034,2.174-1.818,4.067-4.013,4.102c-2.205,0.039-4.065-1.776-4.094-3.991
			C131.05,101.055,132.851,99.193,135.066,99.145z"/>
		<path fill-rule="evenodd" clip-rule="evenodd" fill="#FFFFFF" stroke="#D1D3D4" stroke-width="0.421" stroke-miterlimit="10" d="
			M122.08,99.13c2.146,0.053,4.034,2.031,3.975,4.17c-0.064,2.2-1.977,4.021-4.157,3.954c-2.228-0.066-4.025-1.947-3.959-4.135
			C118.001,100.932,119.928,99.078,122.08,99.13z"/>
		<path fill-rule="evenodd" clip-rule="evenodd" fill="#FFFFFF" stroke="#D1D3D4" stroke-width="0.421" stroke-miterlimit="10" d="
			M96.354,107.257c-2.225-0.038-4.05-1.895-4.019-4.082c0.037-2.198,1.916-4.059,4.09-4.048c2.143,0.012,4.042,1.952,4.026,4.117
			C100.438,105.432,98.534,107.29,96.354,107.257z"/>
		<path fill-rule="evenodd" clip-rule="evenodd" fill="#FFFFFF" stroke="#D1D3D4" stroke-width="0.421" stroke-miterlimit="10" d="
			M112.913,103.15c0.033,2.203-1.834,4.102-4.046,4.108c-2.141,0.005-3.99-1.765-4.073-3.897c-0.084-2.183,1.761-4.147,3.955-4.214
			C110.921,99.083,112.881,100.966,112.913,103.15z"/>
		<path fill-rule="evenodd" clip-rule="evenodd" fill="#FFFFFF" stroke="#D1D3D4" stroke-width="0.421" stroke-miterlimit="10" d="
			M78.499,100.151c2.139-0.037,3.856,1.605,3.901,3.737c0.052,2.21-1.669,4.013-3.842,4.019c-2.045,0.005-3.85-1.803-3.86-3.872
			C74.687,101.917,76.374,100.189,78.499,100.151z"/>
		<path fill-rule="evenodd" clip-rule="evenodd" fill="#FFFFFF" stroke="#D1D3D4" stroke-width="0.421" stroke-miterlimit="10" d="
			M169.239,103.918c0.038,2.138-1.6,3.9-3.701,3.987c-2.138,0.087-3.95-1.7-3.95-3.898c-0.002-2.179,1.617-3.835,3.771-3.859
			C167.49,100.121,169.204,101.786,169.239,103.918z"/>
		<path fill-rule="evenodd" clip-rule="evenodd" fill="#FFFFFF" stroke="#D1D3D4" stroke-width="0.421" stroke-miterlimit="10" d="
			M118.625,126.976c0.156-0.441,0.376-0.869,0.459-1.322c0.346-1.881,1.683-2.474,3.338-2.438c1.48,0.031,2.302,0.987,2.581,2.414
			c0,0.569,0,1.139,0,1.768c-0.608,0.084-1.171,0.16-1.84,0.253c-0.101,1.132-0.201,2.219-0.274,3.023
			c1.112,0.591,1.987,1.052,2.866,1.519l-0.027-0.052c-0.934,0.069-1.869,0.139-3.139,0.233c0.147,0.734,0.38,1.466,0.414,2.208
			c0.035,0.631,0.033,1.436-0.323,1.85c-0.233,0.275-1.418,0.209-1.634-0.094c-0.313-0.436-0.22-1.235-0.135-1.856
			c0.096-0.673,0.387-1.318,0.622-2.078c-1.303-0.103-2.274-0.18-3.25-0.253l-0.024,0.048c0.913-0.482,1.832-0.971,2.901-1.537
			c-0.099-0.9-0.214-1.973-0.303-2.788C119.938,127.503,119.281,127.238,118.625,126.976z"/>
		<path fill-rule="evenodd" clip-rule="evenodd" fill="#FFFFFF" stroke="#D1D3D4" stroke-width="0.421" stroke-miterlimit="10" d="
			M118.681,112.956c-0.855-1.069-1.711-2.139-2.564-3.208c0.751-0.513,1.474-1.404,2.261-1.467c2.4-0.196,4.839-0.2,7.239-0.003
			c0.787,0.063,1.51,0.959,2.261,1.477c-0.844,1.049-1.687,2.097-2.529,3.146c-0.704,0.143-1.404,0.284-2.104,0.427
			c-1.132-1.9-1.407-1.905-2.494-0.04C120.06,113.179,119.37,113.067,118.681,112.956z"/>
		<path fill-rule="evenodd" clip-rule="evenodd" fill="#FFFFFF" stroke="#D1D3D4" stroke-width="0.421" stroke-miterlimit="10" d="
			M76.926,114.183c-0.736-0.571-1.527-1.085-2.199-1.731c-0.931-0.898-1.358-2.064-0.328-3.076c1.213-1.186,1.791,0.207,2.494,0.885
			c0.168,0.16,0.297,0.359,0.444,0.544c1.754,1.893,3.947,1.948,6.213,1.361c1.066-0.278,1.979-0.316,2.274,0.873
			c0.307,1.245-0.672,1.688-1.668,1.805c-1.74,0.207-3.494,0.294-5.201,0.427c-0.236,1.021-0.494,2.123-0.749,3.226
			c-0.258-0.011-0.514-0.021-0.773-0.031c-0.024-1.064-0.016-2.133-0.094-3.194C77.312,114.899,77.07,114.545,76.926,114.183z"/>
		<path fill-rule="evenodd" clip-rule="evenodd" fill="#FFFFFF" stroke="#D1D3D4" stroke-width="0.421" stroke-miterlimit="10" d="
			M102.618,124.755c-0.035,0.934-0.071,1.863-0.108,2.797c0.826,0.167,1.651,0.336,2.599,0.531c0,1.176,0,2.381,0,3.588
			c-0.71,0.294-1.414,0.587-2.124,0.881c-0.275,0.291-0.551,0.582-0.878,0.929c-0.676-0.446-1.324-0.876-1.972-1.307
			c0,0-0.474-4.315-0.722-6.498c-0.236-0.567-0.477-1.134-0.717-1.701c1.179-0.615,2.353-1.23,3.528-1.845
			C103.672,122.808,102.98,123.807,102.618,124.755z"/>
		<path fill-rule="evenodd" clip-rule="evenodd" fill="#FFFFFF" stroke="#D1D3D4" stroke-width="0.421" stroke-miterlimit="10" d="
			M166.717,110.779c0.265-0.389,0.449-0.979,0.809-1.122c0.677-0.261,1.619-0.582,2.159-0.307c0.944,0.484,0.851,1.496,0.158,2.256
			c-0.774,0.854-1.656,1.611-2.488,2.412c-0.471,0.233-0.94,0.469-1.411,0.702c-0.227,0.116-0.453,0.235-0.679,0.348
			c-1.92-0.096-3.846-0.141-5.759-0.318c-1.017-0.094-1.757-0.824-1.278-1.808c0.233-0.478,1.345-0.882,1.947-0.765
			C162.6,112.663,164.847,112.709,166.717,110.779z"/>
		<path fill-rule="evenodd" clip-rule="evenodd" fill="#FFFFFF" stroke="#D1D3D4" stroke-width="0.421" stroke-miterlimit="10" d="
			M144.283,127.007c0.366-1.007,0.68-2.003,1.049-3.008c1.39,1.069,2.78,2.137,4.173,3.204c-0.434,1.227-0.87,2.449-1.212,3.401
			c1.316,0.702,2.192,1.166,3.069,1.631l-0.044-0.068c-0.914,0.084-1.829,0.167-3.081,0.282c0.115,0.667,0.327,1.397,0.342,2.129
			c0.012,0.669-0.06,1.414-0.371,1.97c-0.119,0.209-1.389,0.141-1.486-0.08c-0.254-0.58-0.233-1.327-0.16-1.987
			c0.073-0.671,0.345-1.318,0.544-2.027c-1.286-0.106-2.251-0.185-3.216-0.262l-0.027,0.047c0.912-0.485,1.828-0.97,2.908-1.543
			c-0.101-0.892-0.216-1.965-0.307-2.781C145.545,127.545,144.942,127.27,144.283,127.007z"/>
		<path fill-rule="evenodd" clip-rule="evenodd" fill="#FFFFFF" stroke="#D1D3D4" stroke-width="0.421" stroke-miterlimit="10" d="
			M98.713,124c0.235,0.568,0.474,1.134,0.713,1.702c0,0.567,0,1.137,0,1.752c-0.618,0.089-1.18,0.167-1.843,0.26
			c-0.103,1.132-0.204,2.221-0.277,3.019c1.122,0.592,1.994,1.054,2.871,1.519l-0.026-0.051c-0.929,0.071-1.855,0.145-3.12,0.244
			c0.131,0.702,0.359,1.434,0.371,2.167c0.013,0.67-0.083,1.416-0.405,1.973c-0.115,0.202-1.394,0.108-1.484-0.116
			c-0.236-0.587-0.185-1.329-0.111-1.994c0.075-0.682,0.311-1.345,0.478-2.024c-1.261-0.098-3.201-0.189-3.201-0.189
			c0.923-0.486,1.844-0.974,3.119-1.647c-0.367-1.026-0.796-2.211-1.221-3.398C95.954,126.145,97.33,125.071,98.713,124z"/>
		<path fill-rule="evenodd" clip-rule="evenodd" fill="#FFFFFF" stroke="#D1D3D4" stroke-width="0.421" stroke-miterlimit="10" d="
			M115.865,123.295c0.442,2.487,0.993,4.96,1.267,7.465c0.082,0.749-0.613,1.585-0.953,2.379c-0.361-0.085-0.724-0.174-1.086-0.258
			c-0.777-0.474-1.551-0.945-2.327-1.417c-0.073-1.16-0.146-2.32-0.213-3.398c0.967-0.204,1.742-0.369,2.519-0.533
			c0.722-0.932,0.892-1.872,0.053-2.826c-0.19-0.802-0.38-1.604-0.573-2.404c0.113-0.041,0.229-0.081,0.336-0.121
			C115.214,122.55,115.538,122.921,115.865,123.295z"/>
		<path fill-rule="evenodd" clip-rule="evenodd" fill="#FFFFFF" stroke="#D1D3D4" stroke-width="0.421" stroke-miterlimit="10" d="
			M97.661,113.292c0.46-0.127,0.922-0.252,1.387-0.38c0.477,0.72,0.954,1.438,1.432,2.156c0.122,0.184,0.244,0.366,0.671,1.009
			c-1.449-0.327-2.573-0.47-3.572-0.898C97.376,115.093,97.619,113.949,97.661,113.292z"/>
		<path fill-rule="evenodd" clip-rule="evenodd" fill="#FFFFFF" stroke="#D1D3D4" stroke-width="0.421" stroke-miterlimit="10" d="
			M144.977,112.96c0.456,0.111,0.915,0.226,1.376,0.341c0.021,0.658,0.251,1.798,0.035,1.89c-1.007,0.425-1.927,0.42-3.487,0.765
			c0.547-0.669,0.48-0.705,0.624-0.881C144.009,114.37,144.491,113.663,144.977,112.96z"/>
		<path fill-rule="evenodd" clip-rule="evenodd" fill="#FFFFFF" stroke="#D1D3D4" stroke-width="0.421" stroke-miterlimit="10" d="
			M154.755,134.386c0.042,0.192,0.083,0.384,0.127,0.575c-0.075,0.28-0.054,0.704-0.235,0.818c-0.562,0.362-1.198,0.609-1.803,0.899
			c-0.245-0.582-0.845-1.376-0.652-1.702c0.274-0.462,1.11-0.632,1.743-0.825C154.162,134.083,154.479,134.301,154.755,134.386z"/>
		<path fill-rule="evenodd" clip-rule="evenodd" fill="#FFFFFF" stroke="#D1D3D4" stroke-width="0.421" stroke-miterlimit="10" d="
			M89.315,134.594l-0.053,0.109c0.387-0.247,0.822-0.742,1.149-0.678c0.536,0.106,1.352,0.516,1.414,0.904
			c0.088,0.529-0.274,1.363-0.719,1.672c-0.288,0.198-1.197-0.171-1.58-0.542C89.245,135.786,89.369,135.097,89.315,134.594z"/>
		<path fill-rule="evenodd" clip-rule="evenodd" fill="#FFFFFF" stroke="#D1D3D4" stroke-width="0.421" stroke-miterlimit="10" d="
			M151.761,129.804c0.689,1.061,1.381,2.123,2.071,3.184c-0.058,1.18-0.822,0.798-1.327,0.493c-0.471-0.285-0.795-0.815-1.183-1.236
			l0.078-0.028C151.532,131.38,151.627,130.642,151.761,129.804z"/>
		<path fill-rule="evenodd" clip-rule="evenodd" fill="#FFFFFF" stroke="#D1D3D4" stroke-width="0.421" stroke-miterlimit="10" d="
			M90.186,132.864c0.704-1.011,1.418-1.958,2.118-2.97c0.122,0.789,0.397,2.243,0.397,2.243c-0.449,0.442-0.845,0.991-1.38,1.27
			C91.095,133.525,90.572,133.062,90.186,132.864z"/>
		<path fill-rule="evenodd" clip-rule="evenodd" fill="#FFFFFF" stroke="#D1D3D4" stroke-width="0.421" stroke-miterlimit="10" d="
			M165.265,115.068c0.226-0.112,0.452-0.231,0.679-0.348c1.042,0.81,1.132,1.947-0.191,3.8
			C165.592,117.369,165.428,116.22,165.265,115.068z"/>
		<path fill-rule="evenodd" clip-rule="evenodd" fill="#FFFFFF" stroke="#D1D3D4" stroke-width="0.421" stroke-miterlimit="10" d="
			M115.796,136.389c0.007-0.67,0.014-1.341,0.021-2.01c0.45,0.007,1.226-0.122,1.295,0.047c0.22,0.523,0.335,1.215,0.161,1.729
			C117.201,136.373,116.315,136.319,115.796,136.389z"/>
		<path fill-rule="evenodd" clip-rule="evenodd" fill="#FFFFFF" stroke="#D1D3D4" stroke-width="0.421" stroke-miterlimit="10" d="
			M92.684,132.275c-0.118-0.789-0.24-1.578-0.36-2.365c0.75-0.896,1.505-1.785,2.259-2.679c0.425,1.186,0.854,2.372,1.221,3.396
			C94.526,131.3,93.606,131.789,92.684,132.275z"/>
		<path fill-rule="evenodd" clip-rule="evenodd" fill="#FFFFFF" stroke="#D1D3D4" stroke-width="0.421" stroke-miterlimit="10" d="
			M151.752,129.682c-0.131,0.838-0.265,1.674-0.398,2.51c-0.873-0.467-1.749-0.932-3.065-1.63c0.339-0.951,0.749-2.129,1.184-3.352
			C150.223,128.05,151.001,128.841,151.752,129.682z"/>
		<path fill-rule="evenodd" clip-rule="evenodd" fill="#FFFFFF" stroke="#D1D3D4" stroke-width="0.421" stroke-miterlimit="10" d="
			M115.865,123.295c-0.327-0.374-0.651-0.745-0.979-1.114c-0.107,0.04-0.223,0.08-0.336,0.121c0.193,0.8,0.383,1.603,0.573,2.404
			c-0.244-0.469-0.693-0.931-0.706-1.407c-0.078-3.104,0.006-8.511,0.208-7.997c0.532,0,1.377,0.115,1.943,0.115
			c0.843,0.134,1.679,0.371,2.522,0.385c1.93,0.03,2.337-0.641,1.657-2.515c1.087-1.865,1.362-1.86,2.494,0.04
			c-0.557,0.929-0.667,1.963,0.478,2.321c0.947,0.297,2.065,0.06,3.11,0.056c-0.005-0.203-0.01-0.405-0.017-0.609
			c0.714,0.146,1.435,0.289,2.149,0.434c0.268-0.583,0.507-0.329,0.726-0.812c-0.026,3.078-0.036,5.42-0.125,8.494
			c-0.016,0.522-0.424,1.035-0.648,1.554c0.169-0.776,0.337-1.555,0.604-2.801c-0.605,0.49-0.832,0.671-1.136,0.915
			c-0.445-1.776-1.525-2.621-3.479-2.489c-2.143,0.146-4.295,0.018-6.441,0.038C116.603,120.445,115.771,121.377,115.865,123.295z
			 M129.14,120.09c0-1.301,0-2.546,0-3.821c-4.858,0-9.609,0-14.309,0c0,1.358,0,2.571,0,3.821
			C119.639,120.09,124.31,120.09,129.14,120.09z"/>
		<path fill-rule="evenodd" clip-rule="evenodd" fill="#FFFFFF" stroke="#D1D3D4" stroke-width="0.421" stroke-miterlimit="10" d="
			M138.884,131.537c-1.061-0.188-1.866-0.331-2.853-0.506c0.069-1.11,0.14-2.203,0.22-3.403c1.619,0,3.104,0,4.584,0
			c0.004,0.053,0.007,0.106,0.011,0.157c-0.624,0.047-1.247,0.091-1.962,0.145C138.884,129.124,138.884,130.229,138.884,131.537z"/>
		<path fill-rule="evenodd" clip-rule="evenodd" fill="#FFFFFF" stroke="#D1D3D4" stroke-width="0.421" stroke-miterlimit="10" d="
			M131.416,131.646c0-1.198,0-2.4,0-3.572c-0.929-0.2-1.733-0.378-2.54-0.554c1.646,0,3.296,0,5.05,0
			c0.141,1.179,0.27,2.224,0.405,3.39C133.312,131.168,132.363,131.408,131.416,131.646z"/>
		<path fill-rule="evenodd" clip-rule="evenodd" fill="#FFFFFF" stroke="#D1D3D4" stroke-width="0.421" stroke-miterlimit="10" d="
			M144.287,126.98c0.656,0.265,1.25,0.522,2.174,0.892c0.087,0.815,0.205,1.888,0.303,2.781c-1.08,0.57-1.992,1.054-2.908,1.544
			C143.977,130.455,144.162,128.721,144.287,126.98z"/>
		<path fill-rule="evenodd" clip-rule="evenodd" fill="#FFFFFF" stroke="#D1D3D4" stroke-width="0.421" stroke-miterlimit="10" d="
			M105.101,131.636c0-1.207,0-2.412,0-3.59c-0.942-0.191,0.074-0.362-0.751-0.531c1.647,0,1.449,0,3.326,0
			c0.126,1.14,0.244,2.216,0.375,3.409C107,131.178,106.05,131.406,105.101,131.636z"/>
		<path fill-rule="evenodd" clip-rule="evenodd" fill="#FFFFFF" stroke="#D1D3D4" stroke-width="0.421" stroke-miterlimit="10" d="
			M113.375,127.532c-0.776,0.164,0.145,0.329-0.822,0.533c0.068,1.098,0.136,2.183,0.213,3.398
			c-0.969-0.133-1.937-0.267-3.065-0.425c0.125-1.216,0.233-2.298,0.356-3.507C111.808,127.532,111.745,127.532,113.375,127.532z"/>
		<path fill-rule="evenodd" clip-rule="evenodd" fill="#FFFFFF" stroke="#D1D3D4" stroke-width="0.421" stroke-miterlimit="10" d="
			M104.541,113.688c2.868-0.027,5.733-0.027,8.604,0.005c0.418,0.006-0.213,0.229,0.205,0.353
			C109.651,114.047,104.128,113.692,104.541,113.688z"/>
		<path fill-rule="evenodd" clip-rule="evenodd" fill="#FFFFFF" stroke="#D1D3D4" stroke-width="0.421" stroke-miterlimit="10" d="
			M126.814,115.095c0.007,0.204,0.012,0.406,0.017,0.609c-1.045,0.004-2.163,0.241-3.11-0.056c-1.145-0.358-1.034-1.393-0.478-2.321
			c0.7-0.143,1.4-0.284,2.104-0.427C125.839,113.632,126.324,114.363,126.814,115.095z"/>
		<path fill-rule="evenodd" clip-rule="evenodd" fill="#FFFFFF" stroke="#D1D3D4" stroke-width="0.421" stroke-miterlimit="10" d="
			M120.749,113.287c0.68,1.874,0.272,2.545-1.657,2.515c-0.844-0.014-1.68-0.251-2.522-0.385c0.704-0.82,1.407-1.639,2.111-2.461
			C119.37,113.067,120.06,113.179,120.749,113.287z"/>
		<path fill-rule="evenodd" clip-rule="evenodd" fill="#FFFFFF" stroke="#D1D3D4" stroke-width="0.421" stroke-miterlimit="10" d="
			M125.755,132.191c-0.879-0.467-1.754-0.928-2.866-1.519c0.073-0.805,0.174-1.892,0.274-3.023c0.669-0.093,1.231-0.169,1.84-0.253
			c0-0.629,0-1.198,0-1.768C125.254,127.816,125.508,130.002,125.755,132.191z"/>
		<path fill-rule="evenodd" clip-rule="evenodd" fill="#FFFFFF" stroke="#D1D3D4" stroke-width="0.421" stroke-miterlimit="10" d="
			M118.625,126.976c0.656,0.263,1.312,0.527,2.232,0.896c0.089,0.815,0.204,1.888,0.303,2.788c-1.069,0.566-1.988,1.055-2.901,1.537
			C118.381,130.457,118.503,128.717,118.625,126.976z"/>
		<path fill-rule="evenodd" clip-rule="evenodd" fill="#FFFFFF" stroke="#D1D3D4" stroke-width="0.421" stroke-miterlimit="10" d="
			M100.155,132.188c-0.874-0.464-1.749-0.929-2.867-1.52c0.07-0.796,0.171-1.884,0.275-3.017c0.658-0.094,1.223-0.172,1.843-0.259
			c0-0.615,0-1.185,0-1.754C99.655,127.823,99.904,130.004,100.155,132.188z"/>
		<path fill-rule="evenodd" clip-rule="evenodd" fill="#FFFFFF" stroke="#D1D3D4" stroke-width="0.421" stroke-miterlimit="10" d="
			M129.14,120.09c-4.83,0-9.501,0-14.309,0c0-1.25,0-2.463,0-3.821c4.699,0,9.45,0,14.309,0
			C129.14,117.544,129.14,118.789,129.14,120.09z"/>
	</g>
	<path fill-rule="evenodd" clip-rule="evenodd" fill="#FFFFFF" d="M125.494,7.74l42.785,23.446l42.792,23.444
		c1.805,1.001,2.627,3.611,1.815,5.836c-0.598,1.649-1.909,2.623-3.28,2.623v0.009h-5.458v79.474v8.196h-6.652H48.977H42.33v-8.196
		V63.098h-3.882c-1.984,0-3.597-1.986-3.597-4.432c0-1.942,1.01-3.589,2.414-4.192l42.512-23.288L122.569,7.74
		c0.967-0.526,2.025-0.489,2.921,0.004L125.494,7.74L125.494,7.74z M55.628,63.098l0.146,81.25h56.986h25.633h52.466l-0.017-81.25
		h-66.811H55.628L55.628,63.098z M60.521,70.188v18.161h16.421V70.188H60.521z M80.289,70.188v18.161h16.42V70.188H80.289z
		 M107.304,70.188v18.161h16.421V70.188H107.304z M127.072,70.188v18.161h16.421V70.188H127.072z M151.783,70.188v18.161h16.419
		V70.188H151.783z M171.549,70.188v18.161h16.422V70.188H171.549z"/>
</g>
</svg>
