<?xml version="1.0" encoding="utf-8"?>
<!-- Generator: Adobe Illustrator 16.0.0, SVG Export Plug-In . SVG Version: 6.00 Build 0)  -->
<!DOCTYPE svg PUBLIC "-//W3C//DTD SVG 1.1//EN" "http://www.w3.org/Graphics/SVG/1.1/DTD/svg11.dtd">
<svg version="1.1" id="Layer_1" xmlns="http://www.w3.org/2000/svg" xmlns:xlink="http://www.w3.org/1999/xlink" x="0px" y="0px"
	 width="184.854px" height="187.369px" viewBox="0 0 184.854 187.369" enable-background="new 0 0 184.854 187.369"
	 xml:space="preserve">
<g>
	<path fill-rule="evenodd" clip-rule="evenodd" fill="#FFFFFF" d="M59.152,168.227c4.037-0.105,7.252-3.375,7.207-7.322
		c-0.047-3.896-3.391-7.156-7.383-7.188c-3.977-0.033-7.389,3.197-7.486,7.088C51.382,164.961,54.869,168.338,59.152,168.227z"/>
	<path fill-rule="evenodd" clip-rule="evenodd" fill="#FFFFFF" d="M69.839,172.525c0-2.041-1.652-3.525-3.695-3.525H51.726
		c-2.043,0-3.744,1.601-3.744,3.642c0,0.233,0.018,0.411,0.018,0.632V178h37v-5H69.775C69.812,173,69.839,172.744,69.839,172.525z"
		/>
	<path fill-rule="evenodd" clip-rule="evenodd" fill="#FFFFFF" d="M125.986,168.594c4.277,0.113,7.768-3.264,7.66-7.418
		c-0.098-3.889-3.51-7.123-7.479-7.086c-4,0.033-7.344,3.287-7.387,7.184C118.732,165.219,121.949,168.492,125.986,168.594z"/>
	<path fill-rule="evenodd" clip-rule="evenodd" fill="#FFFFFF" d="M133.41,169h-14.418c-2.037,0-3.691,1.989-3.691,4.028
		c0,0.218,0.028-0.028,0.064,0.972H100v4h37v-4.316c0-0.233,0.088-0.608,0.088-0.854C137.088,170.79,135.455,169,133.41,169z"/>
	<path fill-rule="evenodd" clip-rule="evenodd" fill="#FFFFFF" d="M84,55c0,10,0,19.525,0,29.555c4-6.924,11.374-7.936,15.798-3.613
		c3.186,3.111,3.66,10.18-0.104,13.17C98.014,95.447,91,100.424,84,91.451c0,1.857,0,4.67,0,7.584c1-0.291,2.711-0.975,3.957-0.732
		c8.34,1.602,14.2-2.594,19.956-7.688c3.34-2.959,11.241-9.098,12.678-10.201l5.854,8.293c-5.736,4.389-16.488,12.242-22.127,16.756
		c-1.123,0.898-2.398,2.427-2.484,3.714C101.529,113.62,101.71,118,101.71,123c24.852,0,49.29,0,73.29,0c0-23,0-46,0-68
		C144,55,114,55,84,55z"/>
	<path fill-rule="evenodd" clip-rule="evenodd" fill="#FFFFFF" d="M110.691,166.93c-3.086-8.545-6.252-17.176-9.297-25.854
		c-0.607-1.732-1.061-3.619-1.086-5.439c-0.123-8.521-0.168-16.914,0.031-25.551c0.043-1.721,1.076-3.936,2.416-5
		c5.947-4.713,17.41-13.521,18.201-14.506c3.479-4.336-1.332-7.494-5.947-3.934c-3.084,2.383-6.197,4.789-9.211,7.199
		c-5.102,4.098-10.084,7.014-16.77,5.838c-2.516-0.443-3.924,0.771-5.057,2.986c-3.365,6.547-7.326,13.793-10.799,20.281
		c-4.551,7.5,0.094,9.793,3.742,3.908c2.625-4.23,5.832-9.9,8.781-14.662c0.428,1.844-0.107,29.061-5.111,38.908
		c-1.957,3.83-3.008,8.113-4.525,12.16c-0.887,2.379-1.973,4.348,1.791,5.648c3.842,1.328,4.086-1.17,4.908-3.42
		c2.771-7.594,5.514-15.195,8.299-22.779c0.363-0.988,0.984-10.182,1.754-11.791c0.771,1.574,1.186,10.672,1.518,11.564
		c2.752,7.447,5.492,14.896,8.199,22.357C104.554,170.453,104.859,170.568,110.691,166.93z"/>
	<path fill-rule="evenodd" clip-rule="evenodd" fill="#FFFFFF" d="M100.402,87.477c0.027-4.242-3.4-7.713-7.6-7.693
		c-4.234,0.018-7.592,3.49-7.518,7.76c0.078,4.158,3.223,7.316,7.377,7.408C97.005,95.043,100.376,91.793,100.402,87.477z"/>
</g>
<g>
	<path fill-rule="evenodd" clip-rule="evenodd" fill="#FFFFFF" d="M3.494,22.365c0.742,6.822,3.514,13.184,10.59,16.6
		c3.477,1.676,5.486,3.262,5.072,7.701c-0.602,6.326,3.238,10.674,8.604,13.275c5.855,2.838,11.678,1.959,16.416-2.527
		c2.672-2.52,4.078-3.129,8.1-1.199c9.791,4.697,16.84,0.443,16.807-2.697C68.943,42.201,87.32,41.783,85.789,28.154
		c-0.83-7.381-6.846-12.373-14.377-10.852c-4.887,0.99-7.131,0.656-9.867-4.186c-3.955-7.002-11.115-9.781-19.086-7.033
		c-3.775,1.305-6.273,0.561-9.607-1.172C19.228-2.186,3.787,6.828,3.494,22.365z"/>
	<path fill-rule="evenodd" clip-rule="evenodd" fill="#FFFFFF" d="M51.802,60.771c-4.33,0.283-7.107,2.9-7.139,7.32
		c-0.033,4.781,3.02,7.754,7.709,7.578c4.293-0.168,6.896-3.273,6.871-7.609C59.214,63.545,56.376,61.004,51.802,60.771z"/>
	<path fill-rule="evenodd" clip-rule="evenodd" fill="#FFFFFF" d="M71.357,79.633c-0.074-4.936-2.262-6.162-5.127-6.039
		c-2.553,0.111-4.758,1.52-4.59,4.428c0.191,3.316,1.705,5.354,4.902,5.236C69.582,83.143,71.31,81.574,71.357,79.633z"/>
	<path fill-rule="evenodd" clip-rule="evenodd" fill="#FFFFFF" d="M81.089,87.336c-0.047-3.135-1.443-3.918-3.266-3.84
		c-1.621,0.072-3.023,0.967-2.918,2.818c0.121,2.105,1.086,3.402,3.117,3.328C79.957,89.57,81.058,88.572,81.089,87.336z"/>
</g>
<g>
	<path fill="#333333" d="M61.628,23.996c-0.803-0.699-1.227-1.244-1.783-1.537c-3.098-1.619-6.195-3.232-9.355-4.713
		c-0.682-0.32-1.723-0.342-2.43-0.066c-7.686,2.98-15.352,6.031-22.984,9.129c-0.607,0.25-1.385,1.016-1.385,1.549
		c-0.006,0.559,0.713,1.33,1.314,1.646c2.943,1.562,5.914,3.066,8.949,4.447c0.768,0.35,1.898,0.477,2.656,0.184
		c7.76-3.008,15.484-6.113,23.203-9.232C60.38,25.176,60.822,24.637,61.628,23.996z"/>
	<path fill="#333333" d="M23.953,35.654c-0.184,0.195-0.369,0.395-0.551,0.588c0.451,0.574,0.783,1.373,1.373,1.682
		c3.162,1.67,6.375,3.254,9.609,4.77c0.572,0.268,1.443,0.303,2.025,0.076c7.838-3.068,15.654-6.182,23.445-9.359
		c0.594-0.242,0.947-1.08,1.406-1.641c-0.186-0.178-0.371-0.352-0.557-0.525c-0.881,0.324-1.779,0.627-2.656,0.977
		c-6.857,2.734-13.732,5.43-20.562,8.244c-1.539,0.641-2.781,0.58-4.252-0.205C30.195,38.629,27.05,37.18,23.953,35.654z"/>
	<path fill="#333333" d="M24.037,30.332c-0.199,0.225-0.398,0.447-0.598,0.668c0.574,0.598,1.045,1.393,1.738,1.76
		c2.871,1.533,5.779,3.002,8.74,4.352c0.766,0.35,1.885,0.488,2.635,0.197c7.77-2.998,15.502-6.09,23.217-9.229
		c0.621-0.254,1.02-1.062,1.52-1.617c-0.184-0.199-0.365-0.404-0.551-0.607c-0.949,0.357-1.9,0.699-2.846,1.074
		c-6.852,2.734-13.717,5.432-20.537,8.254c-1.475,0.607-2.633,0.506-4.014-0.229C30.285,33.332,27.144,31.867,24.037,30.332z"/>
	<path fill="#333333" d="M61.267,29.133c-0.174-0.193-0.352-0.389-0.529-0.582c-0.721,0.268-1.439,0.518-2.148,0.801
		c-7.145,2.84-14.262,5.729-21.443,8.461c-1.02,0.385-2.479,0.309-3.486-0.129c-3.307-1.436-6.498-3.137-9.738-4.734
		c-0.189,0.207-0.377,0.418-0.566,0.625c0.514,0.588,0.914,1.387,1.564,1.73c3.014,1.6,6.068,3.111,9.158,4.557
		c0.65,0.307,1.605,0.482,2.232,0.24c7.904-3.072,15.781-6.213,23.635-9.41C60.501,30.465,60.826,29.668,61.267,29.133z"/>
	<path fill="#333333" d="M61.257,34.527c-0.195-0.217-0.379-0.438-0.572-0.656c-6.316,2.52-12.762,4.756-18.898,7.652
		c-4.484,2.113-8.395,2.424-12.531-0.537c-1.604-1.145-3.564-1.777-5.367-2.646c-0.156,0.221-0.301,0.436-0.455,0.652
		c0.42,0.439,0.768,1.029,1.275,1.301c3.164,1.66,6.336,3.295,9.555,4.824c0.633,0.305,1.59,0.363,2.242,0.111
		c7.824-3.047,15.623-6.162,23.408-9.318C60.458,35.689,60.808,35,61.257,34.527z"/>
	<path fill-rule="evenodd" clip-rule="evenodd" fill="#5E7E53" d="M61.628,23.996c-0.807,0.641-1.248,1.18-1.814,1.406
		c-7.719,3.119-15.443,6.225-23.203,9.232c-0.758,0.293-1.889,0.166-2.656-0.184c-3.035-1.381-6.006-2.885-8.949-4.447
		c-0.602-0.316-1.32-1.088-1.314-1.646c0-0.533,0.777-1.299,1.385-1.549c7.633-3.098,15.299-6.148,22.984-9.129
		c0.707-0.275,1.748-0.254,2.43,0.066c3.16,1.48,6.258,3.094,9.355,4.713C60.402,22.752,60.826,23.297,61.628,23.996z
		 M29.365,28.664c4.42,3.49,10.965,2.316,14.27-0.332c-3.15-0.59-6.568-0.65-7.938-4.342C29.808,26.234,29.808,26.234,29.365,28.664
		z M55.24,21.818c-4.934-2.895-10.758-2.709-13.938,0.443c3.029,0.521,6.271,0.662,7.623,4.189
		C54.673,24.844,54.857,24.711,55.24,21.818z"/>
	<path fill-rule="evenodd" clip-rule="evenodd" fill="#5E7E53" d="M23.953,35.654c3.098,1.525,6.242,2.975,9.281,4.605
		c1.471,0.785,2.713,0.846,4.252,0.205c6.83-2.814,13.705-5.51,20.562-8.244c0.877-0.35,1.775-0.652,2.656-0.977
		c0.186,0.174,0.371,0.348,0.557,0.525c-0.459,0.561-0.812,1.398-1.406,1.641c-7.791,3.178-15.607,6.291-23.445,9.359
		c-0.582,0.227-1.453,0.191-2.025-0.076c-3.234-1.516-6.447-3.1-9.609-4.77c-0.59-0.309-0.922-1.107-1.373-1.682
		C23.583,36.049,23.769,35.85,23.953,35.654z"/>
	<path fill-rule="evenodd" clip-rule="evenodd" fill="#5E7E53" d="M24.037,30.332c3.107,1.535,6.248,3,9.305,4.623
		c1.381,0.734,2.539,0.836,4.014,0.229c6.82-2.822,13.686-5.52,20.537-8.254c0.945-0.375,1.896-0.717,2.846-1.074
		c0.186,0.203,0.367,0.408,0.551,0.607c-0.5,0.555-0.898,1.363-1.52,1.617c-7.715,3.139-15.447,6.23-23.217,9.229
		c-0.75,0.291-1.869,0.152-2.635-0.197c-2.961-1.35-5.869-2.818-8.74-4.352c-0.693-0.367-1.164-1.162-1.738-1.76
		C23.638,30.779,23.837,30.557,24.037,30.332z"/>
	<path fill-rule="evenodd" clip-rule="evenodd" fill="#5E7E53" d="M61.267,29.133c-0.441,0.535-0.766,1.332-1.322,1.559
		c-7.854,3.197-15.73,6.338-23.635,9.41c-0.627,0.242-1.582,0.066-2.232-0.24c-3.09-1.445-6.145-2.957-9.158-4.557
		c-0.65-0.344-1.051-1.143-1.564-1.73c0.189-0.207,0.377-0.418,0.566-0.625c3.24,1.598,6.432,3.299,9.738,4.734
		c1.008,0.438,2.467,0.514,3.486,0.129c7.182-2.732,14.299-5.621,21.443-8.461c0.709-0.283,1.428-0.533,2.148-0.801
		C60.916,28.744,61.093,28.939,61.267,29.133z"/>
	<path fill-rule="evenodd" clip-rule="evenodd" fill="#5E7E53" d="M61.257,34.527c-0.449,0.473-0.799,1.162-1.344,1.383
		c-7.785,3.156-15.584,6.271-23.408,9.318c-0.652,0.252-1.609,0.193-2.242-0.111c-3.219-1.529-6.391-3.164-9.555-4.824
		c-0.508-0.271-0.855-0.861-1.275-1.301c0.154-0.217,0.299-0.432,0.455-0.652c1.803,0.869,3.764,1.502,5.367,2.646
		c4.137,2.961,8.047,2.65,12.531,0.537c6.137-2.896,12.582-5.133,18.898-7.652C60.878,34.09,61.062,34.311,61.257,34.527z"/>
	<path fill-rule="evenodd" clip-rule="evenodd" fill="#FFFFFF" d="M29.365,28.664c0.443-2.43,0.443-2.43,6.332-4.674
		c1.369,3.691,4.787,3.752,7.938,4.342C40.33,30.98,33.785,32.154,29.365,28.664z"/>
	<path fill-rule="evenodd" clip-rule="evenodd" fill="#FFFFFF" d="M55.24,21.818c-0.383,2.893-0.566,3.025-6.314,4.633
		c-1.352-3.527-4.594-3.668-7.623-4.189C44.482,19.109,50.306,18.924,55.24,21.818z"/>
</g>
</svg>
