<?xml version="1.0" encoding="utf-8"?>
<!-- Generator: Adobe Illustrator 16.0.0, SVG Export Plug-In . SVG Version: 6.00 Build 0)  -->
<!DOCTYPE svg PUBLIC "-//W3C//DTD SVG 1.1//EN" "http://www.w3.org/Graphics/SVG/1.1/DTD/svg11.dtd">
<svg version="1.1" id="Layer_1" xmlns="http://www.w3.org/2000/svg" xmlns:xlink="http://www.w3.org/1999/xlink" x="0px" y="0px"
	 width="313.827px" height="259.339px" viewBox="0 0 313.827 259.339" enable-background="new 0 0 313.827 259.339"
	 xml:space="preserve">
<g>
	<g>
		<path fill-rule="evenodd" clip-rule="evenodd" fill="#FFFFFF" d="M49.608,213.158c0.098,8.271-6.646,15.126-15.104,15.35
			c-8.965,0.231-16.278-6.843-16.058-15.556c0.205-8.148,7.363-14.924,15.688-14.852C42.5,198.173,49.513,204.997,49.608,213.158z"
			/>
		<rect x="11.353" y="239" fill-rule="evenodd" clip-rule="evenodd" fill="#FFFFFF" width="77.108" height="10.123"/>
		<path fill-rule="evenodd" clip-rule="evenodd" fill="#FFFFFF" d="M56.901,237.662c0,4.273-3.462,7.74-7.741,7.74H18.942
			c-4.276,0-7.742-3.467-7.742-7.74l0,0c0-4.277,3.466-7.742,7.742-7.742H49.16C53.438,229.92,56.901,233.385,56.901,237.662
			L56.901,237.662z"/>
		<g>
			<path fill-rule="evenodd" clip-rule="evenodd" fill="#FFFFFF" d="M87.066,196.854c0.082,6.841-5.493,12.504-12.486,12.688
				c-7.415,0.194-13.456-5.657-13.273-12.857c0.162-6.735,6.086-12.339,12.972-12.28C81.191,184.464,86.985,190.105,87.066,196.854z
				"/>
			<rect x="55.438" y="218.218" fill-rule="evenodd" clip-rule="evenodd" fill="#FFFFFF" width="63.753" height="8.37"/>
			<path fill-rule="evenodd" clip-rule="evenodd" fill="#FFFFFF" d="M93.099,217.111c0,3.535-2.867,6.401-6.4,6.401H61.718
				c-3.54,0-6.404-2.866-6.404-6.401l0,0c0-3.535,2.865-6.4,6.404-6.4h24.981C90.232,210.711,93.099,213.576,93.099,217.111
				L93.099,217.111z"/>
		</g>
		<g>
			<path fill-rule="evenodd" clip-rule="evenodd" fill="#FFFFFF" d="M118.912,182.148c0.068,5.813-4.667,10.63-10.617,10.785
				c-6.303,0.164-11.439-4.806-11.284-10.93c0.145-5.729,5.177-10.489,11.029-10.438
				C113.915,171.616,118.844,176.41,118.912,182.148z"/>
			<rect x="92.024" y="200.308" fill-rule="evenodd" clip-rule="evenodd" fill="#FFFFFF" width="54.192" height="7.116"/>
			<path fill-rule="evenodd" clip-rule="evenodd" fill="#FFFFFF" d="M124.036,199.369c0,3.003-2.438,5.438-5.442,5.438H97.361
				c-3.006,0-5.441-2.436-5.441-5.438l0,0c0-3.007,2.435-5.439,5.441-5.439h21.233C121.598,193.93,124.036,196.362,124.036,199.369
				L124.036,199.369z"/>
		</g>
		<path fill-rule="evenodd" clip-rule="evenodd" fill="#FFFFFF" d="M265.421,213.705c-0.102,8.271,6.646,15.125,15.103,15.348
			c8.968,0.232,16.275-6.842,16.061-15.554c-0.204-8.148-7.365-14.925-15.692-14.853C272.529,198.72,265.52,205.543,265.421,213.705
			z"/>
		<rect x="226.568" y="239.547" fill-rule="evenodd" clip-rule="evenodd" fill="#FFFFFF" width="77.109" height="10.121"/>
		<path fill-rule="evenodd" clip-rule="evenodd" fill="#FFFFFF" d="M258.13,238.207c0,4.277,3.463,7.74,7.737,7.74h30.218
			c4.274,0,7.741-3.463,7.741-7.74l0,0c0-4.275-3.467-7.742-7.741-7.742h-30.218C261.593,230.465,258.13,233.932,258.13,238.207
			L258.13,238.207z"/>
		<g>
			<path fill-rule="evenodd" clip-rule="evenodd" fill="#FFFFFF" d="M227.963,197.398c-0.083,6.841,5.495,12.508,12.483,12.69
				c7.415,0.192,13.46-5.657,13.277-12.859c-0.169-6.738-6.085-12.336-12.972-12.277
				C233.844,185.009,228.041,190.651,227.963,197.398z"/>
			<rect x="195.841" y="218.767" fill-rule="evenodd" clip-rule="evenodd" fill="#FFFFFF" width="63.748" height="8.365"/>
			<path fill-rule="evenodd" clip-rule="evenodd" fill="#FFFFFF" d="M221.929,217.658c0,3.535,2.868,6.399,6.4,6.399h24.985
				c3.537,0,6.398-2.864,6.398-6.399l0,0c0-3.538-2.861-6.399-6.398-6.399H228.33C224.797,211.259,221.929,214.12,221.929,217.658
				L221.929,217.658z"/>
		</g>
		<g>
			<path fill-rule="evenodd" clip-rule="evenodd" fill="#FFFFFF" d="M196.118,182.696c-0.071,5.81,4.669,10.629,10.614,10.783
				c6.304,0.162,11.436-4.808,11.288-10.931c-0.144-5.724-5.176-10.488-11.028-10.436
				C201.113,172.162,196.188,176.957,196.118,182.696z"/>
			<rect x="168.81" y="200.854" fill-rule="evenodd" clip-rule="evenodd" fill="#FFFFFF" width="54.195" height="7.116"/>
			<path fill-rule="evenodd" clip-rule="evenodd" fill="#FFFFFF" d="M190.989,199.913c0,3.004,2.438,5.44,5.446,5.44h21.232
				c3.008,0,5.439-2.437,5.439-5.44l0,0c0-3.004-2.432-5.439-5.439-5.439h-21.232C193.427,194.474,190.989,196.909,190.989,199.913
				L190.989,199.913z"/>
		</g>
		<path fill-rule="evenodd" clip-rule="evenodd" fill="#FFFFFF" d="M198.697,63.596c-2.117,1.626-13.848,10.672-18.766,15.026
			c-8.482,7.506-17.292,13.683-29.571,11.322c-1.838-0.354-3.939,0.652-6.19,1.082c0-4.293,0-8.436,0-11.173
			c10.785,13.217,20.844,5.887,23.32,3.918c5.536-4.401,5.046-14.812,0.352-19.397c-6.515-6.365-16.745-4.875-23.583,5.324
			c0-14.773,0-29.052,0-43.738c45.02,0,89.628,0,134.816,0c0,33.297,0,66.537,0,100.187c-35.845,0-71.488,0-108.101,0
			c0-7.134-0.277-13.728,0.175-20.273c0.129-1.891,1.995-4.059,3.646-5.379c8.307-6.652,24.119-18.214,32.569-24.682
			 M206.745,64.814c0.738-0.693,1.469-1.384,2.207-2.077"/>
		<path fill-rule="evenodd" clip-rule="evenodd" fill="#FFFFFF" d="M184.202,191.026c-8.576,5.357-9.036,5.188-12.023-3.068
			c-3.982-10.992-8.021-21.965-12.071-32.933c-0.487-1.312-1.101-14.71-2.235-17.032c-1.136,2.37-2.047,15.91-2.581,17.364
			c-4.102,11.175-8.144,22.372-12.228,33.553c-1.21,3.312-1.569,6.997-7.226,5.038c-5.546-1.918-3.95-4.815-2.637-8.316
			c2.235-5.967,3.782-12.274,6.658-17.915c7.375-14.507,8.161-54.587,7.531-57.306c-4.337,7.014-9.066,15.37-12.927,21.594
			c-5.376,8.671-12.222,5.292-5.516-5.753c5.115-9.559,10.948-20.232,15.904-29.875c1.674-3.261,3.744-5.049,7.451-4.397
			c9.846,1.732,17.182-2.563,24.703-8.597c4.431-3.55,9.014-7.093,13.565-10.604c6.791-5.247,13.877-0.592,8.756,5.793
			c-1.169,1.451-18.046,14.422-26.806,21.363c-1.981,1.568-3.502,4.833-3.561,7.363c-0.287,12.725-0.226,25.086-0.046,37.632
			c0.037,2.687,0.702,5.461,1.602,8.017C175,165.725,179.659,178.44,184.202,191.026z"/>
		<path fill-rule="evenodd" clip-rule="evenodd" fill="#FFFFFF" d="M169.056,73.999c-0.044,6.356-5.004,11.148-11.399,11.009
			c-6.122-0.134-10.755-4.785-10.868-10.908c-0.117-6.288,4.834-11.405,11.069-11.43C164.045,62.642,169.094,67.75,169.056,73.999z"
			/>
	</g>
	<g>
		<g>
			<path fill-rule="evenodd" clip-rule="evenodd" fill="#ED1C24" d="M211.472,54.808c4.783,0.968,9.129,1.831,13.467,2.74
				c0.802,0.167,1.6,0.45,2.345,0.797c4.654,2.153,9.877,0.723,12.514-3.46c2.592-4.107,1.777-9.614-1.875-12.674
				c-3.823-3.201-9.273-3.124-12.943,0.396c-1.113,1.071-2.092,1.265-3.36,0.73c-1.303-0.555-2.58-1.179-4.198-1.924
				c1.337-2.876,2.365-5.651,3.86-8.145c1.347-2.238,3.701-3.045,6.219-2.202c10.355,3.47,20.699,6.967,30.972,10.679
				c1.379,0.501,2.729,2.095,3.357,3.51c7.854,17.729,25.247,52.942,26.631,56.298c1.472,3.576,0.438,7.4-3.074,8.944
				c-14.34,6.306-28.697,12.567-43.083,18.775c-3.588,1.549-6.484,0.289-8.063-3.326c-9.178-21.015-17.366-36.024-26.418-57.093
				c-0.636-1.477-0.708-3.563-0.203-5.09C208.696,60.489,210.325,57.396,211.472,54.808z"/>
			<path fill-rule="evenodd" clip-rule="evenodd" fill="#ED1C24" d="M245.104,31.541c-2.209-0.76-4.393-1.385-6.446-2.294
				c-0.582-0.257-0.905-1.309-1.163-2.061c-2.389-6.904-9.996-11.705-16.696-10.488c-9.873,1.793-14.728,13.656-9.262,22.63
				c4.094,6.713,10.844,9.224,18.319,6.812c2.282-0.735,4.066-0.019,4.806,1.937c0.728,1.915-0.161,3.64-2.377,4.62
				c-7.664,3.388-17.617,0.909-23.829-5.932c-7.995-8.801-7.994-22.8,0.004-30.908c8.357-8.472,22.06-8.209,30.117,0.577
				C243.104,21.375,245.247,26.233,245.104,31.541z"/>
			<g>
				<path fill="#FFFFFF" d="M237.118,104.614c-1.486-2.116-3.197-5.315-4.578-8.476c-2.139-4.897-2.62-8.443-1.582-11.528
					c0.791-2.485,2.781-4.535,5.523-5.731c4.689-2.04,9.079-0.448,11.983,2.739l0.158-0.066c-0.25-3.157,1.565-5.886,4.887-8.338
					c4.446-3.315,7.504-5.649,8.549-6.987l2.066,4.746c-0.751,1.015-3.457,3.134-7.445,6.061c-4.442,3.194-5.458,5.89-3.8,10.118
					l1.888,4.317l15.377-6.7l2,4.587L237.118,104.614z M251.29,92.984l-2.047-4.687c-2.135-4.894-6.179-6.832-10.229-5.065
					c-4.584,1.994-5.145,6.186-3.082,11.05c0.962,2.215,1.866,3.704,2.403,4.347L251.29,92.984z"/>
			</g>
		</g>
	</g>
</g>
</svg>
