<?xml version="1.0" encoding="utf-8"?>
<!-- Generator: Adobe Illustrator 16.0.0, SVG Export Plug-In . SVG Version: 6.00 Build 0)  -->
<!DOCTYPE svg PUBLIC "-//W3C//DTD SVG 1.1//EN" "http://www.w3.org/Graphics/SVG/1.1/DTD/svg11.dtd">
<svg version="1.1" id="Layer_1" xmlns="http://www.w3.org/2000/svg" xmlns:xlink="http://www.w3.org/1999/xlink" x="0px" y="0px"
	 width="250px" height="158.128px" viewBox="0 0 250 158.128" enable-background="new 0 0 250 158.128" xml:space="preserve">
<g>
	<g>
		<g>
			<path fill-rule="evenodd" clip-rule="evenodd" fill="#FFFFFF" d="M46.382,126.177c0.029,2.62-2.104,4.79-4.782,4.859
				c-2.843,0.073-5.156-2.166-5.084-4.925c0.064-2.581,2.328-4.726,4.967-4.703C44.132,121.43,46.351,123.593,46.382,126.177z"/>
			<rect x="34.267" y="134.358" fill-rule="evenodd" clip-rule="evenodd" fill="#FFFFFF" width="24.417" height="3.206"/>
			<path fill-rule="evenodd" clip-rule="evenodd" fill="#FFFFFF" d="M48.691,133.935c0,1.354-1.098,2.449-2.452,2.449h-9.567
				c-1.355,0-2.45-1.096-2.45-2.449l0,0c0-1.354,1.095-2.448,2.45-2.448h9.567C47.594,131.486,48.691,132.58,48.691,133.935
				L48.691,133.935z"/>
		</g>
		<g>
			<path fill-rule="evenodd" clip-rule="evenodd" fill="#FFFFFF" d="M81.168,126.423c-0.033,2.618,2.102,4.79,4.78,4.857
				c2.838,0.075,5.154-2.167,5.083-4.922c-0.064-2.581-2.329-4.728-4.963-4.703C83.414,121.679,81.195,123.836,81.168,126.423z"/>
			<rect x="68.862" y="134.604" fill-rule="evenodd" clip-rule="evenodd" fill="#FFFFFF" width="24.415" height="3.205"/>
			<path fill-rule="evenodd" clip-rule="evenodd" fill="#FFFFFF" d="M78.858,134.181c0,1.354,1.097,2.45,2.448,2.45h9.567
				c1.357,0,2.451-1.097,2.451-2.45l0,0c0-1.354-1.094-2.451-2.451-2.451h-9.567C79.955,131.729,78.858,132.827,78.858,134.181
				L78.858,134.181z"/>
		</g>
		<path fill-rule="evenodd" clip-rule="evenodd" fill="#FFFFFF" d="M82.327,72.767c-0.954,0.733-6.238,4.807-8.454,6.77
			c-3.819,3.38-7.79,6.163-13.324,5.102c-0.827-0.161-1.772,0.292-2.79,0.485c0-1.934,0-3.8,0-5.031
			c4.859,5.953,9.392,2.65,10.506,1.764c2.498-1.983,2.276-6.674,0.162-8.739c-2.935-2.867-7.547-2.196-10.626,2.397
			c0-6.654,0-13.088,0-19.704c20.284,0,40.38,0,60.737,0c0,15.002,0,29.977,0,45.136c-16.149,0-32.208,0-48.698,0
			c0-3.215-0.126-6.185,0.076-9.133c0.058-0.854,0.898-1.829,1.645-2.425c3.741-2.996,10.864-8.207,14.672-11.119 M85.954,73.316
			c0.331-0.313,0.661-0.625,0.996-0.936"/>
		<path fill-rule="evenodd" clip-rule="evenodd" fill="#FFFFFF" d="M75.8,130.176c-3.87,2.414-4.072,2.338-5.417-1.383
			c-1.796-4.951-3.614-9.895-5.441-14.836c-0.219-0.592-0.494-6.629-1.007-7.674c-0.51,1.067-0.923,7.169-1.163,7.824
			c-1.848,5.033-3.668,10.077-5.507,15.116c-0.546,1.492-0.708,3.15-3.258,2.27c-2.497-0.864-1.776-2.171-1.188-3.748
			c1.007-2.687,1.703-5.528,3.003-8.069c3.319-6.535,3.675-24.595,3.391-25.818c-1.956,3.16-4.084,6.922-5.826,9.729
			c-2.421,3.905-5.503,2.383-2.483-2.593c2.305-4.306,4.933-9.115,7.166-13.459c0.752-1.47,1.686-2.276,3.355-1.981
			c4.437,0.78,7.742-1.155,11.128-3.874c2-1.599,4.065-3.196,6.112-4.777c3.062-2.363,6.254-0.267,3.946,2.61
			c-0.525,0.653-8.132,6.499-12.079,9.625c-0.888,0.707-1.574,2.178-1.602,3.318c-0.133,5.731-0.104,11.3-0.021,16.955
			c0.018,1.207,0.317,2.46,0.722,3.609C71.65,118.778,73.751,124.505,75.8,130.176z"/>
		<path fill-rule="evenodd" clip-rule="evenodd" fill="#FFFFFF" d="M68.972,77.455c-0.017,2.863-2.253,5.02-5.136,4.959
			c-2.758-0.061-4.844-2.156-4.896-4.915c-0.049-2.834,2.18-5.138,4.988-5.149C66.715,72.336,68.989,74.638,68.972,77.455z"/>
	</g>
	<g>
		<g>
			<path fill-rule="evenodd" clip-rule="evenodd" fill="#FFFFFF" d="M196.584,126.177c-0.027,2.62,2.104,4.79,4.785,4.859
				c2.837,0.073,5.153-2.166,5.085-4.925c-0.067-2.581-2.335-4.726-4.971-4.703C198.838,121.43,196.615,123.593,196.584,126.177z"/>
			<rect x="184.282" y="134.358" fill-rule="evenodd" clip-rule="evenodd" fill="#FFFFFF" width="24.417" height="3.206"/>
			<path fill-rule="evenodd" clip-rule="evenodd" fill="#FFFFFF" d="M194.278,133.935c0,1.354,1.097,2.449,2.448,2.449h9.567
				c1.354,0,2.451-1.096,2.451-2.449l0,0c0-1.354-1.098-2.448-2.451-2.448h-9.567C195.375,131.486,194.278,132.58,194.278,133.935
				L194.278,133.935z"/>
		</g>
		<g>
			<path fill-rule="evenodd" clip-rule="evenodd" fill="#FFFFFF" d="M161.802,126.423c0.031,2.618-2.104,4.79-4.782,4.857
				c-2.839,0.075-5.152-2.167-5.084-4.922c0.064-2.581,2.328-4.728,4.967-4.703C159.552,121.679,161.771,123.838,161.802,126.423z"
				/>
			<rect x="149.688" y="134.604" fill-rule="evenodd" clip-rule="evenodd" fill="#FFFFFF" width="24.415" height="3.205"/>
			<path fill-rule="evenodd" clip-rule="evenodd" fill="#FFFFFF" d="M164.111,134.181c0,1.354-1.101,2.45-2.452,2.45h-9.569
				c-1.352,0-2.448-1.097-2.448-2.45l0,0c0-1.354,1.097-2.451,2.448-2.451h9.569C163.011,131.729,164.111,132.827,164.111,134.181
				L164.111,134.181z"/>
		</g>
		<path fill-rule="evenodd" clip-rule="evenodd" fill="#FFFFFF" d="M156.733,78.27c3.808,2.912,10.932,8.123,14.676,11.119
			c0.742,0.596,1.585,1.571,1.641,2.425c0.204,2.948,0.08,5.918,0.08,9.133c-16.494,0-32.554,0-48.701,0c0-15.159,0-30.134,0-45.136
			c20.356,0,40.453,0,60.736,0c0,6.616,0,13.05,0,19.704c-3.079-4.594-7.689-5.265-10.624-2.397
			c-2.114,2.065-2.336,6.756,0.16,8.739c1.116,0.887,5.646,4.189,10.503-1.764c0,1.231,0,3.098,0,5.031
			c-1.014-0.193-1.96-0.646-2.787-0.485c-5.533,1.061-9.503-1.722-13.32-5.102c-2.218-1.963-7.504-6.036-8.458-6.77 M156.02,72.38
			c0.331,0.311,0.662,0.622,0.993,0.936"/>
		<path fill-rule="evenodd" clip-rule="evenodd" fill="#FFFFFF" d="M167.17,130.176c3.859,2.414,4.068,2.338,5.417-1.383
			c1.794-4.951,3.612-9.895,5.438-14.836c0.222-0.592,0.495-6.629,1.007-7.674c0.512,1.067,0.923,7.169,1.163,7.824
			c1.849,5.033,3.668,10.077,5.508,15.116c0.547,1.492,0.709,3.15,3.261,2.27c2.494-0.864,1.776-2.171,1.184-3.748
			c-1.007-2.687-1.703-5.528-2.999-8.069c-3.323-6.535-3.675-24.595-3.396-25.818c1.958,3.16,4.086,6.924,5.831,9.729
			c2.418,3.905,5.504,2.383,2.48-2.593c-2.306-4.306-4.933-9.115-7.165-13.459c-0.753-1.47-1.685-2.276-3.354-1.981
			c-4.437,0.78-7.744-1.155-11.133-3.874c-1.996-1.599-4.062-3.196-6.108-4.777c-3.061-2.363-6.255-0.267-3.945,2.61
			c0.524,0.653,8.13,6.499,12.077,9.625c0.892,0.707,1.578,2.178,1.603,3.318c0.132,5.731,0.104,11.3,0.021,16.955
			c-0.016,1.207-0.316,2.46-0.721,3.609C171.315,118.778,169.215,124.505,167.17,130.176z"/>
		<path fill-rule="evenodd" clip-rule="evenodd" fill="#FFFFFF" d="M173.994,77.455c0.02,2.863,2.254,5.02,5.138,4.959
			c2.756-0.061,4.843-2.156,4.895-4.915c0.053-2.834-2.177-5.138-4.988-5.149C176.251,72.336,173.977,74.638,173.994,77.455z"/>
	</g>
	<g>
		<path fill-rule="evenodd" clip-rule="evenodd" fill="#FFFFFF" d="M238.312,33.531c-0.495,4.53-2.334,8.751-7.03,11.017
			c-2.302,1.11-3.64,2.166-3.361,5.109c0.394,4.199-2.152,7.083-5.713,8.81c-3.884,1.884-7.75,1.3-10.893-1.676
			c-1.771-1.675-2.706-2.076-5.375-0.796c-6.496,3.114-11.177,0.292-11.15-1.792c0.095-7.509-12.104-7.785-11.084-16.83
			c0.549-4.896,4.539-8.208,9.537-7.199c3.242,0.657,4.734,0.436,6.549-2.775c2.622-4.648,7.378-6.491,12.664-4.671
			c2.503,0.867,4.163,0.374,6.373-0.776C227.871,17.242,238.115,23.221,238.312,33.531z"/>
		<path fill-rule="evenodd" clip-rule="evenodd" fill="#FFFFFF" d="M206.254,59.018c2.878,0.186,4.721,1.926,4.739,4.854
			c0.02,3.176-2.005,5.149-5.115,5.029c-2.85-0.11-4.579-2.17-4.557-5.047C201.339,60.859,203.22,59.173,206.254,59.018z"/>
		<path fill-rule="evenodd" clip-rule="evenodd" fill="#FFFFFF" d="M193.28,71.532c0.047-3.271,1.499-4.087,3.405-4.005
			c1.689,0.074,3.152,1.008,3.042,2.935c-0.123,2.203-1.13,3.556-3.251,3.477C194.459,73.864,193.313,72.821,193.28,71.532z"/>
		<path fill-rule="evenodd" clip-rule="evenodd" fill="#FFFFFF" d="M186.82,76.647c0.033-2.082,0.958-2.603,2.167-2.55
			c1.076,0.047,2.01,0.643,1.937,1.867c-0.08,1.4-0.722,2.261-2.069,2.21C187.572,78.127,186.843,77.465,186.82,76.647z"/>
	</g>
	<g>
		<path fill-rule="evenodd" clip-rule="evenodd" fill="#FFFFFF" d="M4.666,34.249c0.493,4.527,2.332,8.748,7.028,11.015
			c2.306,1.111,3.64,2.164,3.364,5.109c-0.398,4.199,2.149,7.083,5.71,8.81c3.886,1.883,7.749,1.3,10.893-1.676
			c1.772-1.673,2.706-2.077,5.375-0.797c6.496,3.116,11.175,0.295,11.152-1.789c-0.093-7.509,12.103-7.787,11.086-16.831
			c-0.551-4.897-4.543-8.209-9.54-7.2c-3.242,0.657-4.731,0.436-6.547-2.777c-2.625-4.646-7.376-6.49-12.666-4.667
			c-2.504,0.865-4.162,0.371-6.374-0.778C15.107,17.958,4.861,23.938,4.666,34.249z"/>
		<path fill-rule="evenodd" clip-rule="evenodd" fill="#FFFFFF" d="M36.723,59.734c-2.874,0.188-4.717,1.925-4.737,4.856
			c-0.021,3.173,2.004,5.146,5.115,5.028c2.85-0.111,4.577-2.171,4.56-5.048C41.641,61.574,39.758,59.888,36.723,59.734z"/>
		<path fill-rule="evenodd" clip-rule="evenodd" fill="#FFFFFF" d="M49.698,72.249c-0.049-3.274-1.501-4.088-3.401-4.007
			c-1.695,0.074-3.158,1.008-3.047,2.938c0.128,2.201,1.133,3.554,3.254,3.475C48.521,74.578,49.667,73.537,49.698,72.249z"/>
		<path fill-rule="evenodd" clip-rule="evenodd" fill="#FFFFFF" d="M56.156,77.361c-0.031-2.08-0.958-2.601-2.166-2.548
			c-1.077,0.047-2.007,0.643-1.938,1.868c0.08,1.399,0.722,2.26,2.069,2.211C55.404,78.845,56.136,78.181,56.156,77.361z"/>
	</g>
	<g>
		<path fill="#FFFFFF" d="M43.243,35.331c-0.532-0.464-0.814-0.825-1.185-1.02c-2.055-1.075-4.11-2.146-6.207-3.128
			c-0.453-0.213-1.143-0.227-1.613-0.044c-5.1,1.978-10.186,4.003-15.25,6.058c-0.404,0.166-0.92,0.674-0.92,1.027
			c-0.003,0.37,0.474,0.883,0.873,1.094c1.952,1.036,3.924,2.034,5.938,2.95c0.51,0.232,1.261,0.316,1.763,0.122
			c5.15-1.995,10.276-4.057,15.396-6.126C42.414,36.114,42.707,35.755,43.243,35.331z"/>
		<path fill="#FFFFFF" d="M18.243,43.067c-0.122,0.129-0.246,0.261-0.366,0.39c0.3,0.382,0.52,0.911,0.911,1.115
			c2.099,1.109,4.23,2.16,6.376,3.166c0.38,0.178,0.958,0.201,1.345,0.051c5.201-2.037,10.388-4.103,15.558-6.211
			c0.394-0.16,0.628-0.717,0.934-1.089c-0.124-0.117-0.248-0.233-0.37-0.35c-0.585,0.216-1.181,0.417-1.762,0.649
			c-4.552,1.813-9.113,3.603-13.646,5.47c-1.021,0.426-1.846,0.385-2.821-0.135C22.385,45.041,20.298,44.079,18.243,43.067z"/>
		<path fill="#FFFFFF" d="M18.299,39.535c-0.133,0.149-0.265,0.298-0.397,0.443c0.382,0.396,0.693,0.924,1.153,1.168
			c1.905,1.018,3.835,1.992,5.8,2.887c0.509,0.232,1.25,0.325,1.749,0.131c5.155-1.989,10.286-4.04,15.405-6.123
			c0.412-0.168,0.678-0.705,1.008-1.072c-0.121-0.134-0.242-0.269-0.365-0.403c-0.629,0.236-1.261,0.464-1.888,0.712
			c-4.546,1.815-9.103,3.604-13.628,5.477c-0.979,0.403-1.747,0.337-2.663-0.151C22.443,41.525,20.36,40.553,18.299,39.535z"/>
		<path fill="#FFFFFF" d="M43.003,38.739c-0.115-0.128-0.233-0.258-0.352-0.387c-0.478,0.179-0.955,0.345-1.425,0.532
			c-4.741,1.884-9.465,3.801-14.229,5.614c-0.676,0.256-1.645,0.205-2.313-0.085c-2.194-0.953-4.312-2.082-6.462-3.142
			c-0.125,0.138-0.251,0.276-0.376,0.414c0.342,0.391,0.606,0.92,1.038,1.148c1.999,1.061,4.026,2.065,6.077,3.024
			c0.432,0.202,1.065,0.32,1.481,0.158c5.245-2.038,10.472-4.122,15.683-6.244C42.494,39.624,42.711,39.093,43.003,38.739z"/>
		<path fill="#FFFFFF" d="M42.996,42.319c-0.129-0.145-0.251-0.29-0.38-0.435c-4.19,1.671-8.468,3.154-12.54,5.076
			c-2.975,1.403-5.57,1.609-8.315-0.355c-1.063-0.76-2.365-1.18-3.562-1.757c-0.103,0.146-0.198,0.289-0.301,0.434
			c0.278,0.292,0.508,0.683,0.846,0.863c2.099,1.102,4.205,2.186,6.34,3.201c0.42,0.201,1.056,0.24,1.487,0.074
			c5.192-2.022,10.367-4.09,15.533-6.185C42.467,43.09,42.698,42.632,42.996,42.319z"/>
		<path fill-rule="evenodd" clip-rule="evenodd" fill="#5E7E53" d="M43.243,35.331c-0.536,0.425-0.829,0.783-1.205,0.934
			c-5.12,2.069-10.246,4.131-15.396,6.126c-0.502,0.194-1.253,0.11-1.763-0.122c-2.014-0.916-3.985-1.914-5.938-2.95
			c-0.399-0.211-0.876-0.724-0.873-1.094c0-0.354,0.516-0.861,0.92-1.027c5.064-2.055,10.15-4.08,15.25-6.058
			c0.471-0.183,1.16-0.169,1.613,0.044c2.097,0.981,4.152,2.053,6.207,3.128C42.429,34.505,42.711,34.867,43.243,35.331z
			 M21.834,38.427c2.934,2.316,7.275,1.538,9.468-0.22c-2.09-0.391-4.357-0.432-5.267-2.881
			C22.129,36.815,22.129,36.815,21.834,38.427z M39.004,33.886c-3.274-1.922-7.139-1.798-9.248,0.293
			c2.01,0.347,4.161,0.439,5.058,2.781C38.628,35.893,38.75,35.804,39.004,33.886z"/>
		<path fill-rule="evenodd" clip-rule="evenodd" fill="#5E7E53" d="M18.243,43.067c2.055,1.012,4.142,1.974,6.158,3.057
			c0.976,0.52,1.8,0.561,2.821,0.135c4.532-1.867,9.094-3.656,13.646-5.47c0.581-0.232,1.177-0.434,1.762-0.649
			c0.122,0.116,0.246,0.232,0.37,0.35c-0.306,0.372-0.54,0.929-0.934,1.089c-5.17,2.108-10.356,4.174-15.558,6.211
			c-0.387,0.15-0.965,0.127-1.345-0.051c-2.146-1.006-4.277-2.057-6.376-3.166c-0.392-0.204-0.611-0.733-0.911-1.115
			C17.997,43.328,18.121,43.196,18.243,43.067z"/>
		<path fill-rule="evenodd" clip-rule="evenodd" fill="#5E7E53" d="M18.299,39.535c2.062,1.019,4.145,1.99,6.174,3.067
			c0.916,0.488,1.685,0.555,2.663,0.151c4.525-1.872,9.082-3.661,13.628-5.477c0.627-0.248,1.259-0.476,1.888-0.712
			c0.123,0.135,0.244,0.27,0.365,0.403c-0.33,0.367-0.596,0.904-1.008,1.072c-5.119,2.083-10.25,4.134-15.405,6.123
			c-0.499,0.194-1.24,0.102-1.749-0.131c-1.965-0.895-3.895-1.869-5.8-2.887c-0.46-0.244-0.771-0.771-1.153-1.168
			C18.034,39.833,18.166,39.684,18.299,39.535z"/>
		<path fill-rule="evenodd" clip-rule="evenodd" fill="#5E7E53" d="M43.003,38.739c-0.292,0.354-0.509,0.885-0.878,1.034
			c-5.211,2.122-10.438,4.206-15.683,6.244c-0.416,0.162-1.05,0.044-1.481-0.158c-2.051-0.959-4.078-1.964-6.077-3.024
			c-0.432-0.229-0.696-0.758-1.038-1.148c0.125-0.138,0.251-0.276,0.376-0.414c2.149,1.06,4.268,2.188,6.462,3.142
			c0.669,0.29,1.638,0.341,2.313,0.085c4.765-1.813,9.488-3.73,14.229-5.614c0.47-0.188,0.947-0.354,1.425-0.532
			C42.77,38.481,42.888,38.611,43.003,38.739z"/>
		<path fill-rule="evenodd" clip-rule="evenodd" fill="#5E7E53" d="M42.996,42.319c-0.298,0.313-0.529,0.771-0.892,0.917
			c-5.166,2.095-10.341,4.162-15.533,6.185c-0.432,0.166-1.067,0.127-1.487-0.074c-2.135-1.016-4.241-2.1-6.34-3.201
			c-0.338-0.181-0.567-0.571-0.846-0.863c0.103-0.145,0.198-0.287,0.301-0.434c1.196,0.577,2.498,0.997,3.562,1.757
			c2.745,1.965,5.341,1.759,8.315,0.355c4.072-1.922,8.35-3.405,12.54-5.076C42.745,42.029,42.867,42.174,42.996,42.319z"/>
		<path fill-rule="evenodd" clip-rule="evenodd" fill="#FFFFFF" d="M21.834,38.427c0.295-1.612,0.295-1.612,4.201-3.101
			c0.909,2.449,3.177,2.49,5.267,2.881C29.109,39.965,24.768,40.744,21.834,38.427z"/>
		<path fill-rule="evenodd" clip-rule="evenodd" fill="#FFFFFF" d="M39.004,33.886c-0.254,1.918-0.376,2.007-4.19,3.074
			c-0.896-2.342-3.048-2.435-5.058-2.781C31.865,32.088,35.729,31.964,39.004,33.886z"/>
	</g>
	<path fill="#ED1C24" d="M221.452,30.453h-19.329l17.006-6.284L221.452,30.453z M192.133,34.145l3.855,10.43V32.72L192.133,34.145z
		 M199.122,53.054l0.12-0.044h-0.136L199.122,53.054z M225.967,31.653v20.159h-28.783V31.653H225.967z M210.426,48.715h-10.55v1.049
		h10.55V48.715z M210.426,46.269h-10.55v1.047h10.55V46.269z M210.426,43.825h-10.55v1.048h10.55V43.825z M210.426,41.378h-10.55
		v1.05h10.55V41.378z M223.277,48.715h-10.551v1.049h10.551V48.715z M223.277,46.269h-10.551v1.047h10.551V46.269z M223.277,43.825
		h-10.551v1.048h10.551V43.825z M223.277,41.378h-10.551v1.05h10.551V41.378z"/>
	<g>
		<path fill="#FFFFFF" d="M202.451,35.116v0.403h-0.792v2.233h-0.491v-2.233h-0.796v-0.403H202.451z"/>
		<path fill="#FFFFFF" d="M202.737,37.752v-2.708h0.45v1.041c0.073-0.069,0.153-0.125,0.241-0.167
			c0.087-0.042,0.189-0.064,0.308-0.064c0.103,0,0.192,0.018,0.271,0.052c0.079,0.034,0.146,0.083,0.198,0.146
			s0.093,0.137,0.12,0.224s0.041,0.183,0.041,0.287v1.19h-0.45v-1.19c0-0.114-0.026-0.203-0.079-0.265s-0.133-0.094-0.238-0.094
			c-0.077,0-0.15,0.018-0.219,0.053c-0.067,0.035-0.132,0.083-0.193,0.144v1.353H202.737z"/>
		<path fill="#FFFFFF" d="M205.583,35.853c0.117,0,0.226,0.019,0.325,0.057c0.099,0.038,0.185,0.093,0.256,0.165
			c0.072,0.072,0.128,0.161,0.168,0.266s0.06,0.225,0.06,0.36c0,0.034-0.001,0.062-0.004,0.085s-0.009,0.04-0.017,0.053
			s-0.019,0.022-0.032,0.027c-0.013,0.005-0.03,0.008-0.051,0.008h-1.155c0.013,0.192,0.064,0.333,0.154,0.423
			s0.209,0.135,0.357,0.135c0.073,0,0.136-0.008,0.188-0.025c0.054-0.017,0.1-0.036,0.139-0.057c0.04-0.021,0.074-0.04,0.104-0.057
			c0.029-0.017,0.059-0.025,0.086-0.025c0.019,0,0.034,0.003,0.048,0.011s0.024,0.018,0.034,0.031l0.132,0.164
			c-0.05,0.058-0.106,0.107-0.168,0.146c-0.062,0.04-0.127,0.071-0.194,0.095c-0.067,0.024-0.136,0.041-0.206,0.05
			c-0.069,0.01-0.138,0.015-0.203,0.015c-0.13,0-0.251-0.021-0.362-0.065c-0.112-0.043-0.209-0.106-0.292-0.191
			s-0.147-0.189-0.195-0.314c-0.047-0.125-0.07-0.269-0.07-0.433c0-0.127,0.021-0.248,0.062-0.36
			c0.041-0.113,0.101-0.21,0.178-0.293c0.077-0.083,0.171-0.149,0.282-0.198C205.317,35.877,205.443,35.853,205.583,35.853z
			 M205.592,36.175c-0.131,0-0.233,0.037-0.308,0.111c-0.074,0.074-0.122,0.179-0.143,0.315h0.846c0-0.058-0.008-0.113-0.023-0.165
			c-0.016-0.052-0.04-0.097-0.073-0.136c-0.032-0.039-0.074-0.069-0.124-0.092S205.659,36.175,205.592,36.175z"/>
		<path fill="#FFFFFF" d="M207.543,37.752v-1.531l-0.163-0.025c-0.035-0.006-0.063-0.018-0.084-0.037
			c-0.021-0.018-0.032-0.043-0.032-0.076v-0.185h0.279V35.76c0-0.107,0.016-0.203,0.048-0.288s0.078-0.157,0.139-0.217
			c0.06-0.06,0.133-0.105,0.22-0.137c0.086-0.032,0.184-0.047,0.291-0.047c0.087,0,0.167,0.011,0.241,0.035l-0.01,0.226
			c-0.002,0.035-0.019,0.057-0.049,0.065s-0.065,0.013-0.105,0.013c-0.054,0-0.102,0.006-0.144,0.018
			c-0.042,0.011-0.077,0.031-0.106,0.06c-0.029,0.028-0.052,0.066-0.066,0.113c-0.016,0.047-0.022,0.105-0.022,0.174v0.124h0.486
			v0.321h-0.472v1.533H207.543z"/>
		<path fill="#FFFFFF" d="M209.151,35.882v1.188c0,0.114,0.026,0.203,0.079,0.265c0.054,0.062,0.133,0.094,0.238,0.094
			c0.078,0,0.15-0.017,0.219-0.052s0.133-0.083,0.193-0.143v-1.353h0.45v1.87h-0.275c-0.059,0-0.097-0.027-0.115-0.082l-0.03-0.149
			c-0.039,0.039-0.079,0.074-0.121,0.106c-0.041,0.032-0.085,0.06-0.132,0.082s-0.097,0.04-0.151,0.053
			c-0.054,0.013-0.112,0.019-0.174,0.019c-0.103,0-0.192-0.018-0.271-0.052s-0.145-0.083-0.198-0.146
			c-0.053-0.063-0.094-0.138-0.121-0.225s-0.041-0.183-0.041-0.287v-1.188H209.151z"/>
		<path fill="#FFFFFF" d="M211.426,37.781c-0.161,0-0.286-0.046-0.373-0.138c-0.088-0.092-0.132-0.218-0.132-0.38v-1.044h-0.189
			c-0.024,0-0.045-0.008-0.062-0.024s-0.026-0.04-0.026-0.071v-0.178l0.301-0.049l0.095-0.51c0.005-0.024,0.016-0.043,0.033-0.057
			c0.018-0.014,0.04-0.02,0.066-0.02h0.233v0.588h0.492v0.321h-0.492v1.013c0,0.059,0.015,0.104,0.044,0.137
			s0.068,0.049,0.117,0.049c0.027,0,0.051-0.003,0.069-0.01c0.02-0.006,0.036-0.014,0.05-0.021s0.026-0.014,0.037-0.021
			c0.011-0.006,0.022-0.01,0.033-0.01c0.013,0,0.024,0.003,0.032,0.01c0.009,0.007,0.018,0.017,0.027,0.03l0.135,0.219
			c-0.065,0.055-0.141,0.096-0.226,0.124S211.518,37.781,211.426,37.781z"/>
		<path fill="#FFFFFF" d="M212.635,35.882v1.188c0,0.114,0.026,0.203,0.079,0.265c0.054,0.062,0.133,0.094,0.238,0.094
			c0.078,0,0.15-0.017,0.219-0.052s0.133-0.083,0.193-0.143v-1.353h0.45v1.87h-0.275c-0.059,0-0.097-0.027-0.115-0.082l-0.03-0.149
			c-0.039,0.039-0.079,0.074-0.121,0.106c-0.041,0.032-0.085,0.06-0.132,0.082s-0.097,0.04-0.151,0.053
			c-0.054,0.013-0.112,0.019-0.174,0.019c-0.103,0-0.192-0.018-0.271-0.052s-0.145-0.083-0.198-0.146
			c-0.053-0.063-0.094-0.138-0.121-0.225s-0.041-0.183-0.041-0.287v-1.188H212.635z"/>
		<path fill="#FFFFFF" d="M214.295,37.752v-1.87h0.265c0.046,0,0.078,0.008,0.097,0.025s0.03,0.046,0.036,0.087l0.027,0.226
			c0.067-0.115,0.146-0.207,0.235-0.273s0.19-0.1,0.303-0.1c0.092,0,0.169,0.021,0.229,0.064l-0.059,0.337
			c-0.003,0.022-0.012,0.038-0.023,0.046c-0.012,0.009-0.028,0.014-0.049,0.014c-0.019,0-0.044-0.004-0.075-0.013
			c-0.031-0.008-0.073-0.013-0.126-0.013c-0.093,0-0.174,0.026-0.24,0.078s-0.123,0.127-0.17,0.227v1.165H214.295z"/>
		<path fill="#FFFFFF" d="M216.558,35.853c0.117,0,0.226,0.019,0.325,0.057c0.099,0.038,0.185,0.093,0.256,0.165
			c0.072,0.072,0.128,0.161,0.168,0.266s0.06,0.225,0.06,0.36c0,0.034-0.001,0.062-0.004,0.085s-0.009,0.04-0.017,0.053
			s-0.019,0.022-0.032,0.027c-0.013,0.005-0.03,0.008-0.051,0.008h-1.155c0.013,0.192,0.064,0.333,0.154,0.423
			s0.209,0.135,0.357,0.135c0.073,0,0.136-0.008,0.188-0.025c0.054-0.017,0.1-0.036,0.139-0.057c0.04-0.021,0.074-0.04,0.104-0.057
			c0.029-0.017,0.059-0.025,0.086-0.025c0.019,0,0.034,0.003,0.048,0.011s0.024,0.018,0.034,0.031l0.132,0.164
			c-0.05,0.058-0.106,0.107-0.168,0.146c-0.062,0.04-0.127,0.071-0.194,0.095c-0.067,0.024-0.136,0.041-0.206,0.05
			c-0.069,0.01-0.138,0.015-0.203,0.015c-0.13,0-0.251-0.021-0.362-0.065c-0.112-0.043-0.209-0.106-0.292-0.191
			s-0.147-0.189-0.195-0.314c-0.047-0.125-0.07-0.269-0.07-0.433c0-0.127,0.021-0.248,0.062-0.36
			c0.041-0.113,0.101-0.21,0.178-0.293c0.077-0.083,0.171-0.149,0.282-0.198C216.292,35.877,216.418,35.853,216.558,35.853z
			 M216.566,36.175c-0.131,0-0.233,0.037-0.308,0.111c-0.074,0.074-0.122,0.179-0.143,0.315h0.846c0-0.058-0.008-0.113-0.023-0.165
			c-0.016-0.052-0.04-0.097-0.073-0.136c-0.032-0.039-0.074-0.069-0.124-0.092S216.634,36.175,216.566,36.175z"/>
		<path fill="#FFFFFF" d="M219.875,35.596c-0.014,0.027-0.029,0.045-0.047,0.057c-0.018,0.011-0.038,0.016-0.062,0.016
			s-0.052-0.009-0.082-0.028c-0.03-0.019-0.066-0.04-0.107-0.063c-0.041-0.023-0.09-0.044-0.145-0.062
			c-0.056-0.019-0.121-0.028-0.196-0.028c-0.068,0-0.127,0.008-0.178,0.024c-0.051,0.017-0.093,0.039-0.128,0.068
			c-0.034,0.029-0.061,0.064-0.077,0.105c-0.018,0.041-0.025,0.085-0.025,0.134c0,0.062,0.018,0.114,0.052,0.155
			c0.034,0.041,0.08,0.076,0.138,0.105c0.057,0.029,0.122,0.055,0.195,0.079c0.072,0.023,0.146,0.047,0.223,0.074
			c0.076,0.026,0.15,0.057,0.224,0.091c0.073,0.035,0.138,0.079,0.195,0.131c0.057,0.053,0.103,0.118,0.138,0.194
			c0.034,0.077,0.052,0.169,0.052,0.279c0,0.119-0.021,0.23-0.062,0.334c-0.04,0.104-0.1,0.194-0.179,0.271
			c-0.078,0.077-0.174,0.138-0.287,0.182c-0.112,0.044-0.242,0.067-0.388,0.067c-0.084,0-0.167-0.008-0.248-0.025
			c-0.081-0.016-0.159-0.04-0.234-0.07c-0.074-0.031-0.145-0.067-0.21-0.109c-0.064-0.042-0.123-0.09-0.174-0.143l0.143-0.235
			c0.013-0.017,0.029-0.031,0.048-0.043c0.02-0.011,0.04-0.017,0.063-0.017c0.03,0,0.062,0.012,0.098,0.037
			c0.036,0.025,0.077,0.053,0.125,0.083s0.104,0.058,0.17,0.083c0.064,0.025,0.143,0.037,0.234,0.037
			c0.14,0,0.248-0.033,0.324-0.099s0.115-0.161,0.115-0.285c0-0.069-0.018-0.126-0.053-0.169c-0.034-0.044-0.08-0.081-0.138-0.11
			c-0.057-0.03-0.122-0.055-0.194-0.076c-0.073-0.021-0.147-0.043-0.223-0.067s-0.149-0.054-0.223-0.087
			c-0.072-0.034-0.138-0.079-0.194-0.133c-0.058-0.055-0.104-0.123-0.138-0.205c-0.035-0.082-0.053-0.183-0.053-0.303
			c0-0.096,0.02-0.19,0.058-0.281c0.038-0.091,0.095-0.172,0.168-0.243s0.164-0.127,0.271-0.169
			c0.107-0.042,0.229-0.064,0.366-0.064c0.156,0,0.299,0.024,0.431,0.073c0.131,0.048,0.243,0.117,0.335,0.204L219.875,35.596z"/>
		<path fill="#FFFFFF" d="M222.734,37.752h-0.379c-0.043,0-0.078-0.011-0.105-0.032c-0.027-0.021-0.047-0.048-0.059-0.08
			l-0.197-0.538h-1.092l-0.197,0.538c-0.01,0.028-0.028,0.054-0.057,0.077c-0.029,0.023-0.063,0.035-0.105,0.035h-0.381l1.035-2.636
			h0.502L222.734,37.752z M221.028,36.757h0.84l-0.32-0.877c-0.015-0.039-0.031-0.084-0.049-0.138
			c-0.018-0.053-0.035-0.11-0.052-0.172c-0.017,0.062-0.033,0.12-0.05,0.173c-0.017,0.054-0.033,0.101-0.049,0.141L221.028,36.757z"
			/>
	</g>
</g>
</svg>
