<?xml version="1.0" encoding="utf-8"?>
<!-- Generator: Adobe Illustrator 16.0.0, SVG Export Plug-In . SVG Version: 6.00 Build 0)  -->
<!DOCTYPE svg PUBLIC "-//W3C//DTD SVG 1.1//EN" "http://www.w3.org/Graphics/SVG/1.1/DTD/svg11.dtd">
<svg version="1.1" id="Layer_1" xmlns="http://www.w3.org/2000/svg" xmlns:xlink="http://www.w3.org/1999/xlink" x="0px" y="0px"
	 width="497.563px" height="497.563px" viewBox="0 0 497.563 497.563" enable-background="new 0 0 497.563 497.563"
	 xml:space="preserve">
<path fill="#BCBDBF" d="M249.643,92.195V30.688c-71.951,0-134.512,34.671-172.631,95.693l52.149,32.588
	C154.272,118.868,198.837,92.195,249.643,92.195z"/>
<path fill="#5DC7C3" d="M249.643,30.688v61.507c78.458,0,142.061,63.603,142.061,142.061c0,78.459-63.603,142.063-142.061,142.063
	c-78.46,0-142.062-63.604-142.062-142.063c0-27.655,7.911-53.458,21.579-75.287l-52.149-32.588
	c-21.455,34.323-30.938,67.402-30.938,107.875c0,112.426,91.146,203.569,203.569,203.569c112.42,0,203.568-91.143,203.568-203.569
	C453.211,121.828,362.063,30.688,249.643,30.688z"/>
<g>
	<path fill="#FFFFFF" d="M311.688,461.29c0.151,0,0.282,0.059,0.392,0.176l1.094,1.186c-0.605,0.749-1.35,1.323-2.232,1.722
		c-0.884,0.399-1.944,0.599-3.182,0.599c-1.107,0-2.103-0.189-2.985-0.567c-0.884-0.378-1.639-0.903-2.264-1.578
		c-0.626-0.673-1.105-1.478-1.438-2.413c-0.333-0.935-0.5-1.955-0.5-3.062c0-1.12,0.186-2.146,0.557-3.078s0.894-1.734,1.567-2.408
		s1.479-1.197,2.418-1.572s1.976-0.562,3.109-0.562c1.106,0,2.074,0.178,2.903,0.531c0.828,0.354,1.538,0.823,2.129,1.408
		l-0.928,1.289c-0.056,0.082-0.126,0.154-0.212,0.216c-0.086,0.062-0.204,0.093-0.355,0.093c-0.158,0-0.319-0.062-0.484-0.186
		c-0.165-0.123-0.375-0.258-0.629-0.401c-0.255-0.145-0.576-0.279-0.965-0.402c-0.388-0.124-0.882-0.186-1.479-0.186
		c-0.701,0-1.346,0.122-1.934,0.365c-0.588,0.244-1.093,0.594-1.516,1.047c-0.423,0.454-0.753,1.006-0.99,1.655
		s-0.355,1.381-0.355,2.191c0,0.839,0.118,1.585,0.355,2.238s0.559,1.203,0.964,1.649c0.406,0.447,0.884,0.789,1.434,1.026
		s1.142,0.355,1.773,0.355c0.379,0,0.721-0.021,1.026-0.062s0.588-0.106,0.846-0.196c0.258-0.089,0.502-0.204,0.732-0.345
		c0.23-0.142,0.459-0.315,0.686-0.521c0.068-0.062,0.141-0.111,0.217-0.149C311.517,461.31,311.6,461.29,311.688,461.29z"/>
	<path fill="#FFFFFF" d="M319.639,454.062c0.791,0,1.507,0.127,2.15,0.381c0.643,0.255,1.19,0.615,1.645,1.083
		s0.805,1.038,1.052,1.712c0.248,0.674,0.371,1.427,0.371,2.259c0,0.839-0.123,1.595-0.371,2.269
		c-0.247,0.674-0.598,1.248-1.052,1.722c-0.454,0.475-1.002,0.839-1.645,1.094c-0.644,0.254-1.359,0.381-2.15,0.381
		s-1.509-0.127-2.155-0.381c-0.646-0.255-1.198-0.619-1.655-1.094c-0.457-0.474-0.812-1.048-1.062-1.722
		c-0.251-0.674-0.377-1.43-0.377-2.269c0-0.832,0.126-1.585,0.377-2.259c0.25-0.674,0.604-1.244,1.062-1.712
		s1.009-0.828,1.655-1.083C318.13,454.188,318.848,454.062,319.639,454.062z M319.639,463.002c0.88,0,1.531-0.296,1.954-0.887
		c0.423-0.592,0.635-1.458,0.635-2.599c0-1.142-0.212-2.011-0.635-2.609c-0.423-0.598-1.074-0.897-1.954-0.897
		c-0.894,0-1.554,0.301-1.979,0.902c-0.427,0.602-0.64,1.47-0.64,2.604c0,1.134,0.213,1.999,0.64,2.594
		C318.085,462.705,318.745,463.002,319.639,463.002z"/>
	<path fill="#FFFFFF" d="M326.848,464.807v-10.58h1.495c0.262,0,0.443,0.048,0.547,0.144c0.103,0.097,0.172,0.262,0.206,0.495
		l0.154,1.279c0.378-0.653,0.821-1.169,1.331-1.547c0.508-0.378,1.079-0.567,1.711-0.567c0.522,0,0.956,0.12,1.3,0.36l-0.33,1.908
		c-0.021,0.124-0.065,0.212-0.134,0.263c-0.069,0.052-0.162,0.078-0.278,0.078c-0.104,0-0.244-0.024-0.423-0.072
		c-0.179-0.049-0.416-0.072-0.712-0.072c-0.529,0-0.983,0.146-1.361,0.438c-0.378,0.293-0.697,0.721-0.959,1.284v6.59H326.848z"/>
	<path fill="#FFFFFF" d="M335.272,464.807v-10.58h1.495c0.262,0,0.443,0.048,0.547,0.144c0.103,0.097,0.172,0.262,0.206,0.495
		l0.154,1.279c0.378-0.653,0.821-1.169,1.331-1.547c0.508-0.378,1.079-0.567,1.711-0.567c0.522,0,0.956,0.12,1.3,0.36l-0.33,1.908
		c-0.021,0.124-0.065,0.212-0.134,0.263c-0.069,0.052-0.162,0.078-0.278,0.078c-0.104,0-0.244-0.024-0.423-0.072
		c-0.179-0.049-0.416-0.072-0.712-0.072c-0.529,0-0.983,0.146-1.361,0.438c-0.378,0.293-0.697,0.721-0.959,1.284v6.59H335.272z"/>
	<path fill="#FFFFFF" d="M346.027,454.227v6.724c0,0.646,0.15,1.146,0.449,1.5c0.299,0.354,0.747,0.531,1.346,0.531
		c0.439,0,0.853-0.098,1.237-0.294s0.749-0.466,1.093-0.81v-7.651h2.548v10.58h-1.558c-0.33,0-0.547-0.154-0.649-0.464l-0.176-0.846
		c-0.22,0.22-0.446,0.421-0.681,0.604c-0.233,0.182-0.482,0.337-0.747,0.464s-0.551,0.227-0.856,0.299s-0.634,0.108-0.984,0.108
		c-0.578,0-1.088-0.098-1.531-0.294s-0.816-0.473-1.119-0.83s-0.531-0.782-0.686-1.273c-0.155-0.491-0.232-1.033-0.232-1.624v-6.724
		H346.027z"/>
	<path fill="#FFFFFF" d="M355.423,468.262v-14.035h1.557c0.165,0,0.307,0.037,0.423,0.113c0.117,0.075,0.192,0.192,0.228,0.351
		l0.206,0.979c0.426-0.488,0.916-0.884,1.47-1.186c0.553-0.303,1.201-0.454,1.943-0.454c0.578,0,1.105,0.12,1.583,0.36
		c0.478,0.241,0.891,0.59,1.237,1.047c0.348,0.458,0.615,1.021,0.805,1.691c0.189,0.671,0.283,1.438,0.283,2.305
		c0,0.791-0.106,1.523-0.319,2.197s-0.518,1.258-0.913,1.753c-0.395,0.495-0.873,0.882-1.433,1.16
		c-0.561,0.278-1.188,0.417-1.883,0.417c-0.598,0-1.104-0.091-1.521-0.272c-0.416-0.183-0.789-0.436-1.119-0.759v4.332H355.423z
		 M360.373,456.041c-0.53,0-0.981,0.112-1.356,0.335c-0.375,0.224-0.724,0.538-1.047,0.943v4.744
		c0.289,0.357,0.604,0.606,0.943,0.748c0.341,0.141,0.707,0.211,1.099,0.211c0.385,0,0.733-0.072,1.047-0.217
		c0.312-0.144,0.577-0.364,0.794-0.659c0.217-0.296,0.383-0.669,0.5-1.119s0.176-0.981,0.176-1.594c0-0.618-0.051-1.143-0.15-1.572
		s-0.242-0.778-0.428-1.047s-0.41-0.464-0.675-0.588S360.709,456.041,360.373,456.041z"/>
	<path fill="#FFFFFF" d="M370.562,464.972c-0.915,0-1.619-0.26-2.114-0.778c-0.495-0.52-0.743-1.236-0.743-2.15v-5.909h-1.072
		c-0.138,0-0.256-0.045-0.355-0.134c-0.1-0.09-0.149-0.224-0.149-0.402v-1.011l1.701-0.278l0.536-2.888
		c0.027-0.138,0.092-0.244,0.191-0.319c0.1-0.076,0.225-0.113,0.376-0.113h1.32v3.331h2.784v1.814h-2.784v5.733
		c0,0.33,0.082,0.588,0.247,0.773s0.385,0.279,0.66,0.279c0.158,0,0.29-0.02,0.397-0.058c0.106-0.037,0.199-0.077,0.278-0.118
		s0.149-0.081,0.211-0.118c0.062-0.038,0.124-0.058,0.186-0.058c0.076,0,0.138,0.02,0.186,0.058c0.048,0.037,0.1,0.094,0.155,0.17
		l0.763,1.237c-0.371,0.31-0.798,0.543-1.278,0.701C371.575,464.893,371.077,464.972,370.562,464.972z"/>
	<path fill="#FFFFFF" d="M378.161,451.143c0,0.22-0.045,0.427-0.134,0.619c-0.09,0.192-0.208,0.36-0.356,0.505
		c-0.147,0.145-0.321,0.26-0.521,0.346s-0.412,0.129-0.64,0.129c-0.22,0-0.428-0.043-0.624-0.129
		c-0.195-0.086-0.365-0.201-0.51-0.346s-0.26-0.312-0.346-0.505s-0.129-0.399-0.129-0.619c0-0.227,0.043-0.439,0.129-0.64
		c0.086-0.199,0.201-0.371,0.346-0.516c0.145-0.144,0.314-0.259,0.51-0.345c0.196-0.086,0.404-0.129,0.624-0.129
		c0.228,0,0.44,0.043,0.64,0.129s0.373,0.201,0.521,0.345c0.148,0.145,0.267,0.316,0.356,0.516
		C378.116,450.703,378.161,450.916,378.161,451.143z M377.779,454.227v10.58h-2.547v-10.58H377.779z"/>
	<path fill="#FFFFFF" d="M385.173,454.062c0.791,0,1.507,0.127,2.15,0.381c0.643,0.255,1.19,0.615,1.645,1.083
		s0.805,1.038,1.052,1.712c0.248,0.674,0.371,1.427,0.371,2.259c0,0.839-0.123,1.595-0.371,2.269
		c-0.247,0.674-0.598,1.248-1.052,1.722c-0.454,0.475-1.002,0.839-1.645,1.094c-0.644,0.254-1.359,0.381-2.15,0.381
		s-1.509-0.127-2.155-0.381c-0.646-0.255-1.198-0.619-1.655-1.094c-0.457-0.474-0.812-1.048-1.062-1.722
		c-0.251-0.674-0.377-1.43-0.377-2.269c0-0.832,0.126-1.585,0.377-2.259c0.25-0.674,0.604-1.244,1.062-1.712
		s1.009-0.828,1.655-1.083C383.664,454.188,384.382,454.062,385.173,454.062z M385.173,463.002c0.88,0,1.531-0.296,1.954-0.887
		c0.423-0.592,0.635-1.458,0.635-2.599c0-1.142-0.212-2.011-0.635-2.609c-0.423-0.598-1.074-0.897-1.954-0.897
		c-0.894,0-1.554,0.301-1.979,0.902c-0.427,0.602-0.64,1.47-0.64,2.604c0,1.134,0.213,1.999,0.64,2.594
		C383.619,462.705,384.279,463.002,385.173,463.002z"/>
	<path fill="#FFFFFF" d="M392.382,464.807v-10.58h1.557c0.33,0,0.547,0.154,0.65,0.464l0.175,0.835
		c0.213-0.22,0.438-0.419,0.676-0.598s0.488-0.334,0.753-0.465c0.265-0.13,0.548-0.229,0.851-0.299
		c0.303-0.068,0.633-0.103,0.99-0.103c0.577,0,1.089,0.098,1.536,0.294c0.447,0.195,0.82,0.471,1.119,0.824
		c0.299,0.354,0.525,0.777,0.681,1.269c0.154,0.492,0.231,1.033,0.231,1.624v6.734h-2.547v-6.734c0-0.646-0.149-1.146-0.448-1.5
		s-0.748-0.531-1.346-0.531c-0.44,0-0.853,0.1-1.237,0.299c-0.386,0.2-0.75,0.472-1.094,0.815v7.651H392.382z"/>
</g>
<g>
	<path fill="#FFFFFF" d="M166.463,144.073c0.083,0.01,0.156,0.031,0.222,0.062s0.129,0.076,0.191,0.134
		c0.062,0.058,0.13,0.136,0.206,0.232l7.827,9.972c-0.028-0.241-0.046-0.476-0.057-0.707s-0.016-0.445-0.016-0.645v-9.064h2.444
		v14.912h-1.433c-0.22,0-0.402-0.034-0.547-0.103c-0.144-0.069-0.285-0.192-0.422-0.372l-7.796-9.931
		c0.021,0.22,0.036,0.438,0.046,0.655c0.01,0.217,0.016,0.415,0.016,0.593v9.157h-2.444v-14.912h1.454
		C166.277,144.058,166.38,144.062,166.463,144.073z"/>
	<path fill="#FFFFFF" d="M184.664,148.224c0.791,0,1.507,0.127,2.15,0.382c0.643,0.254,1.191,0.615,1.645,1.083
		c0.454,0.468,0.805,1.038,1.052,1.712c0.248,0.674,0.372,1.427,0.372,2.258c0,0.839-0.124,1.595-0.372,2.269
		c-0.247,0.674-0.598,1.248-1.052,1.722c-0.454,0.474-1.002,0.839-1.645,1.093c-0.643,0.254-1.36,0.382-2.15,0.382
		s-1.509-0.127-2.155-0.382c-0.646-0.254-1.198-0.619-1.655-1.093c-0.457-0.475-0.811-1.048-1.062-1.722s-0.376-1.43-0.376-2.269
		c0-0.832,0.125-1.584,0.376-2.258s0.605-1.244,1.062-1.712c0.458-0.467,1.009-0.828,1.655-1.083S183.874,148.224,184.664,148.224z
		 M184.664,157.165c0.88,0,1.531-0.295,1.954-0.887s0.634-1.458,0.634-2.599c0-1.142-0.211-2.011-0.634-2.609
		s-1.074-0.897-1.954-0.897c-0.894,0-1.554,0.301-1.98,0.902s-0.639,1.469-0.639,2.604c0,1.134,0.213,1.999,0.639,2.593
		S183.771,157.165,184.664,157.165z"/>
	<path fill="#FFFFFF" d="M195.348,159.134c-0.915,0-1.619-0.259-2.114-0.779c-0.495-0.519-0.743-1.235-0.743-2.15v-5.909h-1.072
		c-0.138,0-0.256-0.044-0.356-0.134s-0.149-0.224-0.149-0.402v-1.011l1.701-0.278l0.537-2.888c0.027-0.137,0.091-0.244,0.19-0.319
		s0.225-0.114,0.376-0.114h1.32v3.331h2.784v1.815h-2.784v5.734c0,0.33,0.082,0.588,0.247,0.773s0.385,0.278,0.66,0.278
		c0.158,0,0.291-0.019,0.397-0.057s0.199-0.077,0.278-0.119c0.079-0.041,0.15-0.081,0.211-0.119
		c0.062-0.038,0.124-0.057,0.186-0.057c0.076,0,0.138,0.019,0.186,0.057c0.048,0.038,0.1,0.095,0.154,0.17l0.763,1.237
		c-0.371,0.31-0.797,0.543-1.279,0.701C196.362,159.055,195.863,159.134,195.348,159.134z"/>
	<path fill="#FFFFFF" d="M211.27,150.626c-0.076,0.096-0.149,0.172-0.222,0.227s-0.177,0.083-0.314,0.083
		c-0.131,0-0.258-0.04-0.382-0.119c-0.124-0.079-0.271-0.168-0.443-0.268s-0.376-0.189-0.613-0.268
		c-0.237-0.079-0.531-0.119-0.882-0.119c-0.447,0-0.839,0.081-1.176,0.242s-0.617,0.394-0.84,0.696
		c-0.224,0.302-0.39,0.668-0.5,1.098c-0.11,0.43-0.165,0.916-0.165,1.459c0,0.564,0.06,1.066,0.18,1.506
		c0.121,0.44,0.294,0.81,0.521,1.108c0.227,0.299,0.502,0.526,0.825,0.681c0.323,0.155,0.687,0.232,1.093,0.232
		s0.734-0.05,0.985-0.149s0.462-0.209,0.634-0.33c0.172-0.12,0.321-0.23,0.449-0.33c0.127-0.1,0.27-0.149,0.428-0.149
		c0.207,0,0.361,0.079,0.464,0.237l0.732,0.928c-0.282,0.33-0.588,0.606-0.918,0.83c-0.33,0.224-0.672,0.402-1.026,0.536
		s-0.72,0.229-1.098,0.284c-0.378,0.055-0.753,0.083-1.124,0.083c-0.653,0-1.269-0.122-1.846-0.366
		c-0.577-0.244-1.081-0.6-1.511-1.067c-0.43-0.467-0.77-1.04-1.021-1.717s-0.376-1.449-0.376-2.315c0-0.777,0.111-1.497,0.335-2.16
		c0.223-0.664,0.552-1.238,0.985-1.722c0.433-0.485,0.969-0.865,1.609-1.14c0.639-0.275,1.375-0.413,2.207-0.413
		c0.791,0,1.483,0.127,2.078,0.382c0.594,0.254,1.129,0.619,1.604,1.093L211.27,150.626z"/>
	<path fill="#FFFFFF" d="M218.188,148.224c0.791,0,1.507,0.127,2.15,0.382c0.643,0.254,1.191,0.615,1.645,1.083
		c0.454,0.468,0.805,1.038,1.052,1.712c0.248,0.674,0.372,1.427,0.372,2.258c0,0.839-0.124,1.595-0.372,2.269
		c-0.247,0.674-0.598,1.248-1.052,1.722c-0.454,0.474-1.002,0.839-1.645,1.093c-0.643,0.254-1.36,0.382-2.15,0.382
		s-1.509-0.127-2.155-0.382c-0.646-0.254-1.198-0.619-1.655-1.093c-0.457-0.475-0.811-1.048-1.062-1.722s-0.376-1.43-0.376-2.269
		c0-0.832,0.125-1.584,0.376-2.258s0.605-1.244,1.062-1.712c0.458-0.467,1.009-0.828,1.655-1.083S217.398,148.224,218.188,148.224z
		 M218.188,157.165c0.88,0,1.531-0.295,1.954-0.887s0.634-1.458,0.634-2.599c0-1.142-0.211-2.011-0.634-2.609
		s-1.074-0.897-1.954-0.897c-0.894,0-1.554,0.301-1.98,0.902s-0.639,1.469-0.639,2.604c0,1.134,0.213,1.999,0.639,2.593
		S217.295,157.165,218.188,157.165z"/>
	<path fill="#FFFFFF" d="M225.397,158.969v-10.581h1.495c0.261,0,0.443,0.048,0.546,0.145c0.104,0.096,0.172,0.261,0.207,0.495
		l0.155,1.279c0.378-0.653,0.821-1.168,1.33-1.547c0.509-0.378,1.079-0.567,1.712-0.567c0.522,0,0.956,0.12,1.299,0.361l-0.33,1.908
		c-0.021,0.124-0.065,0.211-0.134,0.263c-0.069,0.051-0.162,0.077-0.279,0.077c-0.103,0-0.244-0.024-0.422-0.072
		c-0.179-0.048-0.417-0.072-0.712-0.072c-0.529,0-0.983,0.146-1.361,0.438c-0.378,0.292-0.698,0.72-0.959,1.284v6.59H225.397z"/>
	<path fill="#FFFFFF" d="M233.822,158.969v-10.581h1.495c0.261,0,0.443,0.048,0.546,0.145c0.104,0.096,0.172,0.261,0.207,0.495
		l0.155,1.279c0.378-0.653,0.821-1.168,1.33-1.547c0.509-0.378,1.079-0.567,1.712-0.567c0.522,0,0.956,0.12,1.299,0.361l-0.33,1.908
		c-0.021,0.124-0.065,0.211-0.134,0.263c-0.069,0.051-0.162,0.077-0.279,0.077c-0.103,0-0.244-0.024-0.422-0.072
		c-0.179-0.048-0.417-0.072-0.712-0.072c-0.529,0-0.983,0.146-1.361,0.438c-0.378,0.292-0.698,0.72-0.959,1.284v6.59H233.822z"/>
	<path fill="#FFFFFF" d="M244.578,148.389v6.724c0,0.646,0.149,1.146,0.449,1.5c0.299,0.354,0.748,0.531,1.346,0.531
		c0.44,0,0.852-0.098,1.237-0.294c0.385-0.196,0.749-0.466,1.093-0.81v-7.652h2.547v10.581h-1.557c-0.33,0-0.546-0.155-0.649-0.464
		l-0.175-0.846c-0.22,0.22-0.447,0.421-0.681,0.603c-0.234,0.183-0.483,0.337-0.748,0.464c-0.265,0.127-0.55,0.227-0.856,0.299
		c-0.306,0.072-0.634,0.108-0.985,0.108c-0.578,0-1.088-0.098-1.532-0.294c-0.443-0.196-0.816-0.473-1.119-0.83
		c-0.303-0.357-0.531-0.782-0.686-1.273c-0.154-0.492-0.232-1.033-0.232-1.625v-6.724H244.578z"/>
	<path fill="#FFFFFF" d="M253.972,162.424v-14.035h1.557c0.165,0,0.306,0.038,0.423,0.113c0.117,0.076,0.192,0.193,0.227,0.351
		l0.207,0.98c0.426-0.488,0.916-0.883,1.469-1.186c0.554-0.302,1.202-0.454,1.944-0.454c0.578,0,1.105,0.12,1.583,0.361
		s0.89,0.589,1.238,1.047c0.347,0.457,0.615,1.021,0.804,1.691s0.284,1.438,0.284,2.305c0,0.791-0.107,1.522-0.32,2.196
		c-0.213,0.674-0.518,1.258-0.913,1.753c-0.396,0.495-0.873,0.882-1.434,1.16c-0.56,0.279-1.188,0.418-1.882,0.418
		c-0.598,0-1.105-0.091-1.521-0.273s-0.789-0.435-1.119-0.758v4.331H253.972z M258.922,150.204c-0.529,0-0.981,0.112-1.356,0.335
		c-0.375,0.223-0.724,0.538-1.047,0.943v4.744c0.289,0.357,0.604,0.607,0.944,0.748c0.34,0.141,0.706,0.211,1.098,0.211
		c0.385,0,0.734-0.072,1.047-0.216c0.312-0.145,0.577-0.364,0.794-0.66c0.216-0.295,0.383-0.668,0.5-1.119s0.175-0.981,0.175-1.593
		c0-0.619-0.05-1.143-0.149-1.573s-0.242-0.779-0.428-1.047c-0.186-0.268-0.411-0.464-0.676-0.588
		C259.56,150.266,259.259,150.204,258.922,150.204z"/>
	<path fill="#FFFFFF" d="M269.11,159.134c-0.915,0-1.619-0.259-2.114-0.779c-0.495-0.519-0.743-1.235-0.743-2.15v-5.909h-1.072
		c-0.138,0-0.256-0.044-0.356-0.134s-0.149-0.224-0.149-0.402v-1.011l1.701-0.278l0.537-2.888c0.027-0.137,0.091-0.244,0.19-0.319
		s0.225-0.114,0.376-0.114h1.32v3.331h2.784v1.815h-2.784v5.734c0,0.33,0.082,0.588,0.247,0.773s0.385,0.278,0.66,0.278
		c0.158,0,0.291-0.019,0.397-0.057s0.199-0.077,0.278-0.119c0.079-0.041,0.15-0.081,0.211-0.119
		c0.062-0.038,0.124-0.057,0.186-0.057c0.076,0,0.138,0.019,0.186,0.057c0.048,0.038,0.1,0.095,0.154,0.17l0.763,1.237
		c-0.371,0.31-0.797,0.543-1.279,0.701C270.125,159.055,269.626,159.134,269.11,159.134z"/>
	<path fill="#FFFFFF" d="M276.71,145.305c0,0.22-0.045,0.426-0.134,0.619c-0.089,0.193-0.208,0.361-0.355,0.505
		c-0.148,0.145-0.322,0.26-0.521,0.346c-0.2,0.086-0.413,0.129-0.639,0.129c-0.22,0-0.428-0.043-0.624-0.129
		s-0.366-0.201-0.511-0.346c-0.144-0.144-0.259-0.312-0.345-0.505c-0.086-0.192-0.129-0.398-0.129-0.619
		c0-0.227,0.043-0.44,0.129-0.639s0.201-0.372,0.345-0.516c0.145-0.145,0.315-0.26,0.511-0.346s0.404-0.129,0.624-0.129
		c0.227,0,0.439,0.043,0.639,0.129c0.199,0.086,0.373,0.201,0.521,0.346c0.147,0.144,0.266,0.316,0.355,0.516
		S276.71,145.079,276.71,145.305z M276.329,148.389v10.581h-2.547v-10.581H276.329z"/>
	<path fill="#FFFFFF" d="M283.723,148.224c0.791,0,1.507,0.127,2.15,0.382c0.643,0.254,1.191,0.615,1.645,1.083
		c0.454,0.468,0.805,1.038,1.052,1.712c0.248,0.674,0.372,1.427,0.372,2.258c0,0.839-0.124,1.595-0.372,2.269
		c-0.247,0.674-0.598,1.248-1.052,1.722c-0.454,0.474-1.002,0.839-1.645,1.093c-0.643,0.254-1.36,0.382-2.15,0.382
		s-1.509-0.127-2.155-0.382c-0.646-0.254-1.198-0.619-1.655-1.093c-0.457-0.475-0.811-1.048-1.062-1.722s-0.376-1.43-0.376-2.269
		c0-0.832,0.125-1.584,0.376-2.258s0.605-1.244,1.062-1.712c0.458-0.467,1.009-0.828,1.655-1.083S282.932,148.224,283.723,148.224z
		 M283.723,157.165c0.88,0,1.531-0.295,1.954-0.887s0.634-1.458,0.634-2.599c0-1.142-0.211-2.011-0.634-2.609
		s-1.074-0.897-1.954-0.897c-0.894,0-1.554,0.301-1.98,0.902s-0.639,1.469-0.639,2.604c0,1.134,0.213,1.999,0.639,2.593
		S282.829,157.165,283.723,157.165z"/>
	<path fill="#FFFFFF" d="M290.931,158.969v-10.581h1.557c0.33,0,0.546,0.155,0.649,0.464l0.175,0.835
		c0.213-0.22,0.438-0.419,0.676-0.598s0.488-0.333,0.753-0.464c0.264-0.131,0.548-0.23,0.851-0.299
		c0.302-0.068,0.632-0.103,0.99-0.103c0.578,0,1.09,0.098,1.537,0.294s0.82,0.471,1.119,0.825c0.299,0.354,0.526,0.777,0.681,1.268
		c0.154,0.492,0.232,1.033,0.232,1.625v6.734h-2.547v-6.734c0-0.646-0.149-1.146-0.449-1.5c-0.299-0.354-0.748-0.531-1.346-0.531
		c-0.44,0-0.853,0.1-1.237,0.299c-0.385,0.199-0.75,0.471-1.093,0.814v7.652H290.931z"/>
</g>
<g>
	<path fill="#FFFFFF" d="M297.59,400.217c-0.925,0-1.772-0.123-2.541-0.369c-0.77-0.246-1.431-0.599-1.983-1.057
		c-0.553-0.458-0.981-1.013-1.284-1.666c-0.303-0.652-0.454-1.385-0.454-2.197c0-1.192,0.311-2.176,0.934-2.949
		c0.622-0.773,1.512-1.324,2.67-1.653c-0.977-0.363-1.713-0.905-2.21-1.627s-0.746-1.584-0.746-2.586
		c0-0.683,0.134-1.323,0.402-1.919c0.268-0.597,0.648-1.115,1.141-1.556c0.493-0.441,1.083-0.787,1.77-1.037
		c0.687-0.251,1.454-0.376,2.301-0.376c0.838,0,1.603,0.125,2.294,0.376c0.691,0.25,1.284,0.596,1.776,1.037
		c0.492,0.44,0.873,0.959,1.141,1.556c0.268,0.596,0.402,1.236,0.402,1.919c0,1.002-0.25,1.864-0.752,2.586
		s-1.236,1.264-2.204,1.627c1.159,0.329,2.047,0.88,2.67,1.653s0.934,1.757,0.934,2.949c0,0.812-0.154,1.545-0.461,2.197
		c-0.307,0.653-0.734,1.208-1.283,1.666s-1.208,0.811-1.977,1.057C299.361,400.094,298.515,400.217,297.59,400.217z M297.59,398.376
		c0.605,0,1.147-0.084,1.627-0.253c0.48-0.168,0.886-0.405,1.219-0.713c0.333-0.307,0.588-0.674,0.766-1.102
		c0.176-0.428,0.266-0.901,0.266-1.42c0-0.64-0.107-1.187-0.318-1.64c-0.212-0.454-0.497-0.823-0.855-1.108
		c-0.359-0.285-0.771-0.495-1.238-0.629s-0.955-0.201-1.465-0.201c-0.51,0-0.998,0.067-1.465,0.201s-0.88,0.344-1.238,0.629
		c-0.359,0.285-0.644,0.654-0.855,1.108c-0.212,0.453-0.318,1-0.318,1.64c0,0.519,0.089,0.992,0.266,1.42
		c0.177,0.428,0.432,0.795,0.765,1.102c0.333,0.308,0.739,0.545,1.219,0.713C296.442,398.292,296.985,398.376,297.59,398.376z
		 M297.59,389.457c0.605,0,1.122-0.093,1.549-0.279c0.428-0.186,0.775-0.432,1.043-0.738c0.268-0.308,0.462-0.659,0.583-1.057
		s0.182-0.809,0.182-1.232c0-0.432-0.071-0.838-0.214-1.219c-0.143-0.38-0.354-0.713-0.635-0.998
		c-0.281-0.285-0.631-0.51-1.05-0.674c-0.419-0.164-0.905-0.246-1.458-0.246s-1.04,0.082-1.458,0.246
		c-0.419,0.164-0.77,0.389-1.05,0.674s-0.493,0.618-0.635,0.998c-0.143,0.381-0.214,0.787-0.214,1.219
		c0,0.424,0.061,0.835,0.182,1.232s0.315,0.749,0.583,1.057c0.268,0.307,0.616,0.553,1.043,0.738
		C296.468,389.364,296.985,389.457,297.59,389.457z"/>
	<path fill="#FFFFFF" d="M316.829,393.308h2.813v1.322c0,0.138-0.042,0.255-0.124,0.35c-0.082,0.096-0.209,0.143-0.382,0.143h-2.308
		v4.888h-2.036v-4.888h-8.231c-0.174,0-0.322-0.05-0.447-0.149c-0.126-0.099-0.206-0.222-0.24-0.369l-0.233-1.18l9.036-11.992h2.152
		V393.308z M314.793,385.646c0-0.225,0.007-0.467,0.02-0.727c0.014-0.259,0.041-0.527,0.085-0.804l-6.755,9.192h6.65V385.646z"/>
	<path fill="#FFFFFF" d="M329.326,385.917c0,0.727-0.112,1.377-0.337,1.951c-0.226,0.575-0.525,1.06-0.901,1.452
		c-0.376,0.394-0.814,0.694-1.316,0.901c-0.501,0.207-1.023,0.312-1.568,0.312c-0.588,0-1.13-0.104-1.627-0.312
		s-0.932-0.508-1.303-0.901c-0.372-0.393-0.661-0.877-0.869-1.452c-0.207-0.574-0.311-1.225-0.311-1.951
		c0-0.743,0.104-1.404,0.311-1.983c0.208-0.579,0.497-1.067,0.869-1.465c0.371-0.397,0.806-0.7,1.303-0.907
		c0.497-0.208,1.039-0.312,1.627-0.312c0.579,0,1.121,0.104,1.627,0.312c0.506,0.207,0.942,0.51,1.31,0.907s0.657,0.886,0.869,1.465
		C329.22,384.513,329.326,385.174,329.326,385.917z M335.821,381.898c0.112-0.146,0.23-0.262,0.356-0.344
		c0.125-0.082,0.292-0.123,0.499-0.123h1.659l-13.573,18.202c-0.087,0.112-0.19,0.203-0.312,0.272s-0.264,0.104-0.428,0.104h-1.711
		L335.821,381.898z M327.523,385.917c0-0.57-0.061-1.054-0.181-1.451c-0.121-0.397-0.288-0.725-0.5-0.979
		c-0.211-0.255-0.458-0.438-0.738-0.551c-0.281-0.112-0.582-0.169-0.901-0.169s-0.62,0.057-0.9,0.169
		c-0.281,0.112-0.525,0.296-0.733,0.551c-0.207,0.255-0.369,0.582-0.485,0.979c-0.117,0.397-0.176,0.881-0.176,1.451
		c0,0.562,0.059,1.04,0.176,1.433c0.116,0.394,0.278,0.714,0.485,0.96c0.208,0.246,0.452,0.424,0.733,0.531
		c0.28,0.108,0.581,0.162,0.9,0.162s0.62-0.054,0.901-0.162c0.28-0.107,0.527-0.285,0.738-0.531c0.212-0.246,0.379-0.566,0.5-0.96
		C327.463,386.957,327.523,386.479,327.523,385.917z M339.594,395.628c0,0.726-0.112,1.374-0.337,1.944s-0.525,1.053-0.901,1.445
		c-0.376,0.394-0.812,0.694-1.31,0.901s-1.018,0.312-1.562,0.312c-0.588,0-1.131-0.104-1.627-0.312
		c-0.498-0.207-0.932-0.508-1.304-0.901c-0.371-0.393-0.661-0.875-0.868-1.445c-0.208-0.57-0.312-1.219-0.312-1.944
		c0-0.743,0.104-1.407,0.312-1.99c0.207-0.583,0.497-1.074,0.868-1.472c0.372-0.397,0.806-0.7,1.304-0.907
		c0.496-0.207,1.039-0.312,1.627-0.312c0.578,0,1.119,0.104,1.62,0.312s0.938,0.51,1.31,0.907c0.371,0.397,0.661,0.889,0.868,1.472
		C339.49,394.221,339.594,394.885,339.594,395.628z M337.805,395.628c0-0.57-0.061-1.057-0.182-1.459
		c-0.121-0.401-0.287-0.728-0.499-0.979s-0.458-0.432-0.739-0.545c-0.28-0.111-0.581-0.168-0.9-0.168
		c-0.32,0-0.621,0.057-0.901,0.168c-0.281,0.113-0.525,0.294-0.732,0.545c-0.208,0.251-0.369,0.577-0.486,0.979
		c-0.116,0.402-0.175,0.889-0.175,1.459c0,0.562,0.059,1.037,0.175,1.426c0.117,0.389,0.278,0.707,0.486,0.953
		c0.207,0.246,0.451,0.424,0.732,0.531c0.28,0.108,0.581,0.162,0.901,0.162c0.319,0,0.62-0.054,0.9-0.162
		c0.281-0.107,0.527-0.285,0.739-0.531s0.378-0.564,0.499-0.953S337.805,396.189,337.805,395.628z"/>
</g>
<g>
	<path fill="#FFFFFF" d="M141.683,94.187h3.993V81.521c0-0.38,0.013-0.765,0.039-1.154l-3.319,2.839
		c-0.086,0.069-0.173,0.119-0.259,0.149s-0.168,0.045-0.246,0.045c-0.13,0-0.247-0.028-0.35-0.084s-0.182-0.123-0.233-0.201
		l-0.726-0.998l5.523-4.784h1.88v16.854h3.656v1.763h-9.957V94.187z"/>
	<path fill="#FFFFFF" d="M161.427,84.567c0.743,0,1.448,0.123,2.113,0.37c0.666,0.246,1.249,0.605,1.75,1.076
		c0.501,0.471,0.899,1.05,1.193,1.737c0.294,0.688,0.441,1.472,0.441,2.353c0,0.856-0.156,1.651-0.467,2.386
		c-0.311,0.735-0.746,1.374-1.303,1.918c-0.557,0.545-1.229,0.973-2.016,1.284c-0.787,0.311-1.651,0.467-2.593,0.467
		c-0.934,0-1.778-0.149-2.535-0.447c-0.756-0.298-1.402-0.722-1.938-1.271c-0.536-0.549-0.949-1.214-1.238-1.997
		s-0.435-1.657-0.435-2.625c0-0.812,0.182-1.677,0.545-2.593c0.363-0.916,0.938-1.901,1.724-2.956l4.706-6.339
		c0.121-0.156,0.29-0.287,0.505-0.396c0.216-0.108,0.462-0.162,0.739-0.162h2.048l-6.443,8.155c0.441-0.303,0.929-0.538,1.465-0.707
		C160.226,84.652,160.805,84.567,161.427,84.567z M156.63,90.22c0,0.597,0.086,1.141,0.259,1.634s0.426,0.916,0.759,1.271
		c0.333,0.354,0.739,0.629,1.218,0.823c0.48,0.194,1.026,0.292,1.64,0.292c0.622,0,1.184-0.099,1.686-0.298
		c0.501-0.199,0.931-0.476,1.29-0.83c0.359-0.354,0.635-0.773,0.83-1.257c0.194-0.484,0.292-1.011,0.292-1.582
		c0-0.605-0.095-1.152-0.285-1.64c-0.19-0.488-0.458-0.903-0.804-1.245s-0.761-0.603-1.245-0.784
		c-0.484-0.182-1.016-0.272-1.595-0.272c-0.622,0-1.184,0.106-1.685,0.318c-0.501,0.211-0.927,0.497-1.277,0.855
		c-0.35,0.359-0.618,0.773-0.804,1.245S156.63,89.71,156.63,90.22z"/>
	<path fill="#FFFFFF" d="M177.204,81.858c0,0.726-0.113,1.376-0.337,1.951s-0.525,1.059-0.901,1.452
		c-0.376,0.393-0.815,0.693-1.316,0.901c-0.501,0.208-1.024,0.311-1.569,0.311c-0.588,0-1.13-0.104-1.627-0.311
		s-0.931-0.508-1.303-0.901c-0.372-0.394-0.661-0.877-0.869-1.452s-0.311-1.225-0.311-1.951c0-0.743,0.104-1.404,0.311-1.983
		s0.497-1.067,0.869-1.465c0.372-0.397,0.806-0.7,1.303-0.907c0.497-0.208,1.039-0.312,1.627-0.312c0.579,0,1.122,0.104,1.627,0.312
		c0.506,0.207,0.942,0.51,1.31,0.907c0.367,0.398,0.657,0.886,0.869,1.465S177.204,81.115,177.204,81.858z M183.699,77.839
		c0.112-0.147,0.231-0.261,0.356-0.344c0.125-0.082,0.292-0.123,0.499-0.123h1.659l-13.573,18.202
		c-0.087,0.112-0.19,0.203-0.312,0.272c-0.121,0.069-0.264,0.104-0.428,0.104h-1.711L183.699,77.839z M175.402,81.858
		c0-0.57-0.061-1.054-0.182-1.452c-0.121-0.397-0.287-0.724-0.499-0.979s-0.458-0.439-0.739-0.551
		c-0.281-0.112-0.582-0.168-0.901-0.168s-0.62,0.056-0.901,0.168s-0.525,0.296-0.732,0.551s-0.37,0.581-0.486,0.979
		c-0.117,0.398-0.175,0.882-0.175,1.452c0,0.562,0.058,1.04,0.175,1.433s0.279,0.713,0.486,0.959
		c0.208,0.246,0.452,0.423,0.732,0.531c0.281,0.108,0.581,0.162,0.901,0.162s0.62-0.054,0.901-0.162
		c0.281-0.108,0.527-0.285,0.739-0.531c0.212-0.247,0.378-0.566,0.499-0.959S175.402,82.42,175.402,81.858z M187.472,91.568
		c0,0.726-0.112,1.374-0.337,1.944c-0.225,0.571-0.525,1.053-0.901,1.446s-0.812,0.693-1.309,0.901
		c-0.497,0.208-1.018,0.311-1.562,0.311c-0.588,0-1.13-0.104-1.627-0.311s-0.931-0.508-1.303-0.901
		c-0.372-0.393-0.661-0.875-0.869-1.446c-0.208-0.57-0.311-1.218-0.311-1.944c0-0.743,0.104-1.407,0.311-1.99
		s0.497-1.074,0.869-1.471c0.372-0.397,0.806-0.7,1.303-0.908s1.039-0.311,1.627-0.311c0.579,0,1.119,0.104,1.621,0.311
		c0.501,0.208,0.938,0.51,1.31,0.908c0.372,0.397,0.661,0.888,0.869,1.471C187.368,90.162,187.472,90.825,187.472,91.568z
		 M185.683,91.568c0-0.571-0.061-1.057-0.182-1.458s-0.288-0.728-0.499-0.979c-0.212-0.25-0.458-0.432-0.739-0.544
		s-0.581-0.168-0.901-0.168s-0.62,0.056-0.901,0.168c-0.281,0.112-0.525,0.294-0.732,0.544c-0.208,0.251-0.37,0.577-0.486,0.979
		s-0.175,0.888-0.175,1.458c0,0.562,0.058,1.037,0.175,1.426c0.117,0.389,0.279,0.707,0.486,0.953
		c0.208,0.246,0.451,0.423,0.732,0.531c0.281,0.108,0.581,0.162,0.901,0.162s0.62-0.054,0.901-0.162
		c0.281-0.108,0.527-0.285,0.739-0.531c0.211-0.247,0.378-0.564,0.499-0.953C185.622,92.605,185.683,92.13,185.683,91.568z"/>
</g>
</svg>
