<?xml version="1.0" encoding="utf-8"?>
<!-- Generator: Adobe Illustrator 16.0.0, SVG Export Plug-In . SVG Version: 6.00 Build 0)  -->
<!DOCTYPE svg PUBLIC "-//W3C//DTD SVG 1.1//EN" "http://www.w3.org/Graphics/SVG/1.1/DTD/svg11.dtd">
<svg version="1.1" id="Layer_1" xmlns="http://www.w3.org/2000/svg" xmlns:xlink="http://www.w3.org/1999/xlink" x="0px" y="0px"
	 width="300px" height="239.363px" viewBox="0 0 300 239.363" enable-background="new 0 0 300 239.363" xml:space="preserve">
<g>
	<path fill-rule="evenodd" clip-rule="evenodd" fill="#0E5461" d="M192.911,9.079c0,10.348,0,20.404,0,30.812
		c4.816-7.185,12.021-8.234,16.61-3.75c3.307,3.229,3.654,10.562-0.249,13.663c-1.745,1.385-8.827,6.549-16.429-2.761
		c0,1.928,0,4.846,0,7.871c1.593-0.304,3.07-1.013,4.365-0.764c8.65,1.663,14.854-2.688,20.829-7.974
		c3.468-3.067,11.729-9.438,13.219-10.585l6.107,8.606c-5.952,4.555-17.093,12.701-22.941,17.386
		c-1.161,0.93-2.481,2.456-2.572,3.789c-0.316,4.609-0.125,9.254-0.125,14.28c25.794,0,50.9,0,76.151,0c0-23.702,0-47.117,0-70.573
		C256.044,9.079,224.62,9.079,192.911,9.079z"/>
	<path fill-rule="evenodd" clip-rule="evenodd" fill="#0E5461" d="M186.013,83.779c2.718-4.386,6.051-10.27,9.103-15.211
		c0.446,1.914-0.105,30.149-5.306,40.368c-2.021,3.972-3.114,8.413-4.687,12.618c-0.923,2.466-2.051,4.506,1.854,5.858
		c3.989,1.378,4.24-1.216,5.091-3.55c2.876-7.876,5.727-15.762,8.615-23.633c0.376-1.025,1.017-10.561,1.815-12.23
		c0.804,1.635,1.231,11.071,1.574,11.996c2.857,7.727,5.7,15.456,8.503,23.197c2.104,5.817,2.428,5.935,8.473,2.162
		c-3.202-8.865-6.483-17.822-9.645-26.822c-0.633-1.8-1.1-3.756-1.125-5.648c-0.127-8.835-0.172-17.544,0.031-26.506
		c0.038-1.782,1.117-4.084,2.507-5.188c6.17-4.89,18.061-14.025,18.885-15.048c3.607-4.497-1.382-7.776-6.172-4.081
		c-3.2,2.473-6.432,4.967-9.551,7.47c-5.299,4.249-10.467,7.274-17.401,6.055c-2.612-0.459-4.069,0.8-5.249,3.097
		c-3.491,6.793-7.599,14.311-11.201,21.045C177.398,87.505,182.225,89.887,186.013,83.779z"/>
	<path fill-rule="evenodd" clip-rule="evenodd" fill="#0E5461" d="M210.378,42.919c0.025-4.401-3.532-8-7.89-7.979
		c-4.391,0.018-7.876,3.62-7.795,8.051c0.08,4.313,3.34,7.59,7.652,7.683C206.854,50.772,210.349,47.396,210.378,42.919z"/>
	<path fill-rule="evenodd" clip-rule="evenodd" fill="#0E5461" d="M144.289,123.476c2.495,0.021,4.992,0.056,7.487,0.097
		c0.133,0.004,0.265,0.144,0.521,0.294c-0.36,4.417-0.726,8.895-1.095,13.398c1.92,0.753,2.617,0.178,2.695-1.767
		c0.121-3.154,0.467-6.299,1.221-9.445c0.534,2.936,1.076,5.869,1.593,8.805c0.319,1.806,1.042,3.258,3.189,2.824
		c2.021-0.41,2.111-1.971,1.795-3.668c-0.763-4.06-1.522-8.119-2.218-12.188c-0.347-1.993-0.975-3.618-3.487-3.949
		c0.762-0.196,1.521-0.55,2.287-0.559c3.979-0.052,7.961,0.028,11.942-0.033c2.217-0.035,3.241,0.874,3.413,3.145
		c0.417,5.593,1.006,11.173,1.548,17.001c0.695,0.042,1.408,0.085,2.417,0.149c-0.454-5.581-0.879-10.917-1.333-16.252
		c-0.143-1.677-0.89-3.336,0.537-4.942c0.415-0.467,0.064-1.618,0.064-2.597c-8.354,0-16.509,0-25.137,0
		c0.315,1.547,0.586,2.866,0.895,4.384c-1.372,0-3.061,0-5.41,0c0.988-3.287,1.93-6.433,2.876-9.58
		c3.576,0.623,7.15,1.287,10.736,1.847c1.352,0.211,2.68-0.204,2.697-1.8c0.021-1.603-1.273-1.84-2.653-1.887
		c-3.949-0.133-7.881-0.428-11.26-2.842c0.233-0.265,0.729-0.67,0.674-0.771c-0.957-1.711-2.516-2.587-4.29-1.748
		c-1.395,0.663-3.086,1.764-3.582,3.067c-1.574,4.192-3.005,8.506-3.825,12.898C137.865,121.224,140.29,123.44,144.289,123.476z"/>
	<path fill-rule="evenodd" clip-rule="evenodd" fill="#0E5461" d="M147.211,124.943c-4.248,0-8.26,0-12.487,0
		c-0.698,4.025-1.377,7.974-2.09,12.12c5.596,0,10.991,0,16.626,0C148.583,133.061,147.917,129.121,147.211,124.943z"/>
	<path fill-rule="evenodd" clip-rule="evenodd" fill="#0E5461" d="M152.715,101.574c2.798,0.017,5.028-2.189,5.067-5.013
		c0.038-2.885-2.309-5.27-5.125-5.21c-2.764,0.061-4.943,2.335-4.932,5.157C147.73,99.342,149.914,101.553,152.715,101.574z"/>
	<path fill-rule="evenodd" clip-rule="evenodd" fill="#0E5461" d="M90.689,137.375c2.741,0.022,5.482,0.061,8.221,0.108
		c0.148,0.002,0.293,0.158,0.573,0.321c-0.394,4.853-0.799,9.771-1.198,14.717c2.105,0.828,2.871,0.195,2.954-1.941
		c0.135-3.463,0.516-6.919,1.346-10.374c0.581,3.224,1.178,6.443,1.746,9.669c0.35,1.984,1.144,3.579,3.503,3.102
		c2.22-0.45,2.318-2.167,1.968-4.03c-0.835-4.458-1.667-8.915-2.438-13.384c-0.376-2.191-1.068-3.976-3.825-4.34
		c0.837-0.212,1.673-0.6,2.51-0.61c4.37-0.057,8.748,0.031,13.117-0.037c2.438-0.039,3.561,0.959,3.748,3.452
		c0.461,6.144,1.104,12.272,1.699,18.675c0.765,0.044,1.548,0.093,2.658,0.161c-0.5-6.129-0.97-11.989-1.465-17.849
		c-0.153-1.841-0.978-3.663,0.591-5.428c0.456-0.512,0.067-1.775,0.067-2.852c-9.173,0-18.13,0-27.604,0
		c0.347,1.699,0.646,3.147,0.983,4.816c-1.51,0-3.364,0-5.941,0c1.084-3.61,2.119-7.067,3.159-10.521
		c3.929,0.685,7.85,1.412,11.789,2.026c1.483,0.232,2.943-0.224,2.964-1.977c0.021-1.758-1.403-2.019-2.915-2.071
		c-4.338-0.146-8.654-0.471-12.37-3.121c0.262-0.291,0.804-0.738,0.742-0.848c-1.048-1.88-2.759-2.841-4.709-1.918
		c-1.533,0.725-3.39,1.934-3.932,3.366c-1.73,4.604-3.301,9.343-4.201,14.164C83.633,134.902,86.296,137.335,90.689,137.375z"/>
	<path fill-rule="evenodd" clip-rule="evenodd" fill="#0E5461" d="M93.897,138.986c-4.666,0-9.071,0-13.713,0
		c-0.763,4.42-1.512,8.759-2.295,13.312c6.149,0,12.069,0,18.26,0C95.407,147.9,94.673,143.576,93.897,138.986z"/>
	<path fill-rule="evenodd" clip-rule="evenodd" fill="#0E5461" d="M99.945,113.321c3.068,0.019,5.519-2.404,5.56-5.506
		c0.046-3.168-2.534-5.787-5.627-5.721c-3.034,0.067-5.423,2.566-5.417,5.664C94.471,110.869,96.864,113.297,99.945,113.321z"/>
	<path fill-rule="evenodd" clip-rule="evenodd" fill="#0E5461" d="M71.639,145.579c0.568-0.642,0.088-2.221,0.088-3.568
		c-11.483,0-22.684,0-34.536,0c0.436,2.126,0.804,3.937,1.232,6.024c-1.891,0-4.209,0-7.438,0c1.359-4.516,2.656-8.838,3.953-13.161
		c4.917,0.854,9.823,1.766,14.751,2.535c1.856,0.291,3.68-0.279,3.706-2.473c0.029-2.202-1.753-2.526-3.644-2.591
		c-5.431-0.184-10.827-0.588-15.475-3.905c0.327-0.363,1.004-0.922,0.929-1.061c-1.312-2.351-3.457-3.553-5.895-2.398
		c-1.917,0.906-4.24,2.418-4.914,4.211c-2.171,5.758-4.131,11.686-5.259,17.72c-0.993,5.314,2.336,8.358,7.832,8.408
		c3.431,0.03,6.859,0.078,10.288,0.136c0.179,0.004,0.36,0.197,0.713,0.402c-0.495,6.07-0.998,12.223-1.499,18.41
		c2.635,1.035,3.594,0.244,3.695-2.429c0.171-4.332,0.643-8.654,1.683-12.977c0.729,4.034,1.478,8.062,2.189,12.098
		c0.436,2.479,1.429,4.476,4.377,3.879c2.777-0.564,2.902-2.71,2.463-5.042c-1.047-5.577-2.087-11.154-3.044-16.744
		c-0.475-2.74-1.338-4.973-4.792-5.428c1.05-0.268,2.093-0.752,3.141-0.766c5.469-0.071,10.941,0.04,16.411-0.044
		c3.047-0.048,4.453,1.199,4.689,4.319c0.578,7.684,1.379,15.35,2.126,23.358c0.954,0.059,1.937,0.118,3.325,0.204
		c-0.625-7.667-1.214-14.999-1.833-22.329C70.705,150.066,69.676,147.785,71.639,145.579z"/>
	<path fill-rule="evenodd" clip-rule="evenodd" fill="#0E5461" d="M13.828,157.335c-0.957,5.53-1.893,10.957-2.874,16.654
		c7.692,0,15.101,0,22.845,0c-0.931-5.5-1.844-10.913-2.816-16.654C25.146,157.335,19.634,157.335,13.828,157.335z"/>
	<path fill-rule="evenodd" clip-rule="evenodd" fill="#0E5461" d="M38.548,125.228c3.841,0.024,6.903-3.007,6.958-6.887
		c0.054-3.964-3.169-7.241-7.043-7.158c-3.797,0.086-6.784,3.21-6.774,7.085C31.696,122.161,34.697,125.201,38.548,125.228z"/>
	<path fill-rule="evenodd" clip-rule="evenodd" fill="#0E5461" d="M242.657,156.396c0.394-0.486-0.011-1.62-0.055-2.597
		c-8.349,0.39-16.494,0.773-25.111,1.176c0.389,1.531,0.721,2.835,1.102,4.338c-1.374,0.065-3.06,0.143-5.406,0.254
		c0.832-3.33,1.626-6.517,2.425-9.705c3.602,0.454,7.201,0.949,10.809,1.341c1.364,0.148,2.666-0.329,2.611-1.923
		c-0.055-1.603-1.361-1.779-2.741-1.761c-3.949,0.052-7.889-0.059-11.38-2.312c0.227-0.275,0.698-0.706,0.639-0.801
		c-1.035-1.667-2.635-2.468-4.367-1.546c-1.361,0.726-3.001,1.906-3.432,3.23c-1.379,4.261-2.604,8.639-3.218,13.062
		c-0.542,3.9,1.983,6,5.98,5.848c2.497-0.096,4.992-0.178,7.484-0.253c0.132-0.001,0.27,0.132,0.534,0.268
		c-0.156,4.431-0.309,8.921-0.465,13.437c1.95,0.664,2.622,0.056,2.604-1.891c-0.021-3.158,0.176-6.316,0.783-9.492
		c0.666,2.907,1.348,5.811,1.999,8.719c0.404,1.79,1.195,3.207,3.319,2.672c1.997-0.504,2.018-2.069,1.621-3.75
		c-0.952-4.02-1.898-8.037-2.791-12.071c-0.436-1.975-1.138-3.568-3.667-3.781c0.753-0.231,1.497-0.62,2.262-0.666
		c3.971-0.237,7.954-0.343,11.927-0.592c2.215-0.139,3.278,0.722,3.556,2.981c0.682,5.566,1.527,11.114,2.345,16.911
		c0.694,0.009,1.41,0.02,2.425,0.034c-0.722-5.554-1.396-10.863-2.096-16.171C242.131,159.687,241.309,158.066,242.657,156.396z"/>
	<path fill-rule="evenodd" clip-rule="evenodd" fill="#0E5461" d="M201.025,166.914c-0.503,4.055-1.001,8.03-1.52,12.206
		c5.592-0.262,10.978-0.514,16.608-0.778c-0.861-3.966-1.712-7.871-2.611-12.012C209.255,166.528,205.248,166.716,201.025,166.914z"
		/>
	<path fill-rule="evenodd" clip-rule="evenodd" fill="#0E5461" d="M212.681,137.9c0.14,2.832,2.422,4.938,5.226,4.828
		c2.79-0.114,4.914-2.421,4.82-5.244c-0.093-2.885-2.549-5.157-5.36-4.963C214.609,132.711,212.54,135.084,212.681,137.9z"/>
	<path fill-rule="evenodd" clip-rule="evenodd" fill="#0E5461" d="M192.924,171.944c0.434-0.533-0.013-1.778-0.062-2.853
		c-9.165,0.429-18.112,0.849-27.575,1.293c0.431,1.682,0.791,3.113,1.211,4.765c-1.512,0.071-3.361,0.158-5.937,0.279
		c0.913-3.657,1.784-7.158,2.658-10.659c3.958,0.5,7.91,1.045,11.873,1.473c1.496,0.163,2.928-0.361,2.868-2.114
		c-0.06-1.758-1.491-1.952-3.006-1.932c-4.342,0.057-8.667-0.065-12.505-2.539c0.249-0.301,0.768-0.773,0.702-0.883
		c-1.136-1.827-2.892-2.708-4.795-1.695c-1.499,0.796-3.296,2.09-3.768,3.548c-1.518,4.678-2.863,9.486-3.535,14.346
		c-0.596,4.282,2.179,6.587,6.569,6.421c2.741-0.105,5.477-0.196,8.218-0.276c0.146-0.005,0.299,0.144,0.584,0.293
		c-0.164,4.867-0.335,9.796-0.506,14.757c2.14,0.728,2.879,0.06,2.86-2.077c-0.026-3.467,0.189-6.936,0.858-10.425
		c0.731,3.192,1.48,6.38,2.199,9.578c0.44,1.964,1.31,3.52,3.644,2.934c2.194-0.554,2.215-2.274,1.779-4.12
		c-1.048-4.411-2.085-8.826-3.065-13.254c-0.478-2.17-1.253-3.921-4.025-4.156c0.828-0.251,1.645-0.678,2.479-0.728
		c4.364-0.262,8.739-0.378,13.102-0.651c2.433-0.152,3.6,0.791,3.903,3.273c0.749,6.115,1.678,12.207,2.572,18.573
		c0.766,0.01,1.554,0.021,2.663,0.037c-0.788-6.099-1.529-11.93-2.297-17.761C192.352,175.561,191.443,173.779,192.924,171.944z"/>
	<path fill-rule="evenodd" clip-rule="evenodd" fill="#0E5461" d="M147.204,183.497c-0.555,4.451-1.097,8.82-1.67,13.405
		c6.141-0.288,12.059-0.565,18.244-0.854c-0.949-4.358-1.883-8.645-2.873-13.192C156.241,183.072,151.843,183.279,147.204,183.497z"
		/>
	<path fill-rule="evenodd" clip-rule="evenodd" fill="#0E5461" d="M165.149,145.725c-3.029,0.208-5.298,2.816-5.146,5.91
		c0.153,3.108,2.658,5.42,5.734,5.299c3.07-0.125,5.404-2.659,5.301-5.76C170.936,148.008,168.238,145.512,165.149,145.725z"/>
	<path fill-rule="evenodd" clip-rule="evenodd" fill="#0E5461" d="M138.978,190.483c0.537-0.667-0.018-2.223-0.083-3.568
		c-11.465,0.538-22.655,1.063-34.497,1.618c0.537,2.104,0.993,3.895,1.515,5.959c-1.888,0.089-4.201,0.197-7.428,0.349
		c1.144-4.574,2.238-8.953,3.333-13.333c4.948,0.624,9.894,1.306,14.852,1.841c1.867,0.204,3.662-0.45,3.589-2.644
		c-0.078-2.199-1.873-2.44-3.766-2.416c-5.43,0.071-10.843-0.082-15.64-3.177c0.309-0.377,0.959-0.968,0.876-1.102
		c-1.421-2.289-3.615-3.389-6.001-2.123c-1.867,0.996-4.121,2.617-4.712,4.438c-1.896,5.854-3.579,11.866-4.421,17.947
		c-0.745,5.355,2.728,8.239,8.218,8.033c3.428-0.132,6.854-0.244,10.283-0.346c0.181-0.005,0.368,0.179,0.731,0.367
		c-0.208,6.086-0.422,12.257-0.638,18.46c2.682,0.911,3.602,0.075,3.582-2.6c-0.034-4.335,0.238-8.673,1.071-13.041
		c0.921,3.994,1.852,7.983,2.754,11.981c0.552,2.458,1.636,4.405,4.554,3.671c2.749-0.692,2.772-2.842,2.228-5.15
		c-1.307-5.522-2.609-11.043-3.828-16.583c-0.602-2.716-1.569-4.905-5.039-5.2c1.032-0.315,2.051-0.848,3.102-0.912
		c5.459-0.327,10.928-0.472,16.387-0.813c3.044-0.19,4.502,0.989,4.883,4.095c0.941,7.647,2.103,15.27,3.218,23.233
		c0.959,0.013,1.94,0.026,3.335,0.047c-0.988-7.628-1.917-14.923-2.878-22.218C138.254,195.008,137.121,192.778,138.978,190.483z"/>
	<path fill-rule="evenodd" clip-rule="evenodd" fill="#0E5461" d="M81.781,204.936c-0.695,5.569-1.379,11.032-2.093,16.77
		c7.684-0.359,15.085-0.707,22.819-1.07c-1.185-5.451-2.352-10.814-3.589-16.504C93.086,204.404,87.583,204.662,81.781,204.936z"/>
	<path fill-rule="evenodd" clip-rule="evenodd" fill="#0E5461" d="M104.227,157.68c-3.789,0.263-6.628,3.524-6.434,7.395
		c0.189,3.889,3.328,6.784,7.176,6.63c3.836-0.154,6.756-3.326,6.629-7.204C111.465,160.538,108.091,157.417,104.227,157.68z"/>
</g>
</svg>
