<?xml version="1.0" encoding="utf-8"?>
<!-- Generator: Adobe Illustrator 16.0.0, SVG Export Plug-In . SVG Version: 6.00 Build 0)  -->
<!DOCTYPE svg PUBLIC "-//W3C//DTD SVG 1.1//EN" "http://www.w3.org/Graphics/SVG/1.1/DTD/svg11.dtd">
<svg version="1.1" id="Layer_1" xmlns="http://www.w3.org/2000/svg" xmlns:xlink="http://www.w3.org/1999/xlink" x="0px" y="0px"
	 width="250px" height="158.128px" viewBox="0 0 250 158.128" enable-background="new 0 0 250 158.128" xml:space="preserve">
<g>
	<g>
		<path fill-rule="evenodd" clip-rule="evenodd" fill="#FFFFFF" d="M141.891,97.759c5.568-2.575,11.165-5.091,16.694-7.743
			c4.183-2.008,8.48-3.834,11.448,1.402c3.009,5.309-0.766,8.003-4.826,10.335c-9.319,5.354-18.673,10.656-27.914,16.146
			c-3.232,1.916-6.353,2.276-10.039,1.578c-12.272-2.321-24.297-5.98-36.778-7.092c-2.639-0.235-2.692-1.46-2.686-3.338
			c0.021-6.147,0.083-12.296-0.049-18.438c-0.056-2.643,1.069-3.87,3.49-4.737c5.145-1.843,10.13-2.407,15.362-0.223
			c8.294,3.462,16.64,6.816,25.064,9.941c3.189,1.185,4.935,3.396,6.338,6.185c0.993,5.604-2.358,9.529-7.503,8.578
			c-2.975-0.551-5.821-1.685-8.816-2.494c0.096,0.091,0.127,0.149,0.172,0.164c13.598,3.915,13.591,3.911,18.67-8.88
			C140.752,98.556,141.388,98.179,141.891,97.759z"/>
		<path fill-rule="evenodd" clip-rule="evenodd" fill="#FFFFFF" d="M84.836,105.686c-0.84,5.215,2.898,13.185-1.505,17.358
			c-4.012,3.8-11.768,1.121-17.856,1.139c-12.634,0.038-11.551,2.05-11.568-11.537c-0.011-7.251,0.102-14.505-0.069-21.754
			c-0.087-3.837,1.136-5.629,5.273-5.488c6.805,0.231,13.629,0.195,20.434-0.012c4.003-0.12,5.543,1.421,5.344,5.409
			C84.662,95.404,84.836,100.028,84.836,105.686z"/>
		<path fill-rule="evenodd" clip-rule="evenodd" fill="#FCFCFC" d="M141.891,97.759c-0.132,0.175-0.331,0.33-0.387,0.524
			c-4.394,15.307-5.876,16.016-21.827,10.321c-1.358-0.483-3.104-0.442-3.766-2.682c4.17-1.383,7.489,1.216,11.015,2.215
			c7.371,2.087,9.238,1.11,11.07-6.362C139.728,100.854,138.798,97.356,141.891,97.759z"/>
		<path fill-rule="evenodd" clip-rule="evenodd" fill="#FCFCFC" d="M80.245,92.494c-0.139,2.132-1.114,3.497-3.25,3.375
			c-2.052-0.116-3.131-1.441-3.046-3.518c0.075-1.82,1.211-2.8,2.938-2.909C79.026,89.307,80.053,90.55,80.245,92.494z"/>
	</g>
	<g>
		<path fill="#FFFFFF" d="M109.429,67.213c-0.425,0.449-0.85,0.902-1.271,1.354c1.036,1.318,1.801,3.154,3.159,3.872
			c7.271,3.84,14.651,7.485,22.096,10.978c1.313,0.615,3.316,0.697,4.664,0.169c18.041-7.059,36.044-14.221,53.979-21.538
			c1.365-0.558,2.178-2.485,3.243-3.777c-0.423-0.404-0.85-0.809-1.274-1.213c-2.04,0.749-4.101,1.451-6.119,2.254
			c-15.792,6.288-31.621,12.497-47.336,18.977c-3.559,1.468-6.419,1.332-9.787-0.474C123.781,74.06,116.56,70.721,109.429,67.213z"
			/>
		<path fill="#FFFFFF" d="M109.631,54.964c-0.456,0.516-0.911,1.027-1.365,1.541c1.316,1.376,2.393,3.196,3.988,4.048
			c6.601,3.528,13.296,6.906,20.103,10.01c1.758,0.801,4.334,1.129,6.065,0.46c17.884-6.906,35.69-14.015,53.449-21.239
			c1.436-0.583,2.352-2.448,3.506-3.724c-0.419-0.465-0.841-0.934-1.263-1.401c-2.184,0.823-4.386,1.608-6.554,2.475
			c-15.778,6.293-31.586,12.498-47.282,18.986c-3.4,1.405-6.072,1.167-9.233-0.514C124.009,61.866,116.781,58.49,109.631,54.964z"/>
		<path fill="#FFFFFF" d="M195.328,52.203c-0.408-0.446-0.813-0.894-1.223-1.342c-1.648,0.613-3.313,1.191-4.947,1.842
			c-16.448,6.529-32.842,13.189-49.381,19.474c-2.336,0.889-5.699,0.714-8.016-0.291c-7.607-3.308-14.95-7.221-22.398-10.903
			c-0.434,0.481-0.869,0.96-1.303,1.438c1.185,1.354,2.111,3.196,3.595,3.985c6.926,3.682,13.959,7.165,21.062,10.491
			c1.498,0.704,3.695,1.111,5.142,0.549c18.195-7.069,36.327-14.298,54.407-21.654C193.558,55.265,194.317,53.429,195.328,52.203z"
			/>
		<path fill="#FFFFFF" d="M195.275,64.616c-0.436-0.502-0.867-1.003-1.303-1.505c-14.543,5.795-29.394,10.938-43.525,17.604
			c-10.325,4.871-19.322,5.584-28.836-1.229c-3.679-2.636-8.2-4.094-12.338-6.088c-0.349,0.498-0.695,0.998-1.044,1.496
			c0.967,1.014,1.754,2.371,2.932,2.989c7.263,3.828,14.564,7.59,21.974,11.115c1.452,0.69,3.663,0.826,5.145,0.248
			c18.021-7.018,35.98-14.185,53.899-21.449C193.436,67.288,194.252,65.701,195.275,64.616z"/>
		<path fill-rule="evenodd" clip-rule="evenodd" fill="#FFFFFF" d="M196.167,40.378c-1.858,1.472-2.875,2.718-4.18,3.243
			c-17.77,7.176-35.551,14.32-53.422,21.24c-1.749,0.68-4.351,0.385-6.12-0.419c-6.971-3.176-13.815-6.638-20.581-10.233
			c-1.372-0.729-3.033-2.508-3.02-3.786c0.011-1.228,1.794-2.999,3.19-3.567c17.592-7.136,35.229-14.153,52.928-21.016
			c1.627-0.63,4.023-0.583,5.591,0.152c7.267,3.408,14.396,7.123,21.507,10.851C193.347,37.517,194.331,38.768,196.167,40.378z
			 M121.907,51.118c10.168,8.039,25.228,5.335,32.842-0.76c-7.254-1.354-15.125-1.5-18.262-9.992
			C122.934,45.532,122.934,45.532,121.907,51.118z M181.481,35.367c-11.356-6.665-24.754-6.237-32.079,1.026
			c6.974,1.196,14.425,1.519,17.528,9.642C180.17,42.329,180.585,42.022,181.481,35.367z"/>
		<path fill-rule="evenodd" clip-rule="evenodd" fill="#FFFFFF" d="M109.429,67.213c7.131,3.508,14.352,6.847,21.354,10.601
			c3.368,1.806,6.229,1.941,9.787,0.474c15.715-6.479,31.544-12.688,47.336-18.977c2.019-0.803,4.079-1.505,6.119-2.254
			c0.425,0.404,0.852,0.809,1.274,1.213c-1.065,1.292-1.878,3.22-3.243,3.777c-17.936,7.317-35.938,14.479-53.979,21.538
			c-1.348,0.528-3.351,0.446-4.664-0.169c-7.444-3.492-14.825-7.138-22.096-10.978c-1.358-0.718-2.123-2.554-3.159-3.872
			C108.58,68.115,109.004,67.662,109.429,67.213z"/>
		<path fill-rule="evenodd" clip-rule="evenodd" fill="#FFFFFF" d="M109.631,54.964c7.149,3.526,14.378,6.902,21.414,10.642
			c3.161,1.681,5.833,1.919,9.233,0.514c15.696-6.488,31.504-12.693,47.282-18.986c2.168-0.866,4.37-1.651,6.554-2.475
			c0.422,0.468,0.844,0.937,1.263,1.401c-1.154,1.275-2.07,3.141-3.506,3.724c-17.759,7.225-35.565,14.333-53.449,21.239
			c-1.731,0.669-4.308,0.341-6.065-0.46c-6.807-3.104-13.502-6.481-20.103-10.01c-1.596-0.852-2.672-2.672-3.988-4.048
			C108.72,55.991,109.175,55.479,109.631,54.964z"/>
		<path fill-rule="evenodd" clip-rule="evenodd" fill="#FFFFFF" d="M195.328,52.203c-1.011,1.226-1.77,3.062-3.062,3.588
			c-18.08,7.356-36.212,14.585-54.407,21.654c-1.446,0.562-3.644,0.155-5.142-0.549c-7.103-3.326-14.136-6.81-21.062-10.491
			c-1.483-0.789-2.41-2.631-3.595-3.985c0.434-0.478,0.869-0.956,1.303-1.438c7.448,3.683,14.791,7.596,22.398,10.903
			c2.316,1.005,5.68,1.18,8.016,0.291c16.539-6.284,32.933-12.944,49.381-19.474c1.634-0.65,3.299-1.229,4.947-1.842
			C194.514,51.31,194.919,51.757,195.328,52.203z"/>
		<path fill-rule="evenodd" clip-rule="evenodd" fill="#FFFFFF" d="M195.275,64.616c-1.022,1.085-1.839,2.672-3.097,3.181
			c-17.919,7.265-35.879,14.432-53.899,21.449c-1.481,0.578-3.692,0.442-5.145-0.248c-7.409-3.525-14.711-7.287-21.974-11.115
			c-1.178-0.618-1.965-1.976-2.932-2.989c0.349-0.498,0.695-0.998,1.044-1.496c4.138,1.994,8.659,3.452,12.338,6.088
			c9.514,6.813,18.511,6.101,28.836,1.229c14.132-6.666,28.982-11.809,43.525-17.604C194.408,63.613,194.839,64.114,195.275,64.616z
			"/>
	</g>
</g>
</svg>
