<?xml version="1.0" encoding="utf-8"?>
<!-- Generator: Adobe Illustrator 16.0.0, SVG Export Plug-In . SVG Version: 6.00 Build 0)  -->
<!DOCTYPE svg PUBLIC "-//W3C//DTD SVG 1.1//EN" "http://www.w3.org/Graphics/SVG/1.1/DTD/svg11.dtd">
<svg version="1.1" id="Layer_1" xmlns="http://www.w3.org/2000/svg" xmlns:xlink="http://www.w3.org/1999/xlink" x="0px" y="0px"
	 width="250px" height="158.128px" viewBox="0 0 250 158.128" enable-background="new 0 0 250 158.128" xml:space="preserve">
<g>
	<path fill-rule="evenodd" clip-rule="evenodd" fill="#FFFFFF" d="M125.494,7.74l42.785,23.446l42.792,23.444
		c1.805,1.001,2.627,3.611,1.815,5.836c-0.598,1.649-1.909,2.623-3.28,2.623v0.009h-5.458v79.474v8.196h-6.652H48.977H42.33v-8.196
		V63.098h-3.882c-1.984,0-3.597-1.986-3.597-4.432c0-1.942,1.01-3.589,2.414-4.192l42.512-23.288L122.569,7.74
		c0.967-0.526,2.025-0.489,2.921,0.004L125.494,7.74L125.494,7.74z M55.628,63.098l0.146,81.25h56.986h25.633h52.466l-0.017-81.25
		h-66.811H55.628L55.628,63.098z M60.521,70.188v18.161h16.421V70.188H60.521z M80.289,70.188v18.161h16.42V70.188H80.289z
		 M107.304,70.188v18.161h16.421V70.188H107.304z M127.072,70.188v18.161h16.421V70.188H127.072z M151.783,70.188v18.161h16.419
		V70.188H151.783z M171.549,70.188v18.161h16.422V70.188H171.549z"/>
</g>
<path fill="#FFFFFF" d="M92.628,132.223c0.947,0.077,1.898,0.15,3.155,0.251c-0.165,0.68-0.4,1.341-0.474,2.021
	c-0.073,0.667-0.125,1.407,0.108,1.996c0.092,0.225,1.369,0.32,1.487,0.115c0.317-0.555,0.413-1.303,0.4-1.971
	c-0.01-0.732-0.236-1.464-0.369-2.168c1.265-0.1,2.191-0.171,3.121-0.244c0.648,0.433,1.293,0.857,1.969,1.307
	c0.327-0.349,0.604-0.638,0.878-0.929c-0.395,0.657-0.859,1.286-1.167,1.98c-0.217,0.488-0.46,1.425-0.286,1.542
	c0.571,0.378,1.365,0.683,2.003,0.58c0.366-0.06,0.773-0.941,0.833-1.488c0.045-0.421-0.422-0.896-0.868-1.736
	c1.578-0.489,3.003-0.932,4.428-1.378c0.143,0.157,0.289,0.314,0.431,0.471c-0.193,0.665-0.471,1.316-0.562,1.992
	c-0.088,0.627-0.188,1.418,0.114,1.876c0.191,0.291,1.394,0.351,1.631,0.075c0.355-0.413,0.365-1.22,0.334-1.85
	c-0.035-0.74-0.265-1.474-0.526-2.794c1.979,0.688,3.385,1.174,4.79,1.665c-0.191,0.155-0.387,0.311-0.578,0.464
	c0,0.785-0.278,1.776,0.093,2.29c0.274,0.381,1.401,0.145,2.147,0.185c0.521-0.068,1.41-0.016,1.481-0.233
	c0.173-0.516,0.06-1.204-0.161-1.729c-0.07-0.169-0.844-0.038-1.296-0.046c-0.241-0.501-0.482-1.003-0.724-1.501
	c0.362,0.087,0.724,0.174,1.087,0.262c1.385,1.121,1.371-0.731,2.106-0.993c0.972,0.076,1.943,0.151,3.246,0.254
	c-0.233,0.758-0.525,1.404-0.62,2.076c-0.087,0.622-0.178,1.425,0.133,1.858c0.216,0.304,1.403,0.368,1.637,0.095
	c0.353-0.413,0.355-1.218,0.324-1.849c-0.036-0.743-0.27-1.477-0.418-2.212c1.271-0.094,2.208-0.162,3.139-0.229
	c0.387,0.613,0.773,1.226,1.16,1.839c0.194-0.163,0.39-0.327,0.588-0.491c-0.048-0.233-0.101-0.467-0.09-0.423
	c0.509-0.061,1.021-0.125,1.532-0.187c-0.052,0.442-0.104,0.882-0.153,1.324c-0.125-0.12-0.251-0.241-0.372-0.361
	c-0.617,0.302-1.431,0.466-1.78,0.958c-0.233,0.326,0.129,1.603,0.341,1.632c1.073,0.15,2.269,0.258,3.236-0.107
	c0.352-0.133,0.187-1.623,0.258-2.492c-0.185-0.151-0.367-0.302-0.554-0.455c1.421-0.46,2.843-0.918,4.266-1.383
	c0.145,0.153,0.291,0.303,0.434,0.453c-0.182,0.665-0.425,1.323-0.522,2.003c-0.089,0.622-0.24,1.414,0.052,1.853
	c0.206,0.314,1.488,0.397,1.624,0.178c0.323-0.529,0.338-1.301,0.323-1.975c-0.01-0.735-0.188-1.47-0.365-2.703
	c1.909,0.662,3.293,1.138,4.877,1.686c-0.42,0.578-0.742,0.822-0.722,1.028c0.073,0.717,0.267,1.421,0.415,2.132
	c0.94-0.258,1.892-0.488,2.804-0.829c0.055-0.021-0.066-1.047-0.362-1.358c-0.658-0.693-1.479-1.229-2.236-1.829
	c0.195-0.209,0.394-0.418,0.585-0.627c0.241,0.527,0.478,1.061,0.669,1.483c0.927-0.578,1.536-0.958,2.153-1.341
	c0.961,0.076,1.93,0.157,3.212,0.26c-0.199,0.71-0.467,1.358-0.544,2.029c-0.073,0.66-0.089,1.407,0.164,1.985
	c0.096,0.223,1.365,0.289,1.483,0.082c0.311-0.556,0.384-1.302,0.369-1.971c-0.014-0.731-0.223-1.461-0.341-2.128
	c1.25-0.113,2.167-0.198,3.083-0.282c0.39,0.422,0.714,0.949,1.185,1.233c0.505,0.307,1.268,0.686,1.323-0.491
	c0.313,0.505,0.623,1.014,0.934,1.523c-0.275-0.089-0.596-0.308-0.818-0.238c-0.631,0.195-1.474,0.362-1.744,0.825
	c-0.193,0.328,0.406,1.118,0.653,1.704c0.606-0.291,1.24-0.537,1.801-0.9c0.182-0.115,0.16-0.538,0.233-0.817
	c0.439,0.484,0.847,1.358,1.313,1.392c2.212,0.148,4.439,0.064,6.713,0.064c-0.066-1.394-0.122-2.521-0.175-3.65
	c0.066-0.004,0.135-0.007,0.202-0.011c0.088,0.62,0.171,1.237,0.255,1.856c0.139,0.004,0.271,0.008,0.407,0.011
	c0.575-3.323,1.149-6.645,1.742-10.074c1.905,0,3.619,0.033,5.329-0.009c3.047-0.074,4.703-1.656,4.31-4.711
	c-0.391-3.074-1.182-6.122-2.083-9.096c-0.326-1.069-1.328-2.132-2.3-2.771c-1.9-1.245-4.229,0.019-4.446,2.256
	c-0.016,0.165,0.373,0.369,0.571,0.557c-1.872,1.93-4.117,1.885-6.544,1.402c-0.603-0.12-1.717,0.284-1.947,0.761
	c-0.477,0.989,0.265,1.716,1.278,1.812c1.913,0.178,3.839,0.22,5.759,0.317c0.163,1.149,0.327,2.303,0.487,3.45
	c1.324-1.852,1.233-2.987,0.193-3.799c0.469-0.233,0.94-0.469,1.409-0.702c0.06,0.673,0.089,1.351,0.185,2.019
	c0.195,1.359,0.425,2.711,0.647,4.097c-3.104,0.589-7.196-1.372-7.523,3.828c-0.362-1.221-0.729-2.441-1.136-3.811
	c0.847,0,1.492,0.014,2.139,0c0.681-0.021,1.362-0.062,2.069-0.096c0.038-0.625,0.078-1.033,0.087-1.44
	c0.035-2.477,0.035-2.485-2.467-2.485c-6.147-0.002-12.296,0.005-18.444,0.009c-0.62,0-1.24,0-2.296,0
	c0.391,2.147,0.718,3.948,1.042,5.751c-0.312,0.867-0.624,1.734-0.982,2.731c0-3.104-0.033-6.14,0.018-9.176
	c0.018-1.034-0.282-1.516-1.389-1.496c-3.234,0.064-6.474,0.064-9.713,0.089c0.545-0.122,1.088-0.343,1.637-0.352
	c2.483-0.037,4.975,0.065,7.458-0.042c1.429-0.062,2.418,0.202,2.47,1.919c0.882-0.183,1.627-0.334,2.369-0.487
	c-0.142,0.174-0.286,0.349-0.831,1.018c1.559-0.344,2.689-0.478,3.694-0.901c0.216-0.092-0.011-1.232-0.035-1.893
	c0.513-0.436,1.021-0.871,1.533-1.307c0.205,0.711,0.307,1.47,0.638,2.118c0.32,0.627,0.87,1.62,1.319,1.616
	c1.805-0.002,3.672-0.115,5.399-0.594c2.153-0.594,2.467-2.479,0.896-4.105c-2.639-2.73-9.832-4.051-13.258-2.403
	c-0.387,0.185-0.683,0.554-1.021,0.836c-1.728-0.439-3.435-1.083-5.188-1.278c-3.046-0.336-6.074-0.122-8.795,1.574
	c-0.753-0.516-1.472-1.414-2.26-1.48c-2.401-0.193-4.836-0.191-7.24,0.004c-0.787,0.062-1.508,0.954-2.261,1.468
	c-0.223-0.059-0.467-0.082-0.668-0.185c-4.403-2.232-8.813-2.121-13.23-0.031c-0.962-0.462-1.888-1.172-2.898-1.327
	c-1.505-0.229-3.076,0.016-4.61-0.085c-2.785-0.185-4.902,1.215-6.829,2.895c-1.678,1.459-1.275,3.528,0.84,4.108
	c1.738,0.476,3.606,0.594,5.418,0.604c0.451,0,1.005-0.989,1.325-1.623c0.328-0.643,0.42-1.407,0.613-2.116
	c0.529,0.434,1.056,0.869,1.585,1.305c-0.038,0.656-0.285,1.801-0.08,1.888c0.998,0.425,2.118,0.571,3.57,0.898
	c-0.428-0.645-0.548-0.827-0.668-1.01c0.771,0.149,1.539,0.3,2.261,0.438c0.243-0.627,0.425-1.079,0.605-1.536
	c-0.018,3.094,0,6.187-0.076,9.276c-0.015,0.497-0.429,0.982-0.658,1.474c0.358-0.951,1.052-1.95-0.397-2.626
	c1.516-1.849,0.463-3.905,0.791-5.806c-7.786,0-15.258,0-22.744,0c0,1.318,0,2.475,0,3.879c1.422,0,2.731,0,4.219,0
	c-0.46,1.445-0.829,2.603-1.314,4.14c-0.218-0.747-0.393-1.078-0.396-1.412c-0.035-1.9-1.122-2.583-2.86-2.574
	c-1.285,0.011-2.567,0-4.281,0c0.481-2.281,0.889-4.208,1.296-6.138c0.146,0.362,0.384,0.718,0.411,1.087
	c0.08,1.061,0.071,2.128,0.098,3.192c0.258,0.011,0.514,0.02,0.77,0.031c0.258-1.103,0.513-2.205,0.751-3.224
	c1.705-0.133,3.461-0.222,5.199-0.429c0.996-0.118,1.975-0.558,1.668-1.805c-0.292-1.188-1.208-1.149-2.274-0.874
	c-2.264,0.591-4.459,0.531-6.211-1.362c0.047-0.558,0.349-1.345,0.087-1.627c-0.625-0.689-1.459-1.487-2.303-1.616
	c-1.601-0.243-2.821,0.746-3.573,2.136c-1.798,3.337-2.585,6.967-2.596,10.719c-0.007,2.721,1.505,4.082,4.219,4.138
	c1.814,0.042,3.63,0.011,5.399,0.011c0.798,4.1,1.554,7.965,2.314,11.864c1.827,0,3.248-0.09,4.646,0.023
	c1.683,0.137,3.107-0.035,3.783-1.855c0.052,0.505-0.068,1.195,0.212,1.467c0.384,0.371,1.293,0.742,1.582,0.54
	c0.442-0.307,0.805-1.14,0.717-1.672c-0.062-0.384-0.877-0.798-1.412-0.902c-0.326-0.066-0.765,0.434-1.149,0.676
	c0.305-0.611,0.614-1.223,0.921-1.836c0.387,0.198,0.913,0.658,1.133,0.542C91.785,133.212,92.179,132.662,92.628,132.223z
	 M76.935,125.465c-3.011,0-5.842-0.049-8.667,0.021c-1.457,0.034-2.07-0.575-2.004-1.984c0.071-1.592,0.085-3.188,0.228-4.773
	c0.133-1.498,0.404-2.982,0.62-4.519c-1.217,0-2.179,0-3.284,0c0,4.353-0.032,8.55,0.056,12.742
	c0.007,0.354,0.759,0.951,1.201,0.989c1.442,0.129,2.902,0.049,4.365,0.049c0.122,1.176,0.216,2.1,0.32,3.149
	c-2.668,0.229-5.008,0.916-6.04,3.574c-0.192,0.491-0.119,1.379,0.209,1.696c0.32,0.313,1.299,0.365,1.659,0.1
	c0.357-0.267,0.397-1.082,0.399-1.658c0-0.342-0.342-0.685-0.722-1.389c1.568-0.491,2.951-0.927,4.336-1.36
	c0.146,0.142,0.294,0.282,0.44,0.424c-0.216,0.721-0.54,1.432-0.615,2.168c-0.064,0.613,0.002,1.373,0.329,1.841
	c0.182,0.258,1.317,0.262,1.507,0c0.336-0.456,0.383-1.21,0.354-1.828c-0.038-0.76-0.275-1.509-0.536-2.81
	c1.94,0.649,3.361,1.127,4.929,1.652c-0.474,0.729-0.867,1.062-0.88,1.411c-0.022,0.526,0.051,1.263,0.391,1.538
	c0.336,0.276,1.198,0.307,1.549,0.052c0.365-0.261,0.686-1.127,0.512-1.494c-0.702-1.538-1.502-3.079-3.441-3.428
	c-0.86-0.155-1.711-0.364-2.638-0.564c0.062-1.019,0.115-1.945,0.182-3.081c1.781,0,3.47,0,5.242,0
	C76.935,126.972,76.935,126.169,76.935,125.465z M172.806,131.906c-0.305,1.33-0.573,2.072-0.616,2.828
	c-0.031,0.615,0.043,1.371,0.39,1.822c0.199,0.258,1.331,0.229,1.514-0.035c0.324-0.467,0.364-1.228,0.302-1.839
	c-0.08-0.76-0.387-1.496-0.593-2.24c0.175-0.125,0.349-0.247,0.521-0.371c1.37,0.48,2.743,0.963,4.224,1.48
	c-0.434,0.777-0.852,1.187-0.84,1.583c0.018,0.514,0.251,1.178,0.627,1.478c0.3,0.235,1.125,0.211,1.411-0.046
	c0.362-0.32,0.718-1.149,0.543-1.485c-0.825-1.601-1.708-3.228-3.791-3.53c-0.804-0.115-1.591-0.32-2.493-0.507
	c0.153-1.071,0.289-2.032,0.449-3.152c1.9,0,3.641,0,5.552,0c0-4.439,0.016-8.689-0.037-12.936
	c-0.007-0.302-0.505-0.793-0.836-0.853c-0.725-0.13-1.491-0.04-2.474-0.04c0.153,1.022,0.304,1.818,0.38,2.62
	c0.209,2.112,0.509,4.227,0.54,6.345c0.028,2.282-0.198,2.419-2.425,2.447c-2.699,0.031-5.4,0.007-8.25,0.007
	c0,0.631,0,1.474,0,2.536c1.785,0,3.468,0,5.241,0c0.059,1.139,0.105,2.063,0.158,3.062c-2.341,0.544-4.921,0.62-5.729,3.419
	c-0.178,0.624-0.14,1.425,0.116,2.002c0.098,0.216,1.527,0.2,1.611-0.007c0.24-0.6,0.129-1.349,0.094-2.038
	c-0.009-0.191-0.24-0.373-0.627-0.934C169.389,133.002,170.825,132.54,172.806,131.906z M151.578,103.307
	c0.007-2.161-1.907-4.096-4.048-4.096c-2.163,0-4.062,1.898-4.068,4.07c-0.011,2.201,1.818,4.037,4.04,4.062
	C149.688,107.365,151.574,105.494,151.578,103.307z M134.989,99.229c-2.208,0.047-4.013,1.911-3.981,4.119
	c0.028,2.216,1.889,4.03,4.094,3.994c2.196-0.037,4.048-1.932,4.013-4.102C139.081,101.079,137.129,99.187,134.989,99.229z
	 M122.007,99.218c-2.152-0.053-4.074,1.797-4.142,3.984c-0.066,2.189,1.733,4.069,3.961,4.137c2.181,0.068,4.093-1.754,4.155-3.953
	C126.041,101.248,124.154,99.27,122.007,99.218z M96.278,107.341c2.185,0.035,4.086-1.825,4.102-4.011
	c0.018-2.162-1.883-4.104-4.032-4.116c-2.17-0.011-4.048,1.848-4.082,4.044C92.228,105.449,94.056,107.306,96.278,107.341z
	 M112.839,103.235c-0.031-2.186-1.989-4.068-4.163-4.002c-2.194,0.065-4.034,2.028-3.953,4.213c0.083,2.136,1.93,3.905,4.075,3.896
	C111.008,107.336,112.873,105.438,112.839,103.235z M78.422,100.238c-2.119,0.038-3.807,1.763-3.797,3.882
	c0.015,2.071,1.815,3.877,3.856,3.872c2.174-0.004,3.899-1.806,3.85-4.02C82.278,101.844,80.564,100.2,78.422,100.238z
	 M169.169,104.004c-0.034-2.132-1.748-3.797-3.88-3.772c-2.155,0.025-3.776,1.684-3.776,3.861c0,2.198,1.814,3.986,3.953,3.896
	C167.57,107.901,169.204,106.141,169.169,104.004z"/>
</svg>
