<?xml version="1.0" encoding="utf-8"?>
<!-- Generator: Adobe Illustrator 16.0.0, SVG Export Plug-In . SVG Version: 6.00 Build 0)  -->
<!DOCTYPE svg PUBLIC "-//W3C//DTD SVG 1.1//EN" "http://www.w3.org/Graphics/SVG/1.1/DTD/svg11.dtd">
<svg version="1.1" id="Layer_1" xmlns="http://www.w3.org/2000/svg" xmlns:xlink="http://www.w3.org/1999/xlink" x="0px" y="0px"
	 width="850px" height="330.079px" viewBox="0 0 850 330.079" enable-background="new 0 0 850 330.079" xml:space="preserve">
<text transform="matrix(1 0 0 1 41.7051 56.8984)"><tspan x="0" y="0" fill="#5E7E53" font-family="'Lato-Bold'" font-size="50.9655">44%</tspan><tspan x="100.043" y="0" fill="#5E7E53" font-family="'Lato-Bold'" font-size="50.5478"> </tspan></text>
<g>
	<text transform="matrix(1 0 0 1 43.6567 100.084)"><tspan x="0" y="0" fill="#0E5461" font-family="'Lato-Bold'" font-size="21.337">Financial </tspan><tspan x="-35.803" y="25.604" fill="#0E5461" font-family="'Lato-Bold'" font-size="21.337">mismanagement </tspan></text>
</g>
<g>
	<text transform="matrix(1 0 0 1 330.2739 103.2324)"><tspan x="0" y="0" fill="#0E5461" font-family="'Lato-Bold'" font-size="21.337">Theft of goods </tspan><tspan x="21.897" y="25.604" fill="#0E5461" font-family="'Lato-Bold'" font-size="21.337">and funds </tspan></text>
</g>
<text transform="matrix(1 0 0 1 358.0215 60.7368)" fill="#5E7E53" font-family="'Lato-Bold'" font-size="40.629">24% </text>
<g>
	<text transform="matrix(1 0 0 1 665.1416 101.6582)"><tspan x="0" y="0" fill="#0E5461" font-family="'Lato-Bold'" font-size="21.337">Corruption in </tspan><tspan x="-47.346" y="25.604" fill="#0E5461" font-family="'Lato-Bold'" font-size="21.337">procurement processes </tspan></text>
</g>
<text transform="matrix(1 0 0 1 685.1387 58.0464)" fill="#5E7E53" font-family="'Lato-Bold'" font-size="30.4879">16%  </text>
<g>
	<g>
		<path fill-rule="evenodd" clip-rule="evenodd" fill="#333333" d="M115.568,258.552c5.43-2.511,10.889-4.967,16.286-7.554
			c4.078-1.96,8.271-3.741,11.168,1.367c2.936,5.179-0.747,7.808-4.71,10.083c-9.091,5.223-18.217,10.395-27.229,15.751
			c-3.152,1.868-6.197,2.221-9.794,1.541c-11.971-2.267-23.703-5.836-35.876-6.92c-2.577-0.229-2.627-1.423-2.621-3.256
			c0.018-5.998,0.08-11.995-0.05-17.985c-0.052-2.581,1.044-3.777,3.406-4.621c5.017-1.8,9.884-2.349,14.984-0.219
			c8.094,3.375,16.233,6.649,24.453,9.697c3.109,1.155,4.815,3.313,6.185,6.032c0.964,5.467-2.304,9.298-7.32,8.369
			c-2.903-0.535-5.679-1.642-8.603-2.432c0.094,0.086,0.122,0.146,0.167,0.158c13.268,3.82,13.26,3.817,18.216-8.659
			C114.458,259.329,115.077,258.963,115.568,258.552z"/>
		<path fill-rule="evenodd" clip-rule="evenodd" fill="#333333" d="M59.91,266.287c-0.821,5.084,2.826,12.86-1.471,16.932
			c-3.911,3.709-11.478,1.092-17.416,1.111c-12.33,0.037-11.271,1.999-11.289-11.255c-0.011-7.074,0.101-14.151-0.064-21.223
			c-0.086-3.743,1.107-5.49,5.144-5.354c6.639,0.227,13.294,0.19,19.933-0.01c3.905-0.121,5.408,1.384,5.212,5.274
			C59.737,256.256,59.91,260.765,59.91,266.287z"/>
		<path fill-rule="evenodd" clip-rule="evenodd" fill="#FCFCFC" d="M115.568,258.552c-0.128,0.171-0.319,0.321-0.378,0.511
			c-4.289,14.933-5.734,15.625-21.295,10.07c-1.322-0.474-3.026-0.432-3.674-2.617c4.068-1.348,7.309,1.187,10.746,2.161
			c7.193,2.036,9.014,1.082,10.803-6.208C113.455,261.571,112.55,258.16,115.568,258.552z"/>
		<path fill-rule="evenodd" clip-rule="evenodd" fill="#FCFCFC" d="M55.431,253.416c-0.137,2.08-1.09,3.411-3.174,3.292
			c-1.997-0.113-3.054-1.405-2.968-3.43c0.072-1.775,1.179-2.73,2.864-2.84C54.239,250.307,55.243,251.52,55.431,253.416z"/>
	</g>
	<g>
		<path fill="#333333" d="M168.516,202.573c-1.789-1.57-2.751-2.789-4.006-3.446c-6.934-3.638-13.894-7.261-20.981-10.587
			c-1.528-0.718-3.866-0.761-5.453-0.147c-17.265,6.694-34.473,13.539-51.634,20.504c-1.363,0.551-3.103,2.279-3.113,3.477
			c-0.012,1.25,1.61,2.982,2.947,3.695c6.599,3.508,13.278,6.887,20.077,9.981c1.724,0.787,4.266,1.071,5.972,0.409
			c17.432-6.75,34.779-13.72,52.116-20.72C165.711,205.226,166.702,204.012,168.516,202.573z"/>
		<path fill="#333333" d="M83.899,228.754c-0.414,0.44-0.83,0.879-1.241,1.318c1.012,1.286,1.759,3.078,3.081,3.779
			c7.097,3.744,14.294,7.303,21.557,10.71c1.283,0.599,3.233,0.677,4.554,0.164c17.597-6.887,35.159-13.873,52.656-21.012
			c1.333-0.545,2.124-2.423,3.167-3.685c-0.417-0.396-0.831-0.788-1.247-1.186c-1.99,0.732-3.998,1.417-5.969,2.2
			c-15.407,6.135-30.848,12.191-46.178,18.512c-3.471,1.433-6.263,1.301-9.549-0.461C97.902,235.432,90.856,232.174,83.899,228.754z
			"/>
		<path fill="#333333" d="M84.096,216.806c-0.443,0.501-0.887,1.001-1.333,1.503c1.286,1.343,2.335,3.116,3.892,3.947
			c6.441,3.443,12.974,6.737,19.612,9.767c1.713,0.781,4.229,1.1,5.918,0.447c17.446-6.737,34.818-13.672,52.14-20.719
			c1.4-0.568,2.295-2.391,3.42-3.633c-0.411-0.453-0.818-0.911-1.232-1.368c-2.128,0.804-4.274,1.568-6.391,2.414
			c-15.393,6.14-30.816,12.192-46.124,18.521c-3.316,1.373-5.929,1.141-9.008-0.498C98.122,223.538,91.072,220.245,84.096,216.806z"
			/>
		<path fill="#333333" d="M167.696,214.109c-0.396-0.433-0.795-0.87-1.193-1.307c-1.605,0.597-3.229,1.163-4.828,1.795
			c-16.042,6.372-32.035,12.868-48.172,18.998c-2.274,0.867-5.561,0.697-7.82-0.283c-7.418-3.227-14.582-7.044-21.846-10.638
			c-0.426,0.471-0.849,0.938-1.271,1.402c1.151,1.323,2.054,3.118,3.503,3.89c6.761,3.59,13.618,6.989,20.549,10.233
			c1.458,0.687,3.604,1.085,5.013,0.536c17.753-6.897,35.44-13.947,53.077-21.124C165.97,217.097,166.711,215.307,167.696,214.109z"
			/>
		<path fill="#333333" d="M167.643,226.219c-0.422-0.489-0.845-0.978-1.268-1.466c-14.19,5.652-28.675,10.67-42.46,17.173
			c-10.073,4.752-18.852,5.445-28.133-1.201c-3.587-2.57-7.998-3.99-12.031-5.938c-0.346,0.485-0.682,0.973-1.021,1.46
			c0.943,0.99,1.713,2.313,2.86,2.916c7.082,3.736,14.205,7.403,21.433,10.843c1.417,0.673,3.575,0.805,5.021,0.242
			c17.581-6.846,35.099-13.838,52.584-20.926C165.851,228.828,166.648,227.278,167.643,226.219z"/>
		<path fill-rule="evenodd" clip-rule="evenodd" fill="#333333" d="M168.516,202.573c-1.813,1.438-2.805,2.652-4.075,3.166
			c-17.337,7-34.685,13.97-52.116,20.72c-1.706,0.662-4.248,0.378-5.972-0.409c-6.799-3.095-13.479-6.474-20.077-9.981
			c-1.337-0.713-2.959-2.445-2.947-3.695c0.011-1.197,1.75-2.926,3.113-3.477c17.161-6.965,34.369-13.81,51.634-20.504
			c1.587-0.613,3.925-0.57,5.453,0.147c7.088,3.326,14.048,6.949,20.981,10.587C165.765,199.784,166.727,201.003,168.516,202.573z
			 M96.074,213.052c9.918,7.844,24.608,5.203,32.037-0.74c-7.08-1.319-14.754-1.464-17.814-9.747
			C97.074,207.604,97.074,207.604,96.074,213.052z M154.188,197.688c-11.076-6.503-24.147-6.083-31.294,1
			c6.805,1.168,14.073,1.482,17.101,9.408C152.911,204.479,153.316,204.18,154.188,197.688z"/>
		<path fill-rule="evenodd" clip-rule="evenodd" fill="#333333" d="M83.899,228.754c6.957,3.42,14.003,6.678,20.831,10.341
			c3.286,1.762,6.078,1.894,9.549,0.461c15.33-6.32,30.771-12.377,46.178-18.512c1.971-0.783,3.979-1.468,5.969-2.2
			c0.416,0.397,0.83,0.789,1.247,1.186c-1.043,1.262-1.834,3.14-3.167,3.685c-17.497,7.139-35.06,14.125-52.656,21.012
			c-1.32,0.513-3.271,0.435-4.554-0.164c-7.263-3.407-14.46-6.966-21.557-10.71c-1.322-0.701-2.069-2.493-3.081-3.779
			C83.069,229.633,83.485,229.194,83.899,228.754z"/>
		<path fill-rule="evenodd" clip-rule="evenodd" fill="#333333" d="M84.096,216.806c6.977,3.439,14.026,6.732,20.894,10.381
			c3.079,1.639,5.691,1.871,9.008,0.498c15.308-6.328,30.731-12.381,46.124-18.521c2.116-0.846,4.263-1.61,6.391-2.414
			c0.414,0.457,0.821,0.915,1.232,1.368c-1.125,1.242-2.02,3.064-3.42,3.633c-17.321,7.047-34.693,13.981-52.14,20.719
			c-1.688,0.652-4.205,0.334-5.918-0.447c-6.639-3.029-13.171-6.323-19.612-9.767c-1.557-0.831-2.605-2.604-3.892-3.947
			C83.209,217.807,83.652,217.307,84.096,216.806z"/>
		<path fill-rule="evenodd" clip-rule="evenodd" fill="#333333" d="M167.696,214.109c-0.985,1.197-1.727,2.987-2.988,3.503
			c-17.637,7.177-35.324,14.227-53.077,21.124c-1.408,0.549-3.555,0.15-5.013-0.536c-6.931-3.244-13.788-6.644-20.549-10.233
			c-1.449-0.771-2.352-2.566-3.503-3.89c0.422-0.464,0.845-0.932,1.271-1.402c7.264,3.594,14.428,7.411,21.846,10.638
			c2.26,0.98,5.546,1.15,7.82,0.283c16.137-6.13,32.13-12.626,48.172-18.998c1.599-0.632,3.223-1.198,4.828-1.795
			C166.901,213.239,167.301,213.677,167.696,214.109z"/>
		<path fill-rule="evenodd" clip-rule="evenodd" fill="#333333" d="M167.643,226.219c-0.994,1.06-1.792,2.609-3.015,3.104
			c-17.485,7.088-35.003,14.08-52.584,20.926c-1.446,0.562-3.604,0.431-5.021-0.242c-7.228-3.439-14.351-7.106-21.433-10.843
			c-1.147-0.603-1.917-1.926-2.86-2.916c0.34-0.487,0.676-0.975,1.021-1.46c4.033,1.947,8.444,3.367,12.031,5.938
			c9.281,6.646,18.06,5.953,28.133,1.201c13.785-6.503,28.27-11.521,42.46-17.173C166.798,225.241,167.221,225.729,167.643,226.219z
			"/>
		<path fill-rule="evenodd" clip-rule="evenodd" fill="#FFFFFF" d="M96.074,213.052c1-5.447,1-5.447,14.223-10.487
			c3.061,8.283,10.734,8.428,17.814,9.747C120.683,218.255,105.992,220.896,96.074,213.052z"/>
		<path fill-rule="evenodd" clip-rule="evenodd" fill="#FFFFFF" d="M154.188,197.688c-0.872,6.492-1.277,6.791-14.193,10.408
			c-3.027-7.926-10.296-8.24-17.101-9.408C130.041,191.604,143.112,191.185,154.188,197.688z"/>
	</g>
	<g>
		<path fill-rule="evenodd" clip-rule="evenodd" fill="#ED1C24" d="M40.68,301.754c-1.448,1.45-3.172,2.072-3.851,1.392l0,0
			c-0.682-0.68-0.057-2.403,1.39-3.85l117.48-117.48c1.448-1.446,3.172-2.068,3.851-1.389l0,0c0.679,0.679,0.056,2.401-1.391,3.849
			L40.68,301.754z"/>
		<path fill-rule="evenodd" clip-rule="evenodd" fill="#ED1C24" d="M145.942,298.349c1.239,1.471,1.646,3.164,0.908,3.783l0,0
			c-0.735,0.616-2.331-0.074-3.567-1.543L42.839,181.219c-1.239-1.472-1.649-3.164-0.914-3.785l0,0
			c0.735-0.617,2.334,0.073,3.572,1.544L145.942,298.349z"/>
	</g>
</g>
<g>
	<g>
		<path fill="#FFFFFF" d="M346.359,269.298c4.806,2.508,9.519,5.226,14.453,7.441c2.998,1.341,4.12,3.067,3.969,6.347
			c-0.26,5.979-0.072,11.971-0.072,18.031c7.431-1.067,7.781-1.445,7.82-7.585c0.026-4.182-0.08-8.376,0.164-12.556
			c0.211-3.661-0.879-5.891-4.503-7.534c-5.806-2.63-11.265-6.022-16.872-9.091c1.919-0.589,3.922-0.981,5.738-1.811
			c8.016-3.64,15.687-3.302,23.084,1.61c0.705,7.092-6.616,5.516-9.496,8.66c2.481,3.632,5.35,4.049,9.042,2.004
			c2.681-1.485,5.779-2.227,8.548-3.603c1.198-0.598,2.536-1.813,2.818-2.988c0.181-0.735-1.301-2.272-2.363-2.838
			c-5.882-3.14-11.826-6.16-17.833-9.045c-1.107-0.53-2.745-0.715-3.873-0.312c-4.819,1.693-9.582,3.593-14.258,5.651
			c-0.691,0.307-0.84,1.864-1.22,2.847c-1.126-0.332-2.228-0.714-3.362-0.975c-2.977-0.68-6.441,1.372-6.688,3.925
			c-6.398,2.1-12.82,4.129-19.161,6.373c-1.11,0.393-2.702,1.766-2.625,2.551c0.102,1.185,1.232,2.718,2.354,3.321
			c5.865,3.143,11.856,6.047,17.83,8.983c0.807,0.401,1.908,0.983,2.584,0.722c7.148-2.713,14.233-5.575,21.652-8.522
			c-2.952-4.271-5.982-3.966-9.35-2.295c-8.325,4.129-16.46,4.166-23.978-1.024c-0.952-4.243,1.664-5.312,4.647-6.485
			c2.125-0.842,3.929-2.495,5.882-3.788c1.679,0.674,3.363,1.347,5.042,2.014c-2.402,0.055-3.613,1.314-1.33,2.826
			c2.923,1.948,6.428,3.036,9.68,4.499c0.203-0.479,0.402-0.957,0.607-1.435c-1.593-0.857-3.257-1.599-4.757-2.591
			C349.058,271.641,347.745,270.425,346.359,269.298z M378.596,188.488c0.438,0.66,0.863,1.335,1.292,2.003
			c-1.607,1.06-3.468,1.877-4.796,3.218c-5.126,5.155-10.591,10.093-14.996,15.83c-7.636,9.951-7.522,23.066-0.565,32.285
			c12.428,16.467,45.264,16.664,57.863,0.353c7.812-10.117,7.615-23.485-1.545-34.361c-5.804-6.888-12.797-12.785-19.051-18.918
			c0.682-1.182,1.203-2.067,1.896-3.262c-1.95-0.597-3.385-1.034-4.68-1.435c4.391-1.963,3.646-6.324,4.019-9.923
			c0.045-0.43-3.94-1.313-6.093-1.897c-1.356-0.366-2.798-0.88-4.138-0.747c-2.908,0.278-6.376,0.113-8.483,1.659
			c-2.019,1.49,1.398,9.482,3.999,11.477c-3.723-1.143-7.448-2.281-10.513-3.219c0,3.088,0,5.279,0,7.766
			C374.484,189.074,376.545,188.776,378.596,188.488z M449.021,253.752c17.216-7.509,34.69-11.868,53.607-12.883
			c-1.971-6.889-3.612-13.021-5.569-19.063c-0.244-0.741-2.155-1.409-3.251-1.363c-16.807,0.934-32.99,4.617-48.343,11.596
			c-0.892,0.409-2.028,2.076-1.826,2.846C445.214,241.034,447.077,247.095,449.021,253.752z M455.409,257.037
			c17.518-5.384,35.352-7.975,54.298-6.869c-0.782-6.245-1.464-11.807-2.18-17.336c-0.588-4.516-1.246-4.861-6.324-3.368
			c1.099,3.957,2.184,7.933,3.396,12.309c-3.283,0.357-6.207,0.73-9.142,1c-13.121,1.21-25.781,4.267-38.048,9.02
			C455.213,252.642,453.591,253.569,455.409,257.037z M471.475,209.613c3.664-0.979,7.313-1.658,10.692-3.03
			c1.278-0.518,2.706-2.673,2.625-4.004c-0.08-1.543-1.39-3.728-2.765-4.391c-6.915-3.333-14.08-3.268-21.001,0.033
			c-1.292,0.617-2.687,2.697-2.619,4.036c0.086,1.559,1.393,3.793,2.75,4.396C464.352,208.054,467.891,208.644,471.475,209.613z
			 M440.63,208.965c-3.604,0.989-7.299,1.561-10.599,3.034c-3.877,1.71-3.909,6.412-0.12,8.307
			c7.037,3.523,14.312,3.489,21.354,0.008c1.261-0.624,2.577-2.743,2.483-4.077c-0.101-1.546-1.398-3.755-2.762-4.351
			C447.801,210.514,444.268,209.931,440.63,208.965z M320.416,280.547c-0.378,0.245-0.762,0.486-1.143,0.741
			c0.455,0.98,0.634,2.494,1.389,2.871c7.188,3.564,14.337,9.299,21.755,9.688c6.811,0.354,13.937-5.072,20.86-8.077
			c0.301-0.142,0.039-1.587,0.039-3.041c-5.501,2.181-10.66,3.845-15.464,6.229c-4.225,2.086-7.744,1.706-11.708-0.557
			C331.061,285.515,325.676,283.138,320.416,280.547z M320.231,285.619c-0.286,0.23-0.565,0.478-0.858,0.722
			c0.384,0.99,0.486,2.55,1.188,2.885c7.306,3.612,14.585,9.361,22.125,9.778c6.743,0.363,13.825-5.191,20.707-8.27
			c0.277-0.122-0.051-1.596-0.11-2.846c-6.132,2.417-11.777,4.931-17.628,6.811c-2.181,0.704-5.113,0.609-7.222-0.279
			C332.236,291.793,326.283,288.593,320.231,285.619z M363.626,292.863c-6.001,2.372-11.365,4.269-16.517,6.617
			c-3.556,1.629-6.538,1.62-10.026-0.362c-5.463-3.097-11.246-5.621-17.783-8.818c0.443,1.956,0.366,3.482,0.926,3.773
			c7.145,3.67,14.211,7.601,21.674,10.498C345.462,305.96,362.891,296.499,363.626,292.863z M319.237,295.309
			c1.497,4.147,20.991,15.167,23.827,14.09c6.885-2.636,13.601-5.717,20.335-8.714c0.24-0.106-0.029-1.333-0.083-2.583
			c-5.282,2.084-10.272,3.731-14.961,5.989c-4.396,2.135-8.177,2.194-12.493-0.414C330.9,300.674,325.496,298.41,319.237,295.309z
			 M458.749,208.252c-0.312,0.296-0.625,0.592-0.932,0.887c1,1.442,1.694,3.365,3.055,4.249c5.581,3.584,17.425,3.379,22.104-0.369
			c1.128-0.904,1.509-2.738,2.232-4.158C475.752,212.825,467.257,212.766,458.749,208.252z M453.458,222.388
			c-8.503,4.425-17.022,4.356-25.532,0.062c-0.462,4.756,4.331,7.53,12.517,7.54C449.047,229.993,453.811,227.307,453.458,222.388z
			 M459.098,215.409c-0.414,0.253-0.818,0.495-1.232,0.75c0.952,1.363,1.588,3.251,2.896,4.005
			c7.706,4.473,15.255,0.332,22.811-0.963c0.696-0.123,1.026-2.366,1.821-4.382C474.65,219.575,468.706,219.602,459.098,215.409z
			 M427.677,236.922c0.233,4.937,7.801,8.001,16.847,5.782c-1.625-1.419-2.56-2.899-3.786-3.211
			C436.508,238.431,432.176,237.771,427.677,236.922z M391.068,277.302c-10.232,2.184-16.92,5.94-16.75,9.292
			C384.154,284.288,390.498,280.92,391.068,277.302z M390.702,272.298c-9.902,2.038-16.539,5.717-16.408,9.119
			C383.793,279.496,390.839,275.58,390.702,272.298z M442.349,236.145c-3.472-6.402-10.667-2.67-14.331-7.437
			C427.486,234.584,433.152,237.363,442.349,236.145z M390.913,282.393c-11.606,2.886-16.949,5.93-16.407,9.253
			C383.85,289.55,390.637,285.87,390.913,282.393z M373.913,296.56c10.106-2.07,17.039-5.888,16.557-8.976
			C380.513,290.164,374.762,293.153,373.913,296.56z"/>
		<path fill-rule="evenodd" clip-rule="evenodd" fill="#333333" d="M378.596,188.488c-2.051,0.288-4.111,0.586-5.79,0.828
			c0-2.486,0-4.678,0-7.766c3.064,0.938,6.79,2.076,10.513,3.219c-2.601-1.994-6.018-9.986-3.999-11.477
			c2.107-1.546,5.575-1.381,8.483-1.659c1.34-0.133,2.781,0.381,4.138,0.747c2.152,0.584,6.138,1.468,6.093,1.897
			c-0.373,3.599,0.372,7.96-4.019,9.923c1.295,0.4,2.729,0.838,4.68,1.435c-0.693,1.194-1.215,2.08-1.896,3.262
			c6.254,6.133,13.247,12.03,19.051,18.918c9.16,10.876,9.356,24.244,1.545,34.361c-12.6,16.312-45.436,16.114-57.863-0.353
			c-6.957-9.219-7.07-22.334,0.565-32.285c4.405-5.737,9.87-10.675,14.996-15.83c1.328-1.341,3.188-2.158,4.796-3.218
			C379.459,189.823,379.033,189.148,378.596,188.488z M368.502,205.364c-7.534,6.882-11.761,15.144-9.412,25.643
			c1.935,8.63,7.715,13.848,16.987,17.236C360.738,232.257,359.449,223.821,368.502,205.364z"/>
		<path fill-rule="evenodd" clip-rule="evenodd" fill="#333333" d="M449.021,253.752c-1.944-6.657-3.808-12.718-5.382-18.868
			c-0.202-0.77,0.935-2.437,1.826-2.846c15.353-6.979,31.536-10.662,48.343-11.596c1.096-0.046,3.007,0.622,3.251,1.363
			c1.957,6.042,3.599,12.175,5.569,19.063C483.712,241.884,466.237,246.243,449.021,253.752z M464.917,228.144
			c-9.156,1.983-10.253,3.399-14.413,7.516c-3.599,3.561-1.334,6.636,0.021,8.969c0.977,1.678,4.793,2.694,7.103,2.371
			c3.914-0.548,7.653-2.39,11.746-3.772C462.815,238.189,462.117,235.78,464.917,228.144z M478.845,240.967
			c6.793-1.438,13.669-0.185,17.857-7.141c0-10.024-10.806-11.854-21.417-7.78C480.643,229.754,483.033,234.293,478.845,240.967z"/>
		<path fill-rule="evenodd" clip-rule="evenodd" fill="#333333" d="M455.409,257.037c-1.818-3.468-0.196-4.396,2.001-5.245
			c12.267-4.753,24.927-7.81,38.048-9.02c2.935-0.27,5.858-0.643,9.142-1c-1.213-4.376-2.298-8.352-3.396-12.309
			c5.078-1.493,5.736-1.147,6.324,3.368c0.716,5.529,1.397,11.091,2.18,17.336C490.761,249.062,472.927,251.653,455.409,257.037z"/>
		<path fill-rule="evenodd" clip-rule="evenodd" fill="#333333" d="M341.292,267.312c-1.953,1.293-3.757,2.946-5.882,3.788
			c-2.983,1.174-5.6,2.242-4.647,6.485c7.518,5.19,15.652,5.153,23.978,1.024c3.367-1.671,6.397-1.977,9.35,2.295
			c-7.419,2.947-14.504,5.81-21.652,8.522c-0.676,0.262-1.777-0.32-2.584-0.722c-5.974-2.937-11.965-5.841-17.83-8.983
			c-1.122-0.604-2.253-2.137-2.354-3.321c-0.077-0.785,1.515-2.158,2.625-2.551c6.341-2.244,12.763-4.273,19.158-6.373
			L341.292,267.312z"/>
		<path fill-rule="evenodd" clip-rule="evenodd" fill="#333333" d="M351.496,264.519c0.39-0.974,0.538-2.531,1.229-2.838
			c4.676-2.059,9.438-3.958,14.258-5.651c1.128-0.402,2.766-0.218,3.873,0.312c6.007,2.885,11.951,5.905,17.833,9.045
			c1.062,0.565,2.544,2.103,2.363,2.838c-0.282,1.175-1.62,2.391-2.818,2.988c-2.769,1.376-5.867,2.117-8.548,3.603
			c-3.692,2.045-6.561,1.628-9.042-2.004c2.88-3.145,10.201-1.568,9.496-8.66c-7.397-4.912-15.068-5.25-23.084-1.61
			c-1.816,0.829-3.819,1.222-5.736,1.823C351.326,264.364,351.496,264.519,351.496,264.519z"/>
		<path fill-rule="evenodd" clip-rule="evenodd" fill="#333333" d="M346.334,269.326c-1.679-0.667-3.363-1.34-5.042-2.014
			l0.16,0.165c0.25-2.553,3.715-4.604,6.691-3.925c1.135,0.261,2.236,0.643,3.362,0.966c0,0-0.18-0.154-0.186-0.154
			c5.605,3.056,11.064,6.448,16.87,9.078c3.624,1.644,4.714,3.873,4.503,7.534c-0.244,4.18-0.138,8.374-0.164,12.556
			c-0.039,6.14-0.39,6.518-7.82,7.585c0-6.061-0.188-12.053,0.072-18.031c0.151-3.279-0.971-5.006-3.969-6.347
			c-4.935-2.216-9.647-4.934-14.453-7.441L346.334,269.326z M345.59,265.355c-0.104,0.467-0.211,0.938-0.319,1.406
			c5.476,2.826,10.83,5.939,16.477,8.376c3.944,1.694,5.225,4.071,4.921,8.209c-0.352,5.038-0.08,10.116-0.08,15.18
			c0.571,0.219,1.148,0.441,1.721,0.659c0.836-1.527,2.289-3.016,2.396-4.603c0.318-4.781,0.337-9.626-0.023-14.401
			c-0.128-1.629-1.378-3.815-2.76-4.588c-6.084-3.402-12.383-6.435-18.66-9.485C348.177,265.58,346.819,265.589,345.59,265.355z"/>
		<path fill-rule="evenodd" clip-rule="evenodd" fill="#333333" d="M471.475,209.613c-3.584-0.97-7.123-1.56-10.317-2.96
			c-1.357-0.603-2.664-2.837-2.75-4.396c-0.067-1.339,1.327-3.419,2.619-4.036c6.921-3.301,14.086-3.366,21.001-0.033
			c1.375,0.663,2.685,2.848,2.765,4.391c0.081,1.331-1.347,3.486-2.625,4.004C478.788,207.955,475.139,208.634,471.475,209.613z
			 M471.614,205.112c2.936-0.722,6.055-1.173,8.894-2.278c2.278-0.887,2.32-2.854,0.043-3.897
			c-5.838-2.669-11.854-2.592-17.732-0.129c-2.554,1.069-2.511,3.114-0.023,4.119C465.485,204.018,468.486,204.374,471.614,205.112z
			"/>
		<path fill-rule="evenodd" clip-rule="evenodd" fill="#333333" d="M440.63,208.965c3.638,0.966,7.171,1.549,10.356,2.921
			c1.363,0.596,2.661,2.805,2.762,4.351c0.094,1.334-1.223,3.453-2.483,4.077c-7.042,3.481-14.316,3.516-21.354-0.008
			c-3.789-1.895-3.757-6.597,0.12-8.307C433.331,210.525,437.025,209.954,440.63,208.965z M440.573,218.809
			c2.823-0.633,5.742-1.172,8.559-2.016c0.801-0.254,1.83-1.407,1.842-2.156c0.013-0.746-0.967-1.88-1.776-2.219
			c-5.745-2.427-11.57-2.436-17.298,0.063c-0.795,0.344-1.756,1.537-1.692,2.26c0.064,0.763,1.13,1.836,1.96,2.085
			C434.847,217.645,437.624,218.141,440.573,218.809z"/>
		<path fill-rule="evenodd" clip-rule="evenodd" fill="#333333" d="M320.416,280.547c5.26,2.591,10.645,4.968,15.729,7.854
			c3.964,2.263,7.483,2.643,11.708,0.557c4.804-2.384,9.963-4.048,15.464-6.229c0,1.454,0.262,2.899-0.039,3.041
			c-6.924,3.005-14.05,8.432-20.86,8.077c-7.418-0.389-14.566-6.123-21.755-9.688c-0.755-0.377-0.934-1.891-1.389-2.871
			C319.654,281.033,320.038,280.792,320.416,280.547z"/>
		<path fill-rule="evenodd" clip-rule="evenodd" fill="#333333" d="M320.231,285.619c6.052,2.974,12.005,6.174,18.202,8.801
			c2.108,0.889,5.041,0.983,7.222,0.279c5.851-1.88,11.496-4.394,17.628-6.811c0.06,1.25,0.388,2.724,0.11,2.846
			c-6.882,3.078-13.964,8.633-20.707,8.27c-7.54-0.417-14.819-6.166-22.125-9.778c-0.702-0.335-0.805-1.895-1.188-2.885
			C319.666,286.097,319.945,285.85,320.231,285.619z"/>
		<path fill-rule="evenodd" clip-rule="evenodd" fill="#333333" d="M363.626,292.863c-0.735,3.636-18.164,13.097-21.727,11.708
			c-7.463-2.897-14.529-6.828-21.674-10.498c-0.56-0.291-0.482-1.817-0.926-3.773c6.537,3.197,12.32,5.722,17.783,8.818
			c3.488,1.982,6.471,1.991,10.026,0.362C352.261,297.132,357.625,295.235,363.626,292.863z"/>
		<path fill-rule="evenodd" clip-rule="evenodd" fill="#333333" d="M319.237,295.309c6.259,3.102,11.663,5.365,16.625,8.368
			c4.316,2.608,8.097,2.549,12.493,0.414c4.688-2.258,9.679-3.905,14.961-5.989c0.054,1.25,0.323,2.477,0.083,2.583
			c-6.734,2.997-13.45,6.078-20.335,8.714C340.229,310.476,320.734,299.456,319.237,295.309z"/>
		<path fill-rule="evenodd" clip-rule="evenodd" fill="#333333" d="M458.749,208.252c8.508,4.514,17.003,4.573,26.46,0.608
			c-0.724,1.42-1.104,3.254-2.232,4.158c-4.68,3.748-16.523,3.953-22.104,0.369c-1.36-0.884-2.055-2.807-3.055-4.249
			C458.124,208.844,458.437,208.548,458.749,208.252z"/>
		<path fill-rule="evenodd" clip-rule="evenodd" fill="#333333" d="M453.458,222.388c0.353,4.919-4.411,7.605-13.016,7.603
			c-8.186-0.01-12.979-2.784-12.517-7.54C436.436,226.744,444.955,226.812,453.458,222.388z"/>
		<path fill-rule="evenodd" clip-rule="evenodd" fill="#333333" d="M459.098,215.409c9.608,4.192,15.553,4.166,26.296-0.59
			c-0.795,2.016-1.125,4.259-1.821,4.382c-7.556,1.295-15.104,5.436-22.811,0.963c-1.309-0.754-1.944-2.642-2.896-4.005
			C458.279,215.904,458.684,215.662,459.098,215.409z"/>
		<path fill-rule="evenodd" clip-rule="evenodd" fill="#333333" d="M427.677,236.922c4.499,0.849,8.831,1.509,13.061,2.571
			c1.227,0.312,2.161,1.792,3.786,3.211C435.478,244.923,427.91,241.858,427.677,236.922z"/>
		<path fill-rule="evenodd" clip-rule="evenodd" fill="#333333" d="M391.068,277.302c-0.57,3.618-6.914,6.986-16.75,9.292
			C374.148,283.242,380.836,279.485,391.068,277.302z"/>
		<path fill-rule="evenodd" clip-rule="evenodd" fill="#333333" d="M390.702,272.298c0.137,3.282-6.909,7.198-16.408,9.119
			C374.163,278.015,380.8,274.336,390.702,272.298z"/>
		<path fill-rule="evenodd" clip-rule="evenodd" fill="#333333" d="M442.349,236.145c-9.196,1.219-14.862-1.561-14.331-7.437
			C431.682,233.475,438.877,229.742,442.349,236.145z"/>
		<path fill-rule="evenodd" clip-rule="evenodd" fill="#333333" d="M390.913,282.393c-0.276,3.478-7.063,7.157-16.407,9.253
			C373.964,288.322,379.307,285.278,390.913,282.393z"/>
		<path fill-rule="evenodd" clip-rule="evenodd" fill="#333333" d="M373.913,296.56c0.849-3.406,6.6-6.396,16.557-8.976
			C390.952,290.672,384.02,294.489,373.913,296.56z"/>
		<path fill-rule="evenodd" clip-rule="evenodd" fill="#333333" d="M346.334,269.326l0.025-0.028
			c1.386,1.127,2.698,2.343,4.175,3.328c1.5,0.992,3.164,1.733,4.757,2.591c-0.205,0.478-0.404,0.956-0.607,1.435
			c-3.252-1.463-6.757-2.551-9.68-4.499C342.721,270.641,343.932,269.381,346.334,269.326z"/>
		<path fill-rule="evenodd" clip-rule="evenodd" fill="#FFFFFF" d="M368.502,205.364c-9.053,18.457-7.764,26.893,7.575,42.879
			c-9.272-3.389-15.053-8.606-16.987-17.236C356.741,220.508,360.968,212.246,368.502,205.364z"/>
		<path fill-rule="evenodd" clip-rule="evenodd" fill="#FFFFFF" d="M464.917,228.144c-2.8,7.637-2.102,10.046,4.456,15.083
			c-4.093,1.383-7.832,3.225-11.746,3.772c-2.31,0.323-6.126-0.693-7.103-2.371c-1.354-2.333-3.619-5.408-0.021-8.969
			C454.664,231.543,455.761,230.127,464.917,228.144z"/>
		<path fill-rule="evenodd" clip-rule="evenodd" fill="#FFFFFF" d="M478.845,240.967c4.188-6.674,1.798-11.213-3.56-14.921
			c10.611-4.073,21.417-2.244,21.417,7.78C492.514,240.782,485.638,239.529,478.845,240.967z"/>
		<path fill-rule="evenodd" clip-rule="evenodd" fill="#FFFFFF" d="M345.59,265.355c1.229,0.233,2.587,0.225,3.671,0.753
			c6.277,3.051,12.576,6.083,18.66,9.485c1.382,0.772,2.632,2.959,2.76,4.588c0.36,4.775,0.342,9.62,0.023,14.401
			c-0.106,1.587-1.56,3.075-2.396,4.603c-0.572-0.218-1.149-0.44-1.721-0.659c0-5.063-0.271-10.142,0.08-15.18
			c0.304-4.138-0.977-6.515-4.921-8.209c-5.646-2.437-11.001-5.55-16.477-8.376C345.379,266.293,345.486,265.822,345.59,265.355z"/>
		<path fill-rule="evenodd" clip-rule="evenodd" fill="#FFFFFF" d="M471.614,205.112c-3.128-0.738-6.129-1.095-8.819-2.186
			c-2.487-1.005-2.53-3.05,0.023-4.119c5.879-2.463,11.895-2.54,17.732,0.129c2.277,1.044,2.235,3.011-0.043,3.897
			C477.669,203.939,474.55,204.391,471.614,205.112z"/>
		<path fill-rule="evenodd" clip-rule="evenodd" fill="#FFFFFF" d="M440.573,218.809c-2.949-0.668-5.727-1.164-8.406-1.982
			c-0.83-0.249-1.896-1.322-1.96-2.085c-0.063-0.723,0.897-1.916,1.692-2.26c5.728-2.499,11.553-2.49,17.298-0.063
			c0.81,0.339,1.789,1.473,1.776,2.219c-0.012,0.749-1.041,1.902-1.842,2.156C446.315,217.637,443.396,218.176,440.573,218.809z"/>
		<polygon fill-rule="evenodd" clip-rule="evenodd" fill="none" points="406.096,241.44 382.498,241.613 382.266,210.687 
			405.883,210.522 		"/>
		
			<text transform="matrix(1 -0.0072 0.0072 1 382.3682 234.8496)" fill="#F9F9F9" font-family="'MyriadPro-Regular'" font-size="33.997">R</text>
		<polygon fill-rule="evenodd" clip-rule="evenodd" fill="none" points="478.938,242.946 467.937,243.025 467.83,228.609 
			478.835,228.536 		"/>
		
			<text transform="matrix(1.0001 -0.0071 0.0073 1 467.8408 239.8916)" fill="#F9F9F9" font-family="'MyriadPro-Regular'" font-size="15.8481">R</text>
	</g>
	<g>
		<path fill-rule="evenodd" clip-rule="evenodd" fill="#ED1C24" d="M351.425,310.535c-1.763,1.766-3.861,2.521-4.686,1.695l0,0
			c-0.831-0.829-0.068-2.928,1.69-4.687l143.014-143.016c1.764-1.762,3.862-2.519,4.688-1.69l0,0
			c0.827,0.826,0.068,2.923-1.691,4.687L351.425,310.535z"/>
		<path fill-rule="evenodd" clip-rule="evenodd" fill="#ED1C24" d="M479.568,306.391c1.506,1.79,2.003,3.854,1.104,4.606l0,0
			c-0.894,0.75-2.837-0.091-4.343-1.88L354.055,163.802c-1.511-1.792-2.008-3.853-1.113-4.607l0,0
			c0.895-0.752,2.844,0.089,4.347,1.878L479.568,306.391z"/>
	</g>
</g>
<g>
	<g>
		<path fill-rule="evenodd" clip-rule="evenodd" fill="#333333" d="M661.391,190.844v11.317h8.115v-3.207h71.273
			c0,31.896,0,63.786,0,95.682h-9.65l-2.619,8.106h20.38v-4.644v-3.463c0-34.597,0-69.196,0-103.792H661.391L661.391,190.844z
			 M659.632,224.316h56.337v28.752h-56.337V224.316L659.632,224.316z M659.513,301.782h24.582v3.351h-24.582V301.782
			L659.513,301.782z M659.513,291.458h24.582v3.35h-24.582V291.458L659.513,291.458z M659.513,280.194h35.443v3.352h-35.443V280.194
			L659.513,280.194z M659.513,270.003h46.576v3.354h-46.576V270.003L659.513,270.003z M659.513,260.615h56.456v3.354h-56.456
			V260.615L659.513,260.615z M731.191,208.406v65.093v0.593l-0.205,0.643l-13.8,42.752l-0.911,2.815h-2.936h-19.494h-8.409H643.7
			v-4.644v-3.463c0-34.597,0-69.192,0-103.789H731.191L731.191,208.406z M683.195,312.195h-31.387c0-31.892,0-63.786,0-95.678
			h71.277v53.434l-25.525,28.872l-2.343,2.652l2.313,2.667l6.958,8.053h-10.644H683.195L683.195,312.195z M718.38,287.468
			l-6.683,20.707l-5.745-6.648L718.38,287.468z"/>
		<g>
			<path fill-rule="evenodd" clip-rule="evenodd" fill="#ED1C24" d="M739.773,248.117c1.866,0.957,3.813,1.952,5.896,3.021
				c-2.408,3.74-4.596,7.143-6.98,10.855c-1.526-1.176-3.17-2.437-4.899-3.761c-7.322,8.276-16.154,12.465-26.573,12.843
				c-9.287,0.344-17.538-2.762-24.575-8.873c-12.919-11.22-15.884-31.342-6.757-45.598c9.511-14.87,28.343-20.895,44.145-14.145
				C736.038,209.298,746.382,227.405,739.773,248.117z M736.4,228.383c-3.956-16.844-20.465-27.123-37.224-23.181
				c-16.729,3.934-27.097,20.622-23.2,37.324c3.918,16.756,20.752,27.081,37.672,23.095
				C730.09,261.744,740.312,245.02,736.4,228.383z"/>
			<path fill-rule="evenodd" clip-rule="evenodd" fill="#ED1C24" d="M751.219,255.316c11.104,6.806,22.321,13.678,33.489,20.521
				c-2.05,3.27-4.15,6.608-6.223,9.914c-11.02-6.804-22.257-13.739-33.66-20.781C746.861,261.891,749.043,258.6,751.219,255.316z"/>
			<path fill-rule="evenodd" clip-rule="evenodd" fill="#ED1C24" d="M780.578,287.274c2.137-3.453,4.203-6.808,6.353-10.277
				c2.298,0.823,3.897,2.153,3.968,4.709c0.086,3.123-1.394,5.501-4.066,6.941C784.518,289.896,782.418,289.088,780.578,287.274z"/>
			<path fill-rule="evenodd" clip-rule="evenodd" fill="#ED1C24" d="M747.59,252.553c3.01,2.492-0.06,4.252-1.018,5.516
				c-1.474,1.942-1.396,6.013-5.854,5.468C743.102,259.724,745.227,256.327,747.59,252.553z"/>
			<path fill-rule="evenodd" clip-rule="evenodd" fill="#FFFFFF" d="M736.4,228.383c3.912,16.637-6.311,33.361-22.752,37.238
				c-16.92,3.986-33.754-6.339-37.672-23.095c-3.896-16.702,6.472-33.391,23.2-37.324C715.936,201.26,732.444,211.539,736.4,228.383
				z M713.251,264.453c15.901-3.655,25.773-19.599,22.075-35.65c-3.777-16.401-19.593-26.292-35.955-22.484
				c-15.914,3.7-25.966,19.732-22.305,35.58C680.889,258.455,696.644,268.276,713.251,264.453z"/>
			<path fill-rule="evenodd" clip-rule="evenodd" fill="#ED1C24" d="M713.251,264.453c-16.607,3.823-32.362-5.998-36.185-22.555
				c-3.661-15.848,6.391-31.88,22.305-35.58c16.362-3.808,32.178,6.083,35.955,22.484
				C739.024,244.854,729.152,260.798,713.251,264.453z M734.229,228.792c-3.72-15.383-19.192-24.965-34.537-21.391
				c-15.432,3.597-25.12,19.377-21.379,34.814c3.709,15.325,19.34,24.875,34.658,21.178
				C728.277,259.699,737.911,244.013,734.229,228.792z"/>
			<path fill-rule="evenodd" clip-rule="evenodd" fill="#ED1C24" d="M732.784,236.064c0.727,9.843-7.761,24.572-24.495,26.136
				c-13.092,1.222-26.543-8.448-28.529-21.319c5.975,13.139,15.613,19.812,29.532,18.068
				C722.24,257.33,729.635,249.028,732.784,236.064z"/>
		</g>
	</g>
	<g>
		<path fill-rule="evenodd" clip-rule="evenodd" fill="#ED1C24" d="M628.93,310.535c-1.761,1.766-3.859,2.521-4.684,1.695l0,0
			c-0.832-0.829-0.069-2.928,1.689-4.687l143.016-143.016c1.764-1.762,3.86-2.519,4.686-1.69l0,0
			c0.827,0.826,0.069,2.923-1.689,4.687L628.93,310.535z"/>
		<path fill-rule="evenodd" clip-rule="evenodd" fill="#ED1C24" d="M757.077,306.391c1.505,1.79,2.003,3.854,1.102,4.606l0,0
			c-0.892,0.75-2.837-0.091-4.344-1.88L631.562,163.802c-1.513-1.792-2.008-3.853-1.113-4.607l0,0
			c0.895-0.752,2.844,0.089,4.348,1.878L757.077,306.391z"/>
	</g>
</g>
</svg>
