<?xml version="1.0" encoding="utf-8"?>
<!-- Generator: Adobe Illustrator 16.0.0, SVG Export Plug-In . SVG Version: 6.00 Build 0)  -->
<!DOCTYPE svg PUBLIC "-//W3C//DTD SVG 1.1//EN" "http://www.w3.org/Graphics/SVG/1.1/DTD/svg11.dtd">
<svg version="1.1" id="Layer_1" xmlns="http://www.w3.org/2000/svg" xmlns:xlink="http://www.w3.org/1999/xlink" x="0px" y="0px"
	 width="250px" height="158.128px" viewBox="0 0 250 158.128" enable-background="new 0 0 250 158.128" xml:space="preserve">
<g>
	<path fill-rule="evenodd" clip-rule="evenodd" fill="#FFFFFF" d="M70.742,16.243v10.984h7.872v-3.114h69.171
		c0,30.953,0,61.906,0,92.859h-9.367l-2.541,7.871h19.778v-4.51v-3.361c0-33.575,0-67.154,0-100.729H70.742L70.742,16.243z
		 M69.031,48.73h54.676v27.9H69.031V48.73L69.031,48.73z M68.916,123.911h23.858v3.25H68.916V123.911L68.916,123.911z
		 M68.916,113.89h23.858v3.252H68.916V113.89L68.916,113.89z M68.916,102.96h34.402v3.252H68.916V102.96L68.916,102.96z
		 M68.916,93.067h45.205v3.256H68.916V93.067L68.916,93.067z M68.916,83.956h54.791v3.256H68.916V83.956L68.916,83.956z
		 M138.484,33.288V96.46v0.574l-0.2,0.623l-13.393,41.492l-0.885,2.736h-2.85h-18.922h-8.161H53.568v-4.508v-3.363
		c0-33.574,0-67.149,0-100.727H138.484L138.484,33.288z M91.9,134.015H61.438c0-30.951,0-61.905,0-92.856h69.174v51.858
		l-24.767,28.021l-2.275,2.572l2.243,2.592l6.755,7.812h-10.332H91.9L91.9,134.015z M126.048,110.015l-6.484,20.098l-5.578-6.451
		L126.048,110.015z"/>
	<g>
		<path fill-rule="evenodd" clip-rule="evenodd" fill="#ED1C24" d="M157.918,78.813c10.778,6.606,21.664,13.276,32.501,19.918
			c-1.989,3.174-4.027,6.412-6.041,9.621c-10.697-6.605-21.597-13.334-32.667-20.17C153.689,85.194,155.808,81.999,157.918,78.813z"
			/>
		<path fill-rule="evenodd" clip-rule="evenodd" fill="#ED1C24" d="M186.409,109.829c2.072-3.352,4.083-6.605,6.166-9.975
			c2.229,0.799,3.782,2.092,3.853,4.57c0.083,3.031-1.352,5.34-3.943,6.736C190.234,112.372,188.199,111.591,186.409,109.829z"/>
		<path fill-rule="evenodd" clip-rule="evenodd" fill="#ED1C24" d="M154.393,76.13c2.927,2.419-0.054,4.128-0.985,5.354
			c-1.432,1.884-1.355,5.836-5.678,5.309C150.042,83.09,152.101,79.795,154.393,76.13z"/>
		<path fill-rule="evenodd" clip-rule="evenodd" fill="#ED1C24" d="M146.81,71.827c6.413-20.102-3.626-37.674-19.161-44.311
			c-15.335-6.549-33.609-0.702-42.844,13.729c-8.855,13.834-5.978,33.362,6.559,44.25c6.828,5.933,14.836,8.945,23.854,8.615
			c10.113-0.369,18.679-4.434,25.785-12.465c1.675,1.285,3.271,2.508,4.755,3.65c2.316-3.604,4.438-6.904,6.775-10.536
			C150.513,73.723,148.621,72.755,146.81,71.827z M120.799,86.651c-14.864,3.588-30.034-5.679-33.636-20.551
			c-3.63-14.985,5.771-30.298,20.747-33.789c14.892-3.469,29.912,5.83,33.521,20.761C145.002,67.844,135.652,83.066,120.799,86.651z
			"/>
	</g>
</g>
</svg>
