<?xml version="1.0" encoding="utf-8"?>
<!-- Generator: Adobe Illustrator 16.0.0, SVG Export Plug-In . SVG Version: 6.00 Build 0)  -->
<!DOCTYPE svg PUBLIC "-//W3C//DTD SVG 1.1//EN" "http://www.w3.org/Graphics/SVG/1.1/DTD/svg11.dtd">
<svg version="1.1" id="Layer_1" xmlns="http://www.w3.org/2000/svg" xmlns:xlink="http://www.w3.org/1999/xlink" x="0px" y="0px"
	 width="120.167px" height="68.167px" viewBox="0 0 120.167 68.167" enable-background="new 0 0 120.167 68.167"
	 xml:space="preserve">
<path fill-rule="evenodd" clip-rule="evenodd" fill="#FFFFFF" d="M87.404,22.435c-3.13,3.142-5.959,6.003-8.819,8.837
	c-0.53,0.524-1.141,0.987-1.777,1.378c-3.963,2.45-5.494,7.124-3.645,11.218c1.818,4.02,6.398,6.16,10.547,4.924
	c4.341-1.295,7.012-5.465,6.18-10.009c-0.254-1.38,0.089-2.22,1.128-2.912c1.075-0.712,2.188-1.367,3.561-2.22
	c1.512,2.453,3.101,4.621,4.241,7.004c1.023,2.141,0.455,4.331-1.443,5.815C89.563,52.582,81.73,58.672,73.774,64.6
	c-1.069,0.796-2.954,1.021-4.342,0.788c-17.37-2.921-34.716-5.976-52.07-9c-3.25-0.567-6.506-1.114-9.741-1.745
	c-3.448-0.676-5.072-2.873-4.484-6.308c2.4-14.028,4.842-28.045,7.338-42.057c0.623-3.495,3.029-5.06,6.56-4.446
	c20.524,3.563,41.05,7.116,61.552,10.803c1.438,0.258,3.055,1.249,3.959,2.396C84.488,17.486,86.017,20.271,87.404,22.435z"/>
<path fill-rule="evenodd" clip-rule="evenodd" fill="#FFFFFF" d="M88.201,59.577c1.683-1.293,3.249-2.635,4.967-3.736
	c0.487-0.313,1.446-0.031,2.145,0.15c6.429,1.645,13.875-1.717,16.308-7.405c3.585-8.381-2.977-18.001-12.516-18.351
	c-7.138-0.258-12.421,3.602-14.335,10.473c-0.586,2.1-2.023,3.093-3.874,2.675c-1.815-0.407-2.68-1.943-2.312-4.116
	c1.27-7.504,8.132-13.808,16.428-15.092c10.673-1.654,21.283,5.355,23.426,15.477c2.236,10.576-4.822,20.831-15.517,22.54
	C96.908,63.154,92.152,62.343,88.201,59.577z"/>
<path fill="#0E5461" d="M17.062,20.547c1.117,0.195,1.884,0.646,2.301,1.352c0.366,0.617,0.463,1.407,0.296,2.367l-0.337,1.932
	c-0.164,0.939-0.659,1.673-1.488,2.199l0.475,6.059l-2.17-0.378l-0.344-5.216c-0.053-0.009-0.117-0.02-0.179-0.032l-1.155-0.201
	l-0.875,5.006l-2.005-0.349l2.32-13.291L17.062,20.547z M17.702,23.958c0.133-0.77-0.179-1.221-0.944-1.354l-1.209-0.21
	l-0.743,4.252l1.209,0.211c0.319,0.055,0.609-0.011,0.87-0.198c0.261-0.188,0.421-0.441,0.479-0.759L17.702,23.958z M21.393,34.993
	l1.787-10.234l-1.708-0.296l0.243-1.4c0.492,0.028,0.983-0.075,1.47-0.306c0.49-0.233,0.87-0.551,1.137-0.957l1.397,0.244
	l-2.32,13.298L21.393,34.993z M32.046,33.722c-0.157,0.884-0.598,1.578-1.329,2.085c-0.729,0.507-1.529,0.684-2.399,0.533
	c-0.882-0.153-1.583-0.594-2.093-1.318c-0.513-0.729-0.688-1.53-0.537-2.407l1.267-7.253c0.153-0.883,0.598-1.581,1.327-2.09
	c0.731-0.51,1.533-0.69,2.413-0.536c0.883,0.153,1.578,0.594,2.086,1.325c0.505,0.729,0.682,1.531,0.53,2.407L32.046,33.722z
	 M31.237,26.063c0.055-0.318-0.01-0.611-0.196-0.875c-0.188-0.265-0.439-0.425-0.758-0.48c-0.319-0.056-0.608,0.011-0.873,0.197
	c-0.261,0.187-0.42,0.439-0.476,0.759l-1.268,7.263c-0.056,0.318,0.008,0.611,0.193,0.875c0.184,0.266,0.433,0.425,0.752,0.481
	c0.317,0.055,0.608-0.01,0.876-0.197c0.265-0.187,0.424-0.44,0.48-0.758L31.237,26.063z M40.124,35.128
	c-0.152,0.884-0.595,1.578-1.324,2.086c-0.731,0.508-1.53,0.684-2.401,0.532c-0.883-0.155-1.58-0.593-2.092-1.318
	c-0.51-0.728-0.688-1.529-0.536-2.407l1.265-7.253c0.156-0.883,0.6-1.581,1.329-2.09c0.729-0.511,1.533-0.69,2.412-0.536
	c0.884,0.153,1.579,0.594,2.084,1.322c0.506,0.731,0.685,1.534,0.531,2.411L40.124,35.128z M39.32,27.47
	c0.056-0.317-0.008-0.609-0.195-0.874c-0.187-0.266-0.441-0.428-0.757-0.48c-0.321-0.059-0.61,0.008-0.874,0.197
	c-0.26,0.186-0.418,0.438-0.475,0.757l-1.269,7.264c-0.056,0.318,0.01,0.609,0.191,0.875c0.184,0.265,0.435,0.425,0.754,0.481
	c0.315,0.055,0.608-0.01,0.875-0.196c0.265-0.188,0.425-0.441,0.481-0.759L39.32,27.47z M40.974,38.402l0.351-1.995l2.003,0.35
	l-0.347,1.991l-0.995,1.402l-0.843-0.146l0.743-1.445L40.974,38.402z M51.254,37.066c-0.156,0.881-0.597,1.576-1.328,2.084
	c-0.727,0.507-1.527,0.686-2.397,0.534c-0.885-0.154-1.582-0.595-2.094-1.321c-0.511-0.726-0.689-1.528-0.536-2.403l1.267-7.255
	c0.155-0.884,0.596-1.58,1.327-2.091c0.729-0.51,1.535-0.688,2.411-0.536c0.886,0.154,1.579,0.594,2.087,1.325
	c0.507,0.729,0.683,1.531,0.529,2.407L51.254,37.066z M50.448,29.406c0.055-0.319-0.011-0.61-0.196-0.876
	c-0.187-0.264-0.439-0.423-0.757-0.48c-0.318-0.054-0.609,0.01-0.871,0.198c-0.264,0.188-0.421,0.439-0.478,0.76l-1.268,7.263
	c-0.056,0.319,0.008,0.61,0.192,0.875c0.182,0.265,0.432,0.425,0.751,0.48c0.318,0.053,0.611-0.01,0.874-0.197
	c0.267-0.188,0.428-0.441,0.483-0.76L50.448,29.406z M59.338,38.472c-0.154,0.883-0.598,1.579-1.328,2.084
	c-0.729,0.508-1.528,0.686-2.398,0.534c-0.886-0.154-1.583-0.594-2.094-1.319c-0.511-0.726-0.69-1.528-0.536-2.404l1.265-7.254
	c0.156-0.885,0.598-1.581,1.33-2.09c0.73-0.512,1.532-0.691,2.41-0.538c0.885,0.154,1.58,0.594,2.086,1.325
	c0.506,0.729,0.685,1.533,0.53,2.408L59.338,38.472z M58.531,30.813c0.056-0.318-0.008-0.61-0.196-0.876
	c-0.186-0.265-0.44-0.424-0.757-0.48c-0.317-0.056-0.608,0.011-0.87,0.198s-0.422,0.44-0.478,0.76l-1.268,7.263
	c-0.058,0.319,0.008,0.609,0.191,0.875c0.183,0.266,0.431,0.425,0.752,0.48c0.318,0.056,0.609-0.008,0.874-0.197
	c0.268-0.187,0.428-0.438,0.483-0.757L58.531,30.813z M67.419,39.878c-0.153,0.883-0.596,1.579-1.326,2.084
	c-0.729,0.509-1.526,0.688-2.398,0.534c-0.885-0.154-1.582-0.594-2.092-1.318c-0.512-0.726-0.689-1.529-0.539-2.405l1.268-7.254
	c0.153-0.885,0.598-1.582,1.326-2.092c0.731-0.511,1.535-0.689,2.412-0.536c0.885,0.153,1.58,0.595,2.086,1.324
	c0.506,0.729,0.682,1.532,0.529,2.409L67.419,39.878z M66.615,32.22c0.056-0.319-0.012-0.611-0.198-0.876
	c-0.186-0.265-0.438-0.426-0.757-0.479c-0.318-0.057-0.608,0.008-0.871,0.197c-0.263,0.187-0.422,0.439-0.477,0.759l-1.269,7.263
	c-0.056,0.319,0.009,0.609,0.192,0.877c0.184,0.262,0.433,0.424,0.752,0.479c0.318,0.054,0.61-0.01,0.877-0.197
	c0.265-0.187,0.426-0.441,0.482-0.758L66.615,32.22z"/>
</svg>
