<?xml version="1.0" encoding="utf-8"?>
<!-- Generator: Adobe Illustrator 16.0.0, SVG Export Plug-In . SVG Version: 6.00 Build 0)  -->
<!DOCTYPE svg PUBLIC "-//W3C//DTD SVG 1.1//EN" "http://www.w3.org/Graphics/SVG/1.1/DTD/svg11.dtd">
<svg version="1.1" id="Layer_1" xmlns="http://www.w3.org/2000/svg" xmlns:xlink="http://www.w3.org/1999/xlink" x="0px" y="0px"
	 width="120.167px" height="68.167px" viewBox="0 0 120.167 68.167" enable-background="new 0 0 120.167 68.167"
	 xml:space="preserve">
<path fill-rule="evenodd" clip-rule="evenodd" fill="#FFFFFF" d="M87.404,22.435c-3.13,3.142-5.959,6.003-8.819,8.837
	c-0.53,0.524-1.141,0.987-1.777,1.378c-3.963,2.45-5.494,7.124-3.645,11.218c1.818,4.02,6.398,6.16,10.547,4.924
	c4.341-1.295,7.012-5.465,6.18-10.009c-0.254-1.38,0.089-2.22,1.128-2.912c1.075-0.712,2.188-1.367,3.561-2.22
	c1.512,2.453,3.101,4.621,4.241,7.004c1.023,2.141,0.455,4.331-1.443,5.815C89.563,52.582,81.73,58.672,73.774,64.6
	c-1.069,0.796-2.954,1.021-4.342,0.788c-17.37-2.921-34.716-5.976-52.07-9c-3.25-0.567-6.506-1.114-9.741-1.745
	c-3.448-0.676-5.072-2.873-4.484-6.308c2.4-14.028,4.842-28.045,7.338-42.057c0.623-3.495,3.029-5.06,6.56-4.446
	c20.524,3.563,41.05,7.116,61.552,10.803c1.438,0.258,3.055,1.249,3.959,2.396C84.488,17.486,86.017,20.271,87.404,22.435z"/>
<path fill-rule="evenodd" clip-rule="evenodd" fill="#FFFFFF" d="M88.201,59.577c1.683-1.293,3.249-2.635,4.967-3.736
	c0.487-0.313,1.446-0.031,2.145,0.15c6.429,1.645,13.875-1.717,16.308-7.405c3.585-8.381-2.977-18.001-12.516-18.351
	c-7.138-0.258-12.421,3.602-14.335,10.473c-0.586,2.1-2.023,3.093-3.874,2.675c-1.815-0.407-2.68-1.943-2.312-4.116
	c1.27-7.504,8.132-13.808,16.428-15.092c10.673-1.654,21.283,5.355,23.426,15.477c2.236,10.576-4.822,20.831-15.517,22.54
	C96.908,63.154,92.152,62.343,88.201,59.577z"/>
<path fill="#0E5461" d="M44.803,14.287c3.311,0.578,5.582,1.916,6.818,4.008c1.084,1.828,1.373,4.17,0.877,7.016l-1,5.727
	c-0.486,2.781-1.953,4.957-4.41,6.518l1.406,17.959l-6.432-1.121l-1.02-15.461c-0.156-0.027-0.346-0.061-0.529-0.096l-3.424-0.594
	L34.498,53.08l-5.943-1.033l6.875-39.393L44.803,14.287z M46.697,24.398c0.396-2.283-0.529-3.619-2.797-4.016l-3.584-0.623
	l-2.203,12.604l3.584,0.625c0.945,0.164,1.807-0.033,2.58-0.588c0.773-0.559,1.248-1.307,1.42-2.248L46.697,24.398z"/>
</svg>
