<?xml version="1.0" encoding="utf-8"?>
<!-- Generator: Adobe Illustrator 16.0.0, SVG Export Plug-In . SVG Version: 6.00 Build 0)  -->
<!DOCTYPE svg PUBLIC "-//W3C//DTD SVG 1.1//EN" "http://www.w3.org/Graphics/SVG/1.1/DTD/svg11.dtd">
<svg version="1.1" id="Layer_1" xmlns="http://www.w3.org/2000/svg" xmlns:xlink="http://www.w3.org/1999/xlink" x="0px" y="0px"
	 width="855.795px" height="410px" viewBox="0 0 855.795 410" enable-background="new 0 0 855.795 410" xml:space="preserve">
<g>
	<g>
		<path fill="#333333" d="M-152.68,85.793c-0.141-5.379-4.371-9.568-9.613-9.529c-4.871,0.033-9.492,4.805-9.523,9.83
			c-0.027,5.235,4.168,9.139,9.836,9.149C-156.344,95.267-152.535,91.39-152.68,85.793z"/>
		<path fill="#333333" d="M-148.551,220.288c-0.012,5.251,4.34,9.588,9.578,9.554c5.395-0.034,9.533-4.174,9.527-9.531
			c-0.008-5.379-4.117-9.503-9.502-9.544C-144.23,210.727-148.533,215.003-148.551,220.288z"/>
		<path fill="#333333" d="M-195.297,220.257c-0.027,5.326,4.113,9.516,9.469,9.596c5.193,0.075,9.6-4.288,9.629-9.512
			c0.02-5.234-4.326-9.592-9.557-9.568C-191.15,210.785-195.268,214.885-195.297,220.257z"/>
		<path fill="#333333" d="M-171.699,63.401c-0.135,4.961,4.445,9.725,9.406,9.785c5.408,0.061,9.479-3.923,9.586-9.401
			c0.104-5.463-3.797-9.572-9.244-9.728C-167.248,53.913-171.543,58.032-171.699,63.401z"/>
		<path fill="#333333" d="M-171.684,130.979c0.08,5.22,4.51,9.435,9.781,9.302c5.543-0.145,9.406-4.178,9.227-9.648
			c-0.176-5.614-4.223-9.621-9.535-9.442C-167.289,121.369-171.758,125.98-171.684,130.979z"/>
		<path fill="#333333" d="M-176.305,130.435c-0.176-5.045-4.928-9.512-9.914-9.317c-5.354,0.209-9.129,4.333-9.094,9.934
			c0.025,5.433,4.129,9.362,9.633,9.229C-180.68,140.156-176.137,135.392-176.305,130.435z"/>
		<path fill="#333333" d="M-105.234,176.015c0.168-5.014-4.189-9.621-9.328-9.867c-5.615-0.268-9.564,3.45-9.645,9.072
			c-0.076,5.699,3.676,9.896,8.936,10.018C-110.227,185.348-105.395,180.912-105.234,176.015z"/>
		<path fill="#333333" d="M-152.688,108.757c0.273-5.577-3.465-9.576-9.055-9.675c-5.654-0.1-9.922,3.687-10.039,8.918
			c-0.117,5.028,4.328,9.884,9.209,10.062C-157.6,118.246-152.936,113.847-152.688,108.757z"/>
		<path fill="#333333" d="M-139.816,143.618c-5.266,0.612-9.111,5.242-8.656,10.408c0.492,5.444,4.631,8.72,10.447,8.271
			c5.627-0.435,9.098-4.527,8.58-10.108C-129.934,146.992-134.73,143.024-139.816,143.618z"/>
		<path fill="#333333" d="M-129.436,85.793c-0.145-5.087-4.701-9.575-9.658-9.519c-4.977,0.057-9.488,4.809-9.336,9.83
			c0.174,5.502,4.084,9.169,9.773,9.162C-133.012,95.255-129.271,91.414-129.436,85.793z"/>
		<path fill="#333333" d="M-195.309,85.938c-0.104,5.565,3.76,9.416,9.365,9.321c5.408-0.088,9.783-4.266,9.756-9.31
			c-0.035-4.965-4.721-9.69-9.596-9.664C-190.758,76.309-195.205,80.818-195.309,85.938z"/>
		<path fill="#333333" d="M-162.236,207.323c5.592,0.022,9.596-3.861,9.545-9.256c-0.051-5.415-4.195-9.812-9.244-9.801
			c-5.021,0.004-9.729,4.581-9.754,9.484C-171.725,203.046-167.518,207.304-162.236,207.323z"/>
		<path fill="#333333" d="M-114.635,140.281c4.975-0.069,9.521-4.782,9.416-9.758c-0.102-4.896-4.848-9.382-9.9-9.355
			c-5.227,0.034-9.115,4.253-9.084,9.85C-124.172,136.438-120.121,140.357-114.635,140.281z"/>
		<path fill="#333333" d="M-171.773,152.957c-0.164,5.255,3.838,9.174,9.539,9.345c5.924,0.175,9.521-3.2,9.57-8.987
			c0.047-5.275-4.062-9.541-9.348-9.708C-167.121,143.45-171.607,147.749-171.773,152.957z"/>
		<path fill="#333333" d="M-195.309,153.006c-0.1,5.46,3.832,9.508,9.289,9.58c5.184,0.075,9.68-4.182,9.812-9.272
			c0.133-5.143-4.23-9.59-9.432-9.616C-191.02,143.664-195.213,147.7-195.309,153.006z"/>
		<path fill="#333333" d="M-210.014,185.226c5.289,0.202,9.396-3.899,9.439-9.428c0.047-5.646-3.766-9.674-9.145-9.663
			c-5.145,0.013-9.688,4.353-9.816,9.378C-219.656,180.373-215.08,185.037-210.014,185.226z"/>
		<path fill="#333333" d="M-138.793,118.063c5.014-0.145,9.357-4.664,9.381-9.759c0.021-5.52-3.85-9.286-9.482-9.222
			c-5.271,0.068-9.506,4.276-9.539,9.484C-148.469,113.498-143.688,118.208-138.793,118.063z"/>
		<path fill="#333333" d="M-162.176,389.55c5.254-0.068,9.449-4.311,9.4-9.53c-0.049-5.497-3.893-9.328-9.404-9.37
			c-5.242-0.034-9.668,4.272-9.564,9.313C-171.631,384.997-167.043,389.603-162.176,389.55z"/>
		<path fill="#333333" d="M-138.344,389.458c5.307-0.734,8.828-3.651,8.812-9.495c-0.006-5.665-4.027-9.561-9.498-9.358
			c-5.438,0.197-9.537,4.474-9.348,9.75C-148.207,385.418-143.275,390.151-138.344,389.458z"/>
		<path fill="#333333" d="M-148.412,130.245c-0.273,4.904,4.162,9.777,9.104,10.024c5.328,0.267,9.57-3.618,9.859-9.039
			c0.289-5.433-3.607-9.872-8.822-10.04C-143.287,121.023-148.137,125.364-148.412,130.245z"/>
		<path fill="#333333" d="M-209.834,140.281c5.373-0.069,9.289-4.143,9.26-9.63c-0.027-5.478-4.143-9.628-9.391-9.469
			c-5.078,0.164-9.646,4.76-9.57,9.637C-219.463,135.788-214.799,140.334-209.834,140.281z"/>
		<path fill="#333333" d="M-148.445,357.471c0.133,5.464,4.047,9.226,9.662,9.271c5.666,0.042,9.406-3.687,9.334-9.317
			c-0.066-5.212-4.441-9.606-9.479-9.507C-144.146,348.005-148.562,352.45-148.445,357.471z"/>
		<path fill="#333333" d="M-114.555,162.506c5.432-0.465,8.887-3.48,9.281-9.024c0.389-5.432-4.457-10.097-9.834-9.99
			c-4.998,0.1-9.199,4.691-9.1,9.934C-124.102,158.9-119.928,162.974-114.555,162.506z"/>
		<path fill="#333333" d="M-139.186,185.151c4.877,0.145,9.629-4.455,9.721-9.397c0.094-5.543-3.76-9.584-9.168-9.605
			c-5.639-0.023-9.607,3.663-9.789,9.111C-148.602,180.261-144.166,185.009-139.186,185.151z"/>
		<path fill="#333333" d="M-162.057,185.139c5.268-0.134,9.305-4.291,9.369-9.66c0.064-5.333-3.938-9.259-9.48-9.298
			c-5.189-0.033-9.492,4.246-9.521,9.477C-171.725,180.562-166.947,185.272-162.057,185.139z"/>
		<path fill="#333333" d="M-171.768,220.03c-0.197,5.113,4.045,9.655,9.186,9.823c5.242,0.182,9.646-3.865,9.883-9.074
			c0.258-5.565-3.428-9.465-9.035-9.568C-167.406,211.108-171.564,214.764-171.768,220.03z"/>
		<path fill="#333333" d="M-162.066,366.708c5.67,0.068,9.43-3.629,9.387-9.218c-0.049-5.277-4.162-9.37-9.488-9.451
			c-5.061-0.063-9.58,4.376-9.605,9.439C-171.797,362.455-167.383,366.64-162.066,366.708z"/>
		<path fill="#333333" d="M-200.539,220.707c0.193-5.52-3.502-9.5-9.035-9.735c-5.381-0.222-9.68,3.721-9.859,9.017
			c-0.186,5.288,3.906,9.721,9.094,9.854C-205.025,229.974-200.727,225.968-200.539,220.707z"/>
		<path fill="#333333" d="M-185.691,366.731c5.285-0.179,9.414-4.421,9.375-9.605c-0.039-4.977-4.654-9.307-9.83-9.219
			c-4.963,0.08-9.213,4.642-9.15,9.838C-195.229,363.315-191.367,366.929-185.691,366.731z"/>
		<path fill="#333333" d="M-195.264,379.564c-0.129,5.732,3.643,9.872,9.006,9.895c5.205,0.023,9.686-4.283,9.801-9.427
			c0.105-4.977-4.484-9.438-9.693-9.438C-191.486,370.605-195.141,374.2-195.264,379.564z"/>
		<path fill="#333333" d="M-219.512,379.898c-0.131,4.631,4.195,9.317,8.895,9.63c5.158,0.334,9.801-3.873,9.982-9.051
			c0.191-5.577-3.572-9.675-9.059-9.838C-215.045,370.459-219.367,374.534-219.512,379.898z"/>
		<path fill="#333333" d="M-209.971,118.063c4.984-0.095,9.439-4.577,9.396-9.675c-0.043-5.639-2.93-8.872-8.621-9.249
			c-5.43-0.357-10.258,4.117-10.34,9.394C-219.619,113.441-214.887,118.15-209.971,118.063z"/>
		<path fill="#333333" d="M-185.945,117.96c5.02-0.012,9.633-4.485,9.738-9.451c0.104-4.766-4.559-9.316-9.658-9.427
			c-5.586-0.118-9.471,3.676-9.451,9.218C-195.309,113.452-190.922,117.968-185.945,117.96z"/>
		<path fill="#333333" d="M-138.996,207.323c5.389,0.061,9.402-3.861,9.523-9.317c0.121-5.208-4.166-9.758-9.184-9.75
			c-4.965,0.011-9.705,4.584-9.773,9.428C-148.496,202.647-143.986,207.265-138.996,207.323z"/>
		<path fill="#333333" d="M-176.305,175.286c-0.301-5.038-4.855-9.2-9.986-9.138c-5.365,0.067-9.105,4.135-8.963,9.75
			c0.121,5.189,4.549,9.408,9.703,9.245C-180.598,184.994-176.012,180.105-176.305,175.286z"/>
		<path fill="#333333" d="M-195.277,197.744c0,5.481,3.887,9.5,9.275,9.567c4.975,0.065,9.615-4.413,9.725-9.386
			c0.094-4.809-4.547-9.503-9.547-9.647C-190.82,188.125-195.277,192.584-195.277,197.744z"/>
		<path fill="#333333" d="M-209.971,162.301c5.475,0.061,9.188-3.337,9.416-8.637c0.232-5.447-3.812-9.952-8.982-9.99
			c-5.562-0.046-9.701,3.815-9.881,9.219C-219.598,158.413-215.76,162.237-209.971,162.301z"/>
		<path fill="#333333" d="M-114.635,117.918c5.059-0.19,9.328-4.311,9.408-9.085c0.086-5.312-4.748-9.94-10.188-9.74
			c-5.32,0.194-8.879,3.965-8.781,9.295C-124.09,113.688-119.662,118.104-114.635,117.918z"/>
		<path fill="#333333" d="M-105.369,379.564c-0.178-5.041-4.24-8.925-9.328-8.925c-5.631,0.011-9.51,3.838-9.441,9.339
			c0.072,5.417,4.279,9.596,9.5,9.428C-109.465,389.239-105.186,384.696-105.369,379.564z"/>
		<path fill="#333333" d="M-115.191,229.818c5.1,0.21,9.725-4.086,9.857-9.16c0.133-5.155-4.158-9.646-9.279-9.713
			c-5.375-0.072-9.68,3.892-9.857,9.088C-124.645,225.097-120.367,229.605-115.191,229.818z"/>
		<path fill="#333333" d="M-200.566,357.358c-0.129-5.231-4.471-9.55-9.5-9.439c-5.146,0.121-9.461,4.565-9.387,9.674
			c0.074,4.764,4.93,9.439,9.787,9.428C-204.393,367.008-200.434,362.801-200.566,357.358z"/>
		<path fill="#333333" d="M-219.414,197.816c-0.164,4.903,4.398,9.51,9.447,9.529c5.395,0.012,9.324-3.93,9.385-9.431
			c0.055-5.255-4.184-9.671-9.252-9.648C-214.842,188.278-219.238,192.66-219.414,197.816z"/>
		<path fill="#333333" d="M-114.73,367.008c4.891-0.167,9.506-4.964,9.385-9.762c-0.129-5.154-4.576-9.45-9.682-9.362
			c-4.973,0.092-9.191,4.618-9.154,9.819C-124.137,363.125-120.004,367.188-114.73,367.008z"/>
		<path fill="#333333" d="M-114.756,207.333c4.77-0.022,9.242-4.31,9.416-9.016c0.189-5.145-4.197-9.896-9.213-9.987
			c-5.15-0.087-9.598,4.288-9.619,9.48C-124.195,203.293-120.178,207.36-114.756,207.333z"/>
		<path fill="#333333" d="M-233.809,144.591c-4.834,0.407-8.275,3.073-8.432,8.134c-0.168,5.326,3.092,8.457,8.252,9.092
			c4.492,0.556,8.654-3.762,8.717-8.525C-225.211,148.541-229.236,144.207-233.809,144.591z"/>
		<path fill="#333333" d="M-91.148,161.829c4.631,0.267,8.625-4.051,8.576-8.738c-0.057-4.69-4.182-8.693-8.803-8.541
			c-4.604,0.148-8.254,4.28-8.104,10.032C-99.102,158.9-96.047,161.54-91.148,161.829z"/>
		<path fill="#333333" d="M-234.365,139.021c5.314,0.111,8.586-2.557,9.088-7.912c0.439-4.748-3.445-8.736-8.305-8.701
			c-5.477,0.034-8.053,3.268-8.797,8.188C-241.936,135.719-239.613,138.912-234.365,139.021z"/>
		<path fill="#333333" d="M-99.438,175.689c0.023,5.015,2.965,7.936,7.955,8.339c4.883,0.396,9.082-3.968,8.938-8.947
			c-0.139-4.729-3.35-7.651-8.445-7.675C-96.553,167.361-99.463,170.297-99.438,175.689z"/>
		<path fill="#333333" d="M-194.365,402.919c0.557,5.006,3.453,7.669,8.635,7.502c4.955-0.167,8.701-4.021,8.203-8.762
			c-0.521-5.033-3.609-7.514-8.045-7.734C-190.705,394.146-194.863,398.499-194.365,402.919z"/>
		<path fill="#333333" d="M-106.49,402.295c-0.365-4.798-2.811-8.058-8.016-8.317c-4.775-0.243-8.773,3.597-8.834,8.306
			c-0.062,4.664,3.275,8.035,8.053,8.138C-110.203,410.52-106.141,406.959-106.49,402.295z"/>
		<path fill="#333333" d="M-233.494,184.036c5.049-0.289,7.971-3.15,8.217-8.245c0.242-4.956-3.51-8.452-8.648-8.385
			c-5.059,0.065-8.303,3.192-8.266,7.972C-242.152,180.156-238.17,184.301-233.494,184.036z"/>
		<path fill="#333333" d="M-218.254,402.996c0.602,5.174,3.961,7.503,8.969,7.392c5.375-0.125,7.988-3.474,7.779-8.416
			c-0.213-4.941-3.352-7.757-7.838-8.004C-214.775,394.146-218.793,398.331-218.254,402.996z"/>
		<path fill="#333333" d="M-91.398,138.995c4.988,0.301,8.859-3.313,8.75-8.29c-0.105-5.09-2.951-7.963-8.018-8.289
			c-4.906-0.323-8.822,3.477-8.836,8.971C-99.043,135.646-96.523,138.687-91.398,138.995z"/>
		<path fill="#333333" d="M-170.318,401.85c-0.367,5.087,2.574,8.081,7.688,8.491c4.877,0.399,9.217-3.428,9-8.104
			c-0.229-5.04-3.207-7.768-8.092-8.312C-167.072,394.001-169.967,396.996-170.318,401.85z"/>
		<path fill="#333333" d="M-130.893,402.527c0.096-5.041-2.609-8.068-7.662-8.525c-4.805-0.434-8.887,3.462-8.674,8.248
			c0.225,5.053,3.125,7.716,7.967,8.203C-134.068,410.174-130.988,407.706-130.893,402.527z"/>
		<path fill="#333333" d="M-264.986,152.922c0.033,4.844,2.703,7.804,7.551,7.738c4.459-0.068,7.252-2.963,7.369-7.347
			c0.121-4.899-2.994-7.281-7.697-7.669C-262.41,145.912-265.018,148.292-264.986,152.922z"/>
		<path fill="#333333" d="M-74.66,153.353c0.127,4.413,2.941,7.273,7.402,7.308c4.85,0.043,7.523-2.94,7.527-7.779
			c0.006-4.634-2.621-7.016-7.332-7.232C-71.725,146.052-74.809,148.46-74.66,153.353z"/>
		<path fill="#333333" d="M-162.221,432.078c4.887-0.074,7.627-3.135,7.596-7.742c-0.025-4.487-3.129-7.013-7.562-6.891
			c-4.457,0.11-7.045,2.624-7.029,7.983C-169.066,429.309-166.949,432.148-162.221,432.078z"/>
		<path fill="#333333" d="M-193.379,425.447c0.223,4.465,3.465,6.857,7.904,6.547c4.518-0.314,6.859-3.064,6.686-7.705
			c-0.172-4.685-2.711-6.936-7.256-7.081C-190.883,417.913-193.619,420.85-193.379,425.447z"/>
		<path fill="#333333" d="M-257.637,182.795c5.002,0.016,7.691-2.838,7.586-7.57c-0.109-4.87-3.557-7.408-8.115-7.229
			c-4.475,0.18-6.51,3.451-6.928,7.256C-264.688,180.353-262.25,182.777-257.637,182.795z"/>
		<path fill="#333333" d="M-59.777,175.643c-0.074-4.843-3.008-7.682-7.684-7.56c-4.268,0.114-7.293,2.797-7.229,7.343
			c0.064,4.771,2.82,7.385,7.818,7.419C-62.408,182.555-59.703,180.261-59.777,175.643z"/>
		<path fill="#333333" d="M-139.082,432.016c4.629,0.242,7.434-2.607,7.59-6.98c0.154-4.33-2.355-7.469-6.99-7.625
			c-4.516-0.156-7.213,2.261-7.451,6.234C-146.068,429.098-143.611,431.758-139.082,432.016z"/>
		<path fill="#333333" d="M-115.023,432.016c4.547,0.023,7.24-2.738,7.227-7.312c-0.002-4.565-2.707-7.316-7.25-7.292
			c-4.523,0.022-6.875,2.926-7.535,7.322C-121.912,429.109-119.527,432.004-115.023,432.016z"/>
		<path fill="#333333" d="M-209.441,431.994c4.363-0.268,7.375-2.906,6.951-7.514c-0.387-4.21-2.92-7.294-7.596-7.07
			c-4.594,0.209-6.736,3.162-6.973,7.681C-216.457,429.508-214.004,432.281-209.441,431.994z"/>
		<path fill-rule="evenodd" clip-rule="evenodd" fill="#333333" d="M-161.98,95.244c5.637,0.023,9.445-3.854,9.301-9.45
			c-0.141-5.379-4.371-9.568-9.613-9.529c-4.871,0.033-9.492,4.805-9.523,9.83C-171.844,91.33-167.648,95.233-161.98,95.244z"/>
		<path fill-rule="evenodd" clip-rule="evenodd" fill="#333333" d="M-138.947,210.766c-5.283-0.039-9.586,4.237-9.604,9.521
			c-0.012,5.251,4.34,9.588,9.578,9.554c5.395-0.034,9.533-4.174,9.527-9.531C-129.453,214.931-133.562,210.807-138.947,210.766z"/>
		<path fill-rule="evenodd" clip-rule="evenodd" fill="#333333" d="M-185.756,210.773c-5.395,0.012-9.512,4.112-9.541,9.484
			c-0.027,5.326,4.113,9.516,9.469,9.596c5.193,0.075,9.6-4.288,9.629-9.512C-176.18,215.107-180.525,210.75-185.756,210.773z"/>
		<path fill-rule="evenodd" clip-rule="evenodd" fill="#333333" d="M-161.951,54.057c-5.297-0.145-9.592,3.975-9.748,9.344
			c-0.135,4.961,4.445,9.725,9.406,9.785c5.408,0.061,9.479-3.923,9.586-9.401C-152.604,58.322-156.504,54.212-161.951,54.057z"/>
		<path fill-rule="evenodd" clip-rule="evenodd" fill="#333333" d="M-162.211,121.19c-5.078,0.179-9.547,4.79-9.473,9.789
			c0.08,5.22,4.51,9.435,9.781,9.302c5.543-0.145,9.406-4.178,9.227-9.648C-152.852,125.018-156.898,121.011-162.211,121.19z"/>
		<path fill-rule="evenodd" clip-rule="evenodd" fill="#333333" d="M-185.68,140.281c5-0.125,9.543-4.889,9.375-9.846
			c-0.176-5.045-4.928-9.512-9.914-9.317c-5.354,0.209-9.129,4.333-9.094,9.934C-195.287,136.484-191.184,140.414-185.68,140.281z"
			/>
		<path fill-rule="evenodd" clip-rule="evenodd" fill="#333333" d="M-115.271,185.238c5.045,0.11,9.877-4.326,10.037-9.223
			c0.168-5.014-4.189-9.621-9.328-9.867c-5.615-0.268-9.564,3.45-9.645,9.072C-124.283,180.919-120.531,185.117-115.271,185.238z"/>
		<path fill-rule="evenodd" clip-rule="evenodd" fill="#333333" d="M-162.572,118.063c4.973,0.183,9.637-4.216,9.885-9.306
			c0.273-5.577-3.465-9.576-9.055-9.675c-5.654-0.1-9.922,3.687-10.039,8.918C-171.898,113.029-167.453,117.884-162.572,118.063z"/>
		<path fill-rule="evenodd" clip-rule="evenodd" fill="#333333" d="M-129.445,152.189c-0.488-5.197-5.285-9.165-10.371-8.571
			c-5.266,0.612-9.111,5.242-8.656,10.408c0.492,5.444,4.631,8.72,10.447,8.271C-132.398,161.863-128.928,157.77-129.445,152.189z"
			/>
		<path fill-rule="evenodd" clip-rule="evenodd" fill="#333333" d="M-138.656,95.267c5.645-0.012,9.385-3.854,9.221-9.474
			c-0.145-5.087-4.701-9.575-9.658-9.519c-4.977,0.057-9.488,4.809-9.336,9.83C-148.256,91.607-144.346,95.274-138.656,95.267z"/>
		<path fill-rule="evenodd" clip-rule="evenodd" fill="#333333" d="M-185.783,76.286c-4.975,0.023-9.422,4.532-9.525,9.652
			c-0.104,5.565,3.76,9.416,9.365,9.321c5.408-0.088,9.783-4.266,9.756-9.31C-176.223,80.985-180.908,76.259-185.783,76.286z"/>
		<path fill-rule="evenodd" clip-rule="evenodd" fill="#333333" d="M-171.689,197.75c-0.035,5.296,4.172,9.554,9.453,9.572
			c5.592,0.022,9.596-3.861,9.545-9.256c-0.051-5.415-4.195-9.812-9.244-9.801C-166.957,188.27-171.664,192.847-171.689,197.75z"/>
		<path fill-rule="evenodd" clip-rule="evenodd" fill="#333333" d="M-124.203,131.017c0.031,5.421,4.082,9.34,9.568,9.264
			c4.975-0.069,9.521-4.782,9.416-9.758c-0.102-4.896-4.848-9.382-9.9-9.355C-120.346,121.202-124.234,125.42-124.203,131.017z"/>
		<path fill-rule="evenodd" clip-rule="evenodd" fill="#333333" d="M-162.012,143.606c-5.109-0.156-9.596,4.143-9.762,9.351
			c-0.164,5.255,3.838,9.174,9.539,9.345c5.924,0.175,9.521-3.2,9.57-8.987C-152.617,148.039-156.727,143.773-162.012,143.606z"/>
		<path fill-rule="evenodd" clip-rule="evenodd" fill="#333333" d="M-185.639,143.698c-5.381-0.034-9.574,4.002-9.67,9.309
			c-0.1,5.46,3.832,9.508,9.289,9.58c5.184,0.075,9.68-4.182,9.812-9.272C-176.074,148.171-180.438,143.724-185.639,143.698z"/>
		<path fill-rule="evenodd" clip-rule="evenodd" fill="#333333" d="M-219.535,175.513c-0.121,4.859,4.455,9.523,9.521,9.713
			c5.289,0.202,9.396-3.899,9.439-9.428c0.047-5.646-3.766-9.674-9.145-9.663C-214.863,166.148-219.406,170.488-219.535,175.513z"/>
		<path fill-rule="evenodd" clip-rule="evenodd" fill="#333333" d="M-148.434,108.567c-0.035,4.931,4.746,9.641,9.641,9.496
			c5.014-0.145,9.357-4.664,9.381-9.759c0.021-5.52-3.85-9.286-9.482-9.222C-144.166,99.151-148.4,103.359-148.434,108.567z"/>
		<path fill-rule="evenodd" clip-rule="evenodd" fill="#333333" d="M-171.744,379.963c0.113,5.033,4.701,9.64,9.568,9.587
			c5.254-0.068,9.449-4.311,9.4-9.53c-0.049-5.497-3.893-9.328-9.404-9.37C-167.422,370.616-171.848,374.922-171.744,379.963z"/>
		<path fill-rule="evenodd" clip-rule="evenodd" fill="#333333" d="M-148.377,380.355c0.17,5.063,5.102,9.796,10.033,9.104
			c5.307-0.734,8.828-3.651,8.812-9.495c-0.006-5.665-4.027-9.561-9.498-9.358C-144.467,370.802-148.566,375.079-148.377,380.355z"
			/>
		<path fill-rule="evenodd" clip-rule="evenodd" fill="#333333" d="M-138.271,121.19c-5.016-0.167-9.865,4.174-10.141,9.055
			c-0.273,4.904,4.162,9.777,9.104,10.024c5.328,0.267,9.57-3.618,9.859-9.039C-129.16,125.797-133.057,121.358-138.271,121.19z"/>
		<path fill-rule="evenodd" clip-rule="evenodd" fill="#333333" d="M-219.535,130.819c0.072,4.969,4.736,9.516,9.701,9.462
			c5.373-0.069,9.289-4.143,9.26-9.63c-0.027-5.478-4.143-9.628-9.391-9.469C-215.043,121.346-219.611,125.942-219.535,130.819z"/>
		<path fill-rule="evenodd" clip-rule="evenodd" fill="#333333" d="M-138.928,347.918c-5.219,0.087-9.635,4.531-9.518,9.553
			c0.133,5.464,4.047,9.226,9.662,9.271c5.666,0.042,9.406-3.687,9.334-9.317C-129.516,352.213-133.891,347.819-138.928,347.918z"/>
		<path fill-rule="evenodd" clip-rule="evenodd" fill="#333333" d="M-124.207,153.425c0.105,5.475,4.279,9.549,9.652,9.081
			c5.432-0.465,8.887-3.48,9.281-9.024c0.389-5.432-4.457-10.097-9.834-9.99C-120.105,143.591-124.307,148.183-124.207,153.425z"/>
		<path fill-rule="evenodd" clip-rule="evenodd" fill="#333333" d="M-148.422,175.259c-0.18,5.002,4.256,9.75,9.236,9.892
			c4.877,0.145,9.629-4.455,9.721-9.397c0.094-5.543-3.76-9.584-9.168-9.605C-144.271,166.125-148.24,169.811-148.422,175.259z"/>
		<path fill-rule="evenodd" clip-rule="evenodd" fill="#333333" d="M-171.689,175.658c-0.035,4.904,4.742,9.614,9.633,9.481
			c5.268-0.134,9.305-4.291,9.369-9.66c0.064-5.333-3.938-9.259-9.48-9.298C-167.357,166.148-171.66,170.427-171.689,175.658z"/>
		<path fill-rule="evenodd" clip-rule="evenodd" fill="#333333" d="M-161.734,211.21c-5.672-0.103-9.83,3.554-10.033,8.819
			c-0.197,5.113,4.045,9.655,9.186,9.823c5.242,0.182,9.646-3.865,9.883-9.074C-152.441,215.213-156.127,211.314-161.734,211.21z"/>
		<path fill-rule="evenodd" clip-rule="evenodd" fill="#333333" d="M-171.773,357.479c-0.023,4.976,4.391,9.161,9.707,9.229
			c5.67,0.068,9.43-3.629,9.387-9.218c-0.049-5.277-4.162-9.37-9.488-9.451C-167.229,347.976-171.748,352.416-171.773,357.479z"/>
		<path fill-rule="evenodd" clip-rule="evenodd" fill="#333333" d="M-210.34,229.841c5.314,0.133,9.613-3.873,9.801-9.135
			c0.193-5.52-3.502-9.5-9.035-9.735c-5.381-0.222-9.68,3.721-9.859,9.017C-219.619,225.276-215.527,229.708-210.34,229.841z"/>
		<path fill-rule="evenodd" clip-rule="evenodd" fill="#333333" d="M-195.297,357.745c0.068,5.57,3.93,9.185,9.605,8.986
			c5.285-0.179,9.414-4.421,9.375-9.605c-0.039-4.977-4.654-9.307-9.83-9.219C-191.109,347.987-195.359,352.548-195.297,357.745z"/>
		<path fill-rule="evenodd" clip-rule="evenodd" fill="#333333" d="M-186.15,370.593c-5.336,0.012-8.99,3.606-9.113,8.971
			c-0.129,5.732,3.643,9.872,9.006,9.895c5.205,0.023,9.686-4.283,9.801-9.427C-176.352,375.055-180.941,370.593-186.15,370.593z"/>
		<path fill-rule="evenodd" clip-rule="evenodd" fill="#333333" d="M-209.693,370.639c-5.352-0.18-9.674,3.895-9.818,9.259
			c-0.131,4.631,4.195,9.317,8.895,9.63c5.158,0.334,9.801-3.873,9.982-9.051C-200.443,374.9-204.207,370.802-209.693,370.639z"/>
		<path fill-rule="evenodd" clip-rule="evenodd" fill="#333333" d="M-219.535,108.533c-0.084,4.908,4.648,9.617,9.564,9.53
			c4.984-0.095,9.439-4.577,9.396-9.675c-0.043-5.639-2.93-8.872-8.621-9.249C-214.625,98.782-219.453,103.256-219.535,108.533z"/>
		<path fill-rule="evenodd" clip-rule="evenodd" fill="#333333" d="M-195.316,108.3c0.008,5.151,4.395,9.668,9.371,9.66
			c5.02-0.012,9.633-4.485,9.738-9.451c0.104-4.766-4.559-9.316-9.658-9.427C-191.451,98.964-195.336,102.758-195.316,108.3z"/>
		<path fill-rule="evenodd" clip-rule="evenodd" fill="#333333" d="M-148.43,197.683c-0.066,4.964,4.443,9.582,9.434,9.64
			c5.389,0.061,9.402-3.861,9.523-9.317c0.121-5.208-4.166-9.758-9.184-9.75C-143.621,188.266-148.361,192.839-148.43,197.683z"/>
		<path fill-rule="evenodd" clip-rule="evenodd" fill="#333333" d="M-185.551,185.143c4.953-0.149,9.539-5.038,9.246-9.857
			c-0.301-5.038-4.855-9.2-9.986-9.138c-5.365,0.067-9.105,4.135-8.963,9.75C-195.133,181.087-190.705,185.306-185.551,185.143z"/>
		<path fill-rule="evenodd" clip-rule="evenodd" fill="#333333" d="M-185.824,188.278c-4.996-0.152-9.453,4.307-9.453,9.466
			c0,5.481,3.887,9.5,9.275,9.567c4.975,0.065,9.615-4.413,9.725-9.386C-176.184,193.117-180.824,188.422-185.824,188.278z"/>
		<path fill-rule="evenodd" clip-rule="evenodd" fill="#333333" d="M-219.418,152.893c-0.18,5.52,3.658,9.344,9.447,9.408
			c5.475,0.061,9.188-3.337,9.416-8.637c0.232-5.447-3.812-9.952-8.982-9.99C-215.1,143.628-219.238,147.49-219.418,152.893z"/>
		<path fill-rule="evenodd" clip-rule="evenodd" fill="#333333" d="M-124.195,108.388c0.105,5.3,4.533,9.716,9.561,9.53
			c5.059-0.19,9.328-4.311,9.408-9.085c0.086-5.312-4.748-9.94-10.188-9.74C-120.734,99.288-124.293,103.058-124.195,108.388z"/>
		<path fill-rule="evenodd" clip-rule="evenodd" fill="#333333" d="M-114.639,389.406c5.174-0.167,9.453-4.71,9.27-9.842
			c-0.178-5.041-4.24-8.925-9.328-8.925c-5.631,0.011-9.51,3.838-9.441,9.339C-124.066,385.395-119.859,389.574-114.639,389.406z"/>
		<path fill-rule="evenodd" clip-rule="evenodd" fill="#333333" d="M-124.471,220.033c-0.174,5.064,4.104,9.572,9.279,9.785
			c5.1,0.21,9.725-4.086,9.857-9.16c0.133-5.155-4.158-9.646-9.279-9.713C-119.988,210.873-124.293,214.836-124.471,220.033z"/>
		<path fill-rule="evenodd" clip-rule="evenodd" fill="#333333" d="M-209.666,367.02c5.273-0.012,9.232-4.219,9.1-9.662
			c-0.129-5.231-4.471-9.55-9.5-9.439c-5.146,0.121-9.461,4.565-9.387,9.674C-219.379,362.356-214.523,367.032-209.666,367.02z"/>
		<path fill-rule="evenodd" clip-rule="evenodd" fill="#333333" d="M-209.834,188.266c-5.008,0.012-9.404,4.394-9.58,9.55
			c-0.164,4.903,4.398,9.51,9.447,9.529c5.395,0.012,9.324-3.93,9.385-9.431C-200.527,192.66-204.766,188.244-209.834,188.266z"/>
		<path fill-rule="evenodd" clip-rule="evenodd" fill="#333333" d="M-124.182,357.704c0.045,5.422,4.178,9.484,9.451,9.305
			c4.891-0.167,9.506-4.964,9.385-9.762c-0.129-5.154-4.576-9.45-9.682-9.362C-120,347.976-124.219,352.502-124.182,357.704z"/>
		<path fill-rule="evenodd" clip-rule="evenodd" fill="#333333" d="M-124.172,197.811c-0.023,5.482,3.994,9.549,9.416,9.522
			c4.77-0.022,9.242-4.31,9.416-9.016c0.189-5.145-4.197-9.896-9.213-9.987C-119.703,188.244-124.15,192.619-124.172,197.811z"/>
		<path fill-rule="evenodd" clip-rule="evenodd" fill="#333333" d="M-225.271,153.292c0.061-4.751-3.965-9.085-8.537-8.7
			c-4.834,0.407-8.275,3.073-8.432,8.134c-0.168,5.326,3.092,8.457,8.252,9.092C-229.496,162.373-225.334,158.055-225.271,153.292z"
			/>
		<path fill-rule="evenodd" clip-rule="evenodd" fill="#333333" d="M-99.479,154.582c0.377,4.318,3.432,6.958,8.33,7.247
			c4.631,0.267,8.625-4.051,8.576-8.738c-0.057-4.69-4.182-8.693-8.803-8.541C-95.979,144.698-99.629,148.83-99.479,154.582z"/>
		<path fill-rule="evenodd" clip-rule="evenodd" fill="#333333" d="M-242.379,130.595c0.443,5.124,2.766,8.316,8.014,8.426
			c5.314,0.111,8.586-2.557,9.088-7.912c0.439-4.748-3.445-8.736-8.305-8.701C-239.059,122.442-241.635,125.675-242.379,130.595z"/>
		<path fill-rule="evenodd" clip-rule="evenodd" fill="#333333" d="M-90.998,167.395c-5.555-0.034-8.465,2.902-8.439,8.294
			c0.023,5.015,2.965,7.936,7.955,8.339c4.883,0.396,9.082-3.968,8.938-8.947C-82.684,170.351-85.895,167.429-90.998,167.395z"/>
		<path fill-rule="evenodd" clip-rule="evenodd" fill="#333333" d="M-185.572,393.925c-5.133,0.221-9.291,4.573-8.793,8.994
			c0.557,5.006,3.453,7.669,8.635,7.502c4.955-0.167,8.701-4.021,8.203-8.762C-178.049,396.626-181.137,394.146-185.572,393.925z"/>
		<path fill-rule="evenodd" clip-rule="evenodd" fill="#333333" d="M-115.287,410.421c5.084,0.099,9.146-3.462,8.797-8.126
			c-0.365-4.798-2.811-8.058-8.016-8.317c-4.775-0.243-8.773,3.597-8.834,8.306C-123.402,406.948-120.064,410.319-115.287,410.421z"
			/>
		<path fill-rule="evenodd" clip-rule="evenodd" fill="#333333" d="M-242.191,175.377c0.039,4.778,4.021,8.924,8.697,8.658
			c5.049-0.289,7.971-3.15,8.217-8.245c0.242-4.956-3.51-8.452-8.648-8.385C-238.984,167.471-242.229,170.598-242.191,175.377z"/>
		<path fill-rule="evenodd" clip-rule="evenodd" fill="#333333" d="M-209.344,393.967c-5.432,0.179-9.449,4.363-8.91,9.028
			c0.602,5.174,3.961,7.503,8.969,7.392c5.375-0.125,7.988-3.474,7.779-8.416C-201.719,397.03-204.857,394.214-209.344,393.967z"/>
		<path fill-rule="evenodd" clip-rule="evenodd" fill="#333333" d="M-99.502,131.386c0.459,4.26,2.979,7.301,8.104,7.608
			c4.988,0.301,8.859-3.313,8.75-8.29c-0.105-5.09-2.951-7.963-8.018-8.289C-95.572,122.092-99.488,125.892-99.502,131.386z"/>
		<path fill-rule="evenodd" clip-rule="evenodd" fill="#333333" d="M-161.723,393.925c-5.35,0.076-8.244,3.07-8.596,7.925
			c-0.367,5.087,2.574,8.081,7.688,8.491c4.877,0.399,9.217-3.428,9-8.104C-153.859,397.198-156.838,394.47-161.723,393.925z"/>
		<path fill-rule="evenodd" clip-rule="evenodd" fill="#333333" d="M-139.262,410.453c5.193-0.278,8.273-2.747,8.369-7.926
			c0.096-5.041-2.609-8.068-7.662-8.525c-4.805-0.434-8.887,3.462-8.674,8.248C-147.004,407.302-144.104,409.965-139.262,410.453z"
			/>
		<path fill-rule="evenodd" clip-rule="evenodd" fill="#333333" d="M-257.764,145.645c-4.646,0.267-7.254,2.647-7.223,7.277
			c0.033,4.844,2.703,7.804,7.551,7.738c4.459-0.068,7.252-2.963,7.369-7.347C-249.945,148.415-253.061,146.033-257.764,145.645z"/>
		<path fill-rule="evenodd" clip-rule="evenodd" fill="#333333" d="M-67.062,145.649c-4.662,0.403-7.746,2.812-7.598,7.704
			c0.127,4.413,2.941,7.273,7.402,7.308c4.85,0.043,7.523-2.94,7.527-7.779C-59.725,148.248-62.352,145.866-67.062,145.649z"/>
		<path fill-rule="evenodd" clip-rule="evenodd" fill="#333333" d="M-169.217,425.428c0.15,3.881,2.268,6.721,6.996,6.65
			c4.887-0.074,7.627-3.135,7.596-7.742c-0.025-4.487-3.129-7.013-7.562-6.891C-166.645,417.555-169.232,420.069-169.217,425.428z"
			/>
		<path fill-rule="evenodd" clip-rule="evenodd" fill="#333333" d="M-186.045,417.208c-4.838,0.704-7.574,3.641-7.334,8.239
			c0.223,4.465,3.465,6.857,7.904,6.547c4.518-0.314,6.859-3.064,6.686-7.705C-178.961,419.604-181.5,417.353-186.045,417.208z"/>
		<path fill-rule="evenodd" clip-rule="evenodd" fill="#333333" d="M-265.094,175.251c0.406,5.102,2.844,7.525,7.457,7.544
			c5.002,0.016,7.691-2.838,7.586-7.57c-0.109-4.87-3.557-7.408-8.115-7.229C-262.641,168.175-264.676,171.447-265.094,175.251z"/>
		<path fill-rule="evenodd" clip-rule="evenodd" fill="#333333" d="M-66.871,182.845c4.463-0.29,7.168-2.584,7.094-7.202
			c-0.074-4.843-3.008-7.682-7.684-7.56c-4.268,0.114-7.293,2.797-7.229,7.343C-74.625,180.197-71.869,182.811-66.871,182.845z"/>
		<path fill-rule="evenodd" clip-rule="evenodd" fill="#333333" d="M-145.934,423.645c-0.135,5.453,2.322,8.113,6.852,8.371
			c4.629,0.242,7.434-2.607,7.59-6.98c0.154-4.33-2.355-7.469-6.99-7.625C-142.998,417.254-145.695,419.671-145.934,423.645z"/>
		<path fill-rule="evenodd" clip-rule="evenodd" fill="#333333" d="M-122.582,424.732c0.67,4.377,3.055,7.271,7.559,7.283
			c4.547,0.023,7.24-2.738,7.227-7.312c-0.002-4.565-2.707-7.316-7.25-7.292C-119.57,417.433-121.922,420.336-122.582,424.732z"/>
		<path fill-rule="evenodd" clip-rule="evenodd" fill="#333333" d="M-217.059,425.092c0.602,4.416,3.055,7.189,7.617,6.902
			c4.363-0.268,7.375-2.906,6.951-7.514c-0.387-4.21-2.92-7.294-7.596-7.07C-214.68,417.62-216.822,420.572-217.059,425.092z"/>
	</g>
</g>
<g>
	<rect x="448.295" y="57.259" fill="none" width="371.705" height="101.767"/>
	<text transform="matrix(1 0 0 1 448.2949 84.5728)"><tspan x="0" y="0" fill="#0E5461" font-family="'Lato-Bold'" font-size="36.7611">5 485 </tspan><tspan x="99.475" y="0" fill="#FFFFFF" font-family="'Lato-Regular'" font-size="24.5074">reports of alleged </tspan><tspan x="0" y="29.409" fill="#FFFFFF" font-family="'Lato-Regular'" font-size="24.5074">corruption received since our </tspan><tspan x="0" y="58.817" fill="#FFFFFF" font-family="'Lato-Regular'" font-size="24.5074">January 2012 launch. </tspan></text>
	<rect x="448.295" y="253.307" fill="none" width="371.705" height="105.851"/>
	<text transform="matrix(1 0 0 1 448.2949 280.6201)"><tspan x="0" y="0" fill="#5DC7C3" font-family="'Lato-Bold'" font-size="36.7611">2 262</tspan><tspan x="92.38" y="0" fill="#FFFFFF" font-family="'Lato-Bold'" font-size="36.7611"> </tspan><tspan x="99.475" y="0" fill="#FFFFFF" font-family="'Lato-Regular'" font-size="24.5074">reports received in 2013, </tspan><tspan x="0" y="29.409" fill="#FFFFFF" font-family="'Lato-Regular'" font-size="24.5074">with a marked improvement in </tspan><tspan x="0" y="58.817" fill="#FFFFFF" font-family="'Lato-Regular'" font-size="24.5074">overall reporting quality.</tspan></text>
</g>
<rect x="127.795" y="-135.5" fill="none" width="761" height="112"/>
<text transform="matrix(1 0 0 1 127.7949 -108.1865)"><tspan x="0" y="0" fill="#ED1C24" font-family="'Lato-Bold'" font-size="36.7611">5396</tspan><tspan x="0" y="44.113" fill="#ED1C24" font-family="'Lato-Bold'" font-size="36.7611">2262</tspan></text>
<path fill="#ED1C24" d="M1156.601,361.959c5.514-0.233,9.805-4.874,9.541-10.33c-0.254-5.421-4.352-9.339-9.699-9.294
	c-5.434,0.046-10.092,4.619-10.014,9.842C1146.501,357.451,1151.413,362.183,1156.601,361.959z M1237.343,144.154
	c0.064-5.577-4.17-10.128-9.621-10.329c-5.457-0.202-10.254,4.308-10.25,9.629c0.012,5.231,4.805,10.074,10.002,10.102
	C1232.292,153.582,1237.286,148.818,1237.343,144.154z M1156.571,153.425c5.354-0.209,9.861-4.942,9.75-10.237
	c-0.117-5.433-4.588-9.275-10.557-9.074c-5.471,0.183-9.492,4.276-9.352,9.53C1146.55,149.046,1151.306,153.627,1156.571,153.425z
	 M1179.61,153.425c5.217-0.054,9.564-4.208,9.775-9.347c0.23-5.825-3.551-9.976-9.334-10.231c-5.527-0.254-10.1,3.995-10.215,9.474
	C1169.726,148.697,1174.356,153.482,1179.61,153.425z M1156.522,130.653c5.355-0.123,9.633-4.151,9.777-9.227
	c0.16-5.41-4.297-10.112-9.664-10.191c-5.307-0.072-10.117,4.603-10.105,9.812C1146.55,126.624,1150.884,130.774,1156.522,130.653z
	 M1227.46,362.04c5.215,0.045,9.473-4.565,9.477-10.277c0-5.71-3.652-9.438-9.215-9.415c-5.676,0.022-10.219,4.295-10.242,9.64
	C1217.456,357.151,1222.259,361.994,1227.46,362.04z M1180.034,451.301c5.852-0.191,9.604-4.285,9.348-10.211
	c-0.23-5.166-4.684-9.385-9.807-9.293c-5.318,0.088-10.01,4.92-9.85,10.119C1169.909,447.594,1174.19,451.492,1180.034,451.301z
	 M1146.524,419.285c-0.074,5.352,4.553,9.94,9.951,9.864c5.238-0.078,9.477-4.223,9.656-9.43c0.193-5.878-3.631-9.919-9.473-10.006
	C1150.96,409.625,1146.597,413.753,1146.524,419.285z M1132.308,362.028c5.324-0.023,10.068-4.699,10.049-9.907
	c-0.033-5.322-4.01-9.519-9.275-9.785c-5.617-0.277-10.137,3.831-10.277,9.34C1122.671,357.085,1127.224,362.04,1132.308,362.028z
	 M1180.269,429.127c5.299-0.324,9.307-4.756,9.127-10.064c-0.189-5.68-4.619-9.675-10.396-9.373
	c-5.533,0.288-9.371,4.409-9.223,9.865C1169.929,424.861,1174.958,429.445,1180.269,429.127z M1213.417,352.177
	c0.121-5.166-3.986-9.575-9.184-9.842c-5.688-0.289-10.09,3.671-10.318,9.294c-0.236,5.768,3.701,10.143,9.32,10.33
	C1208.388,362.149,1213.284,357.428,1213.417,352.177z M1193.915,419.352c0.121,5.343,4.873,10.007,10.029,9.839
	c5.119-0.156,9.412-4.52,9.484-9.636c0.086-5.681-4.053-9.877-9.729-9.889C1197.776,409.655,1193.786,413.608,1193.915,419.352z
	 M1132.405,406.562c5.547,0.088,9.906-4.196,9.951-9.796c0.043-4.908-4.42-9.596-9.385-9.838
	c-5.383-0.268-10.006,4.108-10.162,9.605C1122.647,402.21,1126.729,406.475,1132.405,406.562z M1132.265,153.516
	c5.291,0.023,10.107-4.683,10.102-9.864c-0.004-5.242-4.057-9.561-9.238-9.839c-5.625-0.304-10.145,3.786-10.318,9.329
	C1122.642,148.555,1127.14,153.498,1132.265,153.516z M1146.519,374.541c0.088,5.295,4.887,9.868,10.186,9.716
	c5.531-0.155,9.482-4.488,9.428-10.31c-0.057-5.197-4.307-9.313-9.629-9.313C1151.116,364.633,1146.425,369.283,1146.519,374.541z
	 M1155.776,406.239c5.82,0.312,10.195-3.618,10.395-9.329c0.193-5.542-4.27-10.139-9.783-10.073
	c-5.018,0.057-9.758,4.622-9.893,9.519C1146.364,401.529,1150.515,405.972,1155.776,406.239z M1189.507,397.314
	c0.273-5.335-4.18-10.12-9.637-10.356c-4.996-0.208-9.82,4.166-10.109,9.177c-0.334,5.63,3.828,10.005,9.621,10.128
	C1184.827,406.373,1189.251,402.464,1189.507,397.314z M1203.71,153.459c4.969,0,9.66-4.63,9.742-9.605
	c0.082-5.231-4.07-9.763-9.195-10.041c-5.701-0.312-10.225,3.812-10.352,9.439C1193.782,148.635,1198.417,153.459,1203.71,153.459z
	 M1236.882,397.368c0.176-5.521-4.275-10.531-9.387-10.539c-5.008-0.023-9.715,4.481-9.918,9.47
	c-0.219,5.722,3.988,10.241,9.586,10.275C1232.872,406.597,1236.702,402.979,1236.882,397.368z M1131.88,384.222
	c5.387,0.312,10.291-4.15,10.463-9.518c0.178-5.521-4.262-10.053-9.826-10.041c-5.355,0.022-9.551,4.121-9.686,9.462
	C1122.688,379.49,1126.659,383.911,1131.88,384.222z M1179.468,384.21c5.609,0.055,10.025-4.386,9.918-9.964
	c-0.123-5.718-4.547-9.86-10.221-9.571c-5.064,0.255-9.537,4.965-9.416,9.895C1169.882,379.646,1174.437,384.166,1179.468,384.21z
	 M1203.222,130.664c5.744,0.11,10.172-4.052,10.195-9.583c0.023-5.167-4.93-9.908-10.246-9.812
	c-5.227,0.095-9.201,4.314-9.254,9.835C1193.87,126.65,1197.667,130.564,1203.222,130.664z M1179.468,361.815
	c5.119,0.109,9.695-4.196,9.918-9.341c0.25-5.763-3.799-10.059-9.539-10.139c-5.168-0.064-9.941,4.265-10.109,9.161
	C1169.548,356.883,1174.114,361.715,1179.468,361.815z M1189.267,121.095c-0.016-5.741-4.383-10.066-9.912-9.805
	c-5.086,0.24-9.652,4.882-9.582,9.744c0.074,5.539,4.549,9.728,10.232,9.606C1185.745,130.507,1189.286,126.855,1189.267,121.095z
	 M1189.405,329.054c-0.211-5.266-4.613-9.427-9.859-9.306c-5.045,0.103-9.758,4.71-9.809,9.587
	c-0.047,5.486,4.463,9.93,10.041,9.861C1185.413,339.14,1189.616,334.701,1189.405,329.054z M1202.995,339.208
	c5.781,0.186,10.33-3.907,10.457-9.416c0.109-4.988-4.312-9.785-9.295-10.097c-5.322-0.324-10.086,4.185-10.252,9.693
	C1193.737,334.966,1197.483,339.018,1202.995,339.208z M1155.669,339.163c5.748,0.369,10.246-3.596,10.439-9.218
	c0.191-5.25-3.838-9.781-9.027-10.15c-5.285-0.389-10.371,4.131-10.572,9.404C1146.306,334.354,1150.409,338.817,1155.669,339.163z
	 M1131.937,130.653c5.867,0.17,10.303-3.805,10.406-9.341c0.102-4.941-4.328-9.679-9.324-9.982
	c-5.566-0.347-10.033,3.857-10.193,9.583C1122.671,126.433,1126.46,130.484,1131.937,130.653z M1203.062,406.574
	c5.441,0.255,10.256-4.219,10.318-9.606c0.062-5.266-4.703-10.085-10.002-10.108c-4.822-0.022-9.352,4.676-9.463,9.797
	C1193.806,402.054,1197.735,406.315,1203.062,406.574z M1217.556,329.823c0.176,5.646,4.352,9.428,10.443,9.442
	c5.348,0.02,9.021-4.021,8.926-9.808c-0.088-5.489-4.166-9.731-9.359-9.731C1222.276,319.726,1217.407,324.649,1217.556,329.823z
	 M1236.89,121.125c-0.059-5.589-3.914-9.758-9.145-9.876c-5.48-0.122-10.492,5.067-10.213,10.553
	c0.271,5.22,4.529,8.948,10.131,8.861C1233.265,130.576,1236.948,126.764,1236.89,121.125z M1122.8,329.401
	c-0.145,5.843,3.938,9.918,9.803,9.785c5.574-0.123,9.664-4.063,9.713-9.37c0.051-5.335-4.604-10.021-9.982-10.067
	C1127.263,319.708,1122.933,324.093,1122.8,329.401z M1237.226,374.091c-0.156-5.307-4.344-9.348-9.742-9.405
	c-5.289-0.053-10.148,4.9-9.908,10.098c0.24,5.063,4.869,9.481,9.91,9.438C1233.052,384.176,1237.392,379.657,1237.226,374.091z
	 M1203.042,384.21c5.395,0.29,10.256-4.185,10.387-9.549c0.117-5.258-4.676-10.043-9.986-9.976c-5.334,0.069-9.428,4.174-9.516,9.55
	C1193.831,379.616,1197.788,383.933,1203.042,384.21z M1117.597,351.629c-0.254-5.554-3.971-8.034-8.93-8.525
	c-4.838-0.49-9.277,4.196-8.902,9.15c0.418,5.311,3.621,8.08,8.363,8.647C1113.421,360.902,1117.823,356.53,1117.597,351.629z
	 M1218.743,98.478c-0.182,5.405,2.744,8.521,8.256,8.834c5.318,0.3,9.492-3.429,9.348-8.617c-0.145-5.521-3.605-7.997-8.008-8.515
	C1222.05,90.207,1218.921,93.075,1218.743,98.478z M1165.161,99.052c0.117-5.188-3.012-8.549-8.309-9.123
	c-5.068-0.551-9.369,3.546-9.232,8.731c0.154,5.444,3.34,8.172,8.484,8.728C1161.646,107.19,1165.038,104.348,1165.161,99.052z
	 M1252.288,382.998c5.158-0.393,8.324-4.417,7.721-9.918c-0.639-5.768-4.525-7.469-9.598-7.301c-4.795,0.155-8.33,4.395-7.943,9.172
	C1242.901,380.193,1246.815,383.397,1252.288,382.998z M1108.433,382.974c5.494,0.069,8.414-3.039,9.008-8.168
	c0.555-4.785-3.848-9.131-8.844-9.218c-4.898-0.099-8.852,3.527-8.957,8.214C1099.522,378.946,1103.284,382.917,1108.433,382.974z
	 M1194.874,99.128c0.326,5.532,3.705,8.092,8.975,8.172c5.717,0.088,8.176-3.374,8.275-8.64c0.113-5.543-3.033-8.241-7.867-8.613
	C1198.466,90.025,1194.554,93.92,1194.874,99.128z M1260.044,352.387c0.322-5.087-3.596-9.462-8.613-9.307
	c-5.311,0.156-8.301,3.406-8.906,8.496c-0.545,4.618,4.066,9.261,9.451,9.348C1256.487,360.38,1259.694,357.762,1260.044,352.387z
	 M1108.651,338.486c5.141-0.381,8.402-3.387,8.895-8.595c0.449-4.831-3.988-9.073-8.965-9.039c-4.883,0.034-8.77,3.698-8.902,8.404
	C1099.546,333.966,1104.009,338.817,1108.651,338.486z M1132.321,107.342c5.391,0.034,8.943-3.614,8.742-9.036
	c-0.213-5.573-3.453-8.316-8.756-8.206c-5.344,0.126-8.195,3.276-8.584,8.964C1124.446,103.777,1126.649,107.3,1132.321,107.342z
	 M1179.345,107.3c5.443,0.197,8.498-2.85,9.1-8.065c0.57-4.953-3.602-9.135-8.734-9.21c-4.596-0.069-8.725,3.929-8.869,9.16
	C1171.329,103.792,1173.901,107.099,1179.345,107.3z M1250.956,338.462c5.227-0.126,8.711-2.818,9.016-8.26
	c0.297-5.364-2.598-8.628-7.918-9.259c-4.934-0.594-9.389,3.571-9.566,8.559C1242.323,334.065,1246.349,338.573,1250.956,338.462z
	 M1076.804,329.502c0.055,4.585,2.682,7.724,7.582,8.081c4.496,0.32,8.547-3.641,8.211-8.114c-0.365-4.798-3.193-7.339-7.855-7.716
	C1079.774,322.112,1076.751,324.695,1076.804,329.502z M1140.212,77.032c0.24-5.018-2.471-8.122-7.674-8.278
	c-4.949-0.155-7.66,2.805-7.852,7.411c-0.205,4.676,2.336,7.605,6.768,7.871C1136.745,84.051,1139.983,81.909,1140.212,77.032z
	 M1267.522,329.915c0.156,4.977,3.174,7.646,7.848,7.566c4.699-0.076,7.73-3.093,7.672-7.849c-0.062-4.596-2.594-7.631-6.008-7.769
	C1270.116,321.933,1267.368,324.603,1267.522,329.915z M1227.638,84.013c5.037,0,7.533-3.093,7.48-7.818
	c-0.049-4.383-2.4-7.343-7.143-7.452c-5.252-0.114-7.971,2.644-8.242,8.644C1219.995,81.621,1222.854,84.013,1227.638,84.013z
	 M1211.323,76.054c-0.168-4.736-3.23-7.514-8.09-7.289c-4.799,0.21-7.693,3.021-7.5,7.879c0.199,4.858,3.314,7.19,8.219,7.392
	C1208.702,83.583,1211.479,80.742,1211.323,76.054z M1274.96,359.611c4.822,0.1,7.869-2.479,8.07-7.247
	c0.219-5.098-2.793-8.069-7.902-8.126c-4.869-0.042-7.314,2.918-7.803,7.872C1267.714,356.606,1270.03,359.512,1274.96,359.611z
	 M1172.144,76.332c-0.004,4.475,2.191,7.438,6.844,7.583c4.961,0.145,8.328-2.161,8.414-7.537c0.082-5.048-3.148-7.103-7.59-7.685
	C1174.771,68.875,1172.153,71.424,1172.144,76.332z M1092.503,352.132c0.119-4.6-2.662-7.693-7.471-7.884
	c-5.182-0.212-8.184,2.851-8.205,7.815c-0.023,4.721,3.125,7.178,7.703,7.646C1089.472,359.456,1092.39,356.74,1092.503,352.132z
	 M1156.437,83.869c4.828,0.046,7.641-2.827,7.615-7.67c-0.037-4.542-2.84-7.201-7.283-7.335c-4.734-0.14-7.65,2.306-7.928,7.145
	C1148.913,81.187,1151.694,83.819,1156.437,83.869z M1195.151,306.692c-0.012,5.258,4.342,9.587,9.572,9.554
	c5.398-0.035,9.537-4.175,9.525-9.531c-0.01-5.375-4.117-9.503-9.492-9.537C1199.47,297.131,1195.163,301.408,1195.151,306.692z
	 M1148.397,306.662c-0.023,5.33,4.121,9.515,9.475,9.594c5.189,0.077,9.596-4.287,9.631-9.507c0.021-5.23-4.33-9.595-9.562-9.571
	C1152.554,297.188,1148.433,301.296,1148.397,306.662z M1181.46,293.726c5.6,0.023,9.594-3.861,9.549-9.252
	c-0.053-5.418-4.195-9.815-9.248-9.805c-5.023,0.012-9.729,4.585-9.752,9.485C1171.976,289.45,1176.183,293.715,1181.46,293.726z
	 M1171.929,306.437c-0.199,5.109,4.045,9.651,9.184,9.818c5.242,0.19,9.652-3.865,9.887-9.073c0.256-5.565-3.43-9.461-9.037-9.561
	C1176.292,297.511,1172.13,301.171,1171.929,306.437z M1143.155,307.118c0.203-5.524-3.496-9.508-9.039-9.739
	c-5.375-0.225-9.67,3.718-9.848,9.017c-0.191,5.285,3.906,9.717,9.092,9.851C1138.671,316.378,1142.966,312.373,1143.155,307.118z
	 M1204.702,293.726c5.385,0.069,9.402-3.861,9.529-9.317c0.123-5.208-4.178-9.75-9.186-9.75c-4.963,0.011-9.707,4.588-9.773,9.427
	C1195.206,289.05,1199.714,293.669,1204.702,293.726z M1148.421,284.155c0,5.474,3.887,9.495,9.271,9.561
	c4.977,0.064,9.619-4.41,9.729-9.386c0.092-4.81-4.551-9.504-9.549-9.648S1148.421,278.988,1148.421,284.155z M1228.509,316.222
	c5.098,0.209,9.721-4.086,9.854-9.161c0.133-5.155-4.152-9.641-9.271-9.705c-5.381-0.08-9.686,3.885-9.863,9.081
	C1219.048,311.5,1223.335,316.013,1228.509,316.222z M1124.292,284.219c-0.168,4.911,4.396,9.519,9.438,9.53
	c5.398,0.012,9.328-3.931,9.381-9.428c0.057-5.258-4.186-9.675-9.248-9.652C1128.851,274.681,1124.458,279.064,1124.292,284.219z
	 M1228.946,293.738c4.764-0.022,9.238-4.311,9.416-9.017c0.188-5.144-4.195-9.896-9.217-9.986c-5.152-0.088-9.596,4.287-9.619,9.484
	C1219.503,289.698,1223.524,293.772,1228.946,293.738z"/>
<circle fill="#ED1C24" cx="999" cy="-333.647" r="159"/>
<g>
	<g>
		<g>
			<g>
				<path stroke="#000000" stroke-width="0.5" stroke-miterlimit="10" d="M1284.045,741.352v-91.219
					c50.379,0,91.219,40.84,91.219,91.219s-40.84,91.219-91.219,91.219s-91.219-40.84-91.219-91.219s40.84-91.219,91.219-91.219l0,0
					V741.352z"/>
				<path stroke="#000000" stroke-width="0.5" stroke-miterlimit="10" d="M1492.545,741.352v-58.579
					c32.353,0,58.579,26.227,58.579,58.579s-26.227,58.579-58.579,58.579s-58.579-26.227-58.579-58.579s26.227-58.579,58.579-58.579
					l0,0V741.352z"/>
			</g>
		</g>
	</g>
	<g>
		<g>
		</g>
	</g>
</g>
<g>
	<path fill="#0E5461" d="M213.954,208.208V19.991c103.951,0,188.218,84.268,188.218,188.217s-84.267,188.217-188.218,188.217
		c-103.949,0-188.217-84.268-188.217-188.217S110.005,19.991,213.954,19.991l0,0V208.208z"/>
	<path fill="#5DC7C3" d="M249.831,263.208v-120.87c66.756,0,120.87,54.115,120.87,120.87s-54.114,120.87-120.87,120.87
		c-66.754,0-120.869-54.115-120.869-120.87s54.115-120.87,120.869-120.87l0,0V263.208z"/>
	<rect x="107.455" y="64.978" fill="none" width="213" height="68.282"/>
	<text transform="matrix(1 0 0 1 141.5664 87.2681)"><tspan x="0" y="0" fill="#FFFFFF" font-family="'Lato-Bold'" font-size="30">Total since </tspan><tspan x="-9.96" y="30" fill="#FFFFFF" font-family="'Lato-Bold'" font-size="30">2012 launch</tspan></text>
	<rect x="142.831" y="247.208" fill="none" width="213" height="50"/>
	<text transform="matrix(1 0 0 1 161.9951 269.4985)" fill="#FFFFFF" font-family="'Lato-Bold'" font-size="30">2013 reports</text>
</g>
</svg>
